<svg xmlns="http://www.w3.org/2000/svg" width="1200" height="2600" viewBox="0 0 1200 2600" preserveAspectRatio="xMidYMid slice">
  <defs>
    <linearGradient id="bg_dashboard_05_4454" x1="0" y1="0" x2="1" y2="1">
      <stop offset="0%" stop-color="#F8FFFD"/>
      <stop offset="48%" stop-color="#E8FFF5"/>
      <stop offset="100%" stop-color="#BDEFFF"/>
    </linearGradient>
    <radialGradient id="orb_dashboard_05_4454" cx="35%" cy="30%" r="70%">
      <stop offset="0%" stop-color="#FFFFFF" stop-opacity="0.85"/>
      <stop offset="42%" stop-color="#FFFFFF" stop-opacity="0.20"/>
      <stop offset="100%" stop-color="#FFFFFF" stop-opacity="0.02"/>
    </radialGradient>
    <filter id="blur_dashboard_05_4454" x="-30%" y="-30%" width="160%" height="160%">
      <feGaussianBlur stdDeviation="72"/>
    </filter>
    <filter id="soft_dashboard_05_4454" x="-20%" y="-20%" width="140%" height="140%">
      <feGaussianBlur stdDeviation="10"/>
    </filter>
    <filter id="grain_dashboard_05_4454">
      <feTurbulence type="fractalNoise" baseFrequency="0.85" numOctaves="2" stitchTiles="stitch"/>
      <feColorMatrix type="saturate" values="0"/>
      <feComponentTransfer>
        <feFuncA type="table" tableValues="0 0.035"/>
      </feComponentTransfer>
    </filter>
  </defs>
  <rect width="1200" height="2600" fill="url(#bg_dashboard_05_4454)"/>
  <path d="M 934.9 1899.0 C 934.9 2145.2, 1041.1 2064.7, 893.5 2253.3 C 746.0 2441.8, 816.4 2330.0, 590.4 2372.7 C 364.3 2415.5, 397.4 2490.2, 198.6 2367.1 C -0.1 2244.0, 41.6 2323.0, -36.9 2091.7 C -115.4 1860.4, -89.9 1935.1, -11.4 1703.8 C 67.1 1472.5, 9.7 1598.2, 208.4 1475.1 C 407.2 1352.0, 350.3 1354.3, 576.3 1397.0 C 802.4 1439.8, 776.2 1301.1, 923.7 1489.7 C 1071.2 1678.3, 934.9 1652.8, 934.9 1899.0 Z" fill="#A8F2C0" opacity="0.21" filter="url(#blur_dashboard_05_4454)"/>
  <path d="M 818.2 -225.0 C 818.2 -63.4, 866.7 -86.3, 777.9 37.4 C 689.1 161.2, 696.7 157.3, 560.6 185.4 C 424.6 213.5, 493.2 154.9, 373.6 74.2 C 253.9 -6.6, 230.8 51.6, 183.5 -100.2 C 136.3 -252.1, 153.9 -205.9, 201.1 -357.7 C 248.4 -509.5, 264.9 -404.7, 384.5 -485.5 C 504.2 -566.3, 432.2 -636.9, 568.2 -608.9 C 704.3 -580.8, 647.1 -601.0, 735.9 -477.2 C 824.7 -353.4, 818.2 -386.6, 818.2 -225.0 Z" fill="#A4E6F5" opacity="0.23" filter="url(#blur_dashboard_05_4454)"/>
  <path d="M 1219.1 2566.0 C 1219.1 2785.6, 1220.3 2704.1, 1127.7 2872.3 C 1035.1 3040.5, 1123.7 2945.6, 981.9 2983.8 C 840.1 3021.9, 880.1 3052.1, 755.4 2942.3 C 630.7 2832.5, 677.7 2910.2, 628.5 2703.9 C 579.2 2497.5, 533.5 2605.1, 582.8 2398.8 C 632.0 2192.4, 628.4 2289.1, 753.2 2179.3 C 877.9 2069.5, 838.3 2073.0, 980.1 2111.1 C 1121.9 2149.2, 1104.4 2129.9, 1197.0 2298.1 C 1289.5 2466.3, 1219.1 2346.4, 1219.1 2566.0 Z" fill="#F8FFFD" opacity="0.26" filter="url(#blur_dashboard_05_4454)"/>
  <path d="M 1682.5 2464.0 C 1682.5 2659.3, 1664.0 2640.3, 1550.3 2789.9 C 1436.6 2939.5, 1493.0 2905.5, 1318.8 2939.5 C 1144.6 2973.4, 1178.5 2882.5, 1025.4 2784.8 C 872.2 2687.2, 905.9 2779.8, 845.4 2596.2 C 784.9 2412.7, 771.0 2503.6, 831.5 2320.1 C 892.0 2136.6, 876.3 2231.7, 1029.4 2134.0 C 1182.6 2036.4, 1149.3 2063.5, 1323.4 2097.4 C 1497.6 2131.3, 1469.2 2043.9, 1582.9 2193.5 C 1696.6 2343.1, 1682.5 2268.7, 1682.5 2464.0 Z" fill="#A8F2C0" opacity="0.24" filter="url(#blur_dashboard_05_4454)"/>
  <path d="M 1406.1 450.0 C 1406.1 581.4, 1367.9 548.8, 1298.8 649.5 C 1229.7 750.1, 1273.7 715.6, 1167.8 738.4 C 1061.9 761.2, 1089.5 733.4, 996.4 667.7 C 903.2 602.0, 980.4 674.8, 943.6 551.3 C 906.8 427.9, 839.9 467.2, 876.7 343.8 C 913.5 220.3, 915.6 266.2, 1008.7 200.5 C 1101.9 134.8, 1072.3 118.5, 1178.2 141.3 C 1284.2 164.1, 1221.8 156.0, 1290.9 256.6 C 1360.0 357.3, 1406.1 318.6, 1406.1 450.0 Z" fill="#94D6FF" opacity="0.38" filter="url(#blur_dashboard_05_4454)"/>
  <path d="M 240.9 2383.0 C 240.9 2556.7, 345.9 2508.2, 241.2 2641.3 C 136.5 2774.4, 147.1 2749.8, -13.3 2779.9 C -173.7 2810.1, -114.2 2802.4, -255.3 2715.5 C -396.4 2628.7, -401.7 2655.6, -457.5 2492.4 C -513.2 2329.2, -431.3 2394.5, -375.6 2231.3 C -319.9 2068.1, -404.7 2125.8, -263.6 2039.0 C -122.6 1952.1, -186.6 1954.2, -26.1 1984.3 C 134.3 2014.5, 122.0 2041.2, 226.7 2174.3 C 331.4 2307.4, 240.9 2209.3, 240.9 2383.0 Z" fill="#F8FFFD" opacity="0.38" filter="url(#blur_dashboard_05_4454)"/>
  <path d="M 256.0 368.0 C 256.0 548.0, 344.8 487.5, 259.8 625.4 C 174.7 763.3, 191.1 762.7, 60.8 794.0 C -69.4 825.3, -31.4 805.0, -145.9 715.0 C -260.5 625.0, -217.6 659.6, -262.8 490.5 C -308.1 321.3, -340.5 386.0, -295.3 216.8 C -250.0 47.7, -250.1 169.2, -135.5 79.2 C -20.9 -10.8, -66.7 -80.4, 63.5 -49.1 C 193.8 -17.9, 175.7 -56.1, 260.8 81.8 C 345.8 219.7, 256.0 188.0, 256.0 368.0 Z" fill="#A8F2C0" opacity="0.26" filter="url(#blur_dashboard_05_4454)"/>
  <path d="M 905.6 1834.0 C 905.6 1959.1, 909.7 1903.6, 823.0 1999.5 C 736.2 2095.3, 812.4 2096.0, 679.5 2117.7 C 546.5 2139.5, 587.0 2119.9, 470.1 2057.4 C 353.2 1994.8, 404.4 2032.8, 358.3 1915.3 C 312.1 1797.7, 265.7 1855.4, 311.8 1737.9 C 358.0 1620.3, 347.5 1672.7, 464.5 1610.1 C 581.4 1547.6, 537.9 1535.8, 670.9 1557.5 C 803.8 1579.2, 808.0 1578.7, 894.8 1674.5 C 981.6 1770.3, 905.6 1708.9, 905.6 1834.0 Z" fill="#BDEFFF" opacity="0.17" filter="url(#blur_dashboard_05_4454)"/>
  <path d="M 750.4 834.0 C 750.4 1108.0, 713.0 1084.8, 593.0 1294.7 C 472.9 1504.6, 511.8 1430.3, 327.9 1477.9 C 144.0 1525.5, 244.1 1450.2, 82.4 1313.2 C -79.4 1176.2, -112.4 1287.2, -176.2 1029.6 C -240.1 772.1, -253.3 879.2, -189.4 621.7 C -125.5 364.1, -120.2 408.0, 41.5 270.9 C 203.3 133.9, 167.9 202.7, 351.8 250.2 C 535.7 297.8, 420.3 280.4, 540.3 490.3 C 660.4 700.2, 750.4 560.0, 750.4 834.0 Z" fill="#5DE0D7" opacity="0.34" filter="url(#blur_dashboard_05_4454)"/>
  <path d="M 878.2 2832.0 C 878.2 2996.7, 947.9 2970.2, 788.3 3096.3 C 628.6 3222.5, 708.4 3168.2, 463.8 3196.8 C 219.1 3225.4, 295.3 3278.1, 80.2 3195.8 C -134.9 3113.4, -89.7 3125.6, -174.7 2970.8 C -259.6 2816.1, -178.1 2879.2, -93.1 2724.5 C -8.2 2569.7, -137.6 2627.6, 77.5 2545.2 C 292.6 2462.9, 230.2 2379.3, 474.8 2407.9 C 719.4 2436.5, 693.2 2488.2, 852.9 2614.4 C 1012.6 2740.6, 878.2 2667.3, 878.2 2832.0 Z" fill="#A8F2C0" opacity="0.34" filter="url(#blur_dashboard_05_4454)"/>
  <path d="M 307.1 1896.0 C 307.1 2113.8, 265.4 2084.7, 187.3 2251.5 C 109.2 2418.3, 167.2 2380.7, 47.6 2418.5 C -72.1 2456.3, -55.8 2367.9, -161.1 2259.0 C -266.3 2150.1, -245.5 2241.3, -287.1 2036.6 C -328.7 1831.9, -293.3 1961.3, -251.8 1756.6 C -210.2 1552.0, -236.6 1597.0, -131.4 1488.1 C -26.2 1379.2, -67.8 1421.6, 51.8 1459.4 C 171.5 1497.3, 91.6 1457.8, 169.7 1624.6 C 247.8 1791.5, 307.1 1678.2, 307.1 1896.0 Z" fill="#A8F2C0" opacity="0.20" filter="url(#blur_dashboard_05_4454)"/>
  <path d="M 380.5 2175.0 C 380.5 2373.0, 441.4 2321.8, 356.6 2473.5 C 271.9 2625.1, 275.0 2535.0, 145.1 2569.4 C 15.3 2603.8, 52.9 2611.2, -61.3 2512.2 C -175.5 2413.2, -92.0 2523.6, -137.1 2337.6 C -182.2 2151.5, -266.3 2215.9, -221.2 2029.9 C -176.1 1843.8, -169.3 1867.3, -55.1 1768.3 C 59.1 1669.3, 21.9 1728.2, 151.7 1762.5 C 281.6 1796.9, 202.9 1749.6, 287.6 1901.3 C 372.4 2053.0, 380.5 1977.0, 380.5 2175.0 Z" fill="#A8F2C0" opacity="0.25" filter="url(#blur_dashboard_05_4454)"/>
  <path d="M 606.3 759.0 C 606.3 1063.7, 667.7 965.4, 545.7 1198.8 C 423.6 1432.1, 500.2 1378.3, 313.2 1431.2 C 126.1 1484.1, 216.8 1497.0, 52.3 1344.7 C -112.1 1192.4, -124.8 1264.4, -189.7 978.1 C -254.7 691.8, -170.3 783.4, -105.3 497.2 C -40.4 210.9, -132.9 258.2, 31.5 105.9 C 196.0 -46.5, 119.0 82.3, 306.0 135.2 C 493.0 188.1, 414.3 58.1, 536.4 291.5 C 658.5 524.9, 606.3 454.3, 606.3 759.0 Z" fill="#94D6FF" opacity="0.28" filter="url(#blur_dashboard_05_4454)"/>
  <path d="M 1731.4 2814.0 C 1731.4 3051.6, 1736.5 2974.5, 1569.6 3166.7 C 1402.7 3359.0, 1605.5 3310.9, 1335.4 3384.3 C 1065.3 3457.8, 1175.2 3379.5, 905.2 3306.1 C 635.1 3232.7, 814.2 3325.4, 647.3 3133.2 C 480.4 2941.0, 421.8 3051.6, 421.8 2814.0 C 421.8 2576.4, 374.1 2719.0, 541.0 2526.8 C 707.9 2334.6, 628.5 2348.3, 898.6 2274.8 C 1168.6 2201.4, 1026.9 2208.6, 1296.9 2282.0 C 1567.0 2355.4, 1506.1 2337.6, 1673.0 2529.8 C 1839.9 2722.0, 1731.4 2576.4, 1731.4 2814.0 Z" fill="#D7F8E8" opacity="0.12" stroke="#D7F8E8" stroke-opacity="0.46" stroke-width="3" filter="url(#soft_dashboard_05_4454)"/>
  <path d="M 1731.4 2814.0 C 1731.4 3051.6, 1736.5 2974.5, 1569.6 3166.7 C 1402.7 3359.0, 1605.5 3310.9, 1335.4 3384.3 C 1065.3 3457.8, 1175.2 3379.5, 905.2 3306.1 C 635.1 3232.7, 814.2 3325.4, 647.3 3133.2 C 480.4 2941.0, 421.8 3051.6, 421.8 2814.0 C 421.8 2576.4, 374.1 2719.0, 541.0 2526.8 C 707.9 2334.6, 628.5 2348.3, 898.6 2274.8 C 1168.6 2201.4, 1026.9 2208.6, 1296.9 2282.0 C 1567.0 2355.4, 1506.1 2337.6, 1673.0 2529.8 C 1839.9 2722.0, 1731.4 2576.4, 1731.4 2814.0 Z" fill="none" stroke="#FFFFFF" stroke-opacity="0.22" stroke-width="1.2"/>
  <path d="M 1022.3 2808.0 C 1022.3 3193.2, 1070.1 2963.8, 926.7 3275.4 C 783.3 3587.1, 936.5 3395.5, 704.6 3514.6 C 472.6 3633.6, 574.8 3700.9, 342.8 3581.9 C 110.8 3462.9, 251.2 3672.8, 107.9 3361.1 C -35.5 3049.5, -13.9 3193.2, -13.9 2808.0 C -13.9 2422.8, -110.0 2641.5, 33.3 2329.9 C 176.7 2018.3, 104.5 2129.7, 336.5 2010.7 C 568.5 1891.6, 465.9 1870.1, 697.9 1989.1 C 929.9 2108.2, 777.4 1944.4, 920.8 2256.0 C 1064.2 2567.6, 1022.3 2422.8, 1022.3 2808.0 Z" fill="#BDEFFF" opacity="0.12" stroke="#BDEFFF" stroke-opacity="0.46" stroke-width="3" filter="url(#soft_dashboard_05_4454)"/>
  <path d="M 1022.3 2808.0 C 1022.3 3193.2, 1070.1 2963.8, 926.7 3275.4 C 783.3 3587.1, 936.5 3395.5, 704.6 3514.6 C 472.6 3633.6, 574.8 3700.9, 342.8 3581.9 C 110.8 3462.9, 251.2 3672.8, 107.9 3361.1 C -35.5 3049.5, -13.9 3193.2, -13.9 2808.0 C -13.9 2422.8, -110.0 2641.5, 33.3 2329.9 C 176.7 2018.3, 104.5 2129.7, 336.5 2010.7 C 568.5 1891.6, 465.9 1870.1, 697.9 1989.1 C 929.9 2108.2, 777.4 1944.4, 920.8 2256.0 C 1064.2 2567.6, 1022.3 2422.8, 1022.3 2808.0 Z" fill="none" stroke="#FFFFFF" stroke-opacity="0.22" stroke-width="1.2"/>
  <path d="M 2036.5 2107.0 C 2036.5 2476.4, 2052.5 2349.1, 1878.7 2648.0 C 1704.9 2946.9, 1816.2 2861.2, 1535.1 2975.3 C 1253.9 3089.5, 1408.8 3096.8, 1127.6 2982.6 C 846.4 2868.5, 1039.7 2954.6, 865.9 2655.7 C 692.1 2356.8, 698.4 2476.4, 698.4 2107.0 C 698.4 1737.5, 632.1 1964.9, 805.9 1666.0 C 979.6 1367.1, 868.9 1518.9, 1150.0 1404.8 C 1431.2 1290.6, 1282.5 1251.6, 1563.7 1365.8 C 1844.9 1480.0, 1702.3 1352.3, 1876.1 1651.2 C 2049.9 1950.1, 2036.5 1737.5, 2036.5 2107.0 Z" fill="#A4E6F5" opacity="0.12" stroke="#A4E6F5" stroke-opacity="0.46" stroke-width="3" filter="url(#soft_dashboard_05_4454)"/>
  <path d="M 2036.5 2107.0 C 2036.5 2476.4, 2052.5 2349.1, 1878.7 2648.0 C 1704.9 2946.9, 1816.2 2861.2, 1535.1 2975.3 C 1253.9 3089.5, 1408.8 3096.8, 1127.6 2982.6 C 846.4 2868.5, 1039.7 2954.6, 865.9 2655.7 C 692.1 2356.8, 698.4 2476.4, 698.4 2107.0 C 698.4 1737.5, 632.1 1964.9, 805.9 1666.0 C 979.6 1367.1, 868.9 1518.9, 1150.0 1404.8 C 1431.2 1290.6, 1282.5 1251.6, 1563.7 1365.8 C 1844.9 1480.0, 1702.3 1352.3, 1876.1 1651.2 C 2049.9 1950.1, 2036.5 1737.5, 2036.5 2107.0 Z" fill="none" stroke="#FFFFFF" stroke-opacity="0.22" stroke-width="1.2"/>
  <path d="M 702.0 1701.0 C 702.0 1965.6, 734.8 1865.2, 614.1 2079.2 C 493.5 2293.3, 613.8 2211.0, 418.6 2292.7 C 223.4 2374.5, 357.2 2276.6, 162.0 2194.8 C -33.1 2113.0, 55.9 2238.8, -64.7 2024.7 C -185.3 1810.6, -187.6 1965.6, -187.6 1701.0 C -187.6 1436.4, -162.5 1553.4, -41.9 1339.4 C 78.7 1125.3, -39.4 1183.9, 155.7 1102.1 C 350.9 1020.4, 258.4 1040.0, 453.5 1121.8 C 648.7 1203.5, 592.7 1185.8, 713.3 1399.8 C 833.9 1613.9, 702.0 1436.4, 702.0 1701.0 Z" fill="#BDEFFF" opacity="0.12" stroke="#FFFFFF" stroke-opacity="0.46" stroke-width="3" filter="url(#soft_dashboard_05_4454)"/>
  <path d="M 702.0 1701.0 C 702.0 1965.6, 734.8 1865.2, 614.1 2079.2 C 493.5 2293.3, 613.8 2211.0, 418.6 2292.7 C 223.4 2374.5, 357.2 2276.6, 162.0 2194.8 C -33.1 2113.0, 55.9 2238.8, -64.7 2024.7 C -185.3 1810.6, -187.6 1965.6, -187.6 1701.0 C -187.6 1436.4, -162.5 1553.4, -41.9 1339.4 C 78.7 1125.3, -39.4 1183.9, 155.7 1102.1 C 350.9 1020.4, 258.4 1040.0, 453.5 1121.8 C 648.7 1203.5, 592.7 1185.8, 713.3 1399.8 C 833.9 1613.9, 702.0 1436.4, 702.0 1701.0 Z" fill="none" stroke="#FFFFFF" stroke-opacity="0.22" stroke-width="1.2"/>
  <path d="M -100.0 1997.7 Q 133.3 1839.0, 366.7 1824.1 Q 600.0 2210.1, 833.3 2089.7 Q 1066.7 1763.4, 1300.0 1764.0" fill="none" stroke="#FFFFFF" stroke-opacity="0.38" stroke-width="4" filter="url(#soft_dashboard_05_4454)"/>
  <path d="M -100.0 1997.7 Q 133.3 1839.0, 366.7 1824.1 Q 600.0 2210.1, 833.3 2089.7 Q 1066.7 1763.4, 1300.0 1764.0" fill="none" stroke="#A8F2C0" stroke-opacity="0.18" stroke-width="2"/>
  <path d="M -100.0 2198.8 Q 133.3 2139.8, 366.7 2134.5 Q 600.0 2067.2, 833.3 2167.7 Q 1066.7 2291.9, 1300.0 2344.2" fill="none" stroke="#FFFFFF" stroke-opacity="0.38" stroke-width="4" filter="url(#soft_dashboard_05_4454)"/>
  <path d="M -100.0 2198.8 Q 133.3 2139.8, 366.7 2134.5 Q 600.0 2067.2, 833.3 2167.7 Q 1066.7 2291.9, 1300.0 2344.2" fill="none" stroke="#A8F2C0" stroke-opacity="0.18" stroke-width="2"/>
  <path d="M -100.0 2336.6 Q 133.3 2381.1, 366.7 2622.9 Q 600.0 2552.0, 833.3 2477.9 Q 1066.7 2486.5, 1300.0 2205.2" fill="none" stroke="#FFFFFF" stroke-opacity="0.38" stroke-width="4" filter="url(#soft_dashboard_05_4454)"/>
  <path d="M -100.0 2336.6 Q 133.3 2381.1, 366.7 2622.9 Q 600.0 2552.0, 833.3 2477.9 Q 1066.7 2486.5, 1300.0 2205.2" fill="none" stroke="#94D6FF" stroke-opacity="0.18" stroke-width="2"/>
  <path d="M -100.0 1513.2 Q 133.3 1500.5, 366.7 1431.8 Q 600.0 1490.8, 833.3 1714.5 Q 1066.7 1793.9, 1300.0 1594.6" fill="none" stroke="#FFFFFF" stroke-opacity="0.38" stroke-width="4" filter="url(#soft_dashboard_05_4454)"/>
  <path d="M -100.0 1513.2 Q 133.3 1500.5, 366.7 1431.8 Q 600.0 1490.8, 833.3 1714.5 Q 1066.7 1793.9, 1300.0 1594.6" fill="none" stroke="#5DE0D7" stroke-opacity="0.18" stroke-width="2"/>
  <path d="M -100.0 326.5 Q 133.3 114.0, 366.7 213.1 Q 600.0 481.0, 833.3 475.2 Q 1066.7 65.4, 1300.0 243.2" fill="none" stroke="#FFFFFF" stroke-opacity="0.38" stroke-width="4" filter="url(#soft_dashboard_05_4454)"/>
  <path d="M -100.0 326.5 Q 133.3 114.0, 366.7 213.1 Q 600.0 481.0, 833.3 475.2 Q 1066.7 65.4, 1300.0 243.2" fill="none" stroke="#5DE0D7" stroke-opacity="0.18" stroke-width="2"/>
  <path d="M -100.0 984.2 Q 133.3 1254.4, 366.7 1483.3 Q 600.0 1136.6, 833.3 891.7 Q 1066.7 738.8, 1300.0 1124.4" fill="none" stroke="#FFFFFF" stroke-opacity="0.38" stroke-width="4" filter="url(#soft_dashboard_05_4454)"/>
  <path d="M -100.0 984.2 Q 133.3 1254.4, 366.7 1483.3 Q 600.0 1136.6, 833.3 891.7 Q 1066.7 738.8, 1300.0 1124.4" fill="none" stroke="#5DE0D7" stroke-opacity="0.18" stroke-width="2"/>
  <circle cx="1166" cy="-38" r="269" fill="url(#orb_dashboard_05_4454)" opacity="0.36"/>
  <circle cx="1166" cy="-38" r="269" fill="#D7F8E8" opacity="0.08"/>
  <circle cx="1166" cy="-38" r="269" fill="none" stroke="#FFFFFF" stroke-opacity="0.56" stroke-width="3"/>
  <ellipse cx="1090.7" cy="-134.8" rx="48.4" ry="21.5" fill="#FFFFFF" opacity="0.42" transform="rotate(-22 1090.7 -134.8)"/>
  <circle cx="1068" cy="854" r="271" fill="url(#orb_dashboard_05_4454)" opacity="0.36"/>
  <circle cx="1068" cy="854" r="271" fill="#A4E6F5" opacity="0.08"/>
  <circle cx="1068" cy="854" r="271" fill="none" stroke="#FFFFFF" stroke-opacity="0.56" stroke-width="3"/>
  <ellipse cx="992.1" cy="756.4" rx="48.8" ry="21.7" fill="#FFFFFF" opacity="0.42" transform="rotate(-22 992.1 756.4)"/>
  <circle cx="113" cy="1709" r="117" fill="url(#orb_dashboard_05_4454)" opacity="0.36"/>
  <circle cx="113" cy="1709" r="117" fill="#D7F8E8" opacity="0.08"/>
  <circle cx="113" cy="1709" r="117" fill="none" stroke="#FFFFFF" stroke-opacity="0.56" stroke-width="3"/>
  <ellipse cx="80.2" cy="1666.9" rx="21.1" ry="9.4" fill="#FFFFFF" opacity="0.42" transform="rotate(-22 80.2 1666.9)"/>
  <circle cx="260" cy="2625" r="277" fill="url(#orb_dashboard_05_4454)" opacity="0.26"/>
  <circle cx="260" cy="2625" r="277" fill="#D7F8E8" opacity="0.08"/>
  <circle cx="260" cy="2625" r="277" fill="none" stroke="#FFFFFF" stroke-opacity="0.56" stroke-width="3"/>
  <ellipse cx="182.4" cy="2525.3" rx="49.9" ry="22.2" fill="#FFFFFF" opacity="0.42" transform="rotate(-22 182.4 2525.3)"/>
  <circle cx="469" cy="419" r="169" fill="url(#orb_dashboard_05_4454)" opacity="0.27"/>
  <circle cx="469" cy="419" r="169" fill="#A4E6F5" opacity="0.08"/>
  <circle cx="469" cy="419" r="169" fill="none" stroke="#FFFFFF" stroke-opacity="0.56" stroke-width="3"/>
  <ellipse cx="421.7" cy="358.2" rx="30.4" ry="13.5" fill="#FFFFFF" opacity="0.42" transform="rotate(-22 421.7 358.2)"/>
  <circle cx="1008" cy="1568" r="178" fill="url(#orb_dashboard_05_4454)" opacity="0.23"/>
  <circle cx="1008" cy="1568" r="178" fill="#94D6FF" opacity="0.08"/>
  <circle cx="1008" cy="1568" r="178" fill="none" stroke="#FFFFFF" stroke-opacity="0.56" stroke-width="3"/>
  <ellipse cx="958.2" cy="1503.9" rx="32.0" ry="14.2" fill="#FFFFFF" opacity="0.42" transform="rotate(-22 958.2 1503.9)"/>
  <circle cx="977" cy="1982" r="193" fill="url(#orb_dashboard_05_4454)" opacity="0.25"/>
  <circle cx="977" cy="1982" r="193" fill="#E8FFF5" opacity="0.08"/>
  <circle cx="977" cy="1982" r="193" fill="none" stroke="#FFFFFF" stroke-opacity="0.56" stroke-width="3"/>
  <ellipse cx="923.0" cy="1912.5" rx="34.7" ry="15.4" fill="#FFFFFF" opacity="0.42" transform="rotate(-22 923.0 1912.5)"/>
  <circle cx="452" cy="-36" r="256" fill="url(#orb_dashboard_05_4454)" opacity="0.22"/>
  <circle cx="452" cy="-36" r="256" fill="#A8F2C0" opacity="0.08"/>
  <circle cx="452" cy="-36" r="256" fill="none" stroke="#FFFFFF" stroke-opacity="0.56" stroke-width="3"/>
  <ellipse cx="380.3" cy="-128.2" rx="46.1" ry="20.5" fill="#FFFFFF" opacity="0.42" transform="rotate(-22 380.3 -128.2)"/>
  <circle cx="83" cy="443" r="4" fill="#FFFFFF" opacity="0.43"/>
  <circle cx="1073" cy="948" r="3" fill="#FFFFFF" opacity="0.62"/>
  <circle cx="853" cy="979" r="7" fill="#FFFFFF" opacity="0.66"/>
  <circle cx="796" cy="1417" r="3" fill="#FFFFFF" opacity="0.30"/>
  <circle cx="1055" cy="1593" r="3" fill="#FFFFFF" opacity="0.51"/>
  <circle cx="1098" cy="1323" r="7" fill="#FFFFFF" opacity="0.40"/>
  <circle cx="1155" cy="1219" r="4" fill="#FFFFFF" opacity="0.35"/>
  <circle cx="369" cy="349" r="2" fill="#FFFFFF" opacity="0.43"/>
  <circle cx="335" cy="1212" r="4" fill="#FFFFFF" opacity="0.70"/>
  <circle cx="31" cy="933" r="3" fill="#FFFFFF" opacity="0.45"/>
  <circle cx="153" cy="1778" r="4" fill="#FFFFFF" opacity="0.45"/>
  <rect width="1200" height="2600" fill="#FFFFFF" opacity="0.08"/>
  <rect width="1200" height="2600" filter="url(#grain_dashboard_05_4454)" opacity="0.7"/>
</svg>
