<svg xmlns="http://www.w3.org/2000/svg" width="1200" height="2600" viewBox="0 0 1200 2600" preserveAspectRatio="xMidYMid slice">
  <defs>
    <linearGradient id="bg_dashboard_13_6049" x1="0" y1="0" x2="1" y2="1">
      <stop offset="0%" stop-color="#E8FFF5"/>
      <stop offset="48%" stop-color="#A4E6F5"/>
      <stop offset="100%" stop-color="#BDEFFF"/>
    </linearGradient>
    <radialGradient id="orb_dashboard_13_6049" cx="35%" cy="30%" r="70%">
      <stop offset="0%" stop-color="#FFFFFF" stop-opacity="0.85"/>
      <stop offset="42%" stop-color="#FFFFFF" stop-opacity="0.20"/>
      <stop offset="100%" stop-color="#FFFFFF" stop-opacity="0.02"/>
    </radialGradient>
    <filter id="blur_dashboard_13_6049" x="-30%" y="-30%" width="160%" height="160%">
      <feGaussianBlur stdDeviation="72"/>
    </filter>
    <filter id="soft_dashboard_13_6049" x="-20%" y="-20%" width="140%" height="140%">
      <feGaussianBlur stdDeviation="10"/>
    </filter>
    <filter id="grain_dashboard_13_6049">
      <feTurbulence type="fractalNoise" baseFrequency="0.85" numOctaves="2" stitchTiles="stitch"/>
      <feColorMatrix type="saturate" values="0"/>
      <feComponentTransfer>
        <feFuncA type="table" tableValues="0 0.035"/>
      </feComponentTransfer>
    </filter>
  </defs>
  <rect width="1200" height="2600" fill="url(#bg_dashboard_13_6049)"/>
  <path d="M 1809.4 2370.0 C 1809.4 2610.8, 1827.4 2479.3, 1685.4 2663.7 C 1543.4 2848.1, 1664.8 2762.5, 1447.2 2804.3 C 1229.6 2846.2, 1289.0 2931.6, 1097.6 2811.2 C 906.3 2690.8, 896.5 2769.6, 820.9 2543.4 C 745.3 2317.1, 895.4 2415.1, 971.0 2188.8 C 1046.5 1962.6, 948.8 2004.9, 1140.2 1884.5 C 1331.5 1764.1, 1230.8 1890.3, 1448.4 1932.1 C 1666.0 1973.9, 1578.8 1823.8, 1720.8 2008.2 C 1862.8 2192.6, 1809.4 2129.2, 1809.4 2370.0 Z" fill="#D7F8E8" opacity="0.25" filter="url(#blur_dashboard_13_6049)"/>
  <path d="M 384.6 1441.0 C 384.6 1729.5, 393.1 1610.1, 293.6 1831.1 C 194.1 2052.1, 267.4 1984.0, 115.0 2034.1 C -37.5 2084.2, 5.4 2179.5, -128.7 2035.3 C -262.8 1891.0, -235.4 1950.9, -288.3 1679.9 C -341.3 1408.8, -374.9 1510.7, -321.9 1239.7 C -269.0 968.6, -278.2 1003.1, -144.2 858.9 C -10.1 714.7, -53.7 791.4, 98.7 841.5 C 251.2 891.6, 235.1 741.0, 334.6 961.9 C 434.1 1182.9, 384.6 1152.5, 384.6 1441.0 Z" fill="#BDEFFF" opacity="0.16" filter="url(#blur_dashboard_13_6049)"/>
  <path d="M 1447.5 72.0 C 1447.5 189.0, 1431.6 157.2, 1337.0 246.8 C 1242.5 336.4, 1286.4 267.0, 1141.5 287.3 C 996.6 307.7, 1055.8 349.7, 928.3 291.2 C 800.9 232.7, 801.1 285.4, 750.8 175.5 C 700.5 65.5, 741.3 84.9, 791.6 -25.0 C 841.9 -135.0, 763.2 -60.3, 890.7 -118.8 C 1018.1 -177.3, 988.8 -191.4, 1133.7 -171.1 C 1278.6 -150.8, 1252.3 -171.2, 1346.9 -81.6 C 1441.4 8.1, 1447.5 -45.0, 1447.5 72.0 Z" fill="#D7F8E8" opacity="0.20" filter="url(#blur_dashboard_13_6049)"/>
  <path d="M 1301.1 2786.0 C 1301.1 2996.2, 1275.6 2934.5, 1181.6 3095.5 C 1087.6 3256.5, 1143.7 3189.7, 999.6 3226.2 C 855.6 3262.7, 923.3 3297.4, 796.6 3192.4 C 669.9 3087.3, 672.1 3117.4, 622.1 2919.9 C 572.0 2722.5, 548.2 2824.1, 598.3 2626.6 C 648.3 2429.1, 630.5 2512.9, 757.1 2407.8 C 883.8 2302.8, 858.2 2274.1, 1002.2 2310.6 C 1146.2 2347.1, 1076.2 2324.5, 1170.2 2485.4 C 1264.2 2646.4, 1301.1 2575.8, 1301.1 2786.0 Z" fill="#D7F8E8" opacity="0.29" filter="url(#blur_dashboard_13_6049)"/>
  <path d="M 1558.1 -58.0 C 1558.1 159.8, 1561.9 101.6, 1491.0 268.4 C 1420.1 435.3, 1439.8 420.6, 1331.3 458.4 C 1222.7 496.2, 1261.5 451.0, 1166.1 342.1 C 1070.6 233.2, 1068.9 305.1, 1031.2 100.4 C 993.5 -104.3, 1019.4 -29.9, 1057.1 -234.6 C 1094.8 -439.2, 1053.2 -382.8, 1148.7 -491.7 C 1244.2 -600.6, 1223.2 -539.8, 1331.8 -501.9 C 1440.4 -464.1, 1379.3 -486.4, 1450.2 -319.6 C 1521.1 -152.7, 1558.1 -275.8, 1558.1 -58.0 Z" fill="#E8FFF5" opacity="0.23" filter="url(#blur_dashboard_13_6049)"/>
  <path d="M 985.5 2235.0 C 985.5 2384.8, 1088.5 2347.7, 944.7 2462.5 C 801.0 2577.3, 803.4 2478.6, 583.2 2504.6 C 362.9 2530.6, 460.9 2617.3, 267.2 2542.4 C 73.5 2467.5, 118.5 2475.4, 42.0 2334.6 C -34.5 2193.8, -112.9 2272.9, -36.4 2132.1 C 40.1 1991.3, 28.2 2051.4, 221.9 1976.5 C 415.5 1901.6, 383.5 1835.2, 603.8 1861.3 C 824.0 1887.3, 706.3 1925.0, 850.0 2039.7 C 993.8 2154.5, 985.5 2085.2, 985.5 2235.0 Z" fill="#94D6FF" opacity="0.19" filter="url(#blur_dashboard_13_6049)"/>
  <path d="M 1561.3 2644.0 C 1561.3 2840.7, 1582.5 2771.2, 1497.7 2921.9 C 1413.0 3072.5, 1426.8 3065.6, 1296.9 3099.7 C 1167.1 3133.9, 1194.3 3187.8, 1080.1 3089.5 C 965.9 2991.2, 1036.9 2959.4, 991.8 2774.6 C 946.7 2589.8, 932.2 2695.8, 977.3 2511.0 C 1022.4 2326.2, 969.2 2425.6, 1083.4 2327.3 C 1197.6 2228.9, 1162.1 2229.7, 1292.0 2263.9 C 1421.8 2298.0, 1401.8 2184.6, 1486.5 2335.2 C 1571.3 2485.9, 1561.3 2447.3, 1561.3 2644.0 Z" fill="#5DE0D7" opacity="0.22" filter="url(#blur_dashboard_13_6049)"/>
  <path d="M 1612.9 1079.0 C 1612.9 1200.0, 1583.1 1165.0, 1426.0 1257.7 C 1269.0 1350.4, 1393.9 1283.0, 1153.3 1304.0 C 912.6 1325.1, 1008.3 1365.2, 796.7 1304.7 C 585.0 1244.2, 715.7 1288.3, 632.1 1174.6 C 548.6 1060.8, 539.7 1109.6, 623.2 995.8 C 706.8 882.1, 621.2 942.5, 832.9 882.0 C 1044.5 821.5, 923.2 785.8, 1163.9 806.8 C 1404.5 827.8, 1275.3 836.8, 1432.3 929.5 C 1589.4 1022.3, 1612.9 958.0, 1612.9 1079.0 Z" fill="#E8FFF5" opacity="0.21" filter="url(#blur_dashboard_13_6049)"/>
  <path d="M 344.8 225.0 C 344.8 530.5, 303.9 364.5, 198.1 611.7 C 92.3 858.9, 200.1 859.5, 28.9 953.9 C -142.2 1048.3, -47.7 912.6, -218.9 818.2 C -390.1 723.8, -274.0 919.5, -379.8 672.3 C -485.7 425.1, -478.2 530.6, -478.2 225.0 C -478.2 -80.5, -499.8 60.3, -394.0 -186.9 C -288.2 -434.1, -371.2 -266.5, -200.0 -360.9 C -28.8 -455.4, -149.3 -442.7, 21.9 -348.2 C 193.1 -253.8, 109.1 -434.2, 214.9 -187.0 C 320.7 60.2, 344.8 -80.6, 344.8 225.0 Z" fill="#A4E6F5" opacity="0.12" stroke="#FFFFFF" stroke-opacity="0.46" stroke-width="3" filter="url(#soft_dashboard_13_6049)"/>
  <path d="M 344.8 225.0 C 344.8 530.5, 303.9 364.5, 198.1 611.7 C 92.3 858.9, 200.1 859.5, 28.9 953.9 C -142.2 1048.3, -47.7 912.6, -218.9 818.2 C -390.1 723.8, -274.0 919.5, -379.8 672.3 C -485.7 425.1, -478.2 530.6, -478.2 225.0 C -478.2 -80.5, -499.8 60.3, -394.0 -186.9 C -288.2 -434.1, -371.2 -266.5, -200.0 -360.9 C -28.8 -455.4, -149.3 -442.7, 21.9 -348.2 C 193.1 -253.8, 109.1 -434.2, 214.9 -187.0 C 320.7 60.2, 344.8 -80.6, 344.8 225.0 Z" fill="none" stroke="#FFFFFF" stroke-opacity="0.22" stroke-width="1.2"/>
  <path d="M 1415.5 123.0 C 1415.5 386.2, 1479.3 220.5, 1384.9 433.5 C 1290.5 646.5, 1360.9 644.7, 1208.1 726.0 C 1055.4 807.4, 1140.0 816.8, 987.2 735.5 C 834.4 654.1, 879.1 689.6, 784.6 476.7 C 690.2 263.7, 787.2 386.3, 787.2 123.0 C 787.2 -140.2, 719.8 -49.5, 814.3 -262.5 C 908.7 -475.5, 824.9 -392.6, 977.7 -474.0 C 1130.5 -555.3, 1063.8 -561.4, 1216.6 -480.0 C 1369.4 -398.7, 1261.7 -446.2, 1356.1 -233.2 C 1450.6 -20.2, 1415.5 -140.2, 1415.5 123.0 Z" fill="#A4E6F5" opacity="0.12" stroke="#A4E6F5" stroke-opacity="0.46" stroke-width="3" filter="url(#soft_dashboard_13_6049)"/>
  <path d="M 1415.5 123.0 C 1415.5 386.2, 1479.3 220.5, 1384.9 433.5 C 1290.5 646.5, 1360.9 644.7, 1208.1 726.0 C 1055.4 807.4, 1140.0 816.8, 987.2 735.5 C 834.4 654.1, 879.1 689.6, 784.6 476.7 C 690.2 263.7, 787.2 386.3, 787.2 123.0 C 787.2 -140.2, 719.8 -49.5, 814.3 -262.5 C 908.7 -475.5, 824.9 -392.6, 977.7 -474.0 C 1130.5 -555.3, 1063.8 -561.4, 1216.6 -480.0 C 1369.4 -398.7, 1261.7 -446.2, 1356.1 -233.2 C 1450.6 -20.2, 1415.5 -140.2, 1415.5 123.0 Z" fill="none" stroke="#FFFFFF" stroke-opacity="0.22" stroke-width="1.2"/>
  <path d="M 1081.9 855.0 C 1081.9 1110.2, 1112.2 948.0, 991.9 1154.4 C 871.5 1360.8, 944.7 1383.1, 749.9 1462.0 C 555.2 1540.8, 674.6 1415.4, 479.8 1336.5 C 285.1 1257.7, 328.9 1397.5, 208.5 1191.1 C 88.2 984.7, 100.7 1110.2, 100.7 855.0 C 100.7 599.9, 157.7 712.5, 278.1 506.1 C 398.4 299.7, 271.9 419.2, 466.7 340.4 C 661.4 261.5, 546.4 237.3, 741.1 316.1 C 935.9 395.0, 881.1 292.8, 1001.4 499.2 C 1121.8 705.7, 1081.9 599.9, 1081.9 855.0 Z" fill="#F8FFFD" opacity="0.12" stroke="#F8FFFD" stroke-opacity="0.46" stroke-width="3" filter="url(#soft_dashboard_13_6049)"/>
  <path d="M 1081.9 855.0 C 1081.9 1110.2, 1112.2 948.0, 991.9 1154.4 C 871.5 1360.8, 944.7 1383.1, 749.9 1462.0 C 555.2 1540.8, 674.6 1415.4, 479.8 1336.5 C 285.1 1257.7, 328.9 1397.5, 208.5 1191.1 C 88.2 984.7, 100.7 1110.2, 100.7 855.0 C 100.7 599.9, 157.7 712.5, 278.1 506.1 C 398.4 299.7, 271.9 419.2, 466.7 340.4 C 661.4 261.5, 546.4 237.3, 741.1 316.1 C 935.9 395.0, 881.1 292.8, 1001.4 499.2 C 1121.8 705.7, 1081.9 599.9, 1081.9 855.0 Z" fill="none" stroke="#FFFFFF" stroke-opacity="0.22" stroke-width="1.2"/>
  <path d="M 1471.5 54.0 C 1471.5 208.3, 1461.9 138.1, 1386.0 263.0 C 1310.1 387.9, 1379.2 327.2, 1256.4 374.9 C 1133.5 422.6, 1196.8 470.9, 1073.9 423.2 C 951.1 375.5, 1031.4 391.4, 955.5 266.6 C 879.5 141.7, 895.0 208.4, 895.0 54.0 C 895.0 -100.3, 843.9 -33.8, 919.8 -158.6 C 995.8 -283.5, 965.8 -228.9, 1088.7 -276.6 C 1211.5 -324.3, 1138.2 -279.8, 1261.0 -232.1 C 1383.8 -184.4, 1343.0 -248.9, 1418.9 -124.1 C 1494.8 0.8, 1471.5 -100.3, 1471.5 54.0 Z" fill="#BDEFFF" opacity="0.12" stroke="#BDEFFF" stroke-opacity="0.46" stroke-width="3" filter="url(#soft_dashboard_13_6049)"/>
  <path d="M 1471.5 54.0 C 1471.5 208.3, 1461.9 138.1, 1386.0 263.0 C 1310.1 387.9, 1379.2 327.2, 1256.4 374.9 C 1133.5 422.6, 1196.8 470.9, 1073.9 423.2 C 951.1 375.5, 1031.4 391.4, 955.5 266.6 C 879.5 141.7, 895.0 208.4, 895.0 54.0 C 895.0 -100.3, 843.9 -33.8, 919.8 -158.6 C 995.8 -283.5, 965.8 -228.9, 1088.7 -276.6 C 1211.5 -324.3, 1138.2 -279.8, 1261.0 -232.1 C 1383.8 -184.4, 1343.0 -248.9, 1418.9 -124.1 C 1494.8 0.8, 1471.5 -100.3, 1471.5 54.0 Z" fill="none" stroke="#FFFFFF" stroke-opacity="0.22" stroke-width="1.2"/>
  <path d="M 878.2 1896.0 C 878.2 2233.5, 997.2 2079.6, 835.0 2352.7 C 672.9 2625.7, 786.3 2452.5, 524.0 2556.8 C 261.6 2661.1, 422.9 2804.5, 160.6 2700.2 C -101.8 2595.9, 49.8 2558.8, -112.3 2285.8 C -274.5 2012.7, -240.9 2233.5, -240.9 1896.0 C -240.9 1558.5, -397.6 1744.8, -235.4 1471.8 C -73.3 1198.7, -108.5 1265.1, 153.8 1160.8 C 416.2 1056.5, 227.6 1158.1, 490.0 1262.3 C 752.3 1366.6, 670.5 1196.0, 832.7 1469.0 C 994.8 1742.1, 878.2 1558.5, 878.2 1896.0 Z" fill="#D7F8E8" opacity="0.12" stroke="#FFFFFF" stroke-opacity="0.46" stroke-width="3" filter="url(#soft_dashboard_13_6049)"/>
  <path d="M 878.2 1896.0 C 878.2 2233.5, 997.2 2079.6, 835.0 2352.7 C 672.9 2625.7, 786.3 2452.5, 524.0 2556.8 C 261.6 2661.1, 422.9 2804.5, 160.6 2700.2 C -101.8 2595.9, 49.8 2558.8, -112.3 2285.8 C -274.5 2012.7, -240.9 2233.5, -240.9 1896.0 C -240.9 1558.5, -397.6 1744.8, -235.4 1471.8 C -73.3 1198.7, -108.5 1265.1, 153.8 1160.8 C 416.2 1056.5, 227.6 1158.1, 490.0 1262.3 C 752.3 1366.6, 670.5 1196.0, 832.7 1469.0 C 994.8 1742.1, 878.2 1558.5, 878.2 1896.0 Z" fill="none" stroke="#FFFFFF" stroke-opacity="0.22" stroke-width="1.2"/>
  <path d="M -100.0 2929.5 Q 133.3 2764.6, 366.7 2302.8 Q 600.0 2569.1, 833.3 2852.7 Q 1066.7 2576.3, 1300.0 2382.2" fill="none" stroke="#FFFFFF" stroke-opacity="0.38" stroke-width="4" filter="url(#soft_dashboard_13_6049)"/>
  <path d="M -100.0 2929.5 Q 133.3 2764.6, 366.7 2302.8 Q 600.0 2569.1, 833.3 2852.7 Q 1066.7 2576.3, 1300.0 2382.2" fill="none" stroke="#A8F2C0" stroke-opacity="0.18" stroke-width="2"/>
  <path d="M -100.0 1078.0 Q 133.3 837.2, 366.7 942.4 Q 600.0 1051.7, 833.3 1164.8 Q 1066.7 969.2, 1300.0 842.0" fill="none" stroke="#FFFFFF" stroke-opacity="0.38" stroke-width="4" filter="url(#soft_dashboard_13_6049)"/>
  <path d="M -100.0 1078.0 Q 133.3 837.2, 366.7 942.4 Q 600.0 1051.7, 833.3 1164.8 Q 1066.7 969.2, 1300.0 842.0" fill="none" stroke="#94D6FF" stroke-opacity="0.18" stroke-width="2"/>
  <path d="M -100.0 1600.7 Q 133.3 1537.2, 366.7 1768.2 Q 600.0 2000.7, 833.3 1928.7 Q 1066.7 1820.2, 1300.0 1605.6" fill="none" stroke="#FFFFFF" stroke-opacity="0.38" stroke-width="4" filter="url(#soft_dashboard_13_6049)"/>
  <path d="M -100.0 1600.7 Q 133.3 1537.2, 366.7 1768.2 Q 600.0 2000.7, 833.3 1928.7 Q 1066.7 1820.2, 1300.0 1605.6" fill="none" stroke="#A8F2C0" stroke-opacity="0.18" stroke-width="2"/>
  <path d="M -100.0 1378.5 Q 133.3 1220.8, 366.7 974.5 Q 600.0 1086.4, 833.3 1264.1 Q 1066.7 1258.4, 1300.0 1196.2" fill="none" stroke="#FFFFFF" stroke-opacity="0.38" stroke-width="4" filter="url(#soft_dashboard_13_6049)"/>
  <path d="M -100.0 1378.5 Q 133.3 1220.8, 366.7 974.5 Q 600.0 1086.4, 833.3 1264.1 Q 1066.7 1258.4, 1300.0 1196.2" fill="none" stroke="#5DE0D7" stroke-opacity="0.18" stroke-width="2"/>
  <circle cx="736" cy="1140" r="241" fill="url(#orb_dashboard_13_6049)" opacity="0.36"/>
  <circle cx="736" cy="1140" r="241" fill="#D7F8E8" opacity="0.08"/>
  <circle cx="736" cy="1140" r="241" fill="none" stroke="#FFFFFF" stroke-opacity="0.56" stroke-width="3"/>
  <ellipse cx="668.5" cy="1053.2" rx="43.4" ry="19.3" fill="#FFFFFF" opacity="0.42" transform="rotate(-22 668.5 1053.2)"/>
  <circle cx="120" cy="1226" r="204" fill="url(#orb_dashboard_13_6049)" opacity="0.36"/>
  <circle cx="120" cy="1226" r="204" fill="#A4E6F5" opacity="0.08"/>
  <circle cx="120" cy="1226" r="204" fill="none" stroke="#FFFFFF" stroke-opacity="0.56" stroke-width="3"/>
  <ellipse cx="62.9" cy="1152.6" rx="36.7" ry="16.3" fill="#FFFFFF" opacity="0.42" transform="rotate(-22 62.9 1152.6)"/>
  <circle cx="1030" cy="785" r="163" fill="url(#orb_dashboard_13_6049)" opacity="0.36"/>
  <circle cx="1030" cy="785" r="163" fill="#94D6FF" opacity="0.08"/>
  <circle cx="1030" cy="785" r="163" fill="none" stroke="#FFFFFF" stroke-opacity="0.56" stroke-width="3"/>
  <ellipse cx="984.4" cy="726.3" rx="29.3" ry="13.0" fill="#FFFFFF" opacity="0.42" transform="rotate(-22 984.4 726.3)"/>
  <circle cx="864" cy="934" r="93" fill="url(#orb_dashboard_13_6049)" opacity="0.17"/>
  <circle cx="864" cy="934" r="93" fill="#D7F8E8" opacity="0.08"/>
  <circle cx="864" cy="934" r="93" fill="none" stroke="#FFFFFF" stroke-opacity="0.56" stroke-width="3"/>
  <ellipse cx="838.0" cy="900.5" rx="16.7" ry="7.4" fill="#FFFFFF" opacity="0.42" transform="rotate(-22 838.0 900.5)"/>
  <circle cx="285" cy="945" r="158" fill="url(#orb_dashboard_13_6049)" opacity="0.21"/>
  <circle cx="285" cy="945" r="158" fill="#BDEFFF" opacity="0.08"/>
  <circle cx="285" cy="945" r="158" fill="none" stroke="#FFFFFF" stroke-opacity="0.56" stroke-width="3"/>
  <ellipse cx="240.8" cy="888.1" rx="28.4" ry="12.6" fill="#FFFFFF" opacity="0.42" transform="rotate(-22 240.8 888.1)"/>
  <circle cx="1202" cy="2209" r="132" fill="url(#orb_dashboard_13_6049)" opacity="0.27"/>
  <circle cx="1202" cy="2209" r="132" fill="#E8FFF5" opacity="0.08"/>
  <circle cx="1202" cy="2209" r="132" fill="none" stroke="#FFFFFF" stroke-opacity="0.56" stroke-width="3"/>
  <ellipse cx="1165.0" cy="2161.5" rx="23.8" ry="10.6" fill="#FFFFFF" opacity="0.42" transform="rotate(-22 1165.0 2161.5)"/>
  <circle cx="233" cy="526" r="100" fill="url(#orb_dashboard_13_6049)" opacity="0.20"/>
  <circle cx="233" cy="526" r="100" fill="#5DE0D7" opacity="0.08"/>
  <circle cx="233" cy="526" r="100" fill="none" stroke="#FFFFFF" stroke-opacity="0.56" stroke-width="3"/>
  <ellipse cx="205.0" cy="490.0" rx="18.0" ry="8.0" fill="#FFFFFF" opacity="0.42" transform="rotate(-22 205.0 490.0)"/>
  <circle cx="61" cy="1270" r="181" fill="url(#orb_dashboard_13_6049)" opacity="0.22"/>
  <circle cx="61" cy="1270" r="181" fill="#BDEFFF" opacity="0.08"/>
  <circle cx="61" cy="1270" r="181" fill="none" stroke="#FFFFFF" stroke-opacity="0.56" stroke-width="3"/>
  <ellipse cx="10.3" cy="1204.8" rx="32.6" ry="14.5" fill="#FFFFFF" opacity="0.42" transform="rotate(-22 10.3 1204.8)"/>
  <circle cx="317" cy="1026" r="169" fill="url(#orb_dashboard_13_6049)" opacity="0.21"/>
  <circle cx="317" cy="1026" r="169" fill="#A8F2C0" opacity="0.08"/>
  <circle cx="317" cy="1026" r="169" fill="none" stroke="#FFFFFF" stroke-opacity="0.56" stroke-width="3"/>
  <ellipse cx="269.7" cy="965.2" rx="30.4" ry="13.5" fill="#FFFFFF" opacity="0.42" transform="rotate(-22 269.7 965.2)"/>
  <circle cx="624" cy="543" r="7" fill="#FFFFFF" opacity="0.50"/>
  <circle cx="334" cy="2516" r="7" fill="#FFFFFF" opacity="0.43"/>
  <circle cx="1084" cy="1123" r="2" fill="#FFFFFF" opacity="0.34"/>
  <circle cx="8" cy="1401" r="2" fill="#FFFFFF" opacity="0.68"/>
  <circle cx="545" cy="657" r="5" fill="#FFFFFF" opacity="0.36"/>
  <circle cx="337" cy="636" r="7" fill="#FFFFFF" opacity="0.52"/>
  <circle cx="989" cy="1823" r="7" fill="#FFFFFF" opacity="0.66"/>
  <circle cx="924" cy="779" r="5" fill="#FFFFFF" opacity="0.51"/>
  <circle cx="1034" cy="2052" r="5" fill="#FFFFFF" opacity="0.48"/>
  <circle cx="1007" cy="2531" r="7" fill="#FFFFFF" opacity="0.57"/>
  <circle cx="1159" cy="1792" r="5" fill="#FFFFFF" opacity="0.31"/>
  <circle cx="707" cy="546" r="5" fill="#FFFFFF" opacity="0.43"/>
  <rect width="1200" height="2600" fill="#FFFFFF" opacity="0.08"/>
  <rect width="1200" height="2600" filter="url(#grain_dashboard_13_6049)" opacity="0.7"/>
</svg>
