<svg xmlns="http://www.w3.org/2000/svg" width="1200" height="2600" viewBox="0 0 1200 2600" preserveAspectRatio="xMidYMid slice">
  <defs>
    <linearGradient id="bg_dashboard_17_1035" x1="0" y1="0" x2="1" y2="1">
      <stop offset="0%" stop-color="#A4E6F5"/>
      <stop offset="48%" stop-color="#BDEFFF"/>
      <stop offset="100%" stop-color="#D7F8E8"/>
    </linearGradient>
    <radialGradient id="orb_dashboard_17_1035" cx="35%" cy="30%" r="70%">
      <stop offset="0%" stop-color="#FFFFFF" stop-opacity="0.85"/>
      <stop offset="42%" stop-color="#FFFFFF" stop-opacity="0.20"/>
      <stop offset="100%" stop-color="#FFFFFF" stop-opacity="0.02"/>
    </radialGradient>
    <filter id="blur_dashboard_17_1035" x="-30%" y="-30%" width="160%" height="160%">
      <feGaussianBlur stdDeviation="72"/>
    </filter>
    <filter id="soft_dashboard_17_1035" x="-20%" y="-20%" width="140%" height="140%">
      <feGaussianBlur stdDeviation="10"/>
    </filter>
    <filter id="grain_dashboard_17_1035">
      <feTurbulence type="fractalNoise" baseFrequency="0.85" numOctaves="2" stitchTiles="stitch"/>
      <feColorMatrix type="saturate" values="0"/>
      <feComponentTransfer>
        <feFuncA type="table" tableValues="0 0.035"/>
      </feComponentTransfer>
    </filter>
  </defs>
  <rect width="1200" height="2600" fill="url(#bg_dashboard_17_1035)"/>
  <path d="M 300.7 1690.0 C 300.7 1976.7, 323.6 1926.8, 230.8 2146.4 C 137.9 2366.0, 159.4 2259.5, 17.2 2309.3 C -125.1 2359.1, -86.7 2390.6, -211.8 2247.3 C -336.9 2104.0, -316.7 2183.5, -366.1 1914.2 C -415.5 1644.8, -356.5 1734.2, -307.1 1464.8 C -257.7 1195.5, -340.3 1210.6, -215.2 1067.3 C -90.1 924.0, -127.9 1000.0, 14.3 1049.8 C 156.6 1099.5, 98.5 1016.7, 191.3 1236.3 C 284.2 1455.9, 300.7 1403.3, 300.7 1690.0 Z" fill="#D7F8E8" opacity="0.29" filter="url(#blur_dashboard_17_1035)"/>
  <path d="M 1186.5 2015.0 C 1186.5 2270.6, 1270.9 2177.0, 1142.8 2372.8 C 1014.6 2568.6, 1037.2 2618.8, 840.9 2663.2 C 644.6 2707.6, 687.8 2705.7, 515.1 2577.9 C 342.5 2450.1, 373.1 2426.3, 304.9 2186.1 C 236.7 1946.0, 258.4 2034.3, 326.6 1794.1 C 394.8 1553.9, 355.7 1584.8, 528.3 1457.0 C 700.9 1329.2, 628.0 1379.2, 824.3 1423.6 C 1020.7 1468.0, 969.3 1479.4, 1097.5 1675.2 C 1225.6 1871.0, 1186.5 1759.4, 1186.5 2015.0 Z" fill="#F8FFFD" opacity="0.30" filter="url(#blur_dashboard_17_1035)"/>
  <path d="M 526.3 1119.0 C 526.3 1264.8, 541.4 1203.4, 473.8 1315.1 C 406.1 1426.8, 458.8 1399.3, 355.1 1424.6 C 251.4 1449.9, 300.2 1499.9, 209.0 1427.0 C 117.8 1354.1, 117.4 1367.7, 81.4 1230.7 C 45.4 1093.7, 44.7 1137.3, 80.7 1000.3 C 116.7 863.3, 98.5 919.4, 189.7 846.5 C 280.9 773.6, 255.2 802.6, 358.9 827.9 C 462.6 853.3, 400.4 762.6, 468.1 874.3 C 535.8 985.9, 526.3 973.2, 526.3 1119.0 Z" fill="#E8FFF5" opacity="0.36" filter="url(#blur_dashboard_17_1035)"/>
  <path d="M 1063.2 713.0 C 1063.2 1024.8, 1131.8 859.8, 997.3 1098.7 C 862.8 1337.6, 916.9 1434.9, 710.8 1489.0 C 504.7 1543.2, 602.9 1464.8, 421.6 1308.9 C 240.4 1153.0, 190.4 1206.4, 118.9 913.3 C 47.3 620.3, 44.4 780.7, 116.0 487.7 C 187.6 194.6, 218.3 301.7, 399.5 145.8 C 580.8 -10.1, 484.7 73.0, 690.7 127.1 C 896.8 181.3, 784.4 56.5, 918.9 295.4 C 1053.4 534.3, 1063.2 401.1, 1063.2 713.0 Z" fill="#A8F2C0" opacity="0.19" filter="url(#blur_dashboard_17_1035)"/>
  <path d="M 1279.9 -165.0 C 1279.9 122.1, 1224.0 90.4, 1149.7 310.3 C 1075.3 530.2, 1139.1 327.3, 1025.2 377.2 C 911.3 427.0, 960.3 576.0, 860.2 432.4 C 760.0 288.9, 768.7 302.7, 729.1 32.9 C 689.6 -236.9, 740.8 -109.0, 780.4 -378.7 C 819.9 -648.5, 769.0 -523.5, 869.1 -667.1 C 969.3 -810.6, 912.1 -896.4, 1026.0 -846.5 C 1139.9 -796.7, 1071.5 -838.1, 1145.8 -618.2 C 1220.1 -398.3, 1279.9 -452.1, 1279.9 -165.0 Z" fill="#A4E6F5" opacity="0.23" filter="url(#blur_dashboard_17_1035)"/>
  <path d="M 908.9 1682.0 C 908.9 1955.6, 983.6 1817.2, 822.5 2026.8 C 661.4 2236.4, 795.0 2189.5, 548.2 2237.1 C 301.3 2284.6, 398.9 2263.4, 181.9 2126.6 C -35.2 1989.8, 44.6 2171.6, -41.1 1914.5 C -126.9 1657.4, -238.3 1722.5, -152.6 1465.4 C -66.8 1208.3, -26.8 1289.4, 190.2 1152.6 C 407.3 1015.8, 298.2 972.4, 545.1 1019.9 C 791.9 1067.4, 759.4 1042.4, 920.6 1252.0 C 1081.7 1461.6, 908.9 1408.4, 908.9 1682.0 Z" fill="#A8F2C0" opacity="0.27" filter="url(#blur_dashboard_17_1035)"/>
  <path d="M 1258.9 2846.0 C 1258.9 3136.7, 1353.2 3006.1, 1233.2 3228.8 C 1113.2 3451.5, 1146.6 3492.5, 962.7 3543.0 C 778.8 3593.5, 872.1 3509.3, 710.4 3364.0 C 548.6 3218.6, 604.1 3322.3, 540.2 3049.1 C 476.3 2776.0, 391.4 2888.3, 455.3 2615.1 C 519.2 2342.0, 536.7 2522.4, 698.4 2377.1 C 860.1 2231.7, 780.1 2120.1, 964.0 2170.6 C 1147.9 2221.1, 1126.4 2232.5, 1246.4 2455.1 C 1366.4 2677.8, 1258.9 2555.3, 1258.9 2846.0 Z" fill="#D7F8E8" opacity="0.33" filter="url(#blur_dashboard_17_1035)"/>
  <path d="M 1293.3 1346.0 C 1293.3 1579.5, 1252.6 1461.2, 1168.4 1640.1 C 1084.3 1819.0, 1135.8 1746.7, 1006.8 1787.2 C 877.8 1827.8, 896.4 1867.1, 783.0 1750.3 C 669.6 1633.5, 755.7 1739.2, 711.0 1519.7 C 666.2 1300.3, 624.0 1373.1, 668.8 1153.6 C 713.6 934.2, 712.3 1037.0, 825.7 920.2 C 939.1 803.4, 864.8 824.4, 993.8 864.9 C 1122.7 905.5, 1100.5 840.2, 1184.6 1019.2 C 1268.8 1198.1, 1293.3 1112.5, 1293.3 1346.0 Z" fill="#D7F8E8" opacity="0.37" filter="url(#blur_dashboard_17_1035)"/>
  <path d="M 575.0 409.0 C 575.0 790.6, 580.8 612.6, 451.2 921.4 C 321.6 1230.1, 462.1 1121.0, 252.4 1238.9 C 42.7 1356.8, 148.9 1235.2, -60.8 1117.3 C -270.5 999.4, -188.4 1166.3, -318.0 857.6 C -447.6 548.9, -362.0 790.6, -362.0 409.0 C -362.0 27.4, -488.1 228.6, -358.5 -80.1 C -228.9 -388.9, -271.3 -205.4, -61.6 -323.4 C 148.1 -441.3, 14.3 -544.4, 224.0 -426.5 C 433.8 -308.5, 318.3 -455.9, 447.9 -147.2 C 577.5 161.5, 575.0 27.4, 575.0 409.0 Z" fill="#94D6FF" opacity="0.12" stroke="#FFFFFF" stroke-opacity="0.46" stroke-width="3" filter="url(#soft_dashboard_17_1035)"/>
  <path d="M 575.0 409.0 C 575.0 790.6, 580.8 612.6, 451.2 921.4 C 321.6 1230.1, 462.1 1121.0, 252.4 1238.9 C 42.7 1356.8, 148.9 1235.2, -60.8 1117.3 C -270.5 999.4, -188.4 1166.3, -318.0 857.6 C -447.6 548.9, -362.0 790.6, -362.0 409.0 C -362.0 27.4, -488.1 228.6, -358.5 -80.1 C -228.9 -388.9, -271.3 -205.4, -61.6 -323.4 C 148.1 -441.3, 14.3 -544.4, 224.0 -426.5 C 433.8 -308.5, 318.3 -455.9, 447.9 -147.2 C 577.5 161.5, 575.0 27.4, 575.0 409.0 Z" fill="none" stroke="#FFFFFF" stroke-opacity="0.22" stroke-width="1.2"/>
  <path d="M 475.7 2131.0 C 475.7 2368.6, 451.1 2225.7, 286.3 2417.9 C 121.5 2610.2, 263.6 2626.3, -3.0 2699.7 C -269.6 2773.1, -114.5 2664.7, -381.1 2591.3 C -647.8 2517.9, -466.4 2675.5, -631.2 2483.2 C -796.0 2291.0, -856.0 2368.6, -856.0 2131.0 C -856.0 1893.4, -798.1 1980.2, -633.3 1788.0 C -468.5 1595.8, -626.3 1676.1, -359.7 1602.7 C -93.1 1529.3, -236.1 1541.1, 30.5 1614.5 C 297.1 1687.9, 123.4 1588.3, 288.2 1780.5 C 453.0 1972.7, 475.7 1893.4, 475.7 2131.0 Z" fill="#94D6FF" opacity="0.12" stroke="#94D6FF" stroke-opacity="0.46" stroke-width="3" filter="url(#soft_dashboard_17_1035)"/>
  <path d="M 475.7 2131.0 C 475.7 2368.6, 451.1 2225.7, 286.3 2417.9 C 121.5 2610.2, 263.6 2626.3, -3.0 2699.7 C -269.6 2773.1, -114.5 2664.7, -381.1 2591.3 C -647.8 2517.9, -466.4 2675.5, -631.2 2483.2 C -796.0 2291.0, -856.0 2368.6, -856.0 2131.0 C -856.0 1893.4, -798.1 1980.2, -633.3 1788.0 C -468.5 1595.8, -626.3 1676.1, -359.7 1602.7 C -93.1 1529.3, -236.1 1541.1, 30.5 1614.5 C 297.1 1687.9, 123.4 1588.3, 288.2 1780.5 C 453.0 1972.7, 475.7 1893.4, 475.7 2131.0 Z" fill="none" stroke="#FFFFFF" stroke-opacity="0.22" stroke-width="1.2"/>
  <path d="M 1474.3 1540.0 C 1474.3 1700.2, 1452.0 1622.6, 1316.6 1752.2 C 1181.2 1881.8, 1297.2 1824.9, 1078.1 1874.4 C 859.0 1923.9, 991.7 1901.1, 772.6 1851.6 C 553.4 1802.1, 667.8 1896.3, 532.4 1766.7 C 397.0 1637.1, 376.6 1700.2, 376.6 1540.0 C 376.6 1379.8, 399.0 1465.0, 534.4 1335.4 C 669.9 1205.7, 560.2 1224.8, 779.3 1175.3 C 998.5 1125.8, 897.7 1199.1, 1116.9 1248.6 C 1336.0 1298.1, 1186.1 1192.7, 1321.5 1322.3 C 1456.9 1451.9, 1474.3 1379.8, 1474.3 1540.0 Z" fill="#BDEFFF" opacity="0.12" stroke="#BDEFFF" stroke-opacity="0.46" stroke-width="3" filter="url(#soft_dashboard_17_1035)"/>
  <path d="M 1474.3 1540.0 C 1474.3 1700.2, 1452.0 1622.6, 1316.6 1752.2 C 1181.2 1881.8, 1297.2 1824.9, 1078.1 1874.4 C 859.0 1923.9, 991.7 1901.1, 772.6 1851.6 C 553.4 1802.1, 667.8 1896.3, 532.4 1766.7 C 397.0 1637.1, 376.6 1700.2, 376.6 1540.0 C 376.6 1379.8, 399.0 1465.0, 534.4 1335.4 C 669.9 1205.7, 560.2 1224.8, 779.3 1175.3 C 998.5 1125.8, 897.7 1199.1, 1116.9 1248.6 C 1336.0 1298.1, 1186.1 1192.7, 1321.5 1322.3 C 1456.9 1451.9, 1474.3 1379.8, 1474.3 1540.0 Z" fill="none" stroke="#FFFFFF" stroke-opacity="0.22" stroke-width="1.2"/>
  <path d="M 602.6 92.0 C 602.6 394.9, 642.4 274.6, 520.7 519.6 C 399.0 764.6, 443.7 601.3, 246.8 694.9 C 49.9 788.5, 164.0 820.1, -32.8 726.5 C -229.7 632.9, -199.9 684.9, -321.6 439.9 C -443.3 194.9, -383.0 394.9, -383.0 92.0 C -383.0 -210.8, -387.1 -75.7, -265.5 -320.7 C -143.8 -565.7, -260.5 -451.8, -63.6 -545.4 C 133.2 -639.0, 24.5 -700.8, 221.4 -607.2 C 418.2 -513.6, 362.8 -568.1, 484.4 -323.1 C 606.1 -78.1, 602.6 -210.9, 602.6 92.0 Z" fill="#F8FFFD" opacity="0.12" stroke="#F8FFFD" stroke-opacity="0.46" stroke-width="3" filter="url(#soft_dashboard_17_1035)"/>
  <path d="M 602.6 92.0 C 602.6 394.9, 642.4 274.6, 520.7 519.6 C 399.0 764.6, 443.7 601.3, 246.8 694.9 C 49.9 788.5, 164.0 820.1, -32.8 726.5 C -229.7 632.9, -199.9 684.9, -321.6 439.9 C -443.3 194.9, -383.0 394.9, -383.0 92.0 C -383.0 -210.8, -387.1 -75.7, -265.5 -320.7 C -143.8 -565.7, -260.5 -451.8, -63.6 -545.4 C 133.2 -639.0, 24.5 -700.8, 221.4 -607.2 C 418.2 -513.6, 362.8 -568.1, 484.4 -323.1 C 606.1 -78.1, 602.6 -210.9, 602.6 92.0 Z" fill="none" stroke="#FFFFFF" stroke-opacity="0.22" stroke-width="1.2"/>
  <path d="M 1251.4 776.0 C 1251.4 1145.5, 1342.6 935.5, 1171.2 1234.4 C 999.8 1533.3, 1069.6 1382.6, 792.3 1496.7 C 515.0 1610.9, 710.1 1637.8, 432.7 1523.7 C 155.4 1409.5, 278.3 1551.6, 106.9 1252.7 C -64.5 953.8, 27.2 1145.5, 27.2 776.0 C 27.2 406.6, -140.6 634.1, 30.8 335.2 C 202.2 36.3, 136.9 26.5, 414.2 -87.7 C 691.5 -201.8, 530.8 -46.6, 808.1 67.6 C 1085.5 181.8, 937.0 11.7, 1108.4 310.6 C 1279.8 609.5, 1251.4 406.6, 1251.4 776.0 Z" fill="#E8FFF5" opacity="0.12" stroke="#E8FFF5" stroke-opacity="0.46" stroke-width="3" filter="url(#soft_dashboard_17_1035)"/>
  <path d="M 1251.4 776.0 C 1251.4 1145.5, 1342.6 935.5, 1171.2 1234.4 C 999.8 1533.3, 1069.6 1382.6, 792.3 1496.7 C 515.0 1610.9, 710.1 1637.8, 432.7 1523.7 C 155.4 1409.5, 278.3 1551.6, 106.9 1252.7 C -64.5 953.8, 27.2 1145.5, 27.2 776.0 C 27.2 406.6, -140.6 634.1, 30.8 335.2 C 202.2 36.3, 136.9 26.5, 414.2 -87.7 C 691.5 -201.8, 530.8 -46.6, 808.1 67.6 C 1085.5 181.8, 937.0 11.7, 1108.4 310.6 C 1279.8 609.5, 1251.4 406.6, 1251.4 776.0 Z" fill="none" stroke="#FFFFFF" stroke-opacity="0.22" stroke-width="1.2"/>
  <path d="M 1285.2 2887.0 C 1285.2 3108.4, 1241.1 3023.1, 1115.0 3202.2 C 988.8 3381.3, 1098.8 3294.6, 894.7 3363.0 C 690.5 3431.4, 822.2 3469.4, 618.0 3400.9 C 413.9 3332.5, 553.8 3324.4, 427.6 3145.3 C 301.4 2966.2, 222.4 3108.4, 222.4 2887.0 C 222.4 2665.6, 262.4 2816.2, 388.6 2637.1 C 514.7 2458.0, 431.0 2527.2, 635.2 2458.8 C 839.3 2390.3, 687.6 2405.2, 891.8 2473.6 C 1095.9 2542.1, 1053.9 2387.3, 1180.1 2566.5 C 1306.3 2745.6, 1285.2 2665.6, 1285.2 2887.0 Z" fill="#BDEFFF" opacity="0.12" stroke="#BDEFFF" stroke-opacity="0.46" stroke-width="3" filter="url(#soft_dashboard_17_1035)"/>
  <path d="M 1285.2 2887.0 C 1285.2 3108.4, 1241.1 3023.1, 1115.0 3202.2 C 988.8 3381.3, 1098.8 3294.6, 894.7 3363.0 C 690.5 3431.4, 822.2 3469.4, 618.0 3400.9 C 413.9 3332.5, 553.8 3324.4, 427.6 3145.3 C 301.4 2966.2, 222.4 3108.4, 222.4 2887.0 C 222.4 2665.6, 262.4 2816.2, 388.6 2637.1 C 514.7 2458.0, 431.0 2527.2, 635.2 2458.8 C 839.3 2390.3, 687.6 2405.2, 891.8 2473.6 C 1095.9 2542.1, 1053.9 2387.3, 1180.1 2566.5 C 1306.3 2745.6, 1285.2 2665.6, 1285.2 2887.0 Z" fill="none" stroke="#FFFFFF" stroke-opacity="0.22" stroke-width="1.2"/>
  <path d="M -100.0 1912.5 Q 133.3 1693.2, 366.7 1412.4 Q 600.0 1391.2, 833.3 1683.5 Q 1066.7 1833.5, 1300.0 1566.5" fill="none" stroke="#FFFFFF" stroke-opacity="0.38" stroke-width="4" filter="url(#soft_dashboard_17_1035)"/>
  <path d="M -100.0 1912.5 Q 133.3 1693.2, 366.7 1412.4 Q 600.0 1391.2, 833.3 1683.5 Q 1066.7 1833.5, 1300.0 1566.5" fill="none" stroke="#94D6FF" stroke-opacity="0.18" stroke-width="2"/>
  <path d="M -100.0 2561.3 Q 133.3 2477.3, 366.7 2311.0 Q 600.0 2064.4, 833.3 2223.7 Q 1066.7 2459.0, 1300.0 2601.6" fill="none" stroke="#FFFFFF" stroke-opacity="0.38" stroke-width="4" filter="url(#soft_dashboard_17_1035)"/>
  <path d="M -100.0 2561.3 Q 133.3 2477.3, 366.7 2311.0 Q 600.0 2064.4, 833.3 2223.7 Q 1066.7 2459.0, 1300.0 2601.6" fill="none" stroke="#94D6FF" stroke-opacity="0.18" stroke-width="2"/>
  <path d="M -100.0 973.2 Q 133.3 1438.9, 366.7 1721.5 Q 600.0 1281.5, 833.3 1083.5 Q 1066.7 1466.7, 1300.0 1709.4" fill="none" stroke="#FFFFFF" stroke-opacity="0.38" stroke-width="4" filter="url(#soft_dashboard_17_1035)"/>
  <path d="M -100.0 973.2 Q 133.3 1438.9, 366.7 1721.5 Q 600.0 1281.5, 833.3 1083.5 Q 1066.7 1466.7, 1300.0 1709.4" fill="none" stroke="#A8F2C0" stroke-opacity="0.18" stroke-width="2"/>
  <path d="M -100.0 116.3 Q 133.3 -250.2, 366.7 -204.0 Q 600.0 184.9, 833.3 375.1 Q 1066.7 411.7, 1300.0 20.2" fill="none" stroke="#FFFFFF" stroke-opacity="0.38" stroke-width="4" filter="url(#soft_dashboard_17_1035)"/>
  <path d="M -100.0 116.3 Q 133.3 -250.2, 366.7 -204.0 Q 600.0 184.9, 833.3 375.1 Q 1066.7 411.7, 1300.0 20.2" fill="none" stroke="#5DE0D7" stroke-opacity="0.18" stroke-width="2"/>
  <path d="M -100.0 2021.5 Q 133.3 1701.1, 366.7 1448.8 Q 600.0 1661.0, 833.3 2000.1 Q 1066.7 2056.4, 1300.0 1805.8" fill="none" stroke="#FFFFFF" stroke-opacity="0.38" stroke-width="4" filter="url(#soft_dashboard_17_1035)"/>
  <path d="M -100.0 2021.5 Q 133.3 1701.1, 366.7 1448.8 Q 600.0 1661.0, 833.3 2000.1 Q 1066.7 2056.4, 1300.0 1805.8" fill="none" stroke="#5DE0D7" stroke-opacity="0.18" stroke-width="2"/>
  <circle cx="1079" cy="39" r="160" fill="url(#orb_dashboard_17_1035)" opacity="0.36"/>
  <circle cx="1079" cy="39" r="160" fill="#BDEFFF" opacity="0.08"/>
  <circle cx="1079" cy="39" r="160" fill="none" stroke="#FFFFFF" stroke-opacity="0.56" stroke-width="3"/>
  <ellipse cx="1034.2" cy="-18.6" rx="28.8" ry="12.8" fill="#FFFFFF" opacity="0.42" transform="rotate(-22 1034.2 -18.6)"/>
  <circle cx="86" cy="309" r="141" fill="url(#orb_dashboard_17_1035)" opacity="0.36"/>
  <circle cx="86" cy="309" r="141" fill="#94D6FF" opacity="0.08"/>
  <circle cx="86" cy="309" r="141" fill="none" stroke="#FFFFFF" stroke-opacity="0.56" stroke-width="3"/>
  <ellipse cx="46.5" cy="258.2" rx="25.4" ry="11.3" fill="#FFFFFF" opacity="0.42" transform="rotate(-22 46.5 258.2)"/>
  <circle cx="142" cy="855" r="242" fill="url(#orb_dashboard_17_1035)" opacity="0.36"/>
  <circle cx="142" cy="855" r="242" fill="#E8FFF5" opacity="0.08"/>
  <circle cx="142" cy="855" r="242" fill="none" stroke="#FFFFFF" stroke-opacity="0.56" stroke-width="3"/>
  <ellipse cx="74.2" cy="767.9" rx="43.6" ry="19.4" fill="#FFFFFF" opacity="0.42" transform="rotate(-22 74.2 767.9)"/>
  <circle cx="900" cy="433" r="289" fill="url(#orb_dashboard_17_1035)" opacity="0.24"/>
  <circle cx="900" cy="433" r="289" fill="#D7F8E8" opacity="0.08"/>
  <circle cx="900" cy="433" r="289" fill="none" stroke="#FFFFFF" stroke-opacity="0.56" stroke-width="3"/>
  <ellipse cx="819.1" cy="329.0" rx="52.0" ry="23.1" fill="#FFFFFF" opacity="0.42" transform="rotate(-22 819.1 329.0)"/>
  <circle cx="210" cy="524" r="166" fill="url(#orb_dashboard_17_1035)" opacity="0.28"/>
  <circle cx="210" cy="524" r="166" fill="#D7F8E8" opacity="0.08"/>
  <circle cx="210" cy="524" r="166" fill="none" stroke="#FFFFFF" stroke-opacity="0.56" stroke-width="3"/>
  <ellipse cx="163.5" cy="464.2" rx="29.9" ry="13.3" fill="#FFFFFF" opacity="0.42" transform="rotate(-22 163.5 464.2)"/>
  <circle cx="662" cy="2379" r="181" fill="url(#orb_dashboard_17_1035)" opacity="0.27"/>
  <circle cx="662" cy="2379" r="181" fill="#A4E6F5" opacity="0.08"/>
  <circle cx="662" cy="2379" r="181" fill="none" stroke="#FFFFFF" stroke-opacity="0.56" stroke-width="3"/>
  <ellipse cx="611.3" cy="2313.8" rx="32.6" ry="14.5" fill="#FFFFFF" opacity="0.42" transform="rotate(-22 611.3 2313.8)"/>
  <circle cx="519" cy="1807" r="236" fill="url(#orb_dashboard_17_1035)" opacity="0.21"/>
  <circle cx="519" cy="1807" r="236" fill="#E8FFF5" opacity="0.08"/>
  <circle cx="519" cy="1807" r="236" fill="none" stroke="#FFFFFF" stroke-opacity="0.56" stroke-width="3"/>
  <ellipse cx="452.9" cy="1722.0" rx="42.5" ry="18.9" fill="#FFFFFF" opacity="0.42" transform="rotate(-22 452.9 1722.0)"/>
  <circle cx="686" cy="539" r="4" fill="#FFFFFF" opacity="0.40"/>
  <circle cx="392" cy="406" r="4" fill="#FFFFFF" opacity="0.45"/>
  <circle cx="31" cy="1412" r="5" fill="#FFFFFF" opacity="0.47"/>
  <circle cx="31" cy="2138" r="3" fill="#FFFFFF" opacity="0.66"/>
  <circle cx="210" cy="369" r="7" fill="#FFFFFF" opacity="0.58"/>
  <circle cx="255" cy="1815" r="7" fill="#FFFFFF" opacity="0.35"/>
  <circle cx="1192" cy="455" r="3" fill="#FFFFFF" opacity="0.52"/>
  <circle cx="623" cy="2542" r="7" fill="#FFFFFF" opacity="0.47"/>
  <circle cx="553" cy="1083" r="3" fill="#FFFFFF" opacity="0.46"/>
  <circle cx="1116" cy="576" r="4" fill="#FFFFFF" opacity="0.63"/>
  <circle cx="678" cy="1681" r="5" fill="#FFFFFF" opacity="0.58"/>
  <circle cx="925" cy="2176" r="4" fill="#FFFFFF" opacity="0.64"/>
  <circle cx="924" cy="307" r="3" fill="#FFFFFF" opacity="0.33"/>
  <circle cx="568" cy="2446" r="4" fill="#FFFFFF" opacity="0.56"/>
  <circle cx="916" cy="1904" r="7" fill="#FFFFFF" opacity="0.61"/>
  <circle cx="609" cy="1264" r="2" fill="#FFFFFF" opacity="0.32"/>
  <circle cx="484" cy="1786" r="5" fill="#FFFFFF" opacity="0.37"/>
  <rect width="1200" height="2600" fill="#FFFFFF" opacity="0.08"/>
  <rect width="1200" height="2600" filter="url(#grain_dashboard_17_1035)" opacity="0.7"/>
</svg>
