<svg xmlns="http://www.w3.org/2000/svg" width="1200" height="2600" viewBox="0 0 1200 2600" preserveAspectRatio="xMidYMid slice">
  <defs>
    <linearGradient id="bg_dashboard_16_8639" x1="0" y1="0" x2="1" y2="1">
      <stop offset="0%" stop-color="#D7F8E8"/>
      <stop offset="48%" stop-color="#A4E6F5"/>
      <stop offset="100%" stop-color="#E8FFF5"/>
    </linearGradient>
    <radialGradient id="orb_dashboard_16_8639" cx="35%" cy="30%" r="70%">
      <stop offset="0%" stop-color="#FFFFFF" stop-opacity="0.85"/>
      <stop offset="42%" stop-color="#FFFFFF" stop-opacity="0.20"/>
      <stop offset="100%" stop-color="#FFFFFF" stop-opacity="0.02"/>
    </radialGradient>
    <filter id="blur_dashboard_16_8639" x="-30%" y="-30%" width="160%" height="160%">
      <feGaussianBlur stdDeviation="72"/>
    </filter>
    <filter id="soft_dashboard_16_8639" x="-20%" y="-20%" width="140%" height="140%">
      <feGaussianBlur stdDeviation="10"/>
    </filter>
    <filter id="grain_dashboard_16_8639">
      <feTurbulence type="fractalNoise" baseFrequency="0.85" numOctaves="2" stitchTiles="stitch"/>
      <feColorMatrix type="saturate" values="0"/>
      <feComponentTransfer>
        <feFuncA type="table" tableValues="0 0.035"/>
      </feComponentTransfer>
    </filter>
  </defs>
  <rect width="1200" height="2600" fill="url(#bg_dashboard_16_8639)"/>
  <path d="M 678.4 2160.0 C 678.4 2405.2, 707.5 2365.6, 582.9 2553.5 C 458.2 2741.3, 465.7 2644.1, 274.7 2686.7 C 83.7 2729.3, 135.6 2703.7, -32.3 2581.1 C -200.3 2458.5, -117.3 2588.7, -183.6 2358.2 C -249.9 2127.8, -251.2 2212.5, -184.9 1982.0 C -118.5 1751.6, -168.2 1874.8, -0.3 1752.2 C 167.7 1629.6, 87.0 1515.2, 278.0 1557.8 C 469.0 1600.4, 360.6 1603.9, 485.3 1791.8 C 610.0 1979.7, 678.4 1914.8, 678.4 2160.0 Z" fill="#E8FFF5" opacity="0.21" filter="url(#blur_dashboard_16_8639)"/>
  <path d="M 1199.1 226.0 C 1199.1 457.8, 1268.6 424.1, 1166.0 601.6 C 1063.3 779.1, 1084.8 734.6, 927.4 774.8 C 770.1 815.1, 852.7 715.3, 714.4 599.4 C 576.0 483.5, 535.9 631.6, 481.2 413.8 C 426.6 196.0, 427.3 242.8, 482.0 25.0 C 536.6 -192.7, 551.3 -112.0, 689.7 -227.8 C 828.0 -343.7, 766.6 -374.5, 924.0 -334.2 C 1081.3 -294.0, 1046.7 -312.5, 1149.4 -135.0 C 1252.0 42.6, 1199.1 -5.8, 1199.1 226.0 Z" fill="#94D6FF" opacity="0.24" filter="url(#blur_dashboard_16_8639)"/>
  <path d="M 315.2 2741.0 C 315.2 2880.9, 331.0 2839.2, 208.9 2946.4 C 86.9 3053.6, 130.2 3038.5, -56.8 3062.8 C -243.8 3087.1, -153.0 3102.6, -317.5 3032.6 C -481.9 2962.7, -517.6 2979.3, -582.6 2847.8 C -647.5 2716.3, -588.6 2750.9, -523.7 2619.4 C -458.7 2487.9, -541.0 2581.5, -376.5 2511.5 C -212.1 2441.5, -246.3 2379.1, -59.3 2403.4 C 127.7 2427.7, 56.9 2460.7, 179.0 2567.9 C 301.0 2675.1, 315.2 2601.1, 315.2 2741.0 Z" fill="#D7F8E8" opacity="0.36" filter="url(#blur_dashboard_16_8639)"/>
  <path d="M 1506.3 2712.0 C 1506.3 3025.7, 1499.3 2875.0, 1346.8 3115.3 C 1194.4 3355.6, 1228.0 3256.2, 994.4 3310.6 C 760.9 3365.1, 899.0 3505.9, 693.6 3349.1 C 488.2 3192.2, 519.4 3218.8, 438.3 2924.1 C 357.2 2629.4, 305.7 2733.2, 386.8 2438.4 C 467.9 2143.7, 439.5 2231.5, 644.9 2074.7 C 850.3 1917.8, 767.4 1906.7, 1000.9 1961.1 C 1234.4 2015.6, 1171.6 2038.9, 1324.0 2279.2 C 1476.5 2519.4, 1506.3 2398.3, 1506.3 2712.0 Z" fill="#E8FFF5" opacity="0.34" filter="url(#blur_dashboard_16_8639)"/>
  <path d="M 632.9 397.0 C 632.9 646.3, 635.1 567.4, 514.8 758.4 C 394.5 949.4, 409.6 822.4, 225.2 865.6 C 40.9 908.9, 113.6 1031.3, -48.5 906.7 C -210.7 782.0, -135.0 830.0, -199.1 595.8 C -263.1 361.5, -323.9 427.6, -259.9 193.3 C -195.8 -41.0, -192.9 77.4, -30.8 -47.2 C 131.3 -171.9, 37.0 -224.9, 221.3 -181.6 C 405.7 -138.4, 351.7 -168.5, 472.1 22.5 C 592.4 213.5, 632.9 147.7, 632.9 397.0 Z" fill="#F8FFFD" opacity="0.30" filter="url(#blur_dashboard_16_8639)"/>
  <path d="M 871.5 2369.0 C 871.5 2598.1, 978.2 2493.5, 827.2 2669.0 C 676.2 2844.4, 772.8 2757.9, 541.4 2797.7 C 310.1 2837.4, 402.6 2901.3, 199.1 2786.8 C -4.3 2672.3, 66.8 2781.0, -13.5 2565.8 C -93.9 2350.6, -55.0 2423.7, 25.3 2208.4 C 105.7 1993.2, -42.4 1983.4, 161.0 1868.8 C 364.4 1754.3, 306.4 1873.4, 537.7 1913.2 C 769.0 1952.9, 681.3 1858.4, 832.3 2033.8 C 983.3 2209.3, 871.5 2139.9, 871.5 2369.0 Z" fill="#BDEFFF" opacity="0.24" filter="url(#blur_dashboard_16_8639)"/>
  <path d="M 1559.8 2420.0 C 1559.8 2614.4, 1560.0 2573.2, 1478.7 2722.1 C 1397.4 2871.0, 1424.2 2837.1, 1299.7 2870.9 C 1175.2 2904.6, 1216.5 2941.6, 1107.0 2844.4 C 997.5 2747.2, 1024.0 2753.3, 980.8 2570.7 C 937.5 2388.0, 971.6 2440.2, 1014.9 2257.5 C 1058.1 2074.9, 1004.0 2184.2, 1113.6 2087.0 C 1223.1 1989.8, 1167.6 1935.8, 1292.1 1969.6 C 1416.7 2003.4, 1344.2 2027.1, 1425.5 2176.0 C 1506.8 2324.9, 1559.8 2225.6, 1559.8 2420.0 Z" fill="#A8F2C0" opacity="0.19" filter="url(#blur_dashboard_16_8639)"/>
  <path d="M 1317.5 1467.0 C 1317.5 1661.8, 1327.4 1616.6, 1167.4 1765.8 C 1007.5 1915.1, 1068.4 1831.9, 823.3 1865.8 C 578.3 1899.6, 655.1 1905.4, 439.6 1808.0 C 224.1 1710.5, 249.1 1819.8, 164.0 1636.7 C 78.9 1453.6, 41.6 1514.5, 126.7 1331.4 C 211.8 1148.3, 284.8 1219.3, 500.3 1121.9 C 715.8 1024.5, 594.3 1026.3, 839.4 1060.2 C 1084.4 1094.0, 1041.1 1038.2, 1201.1 1187.5 C 1361.0 1336.7, 1317.5 1272.2, 1317.5 1467.0 Z" fill="#94D6FF" opacity="0.28" filter="url(#blur_dashboard_16_8639)"/>
  <path d="M 386.8 1682.0 C 386.8 1823.3, 401.2 1774.1, 242.7 1882.4 C 84.2 1990.6, 192.7 1975.8, -50.2 2000.3 C -293.1 2024.9, -196.2 2052.0, -409.7 1981.4 C -623.3 1910.7, -652.4 1930.1, -736.7 1797.3 C -821.1 1664.5, -716.6 1692.2, -632.2 1559.4 C -547.9 1426.6, -601.8 1438.0, -388.2 1367.3 C -174.6 1296.7, -279.4 1336.5, -36.6 1361.1 C 206.3 1385.6, 186.3 1391.1, 344.8 1499.3 C 503.3 1607.5, 386.8 1540.7, 386.8 1682.0 Z" fill="#D7F8E8" opacity="0.17" filter="url(#blur_dashboard_16_8639)"/>
  <path d="M 1322.4 -140.0 C 1322.4 -22.1, 1285.0 -55.6, 1152.2 34.8 C 1019.5 125.1, 1061.1 59.9, 857.7 80.4 C 654.3 100.8, 765.9 180.5, 587.0 121.5 C 408.2 62.6, 449.5 58.0, 378.8 -52.7 C 308.2 -163.5, 282.0 -111.6, 352.7 -222.4 C 423.3 -333.2, 392.2 -343.9, 571.0 -402.9 C 749.9 -461.8, 653.4 -463.3, 856.8 -442.8 C 1060.2 -422.4, 983.1 -402.2, 1115.9 -311.9 C 1248.7 -221.6, 1322.4 -257.9, 1322.4 -140.0 Z" fill="#D7F8E8" opacity="0.23" filter="url(#blur_dashboard_16_8639)"/>
  <path d="M 562.5 2285.0 C 562.5 2686.8, 629.9 2459.0, 515.3 2784.1 C 400.8 3109.2, 477.7 3064.5, 292.4 3188.7 C 107.0 3312.8, 204.9 3364.1, 19.6 3239.9 C -165.7 3115.8, -98.7 3079.3, -213.2 2754.2 C -327.7 2429.1, -248.0 2686.8, -248.0 2285.0 C -248.0 1883.2, -334.9 2126.3, -220.4 1801.2 C -105.8 1476.1, -161.9 1601.3, 23.4 1477.1 C 208.7 1352.9, 115.2 1419.6, 300.5 1543.8 C 485.8 1668.0, 354.3 1391.5, 468.8 1716.6 C 583.4 2041.7, 562.5 1883.2, 562.5 2285.0 Z" fill="#A8F2C0" opacity="0.12" stroke="#A8F2C0" stroke-opacity="0.46" stroke-width="3" filter="url(#soft_dashboard_16_8639)"/>
  <path d="M 562.5 2285.0 C 562.5 2686.8, 629.9 2459.0, 515.3 2784.1 C 400.8 3109.2, 477.7 3064.5, 292.4 3188.7 C 107.0 3312.8, 204.9 3364.1, 19.6 3239.9 C -165.7 3115.8, -98.7 3079.3, -213.2 2754.2 C -327.7 2429.1, -248.0 2686.8, -248.0 2285.0 C -248.0 1883.2, -334.9 2126.3, -220.4 1801.2 C -105.8 1476.1, -161.9 1601.3, 23.4 1477.1 C 208.7 1352.9, 115.2 1419.6, 300.5 1543.8 C 485.8 1668.0, 354.3 1391.5, 468.8 1716.6 C 583.4 2041.7, 562.5 1883.2, 562.5 2285.0 Z" fill="none" stroke="#FFFFFF" stroke-opacity="0.22" stroke-width="1.2"/>
  <path d="M 836.0 1056.0 C 836.0 1347.2, 910.0 1199.1, 820.8 1434.7 C 731.7 1670.2, 766.0 1584.7, 621.8 1674.6 C 477.6 1764.6, 579.5 1799.2, 435.3 1709.2 C 291.1 1619.3, 321.4 1623.6, 232.2 1388.1 C 143.1 1152.5, 195.2 1347.2, 195.2 1056.0 C 195.2 764.8, 181.5 953.5, 270.6 718.0 C 359.8 482.4, 292.0 598.1, 436.3 508.1 C 580.5 418.2, 480.9 311.1, 625.1 401.0 C 769.4 491.0, 699.3 419.8, 788.5 655.3 C 877.6 890.8, 836.0 764.8, 836.0 1056.0 Z" fill="#E8FFF5" opacity="0.12" stroke="#E8FFF5" stroke-opacity="0.46" stroke-width="3" filter="url(#soft_dashboard_16_8639)"/>
  <path d="M 836.0 1056.0 C 836.0 1347.2, 910.0 1199.1, 820.8 1434.7 C 731.7 1670.2, 766.0 1584.7, 621.8 1674.6 C 477.6 1764.6, 579.5 1799.2, 435.3 1709.2 C 291.1 1619.3, 321.4 1623.6, 232.2 1388.1 C 143.1 1152.5, 195.2 1347.2, 195.2 1056.0 C 195.2 764.8, 181.5 953.5, 270.6 718.0 C 359.8 482.4, 292.0 598.1, 436.3 508.1 C 580.5 418.2, 480.9 311.1, 625.1 401.0 C 769.4 491.0, 699.3 419.8, 788.5 655.3 C 877.6 890.8, 836.0 764.8, 836.0 1056.0 Z" fill="none" stroke="#FFFFFF" stroke-opacity="0.22" stroke-width="1.2"/>
  <path d="M 1344.5 1407.0 C 1344.5 1767.9, 1360.9 1598.4, 1233.4 1890.4 C 1105.9 2182.3, 1183.5 2017.3, 977.3 2128.8 C 771.0 2240.3, 866.2 2189.8, 659.9 2078.3 C 453.6 1966.8, 604.6 2139.8, 477.1 1847.8 C 349.6 1555.8, 323.4 1767.9, 323.4 1407.0 C 323.4 1046.1, 294.8 1168.5, 422.3 876.5 C 549.8 584.5, 457.4 785.9, 663.7 674.4 C 870.0 562.9, 752.5 459.6, 958.8 571.2 C 1165.1 682.7, 1073.3 582.3, 1200.8 874.2 C 1328.3 1166.2, 1344.5 1046.1, 1344.5 1407.0 Z" fill="#5DE0D7" opacity="0.12" stroke="#5DE0D7" stroke-opacity="0.46" stroke-width="3" filter="url(#soft_dashboard_16_8639)"/>
  <path d="M 1344.5 1407.0 C 1344.5 1767.9, 1360.9 1598.4, 1233.4 1890.4 C 1105.9 2182.3, 1183.5 2017.3, 977.3 2128.8 C 771.0 2240.3, 866.2 2189.8, 659.9 2078.3 C 453.6 1966.8, 604.6 2139.8, 477.1 1847.8 C 349.6 1555.8, 323.4 1767.9, 323.4 1407.0 C 323.4 1046.1, 294.8 1168.5, 422.3 876.5 C 549.8 584.5, 457.4 785.9, 663.7 674.4 C 870.0 562.9, 752.5 459.6, 958.8 571.2 C 1165.1 682.7, 1073.3 582.3, 1200.8 874.2 C 1328.3 1166.2, 1344.5 1046.1, 1344.5 1407.0 Z" fill="none" stroke="#FFFFFF" stroke-opacity="0.22" stroke-width="1.2"/>
  <path d="M 1375.0 1550.0 C 1375.0 1858.2, 1407.4 1658.2, 1311.9 1907.5 C 1216.4 2156.9, 1317.5 2040.2, 1163.0 2135.5 C 1008.5 2230.7, 1103.9 2349.7, 949.4 2254.4 C 794.9 2159.2, 869.7 2201.8, 774.3 1952.4 C 678.8 1703.1, 726.3 1858.2, 726.3 1550.0 C 726.3 1241.8, 686.3 1340.6, 781.8 1091.2 C 877.3 841.8, 767.3 1075.4, 921.8 980.1 C 1076.3 884.9, 1002.0 772.3, 1156.5 867.6 C 1311.0 962.8, 1224.7 877.6, 1320.1 1127.0 C 1415.6 1376.3, 1375.0 1241.8, 1375.0 1550.0 Z" fill="#BDEFFF" opacity="0.12" stroke="#BDEFFF" stroke-opacity="0.46" stroke-width="3" filter="url(#soft_dashboard_16_8639)"/>
  <path d="M 1375.0 1550.0 C 1375.0 1858.2, 1407.4 1658.2, 1311.9 1907.5 C 1216.4 2156.9, 1317.5 2040.2, 1163.0 2135.5 C 1008.5 2230.7, 1103.9 2349.7, 949.4 2254.4 C 794.9 2159.2, 869.7 2201.8, 774.3 1952.4 C 678.8 1703.1, 726.3 1858.2, 726.3 1550.0 C 726.3 1241.8, 686.3 1340.6, 781.8 1091.2 C 877.3 841.8, 767.3 1075.4, 921.8 980.1 C 1076.3 884.9, 1002.0 772.3, 1156.5 867.6 C 1311.0 962.8, 1224.7 877.6, 1320.1 1127.0 C 1415.6 1376.3, 1375.0 1241.8, 1375.0 1550.0 Z" fill="none" stroke="#FFFFFF" stroke-opacity="0.22" stroke-width="1.2"/>
  <path d="M -100.0 1317.0 Q 133.3 1057.3, 366.7 1045.3 Q 600.0 1125.4, 833.3 1349.3 Q 1066.7 1257.0, 1300.0 1143.7" fill="none" stroke="#FFFFFF" stroke-opacity="0.38" stroke-width="4" filter="url(#soft_dashboard_16_8639)"/>
  <path d="M -100.0 1317.0 Q 133.3 1057.3, 366.7 1045.3 Q 600.0 1125.4, 833.3 1349.3 Q 1066.7 1257.0, 1300.0 1143.7" fill="none" stroke="#A8F2C0" stroke-opacity="0.18" stroke-width="2"/>
  <path d="M -100.0 2053.0 Q 133.3 2041.3, 366.7 1846.2 Q 600.0 1751.8, 833.3 1782.6 Q 1066.7 1950.1, 1300.0 2014.8" fill="none" stroke="#FFFFFF" stroke-opacity="0.38" stroke-width="4" filter="url(#soft_dashboard_16_8639)"/>
  <path d="M -100.0 2053.0 Q 133.3 2041.3, 366.7 1846.2 Q 600.0 1751.8, 833.3 1782.6 Q 1066.7 1950.1, 1300.0 2014.8" fill="none" stroke="#5DE0D7" stroke-opacity="0.18" stroke-width="2"/>
  <path d="M -100.0 1161.0 Q 133.3 1095.0, 366.7 875.2 Q 600.0 603.1, 833.3 505.3 Q 1066.7 649.0, 1300.0 889.0" fill="none" stroke="#FFFFFF" stroke-opacity="0.38" stroke-width="4" filter="url(#soft_dashboard_16_8639)"/>
  <path d="M -100.0 1161.0 Q 133.3 1095.0, 366.7 875.2 Q 600.0 603.1, 833.3 505.3 Q 1066.7 649.0, 1300.0 889.0" fill="none" stroke="#A8F2C0" stroke-opacity="0.18" stroke-width="2"/>
  <path d="M -100.0 1583.2 Q 133.3 1771.7, 366.7 1869.6 Q 600.0 1933.8, 833.3 2057.6 Q 1066.7 1996.3, 1300.0 1720.9" fill="none" stroke="#FFFFFF" stroke-opacity="0.38" stroke-width="4" filter="url(#soft_dashboard_16_8639)"/>
  <path d="M -100.0 1583.2 Q 133.3 1771.7, 366.7 1869.6 Q 600.0 1933.8, 833.3 2057.6 Q 1066.7 1996.3, 1300.0 1720.9" fill="none" stroke="#A8F2C0" stroke-opacity="0.18" stroke-width="2"/>
  <path d="M -100.0 1272.6 Q 133.3 1049.6, 366.7 985.2 Q 600.0 1144.1, 833.3 1436.0 Q 1066.7 1277.1, 1300.0 887.0" fill="none" stroke="#FFFFFF" stroke-opacity="0.38" stroke-width="4" filter="url(#soft_dashboard_16_8639)"/>
  <path d="M -100.0 1272.6 Q 133.3 1049.6, 366.7 985.2 Q 600.0 1144.1, 833.3 1436.0 Q 1066.7 1277.1, 1300.0 887.0" fill="none" stroke="#A8F2C0" stroke-opacity="0.18" stroke-width="2"/>
  <circle cx="505" cy="1815" r="183" fill="url(#orb_dashboard_16_8639)" opacity="0.36"/>
  <circle cx="505" cy="1815" r="183" fill="#BDEFFF" opacity="0.08"/>
  <circle cx="505" cy="1815" r="183" fill="none" stroke="#FFFFFF" stroke-opacity="0.56" stroke-width="3"/>
  <ellipse cx="453.8" cy="1749.1" rx="32.9" ry="14.6" fill="#FFFFFF" opacity="0.42" transform="rotate(-22 453.8 1749.1)"/>
  <circle cx="799" cy="1675" r="256" fill="url(#orb_dashboard_16_8639)" opacity="0.36"/>
  <circle cx="799" cy="1675" r="256" fill="#D7F8E8" opacity="0.08"/>
  <circle cx="799" cy="1675" r="256" fill="none" stroke="#FFFFFF" stroke-opacity="0.56" stroke-width="3"/>
  <ellipse cx="727.3" cy="1582.8" rx="46.1" ry="20.5" fill="#FFFFFF" opacity="0.42" transform="rotate(-22 727.3 1582.8)"/>
  <circle cx="1152" cy="1511" r="221" fill="url(#orb_dashboard_16_8639)" opacity="0.36"/>
  <circle cx="1152" cy="1511" r="221" fill="#A8F2C0" opacity="0.08"/>
  <circle cx="1152" cy="1511" r="221" fill="none" stroke="#FFFFFF" stroke-opacity="0.56" stroke-width="3"/>
  <ellipse cx="1090.1" cy="1431.4" rx="39.8" ry="17.7" fill="#FFFFFF" opacity="0.42" transform="rotate(-22 1090.1 1431.4)"/>
  <circle cx="1178" cy="415" r="102" fill="url(#orb_dashboard_16_8639)" opacity="0.23"/>
  <circle cx="1178" cy="415" r="102" fill="#94D6FF" opacity="0.08"/>
  <circle cx="1178" cy="415" r="102" fill="none" stroke="#FFFFFF" stroke-opacity="0.56" stroke-width="3"/>
  <ellipse cx="1149.4" cy="378.3" rx="18.4" ry="8.2" fill="#FFFFFF" opacity="0.42" transform="rotate(-22 1149.4 378.3)"/>
  <circle cx="796" cy="799" r="190" fill="url(#orb_dashboard_16_8639)" opacity="0.23"/>
  <circle cx="796" cy="799" r="190" fill="#A8F2C0" opacity="0.08"/>
  <circle cx="796" cy="799" r="190" fill="none" stroke="#FFFFFF" stroke-opacity="0.56" stroke-width="3"/>
  <ellipse cx="742.8" cy="730.6" rx="34.2" ry="15.2" fill="#FFFFFF" opacity="0.42" transform="rotate(-22 742.8 730.6)"/>
  <circle cx="328" cy="597" r="166" fill="url(#orb_dashboard_16_8639)" opacity="0.25"/>
  <circle cx="328" cy="597" r="166" fill="#94D6FF" opacity="0.08"/>
  <circle cx="328" cy="597" r="166" fill="none" stroke="#FFFFFF" stroke-opacity="0.56" stroke-width="3"/>
  <ellipse cx="281.5" cy="537.2" rx="29.9" ry="13.3" fill="#FFFFFF" opacity="0.42" transform="rotate(-22 281.5 537.2)"/>
  <circle cx="305" cy="2236" r="238" fill="url(#orb_dashboard_16_8639)" opacity="0.18"/>
  <circle cx="305" cy="2236" r="238" fill="#F8FFFD" opacity="0.08"/>
  <circle cx="305" cy="2236" r="238" fill="none" stroke="#FFFFFF" stroke-opacity="0.56" stroke-width="3"/>
  <ellipse cx="238.4" cy="2150.3" rx="42.8" ry="19.0" fill="#FFFFFF" opacity="0.42" transform="rotate(-22 238.4 2150.3)"/>
  <circle cx="7" cy="444" r="240" fill="url(#orb_dashboard_16_8639)" opacity="0.22"/>
  <circle cx="7" cy="444" r="240" fill="#E8FFF5" opacity="0.08"/>
  <circle cx="7" cy="444" r="240" fill="none" stroke="#FFFFFF" stroke-opacity="0.56" stroke-width="3"/>
  <ellipse cx="-60.2" cy="357.6" rx="43.2" ry="19.2" fill="#FFFFFF" opacity="0.42" transform="rotate(-22 -60.2 357.6)"/>
  <circle cx="1254" cy="1502" r="82" fill="url(#orb_dashboard_16_8639)" opacity="0.25"/>
  <circle cx="1254" cy="1502" r="82" fill="#D7F8E8" opacity="0.08"/>
  <circle cx="1254" cy="1502" r="82" fill="none" stroke="#FFFFFF" stroke-opacity="0.56" stroke-width="3"/>
  <ellipse cx="1231.0" cy="1472.5" rx="14.8" ry="6.6" fill="#FFFFFF" opacity="0.42" transform="rotate(-22 1231.0 1472.5)"/>
  <circle cx="967" cy="927" r="235" fill="url(#orb_dashboard_16_8639)" opacity="0.22"/>
  <circle cx="967" cy="927" r="235" fill="#5DE0D7" opacity="0.08"/>
  <circle cx="967" cy="927" r="235" fill="none" stroke="#FFFFFF" stroke-opacity="0.56" stroke-width="3"/>
  <ellipse cx="901.2" cy="842.4" rx="42.3" ry="18.8" fill="#FFFFFF" opacity="0.42" transform="rotate(-22 901.2 842.4)"/>
  <circle cx="1265" cy="2184" r="288" fill="url(#orb_dashboard_16_8639)" opacity="0.28"/>
  <circle cx="1265" cy="2184" r="288" fill="#BDEFFF" opacity="0.08"/>
  <circle cx="1265" cy="2184" r="288" fill="none" stroke="#FFFFFF" stroke-opacity="0.56" stroke-width="3"/>
  <ellipse cx="1184.4" cy="2080.3" rx="51.8" ry="23.0" fill="#FFFFFF" opacity="0.42" transform="rotate(-22 1184.4 2080.3)"/>
  <circle cx="214" cy="514" r="3" fill="#FFFFFF" opacity="0.68"/>
  <circle cx="67" cy="60" r="4" fill="#FFFFFF" opacity="0.30"/>
  <circle cx="294" cy="2468" r="2" fill="#FFFFFF" opacity="0.39"/>
  <circle cx="1086" cy="238" r="7" fill="#FFFFFF" opacity="0.49"/>
  <circle cx="693" cy="673" r="2" fill="#FFFFFF" opacity="0.32"/>
  <circle cx="773" cy="1419" r="5" fill="#FFFFFF" opacity="0.35"/>
  <circle cx="1125" cy="403" r="7" fill="#FFFFFF" opacity="0.46"/>
  <circle cx="1045" cy="1303" r="7" fill="#FFFFFF" opacity="0.68"/>
  <circle cx="867" cy="2360" r="5" fill="#FFFFFF" opacity="0.48"/>
  <circle cx="960" cy="1431" r="5" fill="#FFFFFF" opacity="0.49"/>
  <circle cx="1138" cy="1117" r="7" fill="#FFFFFF" opacity="0.62"/>
  <circle cx="1017" cy="1387" r="5" fill="#FFFFFF" opacity="0.63"/>
  <circle cx="421" cy="1041" r="5" fill="#FFFFFF" opacity="0.67"/>
  <circle cx="203" cy="2127" r="7" fill="#FFFFFF" opacity="0.64"/>
  <circle cx="947" cy="512" r="3" fill="#FFFFFF" opacity="0.35"/>
  <circle cx="934" cy="582" r="4" fill="#FFFFFF" opacity="0.40"/>
  <rect width="1200" height="2600" fill="#FFFFFF" opacity="0.08"/>
  <rect width="1200" height="2600" filter="url(#grain_dashboard_16_8639)" opacity="0.7"/>
</svg>
