<svg xmlns="http://www.w3.org/2000/svg" width="1200" height="2600" viewBox="0 0 1200 2600" preserveAspectRatio="xMidYMid slice">
  <defs>
    <linearGradient id="bg_dashboard_02_3006" x1="0" y1="0" x2="1" y2="1">
      <stop offset="0%" stop-color="#E8FFF5"/>
      <stop offset="48%" stop-color="#A4E6F5"/>
      <stop offset="100%" stop-color="#F8FFFD"/>
    </linearGradient>
    <radialGradient id="orb_dashboard_02_3006" cx="35%" cy="30%" r="70%">
      <stop offset="0%" stop-color="#FFFFFF" stop-opacity="0.85"/>
      <stop offset="42%" stop-color="#FFFFFF" stop-opacity="0.20"/>
      <stop offset="100%" stop-color="#FFFFFF" stop-opacity="0.02"/>
    </radialGradient>
    <filter id="blur_dashboard_02_3006" x="-30%" y="-30%" width="160%" height="160%">
      <feGaussianBlur stdDeviation="72"/>
    </filter>
    <filter id="soft_dashboard_02_3006" x="-20%" y="-20%" width="140%" height="140%">
      <feGaussianBlur stdDeviation="10"/>
    </filter>
    <filter id="grain_dashboard_02_3006">
      <feTurbulence type="fractalNoise" baseFrequency="0.85" numOctaves="2" stitchTiles="stitch"/>
      <feColorMatrix type="saturate" values="0"/>
      <feComponentTransfer>
        <feFuncA type="table" tableValues="0 0.035"/>
      </feComponentTransfer>
    </filter>
  </defs>
  <rect width="1200" height="2600" fill="url(#bg_dashboard_02_3006)"/>
  <path d="M 1285.8 1960.0 C 1285.8 2273.2, 1321.2 2212.2, 1177.1 2452.2 C 1033.1 2692.1, 1068.9 2533.4, 848.3 2587.8 C 627.6 2642.2, 710.3 2730.5, 516.2 2573.9 C 322.2 2417.3, 316.8 2481.5, 240.2 2187.1 C 163.6 1892.8, 302.4 1984.5, 379.0 1690.2 C 455.7 1395.9, 317.5 1592.8, 511.6 1436.2 C 705.7 1279.6, 636.7 1126.2, 857.4 1180.6 C 1078.1 1234.9, 968.1 1220.9, 1112.1 1460.8 C 1256.2 1700.8, 1285.8 1646.8, 1285.8 1960.0 Z" fill="#F8FFFD" opacity="0.37" filter="url(#blur_dashboard_02_3006)"/>
  <path d="M 1646.7 1088.0 C 1646.7 1212.7, 1566.2 1147.9, 1410.0 1243.3 C 1253.8 1338.8, 1368.2 1341.7, 1128.9 1363.4 C 889.6 1385.0, 984.9 1347.2, 774.5 1284.8 C 564.1 1222.5, 693.4 1308.7, 610.2 1191.5 C 527.1 1074.4, 495.7 1127.2, 578.8 1010.0 C 661.9 892.9, 568.5 948.8, 778.9 886.5 C 989.4 824.2, 902.6 768.8, 1141.9 790.4 C 1381.2 812.1, 1258.1 790.5, 1414.3 886.0 C 1570.5 981.5, 1646.7 963.4, 1646.7 1088.0 Z" fill="#5DE0D7" opacity="0.38" filter="url(#blur_dashboard_02_3006)"/>
  <path d="M 386.0 -149.0 C 386.0 5.3, 385.4 -39.8, 304.4 78.4 C 223.4 196.7, 262.2 126.7, 138.1 153.5 C 14.0 180.3, 75.0 246.3, -34.1 169.1 C -143.2 91.9, -145.2 125.4, -188.2 -19.7 C -231.3 -164.7, -213.5 -102.3, -170.4 -247.3 C -127.3 -392.4, -161.5 -362.3, -52.4 -439.5 C 56.7 -516.7, 3.7 -512.9, 127.7 -486.1 C 251.8 -459.3, 185.7 -459.7, 266.7 -341.5 C 347.7 -223.3, 386.0 -303.4, 386.0 -149.0 Z" fill="#E8FFF5" opacity="0.35" filter="url(#blur_dashboard_02_3006)"/>
  <path d="M 1396.7 2352.0 C 1396.7 2604.4, 1444.3 2514.4, 1353.2 2707.8 C 1262.1 2901.2, 1304.8 2923.7, 1165.2 2967.6 C 1025.6 3011.4, 1083.5 3008.7, 960.7 2882.5 C 838.0 2756.3, 888.5 2777.0, 840.0 2539.8 C 791.6 2302.5, 770.7 2396.3, 819.2 2159.1 C 867.7 1921.8, 846.8 2005.1, 969.5 1878.9 C 1092.3 1752.7, 1011.3 1707.1, 1150.9 1751.0 C 1290.5 1794.8, 1288.8 1797.7, 1379.9 1991.1 C 1471.0 2184.5, 1396.7 2099.6, 1396.7 2352.0 Z" fill="#A4E6F5" opacity="0.24" filter="url(#blur_dashboard_02_3006)"/>
  <path d="M 340.4 2632.0 C 340.4 2774.2, 311.9 2754.9, 187.8 2863.9 C 63.7 2972.8, 113.7 2926.6, -76.4 2951.3 C -266.6 2976.0, -213.5 2953.1, -380.7 2882.0 C -547.9 2810.9, -462.0 2878.8, -528.0 2745.2 C -594.0 2611.5, -642.9 2676.9, -576.9 2543.3 C -510.8 2409.7, -540.4 2436.7, -373.2 2365.6 C -206.0 2294.5, -249.8 2298.9, -59.6 2323.6 C 130.5 2348.3, 77.1 2355.2, 201.2 2464.1 C 325.3 2573.1, 340.4 2489.8, 340.4 2632.0 Z" fill="#E8FFF5" opacity="0.36" filter="url(#blur_dashboard_02_3006)"/>
  <path d="M 1058.9 674.0 C 1058.9 904.9, 1062.4 882.3, 952.5 1059.1 C 842.6 1235.9, 847.1 1204.5, 678.7 1244.6 C 510.3 1284.7, 571.4 1210.3, 423.3 1094.9 C 275.2 979.5, 332.5 1062.2, 274.0 845.2 C 215.5 628.3, 263.9 699.9, 322.4 483.0 C 380.9 266.1, 310.3 291.5, 458.4 176.1 C 606.5 60.7, 515.4 179.7, 683.8 219.7 C 852.2 259.8, 762.4 200.9, 872.3 377.7 C 982.2 554.5, 1058.9 443.1, 1058.9 674.0 Z" fill="#E8FFF5" opacity="0.32" filter="url(#blur_dashboard_02_3006)"/>
  <path d="M 1742.3 2414.0 C 1742.3 2712.8, 1775.8 2567.8, 1626.9 2796.7 C 1477.9 3025.6, 1466.8 2986.4, 1238.5 3038.2 C 1010.3 3090.1, 1063.1 3203.8, 862.4 3054.4 C 661.7 2905.0, 841.2 2918.9, 762.0 2638.1 C 682.7 2357.3, 561.1 2502.8, 640.4 2222.0 C 719.6 1941.2, 715.1 1892.3, 915.8 1742.9 C 1116.5 1593.5, 1023.2 1813.3, 1251.4 1865.2 C 1479.7 1917.0, 1455.5 1771.7, 1604.5 2000.6 C 1753.4 2229.5, 1742.3 2115.2, 1742.3 2414.0 Z" fill="#F8FFFD" opacity="0.38" filter="url(#blur_dashboard_02_3006)"/>
  <path d="M 1387.9 2447.0 C 1387.9 2674.7, 1404.5 2581.6, 1324.9 2756.1 C 1245.4 2930.5, 1327.4 2983.4, 1205.5 3023.0 C 1083.6 3062.5, 1126.0 2980.6, 1018.9 2866.8 C 911.7 2752.9, 898.3 2852.0, 856.0 2638.0 C 813.6 2424.1, 809.1 2457.9, 851.4 2243.9 C 893.8 2029.9, 887.0 2106.5, 994.2 1992.6 C 1101.4 1878.8, 1070.6 1897.6, 1192.5 1937.1 C 1314.3 1976.7, 1308.6 1983.0, 1388.1 2157.5 C 1467.7 2331.9, 1387.9 2219.3, 1387.9 2447.0 Z" fill="#F8FFFD" opacity="0.31" filter="url(#blur_dashboard_02_3006)"/>
  <path d="M 1135.5 1724.0 C 1135.5 1994.5, 1231.8 1883.7, 1124.9 2102.5 C 1018.1 2321.3, 1070.0 2171.9, 897.1 2255.4 C 724.2 2339.0, 819.6 2428.9, 646.7 2345.4 C 473.8 2261.8, 575.3 2314.1, 468.4 2095.3 C 361.6 1876.5, 386.4 1994.5, 386.4 1724.0 C 386.4 1453.5, 285.7 1604.1, 392.5 1385.3 C 499.4 1166.5, 479.8 1315.3, 652.7 1231.8 C 825.6 1148.2, 714.6 1041.2, 887.5 1124.8 C 1060.4 1208.3, 937.8 1186.6, 1044.7 1405.4 C 1151.5 1624.2, 1135.5 1453.5, 1135.5 1724.0 Z" fill="#94D6FF" opacity="0.12" stroke="#FFFFFF" stroke-opacity="0.46" stroke-width="3" filter="url(#soft_dashboard_02_3006)"/>
  <path d="M 1135.5 1724.0 C 1135.5 1994.5, 1231.8 1883.7, 1124.9 2102.5 C 1018.1 2321.3, 1070.0 2171.9, 897.1 2255.4 C 724.2 2339.0, 819.6 2428.9, 646.7 2345.4 C 473.8 2261.8, 575.3 2314.1, 468.4 2095.3 C 361.6 1876.5, 386.4 1994.5, 386.4 1724.0 C 386.4 1453.5, 285.7 1604.1, 392.5 1385.3 C 499.4 1166.5, 479.8 1315.3, 652.7 1231.8 C 825.6 1148.2, 714.6 1041.2, 887.5 1124.8 C 1060.4 1208.3, 937.8 1186.6, 1044.7 1405.4 C 1151.5 1624.2, 1135.5 1453.5, 1135.5 1724.0 Z" fill="none" stroke="#FFFFFF" stroke-opacity="0.22" stroke-width="1.2"/>
  <path d="M 501.1 474.0 C 501.1 715.2, 449.6 618.7, 343.8 813.9 C 238.0 1009.0, 344.3 958.5, 173.1 1033.1 C 1.9 1107.6, 83.2 1109.0, -88.0 1034.4 C -259.2 959.9, -168.0 944.9, -273.8 749.7 C -379.6 554.6, -387.4 715.2, -387.4 474.0 C -387.4 232.8, -340.6 334.9, -234.8 139.8 C -129.0 -55.4, -236.5 109.5, -65.4 35.0 C 105.8 -39.5, 16.9 -143.4, 188.1 -68.9 C 359.2 5.6, 262.0 -59.2, 367.8 136.0 C 473.6 331.1, 501.1 232.8, 501.1 474.0 Z" fill="#A8F2C0" opacity="0.12" stroke="#A8F2C0" stroke-opacity="0.46" stroke-width="3" filter="url(#soft_dashboard_02_3006)"/>
  <path d="M 501.1 474.0 C 501.1 715.2, 449.6 618.7, 343.8 813.9 C 238.0 1009.0, 344.3 958.5, 173.1 1033.1 C 1.9 1107.6, 83.2 1109.0, -88.0 1034.4 C -259.2 959.9, -168.0 944.9, -273.8 749.7 C -379.6 554.6, -387.4 715.2, -387.4 474.0 C -387.4 232.8, -340.6 334.9, -234.8 139.8 C -129.0 -55.4, -236.5 109.5, -65.4 35.0 C 105.8 -39.5, 16.9 -143.4, 188.1 -68.9 C 359.2 5.6, 262.0 -59.2, 367.8 136.0 C 473.6 331.1, 501.1 232.8, 501.1 474.0 Z" fill="none" stroke="#FFFFFF" stroke-opacity="0.22" stroke-width="1.2"/>
  <path d="M 667.9 1564.0 C 667.9 1808.3, 726.2 1650.9, 601.4 1848.5 C 476.5 2046.2, 571.5 1936.4, 369.5 2011.9 C 167.5 2087.4, 278.4 2133.9, 76.4 2058.4 C -125.6 1982.8, -90.0 2075.3, -214.9 1877.6 C -339.7 1679.9, -225.2 1808.3, -225.2 1564.0 C -225.2 1319.7, -241.0 1473.8, -116.2 1276.1 C 8.7 1078.4, -146.7 1119.5, 55.3 1044.0 C 257.3 968.5, 139.8 910.4, 341.8 985.9 C 543.8 1061.4, 420.6 1015.8, 545.5 1213.5 C 670.3 1411.2, 667.9 1319.7, 667.9 1564.0 Z" fill="#94D6FF" opacity="0.12" stroke="#94D6FF" stroke-opacity="0.46" stroke-width="3" filter="url(#soft_dashboard_02_3006)"/>
  <path d="M 667.9 1564.0 C 667.9 1808.3, 726.2 1650.9, 601.4 1848.5 C 476.5 2046.2, 571.5 1936.4, 369.5 2011.9 C 167.5 2087.4, 278.4 2133.9, 76.4 2058.4 C -125.6 1982.8, -90.0 2075.3, -214.9 1877.6 C -339.7 1679.9, -225.2 1808.3, -225.2 1564.0 C -225.2 1319.7, -241.0 1473.8, -116.2 1276.1 C 8.7 1078.4, -146.7 1119.5, 55.3 1044.0 C 257.3 968.5, 139.8 910.4, 341.8 985.9 C 543.8 1061.4, 420.6 1015.8, 545.5 1213.5 C 670.3 1411.2, 667.9 1319.7, 667.9 1564.0 Z" fill="none" stroke="#FFFFFF" stroke-opacity="0.22" stroke-width="1.2"/>
  <path d="M 492.1 128.0 C 492.1 479.4, 476.3 340.0, 390.3 624.4 C 304.4 908.7, 386.2 857.2, 247.1 965.8 C 108.0 1074.4, 178.0 1064.0, 38.9 955.4 C -100.2 846.8, 0.2 879.7, -85.7 595.3 C -171.7 311.0, -201.4 479.5, -201.4 128.0 C -201.4 -223.4, -200.7 -51.3, -114.7 -335.6 C -28.8 -619.9, -85.3 -590.2, 53.8 -698.8 C 192.9 -807.4, 100.7 -816.9, 239.8 -708.3 C 378.9 -599.7, 314.1 -560.0, 400.1 -275.7 C 486.0 8.7, 492.1 -223.4, 492.1 128.0 Z" fill="#94D6FF" opacity="0.12" stroke="#FFFFFF" stroke-opacity="0.46" stroke-width="3" filter="url(#soft_dashboard_02_3006)"/>
  <path d="M 492.1 128.0 C 492.1 479.4, 476.3 340.0, 390.3 624.4 C 304.4 908.7, 386.2 857.2, 247.1 965.8 C 108.0 1074.4, 178.0 1064.0, 38.9 955.4 C -100.2 846.8, 0.2 879.7, -85.7 595.3 C -171.7 311.0, -201.4 479.5, -201.4 128.0 C -201.4 -223.4, -200.7 -51.3, -114.7 -335.6 C -28.8 -619.9, -85.3 -590.2, 53.8 -698.8 C 192.9 -807.4, 100.7 -816.9, 239.8 -708.3 C 378.9 -599.7, 314.1 -560.0, 400.1 -275.7 C 486.0 8.7, 492.1 -223.4, 492.1 128.0 Z" fill="none" stroke="#FFFFFF" stroke-opacity="0.22" stroke-width="1.2"/>
  <path d="M 903.6 1892.0 C 903.6 2199.3, 913.4 2064.5, 828.7 2313.1 C 744.1 2561.8, 790.2 2362.9, 653.3 2457.9 C 516.3 2552.9, 597.6 2622.2, 460.7 2527.2 C 323.7 2432.2, 376.9 2585.4, 292.3 2336.8 C 207.6 2088.1, 279.5 2199.3, 279.5 1892.0 C 279.5 1584.7, 195.3 1720.2, 280.0 1471.5 C 364.6 1222.9, 333.5 1386.1, 470.5 1291.1 C 607.4 1196.1, 534.2 1066.2, 671.2 1161.2 C 808.1 1256.1, 744.9 1214.5, 829.5 1463.1 C 914.1 1711.8, 903.6 1584.7, 903.6 1892.0 Z" fill="#E8FFF5" opacity="0.12" stroke="#FFFFFF" stroke-opacity="0.46" stroke-width="3" filter="url(#soft_dashboard_02_3006)"/>
  <path d="M 903.6 1892.0 C 903.6 2199.3, 913.4 2064.5, 828.7 2313.1 C 744.1 2561.8, 790.2 2362.9, 653.3 2457.9 C 516.3 2552.9, 597.6 2622.2, 460.7 2527.2 C 323.7 2432.2, 376.9 2585.4, 292.3 2336.8 C 207.6 2088.1, 279.5 2199.3, 279.5 1892.0 C 279.5 1584.7, 195.3 1720.2, 280.0 1471.5 C 364.6 1222.9, 333.5 1386.1, 470.5 1291.1 C 607.4 1196.1, 534.2 1066.2, 671.2 1161.2 C 808.1 1256.1, 744.9 1214.5, 829.5 1463.1 C 914.1 1711.8, 903.6 1584.7, 903.6 1892.0 Z" fill="none" stroke="#FFFFFF" stroke-opacity="0.22" stroke-width="1.2"/>
  <path d="M 782.4 1089.0 C 782.4 1472.8, 707.9 1261.3, 534.4 1571.8 C 360.9 1882.3, 536.9 1861.3, 256.1 1979.9 C -24.6 2098.5, 121.7 1947.4, -159.1 1828.8 C -439.8 1710.2, -255.7 1860.9, -429.2 1550.4 C -602.7 1239.8, -554.3 1472.8, -554.3 1089.0 C -554.3 705.1, -645.9 828.8, -472.4 518.3 C -298.9 207.7, -444.3 491.0, -163.5 372.4 C 117.2 253.8, -44.7 257.0, 236.1 375.6 C 516.8 494.2, 410.1 230.5, 583.6 541.0 C 757.1 851.6, 782.4 705.1, 782.4 1089.0 Z" fill="#E8FFF5" opacity="0.12" stroke="#E8FFF5" stroke-opacity="0.46" stroke-width="3" filter="url(#soft_dashboard_02_3006)"/>
  <path d="M 782.4 1089.0 C 782.4 1472.8, 707.9 1261.3, 534.4 1571.8 C 360.9 1882.3, 536.9 1861.3, 256.1 1979.9 C -24.6 2098.5, 121.7 1947.4, -159.1 1828.8 C -439.8 1710.2, -255.7 1860.9, -429.2 1550.4 C -602.7 1239.8, -554.3 1472.8, -554.3 1089.0 C -554.3 705.1, -645.9 828.8, -472.4 518.3 C -298.9 207.7, -444.3 491.0, -163.5 372.4 C 117.2 253.8, -44.7 257.0, 236.1 375.6 C 516.8 494.2, 410.1 230.5, 583.6 541.0 C 757.1 851.6, 782.4 705.1, 782.4 1089.0 Z" fill="none" stroke="#FFFFFF" stroke-opacity="0.22" stroke-width="1.2"/>
  <path d="M 1042.2 1879.0 C 1042.2 2200.3, 1097.3 2044.9, 943.9 2304.8 C 790.5 2564.8, 943.2 2383.1, 695.0 2482.4 C 446.8 2581.7, 572.1 2697.9, 323.9 2598.6 C 75.7 2499.3, 267.3 2555.3, 113.9 2295.3 C -39.5 2035.4, -44.6 2200.3, -44.6 1879.0 C -44.6 1557.7, -144.4 1757.7, 9.0 1497.7 C 162.5 1237.8, 73.0 1286.4, 321.2 1187.1 C 569.5 1087.8, 470.7 1046.4, 719.0 1145.7 C 967.2 1245.0, 862.7 1204.4, 1016.2 1464.3 C 1169.6 1724.3, 1042.2 1557.7, 1042.2 1879.0 Z" fill="#D7F8E8" opacity="0.12" stroke="#FFFFFF" stroke-opacity="0.46" stroke-width="3" filter="url(#soft_dashboard_02_3006)"/>
  <path d="M 1042.2 1879.0 C 1042.2 2200.3, 1097.3 2044.9, 943.9 2304.8 C 790.5 2564.8, 943.2 2383.1, 695.0 2482.4 C 446.8 2581.7, 572.1 2697.9, 323.9 2598.6 C 75.7 2499.3, 267.3 2555.3, 113.9 2295.3 C -39.5 2035.4, -44.6 2200.3, -44.6 1879.0 C -44.6 1557.7, -144.4 1757.7, 9.0 1497.7 C 162.5 1237.8, 73.0 1286.4, 321.2 1187.1 C 569.5 1087.8, 470.7 1046.4, 719.0 1145.7 C 967.2 1245.0, 862.7 1204.4, 1016.2 1464.3 C 1169.6 1724.3, 1042.2 1557.7, 1042.2 1879.0 Z" fill="none" stroke="#FFFFFF" stroke-opacity="0.22" stroke-width="1.2"/>
  <path d="M -100.0 278.7 Q 133.3 152.4, 366.7 26.8 Q 600.0 -24.6, 833.3 226.8 Q 1066.7 307.3, 1300.0 241.8" fill="none" stroke="#FFFFFF" stroke-opacity="0.38" stroke-width="4" filter="url(#soft_dashboard_02_3006)"/>
  <path d="M -100.0 278.7 Q 133.3 152.4, 366.7 26.8 Q 600.0 -24.6, 833.3 226.8 Q 1066.7 307.3, 1300.0 241.8" fill="none" stroke="#A8F2C0" stroke-opacity="0.18" stroke-width="2"/>
  <path d="M -100.0 2113.2 Q 133.3 1959.2, 366.7 1773.5 Q 600.0 1919.0, 833.3 1946.8 Q 1066.7 2252.7, 1300.0 2283.7" fill="none" stroke="#FFFFFF" stroke-opacity="0.38" stroke-width="4" filter="url(#soft_dashboard_02_3006)"/>
  <path d="M -100.0 2113.2 Q 133.3 1959.2, 366.7 1773.5 Q 600.0 1919.0, 833.3 1946.8 Q 1066.7 2252.7, 1300.0 2283.7" fill="none" stroke="#5DE0D7" stroke-opacity="0.18" stroke-width="2"/>
  <path d="M -100.0 919.3 Q 133.3 502.0, 366.7 860.9 Q 600.0 1093.2, 833.3 1148.9 Q 1066.7 846.4, 1300.0 631.7" fill="none" stroke="#FFFFFF" stroke-opacity="0.38" stroke-width="4" filter="url(#soft_dashboard_02_3006)"/>
  <path d="M -100.0 919.3 Q 133.3 502.0, 366.7 860.9 Q 600.0 1093.2, 833.3 1148.9 Q 1066.7 846.4, 1300.0 631.7" fill="none" stroke="#A8F2C0" stroke-opacity="0.18" stroke-width="2"/>
  <path d="M -100.0 2102.8 Q 133.3 2046.0, 366.7 1955.4 Q 600.0 1931.6, 833.3 2068.5 Q 1066.7 2126.9, 1300.0 2170.6" fill="none" stroke="#FFFFFF" stroke-opacity="0.38" stroke-width="4" filter="url(#soft_dashboard_02_3006)"/>
  <path d="M -100.0 2102.8 Q 133.3 2046.0, 366.7 1955.4 Q 600.0 1931.6, 833.3 2068.5 Q 1066.7 2126.9, 1300.0 2170.6" fill="none" stroke="#5DE0D7" stroke-opacity="0.18" stroke-width="2"/>
  <path d="M -100.0 1518.5 Q 133.3 1810.8, 366.7 1748.8 Q 600.0 1396.4, 833.3 1625.1 Q 1066.7 1924.2, 1300.0 1609.6" fill="none" stroke="#FFFFFF" stroke-opacity="0.38" stroke-width="4" filter="url(#soft_dashboard_02_3006)"/>
  <path d="M -100.0 1518.5 Q 133.3 1810.8, 366.7 1748.8 Q 600.0 1396.4, 833.3 1625.1 Q 1066.7 1924.2, 1300.0 1609.6" fill="none" stroke="#A8F2C0" stroke-opacity="0.18" stroke-width="2"/>
  <path d="M -100.0 511.0 Q 133.3 359.5, 366.7 449.5 Q 600.0 674.5, 833.3 595.1 Q 1066.7 358.3, 1300.0 417.7" fill="none" stroke="#FFFFFF" stroke-opacity="0.38" stroke-width="4" filter="url(#soft_dashboard_02_3006)"/>
  <path d="M -100.0 511.0 Q 133.3 359.5, 366.7 449.5 Q 600.0 674.5, 833.3 595.1 Q 1066.7 358.3, 1300.0 417.7" fill="none" stroke="#5DE0D7" stroke-opacity="0.18" stroke-width="2"/>
  <circle cx="1052" cy="2112" r="253" fill="url(#orb_dashboard_02_3006)" opacity="0.36"/>
  <circle cx="1052" cy="2112" r="253" fill="#D7F8E8" opacity="0.08"/>
  <circle cx="1052" cy="2112" r="253" fill="none" stroke="#FFFFFF" stroke-opacity="0.56" stroke-width="3"/>
  <ellipse cx="981.2" cy="2020.9" rx="45.5" ry="20.2" fill="#FFFFFF" opacity="0.42" transform="rotate(-22 981.2 2020.9)"/>
  <circle cx="185" cy="771" r="149" fill="url(#orb_dashboard_02_3006)" opacity="0.36"/>
  <circle cx="185" cy="771" r="149" fill="#A4E6F5" opacity="0.08"/>
  <circle cx="185" cy="771" r="149" fill="none" stroke="#FFFFFF" stroke-opacity="0.56" stroke-width="3"/>
  <ellipse cx="143.3" cy="717.4" rx="26.8" ry="11.9" fill="#FFFFFF" opacity="0.42" transform="rotate(-22 143.3 717.4)"/>
  <circle cx="319" cy="2599" r="256" fill="url(#orb_dashboard_02_3006)" opacity="0.36"/>
  <circle cx="319" cy="2599" r="256" fill="#5DE0D7" opacity="0.08"/>
  <circle cx="319" cy="2599" r="256" fill="none" stroke="#FFFFFF" stroke-opacity="0.56" stroke-width="3"/>
  <ellipse cx="247.3" cy="2506.8" rx="46.1" ry="20.5" fill="#FFFFFF" opacity="0.42" transform="rotate(-22 247.3 2506.8)"/>
  <circle cx="1005" cy="934" r="92" fill="url(#orb_dashboard_02_3006)" opacity="0.17"/>
  <circle cx="1005" cy="934" r="92" fill="#A8F2C0" opacity="0.08"/>
  <circle cx="1005" cy="934" r="92" fill="none" stroke="#FFFFFF" stroke-opacity="0.56" stroke-width="3"/>
  <ellipse cx="979.2" cy="900.9" rx="16.6" ry="7.4" fill="#FFFFFF" opacity="0.42" transform="rotate(-22 979.2 900.9)"/>
  <circle cx="404" cy="625" r="149" fill="url(#orb_dashboard_02_3006)" opacity="0.23"/>
  <circle cx="404" cy="625" r="149" fill="#F8FFFD" opacity="0.08"/>
  <circle cx="404" cy="625" r="149" fill="none" stroke="#FFFFFF" stroke-opacity="0.56" stroke-width="3"/>
  <ellipse cx="362.3" cy="571.4" rx="26.8" ry="11.9" fill="#FFFFFF" opacity="0.42" transform="rotate(-22 362.3 571.4)"/>
  <circle cx="242" cy="735" r="168" fill="url(#orb_dashboard_02_3006)" opacity="0.19"/>
  <circle cx="242" cy="735" r="168" fill="#D7F8E8" opacity="0.08"/>
  <circle cx="242" cy="735" r="168" fill="none" stroke="#FFFFFF" stroke-opacity="0.56" stroke-width="3"/>
  <ellipse cx="195.0" cy="674.5" rx="30.2" ry="13.4" fill="#FFFFFF" opacity="0.42" transform="rotate(-22 195.0 674.5)"/>
  <circle cx="609" cy="567" r="278" fill="url(#orb_dashboard_02_3006)" opacity="0.24"/>
  <circle cx="609" cy="567" r="278" fill="#D7F8E8" opacity="0.08"/>
  <circle cx="609" cy="567" r="278" fill="none" stroke="#FFFFFF" stroke-opacity="0.56" stroke-width="3"/>
  <ellipse cx="531.2" cy="466.9" rx="50.0" ry="22.2" fill="#FFFFFF" opacity="0.42" transform="rotate(-22 531.2 466.9)"/>
  <circle cx="1166" cy="619" r="7" fill="#FFFFFF" opacity="0.64"/>
  <circle cx="604" cy="964" r="7" fill="#FFFFFF" opacity="0.32"/>
  <circle cx="1166" cy="1430" r="7" fill="#FFFFFF" opacity="0.67"/>
  <circle cx="181" cy="2571" r="3" fill="#FFFFFF" opacity="0.59"/>
  <circle cx="372" cy="2349" r="7" fill="#FFFFFF" opacity="0.48"/>
  <circle cx="905" cy="2063" r="4" fill="#FFFFFF" opacity="0.66"/>
  <circle cx="928" cy="2449" r="3" fill="#FFFFFF" opacity="0.70"/>
  <circle cx="604" cy="704" r="4" fill="#FFFFFF" opacity="0.62"/>
  <circle cx="79" cy="2136" r="3" fill="#FFFFFF" opacity="0.32"/>
  <circle cx="1188" cy="481" r="5" fill="#FFFFFF" opacity="0.41"/>
  <circle cx="637" cy="1129" r="5" fill="#FFFFFF" opacity="0.41"/>
  <circle cx="4" cy="2418" r="7" fill="#FFFFFF" opacity="0.47"/>
  <circle cx="446" cy="414" r="3" fill="#FFFFFF" opacity="0.56"/>
  <circle cx="819" cy="1508" r="7" fill="#FFFFFF" opacity="0.59"/>
  <rect width="1200" height="2600" fill="#FFFFFF" opacity="0.08"/>
  <rect width="1200" height="2600" filter="url(#grain_dashboard_02_3006)" opacity="0.7"/>
</svg>
