<svg xmlns="http://www.w3.org/2000/svg" width="1200" height="2600" viewBox="0 0 1200 2600" preserveAspectRatio="xMidYMid slice">
  <defs>
    <linearGradient id="bg_dashboard_12_4801" x1="0" y1="0" x2="1" y2="1">
      <stop offset="0%" stop-color="#A4E6F5"/>
      <stop offset="48%" stop-color="#F8FFFD"/>
      <stop offset="100%" stop-color="#BDEFFF"/>
    </linearGradient>
    <radialGradient id="orb_dashboard_12_4801" cx="35%" cy="30%" r="70%">
      <stop offset="0%" stop-color="#FFFFFF" stop-opacity="0.85"/>
      <stop offset="42%" stop-color="#FFFFFF" stop-opacity="0.20"/>
      <stop offset="100%" stop-color="#FFFFFF" stop-opacity="0.02"/>
    </radialGradient>
    <filter id="blur_dashboard_12_4801" x="-30%" y="-30%" width="160%" height="160%">
      <feGaussianBlur stdDeviation="72"/>
    </filter>
    <filter id="soft_dashboard_12_4801" x="-20%" y="-20%" width="140%" height="140%">
      <feGaussianBlur stdDeviation="10"/>
    </filter>
    <filter id="grain_dashboard_12_4801">
      <feTurbulence type="fractalNoise" baseFrequency="0.85" numOctaves="2" stitchTiles="stitch"/>
      <feColorMatrix type="saturate" values="0"/>
      <feComponentTransfer>
        <feFuncA type="table" tableValues="0 0.035"/>
      </feComponentTransfer>
    </filter>
  </defs>
  <rect width="1200" height="2600" fill="url(#bg_dashboard_12_4801)"/>
  <path d="M 634.9 980.0 C 634.9 1114.5, 622.2 1040.8, 462.2 1143.8 C 302.2 1246.9, 348.3 1230.3, 103.2 1253.6 C -141.9 1277.0, -59.5 1327.2, -275.0 1259.9 C -490.5 1192.7, -461.7 1221.7, -546.8 1095.2 C -632.0 968.8, -664.1 994.1, -579.0 867.6 C -493.9 741.2, -449.6 747.1, -234.1 679.8 C -18.6 612.5, -160.7 615.0, 84.4 638.4 C 329.5 661.8, 261.8 698.6, 421.8 801.7 C 581.8 904.7, 634.9 845.5, 634.9 980.0 Z" fill="#D7F8E8" opacity="0.18" filter="url(#blur_dashboard_12_4801)"/>
  <path d="M 417.4 712.0 C 417.4 897.0, 383.9 866.9, 238.1 1008.6 C 92.4 1150.2, 177.7 1076.8, -45.7 1108.9 C -269.1 1141.0, -188.0 1143.4, -384.4 1050.9 C -580.8 958.4, -469.2 1014.9, -546.8 841.1 C -624.3 667.3, -700.0 747.9, -622.5 574.1 C -544.9 400.3, -577.0 443.2, -380.6 350.8 C -184.2 258.3, -270.5 236.8, -47.1 268.9 C 176.2 301.0, 73.6 303.4, 219.4 445.1 C 365.2 586.7, 417.4 527.0, 417.4 712.0 Z" fill="#A4E6F5" opacity="0.24" filter="url(#blur_dashboard_12_4801)"/>
  <path d="M 1065.7 2007.0 C 1065.7 2132.1, 1069.0 2069.4, 982.2 2165.2 C 895.4 2261.1, 948.4 2302.5, 815.4 2324.3 C 682.5 2346.0, 733.8 2289.8, 616.9 2227.2 C 500.0 2164.7, 483.0 2225.0, 436.8 2107.4 C 390.6 1989.9, 410.5 2045.0, 456.6 1927.4 C 502.8 1809.9, 503.0 1828.6, 619.9 1766.0 C 736.8 1703.5, 676.7 1676.4, 809.7 1698.2 C 942.6 1719.9, 865.1 1746.2, 951.9 1842.1 C 1038.7 1937.9, 1065.7 1881.9, 1065.7 2007.0 Z" fill="#5DE0D7" opacity="0.19" filter="url(#blur_dashboard_12_4801)"/>
  <path d="M 1496.8 1293.0 C 1496.8 1508.5, 1552.3 1490.2, 1475.1 1655.3 C 1397.8 1820.4, 1421.7 1653.6, 1303.4 1691.1 C 1185.1 1728.5, 1206.9 1820.2, 1102.9 1712.5 C 998.8 1604.7, 1032.5 1680.3, 991.4 1477.7 C 950.3 1275.2, 1003.4 1324.9, 1044.5 1122.3 C 1085.6 919.8, 1029.3 917.7, 1133.4 809.9 C 1237.4 702.2, 1179.5 722.9, 1297.9 760.3 C 1416.2 797.7, 1346.3 862.5, 1423.6 1027.6 C 1500.8 1192.7, 1496.8 1077.5, 1496.8 1293.0 Z" fill="#5DE0D7" opacity="0.27" filter="url(#blur_dashboard_12_4801)"/>
  <path d="M 492.3 -7.0 C 492.3 277.4, 555.1 166.2, 428.7 384.1 C 302.3 601.9, 304.8 571.7, 111.1 621.1 C -82.6 670.5, -4.9 662.7, -175.2 520.5 C -345.5 378.3, -258.0 467.1, -325.2 199.8 C -392.5 -67.4, -469.0 7.1, -401.7 -260.2 C -334.5 -527.4, -380.2 -488.9, -209.9 -631.1 C -39.6 -773.3, -71.7 -744.5, 122.0 -695.1 C 315.6 -645.7, 238.4 -592.3, 364.8 -374.4 C 491.2 -156.5, 492.3 -291.4, 492.3 -7.0 Z" fill="#F8FFFD" opacity="0.17" filter="url(#blur_dashboard_12_4801)"/>
  <path d="M 1166.0 1468.0 C 1166.0 1630.5, 1121.7 1580.0, 992.7 1704.5 C 863.7 1828.9, 924.9 1756.5, 727.2 1784.7 C 529.6 1812.9, 563.3 1833.5, 389.5 1752.3 C 215.6 1671.1, 227.5 1760.0, 158.9 1607.4 C 90.2 1454.7, 160.5 1491.0, 229.1 1338.4 C 297.8 1185.7, 250.5 1187.8, 424.3 1106.5 C 598.1 1025.3, 515.8 1116.4, 713.5 1144.6 C 911.1 1172.8, 883.3 1115.1, 1012.3 1239.6 C 1141.4 1364.0, 1166.0 1305.5, 1166.0 1468.0 Z" fill="#94D6FF" opacity="0.35" filter="url(#blur_dashboard_12_4801)"/>
  <path d="M 1161.6 2586.0 C 1161.6 2757.0, 1117.1 2669.2, 998.8 2800.2 C 880.5 2931.2, 974.4 2988.1, 793.1 3017.8 C 611.8 3047.5, 706.6 2969.8, 547.2 2884.3 C 387.8 2798.8, 342.6 2854.7, 279.7 2694.0 C 216.7 2533.4, 287.8 2614.7, 350.7 2454.0 C 413.7 2293.3, 383.7 2318.0, 543.1 2232.5 C 702.5 2147.0, 628.4 2195.0, 809.6 2224.7 C 990.9 2254.4, 903.0 2209.3, 1021.4 2340.3 C 1139.7 2471.3, 1161.6 2415.0, 1161.6 2586.0 Z" fill="#F8FFFD" opacity="0.16" filter="url(#blur_dashboard_12_4801)"/>
  <path d="M 1571.8 2735.0 C 1571.8 2870.9, 1592.9 2834.4, 1496.3 2938.6 C 1399.7 3042.7, 1430.8 2963.0, 1282.7 2986.6 C 1134.7 3010.2, 1168.8 3065.8, 1038.7 2997.9 C 908.5 2929.9, 926.5 2973.7, 875.1 2846.0 C 823.7 2718.3, 899.1 2753.2, 950.5 2625.5 C 1001.9 2497.8, 929.0 2529.6, 1059.1 2461.7 C 1189.3 2393.7, 1126.1 2403.3, 1274.1 2426.9 C 1422.2 2450.5, 1380.6 2433.2, 1477.2 2537.3 C 1573.8 2641.4, 1571.8 2599.1, 1571.8 2735.0 Z" fill="#A8F2C0" opacity="0.32" filter="url(#blur_dashboard_12_4801)"/>
  <path d="M 485.0 1280.0 C 485.0 1506.3, 519.2 1354.3, 422.1 1537.4 C 325.0 1720.6, 381.2 1641.8, 224.1 1711.8 C 67.0 1781.7, 161.0 1799.9, 3.9 1730.0 C -153.2 1660.0, -68.4 1775.7, -165.5 1592.5 C -262.6 1409.4, -286.1 1506.3, -286.1 1280.0 C -286.1 1053.7, -273.4 1143.4, -176.3 960.3 C -79.3 777.1, -141.8 820.8, 15.2 750.8 C 172.3 680.9, 67.6 714.9, 224.7 784.8 C 381.8 854.8, 282.3 836.4, 379.4 1019.5 C 476.4 1202.6, 485.0 1053.7, 485.0 1280.0 Z" fill="#94D6FF" opacity="0.12" stroke="#94D6FF" stroke-opacity="0.46" stroke-width="3" filter="url(#soft_dashboard_12_4801)"/>
  <path d="M 485.0 1280.0 C 485.0 1506.3, 519.2 1354.3, 422.1 1537.4 C 325.0 1720.6, 381.2 1641.8, 224.1 1711.8 C 67.0 1781.7, 161.0 1799.9, 3.9 1730.0 C -153.2 1660.0, -68.4 1775.7, -165.5 1592.5 C -262.6 1409.4, -286.1 1506.3, -286.1 1280.0 C -286.1 1053.7, -273.4 1143.4, -176.3 960.3 C -79.3 777.1, -141.8 820.8, 15.2 750.8 C 172.3 680.9, 67.6 714.9, 224.7 784.8 C 381.8 854.8, 282.3 836.4, 379.4 1019.5 C 476.4 1202.6, 485.0 1053.7, 485.0 1280.0 Z" fill="none" stroke="#FFFFFF" stroke-opacity="0.22" stroke-width="1.2"/>
  <path d="M 826.4 204.0 C 826.4 475.8, 834.3 338.4, 714.2 558.3 C 594.1 778.2, 706.6 638.0, 512.3 722.0 C 318.0 806.0, 424.0 861.0, 229.7 777.1 C 35.4 693.1, 113.9 828.3, -6.2 608.4 C -126.3 388.5, -65.2 475.8, -65.2 204.0 C -65.2 -67.8, -83.0 105.1, 37.1 -114.8 C 157.2 -334.7, 31.4 -339.5, 225.7 -423.5 C 420.0 -507.5, 322.4 -467.8, 516.7 -383.8 C 711.0 -299.8, 655.9 -355.7, 776.0 -135.8 C 896.1 84.1, 826.4 -67.8, 826.4 204.0 Z" fill="#A8F2C0" opacity="0.12" stroke="#A8F2C0" stroke-opacity="0.46" stroke-width="3" filter="url(#soft_dashboard_12_4801)"/>
  <path d="M 826.4 204.0 C 826.4 475.8, 834.3 338.4, 714.2 558.3 C 594.1 778.2, 706.6 638.0, 512.3 722.0 C 318.0 806.0, 424.0 861.0, 229.7 777.1 C 35.4 693.1, 113.9 828.3, -6.2 608.4 C -126.3 388.5, -65.2 475.8, -65.2 204.0 C -65.2 -67.8, -83.0 105.1, 37.1 -114.8 C 157.2 -334.7, 31.4 -339.5, 225.7 -423.5 C 420.0 -507.5, 322.4 -467.8, 516.7 -383.8 C 711.0 -299.8, 655.9 -355.7, 776.0 -135.8 C 896.1 84.1, 826.4 -67.8, 826.4 204.0 Z" fill="none" stroke="#FFFFFF" stroke-opacity="0.22" stroke-width="1.2"/>
  <path d="M 1355.0 -232.0 C 1355.0 94.7, 1401.6 -80.5, 1226.2 183.8 C 1050.8 448.1, 1180.2 285.6, 896.4 386.6 C 612.7 487.5, 743.1 634.9, 459.4 534.0 C 175.6 433.0, 348.0 418.8, 172.6 154.5 C -2.7 -109.8, 86.6 94.7, 86.6 -232.0 C 86.6 -558.7, -41.2 -389.5, 134.2 -653.8 C 309.6 -918.1, 213.3 -830.5, 497.0 -931.5 C 780.8 -1032.4, 620.1 -980.8, 903.8 -879.8 C 1187.6 -778.9, 1047.1 -953.4, 1222.5 -689.1 C 1397.8 -424.8, 1355.0 -558.7, 1355.0 -232.0 Z" fill="#A8F2C0" opacity="0.12" stroke="#A8F2C0" stroke-opacity="0.46" stroke-width="3" filter="url(#soft_dashboard_12_4801)"/>
  <path d="M 1355.0 -232.0 C 1355.0 94.7, 1401.6 -80.5, 1226.2 183.8 C 1050.8 448.1, 1180.2 285.6, 896.4 386.6 C 612.7 487.5, 743.1 634.9, 459.4 534.0 C 175.6 433.0, 348.0 418.8, 172.6 154.5 C -2.7 -109.8, 86.6 94.7, 86.6 -232.0 C 86.6 -558.7, -41.2 -389.5, 134.2 -653.8 C 309.6 -918.1, 213.3 -830.5, 497.0 -931.5 C 780.8 -1032.4, 620.1 -980.8, 903.8 -879.8 C 1187.6 -778.9, 1047.1 -953.4, 1222.5 -689.1 C 1397.8 -424.8, 1355.0 -558.7, 1355.0 -232.0 Z" fill="none" stroke="#FFFFFF" stroke-opacity="0.22" stroke-width="1.2"/>
  <path d="M 1480.7 1032.0 C 1480.7 1221.9, 1491.6 1109.3, 1342.4 1262.9 C 1193.2 1416.5, 1331.4 1417.7, 1090.0 1476.4 C 848.7 1535.0, 1018.9 1548.0, 777.5 1489.3 C 536.1 1430.6, 657.5 1420.1, 508.4 1266.5 C 359.2 1112.8, 295.5 1221.9, 295.5 1032.0 C 295.5 842.1, 391.3 953.4, 540.5 799.8 C 689.7 646.2, 536.3 736.4, 777.6 677.7 C 1019.0 619.0, 873.3 576.6, 1114.7 635.3 C 1356.0 694.0, 1289.2 661.2, 1438.4 814.8 C 1587.5 968.4, 1480.7 842.1, 1480.7 1032.0 Z" fill="#D7F8E8" opacity="0.12" stroke="#D7F8E8" stroke-opacity="0.46" stroke-width="3" filter="url(#soft_dashboard_12_4801)"/>
  <path d="M 1480.7 1032.0 C 1480.7 1221.9, 1491.6 1109.3, 1342.4 1262.9 C 1193.2 1416.5, 1331.4 1417.7, 1090.0 1476.4 C 848.7 1535.0, 1018.9 1548.0, 777.5 1489.3 C 536.1 1430.6, 657.5 1420.1, 508.4 1266.5 C 359.2 1112.8, 295.5 1221.9, 295.5 1032.0 C 295.5 842.1, 391.3 953.4, 540.5 799.8 C 689.7 646.2, 536.3 736.4, 777.6 677.7 C 1019.0 619.0, 873.3 576.6, 1114.7 635.3 C 1356.0 694.0, 1289.2 661.2, 1438.4 814.8 C 1587.5 968.4, 1480.7 842.1, 1480.7 1032.0 Z" fill="none" stroke="#FFFFFF" stroke-opacity="0.22" stroke-width="1.2"/>
  <path d="M 1473.4 180.0 C 1473.4 573.8, 1494.4 349.6, 1405.5 668.1 C 1316.7 986.7, 1416.5 919.5, 1272.7 1041.2 C 1128.9 1162.8, 1212.0 1189.0, 1068.2 1067.3 C 924.4 945.6, 941.2 993.4, 852.3 674.9 C 763.4 356.3, 836.7 573.8, 836.7 180.0 C 836.7 -213.7, 775.8 26.9, 864.7 -291.6 C 953.6 -610.2, 917.5 -616.2, 1061.3 -737.8 C 1205.1 -859.5, 1120.7 -786.7, 1264.5 -665.1 C 1408.3 -543.4, 1357.6 -685.6, 1446.5 -367.0 C 1535.4 -48.5, 1473.4 -213.8, 1473.4 180.0 Z" fill="#BDEFFF" opacity="0.12" stroke="#FFFFFF" stroke-opacity="0.46" stroke-width="3" filter="url(#soft_dashboard_12_4801)"/>
  <path d="M 1473.4 180.0 C 1473.4 573.8, 1494.4 349.6, 1405.5 668.1 C 1316.7 986.7, 1416.5 919.5, 1272.7 1041.2 C 1128.9 1162.8, 1212.0 1189.0, 1068.2 1067.3 C 924.4 945.6, 941.2 993.4, 852.3 674.9 C 763.4 356.3, 836.7 573.8, 836.7 180.0 C 836.7 -213.7, 775.8 26.9, 864.7 -291.6 C 953.6 -610.2, 917.5 -616.2, 1061.3 -737.8 C 1205.1 -859.5, 1120.7 -786.7, 1264.5 -665.1 C 1408.3 -543.4, 1357.6 -685.6, 1446.5 -367.0 C 1535.4 -48.5, 1473.4 -213.8, 1473.4 180.0 Z" fill="none" stroke="#FFFFFF" stroke-opacity="0.22" stroke-width="1.2"/>
  <path d="M 553.6 1514.0 C 553.6 1805.6, 610.6 1695.4, 487.6 1931.3 C 364.6 2167.2, 398.5 1955.9, 199.5 2046.0 C 0.5 2136.1, 128.0 2238.5, -71.0 2148.4 C -270.0 2058.3, -226.7 2174.4, -349.6 1938.5 C -472.6 1702.6, -359.3 1805.6, -359.3 1514.0 C -359.3 1222.4, -455.6 1326.5, -332.6 1090.5 C -209.6 854.6, -286.0 935.8, -87.0 845.7 C 112.0 755.6, 26.0 864.9, 225.0 955.0 C 424.0 1045.1, 357.0 853.0, 480.0 1088.9 C 603.0 1324.8, 553.6 1222.4, 553.6 1514.0 Z" fill="#A4E6F5" opacity="0.12" stroke="#A4E6F5" stroke-opacity="0.46" stroke-width="3" filter="url(#soft_dashboard_12_4801)"/>
  <path d="M 553.6 1514.0 C 553.6 1805.6, 610.6 1695.4, 487.6 1931.3 C 364.6 2167.2, 398.5 1955.9, 199.5 2046.0 C 0.5 2136.1, 128.0 2238.5, -71.0 2148.4 C -270.0 2058.3, -226.7 2174.4, -349.6 1938.5 C -472.6 1702.6, -359.3 1805.6, -359.3 1514.0 C -359.3 1222.4, -455.6 1326.5, -332.6 1090.5 C -209.6 854.6, -286.0 935.8, -87.0 845.7 C 112.0 755.6, 26.0 864.9, 225.0 955.0 C 424.0 1045.1, 357.0 853.0, 480.0 1088.9 C 603.0 1324.8, 553.6 1222.4, 553.6 1514.0 Z" fill="none" stroke="#FFFFFF" stroke-opacity="0.22" stroke-width="1.2"/>
  <path d="M 1476.5 2586.0 C 1476.5 2813.2, 1512.3 2670.8, 1372.1 2854.6 C 1231.9 3038.5, 1284.1 3038.7, 1057.3 3108.9 C 830.5 3179.2, 936.3 3175.9, 709.5 3105.7 C 482.7 3035.4, 628.5 3105.2, 488.3 2921.3 C 348.1 2737.5, 349.9 2813.2, 349.9 2586.0 C 349.9 2358.8, 265.3 2469.6, 405.5 2285.7 C 545.7 2101.9, 513.1 2189.8, 739.9 2119.6 C 966.7 2049.4, 823.2 2069.2, 1050.0 2139.5 C 1276.8 2209.7, 1154.6 2088.0, 1294.8 2271.8 C 1435.0 2455.7, 1476.5 2358.8, 1476.5 2586.0 Z" fill="#A4E6F5" opacity="0.12" stroke="#FFFFFF" stroke-opacity="0.46" stroke-width="3" filter="url(#soft_dashboard_12_4801)"/>
  <path d="M 1476.5 2586.0 C 1476.5 2813.2, 1512.3 2670.8, 1372.1 2854.6 C 1231.9 3038.5, 1284.1 3038.7, 1057.3 3108.9 C 830.5 3179.2, 936.3 3175.9, 709.5 3105.7 C 482.7 3035.4, 628.5 3105.2, 488.3 2921.3 C 348.1 2737.5, 349.9 2813.2, 349.9 2586.0 C 349.9 2358.8, 265.3 2469.6, 405.5 2285.7 C 545.7 2101.9, 513.1 2189.8, 739.9 2119.6 C 966.7 2049.4, 823.2 2069.2, 1050.0 2139.5 C 1276.8 2209.7, 1154.6 2088.0, 1294.8 2271.8 C 1435.0 2455.7, 1476.5 2358.8, 1476.5 2586.0 Z" fill="none" stroke="#FFFFFF" stroke-opacity="0.22" stroke-width="1.2"/>
  <path d="M -100.0 1406.2 Q 133.3 1190.3, 366.7 1195.2 Q 600.0 1254.2, 833.3 1298.6 Q 1066.7 1361.7, 1300.0 1617.7" fill="none" stroke="#FFFFFF" stroke-opacity="0.38" stroke-width="4" filter="url(#soft_dashboard_12_4801)"/>
  <path d="M -100.0 1406.2 Q 133.3 1190.3, 366.7 1195.2 Q 600.0 1254.2, 833.3 1298.6 Q 1066.7 1361.7, 1300.0 1617.7" fill="none" stroke="#5DE0D7" stroke-opacity="0.18" stroke-width="2"/>
  <path d="M -100.0 613.3 Q 133.3 942.0, 366.7 1026.6 Q 600.0 924.1, 833.3 632.1 Q 1066.7 419.2, 1300.0 473.4" fill="none" stroke="#FFFFFF" stroke-opacity="0.38" stroke-width="4" filter="url(#soft_dashboard_12_4801)"/>
  <path d="M -100.0 613.3 Q 133.3 942.0, 366.7 1026.6 Q 600.0 924.1, 833.3 632.1 Q 1066.7 419.2, 1300.0 473.4" fill="none" stroke="#A8F2C0" stroke-opacity="0.18" stroke-width="2"/>
  <path d="M -100.0 2005.1 Q 133.3 2021.9, 366.7 1865.5 Q 600.0 1632.1, 833.3 1656.0 Q 1066.7 2065.0, 1300.0 1960.2" fill="none" stroke="#FFFFFF" stroke-opacity="0.38" stroke-width="4" filter="url(#soft_dashboard_12_4801)"/>
  <path d="M -100.0 2005.1 Q 133.3 2021.9, 366.7 1865.5 Q 600.0 1632.1, 833.3 1656.0 Q 1066.7 2065.0, 1300.0 1960.2" fill="none" stroke="#5DE0D7" stroke-opacity="0.18" stroke-width="2"/>
  <path d="M -100.0 667.6 Q 133.3 570.6, 366.7 418.3 Q 600.0 251.7, 833.3 201.7 Q 1066.7 408.9, 1300.0 664.3" fill="none" stroke="#FFFFFF" stroke-opacity="0.38" stroke-width="4" filter="url(#soft_dashboard_12_4801)"/>
  <path d="M -100.0 667.6 Q 133.3 570.6, 366.7 418.3 Q 600.0 251.7, 833.3 201.7 Q 1066.7 408.9, 1300.0 664.3" fill="none" stroke="#5DE0D7" stroke-opacity="0.18" stroke-width="2"/>
  <path d="M -100.0 2373.5 Q 133.3 2481.2, 366.7 2686.7 Q 600.0 2735.1, 833.3 2580.7 Q 1066.7 2467.4, 1300.0 2336.4" fill="none" stroke="#FFFFFF" stroke-opacity="0.38" stroke-width="4" filter="url(#soft_dashboard_12_4801)"/>
  <path d="M -100.0 2373.5 Q 133.3 2481.2, 366.7 2686.7 Q 600.0 2735.1, 833.3 2580.7 Q 1066.7 2467.4, 1300.0 2336.4" fill="none" stroke="#94D6FF" stroke-opacity="0.18" stroke-width="2"/>
  <path d="M -100.0 -205.8 Q 133.3 190.6, 366.7 235.4 Q 600.0 -212.6, 833.3 -396.1 Q 1066.7 95.9, 1300.0 170.8" fill="none" stroke="#FFFFFF" stroke-opacity="0.38" stroke-width="4" filter="url(#soft_dashboard_12_4801)"/>
  <path d="M -100.0 -205.8 Q 133.3 190.6, 366.7 235.4 Q 600.0 -212.6, 833.3 -396.1 Q 1066.7 95.9, 1300.0 170.8" fill="none" stroke="#A8F2C0" stroke-opacity="0.18" stroke-width="2"/>
  <circle cx="435" cy="1295" r="197" fill="url(#orb_dashboard_12_4801)" opacity="0.36"/>
  <circle cx="435" cy="1295" r="197" fill="#94D6FF" opacity="0.08"/>
  <circle cx="435" cy="1295" r="197" fill="none" stroke="#FFFFFF" stroke-opacity="0.56" stroke-width="3"/>
  <ellipse cx="379.8" cy="1224.1" rx="35.5" ry="15.8" fill="#FFFFFF" opacity="0.42" transform="rotate(-22 379.8 1224.1)"/>
  <circle cx="859" cy="2494" r="89" fill="url(#orb_dashboard_12_4801)" opacity="0.36"/>
  <circle cx="859" cy="2494" r="89" fill="#5DE0D7" opacity="0.08"/>
  <circle cx="859" cy="2494" r="89" fill="none" stroke="#FFFFFF" stroke-opacity="0.56" stroke-width="3"/>
  <ellipse cx="834.1" cy="2462.0" rx="16.0" ry="7.1" fill="#FFFFFF" opacity="0.42" transform="rotate(-22 834.1 2462.0)"/>
  <circle cx="726" cy="2655" r="193" fill="url(#orb_dashboard_12_4801)" opacity="0.36"/>
  <circle cx="726" cy="2655" r="193" fill="#A4E6F5" opacity="0.08"/>
  <circle cx="726" cy="2655" r="193" fill="none" stroke="#FFFFFF" stroke-opacity="0.56" stroke-width="3"/>
  <ellipse cx="672.0" cy="2585.5" rx="34.7" ry="15.4" fill="#FFFFFF" opacity="0.42" transform="rotate(-22 672.0 2585.5)"/>
  <circle cx="735" cy="248" r="195" fill="url(#orb_dashboard_12_4801)" opacity="0.18"/>
  <circle cx="735" cy="248" r="195" fill="#A4E6F5" opacity="0.08"/>
  <circle cx="735" cy="248" r="195" fill="none" stroke="#FFFFFF" stroke-opacity="0.56" stroke-width="3"/>
  <ellipse cx="680.4" cy="177.8" rx="35.1" ry="15.6" fill="#FFFFFF" opacity="0.42" transform="rotate(-22 680.4 177.8)"/>
  <circle cx="938" cy="395" r="170" fill="url(#orb_dashboard_12_4801)" opacity="0.27"/>
  <circle cx="938" cy="395" r="170" fill="#F8FFFD" opacity="0.08"/>
  <circle cx="938" cy="395" r="170" fill="none" stroke="#FFFFFF" stroke-opacity="0.56" stroke-width="3"/>
  <ellipse cx="890.4" cy="333.8" rx="30.6" ry="13.6" fill="#FFFFFF" opacity="0.42" transform="rotate(-22 890.4 333.8)"/>
  <circle cx="784" cy="1487" r="85" fill="url(#orb_dashboard_12_4801)" opacity="0.24"/>
  <circle cx="784" cy="1487" r="85" fill="#94D6FF" opacity="0.08"/>
  <circle cx="784" cy="1487" r="85" fill="none" stroke="#FFFFFF" stroke-opacity="0.56" stroke-width="3"/>
  <ellipse cx="760.2" cy="1456.4" rx="15.3" ry="6.8" fill="#FFFFFF" opacity="0.42" transform="rotate(-22 760.2 1456.4)"/>
  <circle cx="819" cy="185" r="267" fill="url(#orb_dashboard_12_4801)" opacity="0.18"/>
  <circle cx="819" cy="185" r="267" fill="#E8FFF5" opacity="0.08"/>
  <circle cx="819" cy="185" r="267" fill="none" stroke="#FFFFFF" stroke-opacity="0.56" stroke-width="3"/>
  <ellipse cx="744.2" cy="88.9" rx="48.1" ry="21.4" fill="#FFFFFF" opacity="0.42" transform="rotate(-22 744.2 88.9)"/>
  <circle cx="1061" cy="2618" r="242" fill="url(#orb_dashboard_12_4801)" opacity="0.18"/>
  <circle cx="1061" cy="2618" r="242" fill="#E8FFF5" opacity="0.08"/>
  <circle cx="1061" cy="2618" r="242" fill="none" stroke="#FFFFFF" stroke-opacity="0.56" stroke-width="3"/>
  <ellipse cx="993.2" cy="2530.9" rx="43.6" ry="19.4" fill="#FFFFFF" opacity="0.42" transform="rotate(-22 993.2 2530.9)"/>
  <circle cx="787" cy="19" r="5" fill="#FFFFFF" opacity="0.57"/>
  <circle cx="356" cy="486" r="2" fill="#FFFFFF" opacity="0.65"/>
  <circle cx="882" cy="2499" r="5" fill="#FFFFFF" opacity="0.71"/>
  <circle cx="1134" cy="1028" r="3" fill="#FFFFFF" opacity="0.66"/>
  <circle cx="128" cy="1263" r="2" fill="#FFFFFF" opacity="0.42"/>
  <circle cx="49" cy="1095" r="5" fill="#FFFFFF" opacity="0.40"/>
  <circle cx="862" cy="1965" r="4" fill="#FFFFFF" opacity="0.64"/>
  <circle cx="193" cy="1510" r="3" fill="#FFFFFF" opacity="0.72"/>
  <circle cx="73" cy="362" r="3" fill="#FFFFFF" opacity="0.51"/>
  <circle cx="1157" cy="764" r="3" fill="#FFFFFF" opacity="0.44"/>
  <circle cx="1020" cy="1518" r="4" fill="#FFFFFF" opacity="0.37"/>
  <circle cx="748" cy="604" r="4" fill="#FFFFFF" opacity="0.40"/>
  <circle cx="1100" cy="2081" r="4" fill="#FFFFFF" opacity="0.68"/>
  <rect width="1200" height="2600" fill="#FFFFFF" opacity="0.08"/>
  <rect width="1200" height="2600" filter="url(#grain_dashboard_12_4801)" opacity="0.7"/>
</svg>
