<svg xmlns="http://www.w3.org/2000/svg" width="1200" height="2600" viewBox="0 0 1200 2600" preserveAspectRatio="xMidYMid slice">
  <defs>
    <linearGradient id="bg_dashboard_06_1437" x1="0" y1="0" x2="1" y2="1">
      <stop offset="0%" stop-color="#F8FFFD"/>
      <stop offset="48%" stop-color="#A4E6F5"/>
      <stop offset="100%" stop-color="#D7F8E8"/>
    </linearGradient>
    <radialGradient id="orb_dashboard_06_1437" cx="35%" cy="30%" r="70%">
      <stop offset="0%" stop-color="#FFFFFF" stop-opacity="0.85"/>
      <stop offset="42%" stop-color="#FFFFFF" stop-opacity="0.20"/>
      <stop offset="100%" stop-color="#FFFFFF" stop-opacity="0.02"/>
    </radialGradient>
    <filter id="blur_dashboard_06_1437" x="-30%" y="-30%" width="160%" height="160%">
      <feGaussianBlur stdDeviation="72"/>
    </filter>
    <filter id="soft_dashboard_06_1437" x="-20%" y="-20%" width="140%" height="140%">
      <feGaussianBlur stdDeviation="10"/>
    </filter>
    <filter id="grain_dashboard_06_1437">
      <feTurbulence type="fractalNoise" baseFrequency="0.85" numOctaves="2" stitchTiles="stitch"/>
      <feColorMatrix type="saturate" values="0"/>
      <feComponentTransfer>
        <feFuncA type="table" tableValues="0 0.035"/>
      </feComponentTransfer>
    </filter>
  </defs>
  <rect width="1200" height="2600" fill="url(#bg_dashboard_06_1437)"/>
  <path d="M 1005.1 48.0 C 1005.1 322.9, 1155.2 232.3, 996.4 442.9 C 837.6 653.5, 883.9 504.2, 640.6 552.0 C 397.3 599.7, 500.3 623.1, 286.4 485.6 C 72.4 348.1, 136.3 537.7, 51.8 279.3 C -32.7 20.9, -30.6 125.2, 53.9 -133.2 C 138.4 -391.6, 50.1 -366.4, 264.1 -503.8 C 478.0 -641.3, 395.2 -505.3, 638.5 -457.6 C 881.8 -409.9, 842.6 -611.5, 1001.4 -400.9 C 1160.2 -190.3, 1005.1 -226.9, 1005.1 48.0 Z" fill="#F8FFFD" opacity="0.35" filter="url(#blur_dashboard_06_1437)"/>
  <path d="M 202.5 1772.0 C 202.5 1984.0, 223.7 1942.0, 144.2 2104.3 C 64.6 2266.7, 124.7 2258.9, 2.9 2295.7 C -119.0 2332.5, -67.8 2322.5, -175.0 2216.5 C -282.1 2110.5, -249.0 2106.0, -291.3 1906.8 C -333.6 1707.7, -371.5 1785.8, -329.2 1586.6 C -286.8 1387.4, -286.2 1436.0, -179.0 1330.0 C -71.8 1224.1, -125.8 1309.8, -3.9 1346.6 C 117.9 1383.4, 79.3 1263.6, 158.9 1426.0 C 238.4 1588.3, 202.5 1560.0, 202.5 1772.0 Z" fill="#D7F8E8" opacity="0.24" filter="url(#blur_dashboard_06_1437)"/>
  <path d="M 1141.9 2093.0 C 1141.9 2355.8, 1150.4 2299.4, 1029.2 2500.7 C 908.0 2702.0, 983.1 2664.5, 797.4 2710.2 C 611.7 2755.8, 704.2 2712.8, 540.9 2581.4 C 377.6 2450.0, 431.7 2513.2, 367.2 2266.3 C 302.7 2019.3, 216.0 2172.5, 280.5 1925.6 C 345.0 1678.6, 338.2 1740.5, 501.5 1609.1 C 664.7 1477.7, 628.3 1462.4, 814.0 1508.0 C 999.7 1553.7, 979.7 1513.9, 1100.9 1715.3 C 1222.1 1916.6, 1141.9 1830.2, 1141.9 2093.0 Z" fill="#94D6FF" opacity="0.35" filter="url(#blur_dashboard_06_1437)"/>
  <path d="M 632.2 790.0 C 632.2 968.2, 721.8 927.5, 602.6 1064.0 C 483.5 1200.5, 518.7 1166.3, 336.1 1197.3 C 153.5 1228.2, 213.1 1167.0, 52.6 1077.9 C -108.0 988.8, 3.3 1081.4, -60.1 914.0 C -123.5 746.5, -234.3 826.2, -170.8 658.8 C -107.4 491.3, -69.3 585.1, 91.2 496.0 C 251.8 406.9, 166.0 347.4, 348.5 378.4 C 531.1 409.3, 512.2 434.7, 631.3 571.2 C 750.5 707.7, 632.2 611.8, 632.2 790.0 Z" fill="#E8FFF5" opacity="0.27" filter="url(#blur_dashboard_06_1437)"/>
  <path d="M 1423.6 -233.0 C 1423.6 59.5, 1443.7 -110.9, 1354.6 113.2 C 1265.5 337.2, 1284.1 395.6, 1147.7 446.4 C 1011.2 497.2, 1084.9 464.0, 964.9 317.8 C 844.9 171.5, 827.8 255.0, 780.4 -19.8 C 733.0 -294.7, 760.0 -188.9, 807.4 -463.8 C 854.8 -738.7, 818.0 -605.7, 938.0 -752.0 C 1058.0 -898.2, 1028.7 -887.3, 1165.2 -836.5 C 1301.7 -785.7, 1255.1 -836.4, 1344.2 -612.3 C 1433.3 -388.2, 1423.6 -525.5, 1423.6 -233.0 Z" fill="#A8F2C0" opacity="0.37" filter="url(#blur_dashboard_06_1437)"/>
  <path d="M 502.3 2197.0 C 502.3 2485.9, 447.4 2352.7, 329.1 2574.0 C 210.8 2795.4, 316.0 2765.8, 134.7 2816.0 C -46.5 2866.2, 15.1 2910.8, -144.3 2766.3 C -303.7 2621.9, -282.5 2652.3, -345.5 2380.8 C -408.4 2109.3, -405.9 2259.0, -343.0 1987.5 C -280.0 1716.0, -302.1 1697.2, -142.7 1552.7 C 16.7 1408.3, -38.3 1600.2, 142.9 1650.4 C 324.2 1700.6, 203.4 1613.2, 321.7 1834.5 C 440.0 2055.8, 502.3 1908.1, 502.3 2197.0 Z" fill="#94D6FF" opacity="0.23" filter="url(#blur_dashboard_06_1437)"/>
  <path d="M 509.3 571.0 C 509.3 706.0, 548.9 640.4, 388.4 743.8 C 227.8 847.2, 327.9 849.2, 81.9 872.6 C -164.0 896.1, -68.6 876.5, -284.9 809.0 C -501.2 741.5, -400.5 786.8, -486.0 659.9 C -571.4 533.0, -576.1 599.0, -490.6 472.1 C -405.2 345.3, -529.0 336.7, -312.8 269.2 C -96.5 201.7, -158.5 209.9, 87.5 233.4 C 333.4 256.8, 299.4 296.9, 460.0 400.3 C 620.5 503.7, 509.3 436.0, 509.3 571.0 Z" fill="#E8FFF5" opacity="0.22" filter="url(#blur_dashboard_06_1437)"/>
  <path d="M 1552.0 -224.0 C 1552.0 10.9, 1535.6 -89.8, 1407.8 90.2 C 1279.9 270.1, 1356.7 180.3, 1160.9 221.1 C 965.0 261.9, 1071.1 410.3, 898.9 292.8 C 726.6 175.4, 806.5 181.2, 738.4 -39.6 C 670.4 -260.3, 623.5 -181.5, 691.5 -402.3 C 759.5 -623.0, 687.7 -557.2, 860.0 -674.7 C 1032.2 -792.1, 964.8 -821.4, 1160.6 -780.6 C 1356.5 -739.8, 1350.7 -746.2, 1478.5 -566.3 C 1606.4 -386.3, 1552.0 -458.9, 1552.0 -224.0 Z" fill="#5DE0D7" opacity="0.28" filter="url(#blur_dashboard_06_1437)"/>
  <path d="M 806.6 461.0 C 806.6 692.3, 756.5 640.3, 603.7 817.5 C 451.0 994.7, 513.7 838.0, 279.7 878.1 C 45.7 918.3, 167.5 970.3, -38.2 854.7 C -244.0 739.0, -237.0 869.7, -318.3 652.3 C -399.5 435.0, -425.7 495.8, -344.4 278.4 C -263.2 61.1, -279.8 160.0, -74.0 44.3 C 131.7 -71.3, 33.1 0.3, 267.1 40.5 C 501.1 80.7, 489.6 -46.9, 642.3 130.3 C 795.0 307.5, 806.6 229.7, 806.6 461.0 Z" fill="#5DE0D7" opacity="0.27" filter="url(#blur_dashboard_06_1437)"/>
  <path d="M 1366.9 -117.0 C 1366.9 58.1, 1416.4 -42.2, 1317.5 91.9 C 1218.6 226.0, 1292.9 289.2, 1141.3 319.6 C 989.8 350.0, 1022.8 251.0, 889.5 163.5 C 756.2 76.0, 810.4 184.3, 757.8 19.8 C 705.1 -144.7, 708.1 -99.5, 760.7 -264.0 C 813.3 -428.4, 746.9 -377.5, 880.2 -465.1 C 1013.5 -552.6, 982.0 -563.3, 1133.6 -532.9 C 1285.1 -502.5, 1263.0 -531.3, 1361.9 -397.2 C 1460.8 -263.1, 1366.9 -292.1, 1366.9 -117.0 Z" fill="#94D6FF" opacity="0.25" filter="url(#blur_dashboard_06_1437)"/>
  <path d="M 1212.0 694.0 C 1212.0 988.8, 1275.2 877.1, 1198.3 1102.9 C 1121.4 1328.7, 1132.2 1374.8, 1014.3 1426.0 C 896.4 1477.1, 945.0 1310.9, 841.4 1163.6 C 737.7 1016.2, 723.2 1222.6, 682.3 945.6 C 641.3 668.6, 703.9 719.3, 744.9 442.3 C 785.8 165.3, 723.8 374.3, 827.5 226.9 C 931.1 79.6, 890.0 -19.8, 1007.8 31.4 C 1125.7 82.5, 1059.2 23.6, 1136.2 249.4 C 1213.1 475.2, 1212.0 399.2, 1212.0 694.0 Z" fill="#D7F8E8" opacity="0.20" filter="url(#blur_dashboard_06_1437)"/>
  <path d="M 1248.7 242.0 C 1248.7 387.8, 1214.0 366.3, 1109.0 478.0 C 1004.0 589.7, 1048.4 539.7, 887.5 565.0 C 726.7 590.3, 792.4 604.7, 650.9 531.8 C 509.5 458.9, 546.2 489.7, 490.3 352.7 C 434.5 215.7, 406.1 277.0, 462.0 140.0 C 517.9 3.0, 505.5 41.4, 647.0 -31.5 C 788.4 -104.4, 724.6 -151.0, 885.5 -125.7 C 1046.4 -100.3, 1025.6 -66.3, 1130.6 45.4 C 1235.6 157.1, 1248.7 96.2, 1248.7 242.0 Z" fill="#A8F2C0" opacity="0.28" filter="url(#blur_dashboard_06_1437)"/>
  <path d="M 271.6 797.0 C 271.6 1059.8, 364.9 902.4, 246.1 1115.0 C 127.4 1327.6, 212.1 1331.8, 20.0 1413.0 C -172.2 1494.2, -77.8 1400.7, -270.0 1319.5 C -462.1 1238.3, -341.4 1350.0, -460.2 1137.4 C -579.0 924.8, -608.5 1059.8, -608.5 797.0 C -608.5 534.2, -590.4 638.0, -471.6 425.4 C -352.8 212.8, -442.3 344.3, -250.2 263.1 C -58.0 181.9, -175.8 138.5, 16.4 219.7 C 208.5 300.9, 83.7 231.1, 202.5 443.7 C 321.3 656.4, 271.6 534.2, 271.6 797.0 Z" fill="#A8F2C0" opacity="0.12" stroke="#A8F2C0" stroke-opacity="0.46" stroke-width="3" filter="url(#soft_dashboard_06_1437)"/>
  <path d="M 271.6 797.0 C 271.6 1059.8, 364.9 902.4, 246.1 1115.0 C 127.4 1327.6, 212.1 1331.8, 20.0 1413.0 C -172.2 1494.2, -77.8 1400.7, -270.0 1319.5 C -462.1 1238.3, -341.4 1350.0, -460.2 1137.4 C -579.0 924.8, -608.5 1059.8, -608.5 797.0 C -608.5 534.2, -590.4 638.0, -471.6 425.4 C -352.8 212.8, -442.3 344.3, -250.2 263.1 C -58.0 181.9, -175.8 138.5, 16.4 219.7 C 208.5 300.9, 83.7 231.1, 202.5 443.7 C 321.3 656.4, 271.6 534.2, 271.6 797.0 Z" fill="none" stroke="#FFFFFF" stroke-opacity="0.22" stroke-width="1.2"/>
  <path d="M 1658.8 2042.0 C 1658.8 2236.8, 1706.7 2131.8, 1570.2 2289.4 C 1433.8 2447.0, 1571.6 2445.8, 1350.8 2506.0 C 1130.0 2566.3, 1246.6 2499.9, 1025.8 2439.7 C 804.9 2379.5, 916.1 2454.4, 779.6 2296.8 C 643.1 2139.2, 686.0 2236.8, 686.0 2042.0 C 686.0 1847.2, 595.1 1971.0, 731.6 1813.4 C 868.1 1655.7, 804.8 1687.4, 1025.6 1627.2 C 1246.5 1567.0, 1124.4 1622.4, 1345.2 1682.6 C 1566.1 1742.8, 1466.0 1617.7, 1602.5 1775.4 C 1739.0 1933.0, 1658.8 1847.2, 1658.8 2042.0 Z" fill="#A8F2C0" opacity="0.12" stroke="#FFFFFF" stroke-opacity="0.46" stroke-width="3" filter="url(#soft_dashboard_06_1437)"/>
  <path d="M 1658.8 2042.0 C 1658.8 2236.8, 1706.7 2131.8, 1570.2 2289.4 C 1433.8 2447.0, 1571.6 2445.8, 1350.8 2506.0 C 1130.0 2566.3, 1246.6 2499.9, 1025.8 2439.7 C 804.9 2379.5, 916.1 2454.4, 779.6 2296.8 C 643.1 2139.2, 686.0 2236.8, 686.0 2042.0 C 686.0 1847.2, 595.1 1971.0, 731.6 1813.4 C 868.1 1655.7, 804.8 1687.4, 1025.6 1627.2 C 1246.5 1567.0, 1124.4 1622.4, 1345.2 1682.6 C 1566.1 1742.8, 1466.0 1617.7, 1602.5 1775.4 C 1739.0 1933.0, 1658.8 1847.2, 1658.8 2042.0 Z" fill="none" stroke="#FFFFFF" stroke-opacity="0.22" stroke-width="1.2"/>
  <path d="M 1582.4 59.0 C 1582.4 315.5, 1566.8 178.2, 1452.3 385.7 C 1337.7 593.3, 1464.9 569.6, 1279.6 648.9 C 1094.3 728.1, 1162.8 728.8, 977.5 649.5 C 792.2 570.3, 849.4 557.4, 734.9 349.9 C 620.3 142.4, 750.0 315.5, 750.0 59.0 C 750.0 -197.5, 698.6 -57.3, 813.1 -264.8 C 927.7 -472.3, 808.8 -401.8, 994.1 -481.1 C 1179.4 -560.4, 1085.0 -593.0, 1270.3 -513.7 C 1455.7 -434.5, 1402.0 -487.6, 1516.5 -280.1 C 1631.0 -72.6, 1582.4 -197.5, 1582.4 59.0 Z" fill="#F8FFFD" opacity="0.12" stroke="#FFFFFF" stroke-opacity="0.46" stroke-width="3" filter="url(#soft_dashboard_06_1437)"/>
  <path d="M 1582.4 59.0 C 1582.4 315.5, 1566.8 178.2, 1452.3 385.7 C 1337.7 593.3, 1464.9 569.6, 1279.6 648.9 C 1094.3 728.1, 1162.8 728.8, 977.5 649.5 C 792.2 570.3, 849.4 557.4, 734.9 349.9 C 620.3 142.4, 750.0 315.5, 750.0 59.0 C 750.0 -197.5, 698.6 -57.3, 813.1 -264.8 C 927.7 -472.3, 808.8 -401.8, 994.1 -481.1 C 1179.4 -560.4, 1085.0 -593.0, 1270.3 -513.7 C 1455.7 -434.5, 1402.0 -487.6, 1516.5 -280.1 C 1631.0 -72.6, 1582.4 -197.5, 1582.4 59.0 Z" fill="none" stroke="#FFFFFF" stroke-opacity="0.22" stroke-width="1.2"/>
  <path d="M 1888.6 23.0 C 1888.6 190.0, 1965.4 123.4, 1804.8 258.5 C 1644.3 393.6, 1675.7 294.1, 1415.9 345.7 C 1156.1 397.2, 1323.1 441.7, 1063.3 390.1 C 803.5 338.5, 986.4 399.1, 825.9 264.0 C 665.3 128.9, 614.3 190.0, 614.3 23.0 C 614.3 -143.9, 554.2 -79.5, 714.8 -214.5 C 875.4 -349.6, 779.1 -267.8, 1038.9 -319.4 C 1298.7 -370.9, 1176.8 -378.8, 1436.6 -327.2 C 1696.4 -275.6, 1644.5 -324.4, 1805.1 -189.3 C 1965.7 -54.3, 1888.6 -144.0, 1888.6 23.0 Z" fill="#BDEFFF" opacity="0.12" stroke="#BDEFFF" stroke-opacity="0.46" stroke-width="3" filter="url(#soft_dashboard_06_1437)"/>
  <path d="M 1888.6 23.0 C 1888.6 190.0, 1965.4 123.4, 1804.8 258.5 C 1644.3 393.6, 1675.7 294.1, 1415.9 345.7 C 1156.1 397.2, 1323.1 441.7, 1063.3 390.1 C 803.5 338.5, 986.4 399.1, 825.9 264.0 C 665.3 128.9, 614.3 190.0, 614.3 23.0 C 614.3 -143.9, 554.2 -79.5, 714.8 -214.5 C 875.4 -349.6, 779.1 -267.8, 1038.9 -319.4 C 1298.7 -370.9, 1176.8 -378.8, 1436.6 -327.2 C 1696.4 -275.6, 1644.5 -324.4, 1805.1 -189.3 C 1965.7 -54.3, 1888.6 -144.0, 1888.6 23.0 Z" fill="none" stroke="#FFFFFF" stroke-opacity="0.22" stroke-width="1.2"/>
  <path d="M 1268.6 1148.0 C 1268.6 1507.1, 1348.2 1276.9, 1217.6 1567.5 C 1086.9 1858.0, 1205.0 1829.7, 993.6 1940.6 C 782.1 2051.6, 879.4 2002.2, 667.9 1891.3 C 456.5 1780.3, 520.7 1842.1, 390.0 1551.5 C 259.4 1261.0, 264.0 1507.1, 264.0 1148.0 C 264.0 788.9, 288.3 1016.8, 419.0 726.3 C 549.7 435.7, 458.2 446.4, 669.7 335.4 C 881.1 224.5, 781.5 333.7, 992.9 444.7 C 1204.3 555.6, 1101.4 360.5, 1232.1 651.0 C 1362.8 941.5, 1268.6 788.9, 1268.6 1148.0 Z" fill="#F8FFFD" opacity="0.12" stroke="#FFFFFF" stroke-opacity="0.46" stroke-width="3" filter="url(#soft_dashboard_06_1437)"/>
  <path d="M 1268.6 1148.0 C 1268.6 1507.1, 1348.2 1276.9, 1217.6 1567.5 C 1086.9 1858.0, 1205.0 1829.7, 993.6 1940.6 C 782.1 2051.6, 879.4 2002.2, 667.9 1891.3 C 456.5 1780.3, 520.7 1842.1, 390.0 1551.5 C 259.4 1261.0, 264.0 1507.1, 264.0 1148.0 C 264.0 788.9, 288.3 1016.8, 419.0 726.3 C 549.7 435.7, 458.2 446.4, 669.7 335.4 C 881.1 224.5, 781.5 333.7, 992.9 444.7 C 1204.3 555.6, 1101.4 360.5, 1232.1 651.0 C 1362.8 941.5, 1268.6 788.9, 1268.6 1148.0 Z" fill="none" stroke="#FFFFFF" stroke-opacity="0.22" stroke-width="1.2"/>
  <path d="M 1603.9 675.0 C 1603.9 1040.0, 1550.6 849.5, 1402.2 1144.8 C 1253.8 1440.0, 1382.0 1425.1, 1142.0 1537.9 C 901.9 1650.7, 1034.9 1643.6, 794.8 1530.8 C 554.7 1418.1, 682.7 1384.1, 534.3 1088.8 C 385.9 793.6, 476.6 1040.0, 476.6 675.0 C 476.6 310.1, 364.9 504.3, 513.3 209.0 C 661.7 -86.2, 573.4 -89.7, 813.5 -202.5 C 1053.6 -315.3, 930.7 -316.1, 1170.8 -203.3 C 1410.9 -90.6, 1344.2 -73.9, 1492.6 221.3 C 1641.0 516.6, 1603.9 310.1, 1603.9 675.0 Z" fill="#5DE0D7" opacity="0.12" stroke="#5DE0D7" stroke-opacity="0.46" stroke-width="3" filter="url(#soft_dashboard_06_1437)"/>
  <path d="M 1603.9 675.0 C 1603.9 1040.0, 1550.6 849.5, 1402.2 1144.8 C 1253.8 1440.0, 1382.0 1425.1, 1142.0 1537.9 C 901.9 1650.7, 1034.9 1643.6, 794.8 1530.8 C 554.7 1418.1, 682.7 1384.1, 534.3 1088.8 C 385.9 793.6, 476.6 1040.0, 476.6 675.0 C 476.6 310.1, 364.9 504.3, 513.3 209.0 C 661.7 -86.2, 573.4 -89.7, 813.5 -202.5 C 1053.6 -315.3, 930.7 -316.1, 1170.8 -203.3 C 1410.9 -90.6, 1344.2 -73.9, 1492.6 221.3 C 1641.0 516.6, 1603.9 310.1, 1603.9 675.0 Z" fill="none" stroke="#FFFFFF" stroke-opacity="0.22" stroke-width="1.2"/>
  <path d="M -100.0 2270.8 Q 133.3 2108.1, 366.7 1849.8 Q 600.0 1993.5, 833.3 2219.4 Q 1066.7 2139.6, 1300.0 1844.6" fill="none" stroke="#FFFFFF" stroke-opacity="0.38" stroke-width="4" filter="url(#soft_dashboard_06_1437)"/>
  <path d="M -100.0 2270.8 Q 133.3 2108.1, 366.7 1849.8 Q 600.0 1993.5, 833.3 2219.4 Q 1066.7 2139.6, 1300.0 1844.6" fill="none" stroke="#5DE0D7" stroke-opacity="0.18" stroke-width="2"/>
  <path d="M -100.0 -106.5 Q 133.3 188.6, 366.7 363.6 Q 600.0 251.5, 833.3 -37.7 Q 1066.7 -132.9, 1300.0 -79.9" fill="none" stroke="#FFFFFF" stroke-opacity="0.38" stroke-width="4" filter="url(#soft_dashboard_06_1437)"/>
  <path d="M -100.0 -106.5 Q 133.3 188.6, 366.7 363.6 Q 600.0 251.5, 833.3 -37.7 Q 1066.7 -132.9, 1300.0 -79.9" fill="none" stroke="#5DE0D7" stroke-opacity="0.18" stroke-width="2"/>
  <path d="M -100.0 1805.2 Q 133.3 1765.8, 366.7 1688.8 Q 600.0 1884.2, 833.3 2001.2 Q 1066.7 1998.1, 1300.0 1836.2" fill="none" stroke="#FFFFFF" stroke-opacity="0.38" stroke-width="4" filter="url(#soft_dashboard_06_1437)"/>
  <path d="M -100.0 1805.2 Q 133.3 1765.8, 366.7 1688.8 Q 600.0 1884.2, 833.3 2001.2 Q 1066.7 1998.1, 1300.0 1836.2" fill="none" stroke="#94D6FF" stroke-opacity="0.18" stroke-width="2"/>
  <path d="M -100.0 330.2 Q 133.3 333.3, 366.7 416.9 Q 600.0 546.7, 833.3 629.5 Q 1066.7 458.2, 1300.0 260.7" fill="none" stroke="#FFFFFF" stroke-opacity="0.38" stroke-width="4" filter="url(#soft_dashboard_06_1437)"/>
  <path d="M -100.0 330.2 Q 133.3 333.3, 366.7 416.9 Q 600.0 546.7, 833.3 629.5 Q 1066.7 458.2, 1300.0 260.7" fill="none" stroke="#5DE0D7" stroke-opacity="0.18" stroke-width="2"/>
  <path d="M -100.0 69.3 Q 133.3 197.8, 366.7 342.5 Q 600.0 427.2, 833.3 295.1 Q 1066.7 227.2, 1300.0 133.1" fill="none" stroke="#FFFFFF" stroke-opacity="0.38" stroke-width="4" filter="url(#soft_dashboard_06_1437)"/>
  <path d="M -100.0 69.3 Q 133.3 197.8, 366.7 342.5 Q 600.0 427.2, 833.3 295.1 Q 1066.7 227.2, 1300.0 133.1" fill="none" stroke="#A8F2C0" stroke-opacity="0.18" stroke-width="2"/>
  <circle cx="865" cy="265" r="85" fill="url(#orb_dashboard_06_1437)" opacity="0.36"/>
  <circle cx="865" cy="265" r="85" fill="#A8F2C0" opacity="0.08"/>
  <circle cx="865" cy="265" r="85" fill="none" stroke="#FFFFFF" stroke-opacity="0.56" stroke-width="3"/>
  <ellipse cx="841.2" cy="234.4" rx="15.3" ry="6.8" fill="#FFFFFF" opacity="0.42" transform="rotate(-22 841.2 234.4)"/>
  <circle cx="187" cy="171" r="264" fill="url(#orb_dashboard_06_1437)" opacity="0.36"/>
  <circle cx="187" cy="171" r="264" fill="#A4E6F5" opacity="0.08"/>
  <circle cx="187" cy="171" r="264" fill="none" stroke="#FFFFFF" stroke-opacity="0.56" stroke-width="3"/>
  <ellipse cx="113.1" cy="76.0" rx="47.5" ry="21.1" fill="#FFFFFF" opacity="0.42" transform="rotate(-22 113.1 76.0)"/>
  <circle cx="254" cy="823" r="164" fill="url(#orb_dashboard_06_1437)" opacity="0.36"/>
  <circle cx="254" cy="823" r="164" fill="#A4E6F5" opacity="0.08"/>
  <circle cx="254" cy="823" r="164" fill="none" stroke="#FFFFFF" stroke-opacity="0.56" stroke-width="3"/>
  <ellipse cx="208.1" cy="764.0" rx="29.5" ry="13.1" fill="#FFFFFF" opacity="0.42" transform="rotate(-22 208.1 764.0)"/>
  <circle cx="754" cy="1530" r="262" fill="url(#orb_dashboard_06_1437)" opacity="0.17"/>
  <circle cx="754" cy="1530" r="262" fill="#F8FFFD" opacity="0.08"/>
  <circle cx="754" cy="1530" r="262" fill="none" stroke="#FFFFFF" stroke-opacity="0.56" stroke-width="3"/>
  <ellipse cx="680.6" cy="1435.7" rx="47.2" ry="21.0" fill="#FFFFFF" opacity="0.42" transform="rotate(-22 680.6 1435.7)"/>
  <circle cx="156" cy="935" r="274" fill="url(#orb_dashboard_06_1437)" opacity="0.19"/>
  <circle cx="156" cy="935" r="274" fill="#E8FFF5" opacity="0.08"/>
  <circle cx="156" cy="935" r="274" fill="none" stroke="#FFFFFF" stroke-opacity="0.56" stroke-width="3"/>
  <ellipse cx="79.3" cy="836.4" rx="49.3" ry="21.9" fill="#FFFFFF" opacity="0.42" transform="rotate(-22 79.3 836.4)"/>
  <circle cx="79" cy="533" r="193" fill="url(#orb_dashboard_06_1437)" opacity="0.22"/>
  <circle cx="79" cy="533" r="193" fill="#94D6FF" opacity="0.08"/>
  <circle cx="79" cy="533" r="193" fill="none" stroke="#FFFFFF" stroke-opacity="0.56" stroke-width="3"/>
  <ellipse cx="25.0" cy="463.5" rx="34.7" ry="15.4" fill="#FFFFFF" opacity="0.42" transform="rotate(-22 25.0 463.5)"/>
  <circle cx="1237" cy="1478" r="225" fill="url(#orb_dashboard_06_1437)" opacity="0.27"/>
  <circle cx="1237" cy="1478" r="225" fill="#A4E6F5" opacity="0.08"/>
  <circle cx="1237" cy="1478" r="225" fill="none" stroke="#FFFFFF" stroke-opacity="0.56" stroke-width="3"/>
  <ellipse cx="1174.0" cy="1397.0" rx="40.5" ry="18.0" fill="#FFFFFF" opacity="0.42" transform="rotate(-22 1174.0 1397.0)"/>
  <circle cx="350" cy="535" r="223" fill="url(#orb_dashboard_06_1437)" opacity="0.19"/>
  <circle cx="350" cy="535" r="223" fill="#BDEFFF" opacity="0.08"/>
  <circle cx="350" cy="535" r="223" fill="none" stroke="#FFFFFF" stroke-opacity="0.56" stroke-width="3"/>
  <ellipse cx="287.6" cy="454.7" rx="40.1" ry="17.8" fill="#FFFFFF" opacity="0.42" transform="rotate(-22 287.6 454.7)"/>
  <circle cx="229" cy="1758" r="5" fill="#FFFFFF" opacity="0.29"/>
  <circle cx="906" cy="2203" r="7" fill="#FFFFFF" opacity="0.61"/>
  <circle cx="1091" cy="1721" r="4" fill="#FFFFFF" opacity="0.33"/>
  <circle cx="155" cy="38" r="7" fill="#FFFFFF" opacity="0.32"/>
  <circle cx="474" cy="1783" r="5" fill="#FFFFFF" opacity="0.28"/>
  <circle cx="1104" cy="1033" r="2" fill="#FFFFFF" opacity="0.56"/>
  <circle cx="314" cy="114" r="7" fill="#FFFFFF" opacity="0.62"/>
  <circle cx="392" cy="1720" r="7" fill="#FFFFFF" opacity="0.67"/>
  <circle cx="515" cy="2210" r="4" fill="#FFFFFF" opacity="0.72"/>
  <circle cx="604" cy="1094" r="7" fill="#FFFFFF" opacity="0.40"/>
  <circle cx="209" cy="1457" r="4" fill="#FFFFFF" opacity="0.48"/>
  <circle cx="866" cy="470" r="2" fill="#FFFFFF" opacity="0.45"/>
  <circle cx="529" cy="230" r="4" fill="#FFFFFF" opacity="0.51"/>
  <circle cx="616" cy="2078" r="4" fill="#FFFFFF" opacity="0.47"/>
  <rect width="1200" height="2600" fill="#FFFFFF" opacity="0.08"/>
  <rect width="1200" height="2600" filter="url(#grain_dashboard_06_1437)" opacity="0.7"/>
</svg>
