<svg xmlns="http://www.w3.org/2000/svg" width="1200" height="2600" viewBox="0 0 1200 2600" preserveAspectRatio="xMidYMid slice">
  <defs>
    <linearGradient id="bg_dashboard_08_5499" x1="0" y1="0" x2="1" y2="1">
      <stop offset="0%" stop-color="#F8FFFD"/>
      <stop offset="48%" stop-color="#D7F8E8"/>
      <stop offset="100%" stop-color="#E8FFF5"/>
    </linearGradient>
    <radialGradient id="orb_dashboard_08_5499" cx="35%" cy="30%" r="70%">
      <stop offset="0%" stop-color="#FFFFFF" stop-opacity="0.85"/>
      <stop offset="42%" stop-color="#FFFFFF" stop-opacity="0.20"/>
      <stop offset="100%" stop-color="#FFFFFF" stop-opacity="0.02"/>
    </radialGradient>
    <filter id="blur_dashboard_08_5499" x="-30%" y="-30%" width="160%" height="160%">
      <feGaussianBlur stdDeviation="72"/>
    </filter>
    <filter id="soft_dashboard_08_5499" x="-20%" y="-20%" width="140%" height="140%">
      <feGaussianBlur stdDeviation="10"/>
    </filter>
    <filter id="grain_dashboard_08_5499">
      <feTurbulence type="fractalNoise" baseFrequency="0.85" numOctaves="2" stitchTiles="stitch"/>
      <feColorMatrix type="saturate" values="0"/>
      <feComponentTransfer>
        <feFuncA type="table" tableValues="0 0.035"/>
      </feComponentTransfer>
    </filter>
  </defs>
  <rect width="1200" height="2600" fill="url(#bg_dashboard_08_5499)"/>
  <path d="M 1364.6 691.0 C 1364.6 853.0, 1444.3 763.7, 1302.6 887.8 C 1160.9 1011.9, 1189.0 1040.2, 971.8 1068.3 C 754.7 1096.4, 838.5 1123.1, 647.5 1042.1 C 456.6 961.1, 438.7 951.1, 363.2 798.8 C 287.8 646.6, 345.2 707.2, 420.6 555.0 C 496.0 402.7, 438.0 444.2, 629.0 363.2 C 820.0 282.2, 763.2 297.3, 980.4 325.4 C 1197.5 353.6, 1168.8 309.8, 1310.5 433.9 C 1452.2 558.0, 1364.6 529.0, 1364.6 691.0 Z" fill="#A8F2C0" opacity="0.21" filter="url(#blur_dashboard_08_5499)"/>
  <path d="M 1733.9 2768.0 C 1733.9 2935.8, 1725.7 2905.8, 1621.3 3034.4 C 1516.8 3163.0, 1578.1 3135.1, 1418.1 3164.2 C 1258.1 3193.4, 1312.2 3159.8, 1171.5 3075.9 C 1030.8 2992.0, 1065.5 3035.5, 1009.9 2877.8 C 954.4 2720.1, 953.4 2778.2, 1008.9 2620.5 C 1064.5 2462.8, 1013.4 2499.0, 1154.1 2415.1 C 1294.8 2331.2, 1271.1 2361.0, 1431.0 2390.1 C 1591.0 2419.3, 1483.5 2356.5, 1588.0 2485.1 C 1692.4 2613.7, 1733.9 2600.2, 1733.9 2768.0 Z" fill="#F8FFFD" opacity="0.28" filter="url(#blur_dashboard_08_5499)"/>
  <path d="M 1390.2 2412.0 C 1390.2 2702.7, 1414.2 2557.0, 1315.6 2779.7 C 1217.0 3002.4, 1244.9 2967.5, 1093.8 3017.9 C 942.7 3068.4, 992.4 3066.9, 859.5 2921.6 C 726.7 2776.2, 752.2 2939.9, 699.7 2666.7 C 647.2 2393.5, 676.0 2442.2, 728.5 2169.0 C 781.0 1895.8, 705.3 2038.4, 838.2 1893.1 C 971.1 1747.7, 944.6 1696.2, 1095.7 1746.7 C 1246.8 1797.1, 1202.8 1830.3, 1301.4 2053.0 C 1400.1 2275.7, 1390.2 2121.3, 1390.2 2412.0 Z" fill="#A4E6F5" opacity="0.23" filter="url(#blur_dashboard_08_5499)"/>
  <path d="M 1507.5 869.0 C 1507.5 1012.1, 1515.7 947.3, 1428.3 1056.9 C 1341.0 1166.5, 1346.7 1141.8, 1212.8 1166.7 C 1079.0 1191.5, 1147.5 1221.3, 1029.8 1149.8 C 912.1 1078.2, 952.3 1123.4, 905.8 989.0 C 859.3 854.5, 842.5 887.5, 889.0 753.0 C 935.5 618.5, 885.6 691.1, 1003.3 619.6 C 1121.0 548.0, 1082.0 569.0, 1215.8 593.9 C 1349.7 618.7, 1271.7 566.0, 1359.1 675.6 C 1446.4 785.3, 1507.5 725.9, 1507.5 869.0 Z" fill="#E8FFF5" opacity="0.27" filter="url(#blur_dashboard_08_5499)"/>
  <path d="M 838.4 1016.0 C 838.4 1273.8, 892.6 1134.3, 778.0 1331.9 C 663.5 1529.4, 733.6 1606.9, 558.1 1651.7 C 382.6 1696.5, 423.9 1568.2, 269.6 1439.3 C 115.3 1310.4, 159.5 1443.2, 98.5 1200.9 C 37.6 958.6, 76.3 1050.2, 137.3 807.9 C 198.2 565.6, 131.8 597.6, 286.1 468.7 C 440.5 339.7, 364.6 411.2, 540.1 456.0 C 715.6 500.8, 655.1 449.7, 769.7 647.2 C 884.2 844.7, 838.4 758.1, 838.4 1016.0 Z" fill="#E8FFF5" opacity="0.32" filter="url(#blur_dashboard_08_5499)"/>
  <path d="M 1707.5 2133.0 C 1707.5 2317.1, 1648.5 2248.2, 1525.6 2389.1 C 1402.6 2530.1, 1458.3 2479.1, 1270.0 2511.1 C 1081.6 2543.0, 1181.7 2602.4, 1016.1 2510.4 C 850.5 2418.4, 818.1 2434.9, 752.7 2261.9 C 687.3 2089.0, 721.2 2161.4, 786.6 1988.4 C 852.0 1815.5, 795.6 1844.0, 961.2 1752.0 C 1126.8 1660.0, 1091.7 1690.7, 1280.1 1722.6 C 1468.4 1754.6, 1442.4 1776.1, 1565.4 1917.1 C 1688.3 2058.1, 1707.5 1949.0, 1707.5 2133.0 Z" fill="#94D6FF" opacity="0.24" filter="url(#blur_dashboard_08_5499)"/>
  <path d="M 767.0 1927.0 C 767.0 2152.9, 775.9 2079.1, 683.6 2252.2 C 591.3 2425.2, 639.0 2351.5, 497.6 2390.8 C 356.3 2430.0, 421.8 2526.9, 297.4 2414.0 C 173.1 2301.0, 161.4 2308.8, 112.4 2096.6 C 63.3 1884.3, 98.8 1956.2, 147.9 1743.9 C 197.0 1531.7, 176.1 1624.3, 300.4 1511.4 C 424.7 1398.4, 343.5 1334.4, 484.8 1373.6 C 626.2 1412.8, 570.5 1395.9, 662.8 1568.9 C 755.1 1742.0, 767.0 1701.1, 767.0 1927.0 Z" fill="#94D6FF" opacity="0.18" filter="url(#blur_dashboard_08_5499)"/>
  <path d="M 819.0 857.0 C 819.0 1119.8, 851.7 1001.7, 735.4 1203.0 C 619.1 1404.3, 701.4 1368.8, 523.3 1414.4 C 345.1 1460.0, 388.4 1525.4, 231.7 1394.0 C 75.0 1262.6, 79.0 1288.7, 17.1 1041.7 C -44.8 794.8, -21.9 932.6, 40.0 685.6 C 101.9 438.7, 79.0 555.9, 235.6 424.5 C 392.3 293.1, 360.7 252.0, 538.8 297.6 C 717.0 343.3, 617.7 244.2, 734.0 445.5 C 850.2 646.8, 819.0 594.2, 819.0 857.0 Z" fill="#5DE0D7" opacity="0.20" filter="url(#blur_dashboard_08_5499)"/>
  <path d="M 633.4 2504.0 C 633.4 2666.9, 723.7 2584.2, 611.2 2709.0 C 498.7 2833.8, 526.2 2836.9, 353.8 2865.2 C 181.4 2893.5, 251.8 2864.9, 100.2 2783.5 C -51.4 2702.0, -51.4 2777.2, -111.3 2624.2 C -171.2 2471.1, -172.1 2545.3, -112.3 2392.2 C -52.4 2239.2, -55.1 2225.9, 96.5 2144.5 C 248.1 2063.0, 164.1 2096.5, 336.5 2124.8 C 508.9 2153.1, 442.1 2168.7, 554.6 2293.5 C 667.2 2418.2, 633.4 2341.1, 633.4 2504.0 Z" fill="#A8F2C0" opacity="0.24" filter="url(#blur_dashboard_08_5499)"/>
  <path d="M 1638.4 -160.0 C 1638.4 231.9, 1645.3 54.6, 1536.5 371.7 C 1427.8 688.8, 1473.0 613.8, 1297.1 734.9 C 1121.2 856.0, 1224.2 740.0, 1048.3 618.9 C 872.4 497.8, 1002.1 718.0, 893.4 400.9 C 784.6 83.8, 728.8 232.0, 728.8 -160.0 C 728.8 -551.9, 722.8 -406.4, 831.5 -723.5 C 940.2 -1040.6, 895.1 -855.7, 1071.0 -976.8 C 1246.9 -1097.9, 1119.8 -1168.7, 1295.7 -1047.6 C 1471.6 -926.4, 1421.3 -1057.4, 1530.1 -740.3 C 1638.8 -423.2, 1638.4 -552.0, 1638.4 -160.0 Z" fill="#A8F2C0" opacity="0.12" stroke="#FFFFFF" stroke-opacity="0.46" stroke-width="3" filter="url(#soft_dashboard_08_5499)"/>
  <path d="M 1638.4 -160.0 C 1638.4 231.9, 1645.3 54.6, 1536.5 371.7 C 1427.8 688.8, 1473.0 613.8, 1297.1 734.9 C 1121.2 856.0, 1224.2 740.0, 1048.3 618.9 C 872.4 497.8, 1002.1 718.0, 893.4 400.9 C 784.6 83.8, 728.8 232.0, 728.8 -160.0 C 728.8 -551.9, 722.8 -406.4, 831.5 -723.5 C 940.2 -1040.6, 895.1 -855.7, 1071.0 -976.8 C 1246.9 -1097.9, 1119.8 -1168.7, 1295.7 -1047.6 C 1471.6 -926.4, 1421.3 -1057.4, 1530.1 -740.3 C 1638.8 -423.2, 1638.4 -552.0, 1638.4 -160.0 Z" fill="none" stroke="#FFFFFF" stroke-opacity="0.22" stroke-width="1.2"/>
  <path d="M 1159.2 1145.0 C 1159.2 1398.8, 1241.9 1249.0, 1141.4 1454.4 C 1040.9 1659.7, 1088.5 1640.9, 925.9 1719.3 C 763.2 1797.8, 860.4 1770.7, 697.8 1692.3 C 535.2 1613.9, 617.6 1671.7, 517.1 1466.3 C 416.6 1261.0, 480.2 1398.8, 480.2 1145.0 C 480.2 891.2, 435.3 1017.9, 535.8 812.6 C 636.3 607.3, 553.2 761.4, 715.8 683.0 C 878.4 604.5, 767.0 570.7, 929.6 649.2 C 1092.3 727.6, 1041.6 601.3, 1142.1 806.7 C 1242.7 1012.0, 1159.2 891.2, 1159.2 1145.0 Z" fill="#A8F2C0" opacity="0.12" stroke="#A8F2C0" stroke-opacity="0.46" stroke-width="3" filter="url(#soft_dashboard_08_5499)"/>
  <path d="M 1159.2 1145.0 C 1159.2 1398.8, 1241.9 1249.0, 1141.4 1454.4 C 1040.9 1659.7, 1088.5 1640.9, 925.9 1719.3 C 763.2 1797.8, 860.4 1770.7, 697.8 1692.3 C 535.2 1613.9, 617.6 1671.7, 517.1 1466.3 C 416.6 1261.0, 480.2 1398.8, 480.2 1145.0 C 480.2 891.2, 435.3 1017.9, 535.8 812.6 C 636.3 607.3, 553.2 761.4, 715.8 683.0 C 878.4 604.5, 767.0 570.7, 929.6 649.2 C 1092.3 727.6, 1041.6 601.3, 1142.1 806.7 C 1242.7 1012.0, 1159.2 891.2, 1159.2 1145.0 Z" fill="none" stroke="#FFFFFF" stroke-opacity="0.22" stroke-width="1.2"/>
  <path d="M 477.1 2085.0 C 477.1 2238.4, 463.5 2186.9, 290.7 2311.1 C 118.0 2435.2, 260.3 2326.3, -19.2 2373.7 C -298.6 2421.1, -130.0 2489.7, -409.5 2442.3 C -689.0 2394.9, -627.1 2428.7, -799.9 2304.6 C -972.6 2180.4, -962.7 2238.4, -962.7 2085.0 C -962.7 1931.5, -979.6 2014.8, -806.9 1890.6 C -634.1 1766.5, -695.9 1838.5, -416.4 1791.1 C -137.0 1743.7, -294.9 1752.8, -15.4 1800.3 C 264.1 1847.7, 114.4 1763.3, 287.1 1887.5 C 459.8 2011.6, 477.1 1931.5, 477.1 2085.0 Z" fill="#5DE0D7" opacity="0.12" stroke="#5DE0D7" stroke-opacity="0.46" stroke-width="3" filter="url(#soft_dashboard_08_5499)"/>
  <path d="M 477.1 2085.0 C 477.1 2238.4, 463.5 2186.9, 290.7 2311.1 C 118.0 2435.2, 260.3 2326.3, -19.2 2373.7 C -298.6 2421.1, -130.0 2489.7, -409.5 2442.3 C -689.0 2394.9, -627.1 2428.7, -799.9 2304.6 C -972.6 2180.4, -962.7 2238.4, -962.7 2085.0 C -962.7 1931.5, -979.6 2014.8, -806.9 1890.6 C -634.1 1766.5, -695.9 1838.5, -416.4 1791.1 C -137.0 1743.7, -294.9 1752.8, -15.4 1800.3 C 264.1 1847.7, 114.4 1763.3, 287.1 1887.5 C 459.8 2011.6, 477.1 1931.5, 477.1 2085.0 Z" fill="none" stroke="#FFFFFF" stroke-opacity="0.22" stroke-width="1.2"/>
  <path d="M 879.9 71.0 C 879.9 234.8, 938.6 145.8, 810.5 278.3 C 682.5 410.8, 801.0 389.6, 593.9 440.2 C 386.8 490.8, 507.8 515.9, 300.7 465.3 C 93.5 414.7, 173.5 425.4, 45.5 292.9 C -82.6 160.3, 29.5 234.8, 29.5 71.0 C 29.5 -92.8, -64.2 -29.5, 63.8 -162.1 C 191.8 -294.6, 74.0 -215.5, 281.1 -266.1 C 488.3 -316.7, 401.3 -313.1, 608.5 -262.5 C 815.6 -211.9, 693.5 -257.5, 821.5 -125.0 C 949.5 7.6, 879.9 -92.8, 879.9 71.0 Z" fill="#5DE0D7" opacity="0.12" stroke="#FFFFFF" stroke-opacity="0.46" stroke-width="3" filter="url(#soft_dashboard_08_5499)"/>
  <path d="M 879.9 71.0 C 879.9 234.8, 938.6 145.8, 810.5 278.3 C 682.5 410.8, 801.0 389.6, 593.9 440.2 C 386.8 490.8, 507.8 515.9, 300.7 465.3 C 93.5 414.7, 173.5 425.4, 45.5 292.9 C -82.6 160.3, 29.5 234.8, 29.5 71.0 C 29.5 -92.8, -64.2 -29.5, 63.8 -162.1 C 191.8 -294.6, 74.0 -215.5, 281.1 -266.1 C 488.3 -316.7, 401.3 -313.1, 608.5 -262.5 C 815.6 -211.9, 693.5 -257.5, 821.5 -125.0 C 949.5 7.6, 879.9 -92.8, 879.9 71.0 Z" fill="none" stroke="#FFFFFF" stroke-opacity="0.22" stroke-width="1.2"/>
  <path d="M 1445.5 422.0 C 1445.5 625.9, 1499.7 522.1, 1340.7 687.0 C 1181.8 851.9, 1264.0 828.6, 1006.8 891.5 C 749.6 954.5, 875.1 864.5, 617.9 801.5 C 360.7 738.5, 504.4 826.6, 345.4 661.7 C 186.4 496.8, 285.7 625.9, 285.7 422.0 C 285.7 218.2, 218.4 356.5, 377.4 191.6 C 536.3 26.7, 342.8 1.0, 600.0 -61.9 C 857.2 -124.9, 712.4 -36.9, 969.6 26.1 C 1226.8 89.1, 1103.7 5.0, 1262.7 170.0 C 1421.7 334.9, 1445.5 218.2, 1445.5 422.0 Z" fill="#F8FFFD" opacity="0.12" stroke="#F8FFFD" stroke-opacity="0.46" stroke-width="3" filter="url(#soft_dashboard_08_5499)"/>
  <path d="M 1445.5 422.0 C 1445.5 625.9, 1499.7 522.1, 1340.7 687.0 C 1181.8 851.9, 1264.0 828.6, 1006.8 891.5 C 749.6 954.5, 875.1 864.5, 617.9 801.5 C 360.7 738.5, 504.4 826.6, 345.4 661.7 C 186.4 496.8, 285.7 625.9, 285.7 422.0 C 285.7 218.2, 218.4 356.5, 377.4 191.6 C 536.3 26.7, 342.8 1.0, 600.0 -61.9 C 857.2 -124.9, 712.4 -36.9, 969.6 26.1 C 1226.8 89.1, 1103.7 5.0, 1262.7 170.0 C 1421.7 334.9, 1445.5 218.2, 1445.5 422.0 Z" fill="none" stroke="#FFFFFF" stroke-opacity="0.22" stroke-width="1.2"/>
  <path d="M 363.5 2297.0 C 363.5 2502.7, 465.1 2406.4, 302.4 2572.7 C 139.7 2739.1, 196.3 2691.3, -67.0 2754.9 C -330.2 2818.4, -142.9 2829.5, -406.1 2765.9 C -669.3 2702.4, -547.8 2725.6, -710.5 2559.2 C -873.2 2392.8, -876.2 2502.7, -876.2 2297.0 C -876.2 2091.3, -872.0 2214.4, -709.3 2048.0 C -546.7 1881.6, -710.1 1959.5, -446.8 1895.9 C -183.6 1832.4, -318.4 1829.5, -55.2 1893.1 C 208.0 1956.6, 131.4 1887.6, 294.1 2053.9 C 456.8 2220.3, 363.5 2091.3, 363.5 2297.0 Z" fill="#94D6FF" opacity="0.12" stroke="#FFFFFF" stroke-opacity="0.46" stroke-width="3" filter="url(#soft_dashboard_08_5499)"/>
  <path d="M 363.5 2297.0 C 363.5 2502.7, 465.1 2406.4, 302.4 2572.7 C 139.7 2739.1, 196.3 2691.3, -67.0 2754.9 C -330.2 2818.4, -142.9 2829.5, -406.1 2765.9 C -669.3 2702.4, -547.8 2725.6, -710.5 2559.2 C -873.2 2392.8, -876.2 2502.7, -876.2 2297.0 C -876.2 2091.3, -872.0 2214.4, -709.3 2048.0 C -546.7 1881.6, -710.1 1959.5, -446.8 1895.9 C -183.6 1832.4, -318.4 1829.5, -55.2 1893.1 C 208.0 1956.6, 131.4 1887.6, 294.1 2053.9 C 456.8 2220.3, 363.5 2091.3, 363.5 2297.0 Z" fill="none" stroke="#FFFFFF" stroke-opacity="0.22" stroke-width="1.2"/>
  <path d="M -100.0 1322.7 Q 133.3 1540.6, 366.7 1831.6 Q 600.0 1791.8, 833.3 1514.5 Q 1066.7 1404.1, 1300.0 1828.6" fill="none" stroke="#FFFFFF" stroke-opacity="0.38" stroke-width="4" filter="url(#soft_dashboard_08_5499)"/>
  <path d="M -100.0 1322.7 Q 133.3 1540.6, 366.7 1831.6 Q 600.0 1791.8, 833.3 1514.5 Q 1066.7 1404.1, 1300.0 1828.6" fill="none" stroke="#94D6FF" stroke-opacity="0.18" stroke-width="2"/>
  <path d="M -100.0 2458.5 Q 133.3 2266.4, 366.7 2263.2 Q 600.0 2309.7, 833.3 2470.6 Q 1066.7 2647.5, 1300.0 2600.7" fill="none" stroke="#FFFFFF" stroke-opacity="0.38" stroke-width="4" filter="url(#soft_dashboard_08_5499)"/>
  <path d="M -100.0 2458.5 Q 133.3 2266.4, 366.7 2263.2 Q 600.0 2309.7, 833.3 2470.6 Q 1066.7 2647.5, 1300.0 2600.7" fill="none" stroke="#A8F2C0" stroke-opacity="0.18" stroke-width="2"/>
  <path d="M -100.0 1551.5 Q 133.3 1655.2, 366.7 1757.9 Q 600.0 1882.5, 833.3 2037.9 Q 1066.7 2131.0, 1300.0 2024.4" fill="none" stroke="#FFFFFF" stroke-opacity="0.38" stroke-width="4" filter="url(#soft_dashboard_08_5499)"/>
  <path d="M -100.0 1551.5 Q 133.3 1655.2, 366.7 1757.9 Q 600.0 1882.5, 833.3 2037.9 Q 1066.7 2131.0, 1300.0 2024.4" fill="none" stroke="#94D6FF" stroke-opacity="0.18" stroke-width="2"/>
  <path d="M -100.0 59.5 Q 133.3 182.9, 366.7 313.6 Q 600.0 625.4, 833.3 646.1 Q 1066.7 403.9, 1300.0 276.8" fill="none" stroke="#FFFFFF" stroke-opacity="0.38" stroke-width="4" filter="url(#soft_dashboard_08_5499)"/>
  <path d="M -100.0 59.5 Q 133.3 182.9, 366.7 313.6 Q 600.0 625.4, 833.3 646.1 Q 1066.7 403.9, 1300.0 276.8" fill="none" stroke="#94D6FF" stroke-opacity="0.18" stroke-width="2"/>
  <path d="M -100.0 1448.2 Q 133.3 1682.8, 366.7 1643.9 Q 600.0 1329.0, 833.3 1114.5 Q 1066.7 886.5, 1300.0 1128.1" fill="none" stroke="#FFFFFF" stroke-opacity="0.38" stroke-width="4" filter="url(#soft_dashboard_08_5499)"/>
  <path d="M -100.0 1448.2 Q 133.3 1682.8, 366.7 1643.9 Q 600.0 1329.0, 833.3 1114.5 Q 1066.7 886.5, 1300.0 1128.1" fill="none" stroke="#94D6FF" stroke-opacity="0.18" stroke-width="2"/>
  <path d="M -100.0 2075.8 Q 133.3 2332.4, 366.7 2604.2 Q 600.0 2790.7, 833.3 2508.3 Q 1066.7 2139.6, 1300.0 2179.1" fill="none" stroke="#FFFFFF" stroke-opacity="0.38" stroke-width="4" filter="url(#soft_dashboard_08_5499)"/>
  <path d="M -100.0 2075.8 Q 133.3 2332.4, 366.7 2604.2 Q 600.0 2790.7, 833.3 2508.3 Q 1066.7 2139.6, 1300.0 2179.1" fill="none" stroke="#A8F2C0" stroke-opacity="0.18" stroke-width="2"/>
  <circle cx="-25" cy="1948" r="251" fill="url(#orb_dashboard_08_5499)" opacity="0.36"/>
  <circle cx="-25" cy="1948" r="251" fill="#94D6FF" opacity="0.08"/>
  <circle cx="-25" cy="1948" r="251" fill="none" stroke="#FFFFFF" stroke-opacity="0.56" stroke-width="3"/>
  <ellipse cx="-95.3" cy="1857.6" rx="45.2" ry="20.1" fill="#FFFFFF" opacity="0.42" transform="rotate(-22 -95.3 1857.6)"/>
  <circle cx="774" cy="2190" r="157" fill="url(#orb_dashboard_08_5499)" opacity="0.36"/>
  <circle cx="774" cy="2190" r="157" fill="#D7F8E8" opacity="0.08"/>
  <circle cx="774" cy="2190" r="157" fill="none" stroke="#FFFFFF" stroke-opacity="0.56" stroke-width="3"/>
  <ellipse cx="730.0" cy="2133.5" rx="28.3" ry="12.6" fill="#FFFFFF" opacity="0.42" transform="rotate(-22 730.0 2133.5)"/>
  <circle cx="122" cy="647" r="153" fill="url(#orb_dashboard_08_5499)" opacity="0.36"/>
  <circle cx="122" cy="647" r="153" fill="#D7F8E8" opacity="0.08"/>
  <circle cx="122" cy="647" r="153" fill="none" stroke="#FFFFFF" stroke-opacity="0.56" stroke-width="3"/>
  <ellipse cx="79.2" cy="591.9" rx="27.5" ry="12.2" fill="#FFFFFF" opacity="0.42" transform="rotate(-22 79.2 591.9)"/>
  <circle cx="1047" cy="1187" r="138" fill="url(#orb_dashboard_08_5499)" opacity="0.21"/>
  <circle cx="1047" cy="1187" r="138" fill="#D7F8E8" opacity="0.08"/>
  <circle cx="1047" cy="1187" r="138" fill="none" stroke="#FFFFFF" stroke-opacity="0.56" stroke-width="3"/>
  <ellipse cx="1008.4" cy="1137.3" rx="24.8" ry="11.0" fill="#FFFFFF" opacity="0.42" transform="rotate(-22 1008.4 1137.3)"/>
  <circle cx="-26" cy="1745" r="261" fill="url(#orb_dashboard_08_5499)" opacity="0.18"/>
  <circle cx="-26" cy="1745" r="261" fill="#A4E6F5" opacity="0.08"/>
  <circle cx="-26" cy="1745" r="261" fill="none" stroke="#FFFFFF" stroke-opacity="0.56" stroke-width="3"/>
  <ellipse cx="-99.1" cy="1651.0" rx="47.0" ry="20.9" fill="#FFFFFF" opacity="0.42" transform="rotate(-22 -99.1 1651.0)"/>
  <circle cx="819" cy="2269" r="183" fill="url(#orb_dashboard_08_5499)" opacity="0.21"/>
  <circle cx="819" cy="2269" r="183" fill="#5DE0D7" opacity="0.08"/>
  <circle cx="819" cy="2269" r="183" fill="none" stroke="#FFFFFF" stroke-opacity="0.56" stroke-width="3"/>
  <ellipse cx="767.8" cy="2203.1" rx="32.9" ry="14.6" fill="#FFFFFF" opacity="0.42" transform="rotate(-22 767.8 2203.1)"/>
  <circle cx="139" cy="988" r="229" fill="url(#orb_dashboard_08_5499)" opacity="0.18"/>
  <circle cx="139" cy="988" r="229" fill="#BDEFFF" opacity="0.08"/>
  <circle cx="139" cy="988" r="229" fill="none" stroke="#FFFFFF" stroke-opacity="0.56" stroke-width="3"/>
  <ellipse cx="74.9" cy="905.6" rx="41.2" ry="18.3" fill="#FFFFFF" opacity="0.42" transform="rotate(-22 74.9 905.6)"/>
  <circle cx="486" cy="756" r="133" fill="url(#orb_dashboard_08_5499)" opacity="0.24"/>
  <circle cx="486" cy="756" r="133" fill="#F8FFFD" opacity="0.08"/>
  <circle cx="486" cy="756" r="133" fill="none" stroke="#FFFFFF" stroke-opacity="0.56" stroke-width="3"/>
  <ellipse cx="448.8" cy="708.1" rx="23.9" ry="10.6" fill="#FFFFFF" opacity="0.42" transform="rotate(-22 448.8 708.1)"/>
  <circle cx="671" cy="223" r="3" fill="#FFFFFF" opacity="0.34"/>
  <circle cx="1022" cy="676" r="3" fill="#FFFFFF" opacity="0.47"/>
  <circle cx="218" cy="812" r="3" fill="#FFFFFF" opacity="0.53"/>
  <circle cx="241" cy="1669" r="5" fill="#FFFFFF" opacity="0.49"/>
  <circle cx="722" cy="1931" r="2" fill="#FFFFFF" opacity="0.46"/>
  <circle cx="806" cy="135" r="7" fill="#FFFFFF" opacity="0.64"/>
  <circle cx="1089" cy="1711" r="4" fill="#FFFFFF" opacity="0.69"/>
  <circle cx="241" cy="1173" r="4" fill="#FFFFFF" opacity="0.31"/>
  <circle cx="10" cy="978" r="5" fill="#FFFFFF" opacity="0.28"/>
  <circle cx="911" cy="409" r="3" fill="#FFFFFF" opacity="0.71"/>
  <circle cx="500" cy="2446" r="4" fill="#FFFFFF" opacity="0.32"/>
  <circle cx="941" cy="237" r="5" fill="#FFFFFF" opacity="0.52"/>
  <circle cx="466" cy="2555" r="4" fill="#FFFFFF" opacity="0.68"/>
  <circle cx="668" cy="1816" r="3" fill="#FFFFFF" opacity="0.72"/>
  <circle cx="1113" cy="712" r="2" fill="#FFFFFF" opacity="0.54"/>
  <circle cx="1029" cy="1917" r="5" fill="#FFFFFF" opacity="0.46"/>
  <circle cx="425" cy="876" r="2" fill="#FFFFFF" opacity="0.35"/>
  <circle cx="659" cy="1855" r="3" fill="#FFFFFF" opacity="0.57"/>
  <circle cx="1065" cy="367" r="4" fill="#FFFFFF" opacity="0.60"/>
  <circle cx="1015" cy="1750" r="7" fill="#FFFFFF" opacity="0.70"/>
  <circle cx="898" cy="2516" r="5" fill="#FFFFFF" opacity="0.60"/>
  <rect width="1200" height="2600" fill="#FFFFFF" opacity="0.08"/>
  <rect width="1200" height="2600" filter="url(#grain_dashboard_08_5499)" opacity="0.7"/>
</svg>
