<svg xmlns="http://www.w3.org/2000/svg" width="1200" height="2600" viewBox="0 0 1200 2600" preserveAspectRatio="xMidYMid slice">
  <defs>
    <linearGradient id="bg_dashboard_20_1774" x1="0" y1="0" x2="1" y2="1">
      <stop offset="0%" stop-color="#D7F8E8"/>
      <stop offset="48%" stop-color="#E8FFF5"/>
      <stop offset="100%" stop-color="#F8FFFD"/>
    </linearGradient>
    <radialGradient id="orb_dashboard_20_1774" cx="35%" cy="30%" r="70%">
      <stop offset="0%" stop-color="#FFFFFF" stop-opacity="0.85"/>
      <stop offset="42%" stop-color="#FFFFFF" stop-opacity="0.20"/>
      <stop offset="100%" stop-color="#FFFFFF" stop-opacity="0.02"/>
    </radialGradient>
    <filter id="blur_dashboard_20_1774" x="-30%" y="-30%" width="160%" height="160%">
      <feGaussianBlur stdDeviation="72"/>
    </filter>
    <filter id="soft_dashboard_20_1774" x="-20%" y="-20%" width="140%" height="140%">
      <feGaussianBlur stdDeviation="10"/>
    </filter>
    <filter id="grain_dashboard_20_1774">
      <feTurbulence type="fractalNoise" baseFrequency="0.85" numOctaves="2" stitchTiles="stitch"/>
      <feColorMatrix type="saturate" values="0"/>
      <feComponentTransfer>
        <feFuncA type="table" tableValues="0 0.035"/>
      </feComponentTransfer>
    </filter>
  </defs>
  <rect width="1200" height="2600" fill="url(#bg_dashboard_20_1774)"/>
  <path d="M 1181.9 1141.0 C 1181.9 1438.5, 1232.4 1398.9, 1078.5 1626.8 C 924.6 1854.7, 958.2 1760.3, 722.5 1811.9 C 486.7 1863.6, 515.6 1920.1, 308.2 1771.3 C 100.9 1622.6, 106.8 1676.9, 24.9 1397.4 C -57.0 1117.9, -11.6 1200.0, 70.3 920.5 C 152.2 641.0, 146.9 628.3, 354.2 479.6 C 561.6 330.9, 470.4 418.2, 706.2 469.8 C 941.9 521.5, 859.7 524.0, 1013.6 751.8 C 1167.5 979.7, 1181.9 843.5, 1181.9 1141.0 Z" fill="#F8FFFD" opacity="0.33" filter="url(#blur_dashboard_20_1774)"/>
  <path d="M 927.4 925.0 C 927.4 1077.5, 970.4 998.3, 865.1 1115.2 C 759.8 1232.0, 771.0 1226.8, 609.7 1253.3 C 448.4 1279.7, 512.4 1328.4, 370.6 1252.1 C 228.7 1175.8, 297.3 1180.6, 241.3 1037.2 C 185.3 893.9, 192.5 971.4, 248.5 828.0 C 304.5 684.7, 216.3 691.1, 358.1 614.9 C 500.0 538.6, 434.2 585.9, 595.6 612.4 C 756.9 638.9, 712.4 602.7, 817.7 719.6 C 923.0 836.4, 927.4 772.5, 927.4 925.0 Z" fill="#A4E6F5" opacity="0.24" filter="url(#blur_dashboard_20_1774)"/>
  <path d="M 269.2 -139.0 C 269.2 62.6, 336.3 -48.4, 249.5 106.0 C 162.7 260.5, 190.3 293.0, 57.4 328.0 C -75.6 363.0, -48.5 328.8, -165.4 228.0 C -282.3 127.2, -260.5 203.7, -306.7 14.3 C -352.9 -175.2, -358.1 -102.1, -311.9 -291.5 C -265.8 -481.0, -271.6 -458.1, -154.7 -558.9 C -37.8 -659.7, -79.2 -568.5, 53.8 -533.5 C 186.7 -498.5, 181.4 -552.9, 268.1 -398.5 C 354.9 -244.0, 269.2 -340.6, 269.2 -139.0 Z" fill="#94D6FF" opacity="0.24" filter="url(#blur_dashboard_20_1774)"/>
  <path d="M 984.8 721.0 C 984.8 960.9, 1045.8 863.4, 978.7 1047.1 C 911.6 1230.8, 934.2 1119.3, 831.4 1161.0 C 728.6 1202.6, 767.0 1277.7, 676.6 1157.8 C 586.2 1037.9, 624.6 1120.7, 588.9 895.3 C 553.2 669.9, 509.9 732.0, 545.6 506.6 C 581.3 281.3, 582.0 339.4, 672.4 219.4 C 762.8 99.5, 722.7 173.8, 825.5 215.4 C 928.3 257.1, 892.8 195.8, 960.0 379.5 C 1027.1 563.2, 984.8 481.1, 984.8 721.0 Z" fill="#94D6FF" opacity="0.32" filter="url(#blur_dashboard_20_1774)"/>
  <path d="M 1257.5 184.0 C 1257.5 383.8, 1271.0 285.1, 1192.0 438.2 C 1113.1 591.3, 1156.8 538.9, 1035.8 573.6 C 914.9 608.3, 974.5 632.8, 868.1 532.9 C 761.7 433.0, 724.4 501.8, 682.4 314.0 C 640.3 126.3, 722.9 220.6, 764.9 32.8 C 807.0 -154.9, 723.9 -146.9, 830.3 -246.8 C 936.7 -346.7, 907.3 -246.8, 1028.2 -212.1 C 1149.2 -177.4, 1127.6 -303.7, 1206.5 -150.7 C 1285.5 2.4, 1257.5 -15.8, 1257.5 184.0 Z" fill="#BDEFFF" opacity="0.37" filter="url(#blur_dashboard_20_1774)"/>
  <path d="M 463.5 358.0 C 463.5 507.4, 448.2 457.0, 371.3 571.5 C 294.3 685.9, 353.7 620.1, 235.8 646.0 C 117.9 672.0, 157.7 718.1, 54.0 643.4 C -49.6 568.7, 26.3 612.2, -14.6 471.8 C -55.5 331.4, -79.2 395.8, -38.3 255.4 C 2.6 115.0, -53.4 136.5, 50.3 61.8 C 154.0 -12.9, 124.9 -37.7, 242.8 -11.8 C 360.7 14.1, 289.9 37.2, 366.8 151.7 C 443.8 266.1, 463.5 208.6, 463.5 358.0 Z" fill="#A4E6F5" opacity="0.30" filter="url(#blur_dashboard_20_1774)"/>
  <path d="M 1613.6 1779.0 C 1613.6 1944.2, 1614.8 1894.1, 1548.0 2020.6 C 1481.2 2147.1, 1525.2 2160.3, 1422.9 2189.0 C 1320.5 2217.7, 1339.8 2143.8, 1249.8 2061.2 C 1159.7 1978.6, 1205.5 2059.6, 1169.9 1904.4 C 1134.4 1749.2, 1100.2 1817.7, 1135.8 1662.5 C 1171.3 1507.3, 1161.3 1514.4, 1251.3 1431.8 C 1341.3 1349.2, 1312.4 1435.4, 1414.8 1464.1 C 1517.2 1492.8, 1514.2 1402.3, 1581.0 1528.8 C 1647.8 1655.3, 1613.6 1613.8, 1613.6 1779.0 Z" fill="#BDEFFF" opacity="0.38" filter="url(#blur_dashboard_20_1774)"/>
  <path d="M 967.9 2381.0 C 967.9 2518.7, 963.7 2480.5, 892.6 2585.9 C 821.4 2691.4, 840.9 2607.9, 731.9 2631.8 C 622.9 2655.8, 659.1 2706.3, 563.3 2637.4 C 467.4 2568.6, 481.5 2601.7, 443.6 2472.3 C 405.8 2342.9, 448.8 2389.1, 486.7 2259.7 C 524.5 2130.3, 458.5 2180.5, 554.4 2111.6 C 650.3 2042.8, 628.4 2073.2, 737.4 2097.1 C 846.4 2121.0, 818.4 2087.4, 889.6 2192.9 C 960.7 2298.4, 967.9 2243.3, 967.9 2381.0 Z" fill="#94D6FF" opacity="0.34" filter="url(#blur_dashboard_20_1774)"/>
  <path d="M 451.3 2132.0 C 451.3 2290.8, 470.6 2199.6, 365.6 2321.2 C 260.6 2442.9, 293.4 2450.1, 132.6 2477.6 C -28.3 2505.2, 31.8 2477.9, -109.7 2398.5 C -251.1 2319.1, -156.9 2410.1, -212.8 2260.8 C -268.6 2111.5, -349.3 2148.8, -293.5 1999.5 C -237.6 1850.2, -251.6 1857.7, -110.2 1778.3 C 31.3 1698.9, -27.3 1713.1, 133.6 1740.7 C 294.5 1768.2, 254.5 1816.8, 359.5 1938.5 C 464.5 2060.2, 451.3 1973.2, 451.3 2132.0 Z" fill="#BDEFFF" opacity="0.32" filter="url(#blur_dashboard_20_1774)"/>
  <path d="M 448.1 -96.0 C 448.1 112.3, 400.6 71.1, 269.6 230.7 C 138.6 390.3, 242.6 301.9, 41.9 338.1 C -158.9 374.2, -80.1 395.4, -256.6 291.2 C -433.2 187.0, -395.1 282.4, -464.8 86.7 C -534.6 -109.1, -469.7 -77.8, -400.0 -273.6 C -330.3 -469.4, -474.8 -336.4, -298.3 -440.6 C -121.7 -544.7, -178.1 -617.5, 22.7 -581.3 C 223.4 -545.2, 155.2 -582.7, 286.2 -423.1 C 417.2 -263.5, 448.1 -304.4, 448.1 -96.0 Z" fill="#BDEFFF" opacity="0.19" filter="url(#blur_dashboard_20_1774)"/>
  <path d="M 889.5 -22.0 C 889.5 123.8, 804.2 80.5, 652.3 192.2 C 500.5 303.9, 610.1 279.9, 377.4 305.2 C 144.7 330.6, 182.0 284.6, -22.6 211.7 C -227.2 138.8, -151.0 235.8, -231.8 98.8 C -312.6 -38.2, -380.6 -1.7, -299.8 -138.7 C -219.0 -275.7, -175.6 -267.2, 29.0 -340.1 C 233.6 -413.0, 118.9 -344.6, 351.6 -319.3 C 584.2 -294.0, 522.6 -344.8, 674.4 -233.1 C 826.3 -121.4, 889.5 -167.8, 889.5 -22.0 Z" fill="#F8FFFD" opacity="0.30" filter="url(#blur_dashboard_20_1774)"/>
  <path d="M 1815.1 1746.0 C 1815.1 2052.9, 1864.4 1877.9, 1694.1 2126.2 C 1523.7 2374.4, 1664.4 2364.6, 1388.8 2459.4 C 1113.1 2554.2, 1267.4 2567.1, 991.8 2472.3 C 716.2 2377.5, 816.9 2435.3, 646.5 2187.0 C 476.2 1938.7, 557.3 2052.9, 557.3 1746.0 C 557.3 1439.1, 490.1 1587.8, 660.4 1339.5 C 830.8 1091.2, 707.9 1226.9, 983.6 1132.1 C 1259.2 1037.2, 1064.1 915.2, 1339.7 1010.0 C 1615.3 1104.9, 1575.4 1090.5, 1745.8 1338.8 C 1916.1 1587.0, 1815.1 1439.1, 1815.1 1746.0 Z" fill="#94D6FF" opacity="0.12" stroke="#94D6FF" stroke-opacity="0.46" stroke-width="3" filter="url(#soft_dashboard_20_1774)"/>
  <path d="M 1815.1 1746.0 C 1815.1 2052.9, 1864.4 1877.9, 1694.1 2126.2 C 1523.7 2374.4, 1664.4 2364.6, 1388.8 2459.4 C 1113.1 2554.2, 1267.4 2567.1, 991.8 2472.3 C 716.2 2377.5, 816.9 2435.3, 646.5 2187.0 C 476.2 1938.7, 557.3 2052.9, 557.3 1746.0 C 557.3 1439.1, 490.1 1587.8, 660.4 1339.5 C 830.8 1091.2, 707.9 1226.9, 983.6 1132.1 C 1259.2 1037.2, 1064.1 915.2, 1339.7 1010.0 C 1615.3 1104.9, 1575.4 1090.5, 1745.8 1338.8 C 1916.1 1587.0, 1815.1 1439.1, 1815.1 1746.0 Z" fill="none" stroke="#FFFFFF" stroke-opacity="0.22" stroke-width="1.2"/>
  <path d="M 534.5 2246.0 C 534.5 2537.6, 528.9 2371.1, 371.5 2607.0 C 214.1 2842.9, 398.4 2847.3, 143.7 2937.4 C -110.9 3027.5, 16.5 2884.0, -238.2 2793.9 C -492.8 2703.8, -363.4 2888.7, -520.7 2652.8 C -678.1 2416.9, -632.4 2537.6, -632.4 2246.0 C -632.4 1954.4, -750.0 2070.3, -592.6 1834.4 C -435.2 1598.5, -471.2 1705.9, -216.5 1615.8 C 38.1 1525.7, -114.8 1608.8, 139.8 1698.9 C 394.4 1789.0, 213.1 1585.3, 370.5 1821.2 C 527.9 2057.1, 534.5 1954.4, 534.5 2246.0 Z" fill="#F8FFFD" opacity="0.12" stroke="#FFFFFF" stroke-opacity="0.46" stroke-width="3" filter="url(#soft_dashboard_20_1774)"/>
  <path d="M 534.5 2246.0 C 534.5 2537.6, 528.9 2371.1, 371.5 2607.0 C 214.1 2842.9, 398.4 2847.3, 143.7 2937.4 C -110.9 3027.5, 16.5 2884.0, -238.2 2793.9 C -492.8 2703.8, -363.4 2888.7, -520.7 2652.8 C -678.1 2416.9, -632.4 2537.6, -632.4 2246.0 C -632.4 1954.4, -750.0 2070.3, -592.6 1834.4 C -435.2 1598.5, -471.2 1705.9, -216.5 1615.8 C 38.1 1525.7, -114.8 1608.8, 139.8 1698.9 C 394.4 1789.0, 213.1 1585.3, 370.5 1821.2 C 527.9 2057.1, 534.5 1954.4, 534.5 2246.0 Z" fill="none" stroke="#FFFFFF" stroke-opacity="0.22" stroke-width="1.2"/>
  <path d="M 1411.8 2152.0 C 1411.8 2381.9, 1388.0 2251.5, 1296.0 2437.6 C 1203.9 2623.6, 1286.0 2631.2, 1137.1 2702.2 C 988.1 2773.3, 1089.3 2740.0, 940.4 2668.9 C 791.4 2597.8, 872.8 2632.1, 780.8 2446.1 C 688.7 2260.0, 713.2 2381.9, 713.2 2152.0 C 713.2 1922.0, 627.3 2034.0, 719.3 1848.0 C 811.4 1662.0, 796.0 1776.8, 944.9 1705.7 C 1093.8 1634.7, 998.8 1615.0, 1147.8 1686.1 C 1296.7 1757.1, 1206.7 1682.6, 1298.8 1868.6 C 1390.8 2054.7, 1411.8 1922.0, 1411.8 2152.0 Z" fill="#A4E6F5" opacity="0.12" stroke="#A4E6F5" stroke-opacity="0.46" stroke-width="3" filter="url(#soft_dashboard_20_1774)"/>
  <path d="M 1411.8 2152.0 C 1411.8 2381.9, 1388.0 2251.5, 1296.0 2437.6 C 1203.9 2623.6, 1286.0 2631.2, 1137.1 2702.2 C 988.1 2773.3, 1089.3 2740.0, 940.4 2668.9 C 791.4 2597.8, 872.8 2632.1, 780.8 2446.1 C 688.7 2260.0, 713.2 2381.9, 713.2 2152.0 C 713.2 1922.0, 627.3 2034.0, 719.3 1848.0 C 811.4 1662.0, 796.0 1776.8, 944.9 1705.7 C 1093.8 1634.7, 998.8 1615.0, 1147.8 1686.1 C 1296.7 1757.1, 1206.7 1682.6, 1298.8 1868.6 C 1390.8 2054.7, 1411.8 1922.0, 1411.8 2152.0 Z" fill="none" stroke="#FFFFFF" stroke-opacity="0.22" stroke-width="1.2"/>
  <path d="M 1551.6 2716.0 C 1551.6 3033.7, 1571.0 2919.4, 1440.1 3176.4 C 1309.2 3433.4, 1374.2 3372.2, 1162.3 3470.4 C 950.5 3568.5, 1086.7 3430.4, 874.8 3332.2 C 663.0 3234.0, 749.1 3445.5, 618.1 3188.5 C 487.2 2931.5, 530.7 3033.7, 530.7 2716.0 C 530.7 2398.3, 535.5 2559.2, 666.5 2302.2 C 797.4 2045.2, 667.7 2100.6, 879.6 2002.4 C 1091.4 1904.3, 960.4 1868.1, 1172.3 1966.3 C 1384.1 2064.4, 1229.5 2039.6, 1360.4 2296.6 C 1491.4 2553.6, 1551.6 2398.3, 1551.6 2716.0 Z" fill="#BDEFFF" opacity="0.12" stroke="#BDEFFF" stroke-opacity="0.46" stroke-width="3" filter="url(#soft_dashboard_20_1774)"/>
  <path d="M 1551.6 2716.0 C 1551.6 3033.7, 1571.0 2919.4, 1440.1 3176.4 C 1309.2 3433.4, 1374.2 3372.2, 1162.3 3470.4 C 950.5 3568.5, 1086.7 3430.4, 874.8 3332.2 C 663.0 3234.0, 749.1 3445.5, 618.1 3188.5 C 487.2 2931.5, 530.7 3033.7, 530.7 2716.0 C 530.7 2398.3, 535.5 2559.2, 666.5 2302.2 C 797.4 2045.2, 667.7 2100.6, 879.6 2002.4 C 1091.4 1904.3, 960.4 1868.1, 1172.3 1966.3 C 1384.1 2064.4, 1229.5 2039.6, 1360.4 2296.6 C 1491.4 2553.6, 1551.6 2398.3, 1551.6 2716.0 Z" fill="none" stroke="#FFFFFF" stroke-opacity="0.22" stroke-width="1.2"/>
  <path d="M -100.0 574.7 Q 133.3 782.3, 366.7 947.0 Q 600.0 876.6, 833.3 553.0 Q 1066.7 560.5, 1300.0 823.8" fill="none" stroke="#FFFFFF" stroke-opacity="0.38" stroke-width="4" filter="url(#soft_dashboard_20_1774)"/>
  <path d="M -100.0 574.7 Q 133.3 782.3, 366.7 947.0 Q 600.0 876.6, 833.3 553.0 Q 1066.7 560.5, 1300.0 823.8" fill="none" stroke="#94D6FF" stroke-opacity="0.18" stroke-width="2"/>
  <path d="M -100.0 2247.8 Q 133.3 2487.8, 366.7 2605.6 Q 600.0 2426.5, 833.3 2278.3 Q 1066.7 2428.6, 1300.0 2683.6" fill="none" stroke="#FFFFFF" stroke-opacity="0.38" stroke-width="4" filter="url(#soft_dashboard_20_1774)"/>
  <path d="M -100.0 2247.8 Q 133.3 2487.8, 366.7 2605.6 Q 600.0 2426.5, 833.3 2278.3 Q 1066.7 2428.6, 1300.0 2683.6" fill="none" stroke="#A8F2C0" stroke-opacity="0.18" stroke-width="2"/>
  <path d="M -100.0 785.5 Q 133.3 961.9, 366.7 865.6 Q 600.0 484.8, 833.3 538.8 Q 1066.7 952.1, 1300.0 966.1" fill="none" stroke="#FFFFFF" stroke-opacity="0.38" stroke-width="4" filter="url(#soft_dashboard_20_1774)"/>
  <path d="M -100.0 785.5 Q 133.3 961.9, 366.7 865.6 Q 600.0 484.8, 833.3 538.8 Q 1066.7 952.1, 1300.0 966.1" fill="none" stroke="#A8F2C0" stroke-opacity="0.18" stroke-width="2"/>
  <path d="M -100.0 245.2 Q 133.3 244.9, 366.7 761.7 Q 600.0 724.1, 833.3 198.1 Q 1066.7 161.7, 1300.0 606.4" fill="none" stroke="#FFFFFF" stroke-opacity="0.38" stroke-width="4" filter="url(#soft_dashboard_20_1774)"/>
  <path d="M -100.0 245.2 Q 133.3 244.9, 366.7 761.7 Q 600.0 724.1, 833.3 198.1 Q 1066.7 161.7, 1300.0 606.4" fill="none" stroke="#5DE0D7" stroke-opacity="0.18" stroke-width="2"/>
  <circle cx="1162" cy="1207" r="239" fill="url(#orb_dashboard_20_1774)" opacity="0.36"/>
  <circle cx="1162" cy="1207" r="239" fill="#F8FFFD" opacity="0.08"/>
  <circle cx="1162" cy="1207" r="239" fill="none" stroke="#FFFFFF" stroke-opacity="0.56" stroke-width="3"/>
  <ellipse cx="1095.1" cy="1121.0" rx="43.0" ry="19.1" fill="#FFFFFF" opacity="0.42" transform="rotate(-22 1095.1 1121.0)"/>
  <circle cx="1122" cy="2274" r="185" fill="url(#orb_dashboard_20_1774)" opacity="0.36"/>
  <circle cx="1122" cy="2274" r="185" fill="#94D6FF" opacity="0.08"/>
  <circle cx="1122" cy="2274" r="185" fill="none" stroke="#FFFFFF" stroke-opacity="0.56" stroke-width="3"/>
  <ellipse cx="1070.2" cy="2207.4" rx="33.3" ry="14.8" fill="#FFFFFF" opacity="0.42" transform="rotate(-22 1070.2 2207.4)"/>
  <circle cx="253" cy="1887" r="184" fill="url(#orb_dashboard_20_1774)" opacity="0.36"/>
  <circle cx="253" cy="1887" r="184" fill="#5DE0D7" opacity="0.08"/>
  <circle cx="253" cy="1887" r="184" fill="none" stroke="#FFFFFF" stroke-opacity="0.56" stroke-width="3"/>
  <ellipse cx="201.5" cy="1820.8" rx="33.1" ry="14.7" fill="#FFFFFF" opacity="0.42" transform="rotate(-22 201.5 1820.8)"/>
  <circle cx="1018" cy="1331" r="189" fill="url(#orb_dashboard_20_1774)" opacity="0.26"/>
  <circle cx="1018" cy="1331" r="189" fill="#BDEFFF" opacity="0.08"/>
  <circle cx="1018" cy="1331" r="189" fill="none" stroke="#FFFFFF" stroke-opacity="0.56" stroke-width="3"/>
  <ellipse cx="965.1" cy="1263.0" rx="34.0" ry="15.1" fill="#FFFFFF" opacity="0.42" transform="rotate(-22 965.1 1263.0)"/>
  <circle cx="1194" cy="436" r="236" fill="url(#orb_dashboard_20_1774)" opacity="0.24"/>
  <circle cx="1194" cy="436" r="236" fill="#BDEFFF" opacity="0.08"/>
  <circle cx="1194" cy="436" r="236" fill="none" stroke="#FFFFFF" stroke-opacity="0.56" stroke-width="3"/>
  <ellipse cx="1127.9" cy="351.0" rx="42.5" ry="18.9" fill="#FFFFFF" opacity="0.42" transform="rotate(-22 1127.9 351.0)"/>
  <circle cx="385" cy="933" r="145" fill="url(#orb_dashboard_20_1774)" opacity="0.19"/>
  <circle cx="385" cy="933" r="145" fill="#94D6FF" opacity="0.08"/>
  <circle cx="385" cy="933" r="145" fill="none" stroke="#FFFFFF" stroke-opacity="0.56" stroke-width="3"/>
  <ellipse cx="344.4" cy="880.8" rx="26.1" ry="11.6" fill="#FFFFFF" opacity="0.42" transform="rotate(-22 344.4 880.8)"/>
  <circle cx="425" cy="942" r="99" fill="url(#orb_dashboard_20_1774)" opacity="0.28"/>
  <circle cx="425" cy="942" r="99" fill="#A8F2C0" opacity="0.08"/>
  <circle cx="425" cy="942" r="99" fill="none" stroke="#FFFFFF" stroke-opacity="0.56" stroke-width="3"/>
  <ellipse cx="397.3" cy="906.4" rx="17.8" ry="7.9" fill="#FFFFFF" opacity="0.42" transform="rotate(-22 397.3 906.4)"/>
  <circle cx="443" cy="1959" r="7" fill="#FFFFFF" opacity="0.64"/>
  <circle cx="246" cy="1609" r="3" fill="#FFFFFF" opacity="0.40"/>
  <circle cx="772" cy="1185" r="4" fill="#FFFFFF" opacity="0.49"/>
  <circle cx="518" cy="1817" r="3" fill="#FFFFFF" opacity="0.69"/>
  <circle cx="774" cy="163" r="4" fill="#FFFFFF" opacity="0.39"/>
  <circle cx="319" cy="1536" r="4" fill="#FFFFFF" opacity="0.45"/>
  <circle cx="857" cy="777" r="2" fill="#FFFFFF" opacity="0.53"/>
  <circle cx="198" cy="450" r="5" fill="#FFFFFF" opacity="0.44"/>
  <circle cx="1111" cy="1204" r="4" fill="#FFFFFF" opacity="0.32"/>
  <circle cx="1017" cy="2547" r="7" fill="#FFFFFF" opacity="0.64"/>
  <circle cx="486" cy="1572" r="2" fill="#FFFFFF" opacity="0.37"/>
  <rect width="1200" height="2600" fill="#FFFFFF" opacity="0.08"/>
  <rect width="1200" height="2600" filter="url(#grain_dashboard_20_1774)" opacity="0.7"/>
</svg>
