<svg xmlns="http://www.w3.org/2000/svg" width="1200" height="2600" viewBox="0 0 1200 2600" preserveAspectRatio="xMidYMid slice">
  <defs>
    <linearGradient id="bg_dashboard_19_3665" x1="0" y1="0" x2="1" y2="1">
      <stop offset="0%" stop-color="#BDEFFF"/>
      <stop offset="48%" stop-color="#D7F8E8"/>
      <stop offset="100%" stop-color="#A4E6F5"/>
    </linearGradient>
    <radialGradient id="orb_dashboard_19_3665" cx="35%" cy="30%" r="70%">
      <stop offset="0%" stop-color="#FFFFFF" stop-opacity="0.85"/>
      <stop offset="42%" stop-color="#FFFFFF" stop-opacity="0.20"/>
      <stop offset="100%" stop-color="#FFFFFF" stop-opacity="0.02"/>
    </radialGradient>
    <filter id="blur_dashboard_19_3665" x="-30%" y="-30%" width="160%" height="160%">
      <feGaussianBlur stdDeviation="72"/>
    </filter>
    <filter id="soft_dashboard_19_3665" x="-20%" y="-20%" width="140%" height="140%">
      <feGaussianBlur stdDeviation="10"/>
    </filter>
    <filter id="grain_dashboard_19_3665">
      <feTurbulence type="fractalNoise" baseFrequency="0.85" numOctaves="2" stitchTiles="stitch"/>
      <feColorMatrix type="saturate" values="0"/>
      <feComponentTransfer>
        <feFuncA type="table" tableValues="0 0.035"/>
      </feComponentTransfer>
    </filter>
  </defs>
  <rect width="1200" height="2600" fill="url(#bg_dashboard_19_3665)"/>
  <path d="M 443.2 2370.0 C 443.2 2498.2, 383.8 2479.8, 270.1 2578.1 C 156.5 2676.3, 228.0 2645.0, 53.8 2667.3 C -120.4 2689.6, -89.4 2657.9, -242.5 2593.8 C -395.7 2529.7, -383.1 2605.4, -443.6 2484.9 C -504.1 2364.4, -436.0 2410.0, -375.5 2289.4 C -315.0 2168.9, -364.9 2169.4, -211.7 2105.2 C -58.6 2041.1, -116.2 2103.6, 58.0 2125.9 C 232.1 2148.2, 183.6 2108.0, 297.3 2206.3 C 411.0 2304.5, 443.2 2241.8, 443.2 2370.0 Z" fill="#E8FFF5" opacity="0.35" filter="url(#blur_dashboard_19_3665)"/>
  <path d="M 856.8 1854.0 C 856.8 2055.6, 867.3 2023.6, 744.4 2178.0 C 621.4 2332.4, 701.3 2216.1, 512.9 2251.1 C 324.6 2286.1, 403.5 2290.7, 237.8 2189.9 C 72.2 2089.1, 60.6 2221.9, -4.8 2032.5 C -70.2 1843.0, -78.0 1866.7, -12.6 1677.2 C 52.8 1487.8, 64.1 1615.9, 229.7 1515.1 C 395.4 1414.3, 317.7 1299.0, 506.0 1334.0 C 694.4 1369.0, 640.8 1369.9, 763.7 1524.3 C 886.6 1678.7, 856.8 1652.4, 856.8 1854.0 Z" fill="#E8FFF5" opacity="0.35" filter="url(#blur_dashboard_19_3665)"/>
  <path d="M 1354.4 2231.0 C 1354.4 2452.8, 1364.3 2321.0, 1297.4 2491.0 C 1230.6 2660.9, 1256.4 2715.4, 1154.0 2753.9 C 1051.6 2792.5, 1076.7 2830.9, 986.6 2720.0 C 896.6 2609.1, 895.2 2589.2, 859.6 2380.8 C 824.1 2172.3, 832.7 2289.0, 868.3 2080.6 C 903.8 1872.1, 915.6 1838.2, 1005.6 1727.3 C 1095.7 1616.4, 1050.0 1715.4, 1152.4 1753.9 C 1254.8 1792.4, 1213.9 1695.9, 1280.7 1865.9 C 1347.6 2035.8, 1354.4 2009.2, 1354.4 2231.0 Z" fill="#F8FFFD" opacity="0.22" filter="url(#blur_dashboard_19_3665)"/>
  <path d="M 590.9 1903.0 C 590.9 2198.7, 551.4 2167.5, 437.2 2394.0 C 322.9 2620.4, 410.0 2597.8, 235.0 2649.1 C 60.0 2700.4, 101.3 2563.4, -52.6 2415.6 C -206.6 2267.7, -209.8 2438.0, -270.6 2160.2 C -331.4 1882.4, -297.5 1921.5, -236.7 1643.7 C -175.9 1365.8, -153.2 1427.1, 0.8 1279.2 C 154.7 1131.4, 71.9 1204.4, 247.0 1255.7 C 422.0 1307.1, 321.7 1291.7, 435.9 1518.1 C 550.2 1744.6, 590.9 1607.3, 590.9 1903.0 Z" fill="#94D6FF" opacity="0.29" filter="url(#blur_dashboard_19_3665)"/>
  <path d="M 1323.6 823.0 C 1323.6 1102.5, 1333.3 942.0, 1240.1 1156.1 C 1147.0 1370.2, 1162.2 1285.9, 1019.5 1334.5 C 876.8 1383.0, 915.3 1464.9, 789.9 1325.2 C 664.4 1185.5, 742.4 1262.4, 692.8 999.8 C 643.3 737.2, 617.5 891.5, 667.1 628.9 C 716.7 366.3, 672.7 332.1, 798.1 192.4 C 923.6 52.7, 879.0 71.4, 1021.7 119.9 C 1164.4 168.4, 1146.7 163.2, 1239.8 377.2 C 1333.0 591.3, 1323.6 543.5, 1323.6 823.0 Z" fill="#E8FFF5" opacity="0.16" filter="url(#blur_dashboard_19_3665)"/>
  <path d="M 881.8 2276.0 C 881.8 2492.9, 880.4 2450.0, 809.5 2616.2 C 738.7 2782.3, 755.9 2754.8, 647.3 2792.4 C 538.8 2830.1, 588.7 2843.2, 493.2 2734.8 C 397.7 2626.3, 395.0 2672.4, 357.3 2468.6 C 319.6 2264.8, 353.1 2331.3, 390.8 2127.4 C 428.6 1923.6, 390.9 1970.6, 486.4 1862.2 C 581.9 1753.7, 535.7 1732.5, 644.3 1770.2 C 752.9 1807.8, 742.6 1847.4, 813.5 2013.6 C 884.3 2179.7, 881.8 2059.1, 881.8 2276.0 Z" fill="#94D6FF" opacity="0.33" filter="url(#blur_dashboard_19_3665)"/>
  <path d="M 1410.1 1011.0 C 1410.1 1314.3, 1351.4 1205.1, 1201.9 1437.4 C 1052.3 1669.8, 1159.0 1611.3, 929.9 1663.9 C 700.7 1716.6, 747.5 1831.1, 546.1 1679.4 C 344.6 1527.8, 414.0 1496.1, 334.4 1211.1 C 254.8 926.1, 216.6 1025.1, 296.2 740.1 C 375.8 455.1, 368.5 623.9, 570.0 472.2 C 771.5 320.6, 700.7 396.2, 929.8 448.8 C 1158.9 501.5, 1084.0 290.4, 1233.6 522.7 C 1383.1 755.1, 1410.1 707.7, 1410.1 1011.0 Z" fill="#94D6FF" opacity="0.29" filter="url(#blur_dashboard_19_3665)"/>
  <path d="M 989.5 1751.0 C 989.5 1949.0, 996.1 1898.6, 911.4 2050.3 C 826.6 2202.0, 891.1 2165.0, 761.3 2199.4 C 631.4 2233.8, 692.9 2169.7, 578.7 2070.7 C 464.5 1971.7, 472.4 2073.0, 427.3 1886.9 C 382.2 1700.8, 429.1 1761.5, 474.2 1575.4 C 519.3 1389.3, 419.7 1433.2, 533.9 1334.2 C 648.1 1235.2, 623.8 1344.2, 753.6 1378.6 C 883.5 1413.0, 814.3 1290.2, 899.1 1441.9 C 983.8 1593.5, 989.5 1553.0, 989.5 1751.0 Z" fill="#5DE0D7" opacity="0.30" filter="url(#blur_dashboard_19_3665)"/>
  <path d="M 1503.3 1243.0 C 1503.3 1446.8, 1494.7 1405.0, 1397.2 1561.1 C 1299.8 1717.3, 1370.3 1662.5, 1220.9 1697.9 C 1071.6 1733.3, 1112.4 1781.4, 981.1 1679.5 C 849.7 1577.6, 949.9 1594.6, 898.1 1403.0 C 846.2 1211.5, 844.6 1286.1, 896.5 1094.6 C 948.4 903.0, 851.4 996.9, 982.7 895.0 C 1114.0 793.1, 1072.3 692.3, 1221.7 727.7 C 1371.0 763.1, 1287.7 788.0, 1385.2 944.1 C 1482.7 1100.3, 1503.3 1039.2, 1503.3 1243.0 Z" fill="#E8FFF5" opacity="0.33" filter="url(#blur_dashboard_19_3665)"/>
  <path d="M 396.7 1371.0 C 396.7 1530.3, 422.6 1445.9, 316.1 1567.9 C 209.7 1690.0, 238.9 1717.8, 75.8 1745.4 C -87.2 1773.1, -22.9 1713.0, -166.3 1633.4 C -309.7 1553.7, -334.6 1660.8, -391.3 1511.1 C -447.9 1361.4, -420.5 1410.1, -363.8 1260.5 C -307.2 1110.8, -336.6 1135.5, -193.2 1055.9 C -49.7 976.2, -84.7 955.0, 78.4 982.6 C 241.4 1010.3, 150.4 1009.2, 256.8 1131.2 C 363.3 1253.3, 396.7 1211.7, 396.7 1371.0 Z" fill="#E8FFF5" opacity="0.35" filter="url(#blur_dashboard_19_3665)"/>
  <path d="M 1367.7 1996.0 C 1367.7 2161.2, 1452.4 2057.1, 1340.3 2190.7 C 1228.1 2324.3, 1321.9 2341.5, 1140.5 2392.5 C 959.0 2443.5, 1049.6 2363.8, 868.1 2312.7 C 686.7 2261.7, 766.7 2332.8, 654.5 2199.2 C 542.4 2065.6, 532.3 2161.2, 532.3 1996.0 C 532.3 1830.8, 508.9 1929.6, 621.0 1796.0 C 733.2 1662.4, 700.5 1706.1, 881.9 1655.1 C 1063.4 1604.0, 937.6 1567.8, 1119.1 1618.8 C 1300.6 1669.9, 1186.3 1666.5, 1298.4 1800.1 C 1410.6 1933.7, 1367.7 1830.8, 1367.7 1996.0 Z" fill="#A4E6F5" opacity="0.12" stroke="#FFFFFF" stroke-opacity="0.46" stroke-width="3" filter="url(#soft_dashboard_19_3665)"/>
  <path d="M 1367.7 1996.0 C 1367.7 2161.2, 1452.4 2057.1, 1340.3 2190.7 C 1228.1 2324.3, 1321.9 2341.5, 1140.5 2392.5 C 959.0 2443.5, 1049.6 2363.8, 868.1 2312.7 C 686.7 2261.7, 766.7 2332.8, 654.5 2199.2 C 542.4 2065.6, 532.3 2161.2, 532.3 1996.0 C 532.3 1830.8, 508.9 1929.6, 621.0 1796.0 C 733.2 1662.4, 700.5 1706.1, 881.9 1655.1 C 1063.4 1604.0, 937.6 1567.8, 1119.1 1618.8 C 1300.6 1669.9, 1186.3 1666.5, 1298.4 1800.1 C 1410.6 1933.7, 1367.7 1830.8, 1367.7 1996.0 Z" fill="none" stroke="#FFFFFF" stroke-opacity="0.22" stroke-width="1.2"/>
  <path d="M 445.6 218.0 C 445.6 559.5, 558.9 333.9, 415.0 610.2 C 271.1 886.5, 320.1 907.6, 87.3 1013.1 C -145.6 1118.7, -11.2 1055.5, -244.1 950.0 C -476.9 844.4, -429.6 894.8, -573.5 618.4 C -717.4 342.1, -570.5 559.6, -570.5 218.0 C -570.5 -123.5, -719.2 -9.5, -575.3 -285.8 C -431.4 -562.2, -460.7 -306.9, -227.8 -412.4 C 5.0 -518.0, -151.8 -557.1, 81.0 -451.5 C 313.8 -346.0, 260.6 -491.3, 404.5 -214.9 C 548.4 61.4, 445.6 -123.6, 445.6 218.0 Z" fill="#E8FFF5" opacity="0.12" stroke="#E8FFF5" stroke-opacity="0.46" stroke-width="3" filter="url(#soft_dashboard_19_3665)"/>
  <path d="M 445.6 218.0 C 445.6 559.5, 558.9 333.9, 415.0 610.2 C 271.1 886.5, 320.1 907.6, 87.3 1013.1 C -145.6 1118.7, -11.2 1055.5, -244.1 950.0 C -476.9 844.4, -429.6 894.8, -573.5 618.4 C -717.4 342.1, -570.5 559.6, -570.5 218.0 C -570.5 -123.5, -719.2 -9.5, -575.3 -285.8 C -431.4 -562.2, -460.7 -306.9, -227.8 -412.4 C 5.0 -518.0, -151.8 -557.1, 81.0 -451.5 C 313.8 -346.0, 260.6 -491.3, 404.5 -214.9 C 548.4 61.4, 445.6 -123.6, 445.6 218.0 Z" fill="none" stroke="#FFFFFF" stroke-opacity="0.22" stroke-width="1.2"/>
  <path d="M 1477.7 859.0 C 1477.7 1082.7, 1448.5 1004.4, 1277.6 1185.4 C 1106.7 1366.3, 1263.9 1303.3, 987.4 1372.4 C 710.9 1441.5, 894.9 1392.5, 618.4 1323.4 C 342.0 1254.2, 454.0 1314.8, 283.2 1133.9 C 112.3 953.0, 126.1 1082.7, 126.1 859.0 C 126.1 635.4, 171.9 761.9, 342.8 580.9 C 513.7 400.0, 292.9 391.0, 569.4 321.8 C 845.8 252.7, 703.3 326.0, 979.8 395.1 C 1256.3 464.2, 1209.9 361.1, 1380.7 542.1 C 1551.6 723.0, 1477.7 635.4, 1477.7 859.0 Z" fill="#BDEFFF" opacity="0.12" stroke="#BDEFFF" stroke-opacity="0.46" stroke-width="3" filter="url(#soft_dashboard_19_3665)"/>
  <path d="M 1477.7 859.0 C 1477.7 1082.7, 1448.5 1004.4, 1277.6 1185.4 C 1106.7 1366.3, 1263.9 1303.3, 987.4 1372.4 C 710.9 1441.5, 894.9 1392.5, 618.4 1323.4 C 342.0 1254.2, 454.0 1314.8, 283.2 1133.9 C 112.3 953.0, 126.1 1082.7, 126.1 859.0 C 126.1 635.4, 171.9 761.9, 342.8 580.9 C 513.7 400.0, 292.9 391.0, 569.4 321.8 C 845.8 252.7, 703.3 326.0, 979.8 395.1 C 1256.3 464.2, 1209.9 361.1, 1380.7 542.1 C 1551.6 723.0, 1477.7 635.4, 1477.7 859.0 Z" fill="none" stroke="#FFFFFF" stroke-opacity="0.22" stroke-width="1.2"/>
  <path d="M 459.2 1044.0 C 459.2 1292.0, 494.7 1170.1, 391.3 1370.7 C 287.9 1571.3, 316.8 1494.5, 149.4 1571.1 C -17.9 1647.7, 99.9 1600.6, -67.4 1524.0 C -234.8 1447.4, -170.8 1602.4, -274.2 1401.8 C -377.6 1201.2, -377.0 1292.0, -377.0 1044.0 C -377.0 796.0, -397.3 915.8, -293.9 715.2 C -190.5 514.6, -266.6 633.7, -99.2 557.1 C 68.1 480.4, -9.1 460.9, 158.3 537.5 C 325.6 614.1, 224.0 500.9, 327.4 701.5 C 430.9 902.1, 459.2 796.0, 459.2 1044.0 Z" fill="#D7F8E8" opacity="0.12" stroke="#D7F8E8" stroke-opacity="0.46" stroke-width="3" filter="url(#soft_dashboard_19_3665)"/>
  <path d="M 459.2 1044.0 C 459.2 1292.0, 494.7 1170.1, 391.3 1370.7 C 287.9 1571.3, 316.8 1494.5, 149.4 1571.1 C -17.9 1647.7, 99.9 1600.6, -67.4 1524.0 C -234.8 1447.4, -170.8 1602.4, -274.2 1401.8 C -377.6 1201.2, -377.0 1292.0, -377.0 1044.0 C -377.0 796.0, -397.3 915.8, -293.9 715.2 C -190.5 514.6, -266.6 633.7, -99.2 557.1 C 68.1 480.4, -9.1 460.9, 158.3 537.5 C 325.6 614.1, 224.0 500.9, 327.4 701.5 C 430.9 902.1, 459.2 796.0, 459.2 1044.0 Z" fill="none" stroke="#FFFFFF" stroke-opacity="0.22" stroke-width="1.2"/>
  <path d="M 1573.4 458.0 C 1573.4 810.4, 1645.9 594.2, 1559.6 879.2 C 1473.4 1164.3, 1506.8 1001.9, 1367.3 1110.8 C 1227.8 1219.7, 1302.7 1226.0, 1163.2 1117.1 C 1023.7 1008.2, 1065.6 1149.5, 979.3 864.5 C 893.1 579.4, 961.6 810.4, 961.6 458.0 C 961.6 105.7, 882.5 289.5, 968.7 4.4 C 1055.0 -280.6, 1033.9 -151.4, 1173.4 -260.3 C 1312.9 -369.2, 1232.0 -461.1, 1371.5 -352.3 C 1511.0 -243.4, 1474.1 -345.1, 1560.3 -60.1 C 1646.5 225.0, 1573.4 105.6, 1573.4 458.0 Z" fill="#A4E6F5" opacity="0.12" stroke="#A4E6F5" stroke-opacity="0.46" stroke-width="3" filter="url(#soft_dashboard_19_3665)"/>
  <path d="M 1573.4 458.0 C 1573.4 810.4, 1645.9 594.2, 1559.6 879.2 C 1473.4 1164.3, 1506.8 1001.9, 1367.3 1110.8 C 1227.8 1219.7, 1302.7 1226.0, 1163.2 1117.1 C 1023.7 1008.2, 1065.6 1149.5, 979.3 864.5 C 893.1 579.4, 961.6 810.4, 961.6 458.0 C 961.6 105.7, 882.5 289.5, 968.7 4.4 C 1055.0 -280.6, 1033.9 -151.4, 1173.4 -260.3 C 1312.9 -369.2, 1232.0 -461.1, 1371.5 -352.3 C 1511.0 -243.4, 1474.1 -345.1, 1560.3 -60.1 C 1646.5 225.0, 1573.4 105.6, 1573.4 458.0 Z" fill="none" stroke="#FFFFFF" stroke-opacity="0.22" stroke-width="1.2"/>
  <path d="M 408.3 1837.0 C 408.3 2116.9, 515.8 1991.9, 397.0 2218.3 C 278.3 2444.8, 331.5 2277.6, 139.3 2364.1 C -52.8 2450.6, 63.9 2569.5, -128.3 2483.0 C -320.4 2396.5, -258.8 2468.4, -377.5 2242.0 C -496.3 2015.5, -378.1 2116.9, -378.1 1837.0 C -378.1 1557.1, -415.1 1747.3, -296.3 1520.9 C -177.6 1294.4, -317.5 1322.4, -125.4 1235.9 C 66.8 1149.4, -25.2 1132.1, 167.0 1218.6 C 359.1 1305.1, 292.4 1275.3, 411.1 1501.7 C 529.9 1728.2, 408.3 1557.1, 408.3 1837.0 Z" fill="#5DE0D7" opacity="0.12" stroke="#FFFFFF" stroke-opacity="0.46" stroke-width="3" filter="url(#soft_dashboard_19_3665)"/>
  <path d="M 408.3 1837.0 C 408.3 2116.9, 515.8 1991.9, 397.0 2218.3 C 278.3 2444.8, 331.5 2277.6, 139.3 2364.1 C -52.8 2450.6, 63.9 2569.5, -128.3 2483.0 C -320.4 2396.5, -258.8 2468.4, -377.5 2242.0 C -496.3 2015.5, -378.1 2116.9, -378.1 1837.0 C -378.1 1557.1, -415.1 1747.3, -296.3 1520.9 C -177.6 1294.4, -317.5 1322.4, -125.4 1235.9 C 66.8 1149.4, -25.2 1132.1, 167.0 1218.6 C 359.1 1305.1, 292.4 1275.3, 411.1 1501.7 C 529.9 1728.2, 408.3 1557.1, 408.3 1837.0 Z" fill="none" stroke="#FFFFFF" stroke-opacity="0.22" stroke-width="1.2"/>
  <path d="M 1960.2 1735.0 C 1960.2 1924.0, 1995.8 1850.2, 1814.6 2003.1 C 1633.4 2156.0, 1742.8 2079.0, 1449.6 2137.4 C 1156.5 2195.9, 1320.8 2141.4, 1027.6 2083.0 C 734.5 2024.6, 836.3 2118.5, 655.1 1965.6 C 473.9 1812.7, 651.0 1924.0, 651.0 1735.0 C 651.0 1546.0, 577.4 1638.2, 758.6 1485.3 C 939.8 1332.4, 770.9 1352.7, 1064.0 1294.3 C 1357.2 1235.9, 1185.9 1225.2, 1479.1 1283.6 C 1772.2 1342.0, 1605.6 1308.9, 1786.8 1461.8 C 1967.9 1614.7, 1960.2 1546.0, 1960.2 1735.0 Z" fill="#94D6FF" opacity="0.12" stroke="#94D6FF" stroke-opacity="0.46" stroke-width="3" filter="url(#soft_dashboard_19_3665)"/>
  <path d="M 1960.2 1735.0 C 1960.2 1924.0, 1995.8 1850.2, 1814.6 2003.1 C 1633.4 2156.0, 1742.8 2079.0, 1449.6 2137.4 C 1156.5 2195.9, 1320.8 2141.4, 1027.6 2083.0 C 734.5 2024.6, 836.3 2118.5, 655.1 1965.6 C 473.9 1812.7, 651.0 1924.0, 651.0 1735.0 C 651.0 1546.0, 577.4 1638.2, 758.6 1485.3 C 939.8 1332.4, 770.9 1352.7, 1064.0 1294.3 C 1357.2 1235.9, 1185.9 1225.2, 1479.1 1283.6 C 1772.2 1342.0, 1605.6 1308.9, 1786.8 1461.8 C 1967.9 1614.7, 1960.2 1546.0, 1960.2 1735.0 Z" fill="none" stroke="#FFFFFF" stroke-opacity="0.22" stroke-width="1.2"/>
  <path d="M -100.0 342.4 Q 133.3 -129.4, 366.7 -382.4 Q 600.0 -18.7, 833.3 338.4 Q 1066.7 -106.0, 1300.0 -417.1" fill="none" stroke="#FFFFFF" stroke-opacity="0.38" stroke-width="4" filter="url(#soft_dashboard_19_3665)"/>
  <path d="M -100.0 342.4 Q 133.3 -129.4, 366.7 -382.4 Q 600.0 -18.7, 833.3 338.4 Q 1066.7 -106.0, 1300.0 -417.1" fill="none" stroke="#94D6FF" stroke-opacity="0.18" stroke-width="2"/>
  <path d="M -100.0 972.5 Q 133.3 1550.4, 366.7 1557.8 Q 600.0 1169.9, 833.3 934.4 Q 1066.7 1102.8, 1300.0 1564.5" fill="none" stroke="#FFFFFF" stroke-opacity="0.38" stroke-width="4" filter="url(#soft_dashboard_19_3665)"/>
  <path d="M -100.0 972.5 Q 133.3 1550.4, 366.7 1557.8 Q 600.0 1169.9, 833.3 934.4 Q 1066.7 1102.8, 1300.0 1564.5" fill="none" stroke="#94D6FF" stroke-opacity="0.18" stroke-width="2"/>
  <path d="M -100.0 588.6 Q 133.3 843.2, 366.7 1051.9 Q 600.0 1110.8, 833.3 1200.2 Q 1066.7 1190.3, 1300.0 980.2" fill="none" stroke="#FFFFFF" stroke-opacity="0.38" stroke-width="4" filter="url(#soft_dashboard_19_3665)"/>
  <path d="M -100.0 588.6 Q 133.3 843.2, 366.7 1051.9 Q 600.0 1110.8, 833.3 1200.2 Q 1066.7 1190.3, 1300.0 980.2" fill="none" stroke="#A8F2C0" stroke-opacity="0.18" stroke-width="2"/>
  <path d="M -100.0 1849.0 Q 133.3 1751.8, 366.7 1807.7 Q 600.0 1833.0, 833.3 1969.7 Q 1066.7 2102.9, 1300.0 1887.5" fill="none" stroke="#FFFFFF" stroke-opacity="0.38" stroke-width="4" filter="url(#soft_dashboard_19_3665)"/>
  <path d="M -100.0 1849.0 Q 133.3 1751.8, 366.7 1807.7 Q 600.0 1833.0, 833.3 1969.7 Q 1066.7 2102.9, 1300.0 1887.5" fill="none" stroke="#A8F2C0" stroke-opacity="0.18" stroke-width="2"/>
  <path d="M -100.0 492.3 Q 133.3 394.8, 366.7 388.4 Q 600.0 580.5, 833.3 848.1 Q 1066.7 835.0, 1300.0 554.7" fill="none" stroke="#FFFFFF" stroke-opacity="0.38" stroke-width="4" filter="url(#soft_dashboard_19_3665)"/>
  <path d="M -100.0 492.3 Q 133.3 394.8, 366.7 388.4 Q 600.0 580.5, 833.3 848.1 Q 1066.7 835.0, 1300.0 554.7" fill="none" stroke="#94D6FF" stroke-opacity="0.18" stroke-width="2"/>
  <circle cx="644" cy="1532" r="95" fill="url(#orb_dashboard_19_3665)" opacity="0.36"/>
  <circle cx="644" cy="1532" r="95" fill="#A8F2C0" opacity="0.08"/>
  <circle cx="644" cy="1532" r="95" fill="none" stroke="#FFFFFF" stroke-opacity="0.56" stroke-width="3"/>
  <ellipse cx="617.4" cy="1497.8" rx="17.1" ry="7.6" fill="#FFFFFF" opacity="0.42" transform="rotate(-22 617.4 1497.8)"/>
  <circle cx="473" cy="108" r="104" fill="url(#orb_dashboard_19_3665)" opacity="0.36"/>
  <circle cx="473" cy="108" r="104" fill="#E8FFF5" opacity="0.08"/>
  <circle cx="473" cy="108" r="104" fill="none" stroke="#FFFFFF" stroke-opacity="0.56" stroke-width="3"/>
  <ellipse cx="443.9" cy="70.6" rx="18.7" ry="8.3" fill="#FFFFFF" opacity="0.42" transform="rotate(-22 443.9 70.6)"/>
  <circle cx="912" cy="2303" r="214" fill="url(#orb_dashboard_19_3665)" opacity="0.36"/>
  <circle cx="912" cy="2303" r="214" fill="#94D6FF" opacity="0.08"/>
  <circle cx="912" cy="2303" r="214" fill="none" stroke="#FFFFFF" stroke-opacity="0.56" stroke-width="3"/>
  <ellipse cx="852.1" cy="2226.0" rx="38.5" ry="17.1" fill="#FFFFFF" opacity="0.42" transform="rotate(-22 852.1 2226.0)"/>
  <circle cx="-36" cy="672" r="269" fill="url(#orb_dashboard_19_3665)" opacity="0.25"/>
  <circle cx="-36" cy="672" r="269" fill="#E8FFF5" opacity="0.08"/>
  <circle cx="-36" cy="672" r="269" fill="none" stroke="#FFFFFF" stroke-opacity="0.56" stroke-width="3"/>
  <ellipse cx="-111.3" cy="575.2" rx="48.4" ry="21.5" fill="#FFFFFF" opacity="0.42" transform="rotate(-22 -111.3 575.2)"/>
  <circle cx="1124" cy="1258" r="246" fill="url(#orb_dashboard_19_3665)" opacity="0.28"/>
  <circle cx="1124" cy="1258" r="246" fill="#94D6FF" opacity="0.08"/>
  <circle cx="1124" cy="1258" r="246" fill="none" stroke="#FFFFFF" stroke-opacity="0.56" stroke-width="3"/>
  <ellipse cx="1055.1" cy="1169.4" rx="44.3" ry="19.7" fill="#FFFFFF" opacity="0.42" transform="rotate(-22 1055.1 1169.4)"/>
  <circle cx="631" cy="2728" r="185" fill="url(#orb_dashboard_19_3665)" opacity="0.22"/>
  <circle cx="631" cy="2728" r="185" fill="#BDEFFF" opacity="0.08"/>
  <circle cx="631" cy="2728" r="185" fill="none" stroke="#FFFFFF" stroke-opacity="0.56" stroke-width="3"/>
  <ellipse cx="579.2" cy="2661.4" rx="33.3" ry="14.8" fill="#FFFFFF" opacity="0.42" transform="rotate(-22 579.2 2661.4)"/>
  <circle cx="72" cy="477" r="222" fill="url(#orb_dashboard_19_3665)" opacity="0.28"/>
  <circle cx="72" cy="477" r="222" fill="#5DE0D7" opacity="0.08"/>
  <circle cx="72" cy="477" r="222" fill="none" stroke="#FFFFFF" stroke-opacity="0.56" stroke-width="3"/>
  <ellipse cx="9.8" cy="397.1" rx="40.0" ry="17.8" fill="#FFFFFF" opacity="0.42" transform="rotate(-22 9.8 397.1)"/>
  <circle cx="1233" cy="1709" r="110" fill="url(#orb_dashboard_19_3665)" opacity="0.23"/>
  <circle cx="1233" cy="1709" r="110" fill="#F8FFFD" opacity="0.08"/>
  <circle cx="1233" cy="1709" r="110" fill="none" stroke="#FFFFFF" stroke-opacity="0.56" stroke-width="3"/>
  <ellipse cx="1202.2" cy="1669.4" rx="19.8" ry="8.8" fill="#FFFFFF" opacity="0.42" transform="rotate(-22 1202.2 1669.4)"/>
  <circle cx="16" cy="2696" r="90" fill="url(#orb_dashboard_19_3665)" opacity="0.19"/>
  <circle cx="16" cy="2696" r="90" fill="#F8FFFD" opacity="0.08"/>
  <circle cx="16" cy="2696" r="90" fill="none" stroke="#FFFFFF" stroke-opacity="0.56" stroke-width="3"/>
  <ellipse cx="-9.2" cy="2663.6" rx="16.2" ry="7.2" fill="#FFFFFF" opacity="0.42" transform="rotate(-22 -9.2 2663.6)"/>
  <circle cx="790" cy="674" r="93" fill="url(#orb_dashboard_19_3665)" opacity="0.17"/>
  <circle cx="790" cy="674" r="93" fill="#BDEFFF" opacity="0.08"/>
  <circle cx="790" cy="674" r="93" fill="none" stroke="#FFFFFF" stroke-opacity="0.56" stroke-width="3"/>
  <ellipse cx="764.0" cy="640.5" rx="16.7" ry="7.4" fill="#FFFFFF" opacity="0.42" transform="rotate(-22 764.0 640.5)"/>
  <circle cx="1179" cy="1355" r="2" fill="#FFFFFF" opacity="0.33"/>
  <circle cx="137" cy="1882" r="4" fill="#FFFFFF" opacity="0.45"/>
  <circle cx="1140" cy="547" r="7" fill="#FFFFFF" opacity="0.54"/>
  <circle cx="806" cy="2202" r="5" fill="#FFFFFF" opacity="0.48"/>
  <circle cx="584" cy="656" r="3" fill="#FFFFFF" opacity="0.29"/>
  <circle cx="660" cy="511" r="2" fill="#FFFFFF" opacity="0.45"/>
  <circle cx="866" cy="1871" r="5" fill="#FFFFFF" opacity="0.60"/>
  <circle cx="659" cy="1289" r="4" fill="#FFFFFF" opacity="0.62"/>
  <circle cx="1171" cy="2425" r="2" fill="#FFFFFF" opacity="0.60"/>
  <circle cx="479" cy="1189" r="2" fill="#FFFFFF" opacity="0.33"/>
  <circle cx="210" cy="2259" r="3" fill="#FFFFFF" opacity="0.49"/>
  <circle cx="835" cy="617" r="3" fill="#FFFFFF" opacity="0.40"/>
  <circle cx="896" cy="369" r="4" fill="#FFFFFF" opacity="0.31"/>
  <circle cx="695" cy="1781" r="2" fill="#FFFFFF" opacity="0.44"/>
  <circle cx="94" cy="2176" r="3" fill="#FFFFFF" opacity="0.49"/>
  <circle cx="701" cy="946" r="4" fill="#FFFFFF" opacity="0.53"/>
  <circle cx="1125" cy="1329" r="4" fill="#FFFFFF" opacity="0.65"/>
  <rect width="1200" height="2600" fill="#FFFFFF" opacity="0.08"/>
  <rect width="1200" height="2600" filter="url(#grain_dashboard_19_3665)" opacity="0.7"/>
</svg>
