<svg xmlns="http://www.w3.org/2000/svg" width="1200" height="2600" viewBox="0 0 1200 2600" preserveAspectRatio="xMidYMid slice">
  <defs>
    <linearGradient id="bg_dashboard_09_3565" x1="0" y1="0" x2="1" y2="1">
      <stop offset="0%" stop-color="#E8FFF5"/>
      <stop offset="48%" stop-color="#F8FFFD"/>
      <stop offset="100%" stop-color="#BDEFFF"/>
    </linearGradient>
    <radialGradient id="orb_dashboard_09_3565" cx="35%" cy="30%" r="70%">
      <stop offset="0%" stop-color="#FFFFFF" stop-opacity="0.85"/>
      <stop offset="42%" stop-color="#FFFFFF" stop-opacity="0.20"/>
      <stop offset="100%" stop-color="#FFFFFF" stop-opacity="0.02"/>
    </radialGradient>
    <filter id="blur_dashboard_09_3565" x="-30%" y="-30%" width="160%" height="160%">
      <feGaussianBlur stdDeviation="72"/>
    </filter>
    <filter id="soft_dashboard_09_3565" x="-20%" y="-20%" width="140%" height="140%">
      <feGaussianBlur stdDeviation="10"/>
    </filter>
    <filter id="grain_dashboard_09_3565">
      <feTurbulence type="fractalNoise" baseFrequency="0.85" numOctaves="2" stitchTiles="stitch"/>
      <feColorMatrix type="saturate" values="0"/>
      <feComponentTransfer>
        <feFuncA type="table" tableValues="0 0.035"/>
      </feComponentTransfer>
    </filter>
  </defs>
  <rect width="1200" height="2600" fill="url(#bg_dashboard_09_3565)"/>
  <path d="M 1393.5 55.0 C 1393.5 258.9, 1391.1 166.2, 1324.6 322.4 C 1258.1 478.5, 1283.5 462.6, 1181.6 498.0 C 1079.6 533.4, 1095.7 525.8, 1006.1 423.9 C 916.5 322.0, 959.5 409.0, 924.1 217.4 C 888.7 25.9, 912.5 76.2, 947.9 -115.4 C 983.3 -306.9, 911.1 -242.8, 1000.8 -344.8 C 1090.4 -446.7, 1077.1 -419.4, 1179.0 -384.0 C 1280.9 -348.6, 1243.1 -396.1, 1309.6 -240.0 C 1376.1 -83.8, 1393.5 -148.8, 1393.5 55.0 Z" fill="#A8F2C0" opacity="0.24" filter="url(#blur_dashboard_09_3565)"/>
  <path d="M 1420.8 600.0 C 1420.8 862.8, 1474.8 789.6, 1390.0 990.9 C 1305.3 1192.2, 1351.7 1206.8, 1221.8 1252.5 C 1092.0 1298.1, 1137.6 1315.1, 1023.4 1183.7 C 909.2 1052.3, 931.2 1070.5, 886.1 823.5 C 841.0 576.6, 883.0 632.8, 928.1 385.8 C 973.2 138.9, 889.3 183.6, 1003.5 52.2 C 1117.7 -79.2, 1083.6 45.2, 1213.4 90.8 C 1343.3 136.5, 1292.9 60.1, 1377.6 261.4 C 1462.4 462.7, 1420.8 337.2, 1420.8 600.0 Z" fill="#F8FFFD" opacity="0.31" filter="url(#blur_dashboard_09_3565)"/>
  <path d="M 528.9 973.0 C 528.9 1243.0, 476.4 1137.2, 346.8 1344.0 C 217.2 1550.8, 271.9 1609.8, 73.3 1656.7 C -125.2 1703.6, -51.1 1624.0, -225.6 1489.0 C -400.2 1354.0, -398.3 1468.2, -467.3 1214.5 C -536.2 960.8, -418.9 1038.8, -350.0 785.1 C -281.0 531.4, -389.5 588.7, -214.9 453.7 C -40.3 318.7, -110.5 305.9, 88.0 352.8 C 286.6 399.7, 186.4 435.0, 316.0 641.8 C 445.6 848.7, 528.9 703.0, 528.9 973.0 Z" fill="#BDEFFF" opacity="0.25" filter="url(#blur_dashboard_09_3565)"/>
  <path d="M 351.0 1637.0 C 351.0 1846.2, 350.0 1780.8, 213.2 1941.1 C 76.4 2101.4, 205.4 2073.2, -4.2 2109.5 C -213.8 2145.9, -129.9 2162.0, -314.3 2057.4 C -498.6 1952.8, -381.9 2020.4, -454.7 1823.7 C -527.5 1627.1, -553.8 1687.2, -481.0 1490.6 C -408.2 1293.9, -530.3 1377.5, -345.9 1272.9 C -161.6 1168.2, -222.5 1114.8, -12.9 1151.1 C 196.8 1187.4, 84.4 1221.6, 221.3 1381.9 C 358.1 1542.2, 351.0 1427.8, 351.0 1637.0 Z" fill="#5DE0D7" opacity="0.17" filter="url(#blur_dashboard_09_3565)"/>
  <path d="M 381.9 2621.0 C 381.9 2779.4, 442.8 2728.4, 307.7 2849.7 C 172.6 2971.0, 271.4 2922.7, 64.5 2950.2 C -142.5 2977.7, -121.4 3039.3, -303.4 2960.1 C -485.4 2880.9, -395.4 2893.1, -467.3 2744.2 C -539.2 2595.4, -489.1 2670.4, -417.3 2521.5 C -345.4 2372.7, -428.7 2425.9, -246.7 2346.7 C -64.7 2267.5, -149.1 2242.3, 57.8 2269.8 C 264.8 2297.3, 145.2 2294.6, 280.3 2415.9 C 415.4 2537.3, 381.9 2462.6, 381.9 2621.0 Z" fill="#A4E6F5" opacity="0.25" filter="url(#blur_dashboard_09_3565)"/>
  <path d="M 1043.6 1507.0 C 1043.6 1782.4, 1039.5 1698.2, 961.4 1909.2 C 883.3 2120.1, 888.3 2083.9, 768.7 2131.7 C 649.0 2179.5, 705.6 2101.5, 600.4 1963.8 C 495.2 1826.1, 503.7 2007.5, 462.1 1748.7 C 420.5 1489.9, 441.5 1564.1, 483.0 1305.3 C 524.6 1046.5, 468.0 1127.3, 573.2 989.6 C 678.4 851.9, 653.9 949.6, 773.5 997.4 C 893.2 1045.2, 882.8 937.0, 960.9 1147.9 C 1039.0 1358.9, 1043.6 1231.6, 1043.6 1507.0 Z" fill="#94D6FF" opacity="0.18" filter="url(#blur_dashboard_09_3565)"/>
  <path d="M 895.1 366.0 C 895.1 557.7, 835.7 449.0, 725.5 595.9 C 615.3 742.7, 728.9 826.3, 560.1 859.5 C 391.2 892.8, 460.0 892.3, 311.5 796.5 C 163.0 700.6, 206.5 697.7, 147.9 517.6 C 89.2 337.5, 35.0 386.9, 93.7 206.8 C 152.3 26.6, 159.5 80.6, 308.0 -15.2 C 456.5 -111.1, 385.9 -74.4, 554.7 -41.1 C 723.6 -7.8, 632.6 -69.5, 742.8 77.3 C 853.0 224.2, 895.1 174.3, 895.1 366.0 Z" fill="#F8FFFD" opacity="0.18" filter="url(#blur_dashboard_09_3565)"/>
  <path d="M 228.2 -174.0 C 228.2 113.6, 175.3 -20.4, 75.8 199.9 C -23.7 420.2, 47.8 387.6, -104.7 437.5 C -257.1 487.4, -242.8 570.3, -376.9 426.5 C -511.0 282.7, -464.1 350.4, -517.0 80.2 C -570.0 -190.0, -581.9 -91.8, -528.9 -362.0 C -476.0 -632.2, -472.7 -512.8, -338.6 -656.6 C -204.6 -800.4, -272.8 -792.6, -120.4 -742.6 C 32.1 -692.7, 11.3 -820.3, 110.8 -600.0 C 210.3 -379.7, 228.2 -461.6, 228.2 -174.0 Z" fill="#A8F2C0" opacity="0.37" filter="url(#blur_dashboard_09_3565)"/>
  <path d="M 146.6 315.0 C 146.6 625.5, 152.8 460.4, 71.5 698.2 C -9.8 936.1, 21.3 992.4, -103.2 1046.3 C -227.8 1100.3, -197.0 1081.7, -306.5 926.5 C -416.0 771.2, -380.8 825.1, -424.0 533.3 C -467.3 241.5, -429.4 394.0, -386.1 102.2 C -342.9 -189.6, -410.1 -187.8, -300.6 -343.1 C -191.1 -498.3, -225.0 -478.6, -100.5 -424.7 C 24.0 -370.8, 18.7 -429.1, 100.0 -191.2 C 181.3 46.6, 146.6 4.5, 146.6 315.0 Z" fill="#94D6FF" opacity="0.17" filter="url(#blur_dashboard_09_3565)"/>
  <path d="M 695.6 466.0 C 695.6 597.4, 707.3 530.1, 620.8 630.8 C 534.3 731.4, 573.4 679.3, 440.9 702.1 C 308.4 724.9, 350.8 752.3, 234.3 686.6 C 117.8 620.9, 164.2 695.9, 118.2 572.4 C 72.2 448.9, 114.9 504.1, 160.9 380.6 C 206.9 257.1, 129.4 241.5, 246.0 175.8 C 362.5 110.1, 310.5 171.4, 443.0 194.2 C 575.5 217.1, 520.4 197.0, 606.8 297.6 C 693.3 398.3, 695.6 334.6, 695.6 466.0 Z" fill="#F8FFFD" opacity="0.36" filter="url(#blur_dashboard_09_3565)"/>
  <path d="M 514.5 2754.0 C 514.5 2936.2, 558.6 2842.0, 402.4 2981.6 C 246.2 3121.2, 296.7 3054.8, 57.3 3086.5 C -182.0 3118.1, -73.6 3231.2, -284.0 3140.1 C -494.5 3049.0, -507.4 3057.7, -590.5 2886.5 C -673.7 2715.2, -644.0 2779.1, -560.8 2607.9 C -477.7 2436.6, -515.4 2501.2, -304.9 2410.1 C -94.5 2319.0, -172.3 2271.2, 67.0 2302.9 C 306.4 2334.5, 250.5 2393.1, 406.7 2532.7 C 562.9 2672.3, 514.5 2571.8, 514.5 2754.0 Z" fill="#94D6FF" opacity="0.18" filter="url(#blur_dashboard_09_3565)"/>
  <path d="M 1764.2 1506.0 C 1764.2 1770.2, 1911.7 1649.3, 1773.4 1851.6 C 1635.2 2054.0, 1630.2 2103.8, 1418.4 2149.7 C 1206.5 2195.5, 1323.0 2101.2, 1136.7 1969.1 C 950.4 1837.1, 934.2 1934.5, 860.7 1686.3 C 787.1 1438.1, 854.0 1576.5, 927.6 1328.3 C 1001.2 1080.1, 920.4 1220.6, 1106.7 1088.5 C 1292.9 956.4, 1205.9 805.0, 1417.7 850.8 C 1629.5 896.7, 1551.7 945.2, 1689.9 1147.6 C 1828.2 1349.9, 1764.2 1241.8, 1764.2 1506.0 Z" fill="#A4E6F5" opacity="0.35" filter="url(#blur_dashboard_09_3565)"/>
  <path d="M 638.1 734.0 C 638.1 1035.5, 629.0 868.8, 515.9 1099.8 C 402.8 1330.8, 442.6 1419.7, 269.3 1472.0 C 96.0 1524.4, 169.6 1522.3, 17.2 1371.6 C -135.2 1220.8, -97.3 1262.6, -157.5 979.3 C -217.6 696.0, -157.5 765.4, -97.4 482.1 C -37.2 198.8, -150.0 336.7, 2.4 185.9 C 154.8 35.2, 110.4 109.1, 283.6 161.5 C 456.9 213.9, 385.4 139.3, 498.5 370.2 C 611.6 601.2, 638.1 432.5, 638.1 734.0 Z" fill="#BDEFFF" opacity="0.37" filter="url(#blur_dashboard_09_3565)"/>
  <path d="M 426.2 2639.0 C 426.2 2949.1, 461.2 2782.5, 384.2 3033.4 C 307.3 3284.2, 356.9 3180.2, 232.3 3276.0 C 107.8 3371.8, 178.7 3440.5, 54.2 3344.7 C -70.4 3248.9, -25.7 3271.3, -102.7 3020.5 C -179.7 2769.7, -143.1 2949.1, -143.1 2639.0 C -143.1 2328.9, -199.4 2464.2, -122.4 2213.4 C -45.4 1962.5, -71.7 2140.9, 52.8 2045.1 C 177.4 1949.3, 109.7 1864.7, 234.3 1960.6 C 358.8 2056.4, 294.3 2011.7, 371.3 2262.6 C 448.3 2513.4, 426.2 2328.9, 426.2 2639.0 Z" fill="#A8F2C0" opacity="0.12" stroke="#FFFFFF" stroke-opacity="0.46" stroke-width="3" filter="url(#soft_dashboard_09_3565)"/>
  <path d="M 426.2 2639.0 C 426.2 2949.1, 461.2 2782.5, 384.2 3033.4 C 307.3 3284.2, 356.9 3180.2, 232.3 3276.0 C 107.8 3371.8, 178.7 3440.5, 54.2 3344.7 C -70.4 3248.9, -25.7 3271.3, -102.7 3020.5 C -179.7 2769.7, -143.1 2949.1, -143.1 2639.0 C -143.1 2328.9, -199.4 2464.2, -122.4 2213.4 C -45.4 1962.5, -71.7 2140.9, 52.8 2045.1 C 177.4 1949.3, 109.7 1864.7, 234.3 1960.6 C 358.8 2056.4, 294.3 2011.7, 371.3 2262.6 C 448.3 2513.4, 426.2 2328.9, 426.2 2639.0 Z" fill="none" stroke="#FFFFFF" stroke-opacity="0.22" stroke-width="1.2"/>
  <path d="M 500.0 813.0 C 500.0 1083.5, 462.8 899.5, 385.8 1118.3 C 308.9 1337.1, 386.6 1370.9, 262.1 1454.5 C 137.5 1538.1, 199.1 1455.6, 74.5 1372.0 C -50.0 1288.4, 31.8 1405.7, -45.2 1186.9 C -122.1 968.1, -146.0 1083.5, -146.0 813.0 C -146.0 542.6, -119.6 698.0, -42.6 479.2 C 34.3 260.4, -27.9 303.2, 96.7 219.6 C 221.2 136.1, 140.6 146.1, 265.2 229.7 C 389.7 313.3, 345.6 242.9, 422.5 461.7 C 499.5 680.5, 500.0 542.5, 500.0 813.0 Z" fill="#A4E6F5" opacity="0.12" stroke="#FFFFFF" stroke-opacity="0.46" stroke-width="3" filter="url(#soft_dashboard_09_3565)"/>
  <path d="M 500.0 813.0 C 500.0 1083.5, 462.8 899.5, 385.8 1118.3 C 308.9 1337.1, 386.6 1370.9, 262.1 1454.5 C 137.5 1538.1, 199.1 1455.6, 74.5 1372.0 C -50.0 1288.4, 31.8 1405.7, -45.2 1186.9 C -122.1 968.1, -146.0 1083.5, -146.0 813.0 C -146.0 542.6, -119.6 698.0, -42.6 479.2 C 34.3 260.4, -27.9 303.2, 96.7 219.6 C 221.2 136.1, 140.6 146.1, 265.2 229.7 C 389.7 313.3, 345.6 242.9, 422.5 461.7 C 499.5 680.5, 500.0 542.5, 500.0 813.0 Z" fill="none" stroke="#FFFFFF" stroke-opacity="0.22" stroke-width="1.2"/>
  <path d="M 1314.5 296.0 C 1314.5 585.4, 1361.5 427.2, 1290.4 661.3 C 1219.2 895.4, 1265.1 815.3, 1149.9 904.7 C 1034.8 994.1, 1096.1 1010.9, 980.9 921.5 C 865.8 832.1, 930.5 894.3, 859.3 660.2 C 788.2 426.1, 787.6 585.4, 787.6 296.0 C 787.6 6.7, 782.6 178.9, 853.8 -55.2 C 924.9 -289.3, 877.5 -208.7, 992.6 -298.2 C 1107.7 -387.6, 1032.4 -424.9, 1147.5 -335.5 C 1262.7 -246.0, 1213.0 -314.5, 1284.2 -80.4 C 1355.3 153.7, 1314.5 6.6, 1314.5 296.0 Z" fill="#A4E6F5" opacity="0.12" stroke="#FFFFFF" stroke-opacity="0.46" stroke-width="3" filter="url(#soft_dashboard_09_3565)"/>
  <path d="M 1314.5 296.0 C 1314.5 585.4, 1361.5 427.2, 1290.4 661.3 C 1219.2 895.4, 1265.1 815.3, 1149.9 904.7 C 1034.8 994.1, 1096.1 1010.9, 980.9 921.5 C 865.8 832.1, 930.5 894.3, 859.3 660.2 C 788.2 426.1, 787.6 585.4, 787.6 296.0 C 787.6 6.7, 782.6 178.9, 853.8 -55.2 C 924.9 -289.3, 877.5 -208.7, 992.6 -298.2 C 1107.7 -387.6, 1032.4 -424.9, 1147.5 -335.5 C 1262.7 -246.0, 1213.0 -314.5, 1284.2 -80.4 C 1355.3 153.7, 1314.5 6.6, 1314.5 296.0 Z" fill="none" stroke="#FFFFFF" stroke-opacity="0.22" stroke-width="1.2"/>
  <path d="M 354.9 1409.0 C 354.9 1795.5, 372.2 1615.1, 258.2 1927.8 C 144.2 2240.5, 191.0 2092.6, 6.6 2212.0 C -177.9 2331.5, -75.0 2371.2, -259.4 2251.8 C -443.9 2132.3, -374.4 2167.5, -488.4 1854.7 C -602.4 1542.0, -549.3 1795.5, -549.3 1409.0 C -549.3 1022.5, -556.0 1269.1, -442.0 956.4 C -328.0 643.7, -410.3 706.9, -225.8 587.4 C -41.3 468.0, -154.9 451.9, 29.6 571.3 C 214.0 690.8, 163.1 616.3, 277.1 929.1 C 391.1 1241.8, 354.9 1022.5, 354.9 1409.0 Z" fill="#D7F8E8" opacity="0.12" stroke="#FFFFFF" stroke-opacity="0.46" stroke-width="3" filter="url(#soft_dashboard_09_3565)"/>
  <path d="M 354.9 1409.0 C 354.9 1795.5, 372.2 1615.1, 258.2 1927.8 C 144.2 2240.5, 191.0 2092.6, 6.6 2212.0 C -177.9 2331.5, -75.0 2371.2, -259.4 2251.8 C -443.9 2132.3, -374.4 2167.5, -488.4 1854.7 C -602.4 1542.0, -549.3 1795.5, -549.3 1409.0 C -549.3 1022.5, -556.0 1269.1, -442.0 956.4 C -328.0 643.7, -410.3 706.9, -225.8 587.4 C -41.3 468.0, -154.9 451.9, 29.6 571.3 C 214.0 690.8, 163.1 616.3, 277.1 929.1 C 391.1 1241.8, 354.9 1022.5, 354.9 1409.0 Z" fill="none" stroke="#FFFFFF" stroke-opacity="0.22" stroke-width="1.2"/>
  <path d="M 835.9 -115.0 C 835.9 277.9, 913.0 140.0, 819.1 457.8 C 725.2 775.7, 799.6 591.9, 647.7 713.3 C 495.8 834.7, 571.8 770.9, 419.8 649.5 C 267.9 528.1, 337.8 720.9, 243.9 403.1 C 150.0 85.3, 147.5 277.9, 147.5 -115.0 C 147.5 -507.8, 110.5 -307.4, 204.4 -625.3 C 298.3 -943.1, 267.7 -735.4, 419.6 -856.8 C 571.6 -978.1, 474.4 -1081.9, 626.4 -960.5 C 778.3 -839.1, 722.7 -953.9, 816.6 -636.1 C 910.5 -318.2, 835.9 -507.9, 835.9 -115.0 Z" fill="#D7F8E8" opacity="0.12" stroke="#FFFFFF" stroke-opacity="0.46" stroke-width="3" filter="url(#soft_dashboard_09_3565)"/>
  <path d="M 835.9 -115.0 C 835.9 277.9, 913.0 140.0, 819.1 457.8 C 725.2 775.7, 799.6 591.9, 647.7 713.3 C 495.8 834.7, 571.8 770.9, 419.8 649.5 C 267.9 528.1, 337.8 720.9, 243.9 403.1 C 150.0 85.3, 147.5 277.9, 147.5 -115.0 C 147.5 -507.8, 110.5 -307.4, 204.4 -625.3 C 298.3 -943.1, 267.7 -735.4, 419.6 -856.8 C 571.6 -978.1, 474.4 -1081.9, 626.4 -960.5 C 778.3 -839.1, 722.7 -953.9, 816.6 -636.1 C 910.5 -318.2, 835.9 -507.9, 835.9 -115.0 Z" fill="none" stroke="#FFFFFF" stroke-opacity="0.22" stroke-width="1.2"/>
  <path d="M 381.8 2531.0 C 381.8 2871.2, 433.0 2672.6, 315.5 2947.9 C 198.1 3223.1, 306.4 3101.4, 116.4 3206.5 C -73.6 3311.6, 6.6 3318.4, -183.4 3213.3 C -373.4 3108.2, -237.2 3295.9, -354.7 3020.7 C -472.1 2745.5, -457.7 2871.2, -457.7 2531.0 C -457.7 2190.8, -543.1 2339.4, -425.6 2064.2 C -308.2 1789.0, -353.0 1860.1, -163.0 1754.9 C 27.0 1649.8, -78.9 1731.3, 111.1 1836.4 C 301.1 1941.5, 224.4 1811.1, 341.9 2086.3 C 459.3 2361.5, 381.8 2190.8, 381.8 2531.0 Z" fill="#A4E6F5" opacity="0.12" stroke="#FFFFFF" stroke-opacity="0.46" stroke-width="3" filter="url(#soft_dashboard_09_3565)"/>
  <path d="M 381.8 2531.0 C 381.8 2871.2, 433.0 2672.6, 315.5 2947.9 C 198.1 3223.1, 306.4 3101.4, 116.4 3206.5 C -73.6 3311.6, 6.6 3318.4, -183.4 3213.3 C -373.4 3108.2, -237.2 3295.9, -354.7 3020.7 C -472.1 2745.5, -457.7 2871.2, -457.7 2531.0 C -457.7 2190.8, -543.1 2339.4, -425.6 2064.2 C -308.2 1789.0, -353.0 1860.1, -163.0 1754.9 C 27.0 1649.8, -78.9 1731.3, 111.1 1836.4 C 301.1 1941.5, 224.4 1811.1, 341.9 2086.3 C 459.3 2361.5, 381.8 2190.8, 381.8 2531.0 Z" fill="none" stroke="#FFFFFF" stroke-opacity="0.22" stroke-width="1.2"/>
  <path d="M -100.0 2015.0 Q 133.3 1742.6, 366.7 1739.9 Q 600.0 1695.6, 833.3 1828.6 Q 1066.7 2044.4, 1300.0 1952.1" fill="none" stroke="#FFFFFF" stroke-opacity="0.38" stroke-width="4" filter="url(#soft_dashboard_09_3565)"/>
  <path d="M -100.0 2015.0 Q 133.3 1742.6, 366.7 1739.9 Q 600.0 1695.6, 833.3 1828.6 Q 1066.7 2044.4, 1300.0 1952.1" fill="none" stroke="#94D6FF" stroke-opacity="0.18" stroke-width="2"/>
  <path d="M -100.0 34.9 Q 133.3 216.3, 366.7 182.8 Q 600.0 287.7, 833.3 105.6 Q 1066.7 -172.4, 1300.0 -253.2" fill="none" stroke="#FFFFFF" stroke-opacity="0.38" stroke-width="4" filter="url(#soft_dashboard_09_3565)"/>
  <path d="M -100.0 34.9 Q 133.3 216.3, 366.7 182.8 Q 600.0 287.7, 833.3 105.6 Q 1066.7 -172.4, 1300.0 -253.2" fill="none" stroke="#94D6FF" stroke-opacity="0.18" stroke-width="2"/>
  <path d="M -100.0 880.3 Q 133.3 955.9, 366.7 1010.4 Q 600.0 862.0, 833.3 778.6 Q 1066.7 864.9, 1300.0 867.4" fill="none" stroke="#FFFFFF" stroke-opacity="0.38" stroke-width="4" filter="url(#soft_dashboard_09_3565)"/>
  <path d="M -100.0 880.3 Q 133.3 955.9, 366.7 1010.4 Q 600.0 862.0, 833.3 778.6 Q 1066.7 864.9, 1300.0 867.4" fill="none" stroke="#5DE0D7" stroke-opacity="0.18" stroke-width="2"/>
  <circle cx="254" cy="1632" r="213" fill="url(#orb_dashboard_09_3565)" opacity="0.36"/>
  <circle cx="254" cy="1632" r="213" fill="#A8F2C0" opacity="0.08"/>
  <circle cx="254" cy="1632" r="213" fill="none" stroke="#FFFFFF" stroke-opacity="0.56" stroke-width="3"/>
  <ellipse cx="194.4" cy="1555.3" rx="38.3" ry="17.0" fill="#FFFFFF" opacity="0.42" transform="rotate(-22 194.4 1555.3)"/>
  <circle cx="872" cy="2521" r="182" fill="url(#orb_dashboard_09_3565)" opacity="0.36"/>
  <circle cx="872" cy="2521" r="182" fill="#5DE0D7" opacity="0.08"/>
  <circle cx="872" cy="2521" r="182" fill="none" stroke="#FFFFFF" stroke-opacity="0.56" stroke-width="3"/>
  <ellipse cx="821.0" cy="2455.5" rx="32.8" ry="14.6" fill="#FFFFFF" opacity="0.42" transform="rotate(-22 821.0 2455.5)"/>
  <circle cx="837" cy="-10" r="206" fill="url(#orb_dashboard_09_3565)" opacity="0.36"/>
  <circle cx="837" cy="-10" r="206" fill="#BDEFFF" opacity="0.08"/>
  <circle cx="837" cy="-10" r="206" fill="none" stroke="#FFFFFF" stroke-opacity="0.56" stroke-width="3"/>
  <ellipse cx="779.3" cy="-84.2" rx="37.1" ry="16.5" fill="#FFFFFF" opacity="0.42" transform="rotate(-22 779.3 -84.2)"/>
  <circle cx="369" cy="2589" r="287" fill="url(#orb_dashboard_09_3565)" opacity="0.25"/>
  <circle cx="369" cy="2589" r="287" fill="#F8FFFD" opacity="0.08"/>
  <circle cx="369" cy="2589" r="287" fill="none" stroke="#FFFFFF" stroke-opacity="0.56" stroke-width="3"/>
  <ellipse cx="288.6" cy="2485.7" rx="51.7" ry="23.0" fill="#FFFFFF" opacity="0.42" transform="rotate(-22 288.6 2485.7)"/>
  <circle cx="259" cy="936" r="171" fill="url(#orb_dashboard_09_3565)" opacity="0.16"/>
  <circle cx="259" cy="936" r="171" fill="#A8F2C0" opacity="0.08"/>
  <circle cx="259" cy="936" r="171" fill="none" stroke="#FFFFFF" stroke-opacity="0.56" stroke-width="3"/>
  <ellipse cx="211.1" cy="874.4" rx="30.8" ry="13.7" fill="#FFFFFF" opacity="0.42" transform="rotate(-22 211.1 874.4)"/>
  <circle cx="198" cy="917" r="115" fill="url(#orb_dashboard_09_3565)" opacity="0.24"/>
  <circle cx="198" cy="917" r="115" fill="#A8F2C0" opacity="0.08"/>
  <circle cx="198" cy="917" r="115" fill="none" stroke="#FFFFFF" stroke-opacity="0.56" stroke-width="3"/>
  <ellipse cx="165.8" cy="875.6" rx="20.7" ry="9.2" fill="#FFFFFF" opacity="0.42" transform="rotate(-22 165.8 875.6)"/>
  <circle cx="1109" cy="485" r="161" fill="url(#orb_dashboard_09_3565)" opacity="0.23"/>
  <circle cx="1109" cy="485" r="161" fill="#5DE0D7" opacity="0.08"/>
  <circle cx="1109" cy="485" r="161" fill="none" stroke="#FFFFFF" stroke-opacity="0.56" stroke-width="3"/>
  <ellipse cx="1063.9" cy="427.0" rx="29.0" ry="12.9" fill="#FFFFFF" opacity="0.42" transform="rotate(-22 1063.9 427.0)"/>
  <circle cx="488" cy="548" r="3" fill="#FFFFFF" opacity="0.63"/>
  <circle cx="946" cy="2302" r="2" fill="#FFFFFF" opacity="0.46"/>
  <circle cx="293" cy="245" r="3" fill="#FFFFFF" opacity="0.55"/>
  <circle cx="206" cy="581" r="3" fill="#FFFFFF" opacity="0.46"/>
  <circle cx="555" cy="1348" r="4" fill="#FFFFFF" opacity="0.31"/>
  <circle cx="741" cy="174" r="5" fill="#FFFFFF" opacity="0.39"/>
  <circle cx="321" cy="284" r="7" fill="#FFFFFF" opacity="0.71"/>
  <circle cx="91" cy="1376" r="2" fill="#FFFFFF" opacity="0.70"/>
  <circle cx="195" cy="2094" r="2" fill="#FFFFFF" opacity="0.58"/>
  <circle cx="177" cy="2006" r="7" fill="#FFFFFF" opacity="0.60"/>
  <circle cx="205" cy="2530" r="5" fill="#FFFFFF" opacity="0.47"/>
  <circle cx="77" cy="1413" r="2" fill="#FFFFFF" opacity="0.36"/>
  <circle cx="219" cy="2578" r="4" fill="#FFFFFF" opacity="0.29"/>
  <rect width="1200" height="2600" fill="#FFFFFF" opacity="0.08"/>
  <rect width="1200" height="2600" filter="url(#grain_dashboard_09_3565)" opacity="0.7"/>
</svg>
