<svg xmlns="http://www.w3.org/2000/svg" width="1200" height="2600" viewBox="0 0 1200 2600" preserveAspectRatio="xMidYMid slice">
  <defs>
    <linearGradient id="bg_dashboard_10_5536" x1="0" y1="0" x2="1" y2="1">
      <stop offset="0%" stop-color="#E8FFF5"/>
      <stop offset="48%" stop-color="#D7F8E8"/>
      <stop offset="100%" stop-color="#A4E6F5"/>
    </linearGradient>
    <radialGradient id="orb_dashboard_10_5536" cx="35%" cy="30%" r="70%">
      <stop offset="0%" stop-color="#FFFFFF" stop-opacity="0.85"/>
      <stop offset="42%" stop-color="#FFFFFF" stop-opacity="0.20"/>
      <stop offset="100%" stop-color="#FFFFFF" stop-opacity="0.02"/>
    </radialGradient>
    <filter id="blur_dashboard_10_5536" x="-30%" y="-30%" width="160%" height="160%">
      <feGaussianBlur stdDeviation="72"/>
    </filter>
    <filter id="soft_dashboard_10_5536" x="-20%" y="-20%" width="140%" height="140%">
      <feGaussianBlur stdDeviation="10"/>
    </filter>
    <filter id="grain_dashboard_10_5536">
      <feTurbulence type="fractalNoise" baseFrequency="0.85" numOctaves="2" stitchTiles="stitch"/>
      <feColorMatrix type="saturate" values="0"/>
      <feComponentTransfer>
        <feFuncA type="table" tableValues="0 0.035"/>
      </feComponentTransfer>
    </filter>
  </defs>
  <rect width="1200" height="2600" fill="url(#bg_dashboard_10_5536)"/>
  <path d="M 1276.4 1149.0 C 1276.4 1434.8, 1279.2 1266.6, 1186.4 1485.5 C 1093.5 1704.4, 1167.6 1686.7, 1025.4 1736.3 C 883.1 1785.9, 925.3 1758.3, 800.2 1615.4 C 675.1 1472.5, 674.2 1661.1, 624.8 1392.6 C 575.4 1124.1, 579.8 1223.4, 629.2 954.9 C 678.6 686.4, 698.6 801.2, 823.7 658.4 C 948.8 515.5, 882.3 457.1, 1024.6 506.7 C 1166.8 556.4, 1077.1 519.1, 1169.9 738.0 C 1262.8 956.9, 1276.4 863.2, 1276.4 1149.0 Z" fill="#94D6FF" opacity="0.21" filter="url(#blur_dashboard_10_5536)"/>
  <path d="M 366.2 1991.0 C 366.2 2248.8, 370.2 2206.0, 285.5 2403.5 C 200.7 2601.0, 260.0 2413.6, 130.2 2458.4 C 0.3 2503.1, 44.8 2540.5, -69.4 2411.6 C -183.6 2282.6, -177.9 2399.7, -223.0 2157.4 C -268.1 1915.1, -281.7 2005.7, -236.6 1763.4 C -191.5 1521.1, -154.9 1589.1, -40.7 1460.2 C 73.5 1331.2, 7.6 1459.8, 137.4 1504.6 C 267.3 1549.3, 200.3 1429.5, 285.1 1627.0 C 369.8 1824.5, 366.2 1733.2, 366.2 1991.0 Z" fill="#BDEFFF" opacity="0.17" filter="url(#blur_dashboard_10_5536)"/>
  <path d="M 501.1 -156.0 C 501.1 11.0, 478.7 -45.1, 364.2 82.7 C 249.6 210.6, 293.3 156.7, 117.8 185.7 C -57.7 214.7, -7.6 276.3, -161.9 192.9 C -316.2 109.4, -280.8 135.0, -341.7 -21.9 C -402.7 -178.8, -384.1 -122.0, -323.2 -278.9 C -262.2 -435.8, -328.8 -401.8, -174.5 -485.2 C -20.2 -568.7, -76.8 -492.3, 98.7 -463.3 C 274.2 -434.3, 266.9 -557.6, 381.5 -429.7 C 496.0 -301.8, 501.1 -323.0, 501.1 -156.0 Z" fill="#E8FFF5" opacity="0.23" filter="url(#blur_dashboard_10_5536)"/>
  <path d="M 1418.2 325.0 C 1418.2 589.6, 1521.0 479.3, 1368.3 681.9 C 1215.6 884.6, 1241.7 931.7, 1007.7 977.7 C 773.7 1023.6, 847.4 990.5, 641.6 858.2 C 435.8 725.9, 521.5 783.8, 440.2 535.1 C 359.0 286.5, 333.8 377.4, 415.1 128.8 C 496.4 -119.9, 432.6 -84.8, 638.4 -217.1 C 844.1 -349.4, 779.4 -234.5, 1013.4 -188.6 C 1247.4 -142.6, 1167.7 -259.6, 1320.5 -56.9 C 1473.2 145.8, 1418.2 60.4, 1418.2 325.0 Z" fill="#E8FFF5" opacity="0.35" filter="url(#blur_dashboard_10_5536)"/>
  <path d="M 1386.7 1606.0 C 1386.7 1766.2, 1392.1 1747.3, 1324.7 1870.0 C 1257.3 1992.7, 1297.9 1894.5, 1194.6 1922.4 C 1091.4 1950.2, 1123.5 2005.2, 1032.7 1925.1 C 941.8 1845.0, 941.8 1894.4, 905.9 1743.8 C 870.1 1593.3, 896.7 1647.8, 932.6 1497.2 C 968.4 1346.7, 959.9 1358.5, 1050.7 1278.4 C 1141.5 1198.3, 1090.3 1203.4, 1193.5 1231.2 C 1296.8 1259.0, 1296.3 1294.1, 1363.7 1416.8 C 1431.1 1539.5, 1386.7 1445.8, 1386.7 1606.0 Z" fill="#A8F2C0" opacity="0.23" filter="url(#blur_dashboard_10_5536)"/>
  <path d="M 471.0 610.0 C 471.0 853.9, 579.9 738.1, 470.0 924.9 C 360.0 1111.8, 370.2 1166.9, 201.8 1209.3 C 33.4 1251.6, 80.2 1120.4, -67.9 998.4 C -216.0 876.5, -102.9 1021.5, -161.4 792.3 C -219.8 563.1, -256.4 660.9, -197.9 431.7 C -139.4 202.5, -229.3 264.9, -81.2 142.9 C 66.9 21.0, 48.5 73.7, 216.9 116.1 C 385.3 158.4, 329.3 128.8, 439.2 315.6 C 549.1 502.5, 471.0 366.1, 471.0 610.0 Z" fill="#F8FFFD" opacity="0.33" filter="url(#blur_dashboard_10_5536)"/>
  <path d="M 404.1 118.0 C 404.1 379.4, 464.2 314.0, 394.5 514.3 C 324.8 714.6, 346.6 609.9, 239.8 655.3 C 133.0 700.7, 169.3 825.9, 75.4 695.2 C -18.5 564.5, 43.5 550.1, 6.4 304.4 C -30.7 58.8, -31.3 169.4, 5.8 -76.3 C 42.9 -321.9, -3.8 -279.7, 90.1 -410.5 C 184.0 -541.2, 131.1 -504.8, 237.9 -459.4 C 344.7 -414.0, 326.6 -507.6, 396.3 -307.3 C 466.0 -107.0, 404.1 -143.4, 404.1 118.0 Z" fill="#D7F8E8" opacity="0.26" filter="url(#blur_dashboard_10_5536)"/>
  <path d="M 1324.3 1633.0 C 1324.3 1940.3, 1314.4 1859.4, 1199.0 2094.9 C 1083.6 2330.3, 1102.8 2248.1, 926.0 2301.5 C 749.2 2354.9, 839.0 2410.5, 683.6 2256.8 C 528.1 2103.1, 501.6 2143.4, 440.2 1854.6 C 378.8 1565.8, 398.6 1721.9, 460.0 1433.1 C 521.4 1144.3, 479.5 1159.0, 635.0 1005.3 C 790.5 851.7, 747.8 974.0, 924.6 1027.4 C 1101.4 1080.8, 1000.3 909.7, 1115.7 1145.1 C 1231.1 1380.6, 1324.3 1325.7, 1324.3 1633.0 Z" fill="#94D6FF" opacity="0.34" filter="url(#blur_dashboard_10_5536)"/>
  <path d="M 312.9 2197.0 C 312.9 2380.6, 255.9 2329.9, 142.8 2470.5 C 29.7 2611.2, 130.2 2614.9, -43.0 2646.8 C -216.3 2678.7, -139.7 2700.5, -292.1 2608.7 C -444.5 2516.9, -388.8 2497.7, -449.0 2325.2 C -509.2 2152.6, -602.1 2214.7, -541.9 2042.2 C -481.8 1869.7, -495.7 1915.3, -343.3 1823.5 C -190.9 1731.7, -237.2 1731.5, -63.9 1763.4 C 109.4 1795.3, 68.5 1833.6, 181.6 1974.3 C 294.7 2114.9, 312.9 2013.4, 312.9 2197.0 Z" fill="#F8FFFD" opacity="0.17" filter="url(#blur_dashboard_10_5536)"/>
  <path d="M 314.2 194.0 C 314.2 327.6, 299.2 308.2, 199.7 410.6 C 100.2 513.0, 203.6 490.1, 51.2 513.3 C -101.3 536.5, -81.7 483.2, -215.8 416.4 C -349.8 349.6, -307.3 425.7, -360.2 300.1 C -413.1 174.5, -425.2 205.3, -372.2 79.7 C -319.3 -45.9, -325.8 -26.0, -191.7 -92.9 C -57.6 -159.7, -120.6 -88.5, 31.8 -65.3 C 184.3 -42.1, 126.4 -91.9, 225.9 10.5 C 325.4 112.9, 314.2 60.3, 314.2 194.0 Z" fill="#D7F8E8" opacity="0.27" filter="url(#blur_dashboard_10_5536)"/>
  <path d="M 983.2 2169.0 C 983.2 2410.7, 1005.8 2380.7, 854.5 2565.8 C 703.2 2750.9, 770.9 2745.0, 539.2 2787.0 C 307.4 2828.9, 384.6 2724.7, 180.8 2603.9 C -23.0 2483.1, 95.8 2568.4, 15.3 2341.3 C -65.2 2114.3, -91.2 2192.9, -10.7 1965.8 C 69.8 1738.7, -16.4 1755.1, 187.5 1634.2 C 391.3 1513.4, 320.5 1652.3, 552.3 1694.2 C 784.1 1736.2, 770.3 1642.5, 921.6 1827.6 C 1072.8 2012.7, 983.2 1927.3, 983.2 2169.0 Z" fill="#BDEFFF" opacity="0.21" filter="url(#blur_dashboard_10_5536)"/>
  <path d="M 1074.4 2506.0 C 1074.4 2661.2, 1112.3 2627.9, 1013.1 2746.8 C 913.9 2865.7, 917.6 2878.2, 765.6 2905.2 C 613.6 2932.1, 652.8 2921.3, 519.1 2843.6 C 385.4 2766.0, 498.7 2754.5, 446.0 2608.6 C 393.2 2462.7, 374.9 2529.4, 427.7 2383.5 C 480.5 2237.6, 422.5 2243.4, 556.2 2165.7 C 689.8 2088.1, 626.7 2144.3, 778.7 2171.2 C 930.7 2198.2, 883.9 2143.9, 983.1 2262.8 C 1082.3 2381.8, 1074.4 2350.8, 1074.4 2506.0 Z" fill="#F8FFFD" opacity="0.36" filter="url(#blur_dashboard_10_5536)"/>
  <path d="M 1314.4 -76.0 C 1314.4 231.4, 1351.4 120.0, 1206.7 368.6 C 1062.0 617.3, 1218.2 470.7, 984.1 565.7 C 750.0 660.6, 855.8 735.8, 621.7 640.8 C 387.6 545.9, 542.2 571.3, 397.5 322.7 C 252.9 74.0, 317.5 231.4, 317.5 -76.0 C 317.5 -383.3, 153.5 -205.1, 298.2 -453.8 C 442.9 -702.5, 375.7 -581.8, 609.8 -676.7 C 843.9 -771.7, 749.4 -899.5, 983.5 -804.5 C 1217.6 -709.5, 1068.5 -675.7, 1213.2 -427.0 C 1357.9 -178.4, 1314.4 -383.4, 1314.4 -76.0 Z" fill="#94D6FF" opacity="0.12" stroke="#94D6FF" stroke-opacity="0.46" stroke-width="3" filter="url(#soft_dashboard_10_5536)"/>
  <path d="M 1314.4 -76.0 C 1314.4 231.4, 1351.4 120.0, 1206.7 368.6 C 1062.0 617.3, 1218.2 470.7, 984.1 565.7 C 750.0 660.6, 855.8 735.8, 621.7 640.8 C 387.6 545.9, 542.2 571.3, 397.5 322.7 C 252.9 74.0, 317.5 231.4, 317.5 -76.0 C 317.5 -383.3, 153.5 -205.1, 298.2 -453.8 C 442.9 -702.5, 375.7 -581.8, 609.8 -676.7 C 843.9 -771.7, 749.4 -899.5, 983.5 -804.5 C 1217.6 -709.5, 1068.5 -675.7, 1213.2 -427.0 C 1357.9 -178.4, 1314.4 -383.4, 1314.4 -76.0 Z" fill="none" stroke="#FFFFFF" stroke-opacity="0.22" stroke-width="1.2"/>
  <path d="M 1118.2 1692.0 C 1118.2 1913.0, 1183.4 1823.5, 1025.7 2002.3 C 868.1 2181.0, 935.5 2037.7, 680.4 2106.0 C 425.4 2174.3, 549.9 2185.1, 294.8 2116.8 C 39.7 2048.6, 217.6 2155.9, 59.9 1977.1 C -97.7 1798.4, -132.1 1913.0, -132.1 1692.0 C -132.1 1471.0, -210.9 1607.9, -53.3 1429.2 C 104.4 1250.4, 35.6 1257.1, 290.6 1188.9 C 545.7 1120.6, 407.1 1106.0, 662.2 1174.3 C 917.2 1242.6, 858.6 1225.3, 1016.2 1404.0 C 1173.9 1582.8, 1118.2 1471.0, 1118.2 1692.0 Z" fill="#A8F2C0" opacity="0.12" stroke="#FFFFFF" stroke-opacity="0.46" stroke-width="3" filter="url(#soft_dashboard_10_5536)"/>
  <path d="M 1118.2 1692.0 C 1118.2 1913.0, 1183.4 1823.5, 1025.7 2002.3 C 868.1 2181.0, 935.5 2037.7, 680.4 2106.0 C 425.4 2174.3, 549.9 2185.1, 294.8 2116.8 C 39.7 2048.6, 217.6 2155.9, 59.9 1977.1 C -97.7 1798.4, -132.1 1913.0, -132.1 1692.0 C -132.1 1471.0, -210.9 1607.9, -53.3 1429.2 C 104.4 1250.4, 35.6 1257.1, 290.6 1188.9 C 545.7 1120.6, 407.1 1106.0, 662.2 1174.3 C 917.2 1242.6, 858.6 1225.3, 1016.2 1404.0 C 1173.9 1582.8, 1118.2 1471.0, 1118.2 1692.0 Z" fill="none" stroke="#FFFFFF" stroke-opacity="0.22" stroke-width="1.2"/>
  <path d="M 1842.3 2236.0 C 1842.3 2606.8, 1910.3 2479.7, 1728.4 2779.7 C 1546.4 3079.7, 1614.7 3005.8, 1320.2 3120.3 C 1025.8 3234.9, 1174.7 3198.2, 880.3 3083.6 C 585.8 2969.0, 687.6 3039.2, 505.6 2739.2 C 323.6 2439.2, 508.2 2606.8, 508.2 2236.0 C 508.2 1865.2, 330.1 2107.1, 512.0 1807.1 C 694.0 1507.1, 578.6 1547.1, 873.0 1432.5 C 1167.5 1317.9, 1033.5 1278.2, 1328.0 1392.8 C 1622.4 1507.4, 1406.2 1446.4, 1588.2 1746.3 C 1770.2 2046.3, 1842.3 1865.2, 1842.3 2236.0 Z" fill="#94D6FF" opacity="0.12" stroke="#94D6FF" stroke-opacity="0.46" stroke-width="3" filter="url(#soft_dashboard_10_5536)"/>
  <path d="M 1842.3 2236.0 C 1842.3 2606.8, 1910.3 2479.7, 1728.4 2779.7 C 1546.4 3079.7, 1614.7 3005.8, 1320.2 3120.3 C 1025.8 3234.9, 1174.7 3198.2, 880.3 3083.6 C 585.8 2969.0, 687.6 3039.2, 505.6 2739.2 C 323.6 2439.2, 508.2 2606.8, 508.2 2236.0 C 508.2 1865.2, 330.1 2107.1, 512.0 1807.1 C 694.0 1507.1, 578.6 1547.1, 873.0 1432.5 C 1167.5 1317.9, 1033.5 1278.2, 1328.0 1392.8 C 1622.4 1507.4, 1406.2 1446.4, 1588.2 1746.3 C 1770.2 2046.3, 1842.3 1865.2, 1842.3 2236.0 Z" fill="none" stroke="#FFFFFF" stroke-opacity="0.22" stroke-width="1.2"/>
  <path d="M 1923.6 2872.0 C 1923.6 3260.8, 1972.8 3106.5, 1815.5 3421.1 C 1658.1 3735.6, 1729.6 3592.7, 1475.0 3712.8 C 1220.4 3833.0, 1367.2 3751.8, 1112.5 3631.6 C 857.9 3511.5, 954.8 3648.7, 797.4 3334.2 C 640.1 3019.6, 677.6 3260.8, 677.6 2872.0 C 677.6 2483.2, 704.0 2656.9, 861.4 2342.4 C 1018.8 2027.9, 876.2 2083.0, 1130.9 1962.9 C 1385.5 1842.7, 1243.7 2045.2, 1498.3 2165.3 C 1753.0 2285.5, 1666.9 2054.7, 1824.3 2369.2 C 1981.7 2683.8, 1923.6 2483.2, 1923.6 2872.0 Z" fill="#BDEFFF" opacity="0.12" stroke="#BDEFFF" stroke-opacity="0.46" stroke-width="3" filter="url(#soft_dashboard_10_5536)"/>
  <path d="M 1923.6 2872.0 C 1923.6 3260.8, 1972.8 3106.5, 1815.5 3421.1 C 1658.1 3735.6, 1729.6 3592.7, 1475.0 3712.8 C 1220.4 3833.0, 1367.2 3751.8, 1112.5 3631.6 C 857.9 3511.5, 954.8 3648.7, 797.4 3334.2 C 640.1 3019.6, 677.6 3260.8, 677.6 2872.0 C 677.6 2483.2, 704.0 2656.9, 861.4 2342.4 C 1018.8 2027.9, 876.2 2083.0, 1130.9 1962.9 C 1385.5 1842.7, 1243.7 2045.2, 1498.3 2165.3 C 1753.0 2285.5, 1666.9 2054.7, 1824.3 2369.2 C 1981.7 2683.8, 1923.6 2483.2, 1923.6 2872.0 Z" fill="none" stroke="#FFFFFF" stroke-opacity="0.22" stroke-width="1.2"/>
  <path d="M -100.0 318.4 Q 133.3 377.1, 366.7 778.2 Q 600.0 724.1, 833.3 281.6 Q 1066.7 163.0, 1300.0 642.1" fill="none" stroke="#FFFFFF" stroke-opacity="0.38" stroke-width="4" filter="url(#soft_dashboard_10_5536)"/>
  <path d="M -100.0 318.4 Q 133.3 377.1, 366.7 778.2 Q 600.0 724.1, 833.3 281.6 Q 1066.7 163.0, 1300.0 642.1" fill="none" stroke="#5DE0D7" stroke-opacity="0.18" stroke-width="2"/>
  <path d="M -100.0 1925.2 Q 133.3 1881.8, 366.7 2195.1 Q 600.0 2307.4, 833.3 2029.0 Q 1066.7 2010.8, 1300.0 2001.3" fill="none" stroke="#FFFFFF" stroke-opacity="0.38" stroke-width="4" filter="url(#soft_dashboard_10_5536)"/>
  <path d="M -100.0 1925.2 Q 133.3 1881.8, 366.7 2195.1 Q 600.0 2307.4, 833.3 2029.0 Q 1066.7 2010.8, 1300.0 2001.3" fill="none" stroke="#A8F2C0" stroke-opacity="0.18" stroke-width="2"/>
  <path d="M -100.0 2552.8 Q 133.3 2361.9, 366.7 2759.9 Q 600.0 2962.7, 833.3 2757.4 Q 1066.7 2359.9, 1300.0 2561.9" fill="none" stroke="#FFFFFF" stroke-opacity="0.38" stroke-width="4" filter="url(#soft_dashboard_10_5536)"/>
  <path d="M -100.0 2552.8 Q 133.3 2361.9, 366.7 2759.9 Q 600.0 2962.7, 833.3 2757.4 Q 1066.7 2359.9, 1300.0 2561.9" fill="none" stroke="#5DE0D7" stroke-opacity="0.18" stroke-width="2"/>
  <path d="M -100.0 1788.0 Q 133.3 1593.8, 366.7 1744.5 Q 600.0 1968.2, 833.3 2151.9 Q 1066.7 2096.3, 1300.0 1889.0" fill="none" stroke="#FFFFFF" stroke-opacity="0.38" stroke-width="4" filter="url(#soft_dashboard_10_5536)"/>
  <path d="M -100.0 1788.0 Q 133.3 1593.8, 366.7 1744.5 Q 600.0 1968.2, 833.3 2151.9 Q 1066.7 2096.3, 1300.0 1889.0" fill="none" stroke="#A8F2C0" stroke-opacity="0.18" stroke-width="2"/>
  <path d="M -100.0 206.5 Q 133.3 -98.5, 366.7 164.9 Q 600.0 511.8, 833.3 185.1 Q 1066.7 -14.7, 1300.0 220.7" fill="none" stroke="#FFFFFF" stroke-opacity="0.38" stroke-width="4" filter="url(#soft_dashboard_10_5536)"/>
  <path d="M -100.0 206.5 Q 133.3 -98.5, 366.7 164.9 Q 600.0 511.8, 833.3 185.1 Q 1066.7 -14.7, 1300.0 220.7" fill="none" stroke="#94D6FF" stroke-opacity="0.18" stroke-width="2"/>
  <circle cx="758" cy="1522" r="198" fill="url(#orb_dashboard_10_5536)" opacity="0.36"/>
  <circle cx="758" cy="1522" r="198" fill="#E8FFF5" opacity="0.08"/>
  <circle cx="758" cy="1522" r="198" fill="none" stroke="#FFFFFF" stroke-opacity="0.56" stroke-width="3"/>
  <ellipse cx="702.6" cy="1450.7" rx="35.6" ry="15.8" fill="#FFFFFF" opacity="0.42" transform="rotate(-22 702.6 1450.7)"/>
  <circle cx="284" cy="1088" r="165" fill="url(#orb_dashboard_10_5536)" opacity="0.36"/>
  <circle cx="284" cy="1088" r="165" fill="#F8FFFD" opacity="0.08"/>
  <circle cx="284" cy="1088" r="165" fill="none" stroke="#FFFFFF" stroke-opacity="0.56" stroke-width="3"/>
  <ellipse cx="237.8" cy="1028.6" rx="29.7" ry="13.2" fill="#FFFFFF" opacity="0.42" transform="rotate(-22 237.8 1028.6)"/>
  <circle cx="679" cy="2393" r="115" fill="url(#orb_dashboard_10_5536)" opacity="0.36"/>
  <circle cx="679" cy="2393" r="115" fill="#F8FFFD" opacity="0.08"/>
  <circle cx="679" cy="2393" r="115" fill="none" stroke="#FFFFFF" stroke-opacity="0.56" stroke-width="3"/>
  <ellipse cx="646.8" cy="2351.6" rx="20.7" ry="9.2" fill="#FFFFFF" opacity="0.42" transform="rotate(-22 646.8 2351.6)"/>
  <circle cx="91" cy="1082" r="141" fill="url(#orb_dashboard_10_5536)" opacity="0.17"/>
  <circle cx="91" cy="1082" r="141" fill="#D7F8E8" opacity="0.08"/>
  <circle cx="91" cy="1082" r="141" fill="none" stroke="#FFFFFF" stroke-opacity="0.56" stroke-width="3"/>
  <ellipse cx="51.5" cy="1031.2" rx="25.4" ry="11.3" fill="#FFFFFF" opacity="0.42" transform="rotate(-22 51.5 1031.2)"/>
  <circle cx="1010" cy="2095" r="137" fill="url(#orb_dashboard_10_5536)" opacity="0.28"/>
  <circle cx="1010" cy="2095" r="137" fill="#E8FFF5" opacity="0.08"/>
  <circle cx="1010" cy="2095" r="137" fill="none" stroke="#FFFFFF" stroke-opacity="0.56" stroke-width="3"/>
  <ellipse cx="971.6" cy="2045.7" rx="24.7" ry="11.0" fill="#FFFFFF" opacity="0.42" transform="rotate(-22 971.6 2045.7)"/>
  <circle cx="53" cy="845" r="238" fill="url(#orb_dashboard_10_5536)" opacity="0.18"/>
  <circle cx="53" cy="845" r="238" fill="#E8FFF5" opacity="0.08"/>
  <circle cx="53" cy="845" r="238" fill="none" stroke="#FFFFFF" stroke-opacity="0.56" stroke-width="3"/>
  <ellipse cx="-13.6" cy="759.3" rx="42.8" ry="19.0" fill="#FFFFFF" opacity="0.42" transform="rotate(-22 -13.6 759.3)"/>
  <circle cx="825" cy="2615" r="110" fill="url(#orb_dashboard_10_5536)" opacity="0.19"/>
  <circle cx="825" cy="2615" r="110" fill="#E8FFF5" opacity="0.08"/>
  <circle cx="825" cy="2615" r="110" fill="none" stroke="#FFFFFF" stroke-opacity="0.56" stroke-width="3"/>
  <ellipse cx="794.2" cy="2575.4" rx="19.8" ry="8.8" fill="#FFFFFF" opacity="0.42" transform="rotate(-22 794.2 2575.4)"/>
  <circle cx="965" cy="910" r="88" fill="url(#orb_dashboard_10_5536)" opacity="0.22"/>
  <circle cx="965" cy="910" r="88" fill="#F8FFFD" opacity="0.08"/>
  <circle cx="965" cy="910" r="88" fill="none" stroke="#FFFFFF" stroke-opacity="0.56" stroke-width="3"/>
  <ellipse cx="940.4" cy="878.3" rx="15.8" ry="7.0" fill="#FFFFFF" opacity="0.42" transform="rotate(-22 940.4 878.3)"/>
  <circle cx="361" cy="320" r="139" fill="url(#orb_dashboard_10_5536)" opacity="0.21"/>
  <circle cx="361" cy="320" r="139" fill="#A4E6F5" opacity="0.08"/>
  <circle cx="361" cy="320" r="139" fill="none" stroke="#FFFFFF" stroke-opacity="0.56" stroke-width="3"/>
  <ellipse cx="322.1" cy="270.0" rx="25.0" ry="11.1" fill="#FFFFFF" opacity="0.42" transform="rotate(-22 322.1 270.0)"/>
  <circle cx="115" cy="195" r="260" fill="url(#orb_dashboard_10_5536)" opacity="0.19"/>
  <circle cx="115" cy="195" r="260" fill="#94D6FF" opacity="0.08"/>
  <circle cx="115" cy="195" r="260" fill="none" stroke="#FFFFFF" stroke-opacity="0.56" stroke-width="3"/>
  <ellipse cx="42.2" cy="101.4" rx="46.8" ry="20.8" fill="#FFFFFF" opacity="0.42" transform="rotate(-22 42.2 101.4)"/>
  <circle cx="388" cy="1264" r="2" fill="#FFFFFF" opacity="0.45"/>
  <circle cx="458" cy="1749" r="2" fill="#FFFFFF" opacity="0.29"/>
  <circle cx="658" cy="822" r="3" fill="#FFFFFF" opacity="0.29"/>
  <circle cx="130" cy="158" r="7" fill="#FFFFFF" opacity="0.47"/>
  <circle cx="700" cy="489" r="2" fill="#FFFFFF" opacity="0.66"/>
  <circle cx="241" cy="894" r="7" fill="#FFFFFF" opacity="0.63"/>
  <circle cx="131" cy="818" r="3" fill="#FFFFFF" opacity="0.49"/>
  <circle cx="72" cy="2145" r="4" fill="#FFFFFF" opacity="0.54"/>
  <circle cx="922" cy="1403" r="7" fill="#FFFFFF" opacity="0.50"/>
  <circle cx="670" cy="775" r="2" fill="#FFFFFF" opacity="0.71"/>
  <circle cx="1031" cy="1745" r="7" fill="#FFFFFF" opacity="0.30"/>
  <circle cx="512" cy="335" r="2" fill="#FFFFFF" opacity="0.56"/>
  <circle cx="970" cy="2298" r="2" fill="#FFFFFF" opacity="0.43"/>
  <circle cx="1113" cy="1556" r="5" fill="#FFFFFF" opacity="0.44"/>
  <circle cx="355" cy="1590" r="3" fill="#FFFFFF" opacity="0.62"/>
  <rect width="1200" height="2600" fill="#FFFFFF" opacity="0.08"/>
  <rect width="1200" height="2600" filter="url(#grain_dashboard_10_5536)" opacity="0.7"/>
</svg>
