<svg xmlns="http://www.w3.org/2000/svg" width="1200" height="2600" viewBox="0 0 1200 2600" preserveAspectRatio="xMidYMid slice">
  <defs>
    <linearGradient id="bg_dashboard_04_9613" x1="0" y1="0" x2="1" y2="1">
      <stop offset="0%" stop-color="#F8FFFD"/>
      <stop offset="48%" stop-color="#BDEFFF"/>
      <stop offset="100%" stop-color="#E8FFF5"/>
    </linearGradient>
    <radialGradient id="orb_dashboard_04_9613" cx="35%" cy="30%" r="70%">
      <stop offset="0%" stop-color="#FFFFFF" stop-opacity="0.85"/>
      <stop offset="42%" stop-color="#FFFFFF" stop-opacity="0.20"/>
      <stop offset="100%" stop-color="#FFFFFF" stop-opacity="0.02"/>
    </radialGradient>
    <filter id="blur_dashboard_04_9613" x="-30%" y="-30%" width="160%" height="160%">
      <feGaussianBlur stdDeviation="72"/>
    </filter>
    <filter id="soft_dashboard_04_9613" x="-20%" y="-20%" width="140%" height="140%">
      <feGaussianBlur stdDeviation="10"/>
    </filter>
    <filter id="grain_dashboard_04_9613">
      <feTurbulence type="fractalNoise" baseFrequency="0.85" numOctaves="2" stitchTiles="stitch"/>
      <feColorMatrix type="saturate" values="0"/>
      <feComponentTransfer>
        <feFuncA type="table" tableValues="0 0.035"/>
      </feComponentTransfer>
    </filter>
  </defs>
  <rect width="1200" height="2600" fill="url(#bg_dashboard_04_9613)"/>
  <path d="M 1134.0 2594.0 C 1134.0 2752.4, 1156.4 2717.2, 1011.8 2838.6 C 867.2 2959.9, 976.4 2972.3, 754.8 2999.8 C 533.3 3027.3, 648.8 2924.2, 453.9 2845.0 C 259.0 2765.8, 242.2 2860.6, 165.3 2711.8 C 88.3 2562.9, 100.2 2639.3, 177.2 2490.4 C 254.1 2341.6, 275.0 2393.4, 469.8 2314.2 C 664.7 2235.0, 530.8 2272.5, 752.3 2300.0 C 973.9 2327.6, 938.1 2273.2, 1082.7 2394.6 C 1227.3 2515.9, 1134.0 2435.6, 1134.0 2594.0 Z" fill="#F8FFFD" opacity="0.31" filter="url(#blur_dashboard_04_9613)"/>
  <path d="M 227.8 1562.0 C 227.8 1826.2, 260.4 1679.5, 184.6 1881.9 C 108.8 2084.2, 137.5 1994.5, 21.4 2040.4 C -94.7 2086.3, -73.8 2121.1, -175.9 1989.0 C -278.0 1856.9, -267.6 1992.0, -307.9 1743.8 C -348.2 1495.6, -354.7 1596.7, -314.4 1348.5 C -274.0 1100.3, -286.6 1238.7, -184.5 1106.6 C -82.4 974.6, -102.2 838.2, 14.0 884.1 C 130.1 930.0, 90.5 972.2, 166.2 1174.5 C 242.0 1376.9, 227.8 1297.8, 227.8 1562.0 Z" fill="#A4E6F5" opacity="0.34" filter="url(#blur_dashboard_04_9613)"/>
  <path d="M 1193.5 905.0 C 1193.5 1161.5, 1280.8 1069.5, 1177.0 1266.0 C 1073.1 1462.5, 1078.9 1499.1, 919.8 1543.7 C 760.7 1588.2, 801.9 1440.3, 662.0 1312.1 C 522.1 1183.8, 587.7 1352.9, 532.4 1111.9 C 477.2 870.9, 514.4 949.2, 569.6 708.2 C 624.9 467.2, 577.8 463.2, 717.8 335.0 C 857.7 206.7, 772.5 210.2, 931.6 254.7 C 1090.7 299.3, 1037.3 339.9, 1141.1 536.4 C 1245.0 732.9, 1193.5 648.5, 1193.5 905.0 Z" fill="#94D6FF" opacity="0.30" filter="url(#blur_dashboard_04_9613)"/>
  <path d="M 678.8 1137.0 C 678.8 1419.2, 766.1 1314.1, 614.0 1530.2 C 461.8 1746.3, 508.4 1615.2, 275.3 1664.2 C 42.2 1713.2, 124.8 1798.8, -80.2 1657.7 C -285.2 1516.6, -307.8 1619.1, -388.7 1354.0 C -469.7 1088.8, -418.3 1158.3, -337.3 893.2 C -256.3 628.1, -323.8 786.2, -118.8 645.1 C 86.2 504.1, 47.5 521.8, 280.6 570.8 C 513.7 619.8, 390.9 550.6, 543.0 766.7 C 695.2 982.9, 678.8 854.8, 678.8 1137.0 Z" fill="#A4E6F5" opacity="0.38" filter="url(#blur_dashboard_04_9613)"/>
  <path d="M 259.3 1793.0 C 259.3 1980.2, 261.8 1881.4, 185.1 2024.8 C 108.5 2168.2, 148.6 2216.2, 31.2 2248.7 C -86.3 2281.2, -30.2 2278.6, -133.4 2185.0 C -236.7 2091.4, -218.2 2119.2, -259.0 1943.3 C -299.8 1767.4, -281.9 1848.8, -241.1 1672.9 C -200.3 1497.0, -270.3 1530.7, -167.1 1437.1 C -63.8 1343.5, -88.9 1365.1, 28.5 1397.6 C 146.0 1430.2, 89.5 1385.4, 166.2 1528.8 C 242.8 1672.2, 259.3 1605.8, 259.3 1793.0 Z" fill="#94D6FF" opacity="0.16" filter="url(#blur_dashboard_04_9613)"/>
  <path d="M 178.9 1845.0 C 178.9 2010.2, 268.5 1951.5, 161.2 2078.0 C 53.9 2204.5, 80.2 2150.7, -84.2 2179.3 C -248.6 2208.0, -176.3 2301.5, -320.9 2218.9 C -465.5 2136.3, -469.7 2137.6, -526.8 1982.4 C -583.9 1827.2, -566.5 1878.8, -509.4 1723.6 C -452.3 1568.4, -453.7 1611.8, -309.1 1529.3 C -164.5 1446.7, -253.4 1482.6, -89.0 1511.3 C 75.4 1540.0, 39.3 1468.5, 146.6 1595.0 C 254.0 1721.5, 178.9 1679.8, 178.9 1845.0 Z" fill="#A8F2C0" opacity="0.35" filter="url(#blur_dashboard_04_9613)"/>
  <path d="M 1074.5 259.0 C 1074.5 385.4, 1168.2 371.8, 1013.7 468.6 C 859.3 565.5, 951.8 554.7, 715.1 576.6 C 478.5 598.6, 593.2 579.9, 385.1 516.7 C 177.0 453.4, 213.0 485.5, 130.9 366.7 C 48.7 247.8, -0.2 266.3, 82.0 147.5 C 164.2 28.7, 103.5 65.7, 311.6 2.5 C 519.7 -60.7, 493.6 -9.2, 730.3 12.8 C 966.9 34.7, 870.1 4.1, 1024.5 101.0 C 1179.0 197.8, 1074.5 132.6, 1074.5 259.0 Z" fill="#5DE0D7" opacity="0.24" filter="url(#blur_dashboard_04_9613)"/>
  <path d="M 642.3 2793.0 C 642.3 3028.8, 690.8 2911.8, 623.4 3092.4 C 556.0 3273.0, 575.7 3219.0, 472.5 3259.9 C 369.2 3300.9, 401.3 3421.8, 310.5 3303.9 C 219.7 3186.0, 264.7 3175.1, 228.9 2953.5 C 193.0 2731.9, 188.4 2856.0, 224.3 2634.4 C 260.1 2412.9, 208.4 2410.8, 299.2 2292.9 C 390.0 2175.0, 371.7 2169.7, 474.9 2210.6 C 578.2 2251.6, 545.6 2244.0, 613.0 2424.6 C 680.4 2605.2, 642.3 2557.2, 642.3 2793.0 Z" fill="#94D6FF" opacity="0.25" filter="url(#blur_dashboard_04_9613)"/>
  <path d="M 938.7 964.0 C 938.7 1173.2, 886.8 1063.5, 744.2 1223.8 C 601.6 1384.1, 676.6 1343.9, 458.2 1380.3 C 239.7 1416.6, 296.0 1493.7, 103.9 1389.1 C -88.2 1284.5, -22.0 1299.4, -97.9 1102.8 C -173.8 906.2, -148.3 977.3, -72.4 780.6 C 3.5 584.0, -28.8 672.3, 163.3 567.7 C 355.4 463.0, 236.0 412.5, 454.5 448.8 C 673.0 485.1, 598.6 549.7, 741.2 710.0 C 883.8 870.3, 938.7 754.8, 938.7 964.0 Z" fill="#D7F8E8" opacity="0.24" filter="url(#blur_dashboard_04_9613)"/>
  <path d="M 890.3 755.0 C 890.3 948.5, 1032.9 914.6, 881.9 1062.8 C 730.9 1211.1, 762.4 1134.1, 531.1 1167.7 C 299.7 1201.3, 402.3 1241.0, 198.9 1144.3 C -4.5 1047.5, 51.3 1085.5, -29.1 903.7 C -109.4 721.8, -193.0 798.2, -112.6 616.4 C -32.3 434.6, 6.7 414.5, 210.1 317.7 C 413.6 221.0, 291.3 276.4, 522.6 310.0 C 754.0 343.6, 741.6 301.6, 892.5 449.8 C 1043.5 598.1, 890.3 561.5, 890.3 755.0 Z" fill="#D7F8E8" opacity="0.30" filter="url(#blur_dashboard_04_9613)"/>
  <path d="M 1298.2 2075.0 C 1298.2 2195.2, 1360.8 2124.9, 1278.3 2217.0 C 1195.9 2309.0, 1223.3 2272.2, 1097.0 2293.1 C 970.7 2314.0, 1045.4 2345.1, 934.4 2285.0 C 823.3 2224.9, 854.9 2283.9, 811.0 2171.0 C 767.1 2058.1, 756.7 2105.8, 800.6 1992.9 C 844.5 1880.0, 810.0 1880.1, 921.1 1820.0 C 1032.1 1759.9, 979.5 1835.5, 1105.8 1856.4 C 1232.1 1877.2, 1165.5 1817.4, 1247.9 1909.4 C 1330.4 2001.5, 1298.2 1954.8, 1298.2 2075.0 Z" fill="#E8FFF5" opacity="0.20" filter="url(#blur_dashboard_04_9613)"/>
  <path d="M 1576.3 -44.0 C 1576.3 143.2, 1551.9 39.1, 1467.2 190.6 C 1382.6 342.0, 1465.5 243.5, 1328.6 301.4 C 1191.6 359.2, 1276.4 450.8, 1139.4 392.9 C 1002.5 335.1, 1080.5 318.8, 995.9 167.4 C 911.3 15.9, 905.3 143.2, 905.3 -44.0 C 905.3 -231.2, 860.0 -123.7, 944.7 -275.2 C 1029.3 -426.6, 981.4 -413.5, 1118.4 -471.3 C 1255.4 -529.2, 1195.1 -504.6, 1332.1 -446.8 C 1469.0 -389.0, 1430.1 -408.0, 1514.8 -256.6 C 1599.4 -105.1, 1576.3 -231.2, 1576.3 -44.0 Z" fill="#94D6FF" opacity="0.12" stroke="#94D6FF" stroke-opacity="0.46" stroke-width="3" filter="url(#soft_dashboard_04_9613)"/>
  <path d="M 1576.3 -44.0 C 1576.3 143.2, 1551.9 39.1, 1467.2 190.6 C 1382.6 342.0, 1465.5 243.5, 1328.6 301.4 C 1191.6 359.2, 1276.4 450.8, 1139.4 392.9 C 1002.5 335.1, 1080.5 318.8, 995.9 167.4 C 911.3 15.9, 905.3 143.2, 905.3 -44.0 C 905.3 -231.2, 860.0 -123.7, 944.7 -275.2 C 1029.3 -426.6, 981.4 -413.5, 1118.4 -471.3 C 1255.4 -529.2, 1195.1 -504.6, 1332.1 -446.8 C 1469.0 -389.0, 1430.1 -408.0, 1514.8 -256.6 C 1599.4 -105.1, 1576.3 -231.2, 1576.3 -44.0 Z" fill="none" stroke="#FFFFFF" stroke-opacity="0.22" stroke-width="1.2"/>
  <path d="M 1409.1 1378.0 C 1409.1 1728.5, 1488.2 1526.4, 1384.0 1810.0 C 1279.8 2093.6, 1345.4 1933.0, 1176.8 2041.3 C 1008.2 2149.6, 1113.3 2248.3, 944.7 2140.0 C 776.1 2031.6, 871.6 2136.2, 767.4 1852.6 C 663.2 1569.0, 686.6 1728.5, 686.6 1378.0 C 686.6 1027.5, 645.5 1181.2, 749.7 897.6 C 853.9 614.0, 770.1 749.9, 938.7 641.6 C 1107.3 533.3, 1030.6 531.6, 1199.2 639.9 C 1367.9 748.3, 1292.6 620.8, 1396.8 904.4 C 1501.0 1188.0, 1409.1 1027.5, 1409.1 1378.0 Z" fill="#5DE0D7" opacity="0.12" stroke="#FFFFFF" stroke-opacity="0.46" stroke-width="3" filter="url(#soft_dashboard_04_9613)"/>
  <path d="M 1409.1 1378.0 C 1409.1 1728.5, 1488.2 1526.4, 1384.0 1810.0 C 1279.8 2093.6, 1345.4 1933.0, 1176.8 2041.3 C 1008.2 2149.6, 1113.3 2248.3, 944.7 2140.0 C 776.1 2031.6, 871.6 2136.2, 767.4 1852.6 C 663.2 1569.0, 686.6 1728.5, 686.6 1378.0 C 686.6 1027.5, 645.5 1181.2, 749.7 897.6 C 853.9 614.0, 770.1 749.9, 938.7 641.6 C 1107.3 533.3, 1030.6 531.6, 1199.2 639.9 C 1367.9 748.3, 1292.6 620.8, 1396.8 904.4 C 1501.0 1188.0, 1409.1 1027.5, 1409.1 1378.0 Z" fill="none" stroke="#FFFFFF" stroke-opacity="0.22" stroke-width="1.2"/>
  <path d="M 1777.6 2775.0 C 1777.6 3068.8, 1804.1 2931.4, 1672.3 3169.1 C 1540.6 3406.8, 1677.4 3227.0, 1464.3 3317.8 C 1251.1 3408.6, 1393.3 3411.8, 1180.1 3321.0 C 967.0 3230.2, 1006.9 3370.0, 875.2 3132.3 C 743.4 2894.6, 765.4 3068.8, 765.4 2775.0 C 765.4 2481.2, 764.6 2622.4, 896.3 2384.7 C 1028.1 2146.9, 974.7 2250.7, 1187.8 2159.9 C 1400.9 2069.1, 1276.9 2097.2, 1490.1 2188.0 C 1703.2 2278.9, 1575.8 2140.8, 1707.5 2378.5 C 1839.3 2616.2, 1777.6 2481.2, 1777.6 2775.0 Z" fill="#5DE0D7" opacity="0.12" stroke="#5DE0D7" stroke-opacity="0.46" stroke-width="3" filter="url(#soft_dashboard_04_9613)"/>
  <path d="M 1777.6 2775.0 C 1777.6 3068.8, 1804.1 2931.4, 1672.3 3169.1 C 1540.6 3406.8, 1677.4 3227.0, 1464.3 3317.8 C 1251.1 3408.6, 1393.3 3411.8, 1180.1 3321.0 C 967.0 3230.2, 1006.9 3370.0, 875.2 3132.3 C 743.4 2894.6, 765.4 3068.8, 765.4 2775.0 C 765.4 2481.2, 764.6 2622.4, 896.3 2384.7 C 1028.1 2146.9, 974.7 2250.7, 1187.8 2159.9 C 1400.9 2069.1, 1276.9 2097.2, 1490.1 2188.0 C 1703.2 2278.9, 1575.8 2140.8, 1707.5 2378.5 C 1839.3 2616.2, 1777.6 2481.2, 1777.6 2775.0 Z" fill="none" stroke="#FFFFFF" stroke-opacity="0.22" stroke-width="1.2"/>
  <path d="M 1385.4 -190.0 C 1385.4 60.7, 1468.7 -60.6, 1320.6 142.2 C 1172.5 345.0, 1322.0 300.8, 1082.3 378.3 C 842.7 455.7, 947.2 418.7, 707.5 341.2 C 467.8 263.7, 544.2 357.9, 396.0 155.1 C 247.9 -47.7, 336.3 60.7, 336.3 -190.0 C 336.3 -440.6, 254.1 -329.6, 402.2 -532.4 C 550.4 -735.2, 470.9 -659.1, 710.6 -736.5 C 950.2 -814.0, 812.8 -858.6, 1052.5 -781.1 C 1292.2 -703.7, 1221.5 -746.8, 1369.6 -544.0 C 1517.7 -341.2, 1385.4 -440.6, 1385.4 -190.0 Z" fill="#D7F8E8" opacity="0.12" stroke="#D7F8E8" stroke-opacity="0.46" stroke-width="3" filter="url(#soft_dashboard_04_9613)"/>
  <path d="M 1385.4 -190.0 C 1385.4 60.7, 1468.7 -60.6, 1320.6 142.2 C 1172.5 345.0, 1322.0 300.8, 1082.3 378.3 C 842.7 455.7, 947.2 418.7, 707.5 341.2 C 467.8 263.7, 544.2 357.9, 396.0 155.1 C 247.9 -47.7, 336.3 60.7, 336.3 -190.0 C 336.3 -440.6, 254.1 -329.6, 402.2 -532.4 C 550.4 -735.2, 470.9 -659.1, 710.6 -736.5 C 950.2 -814.0, 812.8 -858.6, 1052.5 -781.1 C 1292.2 -703.7, 1221.5 -746.8, 1369.6 -544.0 C 1517.7 -341.2, 1385.4 -440.6, 1385.4 -190.0 Z" fill="none" stroke="#FFFFFF" stroke-opacity="0.22" stroke-width="1.2"/>
  <path d="M 1507.5 147.0 C 1507.5 327.5, 1531.3 236.5, 1386.3 382.5 C 1241.4 528.5, 1330.2 525.3, 1095.6 581.0 C 861.1 636.8, 989.8 556.1, 755.3 500.3 C 520.7 444.5, 661.9 525.8, 516.9 379.8 C 372.0 233.8, 436.5 327.5, 436.5 147.0 C 436.5 -33.4, 330.8 80.8, 475.7 -65.1 C 620.7 -211.1, 527.1 -187.2, 761.7 -243.0 C 996.2 -298.7, 872.4 -303.3, 1107.0 -247.5 C 1341.5 -191.8, 1178.2 -241.3, 1323.1 -95.3 C 1468.1 50.7, 1507.5 -33.5, 1507.5 147.0 Z" fill="#BDEFFF" opacity="0.12" stroke="#BDEFFF" stroke-opacity="0.46" stroke-width="3" filter="url(#soft_dashboard_04_9613)"/>
  <path d="M 1507.5 147.0 C 1507.5 327.5, 1531.3 236.5, 1386.3 382.5 C 1241.4 528.5, 1330.2 525.3, 1095.6 581.0 C 861.1 636.8, 989.8 556.1, 755.3 500.3 C 520.7 444.5, 661.9 525.8, 516.9 379.8 C 372.0 233.8, 436.5 327.5, 436.5 147.0 C 436.5 -33.4, 330.8 80.8, 475.7 -65.1 C 620.7 -211.1, 527.1 -187.2, 761.7 -243.0 C 996.2 -298.7, 872.4 -303.3, 1107.0 -247.5 C 1341.5 -191.8, 1178.2 -241.3, 1323.1 -95.3 C 1468.1 50.7, 1507.5 -33.5, 1507.5 147.0 Z" fill="none" stroke="#FFFFFF" stroke-opacity="0.22" stroke-width="1.2"/>
  <path d="M 251.3 960.0 C 251.3 1284.9, 282.9 1159.8, 159.1 1422.6 C 35.3 1685.5, 125.9 1504.0, -74.4 1604.4 C -274.7 1704.8, -180.5 1676.3, -380.8 1575.9 C -581.1 1475.5, -478.0 1621.6, -601.8 1358.8 C -725.6 1095.9, -665.1 1284.9, -665.1 960.0 C -665.1 635.1, -679.6 780.2, -555.8 517.4 C -432.0 254.5, -563.8 370.9, -363.6 270.5 C -163.3 170.1, -296.9 242.0, -96.6 342.4 C 103.7 442.8, 34.9 304.0, 158.7 566.9 C 282.5 829.7, 251.3 635.1, 251.3 960.0 Z" fill="#A4E6F5" opacity="0.12" stroke="#FFFFFF" stroke-opacity="0.46" stroke-width="3" filter="url(#soft_dashboard_04_9613)"/>
  <path d="M 251.3 960.0 C 251.3 1284.9, 282.9 1159.8, 159.1 1422.6 C 35.3 1685.5, 125.9 1504.0, -74.4 1604.4 C -274.7 1704.8, -180.5 1676.3, -380.8 1575.9 C -581.1 1475.5, -478.0 1621.6, -601.8 1358.8 C -725.6 1095.9, -665.1 1284.9, -665.1 960.0 C -665.1 635.1, -679.6 780.2, -555.8 517.4 C -432.0 254.5, -563.8 370.9, -363.6 270.5 C -163.3 170.1, -296.9 242.0, -96.6 342.4 C 103.7 442.8, 34.9 304.0, 158.7 566.9 C 282.5 829.7, 251.3 635.1, 251.3 960.0 Z" fill="none" stroke="#FFFFFF" stroke-opacity="0.22" stroke-width="1.2"/>
  <path d="M -100.0 489.4 Q 133.3 135.6, 366.7 -56.2 Q 600.0 -44.0, 833.3 123.4 Q 1066.7 282.8, 1300.0 499.1" fill="none" stroke="#FFFFFF" stroke-opacity="0.38" stroke-width="4" filter="url(#soft_dashboard_04_9613)"/>
  <path d="M -100.0 489.4 Q 133.3 135.6, 366.7 -56.2 Q 600.0 -44.0, 833.3 123.4 Q 1066.7 282.8, 1300.0 499.1" fill="none" stroke="#5DE0D7" stroke-opacity="0.18" stroke-width="2"/>
  <path d="M -100.0 1360.4 Q 133.3 1161.1, 366.7 1059.7 Q 600.0 851.8, 833.3 1067.0 Q 1066.7 1269.0, 1300.0 1448.0" fill="none" stroke="#FFFFFF" stroke-opacity="0.38" stroke-width="4" filter="url(#soft_dashboard_04_9613)"/>
  <path d="M -100.0 1360.4 Q 133.3 1161.1, 366.7 1059.7 Q 600.0 851.8, 833.3 1067.0 Q 1066.7 1269.0, 1300.0 1448.0" fill="none" stroke="#A8F2C0" stroke-opacity="0.18" stroke-width="2"/>
  <path d="M -100.0 2713.9 Q 133.3 2770.7, 366.7 2758.4 Q 600.0 2586.6, 833.3 2524.8 Q 1066.7 2276.7, 1300.0 2496.3" fill="none" stroke="#FFFFFF" stroke-opacity="0.38" stroke-width="4" filter="url(#soft_dashboard_04_9613)"/>
  <path d="M -100.0 2713.9 Q 133.3 2770.7, 366.7 2758.4 Q 600.0 2586.6, 833.3 2524.8 Q 1066.7 2276.7, 1300.0 2496.3" fill="none" stroke="#A8F2C0" stroke-opacity="0.18" stroke-width="2"/>
  <circle cx="455" cy="1941" r="120" fill="url(#orb_dashboard_04_9613)" opacity="0.36"/>
  <circle cx="455" cy="1941" r="120" fill="#D7F8E8" opacity="0.08"/>
  <circle cx="455" cy="1941" r="120" fill="none" stroke="#FFFFFF" stroke-opacity="0.56" stroke-width="3"/>
  <ellipse cx="421.4" cy="1897.8" rx="21.6" ry="9.6" fill="#FFFFFF" opacity="0.42" transform="rotate(-22 421.4 1897.8)"/>
  <circle cx="185" cy="832" r="96" fill="url(#orb_dashboard_04_9613)" opacity="0.36"/>
  <circle cx="185" cy="832" r="96" fill="#5DE0D7" opacity="0.08"/>
  <circle cx="185" cy="832" r="96" fill="none" stroke="#FFFFFF" stroke-opacity="0.56" stroke-width="3"/>
  <ellipse cx="158.1" cy="797.4" rx="17.3" ry="7.7" fill="#FFFFFF" opacity="0.42" transform="rotate(-22 158.1 797.4)"/>
  <circle cx="775" cy="1084" r="288" fill="url(#orb_dashboard_04_9613)" opacity="0.36"/>
  <circle cx="775" cy="1084" r="288" fill="#A4E6F5" opacity="0.08"/>
  <circle cx="775" cy="1084" r="288" fill="none" stroke="#FFFFFF" stroke-opacity="0.56" stroke-width="3"/>
  <ellipse cx="694.4" cy="980.3" rx="51.8" ry="23.0" fill="#FFFFFF" opacity="0.42" transform="rotate(-22 694.4 980.3)"/>
  <circle cx="1067" cy="1437" r="278" fill="url(#orb_dashboard_04_9613)" opacity="0.26"/>
  <circle cx="1067" cy="1437" r="278" fill="#D7F8E8" opacity="0.08"/>
  <circle cx="1067" cy="1437" r="278" fill="none" stroke="#FFFFFF" stroke-opacity="0.56" stroke-width="3"/>
  <ellipse cx="989.2" cy="1336.9" rx="50.0" ry="22.2" fill="#FFFFFF" opacity="0.42" transform="rotate(-22 989.2 1336.9)"/>
  <circle cx="91" cy="813" r="116" fill="url(#orb_dashboard_04_9613)" opacity="0.22"/>
  <circle cx="91" cy="813" r="116" fill="#A8F2C0" opacity="0.08"/>
  <circle cx="91" cy="813" r="116" fill="none" stroke="#FFFFFF" stroke-opacity="0.56" stroke-width="3"/>
  <ellipse cx="58.5" cy="771.2" rx="20.9" ry="9.3" fill="#FFFFFF" opacity="0.42" transform="rotate(-22 58.5 771.2)"/>
  <circle cx="1101" cy="968" r="236" fill="url(#orb_dashboard_04_9613)" opacity="0.23"/>
  <circle cx="1101" cy="968" r="236" fill="#E8FFF5" opacity="0.08"/>
  <circle cx="1101" cy="968" r="236" fill="none" stroke="#FFFFFF" stroke-opacity="0.56" stroke-width="3"/>
  <ellipse cx="1034.9" cy="883.0" rx="42.5" ry="18.9" fill="#FFFFFF" opacity="0.42" transform="rotate(-22 1034.9 883.0)"/>
  <circle cx="875" cy="2131" r="4" fill="#FFFFFF" opacity="0.70"/>
  <circle cx="1168" cy="1858" r="2" fill="#FFFFFF" opacity="0.50"/>
  <circle cx="638" cy="557" r="7" fill="#FFFFFF" opacity="0.35"/>
  <circle cx="1038" cy="2293" r="7" fill="#FFFFFF" opacity="0.54"/>
  <circle cx="499" cy="1243" r="5" fill="#FFFFFF" opacity="0.47"/>
  <circle cx="716" cy="509" r="2" fill="#FFFFFF" opacity="0.65"/>
  <circle cx="928" cy="2212" r="4" fill="#FFFFFF" opacity="0.52"/>
  <circle cx="659" cy="1233" r="5" fill="#FFFFFF" opacity="0.49"/>
  <circle cx="784" cy="39" r="4" fill="#FFFFFF" opacity="0.35"/>
  <circle cx="443" cy="189" r="2" fill="#FFFFFF" opacity="0.60"/>
  <circle cx="606" cy="1574" r="2" fill="#FFFFFF" opacity="0.32"/>
  <circle cx="660" cy="667" r="7" fill="#FFFFFF" opacity="0.54"/>
  <circle cx="1010" cy="541" r="4" fill="#FFFFFF" opacity="0.38"/>
  <circle cx="734" cy="2592" r="4" fill="#FFFFFF" opacity="0.40"/>
  <circle cx="770" cy="1853" r="4" fill="#FFFFFF" opacity="0.63"/>
  <circle cx="233" cy="2085" r="2" fill="#FFFFFF" opacity="0.35"/>
  <circle cx="209" cy="745" r="5" fill="#FFFFFF" opacity="0.48"/>
  <circle cx="797" cy="1996" r="3" fill="#FFFFFF" opacity="0.47"/>
  <circle cx="1050" cy="1935" r="4" fill="#FFFFFF" opacity="0.46"/>
  <circle cx="86" cy="168" r="3" fill="#FFFFFF" opacity="0.69"/>
  <circle cx="625" cy="995" r="5" fill="#FFFFFF" opacity="0.55"/>
  <circle cx="373" cy="1884" r="5" fill="#FFFFFF" opacity="0.69"/>
  <rect width="1200" height="2600" fill="#FFFFFF" opacity="0.08"/>
  <rect width="1200" height="2600" filter="url(#grain_dashboard_04_9613)" opacity="0.7"/>
</svg>
