<svg xmlns="http://www.w3.org/2000/svg" width="1200" height="2600" viewBox="0 0 1200 2600" preserveAspectRatio="xMidYMid slice">
  <defs>
    <linearGradient id="bg_dashboard_18_4374" x1="0" y1="0" x2="1" y2="1">
      <stop offset="0%" stop-color="#BDEFFF"/>
      <stop offset="48%" stop-color="#E8FFF5"/>
      <stop offset="100%" stop-color="#A4E6F5"/>
    </linearGradient>
    <radialGradient id="orb_dashboard_18_4374" cx="35%" cy="30%" r="70%">
      <stop offset="0%" stop-color="#FFFFFF" stop-opacity="0.85"/>
      <stop offset="42%" stop-color="#FFFFFF" stop-opacity="0.20"/>
      <stop offset="100%" stop-color="#FFFFFF" stop-opacity="0.02"/>
    </radialGradient>
    <filter id="blur_dashboard_18_4374" x="-30%" y="-30%" width="160%" height="160%">
      <feGaussianBlur stdDeviation="72"/>
    </filter>
    <filter id="soft_dashboard_18_4374" x="-20%" y="-20%" width="140%" height="140%">
      <feGaussianBlur stdDeviation="10"/>
    </filter>
    <filter id="grain_dashboard_18_4374">
      <feTurbulence type="fractalNoise" baseFrequency="0.85" numOctaves="2" stitchTiles="stitch"/>
      <feColorMatrix type="saturate" values="0"/>
      <feComponentTransfer>
        <feFuncA type="table" tableValues="0 0.035"/>
      </feComponentTransfer>
    </filter>
  </defs>
  <rect width="1200" height="2600" fill="url(#bg_dashboard_18_4374)"/>
  <path d="M 1569.6 1030.0 C 1569.6 1154.2, 1625.1 1125.1, 1519.8 1220.3 C 1414.5 1315.4, 1463.6 1234.8, 1302.3 1256.3 C 1141.0 1277.9, 1204.4 1301.5, 1062.5 1239.4 C 920.6 1177.3, 938.2 1235.3, 882.1 1118.6 C 826.1 1001.9, 779.3 1067.9, 835.3 951.2 C 891.3 834.5, 882.5 859.2, 1024.3 797.1 C 1166.2 735.0, 1126.8 754.8, 1288.1 776.4 C 1449.4 798.0, 1378.8 789.1, 1484.1 884.2 C 1589.4 979.3, 1569.6 905.8, 1569.6 1030.0 Z" fill="#A8F2C0" opacity="0.18" filter="url(#blur_dashboard_18_4374)"/>
  <path d="M 888.7 2850.0 C 888.7 3120.0, 871.6 3026.7, 768.6 3233.6 C 665.7 3440.4, 739.7 3343.9, 581.9 3390.8 C 424.2 3437.7, 517.3 3514.5, 378.6 3379.5 C 239.9 3244.5, 289.8 3273.4, 235.0 3019.7 C 180.2 2766.0, 81.9 2899.4, 136.7 2645.7 C 191.5 2392.0, 203.4 2482.3, 342.1 2347.3 C 480.8 2212.3, 436.0 2300.1, 593.8 2347.0 C 751.5 2393.9, 741.2 2217.8, 844.1 2424.7 C 947.1 2631.5, 888.7 2580.0, 888.7 2850.0 Z" fill="#A8F2C0" opacity="0.19" filter="url(#blur_dashboard_18_4374)"/>
  <path d="M 724.0 2440.0 C 724.0 2628.1, 775.5 2561.6, 664.2 2705.7 C 552.8 2849.8, 550.6 2777.5, 379.9 2810.2 C 209.3 2842.8, 261.8 2912.8, 111.7 2818.7 C -38.3 2724.7, -13.7 2758.9, -72.9 2582.1 C -132.2 2405.3, -82.9 2459.3, -23.6 2282.5 C 35.7 2105.7, -59.1 2155.2, 91.0 2061.1 C 241.0 1967.1, 211.1 2051.3, 381.7 2083.9 C 552.3 2116.6, 526.8 2058.7, 638.2 2202.8 C 749.5 2346.9, 724.0 2251.9, 724.0 2440.0 Z" fill="#BDEFFF" opacity="0.28" filter="url(#blur_dashboard_18_4374)"/>
  <path d="M 690.5 2803.0 C 690.5 2988.4, 861.5 2920.0, 709.0 3062.0 C 556.6 3204.1, 579.7 3203.9, 346.1 3236.1 C 112.6 3268.3, 208.4 3255.8, 3.0 3163.1 C -202.3 3070.4, -165.2 3112.5, -246.3 2938.3 C -327.4 2764.1, -386.7 2825.0, -305.6 2650.8 C -224.4 2476.5, -243.4 2500.7, -38.1 2408.0 C 167.3 2315.3, 106.5 2429.7, 340.1 2461.9 C 573.6 2494.0, 444.5 2352.5, 597.0 2494.6 C 749.4 2636.6, 690.5 2617.6, 690.5 2803.0 Z" fill="#BDEFFF" opacity="0.21" filter="url(#blur_dashboard_18_4374)"/>
  <path d="M 1514.2 383.0 C 1514.2 577.9, 1583.5 500.5, 1495.9 649.8 C 1408.2 799.0, 1444.1 811.8, 1309.8 845.6 C 1175.6 879.5, 1203.7 880.1, 1085.7 782.7 C 967.6 685.2, 985.5 732.8, 938.8 549.7 C 892.2 366.6, 879.7 426.4, 926.3 243.3 C 972.9 60.2, 998.3 163.6, 1116.4 66.2 C 1234.4 -31.2, 1171.9 -148.9, 1306.2 -115.1 C 1440.4 -81.3, 1408.1 -46.6, 1495.8 102.7 C 1583.4 251.9, 1514.2 188.2, 1514.2 383.0 Z" fill="#BDEFFF" opacity="0.28" filter="url(#blur_dashboard_18_4374)"/>
  <path d="M 492.2 -24.0 C 492.2 206.0, 492.9 177.5, 403.8 353.7 C 314.8 529.8, 386.6 375.2, 250.1 415.1 C 113.6 455.1, 141.3 460.6, 21.2 345.6 C -98.8 230.6, -48.5 363.6, -95.9 147.5 C -143.3 -68.6, -89.2 19.7, -41.8 -196.3 C 5.6 -412.4, -79.2 -329.3, 40.8 -444.3 C 160.8 -559.2, 111.7 -532.0, 248.2 -492.0 C 384.7 -452.1, 355.4 -561.8, 444.5 -385.6 C 533.6 -209.5, 492.2 -254.0, 492.2 -24.0 Z" fill="#94D6FF" opacity="0.24" filter="url(#blur_dashboard_18_4374)"/>
  <path d="M 1422.3 296.0 C 1422.3 444.5, 1491.9 357.3, 1377.4 471.0 C 1262.8 584.8, 1295.2 566.4, 1119.7 592.2 C 944.2 618.0, 1014.1 619.9, 859.7 545.6 C 705.4 471.4, 737.5 530.2, 676.5 390.7 C 615.6 251.1, 655.1 339.4, 716.0 199.8 C 777.0 60.3, 697.5 35.1, 851.8 -39.1 C 1006.1 -113.4, 946.7 -9.1, 1122.2 16.7 C 1297.7 42.5, 1194.1 -33.9, 1308.7 79.8 C 1423.2 193.6, 1422.3 147.5, 1422.3 296.0 Z" fill="#F8FFFD" opacity="0.31" filter="url(#blur_dashboard_18_4374)"/>
  <path d="M 1018.0 1640.0 C 1018.0 1835.8, 1007.9 1803.2, 913.3 1953.1 C 818.8 2103.1, 869.1 2108.7, 724.2 2142.7 C 579.3 2176.7, 624.7 2150.8, 497.3 2052.9 C 369.9 1955.0, 410.4 1947.4, 360.1 1763.4 C 309.8 1579.5, 295.6 1676.1, 345.9 1492.2 C 396.2 1308.2, 385.6 1332.1, 513.0 1234.2 C 640.5 1136.3, 567.9 1102.6, 712.8 1136.6 C 857.7 1170.5, 833.2 1248.4, 927.8 1398.4 C 1022.4 1548.3, 1018.0 1444.2, 1018.0 1640.0 Z" fill="#94D6FF" opacity="0.16" filter="url(#blur_dashboard_18_4374)"/>
  <path d="M 773.0 580.0 C 773.0 851.8, 792.8 775.6, 634.6 983.8 C 476.4 1192.0, 610.3 1048.2, 367.9 1095.4 C 125.5 1142.6, 237.9 1292.4, 24.7 1156.5 C -188.5 1020.6, -159.8 1038.1, -244.0 782.7 C -328.2 527.3, -294.3 627.0, -210.1 371.6 C -125.9 116.2, -248.9 240.1, -35.8 104.2 C 177.4 -31.7, 117.1 9.6, 359.5 56.8 C 602.0 104.0, 470.0 -82.1, 628.2 126.1 C 786.4 334.3, 773.0 308.2, 773.0 580.0 Z" fill="#94D6FF" opacity="0.19" filter="url(#blur_dashboard_18_4374)"/>
  <path d="M 976.9 973.0 C 976.9 1374.8, 1013.9 1234.8, 839.6 1559.9 C 665.3 1885.0, 796.6 1602.2, 514.6 1726.4 C 232.5 1850.6, 409.4 1954.1, 127.3 1830.0 C -154.7 1705.8, 13.4 1848.9, -160.9 1523.8 C -335.2 1198.7, -333.0 1374.9, -333.0 973.0 C -333.0 571.2, -393.2 796.9, -218.9 471.8 C -44.5 146.7, -148.0 199.5, 134.1 75.3 C 416.1 -48.9, 251.0 -76.9, 533.0 47.3 C 815.1 171.5, 604.2 103.4, 778.5 428.5 C 952.8 753.6, 976.9 571.1, 976.9 973.0 Z" fill="#A8F2C0" opacity="0.12" stroke="#A8F2C0" stroke-opacity="0.46" stroke-width="3" filter="url(#soft_dashboard_18_4374)"/>
  <path d="M 976.9 973.0 C 976.9 1374.8, 1013.9 1234.8, 839.6 1559.9 C 665.3 1885.0, 796.6 1602.2, 514.6 1726.4 C 232.5 1850.6, 409.4 1954.1, 127.3 1830.0 C -154.7 1705.8, 13.4 1848.9, -160.9 1523.8 C -335.2 1198.7, -333.0 1374.9, -333.0 973.0 C -333.0 571.2, -393.2 796.9, -218.9 471.8 C -44.5 146.7, -148.0 199.5, 134.1 75.3 C 416.1 -48.9, 251.0 -76.9, 533.0 47.3 C 815.1 171.5, 604.2 103.4, 778.5 428.5 C 952.8 753.6, 976.9 571.1, 976.9 973.0 Z" fill="none" stroke="#FFFFFF" stroke-opacity="0.22" stroke-width="1.2"/>
  <path d="M 497.0 2914.0 C 497.0 3279.4, 518.9 3032.4, 392.8 3328.0 C 266.6 3623.6, 362.8 3524.8, 158.6 3637.7 C -45.5 3750.6, 39.4 3843.6, -164.7 3730.6 C -368.8 3617.7, -242.1 3623.0, -368.3 3327.4 C -494.4 3031.8, -496.7 3279.4, -496.7 2914.0 C -496.7 2548.6, -523.1 2670.4, -396.9 2374.8 C -270.7 2079.1, -369.8 2286.4, -165.7 2173.5 C 38.5 2060.6, -78.0 2091.5, 126.2 2204.4 C 330.3 2317.3, 253.5 2206.3, 379.7 2501.9 C 505.9 2797.5, 497.0 2548.6, 497.0 2914.0 Z" fill="#A4E6F5" opacity="0.12" stroke="#A4E6F5" stroke-opacity="0.46" stroke-width="3" filter="url(#soft_dashboard_18_4374)"/>
  <path d="M 497.0 2914.0 C 497.0 3279.4, 518.9 3032.4, 392.8 3328.0 C 266.6 3623.6, 362.8 3524.8, 158.6 3637.7 C -45.5 3750.6, 39.4 3843.6, -164.7 3730.6 C -368.8 3617.7, -242.1 3623.0, -368.3 3327.4 C -494.4 3031.8, -496.7 3279.4, -496.7 2914.0 C -496.7 2548.6, -523.1 2670.4, -396.9 2374.8 C -270.7 2079.1, -369.8 2286.4, -165.7 2173.5 C 38.5 2060.6, -78.0 2091.5, 126.2 2204.4 C 330.3 2317.3, 253.5 2206.3, 379.7 2501.9 C 505.9 2797.5, 497.0 2548.6, 497.0 2914.0 Z" fill="none" stroke="#FFFFFF" stroke-opacity="0.22" stroke-width="1.2"/>
  <path d="M 1534.7 634.0 C 1534.7 864.4, 1531.7 752.3, 1410.6 938.7 C 1289.5 1125.0, 1427.5 1023.8, 1231.5 1095.0 C 1035.4 1166.2, 1116.2 1246.4, 920.2 1175.2 C 724.2 1104.0, 810.1 1099.4, 688.9 913.0 C 567.8 726.6, 665.9 864.4, 665.9 634.0 C 665.9 403.6, 534.6 528.0, 655.8 341.6 C 776.9 155.2, 732.8 171.9, 928.8 100.7 C 1124.8 29.5, 1010.6 76.8, 1206.6 148.0 C 1402.6 219.1, 1359.1 131.4, 1480.2 317.8 C 1601.4 504.2, 1534.7 403.6, 1534.7 634.0 Z" fill="#BDEFFF" opacity="0.12" stroke="#BDEFFF" stroke-opacity="0.46" stroke-width="3" filter="url(#soft_dashboard_18_4374)"/>
  <path d="M 1534.7 634.0 C 1534.7 864.4, 1531.7 752.3, 1410.6 938.7 C 1289.5 1125.0, 1427.5 1023.8, 1231.5 1095.0 C 1035.4 1166.2, 1116.2 1246.4, 920.2 1175.2 C 724.2 1104.0, 810.1 1099.4, 688.9 913.0 C 567.8 726.6, 665.9 864.4, 665.9 634.0 C 665.9 403.6, 534.6 528.0, 655.8 341.6 C 776.9 155.2, 732.8 171.9, 928.8 100.7 C 1124.8 29.5, 1010.6 76.8, 1206.6 148.0 C 1402.6 219.1, 1359.1 131.4, 1480.2 317.8 C 1601.4 504.2, 1534.7 403.6, 1534.7 634.0 Z" fill="none" stroke="#FFFFFF" stroke-opacity="0.22" stroke-width="1.2"/>
  <path d="M 942.2 363.0 C 942.2 569.1, 1013.5 431.0, 871.2 597.8 C 728.9 764.5, 796.6 702.7, 566.3 766.4 C 336.1 830.1, 476.9 901.9, 246.6 838.2 C 16.3 774.6, 171.6 813.3, 29.3 646.5 C -113.0 479.8, -192.4 569.1, -192.4 363.0 C -192.4 156.9, -192.6 289.5, -50.3 122.8 C 92.0 -43.9, 0.9 -49.0, 231.2 -112.7 C 461.4 -176.4, 345.7 -83.4, 575.9 -19.8 C 806.2 43.9, 717.5 -46.5, 859.8 120.2 C 1002.1 287.0, 942.2 156.9, 942.2 363.0 Z" fill="#F8FFFD" opacity="0.12" stroke="#FFFFFF" stroke-opacity="0.46" stroke-width="3" filter="url(#soft_dashboard_18_4374)"/>
  <path d="M 942.2 363.0 C 942.2 569.1, 1013.5 431.0, 871.2 597.8 C 728.9 764.5, 796.6 702.7, 566.3 766.4 C 336.1 830.1, 476.9 901.9, 246.6 838.2 C 16.3 774.6, 171.6 813.3, 29.3 646.5 C -113.0 479.8, -192.4 569.1, -192.4 363.0 C -192.4 156.9, -192.6 289.5, -50.3 122.8 C 92.0 -43.9, 0.9 -49.0, 231.2 -112.7 C 461.4 -176.4, 345.7 -83.4, 575.9 -19.8 C 806.2 43.9, 717.5 -46.5, 859.8 120.2 C 1002.1 287.0, 942.2 156.9, 942.2 363.0 Z" fill="none" stroke="#FFFFFF" stroke-opacity="0.22" stroke-width="1.2"/>
  <path d="M 1536.9 519.0 C 1536.9 873.6, 1569.1 737.3, 1384.2 1024.2 C 1199.3 1311.1, 1346.1 1063.1, 1047.0 1172.6 C 747.8 1282.2, 947.6 1304.5, 648.5 1194.9 C 349.3 1085.3, 413.8 1223.8, 228.9 937.0 C 44.0 650.1, 47.5 873.6, 47.5 519.0 C 47.5 164.4, 27.0 381.4, 211.9 94.5 C 396.8 -192.4, 345.3 -105.5, 644.5 -215.1 C 943.6 -324.7, 765.7 -373.5, 1064.9 -263.9 C 1364.0 -154.3, 1220.9 -186.9, 1405.7 100.0 C 1590.6 386.8, 1536.9 164.4, 1536.9 519.0 Z" fill="#D7F8E8" opacity="0.12" stroke="#D7F8E8" stroke-opacity="0.46" stroke-width="3" filter="url(#soft_dashboard_18_4374)"/>
  <path d="M 1536.9 519.0 C 1536.9 873.6, 1569.1 737.3, 1384.2 1024.2 C 1199.3 1311.1, 1346.1 1063.1, 1047.0 1172.6 C 747.8 1282.2, 947.6 1304.5, 648.5 1194.9 C 349.3 1085.3, 413.8 1223.8, 228.9 937.0 C 44.0 650.1, 47.5 873.6, 47.5 519.0 C 47.5 164.4, 27.0 381.4, 211.9 94.5 C 396.8 -192.4, 345.3 -105.5, 644.5 -215.1 C 943.6 -324.7, 765.7 -373.5, 1064.9 -263.9 C 1364.0 -154.3, 1220.9 -186.9, 1405.7 100.0 C 1590.6 386.8, 1536.9 164.4, 1536.9 519.0 Z" fill="none" stroke="#FFFFFF" stroke-opacity="0.22" stroke-width="1.2"/>
  <path d="M 995.8 708.0 C 995.8 990.6, 1018.7 881.5, 916.1 1110.1 C 813.5 1338.7, 857.7 1178.6, 691.7 1266.0 C 525.6 1353.3, 611.1 1435.0, 445.0 1347.7 C 279.0 1260.3, 328.8 1334.5, 226.2 1105.8 C 123.5 877.2, 156.4 990.6, 156.4 708.0 C 156.4 425.4, 110.2 571.2, 212.8 342.6 C 315.4 114.0, 287.0 225.2, 453.1 137.9 C 619.2 50.6, 512.9 105.0, 679.0 192.3 C 845.0 279.6, 778.4 157.7, 881.0 386.4 C 983.6 615.0, 995.8 425.4, 995.8 708.0 Z" fill="#A8F2C0" opacity="0.12" stroke="#A8F2C0" stroke-opacity="0.46" stroke-width="3" filter="url(#soft_dashboard_18_4374)"/>
  <path d="M 995.8 708.0 C 995.8 990.6, 1018.7 881.5, 916.1 1110.1 C 813.5 1338.7, 857.7 1178.6, 691.7 1266.0 C 525.6 1353.3, 611.1 1435.0, 445.0 1347.7 C 279.0 1260.3, 328.8 1334.5, 226.2 1105.8 C 123.5 877.2, 156.4 990.6, 156.4 708.0 C 156.4 425.4, 110.2 571.2, 212.8 342.6 C 315.4 114.0, 287.0 225.2, 453.1 137.9 C 619.2 50.6, 512.9 105.0, 679.0 192.3 C 845.0 279.6, 778.4 157.7, 881.0 386.4 C 983.6 615.0, 995.8 425.4, 995.8 708.0 Z" fill="none" stroke="#FFFFFF" stroke-opacity="0.22" stroke-width="1.2"/>
  <path d="M -100.0 1730.3 Q 133.3 1758.1, 366.7 1803.7 Q 600.0 2011.9, 833.3 1942.0 Q 1066.7 1982.0, 1300.0 1964.4" fill="none" stroke="#FFFFFF" stroke-opacity="0.38" stroke-width="4" filter="url(#soft_dashboard_18_4374)"/>
  <path d="M -100.0 1730.3 Q 133.3 1758.1, 366.7 1803.7 Q 600.0 2011.9, 833.3 1942.0 Q 1066.7 1982.0, 1300.0 1964.4" fill="none" stroke="#94D6FF" stroke-opacity="0.18" stroke-width="2"/>
  <path d="M -100.0 1019.2 Q 133.3 810.2, 366.7 762.2 Q 600.0 952.0, 833.3 1058.9 Q 1066.7 811.8, 1300.0 837.1" fill="none" stroke="#FFFFFF" stroke-opacity="0.38" stroke-width="4" filter="url(#soft_dashboard_18_4374)"/>
  <path d="M -100.0 1019.2 Q 133.3 810.2, 366.7 762.2 Q 600.0 952.0, 833.3 1058.9 Q 1066.7 811.8, 1300.0 837.1" fill="none" stroke="#5DE0D7" stroke-opacity="0.18" stroke-width="2"/>
  <path d="M -100.0 433.7 Q 133.3 309.6, 366.7 -21.2 Q 600.0 -68.7, 833.3 113.6 Q 1066.7 410.1, 1300.0 317.4" fill="none" stroke="#FFFFFF" stroke-opacity="0.38" stroke-width="4" filter="url(#soft_dashboard_18_4374)"/>
  <path d="M -100.0 433.7 Q 133.3 309.6, 366.7 -21.2 Q 600.0 -68.7, 833.3 113.6 Q 1066.7 410.1, 1300.0 317.4" fill="none" stroke="#5DE0D7" stroke-opacity="0.18" stroke-width="2"/>
  <path d="M -100.0 554.6 Q 133.3 925.9, 366.7 1047.4 Q 600.0 883.8, 833.3 535.7 Q 1066.7 419.6, 1300.0 658.0" fill="none" stroke="#FFFFFF" stroke-opacity="0.38" stroke-width="4" filter="url(#soft_dashboard_18_4374)"/>
  <path d="M -100.0 554.6 Q 133.3 925.9, 366.7 1047.4 Q 600.0 883.8, 833.3 535.7 Q 1066.7 419.6, 1300.0 658.0" fill="none" stroke="#94D6FF" stroke-opacity="0.18" stroke-width="2"/>
  <path d="M -100.0 286.6 Q 133.3 491.6, 366.7 412.0 Q 600.0 104.3, 833.3 207.2 Q 1066.7 485.2, 1300.0 491.4" fill="none" stroke="#FFFFFF" stroke-opacity="0.38" stroke-width="4" filter="url(#soft_dashboard_18_4374)"/>
  <path d="M -100.0 286.6 Q 133.3 491.6, 366.7 412.0 Q 600.0 104.3, 833.3 207.2 Q 1066.7 485.2, 1300.0 491.4" fill="none" stroke="#94D6FF" stroke-opacity="0.18" stroke-width="2"/>
  <path d="M -100.0 701.0 Q 133.3 492.2, 366.7 416.8 Q 600.0 177.1, 833.3 227.9 Q 1066.7 312.1, 1300.0 524.4" fill="none" stroke="#FFFFFF" stroke-opacity="0.38" stroke-width="4" filter="url(#soft_dashboard_18_4374)"/>
  <path d="M -100.0 701.0 Q 133.3 492.2, 366.7 416.8 Q 600.0 177.1, 833.3 227.9 Q 1066.7 312.1, 1300.0 524.4" fill="none" stroke="#94D6FF" stroke-opacity="0.18" stroke-width="2"/>
  <circle cx="487" cy="584" r="121" fill="url(#orb_dashboard_18_4374)" opacity="0.36"/>
  <circle cx="487" cy="584" r="121" fill="#E8FFF5" opacity="0.08"/>
  <circle cx="487" cy="584" r="121" fill="none" stroke="#FFFFFF" stroke-opacity="0.56" stroke-width="3"/>
  <ellipse cx="453.1" cy="540.4" rx="21.8" ry="9.7" fill="#FFFFFF" opacity="0.42" transform="rotate(-22 453.1 540.4)"/>
  <circle cx="1126" cy="1067" r="123" fill="url(#orb_dashboard_18_4374)" opacity="0.36"/>
  <circle cx="1126" cy="1067" r="123" fill="#A4E6F5" opacity="0.08"/>
  <circle cx="1126" cy="1067" r="123" fill="none" stroke="#FFFFFF" stroke-opacity="0.56" stroke-width="3"/>
  <ellipse cx="1091.6" cy="1022.7" rx="22.1" ry="9.8" fill="#FFFFFF" opacity="0.42" transform="rotate(-22 1091.6 1022.7)"/>
  <circle cx="1113" cy="453" r="195" fill="url(#orb_dashboard_18_4374)" opacity="0.36"/>
  <circle cx="1113" cy="453" r="195" fill="#F8FFFD" opacity="0.08"/>
  <circle cx="1113" cy="453" r="195" fill="none" stroke="#FFFFFF" stroke-opacity="0.56" stroke-width="3"/>
  <ellipse cx="1058.4" cy="382.8" rx="35.1" ry="15.6" fill="#FFFFFF" opacity="0.42" transform="rotate(-22 1058.4 382.8)"/>
  <circle cx="1017" cy="517" r="88" fill="url(#orb_dashboard_18_4374)" opacity="0.24"/>
  <circle cx="1017" cy="517" r="88" fill="#BDEFFF" opacity="0.08"/>
  <circle cx="1017" cy="517" r="88" fill="none" stroke="#FFFFFF" stroke-opacity="0.56" stroke-width="3"/>
  <ellipse cx="992.4" cy="485.3" rx="15.8" ry="7.0" fill="#FFFFFF" opacity="0.42" transform="rotate(-22 992.4 485.3)"/>
  <circle cx="496" cy="859" r="223" fill="url(#orb_dashboard_18_4374)" opacity="0.20"/>
  <circle cx="496" cy="859" r="223" fill="#D7F8E8" opacity="0.08"/>
  <circle cx="496" cy="859" r="223" fill="none" stroke="#FFFFFF" stroke-opacity="0.56" stroke-width="3"/>
  <ellipse cx="433.6" cy="778.7" rx="40.1" ry="17.8" fill="#FFFFFF" opacity="0.42" transform="rotate(-22 433.6 778.7)"/>
  <circle cx="-34" cy="1416" r="197" fill="url(#orb_dashboard_18_4374)" opacity="0.27"/>
  <circle cx="-34" cy="1416" r="197" fill="#BDEFFF" opacity="0.08"/>
  <circle cx="-34" cy="1416" r="197" fill="none" stroke="#FFFFFF" stroke-opacity="0.56" stroke-width="3"/>
  <ellipse cx="-89.2" cy="1345.1" rx="35.5" ry="15.8" fill="#FFFFFF" opacity="0.42" transform="rotate(-22 -89.2 1345.1)"/>
  <circle cx="386" cy="-12" r="81" fill="url(#orb_dashboard_18_4374)" opacity="0.25"/>
  <circle cx="386" cy="-12" r="81" fill="#E8FFF5" opacity="0.08"/>
  <circle cx="386" cy="-12" r="81" fill="none" stroke="#FFFFFF" stroke-opacity="0.56" stroke-width="3"/>
  <ellipse cx="363.3" cy="-41.2" rx="14.6" ry="6.5" fill="#FFFFFF" opacity="0.42" transform="rotate(-22 363.3 -41.2)"/>
  <circle cx="254" cy="760" r="146" fill="url(#orb_dashboard_18_4374)" opacity="0.19"/>
  <circle cx="254" cy="760" r="146" fill="#5DE0D7" opacity="0.08"/>
  <circle cx="254" cy="760" r="146" fill="none" stroke="#FFFFFF" stroke-opacity="0.56" stroke-width="3"/>
  <ellipse cx="213.1" cy="707.4" rx="26.3" ry="11.7" fill="#FFFFFF" opacity="0.42" transform="rotate(-22 213.1 707.4)"/>
  <circle cx="1067" cy="960" r="85" fill="url(#orb_dashboard_18_4374)" opacity="0.24"/>
  <circle cx="1067" cy="960" r="85" fill="#94D6FF" opacity="0.08"/>
  <circle cx="1067" cy="960" r="85" fill="none" stroke="#FFFFFF" stroke-opacity="0.56" stroke-width="3"/>
  <ellipse cx="1043.2" cy="929.4" rx="15.3" ry="6.8" fill="#FFFFFF" opacity="0.42" transform="rotate(-22 1043.2 929.4)"/>
  <circle cx="972" cy="780" r="7" fill="#FFFFFF" opacity="0.65"/>
  <circle cx="449" cy="1810" r="7" fill="#FFFFFF" opacity="0.39"/>
  <circle cx="775" cy="598" r="4" fill="#FFFFFF" opacity="0.43"/>
  <circle cx="301" cy="803" r="5" fill="#FFFFFF" opacity="0.69"/>
  <circle cx="693" cy="1196" r="2" fill="#FFFFFF" opacity="0.62"/>
  <circle cx="126" cy="1853" r="5" fill="#FFFFFF" opacity="0.70"/>
  <circle cx="76" cy="409" r="4" fill="#FFFFFF" opacity="0.64"/>
  <circle cx="941" cy="1124" r="4" fill="#FFFFFF" opacity="0.53"/>
  <circle cx="96" cy="309" r="7" fill="#FFFFFF" opacity="0.47"/>
  <circle cx="11" cy="554" r="3" fill="#FFFFFF" opacity="0.34"/>
  <circle cx="203" cy="2355" r="7" fill="#FFFFFF" opacity="0.57"/>
  <circle cx="350" cy="2233" r="4" fill="#FFFFFF" opacity="0.29"/>
  <circle cx="209" cy="1155" r="2" fill="#FFFFFF" opacity="0.64"/>
  <circle cx="560" cy="2373" r="5" fill="#FFFFFF" opacity="0.31"/>
  <rect width="1200" height="2600" fill="#FFFFFF" opacity="0.08"/>
  <rect width="1200" height="2600" filter="url(#grain_dashboard_18_4374)" opacity="0.7"/>
</svg>
