<svg xmlns="http://www.w3.org/2000/svg" width="1200" height="2600" viewBox="0 0 1200 2600" preserveAspectRatio="xMidYMid slice">
  <defs>
    <linearGradient id="bg_dashboard_03_9707" x1="0" y1="0" x2="1" y2="1">
      <stop offset="0%" stop-color="#A4E6F5"/>
      <stop offset="48%" stop-color="#D7F8E8"/>
      <stop offset="100%" stop-color="#F8FFFD"/>
    </linearGradient>
    <radialGradient id="orb_dashboard_03_9707" cx="35%" cy="30%" r="70%">
      <stop offset="0%" stop-color="#FFFFFF" stop-opacity="0.85"/>
      <stop offset="42%" stop-color="#FFFFFF" stop-opacity="0.20"/>
      <stop offset="100%" stop-color="#FFFFFF" stop-opacity="0.02"/>
    </radialGradient>
    <filter id="blur_dashboard_03_9707" x="-30%" y="-30%" width="160%" height="160%">
      <feGaussianBlur stdDeviation="72"/>
    </filter>
    <filter id="soft_dashboard_03_9707" x="-20%" y="-20%" width="140%" height="140%">
      <feGaussianBlur stdDeviation="10"/>
    </filter>
    <filter id="grain_dashboard_03_9707">
      <feTurbulence type="fractalNoise" baseFrequency="0.85" numOctaves="2" stitchTiles="stitch"/>
      <feColorMatrix type="saturate" values="0"/>
      <feComponentTransfer>
        <feFuncA type="table" tableValues="0 0.035"/>
      </feComponentTransfer>
    </filter>
  </defs>
  <rect width="1200" height="2600" fill="url(#bg_dashboard_03_9707)"/>
  <path d="M 935.4 902.0 C 935.4 1176.0, 954.4 1077.3, 885.8 1287.2 C 817.3 1497.1, 828.2 1452.2, 723.2 1499.8 C 618.2 1547.4, 665.8 1635.8, 573.5 1498.8 C 481.1 1361.8, 512.6 1339.9, 476.1 1082.4 C 439.7 824.9, 395.4 915.6, 431.9 658.1 C 468.3 400.6, 478.5 455.3, 570.9 318.3 C 663.2 181.3, 619.5 226.2, 724.6 273.8 C 829.6 321.4, 773.4 232.5, 842.0 442.4 C 910.5 652.3, 935.4 628.0, 935.4 902.0 Z" fill="#A8F2C0" opacity="0.32" filter="url(#blur_dashboard_03_9707)"/>
  <path d="M 1280.1 -223.0 C 1280.1 -37.2, 1357.2 -117.4, 1220.4 24.9 C 1083.6 167.3, 1120.3 157.4, 910.7 189.7 C 701.1 222.0, 736.0 183.8, 551.7 90.8 C 367.3 -2.1, 511.4 79.1, 438.6 -95.5 C 365.8 -270.2, 267.8 -179.8, 340.6 -354.4 C 413.4 -529.1, 381.1 -551.3, 565.4 -644.2 C 749.8 -737.2, 687.0 -712.6, 896.6 -680.4 C 1106.2 -648.1, 1023.4 -660.3, 1160.2 -517.9 C 1297.1 -375.5, 1280.1 -408.9, 1280.1 -223.0 Z" fill="#94D6FF" opacity="0.34" filter="url(#blur_dashboard_03_9707)"/>
  <path d="M 1602.2 2063.0 C 1602.2 2229.5, 1601.6 2186.0, 1459.3 2313.6 C 1317.0 2441.1, 1438.1 2392.6, 1220.1 2421.5 C 1002.1 2450.5, 1124.7 2412.8, 932.9 2329.5 C 741.2 2246.3, 743.7 2341.0, 668.0 2184.6 C 592.3 2028.1, 687.5 2109.0, 763.2 1952.5 C 838.9 1796.1, 664.9 1872.5, 856.7 1789.2 C 1048.4 1706.0, 1006.4 1657.4, 1224.5 1686.3 C 1442.5 1715.2, 1399.3 1665.4, 1541.6 1793.0 C 1684.0 1920.5, 1602.2 1896.5, 1602.2 2063.0 Z" fill="#F8FFFD" opacity="0.23" filter="url(#blur_dashboard_03_9707)"/>
  <path d="M 1573.4 1013.0 C 1573.4 1290.7, 1523.6 1221.2, 1402.1 1433.9 C 1280.6 1646.5, 1371.1 1603.2, 1185.0 1651.4 C 998.8 1699.6, 1105.4 1737.4, 941.7 1598.6 C 778.0 1459.7, 828.8 1511.1, 764.2 1250.2 C 699.5 989.3, 699.8 1034.5, 764.5 773.6 C 829.1 512.7, 726.0 595.0, 889.7 456.2 C 1053.3 317.4, 1016.4 433.9, 1202.5 482.1 C 1388.6 530.3, 1337.9 374.0, 1459.3 586.7 C 1580.8 799.4, 1573.4 735.3, 1573.4 1013.0 Z" fill="#94D6FF" opacity="0.34" filter="url(#blur_dashboard_03_9707)"/>
  <path d="M 1383.8 1080.0 C 1383.8 1296.0, 1342.0 1250.5, 1239.3 1416.0 C 1136.6 1581.4, 1193.3 1470.1, 1036.0 1507.7 C 878.7 1545.2, 967.7 1538.2, 829.4 1430.2 C 691.0 1322.2, 743.7 1431.9, 689.0 1228.9 C 634.4 1025.9, 573.6 1109.9, 628.2 906.9 C 682.8 703.9, 639.1 751.1, 777.4 643.1 C 915.8 535.1, 875.3 535.1, 1032.6 572.6 C 1189.9 610.1, 1161.8 639.8, 1264.5 805.3 C 1367.2 970.8, 1383.8 864.0, 1383.8 1080.0 Z" fill="#E8FFF5" opacity="0.35" filter="url(#blur_dashboard_03_9707)"/>
  <path d="M 978.6 1118.0 C 978.6 1311.0, 1040.5 1236.4, 882.6 1384.3 C 724.6 1532.1, 752.4 1456.4, 510.4 1489.9 C 268.5 1523.4, 376.5 1618.1, 163.7 1521.6 C -49.1 1425.1, -52.7 1431.8, -136.7 1250.4 C -220.7 1069.0, -214.2 1140.1, -130.2 958.7 C -46.2 777.2, -96.5 832.1, 116.3 735.6 C 329.1 639.1, 258.7 608.5, 500.6 642.1 C 742.6 675.6, 649.8 743.8, 807.7 891.7 C 965.7 1039.6, 978.6 925.0, 978.6 1118.0 Z" fill="#A8F2C0" opacity="0.19" filter="url(#blur_dashboard_03_9707)"/>
  <path d="M 1090.8 1985.0 C 1090.8 2233.4, 1131.4 2197.8, 1025.5 2388.1 C 919.6 2578.4, 988.6 2451.6, 826.4 2494.7 C 664.2 2537.8, 716.3 2551.1, 573.6 2426.9 C 431.0 2302.7, 530.0 2440.0, 473.6 2206.6 C 417.3 1973.2, 421.9 2004.6, 478.2 1771.2 C 534.5 1537.8, 436.7 1671.2, 579.4 1547.0 C 722.0 1422.8, 664.2 1328.0, 826.4 1371.1 C 988.6 1414.2, 914.1 1457.4, 1019.9 1647.7 C 1125.8 1837.9, 1090.8 1736.6, 1090.8 1985.0 Z" fill="#BDEFFF" opacity="0.30" filter="url(#blur_dashboard_03_9707)"/>
  <path d="M 1524.2 1066.0 C 1524.2 1260.0, 1587.8 1182.3, 1430.4 1330.9 C 1273.1 1479.5, 1386.0 1510.4, 1144.9 1544.1 C 903.8 1577.8, 1029.4 1505.9, 817.4 1408.9 C 605.4 1312.0, 568.7 1394.4, 484.9 1212.2 C 401.2 1029.9, 504.2 1097.7, 587.9 915.5 C 671.6 733.2, 554.1 750.9, 766.1 654.0 C 978.1 557.0, 899.6 618.8, 1140.7 652.5 C 1381.8 686.2, 1355.4 681.6, 1512.8 830.2 C 1670.1 978.7, 1524.2 872.0, 1524.2 1066.0 Z" fill="#D7F8E8" opacity="0.34" filter="url(#blur_dashboard_03_9707)"/>
  <path d="M 1792.7 720.0 C 1792.7 1117.8, 1872.4 951.9, 1693.6 1273.8 C 1514.8 1595.6, 1636.4 1517.8, 1347.1 1640.7 C 1057.8 1763.7, 1205.1 1799.4, 915.8 1676.5 C 626.5 1553.5, 848.7 1560.7, 669.9 1238.9 C 491.1 917.1, 387.5 1117.8, 387.5 720.0 C 387.5 322.2, 382.5 564.5, 561.3 242.7 C 740.1 -79.1, 678.8 -74.2, 968.1 -197.2 C 1257.4 -320.1, 1095.0 -155.3, 1384.3 -32.4 C 1673.6 90.6, 1548.6 -127.4, 1727.4 194.4 C 1906.2 516.3, 1792.7 322.2, 1792.7 720.0 Z" fill="#A8F2C0" opacity="0.12" stroke="#A8F2C0" stroke-opacity="0.46" stroke-width="3" filter="url(#soft_dashboard_03_9707)"/>
  <path d="M 1792.7 720.0 C 1792.7 1117.8, 1872.4 951.9, 1693.6 1273.8 C 1514.8 1595.6, 1636.4 1517.8, 1347.1 1640.7 C 1057.8 1763.7, 1205.1 1799.4, 915.8 1676.5 C 626.5 1553.5, 848.7 1560.7, 669.9 1238.9 C 491.1 917.1, 387.5 1117.8, 387.5 720.0 C 387.5 322.2, 382.5 564.5, 561.3 242.7 C 740.1 -79.1, 678.8 -74.2, 968.1 -197.2 C 1257.4 -320.1, 1095.0 -155.3, 1384.3 -32.4 C 1673.6 90.6, 1548.6 -127.4, 1727.4 194.4 C 1906.2 516.3, 1792.7 322.2, 1792.7 720.0 Z" fill="none" stroke="#FFFFFF" stroke-opacity="0.22" stroke-width="1.2"/>
  <path d="M 1270.5 520.0 C 1270.5 804.4, 1313.3 623.8, 1173.4 853.8 C 1033.5 1083.9, 1192.7 1079.8, 966.3 1167.7 C 739.9 1255.6, 880.2 1208.6, 653.8 1120.8 C 427.5 1032.9, 489.5 1173.4, 349.6 943.4 C 209.7 713.3, 281.7 804.4, 281.7 520.0 C 281.7 235.6, 277.0 355.3, 416.9 125.3 C 556.8 -104.8, 396.6 2.6, 623.0 -85.3 C 849.4 -173.2, 726.0 -141.4, 952.4 -53.5 C 1178.8 34.4, 1086.4 -79.1, 1226.4 151.0 C 1366.3 381.1, 1270.5 235.6, 1270.5 520.0 Z" fill="#E8FFF5" opacity="0.12" stroke="#E8FFF5" stroke-opacity="0.46" stroke-width="3" filter="url(#soft_dashboard_03_9707)"/>
  <path d="M 1270.5 520.0 C 1270.5 804.4, 1313.3 623.8, 1173.4 853.8 C 1033.5 1083.9, 1192.7 1079.8, 966.3 1167.7 C 739.9 1255.6, 880.2 1208.6, 653.8 1120.8 C 427.5 1032.9, 489.5 1173.4, 349.6 943.4 C 209.7 713.3, 281.7 804.4, 281.7 520.0 C 281.7 235.6, 277.0 355.3, 416.9 125.3 C 556.8 -104.8, 396.6 2.6, 623.0 -85.3 C 849.4 -173.2, 726.0 -141.4, 952.4 -53.5 C 1178.8 34.4, 1086.4 -79.1, 1226.4 151.0 C 1366.3 381.1, 1270.5 235.6, 1270.5 520.0 Z" fill="none" stroke="#FFFFFF" stroke-opacity="0.22" stroke-width="1.2"/>
  <path d="M 1076.4 1753.0 C 1076.4 2044.6, 1213.2 1945.0, 1098.6 2180.9 C 984.1 2416.8, 1003.8 2228.6, 818.5 2318.7 C 633.2 2408.8, 746.0 2378.5, 560.7 2288.4 C 375.4 2198.3, 504.7 2354.9, 390.2 2119.0 C 275.7 1883.1, 327.8 2044.6, 327.8 1753.0 C 327.8 1461.4, 193.3 1653.5, 307.8 1417.6 C 422.3 1181.7, 394.2 1164.5, 579.6 1074.4 C 764.9 984.3, 645.0 1070.3, 830.4 1160.4 C 1015.7 1250.5, 898.8 1143.3, 1013.3 1379.2 C 1127.8 1615.1, 1076.4 1461.4, 1076.4 1753.0 Z" fill="#A4E6F5" opacity="0.12" stroke="#A4E6F5" stroke-opacity="0.46" stroke-width="3" filter="url(#soft_dashboard_03_9707)"/>
  <path d="M 1076.4 1753.0 C 1076.4 2044.6, 1213.2 1945.0, 1098.6 2180.9 C 984.1 2416.8, 1003.8 2228.6, 818.5 2318.7 C 633.2 2408.8, 746.0 2378.5, 560.7 2288.4 C 375.4 2198.3, 504.7 2354.9, 390.2 2119.0 C 275.7 1883.1, 327.8 2044.6, 327.8 1753.0 C 327.8 1461.4, 193.3 1653.5, 307.8 1417.6 C 422.3 1181.7, 394.2 1164.5, 579.6 1074.4 C 764.9 984.3, 645.0 1070.3, 830.4 1160.4 C 1015.7 1250.5, 898.8 1143.3, 1013.3 1379.2 C 1127.8 1615.1, 1076.4 1461.4, 1076.4 1753.0 Z" fill="none" stroke="#FFFFFF" stroke-opacity="0.22" stroke-width="1.2"/>
  <path d="M 509.4 1347.0 C 509.4 1745.2, 494.6 1522.8, 388.6 1845.0 C 282.5 2167.2, 373.2 2120.7, 201.6 2243.8 C 30.0 2366.8, 131.5 2266.4, -40.1 2143.3 C -211.7 2020.2, -81.8 2179.7, -187.8 1857.6 C -293.9 1535.4, -348.3 1745.2, -348.3 1347.0 C -348.3 948.8, -314.9 1140.5, -208.9 818.3 C -102.8 496.1, -193.1 525.9, -21.5 402.8 C 150.1 279.8, 33.0 342.3, 204.6 465.3 C 376.2 588.4, 309.7 443.8, 415.8 766.0 C 521.8 1088.2, 509.4 948.8, 509.4 1347.0 Z" fill="#D7F8E8" opacity="0.12" stroke="#FFFFFF" stroke-opacity="0.46" stroke-width="3" filter="url(#soft_dashboard_03_9707)"/>
  <path d="M 509.4 1347.0 C 509.4 1745.2, 494.6 1522.8, 388.6 1845.0 C 282.5 2167.2, 373.2 2120.7, 201.6 2243.8 C 30.0 2366.8, 131.5 2266.4, -40.1 2143.3 C -211.7 2020.2, -81.8 2179.7, -187.8 1857.6 C -293.9 1535.4, -348.3 1745.2, -348.3 1347.0 C -348.3 948.8, -314.9 1140.5, -208.9 818.3 C -102.8 496.1, -193.1 525.9, -21.5 402.8 C 150.1 279.8, 33.0 342.3, 204.6 465.3 C 376.2 588.4, 309.7 443.8, 415.8 766.0 C 521.8 1088.2, 509.4 948.8, 509.4 1347.0 Z" fill="none" stroke="#FFFFFF" stroke-opacity="0.22" stroke-width="1.2"/>
  <path d="M 1610.3 1064.0 C 1610.3 1301.6, 1631.1 1169.4, 1483.0 1361.7 C 1334.9 1553.9, 1391.2 1467.8, 1151.6 1541.2 C 911.9 1614.7, 1055.1 1702.8, 815.5 1629.4 C 575.8 1555.9, 682.9 1598.2, 534.8 1406.0 C 386.7 1213.8, 354.7 1301.6, 354.7 1064.0 C 354.7 826.4, 311.6 955.2, 459.7 762.9 C 607.8 570.7, 552.7 592.0, 792.4 518.6 C 1032.0 445.1, 931.2 493.9, 1170.9 567.3 C 1410.5 640.7, 1294.1 573.1, 1442.2 765.3 C 1590.4 957.6, 1610.3 826.4, 1610.3 1064.0 Z" fill="#D7F8E8" opacity="0.12" stroke="#FFFFFF" stroke-opacity="0.46" stroke-width="3" filter="url(#soft_dashboard_03_9707)"/>
  <path d="M 1610.3 1064.0 C 1610.3 1301.6, 1631.1 1169.4, 1483.0 1361.7 C 1334.9 1553.9, 1391.2 1467.8, 1151.6 1541.2 C 911.9 1614.7, 1055.1 1702.8, 815.5 1629.4 C 575.8 1555.9, 682.9 1598.2, 534.8 1406.0 C 386.7 1213.8, 354.7 1301.6, 354.7 1064.0 C 354.7 826.4, 311.6 955.2, 459.7 762.9 C 607.8 570.7, 552.7 592.0, 792.4 518.6 C 1032.0 445.1, 931.2 493.9, 1170.9 567.3 C 1410.5 640.7, 1294.1 573.1, 1442.2 765.3 C 1590.4 957.6, 1610.3 826.4, 1610.3 1064.0 Z" fill="none" stroke="#FFFFFF" stroke-opacity="0.22" stroke-width="1.2"/>
  <path d="M -100.0 2989.3 Q 133.3 2429.2, 366.7 2515.3 Q 600.0 2924.5, 833.3 2828.2 Q 1066.7 2402.4, 1300.0 2689.0" fill="none" stroke="#FFFFFF" stroke-opacity="0.38" stroke-width="4" filter="url(#soft_dashboard_03_9707)"/>
  <path d="M -100.0 2989.3 Q 133.3 2429.2, 366.7 2515.3 Q 600.0 2924.5, 833.3 2828.2 Q 1066.7 2402.4, 1300.0 2689.0" fill="none" stroke="#5DE0D7" stroke-opacity="0.18" stroke-width="2"/>
  <path d="M -100.0 -182.2 Q 133.3 -152.1, 366.7 124.4 Q 600.0 197.1, 833.3 42.0 Q 1066.7 -173.5, 1300.0 75.9" fill="none" stroke="#FFFFFF" stroke-opacity="0.38" stroke-width="4" filter="url(#soft_dashboard_03_9707)"/>
  <path d="M -100.0 -182.2 Q 133.3 -152.1, 366.7 124.4 Q 600.0 197.1, 833.3 42.0 Q 1066.7 -173.5, 1300.0 75.9" fill="none" stroke="#94D6FF" stroke-opacity="0.18" stroke-width="2"/>
  <path d="M -100.0 1939.8 Q 133.3 2351.0, 366.7 2488.5 Q 600.0 2494.8, 833.3 2068.7 Q 1066.7 1852.6, 1300.0 1880.5" fill="none" stroke="#FFFFFF" stroke-opacity="0.38" stroke-width="4" filter="url(#soft_dashboard_03_9707)"/>
  <path d="M -100.0 1939.8 Q 133.3 2351.0, 366.7 2488.5 Q 600.0 2494.8, 833.3 2068.7 Q 1066.7 1852.6, 1300.0 1880.5" fill="none" stroke="#A8F2C0" stroke-opacity="0.18" stroke-width="2"/>
  <path d="M -100.0 1503.4 Q 133.3 1647.5, 366.7 1671.8 Q 600.0 1447.2, 833.3 1146.6 Q 1066.7 1084.3, 1300.0 1105.2" fill="none" stroke="#FFFFFF" stroke-opacity="0.38" stroke-width="4" filter="url(#soft_dashboard_03_9707)"/>
  <path d="M -100.0 1503.4 Q 133.3 1647.5, 366.7 1671.8 Q 600.0 1447.2, 833.3 1146.6 Q 1066.7 1084.3, 1300.0 1105.2" fill="none" stroke="#94D6FF" stroke-opacity="0.18" stroke-width="2"/>
  <path d="M -100.0 1339.3 Q 133.3 1509.6, 366.7 1609.6 Q 600.0 1652.7, 833.3 1374.6 Q 1066.7 1159.6, 1300.0 1313.1" fill="none" stroke="#FFFFFF" stroke-opacity="0.38" stroke-width="4" filter="url(#soft_dashboard_03_9707)"/>
  <path d="M -100.0 1339.3 Q 133.3 1509.6, 366.7 1609.6 Q 600.0 1652.7, 833.3 1374.6 Q 1066.7 1159.6, 1300.0 1313.1" fill="none" stroke="#94D6FF" stroke-opacity="0.18" stroke-width="2"/>
  <circle cx="500" cy="791" r="216" fill="url(#orb_dashboard_03_9707)" opacity="0.36"/>
  <circle cx="500" cy="791" r="216" fill="#E8FFF5" opacity="0.08"/>
  <circle cx="500" cy="791" r="216" fill="none" stroke="#FFFFFF" stroke-opacity="0.56" stroke-width="3"/>
  <ellipse cx="439.5" cy="713.2" rx="38.9" ry="17.3" fill="#FFFFFF" opacity="0.42" transform="rotate(-22 439.5 713.2)"/>
  <circle cx="-32" cy="1951" r="167" fill="url(#orb_dashboard_03_9707)" opacity="0.36"/>
  <circle cx="-32" cy="1951" r="167" fill="#A8F2C0" opacity="0.08"/>
  <circle cx="-32" cy="1951" r="167" fill="none" stroke="#FFFFFF" stroke-opacity="0.56" stroke-width="3"/>
  <ellipse cx="-78.8" cy="1890.9" rx="30.1" ry="13.4" fill="#FFFFFF" opacity="0.42" transform="rotate(-22 -78.8 1890.9)"/>
  <circle cx="1076" cy="488" r="252" fill="url(#orb_dashboard_03_9707)" opacity="0.36"/>
  <circle cx="1076" cy="488" r="252" fill="#94D6FF" opacity="0.08"/>
  <circle cx="1076" cy="488" r="252" fill="none" stroke="#FFFFFF" stroke-opacity="0.56" stroke-width="3"/>
  <ellipse cx="1005.4" cy="397.3" rx="45.4" ry="20.2" fill="#FFFFFF" opacity="0.42" transform="rotate(-22 1005.4 397.3)"/>
  <circle cx="369" cy="1122" r="136" fill="url(#orb_dashboard_03_9707)" opacity="0.25"/>
  <circle cx="369" cy="1122" r="136" fill="#BDEFFF" opacity="0.08"/>
  <circle cx="369" cy="1122" r="136" fill="none" stroke="#FFFFFF" stroke-opacity="0.56" stroke-width="3"/>
  <ellipse cx="330.9" cy="1073.0" rx="24.5" ry="10.9" fill="#FFFFFF" opacity="0.42" transform="rotate(-22 330.9 1073.0)"/>
  <circle cx="802" cy="1202" r="244" fill="url(#orb_dashboard_03_9707)" opacity="0.26"/>
  <circle cx="802" cy="1202" r="244" fill="#A8F2C0" opacity="0.08"/>
  <circle cx="802" cy="1202" r="244" fill="none" stroke="#FFFFFF" stroke-opacity="0.56" stroke-width="3"/>
  <ellipse cx="733.7" cy="1114.2" rx="43.9" ry="19.5" fill="#FFFFFF" opacity="0.42" transform="rotate(-22 733.7 1114.2)"/>
  <circle cx="31" cy="416" r="158" fill="url(#orb_dashboard_03_9707)" opacity="0.17"/>
  <circle cx="31" cy="416" r="158" fill="#E8FFF5" opacity="0.08"/>
  <circle cx="31" cy="416" r="158" fill="none" stroke="#FFFFFF" stroke-opacity="0.56" stroke-width="3"/>
  <ellipse cx="-13.2" cy="359.1" rx="28.4" ry="12.6" fill="#FFFFFF" opacity="0.42" transform="rotate(-22 -13.2 359.1)"/>
  <circle cx="568" cy="1020" r="287" fill="url(#orb_dashboard_03_9707)" opacity="0.20"/>
  <circle cx="568" cy="1020" r="287" fill="#A4E6F5" opacity="0.08"/>
  <circle cx="568" cy="1020" r="287" fill="none" stroke="#FFFFFF" stroke-opacity="0.56" stroke-width="3"/>
  <ellipse cx="487.6" cy="916.7" rx="51.7" ry="23.0" fill="#FFFFFF" opacity="0.42" transform="rotate(-22 487.6 916.7)"/>
  <circle cx="804" cy="1463" r="161" fill="url(#orb_dashboard_03_9707)" opacity="0.26"/>
  <circle cx="804" cy="1463" r="161" fill="#5DE0D7" opacity="0.08"/>
  <circle cx="804" cy="1463" r="161" fill="none" stroke="#FFFFFF" stroke-opacity="0.56" stroke-width="3"/>
  <ellipse cx="758.9" cy="1405.0" rx="29.0" ry="12.9" fill="#FFFFFF" opacity="0.42" transform="rotate(-22 758.9 1405.0)"/>
  <circle cx="702" cy="413" r="231" fill="url(#orb_dashboard_03_9707)" opacity="0.17"/>
  <circle cx="702" cy="413" r="231" fill="#E8FFF5" opacity="0.08"/>
  <circle cx="702" cy="413" r="231" fill="none" stroke="#FFFFFF" stroke-opacity="0.56" stroke-width="3"/>
  <ellipse cx="637.3" cy="329.8" rx="41.6" ry="18.5" fill="#FFFFFF" opacity="0.42" transform="rotate(-22 637.3 329.8)"/>
  <circle cx="196" cy="165" r="236" fill="url(#orb_dashboard_03_9707)" opacity="0.24"/>
  <circle cx="196" cy="165" r="236" fill="#94D6FF" opacity="0.08"/>
  <circle cx="196" cy="165" r="236" fill="none" stroke="#FFFFFF" stroke-opacity="0.56" stroke-width="3"/>
  <ellipse cx="129.9" cy="80.0" rx="42.5" ry="18.9" fill="#FFFFFF" opacity="0.42" transform="rotate(-22 129.9 80.0)"/>
  <circle cx="-59" cy="2504" r="265" fill="url(#orb_dashboard_03_9707)" opacity="0.26"/>
  <circle cx="-59" cy="2504" r="265" fill="#5DE0D7" opacity="0.08"/>
  <circle cx="-59" cy="2504" r="265" fill="none" stroke="#FFFFFF" stroke-opacity="0.56" stroke-width="3"/>
  <ellipse cx="-133.2" cy="2408.6" rx="47.7" ry="21.2" fill="#FFFFFF" opacity="0.42" transform="rotate(-22 -133.2 2408.6)"/>
  <circle cx="897" cy="899" r="7" fill="#FFFFFF" opacity="0.49"/>
  <circle cx="200" cy="2098" r="7" fill="#FFFFFF" opacity="0.54"/>
  <circle cx="154" cy="2245" r="7" fill="#FFFFFF" opacity="0.61"/>
  <circle cx="384" cy="707" r="3" fill="#FFFFFF" opacity="0.52"/>
  <circle cx="396" cy="1758" r="4" fill="#FFFFFF" opacity="0.44"/>
  <circle cx="760" cy="150" r="2" fill="#FFFFFF" opacity="0.59"/>
  <circle cx="839" cy="1558" r="4" fill="#FFFFFF" opacity="0.62"/>
  <circle cx="1002" cy="128" r="3" fill="#FFFFFF" opacity="0.55"/>
  <circle cx="58" cy="1952" r="2" fill="#FFFFFF" opacity="0.55"/>
  <circle cx="606" cy="2332" r="3" fill="#FFFFFF" opacity="0.68"/>
  <circle cx="951" cy="2062" r="7" fill="#FFFFFF" opacity="0.65"/>
  <circle cx="894" cy="199" r="7" fill="#FFFFFF" opacity="0.60"/>
  <circle cx="145" cy="263" r="5" fill="#FFFFFF" opacity="0.33"/>
  <circle cx="930" cy="2498" r="4" fill="#FFFFFF" opacity="0.51"/>
  <circle cx="861" cy="1522" r="5" fill="#FFFFFF" opacity="0.32"/>
  <rect width="1200" height="2600" fill="#FFFFFF" opacity="0.08"/>
  <rect width="1200" height="2600" filter="url(#grain_dashboard_03_9707)" opacity="0.7"/>
</svg>
