<svg xmlns="http://www.w3.org/2000/svg" width="1200" height="2600" viewBox="0 0 1200 2600" preserveAspectRatio="xMidYMid slice">
  <defs>
    <linearGradient id="bg_dashboard_07_6155" x1="0" y1="0" x2="1" y2="1">
      <stop offset="0%" stop-color="#D7F8E8"/>
      <stop offset="48%" stop-color="#F8FFFD"/>
      <stop offset="100%" stop-color="#A4E6F5"/>
    </linearGradient>
    <radialGradient id="orb_dashboard_07_6155" cx="35%" cy="30%" r="70%">
      <stop offset="0%" stop-color="#FFFFFF" stop-opacity="0.85"/>
      <stop offset="42%" stop-color="#FFFFFF" stop-opacity="0.20"/>
      <stop offset="100%" stop-color="#FFFFFF" stop-opacity="0.02"/>
    </radialGradient>
    <filter id="blur_dashboard_07_6155" x="-30%" y="-30%" width="160%" height="160%">
      <feGaussianBlur stdDeviation="72"/>
    </filter>
    <filter id="soft_dashboard_07_6155" x="-20%" y="-20%" width="140%" height="140%">
      <feGaussianBlur stdDeviation="10"/>
    </filter>
    <filter id="grain_dashboard_07_6155">
      <feTurbulence type="fractalNoise" baseFrequency="0.85" numOctaves="2" stitchTiles="stitch"/>
      <feColorMatrix type="saturate" values="0"/>
      <feComponentTransfer>
        <feFuncA type="table" tableValues="0 0.035"/>
      </feComponentTransfer>
    </filter>
  </defs>
  <rect width="1200" height="2600" fill="url(#bg_dashboard_07_6155)"/>
  <path d="M 798.9 2234.0 C 798.9 2486.9, 824.5 2402.4, 707.9 2596.1 C 591.3 2789.8, 641.7 2722.0, 463.1 2765.9 C 284.5 2809.8, 323.9 2770.4, 166.8 2644.0 C 9.7 2517.5, 129.9 2683.7, 67.9 2446.0 C 5.9 2208.4, -30.1 2313.3, 32.0 2075.6 C 94.0 1838.0, 33.5 1844.5, 190.6 1718.0 C 347.6 1591.6, 282.9 1588.6, 461.5 1632.5 C 640.1 1676.5, 631.7 1639.4, 748.3 1833.2 C 864.9 2026.9, 798.9 1981.1, 798.9 2234.0 Z" fill="#5DE0D7" opacity="0.19" filter="url(#blur_dashboard_07_6155)"/>
  <path d="M 1077.6 531.0 C 1077.6 824.9, 1071.2 718.7, 989.9 943.8 C 908.6 1168.9, 982.5 1090.7, 858.0 1141.7 C 733.4 1192.7, 759.2 1254.2, 649.7 1107.2 C 540.2 960.3, 557.0 1053.6, 513.7 777.5 C 470.5 501.4, 478.7 560.8, 521.9 284.6 C 565.2 8.5, 541.6 19.9, 651.1 -127.0 C 760.6 -273.9, 740.9 -156.6, 865.4 -105.6 C 990.0 -54.6, 954.4 -156.6, 1035.7 68.5 C 1117.0 293.6, 1077.6 237.1, 1077.6 531.0 Z" fill="#A8F2C0" opacity="0.20" filter="url(#blur_dashboard_07_6155)"/>
  <path d="M 1434.0 2582.0 C 1434.0 2862.3, 1439.2 2754.2, 1309.6 2969.0 C 1180.0 3183.7, 1215.7 3235.4, 1017.2 3284.1 C 818.6 3332.8, 911.8 3251.9, 737.2 3111.7 C 562.6 2971.6, 590.1 3042.3, 521.1 2778.9 C 452.2 2515.4, 455.8 2603.5, 524.8 2340.0 C 593.7 2076.6, 582.2 2269.4, 756.8 2129.2 C 931.4 1989.1, 815.7 1916.6, 1014.2 1965.3 C 1212.8 2013.9, 1160.7 2023.4, 1290.3 2238.1 C 1419.9 2452.9, 1434.0 2301.7, 1434.0 2582.0 Z" fill="#E8FFF5" opacity="0.25" filter="url(#blur_dashboard_07_6155)"/>
  <path d="M 1889.9 1155.0 C 1889.9 1286.0, 1842.3 1218.9, 1680.3 1319.3 C 1518.4 1419.6, 1664.3 1432.4, 1416.1 1455.1 C 1168.0 1477.8, 1228.1 1502.7, 1009.9 1437.2 C 791.6 1371.7, 779.0 1387.6, 692.8 1264.5 C 606.6 1141.4, 775.3 1174.0, 861.5 1051.0 C 947.7 927.9, 844.6 943.7, 1062.9 878.3 C 1281.1 812.8, 1137.5 837.6, 1385.7 860.3 C 1633.9 883.1, 1628.9 857.5, 1790.9 957.8 C 1952.8 1058.2, 1889.9 1024.0, 1889.9 1155.0 Z" fill="#5DE0D7" opacity="0.19" filter="url(#blur_dashboard_07_6155)"/>
  <path d="M 320.6 2340.0 C 320.6 2474.1, 397.7 2453.6, 263.5 2556.4 C 129.3 2659.1, 192.1 2648.9, -13.5 2672.2 C -219.1 2695.5, -172.5 2643.3, -353.4 2576.2 C -534.2 2509.2, -471.3 2564.1, -542.7 2438.1 C -614.1 2312.1, -591.9 2378.3, -520.5 2252.3 C -449.1 2126.3, -542.8 2106.7, -361.9 2039.6 C -181.1 1972.6, -241.8 2040.9, -36.2 2064.2 C 169.5 2087.4, 57.8 2074.9, 192.1 2177.7 C 326.3 2280.4, 320.6 2205.9, 320.6 2340.0 Z" fill="#5DE0D7" opacity="0.28" filter="url(#blur_dashboard_07_6155)"/>
  <path d="M 1376.3 2729.0 C 1376.3 2854.1, 1400.5 2789.8, 1256.8 2885.6 C 1113.0 2981.4, 1183.1 2989.9, 962.9 3011.6 C 742.6 3033.4, 843.5 3018.3, 649.9 2955.8 C 456.2 2893.2, 437.7 2927.7, 361.2 2810.1 C 284.7 2692.6, 359.0 2751.4, 435.5 2633.8 C 512.0 2516.3, 444.7 2552.3, 638.4 2489.8 C 832.1 2427.2, 749.6 2402.4, 969.8 2424.1 C 1190.1 2445.9, 1062.1 2467.4, 1205.9 2563.2 C 1349.7 2659.0, 1376.3 2603.9, 1376.3 2729.0 Z" fill="#A4E6F5" opacity="0.25" filter="url(#blur_dashboard_07_6155)"/>
  <path d="M 1653.0 594.0 C 1653.0 789.8, 1662.0 711.1, 1548.9 861.1 C 1435.8 1011.0, 1455.8 954.5, 1282.6 988.5 C 1109.3 1022.5, 1178.5 1024.1, 1026.1 926.2 C 873.8 828.3, 960.2 939.1, 900.0 755.2 C 839.8 571.2, 718.1 622.9, 778.3 439.0 C 838.5 255.0, 896.2 289.3, 1048.6 191.5 C 1200.9 93.6, 1105.5 106.8, 1278.8 140.8 C 1452.1 174.8, 1393.6 139.3, 1506.7 289.3 C 1619.8 439.2, 1653.0 398.2, 1653.0 594.0 Z" fill="#A8F2C0" opacity="0.36" filter="url(#blur_dashboard_07_6155)"/>
  <path d="M 1358.4 599.0 C 1358.4 815.0, 1512.4 691.3, 1386.9 856.7 C 1261.4 1022.2, 1259.6 1103.1, 1067.3 1140.6 C 874.9 1178.1, 946.0 1165.1, 776.8 1057.1 C 607.7 949.1, 629.4 973.0, 562.6 770.0 C 495.9 567.1, 520.1 640.3, 586.9 437.4 C 653.7 234.4, 641.9 350.3, 811.1 242.3 C 980.2 134.3, 873.3 116.7, 1065.7 154.2 C 1258.0 191.7, 1187.2 166.4, 1312.7 331.8 C 1438.3 497.3, 1358.4 383.0, 1358.4 599.0 Z" fill="#A8F2C0" opacity="0.32" filter="url(#blur_dashboard_07_6155)"/>
  <path d="M 1040.8 2086.0 C 1040.8 2309.7, 1018.7 2268.6, 910.2 2439.9 C 801.7 2611.2, 903.0 2457.5, 736.9 2496.4 C 570.7 2535.2, 625.4 2556.4, 479.3 2444.6 C 333.1 2332.8, 307.7 2475.3, 250.0 2265.1 C 192.3 2055.0, 251.5 2152.4, 309.2 1942.3 C 366.9 1732.1, 302.5 1803.7, 448.6 1691.9 C 594.7 1580.1, 564.0 1626.4, 730.2 1665.2 C 896.4 1704.0, 835.3 1579.7, 943.8 1751.0 C 1052.3 1922.3, 1040.8 1862.3, 1040.8 2086.0 Z" fill="#5DE0D7" opacity="0.33" filter="url(#blur_dashboard_07_6155)"/>
  <path d="M 376.3 398.0 C 376.3 665.3, 545.8 634.9, 384.6 839.7 C 223.5 1044.4, 230.8 1000.4, -16.0 1046.8 C -262.9 1093.2, -128.1 1044.7, -345.1 911.0 C -562.2 777.4, -591.5 851.7, -677.2 600.5 C -763.0 349.3, -668.6 434.3, -582.9 183.1 C -497.1 -68.1, -573.0 27.6, -355.9 -106.0 C -138.8 -239.7, -251.7 -204.2, -4.9 -157.8 C 242.0 -111.4, 184.1 -189.3, 345.3 15.4 C 506.4 220.2, 376.3 130.7, 376.3 398.0 Z" fill="#5DE0D7" opacity="0.35" filter="url(#blur_dashboard_07_6155)"/>
  <path d="M 1477.9 1095.0 C 1477.9 1288.5, 1514.1 1184.9, 1340.9 1341.5 C 1167.6 1498.0, 1272.5 1437.3, 992.2 1497.1 C 711.9 1556.9, 857.2 1526.0, 576.9 1466.2 C 296.6 1406.4, 399.8 1470.4, 226.6 1313.8 C 53.3 1157.3, 186.5 1288.5, 186.5 1095.0 C 186.5 901.5, 65.0 1026.6, 238.2 870.1 C 411.5 713.5, 316.9 700.8, 597.2 641.0 C 877.6 581.2, 714.6 675.5, 994.9 735.3 C 1275.2 795.1, 1169.2 712.8, 1342.4 869.4 C 1515.7 1025.9, 1477.9 901.5, 1477.9 1095.0 Z" fill="#A4E6F5" opacity="0.12" stroke="#FFFFFF" stroke-opacity="0.46" stroke-width="3" filter="url(#soft_dashboard_07_6155)"/>
  <path d="M 1477.9 1095.0 C 1477.9 1288.5, 1514.1 1184.9, 1340.9 1341.5 C 1167.6 1498.0, 1272.5 1437.3, 992.2 1497.1 C 711.9 1556.9, 857.2 1526.0, 576.9 1466.2 C 296.6 1406.4, 399.8 1470.4, 226.6 1313.8 C 53.3 1157.3, 186.5 1288.5, 186.5 1095.0 C 186.5 901.5, 65.0 1026.6, 238.2 870.1 C 411.5 713.5, 316.9 700.8, 597.2 641.0 C 877.6 581.2, 714.6 675.5, 994.9 735.3 C 1275.2 795.1, 1169.2 712.8, 1342.4 869.4 C 1515.7 1025.9, 1477.9 901.5, 1477.9 1095.0 Z" fill="none" stroke="#FFFFFF" stroke-opacity="0.22" stroke-width="1.2"/>
  <path d="M 882.3 1537.0 C 882.3 1836.2, 907.2 1691.3, 825.2 1933.4 C 743.2 2175.5, 834.2 2121.4, 701.6 2213.9 C 568.9 2306.3, 646.0 2226.5, 513.3 2134.0 C 380.6 2041.6, 422.6 2183.7, 340.6 1941.6 C 258.6 1699.5, 301.8 1836.2, 301.8 1537.0 C 301.8 1237.8, 306.3 1373.2, 388.3 1131.1 C 470.3 889.0, 367.3 1020.8, 500.0 928.4 C 632.7 835.9, 573.0 780.4, 705.7 872.8 C 838.3 965.3, 753.1 922.8, 835.1 1164.8 C 917.1 1406.9, 882.3 1237.8, 882.3 1537.0 Z" fill="#E8FFF5" opacity="0.12" stroke="#FFFFFF" stroke-opacity="0.46" stroke-width="3" filter="url(#soft_dashboard_07_6155)"/>
  <path d="M 882.3 1537.0 C 882.3 1836.2, 907.2 1691.3, 825.2 1933.4 C 743.2 2175.5, 834.2 2121.4, 701.6 2213.9 C 568.9 2306.3, 646.0 2226.5, 513.3 2134.0 C 380.6 2041.6, 422.6 2183.7, 340.6 1941.6 C 258.6 1699.5, 301.8 1836.2, 301.8 1537.0 C 301.8 1237.8, 306.3 1373.2, 388.3 1131.1 C 470.3 889.0, 367.3 1020.8, 500.0 928.4 C 632.7 835.9, 573.0 780.4, 705.7 872.8 C 838.3 965.3, 753.1 922.8, 835.1 1164.8 C 917.1 1406.9, 882.3 1237.8, 882.3 1537.0 Z" fill="none" stroke="#FFFFFF" stroke-opacity="0.22" stroke-width="1.2"/>
  <path d="M 1488.8 2059.0 C 1488.8 2284.0, 1504.6 2186.6, 1342.7 2368.7 C 1180.9 2550.7, 1256.2 2523.4, 994.2 2592.9 C 732.3 2662.4, 918.5 2549.5, 656.6 2479.9 C 394.7 2410.4, 515.2 2541.1, 353.3 2359.0 C 191.4 2177.0, 271.7 2284.0, 271.7 2059.0 C 271.7 1834.0, 103.3 1948.6, 265.2 1766.5 C 427.1 1584.5, 371.8 1700.1, 633.8 1630.5 C 895.7 1561.0, 774.4 1478.1, 1036.3 1547.6 C 1298.2 1617.1, 1127.3 1542.8, 1289.2 1724.9 C 1451.1 1906.9, 1488.8 1834.0, 1488.8 2059.0 Z" fill="#A8F2C0" opacity="0.12" stroke="#A8F2C0" stroke-opacity="0.46" stroke-width="3" filter="url(#soft_dashboard_07_6155)"/>
  <path d="M 1488.8 2059.0 C 1488.8 2284.0, 1504.6 2186.6, 1342.7 2368.7 C 1180.9 2550.7, 1256.2 2523.4, 994.2 2592.9 C 732.3 2662.4, 918.5 2549.5, 656.6 2479.9 C 394.7 2410.4, 515.2 2541.1, 353.3 2359.0 C 191.4 2177.0, 271.7 2284.0, 271.7 2059.0 C 271.7 1834.0, 103.3 1948.6, 265.2 1766.5 C 427.1 1584.5, 371.8 1700.1, 633.8 1630.5 C 895.7 1561.0, 774.4 1478.1, 1036.3 1547.6 C 1298.2 1617.1, 1127.3 1542.8, 1289.2 1724.9 C 1451.1 1906.9, 1488.8 1834.0, 1488.8 2059.0 Z" fill="none" stroke="#FFFFFF" stroke-opacity="0.22" stroke-width="1.2"/>
  <path d="M 123.0 1687.0 C 123.0 2076.2, 162.6 1838.3, 91.7 2153.2 C 20.9 2468.1, 83.3 2306.5, -31.4 2426.8 C -146.1 2547.1, -78.6 2551.0, -193.3 2430.7 C -308.0 2310.5, -248.5 2503.3, -319.4 2188.4 C -390.3 1873.5, -409.5 2076.2, -409.5 1687.0 C -409.5 1297.8, -402.8 1514.1, -331.9 1199.2 C -261.1 884.3, -317.8 893.1, -203.1 772.9 C -88.4 652.6, -160.9 776.7, -46.2 897.0 C 68.5 1017.3, 29.2 864.8, 100.1 1179.7 C 171.0 1494.7, 123.0 1297.8, 123.0 1687.0 Z" fill="#A4E6F5" opacity="0.12" stroke="#FFFFFF" stroke-opacity="0.46" stroke-width="3" filter="url(#soft_dashboard_07_6155)"/>
  <path d="M 123.0 1687.0 C 123.0 2076.2, 162.6 1838.3, 91.7 2153.2 C 20.9 2468.1, 83.3 2306.5, -31.4 2426.8 C -146.1 2547.1, -78.6 2551.0, -193.3 2430.7 C -308.0 2310.5, -248.5 2503.3, -319.4 2188.4 C -390.3 1873.5, -409.5 2076.2, -409.5 1687.0 C -409.5 1297.8, -402.8 1514.1, -331.9 1199.2 C -261.1 884.3, -317.8 893.1, -203.1 772.9 C -88.4 652.6, -160.9 776.7, -46.2 897.0 C 68.5 1017.3, 29.2 864.8, 100.1 1179.7 C 171.0 1494.7, 123.0 1297.8, 123.0 1687.0 Z" fill="none" stroke="#FFFFFF" stroke-opacity="0.22" stroke-width="1.2"/>
  <path d="M 1364.0 2310.0 C 1364.0 2703.3, 1364.8 2528.9, 1285.9 2847.1 C 1207.1 3165.2, 1275.1 3119.4, 1147.6 3241.0 C 1020.0 3362.5, 1070.6 3260.9, 943.1 3139.4 C 815.5 3017.9, 901.1 3110.5, 822.2 2792.4 C 743.4 2474.2, 756.1 2703.3, 756.1 2310.0 C 756.1 1916.7, 739.9 2134.6, 818.7 1816.4 C 897.5 1498.2, 832.1 1609.5, 959.6 1488.0 C 1087.2 1366.4, 1001.6 1353.2, 1129.2 1474.8 C 1256.7 1596.3, 1243.2 1483.5, 1322.1 1801.7 C 1400.9 2119.9, 1364.0 1916.7, 1364.0 2310.0 Z" fill="#BDEFFF" opacity="0.12" stroke="#BDEFFF" stroke-opacity="0.46" stroke-width="3" filter="url(#soft_dashboard_07_6155)"/>
  <path d="M 1364.0 2310.0 C 1364.0 2703.3, 1364.8 2528.9, 1285.9 2847.1 C 1207.1 3165.2, 1275.1 3119.4, 1147.6 3241.0 C 1020.0 3362.5, 1070.6 3260.9, 943.1 3139.4 C 815.5 3017.9, 901.1 3110.5, 822.2 2792.4 C 743.4 2474.2, 756.1 2703.3, 756.1 2310.0 C 756.1 1916.7, 739.9 2134.6, 818.7 1816.4 C 897.5 1498.2, 832.1 1609.5, 959.6 1488.0 C 1087.2 1366.4, 1001.6 1353.2, 1129.2 1474.8 C 1256.7 1596.3, 1243.2 1483.5, 1322.1 1801.7 C 1400.9 2119.9, 1364.0 1916.7, 1364.0 2310.0 Z" fill="none" stroke="#FFFFFF" stroke-opacity="0.22" stroke-width="1.2"/>
  <path d="M 1392.1 1160.0 C 1392.1 1548.8, 1476.1 1372.3, 1380.1 1686.9 C 1284.0 2001.4, 1327.1 1907.2, 1171.7 2027.3 C 1016.3 2147.5, 1102.1 2009.3, 946.7 1889.2 C 791.4 1769.0, 912.8 1942.7, 816.8 1628.1 C 720.8 1313.6, 679.6 1548.8, 679.6 1160.0 C 679.6 771.2, 703.0 1001.8, 799.0 687.3 C 895.1 372.8, 815.2 440.4, 970.6 320.3 C 1125.9 200.1, 1032.5 192.6, 1187.8 312.7 C 1343.2 432.9, 1261.7 385.9, 1357.7 700.4 C 1453.7 1015.0, 1392.1 771.2, 1392.1 1160.0 Z" fill="#E8FFF5" opacity="0.12" stroke="#FFFFFF" stroke-opacity="0.46" stroke-width="3" filter="url(#soft_dashboard_07_6155)"/>
  <path d="M 1392.1 1160.0 C 1392.1 1548.8, 1476.1 1372.3, 1380.1 1686.9 C 1284.0 2001.4, 1327.1 1907.2, 1171.7 2027.3 C 1016.3 2147.5, 1102.1 2009.3, 946.7 1889.2 C 791.4 1769.0, 912.8 1942.7, 816.8 1628.1 C 720.8 1313.6, 679.6 1548.8, 679.6 1160.0 C 679.6 771.2, 703.0 1001.8, 799.0 687.3 C 895.1 372.8, 815.2 440.4, 970.6 320.3 C 1125.9 200.1, 1032.5 192.6, 1187.8 312.7 C 1343.2 432.9, 1261.7 385.9, 1357.7 700.4 C 1453.7 1015.0, 1392.1 771.2, 1392.1 1160.0 Z" fill="none" stroke="#FFFFFF" stroke-opacity="0.22" stroke-width="1.2"/>
  <path d="M -100.0 1788.2 Q 133.3 1533.8, 366.7 1563.7 Q 600.0 1685.5, 833.3 1758.2 Q 1066.7 1910.3, 1300.0 2114.5" fill="none" stroke="#FFFFFF" stroke-opacity="0.38" stroke-width="4" filter="url(#soft_dashboard_07_6155)"/>
  <path d="M -100.0 1788.2 Q 133.3 1533.8, 366.7 1563.7 Q 600.0 1685.5, 833.3 1758.2 Q 1066.7 1910.3, 1300.0 2114.5" fill="none" stroke="#5DE0D7" stroke-opacity="0.18" stroke-width="2"/>
  <path d="M -100.0 711.1 Q 133.3 270.5, 366.7 561.3 Q 600.0 867.8, 833.3 798.9 Q 1066.7 396.8, 1300.0 320.1" fill="none" stroke="#FFFFFF" stroke-opacity="0.38" stroke-width="4" filter="url(#soft_dashboard_07_6155)"/>
  <path d="M -100.0 711.1 Q 133.3 270.5, 366.7 561.3 Q 600.0 867.8, 833.3 798.9 Q 1066.7 396.8, 1300.0 320.1" fill="none" stroke="#94D6FF" stroke-opacity="0.18" stroke-width="2"/>
  <path d="M -100.0 2550.9 Q 133.3 2502.9, 366.7 2482.1 Q 600.0 2719.2, 833.3 2743.3 Q 1066.7 2574.3, 1300.0 2387.3" fill="none" stroke="#FFFFFF" stroke-opacity="0.38" stroke-width="4" filter="url(#soft_dashboard_07_6155)"/>
  <path d="M -100.0 2550.9 Q 133.3 2502.9, 366.7 2482.1 Q 600.0 2719.2, 833.3 2743.3 Q 1066.7 2574.3, 1300.0 2387.3" fill="none" stroke="#94D6FF" stroke-opacity="0.18" stroke-width="2"/>
  <path d="M -100.0 1550.4 Q 133.3 1803.5, 366.7 1742.4 Q 600.0 1349.0, 833.3 1220.3 Q 1066.7 1424.4, 1300.0 1880.6" fill="none" stroke="#FFFFFF" stroke-opacity="0.38" stroke-width="4" filter="url(#soft_dashboard_07_6155)"/>
  <path d="M -100.0 1550.4 Q 133.3 1803.5, 366.7 1742.4 Q 600.0 1349.0, 833.3 1220.3 Q 1066.7 1424.4, 1300.0 1880.6" fill="none" stroke="#5DE0D7" stroke-opacity="0.18" stroke-width="2"/>
  <path d="M -100.0 957.0 Q 133.3 719.3, 366.7 389.7 Q 600.0 392.3, 833.3 389.9 Q 1066.7 723.0, 1300.0 874.2" fill="none" stroke="#FFFFFF" stroke-opacity="0.38" stroke-width="4" filter="url(#soft_dashboard_07_6155)"/>
  <path d="M -100.0 957.0 Q 133.3 719.3, 366.7 389.7 Q 600.0 392.3, 833.3 389.9 Q 1066.7 723.0, 1300.0 874.2" fill="none" stroke="#A8F2C0" stroke-opacity="0.18" stroke-width="2"/>
  <circle cx="255" cy="886" r="205" fill="url(#orb_dashboard_07_6155)" opacity="0.36"/>
  <circle cx="255" cy="886" r="205" fill="#5DE0D7" opacity="0.08"/>
  <circle cx="255" cy="886" r="205" fill="none" stroke="#FFFFFF" stroke-opacity="0.56" stroke-width="3"/>
  <ellipse cx="197.6" cy="812.2" rx="36.9" ry="16.4" fill="#FFFFFF" opacity="0.42" transform="rotate(-22 197.6 812.2)"/>
  <circle cx="1201" cy="804" r="113" fill="url(#orb_dashboard_07_6155)" opacity="0.36"/>
  <circle cx="1201" cy="804" r="113" fill="#94D6FF" opacity="0.08"/>
  <circle cx="1201" cy="804" r="113" fill="none" stroke="#FFFFFF" stroke-opacity="0.56" stroke-width="3"/>
  <ellipse cx="1169.4" cy="763.3" rx="20.3" ry="9.0" fill="#FFFFFF" opacity="0.42" transform="rotate(-22 1169.4 763.3)"/>
  <circle cx="1068" cy="1036" r="289" fill="url(#orb_dashboard_07_6155)" opacity="0.36"/>
  <circle cx="1068" cy="1036" r="289" fill="#A8F2C0" opacity="0.08"/>
  <circle cx="1068" cy="1036" r="289" fill="none" stroke="#FFFFFF" stroke-opacity="0.56" stroke-width="3"/>
  <ellipse cx="987.1" cy="932.0" rx="52.0" ry="23.1" fill="#FFFFFF" opacity="0.42" transform="rotate(-22 987.1 932.0)"/>
  <circle cx="681" cy="777" r="108" fill="url(#orb_dashboard_07_6155)" opacity="0.21"/>
  <circle cx="681" cy="777" r="108" fill="#A8F2C0" opacity="0.08"/>
  <circle cx="681" cy="777" r="108" fill="none" stroke="#FFFFFF" stroke-opacity="0.56" stroke-width="3"/>
  <ellipse cx="650.8" cy="738.1" rx="19.4" ry="8.6" fill="#FFFFFF" opacity="0.42" transform="rotate(-22 650.8 738.1)"/>
  <circle cx="753" cy="1479" r="201" fill="url(#orb_dashboard_07_6155)" opacity="0.25"/>
  <circle cx="753" cy="1479" r="201" fill="#F8FFFD" opacity="0.08"/>
  <circle cx="753" cy="1479" r="201" fill="none" stroke="#FFFFFF" stroke-opacity="0.56" stroke-width="3"/>
  <ellipse cx="696.7" cy="1406.6" rx="36.2" ry="16.1" fill="#FFFFFF" opacity="0.42" transform="rotate(-22 696.7 1406.6)"/>
  <circle cx="76" cy="833" r="243" fill="url(#orb_dashboard_07_6155)" opacity="0.25"/>
  <circle cx="76" cy="833" r="243" fill="#D7F8E8" opacity="0.08"/>
  <circle cx="76" cy="833" r="243" fill="none" stroke="#FFFFFF" stroke-opacity="0.56" stroke-width="3"/>
  <ellipse cx="8.0" cy="745.5" rx="43.7" ry="19.4" fill="#FFFFFF" opacity="0.42" transform="rotate(-22 8.0 745.5)"/>
  <circle cx="1216" cy="1942" r="244" fill="url(#orb_dashboard_07_6155)" opacity="0.18"/>
  <circle cx="1216" cy="1942" r="244" fill="#E8FFF5" opacity="0.08"/>
  <circle cx="1216" cy="1942" r="244" fill="none" stroke="#FFFFFF" stroke-opacity="0.56" stroke-width="3"/>
  <ellipse cx="1147.7" cy="1854.2" rx="43.9" ry="19.5" fill="#FFFFFF" opacity="0.42" transform="rotate(-22 1147.7 1854.2)"/>
  <circle cx="520" cy="799" r="125" fill="url(#orb_dashboard_07_6155)" opacity="0.19"/>
  <circle cx="520" cy="799" r="125" fill="#A4E6F5" opacity="0.08"/>
  <circle cx="520" cy="799" r="125" fill="none" stroke="#FFFFFF" stroke-opacity="0.56" stroke-width="3"/>
  <ellipse cx="485.0" cy="754.0" rx="22.5" ry="10.0" fill="#FFFFFF" opacity="0.42" transform="rotate(-22 485.0 754.0)"/>
  <circle cx="724" cy="249" r="185" fill="url(#orb_dashboard_07_6155)" opacity="0.16"/>
  <circle cx="724" cy="249" r="185" fill="#D7F8E8" opacity="0.08"/>
  <circle cx="724" cy="249" r="185" fill="none" stroke="#FFFFFF" stroke-opacity="0.56" stroke-width="3"/>
  <ellipse cx="672.2" cy="182.4" rx="33.3" ry="14.8" fill="#FFFFFF" opacity="0.42" transform="rotate(-22 672.2 182.4)"/>
  <circle cx="773" cy="2149" r="3" fill="#FFFFFF" opacity="0.39"/>
  <circle cx="957" cy="2059" r="7" fill="#FFFFFF" opacity="0.59"/>
  <circle cx="348" cy="1020" r="5" fill="#FFFFFF" opacity="0.63"/>
  <circle cx="639" cy="746" r="3" fill="#FFFFFF" opacity="0.64"/>
  <circle cx="606" cy="626" r="2" fill="#FFFFFF" opacity="0.53"/>
  <circle cx="736" cy="1747" r="4" fill="#FFFFFF" opacity="0.56"/>
  <circle cx="311" cy="292" r="3" fill="#FFFFFF" opacity="0.55"/>
  <circle cx="1197" cy="2556" r="5" fill="#FFFFFF" opacity="0.35"/>
  <circle cx="1152" cy="1123" r="3" fill="#FFFFFF" opacity="0.67"/>
  <circle cx="480" cy="1203" r="4" fill="#FFFFFF" opacity="0.40"/>
  <circle cx="1166" cy="766" r="5" fill="#FFFFFF" opacity="0.70"/>
  <circle cx="796" cy="1830" r="5" fill="#FFFFFF" opacity="0.54"/>
  <circle cx="350" cy="1295" r="2" fill="#FFFFFF" opacity="0.70"/>
  <circle cx="337" cy="1832" r="5" fill="#FFFFFF" opacity="0.35"/>
  <circle cx="831" cy="1325" r="3" fill="#FFFFFF" opacity="0.31"/>
  <circle cx="581" cy="1343" r="7" fill="#FFFFFF" opacity="0.69"/>
  <circle cx="1054" cy="1823" r="2" fill="#FFFFFF" opacity="0.65"/>
  <circle cx="296" cy="2378" r="7" fill="#FFFFFF" opacity="0.63"/>
  <circle cx="220" cy="224" r="2" fill="#FFFFFF" opacity="0.60"/>
  <rect width="1200" height="2600" fill="#FFFFFF" opacity="0.08"/>
  <rect width="1200" height="2600" filter="url(#grain_dashboard_07_6155)" opacity="0.7"/>
</svg>
