<svg xmlns="http://www.w3.org/2000/svg" width="1200" height="2600" viewBox="0 0 1200 2600" preserveAspectRatio="xMidYMid slice">
  <defs>
    <linearGradient id="bg_dashboard_14_8650" x1="0" y1="0" x2="1" y2="1">
      <stop offset="0%" stop-color="#D7F8E8"/>
      <stop offset="48%" stop-color="#BDEFFF"/>
      <stop offset="100%" stop-color="#E8FFF5"/>
    </linearGradient>
    <radialGradient id="orb_dashboard_14_8650" cx="35%" cy="30%" r="70%">
      <stop offset="0%" stop-color="#FFFFFF" stop-opacity="0.85"/>
      <stop offset="42%" stop-color="#FFFFFF" stop-opacity="0.20"/>
      <stop offset="100%" stop-color="#FFFFFF" stop-opacity="0.02"/>
    </radialGradient>
    <filter id="blur_dashboard_14_8650" x="-30%" y="-30%" width="160%" height="160%">
      <feGaussianBlur stdDeviation="72"/>
    </filter>
    <filter id="soft_dashboard_14_8650" x="-20%" y="-20%" width="140%" height="140%">
      <feGaussianBlur stdDeviation="10"/>
    </filter>
    <filter id="grain_dashboard_14_8650">
      <feTurbulence type="fractalNoise" baseFrequency="0.85" numOctaves="2" stitchTiles="stitch"/>
      <feColorMatrix type="saturate" values="0"/>
      <feComponentTransfer>
        <feFuncA type="table" tableValues="0 0.035"/>
      </feComponentTransfer>
    </filter>
  </defs>
  <rect width="1200" height="2600" fill="url(#bg_dashboard_14_8650)"/>
  <path d="M 820.8 470.0 C 820.8 675.2, 832.6 611.6, 759.1 768.8 C 685.7 926.0, 716.4 803.4, 603.8 839.1 C 491.2 874.7, 539.6 958.6, 440.6 856.0 C 341.6 753.4, 348.1 825.1, 309.0 632.2 C 269.9 439.4, 310.0 489.3, 349.1 296.5 C 388.2 103.7, 338.3 139.1, 437.3 36.5 C 536.3 -66.1, 498.8 -53.0, 611.3 -17.3 C 723.9 18.3, 687.7 52.7, 761.2 209.9 C 834.7 367.1, 820.8 264.8, 820.8 470.0 Z" fill="#A8F2C0" opacity="0.17" filter="url(#blur_dashboard_14_8650)"/>
  <path d="M 554.1 498.0 C 554.1 677.5, 499.5 627.5, 372.2 765.0 C 244.9 902.6, 349.7 895.4, 154.7 926.6 C -40.3 957.8, 25.5 974.8, -146.0 885.0 C -317.5 795.2, -217.9 797.2, -285.7 628.5 C -353.4 459.8, -334.9 529.0, -267.1 360.3 C -199.4 191.6, -335.2 211.5, -163.7 121.7 C 7.8 31.9, -23.7 33.4, 171.3 64.5 C 366.3 95.7, 308.6 127.3, 435.9 264.8 C 563.2 402.3, 554.1 318.4, 554.1 498.0 Z" fill="#D7F8E8" opacity="0.30" filter="url(#blur_dashboard_14_8650)"/>
  <path d="M 422.4 2056.0 C 422.4 2291.8, 452.5 2157.0, 355.0 2337.7 C 257.5 2518.3, 271.9 2546.3, 122.6 2587.3 C -26.8 2628.2, 14.0 2693.2, -117.4 2575.3 C -248.7 2457.4, -196.4 2463.8, -248.3 2242.2 C -300.1 2020.6, -304.9 2077.6, -253.0 1856.0 C -201.2 1634.5, -225.3 1716.5, -93.9 1598.6 C 37.4 1480.7, -16.3 1565.7, 133.0 1606.6 C 282.4 1647.6, 198.9 1557.4, 296.3 1738.0 C 393.8 1918.6, 422.4 1820.2, 422.4 2056.0 Z" fill="#E8FFF5" opacity="0.27" filter="url(#blur_dashboard_14_8650)"/>
  <path d="M 1185.3 1653.0 C 1185.3 1926.6, 1182.8 1776.8, 1116.3 1986.4 C 1049.8 2196.0, 1062.0 2254.6, 960.0 2302.1 C 858.1 2349.6, 876.3 2324.9, 786.7 2188.1 C 697.0 2051.3, 712.8 2114.3, 677.4 1857.2 C 642.0 1600.1, 706.1 1673.7, 741.5 1416.6 C 776.9 1159.5, 712.6 1293.0, 802.2 1156.2 C 891.8 1019.4, 858.3 936.5, 960.2 984.0 C 1062.1 1031.6, 1032.9 1114.6, 1099.4 1324.2 C 1165.9 1533.8, 1185.3 1379.4, 1185.3 1653.0 Z" fill="#BDEFFF" opacity="0.18" filter="url(#blur_dashboard_14_8650)"/>
  <path d="M 1805.2 2185.0 C 1805.2 2458.6, 1872.9 2421.6, 1736.1 2631.2 C 1599.3 2840.8, 1606.7 2714.4, 1397.1 2761.9 C 1187.5 2809.5, 1270.7 2860.3, 1086.4 2723.5 C 902.0 2586.7, 908.7 2624.3, 835.9 2367.2 C 763.1 2110.1, 808.8 2259.2, 881.6 2002.1 C 954.4 1745.0, 933.7 1814.2, 1118.0 1677.4 C 1302.3 1540.6, 1175.8 1596.1, 1385.4 1643.6 C 1595.0 1691.1, 1566.7 1589.1, 1703.5 1798.7 C 1840.3 2008.3, 1805.2 1911.4, 1805.2 2185.0 Z" fill="#F8FFFD" opacity="0.32" filter="url(#blur_dashboard_14_8650)"/>
  <path d="M 1213.3 1563.0 C 1213.3 1693.0, 1165.4 1666.9, 1029.1 1766.5 C 892.9 1866.1, 1002.7 1846.8, 793.9 1869.4 C 585.2 1891.9, 671.3 1850.2, 487.8 1785.2 C 304.2 1720.2, 288.1 1786.3, 215.6 1664.1 C 143.1 1541.9, 224.4 1570.7, 296.9 1448.5 C 369.4 1326.3, 278.7 1355.5, 462.3 1290.5 C 645.8 1225.4, 583.6 1215.7, 792.3 1238.3 C 1001.1 1260.8, 886.7 1305.1, 1022.9 1404.7 C 1159.2 1504.4, 1213.3 1433.0, 1213.3 1563.0 Z" fill="#A8F2C0" opacity="0.38" filter="url(#blur_dashboard_14_8650)"/>
  <path d="M 1506.7 182.0 C 1506.7 461.4, 1486.3 414.5, 1379.0 628.5 C 1271.7 842.6, 1362.7 800.5, 1198.3 849.0 C 1033.9 897.5, 1082.6 853.7, 938.0 713.9 C 793.4 574.2, 790.9 683.0, 733.8 420.4 C 676.7 157.8, 755.6 207.8, 812.7 -54.8 C 869.8 -317.4, 787.7 -217.4, 932.3 -357.2 C 1076.9 -496.9, 1016.7 -443.1, 1181.1 -394.6 C 1345.5 -346.1, 1323.5 -413.5, 1430.8 -199.5 C 1538.1 14.6, 1506.7 -97.4, 1506.7 182.0 Z" fill="#F8FFFD" opacity="0.19" filter="url(#blur_dashboard_14_8650)"/>
  <path d="M 1638.7 447.0 C 1638.7 643.6, 1574.2 533.3, 1413.4 683.9 C 1252.6 834.6, 1353.0 914.1, 1106.6 948.3 C 860.2 982.4, 929.2 881.5, 712.5 783.2 C 495.8 684.9, 574.9 795.8, 489.3 611.0 C 403.7 426.2, 460.8 479.5, 546.4 294.7 C 632.0 109.9, 526.9 161.1, 743.6 62.8 C 960.3 -35.6, 872.1 -93.4, 1118.5 -59.2 C 1364.9 -25.1, 1329.0 26.6, 1489.9 177.2 C 1650.7 327.9, 1638.7 250.3, 1638.7 447.0 Z" fill="#A4E6F5" opacity="0.36" filter="url(#blur_dashboard_14_8650)"/>
  <path d="M 1234.5 298.0 C 1234.5 529.3, 1227.7 477.7, 1120.6 654.9 C 1013.6 832.1, 1043.6 753.5, 879.6 793.7 C 715.6 833.8, 769.6 851.9, 625.4 736.3 C 481.2 620.6, 474.9 698.3, 417.9 480.9 C 361.0 263.6, 385.3 315.4, 442.3 98.1 C 499.2 -119.3, 508.0 30.7, 652.2 -84.9 C 796.4 -200.6, 724.9 -316.6, 888.9 -276.5 C 1052.9 -236.3, 1045.5 -252.6, 1152.5 -75.4 C 1259.5 101.8, 1234.5 66.7, 1234.5 298.0 Z" fill="#D7F8E8" opacity="0.32" filter="url(#blur_dashboard_14_8650)"/>
  <path d="M 1045.0 534.0 C 1045.0 856.7, 1071.3 686.6, 978.2 947.7 C 885.1 1208.7, 959.7 1154.1, 809.1 1253.8 C 658.4 1353.5, 744.7 1298.0, 594.0 1198.3 C 443.4 1098.6, 478.4 1234.5, 385.3 973.5 C 292.2 712.5, 386.3 856.7, 386.3 534.0 C 386.3 211.4, 340.4 348.0, 433.5 87.0 C 526.6 -174.0, 422.7 -41.6, 573.3 -141.3 C 724.0 -241.0, 654.4 -336.9, 805.0 -237.2 C 955.7 -137.5, 865.9 -107.3, 959.0 153.7 C 1052.1 414.8, 1045.0 211.3, 1045.0 534.0 Z" fill="#D7F8E8" opacity="0.12" stroke="#FFFFFF" stroke-opacity="0.46" stroke-width="3" filter="url(#soft_dashboard_14_8650)"/>
  <path d="M 1045.0 534.0 C 1045.0 856.7, 1071.3 686.6, 978.2 947.7 C 885.1 1208.7, 959.7 1154.1, 809.1 1253.8 C 658.4 1353.5, 744.7 1298.0, 594.0 1198.3 C 443.4 1098.6, 478.4 1234.5, 385.3 973.5 C 292.2 712.5, 386.3 856.7, 386.3 534.0 C 386.3 211.4, 340.4 348.0, 433.5 87.0 C 526.6 -174.0, 422.7 -41.6, 573.3 -141.3 C 724.0 -241.0, 654.4 -336.9, 805.0 -237.2 C 955.7 -137.5, 865.9 -107.3, 959.0 153.7 C 1052.1 414.8, 1045.0 211.3, 1045.0 534.0 Z" fill="none" stroke="#FFFFFF" stroke-opacity="0.22" stroke-width="1.2"/>
  <path d="M 1367.4 1838.0 C 1367.4 2105.8, 1443.7 2008.8, 1324.2 2225.4 C 1204.6 2442.0, 1290.5 2316.6, 1097.0 2399.3 C 903.6 2482.0, 1038.8 2545.1, 845.3 2462.4 C 651.9 2379.6, 755.9 2435.8, 636.4 2219.2 C 516.8 2002.6, 552.4 2105.8, 552.4 1838.0 C 552.4 1570.2, 448.4 1692.0, 568.0 1475.4 C 687.5 1258.8, 633.8 1339.5, 827.3 1256.7 C 1020.7 1174.0, 907.5 1155.5, 1101.0 1238.3 C 1294.4 1321.0, 1254.3 1235.7, 1373.8 1452.3 C 1493.4 1668.9, 1367.4 1570.2, 1367.4 1838.0 Z" fill="#A4E6F5" opacity="0.12" stroke="#FFFFFF" stroke-opacity="0.46" stroke-width="3" filter="url(#soft_dashboard_14_8650)"/>
  <path d="M 1367.4 1838.0 C 1367.4 2105.8, 1443.7 2008.8, 1324.2 2225.4 C 1204.6 2442.0, 1290.5 2316.6, 1097.0 2399.3 C 903.6 2482.0, 1038.8 2545.1, 845.3 2462.4 C 651.9 2379.6, 755.9 2435.8, 636.4 2219.2 C 516.8 2002.6, 552.4 2105.8, 552.4 1838.0 C 552.4 1570.2, 448.4 1692.0, 568.0 1475.4 C 687.5 1258.8, 633.8 1339.5, 827.3 1256.7 C 1020.7 1174.0, 907.5 1155.5, 1101.0 1238.3 C 1294.4 1321.0, 1254.3 1235.7, 1373.8 1452.3 C 1493.4 1668.9, 1367.4 1570.2, 1367.4 1838.0 Z" fill="none" stroke="#FFFFFF" stroke-opacity="0.22" stroke-width="1.2"/>
  <path d="M 1386.2 461.0 C 1386.2 820.1, 1371.9 603.0, 1288.3 893.6 C 1204.8 1184.1, 1273.3 1014.0, 1138.0 1125.0 C 1002.8 1235.9, 1095.2 1351.2, 959.9 1240.2 C 824.7 1129.3, 875.5 1265.6, 791.9 975.1 C 708.3 684.6, 692.7 820.1, 692.7 461.0 C 692.7 101.9, 715.8 345.5, 799.3 55.0 C 882.9 -235.5, 804.0 -255.7, 939.2 -366.7 C 1074.4 -477.6, 1018.9 -475.4, 1154.2 -364.4 C 1289.4 -253.4, 1225.0 -260.3, 1308.6 30.3 C 1392.2 320.8, 1386.2 101.9, 1386.2 461.0 Z" fill="#A4E6F5" opacity="0.12" stroke="#A4E6F5" stroke-opacity="0.46" stroke-width="3" filter="url(#soft_dashboard_14_8650)"/>
  <path d="M 1386.2 461.0 C 1386.2 820.1, 1371.9 603.0, 1288.3 893.6 C 1204.8 1184.1, 1273.3 1014.0, 1138.0 1125.0 C 1002.8 1235.9, 1095.2 1351.2, 959.9 1240.2 C 824.7 1129.3, 875.5 1265.6, 791.9 975.1 C 708.3 684.6, 692.7 820.1, 692.7 461.0 C 692.7 101.9, 715.8 345.5, 799.3 55.0 C 882.9 -235.5, 804.0 -255.7, 939.2 -366.7 C 1074.4 -477.6, 1018.9 -475.4, 1154.2 -364.4 C 1289.4 -253.4, 1225.0 -260.3, 1308.6 30.3 C 1392.2 320.8, 1386.2 101.9, 1386.2 461.0 Z" fill="none" stroke="#FFFFFF" stroke-opacity="0.22" stroke-width="1.2"/>
  <path d="M 1795.2 -122.0 C 1795.2 133.6, 1766.9 9.6, 1654.0 216.4 C 1541.0 423.2, 1646.5 387.8, 1463.7 466.8 C 1281.0 545.7, 1389.2 498.3, 1206.5 419.4 C 1023.7 340.4, 1120.4 415.6, 1007.4 208.8 C 894.5 2.0, 866.4 133.6, 866.4 -122.0 C 866.4 -377.6, 841.3 -289.6, 954.3 -496.4 C 1067.2 -703.1, 1004.9 -548.0, 1187.6 -627.0 C 1370.4 -706.0, 1265.6 -791.0, 1448.4 -712.0 C 1631.1 -633.0, 1567.8 -701.0, 1680.8 -494.3 C 1793.7 -287.5, 1795.2 -377.6, 1795.2 -122.0 Z" fill="#A4E6F5" opacity="0.12" stroke="#FFFFFF" stroke-opacity="0.46" stroke-width="3" filter="url(#soft_dashboard_14_8650)"/>
  <path d="M 1795.2 -122.0 C 1795.2 133.6, 1766.9 9.6, 1654.0 216.4 C 1541.0 423.2, 1646.5 387.8, 1463.7 466.8 C 1281.0 545.7, 1389.2 498.3, 1206.5 419.4 C 1023.7 340.4, 1120.4 415.6, 1007.4 208.8 C 894.5 2.0, 866.4 133.6, 866.4 -122.0 C 866.4 -377.6, 841.3 -289.6, 954.3 -496.4 C 1067.2 -703.1, 1004.9 -548.0, 1187.6 -627.0 C 1370.4 -706.0, 1265.6 -791.0, 1448.4 -712.0 C 1631.1 -633.0, 1567.8 -701.0, 1680.8 -494.3 C 1793.7 -287.5, 1795.2 -377.6, 1795.2 -122.0 Z" fill="none" stroke="#FFFFFF" stroke-opacity="0.22" stroke-width="1.2"/>
  <path d="M 257.7 732.0 C 257.7 934.5, 327.2 817.6, 203.4 981.4 C 79.6 1145.2, 137.2 1078.7, -63.1 1141.3 C -263.4 1203.9, -172.3 1248.0, -372.6 1185.5 C -572.9 1122.9, -463.1 1163.6, -586.9 999.8 C -710.7 835.9, -664.2 934.5, -664.2 732.0 C -664.2 529.5, -721.4 626.5, -597.6 462.6 C -473.8 298.8, -547.7 317.5, -347.4 255.0 C -147.2 192.4, -278.6 285.5, -78.3 348.1 C 122.0 410.6, -5.0 325.6, 118.7 489.4 C 242.5 653.2, 257.7 529.5, 257.7 732.0 Z" fill="#5DE0D7" opacity="0.12" stroke="#FFFFFF" stroke-opacity="0.46" stroke-width="3" filter="url(#soft_dashboard_14_8650)"/>
  <path d="M 257.7 732.0 C 257.7 934.5, 327.2 817.6, 203.4 981.4 C 79.6 1145.2, 137.2 1078.7, -63.1 1141.3 C -263.4 1203.9, -172.3 1248.0, -372.6 1185.5 C -572.9 1122.9, -463.1 1163.6, -586.9 999.8 C -710.7 835.9, -664.2 934.5, -664.2 732.0 C -664.2 529.5, -721.4 626.5, -597.6 462.6 C -473.8 298.8, -547.7 317.5, -347.4 255.0 C -147.2 192.4, -278.6 285.5, -78.3 348.1 C 122.0 410.6, -5.0 325.6, 118.7 489.4 C 242.5 653.2, 257.7 529.5, 257.7 732.0 Z" fill="none" stroke="#FFFFFF" stroke-opacity="0.22" stroke-width="1.2"/>
  <path d="M 1254.4 409.0 C 1254.4 703.3, 1434.7 595.5, 1280.8 833.6 C 1126.9 1071.7, 1160.3 858.0, 911.2 948.9 C 662.1 1039.9, 841.2 1203.0, 592.1 1112.0 C 343.0 1021.1, 398.9 1021.5, 244.9 783.4 C 91.0 545.3, 88.4 703.3, 88.4 409.0 C 88.4 114.7, 169.3 219.4, 323.3 -18.7 C 477.2 -256.8, 335.1 -125.8, 584.1 -216.8 C 833.2 -307.7, 653.1 -217.5, 902.1 -126.5 C 1151.2 -35.6, 1011.8 -210.5, 1165.8 27.6 C 1319.7 265.7, 1254.4 114.7, 1254.4 409.0 Z" fill="#A8F2C0" opacity="0.12" stroke="#FFFFFF" stroke-opacity="0.46" stroke-width="3" filter="url(#soft_dashboard_14_8650)"/>
  <path d="M 1254.4 409.0 C 1254.4 703.3, 1434.7 595.5, 1280.8 833.6 C 1126.9 1071.7, 1160.3 858.0, 911.2 948.9 C 662.1 1039.9, 841.2 1203.0, 592.1 1112.0 C 343.0 1021.1, 398.9 1021.5, 244.9 783.4 C 91.0 545.3, 88.4 703.3, 88.4 409.0 C 88.4 114.7, 169.3 219.4, 323.3 -18.7 C 477.2 -256.8, 335.1 -125.8, 584.1 -216.8 C 833.2 -307.7, 653.1 -217.5, 902.1 -126.5 C 1151.2 -35.6, 1011.8 -210.5, 1165.8 27.6 C 1319.7 265.7, 1254.4 114.7, 1254.4 409.0 Z" fill="none" stroke="#FFFFFF" stroke-opacity="0.22" stroke-width="1.2"/>
  <path d="M 1728.5 786.0 C 1728.5 1022.2, 1767.2 930.7, 1620.7 1121.8 C 1474.2 1312.9, 1568.2 1278.9, 1331.1 1351.9 C 1094.0 1424.9, 1240.6 1415.8, 1003.5 1342.8 C 766.4 1269.8, 929.2 1304.7, 782.7 1113.6 C 636.2 922.5, 548.4 1022.3, 548.4 786.0 C 548.4 549.8, 611.8 664.1, 758.4 472.9 C 904.9 281.8, 773.1 427.5, 1010.2 354.5 C 1247.3 281.5, 1111.0 153.9, 1348.1 226.9 C 1585.2 299.9, 1480.5 258.4, 1627.1 449.5 C 1773.6 640.7, 1728.5 549.8, 1728.5 786.0 Z" fill="#E8FFF5" opacity="0.12" stroke="#E8FFF5" stroke-opacity="0.46" stroke-width="3" filter="url(#soft_dashboard_14_8650)"/>
  <path d="M 1728.5 786.0 C 1728.5 1022.2, 1767.2 930.7, 1620.7 1121.8 C 1474.2 1312.9, 1568.2 1278.9, 1331.1 1351.9 C 1094.0 1424.9, 1240.6 1415.8, 1003.5 1342.8 C 766.4 1269.8, 929.2 1304.7, 782.7 1113.6 C 636.2 922.5, 548.4 1022.3, 548.4 786.0 C 548.4 549.8, 611.8 664.1, 758.4 472.9 C 904.9 281.8, 773.1 427.5, 1010.2 354.5 C 1247.3 281.5, 1111.0 153.9, 1348.1 226.9 C 1585.2 299.9, 1480.5 258.4, 1627.1 449.5 C 1773.6 640.7, 1728.5 549.8, 1728.5 786.0 Z" fill="none" stroke="#FFFFFF" stroke-opacity="0.22" stroke-width="1.2"/>
  <path d="M -100.0 350.6 Q 133.3 466.1, 366.7 629.0 Q 600.0 610.2, 833.3 435.6 Q 1066.7 414.6, 1300.0 493.7" fill="none" stroke="#FFFFFF" stroke-opacity="0.38" stroke-width="4" filter="url(#soft_dashboard_14_8650)"/>
  <path d="M -100.0 350.6 Q 133.3 466.1, 366.7 629.0 Q 600.0 610.2, 833.3 435.6 Q 1066.7 414.6, 1300.0 493.7" fill="none" stroke="#94D6FF" stroke-opacity="0.18" stroke-width="2"/>
  <path d="M -100.0 1637.6 Q 133.3 1994.1, 366.7 1600.4 Q 600.0 1379.0, 833.3 1611.7 Q 1066.7 1926.0, 1300.0 1606.4" fill="none" stroke="#FFFFFF" stroke-opacity="0.38" stroke-width="4" filter="url(#soft_dashboard_14_8650)"/>
  <path d="M -100.0 1637.6 Q 133.3 1994.1, 366.7 1600.4 Q 600.0 1379.0, 833.3 1611.7 Q 1066.7 1926.0, 1300.0 1606.4" fill="none" stroke="#A8F2C0" stroke-opacity="0.18" stroke-width="2"/>
  <path d="M -100.0 593.7 Q 133.3 431.2, 366.7 654.9 Q 600.0 943.5, 833.3 820.4 Q 1066.7 432.6, 1300.0 585.0" fill="none" stroke="#FFFFFF" stroke-opacity="0.38" stroke-width="4" filter="url(#soft_dashboard_14_8650)"/>
  <path d="M -100.0 593.7 Q 133.3 431.2, 366.7 654.9 Q 600.0 943.5, 833.3 820.4 Q 1066.7 432.6, 1300.0 585.0" fill="none" stroke="#94D6FF" stroke-opacity="0.18" stroke-width="2"/>
  <path d="M -100.0 1058.6 Q 133.3 1113.9, 366.7 758.6 Q 600.0 782.5, 833.3 1054.3 Q 1066.7 980.5, 1300.0 699.8" fill="none" stroke="#FFFFFF" stroke-opacity="0.38" stroke-width="4" filter="url(#soft_dashboard_14_8650)"/>
  <path d="M -100.0 1058.6 Q 133.3 1113.9, 366.7 758.6 Q 600.0 782.5, 833.3 1054.3 Q 1066.7 980.5, 1300.0 699.8" fill="none" stroke="#94D6FF" stroke-opacity="0.18" stroke-width="2"/>
  <path d="M -100.0 1801.1 Q 133.3 2007.0, 366.7 2290.9 Q 600.0 2034.8, 833.3 1695.2 Q 1066.7 1520.7, 1300.0 1550.6" fill="none" stroke="#FFFFFF" stroke-opacity="0.38" stroke-width="4" filter="url(#soft_dashboard_14_8650)"/>
  <path d="M -100.0 1801.1 Q 133.3 2007.0, 366.7 2290.9 Q 600.0 2034.8, 833.3 1695.2 Q 1066.7 1520.7, 1300.0 1550.6" fill="none" stroke="#A8F2C0" stroke-opacity="0.18" stroke-width="2"/>
  <path d="M -100.0 1255.8 Q 133.3 1471.5, 366.7 1506.4 Q 600.0 1701.1, 833.3 1870.5 Q 1066.7 1691.0, 1300.0 1645.2" fill="none" stroke="#FFFFFF" stroke-opacity="0.38" stroke-width="4" filter="url(#soft_dashboard_14_8650)"/>
  <path d="M -100.0 1255.8 Q 133.3 1471.5, 366.7 1506.4 Q 600.0 1701.1, 833.3 1870.5 Q 1066.7 1691.0, 1300.0 1645.2" fill="none" stroke="#94D6FF" stroke-opacity="0.18" stroke-width="2"/>
  <circle cx="976" cy="202" r="148" fill="url(#orb_dashboard_14_8650)" opacity="0.36"/>
  <circle cx="976" cy="202" r="148" fill="#5DE0D7" opacity="0.08"/>
  <circle cx="976" cy="202" r="148" fill="none" stroke="#FFFFFF" stroke-opacity="0.56" stroke-width="3"/>
  <ellipse cx="934.6" cy="148.7" rx="26.6" ry="11.8" fill="#FFFFFF" opacity="0.42" transform="rotate(-22 934.6 148.7)"/>
  <circle cx="837" cy="145" r="104" fill="url(#orb_dashboard_14_8650)" opacity="0.36"/>
  <circle cx="837" cy="145" r="104" fill="#A8F2C0" opacity="0.08"/>
  <circle cx="837" cy="145" r="104" fill="none" stroke="#FFFFFF" stroke-opacity="0.56" stroke-width="3"/>
  <ellipse cx="807.9" cy="107.6" rx="18.7" ry="8.3" fill="#FFFFFF" opacity="0.42" transform="rotate(-22 807.9 107.6)"/>
  <circle cx="743" cy="-46" r="192" fill="url(#orb_dashboard_14_8650)" opacity="0.36"/>
  <circle cx="743" cy="-46" r="192" fill="#F8FFFD" opacity="0.08"/>
  <circle cx="743" cy="-46" r="192" fill="none" stroke="#FFFFFF" stroke-opacity="0.56" stroke-width="3"/>
  <ellipse cx="689.2" cy="-115.1" rx="34.6" ry="15.4" fill="#FFFFFF" opacity="0.42" transform="rotate(-22 689.2 -115.1)"/>
  <circle cx="1100" cy="973" r="127" fill="url(#orb_dashboard_14_8650)" opacity="0.28"/>
  <circle cx="1100" cy="973" r="127" fill="#5DE0D7" opacity="0.08"/>
  <circle cx="1100" cy="973" r="127" fill="none" stroke="#FFFFFF" stroke-opacity="0.56" stroke-width="3"/>
  <ellipse cx="1064.4" cy="927.3" rx="22.9" ry="10.2" fill="#FFFFFF" opacity="0.42" transform="rotate(-22 1064.4 927.3)"/>
  <circle cx="169" cy="1784" r="145" fill="url(#orb_dashboard_14_8650)" opacity="0.21"/>
  <circle cx="169" cy="1784" r="145" fill="#A4E6F5" opacity="0.08"/>
  <circle cx="169" cy="1784" r="145" fill="none" stroke="#FFFFFF" stroke-opacity="0.56" stroke-width="3"/>
  <ellipse cx="128.4" cy="1731.8" rx="26.1" ry="11.6" fill="#FFFFFF" opacity="0.42" transform="rotate(-22 128.4 1731.8)"/>
  <circle cx="479" cy="824" r="137" fill="url(#orb_dashboard_14_8650)" opacity="0.17"/>
  <circle cx="479" cy="824" r="137" fill="#A8F2C0" opacity="0.08"/>
  <circle cx="479" cy="824" r="137" fill="none" stroke="#FFFFFF" stroke-opacity="0.56" stroke-width="3"/>
  <ellipse cx="440.6" cy="774.7" rx="24.7" ry="11.0" fill="#FFFFFF" opacity="0.42" transform="rotate(-22 440.6 774.7)"/>
  <circle cx="922" cy="1523" r="106" fill="url(#orb_dashboard_14_8650)" opacity="0.22"/>
  <circle cx="922" cy="1523" r="106" fill="#BDEFFF" opacity="0.08"/>
  <circle cx="922" cy="1523" r="106" fill="none" stroke="#FFFFFF" stroke-opacity="0.56" stroke-width="3"/>
  <ellipse cx="892.3" cy="1484.8" rx="19.1" ry="8.5" fill="#FFFFFF" opacity="0.42" transform="rotate(-22 892.3 1484.8)"/>
  <circle cx="523" cy="172" r="113" fill="url(#orb_dashboard_14_8650)" opacity="0.23"/>
  <circle cx="523" cy="172" r="113" fill="#D7F8E8" opacity="0.08"/>
  <circle cx="523" cy="172" r="113" fill="none" stroke="#FFFFFF" stroke-opacity="0.56" stroke-width="3"/>
  <ellipse cx="491.4" cy="131.3" rx="20.3" ry="9.0" fill="#FFFFFF" opacity="0.42" transform="rotate(-22 491.4 131.3)"/>
  <circle cx="521" cy="1978" r="210" fill="url(#orb_dashboard_14_8650)" opacity="0.22"/>
  <circle cx="521" cy="1978" r="210" fill="#F8FFFD" opacity="0.08"/>
  <circle cx="521" cy="1978" r="210" fill="none" stroke="#FFFFFF" stroke-opacity="0.56" stroke-width="3"/>
  <ellipse cx="462.2" cy="1902.4" rx="37.8" ry="16.8" fill="#FFFFFF" opacity="0.42" transform="rotate(-22 462.2 1902.4)"/>
  <circle cx="834" cy="1588" r="5" fill="#FFFFFF" opacity="0.66"/>
  <circle cx="1198" cy="1112" r="7" fill="#FFFFFF" opacity="0.67"/>
  <circle cx="136" cy="301" r="7" fill="#FFFFFF" opacity="0.37"/>
  <circle cx="595" cy="62" r="2" fill="#FFFFFF" opacity="0.47"/>
  <circle cx="429" cy="2054" r="4" fill="#FFFFFF" opacity="0.30"/>
  <circle cx="288" cy="1840" r="5" fill="#FFFFFF" opacity="0.69"/>
  <circle cx="1070" cy="1916" r="4" fill="#FFFFFF" opacity="0.30"/>
  <circle cx="124" cy="965" r="2" fill="#FFFFFF" opacity="0.72"/>
  <circle cx="901" cy="712" r="2" fill="#FFFFFF" opacity="0.40"/>
  <circle cx="127" cy="1120" r="7" fill="#FFFFFF" opacity="0.34"/>
  <circle cx="614" cy="2294" r="3" fill="#FFFFFF" opacity="0.68"/>
  <circle cx="331" cy="2049" r="4" fill="#FFFFFF" opacity="0.38"/>
  <circle cx="822" cy="1768" r="4" fill="#FFFFFF" opacity="0.53"/>
  <circle cx="1182" cy="2592" r="3" fill="#FFFFFF" opacity="0.29"/>
  <circle cx="298" cy="2412" r="5" fill="#FFFFFF" opacity="0.28"/>
  <circle cx="855" cy="2519" r="4" fill="#FFFFFF" opacity="0.67"/>
  <circle cx="923" cy="1366" r="5" fill="#FFFFFF" opacity="0.64"/>
  <circle cx="52" cy="176" r="5" fill="#FFFFFF" opacity="0.51"/>
  <circle cx="849" cy="2192" r="4" fill="#FFFFFF" opacity="0.48"/>
  <circle cx="802" cy="1835" r="3" fill="#FFFFFF" opacity="0.65"/>
  <circle cx="810" cy="25" r="5" fill="#FFFFFF" opacity="0.35"/>
  <rect width="1200" height="2600" fill="#FFFFFF" opacity="0.08"/>
  <rect width="1200" height="2600" filter="url(#grain_dashboard_14_8650)" opacity="0.7"/>
</svg>
