<svg xmlns="http://www.w3.org/2000/svg" width="1200" height="2600" viewBox="0 0 1200 2600" preserveAspectRatio="xMidYMid slice">
  <defs>
    <linearGradient id="bg_dashboard_01_2049" x1="0" y1="0" x2="1" y2="1">
      <stop offset="0%" stop-color="#A4E6F5"/>
      <stop offset="48%" stop-color="#E8FFF5"/>
      <stop offset="100%" stop-color="#BDEFFF"/>
    </linearGradient>
    <radialGradient id="orb_dashboard_01_2049" cx="35%" cy="30%" r="70%">
      <stop offset="0%" stop-color="#FFFFFF" stop-opacity="0.85"/>
      <stop offset="42%" stop-color="#FFFFFF" stop-opacity="0.20"/>
      <stop offset="100%" stop-color="#FFFFFF" stop-opacity="0.02"/>
    </radialGradient>
    <filter id="blur_dashboard_01_2049" x="-30%" y="-30%" width="160%" height="160%">
      <feGaussianBlur stdDeviation="72"/>
    </filter>
    <filter id="soft_dashboard_01_2049" x="-20%" y="-20%" width="140%" height="140%">
      <feGaussianBlur stdDeviation="10"/>
    </filter>
    <filter id="grain_dashboard_01_2049">
      <feTurbulence type="fractalNoise" baseFrequency="0.85" numOctaves="2" stitchTiles="stitch"/>
      <feColorMatrix type="saturate" values="0"/>
      <feComponentTransfer>
        <feFuncA type="table" tableValues="0 0.035"/>
      </feComponentTransfer>
    </filter>
  </defs>
  <rect width="1200" height="2600" fill="url(#bg_dashboard_01_2049)"/>
  <path d="M 1208.6 1820.0 C 1208.6 1982.0, 1254.0 1897.9, 1178.0 2022.0 C 1101.9 2146.1, 1110.4 2086.9, 993.9 2115.0 C 877.3 2143.2, 938.8 2224.5, 836.3 2143.5 C 733.8 2062.5, 694.1 2106.0, 653.6 1953.7 C 613.2 1801.5, 644.8 1866.0, 685.3 1713.7 C 725.8 1561.5, 701.0 1598.0, 803.5 1517.0 C 906.0 1436.0, 879.8 1412.3, 996.4 1440.4 C 1112.9 1468.6, 1098.8 1458.1, 1174.8 1582.2 C 1250.9 1706.3, 1208.6 1658.0, 1208.6 1820.0 Z" fill="#A8F2C0" opacity="0.26" filter="url(#blur_dashboard_01_2049)"/>
  <path d="M 1295.9 884.0 C 1295.9 1145.5, 1282.3 1009.0, 1163.5 1209.3 C 1044.6 1409.6, 1096.2 1397.8, 914.0 1443.2 C 731.9 1488.6, 754.7 1473.8, 594.6 1343.1 C 434.4 1212.3, 487.7 1314.8, 424.4 1069.1 C 361.2 823.4, 419.0 924.4, 482.3 678.7 C 545.5 433.0, 469.1 493.3, 629.3 362.6 C 789.4 231.8, 721.9 236.8, 904.0 282.2 C 1086.2 327.6, 1060.0 365.9, 1178.9 566.2 C 1297.7 766.5, 1295.9 622.5, 1295.9 884.0 Z" fill="#E8FFF5" opacity="0.23" filter="url(#blur_dashboard_01_2049)"/>
  <path d="M 1529.3 2391.0 C 1529.3 2563.8, 1590.1 2466.3, 1446.9 2598.7 C 1303.8 2731.1, 1356.4 2778.0, 1137.1 2808.0 C 917.7 2838.0, 1040.6 2866.8, 847.7 2780.4 C 654.8 2694.0, 699.6 2667.3, 623.4 2504.9 C 547.3 2342.5, 525.3 2403.5, 601.4 2241.1 C 677.6 2078.7, 589.9 2139.1, 782.8 2052.7 C 975.7 1966.3, 924.8 1987.8, 1144.1 2017.8 C 1363.5 2047.8, 1356.9 2023.1, 1500.1 2155.5 C 1643.3 2287.9, 1529.3 2218.2, 1529.3 2391.0 Z" fill="#A8F2C0" opacity="0.23" filter="url(#blur_dashboard_01_2049)"/>
  <path d="M 1662.0 1488.0 C 1662.0 1720.7, 1737.5 1601.1, 1592.9 1779.4 C 1448.3 1957.6, 1492.6 1983.5, 1271.0 2023.9 C 1049.5 2064.3, 1118.8 2030.9, 923.9 1914.6 C 729.1 1798.3, 850.9 1894.3, 773.9 1675.7 C 697.0 1457.1, 643.9 1507.0, 720.8 1288.3 C 797.8 1069.7, 739.2 1134.1, 934.1 1017.7 C 1128.9 901.4, 1047.2 879.8, 1268.8 920.2 C 1490.3 960.6, 1375.7 1025.1, 1520.3 1203.4 C 1664.9 1381.6, 1662.0 1255.3, 1662.0 1488.0 Z" fill="#F8FFFD" opacity="0.24" filter="url(#blur_dashboard_01_2049)"/>
  <path d="M 761.1 2253.0 C 761.1 2496.4, 718.8 2459.7, 582.5 2646.2 C 446.3 2832.7, 574.2 2668.4, 365.5 2710.7 C 156.8 2752.9, 199.9 2892.0, 16.3 2770.2 C -167.2 2648.5, -85.1 2691.6, -157.6 2462.8 C -230.1 2234.0, -219.6 2275.0, -147.1 2046.2 C -74.6 1817.4, -125.6 1980.2, 57.9 1858.5 C 241.5 1736.8, 148.6 1611.1, 357.3 1653.4 C 566.1 1695.6, 494.6 1740.8, 630.9 1927.3 C 767.1 2113.8, 761.1 2009.5, 761.1 2253.0 Z" fill="#94D6FF" opacity="0.36" filter="url(#blur_dashboard_01_2049)"/>
  <path d="M 1477.5 1853.0 C 1477.5 2163.1, 1417.6 2017.5, 1321.5 2255.0 C 1225.5 2492.5, 1312.5 2451.3, 1165.4 2505.2 C 1018.2 2559.0, 1053.6 2707.6, 924.3 2552.6 C 794.9 2397.6, 812.3 2406.8, 761.2 2115.5 C 710.1 1824.1, 686.9 1920.0, 738.0 1628.7 C 789.1 1337.3, 797.0 1485.9, 926.4 1330.9 C 1055.7 1175.9, 1005.5 1226.9, 1152.6 1280.8 C 1299.7 1334.6, 1243.6 1116.5, 1339.7 1354.0 C 1435.7 1591.5, 1477.5 1543.0, 1477.5 1853.0 Z" fill="#BDEFFF" opacity="0.31" filter="url(#blur_dashboard_01_2049)"/>
  <path d="M 565.7 9.0 C 565.7 164.2, 496.3 91.5, 410.7 210.4 C 325.0 329.4, 399.0 382.5, 267.8 409.5 C 136.6 436.5, 163.5 428.4, 48.2 350.8 C -67.2 273.1, -35.8 257.1, -81.3 111.2 C -126.9 -34.6, -111.0 22.3, -65.4 -123.6 C -19.9 -269.5, -51.0 -197.1, 64.4 -274.7 C 179.7 -352.3, 138.4 -389.7, 269.6 -362.7 C 400.8 -335.8, 387.5 -311.5, 473.1 -192.6 C 558.7 -73.7, 565.7 -146.2, 565.7 9.0 Z" fill="#D7F8E8" opacity="0.32" filter="url(#blur_dashboard_01_2049)"/>
  <path d="M 422.6 1245.0 C 422.6 1538.8, 443.1 1445.7, 283.5 1670.8 C 123.8 1895.9, 246.2 1797.4, 1.5 1848.4 C -243.1 1899.5, -165.3 1987.9, -380.4 1840.9 C -595.5 1694.0, -558.0 1746.4, -642.9 1470.3 C -727.9 1194.1, -620.4 1290.7, -535.5 1014.6 C -450.5 738.4, -633.8 772.1, -418.7 625.1 C -203.5 478.2, -269.4 623.3, -24.7 674.3 C 219.9 725.3, 197.8 647.2, 357.4 872.3 C 517.1 1097.4, 422.6 951.1, 422.6 1245.0 Z" fill="#94D6FF" opacity="0.28" filter="url(#blur_dashboard_01_2049)"/>
  <path d="M 381.5 1264.0 C 381.5 1409.3, 389.0 1371.8, 312.7 1483.1 C 236.3 1594.5, 289.5 1528.4, 172.5 1553.6 C 55.6 1578.9, 96.1 1632.4, -6.8 1559.8 C -109.6 1487.1, -95.4 1514.7, -136.1 1378.1 C -176.7 1241.6, -177.4 1286.1, -136.7 1149.5 C -96.1 1012.9, -116.3 1082.4, -13.5 1009.7 C 89.4 937.1, 56.5 883.5, 173.5 908.8 C 290.5 934.0, 251.5 974.5, 327.8 1085.9 C 404.2 1197.2, 381.5 1118.7, 381.5 1264.0 Z" fill="#D7F8E8" opacity="0.38" filter="url(#blur_dashboard_01_2049)"/>
  <path d="M 1418.7 1690.0 C 1418.7 1991.5, 1416.3 1840.5, 1272.5 2071.5 C 1128.7 2302.5, 1268.0 2360.3, 1047.7 2412.7 C 827.4 2465.0, 893.9 2364.3, 700.2 2213.5 C 506.5 2062.8, 536.4 2218.5, 459.9 1935.2 C 383.4 1651.9, 325.5 1756.3, 402.0 1473.0 C 478.5 1189.7, 524.4 1338.7, 718.1 1187.9 C 911.8 1037.2, 809.4 973.5, 1029.6 1025.8 C 1249.9 1078.2, 1163.1 1064.1, 1306.8 1295.0 C 1450.6 1526.0, 1418.7 1388.5, 1418.7 1690.0 Z" fill="#F8FFFD" opacity="0.29" filter="url(#blur_dashboard_01_2049)"/>
  <path d="M 873.3 1884.0 C 873.3 2125.7, 888.1 2027.2, 779.6 2212.3 C 671.1 2397.4, 725.2 2450.7, 559.0 2492.6 C 392.9 2534.6, 438.8 2461.5, 292.6 2340.7 C 146.5 2219.9, 163.4 2325.6, 105.7 2098.6 C 48.0 1871.5, 98.9 1924.9, 156.6 1697.8 C 214.3 1470.8, 178.6 1607.1, 324.8 1486.3 C 470.9 1365.5, 393.9 1347.6, 560.1 1389.6 C 726.3 1431.5, 684.4 1403.4, 792.8 1588.5 C 901.3 1773.6, 873.3 1642.3, 873.3 1884.0 Z" fill="#5DE0D7" opacity="0.16" filter="url(#blur_dashboard_01_2049)"/>
  <path d="M 395.1 1883.0 C 395.1 2133.7, 426.3 2003.9, 339.8 2206.7 C 253.3 2409.5, 332.3 2340.4, 192.3 2417.9 C 52.4 2495.3, 141.7 2510.3, 1.7 2432.8 C -138.2 2355.4, -42.4 2367.8, -128.9 2165.0 C -215.4 1962.2, -261.9 2133.7, -261.9 1883.0 C -261.9 1632.3, -248.6 1759.5, -162.1 1556.7 C -75.6 1354.0, -152.2 1403.8, -12.3 1326.4 C 127.7 1248.9, 54.6 1284.9, 194.6 1362.3 C 334.5 1439.8, 255.2 1355.7, 341.7 1558.5 C 428.1 1761.3, 395.1 1632.3, 395.1 1883.0 Z" fill="#D7F8E8" opacity="0.12" stroke="#FFFFFF" stroke-opacity="0.46" stroke-width="3" filter="url(#soft_dashboard_01_2049)"/>
  <path d="M 395.1 1883.0 C 395.1 2133.7, 426.3 2003.9, 339.8 2206.7 C 253.3 2409.5, 332.3 2340.4, 192.3 2417.9 C 52.4 2495.3, 141.7 2510.3, 1.7 2432.8 C -138.2 2355.4, -42.4 2367.8, -128.9 2165.0 C -215.4 1962.2, -261.9 2133.7, -261.9 1883.0 C -261.9 1632.3, -248.6 1759.5, -162.1 1556.7 C -75.6 1354.0, -152.2 1403.8, -12.3 1326.4 C 127.7 1248.9, 54.6 1284.9, 194.6 1362.3 C 334.5 1439.8, 255.2 1355.7, 341.7 1558.5 C 428.1 1761.3, 395.1 1632.3, 395.1 1883.0 Z" fill="none" stroke="#FFFFFF" stroke-opacity="0.22" stroke-width="1.2"/>
  <path d="M 785.3 722.0 C 785.3 934.9, 853.9 862.0, 726.1 1034.2 C 598.4 1206.4, 656.3 1133.2, 449.6 1199.0 C 242.9 1264.8, 356.3 1218.6, 149.6 1152.8 C -57.2 1087.1, 16.0 1177.2, -111.7 1005.0 C -239.5 832.8, -198.6 934.9, -198.6 722.0 C -198.6 509.2, -211.4 595.9, -83.7 423.7 C 44.1 251.5, -76.3 396.7, 130.4 330.9 C 337.2 265.1, 229.4 154.3, 436.1 220.0 C 642.8 285.8, 604.8 239.7, 732.5 411.9 C 860.3 584.1, 785.3 509.1, 785.3 722.0 Z" fill="#A8F2C0" opacity="0.12" stroke="#FFFFFF" stroke-opacity="0.46" stroke-width="3" filter="url(#soft_dashboard_01_2049)"/>
  <path d="M 785.3 722.0 C 785.3 934.9, 853.9 862.0, 726.1 1034.2 C 598.4 1206.4, 656.3 1133.2, 449.6 1199.0 C 242.9 1264.8, 356.3 1218.6, 149.6 1152.8 C -57.2 1087.1, 16.0 1177.2, -111.7 1005.0 C -239.5 832.8, -198.6 934.9, -198.6 722.0 C -198.6 509.2, -211.4 595.9, -83.7 423.7 C 44.1 251.5, -76.3 396.7, 130.4 330.9 C 337.2 265.1, 229.4 154.3, 436.1 220.0 C 642.8 285.8, 604.8 239.7, 732.5 411.9 C 860.3 584.1, 785.3 509.1, 785.3 722.0 Z" fill="none" stroke="#FFFFFF" stroke-opacity="0.22" stroke-width="1.2"/>
  <path d="M 637.6 2075.0 C 637.6 2471.0, 634.7 2333.1, 465.7 2653.5 C 296.6 2973.9, 475.7 2673.5, 202.2 2795.8 C -71.2 2918.2, 62.2 3137.2, -211.2 3014.8 C -484.7 2892.5, -399.9 2951.3, -569.0 2631.0 C -738.0 2310.6, -697.0 2471.0, -697.0 2075.0 C -697.0 1679.0, -727.4 1808.1, -558.4 1487.8 C -389.4 1167.4, -457.1 1375.2, -183.7 1252.8 C 89.8 1130.5, -81.3 1047.8, 192.2 1170.1 C 465.7 1292.5, 387.6 1264.1, 556.7 1584.4 C 725.7 1904.8, 637.6 1679.0, 637.6 2075.0 Z" fill="#BDEFFF" opacity="0.12" stroke="#BDEFFF" stroke-opacity="0.46" stroke-width="3" filter="url(#soft_dashboard_01_2049)"/>
  <path d="M 637.6 2075.0 C 637.6 2471.0, 634.7 2333.1, 465.7 2653.5 C 296.6 2973.9, 475.7 2673.5, 202.2 2795.8 C -71.2 2918.2, 62.2 3137.2, -211.2 3014.8 C -484.7 2892.5, -399.9 2951.3, -569.0 2631.0 C -738.0 2310.6, -697.0 2471.0, -697.0 2075.0 C -697.0 1679.0, -727.4 1808.1, -558.4 1487.8 C -389.4 1167.4, -457.1 1375.2, -183.7 1252.8 C 89.8 1130.5, -81.3 1047.8, 192.2 1170.1 C 465.7 1292.5, 387.6 1264.1, 556.7 1584.4 C 725.7 1904.8, 637.6 1679.0, 637.6 2075.0 Z" fill="none" stroke="#FFFFFF" stroke-opacity="0.22" stroke-width="1.2"/>
  <path d="M 439.9 1528.0 C 439.9 1834.9, 493.2 1670.6, 394.8 1918.9 C 296.4 2167.2, 378.6 2141.9, 219.4 2236.7 C 60.2 2331.6, 177.7 2343.4, 18.5 2248.5 C -140.7 2153.7, -108.2 2228.1, -206.5 1979.8 C -304.9 1731.5, -238.4 1834.9, -238.4 1528.0 C -238.4 1221.1, -277.5 1384.1, -179.1 1135.8 C -80.7 887.5, -160.6 1024.5, -1.4 929.7 C 157.8 834.9, 81.8 849.4, 241.1 944.2 C 400.3 1039.1, 348.9 885.5, 447.3 1133.8 C 545.7 1382.1, 439.9 1221.1, 439.9 1528.0 Z" fill="#D7F8E8" opacity="0.12" stroke="#D7F8E8" stroke-opacity="0.46" stroke-width="3" filter="url(#soft_dashboard_01_2049)"/>
  <path d="M 439.9 1528.0 C 439.9 1834.9, 493.2 1670.6, 394.8 1918.9 C 296.4 2167.2, 378.6 2141.9, 219.4 2236.7 C 60.2 2331.6, 177.7 2343.4, 18.5 2248.5 C -140.7 2153.7, -108.2 2228.1, -206.5 1979.8 C -304.9 1731.5, -238.4 1834.9, -238.4 1528.0 C -238.4 1221.1, -277.5 1384.1, -179.1 1135.8 C -80.7 887.5, -160.6 1024.5, -1.4 929.7 C 157.8 834.9, 81.8 849.4, 241.1 944.2 C 400.3 1039.1, 348.9 885.5, 447.3 1133.8 C 545.7 1382.1, 439.9 1221.1, 439.9 1528.0 Z" fill="none" stroke="#FFFFFF" stroke-opacity="0.22" stroke-width="1.2"/>
  <path d="M 546.9 1745.0 C 546.9 2028.0, 613.8 1903.6, 483.9 2132.6 C 354.0 2361.6, 468.2 2220.5, 258.0 2308.0 C 47.9 2395.4, 138.7 2391.6, -71.4 2304.1 C -281.5 2216.7, -133.3 2385.5, -263.2 2156.5 C -393.1 1927.5, -358.7 2028.0, -358.7 1745.0 C -358.7 1462.0, -467.1 1641.6, -337.2 1412.7 C -207.3 1183.7, -269.1 1268.1, -58.9 1180.6 C 151.2 1093.2, 19.4 993.0, 229.5 1080.5 C 439.6 1167.9, 406.3 1120.0, 536.2 1349.0 C 666.0 1578.0, 546.9 1462.0, 546.9 1745.0 Z" fill="#A4E6F5" opacity="0.12" stroke="#A4E6F5" stroke-opacity="0.46" stroke-width="3" filter="url(#soft_dashboard_01_2049)"/>
  <path d="M 546.9 1745.0 C 546.9 2028.0, 613.8 1903.6, 483.9 2132.6 C 354.0 2361.6, 468.2 2220.5, 258.0 2308.0 C 47.9 2395.4, 138.7 2391.6, -71.4 2304.1 C -281.5 2216.7, -133.3 2385.5, -263.2 2156.5 C -393.1 1927.5, -358.7 2028.0, -358.7 1745.0 C -358.7 1462.0, -467.1 1641.6, -337.2 1412.7 C -207.3 1183.7, -269.1 1268.1, -58.9 1180.6 C 151.2 1093.2, 19.4 993.0, 229.5 1080.5 C 439.6 1167.9, 406.3 1120.0, 536.2 1349.0 C 666.0 1578.0, 546.9 1462.0, 546.9 1745.0 Z" fill="none" stroke="#FFFFFF" stroke-opacity="0.22" stroke-width="1.2"/>
  <path d="M 1021.4 458.0 C 1021.4 668.1, 1028.0 543.6, 894.2 713.6 C 760.3 883.6, 893.5 794.2, 676.9 859.2 C 460.4 924.1, 586.2 987.2, 369.6 922.3 C 153.1 857.3, 279.2 929.0, 145.3 758.9 C 11.5 588.9, 1.4 668.2, 1.4 458.0 C 1.4 247.9, -34.5 376.2, 99.3 206.2 C 233.1 36.2, 150.1 60.2, 366.7 -4.8 C 583.2 -69.7, 470.5 -38.6, 687.0 26.4 C 903.6 91.3, 838.2 38.9, 972.0 209.0 C 1105.9 379.0, 1021.4 247.8, 1021.4 458.0 Z" fill="#A4E6F5" opacity="0.12" stroke="#FFFFFF" stroke-opacity="0.46" stroke-width="3" filter="url(#soft_dashboard_01_2049)"/>
  <path d="M 1021.4 458.0 C 1021.4 668.1, 1028.0 543.6, 894.2 713.6 C 760.3 883.6, 893.5 794.2, 676.9 859.2 C 460.4 924.1, 586.2 987.2, 369.6 922.3 C 153.1 857.3, 279.2 929.0, 145.3 758.9 C 11.5 588.9, 1.4 668.2, 1.4 458.0 C 1.4 247.9, -34.5 376.2, 99.3 206.2 C 233.1 36.2, 150.1 60.2, 366.7 -4.8 C 583.2 -69.7, 470.5 -38.6, 687.0 26.4 C 903.6 91.3, 838.2 38.9, 972.0 209.0 C 1105.9 379.0, 1021.4 247.8, 1021.4 458.0 Z" fill="none" stroke="#FFFFFF" stroke-opacity="0.22" stroke-width="1.2"/>
  <path d="M 1814.0 2170.0 C 1814.0 2512.9, 1806.2 2330.2, 1696.4 2607.6 C 1586.7 2885.0, 1720.1 2693.5, 1542.5 2799.5 C 1364.9 2905.4, 1460.2 2991.8, 1282.6 2885.8 C 1105.0 2779.9, 1214.2 2932.5, 1104.4 2655.1 C 994.7 2377.6, 984.5 2512.9, 984.5 2170.0 C 984.5 1827.1, 937.5 1993.2, 1047.2 1715.8 C 1157.0 1438.4, 1081.9 1626.1, 1259.5 1520.1 C 1437.1 1414.1, 1344.0 1314.7, 1521.6 1420.6 C 1699.2 1526.6, 1606.9 1456.8, 1716.7 1734.2 C 1826.4 2011.6, 1814.0 1827.1, 1814.0 2170.0 Z" fill="#E8FFF5" opacity="0.12" stroke="#E8FFF5" stroke-opacity="0.46" stroke-width="3" filter="url(#soft_dashboard_01_2049)"/>
  <path d="M 1814.0 2170.0 C 1814.0 2512.9, 1806.2 2330.2, 1696.4 2607.6 C 1586.7 2885.0, 1720.1 2693.5, 1542.5 2799.5 C 1364.9 2905.4, 1460.2 2991.8, 1282.6 2885.8 C 1105.0 2779.9, 1214.2 2932.5, 1104.4 2655.1 C 994.7 2377.6, 984.5 2512.9, 984.5 2170.0 C 984.5 1827.1, 937.5 1993.2, 1047.2 1715.8 C 1157.0 1438.4, 1081.9 1626.1, 1259.5 1520.1 C 1437.1 1414.1, 1344.0 1314.7, 1521.6 1420.6 C 1699.2 1526.6, 1606.9 1456.8, 1716.7 1734.2 C 1826.4 2011.6, 1814.0 1827.1, 1814.0 2170.0 Z" fill="none" stroke="#FFFFFF" stroke-opacity="0.22" stroke-width="1.2"/>
  <path d="M -100.0 1803.2 Q 133.3 1903.4, 366.7 2093.5 Q 600.0 2261.4, 833.3 2193.0 Q 1066.7 1980.9, 1300.0 1833.4" fill="none" stroke="#FFFFFF" stroke-opacity="0.38" stroke-width="4" filter="url(#soft_dashboard_01_2049)"/>
  <path d="M -100.0 1803.2 Q 133.3 1903.4, 366.7 2093.5 Q 600.0 2261.4, 833.3 2193.0 Q 1066.7 1980.9, 1300.0 1833.4" fill="none" stroke="#94D6FF" stroke-opacity="0.18" stroke-width="2"/>
  <path d="M -100.0 1713.9 Q 133.3 1989.2, 366.7 2422.3 Q 600.0 2410.5, 833.3 2029.3 Q 1066.7 1690.5, 1300.0 2113.6" fill="none" stroke="#FFFFFF" stroke-opacity="0.38" stroke-width="4" filter="url(#soft_dashboard_01_2049)"/>
  <path d="M -100.0 1713.9 Q 133.3 1989.2, 366.7 2422.3 Q 600.0 2410.5, 833.3 2029.3 Q 1066.7 1690.5, 1300.0 2113.6" fill="none" stroke="#94D6FF" stroke-opacity="0.18" stroke-width="2"/>
  <path d="M -100.0 689.3 Q 133.3 939.9, 366.7 698.7 Q 600.0 398.5, 833.3 258.2 Q 1066.7 289.2, 1300.0 699.6" fill="none" stroke="#FFFFFF" stroke-opacity="0.38" stroke-width="4" filter="url(#soft_dashboard_01_2049)"/>
  <path d="M -100.0 689.3 Q 133.3 939.9, 366.7 698.7 Q 600.0 398.5, 833.3 258.2 Q 1066.7 289.2, 1300.0 699.6" fill="none" stroke="#5DE0D7" stroke-opacity="0.18" stroke-width="2"/>
  <path d="M -100.0 549.7 Q 133.3 254.4, 366.7 -125.3 Q 600.0 -147.4, 833.3 169.2 Q 1066.7 585.6, 1300.0 532.9" fill="none" stroke="#FFFFFF" stroke-opacity="0.38" stroke-width="4" filter="url(#soft_dashboard_01_2049)"/>
  <path d="M -100.0 549.7 Q 133.3 254.4, 366.7 -125.3 Q 600.0 -147.4, 833.3 169.2 Q 1066.7 585.6, 1300.0 532.9" fill="none" stroke="#94D6FF" stroke-opacity="0.18" stroke-width="2"/>
  <circle cx="61" cy="2491" r="120" fill="url(#orb_dashboard_01_2049)" opacity="0.36"/>
  <circle cx="61" cy="2491" r="120" fill="#5DE0D7" opacity="0.08"/>
  <circle cx="61" cy="2491" r="120" fill="none" stroke="#FFFFFF" stroke-opacity="0.56" stroke-width="3"/>
  <ellipse cx="27.4" cy="2447.8" rx="21.6" ry="9.6" fill="#FFFFFF" opacity="0.42" transform="rotate(-22 27.4 2447.8)"/>
  <circle cx="994" cy="2559" r="144" fill="url(#orb_dashboard_01_2049)" opacity="0.36"/>
  <circle cx="994" cy="2559" r="144" fill="#A4E6F5" opacity="0.08"/>
  <circle cx="994" cy="2559" r="144" fill="none" stroke="#FFFFFF" stroke-opacity="0.56" stroke-width="3"/>
  <ellipse cx="953.7" cy="2507.2" rx="25.9" ry="11.5" fill="#FFFFFF" opacity="0.42" transform="rotate(-22 953.7 2507.2)"/>
  <circle cx="93" cy="2063" r="270" fill="url(#orb_dashboard_01_2049)" opacity="0.36"/>
  <circle cx="93" cy="2063" r="270" fill="#D7F8E8" opacity="0.08"/>
  <circle cx="93" cy="2063" r="270" fill="none" stroke="#FFFFFF" stroke-opacity="0.56" stroke-width="3"/>
  <ellipse cx="17.4" cy="1965.8" rx="48.6" ry="21.6" fill="#FFFFFF" opacity="0.42" transform="rotate(-22 17.4 1965.8)"/>
  <circle cx="1183" cy="1988" r="145" fill="url(#orb_dashboard_01_2049)" opacity="0.24"/>
  <circle cx="1183" cy="1988" r="145" fill="#A8F2C0" opacity="0.08"/>
  <circle cx="1183" cy="1988" r="145" fill="none" stroke="#FFFFFF" stroke-opacity="0.56" stroke-width="3"/>
  <ellipse cx="1142.4" cy="1935.8" rx="26.1" ry="11.6" fill="#FFFFFF" opacity="0.42" transform="rotate(-22 1142.4 1935.8)"/>
  <circle cx="31" cy="2555" r="251" fill="url(#orb_dashboard_01_2049)" opacity="0.17"/>
  <circle cx="31" cy="2555" r="251" fill="#5DE0D7" opacity="0.08"/>
  <circle cx="31" cy="2555" r="251" fill="none" stroke="#FFFFFF" stroke-opacity="0.56" stroke-width="3"/>
  <ellipse cx="-39.3" cy="2464.6" rx="45.2" ry="20.1" fill="#FFFFFF" opacity="0.42" transform="rotate(-22 -39.3 2464.6)"/>
  <circle cx="917" cy="2612" r="173" fill="url(#orb_dashboard_01_2049)" opacity="0.24"/>
  <circle cx="917" cy="2612" r="173" fill="#E8FFF5" opacity="0.08"/>
  <circle cx="917" cy="2612" r="173" fill="none" stroke="#FFFFFF" stroke-opacity="0.56" stroke-width="3"/>
  <ellipse cx="868.6" cy="2549.7" rx="31.1" ry="13.8" fill="#FFFFFF" opacity="0.42" transform="rotate(-22 868.6 2549.7)"/>
  <circle cx="54" cy="1255" r="266" fill="url(#orb_dashboard_01_2049)" opacity="0.19"/>
  <circle cx="54" cy="1255" r="266" fill="#BDEFFF" opacity="0.08"/>
  <circle cx="54" cy="1255" r="266" fill="none" stroke="#FFFFFF" stroke-opacity="0.56" stroke-width="3"/>
  <ellipse cx="-20.5" cy="1159.2" rx="47.9" ry="21.3" fill="#FFFFFF" opacity="0.42" transform="rotate(-22 -20.5 1159.2)"/>
  <circle cx="404" cy="378" r="4" fill="#FFFFFF" opacity="0.50"/>
  <circle cx="968" cy="2339" r="2" fill="#FFFFFF" opacity="0.37"/>
  <circle cx="989" cy="68" r="4" fill="#FFFFFF" opacity="0.66"/>
  <circle cx="101" cy="767" r="7" fill="#FFFFFF" opacity="0.34"/>
  <circle cx="1046" cy="1742" r="2" fill="#FFFFFF" opacity="0.29"/>
  <circle cx="689" cy="673" r="2" fill="#FFFFFF" opacity="0.63"/>
  <circle cx="579" cy="1724" r="5" fill="#FFFFFF" opacity="0.67"/>
  <circle cx="1073" cy="444" r="7" fill="#FFFFFF" opacity="0.45"/>
  <circle cx="616" cy="604" r="4" fill="#FFFFFF" opacity="0.62"/>
  <circle cx="362" cy="477" r="2" fill="#FFFFFF" opacity="0.43"/>
  <circle cx="626" cy="1767" r="5" fill="#FFFFFF" opacity="0.61"/>
  <circle cx="483" cy="1366" r="5" fill="#FFFFFF" opacity="0.30"/>
  <circle cx="1038" cy="975" r="7" fill="#FFFFFF" opacity="0.56"/>
  <circle cx="1188" cy="511" r="5" fill="#FFFFFF" opacity="0.47"/>
  <circle cx="621" cy="1328" r="4" fill="#FFFFFF" opacity="0.34"/>
  <circle cx="1000" cy="2048" r="4" fill="#FFFFFF" opacity="0.39"/>
  <circle cx="871" cy="2216" r="3" fill="#FFFFFF" opacity="0.64"/>
  <circle cx="1011" cy="297" r="4" fill="#FFFFFF" opacity="0.28"/>
  <rect width="1200" height="2600" fill="#FFFFFF" opacity="0.08"/>
  <rect width="1200" height="2600" filter="url(#grain_dashboard_01_2049)" opacity="0.7"/>
</svg>
