<svg xmlns="http://www.w3.org/2000/svg" width="1200" height="2600" viewBox="0 0 1200 2600" preserveAspectRatio="xMidYMid slice">
  <defs>
    <linearGradient id="bg_dashboard_15_7440" x1="0" y1="0" x2="1" y2="1">
      <stop offset="0%" stop-color="#F8FFFD"/>
      <stop offset="48%" stop-color="#BDEFFF"/>
      <stop offset="100%" stop-color="#A4E6F5"/>
    </linearGradient>
    <radialGradient id="orb_dashboard_15_7440" cx="35%" cy="30%" r="70%">
      <stop offset="0%" stop-color="#FFFFFF" stop-opacity="0.85"/>
      <stop offset="42%" stop-color="#FFFFFF" stop-opacity="0.20"/>
      <stop offset="100%" stop-color="#FFFFFF" stop-opacity="0.02"/>
    </radialGradient>
    <filter id="blur_dashboard_15_7440" x="-30%" y="-30%" width="160%" height="160%">
      <feGaussianBlur stdDeviation="72"/>
    </filter>
    <filter id="soft_dashboard_15_7440" x="-20%" y="-20%" width="140%" height="140%">
      <feGaussianBlur stdDeviation="10"/>
    </filter>
    <filter id="grain_dashboard_15_7440">
      <feTurbulence type="fractalNoise" baseFrequency="0.85" numOctaves="2" stitchTiles="stitch"/>
      <feColorMatrix type="saturate" values="0"/>
      <feComponentTransfer>
        <feFuncA type="table" tableValues="0 0.035"/>
      </feComponentTransfer>
    </filter>
  </defs>
  <rect width="1200" height="2600" fill="url(#bg_dashboard_15_7440)"/>
  <path d="M 565.8 1040.0 C 565.8 1178.6, 527.7 1152.1, 460.0 1258.3 C 392.3 1364.5, 443.2 1361.5, 339.5 1385.6 C 235.8 1409.7, 270.0 1339.2, 178.8 1269.9 C 87.7 1200.6, 97.0 1258.2, 61.0 1128.0 C 24.9 997.8, 79.6 1074.2, 115.6 944.0 C 151.6 813.7, 92.7 849.3, 183.8 780.0 C 275.0 710.7, 244.3 679.0, 348.0 703.0 C 451.7 727.1, 418.3 760.7, 486.0 866.8 C 553.7 973.0, 565.8 901.4, 565.8 1040.0 Z" fill="#94D6FF" opacity="0.24" filter="url(#blur_dashboard_15_7440)"/>
  <path d="M 1395.1 1447.0 C 1395.1 1643.2, 1426.3 1621.5, 1304.2 1771.8 C 1182.1 1922.1, 1250.2 1887.7, 1063.2 1921.8 C 876.2 1955.9, 960.1 1870.7, 795.7 1772.6 C 631.2 1674.5, 673.5 1778.4, 608.6 1594.1 C 543.6 1409.7, 548.0 1461.2, 612.9 1276.8 C 677.9 1092.5, 657.3 1224.8, 821.7 1126.7 C 986.2 1028.6, 881.9 946.7, 1069.0 980.7 C 1256.0 1014.8, 1216.9 971.5, 1339.0 1121.8 C 1461.0 1272.1, 1395.1 1250.8, 1395.1 1447.0 Z" fill="#D7F8E8" opacity="0.19" filter="url(#blur_dashboard_15_7440)"/>
  <path d="M 562.2 785.0 C 562.2 1078.4, 586.6 952.6, 489.4 1177.4 C 392.3 1402.1, 426.4 1280.2, 277.5 1331.1 C 128.6 1382.1, 184.1 1569.9, 53.2 1423.2 C -77.8 1276.5, -9.3 1317.7, -61.0 1042.0 C -112.7 766.3, -154.2 831.8, -102.5 556.1 C -50.7 280.4, -79.5 320.8, 51.4 174.1 C 182.4 27.4, 125.7 -13.0, 274.6 38.0 C 423.5 88.9, 399.6 133.4, 496.8 358.1 C 594.0 582.9, 562.2 491.6, 562.2 785.0 Z" fill="#A4E6F5" opacity="0.28" filter="url(#blur_dashboard_15_7440)"/>
  <path d="M 1675.7 1787.0 C 1675.7 1994.5, 1743.3 1918.3, 1583.3 2077.2 C 1423.4 2236.1, 1536.5 2247.5, 1291.4 2283.5 C 1046.3 2319.5, 1098.2 2232.2, 882.7 2128.5 C 667.2 2024.7, 712.5 2136.2, 627.3 1941.2 C 542.2 1746.3, 557.3 1810.3, 642.4 1615.4 C 727.5 1420.4, 690.5 1548.8, 906.0 1445.1 C 1121.5 1341.4, 1064.1 1262.9, 1309.2 1298.9 C 1554.3 1334.9, 1466.9 1361.2, 1626.9 1520.1 C 1786.8 1679.0, 1675.7 1579.5, 1675.7 1787.0 Z" fill="#E8FFF5" opacity="0.37" filter="url(#blur_dashboard_15_7440)"/>
  <path d="M 234.4 631.0 C 234.4 870.0, 323.8 759.2, 221.4 942.2 C 119.0 1125.3, 139.5 1039.6, -17.4 1081.1 C -174.3 1122.6, -127.9 1204.5, -265.9 1085.0 C -403.8 965.5, -311.1 1021.5, -365.6 796.9 C -420.1 572.4, -520.9 649.9, -466.4 425.4 C -411.9 200.8, -415.0 279.6, -277.0 160.1 C -139.1 40.7, -168.7 83.2, -11.8 124.7 C 145.0 166.2, 48.9 138.0, 151.3 321.1 C 253.6 504.1, 234.4 392.0, 234.4 631.0 Z" fill="#D7F8E8" opacity="0.26" filter="url(#blur_dashboard_15_7440)"/>
  <path d="M 1118.8 -149.0 C 1118.8 -4.1, 1162.4 -43.1, 1028.4 67.9 C 894.5 178.9, 947.6 183.8, 742.4 208.9 C 537.2 234.1, 581.5 229.8, 401.0 157.4 C 220.6 84.9, 378.8 86.8, 307.5 -49.4 C 236.3 -185.6, 118.3 -139.3, 189.6 -275.4 C 260.8 -411.6, 282.1 -377.5, 462.6 -449.9 C 643.0 -522.4, 554.0 -481.2, 759.2 -456.0 C 964.4 -430.9, 852.8 -472.3, 986.7 -361.3 C 1120.7 -250.3, 1118.8 -293.9, 1118.8 -149.0 Z" fill="#D7F8E8" opacity="0.34" filter="url(#blur_dashboard_15_7440)"/>
  <path d="M 1177.9 94.0 C 1177.9 302.8, 1220.0 235.5, 1089.0 395.5 C 957.9 555.4, 1065.3 562.7, 864.6 599.0 C 663.8 635.2, 756.2 594.4, 579.6 490.0 C 403.1 385.6, 433.2 455.6, 363.5 259.4 C 293.8 63.2, 275.2 144.3, 345.0 -51.9 C 414.7 -248.1, 398.2 -242.4, 574.8 -346.8 C 751.3 -451.2, 667.9 -408.9, 868.6 -372.6 C 1069.4 -336.4, 966.9 -313.2, 1097.9 -153.3 C 1229.0 6.7, 1177.9 -114.8, 1177.9 94.0 Z" fill="#E8FFF5" opacity="0.37" filter="url(#blur_dashboard_15_7440)"/>
  <path d="M 216.2 1374.0 C 216.2 1580.1, 302.4 1477.2, 211.0 1635.1 C 119.6 1793.0, 131.5 1823.4, -8.5 1859.2 C -148.6 1894.9, -94.2 1814.7, -217.4 1711.7 C -340.5 1608.6, -296.3 1718.6, -344.9 1524.9 C -393.5 1331.2, -391.2 1413.7, -342.6 1220.0 C -293.9 1026.3, -365.6 1063.6, -242.4 960.5 C -119.3 857.5, -166.1 960.3, -26.1 996.1 C 113.9 1031.9, 41.2 923.5, 132.6 1081.4 C 224.0 1239.3, 216.2 1167.9, 216.2 1374.0 Z" fill="#A4E6F5" opacity="0.24" filter="url(#blur_dashboard_15_7440)"/>
  <path d="M 564.9 1219.0 C 564.9 1584.8, 593.7 1404.3, 517.5 1700.2 C 441.4 1996.2, 485.9 1934.1, 362.7 2047.1 C 239.4 2160.2, 312.8 2147.7, 189.5 2034.6 C 66.3 1921.6, 132.4 1977.6, 56.3 1681.6 C -19.9 1385.6, -0.6 1584.8, -0.6 1219.0 C -0.6 853.1, -11.7 1018.8, 64.5 722.9 C 140.7 426.9, 62.6 603.4, 185.9 490.3 C 309.1 377.2, 238.5 304.9, 361.8 418.0 C 485.0 531.0, 455.6 467.3, 531.7 763.3 C 607.9 1059.3, 564.9 853.1, 564.9 1219.0 Z" fill="#BDEFFF" opacity="0.12" stroke="#FFFFFF" stroke-opacity="0.46" stroke-width="3" filter="url(#soft_dashboard_15_7440)"/>
  <path d="M 564.9 1219.0 C 564.9 1584.8, 593.7 1404.3, 517.5 1700.2 C 441.4 1996.2, 485.9 1934.1, 362.7 2047.1 C 239.4 2160.2, 312.8 2147.7, 189.5 2034.6 C 66.3 1921.6, 132.4 1977.6, 56.3 1681.6 C -19.9 1385.6, -0.6 1584.8, -0.6 1219.0 C -0.6 853.1, -11.7 1018.8, 64.5 722.9 C 140.7 426.9, 62.6 603.4, 185.9 490.3 C 309.1 377.2, 238.5 304.9, 361.8 418.0 C 485.0 531.0, 455.6 467.3, 531.7 763.3 C 607.9 1059.3, 564.9 853.1, 564.9 1219.0 Z" fill="none" stroke="#FFFFFF" stroke-opacity="0.22" stroke-width="1.2"/>
  <path d="M 432.7 1726.0 C 432.7 1892.5, 444.2 1818.2, 346.3 1952.9 C 248.5 2087.6, 355.3 2073.3, 197.0 2124.7 C 38.6 2176.2, 143.1 2128.2, -15.2 2076.7 C -173.6 2025.3, -130.7 2070.9, -228.6 1936.2 C -326.4 1801.5, -327.0 1892.5, -327.0 1726.0 C -327.0 1559.5, -345.6 1612.9, -247.8 1478.2 C -149.9 1343.5, -195.7 1413.6, -37.3 1362.1 C 121.0 1310.7, 39.1 1298.2, 197.5 1349.7 C 355.8 1401.1, 287.6 1380.9, 385.4 1515.6 C 483.3 1650.3, 432.7 1559.5, 432.7 1726.0 Z" fill="#F8FFFD" opacity="0.12" stroke="#F8FFFD" stroke-opacity="0.46" stroke-width="3" filter="url(#soft_dashboard_15_7440)"/>
  <path d="M 432.7 1726.0 C 432.7 1892.5, 444.2 1818.2, 346.3 1952.9 C 248.5 2087.6, 355.3 2073.3, 197.0 2124.7 C 38.6 2176.2, 143.1 2128.2, -15.2 2076.7 C -173.6 2025.3, -130.7 2070.9, -228.6 1936.2 C -326.4 1801.5, -327.0 1892.5, -327.0 1726.0 C -327.0 1559.5, -345.6 1612.9, -247.8 1478.2 C -149.9 1343.5, -195.7 1413.6, -37.3 1362.1 C 121.0 1310.7, 39.1 1298.2, 197.5 1349.7 C 355.8 1401.1, 287.6 1380.9, 385.4 1515.6 C 483.3 1650.3, 432.7 1559.5, 432.7 1726.0 Z" fill="none" stroke="#FFFFFF" stroke-opacity="0.22" stroke-width="1.2"/>
  <path d="M 1096.3 2484.0 C 1096.3 2700.0, 1161.0 2595.8, 986.2 2770.5 C 811.4 2945.2, 951.0 2865.7, 668.1 2932.4 C 385.2 2999.2, 558.9 2963.9, 276.0 2897.2 C -6.9 2830.4, 175.4 2933.1, 0.6 2758.3 C -174.3 2583.6, -168.9 2700.0, -168.9 2484.0 C -168.9 2268.0, -291.8 2373.5, -117.0 2198.7 C 57.8 2024.0, 2.2 2111.0, 285.0 2044.3 C 567.9 1977.6, 396.0 1991.4, 678.9 2058.1 C 961.8 2124.9, 767.4 1998.7, 942.2 2173.4 C 1117.0 2348.2, 1096.3 2268.0, 1096.3 2484.0 Z" fill="#94D6FF" opacity="0.12" stroke="#FFFFFF" stroke-opacity="0.46" stroke-width="3" filter="url(#soft_dashboard_15_7440)"/>
  <path d="M 1096.3 2484.0 C 1096.3 2700.0, 1161.0 2595.8, 986.2 2770.5 C 811.4 2945.2, 951.0 2865.7, 668.1 2932.4 C 385.2 2999.2, 558.9 2963.9, 276.0 2897.2 C -6.9 2830.4, 175.4 2933.1, 0.6 2758.3 C -174.3 2583.6, -168.9 2700.0, -168.9 2484.0 C -168.9 2268.0, -291.8 2373.5, -117.0 2198.7 C 57.8 2024.0, 2.2 2111.0, 285.0 2044.3 C 567.9 1977.6, 396.0 1991.4, 678.9 2058.1 C 961.8 2124.9, 767.4 1998.7, 942.2 2173.4 C 1117.0 2348.2, 1096.3 2268.0, 1096.3 2484.0 Z" fill="none" stroke="#FFFFFF" stroke-opacity="0.22" stroke-width="1.2"/>
  <path d="M 837.5 774.0 C 837.5 1060.2, 878.2 948.4, 751.3 1179.9 C 624.3 1411.4, 746.9 1325.3, 541.5 1413.8 C 336.1 1502.2, 467.9 1405.9, 262.5 1317.4 C 57.1 1229.0, 185.5 1361.3, 58.6 1129.8 C -68.4 898.3, -100.4 1060.2, -100.4 774.0 C -100.4 487.8, -142.5 599.5, -15.6 367.9 C 111.4 136.4, 52.0 306.9, 257.5 218.4 C 462.9 130.0, 316.2 106.2, 521.6 194.6 C 727.0 283.1, 612.9 210.0, 739.9 441.5 C 866.8 673.1, 837.5 487.8, 837.5 774.0 Z" fill="#E8FFF5" opacity="0.12" stroke="#E8FFF5" stroke-opacity="0.46" stroke-width="3" filter="url(#soft_dashboard_15_7440)"/>
  <path d="M 837.5 774.0 C 837.5 1060.2, 878.2 948.4, 751.3 1179.9 C 624.3 1411.4, 746.9 1325.3, 541.5 1413.8 C 336.1 1502.2, 467.9 1405.9, 262.5 1317.4 C 57.1 1229.0, 185.5 1361.3, 58.6 1129.8 C -68.4 898.3, -100.4 1060.2, -100.4 774.0 C -100.4 487.8, -142.5 599.5, -15.6 367.9 C 111.4 136.4, 52.0 306.9, 257.5 218.4 C 462.9 130.0, 316.2 106.2, 521.6 194.6 C 727.0 283.1, 612.9 210.0, 739.9 441.5 C 866.8 673.1, 837.5 487.8, 837.5 774.0 Z" fill="none" stroke="#FFFFFF" stroke-opacity="0.22" stroke-width="1.2"/>
  <path d="M 1028.4 2435.0 C 1028.4 2729.8, 1090.3 2611.9, 997.2 2850.3 C 904.1 3088.8, 961.6 3014.1, 810.9 3105.2 C 660.3 3196.3, 747.2 3096.7, 596.5 3005.7 C 445.9 2914.6, 494.8 3068.6, 401.7 2830.1 C 308.6 2591.7, 355.7 2729.8, 355.7 2435.0 C 355.7 2140.2, 316.9 2238.8, 410.0 2000.4 C 503.1 1761.9, 465.5 1976.5, 616.1 1885.4 C 766.8 1794.3, 668.6 1730.2, 819.3 1821.3 C 969.9 1912.4, 919.2 1803.3, 1012.3 2041.7 C 1105.4 2280.2, 1028.4 2140.2, 1028.4 2435.0 Z" fill="#5DE0D7" opacity="0.12" stroke="#5DE0D7" stroke-opacity="0.46" stroke-width="3" filter="url(#soft_dashboard_15_7440)"/>
  <path d="M 1028.4 2435.0 C 1028.4 2729.8, 1090.3 2611.9, 997.2 2850.3 C 904.1 3088.8, 961.6 3014.1, 810.9 3105.2 C 660.3 3196.3, 747.2 3096.7, 596.5 3005.7 C 445.9 2914.6, 494.8 3068.6, 401.7 2830.1 C 308.6 2591.7, 355.7 2729.8, 355.7 2435.0 C 355.7 2140.2, 316.9 2238.8, 410.0 2000.4 C 503.1 1761.9, 465.5 1976.5, 616.1 1885.4 C 766.8 1794.3, 668.6 1730.2, 819.3 1821.3 C 969.9 1912.4, 919.2 1803.3, 1012.3 2041.7 C 1105.4 2280.2, 1028.4 2140.2, 1028.4 2435.0 Z" fill="none" stroke="#FFFFFF" stroke-opacity="0.22" stroke-width="1.2"/>
  <path d="M 1040.5 479.0 C 1040.5 863.3, 996.1 624.0, 922.3 934.9 C 848.5 1245.8, 928.0 1098.4, 808.6 1217.1 C 689.2 1335.9, 767.3 1497.4, 647.9 1378.6 C 528.5 1259.9, 590.0 1319.6, 516.2 1008.7 C 442.4 697.8, 407.2 863.3, 407.2 479.0 C 407.2 94.7, 442.6 238.4, 516.4 -72.5 C 590.2 -383.4, 523.0 -110.2, 642.4 -228.9 C 761.8 -347.7, 687.6 -405.1, 807.0 -286.3 C 926.4 -167.5, 859.0 -335.6, 932.8 -24.7 C 1006.6 286.2, 1040.5 94.7, 1040.5 479.0 Z" fill="#F8FFFD" opacity="0.12" stroke="#F8FFFD" stroke-opacity="0.46" stroke-width="3" filter="url(#soft_dashboard_15_7440)"/>
  <path d="M 1040.5 479.0 C 1040.5 863.3, 996.1 624.0, 922.3 934.9 C 848.5 1245.8, 928.0 1098.4, 808.6 1217.1 C 689.2 1335.9, 767.3 1497.4, 647.9 1378.6 C 528.5 1259.9, 590.0 1319.6, 516.2 1008.7 C 442.4 697.8, 407.2 863.3, 407.2 479.0 C 407.2 94.7, 442.6 238.4, 516.4 -72.5 C 590.2 -383.4, 523.0 -110.2, 642.4 -228.9 C 761.8 -347.7, 687.6 -405.1, 807.0 -286.3 C 926.4 -167.5, 859.0 -335.6, 932.8 -24.7 C 1006.6 286.2, 1040.5 94.7, 1040.5 479.0 Z" fill="none" stroke="#FFFFFF" stroke-opacity="0.22" stroke-width="1.2"/>
  <path d="M -100.0 1790.6 Q 133.3 1645.5, 366.7 1261.4 Q 600.0 1306.0, 833.3 1706.2 Q 1066.7 1847.9, 1300.0 1431.2" fill="none" stroke="#FFFFFF" stroke-opacity="0.38" stroke-width="4" filter="url(#soft_dashboard_15_7440)"/>
  <path d="M -100.0 1790.6 Q 133.3 1645.5, 366.7 1261.4 Q 600.0 1306.0, 833.3 1706.2 Q 1066.7 1847.9, 1300.0 1431.2" fill="none" stroke="#5DE0D7" stroke-opacity="0.18" stroke-width="2"/>
  <path d="M -100.0 1378.9 Q 133.3 1660.6, 366.7 1821.7 Q 600.0 1667.5, 833.3 1436.9 Q 1066.7 1285.8, 1300.0 1613.6" fill="none" stroke="#FFFFFF" stroke-opacity="0.38" stroke-width="4" filter="url(#soft_dashboard_15_7440)"/>
  <path d="M -100.0 1378.9 Q 133.3 1660.6, 366.7 1821.7 Q 600.0 1667.5, 833.3 1436.9 Q 1066.7 1285.8, 1300.0 1613.6" fill="none" stroke="#94D6FF" stroke-opacity="0.18" stroke-width="2"/>
  <path d="M -100.0 1356.3 Q 133.3 1154.6, 366.7 1457.8 Q 600.0 1694.4, 833.3 1353.1 Q 1066.7 1167.5, 1300.0 1444.5" fill="none" stroke="#FFFFFF" stroke-opacity="0.38" stroke-width="4" filter="url(#soft_dashboard_15_7440)"/>
  <path d="M -100.0 1356.3 Q 133.3 1154.6, 366.7 1457.8 Q 600.0 1694.4, 833.3 1353.1 Q 1066.7 1167.5, 1300.0 1444.5" fill="none" stroke="#A8F2C0" stroke-opacity="0.18" stroke-width="2"/>
  <path d="M -100.0 105.3 Q 133.3 -157.9, 366.7 -180.9 Q 600.0 184.2, 833.3 123.0 Q 1066.7 -217.2, 1300.0 -173.2" fill="none" stroke="#FFFFFF" stroke-opacity="0.38" stroke-width="4" filter="url(#soft_dashboard_15_7440)"/>
  <path d="M -100.0 105.3 Q 133.3 -157.9, 366.7 -180.9 Q 600.0 184.2, 833.3 123.0 Q 1066.7 -217.2, 1300.0 -173.2" fill="none" stroke="#94D6FF" stroke-opacity="0.18" stroke-width="2"/>
  <path d="M -100.0 430.5 Q 133.3 177.3, 366.7 157.1 Q 600.0 475.9, 833.3 708.9 Q 1066.7 543.2, 1300.0 231.2" fill="none" stroke="#FFFFFF" stroke-opacity="0.38" stroke-width="4" filter="url(#soft_dashboard_15_7440)"/>
  <path d="M -100.0 430.5 Q 133.3 177.3, 366.7 157.1 Q 600.0 475.9, 833.3 708.9 Q 1066.7 543.2, 1300.0 231.2" fill="none" stroke="#A8F2C0" stroke-opacity="0.18" stroke-width="2"/>
  <path d="M -100.0 1638.1 Q 133.3 1461.0, 366.7 1183.5 Q 600.0 1335.9, 833.3 1604.4 Q 1066.7 1892.4, 1300.0 1917.2" fill="none" stroke="#FFFFFF" stroke-opacity="0.38" stroke-width="4" filter="url(#soft_dashboard_15_7440)"/>
  <path d="M -100.0 1638.1 Q 133.3 1461.0, 366.7 1183.5 Q 600.0 1335.9, 833.3 1604.4 Q 1066.7 1892.4, 1300.0 1917.2" fill="none" stroke="#A8F2C0" stroke-opacity="0.18" stroke-width="2"/>
  <circle cx="931" cy="116" r="243" fill="url(#orb_dashboard_15_7440)" opacity="0.36"/>
  <circle cx="931" cy="116" r="243" fill="#E8FFF5" opacity="0.08"/>
  <circle cx="931" cy="116" r="243" fill="none" stroke="#FFFFFF" stroke-opacity="0.56" stroke-width="3"/>
  <ellipse cx="863.0" cy="28.5" rx="43.7" ry="19.4" fill="#FFFFFF" opacity="0.42" transform="rotate(-22 863.0 28.5)"/>
  <circle cx="268" cy="506" r="224" fill="url(#orb_dashboard_15_7440)" opacity="0.36"/>
  <circle cx="268" cy="506" r="224" fill="#A4E6F5" opacity="0.08"/>
  <circle cx="268" cy="506" r="224" fill="none" stroke="#FFFFFF" stroke-opacity="0.56" stroke-width="3"/>
  <ellipse cx="205.3" cy="425.4" rx="40.3" ry="17.9" fill="#FFFFFF" opacity="0.42" transform="rotate(-22 205.3 425.4)"/>
  <circle cx="437" cy="733" r="197" fill="url(#orb_dashboard_15_7440)" opacity="0.36"/>
  <circle cx="437" cy="733" r="197" fill="#A4E6F5" opacity="0.08"/>
  <circle cx="437" cy="733" r="197" fill="none" stroke="#FFFFFF" stroke-opacity="0.56" stroke-width="3"/>
  <ellipse cx="381.8" cy="662.1" rx="35.5" ry="15.8" fill="#FFFFFF" opacity="0.42" transform="rotate(-22 381.8 662.1)"/>
  <circle cx="776" cy="1652" r="288" fill="url(#orb_dashboard_15_7440)" opacity="0.24"/>
  <circle cx="776" cy="1652" r="288" fill="#F8FFFD" opacity="0.08"/>
  <circle cx="776" cy="1652" r="288" fill="none" stroke="#FFFFFF" stroke-opacity="0.56" stroke-width="3"/>
  <ellipse cx="695.4" cy="1548.3" rx="51.8" ry="23.0" fill="#FFFFFF" opacity="0.42" transform="rotate(-22 695.4 1548.3)"/>
  <circle cx="1145" cy="2063" r="276" fill="url(#orb_dashboard_15_7440)" opacity="0.17"/>
  <circle cx="1145" cy="2063" r="276" fill="#A4E6F5" opacity="0.08"/>
  <circle cx="1145" cy="2063" r="276" fill="none" stroke="#FFFFFF" stroke-opacity="0.56" stroke-width="3"/>
  <ellipse cx="1067.7" cy="1963.6" rx="49.7" ry="22.1" fill="#FFFFFF" opacity="0.42" transform="rotate(-22 1067.7 1963.6)"/>
  <circle cx="210" cy="2176" r="117" fill="url(#orb_dashboard_15_7440)" opacity="0.22"/>
  <circle cx="210" cy="2176" r="117" fill="#94D6FF" opacity="0.08"/>
  <circle cx="210" cy="2176" r="117" fill="none" stroke="#FFFFFF" stroke-opacity="0.56" stroke-width="3"/>
  <ellipse cx="177.2" cy="2133.9" rx="21.1" ry="9.4" fill="#FFFFFF" opacity="0.42" transform="rotate(-22 177.2 2133.9)"/>
  <circle cx="902" cy="2730" r="209" fill="url(#orb_dashboard_15_7440)" opacity="0.19"/>
  <circle cx="902" cy="2730" r="209" fill="#A4E6F5" opacity="0.08"/>
  <circle cx="902" cy="2730" r="209" fill="none" stroke="#FFFFFF" stroke-opacity="0.56" stroke-width="3"/>
  <ellipse cx="843.5" cy="2654.8" rx="37.6" ry="16.7" fill="#FFFFFF" opacity="0.42" transform="rotate(-22 843.5 2654.8)"/>
  <circle cx="209" cy="1765" r="285" fill="url(#orb_dashboard_15_7440)" opacity="0.25"/>
  <circle cx="209" cy="1765" r="285" fill="#D7F8E8" opacity="0.08"/>
  <circle cx="209" cy="1765" r="285" fill="none" stroke="#FFFFFF" stroke-opacity="0.56" stroke-width="3"/>
  <ellipse cx="129.2" cy="1662.4" rx="51.3" ry="22.8" fill="#FFFFFF" opacity="0.42" transform="rotate(-22 129.2 1662.4)"/>
  <circle cx="317" cy="1425" r="223" fill="url(#orb_dashboard_15_7440)" opacity="0.26"/>
  <circle cx="317" cy="1425" r="223" fill="#A8F2C0" opacity="0.08"/>
  <circle cx="317" cy="1425" r="223" fill="none" stroke="#FFFFFF" stroke-opacity="0.56" stroke-width="3"/>
  <ellipse cx="254.6" cy="1344.7" rx="40.1" ry="17.8" fill="#FFFFFF" opacity="0.42" transform="rotate(-22 254.6 1344.7)"/>
  <circle cx="378" cy="2408" r="277" fill="url(#orb_dashboard_15_7440)" opacity="0.17"/>
  <circle cx="378" cy="2408" r="277" fill="#5DE0D7" opacity="0.08"/>
  <circle cx="378" cy="2408" r="277" fill="none" stroke="#FFFFFF" stroke-opacity="0.56" stroke-width="3"/>
  <ellipse cx="300.4" cy="2308.3" rx="49.9" ry="22.2" fill="#FFFFFF" opacity="0.42" transform="rotate(-22 300.4 2308.3)"/>
  <circle cx="30" cy="686" r="248" fill="url(#orb_dashboard_15_7440)" opacity="0.22"/>
  <circle cx="30" cy="686" r="248" fill="#A8F2C0" opacity="0.08"/>
  <circle cx="30" cy="686" r="248" fill="none" stroke="#FFFFFF" stroke-opacity="0.56" stroke-width="3"/>
  <ellipse cx="-39.4" cy="596.7" rx="44.6" ry="19.8" fill="#FFFFFF" opacity="0.42" transform="rotate(-22 -39.4 596.7)"/>
  <circle cx="503" cy="1274" r="4" fill="#FFFFFF" opacity="0.39"/>
  <circle cx="962" cy="647" r="3" fill="#FFFFFF" opacity="0.31"/>
  <circle cx="258" cy="386" r="7" fill="#FFFFFF" opacity="0.43"/>
  <circle cx="991" cy="1814" r="3" fill="#FFFFFF" opacity="0.67"/>
  <circle cx="69" cy="2583" r="4" fill="#FFFFFF" opacity="0.60"/>
  <circle cx="102" cy="2139" r="2" fill="#FFFFFF" opacity="0.43"/>
  <circle cx="567" cy="974" r="2" fill="#FFFFFF" opacity="0.36"/>
  <circle cx="1007" cy="782" r="4" fill="#FFFFFF" opacity="0.51"/>
  <circle cx="866" cy="1213" r="5" fill="#FFFFFF" opacity="0.44"/>
  <circle cx="214" cy="11" r="2" fill="#FFFFFF" opacity="0.49"/>
  <circle cx="793" cy="1469" r="7" fill="#FFFFFF" opacity="0.57"/>
  <circle cx="386" cy="2165" r="7" fill="#FFFFFF" opacity="0.33"/>
  <circle cx="162" cy="1433" r="3" fill="#FFFFFF" opacity="0.49"/>
  <circle cx="165" cy="2178" r="5" fill="#FFFFFF" opacity="0.44"/>
  <circle cx="76" cy="1572" r="3" fill="#FFFFFF" opacity="0.63"/>
  <circle cx="675" cy="2173" r="2" fill="#FFFFFF" opacity="0.51"/>
  <rect width="1200" height="2600" fill="#FFFFFF" opacity="0.08"/>
  <rect width="1200" height="2600" filter="url(#grain_dashboard_15_7440)" opacity="0.7"/>
</svg>
