<svg xmlns="http://www.w3.org/2000/svg" width="1200" height="2600" viewBox="0 0 1200 2600" preserveAspectRatio="xMidYMid slice">
  <defs>
    <linearGradient id="bg_dashboard_11_1923" x1="0" y1="0" x2="1" y2="1">
      <stop offset="0%" stop-color="#F8FFFD"/>
      <stop offset="48%" stop-color="#E8FFF5"/>
      <stop offset="100%" stop-color="#A4E6F5"/>
    </linearGradient>
    <radialGradient id="orb_dashboard_11_1923" cx="35%" cy="30%" r="70%">
      <stop offset="0%" stop-color="#FFFFFF" stop-opacity="0.85"/>
      <stop offset="42%" stop-color="#FFFFFF" stop-opacity="0.20"/>
      <stop offset="100%" stop-color="#FFFFFF" stop-opacity="0.02"/>
    </radialGradient>
    <filter id="blur_dashboard_11_1923" x="-30%" y="-30%" width="160%" height="160%">
      <feGaussianBlur stdDeviation="72"/>
    </filter>
    <filter id="soft_dashboard_11_1923" x="-20%" y="-20%" width="140%" height="140%">
      <feGaussianBlur stdDeviation="10"/>
    </filter>
    <filter id="grain_dashboard_11_1923">
      <feTurbulence type="fractalNoise" baseFrequency="0.85" numOctaves="2" stitchTiles="stitch"/>
      <feColorMatrix type="saturate" values="0"/>
      <feComponentTransfer>
        <feFuncA type="table" tableValues="0 0.035"/>
      </feComponentTransfer>
    </filter>
  </defs>
  <rect width="1200" height="2600" fill="url(#bg_dashboard_11_1923)"/>
  <path d="M 350.4 2519.0 C 350.4 2769.7, 383.3 2633.4, 306.7 2825.4 C 230.0 3017.4, 270.4 3032.1, 153.0 3075.6 C 35.5 3119.2, 91.0 3088.2, -12.3 2962.9 C -115.6 2837.6, -107.1 2945.1, -147.9 2709.5 C -188.7 2474.0, -177.3 2584.3, -136.5 2348.8 C -95.8 2113.3, -132.2 2111.2, -29.0 1985.9 C 74.3 1860.6, 44.7 2016.6, 162.1 2060.1 C 279.6 2103.6, 266.2 1913.8, 342.8 2105.8 C 419.5 2297.8, 350.4 2268.3, 350.4 2519.0 Z" fill="#D7F8E8" opacity="0.27" filter="url(#blur_dashboard_11_1923)"/>
  <path d="M 237.3 288.0 C 237.3 473.9, 322.2 428.0, 213.8 570.4 C 105.3 712.7, 145.1 709.3, -21.1 741.6 C -187.2 773.8, -92.4 728.2, -238.6 635.3 C -384.7 542.4, -397.2 582.2, -454.9 407.6 C -512.6 232.9, -474.3 320.0, -416.6 145.3 C -358.8 -29.3, -414.0 45.0, -267.9 -48.0 C -121.7 -140.9, -179.4 -182.6, -13.2 -150.4 C 153.0 -118.1, 55.2 -82.7, 163.6 59.6 C 272.1 202.0, 237.3 102.2, 237.3 288.0 Z" fill="#F8FFFD" opacity="0.20" filter="url(#blur_dashboard_11_1923)"/>
  <path d="M 1887.3 1180.0 C 1887.3 1307.3, 1774.4 1252.7, 1630.9 1350.3 C 1487.5 1447.9, 1629.2 1426.8, 1409.4 1449.0 C 1189.5 1471.1, 1221.3 1529.4, 1028.0 1465.7 C 834.7 1402.1, 847.4 1406.9, 771.1 1287.3 C 694.7 1167.6, 727.1 1192.8, 803.4 1073.1 C 879.8 953.5, 893.1 999.1, 1086.4 935.5 C 1279.6 871.8, 1190.5 929.2, 1410.3 951.3 C 1630.1 973.4, 1527.8 911.2, 1671.3 1008.8 C 1814.8 1106.3, 1887.3 1052.7, 1887.3 1180.0 Z" fill="#94D6FF" opacity="0.31" filter="url(#blur_dashboard_11_1923)"/>
  <path d="M 829.7 1585.0 C 829.7 1747.5, 941.1 1656.5, 784.3 1781.0 C 627.6 1905.4, 677.0 1886.7, 436.8 1914.9 C 196.6 1943.1, 293.8 1943.0, 82.6 1861.7 C -128.7 1780.5, -166.3 1860.7, -249.7 1708.0 C -333.1 1555.3, -321.5 1629.5, -238.1 1476.8 C -154.7 1324.2, -119.0 1303.1, 92.2 1221.8 C 303.4 1140.6, 202.2 1182.4, 442.3 1210.6 C 682.5 1238.8, 612.8 1212.6, 769.6 1337.1 C 926.4 1461.5, 829.7 1422.5, 829.7 1585.0 Z" fill="#D7F8E8" opacity="0.27" filter="url(#blur_dashboard_11_1923)"/>
  <path d="M 1238.3 1139.0 C 1238.3 1262.3, 1377.4 1212.9, 1216.9 1307.4 C 1056.4 1401.8, 1069.2 1389.2, 823.3 1410.6 C 577.3 1432.0, 629.9 1436.1, 413.6 1374.4 C 197.3 1312.8, 306.0 1344.5, 220.6 1228.7 C 135.2 1112.8, 201.0 1176.5, 286.5 1060.7 C 371.9 944.8, 240.5 1000.6, 456.8 938.9 C 673.1 877.3, 566.3 829.1, 812.3 850.5 C 1058.3 871.9, 978.5 881.1, 1139.0 975.5 C 1299.5 1070.0, 1238.3 1015.7, 1238.3 1139.0 Z" fill="#A8F2C0" opacity="0.22" filter="url(#blur_dashboard_11_1923)"/>
  <path d="M 1623.6 868.0 C 1623.6 1019.6, 1571.9 932.3, 1474.7 1048.5 C 1377.5 1164.6, 1461.3 1151.0, 1312.4 1177.3 C 1163.5 1203.7, 1221.9 1277.1, 1090.9 1201.3 C 960.0 1125.5, 950.1 1108.3, 898.4 965.8 C 846.7 823.3, 875.0 885.4, 926.7 742.9 C 978.4 600.4, 929.1 602.4, 1060.1 526.6 C 1191.0 450.8, 1158.7 533.3, 1307.6 559.6 C 1456.5 585.9, 1395.4 563.1, 1492.6 679.3 C 1589.8 795.5, 1623.6 716.4, 1623.6 868.0 Z" fill="#94D6FF" opacity="0.19" filter="url(#blur_dashboard_11_1923)"/>
  <path d="M 1035.0 225.0 C 1035.0 430.2, 1027.8 389.4, 897.7 546.5 C 767.5 703.7, 843.6 572.1, 644.2 607.8 C 444.8 643.4, 540.8 651.6, 365.4 549.0 C 190.0 446.4, 247.7 581.2, 178.4 388.4 C 109.1 195.6, 133.1 277.1, 202.3 84.3 C 271.6 -108.6, 178.2 -120.1, 353.6 -222.7 C 529.0 -325.3, 440.3 -301.6, 639.8 -266.0 C 839.2 -230.3, 831.5 -241.4, 961.7 -84.2 C 1091.8 73.0, 1035.0 19.8, 1035.0 225.0 Z" fill="#E8FFF5" opacity="0.23" filter="url(#blur_dashboard_11_1923)"/>
  <path d="M 1459.1 2663.0 C 1459.1 2886.7, 1462.9 2768.5, 1368.0 2939.9 C 1273.1 3111.2, 1337.1 3030.6, 1191.7 3069.5 C 1046.4 3108.3, 1126.3 3273.0, 998.5 3161.2 C 870.6 3049.4, 921.0 3018.7, 870.5 2808.5 C 820.0 2598.4, 756.8 2727.1, 807.3 2516.9 C 857.8 2306.7, 856.0 2326.6, 983.8 2214.7 C 1111.6 2102.9, 1050.5 2132.9, 1195.9 2171.7 C 1341.2 2210.6, 1286.1 2147.4, 1380.9 2318.7 C 1475.8 2490.0, 1459.1 2439.3, 1459.1 2663.0 Z" fill="#E8FFF5" opacity="0.29" filter="url(#blur_dashboard_11_1923)"/>
  <path d="M 197.1 1807.0 C 197.1 2059.0, 253.2 2019.3, 160.0 2212.3 C 66.9 2405.4, 121.8 2318.1, -20.9 2361.8 C -163.6 2405.6, -101.7 2466.3, -227.2 2340.3 C -352.6 2214.3, -369.3 2230.7, -418.9 1993.9 C -468.4 1757.1, -428.4 1869.3, -378.8 1632.5 C -329.2 1395.7, -347.0 1487.5, -221.5 1361.5 C -96.1 1235.5, -165.7 1185.2, -23.0 1229.0 C 119.7 1272.8, 35.3 1213.1, 128.4 1406.1 C 221.6 1599.1, 197.1 1555.0, 197.1 1807.0 Z" fill="#E8FFF5" opacity="0.27" filter="url(#blur_dashboard_11_1923)"/>
  <path d="M 562.7 459.0 C 562.7 709.6, 515.2 583.6, 413.7 775.6 C 312.2 967.6, 396.4 913.5, 240.9 957.0 C 85.3 1000.6, 136.6 1064.4, -0.2 939.1 C -137.0 813.8, -63.1 876.6, -117.2 641.1 C -171.2 405.5, -226.7 506.4, -172.7 270.8 C -118.7 35.3, -154.4 98.9, -17.6 -26.5 C 119.2 -151.8, 94.5 -157.3, 250.0 -113.8 C 405.6 -70.2, 354.7 -75.7, 456.2 116.3 C 557.7 308.4, 562.7 208.3, 562.7 459.0 Z" fill="#94D6FF" opacity="0.20" filter="url(#blur_dashboard_11_1923)"/>
  <path d="M 934.8 420.0 C 934.8 595.0, 834.6 577.6, 705.3 711.7 C 576.0 845.8, 686.2 840.3, 488.1 870.7 C 290.1 901.1, 373.4 823.9, 199.2 736.4 C 25.0 648.8, 99.4 709.0, 30.6 544.6 C -38.2 380.1, -140.5 446.1, -71.7 281.6 C -2.9 117.1, -1.7 181.0, 172.5 93.5 C 346.7 5.9, 293.2 -16.4, 491.3 14.0 C 689.4 44.4, 625.0 60.4, 754.3 194.5 C 883.6 328.6, 934.8 244.9, 934.8 420.0 Z" fill="#94D6FF" opacity="0.32" filter="url(#blur_dashboard_11_1923)"/>
  <path d="M 228.8 930.0 C 228.8 1140.2, 328.8 1016.6, 222.7 1186.7 C 116.7 1356.7, 181.5 1312.2, 9.9 1377.2 C -161.7 1442.1, -89.1 1461.3, -260.7 1396.4 C -432.3 1331.4, -312.3 1374.9, -418.4 1204.9 C -524.4 1034.9, -579.0 1140.2, -579.0 930.0 C -579.0 719.9, -542.5 815.3, -436.4 645.3 C -330.4 475.3, -409.1 599.9, -237.5 535.0 C -65.9 470.0, -185.0 401.4, -13.3 466.3 C 158.3 531.3, 54.5 470.1, 160.6 640.1 C 266.7 810.1, 228.8 719.9, 228.8 930.0 Z" fill="#5DE0D7" opacity="0.12" stroke="#FFFFFF" stroke-opacity="0.46" stroke-width="3" filter="url(#soft_dashboard_11_1923)"/>
  <path d="M 228.8 930.0 C 228.8 1140.2, 328.8 1016.6, 222.7 1186.7 C 116.7 1356.7, 181.5 1312.2, 9.9 1377.2 C -161.7 1442.1, -89.1 1461.3, -260.7 1396.4 C -432.3 1331.4, -312.3 1374.9, -418.4 1204.9 C -524.4 1034.9, -579.0 1140.2, -579.0 930.0 C -579.0 719.9, -542.5 815.3, -436.4 645.3 C -330.4 475.3, -409.1 599.9, -237.5 535.0 C -65.9 470.0, -185.0 401.4, -13.3 466.3 C 158.3 531.3, 54.5 470.1, 160.6 640.1 C 266.7 810.1, 228.8 719.9, 228.8 930.0 Z" fill="none" stroke="#FFFFFF" stroke-opacity="0.22" stroke-width="1.2"/>
  <path d="M 618.9 21.0 C 618.9 268.1, 592.8 138.3, 513.7 338.2 C 434.6 538.1, 513.4 484.6, 385.4 561.0 C 257.4 637.3, 320.7 602.3, 192.7 526.0 C 64.8 449.6, 161.5 554.3, 82.4 354.4 C 3.3 154.5, -37.5 268.1, -37.5 21.0 C -37.5 -226.0, -14.4 -128.4, 64.6 -328.2 C 143.7 -528.1, 78.9 -495.6, 206.9 -572.0 C 334.8 -648.3, 249.2 -523.0, 377.1 -446.7 C 505.1 -370.3, 490.1 -515.9, 569.2 -316.0 C 648.3 -116.1, 618.9 -226.1, 618.9 21.0 Z" fill="#BDEFFF" opacity="0.12" stroke="#FFFFFF" stroke-opacity="0.46" stroke-width="3" filter="url(#soft_dashboard_11_1923)"/>
  <path d="M 618.9 21.0 C 618.9 268.1, 592.8 138.3, 513.7 338.2 C 434.6 538.1, 513.4 484.6, 385.4 561.0 C 257.4 637.3, 320.7 602.3, 192.7 526.0 C 64.8 449.6, 161.5 554.3, 82.4 354.4 C 3.3 154.5, -37.5 268.1, -37.5 21.0 C -37.5 -226.0, -14.4 -128.4, 64.6 -328.2 C 143.7 -528.1, 78.9 -495.6, 206.9 -572.0 C 334.8 -648.3, 249.2 -523.0, 377.1 -446.7 C 505.1 -370.3, 490.1 -515.9, 569.2 -316.0 C 648.3 -116.1, 618.9 -226.1, 618.9 21.0 Z" fill="none" stroke="#FFFFFF" stroke-opacity="0.22" stroke-width="1.2"/>
  <path d="M 1342.9 227.0 C 1342.9 459.6, 1322.0 374.9, 1162.3 563.1 C 1002.5 751.3, 1161.6 606.6, 903.1 678.5 C 644.6 750.4, 784.2 805.0, 525.7 733.1 C 267.2 661.3, 371.9 700.1, 212.2 511.9 C 52.4 323.6, 196.7 459.7, 196.7 227.0 C 196.7 -5.6, 127.8 75.8, 287.5 -112.4 C 447.3 -300.7, 297.8 -236.9, 556.3 -308.7 C 814.8 -380.6, 678.1 -311.8, 936.6 -239.9 C 1195.1 -168.0, 1117.1 -247.4, 1276.9 -59.2 C 1436.6 129.0, 1342.9 -5.7, 1342.9 227.0 Z" fill="#A4E6F5" opacity="0.12" stroke="#FFFFFF" stroke-opacity="0.46" stroke-width="3" filter="url(#soft_dashboard_11_1923)"/>
  <path d="M 1342.9 227.0 C 1342.9 459.6, 1322.0 374.9, 1162.3 563.1 C 1002.5 751.3, 1161.6 606.6, 903.1 678.5 C 644.6 750.4, 784.2 805.0, 525.7 733.1 C 267.2 661.3, 371.9 700.1, 212.2 511.9 C 52.4 323.6, 196.7 459.7, 196.7 227.0 C 196.7 -5.6, 127.8 75.8, 287.5 -112.4 C 447.3 -300.7, 297.8 -236.9, 556.3 -308.7 C 814.8 -380.6, 678.1 -311.8, 936.6 -239.9 C 1195.1 -168.0, 1117.1 -247.4, 1276.9 -59.2 C 1436.6 129.0, 1342.9 -5.7, 1342.9 227.0 Z" fill="none" stroke="#FFFFFF" stroke-opacity="0.22" stroke-width="1.2"/>
  <path d="M 858.4 668.0 C 858.4 1068.5, 887.1 805.9, 754.3 1129.9 C 621.5 1453.9, 683.1 1349.0, 468.2 1472.8 C 253.4 1596.6, 381.7 1727.4, 166.8 1603.7 C -48.0 1479.9, 51.6 1486.4, -81.2 1162.4 C -214.0 838.4, -151.6 1068.5, -151.6 668.0 C -151.6 267.5, -237.8 471.2, -105.1 147.2 C 27.7 -176.8, -71.7 -96.0, 143.2 -219.7 C 358.0 -343.5, 248.1 -320.4, 462.9 -196.6 C 677.8 -72.8, 595.2 -249.9, 728.0 74.1 C 860.8 398.1, 858.4 267.5, 858.4 668.0 Z" fill="#A4E6F5" opacity="0.12" stroke="#FFFFFF" stroke-opacity="0.46" stroke-width="3" filter="url(#soft_dashboard_11_1923)"/>
  <path d="M 858.4 668.0 C 858.4 1068.5, 887.1 805.9, 754.3 1129.9 C 621.5 1453.9, 683.1 1349.0, 468.2 1472.8 C 253.4 1596.6, 381.7 1727.4, 166.8 1603.7 C -48.0 1479.9, 51.6 1486.4, -81.2 1162.4 C -214.0 838.4, -151.6 1068.5, -151.6 668.0 C -151.6 267.5, -237.8 471.2, -105.1 147.2 C 27.7 -176.8, -71.7 -96.0, 143.2 -219.7 C 358.0 -343.5, 248.1 -320.4, 462.9 -196.6 C 677.8 -72.8, 595.2 -249.9, 728.0 74.1 C 860.8 398.1, 858.4 267.5, 858.4 668.0 Z" fill="none" stroke="#FFFFFF" stroke-opacity="0.22" stroke-width="1.2"/>
  <path d="M 1555.2 782.0 C 1555.2 1183.8, 1612.6 927.7, 1510.2 1252.8 C 1407.9 1577.9, 1493.4 1426.5, 1327.8 1550.6 C 1162.1 1674.8, 1257.3 1685.9, 1091.7 1561.8 C 926.1 1437.6, 1014.3 1619.4, 911.9 1294.3 C 809.6 969.2, 768.5 1183.9, 768.5 782.0 C 768.5 380.2, 764.4 541.0, 866.7 215.9 C 969.1 -109.2, 912.5 168.2, 1078.1 44.0 C 1243.7 -80.1, 1157.9 -74.3, 1323.5 49.9 C 1489.1 174.0, 1434.2 -31.7, 1536.6 293.4 C 1638.9 618.5, 1555.2 380.1, 1555.2 782.0 Z" fill="#F8FFFD" opacity="0.12" stroke="#F8FFFD" stroke-opacity="0.46" stroke-width="3" filter="url(#soft_dashboard_11_1923)"/>
  <path d="M 1555.2 782.0 C 1555.2 1183.8, 1612.6 927.7, 1510.2 1252.8 C 1407.9 1577.9, 1493.4 1426.5, 1327.8 1550.6 C 1162.1 1674.8, 1257.3 1685.9, 1091.7 1561.8 C 926.1 1437.6, 1014.3 1619.4, 911.9 1294.3 C 809.6 969.2, 768.5 1183.9, 768.5 782.0 C 768.5 380.2, 764.4 541.0, 866.7 215.9 C 969.1 -109.2, 912.5 168.2, 1078.1 44.0 C 1243.7 -80.1, 1157.9 -74.3, 1323.5 49.9 C 1489.1 174.0, 1434.2 -31.7, 1536.6 293.4 C 1638.9 618.5, 1555.2 380.1, 1555.2 782.0 Z" fill="none" stroke="#FFFFFF" stroke-opacity="0.22" stroke-width="1.2"/>
  <path d="M 220.1 1099.0 C 220.1 1282.2, 251.1 1185.4, 148.8 1333.6 C 46.4 1481.7, 90.5 1425.8, -75.2 1482.4 C -240.8 1539.0, -117.3 1527.6, -282.9 1471.0 C -448.5 1414.4, -416.4 1470.6, -518.8 1322.5 C -621.1 1174.3, -538.7 1282.2, -538.7 1099.0 C -538.7 915.9, -587.2 992.6, -484.9 844.4 C -382.5 696.3, -479.6 811.1, -314.0 754.5 C -148.3 697.9, -210.0 608.9, -44.3 665.5 C 121.3 722.1, 10.0 727.1, 112.4 875.3 C 214.7 1023.5, 220.1 915.9, 220.1 1099.0 Z" fill="#F8FFFD" opacity="0.12" stroke="#FFFFFF" stroke-opacity="0.46" stroke-width="3" filter="url(#soft_dashboard_11_1923)"/>
  <path d="M 220.1 1099.0 C 220.1 1282.2, 251.1 1185.4, 148.8 1333.6 C 46.4 1481.7, 90.5 1425.8, -75.2 1482.4 C -240.8 1539.0, -117.3 1527.6, -282.9 1471.0 C -448.5 1414.4, -416.4 1470.6, -518.8 1322.5 C -621.1 1174.3, -538.7 1282.2, -538.7 1099.0 C -538.7 915.9, -587.2 992.6, -484.9 844.4 C -382.5 696.3, -479.6 811.1, -314.0 754.5 C -148.3 697.9, -210.0 608.9, -44.3 665.5 C 121.3 722.1, 10.0 727.1, 112.4 875.3 C 214.7 1023.5, 220.1 915.9, 220.1 1099.0 Z" fill="none" stroke="#FFFFFF" stroke-opacity="0.22" stroke-width="1.2"/>
  <path d="M -100.0 2429.6 Q 133.3 2572.4, 366.7 2474.6 Q 600.0 2404.9, 833.3 2342.3 Q 1066.7 2335.5, 1300.0 2458.9" fill="none" stroke="#FFFFFF" stroke-opacity="0.38" stroke-width="4" filter="url(#soft_dashboard_11_1923)"/>
  <path d="M -100.0 2429.6 Q 133.3 2572.4, 366.7 2474.6 Q 600.0 2404.9, 833.3 2342.3 Q 1066.7 2335.5, 1300.0 2458.9" fill="none" stroke="#5DE0D7" stroke-opacity="0.18" stroke-width="2"/>
  <path d="M -100.0 170.8 Q 133.3 29.3, 366.7 147.0 Q 600.0 169.6, 833.3 386.6 Q 1066.7 257.3, 1300.0 81.2" fill="none" stroke="#FFFFFF" stroke-opacity="0.38" stroke-width="4" filter="url(#soft_dashboard_11_1923)"/>
  <path d="M -100.0 170.8 Q 133.3 29.3, 366.7 147.0 Q 600.0 169.6, 833.3 386.6 Q 1066.7 257.3, 1300.0 81.2" fill="none" stroke="#5DE0D7" stroke-opacity="0.18" stroke-width="2"/>
  <path d="M -100.0 785.3 Q 133.3 887.8, 366.7 1056.9 Q 600.0 869.9, 833.3 699.9 Q 1066.7 1009.9, 1300.0 1141.0" fill="none" stroke="#FFFFFF" stroke-opacity="0.38" stroke-width="4" filter="url(#soft_dashboard_11_1923)"/>
  <path d="M -100.0 785.3 Q 133.3 887.8, 366.7 1056.9 Q 600.0 869.9, 833.3 699.9 Q 1066.7 1009.9, 1300.0 1141.0" fill="none" stroke="#94D6FF" stroke-opacity="0.18" stroke-width="2"/>
  <path d="M -100.0 223.1 Q 133.3 -50.9, 366.7 -3.9 Q 600.0 162.4, 833.3 496.3 Q 1066.7 497.4, 1300.0 330.1" fill="none" stroke="#FFFFFF" stroke-opacity="0.38" stroke-width="4" filter="url(#soft_dashboard_11_1923)"/>
  <path d="M -100.0 223.1 Q 133.3 -50.9, 366.7 -3.9 Q 600.0 162.4, 833.3 496.3 Q 1066.7 497.4, 1300.0 330.1" fill="none" stroke="#94D6FF" stroke-opacity="0.18" stroke-width="2"/>
  <path d="M -100.0 196.3 Q 133.3 28.0, 366.7 -223.0 Q 600.0 -74.6, 833.3 231.9 Q 1066.7 238.8, 1300.0 63.9" fill="none" stroke="#FFFFFF" stroke-opacity="0.38" stroke-width="4" filter="url(#soft_dashboard_11_1923)"/>
  <path d="M -100.0 196.3 Q 133.3 28.0, 366.7 -223.0 Q 600.0 -74.6, 833.3 231.9 Q 1066.7 238.8, 1300.0 63.9" fill="none" stroke="#A8F2C0" stroke-opacity="0.18" stroke-width="2"/>
  <path d="M -100.0 1652.3 Q 133.3 1606.9, 366.7 1502.5 Q 600.0 1208.2, 833.3 1207.2 Q 1066.7 1432.3, 1300.0 1673.9" fill="none" stroke="#FFFFFF" stroke-opacity="0.38" stroke-width="4" filter="url(#soft_dashboard_11_1923)"/>
  <path d="M -100.0 1652.3 Q 133.3 1606.9, 366.7 1502.5 Q 600.0 1208.2, 833.3 1207.2 Q 1066.7 1432.3, 1300.0 1673.9" fill="none" stroke="#5DE0D7" stroke-opacity="0.18" stroke-width="2"/>
  <circle cx="734" cy="2546" r="274" fill="url(#orb_dashboard_11_1923)" opacity="0.36"/>
  <circle cx="734" cy="2546" r="274" fill="#BDEFFF" opacity="0.08"/>
  <circle cx="734" cy="2546" r="274" fill="none" stroke="#FFFFFF" stroke-opacity="0.56" stroke-width="3"/>
  <ellipse cx="657.3" cy="2447.4" rx="49.3" ry="21.9" fill="#FFFFFF" opacity="0.42" transform="rotate(-22 657.3 2447.4)"/>
  <circle cx="146" cy="995" r="151" fill="url(#orb_dashboard_11_1923)" opacity="0.36"/>
  <circle cx="146" cy="995" r="151" fill="#E8FFF5" opacity="0.08"/>
  <circle cx="146" cy="995" r="151" fill="none" stroke="#FFFFFF" stroke-opacity="0.56" stroke-width="3"/>
  <ellipse cx="103.7" cy="940.6" rx="27.2" ry="12.1" fill="#FFFFFF" opacity="0.42" transform="rotate(-22 103.7 940.6)"/>
  <circle cx="39" cy="1248" r="219" fill="url(#orb_dashboard_11_1923)" opacity="0.36"/>
  <circle cx="39" cy="1248" r="219" fill="#94D6FF" opacity="0.08"/>
  <circle cx="39" cy="1248" r="219" fill="none" stroke="#FFFFFF" stroke-opacity="0.56" stroke-width="3"/>
  <ellipse cx="-22.3" cy="1169.2" rx="39.4" ry="17.5" fill="#FFFFFF" opacity="0.42" transform="rotate(-22 -22.3 1169.2)"/>
  <circle cx="940" cy="1248" r="217" fill="url(#orb_dashboard_11_1923)" opacity="0.23"/>
  <circle cx="940" cy="1248" r="217" fill="#A8F2C0" opacity="0.08"/>
  <circle cx="940" cy="1248" r="217" fill="none" stroke="#FFFFFF" stroke-opacity="0.56" stroke-width="3"/>
  <ellipse cx="879.2" cy="1169.9" rx="39.1" ry="17.4" fill="#FFFFFF" opacity="0.42" transform="rotate(-22 879.2 1169.9)"/>
  <circle cx="47" cy="1979" r="225" fill="url(#orb_dashboard_11_1923)" opacity="0.25"/>
  <circle cx="47" cy="1979" r="225" fill="#5DE0D7" opacity="0.08"/>
  <circle cx="47" cy="1979" r="225" fill="none" stroke="#FFFFFF" stroke-opacity="0.56" stroke-width="3"/>
  <ellipse cx="-16.0" cy="1898.0" rx="40.5" ry="18.0" fill="#FFFFFF" opacity="0.42" transform="rotate(-22 -16.0 1898.0)"/>
  <circle cx="831" cy="2066" r="246" fill="url(#orb_dashboard_11_1923)" opacity="0.18"/>
  <circle cx="831" cy="2066" r="246" fill="#A8F2C0" opacity="0.08"/>
  <circle cx="831" cy="2066" r="246" fill="none" stroke="#FFFFFF" stroke-opacity="0.56" stroke-width="3"/>
  <ellipse cx="762.1" cy="1977.4" rx="44.3" ry="19.7" fill="#FFFFFF" opacity="0.42" transform="rotate(-22 762.1 1977.4)"/>
  <circle cx="790" cy="1648" r="114" fill="url(#orb_dashboard_11_1923)" opacity="0.16"/>
  <circle cx="790" cy="1648" r="114" fill="#D7F8E8" opacity="0.08"/>
  <circle cx="790" cy="1648" r="114" fill="none" stroke="#FFFFFF" stroke-opacity="0.56" stroke-width="3"/>
  <ellipse cx="758.1" cy="1607.0" rx="20.5" ry="9.1" fill="#FFFFFF" opacity="0.42" transform="rotate(-22 758.1 1607.0)"/>
  <circle cx="684" cy="2208" r="199" fill="url(#orb_dashboard_11_1923)" opacity="0.21"/>
  <circle cx="684" cy="2208" r="199" fill="#A8F2C0" opacity="0.08"/>
  <circle cx="684" cy="2208" r="199" fill="none" stroke="#FFFFFF" stroke-opacity="0.56" stroke-width="3"/>
  <ellipse cx="628.3" cy="2136.4" rx="35.8" ry="15.9" fill="#FFFFFF" opacity="0.42" transform="rotate(-22 628.3 2136.4)"/>
  <circle cx="731" cy="1654" r="246" fill="url(#orb_dashboard_11_1923)" opacity="0.27"/>
  <circle cx="731" cy="1654" r="246" fill="#BDEFFF" opacity="0.08"/>
  <circle cx="731" cy="1654" r="246" fill="none" stroke="#FFFFFF" stroke-opacity="0.56" stroke-width="3"/>
  <ellipse cx="662.1" cy="1565.4" rx="44.3" ry="19.7" fill="#FFFFFF" opacity="0.42" transform="rotate(-22 662.1 1565.4)"/>
  <circle cx="-28" cy="-80" r="154" fill="url(#orb_dashboard_11_1923)" opacity="0.18"/>
  <circle cx="-28" cy="-80" r="154" fill="#D7F8E8" opacity="0.08"/>
  <circle cx="-28" cy="-80" r="154" fill="none" stroke="#FFFFFF" stroke-opacity="0.56" stroke-width="3"/>
  <ellipse cx="-71.1" cy="-135.4" rx="27.7" ry="12.3" fill="#FFFFFF" opacity="0.42" transform="rotate(-22 -71.1 -135.4)"/>
  <circle cx="405" cy="2065" r="3" fill="#FFFFFF" opacity="0.53"/>
  <circle cx="160" cy="1727" r="3" fill="#FFFFFF" opacity="0.51"/>
  <circle cx="838" cy="2020" r="7" fill="#FFFFFF" opacity="0.59"/>
  <circle cx="746" cy="1927" r="4" fill="#FFFFFF" opacity="0.31"/>
  <circle cx="752" cy="1481" r="5" fill="#FFFFFF" opacity="0.37"/>
  <circle cx="381" cy="501" r="2" fill="#FFFFFF" opacity="0.33"/>
  <circle cx="854" cy="777" r="3" fill="#FFFFFF" opacity="0.35"/>
  <circle cx="467" cy="1707" r="4" fill="#FFFFFF" opacity="0.35"/>
  <circle cx="893" cy="2485" r="7" fill="#FFFFFF" opacity="0.28"/>
  <circle cx="1133" cy="2595" r="3" fill="#FFFFFF" opacity="0.60"/>
  <circle cx="937" cy="665" r="7" fill="#FFFFFF" opacity="0.29"/>
  <circle cx="630" cy="1958" r="5" fill="#FFFFFF" opacity="0.65"/>
  <circle cx="356" cy="348" r="2" fill="#FFFFFF" opacity="0.37"/>
  <circle cx="1039" cy="1741" r="4" fill="#FFFFFF" opacity="0.34"/>
  <circle cx="745" cy="223" r="7" fill="#FFFFFF" opacity="0.46"/>
  <circle cx="832" cy="1245" r="3" fill="#FFFFFF" opacity="0.61"/>
  <circle cx="1134" cy="123" r="4" fill="#FFFFFF" opacity="0.63"/>
  <circle cx="829" cy="2276" r="3" fill="#FFFFFF" opacity="0.41"/>
  <circle cx="319" cy="930" r="2" fill="#FFFFFF" opacity="0.56"/>
  <circle cx="212" cy="874" r="4" fill="#FFFFFF" opacity="0.37"/>
  <rect width="1200" height="2600" fill="#FFFFFF" opacity="0.08"/>
  <rect width="1200" height="2600" filter="url(#grain_dashboard_11_1923)" opacity="0.7"/>
</svg>
