<svg xmlns="http://www.w3.org/2000/svg" width="1200" height="2600" viewBox="0 0 1200 2600" preserveAspectRatio="xMidYMid slice">
  <defs>
    <linearGradient id="bg_ambient_07_5854" x1="0" y1="0" x2="1" y2="1">
      <stop offset="0%" stop-color="#FFECEF"/>
      <stop offset="48%" stop-color="#DFF8FF"/>
      <stop offset="100%" stop-color="#EEE5FF"/>
    </linearGradient>
    <radialGradient id="orb_ambient_07_5854" cx="35%" cy="30%" r="70%">
      <stop offset="0%" stop-color="#FFFFFF" stop-opacity="0.85"/>
      <stop offset="42%" stop-color="#FFFFFF" stop-opacity="0.20"/>
      <stop offset="100%" stop-color="#FFFFFF" stop-opacity="0.02"/>
    </radialGradient>
    <filter id="blur_ambient_07_5854" x="-30%" y="-30%" width="160%" height="160%">
      <feGaussianBlur stdDeviation="72"/>
    </filter>
    <filter id="soft_ambient_07_5854" x="-20%" y="-20%" width="140%" height="140%">
      <feGaussianBlur stdDeviation="10"/>
    </filter>
    <filter id="grain_ambient_07_5854">
      <feTurbulence type="fractalNoise" baseFrequency="0.85" numOctaves="2" stitchTiles="stitch"/>
      <feColorMatrix type="saturate" values="0"/>
      <feComponentTransfer>
        <feFuncA type="table" tableValues="0 0.035"/>
      </feComponentTransfer>
    </filter>
  </defs>
  <rect width="1200" height="2600" fill="url(#bg_ambient_07_5854)"/>
  <path d="M 790.3 2005.0 C 790.3 2157.6, 864.2 2126.5, 728.0 2243.4 C 591.7 2360.2, 688.2 2304.3, 479.4 2330.8 C 270.7 2357.3, 374.2 2356.6, 190.7 2280.3 C 7.1 2204.1, 68.6 2246.9, -3.9 2103.6 C -76.4 1960.2, -169.9 2018.6, -97.4 1875.3 C -24.9 1731.9, -21.6 1829.8, 161.9 1753.5 C 345.5 1677.2, 282.8 1655.7, 491.6 1682.2 C 700.3 1708.7, 614.0 1685.9, 750.3 1802.7 C 886.5 1919.6, 790.3 1852.5, 790.3 2005.0 Z" fill="#FFECEF" opacity="0.17" filter="url(#blur_ambient_07_5854)"/>
  <path d="M 971.4 240.0 C 971.4 513.6, 954.1 392.8, 834.4 602.4 C 714.6 812.0, 811.0 805.1, 627.6 852.6 C 444.1 900.1, 499.4 849.9, 338.0 713.1 C 176.7 576.3, 270.4 714.2, 206.7 457.1 C 143.0 200.0, 140.3 312.5, 204.0 55.4 C 267.7 -201.7, 157.9 -209.4, 319.2 -346.2 C 480.6 -483.0, 438.3 -399.3, 621.8 -351.7 C 805.2 -304.2, 806.6 -349.0, 926.3 -139.4 C 1046.1 70.2, 971.4 -33.6, 971.4 240.0 Z" fill="#EEE5FF" opacity="0.22" filter="url(#blur_ambient_07_5854)"/>
  <path d="M 393.8 2740.0 C 393.8 2861.5, 373.2 2828.5, 279.8 2921.6 C 186.4 3014.7, 254.4 2940.9, 111.3 2962.0 C -31.9 2983.0, 34.9 3066.1, -91.0 3005.3 C -216.8 2944.6, -162.0 2931.3, -211.7 2817.1 C -261.5 2703.0, -300.9 2761.6, -251.2 2647.4 C -201.5 2533.2, -209.0 2601.8, -83.1 2541.0 C 42.8 2480.3, -35.8 2427.8, 107.3 2448.9 C 250.5 2470.0, 178.1 2492.2, 271.5 2585.3 C 364.9 2678.4, 393.8 2618.5, 393.8 2740.0 Z" fill="#FDFFFF" opacity="0.28" filter="url(#blur_ambient_07_5854)"/>
  <path d="M 129.8 160.0 C 129.8 410.2, 205.2 376.9, 126.9 568.6 C 48.5 760.2, 50.9 733.1, -69.2 776.5 C -189.3 820.0, -154.7 757.0, -260.3 631.9 C -365.9 506.8, -354.9 571.3, -396.6 336.2 C -438.3 101.1, -397.1 187.0, -355.4 -48.1 C -313.7 -283.2, -333.4 -227.1, -227.8 -352.2 C -122.1 -477.3, -177.6 -444.6, -57.5 -401.2 C 62.6 -357.7, 36.1 -435.7, 114.5 -244.0 C 192.9 -52.4, 129.8 -90.2, 129.8 160.0 Z" fill="#D6C2FF" opacity="0.30" filter="url(#blur_ambient_07_5854)"/>
  <path d="M 1249.0 1592.0 C 1249.0 1799.5, 1222.7 1747.1, 1092.5 1906.0 C 962.3 2065.0, 1018.1 2078.1, 818.7 2114.1 C 619.3 2150.1, 694.1 2156.9, 518.7 2053.2 C 343.4 1949.4, 428.5 1961.1, 359.2 1766.2 C 290.0 1571.3, 192.0 1652.2, 261.2 1457.3 C 330.5 1262.3, 307.8 1307.4, 483.2 1203.7 C 658.5 1100.0, 630.8 1134.5, 830.2 1170.5 C 1029.6 1206.6, 995.4 1100.3, 1125.5 1259.2 C 1255.7 1418.1, 1249.0 1384.5, 1249.0 1592.0 Z" fill="#DFFCED" opacity="0.33" filter="url(#blur_ambient_07_5854)"/>
  <path d="M 1085.3 1761.0 C 1085.3 1976.5, 1052.9 1891.7, 931.4 2056.9 C 809.9 2222.0, 853.8 2233.5, 667.7 2270.9 C 481.6 2308.3, 537.6 2226.0, 373.9 2118.2 C 210.2 2010.4, 224.7 2104.2, 160.1 1901.7 C 95.5 1699.1, 123.4 1809.1, 188.0 1606.6 C 252.7 1404.0, 217.2 1458.6, 380.9 1350.8 C 544.6 1243.0, 478.5 1177.9, 664.6 1215.3 C 850.8 1252.7, 745.0 1261.1, 866.5 1426.2 C 987.9 1591.3, 1085.3 1545.5, 1085.3 1761.0 Z" fill="#DDEEFF" opacity="0.17" filter="url(#blur_ambient_07_5854)"/>
  <path d="M 454.6 2017.0 C 454.6 2231.2, 487.5 2165.1, 399.8 2329.2 C 312.2 2493.3, 356.9 2460.3, 222.6 2497.5 C 88.4 2534.7, 130.0 2531.2, 11.9 2424.1 C -106.2 2317.0, -95.3 2399.5, -141.9 2198.2 C -188.6 1996.9, -110.1 2041.0, -63.5 1839.7 C -16.9 1638.4, -106.8 1655.6, 11.3 1548.5 C 129.3 1441.4, 90.5 1443.8, 224.8 1481.0 C 359.1 1518.2, 339.3 1595.5, 426.9 1759.6 C 514.6 1923.7, 454.6 1802.8, 454.6 2017.0 Z" fill="#EEE5FF" opacity="0.19" filter="url(#blur_ambient_07_5854)"/>
  <path d="M 241.7 1660.0 C 241.7 1876.9, 253.5 1782.3, 170.5 1948.4 C 87.4 2114.6, 83.1 2027.9, -44.1 2065.6 C -171.3 2103.3, -93.9 2196.9, -205.7 2088.4 C -317.6 1980.0, -296.6 2015.8, -340.7 1812.0 C -384.9 1608.2, -414.5 1697.6, -370.3 1493.8 C -326.1 1290.0, -362.7 1403.4, -250.9 1295.0 C -139.0 1186.5, -167.5 1078.3, -40.3 1116.0 C 86.9 1153.6, 87.1 1136.4, 170.1 1302.5 C 253.2 1468.7, 241.7 1443.1, 241.7 1660.0 Z" fill="#EEE5FF" opacity="0.36" filter="url(#blur_ambient_07_5854)"/>
  <path d="M 460.6 731.0 C 460.6 865.1, 437.8 839.3, 300.7 942.0 C 163.6 1044.7, 269.9 966.0, 59.9 989.3 C -150.2 1012.5, -73.4 1090.2, -258.1 1023.1 C -442.9 956.1, -427.4 955.5, -500.4 829.5 C -573.3 703.5, -589.6 769.4, -516.7 643.4 C -443.7 517.4, -493.0 524.0, -308.3 457.0 C -123.6 389.9, -158.9 427.5, 51.1 450.8 C 261.2 474.1, 232.0 458.4, 369.1 561.2 C 506.2 663.9, 460.6 596.9, 460.6 731.0 Z" fill="#FDFFFF" opacity="0.34" filter="url(#blur_ambient_07_5854)"/>
  <path d="M 656.9 1403.0 C 656.9 1613.2, 674.7 1489.9, 562.2 1650.9 C 449.7 1811.9, 484.8 1857.0, 312.4 1893.5 C 140.0 1930.0, 162.6 1956.0, 11.0 1850.9 C -140.6 1745.8, -73.2 1765.6, -133.0 1568.2 C -192.9 1370.7, -149.3 1420.6, -89.5 1223.2 C -29.6 1025.7, -98.1 1102.3, 53.5 997.3 C 205.1 892.2, 136.0 918.1, 308.4 954.6 C 480.8 991.1, 427.7 975.6, 540.3 1136.6 C 652.8 1297.5, 656.9 1192.8, 656.9 1403.0 Z" fill="#A9EAF6" opacity="0.32" filter="url(#blur_ambient_07_5854)"/>
  <path d="M 723.8 471.0 C 723.8 603.8, 666.5 557.8, 516.4 659.5 C 366.3 761.2, 477.5 783.3, 247.5 806.3 C 17.5 829.4, 149.6 830.1, -52.6 763.7 C -254.9 697.4, -211.7 699.5, -291.6 574.8 C -371.4 450.0, -476.1 507.6, -396.2 382.9 C -316.3 258.1, -261.0 287.7, -58.8 221.3 C 143.5 155.0, 11.3 156.0, 241.3 179.1 C 471.3 202.1, 371.8 185.7, 521.9 287.4 C 672.0 389.1, 723.8 338.2, 723.8 471.0 Z" fill="#FFECEF" opacity="0.37" filter="url(#blur_ambient_07_5854)"/>
  <path d="M 1505.9 1135.0 C 1505.9 1422.1, 1479.7 1269.5, 1407.9 1489.4 C 1336.2 1709.3, 1372.9 1674.6, 1263.0 1724.4 C 1153.1 1774.3, 1176.3 1877.2, 1079.7 1733.6 C 983.0 1590.1, 1030.4 1603.2, 992.3 1333.5 C 954.1 1063.7, 930.2 1216.0, 968.4 946.2 C 1006.5 676.4, 1007.7 776.1, 1104.3 632.5 C 1201.0 489.0, 1149.2 410.5, 1259.1 460.3 C 1369.0 510.2, 1365.0 568.1, 1436.8 788.0 C 1508.5 1007.9, 1505.9 847.9, 1505.9 1135.0 Z" fill="#D6C2FF" opacity="0.18" filter="url(#blur_ambient_07_5854)"/>
  <path d="M 1650.9 500.0 C 1650.9 648.0, 1690.3 590.6, 1593.4 704.0 C 1496.5 817.4, 1580.6 846.4, 1432.1 872.1 C 1283.7 897.8, 1333.0 875.7, 1202.5 801.6 C 1071.9 727.6, 1113.5 759.5, 1061.9 620.4 C 1010.4 481.2, 963.8 515.0, 1015.4 375.9 C 1067.0 236.8, 1068.1 252.9, 1198.7 178.8 C 1329.2 104.8, 1288.2 199.5, 1436.7 225.2 C 1585.2 250.9, 1502.7 205.3, 1599.6 318.7 C 1696.5 432.1, 1650.9 351.9, 1650.9 500.0 Z" fill="#EEE5FF" opacity="0.32" filter="url(#blur_ambient_07_5854)"/>
  <path d="M 1074.4 1221.0 C 1074.4 1525.2, 1209.2 1380.2, 1056.6 1626.3 C 904.0 1872.4, 934.1 1747.3, 687.1 1841.3 C 440.2 1935.3, 609.4 1896.4, 362.5 1802.4 C 115.5 1708.4, 262.8 1862.3, 110.2 1616.2 C -42.4 1370.1, -108.7 1525.2, -108.7 1221.0 C -108.7 916.8, -145.1 1099.2, 7.5 853.1 C 160.1 607.0, 112.4 755.3, 359.3 661.2 C 606.2 567.2, 456.0 510.7, 702.9 604.7 C 949.8 698.7, 835.1 546.9, 987.7 793.0 C 1140.3 1039.1, 1074.4 916.8, 1074.4 1221.0 Z" fill="#D6C2FF" opacity="0.12" stroke="#D6C2FF" stroke-opacity="0.46" stroke-width="3" filter="url(#soft_ambient_07_5854)"/>
  <path d="M 1074.4 1221.0 C 1074.4 1525.2, 1209.2 1380.2, 1056.6 1626.3 C 904.0 1872.4, 934.1 1747.3, 687.1 1841.3 C 440.2 1935.3, 609.4 1896.4, 362.5 1802.4 C 115.5 1708.4, 262.8 1862.3, 110.2 1616.2 C -42.4 1370.1, -108.7 1525.2, -108.7 1221.0 C -108.7 916.8, -145.1 1099.2, 7.5 853.1 C 160.1 607.0, 112.4 755.3, 359.3 661.2 C 606.2 567.2, 456.0 510.7, 702.9 604.7 C 949.8 698.7, 835.1 546.9, 987.7 793.0 C 1140.3 1039.1, 1074.4 916.8, 1074.4 1221.0 Z" fill="none" stroke="#FFFFFF" stroke-opacity="0.22" stroke-width="1.2"/>
  <path d="M 2046.2 773.0 C 2046.2 1069.1, 1973.8 884.1, 1810.1 1123.7 C 1646.4 1363.2, 1814.6 1345.5, 1549.7 1437.0 C 1284.8 1528.5, 1460.0 1562.2, 1195.1 1470.7 C 930.2 1379.2, 979.7 1441.6, 815.9 1202.0 C 652.2 962.5, 702.0 1069.1, 702.0 773.0 C 702.0 476.9, 653.6 578.1, 817.4 338.6 C 981.1 99.0, 907.4 160.2, 1172.3 68.7 C 1437.2 -22.8, 1287.2 -15.9, 1552.1 75.6 C 1817.1 167.1, 1739.9 172.5, 1903.6 412.1 C 2067.3 651.6, 2046.2 476.9, 2046.2 773.0 Z" fill="#FFC7DA" opacity="0.12" stroke="#FFC7DA" stroke-opacity="0.46" stroke-width="3" filter="url(#soft_ambient_07_5854)"/>
  <path d="M 2046.2 773.0 C 2046.2 1069.1, 1973.8 884.1, 1810.1 1123.7 C 1646.4 1363.2, 1814.6 1345.5, 1549.7 1437.0 C 1284.8 1528.5, 1460.0 1562.2, 1195.1 1470.7 C 930.2 1379.2, 979.7 1441.6, 815.9 1202.0 C 652.2 962.5, 702.0 1069.1, 702.0 773.0 C 702.0 476.9, 653.6 578.1, 817.4 338.6 C 981.1 99.0, 907.4 160.2, 1172.3 68.7 C 1437.2 -22.8, 1287.2 -15.9, 1552.1 75.6 C 1817.1 167.1, 1739.9 172.5, 1903.6 412.1 C 2067.3 651.6, 2046.2 476.9, 2046.2 773.0 Z" fill="none" stroke="#FFFFFF" stroke-opacity="0.22" stroke-width="1.2"/>
  <path d="M 1982.4 1691.0 C 1982.4 1876.4, 2045.7 1761.2, 1882.0 1911.2 C 1718.3 2061.2, 1874.5 2039.1, 1609.6 2096.4 C 1344.6 2153.7, 1507.0 2177.6, 1242.1 2120.3 C 977.1 2063.0, 1050.9 2078.3, 887.2 1928.3 C 723.5 1778.4, 891.1 1876.4, 891.1 1691.0 C 891.1 1505.6, 732.9 1627.1, 896.7 1477.1 C 1060.4 1327.1, 950.9 1348.9, 1215.8 1291.6 C 1480.7 1234.3, 1352.4 1252.8, 1617.3 1310.1 C 1882.2 1367.4, 1814.7 1309.9, 1978.5 1459.9 C 2142.2 1609.9, 1982.4 1505.6, 1982.4 1691.0 Z" fill="#FDFFFF" opacity="0.12" stroke="#FFFFFF" stroke-opacity="0.46" stroke-width="3" filter="url(#soft_ambient_07_5854)"/>
  <path d="M 1982.4 1691.0 C 1982.4 1876.4, 2045.7 1761.2, 1882.0 1911.2 C 1718.3 2061.2, 1874.5 2039.1, 1609.6 2096.4 C 1344.6 2153.7, 1507.0 2177.6, 1242.1 2120.3 C 977.1 2063.0, 1050.9 2078.3, 887.2 1928.3 C 723.5 1778.4, 891.1 1876.4, 891.1 1691.0 C 891.1 1505.6, 732.9 1627.1, 896.7 1477.1 C 1060.4 1327.1, 950.9 1348.9, 1215.8 1291.6 C 1480.7 1234.3, 1352.4 1252.8, 1617.3 1310.1 C 1882.2 1367.4, 1814.7 1309.9, 1978.5 1459.9 C 2142.2 1609.9, 1982.4 1505.6, 1982.4 1691.0 Z" fill="none" stroke="#FFFFFF" stroke-opacity="0.22" stroke-width="1.2"/>
  <path d="M 555.3 596.0 C 555.3 932.2, 613.1 741.4, 454.2 1013.4 C 295.2 1285.3, 352.7 1284.5, 95.5 1388.4 C -161.7 1492.3, 23.8 1331.0, -233.4 1227.2 C -490.6 1123.3, -367.5 1273.4, -526.4 1001.4 C -685.4 729.5, -722.4 932.2, -722.4 596.0 C -722.4 259.9, -725.1 484.9, -566.2 213.0 C -407.2 -59.0, -484.3 83.7, -227.1 -20.2 C 30.1 -124.1, -130.7 -190.9, 126.5 -87.0 C 383.8 16.9, 252.4 -160.7, 411.4 111.2 C 570.3 383.2, 555.3 259.8, 555.3 596.0 Z" fill="#DDEEFF" opacity="0.12" stroke="#FFFFFF" stroke-opacity="0.46" stroke-width="3" filter="url(#soft_ambient_07_5854)"/>
  <path d="M 555.3 596.0 C 555.3 932.2, 613.1 741.4, 454.2 1013.4 C 295.2 1285.3, 352.7 1284.5, 95.5 1388.4 C -161.7 1492.3, 23.8 1331.0, -233.4 1227.2 C -490.6 1123.3, -367.5 1273.4, -526.4 1001.4 C -685.4 729.5, -722.4 932.2, -722.4 596.0 C -722.4 259.9, -725.1 484.9, -566.2 213.0 C -407.2 -59.0, -484.3 83.7, -227.1 -20.2 C 30.1 -124.1, -130.7 -190.9, 126.5 -87.0 C 383.8 16.9, 252.4 -160.7, 411.4 111.2 C 570.3 383.2, 555.3 259.8, 555.3 596.0 Z" fill="none" stroke="#FFFFFF" stroke-opacity="0.22" stroke-width="1.2"/>
  <path d="M 427.7 1553.0 C 427.7 1947.2, 450.3 1688.6, 309.5 2007.5 C 168.8 2326.4, 231.6 2152.0, 3.9 2273.8 C -223.8 2395.6, -97.8 2471.6, -325.5 2349.8 C -553.2 2228.0, -513.7 2404.1, -654.4 2085.2 C -795.1 1766.2, -638.9 1947.2, -638.9 1553.0 C -638.9 1158.8, -729.1 1386.6, -588.4 1067.7 C -447.7 748.8, -557.7 827.5, -330.0 705.7 C -102.3 583.9, -220.3 667.9, 7.4 789.7 C 235.1 911.5, 122.8 733.0, 263.5 1051.9 C 404.2 1370.8, 427.7 1158.8, 427.7 1553.0 Z" fill="#DFF8FF" opacity="0.12" stroke="#DFF8FF" stroke-opacity="0.46" stroke-width="3" filter="url(#soft_ambient_07_5854)"/>
  <path d="M 427.7 1553.0 C 427.7 1947.2, 450.3 1688.6, 309.5 2007.5 C 168.8 2326.4, 231.6 2152.0, 3.9 2273.8 C -223.8 2395.6, -97.8 2471.6, -325.5 2349.8 C -553.2 2228.0, -513.7 2404.1, -654.4 2085.2 C -795.1 1766.2, -638.9 1947.2, -638.9 1553.0 C -638.9 1158.8, -729.1 1386.6, -588.4 1067.7 C -447.7 748.8, -557.7 827.5, -330.0 705.7 C -102.3 583.9, -220.3 667.9, 7.4 789.7 C 235.1 911.5, 122.8 733.0, 263.5 1051.9 C 404.2 1370.8, 427.7 1158.8, 427.7 1553.0 Z" fill="none" stroke="#FFFFFF" stroke-opacity="0.22" stroke-width="1.2"/>
  <path d="M 1458.8 535.0 C 1458.8 706.5, 1521.4 642.4, 1415.1 781.1 C 1308.8 919.9, 1333.1 796.2, 1161.1 849.2 C 989.0 902.2, 1099.4 978.5, 927.3 925.5 C 755.3 872.6, 790.7 867.2, 684.4 728.4 C 578.1 589.7, 704.9 706.5, 704.9 535.0 C 704.9 363.5, 643.7 434.2, 750.0 295.5 C 856.4 156.8, 756.5 259.6, 928.6 206.6 C 1100.6 153.6, 994.2 133.2, 1166.3 186.1 C 1338.3 239.1, 1266.7 161.7, 1373.1 300.4 C 1479.4 439.1, 1458.8 363.5, 1458.8 535.0 Z" fill="#B6F5D1" opacity="0.12" stroke="#FFFFFF" stroke-opacity="0.46" stroke-width="3" filter="url(#soft_ambient_07_5854)"/>
  <path d="M 1458.8 535.0 C 1458.8 706.5, 1521.4 642.4, 1415.1 781.1 C 1308.8 919.9, 1333.1 796.2, 1161.1 849.2 C 989.0 902.2, 1099.4 978.5, 927.3 925.5 C 755.3 872.6, 790.7 867.2, 684.4 728.4 C 578.1 589.7, 704.9 706.5, 704.9 535.0 C 704.9 363.5, 643.7 434.2, 750.0 295.5 C 856.4 156.8, 756.5 259.6, 928.6 206.6 C 1100.6 153.6, 994.2 133.2, 1166.3 186.1 C 1338.3 239.1, 1266.7 161.7, 1373.1 300.4 C 1479.4 439.1, 1458.8 363.5, 1458.8 535.0 Z" fill="none" stroke="#FFFFFF" stroke-opacity="0.22" stroke-width="1.2"/>
  <path d="M -100.0 1036.5 Q 133.3 1149.5, 366.7 895.8 Q 600.0 798.6, 833.3 1058.1 Q 1066.7 1219.7, 1300.0 1105.7" fill="none" stroke="#FFFFFF" stroke-opacity="0.38" stroke-width="4" filter="url(#soft_ambient_07_5854)"/>
  <path d="M -100.0 1036.5 Q 133.3 1149.5, 366.7 895.8 Q 600.0 798.6, 833.3 1058.1 Q 1066.7 1219.7, 1300.0 1105.7" fill="none" stroke="#A9EAF6" stroke-opacity="0.18" stroke-width="2"/>
  <path d="M -100.0 1019.4 Q 133.3 1389.7, 366.7 1317.2 Q 600.0 955.5, 833.3 944.2 Q 1066.7 1118.9, 1300.0 1244.1" fill="none" stroke="#FFFFFF" stroke-opacity="0.38" stroke-width="4" filter="url(#soft_ambient_07_5854)"/>
  <path d="M -100.0 1019.4 Q 133.3 1389.7, 366.7 1317.2 Q 600.0 955.5, 833.3 944.2 Q 1066.7 1118.9, 1300.0 1244.1" fill="none" stroke="#FFC7DA" stroke-opacity="0.18" stroke-width="2"/>
  <path d="M -100.0 2631.2 Q 133.3 2751.9, 366.7 2605.7 Q 600.0 2159.7, 833.3 2011.1 Q 1066.7 2256.6, 1300.0 2465.2" fill="none" stroke="#FFFFFF" stroke-opacity="0.38" stroke-width="4" filter="url(#soft_ambient_07_5854)"/>
  <path d="M -100.0 2631.2 Q 133.3 2751.9, 366.7 2605.7 Q 600.0 2159.7, 833.3 2011.1 Q 1066.7 2256.6, 1300.0 2465.2" fill="none" stroke="#D6C2FF" stroke-opacity="0.18" stroke-width="2"/>
  <path d="M -100.0 1901.9 Q 133.3 2091.3, 366.7 2415.4 Q 600.0 2047.3, 833.3 1858.9 Q 1066.7 2293.2, 1300.0 2419.3" fill="none" stroke="#FFFFFF" stroke-opacity="0.38" stroke-width="4" filter="url(#soft_ambient_07_5854)"/>
  <path d="M -100.0 1901.9 Q 133.3 2091.3, 366.7 2415.4 Q 600.0 2047.3, 833.3 1858.9 Q 1066.7 2293.2, 1300.0 2419.3" fill="none" stroke="#D6C2FF" stroke-opacity="0.18" stroke-width="2"/>
  <path d="M -100.0 2679.0 Q 133.3 2458.3, 366.7 2573.1 Q 600.0 2800.4, 833.3 2662.8 Q 1066.7 2618.8, 1300.0 2539.6" fill="none" stroke="#FFFFFF" stroke-opacity="0.38" stroke-width="4" filter="url(#soft_ambient_07_5854)"/>
  <path d="M -100.0 2679.0 Q 133.3 2458.3, 366.7 2573.1 Q 600.0 2800.4, 833.3 2662.8 Q 1066.7 2618.8, 1300.0 2539.6" fill="none" stroke="#D6C2FF" stroke-opacity="0.18" stroke-width="2"/>
  <circle cx="1207" cy="1133" r="150" fill="url(#orb_ambient_07_5854)" opacity="0.36"/>
  <circle cx="1207" cy="1133" r="150" fill="#FDFFFF" opacity="0.08"/>
  <circle cx="1207" cy="1133" r="150" fill="none" stroke="#FFFFFF" stroke-opacity="0.56" stroke-width="3"/>
  <ellipse cx="1165.0" cy="1079.0" rx="27.0" ry="12.0" fill="#FFFFFF" opacity="0.42" transform="rotate(-22 1165.0 1079.0)"/>
  <circle cx="169" cy="805" r="264" fill="url(#orb_ambient_07_5854)" opacity="0.36"/>
  <circle cx="169" cy="805" r="264" fill="#DFF8FF" opacity="0.08"/>
  <circle cx="169" cy="805" r="264" fill="none" stroke="#FFFFFF" stroke-opacity="0.56" stroke-width="3"/>
  <ellipse cx="95.1" cy="710.0" rx="47.5" ry="21.1" fill="#FFFFFF" opacity="0.42" transform="rotate(-22 95.1 710.0)"/>
  <circle cx="57" cy="653" r="260" fill="url(#orb_ambient_07_5854)" opacity="0.36"/>
  <circle cx="57" cy="653" r="260" fill="#FFC7DA" opacity="0.08"/>
  <circle cx="57" cy="653" r="260" fill="none" stroke="#FFFFFF" stroke-opacity="0.56" stroke-width="3"/>
  <ellipse cx="-15.8" cy="559.4" rx="46.8" ry="20.8" fill="#FFFFFF" opacity="0.42" transform="rotate(-22 -15.8 559.4)"/>
  <circle cx="951" cy="2423" r="283" fill="url(#orb_ambient_07_5854)" opacity="0.20"/>
  <circle cx="951" cy="2423" r="283" fill="#FDFFFF" opacity="0.08"/>
  <circle cx="951" cy="2423" r="283" fill="none" stroke="#FFFFFF" stroke-opacity="0.56" stroke-width="3"/>
  <ellipse cx="871.8" cy="2321.1" rx="50.9" ry="22.6" fill="#FFFFFF" opacity="0.42" transform="rotate(-22 871.8 2321.1)"/>
  <circle cx="527" cy="1766" r="174" fill="url(#orb_ambient_07_5854)" opacity="0.22"/>
  <circle cx="527" cy="1766" r="174" fill="#DFFCED" opacity="0.08"/>
  <circle cx="527" cy="1766" r="174" fill="none" stroke="#FFFFFF" stroke-opacity="0.56" stroke-width="3"/>
  <ellipse cx="478.3" cy="1703.4" rx="31.3" ry="13.9" fill="#FFFFFF" opacity="0.42" transform="rotate(-22 478.3 1703.4)"/>
  <circle cx="116" cy="188" r="199" fill="url(#orb_ambient_07_5854)" opacity="0.26"/>
  <circle cx="116" cy="188" r="199" fill="#EEE5FF" opacity="0.08"/>
  <circle cx="116" cy="188" r="199" fill="none" stroke="#FFFFFF" stroke-opacity="0.56" stroke-width="3"/>
  <ellipse cx="60.3" cy="116.4" rx="35.8" ry="15.9" fill="#FFFFFF" opacity="0.42" transform="rotate(-22 60.3 116.4)"/>
  <circle cx="542" cy="123" r="150" fill="url(#orb_ambient_07_5854)" opacity="0.24"/>
  <circle cx="542" cy="123" r="150" fill="#D6C2FF" opacity="0.08"/>
  <circle cx="542" cy="123" r="150" fill="none" stroke="#FFFFFF" stroke-opacity="0.56" stroke-width="3"/>
  <ellipse cx="500.0" cy="69.0" rx="27.0" ry="12.0" fill="#FFFFFF" opacity="0.42" transform="rotate(-22 500.0 69.0)"/>
  <circle cx="1034" cy="986" r="102" fill="url(#orb_ambient_07_5854)" opacity="0.18"/>
  <circle cx="1034" cy="986" r="102" fill="#FDFFFF" opacity="0.08"/>
  <circle cx="1034" cy="986" r="102" fill="none" stroke="#FFFFFF" stroke-opacity="0.56" stroke-width="3"/>
  <ellipse cx="1005.4" cy="949.3" rx="18.4" ry="8.2" fill="#FFFFFF" opacity="0.42" transform="rotate(-22 1005.4 949.3)"/>
  <circle cx="148" cy="1792" r="3" fill="#FFFFFF" opacity="0.32"/>
  <circle cx="340" cy="1821" r="4" fill="#FFFFFF" opacity="0.38"/>
  <circle cx="5" cy="2431" r="4" fill="#FFFFFF" opacity="0.38"/>
  <circle cx="1055" cy="1800" r="5" fill="#FFFFFF" opacity="0.70"/>
  <circle cx="646" cy="43" r="3" fill="#FFFFFF" opacity="0.38"/>
  <circle cx="1134" cy="1790" r="3" fill="#FFFFFF" opacity="0.62"/>
  <circle cx="1050" cy="909" r="2" fill="#FFFFFF" opacity="0.70"/>
  <circle cx="591" cy="406" r="2" fill="#FFFFFF" opacity="0.52"/>
  <circle cx="595" cy="2172" r="3" fill="#FFFFFF" opacity="0.30"/>
  <circle cx="129" cy="1466" r="4" fill="#FFFFFF" opacity="0.45"/>
  <circle cx="133" cy="2064" r="7" fill="#FFFFFF" opacity="0.44"/>
  <circle cx="461" cy="2107" r="5" fill="#FFFFFF" opacity="0.33"/>
  <circle cx="1114" cy="2075" r="2" fill="#FFFFFF" opacity="0.67"/>
  <circle cx="176" cy="1499" r="3" fill="#FFFFFF" opacity="0.62"/>
  <circle cx="167" cy="199" r="4" fill="#FFFFFF" opacity="0.69"/>
  <circle cx="1127" cy="1642" r="2" fill="#FFFFFF" opacity="0.50"/>
  <circle cx="72" cy="116" r="2" fill="#FFFFFF" opacity="0.57"/>
  <circle cx="40" cy="660" r="3" fill="#FFFFFF" opacity="0.37"/>
  <rect width="1200" height="2600" fill="#FFFFFF" opacity="0.08"/>
  <rect width="1200" height="2600" filter="url(#grain_ambient_07_5854)" opacity="0.7"/>
</svg>
