<svg xmlns="http://www.w3.org/2000/svg" width="1200" height="2600" viewBox="0 0 1200 2600" preserveAspectRatio="xMidYMid slice">
  <defs>
    <linearGradient id="bg_ambient_10_7886" x1="0" y1="0" x2="1" y2="1">
      <stop offset="0%" stop-color="#DFF8FF"/>
      <stop offset="48%" stop-color="#EEE5FF"/>
      <stop offset="100%" stop-color="#FFECEF"/>
    </linearGradient>
    <radialGradient id="orb_ambient_10_7886" cx="35%" cy="30%" r="70%">
      <stop offset="0%" stop-color="#FFFFFF" stop-opacity="0.85"/>
      <stop offset="42%" stop-color="#FFFFFF" stop-opacity="0.20"/>
      <stop offset="100%" stop-color="#FFFFFF" stop-opacity="0.02"/>
    </radialGradient>
    <filter id="blur_ambient_10_7886" x="-30%" y="-30%" width="160%" height="160%">
      <feGaussianBlur stdDeviation="72"/>
    </filter>
    <filter id="soft_ambient_10_7886" x="-20%" y="-20%" width="140%" height="140%">
      <feGaussianBlur stdDeviation="10"/>
    </filter>
    <filter id="grain_ambient_10_7886">
      <feTurbulence type="fractalNoise" baseFrequency="0.85" numOctaves="2" stitchTiles="stitch"/>
      <feColorMatrix type="saturate" values="0"/>
      <feComponentTransfer>
        <feFuncA type="table" tableValues="0 0.035"/>
      </feComponentTransfer>
    </filter>
  </defs>
  <rect width="1200" height="2600" fill="url(#bg_ambient_10_7886)"/>
  <path d="M 824.6 -82.0 C 824.6 204.2, 807.4 148.2, 664.2 367.4 C 521.0 586.7, 599.2 531.2, 379.8 580.9 C 160.4 630.6, 248.3 622.0, 55.4 478.9 C -137.5 335.8, -138.0 429.1, -214.2 160.1 C -290.4 -108.8, -204.7 -27.7, -128.5 -296.7 C -52.3 -565.6, -140.4 -400.7, 52.5 -543.8 C 245.4 -686.9, 175.5 -793.0, 394.9 -743.3 C 614.2 -693.6, 502.7 -742.6, 645.9 -523.3 C 789.1 -304.1, 824.6 -368.2, 824.6 -82.0 Z" fill="#B6F5D1" opacity="0.25" filter="url(#blur_ambient_10_7886)"/>
  <path d="M 1218.9 221.0 C 1218.9 424.4, 1202.6 396.8, 1132.6 552.6 C 1062.6 708.4, 1093.9 575.5, 986.7 610.8 C 879.4 646.1, 913.0 764.1, 818.7 662.4 C 724.4 560.7, 749.1 591.9, 711.8 400.8 C 674.6 209.7, 664.4 257.0, 701.6 65.9 C 738.9 -125.3, 743.7 -107.8, 838.0 -209.5 C 932.3 -311.2, 884.5 -276.9, 991.7 -241.5 C 1098.9 -206.2, 1065.0 -217.4, 1135.0 -61.6 C 1205.0 94.2, 1218.9 17.6, 1218.9 221.0 Z" fill="#EEE5FF" opacity="0.30" filter="url(#blur_ambient_10_7886)"/>
  <path d="M 1395.1 2533.0 C 1395.1 2680.2, 1332.5 2651.8, 1178.1 2764.5 C 1023.6 2877.2, 1165.7 2796.4, 929.0 2821.9 C 692.4 2847.5, 789.9 2887.8, 581.8 2814.2 C 373.7 2740.6, 425.4 2772.6, 343.2 2634.3 C 261.0 2496.0, 268.7 2573.6, 350.9 2435.3 C 433.1 2297.0, 334.7 2354.2, 542.8 2280.7 C 750.9 2207.1, 681.7 2157.6, 918.4 2183.2 C 1155.0 2208.7, 1147.2 2192.8, 1301.6 2305.5 C 1456.1 2418.2, 1395.1 2385.8, 1395.1 2533.0 Z" fill="#DDEEFF" opacity="0.20" filter="url(#blur_ambient_10_7886)"/>
  <path d="M 643.4 1832.0 C 643.4 1988.2, 740.0 1942.1, 596.8 2061.8 C 453.7 2181.4, 452.6 2189.2, 233.2 2216.4 C 13.9 2243.5, 71.8 2159.2, -121.1 2081.1 C -314.0 2003.0, -228.2 2117.2, -304.4 1970.5 C -380.6 1823.8, -464.2 1865.7, -388.0 1719.0 C -311.8 1572.3, -305.8 1625.0, -112.9 1546.9 C 80.0 1468.8, 17.4 1496.5, 236.8 1523.6 C 456.1 1550.7, 400.6 1504.0, 543.8 1623.7 C 687.0 1743.3, 643.4 1675.8, 643.4 1832.0 Z" fill="#FFECEF" opacity="0.23" filter="url(#blur_ambient_10_7886)"/>
  <path d="M 1693.7 2213.0 C 1693.7 2354.8, 1644.2 2273.4, 1560.7 2382.0 C 1477.1 2490.6, 1541.4 2508.1, 1413.3 2532.7 C 1285.2 2557.4, 1328.0 2536.7, 1215.4 2465.8 C 1102.8 2394.9, 1151.8 2452.9, 1107.3 2319.7 C 1062.8 2186.5, 1042.0 2254.9, 1086.5 2121.7 C 1131.0 1988.5, 1108.8 1982.0, 1221.5 1911.2 C 1334.1 1840.3, 1275.5 1837.5, 1403.6 1862.1 C 1531.7 1886.7, 1500.8 1885.8, 1584.4 1994.4 C 1668.0 2103.0, 1693.7 2071.2, 1693.7 2213.0 Z" fill="#DFFCED" opacity="0.25" filter="url(#blur_ambient_10_7886)"/>
  <path d="M 624.0 1277.0 C 624.0 1543.4, 652.9 1480.9, 581.7 1685.0 C 510.5 1889.1, 548.6 1856.7, 439.6 1902.9 C 330.6 1949.2, 385.2 2002.3, 289.4 1869.1 C 193.5 1735.9, 222.2 1744.7, 184.4 1494.4 C 146.5 1244.1, 120.2 1294.7, 158.1 1044.4 C 196.0 794.1, 196.1 823.5, 291.9 690.3 C 387.8 557.1, 334.9 563.1, 443.9 609.3 C 552.9 655.6, 539.7 735.4, 610.8 939.4 C 682.0 1143.5, 624.0 1010.6, 624.0 1277.0 Z" fill="#FFC7DA" opacity="0.17" filter="url(#blur_ambient_10_7886)"/>
  <path d="M 1793.7 1778.0 C 1793.7 2038.1, 1835.6 1920.3, 1678.0 2119.6 C 1520.3 2318.8, 1637.0 2401.1, 1395.4 2446.3 C 1153.9 2491.5, 1221.4 2357.5, 1009.0 2227.4 C 796.6 2097.4, 893.7 2244.7, 809.8 2000.3 C 725.9 1755.9, 690.1 1832.4, 774.0 1588.0 C 857.9 1343.6, 856.7 1484.1, 1069.1 1354.1 C 1281.4 1224.0, 1165.6 1153.9, 1407.1 1199.0 C 1648.6 1244.2, 1591.6 1219.3, 1749.3 1418.5 C 1906.9 1617.8, 1793.7 1517.9, 1793.7 1778.0 Z" fill="#B6F5D1" opacity="0.37" filter="url(#blur_ambient_10_7886)"/>
  <path d="M 255.8 161.0 C 255.8 349.6, 343.3 309.2, 246.9 453.6 C 150.6 598.1, 187.0 512.5, 39.5 545.2 C -108.1 577.9, -52.6 640.3, -182.4 546.0 C -312.1 451.7, -309.5 471.3, -360.8 294.1 C -412.0 117.0, -370.7 192.8, -319.4 15.6 C -268.2 -161.5, -304.0 -108.9, -174.3 -203.1 C -44.5 -297.4, -98.4 -212.1, 49.2 -179.4 C 196.8 -146.7, 133.1 -258.0, 229.4 -113.6 C 325.8 30.8, 255.8 -27.6, 255.8 161.0 Z" fill="#FFECEF" opacity="0.20" filter="url(#blur_ambient_10_7886)"/>
  <path d="M 1532.0 2162.0 C 1532.0 2392.8, 1592.7 2278.9, 1489.4 2455.7 C 1386.2 2632.6, 1455.1 2669.4, 1296.9 2709.5 C 1138.7 2749.6, 1215.2 2664.0, 1076.0 2548.6 C 936.9 2433.2, 985.2 2577.1, 930.3 2360.2 C 875.3 2143.2, 878.0 2202.9, 932.9 1986.0 C 987.9 1769.1, 945.1 1804.0, 1084.2 1688.6 C 1223.3 1573.1, 1139.9 1691.9, 1298.1 1732.0 C 1456.3 1772.1, 1410.9 1630.6, 1514.2 1807.4 C 1617.5 1984.2, 1532.0 1931.2, 1532.0 2162.0 Z" fill="#DFFCED" opacity="0.29" filter="url(#blur_ambient_10_7886)"/>
  <path d="M 929.2 2474.0 C 929.2 2762.0, 911.0 2640.3, 826.0 2860.9 C 740.9 3081.5, 781.4 3116.7, 651.1 3166.7 C 520.8 3216.7, 583.9 3246.7, 469.3 3102.7 C 354.7 2958.7, 391.8 2991.4, 346.6 2720.7 C 301.3 2450.1, 318.6 2492.7, 363.9 2222.1 C 409.1 1951.4, 331.8 1990.3, 446.4 1846.3 C 561.0 1702.3, 520.4 1807.7, 650.7 1857.7 C 781.0 1907.7, 767.1 1802.3, 852.2 2022.9 C 937.2 2243.6, 929.2 2186.0, 929.2 2474.0 Z" fill="#DFFCED" opacity="0.35" filter="url(#blur_ambient_10_7886)"/>
  <path d="M 813.8 135.0 C 813.8 354.6, 783.2 317.6, 652.5 485.8 C 521.7 654.0, 555.3 644.5, 355.0 682.6 C 154.7 720.7, 236.8 606.5, 60.6 496.7 C -115.5 386.9, -115.2 514.7, -184.8 308.4 C -254.4 102.0, -221.6 169.9, -152.0 -36.5 C -82.5 -242.8, -78.3 -225.8, 97.9 -335.6 C 274.0 -445.4, 159.3 -445.2, 359.6 -407.1 C 559.9 -368.9, 503.3 -304.3, 634.1 -136.0 C 764.8 32.2, 813.8 -84.6, 813.8 135.0 Z" fill="#FFECEF" opacity="0.28" filter="url(#blur_ambient_10_7886)"/>
  <path d="M 1208.0 653.0 C 1208.0 936.0, 1172.7 826.5, 1016.6 1055.5 C 860.5 1284.5, 1000.2 1126.5, 747.7 1213.9 C 495.2 1301.4, 614.9 1258.7, 362.4 1171.2 C 109.9 1083.7, 272.1 1283.6, 116.1 1054.6 C -40.0 825.6, -57.5 936.1, -57.5 653.0 C -57.5 370.0, -20.3 549.2, 135.8 320.2 C 291.8 91.2, 116.1 165.8, 368.7 78.4 C 621.2 -9.1, 469.4 -36.8, 721.9 50.7 C 974.4 138.2, 829.0 18.3, 985.1 247.3 C 1141.2 476.3, 1208.0 369.9, 1208.0 653.0 Z" fill="#FDFFFF" opacity="0.12" stroke="#FDFFFF" stroke-opacity="0.46" stroke-width="3" filter="url(#soft_ambient_10_7886)"/>
  <path d="M 1208.0 653.0 C 1208.0 936.0, 1172.7 826.5, 1016.6 1055.5 C 860.5 1284.5, 1000.2 1126.5, 747.7 1213.9 C 495.2 1301.4, 614.9 1258.7, 362.4 1171.2 C 109.9 1083.7, 272.1 1283.6, 116.1 1054.6 C -40.0 825.6, -57.5 936.1, -57.5 653.0 C -57.5 370.0, -20.3 549.2, 135.8 320.2 C 291.8 91.2, 116.1 165.8, 368.7 78.4 C 621.2 -9.1, 469.4 -36.8, 721.9 50.7 C 974.4 138.2, 829.0 18.3, 985.1 247.3 C 1141.2 476.3, 1208.0 369.9, 1208.0 653.0 Z" fill="none" stroke="#FFFFFF" stroke-opacity="0.22" stroke-width="1.2"/>
  <path d="M 1727.8 2778.0 C 1727.8 2979.6, 1873.5 2908.0, 1719.1 3071.1 C 1564.6 3234.2, 1617.3 3125.2, 1367.4 3187.5 C 1117.4 3249.8, 1250.4 3307.4, 1000.5 3245.1 C 750.6 3182.8, 848.8 3236.3, 694.3 3073.2 C 539.8 2910.1, 634.4 2979.6, 634.4 2778.0 C 634.4 2576.4, 595.9 2652.3, 750.4 2489.2 C 904.8 2326.1, 768.3 2379.5, 1018.3 2317.2 C 1268.2 2254.9, 1139.0 2240.0, 1389.0 2302.3 C 1638.9 2364.6, 1504.7 2317.9, 1659.1 2481.0 C 1813.6 2644.1, 1727.8 2576.4, 1727.8 2778.0 Z" fill="#DDEEFF" opacity="0.12" stroke="#DDEEFF" stroke-opacity="0.46" stroke-width="3" filter="url(#soft_ambient_10_7886)"/>
  <path d="M 1727.8 2778.0 C 1727.8 2979.6, 1873.5 2908.0, 1719.1 3071.1 C 1564.6 3234.2, 1617.3 3125.2, 1367.4 3187.5 C 1117.4 3249.8, 1250.4 3307.4, 1000.5 3245.1 C 750.6 3182.8, 848.8 3236.3, 694.3 3073.2 C 539.8 2910.1, 634.4 2979.6, 634.4 2778.0 C 634.4 2576.4, 595.9 2652.3, 750.4 2489.2 C 904.8 2326.1, 768.3 2379.5, 1018.3 2317.2 C 1268.2 2254.9, 1139.0 2240.0, 1389.0 2302.3 C 1638.9 2364.6, 1504.7 2317.9, 1659.1 2481.0 C 1813.6 2644.1, 1727.8 2576.4, 1727.8 2778.0 Z" fill="none" stroke="#FFFFFF" stroke-opacity="0.22" stroke-width="1.2"/>
  <path d="M 1520.0 2405.0 C 1520.0 2640.3, 1549.0 2530.0, 1429.1 2720.4 C 1309.3 2910.8, 1420.0 2777.6, 1226.1 2850.3 C 1032.2 2923.0, 1151.1 2927.5, 957.3 2854.8 C 763.4 2782.1, 824.5 2890.6, 704.6 2700.2 C 584.8 2509.8, 598.7 2640.3, 598.7 2405.0 C 598.7 2169.7, 603.9 2253.4, 723.7 2063.0 C 843.5 1872.6, 783.6 2030.3, 977.5 1957.5 C 1171.3 1884.8, 1036.9 1766.7, 1230.8 1839.4 C 1424.7 1912.1, 1374.4 1910.2, 1494.2 2100.6 C 1614.0 2291.0, 1520.0 2169.7, 1520.0 2405.0 Z" fill="#D6C2FF" opacity="0.12" stroke="#FFFFFF" stroke-opacity="0.46" stroke-width="3" filter="url(#soft_ambient_10_7886)"/>
  <path d="M 1520.0 2405.0 C 1520.0 2640.3, 1549.0 2530.0, 1429.1 2720.4 C 1309.3 2910.8, 1420.0 2777.6, 1226.1 2850.3 C 1032.2 2923.0, 1151.1 2927.5, 957.3 2854.8 C 763.4 2782.1, 824.5 2890.6, 704.6 2700.2 C 584.8 2509.8, 598.7 2640.3, 598.7 2405.0 C 598.7 2169.7, 603.9 2253.4, 723.7 2063.0 C 843.5 1872.6, 783.6 2030.3, 977.5 1957.5 C 1171.3 1884.8, 1036.9 1766.7, 1230.8 1839.4 C 1424.7 1912.1, 1374.4 1910.2, 1494.2 2100.6 C 1614.0 2291.0, 1520.0 2169.7, 1520.0 2405.0 Z" fill="none" stroke="#FFFFFF" stroke-opacity="0.22" stroke-width="1.2"/>
  <path d="M 1539.6 1363.0 C 1539.6 1616.8, 1620.3 1456.0, 1458.6 1661.4 C 1297.0 1866.7, 1440.2 1767.2, 1178.7 1845.6 C 917.2 1924.0, 1084.0 2040.4, 822.5 1961.9 C 561.1 1883.5, 686.1 1873.0, 524.5 1667.7 C 362.9 1462.4, 390.2 1616.8, 390.2 1363.0 C 390.2 1109.2, 323.1 1191.3, 484.8 986.0 C 646.4 780.7, 528.0 870.8, 789.5 792.4 C 1051.0 714.0, 907.8 752.8, 1169.3 831.2 C 1430.8 909.6, 1315.9 801.1, 1477.5 1006.4 C 1639.2 1211.8, 1539.6 1109.2, 1539.6 1363.0 Z" fill="#A9EAF6" opacity="0.12" stroke="#FFFFFF" stroke-opacity="0.46" stroke-width="3" filter="url(#soft_ambient_10_7886)"/>
  <path d="M 1539.6 1363.0 C 1539.6 1616.8, 1620.3 1456.0, 1458.6 1661.4 C 1297.0 1866.7, 1440.2 1767.2, 1178.7 1845.6 C 917.2 1924.0, 1084.0 2040.4, 822.5 1961.9 C 561.1 1883.5, 686.1 1873.0, 524.5 1667.7 C 362.9 1462.4, 390.2 1616.8, 390.2 1363.0 C 390.2 1109.2, 323.1 1191.3, 484.8 986.0 C 646.4 780.7, 528.0 870.8, 789.5 792.4 C 1051.0 714.0, 907.8 752.8, 1169.3 831.2 C 1430.8 909.6, 1315.9 801.1, 1477.5 1006.4 C 1639.2 1211.8, 1539.6 1109.2, 1539.6 1363.0 Z" fill="none" stroke="#FFFFFF" stroke-opacity="0.22" stroke-width="1.2"/>
  <path d="M 521.8 -103.0 C 521.8 203.4, 525.4 84.2, 430.7 332.1 C 336.0 580.0, 391.3 442.7, 238.1 537.4 C 84.8 632.1, 181.2 624.0, 28.0 529.3 C -125.2 434.6, -74.2 597.6, -168.8 349.7 C -263.5 101.8, -271.4 203.5, -271.4 -103.0 C -271.4 -409.4, -257.5 -225.1, -162.8 -473.0 C -68.1 -721.0, -131.8 -637.2, 21.4 -731.9 C 174.7 -826.6, 84.0 -879.2, 237.2 -784.5 C 390.4 -689.8, 311.0 -727.3, 405.6 -479.4 C 500.3 -231.5, 521.8 -409.4, 521.8 -103.0 Z" fill="#FFC7DA" opacity="0.12" stroke="#FFFFFF" stroke-opacity="0.46" stroke-width="3" filter="url(#soft_ambient_10_7886)"/>
  <path d="M 521.8 -103.0 C 521.8 203.4, 525.4 84.2, 430.7 332.1 C 336.0 580.0, 391.3 442.7, 238.1 537.4 C 84.8 632.1, 181.2 624.0, 28.0 529.3 C -125.2 434.6, -74.2 597.6, -168.8 349.7 C -263.5 101.8, -271.4 203.5, -271.4 -103.0 C -271.4 -409.4, -257.5 -225.1, -162.8 -473.0 C -68.1 -721.0, -131.8 -637.2, 21.4 -731.9 C 174.7 -826.6, 84.0 -879.2, 237.2 -784.5 C 390.4 -689.8, 311.0 -727.3, 405.6 -479.4 C 500.3 -231.5, 521.8 -409.4, 521.8 -103.0 Z" fill="none" stroke="#FFFFFF" stroke-opacity="0.22" stroke-width="1.2"/>
  <path d="M 1420.9 1744.0 C 1420.9 2127.8, 1462.3 1969.6, 1328.0 2280.2 C 1193.6 2590.7, 1263.2 2416.4, 1045.8 2535.1 C 828.4 2653.7, 939.0 2576.1, 721.5 2457.4 C 504.1 2338.8, 582.7 2607.3, 448.3 2296.8 C 313.9 1986.3, 325.2 2127.8, 325.2 1744.0 C 325.2 1360.2, 375.6 1569.2, 510.0 1258.7 C 644.3 948.2, 496.3 1131.3, 713.7 1012.7 C 931.1 894.1, 787.9 727.4, 1005.3 846.0 C 1222.7 964.6, 1126.5 923.3, 1260.9 1233.9 C 1395.2 1544.4, 1420.9 1360.2, 1420.9 1744.0 Z" fill="#FFC7DA" opacity="0.12" stroke="#FFC7DA" stroke-opacity="0.46" stroke-width="3" filter="url(#soft_ambient_10_7886)"/>
  <path d="M 1420.9 1744.0 C 1420.9 2127.8, 1462.3 1969.6, 1328.0 2280.2 C 1193.6 2590.7, 1263.2 2416.4, 1045.8 2535.1 C 828.4 2653.7, 939.0 2576.1, 721.5 2457.4 C 504.1 2338.8, 582.7 2607.3, 448.3 2296.8 C 313.9 1986.3, 325.2 2127.8, 325.2 1744.0 C 325.2 1360.2, 375.6 1569.2, 510.0 1258.7 C 644.3 948.2, 496.3 1131.3, 713.7 1012.7 C 931.1 894.1, 787.9 727.4, 1005.3 846.0 C 1222.7 964.6, 1126.5 923.3, 1260.9 1233.9 C 1395.2 1544.4, 1420.9 1360.2, 1420.9 1744.0 Z" fill="none" stroke="#FFFFFF" stroke-opacity="0.22" stroke-width="1.2"/>
  <path d="M 517.3 1162.0 C 517.3 1396.5, 481.4 1305.2, 391.4 1494.9 C 301.5 1684.6, 381.2 1580.6, 235.7 1653.0 C 90.2 1725.5, 167.1 1746.8, 21.6 1674.4 C -123.9 1601.9, -27.3 1646.7, -117.3 1457.1 C -207.2 1267.4, -198.1 1396.5, -198.1 1162.0 C -198.1 927.5, -266.6 1063.0, -176.7 873.3 C -86.8 683.6, -133.0 731.0, 12.5 658.6 C 158.0 586.1, 78.3 619.6, 223.8 692.0 C 369.3 764.5, 308.2 653.4, 398.1 843.1 C 488.1 1032.7, 517.3 927.5, 517.3 1162.0 Z" fill="#DFFCED" opacity="0.12" stroke="#DFFCED" stroke-opacity="0.46" stroke-width="3" filter="url(#soft_ambient_10_7886)"/>
  <path d="M 517.3 1162.0 C 517.3 1396.5, 481.4 1305.2, 391.4 1494.9 C 301.5 1684.6, 381.2 1580.6, 235.7 1653.0 C 90.2 1725.5, 167.1 1746.8, 21.6 1674.4 C -123.9 1601.9, -27.3 1646.7, -117.3 1457.1 C -207.2 1267.4, -198.1 1396.5, -198.1 1162.0 C -198.1 927.5, -266.6 1063.0, -176.7 873.3 C -86.8 683.6, -133.0 731.0, 12.5 658.6 C 158.0 586.1, 78.3 619.6, 223.8 692.0 C 369.3 764.5, 308.2 653.4, 398.1 843.1 C 488.1 1032.7, 517.3 927.5, 517.3 1162.0 Z" fill="none" stroke="#FFFFFF" stroke-opacity="0.22" stroke-width="1.2"/>
  <path d="M -100.0 1561.2 Q 133.3 1370.6, 366.7 966.0 Q 600.0 1112.3, 833.3 1519.7 Q 1066.7 1581.0, 1300.0 1198.4" fill="none" stroke="#FFFFFF" stroke-opacity="0.38" stroke-width="4" filter="url(#soft_ambient_10_7886)"/>
  <path d="M -100.0 1561.2 Q 133.3 1370.6, 366.7 966.0 Q 600.0 1112.3, 833.3 1519.7 Q 1066.7 1581.0, 1300.0 1198.4" fill="none" stroke="#B6F5D1" stroke-opacity="0.18" stroke-width="2"/>
  <path d="M -100.0 1388.5 Q 133.3 1543.5, 366.7 1307.8 Q 600.0 905.6, 833.3 874.1 Q 1066.7 1076.9, 1300.0 1542.0" fill="none" stroke="#FFFFFF" stroke-opacity="0.38" stroke-width="4" filter="url(#soft_ambient_10_7886)"/>
  <path d="M -100.0 1388.5 Q 133.3 1543.5, 366.7 1307.8 Q 600.0 905.6, 833.3 874.1 Q 1066.7 1076.9, 1300.0 1542.0" fill="none" stroke="#A9EAF6" stroke-opacity="0.18" stroke-width="2"/>
  <path d="M -100.0 1293.0 Q 133.3 1124.5, 366.7 864.5 Q 600.0 671.1, 833.3 906.1 Q 1066.7 1172.5, 1300.0 1207.8" fill="none" stroke="#FFFFFF" stroke-opacity="0.38" stroke-width="4" filter="url(#soft_ambient_10_7886)"/>
  <path d="M -100.0 1293.0 Q 133.3 1124.5, 366.7 864.5 Q 600.0 671.1, 833.3 906.1 Q 1066.7 1172.5, 1300.0 1207.8" fill="none" stroke="#B6F5D1" stroke-opacity="0.18" stroke-width="2"/>
  <path d="M -100.0 247.5 Q 133.3 265.5, 366.7 243.6 Q 600.0 -12.4, 833.3 -203.0 Q 1066.7 -344.7, 1300.0 -275.5" fill="none" stroke="#FFFFFF" stroke-opacity="0.38" stroke-width="4" filter="url(#soft_ambient_10_7886)"/>
  <path d="M -100.0 247.5 Q 133.3 265.5, 366.7 243.6 Q 600.0 -12.4, 833.3 -203.0 Q 1066.7 -344.7, 1300.0 -275.5" fill="none" stroke="#D6C2FF" stroke-opacity="0.18" stroke-width="2"/>
  <circle cx="814" cy="-82" r="135" fill="url(#orb_ambient_10_7886)" opacity="0.36"/>
  <circle cx="814" cy="-82" r="135" fill="#B6F5D1" opacity="0.08"/>
  <circle cx="814" cy="-82" r="135" fill="none" stroke="#FFFFFF" stroke-opacity="0.56" stroke-width="3"/>
  <ellipse cx="776.2" cy="-130.6" rx="24.3" ry="10.8" fill="#FFFFFF" opacity="0.42" transform="rotate(-22 776.2 -130.6)"/>
  <circle cx="9" cy="2481" r="100" fill="url(#orb_ambient_10_7886)" opacity="0.36"/>
  <circle cx="9" cy="2481" r="100" fill="#DFF8FF" opacity="0.08"/>
  <circle cx="9" cy="2481" r="100" fill="none" stroke="#FFFFFF" stroke-opacity="0.56" stroke-width="3"/>
  <ellipse cx="-19.0" cy="2445.0" rx="18.0" ry="8.0" fill="#FFFFFF" opacity="0.42" transform="rotate(-22 -19.0 2445.0)"/>
  <circle cx="165" cy="1988" r="158" fill="url(#orb_ambient_10_7886)" opacity="0.36"/>
  <circle cx="165" cy="1988" r="158" fill="#FFC7DA" opacity="0.08"/>
  <circle cx="165" cy="1988" r="158" fill="none" stroke="#FFFFFF" stroke-opacity="0.56" stroke-width="3"/>
  <ellipse cx="120.8" cy="1931.1" rx="28.4" ry="12.6" fill="#FFFFFF" opacity="0.42" transform="rotate(-22 120.8 1931.1)"/>
  <circle cx="1094" cy="1662" r="260" fill="url(#orb_ambient_10_7886)" opacity="0.20"/>
  <circle cx="1094" cy="1662" r="260" fill="#DFFCED" opacity="0.08"/>
  <circle cx="1094" cy="1662" r="260" fill="none" stroke="#FFFFFF" stroke-opacity="0.56" stroke-width="3"/>
  <ellipse cx="1021.2" cy="1568.4" rx="46.8" ry="20.8" fill="#FFFFFF" opacity="0.42" transform="rotate(-22 1021.2 1568.4)"/>
  <circle cx="597" cy="1369" r="162" fill="url(#orb_ambient_10_7886)" opacity="0.24"/>
  <circle cx="597" cy="1369" r="162" fill="#EEE5FF" opacity="0.08"/>
  <circle cx="597" cy="1369" r="162" fill="none" stroke="#FFFFFF" stroke-opacity="0.56" stroke-width="3"/>
  <ellipse cx="551.6" cy="1310.7" rx="29.2" ry="13.0" fill="#FFFFFF" opacity="0.42" transform="rotate(-22 551.6 1310.7)"/>
  <circle cx="132" cy="1661" r="152" fill="url(#orb_ambient_10_7886)" opacity="0.26"/>
  <circle cx="132" cy="1661" r="152" fill="#D6C2FF" opacity="0.08"/>
  <circle cx="132" cy="1661" r="152" fill="none" stroke="#FFFFFF" stroke-opacity="0.56" stroke-width="3"/>
  <ellipse cx="89.4" cy="1606.3" rx="27.4" ry="12.2" fill="#FFFFFF" opacity="0.42" transform="rotate(-22 89.4 1606.3)"/>
  <circle cx="-2" cy="1281" r="218" fill="url(#orb_ambient_10_7886)" opacity="0.22"/>
  <circle cx="-2" cy="1281" r="218" fill="#FFC7DA" opacity="0.08"/>
  <circle cx="-2" cy="1281" r="218" fill="none" stroke="#FFFFFF" stroke-opacity="0.56" stroke-width="3"/>
  <ellipse cx="-63.0" cy="1202.5" rx="39.2" ry="17.4" fill="#FFFFFF" opacity="0.42" transform="rotate(-22 -63.0 1202.5)"/>
  <circle cx="1052" cy="1031" r="3" fill="#FFFFFF" opacity="0.69"/>
  <circle cx="49" cy="427" r="7" fill="#FFFFFF" opacity="0.45"/>
  <circle cx="296" cy="1227" r="3" fill="#FFFFFF" opacity="0.44"/>
  <circle cx="160" cy="540" r="7" fill="#FFFFFF" opacity="0.29"/>
  <circle cx="751" cy="116" r="4" fill="#FFFFFF" opacity="0.58"/>
  <circle cx="730" cy="1013" r="7" fill="#FFFFFF" opacity="0.39"/>
  <circle cx="584" cy="726" r="3" fill="#FFFFFF" opacity="0.29"/>
  <circle cx="1011" cy="1627" r="2" fill="#FFFFFF" opacity="0.69"/>
  <circle cx="54" cy="1635" r="7" fill="#FFFFFF" opacity="0.55"/>
  <circle cx="845" cy="1746" r="2" fill="#FFFFFF" opacity="0.35"/>
  <circle cx="265" cy="1195" r="4" fill="#FFFFFF" opacity="0.36"/>
  <circle cx="503" cy="1166" r="7" fill="#FFFFFF" opacity="0.43"/>
  <circle cx="340" cy="1772" r="7" fill="#FFFFFF" opacity="0.32"/>
  <rect width="1200" height="2600" fill="#FFFFFF" opacity="0.08"/>
  <rect width="1200" height="2600" filter="url(#grain_ambient_10_7886)" opacity="0.7"/>
</svg>
