<svg xmlns="http://www.w3.org/2000/svg" width="1200" height="2600" viewBox="0 0 1200 2600" preserveAspectRatio="xMidYMid slice">
  <defs>
    <linearGradient id="bg_ambient_06_4172" x1="0" y1="0" x2="1" y2="1">
      <stop offset="0%" stop-color="#DFF8FF"/>
      <stop offset="48%" stop-color="#DDEEFF"/>
      <stop offset="100%" stop-color="#EEE5FF"/>
    </linearGradient>
    <radialGradient id="orb_ambient_06_4172" cx="35%" cy="30%" r="70%">
      <stop offset="0%" stop-color="#FFFFFF" stop-opacity="0.85"/>
      <stop offset="42%" stop-color="#FFFFFF" stop-opacity="0.20"/>
      <stop offset="100%" stop-color="#FFFFFF" stop-opacity="0.02"/>
    </radialGradient>
    <filter id="blur_ambient_06_4172" x="-30%" y="-30%" width="160%" height="160%">
      <feGaussianBlur stdDeviation="72"/>
    </filter>
    <filter id="soft_ambient_06_4172" x="-20%" y="-20%" width="140%" height="140%">
      <feGaussianBlur stdDeviation="10"/>
    </filter>
    <filter id="grain_ambient_06_4172">
      <feTurbulence type="fractalNoise" baseFrequency="0.85" numOctaves="2" stitchTiles="stitch"/>
      <feColorMatrix type="saturate" values="0"/>
      <feComponentTransfer>
        <feFuncA type="table" tableValues="0 0.035"/>
      </feComponentTransfer>
    </filter>
  </defs>
  <rect width="1200" height="2600" fill="url(#bg_ambient_06_4172)"/>
  <path d="M 1134.8 2095.0 C 1134.8 2329.0, 1158.3 2276.1, 1060.8 2455.4 C 963.3 2634.6, 980.1 2594.0, 830.8 2634.6 C 681.5 2675.2, 753.5 2658.1, 622.2 2541.1 C 490.8 2424.1, 508.7 2467.4, 456.8 2247.5 C 404.9 2027.6, 445.4 2150.8, 497.3 1930.9 C 549.2 1711.1, 482.0 1732.0, 613.3 1615.0 C 744.6 1498.0, 680.1 1596.0, 829.4 1636.6 C 978.8 1677.3, 975.0 1542.5, 1072.5 1721.8 C 1170.0 1901.1, 1134.8 1861.0, 1134.8 2095.0 Z" fill="#B6F5D1" opacity="0.16" filter="url(#blur_ambient_06_4172)"/>
  <path d="M 1093.3 1989.0 C 1093.3 2287.8, 1158.2 2159.1, 1014.5 2388.0 C 870.7 2616.9, 954.3 2598.3, 734.0 2650.2 C 513.8 2702.0, 545.3 2725.8, 351.6 2576.4 C 157.9 2427.0, 273.7 2521.5, 197.2 2240.7 C 120.8 1959.9, 92.5 2081.7, 168.9 1800.9 C 245.4 1520.1, 231.4 1636.0, 425.1 1486.6 C 618.8 1337.2, 493.1 1200.1, 713.3 1252.0 C 933.6 1303.8, 919.6 1300.1, 1063.4 1529.0 C 1207.1 1757.9, 1093.3 1690.2, 1093.3 1989.0 Z" fill="#A9EAF6" opacity="0.34" filter="url(#blur_ambient_06_4172)"/>
  <path d="M 509.8 994.0 C 509.8 1259.0, 619.6 1163.0, 476.1 1366.0 C 332.7 1569.0, 357.2 1488.0, 137.4 1534.0 C -82.4 1580.0, -28.1 1668.9, -221.4 1536.4 C -414.7 1403.9, -395.4 1410.6, -471.8 1161.5 C -548.1 912.4, -458.3 1012.2, -382.0 763.2 C -305.7 514.1, -408.4 570.6, -215.1 438.1 C -21.8 305.6, -79.1 363.3, 140.7 409.3 C 360.5 455.4, 303.6 456.0, 447.0 659.1 C 590.5 862.1, 509.8 729.0, 509.8 994.0 Z" fill="#EEE5FF" opacity="0.24" filter="url(#blur_ambient_06_4172)"/>
  <path d="M 1831.3 1978.0 C 1831.3 2125.6, 1886.0 2081.5, 1726.0 2194.5 C 1566.1 2307.6, 1678.0 2267.2, 1433.0 2292.8 C 1187.9 2318.4, 1328.7 2310.1, 1113.2 2236.3 C 897.7 2162.5, 849.6 2239.3, 764.5 2100.6 C 679.3 1961.9, 663.2 2017.8, 748.4 1879.1 C 833.5 1740.4, 815.3 1724.6, 1030.8 1650.8 C 1246.3 1577.0, 1203.9 1610.0, 1448.9 1635.7 C 1694.0 1661.3, 1551.5 1670.4, 1711.5 1783.5 C 1871.4 1896.6, 1831.3 1830.4, 1831.3 1978.0 Z" fill="#DFF8FF" opacity="0.36" filter="url(#blur_ambient_06_4172)"/>
  <path d="M 684.7 -186.0 C 684.7 18.3, 739.4 -36.3, 652.9 120.3 C 566.4 276.8, 615.3 197.5, 482.8 233.0 C 350.3 268.5, 380.8 276.6, 264.3 174.5 C 147.8 72.3, 238.8 148.2, 192.8 -43.8 C 146.7 -235.8, 139.4 -146.8, 185.4 -338.8 C 231.4 -530.8, 148.0 -433.4, 264.6 -535.5 C 381.1 -637.7, 336.8 -644.5, 469.3 -609.0 C 601.8 -573.5, 579.9 -659.0, 666.4 -502.5 C 752.9 -346.0, 684.7 -390.3, 684.7 -186.0 Z" fill="#A9EAF6" opacity="0.33" filter="url(#blur_ambient_06_4172)"/>
  <path d="M 1281.6 221.0 C 1281.6 408.2, 1292.1 386.2, 1221.8 529.6 C 1151.5 673.0, 1216.3 532.5, 1108.6 565.0 C 1000.9 597.5, 1051.0 670.4, 956.3 576.8 C 861.6 483.2, 905.7 545.3, 868.3 369.4 C 830.9 193.5, 807.4 255.1, 844.8 79.2 C 882.2 -96.7, 842.3 -24.4, 937.0 -118.0 C 1031.7 -211.6, 1002.8 -180.5, 1110.5 -148.0 C 1218.2 -115.5, 1180.9 -182.3, 1251.1 -38.9 C 1321.4 104.5, 1281.6 33.8, 1281.6 221.0 Z" fill="#A9EAF6" opacity="0.29" filter="url(#blur_ambient_06_4172)"/>
  <path d="M 323.2 2822.0 C 323.2 3083.0, 349.6 3042.1, 217.7 3242.0 C 85.8 3442.0, 212.1 3297.3, 10.0 3342.6 C -192.1 3388.0, -107.9 3461.8, -285.6 3331.3 C -463.3 3200.8, -353.2 3230.5, -423.4 2985.2 C -493.6 2739.9, -565.9 2870.4, -495.8 2625.1 C -425.6 2379.8, -445.5 2534.3, -267.8 2403.8 C -90.1 2273.3, -181.0 2280.3, 21.1 2325.6 C 223.2 2370.9, 146.9 2190.5, 278.8 2390.4 C 410.7 2590.3, 323.2 2561.0, 323.2 2822.0 Z" fill="#DFF8FF" opacity="0.34" filter="url(#blur_ambient_06_4172)"/>
  <path d="M 1568.8 1422.0 C 1568.8 1601.1, 1517.5 1568.0, 1397.5 1705.2 C 1277.4 1842.4, 1391.7 1791.4, 1207.8 1822.5 C 1023.9 1853.6, 1102.7 1838.3, 941.0 1748.7 C 779.3 1659.2, 736.5 1745.4, 672.7 1577.1 C 608.8 1408.8, 605.4 1432.1, 669.2 1263.8 C 733.1 1095.5, 750.4 1137.9, 912.1 1048.4 C 1073.9 958.8, 1002.4 992.7, 1186.3 1023.8 C 1370.2 1054.9, 1300.6 1038.7, 1420.6 1175.9 C 1540.7 1313.1, 1568.8 1242.9, 1568.8 1422.0 Z" fill="#FDFFFF" opacity="0.30" filter="url(#blur_ambient_06_4172)"/>
  <path d="M 680.6 1489.0 C 680.6 1722.5, 766.9 1690.7, 690.2 1869.6 C 613.6 2048.5, 617.1 1935.4, 499.7 1976.0 C 382.2 2016.6, 401.0 2078.8, 297.7 1962.0 C 194.4 1845.3, 225.4 1872.7, 184.6 1653.2 C 143.8 1433.7, 141.9 1510.2, 182.7 1290.7 C 223.5 1071.3, 208.8 1186.9, 312.1 1070.1 C 415.4 953.3, 383.7 919.3, 501.2 959.9 C 618.6 1000.4, 583.4 980.6, 660.0 1159.5 C 736.7 1338.4, 680.6 1255.5, 680.6 1489.0 Z" fill="#FFECEF" opacity="0.26" filter="url(#blur_ambient_06_4172)"/>
  <path d="M 1143.5 2452.0 C 1143.5 2702.2, 1235.9 2651.9, 1138.7 2843.6 C 1041.5 3035.3, 1038.9 3014.1, 890.0 3057.5 C 741.1 3101.0, 805.7 3107.0, 674.8 2981.9 C 543.8 2856.8, 608.5 2875.4, 556.7 2640.3 C 505.0 2405.2, 489.0 2491.3, 540.7 2256.2 C 592.4 2021.1, 558.1 2113.9, 689.0 1988.8 C 820.0 1863.7, 758.8 1767.5, 907.7 1810.9 C 1056.6 1854.4, 963.9 1914.6, 1061.1 2106.2 C 1158.3 2297.9, 1143.5 2201.8, 1143.5 2452.0 Z" fill="#B6F5D1" opacity="0.26" filter="url(#blur_ambient_06_4172)"/>
  <path d="M 1685.7 542.0 C 1685.7 755.8, 1713.3 702.1, 1584.3 865.8 C 1455.3 1029.5, 1536.7 946.1, 1339.1 983.2 C 1141.4 1020.3, 1227.8 1044.8, 1054.0 938.0 C 880.2 831.1, 896.9 879.5, 828.3 678.7 C 759.6 477.8, 822.5 587.3, 891.2 386.4 C 959.8 185.6, 880.1 274.2, 1053.9 167.3 C 1227.7 60.5, 1147.7 51.5, 1345.4 88.7 C 1543.0 125.8, 1412.4 81.6, 1541.4 245.3 C 1670.4 409.1, 1685.7 328.2, 1685.7 542.0 Z" fill="#B6F5D1" opacity="0.29" filter="url(#blur_ambient_06_4172)"/>
  <path d="M 1010.6 996.0 C 1010.6 1244.0, 990.5 1138.6, 913.6 1328.5 C 836.6 1518.5, 885.6 1570.9, 767.7 1613.9 C 649.8 1657.0, 705.5 1539.5, 601.9 1415.5 C 498.2 1291.6, 543.1 1385.5, 502.2 1152.5 C 461.2 919.5, 413.0 1036.7, 453.9 803.7 C 494.9 570.7, 480.4 671.4, 584.1 547.4 C 687.7 423.4, 647.4 385.9, 765.3 428.9 C 883.2 472.0, 845.0 483.7, 921.9 673.7 C 998.8 863.6, 1010.6 748.0, 1010.6 996.0 Z" fill="#DDEEFF" opacity="0.33" filter="url(#blur_ambient_06_4172)"/>
  <path d="M 243.3 1683.0 C 243.3 2021.8, 237.7 1844.9, 125.9 2119.0 C 14.0 2393.1, 117.4 2378.8, -63.7 2483.5 C -244.7 2588.2, -123.0 2530.1, -304.0 2425.4 C -485.1 2320.7, -413.2 2454.1, -525.1 2179.9 C -637.0 1905.8, -651.4 2021.8, -651.4 1683.0 C -651.4 1344.2, -604.7 1501.8, -492.9 1227.6 C -381.0 953.5, -512.8 992.7, -331.7 888.0 C -150.7 783.3, -251.0 781.1, -70.0 885.8 C 111.0 990.5, 0.3 930.0, 112.2 1204.1 C 224.1 1478.2, 243.3 1344.2, 243.3 1683.0 Z" fill="#A9EAF6" opacity="0.12" stroke="#A9EAF6" stroke-opacity="0.46" stroke-width="3" filter="url(#soft_ambient_06_4172)"/>
  <path d="M 243.3 1683.0 C 243.3 2021.8, 237.7 1844.9, 125.9 2119.0 C 14.0 2393.1, 117.4 2378.8, -63.7 2483.5 C -244.7 2588.2, -123.0 2530.1, -304.0 2425.4 C -485.1 2320.7, -413.2 2454.1, -525.1 2179.9 C -637.0 1905.8, -651.4 2021.8, -651.4 1683.0 C -651.4 1344.2, -604.7 1501.8, -492.9 1227.6 C -381.0 953.5, -512.8 992.7, -331.7 888.0 C -150.7 783.3, -251.0 781.1, -70.0 885.8 C 111.0 990.5, 0.3 930.0, 112.2 1204.1 C 224.1 1478.2, 243.3 1344.2, 243.3 1683.0 Z" fill="none" stroke="#FFFFFF" stroke-opacity="0.22" stroke-width="1.2"/>
  <path d="M 1705.0 2738.0 C 1705.0 3053.9, 1748.4 2854.3, 1674.4 3109.9 C 1600.3 3365.5, 1666.7 3248.5, 1546.9 3346.1 C 1427.1 3443.7, 1489.9 3465.0, 1370.0 3367.4 C 1250.2 3269.8, 1269.5 3352.2, 1195.5 3096.6 C 1121.4 2841.0, 1138.9 3053.9, 1138.9 2738.0 C 1138.9 2422.1, 1149.3 2557.9, 1223.3 2302.3 C 1297.4 2046.8, 1234.9 2096.3, 1354.7 1998.7 C 1474.5 1901.0, 1416.5 2040.9, 1536.3 2138.5 C 1656.2 2236.1, 1603.1 2090.8, 1677.1 2346.4 C 1751.2 2601.9, 1705.0 2422.1, 1705.0 2738.0 Z" fill="#B6F5D1" opacity="0.12" stroke="#FFFFFF" stroke-opacity="0.46" stroke-width="3" filter="url(#soft_ambient_06_4172)"/>
  <path d="M 1705.0 2738.0 C 1705.0 3053.9, 1748.4 2854.3, 1674.4 3109.9 C 1600.3 3365.5, 1666.7 3248.5, 1546.9 3346.1 C 1427.1 3443.7, 1489.9 3465.0, 1370.0 3367.4 C 1250.2 3269.8, 1269.5 3352.2, 1195.5 3096.6 C 1121.4 2841.0, 1138.9 3053.9, 1138.9 2738.0 C 1138.9 2422.1, 1149.3 2557.9, 1223.3 2302.3 C 1297.4 2046.8, 1234.9 2096.3, 1354.7 1998.7 C 1474.5 1901.0, 1416.5 2040.9, 1536.3 2138.5 C 1656.2 2236.1, 1603.1 2090.8, 1677.1 2346.4 C 1751.2 2601.9, 1705.0 2422.1, 1705.0 2738.0 Z" fill="none" stroke="#FFFFFF" stroke-opacity="0.22" stroke-width="1.2"/>
  <path d="M 1139.2 2865.0 C 1139.2 3185.8, 1225.0 3020.4, 1115.5 3280.0 C 1006.0 3539.6, 1031.5 3471.1, 854.3 3570.2 C 677.2 3669.4, 793.0 3730.4, 615.9 3631.2 C 438.7 3532.1, 464.9 3513.7, 355.4 3254.1 C 245.9 2994.5, 358.7 3185.8, 358.7 2865.0 C 358.7 2544.2, 331.8 2728.5, 441.3 2469.0 C 550.8 2209.4, 447.0 2211.2, 624.2 2112.1 C 801.4 2012.9, 696.0 1997.4, 873.2 2096.6 C 1050.4 2195.7, 932.2 2145.8, 1041.7 2405.4 C 1151.2 2665.0, 1139.2 2544.2, 1139.2 2865.0 Z" fill="#FFC7DA" opacity="0.12" stroke="#FFFFFF" stroke-opacity="0.46" stroke-width="3" filter="url(#soft_ambient_06_4172)"/>
  <path d="M 1139.2 2865.0 C 1139.2 3185.8, 1225.0 3020.4, 1115.5 3280.0 C 1006.0 3539.6, 1031.5 3471.1, 854.3 3570.2 C 677.2 3669.4, 793.0 3730.4, 615.9 3631.2 C 438.7 3532.1, 464.9 3513.7, 355.4 3254.1 C 245.9 2994.5, 358.7 3185.8, 358.7 2865.0 C 358.7 2544.2, 331.8 2728.5, 441.3 2469.0 C 550.8 2209.4, 447.0 2211.2, 624.2 2112.1 C 801.4 2012.9, 696.0 1997.4, 873.2 2096.6 C 1050.4 2195.7, 932.2 2145.8, 1041.7 2405.4 C 1151.2 2665.0, 1139.2 2544.2, 1139.2 2865.0 Z" fill="none" stroke="#FFFFFF" stroke-opacity="0.22" stroke-width="1.2"/>
  <path d="M 979.9 1366.0 C 979.9 1613.5, 1114.3 1508.5, 977.9 1708.7 C 841.4 1909.0, 895.7 1740.0, 674.9 1816.5 C 454.1 1893.0, 599.7 1941.8, 378.9 1865.3 C 158.0 1788.8, 281.6 1879.7, 145.1 1679.5 C 8.7 1479.3, -21.2 1613.5, -21.2 1366.0 C -21.2 1118.5, -89.8 1282.2, 46.6 1082.0 C 183.1 881.8, 136.3 862.5, 357.1 786.0 C 578.0 709.5, 473.9 827.8, 694.8 904.3 C 915.6 980.8, 747.2 849.0, 883.7 1049.2 C 1020.1 1249.4, 979.9 1118.5, 979.9 1366.0 Z" fill="#DDEEFF" opacity="0.12" stroke="#FFFFFF" stroke-opacity="0.46" stroke-width="3" filter="url(#soft_ambient_06_4172)"/>
  <path d="M 979.9 1366.0 C 979.9 1613.5, 1114.3 1508.5, 977.9 1708.7 C 841.4 1909.0, 895.7 1740.0, 674.9 1816.5 C 454.1 1893.0, 599.7 1941.8, 378.9 1865.3 C 158.0 1788.8, 281.6 1879.7, 145.1 1679.5 C 8.7 1479.3, -21.2 1613.5, -21.2 1366.0 C -21.2 1118.5, -89.8 1282.2, 46.6 1082.0 C 183.1 881.8, 136.3 862.5, 357.1 786.0 C 578.0 709.5, 473.9 827.8, 694.8 904.3 C 915.6 980.8, 747.2 849.0, 883.7 1049.2 C 1020.1 1249.4, 979.9 1118.5, 979.9 1366.0 Z" fill="none" stroke="#FFFFFF" stroke-opacity="0.22" stroke-width="1.2"/>
  <path d="M 191.8 2025.0 C 191.8 2379.6, 225.3 2159.2, 154.6 2446.1 C 84.0 2733.0, 148.9 2721.9, 34.7 2831.5 C -79.6 2941.0, -10.9 2948.0, -125.1 2838.4 C -239.4 2728.8, -176.9 2744.5, -247.5 2457.7 C -318.1 2170.8, -342.0 2379.6, -342.0 2025.0 C -342.0 1670.4, -309.1 1792.9, -238.5 1506.0 C -167.9 1219.1, -251.0 1421.5, -136.7 1312.0 C -22.5 1202.4, -73.8 1091.0, 40.4 1200.6 C 154.7 1310.1, 88.1 1283.4, 158.7 1570.3 C 229.3 1857.2, 191.8 1670.4, 191.8 2025.0 Z" fill="#D6C2FF" opacity="0.12" stroke="#D6C2FF" stroke-opacity="0.46" stroke-width="3" filter="url(#soft_ambient_06_4172)"/>
  <path d="M 191.8 2025.0 C 191.8 2379.6, 225.3 2159.2, 154.6 2446.1 C 84.0 2733.0, 148.9 2721.9, 34.7 2831.5 C -79.6 2941.0, -10.9 2948.0, -125.1 2838.4 C -239.4 2728.8, -176.9 2744.5, -247.5 2457.7 C -318.1 2170.8, -342.0 2379.6, -342.0 2025.0 C -342.0 1670.4, -309.1 1792.9, -238.5 1506.0 C -167.9 1219.1, -251.0 1421.5, -136.7 1312.0 C -22.5 1202.4, -73.8 1091.0, 40.4 1200.6 C 154.7 1310.1, 88.1 1283.4, 158.7 1570.3 C 229.3 1857.2, 191.8 1670.4, 191.8 2025.0 Z" fill="none" stroke="#FFFFFF" stroke-opacity="0.22" stroke-width="1.2"/>
  <path d="M -100.0 2197.0 Q 133.3 2248.9, 366.7 1781.3 Q 600.0 1732.6, 833.3 2148.0 Q 1066.7 2239.6, 1300.0 1731.3" fill="none" stroke="#FFFFFF" stroke-opacity="0.38" stroke-width="4" filter="url(#soft_ambient_06_4172)"/>
  <path d="M -100.0 2197.0 Q 133.3 2248.9, 366.7 1781.3 Q 600.0 1732.6, 833.3 2148.0 Q 1066.7 2239.6, 1300.0 1731.3" fill="none" stroke="#D6C2FF" stroke-opacity="0.18" stroke-width="2"/>
  <path d="M -100.0 1340.6 Q 133.3 1600.0, 366.7 1230.8 Q 600.0 882.8, 833.3 1224.9 Q 1066.7 1558.4, 1300.0 1253.7" fill="none" stroke="#FFFFFF" stroke-opacity="0.38" stroke-width="4" filter="url(#soft_ambient_06_4172)"/>
  <path d="M -100.0 1340.6 Q 133.3 1600.0, 366.7 1230.8 Q 600.0 882.8, 833.3 1224.9 Q 1066.7 1558.4, 1300.0 1253.7" fill="none" stroke="#B6F5D1" stroke-opacity="0.18" stroke-width="2"/>
  <path d="M -100.0 1528.0 Q 133.3 1391.0, 366.7 1587.9 Q 600.0 1821.5, 833.3 1992.9 Q 1066.7 2046.4, 1300.0 1975.1" fill="none" stroke="#FFFFFF" stroke-opacity="0.38" stroke-width="4" filter="url(#soft_ambient_06_4172)"/>
  <path d="M -100.0 1528.0 Q 133.3 1391.0, 366.7 1587.9 Q 600.0 1821.5, 833.3 1992.9 Q 1066.7 2046.4, 1300.0 1975.1" fill="none" stroke="#A9EAF6" stroke-opacity="0.18" stroke-width="2"/>
  <path d="M -100.0 1859.0 Q 133.3 2048.6, 366.7 2063.1 Q 600.0 1958.8, 833.3 1703.1 Q 1066.7 1698.1, 1300.0 1873.3" fill="none" stroke="#FFFFFF" stroke-opacity="0.38" stroke-width="4" filter="url(#soft_ambient_06_4172)"/>
  <path d="M -100.0 1859.0 Q 133.3 2048.6, 366.7 2063.1 Q 600.0 1958.8, 833.3 1703.1 Q 1066.7 1698.1, 1300.0 1873.3" fill="none" stroke="#B6F5D1" stroke-opacity="0.18" stroke-width="2"/>
  <path d="M -100.0 1903.8 Q 133.3 1724.7, 366.7 1552.6 Q 600.0 1303.8, 833.3 1351.9 Q 1066.7 1601.5, 1300.0 1902.2" fill="none" stroke="#FFFFFF" stroke-opacity="0.38" stroke-width="4" filter="url(#soft_ambient_06_4172)"/>
  <path d="M -100.0 1903.8 Q 133.3 1724.7, 366.7 1552.6 Q 600.0 1303.8, 833.3 1351.9 Q 1066.7 1601.5, 1300.0 1902.2" fill="none" stroke="#B6F5D1" stroke-opacity="0.18" stroke-width="2"/>
  <circle cx="997" cy="1371" r="210" fill="url(#orb_ambient_06_4172)" opacity="0.36"/>
  <circle cx="997" cy="1371" r="210" fill="#DDEEFF" opacity="0.08"/>
  <circle cx="997" cy="1371" r="210" fill="none" stroke="#FFFFFF" stroke-opacity="0.56" stroke-width="3"/>
  <ellipse cx="938.2" cy="1295.4" rx="37.8" ry="16.8" fill="#FFFFFF" opacity="0.42" transform="rotate(-22 938.2 1295.4)"/>
  <circle cx="1016" cy="481" r="151" fill="url(#orb_ambient_06_4172)" opacity="0.36"/>
  <circle cx="1016" cy="481" r="151" fill="#A9EAF6" opacity="0.08"/>
  <circle cx="1016" cy="481" r="151" fill="none" stroke="#FFFFFF" stroke-opacity="0.56" stroke-width="3"/>
  <ellipse cx="973.7" cy="426.6" rx="27.2" ry="12.1" fill="#FFFFFF" opacity="0.42" transform="rotate(-22 973.7 426.6)"/>
  <circle cx="675" cy="2028" r="124" fill="url(#orb_ambient_06_4172)" opacity="0.36"/>
  <circle cx="675" cy="2028" r="124" fill="#B6F5D1" opacity="0.08"/>
  <circle cx="675" cy="2028" r="124" fill="none" stroke="#FFFFFF" stroke-opacity="0.56" stroke-width="3"/>
  <ellipse cx="640.3" cy="1983.4" rx="22.3" ry="9.9" fill="#FFFFFF" opacity="0.42" transform="rotate(-22 640.3 1983.4)"/>
  <circle cx="878" cy="316" r="250" fill="url(#orb_ambient_06_4172)" opacity="0.16"/>
  <circle cx="878" cy="316" r="250" fill="#A9EAF6" opacity="0.08"/>
  <circle cx="878" cy="316" r="250" fill="none" stroke="#FFFFFF" stroke-opacity="0.56" stroke-width="3"/>
  <ellipse cx="808.0" cy="226.0" rx="45.0" ry="20.0" fill="#FFFFFF" opacity="0.42" transform="rotate(-22 808.0 226.0)"/>
  <circle cx="218" cy="1213" r="82" fill="url(#orb_ambient_06_4172)" opacity="0.21"/>
  <circle cx="218" cy="1213" r="82" fill="#DDEEFF" opacity="0.08"/>
  <circle cx="218" cy="1213" r="82" fill="none" stroke="#FFFFFF" stroke-opacity="0.56" stroke-width="3"/>
  <ellipse cx="195.0" cy="1183.5" rx="14.8" ry="6.6" fill="#FFFFFF" opacity="0.42" transform="rotate(-22 195.0 1183.5)"/>
  <circle cx="197" cy="1781" r="127" fill="url(#orb_ambient_06_4172)" opacity="0.16"/>
  <circle cx="197" cy="1781" r="127" fill="#D6C2FF" opacity="0.08"/>
  <circle cx="197" cy="1781" r="127" fill="none" stroke="#FFFFFF" stroke-opacity="0.56" stroke-width="3"/>
  <ellipse cx="161.4" cy="1735.3" rx="22.9" ry="10.2" fill="#FFFFFF" opacity="0.42" transform="rotate(-22 161.4 1735.3)"/>
  <circle cx="309" cy="1010" r="266" fill="url(#orb_ambient_06_4172)" opacity="0.21"/>
  <circle cx="309" cy="1010" r="266" fill="#DDEEFF" opacity="0.08"/>
  <circle cx="309" cy="1010" r="266" fill="none" stroke="#FFFFFF" stroke-opacity="0.56" stroke-width="3"/>
  <ellipse cx="234.5" cy="914.2" rx="47.9" ry="21.3" fill="#FFFFFF" opacity="0.42" transform="rotate(-22 234.5 914.2)"/>
  <circle cx="1019" cy="2680" r="151" fill="url(#orb_ambient_06_4172)" opacity="0.20"/>
  <circle cx="1019" cy="2680" r="151" fill="#DDEEFF" opacity="0.08"/>
  <circle cx="1019" cy="2680" r="151" fill="none" stroke="#FFFFFF" stroke-opacity="0.56" stroke-width="3"/>
  <ellipse cx="976.7" cy="2625.6" rx="27.2" ry="12.1" fill="#FFFFFF" opacity="0.42" transform="rotate(-22 976.7 2625.6)"/>
  <circle cx="329" cy="2681" r="232" fill="url(#orb_ambient_06_4172)" opacity="0.26"/>
  <circle cx="329" cy="2681" r="232" fill="#FDFFFF" opacity="0.08"/>
  <circle cx="329" cy="2681" r="232" fill="none" stroke="#FFFFFF" stroke-opacity="0.56" stroke-width="3"/>
  <ellipse cx="264.0" cy="2597.5" rx="41.8" ry="18.6" fill="#FFFFFF" opacity="0.42" transform="rotate(-22 264.0 2597.5)"/>
  <circle cx="267" cy="85" r="3" fill="#FFFFFF" opacity="0.29"/>
  <circle cx="137" cy="1448" r="3" fill="#FFFFFF" opacity="0.49"/>
  <circle cx="16" cy="1024" r="4" fill="#FFFFFF" opacity="0.36"/>
  <circle cx="1047" cy="320" r="3" fill="#FFFFFF" opacity="0.44"/>
  <circle cx="111" cy="2036" r="2" fill="#FFFFFF" opacity="0.68"/>
  <circle cx="431" cy="1535" r="2" fill="#FFFFFF" opacity="0.48"/>
  <circle cx="896" cy="2240" r="3" fill="#FFFFFF" opacity="0.33"/>
  <circle cx="553" cy="1177" r="5" fill="#FFFFFF" opacity="0.43"/>
  <circle cx="1192" cy="1723" r="5" fill="#FFFFFF" opacity="0.32"/>
  <circle cx="1170" cy="995" r="5" fill="#FFFFFF" opacity="0.29"/>
  <circle cx="60" cy="2583" r="4" fill="#FFFFFF" opacity="0.72"/>
  <circle cx="352" cy="77" r="7" fill="#FFFFFF" opacity="0.59"/>
  <rect width="1200" height="2600" fill="#FFFFFF" opacity="0.08"/>
  <rect width="1200" height="2600" filter="url(#grain_ambient_06_4172)" opacity="0.7"/>
</svg>
