<svg xmlns="http://www.w3.org/2000/svg" width="1200" height="2600" viewBox="0 0 1200 2600" preserveAspectRatio="xMidYMid slice">
  <defs>
    <linearGradient id="bg_ambient_16_4152" x1="0" y1="0" x2="1" y2="1">
      <stop offset="0%" stop-color="#DDEEFF"/>
      <stop offset="48%" stop-color="#DFF8FF"/>
      <stop offset="100%" stop-color="#FDFFFF"/>
    </linearGradient>
    <radialGradient id="orb_ambient_16_4152" cx="35%" cy="30%" r="70%">
      <stop offset="0%" stop-color="#FFFFFF" stop-opacity="0.85"/>
      <stop offset="42%" stop-color="#FFFFFF" stop-opacity="0.20"/>
      <stop offset="100%" stop-color="#FFFFFF" stop-opacity="0.02"/>
    </radialGradient>
    <filter id="blur_ambient_16_4152" x="-30%" y="-30%" width="160%" height="160%">
      <feGaussianBlur stdDeviation="72"/>
    </filter>
    <filter id="soft_ambient_16_4152" x="-20%" y="-20%" width="140%" height="140%">
      <feGaussianBlur stdDeviation="10"/>
    </filter>
    <filter id="grain_ambient_16_4152">
      <feTurbulence type="fractalNoise" baseFrequency="0.85" numOctaves="2" stitchTiles="stitch"/>
      <feColorMatrix type="saturate" values="0"/>
      <feComponentTransfer>
        <feFuncA type="table" tableValues="0 0.035"/>
      </feComponentTransfer>
    </filter>
  </defs>
  <rect width="1200" height="2600" fill="url(#bg_ambient_16_4152)"/>
  <path d="M 532.8 1808.0 C 532.8 2028.5, 539.8 1967.6, 423.3 2136.5 C 306.7 2305.4, 352.2 2338.7, 173.6 2377.0 C -5.0 2415.3, 78.2 2311.7, -78.9 2201.5 C -236.0 2091.2, -281.2 2158.5, -343.2 1951.3 C -405.2 1744.1, -386.9 1820.6, -324.9 1613.4 C -262.9 1406.2, -258.3 1560.0, -101.2 1449.8 C 55.9 1339.5, -2.8 1298.6, 175.8 1336.9 C 354.4 1375.2, 270.6 1305.0, 387.1 1473.9 C 503.7 1642.8, 532.8 1587.5, 532.8 1808.0 Z" fill="#A9EAF6" opacity="0.21" filter="url(#blur_ambient_16_4152)"/>
  <path d="M 1271.3 124.0 C 1271.3 309.4, 1348.2 293.9, 1255.9 435.9 C 1163.7 578.0, 1178.0 434.6, 1036.7 466.8 C 895.3 499.0, 978.8 605.3, 854.5 512.6 C 730.2 419.9, 694.7 454.0, 645.6 279.8 C 596.5 105.6, 629.6 167.1, 678.7 -7.1 C 727.8 -181.3, 728.5 -141.7, 852.8 -234.4 C 977.2 -327.1, 904.5 -363.6, 1045.9 -331.4 C 1187.3 -299.2, 1156.4 -261.3, 1248.7 -119.3 C 1340.9 22.7, 1271.3 -61.4, 1271.3 124.0 Z" fill="#DDEEFF" opacity="0.16" filter="url(#blur_ambient_16_4152)"/>
  <path d="M 911.5 1966.0 C 911.5 2186.1, 875.9 2111.3, 786.0 2279.8 C 696.0 2448.4, 746.0 2354.0, 608.2 2392.2 C 470.3 2430.4, 505.8 2492.4, 384.6 2382.4 C 263.4 2272.4, 328.8 2358.8, 280.9 2152.1 C 233.0 1945.3, 237.4 2002.2, 285.2 1795.5 C 333.1 1588.7, 250.8 1707.9, 372.0 1597.8 C 493.2 1487.8, 463.8 1484.0, 601.7 1522.2 C 739.5 1560.4, 693.4 1501.9, 783.3 1670.4 C 873.3 1839.0, 911.5 1746.0, 911.5 1966.0 Z" fill="#D6C2FF" opacity="0.32" filter="url(#blur_ambient_16_4152)"/>
  <path d="M 1506.4 2306.0 C 1506.4 2432.9, 1541.5 2375.9, 1438.5 2473.1 C 1335.5 2570.3, 1345.3 2578.2, 1187.5 2600.2 C 1029.7 2622.2, 1077.1 2574.9, 938.3 2511.5 C 799.6 2448.0, 804.2 2538.8, 749.4 2419.5 C 694.6 2300.3, 732.7 2313.3, 787.5 2194.1 C 842.3 2074.8, 796.2 2110.6, 934.9 2047.2 C 1073.7 1983.7, 1021.9 1999.7, 1179.7 2021.8 C 1337.5 2043.8, 1316.9 2046.6, 1419.9 2143.8 C 1522.9 2241.1, 1506.4 2179.1, 1506.4 2306.0 Z" fill="#DFF8FF" opacity="0.29" filter="url(#blur_ambient_16_4152)"/>
  <path d="M 1385.3 2768.0 C 1385.3 3028.6, 1440.5 2990.3, 1312.1 3189.9 C 1183.7 3389.5, 1268.2 3361.4, 1071.5 3406.6 C 874.7 3451.9, 926.9 3417.3, 753.9 3287.0 C 580.9 3156.8, 641.7 3187.4, 573.4 2942.6 C 505.0 2697.7, 533.9 2781.6, 602.2 2536.7 C 670.6 2291.9, 573.9 2323.0, 747.0 2192.7 C 920.0 2062.5, 875.7 2073.8, 1072.4 2119.1 C 1269.2 2164.3, 1145.4 2229.1, 1273.9 2428.7 C 1402.3 2628.3, 1385.3 2507.4, 1385.3 2768.0 Z" fill="#D6C2FF" opacity="0.26" filter="url(#blur_ambient_16_4152)"/>
  <path d="M 1020.9 835.0 C 1020.9 1045.2, 1002.0 1007.2, 868.9 1168.2 C 735.9 1329.2, 787.8 1297.5, 583.9 1333.9 C 380.1 1370.4, 410.9 1365.5, 231.7 1260.5 C 52.4 1155.4, 144.5 1189.0, 73.7 991.5 C 2.9 794.0, -56.6 870.3, 14.2 672.8 C 85.0 475.3, 89.6 604.3, 268.9 499.2 C 448.1 394.1, 371.9 327.1, 575.8 363.6 C 779.7 400.1, 687.7 340.0, 820.7 501.0 C 953.8 661.9, 1020.9 624.9, 1020.9 835.0 Z" fill="#FFC7DA" opacity="0.31" filter="url(#blur_ambient_16_4152)"/>
  <path d="M 538.6 2286.0 C 538.6 2584.3, 499.0 2458.7, 399.8 2687.3 C 300.6 2915.8, 379.3 2806.5, 227.3 2858.3 C 75.3 2910.1, 165.7 2931.1, 32.0 2781.9 C -101.7 2632.7, -149.8 2822.8, -202.6 2542.4 C -255.4 2262.1, -144.1 2353.3, -91.3 2072.9 C -38.6 1792.6, -121.6 1911.3, 12.1 1762.1 C 145.7 1612.9, 76.8 1491.4, 228.8 1543.2 C 380.8 1595.0, 373.5 1555.9, 472.7 1784.5 C 571.9 2013.0, 538.6 1987.7, 538.6 2286.0 Z" fill="#FFECEF" opacity="0.26" filter="url(#blur_ambient_16_4152)"/>
  <path d="M 707.8 2093.0 C 707.8 2220.3, 700.2 2204.3, 583.1 2301.8 C 465.9 2399.4, 521.0 2368.5, 341.6 2390.6 C 162.1 2412.7, 236.9 2441.2, 79.0 2377.5 C -78.8 2313.8, -50.1 2325.7, -112.4 2206.0 C -174.7 2086.4, -136.5 2114.8, -74.1 1995.1 C -11.8 1875.5, -115.1 1922.6, 42.7 1859.0 C 200.6 1795.3, 177.3 1822.4, 356.8 1844.5 C 536.3 1866.6, 486.1 1829.4, 603.2 1927.0 C 720.4 2024.5, 707.8 1965.7, 707.8 2093.0 Z" fill="#DFF8FF" opacity="0.28" filter="url(#blur_ambient_16_4152)"/>
  <path d="M 1260.4 1700.0 C 1260.4 1905.7, 1230.0 1803.1, 1126.4 1960.6 C 1022.8 2118.1, 1069.3 2064.5, 910.6 2100.2 C 751.9 2135.9, 798.9 2234.6, 659.4 2131.7 C 519.9 2028.9, 627.0 2059.8, 571.9 1866.5 C 516.8 1673.3, 440.4 1716.9, 495.4 1523.6 C 550.5 1330.4, 552.5 1336.4, 692.0 1233.5 C 831.6 1130.7, 766.7 1186.2, 925.4 1221.9 C 1084.0 1257.6, 1008.2 1204.9, 1111.8 1362.4 C 1215.3 1520.0, 1260.4 1494.3, 1260.4 1700.0 Z" fill="#DDEEFF" opacity="0.32" filter="url(#blur_ambient_16_4152)"/>
  <path d="M 1156.7 971.0 C 1156.7 1148.8, 1148.0 1119.2, 1071.4 1255.4 C 994.7 1391.6, 1021.0 1316.0, 903.6 1346.9 C 786.1 1377.7, 843.6 1432.5, 740.3 1343.7 C 637.0 1254.8, 642.8 1296.8, 602.0 1129.8 C 561.2 962.8, 563.2 981.4, 604.0 814.4 C 644.8 647.3, 611.2 749.6, 714.5 660.8 C 817.7 571.9, 780.1 498.3, 897.5 529.1 C 1014.9 560.0, 996.0 597.1, 1072.7 733.3 C 1149.3 869.4, 1156.7 793.2, 1156.7 971.0 Z" fill="#FFC7DA" opacity="0.33" filter="url(#blur_ambient_16_4152)"/>
  <path d="M 730.9 1594.0 C 730.9 1777.6, 768.2 1678.5, 631.4 1819.1 C 494.6 1959.8, 573.7 1935.2, 364.1 1967.0 C 154.5 1998.9, 243.3 1991.2, 59.0 1899.4 C -125.3 1807.6, -61.7 1908.3, -134.5 1735.8 C -207.3 1563.3, -257.2 1630.2, -184.4 1457.7 C -111.6 1285.1, -184.3 1329.6, 0.1 1237.8 C 184.4 1146.0, 157.1 1164.1, 366.8 1195.9 C 576.4 1227.8, 551.5 1226.7, 688.3 1367.3 C 825.2 1508.0, 730.9 1410.4, 730.9 1594.0 Z" fill="#A9EAF6" opacity="0.37" filter="url(#blur_ambient_16_4152)"/>
  <path d="M 922.4 1023.0 C 922.4 1415.0, 899.6 1164.7, 745.1 1481.8 C 590.6 1798.9, 668.5 1800.7, 418.6 1921.9 C 168.6 2043.0, 355.5 2001.9, 105.6 1880.7 C -144.4 1759.6, -112.9 1896.1, -267.3 1579.0 C -421.8 1261.9, -349.5 1415.0, -349.5 1023.0 C -349.5 631.1, -427.2 794.6, -272.7 477.5 C -118.3 160.4, -182.9 240.2, 67.0 119.1 C 317.0 -2.0, 189.3 136.3, 439.2 257.4 C 689.2 378.6, 553.3 157.0, 707.8 474.1 C 862.2 791.2, 922.4 631.0, 922.4 1023.0 Z" fill="#DFFCED" opacity="0.12" stroke="#FFFFFF" stroke-opacity="0.46" stroke-width="3" filter="url(#soft_ambient_16_4152)"/>
  <path d="M 922.4 1023.0 C 922.4 1415.0, 899.6 1164.7, 745.1 1481.8 C 590.6 1798.9, 668.5 1800.7, 418.6 1921.9 C 168.6 2043.0, 355.5 2001.9, 105.6 1880.7 C -144.4 1759.6, -112.9 1896.1, -267.3 1579.0 C -421.8 1261.9, -349.5 1415.0, -349.5 1023.0 C -349.5 631.1, -427.2 794.6, -272.7 477.5 C -118.3 160.4, -182.9 240.2, 67.0 119.1 C 317.0 -2.0, 189.3 136.3, 439.2 257.4 C 689.2 378.6, 553.3 157.0, 707.8 474.1 C 862.2 791.2, 922.4 631.0, 922.4 1023.0 Z" fill="none" stroke="#FFFFFF" stroke-opacity="0.22" stroke-width="1.2"/>
  <path d="M 1472.0 2183.0 C 1472.0 2419.2, 1509.7 2320.6, 1398.4 2511.7 C 1287.0 2702.9, 1389.9 2599.6, 1209.7 2672.6 C 1029.5 2745.6, 1112.5 2697.8, 932.3 2624.8 C 752.1 2551.8, 809.9 2687.2, 698.6 2496.1 C 587.2 2304.9, 698.8 2419.2, 698.8 2183.0 C 698.8 1946.8, 612.9 2040.1, 724.3 1848.9 C 835.7 1657.8, 763.1 1761.4, 943.3 1688.4 C 1123.4 1615.4, 1009.2 1610.2, 1189.4 1683.2 C 1369.6 1756.2, 1335.5 1646.5, 1446.9 1837.7 C 1558.3 2028.8, 1472.0 1946.8, 1472.0 2183.0 Z" fill="#DDEEFF" opacity="0.12" stroke="#DDEEFF" stroke-opacity="0.46" stroke-width="3" filter="url(#soft_ambient_16_4152)"/>
  <path d="M 1472.0 2183.0 C 1472.0 2419.2, 1509.7 2320.6, 1398.4 2511.7 C 1287.0 2702.9, 1389.9 2599.6, 1209.7 2672.6 C 1029.5 2745.6, 1112.5 2697.8, 932.3 2624.8 C 752.1 2551.8, 809.9 2687.2, 698.6 2496.1 C 587.2 2304.9, 698.8 2419.2, 698.8 2183.0 C 698.8 1946.8, 612.9 2040.1, 724.3 1848.9 C 835.7 1657.8, 763.1 1761.4, 943.3 1688.4 C 1123.4 1615.4, 1009.2 1610.2, 1189.4 1683.2 C 1369.6 1756.2, 1335.5 1646.5, 1446.9 1837.7 C 1558.3 2028.8, 1472.0 1946.8, 1472.0 2183.0 Z" fill="none" stroke="#FFFFFF" stroke-opacity="0.22" stroke-width="1.2"/>
  <path d="M 1769.2 438.0 C 1769.2 782.7, 1896.1 629.0, 1747.8 907.9 C 1599.4 1186.7, 1649.6 1129.5, 1409.5 1236.0 C 1169.4 1342.5, 1296.4 1221.6, 1056.3 1115.0 C 816.3 1008.5, 938.5 1135.7, 790.1 856.9 C 641.8 578.0, 652.8 782.7, 652.8 438.0 C 652.8 93.3, 647.8 238.3, 796.2 -40.6 C 944.6 -319.5, 797.7 -141.1, 1037.8 -247.6 C 1277.9 -354.1, 1145.2 -436.7, 1385.3 -330.2 C 1625.4 -223.7, 1515.2 -282.5, 1663.6 -3.7 C 1812.0 275.2, 1769.2 93.3, 1769.2 438.0 Z" fill="#DFFCED" opacity="0.12" stroke="#FFFFFF" stroke-opacity="0.46" stroke-width="3" filter="url(#soft_ambient_16_4152)"/>
  <path d="M 1769.2 438.0 C 1769.2 782.7, 1896.1 629.0, 1747.8 907.9 C 1599.4 1186.7, 1649.6 1129.5, 1409.5 1236.0 C 1169.4 1342.5, 1296.4 1221.6, 1056.3 1115.0 C 816.3 1008.5, 938.5 1135.7, 790.1 856.9 C 641.8 578.0, 652.8 782.7, 652.8 438.0 C 652.8 93.3, 647.8 238.3, 796.2 -40.6 C 944.6 -319.5, 797.7 -141.1, 1037.8 -247.6 C 1277.9 -354.1, 1145.2 -436.7, 1385.3 -330.2 C 1625.4 -223.7, 1515.2 -282.5, 1663.6 -3.7 C 1812.0 275.2, 1769.2 93.3, 1769.2 438.0 Z" fill="none" stroke="#FFFFFF" stroke-opacity="0.22" stroke-width="1.2"/>
  <path d="M 1154.5 1291.0 C 1154.5 1682.5, 1147.9 1520.7, 1026.0 1837.5 C 904.1 2154.2, 963.1 2040.7, 765.8 2161.7 C 568.5 2282.6, 713.3 2283.5, 516.0 2162.5 C 318.8 2041.5, 383.4 2116.2, 261.4 1799.4 C 139.5 1482.7, 118.7 1682.5, 118.7 1291.0 C 118.7 899.5, 144.1 1088.4, 266.0 771.7 C 388.0 454.9, 303.6 587.1, 500.9 466.1 C 698.2 345.2, 581.1 421.3, 778.4 542.3 C 975.7 663.3, 902.0 398.9, 1023.9 715.7 C 1145.8 1032.4, 1154.5 899.5, 1154.5 1291.0 Z" fill="#FFECEF" opacity="0.12" stroke="#FFECEF" stroke-opacity="0.46" stroke-width="3" filter="url(#soft_ambient_16_4152)"/>
  <path d="M 1154.5 1291.0 C 1154.5 1682.5, 1147.9 1520.7, 1026.0 1837.5 C 904.1 2154.2, 963.1 2040.7, 765.8 2161.7 C 568.5 2282.6, 713.3 2283.5, 516.0 2162.5 C 318.8 2041.5, 383.4 2116.2, 261.4 1799.4 C 139.5 1482.7, 118.7 1682.5, 118.7 1291.0 C 118.7 899.5, 144.1 1088.4, 266.0 771.7 C 388.0 454.9, 303.6 587.1, 500.9 466.1 C 698.2 345.2, 581.1 421.3, 778.4 542.3 C 975.7 663.3, 902.0 398.9, 1023.9 715.7 C 1145.8 1032.4, 1154.5 899.5, 1154.5 1291.0 Z" fill="none" stroke="#FFFFFF" stroke-opacity="0.22" stroke-width="1.2"/>
  <path d="M 444.8 450.0 C 444.8 745.7, 451.4 608.6, 357.5 847.8 C 263.6 1086.9, 334.1 934.4, 182.2 1025.8 C 30.3 1117.1, 121.4 1124.0, -30.5 1032.6 C -182.4 941.2, -160.2 1026.5, -254.1 787.3 C -348.0 548.1, -260.1 745.7, -260.1 450.0 C -260.1 154.4, -340.0 295.3, -246.1 56.1 C -152.2 -183.1, -202.1 -20.6, -50.1 -111.9 C 101.8 -203.3, 31.1 -200.8, 183.1 -109.4 C 335.0 -18.0, 265.8 -148.6, 359.7 90.5 C 453.6 329.7, 444.8 154.3, 444.8 450.0 Z" fill="#FFECEF" opacity="0.12" stroke="#FFECEF" stroke-opacity="0.46" stroke-width="3" filter="url(#soft_ambient_16_4152)"/>
  <path d="M 444.8 450.0 C 444.8 745.7, 451.4 608.6, 357.5 847.8 C 263.6 1086.9, 334.1 934.4, 182.2 1025.8 C 30.3 1117.1, 121.4 1124.0, -30.5 1032.6 C -182.4 941.2, -160.2 1026.5, -254.1 787.3 C -348.0 548.1, -260.1 745.7, -260.1 450.0 C -260.1 154.4, -340.0 295.3, -246.1 56.1 C -152.2 -183.1, -202.1 -20.6, -50.1 -111.9 C 101.8 -203.3, 31.1 -200.8, 183.1 -109.4 C 335.0 -18.0, 265.8 -148.6, 359.7 90.5 C 453.6 329.7, 444.8 154.3, 444.8 450.0 Z" fill="none" stroke="#FFFFFF" stroke-opacity="0.22" stroke-width="1.2"/>
  <path d="M 1321.1 -256.0 C 1321.1 21.7, 1339.8 -73.6, 1202.5 151.0 C 1065.2 375.7, 1124.3 208.2, 902.1 294.0 C 680.0 379.7, 831.6 455.0, 609.5 369.2 C 387.4 283.4, 522.8 341.9, 385.5 117.3 C 248.2 -107.3, 275.8 21.7, 275.8 -256.0 C 275.8 -533.6, 225.6 -417.3, 362.9 -641.9 C 500.1 -866.5, 389.2 -682.4, 611.3 -768.2 C 833.4 -854.0, 711.4 -998.0, 933.5 -912.2 C 1155.7 -826.4, 1066.8 -818.8, 1204.1 -594.2 C 1341.3 -369.6, 1321.1 -533.7, 1321.1 -256.0 Z" fill="#DFFCED" opacity="0.12" stroke="#DFFCED" stroke-opacity="0.46" stroke-width="3" filter="url(#soft_ambient_16_4152)"/>
  <path d="M 1321.1 -256.0 C 1321.1 21.7, 1339.8 -73.6, 1202.5 151.0 C 1065.2 375.7, 1124.3 208.2, 902.1 294.0 C 680.0 379.7, 831.6 455.0, 609.5 369.2 C 387.4 283.4, 522.8 341.9, 385.5 117.3 C 248.2 -107.3, 275.8 21.7, 275.8 -256.0 C 275.8 -533.6, 225.6 -417.3, 362.9 -641.9 C 500.1 -866.5, 389.2 -682.4, 611.3 -768.2 C 833.4 -854.0, 711.4 -998.0, 933.5 -912.2 C 1155.7 -826.4, 1066.8 -818.8, 1204.1 -594.2 C 1341.3 -369.6, 1321.1 -533.7, 1321.1 -256.0 Z" fill="none" stroke="#FFFFFF" stroke-opacity="0.22" stroke-width="1.2"/>
  <path d="M -100.0 835.7 Q 133.3 782.1, 366.7 637.3 Q 600.0 565.9, 833.3 606.2 Q 1066.7 778.5, 1300.0 809.5" fill="none" stroke="#FFFFFF" stroke-opacity="0.38" stroke-width="4" filter="url(#soft_ambient_16_4152)"/>
  <path d="M -100.0 835.7 Q 133.3 782.1, 366.7 637.3 Q 600.0 565.9, 833.3 606.2 Q 1066.7 778.5, 1300.0 809.5" fill="none" stroke="#A9EAF6" stroke-opacity="0.18" stroke-width="2"/>
  <path d="M -100.0 259.0 Q 133.3 372.1, 366.7 180.3 Q 600.0 -66.2, 833.3 -220.4 Q 1066.7 -256.1, 1300.0 -153.6" fill="none" stroke="#FFFFFF" stroke-opacity="0.38" stroke-width="4" filter="url(#soft_ambient_16_4152)"/>
  <path d="M -100.0 259.0 Q 133.3 372.1, 366.7 180.3 Q 600.0 -66.2, 833.3 -220.4 Q 1066.7 -256.1, 1300.0 -153.6" fill="none" stroke="#D6C2FF" stroke-opacity="0.18" stroke-width="2"/>
  <path d="M -100.0 611.1 Q 133.3 341.1, 366.7 671.0 Q 600.0 916.8, 833.3 782.8 Q 1066.7 402.2, 1300.0 520.5" fill="none" stroke="#FFFFFF" stroke-opacity="0.38" stroke-width="4" filter="url(#soft_ambient_16_4152)"/>
  <path d="M -100.0 611.1 Q 133.3 341.1, 366.7 671.0 Q 600.0 916.8, 833.3 782.8 Q 1066.7 402.2, 1300.0 520.5" fill="none" stroke="#A9EAF6" stroke-opacity="0.18" stroke-width="2"/>
  <circle cx="417" cy="1534" r="108" fill="url(#orb_ambient_16_4152)" opacity="0.36"/>
  <circle cx="417" cy="1534" r="108" fill="#A9EAF6" opacity="0.08"/>
  <circle cx="417" cy="1534" r="108" fill="none" stroke="#FFFFFF" stroke-opacity="0.56" stroke-width="3"/>
  <ellipse cx="386.8" cy="1495.1" rx="19.4" ry="8.6" fill="#FFFFFF" opacity="0.42" transform="rotate(-22 386.8 1495.1)"/>
  <circle cx="509" cy="1489" r="113" fill="url(#orb_ambient_16_4152)" opacity="0.36"/>
  <circle cx="509" cy="1489" r="113" fill="#EEE5FF" opacity="0.08"/>
  <circle cx="509" cy="1489" r="113" fill="none" stroke="#FFFFFF" stroke-opacity="0.56" stroke-width="3"/>
  <ellipse cx="477.4" cy="1448.3" rx="20.3" ry="9.0" fill="#FFFFFF" opacity="0.42" transform="rotate(-22 477.4 1448.3)"/>
  <circle cx="642" cy="2082" r="248" fill="url(#orb_ambient_16_4152)" opacity="0.36"/>
  <circle cx="642" cy="2082" r="248" fill="#DDEEFF" opacity="0.08"/>
  <circle cx="642" cy="2082" r="248" fill="none" stroke="#FFFFFF" stroke-opacity="0.56" stroke-width="3"/>
  <ellipse cx="572.6" cy="1992.7" rx="44.6" ry="19.8" fill="#FFFFFF" opacity="0.42" transform="rotate(-22 572.6 1992.7)"/>
  <circle cx="729" cy="1951" r="156" fill="url(#orb_ambient_16_4152)" opacity="0.26"/>
  <circle cx="729" cy="1951" r="156" fill="#DFFCED" opacity="0.08"/>
  <circle cx="729" cy="1951" r="156" fill="none" stroke="#FFFFFF" stroke-opacity="0.56" stroke-width="3"/>
  <ellipse cx="685.3" cy="1894.8" rx="28.1" ry="12.5" fill="#FFFFFF" opacity="0.42" transform="rotate(-22 685.3 1894.8)"/>
  <circle cx="495" cy="1945" r="149" fill="url(#orb_ambient_16_4152)" opacity="0.23"/>
  <circle cx="495" cy="1945" r="149" fill="#DFFCED" opacity="0.08"/>
  <circle cx="495" cy="1945" r="149" fill="none" stroke="#FFFFFF" stroke-opacity="0.56" stroke-width="3"/>
  <ellipse cx="453.3" cy="1891.4" rx="26.8" ry="11.9" fill="#FFFFFF" opacity="0.42" transform="rotate(-22 453.3 1891.4)"/>
  <circle cx="503" cy="194" r="244" fill="url(#orb_ambient_16_4152)" opacity="0.18"/>
  <circle cx="503" cy="194" r="244" fill="#FDFFFF" opacity="0.08"/>
  <circle cx="503" cy="194" r="244" fill="none" stroke="#FFFFFF" stroke-opacity="0.56" stroke-width="3"/>
  <ellipse cx="434.7" cy="106.2" rx="43.9" ry="19.5" fill="#FFFFFF" opacity="0.42" transform="rotate(-22 434.7 106.2)"/>
  <circle cx="1276" cy="1127" r="284" fill="url(#orb_ambient_16_4152)" opacity="0.24"/>
  <circle cx="1276" cy="1127" r="284" fill="#B6F5D1" opacity="0.08"/>
  <circle cx="1276" cy="1127" r="284" fill="none" stroke="#FFFFFF" stroke-opacity="0.56" stroke-width="3"/>
  <ellipse cx="1196.5" cy="1024.8" rx="51.1" ry="22.7" fill="#FFFFFF" opacity="0.42" transform="rotate(-22 1196.5 1024.8)"/>
  <circle cx="538" cy="1714" r="111" fill="url(#orb_ambient_16_4152)" opacity="0.26"/>
  <circle cx="538" cy="1714" r="111" fill="#DDEEFF" opacity="0.08"/>
  <circle cx="538" cy="1714" r="111" fill="none" stroke="#FFFFFF" stroke-opacity="0.56" stroke-width="3"/>
  <ellipse cx="506.9" cy="1674.0" rx="20.0" ry="8.9" fill="#FFFFFF" opacity="0.42" transform="rotate(-22 506.9 1674.0)"/>
  <circle cx="1267" cy="2583" r="83" fill="url(#orb_ambient_16_4152)" opacity="0.27"/>
  <circle cx="1267" cy="2583" r="83" fill="#EEE5FF" opacity="0.08"/>
  <circle cx="1267" cy="2583" r="83" fill="none" stroke="#FFFFFF" stroke-opacity="0.56" stroke-width="3"/>
  <ellipse cx="1243.8" cy="2553.1" rx="14.9" ry="6.6" fill="#FFFFFF" opacity="0.42" transform="rotate(-22 1243.8 2553.1)"/>
  <circle cx="128" cy="93" r="165" fill="url(#orb_ambient_16_4152)" opacity="0.28"/>
  <circle cx="128" cy="93" r="165" fill="#FDFFFF" opacity="0.08"/>
  <circle cx="128" cy="93" r="165" fill="none" stroke="#FFFFFF" stroke-opacity="0.56" stroke-width="3"/>
  <ellipse cx="81.8" cy="33.6" rx="29.7" ry="13.2" fill="#FFFFFF" opacity="0.42" transform="rotate(-22 81.8 33.6)"/>
  <circle cx="501" cy="250" r="80" fill="url(#orb_ambient_16_4152)" opacity="0.25"/>
  <circle cx="501" cy="250" r="80" fill="#B6F5D1" opacity="0.08"/>
  <circle cx="501" cy="250" r="80" fill="none" stroke="#FFFFFF" stroke-opacity="0.56" stroke-width="3"/>
  <ellipse cx="478.6" cy="221.2" rx="14.4" ry="6.4" fill="#FFFFFF" opacity="0.42" transform="rotate(-22 478.6 221.2)"/>
  <circle cx="32" cy="1387" r="7" fill="#FFFFFF" opacity="0.55"/>
  <circle cx="813" cy="212" r="3" fill="#FFFFFF" opacity="0.66"/>
  <circle cx="882" cy="968" r="3" fill="#FFFFFF" opacity="0.47"/>
  <circle cx="531" cy="2107" r="5" fill="#FFFFFF" opacity="0.58"/>
  <circle cx="253" cy="1840" r="7" fill="#FFFFFF" opacity="0.33"/>
  <circle cx="565" cy="1730" r="4" fill="#FFFFFF" opacity="0.55"/>
  <circle cx="238" cy="1923" r="4" fill="#FFFFFF" opacity="0.51"/>
  <circle cx="254" cy="133" r="4" fill="#FFFFFF" opacity="0.60"/>
  <circle cx="901" cy="225" r="3" fill="#FFFFFF" opacity="0.65"/>
  <circle cx="687" cy="1114" r="2" fill="#FFFFFF" opacity="0.60"/>
  <circle cx="765" cy="1834" r="5" fill="#FFFFFF" opacity="0.32"/>
  <circle cx="285" cy="1898" r="3" fill="#FFFFFF" opacity="0.72"/>
  <circle cx="321" cy="971" r="3" fill="#FFFFFF" opacity="0.66"/>
  <rect width="1200" height="2600" fill="#FFFFFF" opacity="0.08"/>
  <rect width="1200" height="2600" filter="url(#grain_ambient_16_4152)" opacity="0.7"/>
</svg>
