<svg xmlns="http://www.w3.org/2000/svg" width="1200" height="2600" viewBox="0 0 1200 2600" preserveAspectRatio="xMidYMid slice">
  <defs>
    <linearGradient id="bg_ambient_17_2372" x1="0" y1="0" x2="1" y2="1">
      <stop offset="0%" stop-color="#FFECEF"/>
      <stop offset="48%" stop-color="#EEE5FF"/>
      <stop offset="100%" stop-color="#FDFFFF"/>
    </linearGradient>
    <radialGradient id="orb_ambient_17_2372" cx="35%" cy="30%" r="70%">
      <stop offset="0%" stop-color="#FFFFFF" stop-opacity="0.85"/>
      <stop offset="42%" stop-color="#FFFFFF" stop-opacity="0.20"/>
      <stop offset="100%" stop-color="#FFFFFF" stop-opacity="0.02"/>
    </radialGradient>
    <filter id="blur_ambient_17_2372" x="-30%" y="-30%" width="160%" height="160%">
      <feGaussianBlur stdDeviation="72"/>
    </filter>
    <filter id="soft_ambient_17_2372" x="-20%" y="-20%" width="140%" height="140%">
      <feGaussianBlur stdDeviation="10"/>
    </filter>
    <filter id="grain_ambient_17_2372">
      <feTurbulence type="fractalNoise" baseFrequency="0.85" numOctaves="2" stitchTiles="stitch"/>
      <feColorMatrix type="saturate" values="0"/>
      <feComponentTransfer>
        <feFuncA type="table" tableValues="0 0.035"/>
      </feComponentTransfer>
    </filter>
  </defs>
  <rect width="1200" height="2600" fill="url(#bg_ambient_17_2372)"/>
  <path d="M 625.5 300.0 C 625.5 519.1, 679.7 496.7, 609.7 664.6 C 539.7 832.5, 561.6 697.2, 454.4 735.2 C 347.1 773.3, 373.8 828.2, 279.5 718.6 C 185.2 609.0, 191.0 692.9, 153.8 487.0 C 116.5 281.0, 139.0 321.4, 176.2 115.5 C 213.5 -90.5, 214.8 -77.5, 309.1 -187.1 C 403.4 -296.7, 349.5 -164.9, 456.8 -126.8 C 564.0 -88.7, 518.7 -228.4, 588.7 -60.6 C 658.7 107.3, 625.5 80.8, 625.5 300.0 Z" fill="#DFF8FF" opacity="0.31" filter="url(#blur_ambient_17_2372)"/>
  <path d="M 788.8 2835.0 C 788.8 3094.7, 829.2 3021.3, 755.1 3220.2 C 681.1 3419.1, 722.3 3286.2, 608.8 3331.3 C 495.4 3376.4, 532.4 3414.1, 432.6 3284.3 C 332.8 3154.4, 348.0 3246.0, 308.6 3002.0 C 269.2 2758.0, 285.6 2876.8, 325.0 2632.8 C 364.4 2388.9, 328.5 2505.9, 428.2 2376.1 C 528.0 2246.3, 506.4 2265.0, 619.8 2310.1 C 733.3 2355.2, 692.4 2281.7, 766.4 2480.6 C 840.5 2679.5, 788.8 2575.3, 788.8 2835.0 Z" fill="#FFECEF" opacity="0.21" filter="url(#blur_ambient_17_2372)"/>
  <path d="M 623.9 492.0 C 623.9 690.0, 602.3 618.4, 522.7 770.0 C 443.2 921.7, 473.6 861.8, 351.7 896.1 C 229.9 930.5, 302.3 997.7, 195.2 898.7 C 88.0 799.7, 63.8 836.1, 21.4 650.1 C -20.9 464.0, -38.0 515.7, 4.3 329.7 C 46.7 143.6, 56.8 191.0, 163.9 92.0 C 271.1 -7.0, 231.3 98.3, 353.1 132.7 C 475.0 167.1, 443.9 17.2, 523.5 168.9 C 603.0 320.5, 623.9 294.0, 623.9 492.0 Z" fill="#FFC7DA" opacity="0.32" filter="url(#blur_ambient_17_2372)"/>
  <path d="M 1376.1 2758.0 C 1376.1 3032.1, 1457.8 2950.8, 1358.9 3160.8 C 1260.0 3370.7, 1295.1 3334.6, 1143.5 3382.2 C 992.0 3429.8, 1058.4 3329.8, 925.1 3192.8 C 791.8 3055.8, 876.5 3233.9, 823.8 2976.4 C 771.2 2718.8, 691.0 2816.8, 743.6 2559.3 C 796.3 2301.8, 759.4 2289.8, 892.7 2152.7 C 1026.0 2015.7, 1001.4 2085.1, 1152.9 2132.7 C 1304.5 2180.3, 1261.8 2212.9, 1360.7 2422.8 C 1459.7 2632.8, 1376.1 2483.9, 1376.1 2758.0 Z" fill="#EEE5FF" opacity="0.37" filter="url(#blur_ambient_17_2372)"/>
  <path d="M 408.0 1728.0 C 408.0 1987.2, 370.0 1938.4, 266.2 2137.0 C 162.4 2335.5, 267.5 2155.1, 108.4 2200.1 C -50.7 2245.1, 30.8 2439.1, -109.1 2309.5 C -249.0 2179.9, -245.3 2150.6, -300.6 1907.1 C -355.8 1663.5, -380.7 1752.6, -325.4 1509.0 C -270.2 1265.4, -276.1 1329.0, -136.2 1199.4 C 3.7 1069.8, -48.6 1157.7, 110.4 1202.7 C 269.5 1247.7, 209.5 1210.4, 313.3 1409.0 C 417.1 1607.5, 408.0 1468.8, 408.0 1728.0 Z" fill="#D6C2FF" opacity="0.33" filter="url(#blur_ambient_17_2372)"/>
  <path d="M 1160.9 1355.0 C 1160.9 1556.6, 1232.3 1453.0, 1082.7 1607.4 C 933.2 1761.9, 1015.4 1822.9, 786.3 1857.9 C 557.1 1892.9, 654.3 1873.7, 452.8 1772.9 C 251.4 1672.1, 260.2 1698.0, 180.6 1508.6 C 101.1 1319.2, 185.4 1366.2, 265.0 1176.8 C 344.5 987.3, 213.0 1116.9, 414.5 1016.1 C 616.0 915.3, 552.2 922.5, 781.3 957.5 C 1010.5 992.5, 867.5 929.9, 1017.1 1084.3 C 1166.6 1238.8, 1160.9 1153.4, 1160.9 1355.0 Z" fill="#DFF8FF" opacity="0.32" filter="url(#blur_ambient_17_2372)"/>
  <path d="M 1065.7 468.0 C 1065.7 704.7, 1145.9 651.2, 1000.4 832.5 C 855.0 1013.8, 883.0 948.4, 660.1 989.5 C 437.2 1030.6, 483.9 1072.6, 287.8 954.3 C 91.8 835.9, 119.5 841.1, 42.1 618.6 C -35.3 396.2, -16.1 499.8, 61.3 277.3 C 138.7 54.9, 138.5 154.1, 334.5 35.7 C 530.5 -82.6, 445.9 -79.1, 668.8 -38.0 C 891.8 3.1, 801.4 -95.0, 946.9 86.3 C 1092.4 267.7, 1065.7 231.3, 1065.7 468.0 Z" fill="#FFECEF" opacity="0.32" filter="url(#blur_ambient_17_2372)"/>
  <path d="M 444.7 1955.0 C 444.7 2216.4, 459.0 2170.9, 369.0 2371.2 C 279.0 2571.5, 303.5 2567.5, 165.7 2612.9 C 27.9 2658.3, 106.9 2674.0, -14.3 2543.3 C -135.5 2412.6, -119.9 2381.8, -167.7 2136.1 C -215.6 1890.5, -195.9 1968.4, -148.0 1722.7 C -100.2 1477.0, -144.6 1530.1, -23.4 1399.4 C 97.8 1268.7, 38.6 1259.1, 176.4 1304.5 C 314.3 1349.9, 276.1 1319.2, 366.1 1519.5 C 456.0 1719.8, 444.7 1693.5, 444.7 1955.0 Z" fill="#EEE5FF" opacity="0.24" filter="url(#blur_ambient_17_2372)"/>
  <path d="M 1508.1 971.0 C 1508.1 1280.6, 1408.2 1195.2, 1248.8 1432.3 C 1089.4 1669.5, 1207.2 1500.4, 963.0 1554.2 C 718.9 1608.0, 867.0 1619.4, 652.3 1464.6 C 437.6 1309.8, 368.9 1511.8, 284.1 1220.9 C 199.3 929.9, 207.3 1012.6, 292.1 721.7 C 376.9 430.8, 426.7 604.0, 641.5 449.2 C 856.2 294.4, 719.9 195.0, 964.1 248.8 C 1208.3 302.6, 1156.2 270.3, 1315.6 507.5 C 1475.0 744.7, 1508.1 661.4, 1508.1 971.0 Z" fill="#B6F5D1" opacity="0.24" filter="url(#blur_ambient_17_2372)"/>
  <path d="M 368.7 684.0 C 368.7 844.6, 384.3 822.3, 245.4 945.3 C 106.6 1068.4, 222.5 984.9, 9.8 1012.8 C -202.9 1040.7, -78.0 1030.3, -265.0 950.0 C -452.1 869.7, -389.9 951.8, -463.8 800.8 C -537.7 649.8, -594.7 730.2, -520.8 579.2 C -446.9 428.3, -453.6 406.4, -266.5 326.1 C -79.5 245.8, -187.4 261.9, 25.4 289.8 C 238.1 317.7, 206.8 366.3, 345.6 489.4 C 484.4 612.4, 368.7 523.4, 368.7 684.0 Z" fill="#A9EAF6" opacity="0.26" filter="url(#blur_ambient_17_2372)"/>
  <path d="M 1204.8 95.0 C 1204.8 311.5, 1339.6 236.0, 1222.2 401.8 C 1104.7 567.6, 1115.3 456.8, 935.4 494.4 C 755.5 532.0, 855.1 644.7, 696.9 536.5 C 538.7 428.3, 542.8 434.6, 480.4 231.2 C 417.9 27.8, 361.2 108.5, 423.7 -94.9 C 486.2 -298.2, 495.8 -217.8, 654.0 -326.0 C 812.2 -434.2, 768.3 -369.4, 948.2 -331.8 C 1128.1 -294.2, 1012.7 -360.1, 1130.1 -194.3 C 1247.6 -28.5, 1204.8 -121.5, 1204.8 95.0 Z" fill="#A9EAF6" opacity="0.35" filter="url(#blur_ambient_17_2372)"/>
  <path d="M 1334.9 2450.0 C 1334.9 2736.7, 1318.0 2611.1, 1186.8 2843.0 C 1055.6 3074.9, 1169.3 3024.9, 957.0 3113.5 C 744.7 3202.0, 867.7 3063.8, 655.4 2975.2 C 443.2 2886.6, 569.8 3005.7, 438.6 2773.8 C 307.4 2541.9, 395.3 2736.7, 395.3 2450.0 C 395.3 2163.3, 268.4 2344.5, 399.6 2112.6 C 530.8 1880.7, 478.4 1888.3, 690.7 1799.7 C 903.0 1711.2, 778.0 1790.1, 990.3 1878.7 C 1202.5 1967.3, 1049.8 1817.2, 1181.0 2049.1 C 1312.2 2281.0, 1334.9 2163.3, 1334.9 2450.0 Z" fill="#EEE5FF" opacity="0.12" stroke="#FFFFFF" stroke-opacity="0.46" stroke-width="3" filter="url(#soft_ambient_17_2372)"/>
  <path d="M 1334.9 2450.0 C 1334.9 2736.7, 1318.0 2611.1, 1186.8 2843.0 C 1055.6 3074.9, 1169.3 3024.9, 957.0 3113.5 C 744.7 3202.0, 867.7 3063.8, 655.4 2975.2 C 443.2 2886.6, 569.8 3005.7, 438.6 2773.8 C 307.4 2541.9, 395.3 2736.7, 395.3 2450.0 C 395.3 2163.3, 268.4 2344.5, 399.6 2112.6 C 530.8 1880.7, 478.4 1888.3, 690.7 1799.7 C 903.0 1711.2, 778.0 1790.1, 990.3 1878.7 C 1202.5 1967.3, 1049.8 1817.2, 1181.0 2049.1 C 1312.2 2281.0, 1334.9 2163.3, 1334.9 2450.0 Z" fill="none" stroke="#FFFFFF" stroke-opacity="0.22" stroke-width="1.2"/>
  <path d="M 630.8 1168.0 C 630.8 1359.2, 734.0 1240.8, 577.2 1395.5 C 420.3 1550.3, 460.0 1501.0, 206.2 1560.1 C -47.6 1619.2, 98.8 1626.4, -155.0 1567.3 C -408.8 1508.2, -274.7 1556.8, -431.6 1402.1 C -588.4 1247.4, -488.6 1359.2, -488.6 1168.0 C -488.6 976.8, -576.4 1053.7, -419.5 898.9 C -262.7 744.2, -370.8 851.3, -117.0 792.2 C 136.8 733.1, -9.7 725.6, 244.1 784.7 C 497.9 843.8, 416.5 776.3, 573.4 931.1 C 730.2 1085.8, 630.8 976.8, 630.8 1168.0 Z" fill="#EEE5FF" opacity="0.12" stroke="#FFFFFF" stroke-opacity="0.46" stroke-width="3" filter="url(#soft_ambient_17_2372)"/>
  <path d="M 630.8 1168.0 C 630.8 1359.2, 734.0 1240.8, 577.2 1395.5 C 420.3 1550.3, 460.0 1501.0, 206.2 1560.1 C -47.6 1619.2, 98.8 1626.4, -155.0 1567.3 C -408.8 1508.2, -274.7 1556.8, -431.6 1402.1 C -588.4 1247.4, -488.6 1359.2, -488.6 1168.0 C -488.6 976.8, -576.4 1053.7, -419.5 898.9 C -262.7 744.2, -370.8 851.3, -117.0 792.2 C 136.8 733.1, -9.7 725.6, 244.1 784.7 C 497.9 843.8, 416.5 776.3, 573.4 931.1 C 730.2 1085.8, 630.8 976.8, 630.8 1168.0 Z" fill="none" stroke="#FFFFFF" stroke-opacity="0.22" stroke-width="1.2"/>
  <path d="M 679.5 -101.0 C 679.5 163.6, 661.2 53.9, 500.1 267.9 C 339.0 482.0, 433.4 364.7, 172.8 446.5 C -87.9 528.2, 89.9 492.8, -170.7 411.0 C -431.4 329.2, -301.0 412.4, -462.1 198.3 C -623.1 -15.7, -602.6 163.6, -602.6 -101.0 C -602.6 -365.6, -702.0 -196.0, -540.9 -410.1 C -379.8 -624.2, -480.5 -521.8, -219.9 -603.6 C 40.7 -685.3, -85.2 -768.2, 175.4 -686.4 C 436.0 -604.6, 387.5 -642.4, 548.6 -428.3 C 709.6 -214.2, 679.5 -365.6, 679.5 -101.0 Z" fill="#FFC7DA" opacity="0.12" stroke="#FFC7DA" stroke-opacity="0.46" stroke-width="3" filter="url(#soft_ambient_17_2372)"/>
  <path d="M 679.5 -101.0 C 679.5 163.6, 661.2 53.9, 500.1 267.9 C 339.0 482.0, 433.4 364.7, 172.8 446.5 C -87.9 528.2, 89.9 492.8, -170.7 411.0 C -431.4 329.2, -301.0 412.4, -462.1 198.3 C -623.1 -15.7, -602.6 163.6, -602.6 -101.0 C -602.6 -365.6, -702.0 -196.0, -540.9 -410.1 C -379.8 -624.2, -480.5 -521.8, -219.9 -603.6 C 40.7 -685.3, -85.2 -768.2, 175.4 -686.4 C 436.0 -604.6, 387.5 -642.4, 548.6 -428.3 C 709.6 -214.2, 679.5 -365.6, 679.5 -101.0 Z" fill="none" stroke="#FFFFFF" stroke-opacity="0.22" stroke-width="1.2"/>
  <path d="M 1661.7 2073.0 C 1661.7 2421.3, 1794.1 2193.1, 1654.4 2474.8 C 1514.8 2756.6, 1572.1 2795.0, 1346.1 2902.6 C 1120.1 3010.2, 1261.0 3006.1, 1035.0 2898.5 C 809.1 2790.9, 953.9 2781.9, 814.2 2500.1 C 674.5 2218.4, 703.0 2421.3, 703.0 2073.0 C 703.0 1724.7, 656.3 1866.3, 795.9 1584.5 C 935.6 1302.7, 792.8 1535.7, 1018.8 1428.0 C 1244.7 1320.4, 1120.4 1205.1, 1346.3 1312.8 C 1572.3 1420.4, 1416.2 1319.8, 1555.9 1601.6 C 1695.6 1883.4, 1661.7 1724.7, 1661.7 2073.0 Z" fill="#DFF8FF" opacity="0.12" stroke="#DFF8FF" stroke-opacity="0.46" stroke-width="3" filter="url(#soft_ambient_17_2372)"/>
  <path d="M 1661.7 2073.0 C 1661.7 2421.3, 1794.1 2193.1, 1654.4 2474.8 C 1514.8 2756.6, 1572.1 2795.0, 1346.1 2902.6 C 1120.1 3010.2, 1261.0 3006.1, 1035.0 2898.5 C 809.1 2790.9, 953.9 2781.9, 814.2 2500.1 C 674.5 2218.4, 703.0 2421.3, 703.0 2073.0 C 703.0 1724.7, 656.3 1866.3, 795.9 1584.5 C 935.6 1302.7, 792.8 1535.7, 1018.8 1428.0 C 1244.7 1320.4, 1120.4 1205.1, 1346.3 1312.8 C 1572.3 1420.4, 1416.2 1319.8, 1555.9 1601.6 C 1695.6 1883.4, 1661.7 1724.7, 1661.7 2073.0 Z" fill="none" stroke="#FFFFFF" stroke-opacity="0.22" stroke-width="1.2"/>
  <path d="M 1536.9 1649.0 C 1536.9 1881.2, 1462.2 1761.6, 1332.1 1949.4 C 1201.9 2137.3, 1365.9 2019.7, 1155.3 2091.4 C 944.7 2163.2, 1061.5 2259.4, 851.0 2187.7 C 640.4 2115.9, 665.3 2177.4, 535.2 1989.6 C 405.0 1801.7, 517.2 1881.2, 517.2 1649.0 C 517.2 1416.8, 451.1 1532.5, 581.3 1344.6 C 711.4 1156.8, 617.6 1213.1, 828.2 1141.3 C 1038.7 1069.5, 906.0 1041.7, 1116.5 1113.4 C 1327.1 1185.2, 1198.4 1162.2, 1328.6 1350.0 C 1458.7 1537.9, 1536.9 1416.8, 1536.9 1649.0 Z" fill="#DFFCED" opacity="0.12" stroke="#DFFCED" stroke-opacity="0.46" stroke-width="3" filter="url(#soft_ambient_17_2372)"/>
  <path d="M 1536.9 1649.0 C 1536.9 1881.2, 1462.2 1761.6, 1332.1 1949.4 C 1201.9 2137.3, 1365.9 2019.7, 1155.3 2091.4 C 944.7 2163.2, 1061.5 2259.4, 851.0 2187.7 C 640.4 2115.9, 665.3 2177.4, 535.2 1989.6 C 405.0 1801.7, 517.2 1881.2, 517.2 1649.0 C 517.2 1416.8, 451.1 1532.5, 581.3 1344.6 C 711.4 1156.8, 617.6 1213.1, 828.2 1141.3 C 1038.7 1069.5, 906.0 1041.7, 1116.5 1113.4 C 1327.1 1185.2, 1198.4 1162.2, 1328.6 1350.0 C 1458.7 1537.9, 1536.9 1416.8, 1536.9 1649.0 Z" fill="none" stroke="#FFFFFF" stroke-opacity="0.22" stroke-width="1.2"/>
  <path d="M -100.0 1868.4 Q 133.3 2055.9, 366.7 1673.8 Q 600.0 1607.8, 833.3 1859.2 Q 1066.7 1895.3, 1300.0 1688.5" fill="none" stroke="#FFFFFF" stroke-opacity="0.38" stroke-width="4" filter="url(#soft_ambient_17_2372)"/>
  <path d="M -100.0 1868.4 Q 133.3 2055.9, 366.7 1673.8 Q 600.0 1607.8, 833.3 1859.2 Q 1066.7 1895.3, 1300.0 1688.5" fill="none" stroke="#B6F5D1" stroke-opacity="0.18" stroke-width="2"/>
  <path d="M -100.0 2262.9 Q 133.3 1973.2, 366.7 2229.3 Q 600.0 2632.2, 833.3 2578.3 Q 1066.7 2300.1, 1300.0 2092.2" fill="none" stroke="#FFFFFF" stroke-opacity="0.38" stroke-width="4" filter="url(#soft_ambient_17_2372)"/>
  <path d="M -100.0 2262.9 Q 133.3 1973.2, 366.7 2229.3 Q 600.0 2632.2, 833.3 2578.3 Q 1066.7 2300.1, 1300.0 2092.2" fill="none" stroke="#FFC7DA" stroke-opacity="0.18" stroke-width="2"/>
  <path d="M -100.0 1115.8 Q 133.3 991.8, 366.7 1177.7 Q 600.0 1296.4, 833.3 1232.7 Q 1066.7 1124.5, 1300.0 1096.3" fill="none" stroke="#FFFFFF" stroke-opacity="0.38" stroke-width="4" filter="url(#soft_ambient_17_2372)"/>
  <path d="M -100.0 1115.8 Q 133.3 991.8, 366.7 1177.7 Q 600.0 1296.4, 833.3 1232.7 Q 1066.7 1124.5, 1300.0 1096.3" fill="none" stroke="#FFC7DA" stroke-opacity="0.18" stroke-width="2"/>
  <path d="M -100.0 203.2 Q 133.3 167.1, 366.7 -7.8 Q 600.0 -159.0, 833.3 194.5 Q 1066.7 276.3, 1300.0 -21.4" fill="none" stroke="#FFFFFF" stroke-opacity="0.38" stroke-width="4" filter="url(#soft_ambient_17_2372)"/>
  <path d="M -100.0 203.2 Q 133.3 167.1, 366.7 -7.8 Q 600.0 -159.0, 833.3 194.5 Q 1066.7 276.3, 1300.0 -21.4" fill="none" stroke="#FFC7DA" stroke-opacity="0.18" stroke-width="2"/>
  <path d="M -100.0 178.9 Q 133.3 5.6, 366.7 340.5 Q 600.0 459.8, 833.3 108.4 Q 1066.7 39.2, 1300.0 437.5" fill="none" stroke="#FFFFFF" stroke-opacity="0.38" stroke-width="4" filter="url(#soft_ambient_17_2372)"/>
  <path d="M -100.0 178.9 Q 133.3 5.6, 366.7 340.5 Q 600.0 459.8, 833.3 108.4 Q 1066.7 39.2, 1300.0 437.5" fill="none" stroke="#B6F5D1" stroke-opacity="0.18" stroke-width="2"/>
  <path d="M -100.0 1471.5 Q 133.3 1444.4, 366.7 1430.8 Q 600.0 1190.6, 833.3 1178.8 Q 1066.7 1431.4, 1300.0 1533.6" fill="none" stroke="#FFFFFF" stroke-opacity="0.38" stroke-width="4" filter="url(#soft_ambient_17_2372)"/>
  <path d="M -100.0 1471.5 Q 133.3 1444.4, 366.7 1430.8 Q 600.0 1190.6, 833.3 1178.8 Q 1066.7 1431.4, 1300.0 1533.6" fill="none" stroke="#FFC7DA" stroke-opacity="0.18" stroke-width="2"/>
  <circle cx="107" cy="2413" r="256" fill="url(#orb_ambient_17_2372)" opacity="0.36"/>
  <circle cx="107" cy="2413" r="256" fill="#DDEEFF" opacity="0.08"/>
  <circle cx="107" cy="2413" r="256" fill="none" stroke="#FFFFFF" stroke-opacity="0.56" stroke-width="3"/>
  <ellipse cx="35.3" cy="2320.8" rx="46.1" ry="20.5" fill="#FFFFFF" opacity="0.42" transform="rotate(-22 35.3 2320.8)"/>
  <circle cx="1205" cy="2457" r="215" fill="url(#orb_ambient_17_2372)" opacity="0.36"/>
  <circle cx="1205" cy="2457" r="215" fill="#DFF8FF" opacity="0.08"/>
  <circle cx="1205" cy="2457" r="215" fill="none" stroke="#FFFFFF" stroke-opacity="0.56" stroke-width="3"/>
  <ellipse cx="1144.8" cy="2379.6" rx="38.7" ry="17.2" fill="#FFFFFF" opacity="0.42" transform="rotate(-22 1144.8 2379.6)"/>
  <circle cx="875" cy="449" r="158" fill="url(#orb_ambient_17_2372)" opacity="0.36"/>
  <circle cx="875" cy="449" r="158" fill="#FDFFFF" opacity="0.08"/>
  <circle cx="875" cy="449" r="158" fill="none" stroke="#FFFFFF" stroke-opacity="0.56" stroke-width="3"/>
  <ellipse cx="830.8" cy="392.1" rx="28.4" ry="12.6" fill="#FFFFFF" opacity="0.42" transform="rotate(-22 830.8 392.1)"/>
  <circle cx="718" cy="2293" r="272" fill="url(#orb_ambient_17_2372)" opacity="0.21"/>
  <circle cx="718" cy="2293" r="272" fill="#FFC7DA" opacity="0.08"/>
  <circle cx="718" cy="2293" r="272" fill="none" stroke="#FFFFFF" stroke-opacity="0.56" stroke-width="3"/>
  <ellipse cx="641.8" cy="2195.1" rx="49.0" ry="21.8" fill="#FFFFFF" opacity="0.42" transform="rotate(-22 641.8 2195.1)"/>
  <circle cx="1105" cy="2400" r="150" fill="url(#orb_ambient_17_2372)" opacity="0.18"/>
  <circle cx="1105" cy="2400" r="150" fill="#B6F5D1" opacity="0.08"/>
  <circle cx="1105" cy="2400" r="150" fill="none" stroke="#FFFFFF" stroke-opacity="0.56" stroke-width="3"/>
  <ellipse cx="1063.0" cy="2346.0" rx="27.0" ry="12.0" fill="#FFFFFF" opacity="0.42" transform="rotate(-22 1063.0 2346.0)"/>
  <circle cx="1095" cy="1115" r="176" fill="url(#orb_ambient_17_2372)" opacity="0.19"/>
  <circle cx="1095" cy="1115" r="176" fill="#EEE5FF" opacity="0.08"/>
  <circle cx="1095" cy="1115" r="176" fill="none" stroke="#FFFFFF" stroke-opacity="0.56" stroke-width="3"/>
  <ellipse cx="1045.7" cy="1051.6" rx="31.7" ry="14.1" fill="#FFFFFF" opacity="0.42" transform="rotate(-22 1045.7 1051.6)"/>
  <circle cx="460" cy="2193" r="231" fill="url(#orb_ambient_17_2372)" opacity="0.21"/>
  <circle cx="460" cy="2193" r="231" fill="#DDEEFF" opacity="0.08"/>
  <circle cx="460" cy="2193" r="231" fill="none" stroke="#FFFFFF" stroke-opacity="0.56" stroke-width="3"/>
  <ellipse cx="395.3" cy="2109.8" rx="41.6" ry="18.5" fill="#FFFFFF" opacity="0.42" transform="rotate(-22 395.3 2109.8)"/>
  <circle cx="1206" cy="1412" r="255" fill="url(#orb_ambient_17_2372)" opacity="0.21"/>
  <circle cx="1206" cy="1412" r="255" fill="#DDEEFF" opacity="0.08"/>
  <circle cx="1206" cy="1412" r="255" fill="none" stroke="#FFFFFF" stroke-opacity="0.56" stroke-width="3"/>
  <ellipse cx="1134.6" cy="1320.2" rx="45.9" ry="20.4" fill="#FFFFFF" opacity="0.42" transform="rotate(-22 1134.6 1320.2)"/>
  <circle cx="833" cy="438" r="99" fill="url(#orb_ambient_17_2372)" opacity="0.26"/>
  <circle cx="833" cy="438" r="99" fill="#FFC7DA" opacity="0.08"/>
  <circle cx="833" cy="438" r="99" fill="none" stroke="#FFFFFF" stroke-opacity="0.56" stroke-width="3"/>
  <ellipse cx="805.3" cy="402.4" rx="17.8" ry="7.9" fill="#FFFFFF" opacity="0.42" transform="rotate(-22 805.3 402.4)"/>
  <circle cx="595" cy="2005" r="257" fill="url(#orb_ambient_17_2372)" opacity="0.19"/>
  <circle cx="595" cy="2005" r="257" fill="#B6F5D1" opacity="0.08"/>
  <circle cx="595" cy="2005" r="257" fill="none" stroke="#FFFFFF" stroke-opacity="0.56" stroke-width="3"/>
  <ellipse cx="523.0" cy="1912.5" rx="46.3" ry="20.6" fill="#FFFFFF" opacity="0.42" transform="rotate(-22 523.0 1912.5)"/>
  <circle cx="30" cy="1355" r="247" fill="url(#orb_ambient_17_2372)" opacity="0.17"/>
  <circle cx="30" cy="1355" r="247" fill="#DFFCED" opacity="0.08"/>
  <circle cx="30" cy="1355" r="247" fill="none" stroke="#FFFFFF" stroke-opacity="0.56" stroke-width="3"/>
  <ellipse cx="-39.2" cy="1266.1" rx="44.5" ry="19.8" fill="#FFFFFF" opacity="0.42" transform="rotate(-22 -39.2 1266.1)"/>
  <circle cx="758" cy="384" r="5" fill="#FFFFFF" opacity="0.34"/>
  <circle cx="1167" cy="499" r="4" fill="#FFFFFF" opacity="0.56"/>
  <circle cx="533" cy="2302" r="3" fill="#FFFFFF" opacity="0.64"/>
  <circle cx="1160" cy="124" r="5" fill="#FFFFFF" opacity="0.70"/>
  <circle cx="1102" cy="104" r="7" fill="#FFFFFF" opacity="0.33"/>
  <circle cx="527" cy="67" r="7" fill="#FFFFFF" opacity="0.41"/>
  <circle cx="281" cy="805" r="5" fill="#FFFFFF" opacity="0.58"/>
  <circle cx="651" cy="2133" r="3" fill="#FFFFFF" opacity="0.65"/>
  <circle cx="1068" cy="2316" r="2" fill="#FFFFFF" opacity="0.65"/>
  <circle cx="119" cy="1815" r="7" fill="#FFFFFF" opacity="0.52"/>
  <circle cx="659" cy="56" r="2" fill="#FFFFFF" opacity="0.60"/>
  <circle cx="684" cy="2267" r="2" fill="#FFFFFF" opacity="0.56"/>
  <circle cx="112" cy="1861" r="3" fill="#FFFFFF" opacity="0.34"/>
  <circle cx="960" cy="1274" r="2" fill="#FFFFFF" opacity="0.45"/>
  <circle cx="958" cy="798" r="4" fill="#FFFFFF" opacity="0.29"/>
  <circle cx="1092" cy="1725" r="7" fill="#FFFFFF" opacity="0.57"/>
  <circle cx="956" cy="501" r="5" fill="#FFFFFF" opacity="0.56"/>
  <circle cx="567" cy="484" r="7" fill="#FFFFFF" opacity="0.53"/>
  <rect width="1200" height="2600" fill="#FFFFFF" opacity="0.08"/>
  <rect width="1200" height="2600" filter="url(#grain_ambient_17_2372)" opacity="0.7"/>
</svg>
