<svg xmlns="http://www.w3.org/2000/svg" width="1200" height="2600" viewBox="0 0 1200 2600" preserveAspectRatio="xMidYMid slice">
  <defs>
    <linearGradient id="bg_ambient_01_3349" x1="0" y1="0" x2="1" y2="1">
      <stop offset="0%" stop-color="#DDEEFF"/>
      <stop offset="48%" stop-color="#DFF8FF"/>
      <stop offset="100%" stop-color="#EEE5FF"/>
    </linearGradient>
    <radialGradient id="orb_ambient_01_3349" cx="35%" cy="30%" r="70%">
      <stop offset="0%" stop-color="#FFFFFF" stop-opacity="0.85"/>
      <stop offset="42%" stop-color="#FFFFFF" stop-opacity="0.20"/>
      <stop offset="100%" stop-color="#FFFFFF" stop-opacity="0.02"/>
    </radialGradient>
    <filter id="blur_ambient_01_3349" x="-30%" y="-30%" width="160%" height="160%">
      <feGaussianBlur stdDeviation="72"/>
    </filter>
    <filter id="soft_ambient_01_3349" x="-20%" y="-20%" width="140%" height="140%">
      <feGaussianBlur stdDeviation="10"/>
    </filter>
    <filter id="grain_ambient_01_3349">
      <feTurbulence type="fractalNoise" baseFrequency="0.85" numOctaves="2" stitchTiles="stitch"/>
      <feColorMatrix type="saturate" values="0"/>
      <feComponentTransfer>
        <feFuncA type="table" tableValues="0 0.035"/>
      </feComponentTransfer>
    </filter>
  </defs>
  <rect width="1200" height="2600" fill="url(#bg_ambient_01_3349)"/>
  <path d="M 805.7 2539.0 C 805.7 2749.2, 844.5 2642.5, 729.7 2803.5 C 614.9 2964.5, 659.3 2907.4, 483.4 2943.9 C 307.4 2980.4, 326.5 2978.0, 171.8 2873.0 C 17.1 2767.9, 156.7 2900.8, 95.6 2703.4 C 34.5 2505.9, -50.5 2572.6, 10.6 2375.2 C 71.7 2177.7, 39.8 2212.0, 194.5 2106.9 C 349.2 2001.8, 297.4 2012.8, 473.3 2049.3 C 649.2 2085.8, 541.3 2067.8, 656.2 2228.8 C 771.0 2389.7, 805.7 2328.8, 805.7 2539.0 Z" fill="#DFFCED" opacity="0.37" filter="url(#blur_ambient_01_3349)"/>
  <path d="M 870.8 524.0 C 870.8 701.8, 825.8 668.6, 731.2 804.8 C 636.7 941.0, 702.9 869.4, 558.0 900.2 C 413.1 931.1, 475.7 985.5, 348.3 896.6 C 220.8 807.8, 266.1 835.1, 215.7 668.1 C 165.4 501.1, 159.3 555.5, 209.7 388.5 C 260.0 221.4, 222.5 281.7, 349.9 192.8 C 477.4 103.9, 399.7 130.4, 544.6 161.3 C 689.5 192.1, 611.8 91.8, 706.4 227.9 C 800.9 364.1, 870.8 346.2, 870.8 524.0 Z" fill="#FDFFFF" opacity="0.24" filter="url(#blur_ambient_01_3349)"/>
  <path d="M 1607.6 1173.0 C 1607.6 1331.0, 1568.6 1251.3, 1491.7 1372.3 C 1414.7 1493.3, 1481.8 1465.4, 1363.9 1492.8 C 1246.1 1520.2, 1275.0 1559.2, 1171.3 1480.2 C 1067.6 1401.2, 1099.0 1429.4, 1058.0 1281.0 C 1017.1 1132.5, 981.9 1190.8, 1022.8 1042.3 C 1063.8 893.9, 1068.4 951.8, 1172.1 872.8 C 1275.7 793.8, 1244.6 794.2, 1362.5 821.6 C 1480.3 849.1, 1463.3 857.0, 1540.2 978.0 C 1617.2 1099.0, 1607.6 1015.0, 1607.6 1173.0 Z" fill="#EEE5FF" opacity="0.31" filter="url(#blur_ambient_01_3349)"/>
  <path d="M 1724.3 -187.0 C 1724.3 -67.3, 1834.7 -109.9, 1681.7 -18.2 C 1528.7 73.5, 1614.3 98.0, 1379.8 118.8 C 1145.4 139.5, 1224.6 85.1, 1018.4 25.3 C 812.3 -34.6, 947.8 27.1, 866.4 -85.4 C 785.0 -197.9, 725.5 -171.9, 806.9 -284.4 C 888.3 -396.9, 839.8 -358.3, 1046.0 -418.2 C 1252.1 -478.0, 1135.2 -498.1, 1369.6 -477.3 C 1604.1 -456.5, 1464.3 -460.5, 1617.3 -368.8 C 1770.4 -277.1, 1724.3 -306.7, 1724.3 -187.0 Z" fill="#B6F5D1" opacity="0.20" filter="url(#blur_ambient_01_3349)"/>
  <path d="M 1180.4 1090.0 C 1180.4 1328.5, 1196.5 1266.6, 1110.6 1449.3 C 1024.7 1632.0, 1079.1 1574.1, 947.5 1615.5 C 815.8 1657.0, 888.5 1679.5, 772.8 1560.2 C 657.0 1441.0, 685.1 1494.9, 639.4 1270.8 C 593.7 1046.7, 539.4 1101.7, 585.1 877.6 C 630.8 653.5, 658.0 788.8, 773.7 669.5 C 889.5 550.3, 816.3 565.6, 947.9 607.0 C 1079.6 648.4, 1030.0 627.2, 1116.0 809.9 C 1201.9 992.6, 1180.4 851.5, 1180.4 1090.0 Z" fill="#DDEEFF" opacity="0.22" filter="url(#blur_ambient_01_3349)"/>
  <path d="M 1525.5 172.0 C 1525.5 357.0, 1586.8 281.6, 1445.4 423.3 C 1303.9 565.0, 1402.5 484.1, 1185.8 516.2 C 969.1 548.3, 1064.2 666.1, 873.6 573.7 C 683.0 481.2, 716.7 461.7, 641.5 287.9 C 566.2 114.1, 627.5 211.7, 702.8 37.9 C 778.0 -135.9, 612.8 -48.8, 803.3 -141.3 C 993.9 -233.7, 945.4 -304.7, 1162.1 -272.5 C 1378.8 -240.4, 1366.1 -226.7, 1507.5 -85.0 C 1649.0 56.7, 1525.5 -13.0, 1525.5 172.0 Z" fill="#EEE5FF" opacity="0.29" filter="url(#blur_ambient_01_3349)"/>
  <path d="M 657.5 642.0 C 657.5 806.7, 679.3 708.8, 587.9 834.9 C 496.5 961.1, 519.5 910.2, 379.4 938.8 C 239.4 967.4, 312.6 1084.2, 189.5 1001.8 C 66.3 919.5, 71.1 923.4, 22.4 768.7 C -26.2 613.9, -54.5 663.3, -5.9 508.5 C 42.8 353.8, 40.6 453.2, 163.8 370.8 C 286.9 288.5, 243.0 302.0, 383.0 330.6 C 523.1 359.2, 510.7 267.6, 602.1 393.8 C 693.5 520.0, 657.5 477.3, 657.5 642.0 Z" fill="#EEE5FF" opacity="0.29" filter="url(#blur_ambient_01_3349)"/>
  <path d="M 363.1 1110.0 C 363.1 1289.5, 266.4 1213.9, 152.4 1351.4 C 38.5 1489.0, 154.3 1427.2, -20.3 1458.4 C -194.9 1489.5, -113.6 1558.1, -267.1 1468.3 C -420.7 1378.5, -433.8 1416.2, -494.4 1247.4 C -555.1 1078.7, -489.7 1156.9, -429.1 988.2 C -368.4 819.5, -463.9 910.4, -310.3 820.6 C -156.8 730.8, -206.0 674.9, -31.4 706.1 C 143.2 737.3, 118.7 713.3, 232.7 850.8 C 346.6 988.4, 363.1 930.5, 363.1 1110.0 Z" fill="#A9EAF6" opacity="0.34" filter="url(#blur_ambient_01_3349)"/>
  <path d="M 1001.2 943.0 C 1001.2 1142.8, 1140.6 1122.6, 979.5 1275.7 C 818.4 1428.7, 902.2 1317.1, 655.4 1351.8 C 408.6 1386.5, 509.6 1394.0, 292.5 1294.1 C 75.4 1194.2, 66.7 1275.9, -19.0 1088.2 C -104.8 900.4, -108.5 957.5, -22.7 769.8 C 63.0 582.0, 5.8 718.2, 222.9 618.3 C 439.9 518.4, 381.4 478.2, 628.2 512.9 C 875.1 547.6, 846.2 517.5, 1007.3 670.6 C 1168.4 823.6, 1001.2 743.2, 1001.2 943.0 Z" fill="#D6C2FF" opacity="0.19" filter="url(#blur_ambient_01_3349)"/>
  <path d="M 1631.5 401.0 C 1631.5 593.1, 1708.2 505.7, 1578.0 652.9 C 1447.9 800.1, 1517.8 831.9, 1318.3 865.3 C 1118.9 898.6, 1189.5 826.5, 1014.1 730.4 C 838.7 634.3, 944.9 716.0, 875.6 535.4 C 806.4 354.9, 802.4 431.6, 871.6 251.0 C 940.9 70.4, 819.2 151.8, 994.6 55.7 C 1169.9 -40.4, 1114.9 -77.3, 1314.3 -43.9 C 1513.7 -10.6, 1473.1 -31.4, 1603.3 115.8 C 1733.5 263.0, 1631.5 208.8, 1631.5 401.0 Z" fill="#DFF8FF" opacity="0.28" filter="url(#blur_ambient_01_3349)"/>
  <path d="M 353.8 1738.0 C 353.8 2024.2, 389.8 1958.5, 316.6 2177.8 C 243.5 2397.0, 270.4 2376.3, 158.3 2425.9 C 46.2 2475.6, 67.9 2360.5, -30.6 2217.4 C -129.2 2074.3, -82.1 2199.7, -121.0 1930.7 C -159.9 1661.8, -160.0 1760.5, -121.1 1491.6 C -82.2 1222.6, -120.7 1294.2, -22.1 1151.1 C 76.5 1008.0, 46.2 1170.7, 158.3 1220.4 C 270.5 1270.1, 234.1 1162.0, 307.2 1381.3 C 380.4 1600.5, 353.8 1451.8, 353.8 1738.0 Z" fill="#B6F5D1" opacity="0.18" filter="url(#blur_ambient_01_3349)"/>
  <path d="M 450.1 971.0 C 450.1 1151.0, 502.8 1085.4, 370.6 1223.3 C 238.4 1361.2, 334.9 1282.3, 132.4 1313.6 C -70.1 1344.9, -18.0 1402.2, -196.1 1312.2 C -374.2 1222.2, -290.6 1286.1, -360.9 1117.0 C -431.3 947.8, -447.4 999.0, -377.1 829.8 C -306.8 660.7, -384.5 754.5, -206.4 664.5 C -28.3 574.5, -82.4 579.5, 120.2 610.8 C 322.7 642.0, 275.8 534.2, 408.0 672.1 C 540.2 809.9, 450.1 791.0, 450.1 971.0 Z" fill="#B6F5D1" opacity="0.22" filter="url(#blur_ambient_01_3349)"/>
  <path d="M 924.6 1837.0 C 924.6 2049.4, 984.8 1954.0, 842.5 2116.7 C 700.2 2279.5, 774.0 2182.6, 555.9 2219.4 C 337.9 2256.3, 455.6 2310.0, 263.9 2203.8 C 72.2 2097.6, 70.1 2206.5, -5.6 2006.9 C -81.4 1807.3, -46.9 1889.3, 28.8 1689.7 C 104.6 1490.1, 67.3 1484.7, 259.1 1378.5 C 450.8 1272.3, 356.4 1375.1, 574.5 1412.0 C 792.5 1448.9, 651.1 1366.7, 793.4 1529.4 C 935.7 1692.1, 924.6 1624.6, 924.6 1837.0 Z" fill="#FFC7DA" opacity="0.29" filter="url(#blur_ambient_01_3349)"/>
  <path d="M 1719.0 -268.0 C 1719.0 40.2, 1908.7 -110.1, 1731.2 139.2 C 1553.8 388.6, 1607.9 234.2, 1320.8 329.5 C 1033.6 424.8, 1179.8 423.3, 892.7 328.1 C 605.5 232.8, 710.2 384.1, 532.7 134.7 C 355.2 -114.7, 470.0 40.3, 470.0 -268.0 C 470.0 -576.2, 397.3 -409.7, 574.7 -659.1 C 752.2 -908.5, 605.8 -791.0, 893.0 -886.3 C 1180.2 -981.5, 1072.6 -1013.9, 1359.8 -918.7 C 1647.0 -823.4, 1472.6 -956.8, 1650.0 -707.5 C 1827.5 -458.1, 1719.0 -576.2, 1719.0 -268.0 Z" fill="#FFECEF" opacity="0.12" stroke="#FFFFFF" stroke-opacity="0.46" stroke-width="3" filter="url(#soft_ambient_01_3349)"/>
  <path d="M 1719.0 -268.0 C 1719.0 40.2, 1908.7 -110.1, 1731.2 139.2 C 1553.8 388.6, 1607.9 234.2, 1320.8 329.5 C 1033.6 424.8, 1179.8 423.3, 892.7 328.1 C 605.5 232.8, 710.2 384.1, 532.7 134.7 C 355.2 -114.7, 470.0 40.3, 470.0 -268.0 C 470.0 -576.2, 397.3 -409.7, 574.7 -659.1 C 752.2 -908.5, 605.8 -791.0, 893.0 -886.3 C 1180.2 -981.5, 1072.6 -1013.9, 1359.8 -918.7 C 1647.0 -823.4, 1472.6 -956.8, 1650.0 -707.5 C 1827.5 -458.1, 1719.0 -576.2, 1719.0 -268.0 Z" fill="none" stroke="#FFFFFF" stroke-opacity="0.22" stroke-width="1.2"/>
  <path d="M 1368.4 1843.0 C 1368.4 2147.7, 1359.9 2033.7, 1243.8 2280.1 C 1127.7 2526.6, 1268.3 2393.9, 1080.5 2488.0 C 892.6 2582.1, 967.5 2646.4, 779.6 2552.3 C 591.8 2458.1, 664.7 2456.9, 548.6 2210.5 C 432.5 1964.0, 487.8 2147.7, 487.8 1843.0 C 487.8 1538.3, 481.2 1646.0, 597.3 1399.5 C 713.4 1153.1, 602.9 1267.0, 790.8 1172.8 C 978.7 1078.7, 873.1 1050.1, 1061.0 1144.3 C 1248.9 1238.4, 1148.2 1212.5, 1264.3 1458.9 C 1380.4 1705.4, 1368.4 1538.3, 1368.4 1843.0 Z" fill="#DFFCED" opacity="0.12" stroke="#FFFFFF" stroke-opacity="0.46" stroke-width="3" filter="url(#soft_ambient_01_3349)"/>
  <path d="M 1368.4 1843.0 C 1368.4 2147.7, 1359.9 2033.7, 1243.8 2280.1 C 1127.7 2526.6, 1268.3 2393.9, 1080.5 2488.0 C 892.6 2582.1, 967.5 2646.4, 779.6 2552.3 C 591.8 2458.1, 664.7 2456.9, 548.6 2210.5 C 432.5 1964.0, 487.8 2147.7, 487.8 1843.0 C 487.8 1538.3, 481.2 1646.0, 597.3 1399.5 C 713.4 1153.1, 602.9 1267.0, 790.8 1172.8 C 978.7 1078.7, 873.1 1050.1, 1061.0 1144.3 C 1248.9 1238.4, 1148.2 1212.5, 1264.3 1458.9 C 1380.4 1705.4, 1368.4 1538.3, 1368.4 1843.0 Z" fill="none" stroke="#FFFFFF" stroke-opacity="0.22" stroke-width="1.2"/>
  <path d="M 496.9 913.0 C 496.9 1176.7, 499.2 1059.1, 394.7 1272.5 C 290.3 1485.8, 366.2 1316.0, 197.2 1397.5 C 28.1 1479.0, 133.7 1526.6, -35.4 1445.1 C -204.4 1363.7, -98.5 1442.8, -203.0 1229.4 C -307.5 1016.1, -289.8 1176.7, -289.8 913.0 C -289.8 649.3, -331.5 769.0, -227.0 555.7 C -122.5 342.3, -196.3 372.4, -27.3 290.9 C 141.8 209.4, 58.3 320.5, 227.3 402.0 C 396.4 483.5, 321.8 385.4, 426.3 598.7 C 530.8 812.1, 496.9 649.3, 496.9 913.0 Z" fill="#B6F5D1" opacity="0.12" stroke="#B6F5D1" stroke-opacity="0.46" stroke-width="3" filter="url(#soft_ambient_01_3349)"/>
  <path d="M 496.9 913.0 C 496.9 1176.7, 499.2 1059.1, 394.7 1272.5 C 290.3 1485.8, 366.2 1316.0, 197.2 1397.5 C 28.1 1479.0, 133.7 1526.6, -35.4 1445.1 C -204.4 1363.7, -98.5 1442.8, -203.0 1229.4 C -307.5 1016.1, -289.8 1176.7, -289.8 913.0 C -289.8 649.3, -331.5 769.0, -227.0 555.7 C -122.5 342.3, -196.3 372.4, -27.3 290.9 C 141.8 209.4, 58.3 320.5, 227.3 402.0 C 396.4 483.5, 321.8 385.4, 426.3 598.7 C 530.8 812.1, 496.9 649.3, 496.9 913.0 Z" fill="none" stroke="#FFFFFF" stroke-opacity="0.22" stroke-width="1.2"/>
  <path d="M 716.2 -151.0 C 716.2 2.0, 804.8 -100.6, 707.5 23.2 C 610.1 147.0, 652.8 151.0, 495.3 198.3 C 337.8 245.6, 429.0 221.8, 271.5 174.5 C 114.0 127.2, 147.3 180.4, 49.9 56.6 C -47.4 -67.1, 51.4 2.0, 51.4 -151.0 C 51.4 -304.0, -3.1 -240.8, 94.2 -364.6 C 191.5 -488.4, 110.9 -437.5, 268.3 -484.8 C 425.8 -532.1, 318.2 -517.7, 475.7 -470.4 C 633.2 -423.1, 584.9 -480.1, 682.2 -356.3 C 779.5 -232.6, 716.2 -304.0, 716.2 -151.0 Z" fill="#DDEEFF" opacity="0.12" stroke="#DDEEFF" stroke-opacity="0.46" stroke-width="3" filter="url(#soft_ambient_01_3349)"/>
  <path d="M 716.2 -151.0 C 716.2 2.0, 804.8 -100.6, 707.5 23.2 C 610.1 147.0, 652.8 151.0, 495.3 198.3 C 337.8 245.6, 429.0 221.8, 271.5 174.5 C 114.0 127.2, 147.3 180.4, 49.9 56.6 C -47.4 -67.1, 51.4 2.0, 51.4 -151.0 C 51.4 -304.0, -3.1 -240.8, 94.2 -364.6 C 191.5 -488.4, 110.9 -437.5, 268.3 -484.8 C 425.8 -532.1, 318.2 -517.7, 475.7 -470.4 C 633.2 -423.1, 584.9 -480.1, 682.2 -356.3 C 779.5 -232.6, 716.2 -304.0, 716.2 -151.0 Z" fill="none" stroke="#FFFFFF" stroke-opacity="0.22" stroke-width="1.2"/>
  <path d="M -100.0 429.2 Q 133.3 596.4, 366.7 489.3 Q 600.0 86.6, 833.3 145.9 Q 1066.7 522.0, 1300.0 521.6" fill="none" stroke="#FFFFFF" stroke-opacity="0.38" stroke-width="4" filter="url(#soft_ambient_01_3349)"/>
  <path d="M -100.0 429.2 Q 133.3 596.4, 366.7 489.3 Q 600.0 86.6, 833.3 145.9 Q 1066.7 522.0, 1300.0 521.6" fill="none" stroke="#FFC7DA" stroke-opacity="0.18" stroke-width="2"/>
  <path d="M -100.0 1815.3 Q 133.3 1935.2, 366.7 2113.8 Q 600.0 2007.0, 833.3 1935.0 Q 1066.7 1898.5, 1300.0 1720.9" fill="none" stroke="#FFFFFF" stroke-opacity="0.38" stroke-width="4" filter="url(#soft_ambient_01_3349)"/>
  <path d="M -100.0 1815.3 Q 133.3 1935.2, 366.7 2113.8 Q 600.0 2007.0, 833.3 1935.0 Q 1066.7 1898.5, 1300.0 1720.9" fill="none" stroke="#A9EAF6" stroke-opacity="0.18" stroke-width="2"/>
  <path d="M -100.0 498.2 Q 133.3 667.9, 366.7 885.8 Q 600.0 823.0, 833.3 505.6 Q 1066.7 627.9, 1300.0 842.9" fill="none" stroke="#FFFFFF" stroke-opacity="0.38" stroke-width="4" filter="url(#soft_ambient_01_3349)"/>
  <path d="M -100.0 498.2 Q 133.3 667.9, 366.7 885.8 Q 600.0 823.0, 833.3 505.6 Q 1066.7 627.9, 1300.0 842.9" fill="none" stroke="#D6C2FF" stroke-opacity="0.18" stroke-width="2"/>
  <path d="M -100.0 237.1 Q 133.3 640.7, 366.7 862.2 Q 600.0 815.0, 833.3 560.1 Q 1066.7 322.0, 1300.0 219.2" fill="none" stroke="#FFFFFF" stroke-opacity="0.38" stroke-width="4" filter="url(#soft_ambient_01_3349)"/>
  <path d="M -100.0 237.1 Q 133.3 640.7, 366.7 862.2 Q 600.0 815.0, 833.3 560.1 Q 1066.7 322.0, 1300.0 219.2" fill="none" stroke="#B6F5D1" stroke-opacity="0.18" stroke-width="2"/>
  <path d="M -100.0 2721.5 Q 133.3 2573.7, 366.7 2144.3 Q 600.0 2085.0, 833.3 2268.4 Q 1066.7 2689.0, 1300.0 2686.6" fill="none" stroke="#FFFFFF" stroke-opacity="0.38" stroke-width="4" filter="url(#soft_ambient_01_3349)"/>
  <path d="M -100.0 2721.5 Q 133.3 2573.7, 366.7 2144.3 Q 600.0 2085.0, 833.3 2268.4 Q 1066.7 2689.0, 1300.0 2686.6" fill="none" stroke="#D6C2FF" stroke-opacity="0.18" stroke-width="2"/>
  <path d="M -100.0 1674.6 Q 133.3 1475.7, 366.7 1364.3 Q 600.0 1357.9, 833.3 1333.1 Q 1066.7 1389.2, 1300.0 1584.8" fill="none" stroke="#FFFFFF" stroke-opacity="0.38" stroke-width="4" filter="url(#soft_ambient_01_3349)"/>
  <path d="M -100.0 1674.6 Q 133.3 1475.7, 366.7 1364.3 Q 600.0 1357.9, 833.3 1333.1 Q 1066.7 1389.2, 1300.0 1584.8" fill="none" stroke="#FFC7DA" stroke-opacity="0.18" stroke-width="2"/>
  <circle cx="749" cy="1260" r="154" fill="url(#orb_ambient_01_3349)" opacity="0.36"/>
  <circle cx="749" cy="1260" r="154" fill="#DFFCED" opacity="0.08"/>
  <circle cx="749" cy="1260" r="154" fill="none" stroke="#FFFFFF" stroke-opacity="0.56" stroke-width="3"/>
  <ellipse cx="705.9" cy="1204.6" rx="27.7" ry="12.3" fill="#FFFFFF" opacity="0.42" transform="rotate(-22 705.9 1204.6)"/>
  <circle cx="1032" cy="1910" r="178" fill="url(#orb_ambient_01_3349)" opacity="0.36"/>
  <circle cx="1032" cy="1910" r="178" fill="#DFF8FF" opacity="0.08"/>
  <circle cx="1032" cy="1910" r="178" fill="none" stroke="#FFFFFF" stroke-opacity="0.56" stroke-width="3"/>
  <ellipse cx="982.2" cy="1845.9" rx="32.0" ry="14.2" fill="#FFFFFF" opacity="0.42" transform="rotate(-22 982.2 1845.9)"/>
  <circle cx="625" cy="2677" r="102" fill="url(#orb_ambient_01_3349)" opacity="0.36"/>
  <circle cx="625" cy="2677" r="102" fill="#FDFFFF" opacity="0.08"/>
  <circle cx="625" cy="2677" r="102" fill="none" stroke="#FFFFFF" stroke-opacity="0.56" stroke-width="3"/>
  <ellipse cx="596.4" cy="2640.3" rx="18.4" ry="8.2" fill="#FFFFFF" opacity="0.42" transform="rotate(-22 596.4 2640.3)"/>
  <circle cx="720" cy="3" r="226" fill="url(#orb_ambient_01_3349)" opacity="0.25"/>
  <circle cx="720" cy="3" r="226" fill="#EEE5FF" opacity="0.08"/>
  <circle cx="720" cy="3" r="226" fill="none" stroke="#FFFFFF" stroke-opacity="0.56" stroke-width="3"/>
  <ellipse cx="656.7" cy="-78.4" rx="40.7" ry="18.1" fill="#FFFFFF" opacity="0.42" transform="rotate(-22 656.7 -78.4)"/>
  <circle cx="184" cy="2334" r="250" fill="url(#orb_ambient_01_3349)" opacity="0.19"/>
  <circle cx="184" cy="2334" r="250" fill="#DFFCED" opacity="0.08"/>
  <circle cx="184" cy="2334" r="250" fill="none" stroke="#FFFFFF" stroke-opacity="0.56" stroke-width="3"/>
  <ellipse cx="114.0" cy="2244.0" rx="45.0" ry="20.0" fill="#FFFFFF" opacity="0.42" transform="rotate(-22 114.0 2244.0)"/>
  <circle cx="761" cy="1702" r="139" fill="url(#orb_ambient_01_3349)" opacity="0.25"/>
  <circle cx="761" cy="1702" r="139" fill="#D6C2FF" opacity="0.08"/>
  <circle cx="761" cy="1702" r="139" fill="none" stroke="#FFFFFF" stroke-opacity="0.56" stroke-width="3"/>
  <ellipse cx="722.1" cy="1652.0" rx="25.0" ry="11.1" fill="#FFFFFF" opacity="0.42" transform="rotate(-22 722.1 1652.0)"/>
  <circle cx="764" cy="1490" r="155" fill="url(#orb_ambient_01_3349)" opacity="0.28"/>
  <circle cx="764" cy="1490" r="155" fill="#FDFFFF" opacity="0.08"/>
  <circle cx="764" cy="1490" r="155" fill="none" stroke="#FFFFFF" stroke-opacity="0.56" stroke-width="3"/>
  <ellipse cx="720.6" cy="1434.2" rx="27.9" ry="12.4" fill="#FFFFFF" opacity="0.42" transform="rotate(-22 720.6 1434.2)"/>
  <circle cx="1271" cy="2366" r="284" fill="url(#orb_ambient_01_3349)" opacity="0.27"/>
  <circle cx="1271" cy="2366" r="284" fill="#FFECEF" opacity="0.08"/>
  <circle cx="1271" cy="2366" r="284" fill="none" stroke="#FFFFFF" stroke-opacity="0.56" stroke-width="3"/>
  <ellipse cx="1191.5" cy="2263.8" rx="51.1" ry="22.7" fill="#FFFFFF" opacity="0.42" transform="rotate(-22 1191.5 2263.8)"/>
  <circle cx="491" cy="1955" r="161" fill="url(#orb_ambient_01_3349)" opacity="0.25"/>
  <circle cx="491" cy="1955" r="161" fill="#D6C2FF" opacity="0.08"/>
  <circle cx="491" cy="1955" r="161" fill="none" stroke="#FFFFFF" stroke-opacity="0.56" stroke-width="3"/>
  <ellipse cx="445.9" cy="1897.0" rx="29.0" ry="12.9" fill="#FFFFFF" opacity="0.42" transform="rotate(-22 445.9 1897.0)"/>
  <circle cx="878" cy="2318" r="5" fill="#FFFFFF" opacity="0.33"/>
  <circle cx="901" cy="422" r="2" fill="#FFFFFF" opacity="0.66"/>
  <circle cx="1188" cy="327" r="4" fill="#FFFFFF" opacity="0.54"/>
  <circle cx="625" cy="38" r="5" fill="#FFFFFF" opacity="0.63"/>
  <circle cx="654" cy="979" r="7" fill="#FFFFFF" opacity="0.42"/>
  <circle cx="286" cy="1105" r="5" fill="#FFFFFF" opacity="0.58"/>
  <circle cx="74" cy="694" r="3" fill="#FFFFFF" opacity="0.46"/>
  <circle cx="506" cy="2078" r="5" fill="#FFFFFF" opacity="0.68"/>
  <circle cx="434" cy="1963" r="7" fill="#FFFFFF" opacity="0.39"/>
  <circle cx="429" cy="740" r="2" fill="#FFFFFF" opacity="0.35"/>
  <circle cx="210" cy="2408" r="3" fill="#FFFFFF" opacity="0.44"/>
  <circle cx="950" cy="1446" r="7" fill="#FFFFFF" opacity="0.58"/>
  <circle cx="530" cy="831" r="5" fill="#FFFFFF" opacity="0.59"/>
  <rect width="1200" height="2600" fill="#FFFFFF" opacity="0.08"/>
  <rect width="1200" height="2600" filter="url(#grain_ambient_01_3349)" opacity="0.7"/>
</svg>
