<svg xmlns="http://www.w3.org/2000/svg" width="1200" height="2600" viewBox="0 0 1200 2600" preserveAspectRatio="xMidYMid slice">
  <defs>
    <linearGradient id="bg_ambient_14_2444" x1="0" y1="0" x2="1" y2="1">
      <stop offset="0%" stop-color="#DFF8FF"/>
      <stop offset="48%" stop-color="#DFFCED"/>
      <stop offset="100%" stop-color="#EEE5FF"/>
    </linearGradient>
    <radialGradient id="orb_ambient_14_2444" cx="35%" cy="30%" r="70%">
      <stop offset="0%" stop-color="#FFFFFF" stop-opacity="0.85"/>
      <stop offset="42%" stop-color="#FFFFFF" stop-opacity="0.20"/>
      <stop offset="100%" stop-color="#FFFFFF" stop-opacity="0.02"/>
    </radialGradient>
    <filter id="blur_ambient_14_2444" x="-30%" y="-30%" width="160%" height="160%">
      <feGaussianBlur stdDeviation="72"/>
    </filter>
    <filter id="soft_ambient_14_2444" x="-20%" y="-20%" width="140%" height="140%">
      <feGaussianBlur stdDeviation="10"/>
    </filter>
    <filter id="grain_ambient_14_2444">
      <feTurbulence type="fractalNoise" baseFrequency="0.85" numOctaves="2" stitchTiles="stitch"/>
      <feColorMatrix type="saturate" values="0"/>
      <feComponentTransfer>
        <feFuncA type="table" tableValues="0 0.035"/>
      </feComponentTransfer>
    </filter>
  </defs>
  <rect width="1200" height="2600" fill="url(#bg_ambient_14_2444)"/>
  <path d="M 365.2 2090.0 C 365.2 2228.2, 434.6 2174.0, 297.8 2279.9 C 161.0 2385.7, 241.6 2408.6, 32.0 2432.6 C -177.6 2456.6, -142.9 2438.5, -327.2 2369.5 C -511.5 2300.4, -504.0 2341.1, -576.8 2211.2 C -649.6 2081.4, -564.5 2110.7, -491.7 1980.9 C -418.9 1851.1, -482.1 1908.6, -297.8 1839.6 C -113.4 1770.5, -203.7 1811.3, 5.9 1835.3 C 215.5 1859.3, 207.9 1785.2, 344.7 1891.0 C 481.5 1996.9, 365.2 1951.8, 365.2 2090.0 Z" fill="#DFF8FF" opacity="0.26" filter="url(#blur_ambient_14_2444)"/>
  <path d="M 517.2 620.0 C 517.2 755.0, 572.6 697.6, 480.9 801.0 C 389.2 904.5, 446.3 861.1, 305.8 884.5 C 165.3 907.9, 234.0 977.1, 110.5 909.6 C -13.0 842.1, 57.7 854.0, 8.9 727.1 C -39.9 600.3, -62.1 631.7, -13.3 504.8 C 35.5 377.9, -17.8 407.2, 105.7 339.7 C 229.3 272.2, 168.7 348.4, 309.2 371.9 C 449.7 395.3, 370.6 351.3, 462.3 454.7 C 554.0 558.2, 517.2 485.0, 517.2 620.0 Z" fill="#DFFCED" opacity="0.31" filter="url(#blur_ambient_14_2444)"/>
  <path d="M 450.4 1083.0 C 450.4 1303.5, 399.5 1209.6, 263.0 1378.5 C 126.4 1547.4, 226.5 1527.2, 17.3 1565.5 C -191.9 1603.7, -80.9 1647.8, -264.8 1537.6 C -448.8 1427.3, -427.6 1436.4, -500.2 1229.2 C -572.9 1022.0, -580.2 1100.3, -507.6 893.1 C -434.9 685.9, -499.8 783.9, -315.8 673.7 C -131.9 563.4, -171.8 534.7, 37.4 573.0 C 246.6 611.3, 149.3 600.1, 285.9 769.0 C 422.4 937.9, 450.4 862.5, 450.4 1083.0 Z" fill="#EEE5FF" opacity="0.18" filter="url(#blur_ambient_14_2444)"/>
  <path d="M 1340.3 1634.0 C 1340.3 1854.5, 1436.3 1728.1, 1281.0 1897.0 C 1125.7 2066.0, 1175.7 2111.3, 937.7 2149.6 C 699.7 2187.8, 805.6 2189.3, 596.3 2079.0 C 387.1 1968.8, 486.4 2007.9, 403.8 1800.7 C 321.1 1593.5, 191.5 1700.8, 274.2 1493.6 C 356.8 1286.4, 406.7 1356.1, 615.9 1245.9 C 825.2 1135.6, 704.1 1083.4, 942.1 1121.7 C 1180.1 1160.0, 1071.8 1132.4, 1227.1 1301.4 C 1382.4 1470.3, 1340.3 1413.5, 1340.3 1634.0 Z" fill="#DFF8FF" opacity="0.35" filter="url(#blur_ambient_14_2444)"/>
  <path d="M 718.2 2304.0 C 718.2 2570.4, 716.2 2418.5, 607.1 2622.6 C 498.1 2826.7, 549.1 2805.3, 382.0 2851.6 C 214.9 2897.9, 245.9 2981.9, 99.0 2848.7 C -47.9 2715.5, 40.4 2772.1, -17.6 2521.8 C -75.6 2271.4, -36.1 2387.0, 21.9 2136.6 C 79.9 1886.3, 7.9 1877.8, 154.8 1744.6 C 301.7 1611.4, 224.2 1609.0, 391.3 1655.2 C 558.4 1701.5, 468.8 1716.5, 577.8 1920.6 C 686.9 2124.6, 718.2 2037.6, 718.2 2304.0 Z" fill="#EEE5FF" opacity="0.38" filter="url(#blur_ambient_14_2444)"/>
  <path d="M 452.7 2025.0 C 452.7 2301.8, 487.6 2220.6, 384.6 2432.6 C 281.6 2644.6, 281.4 2534.4, 123.7 2582.4 C -34.1 2630.5, 10.4 2706.8, -128.3 2568.4 C -267.1 2430.0, -270.0 2465.7, -324.8 2205.7 C -379.6 1945.6, -324.8 2064.6, -270.0 1804.6 C -215.2 1544.5, -252.8 1536.4, -114.1 1398.0 C 24.7 1259.6, -38.1 1339.4, 119.6 1387.4 C 277.4 1435.5, 218.0 1428.8, 320.9 1640.8 C 423.9 1852.8, 452.7 1748.2, 452.7 2025.0 Z" fill="#DFF8FF" opacity="0.24" filter="url(#blur_ambient_14_2444)"/>
  <path d="M 1445.7 292.0 C 1445.7 525.1, 1500.6 393.9, 1390.7 572.4 C 1280.8 751.0, 1316.6 829.1, 1148.2 869.5 C 979.8 910.0, 1001.6 784.8, 853.6 668.2 C 705.5 551.7, 734.2 717.0, 675.7 497.9 C 617.3 278.9, 618.5 330.7, 677.0 111.6 C 735.5 -107.4, 754.5 -36.1, 902.6 -152.7 C 1050.6 -269.2, 959.5 -218.0, 1127.9 -177.5 C 1296.3 -137.0, 1236.8 -201.4, 1346.8 -22.9 C 1456.7 155.7, 1445.7 58.9, 1445.7 292.0 Z" fill="#EEE5FF" opacity="0.36" filter="url(#blur_ambient_14_2444)"/>
  <path d="M 767.7 1449.0 C 767.7 1714.5, 837.7 1651.5, 706.4 1854.9 C 575.1 2058.3, 664.1 2041.5, 462.9 2087.6 C 261.7 2133.7, 333.4 2158.0, 156.5 2025.3 C -20.5 1892.5, 94.6 1882.3, 24.7 1632.8 C -45.2 1383.4, -86.8 1468.6, -16.9 1219.1 C 53.0 969.6, -50.1 1159.9, 126.8 1027.2 C 303.7 894.4, 271.3 799.8, 472.5 845.9 C 673.7 892.0, 641.6 849.6, 772.9 1052.9 C 904.3 1256.3, 767.7 1183.5, 767.7 1449.0 Z" fill="#DDEEFF" opacity="0.22" filter="url(#blur_ambient_14_2444)"/>
  <path d="M 433.3 1251.0 C 433.3 1374.8, 537.1 1339.5, 416.5 1434.3 C 295.9 1529.1, 333.9 1531.6, 149.1 1553.1 C -35.7 1574.6, 27.7 1533.5, -134.8 1471.6 C -297.3 1409.8, -259.5 1477.0, -323.7 1360.7 C -387.9 1244.5, -376.9 1261.5, -312.8 1145.3 C -248.6 1029.0, -276.7 1076.2, -114.2 1014.3 C 48.3 952.4, -31.8 951.6, 153.0 973.1 C 337.8 994.6, 318.2 960.8, 438.8 1055.6 C 559.4 1150.4, 433.3 1127.2, 433.3 1251.0 Z" fill="#DFFCED" opacity="0.21" filter="url(#blur_ambient_14_2444)"/>
  <path d="M 1963.7 1486.0 C 1963.7 1796.0, 2099.2 1601.3, 1940.0 1852.1 C 1780.7 2103.0, 1837.2 2123.5, 1579.6 2219.3 C 1321.9 2315.2, 1465.1 2311.3, 1207.5 2215.4 C 949.8 2119.6, 1008.0 2138.6, 848.8 1887.8 C 689.5 1636.9, 743.7 1796.0, 743.7 1486.0 C 743.7 1176.0, 748.5 1341.6, 907.7 1090.8 C 1067.0 839.9, 961.1 895.3, 1218.7 799.5 C 1476.4 703.7, 1309.8 669.4, 1567.4 765.2 C 1825.1 861.0, 1761.0 807.0, 1920.2 1057.8 C 2079.5 1308.6, 1963.7 1176.0, 1963.7 1486.0 Z" fill="#FFC7DA" opacity="0.12" stroke="#FFC7DA" stroke-opacity="0.46" stroke-width="3" filter="url(#soft_ambient_14_2444)"/>
  <path d="M 1963.7 1486.0 C 1963.7 1796.0, 2099.2 1601.3, 1940.0 1852.1 C 1780.7 2103.0, 1837.2 2123.5, 1579.6 2219.3 C 1321.9 2315.2, 1465.1 2311.3, 1207.5 2215.4 C 949.8 2119.6, 1008.0 2138.6, 848.8 1887.8 C 689.5 1636.9, 743.7 1796.0, 743.7 1486.0 C 743.7 1176.0, 748.5 1341.6, 907.7 1090.8 C 1067.0 839.9, 961.1 895.3, 1218.7 799.5 C 1476.4 703.7, 1309.8 669.4, 1567.4 765.2 C 1825.1 861.0, 1761.0 807.0, 1920.2 1057.8 C 2079.5 1308.6, 1963.7 1176.0, 1963.7 1486.0 Z" fill="none" stroke="#FFFFFF" stroke-opacity="0.22" stroke-width="1.2"/>
  <path d="M 398.8 681.0 C 398.8 948.8, 398.8 844.6, 300.9 1061.2 C 203.0 1277.8, 261.2 1104.5, 102.8 1187.2 C -55.5 1270.0, 21.4 1360.0, -136.9 1277.3 C -295.3 1194.5, -252.7 1254.3, -350.6 1037.7 C -448.5 821.1, -390.1 948.8, -390.1 681.0 C -390.1 413.3, -415.5 574.7, -317.6 358.0 C -219.7 141.4, -290.9 154.2, -132.5 71.5 C 25.8 -11.3, -55.1 74.2, 103.3 156.9 C 261.6 239.6, 165.6 81.7, 263.5 298.3 C 361.4 514.9, 398.8 413.2, 398.8 681.0 Z" fill="#B6F5D1" opacity="0.12" stroke="#FFFFFF" stroke-opacity="0.46" stroke-width="3" filter="url(#soft_ambient_14_2444)"/>
  <path d="M 398.8 681.0 C 398.8 948.8, 398.8 844.6, 300.9 1061.2 C 203.0 1277.8, 261.2 1104.5, 102.8 1187.2 C -55.5 1270.0, 21.4 1360.0, -136.9 1277.3 C -295.3 1194.5, -252.7 1254.3, -350.6 1037.7 C -448.5 821.1, -390.1 948.8, -390.1 681.0 C -390.1 413.3, -415.5 574.7, -317.6 358.0 C -219.7 141.4, -290.9 154.2, -132.5 71.5 C 25.8 -11.3, -55.1 74.2, 103.3 156.9 C 261.6 239.6, 165.6 81.7, 263.5 298.3 C 361.4 514.9, 398.8 413.2, 398.8 681.0 Z" fill="none" stroke="#FFFFFF" stroke-opacity="0.22" stroke-width="1.2"/>
  <path d="M 578.5 2043.0 C 578.5 2374.7, 661.1 2200.0, 580.4 2468.3 C 499.8 2736.6, 531.9 2562.0, 401.4 2664.5 C 270.9 2767.0, 348.0 2899.7, 217.5 2797.2 C 87.0 2694.7, 149.9 2722.6, 69.2 2454.3 C -11.5 2186.0, 8.6 2374.7, 8.6 2043.0 C 8.6 1711.3, -19.2 1914.8, 61.5 1646.5 C 142.1 1378.2, 84.6 1393.2, 215.1 1290.7 C 345.6 1188.2, 268.7 1277.9, 399.2 1380.4 C 529.7 1482.9, 444.1 1333.6, 524.8 1601.9 C 605.5 1870.2, 578.5 1711.3, 578.5 2043.0 Z" fill="#A9EAF6" opacity="0.12" stroke="#A9EAF6" stroke-opacity="0.46" stroke-width="3" filter="url(#soft_ambient_14_2444)"/>
  <path d="M 578.5 2043.0 C 578.5 2374.7, 661.1 2200.0, 580.4 2468.3 C 499.8 2736.6, 531.9 2562.0, 401.4 2664.5 C 270.9 2767.0, 348.0 2899.7, 217.5 2797.2 C 87.0 2694.7, 149.9 2722.6, 69.2 2454.3 C -11.5 2186.0, 8.6 2374.7, 8.6 2043.0 C 8.6 1711.3, -19.2 1914.8, 61.5 1646.5 C 142.1 1378.2, 84.6 1393.2, 215.1 1290.7 C 345.6 1188.2, 268.7 1277.9, 399.2 1380.4 C 529.7 1482.9, 444.1 1333.6, 524.8 1601.9 C 605.5 1870.2, 578.5 1711.3, 578.5 2043.0 Z" fill="none" stroke="#FFFFFF" stroke-opacity="0.22" stroke-width="1.2"/>
  <path d="M 175.9 2501.0 C 175.9 2727.3, 149.7 2640.4, 58.7 2823.5 C -32.3 3006.7, 55.3 2917.0, -92.0 2986.9 C -239.2 3056.9, -156.0 3090.8, -303.2 3020.9 C -450.4 2950.9, -362.1 2961.4, -453.1 2778.2 C -544.1 2595.1, -521.8 2727.3, -521.8 2501.0 C -521.8 2274.7, -597.6 2394.1, -506.6 2211.0 C -415.6 2027.8, -461.2 2042.4, -313.9 1972.4 C -166.7 1902.5, -254.7 1991.1, -107.5 2061.1 C 39.7 2131.0, 0.2 2002.6, 91.2 2185.7 C 182.2 2368.8, 175.9 2274.7, 175.9 2501.0 Z" fill="#DDEEFF" opacity="0.12" stroke="#FFFFFF" stroke-opacity="0.46" stroke-width="3" filter="url(#soft_ambient_14_2444)"/>
  <path d="M 175.9 2501.0 C 175.9 2727.3, 149.7 2640.4, 58.7 2823.5 C -32.3 3006.7, 55.3 2917.0, -92.0 2986.9 C -239.2 3056.9, -156.0 3090.8, -303.2 3020.9 C -450.4 2950.9, -362.1 2961.4, -453.1 2778.2 C -544.1 2595.1, -521.8 2727.3, -521.8 2501.0 C -521.8 2274.7, -597.6 2394.1, -506.6 2211.0 C -415.6 2027.8, -461.2 2042.4, -313.9 1972.4 C -166.7 1902.5, -254.7 1991.1, -107.5 2061.1 C 39.7 2131.0, 0.2 2002.6, 91.2 2185.7 C 182.2 2368.8, 175.9 2274.7, 175.9 2501.0 Z" fill="none" stroke="#FFFFFF" stroke-opacity="0.22" stroke-width="1.2"/>
  <path d="M 1923.7 1311.0 C 1923.7 1599.0, 1953.2 1471.2, 1795.6 1704.2 C 1637.9 1937.2, 1797.2 1761.0, 1542.2 1850.0 C 1287.1 1939.0, 1382.7 2075.2, 1127.7 1986.2 C 872.6 1897.2, 1076.7 1894.6, 919.1 1661.6 C 761.4 1428.6, 729.6 1599.0, 729.6 1311.0 C 729.6 1023.0, 664.9 1148.1, 822.6 915.1 C 980.2 682.1, 919.0 848.1, 1174.1 759.1 C 1429.1 670.1, 1252.6 581.5, 1507.6 670.5 C 1762.7 759.5, 1648.7 694.7, 1806.3 927.7 C 1964.0 1160.7, 1923.7 1023.0, 1923.7 1311.0 Z" fill="#DDEEFF" opacity="0.12" stroke="#DDEEFF" stroke-opacity="0.46" stroke-width="3" filter="url(#soft_ambient_14_2444)"/>
  <path d="M 1923.7 1311.0 C 1923.7 1599.0, 1953.2 1471.2, 1795.6 1704.2 C 1637.9 1937.2, 1797.2 1761.0, 1542.2 1850.0 C 1287.1 1939.0, 1382.7 2075.2, 1127.7 1986.2 C 872.6 1897.2, 1076.7 1894.6, 919.1 1661.6 C 761.4 1428.6, 729.6 1599.0, 729.6 1311.0 C 729.6 1023.0, 664.9 1148.1, 822.6 915.1 C 980.2 682.1, 919.0 848.1, 1174.1 759.1 C 1429.1 670.1, 1252.6 581.5, 1507.6 670.5 C 1762.7 759.5, 1648.7 694.7, 1806.3 927.7 C 1964.0 1160.7, 1923.7 1023.0, 1923.7 1311.0 Z" fill="none" stroke="#FFFFFF" stroke-opacity="0.22" stroke-width="1.2"/>
  <path d="M 1873.5 1597.0 C 1873.5 1921.9, 1981.2 1792.8, 1837.9 2055.6 C 1694.5 2318.5, 1726.6 2227.6, 1494.7 2328.0 C 1262.7 2428.4, 1436.7 2456.3, 1204.8 2355.9 C 972.8 2255.5, 1089.4 2269.5, 946.1 2006.6 C 802.7 1743.8, 824.2 1921.9, 824.2 1597.0 C 824.2 1272.1, 770.9 1489.1, 914.3 1226.3 C 1057.7 963.4, 960.3 1020.3, 1192.3 919.9 C 1424.3 819.5, 1303.2 877.8, 1535.2 978.2 C 1767.2 1078.6, 1660.0 920.8, 1803.4 1183.7 C 1946.7 1446.5, 1873.5 1272.1, 1873.5 1597.0 Z" fill="#DFF8FF" opacity="0.12" stroke="#DFF8FF" stroke-opacity="0.46" stroke-width="3" filter="url(#soft_ambient_14_2444)"/>
  <path d="M 1873.5 1597.0 C 1873.5 1921.9, 1981.2 1792.8, 1837.9 2055.6 C 1694.5 2318.5, 1726.6 2227.6, 1494.7 2328.0 C 1262.7 2428.4, 1436.7 2456.3, 1204.8 2355.9 C 972.8 2255.5, 1089.4 2269.5, 946.1 2006.6 C 802.7 1743.8, 824.2 1921.9, 824.2 1597.0 C 824.2 1272.1, 770.9 1489.1, 914.3 1226.3 C 1057.7 963.4, 960.3 1020.3, 1192.3 919.9 C 1424.3 819.5, 1303.2 877.8, 1535.2 978.2 C 1767.2 1078.6, 1660.0 920.8, 1803.4 1183.7 C 1946.7 1446.5, 1873.5 1272.1, 1873.5 1597.0 Z" fill="none" stroke="#FFFFFF" stroke-opacity="0.22" stroke-width="1.2"/>
  <path d="M -100.0 752.4 Q 133.3 753.6, 366.7 785.7 Q 600.0 919.0, 833.3 871.2 Q 1066.7 719.4, 1300.0 601.2" fill="none" stroke="#FFFFFF" stroke-opacity="0.38" stroke-width="4" filter="url(#soft_ambient_14_2444)"/>
  <path d="M -100.0 752.4 Q 133.3 753.6, 366.7 785.7 Q 600.0 919.0, 833.3 871.2 Q 1066.7 719.4, 1300.0 601.2" fill="none" stroke="#B6F5D1" stroke-opacity="0.18" stroke-width="2"/>
  <path d="M -100.0 2166.8 Q 133.3 2205.8, 366.7 2170.6 Q 600.0 2093.7, 833.3 1853.0 Q 1066.7 1862.7, 1300.0 1860.4" fill="none" stroke="#FFFFFF" stroke-opacity="0.38" stroke-width="4" filter="url(#soft_ambient_14_2444)"/>
  <path d="M -100.0 2166.8 Q 133.3 2205.8, 366.7 2170.6 Q 600.0 2093.7, 833.3 1853.0 Q 1066.7 1862.7, 1300.0 1860.4" fill="none" stroke="#D6C2FF" stroke-opacity="0.18" stroke-width="2"/>
  <path d="M -100.0 1170.6 Q 133.3 1382.0, 366.7 1412.4 Q 600.0 1256.2, 833.3 1140.9 Q 1066.7 1215.4, 1300.0 1397.9" fill="none" stroke="#FFFFFF" stroke-opacity="0.38" stroke-width="4" filter="url(#soft_ambient_14_2444)"/>
  <path d="M -100.0 1170.6 Q 133.3 1382.0, 366.7 1412.4 Q 600.0 1256.2, 833.3 1140.9 Q 1066.7 1215.4, 1300.0 1397.9" fill="none" stroke="#A9EAF6" stroke-opacity="0.18" stroke-width="2"/>
  <circle cx="37" cy="775" r="203" fill="url(#orb_ambient_14_2444)" opacity="0.36"/>
  <circle cx="37" cy="775" r="203" fill="#D6C2FF" opacity="0.08"/>
  <circle cx="37" cy="775" r="203" fill="none" stroke="#FFFFFF" stroke-opacity="0.56" stroke-width="3"/>
  <ellipse cx="-19.8" cy="701.9" rx="36.5" ry="16.2" fill="#FFFFFF" opacity="0.42" transform="rotate(-22 -19.8 701.9)"/>
  <circle cx="1164" cy="740" r="289" fill="url(#orb_ambient_14_2444)" opacity="0.36"/>
  <circle cx="1164" cy="740" r="289" fill="#FDFFFF" opacity="0.08"/>
  <circle cx="1164" cy="740" r="289" fill="none" stroke="#FFFFFF" stroke-opacity="0.56" stroke-width="3"/>
  <ellipse cx="1083.1" cy="636.0" rx="52.0" ry="23.1" fill="#FFFFFF" opacity="0.42" transform="rotate(-22 1083.1 636.0)"/>
  <circle cx="342" cy="720" r="124" fill="url(#orb_ambient_14_2444)" opacity="0.36"/>
  <circle cx="342" cy="720" r="124" fill="#FDFFFF" opacity="0.08"/>
  <circle cx="342" cy="720" r="124" fill="none" stroke="#FFFFFF" stroke-opacity="0.56" stroke-width="3"/>
  <ellipse cx="307.3" cy="675.4" rx="22.3" ry="9.9" fill="#FFFFFF" opacity="0.42" transform="rotate(-22 307.3 675.4)"/>
  <circle cx="16" cy="1034" r="163" fill="url(#orb_ambient_14_2444)" opacity="0.19"/>
  <circle cx="16" cy="1034" r="163" fill="#FDFFFF" opacity="0.08"/>
  <circle cx="16" cy="1034" r="163" fill="none" stroke="#FFFFFF" stroke-opacity="0.56" stroke-width="3"/>
  <ellipse cx="-29.6" cy="975.3" rx="29.3" ry="13.0" fill="#FFFFFF" opacity="0.42" transform="rotate(-22 -29.6 975.3)"/>
  <circle cx="841" cy="-126" r="214" fill="url(#orb_ambient_14_2444)" opacity="0.17"/>
  <circle cx="841" cy="-126" r="214" fill="#EEE5FF" opacity="0.08"/>
  <circle cx="841" cy="-126" r="214" fill="none" stroke="#FFFFFF" stroke-opacity="0.56" stroke-width="3"/>
  <ellipse cx="781.1" cy="-203.0" rx="38.5" ry="17.1" fill="#FFFFFF" opacity="0.42" transform="rotate(-22 781.1 -203.0)"/>
  <circle cx="462" cy="1633" r="118" fill="url(#orb_ambient_14_2444)" opacity="0.24"/>
  <circle cx="462" cy="1633" r="118" fill="#FDFFFF" opacity="0.08"/>
  <circle cx="462" cy="1633" r="118" fill="none" stroke="#FFFFFF" stroke-opacity="0.56" stroke-width="3"/>
  <ellipse cx="429.0" cy="1590.5" rx="21.2" ry="9.4" fill="#FFFFFF" opacity="0.42" transform="rotate(-22 429.0 1590.5)"/>
  <circle cx="54" cy="1318" r="193" fill="url(#orb_ambient_14_2444)" opacity="0.28"/>
  <circle cx="54" cy="1318" r="193" fill="#D6C2FF" opacity="0.08"/>
  <circle cx="54" cy="1318" r="193" fill="none" stroke="#FFFFFF" stroke-opacity="0.56" stroke-width="3"/>
  <ellipse cx="-0.0" cy="1248.5" rx="34.7" ry="15.4" fill="#FFFFFF" opacity="0.42" transform="rotate(-22 -0.0 1248.5)"/>
  <circle cx="153" cy="2013" r="94" fill="url(#orb_ambient_14_2444)" opacity="0.24"/>
  <circle cx="153" cy="2013" r="94" fill="#FFECEF" opacity="0.08"/>
  <circle cx="153" cy="2013" r="94" fill="none" stroke="#FFFFFF" stroke-opacity="0.56" stroke-width="3"/>
  <ellipse cx="126.7" cy="1979.2" rx="16.9" ry="7.5" fill="#FFFFFF" opacity="0.42" transform="rotate(-22 126.7 1979.2)"/>
  <circle cx="703" cy="2011" r="183" fill="url(#orb_ambient_14_2444)" opacity="0.25"/>
  <circle cx="703" cy="2011" r="183" fill="#DDEEFF" opacity="0.08"/>
  <circle cx="703" cy="2011" r="183" fill="none" stroke="#FFFFFF" stroke-opacity="0.56" stroke-width="3"/>
  <ellipse cx="651.8" cy="1945.1" rx="32.9" ry="14.6" fill="#FFFFFF" opacity="0.42" transform="rotate(-22 651.8 1945.1)"/>
  <circle cx="29" cy="474" r="141" fill="url(#orb_ambient_14_2444)" opacity="0.26"/>
  <circle cx="29" cy="474" r="141" fill="#FDFFFF" opacity="0.08"/>
  <circle cx="29" cy="474" r="141" fill="none" stroke="#FFFFFF" stroke-opacity="0.56" stroke-width="3"/>
  <ellipse cx="-10.5" cy="423.2" rx="25.4" ry="11.3" fill="#FFFFFF" opacity="0.42" transform="rotate(-22 -10.5 423.2)"/>
  <circle cx="1196" cy="977" r="175" fill="url(#orb_ambient_14_2444)" opacity="0.26"/>
  <circle cx="1196" cy="977" r="175" fill="#FFECEF" opacity="0.08"/>
  <circle cx="1196" cy="977" r="175" fill="none" stroke="#FFFFFF" stroke-opacity="0.56" stroke-width="3"/>
  <ellipse cx="1147.0" cy="914.0" rx="31.5" ry="14.0" fill="#FFFFFF" opacity="0.42" transform="rotate(-22 1147.0 914.0)"/>
  <circle cx="518" cy="889" r="4" fill="#FFFFFF" opacity="0.60"/>
  <circle cx="744" cy="2436" r="5" fill="#FFFFFF" opacity="0.72"/>
  <circle cx="275" cy="2104" r="4" fill="#FFFFFF" opacity="0.46"/>
  <circle cx="75" cy="1911" r="5" fill="#FFFFFF" opacity="0.66"/>
  <circle cx="1089" cy="2509" r="2" fill="#FFFFFF" opacity="0.64"/>
  <circle cx="1054" cy="1237" r="2" fill="#FFFFFF" opacity="0.67"/>
  <circle cx="1184" cy="2309" r="5" fill="#FFFFFF" opacity="0.64"/>
  <circle cx="1017" cy="1938" r="3" fill="#FFFFFF" opacity="0.45"/>
  <circle cx="586" cy="1739" r="7" fill="#FFFFFF" opacity="0.69"/>
  <circle cx="455" cy="684" r="5" fill="#FFFFFF" opacity="0.67"/>
  <circle cx="165" cy="1968" r="2" fill="#FFFFFF" opacity="0.68"/>
  <circle cx="588" cy="1727" r="5" fill="#FFFFFF" opacity="0.54"/>
  <circle cx="792" cy="889" r="5" fill="#FFFFFF" opacity="0.71"/>
  <circle cx="370" cy="625" r="7" fill="#FFFFFF" opacity="0.38"/>
  <circle cx="1070" cy="772" r="4" fill="#FFFFFF" opacity="0.41"/>
  <rect width="1200" height="2600" fill="#FFFFFF" opacity="0.08"/>
  <rect width="1200" height="2600" filter="url(#grain_ambient_14_2444)" opacity="0.7"/>
</svg>
