<svg xmlns="http://www.w3.org/2000/svg" width="1200" height="2600" viewBox="0 0 1200 2600" preserveAspectRatio="xMidYMid slice">
  <defs>
    <linearGradient id="bg_ambient_19_5263" x1="0" y1="0" x2="1" y2="1">
      <stop offset="0%" stop-color="#DDEEFF"/>
      <stop offset="48%" stop-color="#DFFCED"/>
      <stop offset="100%" stop-color="#FDFFFF"/>
    </linearGradient>
    <radialGradient id="orb_ambient_19_5263" cx="35%" cy="30%" r="70%">
      <stop offset="0%" stop-color="#FFFFFF" stop-opacity="0.85"/>
      <stop offset="42%" stop-color="#FFFFFF" stop-opacity="0.20"/>
      <stop offset="100%" stop-color="#FFFFFF" stop-opacity="0.02"/>
    </radialGradient>
    <filter id="blur_ambient_19_5263" x="-30%" y="-30%" width="160%" height="160%">
      <feGaussianBlur stdDeviation="72"/>
    </filter>
    <filter id="soft_ambient_19_5263" x="-20%" y="-20%" width="140%" height="140%">
      <feGaussianBlur stdDeviation="10"/>
    </filter>
    <filter id="grain_ambient_19_5263">
      <feTurbulence type="fractalNoise" baseFrequency="0.85" numOctaves="2" stitchTiles="stitch"/>
      <feColorMatrix type="saturate" values="0"/>
      <feComponentTransfer>
        <feFuncA type="table" tableValues="0 0.035"/>
      </feComponentTransfer>
    </filter>
  </defs>
  <rect width="1200" height="2600" fill="url(#bg_ambient_19_5263)"/>
  <path d="M 627.5 2696.0 C 627.5 2909.8, 614.9 2859.5, 475.4 3023.2 C 336.0 3187.0, 446.1 3065.2, 232.4 3102.3 C 18.8 3139.5, 87.8 3193.0, -100.1 3086.1 C -287.9 2979.2, -226.2 3047.0, -300.4 2846.2 C -374.6 2645.3, -327.1 2705.5, -252.9 2504.6 C -178.7 2303.8, -317.6 2417.7, -129.8 2310.8 C 58.1 2203.9, 10.0 2114.5, 223.6 2151.6 C 437.2 2188.7, 346.0 2186.6, 485.4 2350.3 C 624.8 2514.1, 627.5 2482.2, 627.5 2696.0 Z" fill="#FFC7DA" opacity="0.25" filter="url(#blur_ambient_19_5263)"/>
  <path d="M 502.4 12.0 C 502.4 218.6, 518.3 191.3, 412.5 349.5 C 306.6 507.8, 301.5 507.8, 139.3 543.7 C -22.9 579.6, 46.6 521.4, -96.0 418.2 C -238.7 314.9, -258.9 374.4, -315.2 180.3 C -371.5 -13.8, -275.0 45.3, -218.6 -148.7 C -162.3 -342.8, -231.7 -236.6, -89.1 -339.8 C 53.6 -443.1, -19.3 -538.2, 142.9 -502.3 C 305.1 -466.4, 219.3 -446.7, 325.1 -288.5 C 431.0 -130.3, 502.4 -194.6, 502.4 12.0 Z" fill="#DDEEFF" opacity="0.35" filter="url(#blur_ambient_19_5263)"/>
  <path d="M 869.6 1419.0 C 869.6 1537.3, 925.6 1488.7, 787.6 1579.4 C 649.6 1670.0, 696.5 1678.8, 485.1 1699.3 C 273.7 1719.9, 364.8 1745.5, 178.9 1686.3 C -7.0 1627.1, -17.7 1608.6, -91.1 1497.4 C -164.5 1386.2, -160.5 1451.7, -87.1 1340.4 C -13.7 1229.2, -60.8 1227.0, 125.1 1167.8 C 310.9 1108.6, 264.3 1142.7, 475.7 1163.2 C 687.1 1183.8, 623.9 1165.2, 761.9 1255.9 C 899.8 1346.6, 869.6 1300.7, 869.6 1419.0 Z" fill="#DFF8FF" opacity="0.34" filter="url(#blur_ambient_19_5263)"/>
  <path d="M 823.3 1411.0 C 823.3 1714.8, 874.1 1665.4, 770.2 1898.1 C 666.4 2130.8, 696.8 1991.3, 537.7 2044.0 C 378.6 2096.8, 429.8 2070.4, 289.9 1918.5 C 150.0 1766.7, 209.2 1935.0, 153.9 1649.6 C 98.7 1364.1, 78.4 1495.3, 133.6 1209.9 C 188.9 924.4, 144.4 901.2, 284.3 749.3 C 424.3 597.4, 394.1 592.0, 553.2 644.7 C 712.2 697.5, 679.7 677.7, 783.6 910.4 C 887.4 1143.1, 823.3 1107.2, 823.3 1411.0 Z" fill="#FFC7DA" opacity="0.16" filter="url(#blur_ambient_19_5263)"/>
  <path d="M 1250.8 646.0 C 1250.8 780.5, 1269.2 714.5, 1181.9 817.6 C 1094.5 920.6, 1127.8 876.6, 993.9 899.9 C 860.1 923.3, 886.1 927.5, 768.4 860.2 C 650.7 792.9, 724.6 877.4, 678.1 751.0 C 631.6 624.5, 571.0 685.9, 617.5 559.5 C 664.0 433.1, 682.1 485.2, 799.8 417.9 C 917.5 350.6, 857.0 334.1, 990.8 357.4 C 1124.6 380.8, 1131.4 355.3, 1218.7 458.3 C 1306.1 561.4, 1250.8 511.4, 1250.8 646.0 Z" fill="#FFECEF" opacity="0.25" filter="url(#blur_ambient_19_5263)"/>
  <path d="M 1371.5 387.0 C 1371.5 645.3, 1314.9 545.3, 1212.5 743.2 C 1110.1 941.0, 1167.6 954.6, 1010.7 999.5 C 853.8 1044.3, 916.2 1038.2, 778.2 909.1 C 640.2 779.9, 679.1 828.1, 624.7 585.3 C 570.2 342.6, 525.5 435.1, 580.0 192.4 C 634.5 -50.3, 617.2 24.6, 755.1 -104.6 C 893.1 -233.7, 868.4 -137.1, 1025.3 -92.3 C 1182.2 -47.4, 1148.5 -172.3, 1250.9 25.6 C 1353.3 223.5, 1371.5 128.7, 1371.5 387.0 Z" fill="#B6F5D1" opacity="0.24" filter="url(#blur_ambient_19_5263)"/>
  <path d="M 1522.6 445.0 C 1522.6 716.4, 1529.7 691.8, 1413.7 899.7 C 1297.7 1107.5, 1404.0 936.1, 1226.3 983.2 C 1048.6 1030.3, 1081.1 1095.1, 924.8 959.4 C 768.6 823.8, 849.1 897.0, 787.4 642.0 C 725.7 387.0, 689.2 523.0, 751.0 268.0 C 812.7 13.0, 818.9 72.0, 975.1 -63.7 C 1131.4 -199.3, 1034.6 -216.7, 1212.3 -169.6 C 1390.0 -122.5, 1383.0 -143.4, 1499.0 64.5 C 1615.0 272.3, 1522.6 173.6, 1522.6 445.0 Z" fill="#FDFFFF" opacity="0.21" filter="url(#blur_ambient_19_5263)"/>
  <path d="M 989.5 1702.0 C 989.5 1842.8, 995.9 1786.2, 861.1 1894.1 C 726.3 2002.0, 837.2 1965.9, 630.7 1990.4 C 424.2 2014.9, 512.7 2056.5, 331.1 1986.1 C 149.5 1915.6, 182.5 1926.8, 110.8 1794.5 C 39.1 1662.1, -11.1 1719.3, 60.6 1586.9 C 132.3 1454.6, 181.5 1454.7, 363.1 1384.2 C 544.7 1313.8, 430.0 1337.3, 636.5 1361.7 C 843.0 1386.2, 766.6 1384.9, 901.4 1492.8 C 1036.2 1600.7, 989.5 1561.2, 989.5 1702.0 Z" fill="#DFFCED" opacity="0.31" filter="url(#blur_ambient_19_5263)"/>
  <path d="M 907.9 2530.0 C 907.9 2759.5, 1065.9 2675.5, 910.6 2851.3 C 755.3 3027.2, 791.0 3012.9, 553.1 3052.7 C 315.1 3092.6, 403.6 3032.9, 194.3 2918.2 C -15.0 2803.4, -42.6 2888.9, -125.3 2673.2 C -207.9 2457.5, -196.5 2600.3, -113.8 2384.6 C -31.2 2168.9, 11.6 2234.7, 220.9 2119.9 C 430.2 2005.2, 316.3 2004.7, 554.3 2044.6 C 792.3 2084.4, 732.9 2028.0, 888.3 2203.8 C 1043.6 2379.6, 907.9 2300.5, 907.9 2530.0 Z" fill="#FDFFFF" opacity="0.20" filter="url(#blur_ambient_19_5263)"/>
  <path d="M 1788.3 1073.0 C 1788.3 1312.0, 1756.6 1185.5, 1618.1 1368.5 C 1479.5 1551.6, 1594.6 1475.1, 1382.4 1516.6 C 1170.1 1558.1, 1248.8 1671.9, 1062.2 1552.5 C 875.5 1433.0, 935.9 1501.0, 862.2 1276.4 C 788.5 1051.9, 685.4 1138.8, 759.2 914.2 C 832.9 689.7, 856.9 801.6, 1043.6 682.2 C 1230.3 562.7, 1157.8 564.2, 1370.1 605.7 C 1582.3 647.2, 1463.1 523.7, 1601.7 706.7 C 1740.2 889.8, 1788.3 834.0, 1788.3 1073.0 Z" fill="#DFFCED" opacity="0.22" filter="url(#blur_ambient_19_5263)"/>
  <path d="M 590.5 512.0 C 590.5 752.8, 602.9 630.9, 435.0 825.6 C 267.0 1020.4, 397.9 924.6, 126.1 999.0 C -145.6 1073.4, -16.7 1133.1, -288.4 1058.7 C -560.2 984.3, -407.2 1063.5, -575.2 868.8 C -743.1 674.0, -622.6 752.8, -622.6 512.0 C -622.6 271.3, -794.1 412.0, -626.2 217.2 C -458.2 22.4, -529.3 68.9, -257.6 -5.5 C 14.2 -79.9, -129.1 -80.2, 142.7 -5.8 C 414.5 68.6, 255.3 23.5, 423.3 218.2 C 591.3 413.0, 590.5 271.2, 590.5 512.0 Z" fill="#B6F5D1" opacity="0.12" stroke="#FFFFFF" stroke-opacity="0.46" stroke-width="3" filter="url(#soft_ambient_19_5263)"/>
  <path d="M 590.5 512.0 C 590.5 752.8, 602.9 630.9, 435.0 825.6 C 267.0 1020.4, 397.9 924.6, 126.1 999.0 C -145.6 1073.4, -16.7 1133.1, -288.4 1058.7 C -560.2 984.3, -407.2 1063.5, -575.2 868.8 C -743.1 674.0, -622.6 752.8, -622.6 512.0 C -622.6 271.3, -794.1 412.0, -626.2 217.2 C -458.2 22.4, -529.3 68.9, -257.6 -5.5 C 14.2 -79.9, -129.1 -80.2, 142.7 -5.8 C 414.5 68.6, 255.3 23.5, 423.3 218.2 C 591.3 413.0, 590.5 271.2, 590.5 512.0 Z" fill="none" stroke="#FFFFFF" stroke-opacity="0.22" stroke-width="1.2"/>
  <path d="M 1163.9 1137.0 C 1163.9 1394.0, 1190.2 1243.9, 1115.7 1451.8 C 1041.1 1659.7, 1102.5 1624.4, 981.9 1703.8 C 861.2 1783.2, 929.5 1704.0, 808.8 1624.6 C 688.1 1545.2, 731.4 1710.5, 656.8 1502.7 C 582.2 1294.8, 591.5 1394.0, 591.5 1137.0 C 591.5 880.0, 579.9 1008.0, 654.5 800.1 C 729.1 592.3, 690.6 638.6, 811.3 559.2 C 932.0 479.8, 863.2 459.8, 983.9 539.3 C 1104.5 618.7, 1044.1 636.1, 1118.7 844.0 C 1193.2 1051.9, 1163.9 880.0, 1163.9 1137.0 Z" fill="#FDFFFF" opacity="0.12" stroke="#FFFFFF" stroke-opacity="0.46" stroke-width="3" filter="url(#soft_ambient_19_5263)"/>
  <path d="M 1163.9 1137.0 C 1163.9 1394.0, 1190.2 1243.9, 1115.7 1451.8 C 1041.1 1659.7, 1102.5 1624.4, 981.9 1703.8 C 861.2 1783.2, 929.5 1704.0, 808.8 1624.6 C 688.1 1545.2, 731.4 1710.5, 656.8 1502.7 C 582.2 1294.8, 591.5 1394.0, 591.5 1137.0 C 591.5 880.0, 579.9 1008.0, 654.5 800.1 C 729.1 592.3, 690.6 638.6, 811.3 559.2 C 932.0 479.8, 863.2 459.8, 983.9 539.3 C 1104.5 618.7, 1044.1 636.1, 1118.7 844.0 C 1193.2 1051.9, 1163.9 880.0, 1163.9 1137.0 Z" fill="none" stroke="#FFFFFF" stroke-opacity="0.22" stroke-width="1.2"/>
  <path d="M 1850.9 1429.0 C 1850.9 1664.3, 1942.1 1515.2, 1786.9 1705.6 C 1631.6 1896.0, 1696.6 1825.8, 1445.4 1898.5 C 1194.2 1971.2, 1337.6 1987.2, 1086.4 1914.4 C 835.2 1841.7, 924.6 1889.8, 769.3 1699.4 C 614.1 1509.0, 699.7 1664.3, 699.7 1429.0 C 699.7 1193.7, 673.0 1325.2, 828.3 1134.8 C 983.5 944.4, 832.7 998.2, 1083.9 925.4 C 1335.2 852.7, 1171.3 805.2, 1422.5 878.0 C 1673.7 950.7, 1620.8 917.3, 1776.0 1107.7 C 1931.3 1298.1, 1850.9 1193.7, 1850.9 1429.0 Z" fill="#A9EAF6" opacity="0.12" stroke="#A9EAF6" stroke-opacity="0.46" stroke-width="3" filter="url(#soft_ambient_19_5263)"/>
  <path d="M 1850.9 1429.0 C 1850.9 1664.3, 1942.1 1515.2, 1786.9 1705.6 C 1631.6 1896.0, 1696.6 1825.8, 1445.4 1898.5 C 1194.2 1971.2, 1337.6 1987.2, 1086.4 1914.4 C 835.2 1841.7, 924.6 1889.8, 769.3 1699.4 C 614.1 1509.0, 699.7 1664.3, 699.7 1429.0 C 699.7 1193.7, 673.0 1325.2, 828.3 1134.8 C 983.5 944.4, 832.7 998.2, 1083.9 925.4 C 1335.2 852.7, 1171.3 805.2, 1422.5 878.0 C 1673.7 950.7, 1620.8 917.3, 1776.0 1107.7 C 1931.3 1298.1, 1850.9 1193.7, 1850.9 1429.0 Z" fill="none" stroke="#FFFFFF" stroke-opacity="0.22" stroke-width="1.2"/>
  <path d="M 1386.9 812.0 C 1386.9 1063.1, 1406.1 900.5, 1230.5 1103.6 C 1054.8 1306.8, 1206.8 1275.2, 922.6 1352.8 C 638.5 1430.4, 810.5 1378.4, 526.4 1300.8 C 242.2 1223.2, 400.7 1303.1, 225.1 1100.0 C 49.5 896.8, 15.4 1063.1, 15.4 812.0 C 15.4 560.9, -44.3 653.8, 131.3 450.6 C 307.0 247.5, 195.8 339.9, 480.0 262.3 C 764.2 184.7, 642.9 151.8, 927.0 229.4 C 1211.2 307.0, 1127.5 301.1, 1303.2 504.2 C 1478.8 707.4, 1386.9 560.9, 1386.9 812.0 Z" fill="#FFECEF" opacity="0.12" stroke="#FFFFFF" stroke-opacity="0.46" stroke-width="3" filter="url(#soft_ambient_19_5263)"/>
  <path d="M 1386.9 812.0 C 1386.9 1063.1, 1406.1 900.5, 1230.5 1103.6 C 1054.8 1306.8, 1206.8 1275.2, 922.6 1352.8 C 638.5 1430.4, 810.5 1378.4, 526.4 1300.8 C 242.2 1223.2, 400.7 1303.1, 225.1 1100.0 C 49.5 896.8, 15.4 1063.1, 15.4 812.0 C 15.4 560.9, -44.3 653.8, 131.3 450.6 C 307.0 247.5, 195.8 339.9, 480.0 262.3 C 764.2 184.7, 642.9 151.8, 927.0 229.4 C 1211.2 307.0, 1127.5 301.1, 1303.2 504.2 C 1478.8 707.4, 1386.9 560.9, 1386.9 812.0 Z" fill="none" stroke="#FFFFFF" stroke-opacity="0.22" stroke-width="1.2"/>
  <path d="M 1074.2 302.0 C 1074.2 684.0, 1021.3 442.7, 932.7 751.8 C 844.1 1060.9, 943.0 1091.8, 799.7 1209.9 C 656.3 1328.0, 732.9 1168.8, 589.5 1050.8 C 446.1 932.7, 484.8 1130.4, 396.1 821.3 C 307.5 512.2, 401.9 684.1, 401.9 302.0 C 401.9 -80.0, 302.7 82.5, 391.3 -226.6 C 479.9 -535.7, 460.6 -467.9, 604.0 -586.0 C 747.4 -704.1, 658.2 -697.3, 801.6 -579.3 C 944.9 -461.2, 852.7 -542.9, 941.3 -233.8 C 1030.0 75.3, 1074.2 -80.1, 1074.2 302.0 Z" fill="#DFFCED" opacity="0.12" stroke="#FFFFFF" stroke-opacity="0.46" stroke-width="3" filter="url(#soft_ambient_19_5263)"/>
  <path d="M 1074.2 302.0 C 1074.2 684.0, 1021.3 442.7, 932.7 751.8 C 844.1 1060.9, 943.0 1091.8, 799.7 1209.9 C 656.3 1328.0, 732.9 1168.8, 589.5 1050.8 C 446.1 932.7, 484.8 1130.4, 396.1 821.3 C 307.5 512.2, 401.9 684.1, 401.9 302.0 C 401.9 -80.0, 302.7 82.5, 391.3 -226.6 C 479.9 -535.7, 460.6 -467.9, 604.0 -586.0 C 747.4 -704.1, 658.2 -697.3, 801.6 -579.3 C 944.9 -461.2, 852.7 -542.9, 941.3 -233.8 C 1030.0 75.3, 1074.2 -80.1, 1074.2 302.0 Z" fill="none" stroke="#FFFFFF" stroke-opacity="0.22" stroke-width="1.2"/>
  <path d="M 1172.7 65.0 C 1172.7 228.8, 1325.2 144.4, 1156.4 276.9 C 987.7 409.4, 1076.6 386.2, 803.6 436.8 C 530.5 487.4, 685.1 417.9, 412.1 367.3 C 139.0 316.7, 208.5 436.5, 39.8 304.0 C -129.0 171.5, -56.6 228.8, -56.6 65.0 C -56.6 -98.8, -72.0 -41.3, 96.8 -173.8 C 265.5 -306.3, 99.6 -246.5, 372.6 -297.1 C 645.7 -347.8, 517.1 -286.1, 790.2 -235.5 C 1063.2 -184.8, 956.9 -269.1, 1125.6 -136.6 C 1294.4 -4.1, 1172.7 -98.8, 1172.7 65.0 Z" fill="#D6C2FF" opacity="0.12" stroke="#D6C2FF" stroke-opacity="0.46" stroke-width="3" filter="url(#soft_ambient_19_5263)"/>
  <path d="M 1172.7 65.0 C 1172.7 228.8, 1325.2 144.4, 1156.4 276.9 C 987.7 409.4, 1076.6 386.2, 803.6 436.8 C 530.5 487.4, 685.1 417.9, 412.1 367.3 C 139.0 316.7, 208.5 436.5, 39.8 304.0 C -129.0 171.5, -56.6 228.8, -56.6 65.0 C -56.6 -98.8, -72.0 -41.3, 96.8 -173.8 C 265.5 -306.3, 99.6 -246.5, 372.6 -297.1 C 645.7 -347.8, 517.1 -286.1, 790.2 -235.5 C 1063.2 -184.8, 956.9 -269.1, 1125.6 -136.6 C 1294.4 -4.1, 1172.7 -98.8, 1172.7 65.0 Z" fill="none" stroke="#FFFFFF" stroke-opacity="0.22" stroke-width="1.2"/>
  <path d="M 969.8 14.0 C 969.8 312.4, 990.6 112.1, 845.7 353.5 C 700.7 594.9, 799.9 507.3, 565.3 599.4 C 330.8 691.6, 491.4 758.1, 256.9 665.9 C 22.3 573.8, 155.2 611.9, 10.3 370.5 C -134.7 129.1, -85.3 312.4, -85.3 14.0 C -85.3 -284.3, -232.9 -98.7, -88.0 -340.1 C 57.0 -581.5, 17.1 -498.1, 251.6 -590.3 C 486.2 -682.5, 343.0 -794.3, 577.5 -702.1 C 812.1 -609.9, 682.1 -664.9, 827.0 -423.6 C 972.0 -182.2, 969.8 -284.4, 969.8 14.0 Z" fill="#DFF8FF" opacity="0.12" stroke="#DFF8FF" stroke-opacity="0.46" stroke-width="3" filter="url(#soft_ambient_19_5263)"/>
  <path d="M 969.8 14.0 C 969.8 312.4, 990.6 112.1, 845.7 353.5 C 700.7 594.9, 799.9 507.3, 565.3 599.4 C 330.8 691.6, 491.4 758.1, 256.9 665.9 C 22.3 573.8, 155.2 611.9, 10.3 370.5 C -134.7 129.1, -85.3 312.4, -85.3 14.0 C -85.3 -284.3, -232.9 -98.7, -88.0 -340.1 C 57.0 -581.5, 17.1 -498.1, 251.6 -590.3 C 486.2 -682.5, 343.0 -794.3, 577.5 -702.1 C 812.1 -609.9, 682.1 -664.9, 827.0 -423.6 C 972.0 -182.2, 969.8 -284.4, 969.8 14.0 Z" fill="none" stroke="#FFFFFF" stroke-opacity="0.22" stroke-width="1.2"/>
  <path d="M -100.0 258.2 Q 133.3 271.7, 366.7 227.3 Q 600.0 220.7, 833.3 31.7 Q 1066.7 143.6, 1300.0 227.3" fill="none" stroke="#FFFFFF" stroke-opacity="0.38" stroke-width="4" filter="url(#soft_ambient_19_5263)"/>
  <path d="M -100.0 258.2 Q 133.3 271.7, 366.7 227.3 Q 600.0 220.7, 833.3 31.7 Q 1066.7 143.6, 1300.0 227.3" fill="none" stroke="#D6C2FF" stroke-opacity="0.18" stroke-width="2"/>
  <path d="M -100.0 1753.6 Q 133.3 1460.1, 366.7 1465.3 Q 600.0 1918.7, 833.3 2114.6 Q 1066.7 1750.7, 1300.0 1357.2" fill="none" stroke="#FFFFFF" stroke-opacity="0.38" stroke-width="4" filter="url(#soft_ambient_19_5263)"/>
  <path d="M -100.0 1753.6 Q 133.3 1460.1, 366.7 1465.3 Q 600.0 1918.7, 833.3 2114.6 Q 1066.7 1750.7, 1300.0 1357.2" fill="none" stroke="#B6F5D1" stroke-opacity="0.18" stroke-width="2"/>
  <path d="M -100.0 604.0 Q 133.3 383.1, 366.7 149.7 Q 600.0 3.0, 833.3 98.2 Q 1066.7 279.0, 1300.0 534.2" fill="none" stroke="#FFFFFF" stroke-opacity="0.38" stroke-width="4" filter="url(#soft_ambient_19_5263)"/>
  <path d="M -100.0 604.0 Q 133.3 383.1, 366.7 149.7 Q 600.0 3.0, 833.3 98.2 Q 1066.7 279.0, 1300.0 534.2" fill="none" stroke="#B6F5D1" stroke-opacity="0.18" stroke-width="2"/>
  <path d="M -100.0 2560.4 Q 133.3 2930.6, 366.7 2683.2 Q 600.0 2338.3, 833.3 2509.8 Q 1066.7 2802.7, 1300.0 2873.8" fill="none" stroke="#FFFFFF" stroke-opacity="0.38" stroke-width="4" filter="url(#soft_ambient_19_5263)"/>
  <path d="M -100.0 2560.4 Q 133.3 2930.6, 366.7 2683.2 Q 600.0 2338.3, 833.3 2509.8 Q 1066.7 2802.7, 1300.0 2873.8" fill="none" stroke="#FFC7DA" stroke-opacity="0.18" stroke-width="2"/>
  <path d="M -100.0 1529.6 Q 133.3 1472.3, 366.7 1528.8 Q 600.0 1704.1, 833.3 1787.6 Q 1066.7 1649.6, 1300.0 1523.3" fill="none" stroke="#FFFFFF" stroke-opacity="0.38" stroke-width="4" filter="url(#soft_ambient_19_5263)"/>
  <path d="M -100.0 1529.6 Q 133.3 1472.3, 366.7 1528.8 Q 600.0 1704.1, 833.3 1787.6 Q 1066.7 1649.6, 1300.0 1523.3" fill="none" stroke="#B6F5D1" stroke-opacity="0.18" stroke-width="2"/>
  <circle cx="430" cy="1101" r="143" fill="url(#orb_ambient_19_5263)" opacity="0.36"/>
  <circle cx="430" cy="1101" r="143" fill="#DDEEFF" opacity="0.08"/>
  <circle cx="430" cy="1101" r="143" fill="none" stroke="#FFFFFF" stroke-opacity="0.56" stroke-width="3"/>
  <ellipse cx="390.0" cy="1049.5" rx="25.7" ry="11.4" fill="#FFFFFF" opacity="0.42" transform="rotate(-22 390.0 1049.5)"/>
  <circle cx="948" cy="959" r="254" fill="url(#orb_ambient_19_5263)" opacity="0.36"/>
  <circle cx="948" cy="959" r="254" fill="#FFC7DA" opacity="0.08"/>
  <circle cx="948" cy="959" r="254" fill="none" stroke="#FFFFFF" stroke-opacity="0.56" stroke-width="3"/>
  <ellipse cx="876.9" cy="867.6" rx="45.7" ry="20.3" fill="#FFFFFF" opacity="0.42" transform="rotate(-22 876.9 867.6)"/>
  <circle cx="524" cy="1462" r="197" fill="url(#orb_ambient_19_5263)" opacity="0.36"/>
  <circle cx="524" cy="1462" r="197" fill="#FFECEF" opacity="0.08"/>
  <circle cx="524" cy="1462" r="197" fill="none" stroke="#FFFFFF" stroke-opacity="0.56" stroke-width="3"/>
  <ellipse cx="468.8" cy="1391.1" rx="35.5" ry="15.8" fill="#FFFFFF" opacity="0.42" transform="rotate(-22 468.8 1391.1)"/>
  <circle cx="598" cy="-75" r="90" fill="url(#orb_ambient_19_5263)" opacity="0.16"/>
  <circle cx="598" cy="-75" r="90" fill="#B6F5D1" opacity="0.08"/>
  <circle cx="598" cy="-75" r="90" fill="none" stroke="#FFFFFF" stroke-opacity="0.56" stroke-width="3"/>
  <ellipse cx="572.8" cy="-107.4" rx="16.2" ry="7.2" fill="#FFFFFF" opacity="0.42" transform="rotate(-22 572.8 -107.4)"/>
  <circle cx="672" cy="2502" r="272" fill="url(#orb_ambient_19_5263)" opacity="0.18"/>
  <circle cx="672" cy="2502" r="272" fill="#FFC7DA" opacity="0.08"/>
  <circle cx="672" cy="2502" r="272" fill="none" stroke="#FFFFFF" stroke-opacity="0.56" stroke-width="3"/>
  <ellipse cx="595.8" cy="2404.1" rx="49.0" ry="21.8" fill="#FFFFFF" opacity="0.42" transform="rotate(-22 595.8 2404.1)"/>
  <circle cx="172" cy="1627" r="185" fill="url(#orb_ambient_19_5263)" opacity="0.20"/>
  <circle cx="172" cy="1627" r="185" fill="#FDFFFF" opacity="0.08"/>
  <circle cx="172" cy="1627" r="185" fill="none" stroke="#FFFFFF" stroke-opacity="0.56" stroke-width="3"/>
  <ellipse cx="120.2" cy="1560.4" rx="33.3" ry="14.8" fill="#FFFFFF" opacity="0.42" transform="rotate(-22 120.2 1560.4)"/>
  <circle cx="766" cy="950" r="227" fill="url(#orb_ambient_19_5263)" opacity="0.25"/>
  <circle cx="766" cy="950" r="227" fill="#DFF8FF" opacity="0.08"/>
  <circle cx="766" cy="950" r="227" fill="none" stroke="#FFFFFF" stroke-opacity="0.56" stroke-width="3"/>
  <ellipse cx="702.4" cy="868.3" rx="40.9" ry="18.2" fill="#FFFFFF" opacity="0.42" transform="rotate(-22 702.4 868.3)"/>
  <circle cx="515" cy="817" r="286" fill="url(#orb_ambient_19_5263)" opacity="0.26"/>
  <circle cx="515" cy="817" r="286" fill="#EEE5FF" opacity="0.08"/>
  <circle cx="515" cy="817" r="286" fill="none" stroke="#FFFFFF" stroke-opacity="0.56" stroke-width="3"/>
  <ellipse cx="434.9" cy="714.0" rx="51.5" ry="22.9" fill="#FFFFFF" opacity="0.42" transform="rotate(-22 434.9 714.0)"/>
  <circle cx="1216" cy="663" r="283" fill="url(#orb_ambient_19_5263)" opacity="0.26"/>
  <circle cx="1216" cy="663" r="283" fill="#DFFCED" opacity="0.08"/>
  <circle cx="1216" cy="663" r="283" fill="none" stroke="#FFFFFF" stroke-opacity="0.56" stroke-width="3"/>
  <ellipse cx="1136.8" cy="561.1" rx="50.9" ry="22.6" fill="#FFFFFF" opacity="0.42" transform="rotate(-22 1136.8 561.1)"/>
  <circle cx="583" cy="417" r="125" fill="url(#orb_ambient_19_5263)" opacity="0.26"/>
  <circle cx="583" cy="417" r="125" fill="#FDFFFF" opacity="0.08"/>
  <circle cx="583" cy="417" r="125" fill="none" stroke="#FFFFFF" stroke-opacity="0.56" stroke-width="3"/>
  <ellipse cx="548.0" cy="372.0" rx="22.5" ry="10.0" fill="#FFFFFF" opacity="0.42" transform="rotate(-22 548.0 372.0)"/>
  <circle cx="834" cy="886" r="7" fill="#FFFFFF" opacity="0.28"/>
  <circle cx="798" cy="1848" r="5" fill="#FFFFFF" opacity="0.33"/>
  <circle cx="254" cy="1856" r="7" fill="#FFFFFF" opacity="0.55"/>
  <circle cx="526" cy="699" r="5" fill="#FFFFFF" opacity="0.52"/>
  <circle cx="577" cy="1441" r="5" fill="#FFFFFF" opacity="0.46"/>
  <circle cx="194" cy="468" r="5" fill="#FFFFFF" opacity="0.32"/>
  <circle cx="583" cy="1871" r="7" fill="#FFFFFF" opacity="0.49"/>
  <circle cx="336" cy="1706" r="5" fill="#FFFFFF" opacity="0.32"/>
  <circle cx="545" cy="2331" r="5" fill="#FFFFFF" opacity="0.60"/>
  <circle cx="342" cy="2513" r="5" fill="#FFFFFF" opacity="0.47"/>
  <rect width="1200" height="2600" fill="#FFFFFF" opacity="0.08"/>
  <rect width="1200" height="2600" filter="url(#grain_ambient_19_5263)" opacity="0.7"/>
</svg>
