<svg xmlns="http://www.w3.org/2000/svg" width="1200" height="2600" viewBox="0 0 1200 2600" preserveAspectRatio="xMidYMid slice">
  <defs>
    <linearGradient id="bg_coach_02_8245" x1="0" y1="0" x2="1" y2="1">
      <stop offset="0%" stop-color="#E3E0FF"/>
      <stop offset="48%" stop-color="#F7FEFF"/>
      <stop offset="100%" stop-color="#CFF3FF"/>
    </linearGradient>
    <radialGradient id="orb_coach_02_8245" cx="35%" cy="30%" r="70%">
      <stop offset="0%" stop-color="#FFFFFF" stop-opacity="0.85"/>
      <stop offset="42%" stop-color="#FFFFFF" stop-opacity="0.20"/>
      <stop offset="100%" stop-color="#FFFFFF" stop-opacity="0.02"/>
    </radialGradient>
    <filter id="blur_coach_02_8245" x="-30%" y="-30%" width="160%" height="160%">
      <feGaussianBlur stdDeviation="72"/>
    </filter>
    <filter id="soft_coach_02_8245" x="-20%" y="-20%" width="140%" height="140%">
      <feGaussianBlur stdDeviation="10"/>
    </filter>
    <filter id="grain_coach_02_8245">
      <feTurbulence type="fractalNoise" baseFrequency="0.85" numOctaves="2" stitchTiles="stitch"/>
      <feColorMatrix type="saturate" values="0"/>
      <feComponentTransfer>
        <feFuncA type="table" tableValues="0 0.035"/>
      </feComponentTransfer>
    </filter>
  </defs>
  <rect width="1200" height="2600" fill="url(#bg_coach_02_8245)"/>
  <path d="M 1825.6 2335.0 C 1825.6 2545.2, 1827.0 2435.8, 1690.7 2596.8 C 1554.5 2757.8, 1573.4 2677.6, 1364.7 2714.1 C 1155.9 2750.5, 1200.1 2859.2, 1016.5 2754.1 C 833.0 2649.0, 937.5 2682.2, 865.0 2484.7 C 792.5 2287.2, 685.3 2370.8, 757.8 2173.3 C 830.2 1975.9, 825.4 2072.4, 1009.0 1967.3 C 1192.5 1862.2, 1151.8 1901.0, 1360.6 1937.5 C 1569.3 1974.0, 1513.5 1823.4, 1649.7 1984.4 C 1786.0 2145.4, 1825.6 2124.8, 1825.6 2335.0 Z" fill="#4ECAD1" opacity="0.27" filter="url(#blur_coach_02_8245)"/>
  <path d="M 194.0 1072.0 C 194.0 1343.8, 191.2 1199.9, 88.5 1408.1 C -14.1 1616.3, 83.9 1599.8, -73.4 1647.0 C -230.7 1694.2, -184.1 1735.0, -322.5 1599.1 C -460.8 1463.2, -365.5 1525.9, -420.2 1270.5 C -474.8 1015.1, -488.2 1131.2, -433.5 875.8 C -378.9 620.4, -480.6 630.8, -342.2 494.9 C -203.9 359.0, -226.0 495.9, -68.6 543.1 C 88.7 590.3, 37.4 424.7, 140.1 633.0 C 242.8 841.2, 194.0 800.2, 194.0 1072.0 Z" fill="#4ECAD1" opacity="0.34" filter="url(#blur_coach_02_8245)"/>
  <path d="M 1458.3 -41.0 C 1458.3 124.6, 1479.7 100.8, 1374.1 227.7 C 1268.5 354.6, 1304.5 243.4, 1142.7 272.2 C 981.0 300.9, 1041.8 416.2, 899.5 333.4 C 757.3 250.6, 834.8 234.7, 778.6 79.1 C 722.4 -76.5, 707.3 1.7, 763.5 -153.9 C 819.6 -309.5, 728.0 -285.6, 870.3 -368.4 C 1012.5 -451.2, 975.0 -481.2, 1136.8 -452.4 C 1298.5 -423.7, 1198.0 -376.3, 1303.6 -249.5 C 1409.2 -122.6, 1458.3 -206.6, 1458.3 -41.0 Z" fill="#B4E6F8" opacity="0.27" filter="url(#blur_coach_02_8245)"/>
  <path d="M 1181.3 1922.0 C 1181.3 2134.4, 1193.5 2041.5, 1066.8 2204.2 C 940.1 2366.9, 984.8 2349.9, 790.7 2386.8 C 596.6 2423.7, 674.2 2476.8, 503.5 2370.6 C 332.8 2264.4, 327.5 2276.0, 260.1 2076.4 C 192.7 1876.9, 178.7 1951.6, 246.1 1752.0 C 313.5 1552.4, 337.8 1579.3, 508.5 1473.1 C 679.2 1366.9, 600.9 1448.0, 795.0 1484.9 C 989.1 1521.8, 889.4 1444.4, 1016.1 1607.1 C 1142.8 1769.8, 1181.3 1709.6, 1181.3 1922.0 Z" fill="#B4E6F8" opacity="0.32" filter="url(#blur_coach_02_8245)"/>
  <path d="M 1007.3 1202.0 C 1007.3 1402.2, 1025.8 1374.0, 952.0 1527.4 C 878.3 1680.8, 936.5 1562.9, 823.5 1597.7 C 710.4 1632.4, 769.5 1715.9, 670.1 1615.8 C 570.7 1515.6, 572.6 1562.8, 533.4 1374.7 C 494.1 1186.5, 518.2 1213.9, 557.5 1025.7 C 596.7 837.5, 561.7 902.9, 661.1 802.8 C 760.5 702.6, 716.9 753.3, 829.9 788.0 C 943.0 822.8, 914.7 747.1, 988.5 900.5 C 1062.2 1053.9, 1007.3 1001.8, 1007.3 1202.0 Z" fill="#4ECAD1" opacity="0.22" filter="url(#blur_coach_02_8245)"/>
  <path d="M 885.8 1083.0 C 885.8 1207.7, 966.3 1194.6, 817.6 1290.1 C 669.0 1385.6, 665.6 1312.3, 437.9 1333.9 C 210.1 1355.6, 269.4 1386.7, 69.1 1324.4 C -131.3 1262.1, -103.8 1307.3, -182.9 1190.1 C -262.0 1073.0, -120.7 1103.0, -41.6 985.8 C 37.5 868.7, -82.0 896.0, 118.3 833.7 C 318.6 771.3, 203.5 760.2, 431.3 781.8 C 659.1 803.5, 597.7 785.5, 746.3 881.0 C 895.0 976.5, 885.8 958.4, 885.8 1083.0 Z" fill="#F7FEFF" opacity="0.24" filter="url(#blur_coach_02_8245)"/>
  <path d="M 1679.5 1430.0 C 1679.5 1672.1, 1744.9 1638.0, 1650.3 1823.4 C 1555.7 2008.9, 1562.8 1999.6, 1417.9 2041.7 C 1273.0 2083.7, 1310.4 1993.0, 1183.0 1871.9 C 1055.6 1750.9, 1074.0 1873.3, 1023.7 1645.8 C 973.4 1418.3, 1050.0 1477.6, 1100.3 1250.1 C 1150.7 1022.6, 1061.7 1057.9, 1189.1 936.9 C 1316.6 815.8, 1268.1 842.0, 1413.0 884.0 C 1558.0 926.1, 1506.0 935.0, 1600.6 1120.5 C 1695.2 1306.0, 1679.5 1187.9, 1679.5 1430.0 Z" fill="#E3E0FF" opacity="0.31" filter="url(#blur_coach_02_8245)"/>
  <path d="M 841.4 -185.0 C 841.4 14.8, 864.6 -86.8, 726.7 66.3 C 588.7 219.3, 610.5 148.0, 399.1 182.7 C 187.7 217.4, 292.0 297.8, 106.1 197.9 C -79.8 98.0, -23.6 178.8, -97.0 -9.0 C -170.4 -196.7, -148.3 -129.3, -74.9 -317.1 C -1.5 -504.8, -143.4 -535.6, 42.5 -635.5 C 228.4 -735.4, 207.5 -718.3, 418.9 -683.6 C 630.3 -648.9, 492.7 -648.8, 630.7 -495.8 C 768.7 -342.7, 841.4 -384.8, 841.4 -185.0 Z" fill="#CFF3FF" opacity="0.24" filter="url(#blur_coach_02_8245)"/>
  <path d="M 693.8 2459.0 C 693.8 2663.8, 709.2 2576.7, 554.8 2733.6 C 400.3 2890.4, 438.2 2839.7, 201.6 2875.2 C -35.1 2910.8, 47.4 2932.6, -160.8 2830.3 C -368.9 2727.9, -237.9 2788.8, -320.1 2596.4 C -402.3 2404.0, -521.0 2515.8, -438.8 2323.4 C -356.6 2131.0, -318.4 2228.4, -110.3 2126.0 C 97.8 2023.6, -13.8 1985.1, 222.8 2020.7 C 459.5 2056.3, 315.6 2054.7, 470.1 2211.5 C 624.6 2368.4, 693.8 2254.2, 693.8 2459.0 Z" fill="#B891FF" opacity="0.19" filter="url(#blur_coach_02_8245)"/>
  <path d="M 431.8 2654.0 C 431.8 3014.4, 432.8 2783.4, 335.5 3075.1 C 238.2 3366.7, 289.2 3285.2, 131.7 3396.6 C -25.8 3508.0, 68.6 3513.7, -88.9 3402.3 C -246.4 3290.9, -227.6 3407.9, -325.0 3116.3 C -422.3 2824.7, -346.8 3014.4, -346.8 2654.0 C -346.8 2293.6, -372.1 2507.2, -274.8 2215.5 C -177.4 1923.9, -267.4 1899.7, -109.9 1788.3 C 47.6 1676.9, -34.2 1797.2, 123.2 1908.6 C 280.7 2020.0, 189.7 1838.0, 287.1 2129.6 C 384.4 2421.2, 431.8 2293.6, 431.8 2654.0 Z" fill="#4ECAD1" opacity="0.12" stroke="#4ECAD1" stroke-opacity="0.46" stroke-width="3" filter="url(#soft_coach_02_8245)"/>
  <path d="M 431.8 2654.0 C 431.8 3014.4, 432.8 2783.4, 335.5 3075.1 C 238.2 3366.7, 289.2 3285.2, 131.7 3396.6 C -25.8 3508.0, 68.6 3513.7, -88.9 3402.3 C -246.4 3290.9, -227.6 3407.9, -325.0 3116.3 C -422.3 2824.7, -346.8 3014.4, -346.8 2654.0 C -346.8 2293.6, -372.1 2507.2, -274.8 2215.5 C -177.4 1923.9, -267.4 1899.7, -109.9 1788.3 C 47.6 1676.9, -34.2 1797.2, 123.2 1908.6 C 280.7 2020.0, 189.7 1838.0, 287.1 2129.6 C 384.4 2421.2, 431.8 2293.6, 431.8 2654.0 Z" fill="none" stroke="#FFFFFF" stroke-opacity="0.22" stroke-width="1.2"/>
  <path d="M 786.4 2393.0 C 786.4 2731.4, 750.8 2529.3, 608.7 2803.1 C 466.7 3076.8, 614.8 2995.2, 385.0 3099.8 C 155.2 3204.3, 301.9 3286.6, 72.1 3182.0 C -157.7 3077.4, -118.5 3060.7, -260.5 2787.0 C -402.6 2513.2, -388.4 2731.4, -388.4 2393.0 C -388.4 2054.6, -308.1 2274.2, -166.1 2000.5 C -24.0 1726.7, -177.6 1838.5, 52.2 1734.0 C 282.1 1629.4, 168.4 1605.8, 398.2 1710.4 C 628.1 1814.9, 469.3 1648.9, 611.4 1922.7 C 753.4 2196.5, 786.4 2054.6, 786.4 2393.0 Z" fill="#CFF3FF" opacity="0.12" stroke="#FFFFFF" stroke-opacity="0.46" stroke-width="3" filter="url(#soft_coach_02_8245)"/>
  <path d="M 786.4 2393.0 C 786.4 2731.4, 750.8 2529.3, 608.7 2803.1 C 466.7 3076.8, 614.8 2995.2, 385.0 3099.8 C 155.2 3204.3, 301.9 3286.6, 72.1 3182.0 C -157.7 3077.4, -118.5 3060.7, -260.5 2787.0 C -402.6 2513.2, -388.4 2731.4, -388.4 2393.0 C -388.4 2054.6, -308.1 2274.2, -166.1 2000.5 C -24.0 1726.7, -177.6 1838.5, 52.2 1734.0 C 282.1 1629.4, 168.4 1605.8, 398.2 1710.4 C 628.1 1814.9, 469.3 1648.9, 611.4 1922.7 C 753.4 2196.5, 786.4 2054.6, 786.4 2393.0 Z" fill="none" stroke="#FFFFFF" stroke-opacity="0.22" stroke-width="1.2"/>
  <path d="M 1121.1 456.0 C 1121.1 812.0, 1128.1 570.6, 1052.7 858.6 C 977.3 1146.6, 1019.9 1033.1, 897.9 1143.1 C 775.9 1253.1, 840.6 1326.2, 718.7 1216.3 C 596.7 1106.3, 658.4 1229.6, 583.0 941.6 C 507.6 653.6, 569.5 812.0, 569.5 456.0 C 569.5 100.1, 478.2 299.2, 553.6 11.2 C 629.0 -276.8, 595.1 -196.2, 717.1 -306.2 C 839.0 -416.2, 787.4 -475.6, 909.4 -365.6 C 1031.4 -255.6, 1002.1 -273.6, 1077.5 14.4 C 1152.9 302.3, 1121.1 100.1, 1121.1 456.0 Z" fill="#86A8FF" opacity="0.12" stroke="#FFFFFF" stroke-opacity="0.46" stroke-width="3" filter="url(#soft_coach_02_8245)"/>
  <path d="M 1121.1 456.0 C 1121.1 812.0, 1128.1 570.6, 1052.7 858.6 C 977.3 1146.6, 1019.9 1033.1, 897.9 1143.1 C 775.9 1253.1, 840.6 1326.2, 718.7 1216.3 C 596.7 1106.3, 658.4 1229.6, 583.0 941.6 C 507.6 653.6, 569.5 812.0, 569.5 456.0 C 569.5 100.1, 478.2 299.2, 553.6 11.2 C 629.0 -276.8, 595.1 -196.2, 717.1 -306.2 C 839.0 -416.2, 787.4 -475.6, 909.4 -365.6 C 1031.4 -255.6, 1002.1 -273.6, 1077.5 14.4 C 1152.9 302.3, 1121.1 100.1, 1121.1 456.0 Z" fill="none" stroke="#FFFFFF" stroke-opacity="0.22" stroke-width="1.2"/>
  <path d="M 1595.4 423.0 C 1595.4 648.9, 1603.7 526.7, 1463.7 709.4 C 1323.8 892.2, 1394.3 856.0, 1167.9 925.8 C 941.5 995.6, 1065.0 966.1, 838.6 896.3 C 612.2 826.5, 787.4 887.6, 647.5 704.8 C 507.5 522.1, 482.4 648.9, 482.4 423.0 C 482.4 197.1, 443.1 324.2, 583.1 141.5 C 723.0 -41.3, 605.5 65.7, 831.9 -4.1 C 1058.3 -73.9, 930.3 -108.5, 1156.7 -38.7 C 1383.0 31.1, 1284.3 -95.4, 1424.2 87.4 C 1564.2 270.1, 1595.4 197.1, 1595.4 423.0 Z" fill="#4ECAD1" opacity="0.12" stroke="#4ECAD1" stroke-opacity="0.46" stroke-width="3" filter="url(#soft_coach_02_8245)"/>
  <path d="M 1595.4 423.0 C 1595.4 648.9, 1603.7 526.7, 1463.7 709.4 C 1323.8 892.2, 1394.3 856.0, 1167.9 925.8 C 941.5 995.6, 1065.0 966.1, 838.6 896.3 C 612.2 826.5, 787.4 887.6, 647.5 704.8 C 507.5 522.1, 482.4 648.9, 482.4 423.0 C 482.4 197.1, 443.1 324.2, 583.1 141.5 C 723.0 -41.3, 605.5 65.7, 831.9 -4.1 C 1058.3 -73.9, 930.3 -108.5, 1156.7 -38.7 C 1383.0 31.1, 1284.3 -95.4, 1424.2 87.4 C 1564.2 270.1, 1595.4 197.1, 1595.4 423.0 Z" fill="none" stroke="#FFFFFF" stroke-opacity="0.22" stroke-width="1.2"/>
  <path d="M 695.2 2084.0 C 695.2 2383.2, 685.0 2235.1, 551.4 2477.2 C 417.8 2719.3, 482.5 2631.5, 266.4 2723.9 C 50.2 2816.4, 182.8 2771.3, -33.3 2678.8 C -249.4 2586.4, -152.7 2726.5, -286.3 2484.4 C -419.9 2242.3, -398.9 2383.2, -398.9 2084.0 C -398.9 1784.8, -439.9 1927.4, -306.3 1685.3 C -172.7 1443.2, -242.5 1458.8, -26.3 1366.3 C 189.8 1273.8, 80.3 1439.3, 296.4 1531.8 C 512.5 1624.3, 381.8 1491.4, 515.3 1733.5 C 648.9 1975.6, 695.2 1784.8, 695.2 2084.0 Z" fill="#B891FF" opacity="0.12" stroke="#FFFFFF" stroke-opacity="0.46" stroke-width="3" filter="url(#soft_coach_02_8245)"/>
  <path d="M 695.2 2084.0 C 695.2 2383.2, 685.0 2235.1, 551.4 2477.2 C 417.8 2719.3, 482.5 2631.5, 266.4 2723.9 C 50.2 2816.4, 182.8 2771.3, -33.3 2678.8 C -249.4 2586.4, -152.7 2726.5, -286.3 2484.4 C -419.9 2242.3, -398.9 2383.2, -398.9 2084.0 C -398.9 1784.8, -439.9 1927.4, -306.3 1685.3 C -172.7 1443.2, -242.5 1458.8, -26.3 1366.3 C 189.8 1273.8, 80.3 1439.3, 296.4 1531.8 C 512.5 1624.3, 381.8 1491.4, 515.3 1733.5 C 648.9 1975.6, 695.2 1784.8, 695.2 2084.0 Z" fill="none" stroke="#FFFFFF" stroke-opacity="0.22" stroke-width="1.2"/>
  <path d="M -100.0 2317.8 Q 133.3 2260.6, 366.7 2435.2 Q 600.0 2734.3, 833.3 2821.2 Q 1066.7 2585.1, 1300.0 2236.9" fill="none" stroke="#FFFFFF" stroke-opacity="0.38" stroke-width="4" filter="url(#soft_coach_02_8245)"/>
  <path d="M -100.0 2317.8 Q 133.3 2260.6, 366.7 2435.2 Q 600.0 2734.3, 833.3 2821.2 Q 1066.7 2585.1, 1300.0 2236.9" fill="none" stroke="#86A8FF" stroke-opacity="0.18" stroke-width="2"/>
  <path d="M -100.0 1991.5 Q 133.3 2108.1, 366.7 2398.0 Q 600.0 2572.9, 833.3 2513.6 Q 1066.7 2392.7, 1300.0 2090.6" fill="none" stroke="#FFFFFF" stroke-opacity="0.38" stroke-width="4" filter="url(#soft_coach_02_8245)"/>
  <path d="M -100.0 1991.5 Q 133.3 2108.1, 366.7 2398.0 Q 600.0 2572.9, 833.3 2513.6 Q 1066.7 2392.7, 1300.0 2090.6" fill="none" stroke="#4ECAD1" stroke-opacity="0.18" stroke-width="2"/>
  <path d="M -100.0 493.7 Q 133.3 286.0, 366.7 263.2 Q 600.0 299.1, 833.3 411.5 Q 1066.7 471.3, 1300.0 620.7" fill="none" stroke="#FFFFFF" stroke-opacity="0.38" stroke-width="4" filter="url(#soft_coach_02_8245)"/>
  <path d="M -100.0 493.7 Q 133.3 286.0, 366.7 263.2 Q 600.0 299.1, 833.3 411.5 Q 1066.7 471.3, 1300.0 620.7" fill="none" stroke="#B891FF" stroke-opacity="0.18" stroke-width="2"/>
  <path d="M -100.0 442.8 Q 133.3 553.4, 366.7 737.2 Q 600.0 977.1, 833.3 961.8 Q 1066.7 717.2, 1300.0 445.1" fill="none" stroke="#FFFFFF" stroke-opacity="0.38" stroke-width="4" filter="url(#soft_coach_02_8245)"/>
  <path d="M -100.0 442.8 Q 133.3 553.4, 366.7 737.2 Q 600.0 977.1, 833.3 961.8 Q 1066.7 717.2, 1300.0 445.1" fill="none" stroke="#4ECAD1" stroke-opacity="0.18" stroke-width="2"/>
  <path d="M -100.0 1048.4 Q 133.3 1276.9, 366.7 1547.1 Q 600.0 1607.1, 833.3 1171.2 Q 1066.7 1187.4, 1300.0 1273.0" fill="none" stroke="#FFFFFF" stroke-opacity="0.38" stroke-width="4" filter="url(#soft_coach_02_8245)"/>
  <path d="M -100.0 1048.4 Q 133.3 1276.9, 366.7 1547.1 Q 600.0 1607.1, 833.3 1171.2 Q 1066.7 1187.4, 1300.0 1273.0" fill="none" stroke="#86A8FF" stroke-opacity="0.18" stroke-width="2"/>
  <path d="M -100.0 2173.1 Q 133.3 2170.7, 366.7 2069.1 Q 600.0 1983.6, 833.3 2096.9 Q 1066.7 2153.4, 1300.0 2283.2" fill="none" stroke="#FFFFFF" stroke-opacity="0.38" stroke-width="4" filter="url(#soft_coach_02_8245)"/>
  <path d="M -100.0 2173.1 Q 133.3 2170.7, 366.7 2069.1 Q 600.0 1983.6, 833.3 2096.9 Q 1066.7 2153.4, 1300.0 2283.2" fill="none" stroke="#86A8FF" stroke-opacity="0.18" stroke-width="2"/>
  <circle cx="1261" cy="2206" r="217" fill="url(#orb_coach_02_8245)" opacity="0.36"/>
  <circle cx="1261" cy="2206" r="217" fill="#B891FF" opacity="0.08"/>
  <circle cx="1261" cy="2206" r="217" fill="none" stroke="#FFFFFF" stroke-opacity="0.56" stroke-width="3"/>
  <ellipse cx="1200.2" cy="2127.9" rx="39.1" ry="17.4" fill="#FFFFFF" opacity="0.42" transform="rotate(-22 1200.2 2127.9)"/>
  <circle cx="904" cy="1937" r="160" fill="url(#orb_coach_02_8245)" opacity="0.36"/>
  <circle cx="904" cy="1937" r="160" fill="#86A8FF" opacity="0.08"/>
  <circle cx="904" cy="1937" r="160" fill="none" stroke="#FFFFFF" stroke-opacity="0.56" stroke-width="3"/>
  <ellipse cx="859.2" cy="1879.4" rx="28.8" ry="12.8" fill="#FFFFFF" opacity="0.42" transform="rotate(-22 859.2 1879.4)"/>
  <circle cx="377" cy="2581" r="128" fill="url(#orb_coach_02_8245)" opacity="0.36"/>
  <circle cx="377" cy="2581" r="128" fill="#CCF7ED" opacity="0.08"/>
  <circle cx="377" cy="2581" r="128" fill="none" stroke="#FFFFFF" stroke-opacity="0.56" stroke-width="3"/>
  <ellipse cx="341.2" cy="2534.9" rx="23.0" ry="10.2" fill="#FFFFFF" opacity="0.42" transform="rotate(-22 341.2 2534.9)"/>
  <circle cx="609" cy="564" r="105" fill="url(#orb_coach_02_8245)" opacity="0.21"/>
  <circle cx="609" cy="564" r="105" fill="#B891FF" opacity="0.08"/>
  <circle cx="609" cy="564" r="105" fill="none" stroke="#FFFFFF" stroke-opacity="0.56" stroke-width="3"/>
  <ellipse cx="579.6" cy="526.2" rx="18.9" ry="8.4" fill="#FFFFFF" opacity="0.42" transform="rotate(-22 579.6 526.2)"/>
  <circle cx="1208" cy="517" r="178" fill="url(#orb_coach_02_8245)" opacity="0.20"/>
  <circle cx="1208" cy="517" r="178" fill="#CCF7ED" opacity="0.08"/>
  <circle cx="1208" cy="517" r="178" fill="none" stroke="#FFFFFF" stroke-opacity="0.56" stroke-width="3"/>
  <ellipse cx="1158.2" cy="452.9" rx="32.0" ry="14.2" fill="#FFFFFF" opacity="0.42" transform="rotate(-22 1158.2 452.9)"/>
  <circle cx="676" cy="2323" r="173" fill="url(#orb_coach_02_8245)" opacity="0.24"/>
  <circle cx="676" cy="2323" r="173" fill="#4ECAD1" opacity="0.08"/>
  <circle cx="676" cy="2323" r="173" fill="none" stroke="#FFFFFF" stroke-opacity="0.56" stroke-width="3"/>
  <ellipse cx="627.6" cy="2260.7" rx="31.1" ry="13.8" fill="#FFFFFF" opacity="0.42" transform="rotate(-22 627.6 2260.7)"/>
  <circle cx="652" cy="2481" r="134" fill="url(#orb_coach_02_8245)" opacity="0.22"/>
  <circle cx="652" cy="2481" r="134" fill="#CCF7ED" opacity="0.08"/>
  <circle cx="652" cy="2481" r="134" fill="none" stroke="#FFFFFF" stroke-opacity="0.56" stroke-width="3"/>
  <ellipse cx="614.5" cy="2432.8" rx="24.1" ry="10.7" fill="#FFFFFF" opacity="0.42" transform="rotate(-22 614.5 2432.8)"/>
  <circle cx="302" cy="2592" r="135" fill="url(#orb_coach_02_8245)" opacity="0.21"/>
  <circle cx="302" cy="2592" r="135" fill="#E3E0FF" opacity="0.08"/>
  <circle cx="302" cy="2592" r="135" fill="none" stroke="#FFFFFF" stroke-opacity="0.56" stroke-width="3"/>
  <ellipse cx="264.2" cy="2543.4" rx="24.3" ry="10.8" fill="#FFFFFF" opacity="0.42" transform="rotate(-22 264.2 2543.4)"/>
  <circle cx="440" cy="-96" r="95" fill="url(#orb_coach_02_8245)" opacity="0.20"/>
  <circle cx="440" cy="-96" r="95" fill="#F7FEFF" opacity="0.08"/>
  <circle cx="440" cy="-96" r="95" fill="none" stroke="#FFFFFF" stroke-opacity="0.56" stroke-width="3"/>
  <ellipse cx="413.4" cy="-130.2" rx="17.1" ry="7.6" fill="#FFFFFF" opacity="0.42" transform="rotate(-22 413.4 -130.2)"/>
  <circle cx="717" cy="2536" r="4" fill="#FFFFFF" opacity="0.52"/>
  <circle cx="524" cy="1015" r="5" fill="#FFFFFF" opacity="0.31"/>
  <circle cx="690" cy="658" r="3" fill="#FFFFFF" opacity="0.70"/>
  <circle cx="37" cy="1474" r="4" fill="#FFFFFF" opacity="0.41"/>
  <circle cx="820" cy="675" r="5" fill="#FFFFFF" opacity="0.68"/>
  <circle cx="711" cy="251" r="4" fill="#FFFFFF" opacity="0.36"/>
  <circle cx="924" cy="484" r="3" fill="#FFFFFF" opacity="0.31"/>
  <circle cx="759" cy="315" r="2" fill="#FFFFFF" opacity="0.29"/>
  <circle cx="781" cy="807" r="3" fill="#FFFFFF" opacity="0.41"/>
  <circle cx="943" cy="1550" r="4" fill="#FFFFFF" opacity="0.35"/>
  <circle cx="736" cy="2171" r="4" fill="#FFFFFF" opacity="0.58"/>
  <circle cx="574" cy="584" r="7" fill="#FFFFFF" opacity="0.44"/>
  <circle cx="208" cy="51" r="5" fill="#FFFFFF" opacity="0.57"/>
  <circle cx="266" cy="1269" r="4" fill="#FFFFFF" opacity="0.47"/>
  <circle cx="440" cy="882" r="4" fill="#FFFFFF" opacity="0.42"/>
  <circle cx="739" cy="156" r="7" fill="#FFFFFF" opacity="0.66"/>
  <circle cx="641" cy="2245" r="5" fill="#FFFFFF" opacity="0.64"/>
  <circle cx="483" cy="1166" r="7" fill="#FFFFFF" opacity="0.34"/>
  <circle cx="977" cy="1100" r="2" fill="#FFFFFF" opacity="0.47"/>
  <rect width="1200" height="2600" fill="#FFFFFF" opacity="0.08"/>
  <rect width="1200" height="2600" filter="url(#grain_coach_02_8245)" opacity="0.7"/>
</svg>
