<svg xmlns="http://www.w3.org/2000/svg" width="1200" height="2600" viewBox="0 0 1200 2600" preserveAspectRatio="xMidYMid slice">
  <defs>
    <linearGradient id="bg_coach_18_2098" x1="0" y1="0" x2="1" y2="1">
      <stop offset="0%" stop-color="#CCF7ED"/>
      <stop offset="48%" stop-color="#CFF3FF"/>
      <stop offset="100%" stop-color="#E3E0FF"/>
    </linearGradient>
    <radialGradient id="orb_coach_18_2098" cx="35%" cy="30%" r="70%">
      <stop offset="0%" stop-color="#FFFFFF" stop-opacity="0.85"/>
      <stop offset="42%" stop-color="#FFFFFF" stop-opacity="0.20"/>
      <stop offset="100%" stop-color="#FFFFFF" stop-opacity="0.02"/>
    </radialGradient>
    <filter id="blur_coach_18_2098" x="-30%" y="-30%" width="160%" height="160%">
      <feGaussianBlur stdDeviation="72"/>
    </filter>
    <filter id="soft_coach_18_2098" x="-20%" y="-20%" width="140%" height="140%">
      <feGaussianBlur stdDeviation="10"/>
    </filter>
    <filter id="grain_coach_18_2098">
      <feTurbulence type="fractalNoise" baseFrequency="0.85" numOctaves="2" stitchTiles="stitch"/>
      <feColorMatrix type="saturate" values="0"/>
      <feComponentTransfer>
        <feFuncA type="table" tableValues="0 0.035"/>
      </feComponentTransfer>
    </filter>
  </defs>
  <rect width="1200" height="2600" fill="url(#bg_coach_18_2098)"/>
  <path d="M 915.7 2408.0 C 915.7 2599.2, 900.7 2491.4, 831.6 2637.9 C 762.5 2784.4, 783.0 2836.8, 677.0 2870.0 C 571.1 2903.2, 611.7 2862.4, 518.5 2766.7 C 425.4 2671.1, 440.7 2758.7, 403.9 2579.0 C 367.1 2399.3, 394.9 2464.3, 431.7 2284.6 C 468.5 2104.9, 439.4 2171.4, 532.6 2075.7 C 625.7 1980.1, 576.0 2004.4, 681.9 2037.6 C 787.8 2070.8, 729.7 1947.9, 798.8 2094.4 C 867.9 2240.9, 915.7 2216.8, 915.7 2408.0 Z" fill="#E3E0FF" opacity="0.30" filter="url(#blur_coach_18_2098)"/>
  <path d="M 119.8 2074.0 C 119.8 2252.2, 175.8 2182.7, 103.8 2319.2 C 31.8 2455.7, 45.0 2381.5, -65.3 2412.5 C -175.7 2443.4, -126.0 2510.2, -223.0 2421.1 C -320.1 2332.0, -284.8 2390.0, -323.1 2222.5 C -361.4 2055.1, -399.9 2084.9, -361.6 1917.5 C -323.3 1750.0, -327.1 1803.8, -230.0 1714.7 C -133.0 1625.6, -173.8 1589.5, -63.5 1620.5 C 46.9 1651.4, 32.9 1685.4, 104.9 1821.9 C 176.9 1958.4, 119.8 1895.8, 119.8 2074.0 Z" fill="#CFF3FF" opacity="0.20" filter="url(#blur_coach_18_2098)"/>
  <path d="M 1342.8 825.0 C 1342.8 1070.2, 1438.7 1006.8, 1343.8 1194.6 C 1248.9 1382.5, 1255.8 1248.5, 1110.4 1291.1 C 965.1 1333.7, 1010.5 1462.4, 882.7 1339.8 C 754.8 1217.2, 768.5 1227.7, 718.0 997.2 C 667.6 766.8, 661.5 861.5, 712.0 631.0 C 762.4 400.6, 792.2 500.4, 920.0 377.8 C 1047.9 255.2, 974.3 256.0, 1119.6 298.6 C 1265.0 341.2, 1178.8 237.8, 1273.7 425.7 C 1368.5 613.6, 1342.8 579.8, 1342.8 825.0 Z" fill="#E3E0FF" opacity="0.24" filter="url(#blur_coach_18_2098)"/>
  <path d="M 1514.5 987.0 C 1514.5 1274.1, 1503.4 1236.1, 1378.7 1456.0 C 1254.1 1675.9, 1345.0 1555.1, 1154.0 1604.9 C 963.0 1654.8, 1079.5 1590.1, 911.6 1446.5 C 743.6 1303.0, 742.3 1469.5, 676.0 1199.7 C 609.6 930.0, 628.7 1020.5, 695.0 750.7 C 761.4 480.9, 707.2 612.9, 875.2 469.4 C 1043.1 325.8, 978.7 237.2, 1169.7 287.0 C 1360.7 336.9, 1282.2 292.8, 1406.8 512.7 C 1531.5 732.7, 1514.5 699.9, 1514.5 987.0 Z" fill="#B891FF" opacity="0.38" filter="url(#blur_coach_18_2098)"/>
  <path d="M 1675.2 1040.0 C 1675.2 1287.5, 1604.0 1175.8, 1506.0 1365.4 C 1407.9 1555.0, 1484.1 1538.1, 1333.8 1581.0 C 1183.6 1624.0, 1219.2 1654.6, 1087.1 1530.8 C 954.9 1407.1, 998.2 1462.3, 946.0 1229.7 C 893.8 997.1, 870.6 1105.1, 922.8 872.5 C 975.0 640.0, 1003.9 704.4, 1136.0 580.6 C 1268.1 456.9, 1181.5 520.4, 1331.7 563.3 C 1481.9 606.3, 1428.0 473.5, 1526.1 663.1 C 1624.1 852.7, 1675.2 792.5, 1675.2 1040.0 Z" fill="#B4E6F8" opacity="0.35" filter="url(#blur_coach_18_2098)"/>
  <path d="M 401.5 2392.0 C 401.5 2605.8, 429.4 2481.8, 306.8 2645.6 C 184.1 2809.3, 290.9 2880.1, 103.0 2917.3 C -84.9 2954.4, 15.6 2950.9, -149.6 2844.0 C -314.8 2737.1, -354.6 2737.8, -419.9 2537.0 C -485.2 2336.1, -436.6 2425.6, -371.3 2224.8 C -306.1 2023.9, -376.7 2029.3, -211.4 1922.5 C -46.2 1815.6, -85.6 1901.9, 102.3 1939.0 C 290.2 1976.1, 239.9 1925.2, 362.5 2089.0 C 485.1 2252.7, 401.5 2178.2, 401.5 2392.0 Z" fill="#CCF7ED" opacity="0.19" filter="url(#blur_coach_18_2098)"/>
  <path d="M 518.4 2016.0 C 518.4 2154.6, 624.0 2121.8, 504.6 2228.0 C 385.1 2334.2, 392.4 2306.9, 209.3 2330.9 C 26.3 2355.0, 80.5 2392.4, -80.5 2323.1 C -241.4 2253.8, -157.0 2266.3, -220.6 2136.1 C -284.2 2005.8, -292.8 2039.1, -229.2 1908.8 C -165.7 1778.6, -207.3 1846.7, -46.3 1777.4 C 114.6 1708.1, 37.4 1742.5, 220.4 1766.5 C 403.4 1790.6, 374.2 1679.9, 493.6 1786.1 C 613.1 1892.3, 518.4 1877.4, 518.4 2016.0 Z" fill="#B891FF" opacity="0.26" filter="url(#blur_coach_18_2098)"/>
  <path d="M 275.0 1157.0 C 275.0 1401.8, 320.5 1307.8, 232.3 1495.3 C 144.1 1682.8, 162.0 1669.9, 26.8 1712.4 C -108.3 1754.9, -72.5 1819.4, -191.4 1697.0 C -310.3 1574.6, -235.0 1576.6, -282.0 1346.5 C -328.9 1116.5, -392.8 1192.3, -345.8 962.3 C -298.9 732.2, -303.0 811.8, -184.1 689.4 C -65.3 567.0, -106.6 507.1, 28.5 549.6 C 163.7 592.1, 117.1 622.8, 205.3 810.3 C 293.5 997.8, 275.0 912.2, 275.0 1157.0 Z" fill="#CFF3FF" opacity="0.30" filter="url(#blur_coach_18_2098)"/>
  <path d="M 719.8 547.0 C 719.8 768.0, 808.1 705.8, 651.4 875.1 C 494.6 1044.3, 596.1 999.4, 355.9 1037.7 C 115.7 1076.1, 209.4 1029.6, -1.8 919.2 C -213.0 808.7, -225.3 939.5, -308.7 731.8 C -392.1 524.2, -354.5 558.3, -271.0 350.6 C -187.6 143.0, -250.5 223.4, -39.3 113.0 C 171.9 2.5, 109.7 59.6, 349.9 98.0 C 590.1 136.3, 519.2 95.6, 676.0 264.8 C 832.8 434.1, 719.8 326.0, 719.8 547.0 Z" fill="#B891FF" opacity="0.23" filter="url(#blur_coach_18_2098)"/>
  <path d="M 1360.0 699.0 C 1360.0 902.0, 1287.6 846.1, 1169.9 1001.6 C 1052.2 1157.0, 1119.5 1135.9, 939.1 1171.2 C 758.7 1206.4, 831.9 1205.9, 673.2 1104.4 C 514.6 1002.9, 553.3 1070.4, 490.7 879.7 C 428.0 689.0, 428.6 741.9, 491.2 551.2 C 553.9 360.5, 528.8 341.7, 687.4 240.2 C 846.1 138.7, 781.8 211.4, 962.2 246.7 C 1142.6 281.9, 1042.9 208.8, 1160.6 364.3 C 1278.3 519.7, 1360.0 496.0, 1360.0 699.0 Z" fill="#86A8FF" opacity="0.36" filter="url(#blur_coach_18_2098)"/>
  <path d="M 1242.3 148.0 C 1242.3 483.2, 1298.1 290.4, 1223.3 561.6 C 1148.4 832.8, 1176.6 781.1, 1055.4 884.7 C 934.3 988.3, 1005.5 900.0, 884.4 796.4 C 763.3 692.8, 814.0 816.2, 739.1 545.0 C 664.3 273.8, 652.7 483.3, 652.7 148.0 C 652.7 -187.2, 645.3 41.5, 720.1 -229.8 C 795.0 -501.0, 754.2 -376.9, 875.4 -480.5 C 996.5 -584.1, 926.4 -656.1, 1047.5 -552.5 C 1168.6 -448.9, 1124.5 -566.6, 1199.3 -295.4 C 1274.2 -24.2, 1242.3 -187.2, 1242.3 148.0 Z" fill="#B4E6F8" opacity="0.12" stroke="#B4E6F8" stroke-opacity="0.46" stroke-width="3" filter="url(#soft_coach_18_2098)"/>
  <path d="M 1242.3 148.0 C 1242.3 483.2, 1298.1 290.4, 1223.3 561.6 C 1148.4 832.8, 1176.6 781.1, 1055.4 884.7 C 934.3 988.3, 1005.5 900.0, 884.4 796.4 C 763.3 692.8, 814.0 816.2, 739.1 545.0 C 664.3 273.8, 652.7 483.3, 652.7 148.0 C 652.7 -187.2, 645.3 41.5, 720.1 -229.8 C 795.0 -501.0, 754.2 -376.9, 875.4 -480.5 C 996.5 -584.1, 926.4 -656.1, 1047.5 -552.5 C 1168.6 -448.9, 1124.5 -566.6, 1199.3 -295.4 C 1274.2 -24.2, 1242.3 -187.2, 1242.3 148.0 Z" fill="none" stroke="#FFFFFF" stroke-opacity="0.22" stroke-width="1.2"/>
  <path d="M 444.4 1406.0 C 444.4 1807.0, 434.1 1616.9, 327.5 1941.2 C 220.9 2265.6, 278.2 2033.3, 105.7 2157.2 C -66.8 2281.1, 25.8 2439.0, -146.6 2315.1 C -319.1 2191.2, -220.7 2232.6, -327.3 1908.3 C -433.9 1583.9, -358.0 1807.0, -358.0 1406.0 C -358.0 1005.0, -436.8 1256.1, -330.2 931.7 C -223.6 607.3, -295.2 639.2, -122.7 515.3 C 49.7 391.4, -67.1 345.8, 105.3 469.7 C 277.8 593.6, 218.4 490.6, 325.0 815.0 C 431.6 1139.4, 444.4 1005.0, 444.4 1406.0 Z" fill="#CFF3FF" opacity="0.12" stroke="#CFF3FF" stroke-opacity="0.46" stroke-width="3" filter="url(#soft_coach_18_2098)"/>
  <path d="M 444.4 1406.0 C 444.4 1807.0, 434.1 1616.9, 327.5 1941.2 C 220.9 2265.6, 278.2 2033.3, 105.7 2157.2 C -66.8 2281.1, 25.8 2439.0, -146.6 2315.1 C -319.1 2191.2, -220.7 2232.6, -327.3 1908.3 C -433.9 1583.9, -358.0 1807.0, -358.0 1406.0 C -358.0 1005.0, -436.8 1256.1, -330.2 931.7 C -223.6 607.3, -295.2 639.2, -122.7 515.3 C 49.7 391.4, -67.1 345.8, 105.3 469.7 C 277.8 593.6, 218.4 490.6, 325.0 815.0 C 431.6 1139.4, 444.4 1005.0, 444.4 1406.0 Z" fill="none" stroke="#FFFFFF" stroke-opacity="0.22" stroke-width="1.2"/>
  <path d="M 397.5 2128.0 C 397.5 2291.3, 410.7 2219.1, 277.9 2351.3 C 145.1 2483.4, 301.7 2380.5, 86.9 2431.0 C -128.0 2481.5, -3.1 2562.8, -217.9 2512.3 C -432.8 2461.8, -314.2 2469.5, -447.0 2337.4 C -579.7 2205.2, -571.9 2291.3, -571.9 2128.0 C -571.9 1964.7, -581.8 2068.2, -449.1 1936.0 C -316.3 1803.9, -447.4 1807.8, -232.5 1757.3 C -17.7 1706.9, -137.2 1708.9, 77.6 1759.4 C 292.5 1809.8, 234.2 1791.0, 367.0 1923.2 C 499.8 2055.3, 397.5 1964.7, 397.5 2128.0 Z" fill="#86A8FF" opacity="0.12" stroke="#86A8FF" stroke-opacity="0.46" stroke-width="3" filter="url(#soft_coach_18_2098)"/>
  <path d="M 397.5 2128.0 C 397.5 2291.3, 410.7 2219.1, 277.9 2351.3 C 145.1 2483.4, 301.7 2380.5, 86.9 2431.0 C -128.0 2481.5, -3.1 2562.8, -217.9 2512.3 C -432.8 2461.8, -314.2 2469.5, -447.0 2337.4 C -579.7 2205.2, -571.9 2291.3, -571.9 2128.0 C -571.9 1964.7, -581.8 2068.2, -449.1 1936.0 C -316.3 1803.9, -447.4 1807.8, -232.5 1757.3 C -17.7 1706.9, -137.2 1708.9, 77.6 1759.4 C 292.5 1809.8, 234.2 1791.0, 367.0 1923.2 C 499.8 2055.3, 397.5 1964.7, 397.5 2128.0 Z" fill="none" stroke="#FFFFFF" stroke-opacity="0.22" stroke-width="1.2"/>
  <path d="M 1104.9 2465.0 C 1104.9 2830.4, 1096.0 2697.8, 926.9 2993.4 C 757.9 3289.0, 832.6 3168.0, 559.1 3281.0 C 285.6 3393.9, 448.5 3343.8, 175.0 3230.8 C -98.4 3117.9, 55.6 3269.4, -113.4 2973.7 C -282.4 2678.1, -270.9 2830.4, -270.9 2465.0 C -270.9 2099.6, -326.1 2345.9, -157.0 2050.3 C 12.0 1754.7, -108.3 1875.4, 165.1 1762.5 C 438.6 1649.6, 289.5 1601.6, 563.0 1714.5 C 836.4 1827.4, 705.7 1680.3, 874.7 1975.9 C 1043.7 2271.5, 1104.9 2099.6, 1104.9 2465.0 Z" fill="#B891FF" opacity="0.12" stroke="#FFFFFF" stroke-opacity="0.46" stroke-width="3" filter="url(#soft_coach_18_2098)"/>
  <path d="M 1104.9 2465.0 C 1104.9 2830.4, 1096.0 2697.8, 926.9 2993.4 C 757.9 3289.0, 832.6 3168.0, 559.1 3281.0 C 285.6 3393.9, 448.5 3343.8, 175.0 3230.8 C -98.4 3117.9, 55.6 3269.4, -113.4 2973.7 C -282.4 2678.1, -270.9 2830.4, -270.9 2465.0 C -270.9 2099.6, -326.1 2345.9, -157.0 2050.3 C 12.0 1754.7, -108.3 1875.4, 165.1 1762.5 C 438.6 1649.6, 289.5 1601.6, 563.0 1714.5 C 836.4 1827.4, 705.7 1680.3, 874.7 1975.9 C 1043.7 2271.5, 1104.9 2099.6, 1104.9 2465.0 Z" fill="none" stroke="#FFFFFF" stroke-opacity="0.22" stroke-width="1.2"/>
  <path d="M 762.1 2315.0 C 762.1 2606.6, 738.0 2491.8, 654.6 2727.7 C 571.3 2963.6, 665.8 2872.5, 531.0 2962.6 C 396.2 3052.7, 473.8 3060.4, 339.0 2970.3 C 204.1 2880.2, 228.0 2935.4, 144.7 2699.5 C 61.4 2463.5, 128.8 2606.6, 128.8 2315.0 C 128.8 2023.4, 98.7 2168.5, 182.0 1932.6 C 265.3 1696.7, 197.1 1741.9, 331.9 1651.8 C 466.7 1561.7, 387.6 1607.0, 522.4 1697.1 C 657.3 1787.2, 608.4 1710.5, 691.8 1946.4 C 775.1 2182.3, 762.1 2023.4, 762.1 2315.0 Z" fill="#B891FF" opacity="0.12" stroke="#B891FF" stroke-opacity="0.46" stroke-width="3" filter="url(#soft_coach_18_2098)"/>
  <path d="M 762.1 2315.0 C 762.1 2606.6, 738.0 2491.8, 654.6 2727.7 C 571.3 2963.6, 665.8 2872.5, 531.0 2962.6 C 396.2 3052.7, 473.8 3060.4, 339.0 2970.3 C 204.1 2880.2, 228.0 2935.4, 144.7 2699.5 C 61.4 2463.5, 128.8 2606.6, 128.8 2315.0 C 128.8 2023.4, 98.7 2168.5, 182.0 1932.6 C 265.3 1696.7, 197.1 1741.9, 331.9 1651.8 C 466.7 1561.7, 387.6 1607.0, 522.4 1697.1 C 657.3 1787.2, 608.4 1710.5, 691.8 1946.4 C 775.1 2182.3, 762.1 2023.4, 762.1 2315.0 Z" fill="none" stroke="#FFFFFF" stroke-opacity="0.22" stroke-width="1.2"/>
  <path d="M 520.9 1030.0 C 520.9 1334.7, 550.7 1176.4, 475.6 1422.9 C 400.5 1669.3, 476.4 1523.4, 354.9 1617.6 C 233.3 1711.7, 306.2 1806.5, 184.7 1712.3 C 63.2 1618.2, 138.5 1728.2, 63.4 1481.7 C -11.8 1235.3, -45.0 1334.7, -45.0 1030.0 C -45.0 725.3, -32.4 891.8, 42.7 645.3 C 117.8 398.8, 54.6 476.0, 176.1 381.9 C 297.7 287.7, 234.6 254.6, 356.1 348.7 C 477.7 442.9, 404.5 352.4, 479.7 598.8 C 554.8 845.3, 520.9 725.3, 520.9 1030.0 Z" fill="#86A8FF" opacity="0.12" stroke="#86A8FF" stroke-opacity="0.46" stroke-width="3" filter="url(#soft_coach_18_2098)"/>
  <path d="M 520.9 1030.0 C 520.9 1334.7, 550.7 1176.4, 475.6 1422.9 C 400.5 1669.3, 476.4 1523.4, 354.9 1617.6 C 233.3 1711.7, 306.2 1806.5, 184.7 1712.3 C 63.2 1618.2, 138.5 1728.2, 63.4 1481.7 C -11.8 1235.3, -45.0 1334.7, -45.0 1030.0 C -45.0 725.3, -32.4 891.8, 42.7 645.3 C 117.8 398.8, 54.6 476.0, 176.1 381.9 C 297.7 287.7, 234.6 254.6, 356.1 348.7 C 477.7 442.9, 404.5 352.4, 479.7 598.8 C 554.8 845.3, 520.9 725.3, 520.9 1030.0 Z" fill="none" stroke="#FFFFFF" stroke-opacity="0.22" stroke-width="1.2"/>
  <path d="M -100.0 1976.9 Q 133.3 1871.6, 366.7 1907.7 Q 600.0 1960.2, 833.3 2042.0 Q 1066.7 2290.0, 1300.0 2329.4" fill="none" stroke="#FFFFFF" stroke-opacity="0.38" stroke-width="4" filter="url(#soft_coach_18_2098)"/>
  <path d="M -100.0 1976.9 Q 133.3 1871.6, 366.7 1907.7 Q 600.0 1960.2, 833.3 2042.0 Q 1066.7 2290.0, 1300.0 2329.4" fill="none" stroke="#4ECAD1" stroke-opacity="0.18" stroke-width="2"/>
  <path d="M -100.0 135.9 Q 133.3 -91.9, 366.7 -317.5 Q 600.0 -239.0, 833.3 26.0 Q 1066.7 347.7, 1300.0 362.5" fill="none" stroke="#FFFFFF" stroke-opacity="0.38" stroke-width="4" filter="url(#soft_coach_18_2098)"/>
  <path d="M -100.0 135.9 Q 133.3 -91.9, 366.7 -317.5 Q 600.0 -239.0, 833.3 26.0 Q 1066.7 347.7, 1300.0 362.5" fill="none" stroke="#4ECAD1" stroke-opacity="0.18" stroke-width="2"/>
  <path d="M -100.0 209.4 Q 133.3 475.5, 366.7 352.3 Q 600.0 137.8, 833.3 131.5 Q 1066.7 441.1, 1300.0 512.2" fill="none" stroke="#FFFFFF" stroke-opacity="0.38" stroke-width="4" filter="url(#soft_coach_18_2098)"/>
  <path d="M -100.0 209.4 Q 133.3 475.5, 366.7 352.3 Q 600.0 137.8, 833.3 131.5 Q 1066.7 441.1, 1300.0 512.2" fill="none" stroke="#4ECAD1" stroke-opacity="0.18" stroke-width="2"/>
  <path d="M -100.0 441.3 Q 133.3 224.4, 366.7 215.8 Q 600.0 150.7, 833.3 410.4 Q 1066.7 633.8, 1300.0 667.0" fill="none" stroke="#FFFFFF" stroke-opacity="0.38" stroke-width="4" filter="url(#soft_coach_18_2098)"/>
  <path d="M -100.0 441.3 Q 133.3 224.4, 366.7 215.8 Q 600.0 150.7, 833.3 410.4 Q 1066.7 633.8, 1300.0 667.0" fill="none" stroke="#86A8FF" stroke-opacity="0.18" stroke-width="2"/>
  <circle cx="43" cy="950" r="97" fill="url(#orb_coach_18_2098)" opacity="0.36"/>
  <circle cx="43" cy="950" r="97" fill="#CFF3FF" opacity="0.08"/>
  <circle cx="43" cy="950" r="97" fill="none" stroke="#FFFFFF" stroke-opacity="0.56" stroke-width="3"/>
  <ellipse cx="15.8" cy="915.1" rx="17.5" ry="7.8" fill="#FFFFFF" opacity="0.42" transform="rotate(-22 15.8 915.1)"/>
  <circle cx="1128" cy="1685" r="150" fill="url(#orb_coach_18_2098)" opacity="0.36"/>
  <circle cx="1128" cy="1685" r="150" fill="#F7FEFF" opacity="0.08"/>
  <circle cx="1128" cy="1685" r="150" fill="none" stroke="#FFFFFF" stroke-opacity="0.56" stroke-width="3"/>
  <ellipse cx="1086.0" cy="1631.0" rx="27.0" ry="12.0" fill="#FFFFFF" opacity="0.42" transform="rotate(-22 1086.0 1631.0)"/>
  <circle cx="638" cy="2489" r="270" fill="url(#orb_coach_18_2098)" opacity="0.36"/>
  <circle cx="638" cy="2489" r="270" fill="#4ECAD1" opacity="0.08"/>
  <circle cx="638" cy="2489" r="270" fill="none" stroke="#FFFFFF" stroke-opacity="0.56" stroke-width="3"/>
  <ellipse cx="562.4" cy="2391.8" rx="48.6" ry="21.6" fill="#FFFFFF" opacity="0.42" transform="rotate(-22 562.4 2391.8)"/>
  <circle cx="867" cy="104" r="115" fill="url(#orb_coach_18_2098)" opacity="0.21"/>
  <circle cx="867" cy="104" r="115" fill="#CFF3FF" opacity="0.08"/>
  <circle cx="867" cy="104" r="115" fill="none" stroke="#FFFFFF" stroke-opacity="0.56" stroke-width="3"/>
  <ellipse cx="834.8" cy="62.6" rx="20.7" ry="9.2" fill="#FFFFFF" opacity="0.42" transform="rotate(-22 834.8 62.6)"/>
  <circle cx="618" cy="204" r="188" fill="url(#orb_coach_18_2098)" opacity="0.19"/>
  <circle cx="618" cy="204" r="188" fill="#E3E0FF" opacity="0.08"/>
  <circle cx="618" cy="204" r="188" fill="none" stroke="#FFFFFF" stroke-opacity="0.56" stroke-width="3"/>
  <ellipse cx="565.4" cy="136.3" rx="33.8" ry="15.0" fill="#FFFFFF" opacity="0.42" transform="rotate(-22 565.4 136.3)"/>
  <circle cx="1045" cy="264" r="207" fill="url(#orb_coach_18_2098)" opacity="0.19"/>
  <circle cx="1045" cy="264" r="207" fill="#B4E6F8" opacity="0.08"/>
  <circle cx="1045" cy="264" r="207" fill="none" stroke="#FFFFFF" stroke-opacity="0.56" stroke-width="3"/>
  <ellipse cx="987.0" cy="189.5" rx="37.3" ry="16.6" fill="#FFFFFF" opacity="0.42" transform="rotate(-22 987.0 189.5)"/>
  <circle cx="180" cy="378" r="267" fill="url(#orb_coach_18_2098)" opacity="0.26"/>
  <circle cx="180" cy="378" r="267" fill="#86A8FF" opacity="0.08"/>
  <circle cx="180" cy="378" r="267" fill="none" stroke="#FFFFFF" stroke-opacity="0.56" stroke-width="3"/>
  <ellipse cx="105.2" cy="281.9" rx="48.1" ry="21.4" fill="#FFFFFF" opacity="0.42" transform="rotate(-22 105.2 281.9)"/>
  <circle cx="898" cy="1856" r="255" fill="url(#orb_coach_18_2098)" opacity="0.21"/>
  <circle cx="898" cy="1856" r="255" fill="#F7FEFF" opacity="0.08"/>
  <circle cx="898" cy="1856" r="255" fill="none" stroke="#FFFFFF" stroke-opacity="0.56" stroke-width="3"/>
  <ellipse cx="826.6" cy="1764.2" rx="45.9" ry="20.4" fill="#FFFFFF" opacity="0.42" transform="rotate(-22 826.6 1764.2)"/>
  <circle cx="600" cy="2313" r="7" fill="#FFFFFF" opacity="0.29"/>
  <circle cx="495" cy="1092" r="2" fill="#FFFFFF" opacity="0.65"/>
  <circle cx="507" cy="1385" r="3" fill="#FFFFFF" opacity="0.55"/>
  <circle cx="105" cy="1649" r="3" fill="#FFFFFF" opacity="0.69"/>
  <circle cx="898" cy="657" r="3" fill="#FFFFFF" opacity="0.39"/>
  <circle cx="929" cy="1451" r="4" fill="#FFFFFF" opacity="0.64"/>
  <circle cx="555" cy="1057" r="4" fill="#FFFFFF" opacity="0.65"/>
  <circle cx="753" cy="2077" r="4" fill="#FFFFFF" opacity="0.29"/>
  <circle cx="1185" cy="1043" r="3" fill="#FFFFFF" opacity="0.33"/>
  <circle cx="689" cy="1956" r="4" fill="#FFFFFF" opacity="0.63"/>
  <circle cx="641" cy="2387" r="7" fill="#FFFFFF" opacity="0.44"/>
  <circle cx="776" cy="2210" r="4" fill="#FFFFFF" opacity="0.64"/>
  <circle cx="856" cy="808" r="5" fill="#FFFFFF" opacity="0.60"/>
  <circle cx="309" cy="255" r="3" fill="#FFFFFF" opacity="0.35"/>
  <circle cx="83" cy="33" r="5" fill="#FFFFFF" opacity="0.49"/>
  <circle cx="726" cy="2084" r="2" fill="#FFFFFF" opacity="0.46"/>
  <circle cx="181" cy="1206" r="4" fill="#FFFFFF" opacity="0.71"/>
  <circle cx="421" cy="1603" r="4" fill="#FFFFFF" opacity="0.51"/>
  <circle cx="1027" cy="856" r="7" fill="#FFFFFF" opacity="0.34"/>
  <circle cx="734" cy="1015" r="4" fill="#FFFFFF" opacity="0.41"/>
  <circle cx="686" cy="1802" r="4" fill="#FFFFFF" opacity="0.62"/>
  <rect width="1200" height="2600" fill="#FFFFFF" opacity="0.08"/>
  <rect width="1200" height="2600" filter="url(#grain_coach_18_2098)" opacity="0.7"/>
</svg>
