<svg xmlns="http://www.w3.org/2000/svg" width="1200" height="2600" viewBox="0 0 1200 2600" preserveAspectRatio="xMidYMid slice">
  <defs>
    <linearGradient id="bg_coach_09_8343" x1="0" y1="0" x2="1" y2="1">
      <stop offset="0%" stop-color="#B4E6F8"/>
      <stop offset="48%" stop-color="#F7FEFF"/>
      <stop offset="100%" stop-color="#E3E0FF"/>
    </linearGradient>
    <radialGradient id="orb_coach_09_8343" cx="35%" cy="30%" r="70%">
      <stop offset="0%" stop-color="#FFFFFF" stop-opacity="0.85"/>
      <stop offset="42%" stop-color="#FFFFFF" stop-opacity="0.20"/>
      <stop offset="100%" stop-color="#FFFFFF" stop-opacity="0.02"/>
    </radialGradient>
    <filter id="blur_coach_09_8343" x="-30%" y="-30%" width="160%" height="160%">
      <feGaussianBlur stdDeviation="72"/>
    </filter>
    <filter id="soft_coach_09_8343" x="-20%" y="-20%" width="140%" height="140%">
      <feGaussianBlur stdDeviation="10"/>
    </filter>
    <filter id="grain_coach_09_8343">
      <feTurbulence type="fractalNoise" baseFrequency="0.85" numOctaves="2" stitchTiles="stitch"/>
      <feColorMatrix type="saturate" values="0"/>
      <feComponentTransfer>
        <feFuncA type="table" tableValues="0 0.035"/>
      </feComponentTransfer>
    </filter>
  </defs>
  <rect width="1200" height="2600" fill="url(#bg_coach_09_8343)"/>
  <path d="M 634.6 -141.0 C 634.6 141.2, 590.4 5.1, 446.4 221.3 C 302.3 437.4, 432.9 437.2, 212.2 486.2 C -8.5 535.2, 93.1 626.0, -101.0 484.9 C -295.1 343.9, -228.6 327.8, -305.3 62.6 C -381.9 -202.5, -462.1 -74.8, -385.5 -340.0 C -308.8 -605.1, -320.5 -451.3, -126.4 -592.4 C 67.7 -733.4, -10.6 -839.4, 210.1 -790.4 C 430.8 -741.4, 293.9 -740.3, 437.9 -524.1 C 582.0 -308.0, 634.6 -423.2, 634.6 -141.0 Z" fill="#CFF3FF" opacity="0.26" filter="url(#blur_coach_09_8343)"/>
  <path d="M 1781.5 -51.0 C 1781.5 212.2, 1707.1 114.3, 1575.5 315.9 C 1443.9 517.6, 1553.9 447.9, 1352.3 493.6 C 1150.6 539.3, 1238.5 568.0, 1061.2 436.4 C 883.9 304.7, 903.8 422.5, 833.8 175.2 C 763.8 -72.2, 710.9 5.0, 780.9 -242.4 C 850.9 -489.8, 903.6 -362.6, 1081.0 -494.3 C 1258.3 -625.9, 1171.1 -768.1, 1372.8 -722.4 C 1574.4 -676.6, 1542.4 -590.5, 1674.0 -388.8 C 1805.6 -187.2, 1781.5 -314.2, 1781.5 -51.0 Z" fill="#B891FF" opacity="0.36" filter="url(#blur_coach_09_8343)"/>
  <path d="M 1599.4 597.0 C 1599.4 815.7, 1654.3 717.2, 1572.7 884.7 C 1491.2 1052.3, 1502.6 1098.3, 1377.6 1136.3 C 1252.7 1174.3, 1311.7 1196.6, 1201.8 1087.3 C 1091.9 977.9, 1124.3 976.6, 1080.9 771.1 C 1037.5 565.6, 1057.3 665.6, 1100.7 460.1 C 1144.1 254.6, 1066.9 341.5, 1176.8 232.2 C 1286.7 122.8, 1259.2 129.0, 1384.1 167.0 C 1509.1 205.0, 1505.4 167.8, 1586.9 335.3 C 1668.5 502.9, 1599.4 378.3, 1599.4 597.0 Z" fill="#B4E6F8" opacity="0.32" filter="url(#blur_coach_09_8343)"/>
  <path d="M 889.8 2371.0 C 889.8 2547.8, 896.9 2488.2, 787.9 2623.6 C 678.8 2759.1, 741.5 2703.3, 574.4 2734.0 C 407.3 2764.7, 437.3 2822.8, 290.4 2734.4 C 143.5 2645.9, 144.2 2682.6, 86.2 2516.4 C 28.2 2350.2, 93.4 2378.7, 151.4 2212.5 C 209.4 2046.3, 194.7 2086.5, 341.7 1998.1 C 488.6 1909.7, 390.3 1894.4, 557.4 1925.1 C 724.5 1955.8, 715.5 1985.5, 824.6 2121.0 C 933.6 2256.4, 889.8 2194.2, 889.8 2371.0 Z" fill="#E3E0FF" opacity="0.24" filter="url(#blur_coach_09_8343)"/>
  <path d="M 1493.7 783.0 C 1493.7 1081.3, 1558.4 1040.9, 1456.6 1269.5 C 1354.7 1498.0, 1384.7 1369.1, 1228.7 1420.9 C 1072.7 1472.7, 1106.6 1435.5, 969.4 1286.4 C 832.2 1137.2, 858.0 1281.6, 803.8 1001.2 C 749.7 720.9, 733.9 873.2, 788.1 592.9 C 842.2 312.5, 856.3 376.5, 993.5 227.3 C 1130.6 78.1, 1074.4 7.3, 1230.4 59.2 C 1386.4 111.0, 1285.6 115.2, 1387.4 343.8 C 1489.2 572.3, 1493.7 484.6, 1493.7 783.0 Z" fill="#F7FEFF" opacity="0.17" filter="url(#blur_coach_09_8343)"/>
  <path d="M 911.9 1264.0 C 911.9 1440.0, 933.9 1394.6, 841.3 1529.4 C 748.8 1664.2, 777.7 1603.1, 635.9 1633.6 C 494.1 1664.2, 555.5 1725.0, 430.8 1637.1 C 306.1 1549.1, 310.4 1559.1, 261.1 1393.8 C 211.9 1228.4, 210.8 1316.4, 260.1 1151.0 C 309.3 985.7, 281.0 1053.6, 405.7 965.6 C 530.4 877.7, 490.2 917.5, 632.0 948.0 C 773.8 978.6, 711.0 916.0, 803.6 1050.8 C 896.1 1185.6, 911.9 1088.0, 911.9 1264.0 Z" fill="#F7FEFF" opacity="0.20" filter="url(#blur_coach_09_8343)"/>
  <path d="M 1147.0 1068.0 C 1147.0 1370.4, 1046.5 1327.5, 891.7 1559.1 C 737.0 1790.8, 887.2 1750.5, 650.1 1803.0 C 413.0 1855.5, 504.9 1716.3, 296.4 1565.1 C 87.9 1413.9, 37.5 1604.6, -44.8 1320.5 C -127.1 1036.3, 21.0 1142.3, 103.3 858.2 C 185.7 574.0, 64.6 552.7, 273.1 401.5 C 481.6 250.3, 388.0 257.0, 625.1 309.5 C 862.2 362.0, 796.8 379.6, 951.6 611.2 C 1106.3 842.9, 1147.0 765.6, 1147.0 1068.0 Z" fill="#CCF7ED" opacity="0.19" filter="url(#blur_coach_09_8343)"/>
  <path d="M 425.7 2571.0 C 425.7 2691.2, 450.9 2638.7, 384.1 2730.7 C 317.3 2822.8, 323.7 2798.3, 221.3 2819.1 C 119.0 2840.0, 155.2 2863.5, 65.2 2803.5 C -24.8 2743.4, -7.7 2778.4, -43.3 2665.5 C -78.8 2552.6, -96.0 2585.8, -60.4 2472.9 C -24.9 2360.0, -20.4 2435.3, 69.6 2375.3 C 159.6 2315.2, 125.3 2280.8, 227.7 2301.6 C 330.0 2322.5, 304.1 2312.7, 370.9 2404.8 C 437.7 2496.8, 425.7 2450.8, 425.7 2571.0 Z" fill="#B891FF" opacity="0.17" filter="url(#blur_coach_09_8343)"/>
  <path d="M 350.5 916.0 C 350.5 1087.0, 299.3 1072.1, 199.5 1203.1 C 99.7 1334.1, 191.2 1198.4, 38.3 1228.1 C -114.6 1257.8, -42.5 1285.1, -176.9 1199.6 C -311.4 1114.1, -256.2 1229.9, -309.3 1069.2 C -362.4 908.6, -375.9 933.4, -322.8 772.7 C -269.7 612.0, -327.9 711.7, -193.5 626.2 C -59.0 540.7, -116.0 546.1, 36.9 575.8 C 189.8 605.5, 166.6 532.8, 266.4 663.8 C 366.2 794.8, 350.5 745.0, 350.5 916.0 Z" fill="#86A8FF" opacity="0.28" filter="url(#blur_coach_09_8343)"/>
  <path d="M 1172.5 2113.0 C 1172.5 2243.5, 1128.1 2213.5, 1057.9 2313.4 C 987.6 2413.4, 1045.4 2347.9, 937.7 2370.6 C 830.0 2393.3, 851.0 2457.3, 756.3 2392.0 C 661.6 2326.8, 683.8 2324.4, 646.4 2201.8 C 609.0 2079.1, 669.1 2138.4, 706.5 2015.8 C 743.9 1893.1, 664.5 1938.9, 759.2 1873.7 C 853.9 1808.4, 834.7 1826.7, 942.4 1849.3 C 1050.1 1872.0, 994.9 1838.7, 1065.2 1938.7 C 1135.5 2038.6, 1172.5 1982.5, 1172.5 2113.0 Z" fill="#CCF7ED" opacity="0.17" filter="url(#blur_coach_09_8343)"/>
  <path d="M 717.2 1338.0 C 717.2 1714.2, 730.6 1501.8, 549.4 1806.2 C 368.2 2110.5, 561.2 2038.0, 268.0 2154.2 C -25.1 2270.5, 140.9 2224.6, -152.3 2108.4 C -445.4 1992.1, -372.2 2069.1, -553.3 1764.7 C -734.5 1460.4, -706.6 1714.2, -706.6 1338.0 C -706.6 961.8, -622.2 1160.4, -441.0 856.1 C -259.8 551.7, -448.8 655.9, -155.6 539.6 C 137.6 423.3, -63.4 500.7, 229.8 617.0 C 522.9 733.3, 364.9 505.6, 546.1 809.9 C 727.3 1114.3, 717.2 961.8, 717.2 1338.0 Z" fill="#CCF7ED" opacity="0.12" stroke="#CCF7ED" stroke-opacity="0.46" stroke-width="3" filter="url(#soft_coach_09_8343)"/>
  <path d="M 717.2 1338.0 C 717.2 1714.2, 730.6 1501.8, 549.4 1806.2 C 368.2 2110.5, 561.2 2038.0, 268.0 2154.2 C -25.1 2270.5, 140.9 2224.6, -152.3 2108.4 C -445.4 1992.1, -372.2 2069.1, -553.3 1764.7 C -734.5 1460.4, -706.6 1714.2, -706.6 1338.0 C -706.6 961.8, -622.2 1160.4, -441.0 856.1 C -259.8 551.7, -448.8 655.9, -155.6 539.6 C 137.6 423.3, -63.4 500.7, 229.8 617.0 C 522.9 733.3, 364.9 505.6, 546.1 809.9 C 727.3 1114.3, 717.2 961.8, 717.2 1338.0 Z" fill="none" stroke="#FFFFFF" stroke-opacity="0.22" stroke-width="1.2"/>
  <path d="M 979.6 26.0 C 979.6 371.2, 1018.2 156.1, 869.3 435.3 C 720.4 714.5, 801.5 735.7, 560.6 842.3 C 319.6 949.0, 453.2 941.8, 212.2 835.1 C -28.7 728.5, 73.1 785.4, -75.8 506.1 C -224.7 226.9, -183.0 371.2, -183.0 26.0 C -183.0 -319.1, -240.8 -134.3, -91.9 -413.6 C 57.0 -692.8, -64.5 -695.4, 176.5 -802.1 C 417.4 -908.7, 310.3 -878.4, 551.2 -771.8 C 792.2 -665.1, 723.8 -676.3, 872.7 -397.0 C 1021.7 -117.8, 979.6 -319.2, 979.6 26.0 Z" fill="#E3E0FF" opacity="0.12" stroke="#FFFFFF" stroke-opacity="0.46" stroke-width="3" filter="url(#soft_coach_09_8343)"/>
  <path d="M 979.6 26.0 C 979.6 371.2, 1018.2 156.1, 869.3 435.3 C 720.4 714.5, 801.5 735.7, 560.6 842.3 C 319.6 949.0, 453.2 941.8, 212.2 835.1 C -28.7 728.5, 73.1 785.4, -75.8 506.1 C -224.7 226.9, -183.0 371.2, -183.0 26.0 C -183.0 -319.1, -240.8 -134.3, -91.9 -413.6 C 57.0 -692.8, -64.5 -695.4, 176.5 -802.1 C 417.4 -908.7, 310.3 -878.4, 551.2 -771.8 C 792.2 -665.1, 723.8 -676.3, 872.7 -397.0 C 1021.7 -117.8, 979.6 -319.2, 979.6 26.0 Z" fill="none" stroke="#FFFFFF" stroke-opacity="0.22" stroke-width="1.2"/>
  <path d="M 652.6 1974.0 C 652.6 2127.0, 637.2 2040.5, 559.7 2164.3 C 482.2 2288.1, 541.8 2276.1, 416.4 2323.3 C 291.0 2370.6, 360.2 2338.5, 234.8 2291.3 C 109.4 2244.0, 196.2 2322.1, 118.7 2198.3 C 41.2 2074.5, 23.7 2127.0, 23.7 1974.0 C 23.7 1821.0, -0.4 1871.5, 77.1 1747.7 C 154.6 1623.9, 121.3 1672.2, 246.7 1625.0 C 372.1 1577.7, 299.3 1640.6, 424.7 1687.9 C 550.1 1735.2, 503.5 1662.2, 581.0 1786.0 C 658.5 1909.8, 652.6 1821.0, 652.6 1974.0 Z" fill="#B891FF" opacity="0.12" stroke="#FFFFFF" stroke-opacity="0.46" stroke-width="3" filter="url(#soft_coach_09_8343)"/>
  <path d="M 652.6 1974.0 C 652.6 2127.0, 637.2 2040.5, 559.7 2164.3 C 482.2 2288.1, 541.8 2276.1, 416.4 2323.3 C 291.0 2370.6, 360.2 2338.5, 234.8 2291.3 C 109.4 2244.0, 196.2 2322.1, 118.7 2198.3 C 41.2 2074.5, 23.7 2127.0, 23.7 1974.0 C 23.7 1821.0, -0.4 1871.5, 77.1 1747.7 C 154.6 1623.9, 121.3 1672.2, 246.7 1625.0 C 372.1 1577.7, 299.3 1640.6, 424.7 1687.9 C 550.1 1735.2, 503.5 1662.2, 581.0 1786.0 C 658.5 1909.8, 652.6 1821.0, 652.6 1974.0 Z" fill="none" stroke="#FFFFFF" stroke-opacity="0.22" stroke-width="1.2"/>
  <path d="M 1221.6 2001.0 C 1221.6 2299.8, 1232.7 2157.2, 1152.8 2398.9 C 1072.9 2640.6, 1141.6 2575.2, 1012.3 2667.5 C 883.1 2759.9, 952.5 2807.3, 823.3 2715.0 C 694.0 2622.7, 737.2 2616.1, 657.4 2374.3 C 577.5 2132.6, 593.0 2299.8, 593.0 2001.0 C 593.0 1702.2, 612.2 1802.4, 692.1 1560.6 C 771.9 1318.9, 692.5 1422.1, 821.8 1329.7 C 951.0 1237.4, 889.5 1232.7, 1018.7 1325.0 C 1148.0 1417.4, 1084.8 1422.5, 1164.7 1664.2 C 1244.6 1905.9, 1221.6 1702.2, 1221.6 2001.0 Z" fill="#86A8FF" opacity="0.12" stroke="#FFFFFF" stroke-opacity="0.46" stroke-width="3" filter="url(#soft_coach_09_8343)"/>
  <path d="M 1221.6 2001.0 C 1221.6 2299.8, 1232.7 2157.2, 1152.8 2398.9 C 1072.9 2640.6, 1141.6 2575.2, 1012.3 2667.5 C 883.1 2759.9, 952.5 2807.3, 823.3 2715.0 C 694.0 2622.7, 737.2 2616.1, 657.4 2374.3 C 577.5 2132.6, 593.0 2299.8, 593.0 2001.0 C 593.0 1702.2, 612.2 1802.4, 692.1 1560.6 C 771.9 1318.9, 692.5 1422.1, 821.8 1329.7 C 951.0 1237.4, 889.5 1232.7, 1018.7 1325.0 C 1148.0 1417.4, 1084.8 1422.5, 1164.7 1664.2 C 1244.6 1905.9, 1221.6 1702.2, 1221.6 2001.0 Z" fill="none" stroke="#FFFFFF" stroke-opacity="0.22" stroke-width="1.2"/>
  <path d="M 1595.6 -284.0 C 1595.6 23.4, 1551.5 -146.7, 1473.5 102.0 C 1395.4 350.6, 1474.1 212.0, 1347.8 307.0 C 1221.6 402.0, 1287.3 371.8, 1161.0 276.8 C 1034.8 181.8, 1115.4 404.1, 1037.4 155.4 C 959.3 -93.2, 970.0 23.4, 970.0 -284.0 C 970.0 -591.3, 937.1 -466.8, 1015.1 -715.4 C 1093.1 -964.1, 1043.2 -808.1, 1169.5 -903.1 C 1295.7 -998.1, 1219.5 -975.5, 1345.7 -880.6 C 1472.0 -785.6, 1427.4 -986.0, 1505.4 -737.4 C 1583.4 -488.7, 1595.6 -591.4, 1595.6 -284.0 Z" fill="#B4E6F8" opacity="0.12" stroke="#B4E6F8" stroke-opacity="0.46" stroke-width="3" filter="url(#soft_coach_09_8343)"/>
  <path d="M 1595.6 -284.0 C 1595.6 23.4, 1551.5 -146.7, 1473.5 102.0 C 1395.4 350.6, 1474.1 212.0, 1347.8 307.0 C 1221.6 402.0, 1287.3 371.8, 1161.0 276.8 C 1034.8 181.8, 1115.4 404.1, 1037.4 155.4 C 959.3 -93.2, 970.0 23.4, 970.0 -284.0 C 970.0 -591.3, 937.1 -466.8, 1015.1 -715.4 C 1093.1 -964.1, 1043.2 -808.1, 1169.5 -903.1 C 1295.7 -998.1, 1219.5 -975.5, 1345.7 -880.6 C 1472.0 -785.6, 1427.4 -986.0, 1505.4 -737.4 C 1583.4 -488.7, 1595.6 -591.4, 1595.6 -284.0 Z" fill="none" stroke="#FFFFFF" stroke-opacity="0.22" stroke-width="1.2"/>
  <path d="M 1164.1 1681.0 C 1164.1 1997.8, 1160.6 1842.5, 1000.6 2098.8 C 840.5 2355.1, 953.2 2322.6, 694.3 2420.5 C 435.4 2518.4, 584.8 2363.2, 325.8 2265.3 C 66.9 2167.4, 194.2 2403.9, 34.2 2147.6 C -125.8 1891.3, -151.9 1997.8, -151.9 1681.0 C -151.9 1364.2, -160.4 1478.6, -0.4 1222.3 C 159.6 966.0, 68.3 1156.6, 327.2 1058.7 C 586.1 960.8, 442.9 823.4, 701.8 921.3 C 960.7 1019.2, 837.3 1043.6, 997.4 1299.8 C 1157.4 1556.1, 1164.1 1364.2, 1164.1 1681.0 Z" fill="#4ECAD1" opacity="0.12" stroke="#4ECAD1" stroke-opacity="0.46" stroke-width="3" filter="url(#soft_coach_09_8343)"/>
  <path d="M 1164.1 1681.0 C 1164.1 1997.8, 1160.6 1842.5, 1000.6 2098.8 C 840.5 2355.1, 953.2 2322.6, 694.3 2420.5 C 435.4 2518.4, 584.8 2363.2, 325.8 2265.3 C 66.9 2167.4, 194.2 2403.9, 34.2 2147.6 C -125.8 1891.3, -151.9 1997.8, -151.9 1681.0 C -151.9 1364.2, -160.4 1478.6, -0.4 1222.3 C 159.6 966.0, 68.3 1156.6, 327.2 1058.7 C 586.1 960.8, 442.9 823.4, 701.8 921.3 C 960.7 1019.2, 837.3 1043.6, 997.4 1299.8 C 1157.4 1556.1, 1164.1 1364.2, 1164.1 1681.0 Z" fill="none" stroke="#FFFFFF" stroke-opacity="0.22" stroke-width="1.2"/>
  <path d="M 1632.6 867.0 C 1632.6 1178.8, 1694.6 1030.9, 1548.9 1283.2 C 1403.1 1535.5, 1529.6 1386.6, 1293.8 1483.0 C 1058.0 1579.4, 1182.2 1698.8, 946.4 1602.5 C 710.5 1506.1, 779.0 1505.5, 633.2 1253.2 C 487.5 1000.9, 615.6 1178.9, 615.6 867.0 C 615.6 555.2, 593.0 756.9, 738.7 504.6 C 884.5 252.4, 746.0 214.3, 981.8 117.9 C 1217.6 21.5, 1067.5 117.6, 1303.3 213.9 C 1539.1 310.3, 1405.3 193.5, 1551.1 445.8 C 1696.8 698.1, 1632.6 555.1, 1632.6 867.0 Z" fill="#CFF3FF" opacity="0.12" stroke="#FFFFFF" stroke-opacity="0.46" stroke-width="3" filter="url(#soft_coach_09_8343)"/>
  <path d="M 1632.6 867.0 C 1632.6 1178.8, 1694.6 1030.9, 1548.9 1283.2 C 1403.1 1535.5, 1529.6 1386.6, 1293.8 1483.0 C 1058.0 1579.4, 1182.2 1698.8, 946.4 1602.5 C 710.5 1506.1, 779.0 1505.5, 633.2 1253.2 C 487.5 1000.9, 615.6 1178.9, 615.6 867.0 C 615.6 555.2, 593.0 756.9, 738.7 504.6 C 884.5 252.4, 746.0 214.3, 981.8 117.9 C 1217.6 21.5, 1067.5 117.6, 1303.3 213.9 C 1539.1 310.3, 1405.3 193.5, 1551.1 445.8 C 1696.8 698.1, 1632.6 555.1, 1632.6 867.0 Z" fill="none" stroke="#FFFFFF" stroke-opacity="0.22" stroke-width="1.2"/>
  <path d="M -100.0 2388.5 Q 133.3 2350.9, 366.7 2138.2 Q 600.0 2219.7, 833.3 2404.9 Q 1066.7 2321.7, 1300.0 2137.9" fill="none" stroke="#FFFFFF" stroke-opacity="0.38" stroke-width="4" filter="url(#soft_coach_09_8343)"/>
  <path d="M -100.0 2388.5 Q 133.3 2350.9, 366.7 2138.2 Q 600.0 2219.7, 833.3 2404.9 Q 1066.7 2321.7, 1300.0 2137.9" fill="none" stroke="#4ECAD1" stroke-opacity="0.18" stroke-width="2"/>
  <path d="M -100.0 31.2 Q 133.3 119.5, 366.7 -118.2 Q 600.0 -120.1, 833.3 16.7 Q 1066.7 62.3, 1300.0 7.2" fill="none" stroke="#FFFFFF" stroke-opacity="0.38" stroke-width="4" filter="url(#soft_coach_09_8343)"/>
  <path d="M -100.0 31.2 Q 133.3 119.5, 366.7 -118.2 Q 600.0 -120.1, 833.3 16.7 Q 1066.7 62.3, 1300.0 7.2" fill="none" stroke="#86A8FF" stroke-opacity="0.18" stroke-width="2"/>
  <path d="M -100.0 1212.9 Q 133.3 934.3, 366.7 1161.3 Q 600.0 1459.2, 833.3 1620.9 Q 1066.7 1543.8, 1300.0 1102.9" fill="none" stroke="#FFFFFF" stroke-opacity="0.38" stroke-width="4" filter="url(#soft_coach_09_8343)"/>
  <path d="M -100.0 1212.9 Q 133.3 934.3, 366.7 1161.3 Q 600.0 1459.2, 833.3 1620.9 Q 1066.7 1543.8, 1300.0 1102.9" fill="none" stroke="#4ECAD1" stroke-opacity="0.18" stroke-width="2"/>
  <path d="M -100.0 873.7 Q 133.3 1097.0, 366.7 1077.9 Q 600.0 757.9, 833.3 805.6 Q 1066.7 1089.5, 1300.0 1007.8" fill="none" stroke="#FFFFFF" stroke-opacity="0.38" stroke-width="4" filter="url(#soft_coach_09_8343)"/>
  <path d="M -100.0 873.7 Q 133.3 1097.0, 366.7 1077.9 Q 600.0 757.9, 833.3 805.6 Q 1066.7 1089.5, 1300.0 1007.8" fill="none" stroke="#4ECAD1" stroke-opacity="0.18" stroke-width="2"/>
  <path d="M -100.0 -60.2 Q 133.3 9.1, 366.7 183.2 Q 600.0 346.6, 833.3 34.4 Q 1066.7 -3.5, 1300.0 235.4" fill="none" stroke="#FFFFFF" stroke-opacity="0.38" stroke-width="4" filter="url(#soft_coach_09_8343)"/>
  <path d="M -100.0 -60.2 Q 133.3 9.1, 366.7 183.2 Q 600.0 346.6, 833.3 34.4 Q 1066.7 -3.5, 1300.0 235.4" fill="none" stroke="#86A8FF" stroke-opacity="0.18" stroke-width="2"/>
  <circle cx="897" cy="2564" r="118" fill="url(#orb_coach_09_8343)" opacity="0.36"/>
  <circle cx="897" cy="2564" r="118" fill="#B4E6F8" opacity="0.08"/>
  <circle cx="897" cy="2564" r="118" fill="none" stroke="#FFFFFF" stroke-opacity="0.56" stroke-width="3"/>
  <ellipse cx="864.0" cy="2521.5" rx="21.2" ry="9.4" fill="#FFFFFF" opacity="0.42" transform="rotate(-22 864.0 2521.5)"/>
  <circle cx="402" cy="2313" r="160" fill="url(#orb_coach_09_8343)" opacity="0.36"/>
  <circle cx="402" cy="2313" r="160" fill="#B891FF" opacity="0.08"/>
  <circle cx="402" cy="2313" r="160" fill="none" stroke="#FFFFFF" stroke-opacity="0.56" stroke-width="3"/>
  <ellipse cx="357.2" cy="2255.4" rx="28.8" ry="12.8" fill="#FFFFFF" opacity="0.42" transform="rotate(-22 357.2 2255.4)"/>
  <circle cx="664" cy="1856" r="219" fill="url(#orb_coach_09_8343)" opacity="0.36"/>
  <circle cx="664" cy="1856" r="219" fill="#B891FF" opacity="0.08"/>
  <circle cx="664" cy="1856" r="219" fill="none" stroke="#FFFFFF" stroke-opacity="0.56" stroke-width="3"/>
  <ellipse cx="602.7" cy="1777.2" rx="39.4" ry="17.5" fill="#FFFFFF" opacity="0.42" transform="rotate(-22 602.7 1777.2)"/>
  <circle cx="591" cy="870" r="80" fill="url(#orb_coach_09_8343)" opacity="0.24"/>
  <circle cx="591" cy="870" r="80" fill="#F7FEFF" opacity="0.08"/>
  <circle cx="591" cy="870" r="80" fill="none" stroke="#FFFFFF" stroke-opacity="0.56" stroke-width="3"/>
  <ellipse cx="568.6" cy="841.2" rx="14.4" ry="6.4" fill="#FFFFFF" opacity="0.42" transform="rotate(-22 568.6 841.2)"/>
  <circle cx="1182" cy="530" r="115" fill="url(#orb_coach_09_8343)" opacity="0.20"/>
  <circle cx="1182" cy="530" r="115" fill="#CFF3FF" opacity="0.08"/>
  <circle cx="1182" cy="530" r="115" fill="none" stroke="#FFFFFF" stroke-opacity="0.56" stroke-width="3"/>
  <ellipse cx="1149.8" cy="488.6" rx="20.7" ry="9.2" fill="#FFFFFF" opacity="0.42" transform="rotate(-22 1149.8 488.6)"/>
  <circle cx="928" cy="2153" r="138" fill="url(#orb_coach_09_8343)" opacity="0.19"/>
  <circle cx="928" cy="2153" r="138" fill="#CCF7ED" opacity="0.08"/>
  <circle cx="928" cy="2153" r="138" fill="none" stroke="#FFFFFF" stroke-opacity="0.56" stroke-width="3"/>
  <ellipse cx="889.4" cy="2103.3" rx="24.8" ry="11.0" fill="#FFFFFF" opacity="0.42" transform="rotate(-22 889.4 2103.3)"/>
  <circle cx="733" cy="1043" r="3" fill="#FFFFFF" opacity="0.40"/>
  <circle cx="58" cy="1041" r="3" fill="#FFFFFF" opacity="0.31"/>
  <circle cx="231" cy="551" r="7" fill="#FFFFFF" opacity="0.44"/>
  <circle cx="204" cy="751" r="3" fill="#FFFFFF" opacity="0.44"/>
  <circle cx="730" cy="2205" r="2" fill="#FFFFFF" opacity="0.47"/>
  <circle cx="152" cy="1642" r="5" fill="#FFFFFF" opacity="0.45"/>
  <circle cx="1037" cy="2514" r="4" fill="#FFFFFF" opacity="0.52"/>
  <circle cx="575" cy="2450" r="4" fill="#FFFFFF" opacity="0.44"/>
  <circle cx="471" cy="1054" r="3" fill="#FFFFFF" opacity="0.48"/>
  <circle cx="293" cy="1784" r="3" fill="#FFFFFF" opacity="0.61"/>
  <circle cx="494" cy="1871" r="3" fill="#FFFFFF" opacity="0.72"/>
  <circle cx="1197" cy="982" r="4" fill="#FFFFFF" opacity="0.34"/>
  <circle cx="575" cy="2033" r="2" fill="#FFFFFF" opacity="0.65"/>
  <circle cx="985" cy="1647" r="7" fill="#FFFFFF" opacity="0.42"/>
  <circle cx="674" cy="1930" r="7" fill="#FFFFFF" opacity="0.32"/>
  <circle cx="817" cy="526" r="5" fill="#FFFFFF" opacity="0.63"/>
  <circle cx="588" cy="1391" r="7" fill="#FFFFFF" opacity="0.53"/>
  <circle cx="461" cy="1657" r="7" fill="#FFFFFF" opacity="0.33"/>
  <circle cx="221" cy="1118" r="5" fill="#FFFFFF" opacity="0.65"/>
  <circle cx="1047" cy="1235" r="7" fill="#FFFFFF" opacity="0.40"/>
  <circle cx="443" cy="1688" r="7" fill="#FFFFFF" opacity="0.35"/>
  <rect width="1200" height="2600" fill="#FFFFFF" opacity="0.08"/>
  <rect width="1200" height="2600" filter="url(#grain_coach_09_8343)" opacity="0.7"/>
</svg>
