<svg xmlns="http://www.w3.org/2000/svg" width="1200" height="2600" viewBox="0 0 1200 2600" preserveAspectRatio="xMidYMid slice">
  <defs>
    <linearGradient id="bg_coach_01_9995" x1="0" y1="0" x2="1" y2="1">
      <stop offset="0%" stop-color="#F7FEFF"/>
      <stop offset="48%" stop-color="#B4E6F8"/>
      <stop offset="100%" stop-color="#CCF7ED"/>
    </linearGradient>
    <radialGradient id="orb_coach_01_9995" cx="35%" cy="30%" r="70%">
      <stop offset="0%" stop-color="#FFFFFF" stop-opacity="0.85"/>
      <stop offset="42%" stop-color="#FFFFFF" stop-opacity="0.20"/>
      <stop offset="100%" stop-color="#FFFFFF" stop-opacity="0.02"/>
    </radialGradient>
    <filter id="blur_coach_01_9995" x="-30%" y="-30%" width="160%" height="160%">
      <feGaussianBlur stdDeviation="72"/>
    </filter>
    <filter id="soft_coach_01_9995" x="-20%" y="-20%" width="140%" height="140%">
      <feGaussianBlur stdDeviation="10"/>
    </filter>
    <filter id="grain_coach_01_9995">
      <feTurbulence type="fractalNoise" baseFrequency="0.85" numOctaves="2" stitchTiles="stitch"/>
      <feColorMatrix type="saturate" values="0"/>
      <feComponentTransfer>
        <feFuncA type="table" tableValues="0 0.035"/>
      </feComponentTransfer>
    </filter>
  </defs>
  <rect width="1200" height="2600" fill="url(#bg_coach_01_9995)"/>
  <path d="M 750.8 1812.0 C 750.8 2071.2, 777.0 2008.7, 693.7 2207.3 C 610.4 2405.9, 605.8 2235.5, 478.1 2280.5 C 350.5 2325.5, 377.8 2423.8, 265.6 2294.2 C 153.3 2164.6, 236.8 2223.5, 192.4 1979.9 C 148.1 1736.3, 163.0 1854.2, 207.3 1610.7 C 251.6 1367.1, 184.4 1515.9, 296.7 1386.3 C 408.9 1256.7, 360.3 1204.9, 488.0 1249.9 C 615.6 1294.9, 569.2 1264.7, 652.5 1463.2 C 735.8 1661.8, 750.8 1552.8, 750.8 1812.0 Z" fill="#86A8FF" opacity="0.17" filter="url(#blur_coach_01_9995)"/>
  <path d="M 797.8 -159.0 C 797.8 11.6, 855.3 -54.8, 748.0 75.9 C 640.7 206.5, 644.2 124.8, 479.8 154.4 C 315.4 184.1, 367.8 287.2, 223.2 201.9 C 78.6 116.6, 96.6 150.4, 39.5 -9.8 C -17.6 -170.1, 50.0 -119.2, 107.1 -279.5 C 164.2 -439.8, 116.4 -366.3, 261.0 -451.5 C 405.5 -536.8, 306.9 -588.4, 471.4 -558.8 C 635.8 -529.2, 574.0 -519.9, 681.3 -389.2 C 788.6 -258.6, 797.8 -329.6, 797.8 -159.0 Z" fill="#E3E0FF" opacity="0.36" filter="url(#blur_coach_01_9995)"/>
  <path d="M 1454.7 1453.0 C 1454.7 1665.0, 1413.6 1562.5, 1306.0 1724.9 C 1198.4 1887.2, 1263.0 1875.1, 1098.1 1911.9 C 933.3 1948.7, 1018.2 2031.4, 873.3 1925.5 C 728.3 1819.5, 707.4 1786.4, 650.1 1587.2 C 592.9 1388.0, 664.3 1474.0, 721.6 1274.9 C 778.9 1075.7, 685.7 1177.6, 830.7 1071.6 C 975.7 965.6, 925.0 1010.9, 1089.8 1047.7 C 1254.7 1084.5, 1158.6 1002.9, 1266.2 1165.3 C 1373.8 1327.6, 1454.7 1241.0, 1454.7 1453.0 Z" fill="#B4E6F8" opacity="0.19" filter="url(#blur_coach_01_9995)"/>
  <path d="M 372.3 276.0 C 372.3 456.0, 351.0 370.7, 258.4 508.6 C 165.9 646.5, 204.5 656.7, 62.6 688.0 C -79.2 719.2, -45.3 657.8, -170.0 567.8 C -294.7 477.8, -190.4 570.0, -239.6 400.9 C -288.9 231.7, -325.2 318.1, -275.9 148.9 C -226.7 -20.2, -295.9 -29.8, -171.2 -119.8 C -46.5 -209.8, -85.1 -113.9, 56.7 -82.7 C 198.6 -51.4, 158.4 -117.8, 251.0 20.1 C 343.6 158.0, 372.3 96.0, 372.3 276.0 Z" fill="#86A8FF" opacity="0.34" filter="url(#blur_coach_01_9995)"/>
  <path d="M 1596.0 1259.0 C 1596.0 1483.1, 1573.5 1360.5, 1447.7 1532.1 C 1321.9 1703.8, 1403.2 1632.6, 1210.5 1671.6 C 1017.7 1710.5, 1059.5 1738.8, 889.9 1626.7 C 720.4 1514.7, 737.1 1657.7, 670.2 1447.1 C 603.2 1236.5, 682.7 1289.8, 749.6 1079.3 C 816.6 868.7, 752.9 991.8, 922.4 879.8 C 1091.9 767.7, 1004.3 662.4, 1197.0 701.3 C 1389.8 740.2, 1308.5 750.9, 1434.4 922.6 C 1560.2 1094.2, 1596.0 1034.9, 1596.0 1259.0 Z" fill="#F7FEFF" opacity="0.37" filter="url(#blur_coach_01_9995)"/>
  <path d="M 1219.6 971.0 C 1219.6 1249.5, 1312.5 1099.3, 1196.8 1312.7 C 1081.0 1526.1, 1092.6 1438.2, 915.3 1486.6 C 738.1 1535.0, 794.8 1581.8, 638.9 1442.5 C 483.1 1303.2, 557.6 1409.0, 496.0 1147.2 C 434.4 885.5, 412.4 1052.2, 474.0 790.5 C 535.5 528.7, 456.6 554.1, 612.4 414.8 C 768.3 275.5, 740.8 247.7, 918.1 296.1 C 1095.4 344.4, 1082.3 334.5, 1198.0 547.9 C 1313.7 761.3, 1219.6 692.5, 1219.6 971.0 Z" fill="#B4E6F8" opacity="0.31" filter="url(#blur_coach_01_9995)"/>
  <path d="M 576.0 1076.0 C 576.0 1215.0, 660.5 1182.3, 509.8 1288.8 C 359.1 1395.3, 424.7 1337.4, 193.8 1361.6 C -37.1 1385.7, 79.3 1374.7, -123.7 1305.2 C -326.7 1235.7, -293.6 1329.2, -373.8 1198.6 C -453.9 1067.9, -483.4 1109.7, -403.2 979.0 C -323.0 848.3, -330.6 907.0, -127.5 837.5 C 75.5 768.0, -36.2 728.2, 194.7 752.3 C 425.6 776.5, 397.3 770.9, 548.0 877.4 C 698.7 983.9, 576.0 937.0, 576.0 1076.0 Z" fill="#B891FF" opacity="0.33" filter="url(#blur_coach_01_9995)"/>
  <path d="M 545.3 2042.0 C 545.3 2223.8, 538.9 2207.4, 391.9 2346.7 C 245.0 2485.9, 294.7 2463.5, 69.6 2495.1 C -155.5 2526.7, -25.6 2493.7, -223.5 2402.8 C -421.5 2311.9, -382.1 2338.3, -460.2 2167.4 C -538.4 1996.6, -519.3 2057.6, -441.1 1886.7 C -362.9 1715.9, -475.6 1830.8, -277.6 1739.9 C -79.6 1649.0, -134.2 1675.6, 90.9 1707.2 C 316.1 1738.7, 299.8 1627.5, 446.8 1766.7 C 593.7 1906.0, 545.3 1860.2, 545.3 2042.0 Z" fill="#CFF3FF" opacity="0.23" filter="url(#blur_coach_01_9995)"/>
  <path d="M 1237.3 1357.0 C 1237.3 1497.8, 1290.5 1485.0, 1206.3 1592.9 C 1122.2 1700.8, 1164.5 1624.9, 1035.5 1649.4 C 906.5 1673.8, 958.0 1720.8, 844.6 1650.4 C 731.2 1579.9, 778.3 1604.7, 733.5 1472.4 C 688.8 1340.0, 680.3 1384.2, 725.1 1251.8 C 769.9 1119.5, 752.9 1176.5, 866.3 1106.1 C 979.7 1035.7, 917.2 1060.5, 1046.1 1084.9 C 1175.1 1109.4, 1148.0 1014.2, 1232.1 1122.1 C 1316.3 1230.0, 1237.3 1216.2, 1237.3 1357.0 Z" fill="#CCF7ED" opacity="0.29" filter="url(#blur_coach_01_9995)"/>
  <path d="M 1732.3 331.0 C 1732.3 543.0, 1682.6 456.0, 1576.7 618.4 C 1470.9 780.7, 1542.0 739.5, 1379.8 776.3 C 1217.6 813.1, 1235.5 791.8, 1092.8 685.9 C 950.2 579.9, 1007.4 702.1, 951.1 502.9 C 894.8 303.8, 881.6 374.4, 937.9 175.2 C 994.3 -23.9, 952.3 30.3, 1095.0 -75.7 C 1237.6 -181.6, 1208.6 -148.7, 1370.8 -111.9 C 1533.0 -75.1, 1489.3 -88.8, 1595.2 73.6 C 1701.1 235.9, 1732.3 119.0, 1732.3 331.0 Z" fill="#86A8FF" opacity="0.29" filter="url(#blur_coach_01_9995)"/>
  <path d="M 500.4 840.0 C 500.4 1107.8, 558.1 1041.5, 406.8 1246.6 C 255.5 1451.7, 266.7 1478.9, 34.9 1525.4 C -196.8 1571.9, -80.2 1487.9, -284.1 1354.0 C -487.9 1220.1, -455.4 1315.0, -535.9 1063.4 C -616.4 811.8, -687.2 914.8, -606.8 663.2 C -526.3 411.6, -521.9 388.1, -318.0 254.2 C -114.2 120.3, -176.4 184.1, 55.4 230.6 C 287.2 277.1, 163.0 284.2, 314.2 489.3 C 465.5 694.4, 500.4 572.2, 500.4 840.0 Z" fill="#F7FEFF" opacity="0.26" filter="url(#blur_coach_01_9995)"/>
  <path d="M 1197.8 1862.0 C 1197.8 2180.2, 1239.1 2000.3, 1081.0 2257.6 C 922.8 2515.0, 1055.8 2447.5, 799.8 2545.8 C 543.9 2644.2, 668.8 2692.6, 412.9 2594.3 C 157.0 2496.0, 226.1 2572.1, 67.9 2314.7 C -90.2 2057.3, -35.8 2180.2, -35.8 1862.0 C -35.8 1543.8, -54.5 1660.9, 103.7 1403.5 C 261.8 1146.1, 184.7 1282.7, 440.7 1184.3 C 696.6 1086.0, 547.2 1076.1, 803.1 1174.4 C 1059.0 1272.7, 966.1 1141.9, 1124.3 1399.3 C 1282.4 1656.7, 1197.8 1543.8, 1197.8 1862.0 Z" fill="#86A8FF" opacity="0.12" stroke="#FFFFFF" stroke-opacity="0.46" stroke-width="3" filter="url(#soft_coach_01_9995)"/>
  <path d="M 1197.8 1862.0 C 1197.8 2180.2, 1239.1 2000.3, 1081.0 2257.6 C 922.8 2515.0, 1055.8 2447.5, 799.8 2545.8 C 543.9 2644.2, 668.8 2692.6, 412.9 2594.3 C 157.0 2496.0, 226.1 2572.1, 67.9 2314.7 C -90.2 2057.3, -35.8 2180.2, -35.8 1862.0 C -35.8 1543.8, -54.5 1660.9, 103.7 1403.5 C 261.8 1146.1, 184.7 1282.7, 440.7 1184.3 C 696.6 1086.0, 547.2 1076.1, 803.1 1174.4 C 1059.0 1272.7, 966.1 1141.9, 1124.3 1399.3 C 1282.4 1656.7, 1197.8 1543.8, 1197.8 1862.0 Z" fill="none" stroke="#FFFFFF" stroke-opacity="0.22" stroke-width="1.2"/>
  <path d="M 551.4 -283.0 C 551.4 -49.9, 585.5 -186.6, 407.5 2.0 C 229.5 190.5, 427.9 121.9, 139.9 193.9 C -148.2 266.0, 25.2 336.2, -262.9 264.2 C -550.9 192.2, -419.6 210.1, -597.6 21.5 C -775.6 -167.1, -757.1 -49.9, -757.1 -283.0 C -757.1 -516.1, -786.0 -400.6, -608.0 -589.2 C -430.0 -777.8, -543.5 -731.0, -255.4 -803.0 C 32.6 -875.0, -153.5 -796.1, 134.5 -724.1 C 422.5 -652.0, 273.8 -792.1, 451.8 -603.6 C 629.8 -415.0, 551.4 -516.1, 551.4 -283.0 Z" fill="#B891FF" opacity="0.12" stroke="#B891FF" stroke-opacity="0.46" stroke-width="3" filter="url(#soft_coach_01_9995)"/>
  <path d="M 551.4 -283.0 C 551.4 -49.9, 585.5 -186.6, 407.5 2.0 C 229.5 190.5, 427.9 121.9, 139.9 193.9 C -148.2 266.0, 25.2 336.2, -262.9 264.2 C -550.9 192.2, -419.6 210.1, -597.6 21.5 C -775.6 -167.1, -757.1 -49.9, -757.1 -283.0 C -757.1 -516.1, -786.0 -400.6, -608.0 -589.2 C -430.0 -777.8, -543.5 -731.0, -255.4 -803.0 C 32.6 -875.0, -153.5 -796.1, 134.5 -724.1 C 422.5 -652.0, 273.8 -792.1, 451.8 -603.6 C 629.8 -415.0, 551.4 -516.1, 551.4 -283.0 Z" fill="none" stroke="#FFFFFF" stroke-opacity="0.22" stroke-width="1.2"/>
  <path d="M 1913.8 2827.0 C 1913.8 3006.6, 1892.0 2911.6, 1748.9 3056.9 C 1605.8 3202.2, 1738.0 3115.0, 1506.4 3170.5 C 1274.9 3226.0, 1384.1 3309.8, 1152.6 3254.3 C 921.1 3198.8, 1043.1 3194.9, 900.0 3049.6 C 756.9 2904.4, 707.5 3006.6, 707.5 2827.0 C 707.5 2647.4, 739.9 2711.8, 883.0 2566.5 C 1026.1 2421.3, 945.0 2513.9, 1176.5 2458.4 C 1408.0 2402.9, 1282.5 2356.8, 1514.0 2412.3 C 1745.5 2467.8, 1595.2 2434.0, 1738.3 2579.2 C 1881.4 2724.5, 1913.8 2647.4, 1913.8 2827.0 Z" fill="#E3E0FF" opacity="0.12" stroke="#E3E0FF" stroke-opacity="0.46" stroke-width="3" filter="url(#soft_coach_01_9995)"/>
  <path d="M 1913.8 2827.0 C 1913.8 3006.6, 1892.0 2911.6, 1748.9 3056.9 C 1605.8 3202.2, 1738.0 3115.0, 1506.4 3170.5 C 1274.9 3226.0, 1384.1 3309.8, 1152.6 3254.3 C 921.1 3198.8, 1043.1 3194.9, 900.0 3049.6 C 756.9 2904.4, 707.5 3006.6, 707.5 2827.0 C 707.5 2647.4, 739.9 2711.8, 883.0 2566.5 C 1026.1 2421.3, 945.0 2513.9, 1176.5 2458.4 C 1408.0 2402.9, 1282.5 2356.8, 1514.0 2412.3 C 1745.5 2467.8, 1595.2 2434.0, 1738.3 2579.2 C 1881.4 2724.5, 1913.8 2647.4, 1913.8 2827.0 Z" fill="none" stroke="#FFFFFF" stroke-opacity="0.22" stroke-width="1.2"/>
  <path d="M 1872.6 1964.0 C 1872.6 2171.4, 1880.7 2090.7, 1760.1 2258.5 C 1639.5 2426.3, 1746.7 2389.9, 1551.5 2454.0 C 1356.4 2518.2, 1489.6 2488.2, 1294.4 2424.1 C 1099.3 2360.0, 1142.5 2416.1, 1021.9 2248.3 C 901.3 2080.4, 973.1 2171.4, 973.1 1964.0 C 973.1 1756.5, 976.5 1860.5, 1097.2 1692.7 C 1217.8 1524.8, 1081.1 1579.7, 1276.3 1515.6 C 1471.5 1451.5, 1346.3 1463.0, 1541.5 1527.1 C 1736.6 1591.2, 1681.8 1546.9, 1802.4 1714.8 C 1923.0 1882.6, 1872.6 1756.5, 1872.6 1964.0 Z" fill="#4ECAD1" opacity="0.12" stroke="#FFFFFF" stroke-opacity="0.46" stroke-width="3" filter="url(#soft_coach_01_9995)"/>
  <path d="M 1872.6 1964.0 C 1872.6 2171.4, 1880.7 2090.7, 1760.1 2258.5 C 1639.5 2426.3, 1746.7 2389.9, 1551.5 2454.0 C 1356.4 2518.2, 1489.6 2488.2, 1294.4 2424.1 C 1099.3 2360.0, 1142.5 2416.1, 1021.9 2248.3 C 901.3 2080.4, 973.1 2171.4, 973.1 1964.0 C 973.1 1756.5, 976.5 1860.5, 1097.2 1692.7 C 1217.8 1524.8, 1081.1 1579.7, 1276.3 1515.6 C 1471.5 1451.5, 1346.3 1463.0, 1541.5 1527.1 C 1736.6 1591.2, 1681.8 1546.9, 1802.4 1714.8 C 1923.0 1882.6, 1872.6 1756.5, 1872.6 1964.0 Z" fill="none" stroke="#FFFFFF" stroke-opacity="0.22" stroke-width="1.2"/>
  <path d="M 1823.1 1100.0 C 1823.1 1502.3, 1920.8 1233.1, 1752.3 1558.6 C 1583.8 1884.1, 1752.3 1729.4, 1479.7 1853.7 C 1207.1 1978.0, 1350.7 2096.2, 1078.1 1971.9 C 805.4 1847.5, 967.2 1949.1, 798.7 1623.6 C 630.2 1298.1, 711.6 1502.3, 711.6 1100.0 C 711.6 697.7, 565.8 858.6, 734.2 533.2 C 902.7 207.7, 769.5 302.9, 1042.1 178.6 C 1314.7 54.3, 1212.2 171.0, 1484.9 295.4 C 1757.5 419.7, 1680.9 290.6, 1849.4 616.1 C 2017.8 941.5, 1823.1 697.7, 1823.1 1100.0 Z" fill="#CCF7ED" opacity="0.12" stroke="#CCF7ED" stroke-opacity="0.46" stroke-width="3" filter="url(#soft_coach_01_9995)"/>
  <path d="M 1823.1 1100.0 C 1823.1 1502.3, 1920.8 1233.1, 1752.3 1558.6 C 1583.8 1884.1, 1752.3 1729.4, 1479.7 1853.7 C 1207.1 1978.0, 1350.7 2096.2, 1078.1 1971.9 C 805.4 1847.5, 967.2 1949.1, 798.7 1623.6 C 630.2 1298.1, 711.6 1502.3, 711.6 1100.0 C 711.6 697.7, 565.8 858.6, 734.2 533.2 C 902.7 207.7, 769.5 302.9, 1042.1 178.6 C 1314.7 54.3, 1212.2 171.0, 1484.9 295.4 C 1757.5 419.7, 1680.9 290.6, 1849.4 616.1 C 2017.8 941.5, 1823.1 697.7, 1823.1 1100.0 Z" fill="none" stroke="#FFFFFF" stroke-opacity="0.22" stroke-width="1.2"/>
  <path d="M -100.0 418.6 Q 133.3 315.7, 366.7 53.7 Q 600.0 -90.1, 833.3 -4.7 Q 1066.7 132.7, 1300.0 447.5" fill="none" stroke="#FFFFFF" stroke-opacity="0.38" stroke-width="4" filter="url(#soft_coach_01_9995)"/>
  <path d="M -100.0 418.6 Q 133.3 315.7, 366.7 53.7 Q 600.0 -90.1, 833.3 -4.7 Q 1066.7 132.7, 1300.0 447.5" fill="none" stroke="#86A8FF" stroke-opacity="0.18" stroke-width="2"/>
  <path d="M -100.0 1480.2 Q 133.3 1212.5, 366.7 1462.6 Q 600.0 1435.4, 833.3 1422.8 Q 1066.7 1210.2, 1300.0 1415.6" fill="none" stroke="#FFFFFF" stroke-opacity="0.38" stroke-width="4" filter="url(#soft_coach_01_9995)"/>
  <path d="M -100.0 1480.2 Q 133.3 1212.5, 366.7 1462.6 Q 600.0 1435.4, 833.3 1422.8 Q 1066.7 1210.2, 1300.0 1415.6" fill="none" stroke="#4ECAD1" stroke-opacity="0.18" stroke-width="2"/>
  <path d="M -100.0 2389.6 Q 133.3 2079.4, 366.7 1779.6 Q 600.0 2032.7, 833.3 2262.5 Q 1066.7 2597.9, 1300.0 2409.4" fill="none" stroke="#FFFFFF" stroke-opacity="0.38" stroke-width="4" filter="url(#soft_coach_01_9995)"/>
  <path d="M -100.0 2389.6 Q 133.3 2079.4, 366.7 1779.6 Q 600.0 2032.7, 833.3 2262.5 Q 1066.7 2597.9, 1300.0 2409.4" fill="none" stroke="#86A8FF" stroke-opacity="0.18" stroke-width="2"/>
  <path d="M -100.0 1009.7 Q 133.3 1170.5, 366.7 1269.5 Q 600.0 1067.5, 833.3 862.0 Q 1066.7 1292.3, 1300.0 1390.8" fill="none" stroke="#FFFFFF" stroke-opacity="0.38" stroke-width="4" filter="url(#soft_coach_01_9995)"/>
  <path d="M -100.0 1009.7 Q 133.3 1170.5, 366.7 1269.5 Q 600.0 1067.5, 833.3 862.0 Q 1066.7 1292.3, 1300.0 1390.8" fill="none" stroke="#86A8FF" stroke-opacity="0.18" stroke-width="2"/>
  <path d="M -100.0 127.5 Q 133.3 -41.7, 366.7 188.9 Q 600.0 377.3, 833.3 500.0 Q 1066.7 479.8, 1300.0 229.1" fill="none" stroke="#FFFFFF" stroke-opacity="0.38" stroke-width="4" filter="url(#soft_coach_01_9995)"/>
  <path d="M -100.0 127.5 Q 133.3 -41.7, 366.7 188.9 Q 600.0 377.3, 833.3 500.0 Q 1066.7 479.8, 1300.0 229.1" fill="none" stroke="#B891FF" stroke-opacity="0.18" stroke-width="2"/>
  <path d="M -100.0 1043.8 Q 133.3 786.3, 366.7 551.1 Q 600.0 888.4, 833.3 947.3 Q 1066.7 732.4, 1300.0 575.4" fill="none" stroke="#FFFFFF" stroke-opacity="0.38" stroke-width="4" filter="url(#soft_coach_01_9995)"/>
  <path d="M -100.0 1043.8 Q 133.3 786.3, 366.7 551.1 Q 600.0 888.4, 833.3 947.3 Q 1066.7 732.4, 1300.0 575.4" fill="none" stroke="#4ECAD1" stroke-opacity="0.18" stroke-width="2"/>
  <circle cx="754" cy="253" r="253" fill="url(#orb_coach_01_9995)" opacity="0.36"/>
  <circle cx="754" cy="253" r="253" fill="#F7FEFF" opacity="0.08"/>
  <circle cx="754" cy="253" r="253" fill="none" stroke="#FFFFFF" stroke-opacity="0.56" stroke-width="3"/>
  <ellipse cx="683.2" cy="161.9" rx="45.5" ry="20.2" fill="#FFFFFF" opacity="0.42" transform="rotate(-22 683.2 161.9)"/>
  <circle cx="569" cy="1444" r="115" fill="url(#orb_coach_01_9995)" opacity="0.36"/>
  <circle cx="569" cy="1444" r="115" fill="#CFF3FF" opacity="0.08"/>
  <circle cx="569" cy="1444" r="115" fill="none" stroke="#FFFFFF" stroke-opacity="0.56" stroke-width="3"/>
  <ellipse cx="536.8" cy="1402.6" rx="20.7" ry="9.2" fill="#FFFFFF" opacity="0.42" transform="rotate(-22 536.8 1402.6)"/>
  <circle cx="734" cy="1964" r="201" fill="url(#orb_coach_01_9995)" opacity="0.36"/>
  <circle cx="734" cy="1964" r="201" fill="#F7FEFF" opacity="0.08"/>
  <circle cx="734" cy="1964" r="201" fill="none" stroke="#FFFFFF" stroke-opacity="0.56" stroke-width="3"/>
  <ellipse cx="677.7" cy="1891.6" rx="36.2" ry="16.1" fill="#FFFFFF" opacity="0.42" transform="rotate(-22 677.7 1891.6)"/>
  <circle cx="520" cy="571" r="146" fill="url(#orb_coach_01_9995)" opacity="0.18"/>
  <circle cx="520" cy="571" r="146" fill="#CCF7ED" opacity="0.08"/>
  <circle cx="520" cy="571" r="146" fill="none" stroke="#FFFFFF" stroke-opacity="0.56" stroke-width="3"/>
  <ellipse cx="479.1" cy="518.4" rx="26.3" ry="11.7" fill="#FFFFFF" opacity="0.42" transform="rotate(-22 479.1 518.4)"/>
  <circle cx="229" cy="2306" r="171" fill="url(#orb_coach_01_9995)" opacity="0.27"/>
  <circle cx="229" cy="2306" r="171" fill="#86A8FF" opacity="0.08"/>
  <circle cx="229" cy="2306" r="171" fill="none" stroke="#FFFFFF" stroke-opacity="0.56" stroke-width="3"/>
  <ellipse cx="181.1" cy="2244.4" rx="30.8" ry="13.7" fill="#FFFFFF" opacity="0.42" transform="rotate(-22 181.1 2244.4)"/>
  <circle cx="816" cy="1273" r="91" fill="url(#orb_coach_01_9995)" opacity="0.23"/>
  <circle cx="816" cy="1273" r="91" fill="#E3E0FF" opacity="0.08"/>
  <circle cx="816" cy="1273" r="91" fill="none" stroke="#FFFFFF" stroke-opacity="0.56" stroke-width="3"/>
  <ellipse cx="790.5" cy="1240.2" rx="16.4" ry="7.3" fill="#FFFFFF" opacity="0.42" transform="rotate(-22 790.5 1240.2)"/>
  <circle cx="391" cy="223" r="149" fill="url(#orb_coach_01_9995)" opacity="0.25"/>
  <circle cx="391" cy="223" r="149" fill="#4ECAD1" opacity="0.08"/>
  <circle cx="391" cy="223" r="149" fill="none" stroke="#FFFFFF" stroke-opacity="0.56" stroke-width="3"/>
  <ellipse cx="349.3" cy="169.4" rx="26.8" ry="11.9" fill="#FFFFFF" opacity="0.42" transform="rotate(-22 349.3 169.4)"/>
  <circle cx="92" cy="2487" r="147" fill="url(#orb_coach_01_9995)" opacity="0.23"/>
  <circle cx="92" cy="2487" r="147" fill="#4ECAD1" opacity="0.08"/>
  <circle cx="92" cy="2487" r="147" fill="none" stroke="#FFFFFF" stroke-opacity="0.56" stroke-width="3"/>
  <ellipse cx="50.8" cy="2434.1" rx="26.5" ry="11.8" fill="#FFFFFF" opacity="0.42" transform="rotate(-22 50.8 2434.1)"/>
  <circle cx="385" cy="2105" r="227" fill="url(#orb_coach_01_9995)" opacity="0.18"/>
  <circle cx="385" cy="2105" r="227" fill="#4ECAD1" opacity="0.08"/>
  <circle cx="385" cy="2105" r="227" fill="none" stroke="#FFFFFF" stroke-opacity="0.56" stroke-width="3"/>
  <ellipse cx="321.4" cy="2023.3" rx="40.9" ry="18.2" fill="#FFFFFF" opacity="0.42" transform="rotate(-22 321.4 2023.3)"/>
  <circle cx="1015" cy="762" r="2" fill="#FFFFFF" opacity="0.43"/>
  <circle cx="45" cy="282" r="3" fill="#FFFFFF" opacity="0.67"/>
  <circle cx="461" cy="907" r="7" fill="#FFFFFF" opacity="0.37"/>
  <circle cx="114" cy="264" r="3" fill="#FFFFFF" opacity="0.51"/>
  <circle cx="945" cy="2264" r="4" fill="#FFFFFF" opacity="0.67"/>
  <circle cx="467" cy="2042" r="5" fill="#FFFFFF" opacity="0.30"/>
  <circle cx="1024" cy="1866" r="7" fill="#FFFFFF" opacity="0.58"/>
  <circle cx="403" cy="1135" r="2" fill="#FFFFFF" opacity="0.46"/>
  <circle cx="855" cy="2267" r="7" fill="#FFFFFF" opacity="0.38"/>
  <circle cx="102" cy="1144" r="2" fill="#FFFFFF" opacity="0.59"/>
  <circle cx="44" cy="2553" r="7" fill="#FFFFFF" opacity="0.66"/>
  <circle cx="804" cy="2349" r="7" fill="#FFFFFF" opacity="0.42"/>
  <circle cx="495" cy="517" r="7" fill="#FFFFFF" opacity="0.37"/>
  <rect width="1200" height="2600" fill="#FFFFFF" opacity="0.08"/>
  <rect width="1200" height="2600" filter="url(#grain_coach_01_9995)" opacity="0.7"/>
</svg>
