<svg xmlns="http://www.w3.org/2000/svg" width="1200" height="2600" viewBox="0 0 1200 2600" preserveAspectRatio="xMidYMid slice">
  <defs>
    <linearGradient id="bg_coach_13_8076" x1="0" y1="0" x2="1" y2="1">
      <stop offset="0%" stop-color="#CCF7ED"/>
      <stop offset="48%" stop-color="#F7FEFF"/>
      <stop offset="100%" stop-color="#CFF3FF"/>
    </linearGradient>
    <radialGradient id="orb_coach_13_8076" cx="35%" cy="30%" r="70%">
      <stop offset="0%" stop-color="#FFFFFF" stop-opacity="0.85"/>
      <stop offset="42%" stop-color="#FFFFFF" stop-opacity="0.20"/>
      <stop offset="100%" stop-color="#FFFFFF" stop-opacity="0.02"/>
    </radialGradient>
    <filter id="blur_coach_13_8076" x="-30%" y="-30%" width="160%" height="160%">
      <feGaussianBlur stdDeviation="72"/>
    </filter>
    <filter id="soft_coach_13_8076" x="-20%" y="-20%" width="140%" height="140%">
      <feGaussianBlur stdDeviation="10"/>
    </filter>
    <filter id="grain_coach_13_8076">
      <feTurbulence type="fractalNoise" baseFrequency="0.85" numOctaves="2" stitchTiles="stitch"/>
      <feColorMatrix type="saturate" values="0"/>
      <feComponentTransfer>
        <feFuncA type="table" tableValues="0 0.035"/>
      </feComponentTransfer>
    </filter>
  </defs>
  <rect width="1200" height="2600" fill="url(#bg_coach_13_8076)"/>
  <path d="M 686.1 1001.0 C 686.1 1138.7, 683.5 1095.8, 579.3 1201.3 C 475.2 1306.8, 544.3 1284.5, 384.7 1308.5 C 225.2 1332.4, 269.7 1357.8, 129.4 1288.9 C -10.9 1220.1, -0.1 1241.6, -55.5 1112.2 C -110.9 982.8, -56.5 1032.6, -1.1 903.2 C 54.3 773.9, 36.4 797.9, 176.7 729.1 C 317.0 660.2, 247.1 715.9, 406.7 739.8 C 566.2 763.7, 492.1 729.1, 596.2 834.6 C 700.4 940.0, 686.1 863.3, 686.1 1001.0 Z" fill="#B891FF" opacity="0.35" filter="url(#blur_coach_13_8076)"/>
  <path d="M 570.1 41.0 C 570.1 319.1, 530.4 198.2, 417.9 411.2 C 305.4 624.3, 405.8 607.4, 233.4 655.7 C 61.0 704.0, 116.8 748.0, -34.8 609.0 C -186.4 469.9, -145.8 485.4, -205.6 224.1 C -265.5 -37.2, -328.3 83.1, -268.4 -178.2 C -208.6 -439.6, -214.9 -324.4, -63.3 -463.4 C 88.3 -602.5, 42.3 -574.5, 214.7 -526.2 C 387.1 -477.9, 320.2 -616.9, 432.7 -403.9 C 545.2 -190.9, 570.1 -237.1, 570.1 41.0 Z" fill="#F7FEFF" opacity="0.24" filter="url(#blur_coach_13_8076)"/>
  <path d="M 642.4 498.0 C 642.4 799.5, 669.1 720.1, 594.5 951.1 C 519.8 1182.0, 542.9 1081.9, 428.5 1134.2 C 314.2 1186.6, 374.0 1247.7, 273.4 1096.9 C 172.9 946.2, 218.5 1023.0, 178.8 739.7 C 139.1 456.4, 100.1 579.7, 139.8 296.4 C 179.5 13.0, 146.7 52.0, 247.3 -98.8 C 347.8 -249.5, 325.4 -125.8, 439.8 -73.4 C 554.1 -21.1, 515.9 -131.6, 590.5 99.4 C 665.1 330.3, 642.4 196.5, 642.4 498.0 Z" fill="#CFF3FF" opacity="0.19" filter="url(#blur_coach_13_8076)"/>
  <path d="M 880.4 2186.0 C 880.4 2478.1, 869.6 2386.0, 800.2 2609.7 C 730.8 2833.4, 783.6 2717.4, 677.2 2768.1 C 570.9 2818.8, 605.7 2959.5, 512.2 2813.5 C 418.6 2667.5, 448.8 2680.6, 411.8 2406.1 C 374.9 2131.7, 351.8 2277.0, 388.7 2002.6 C 425.7 1728.1, 443.3 1682.5, 536.8 1536.4 C 630.4 1390.4, 576.6 1507.0, 683.0 1557.7 C 789.3 1608.4, 730.3 1489.3, 799.7 1713.1 C 869.1 1936.8, 880.4 1894.0, 880.4 2186.0 Z" fill="#B4E6F8" opacity="0.33" filter="url(#blur_coach_13_8076)"/>
  <path d="M 1101.2 651.0 C 1101.2 826.5, 1089.1 733.7, 974.5 868.2 C 860.0 1002.6, 946.4 1010.6, 770.9 1041.1 C 595.4 1071.6, 692.7 1112.0, 538.4 1024.3 C 384.0 936.5, 379.2 955.5, 318.3 790.6 C 257.3 625.6, 239.0 661.2, 299.9 496.3 C 360.9 331.3, 324.1 434.2, 478.4 346.4 C 632.7 258.7, 616.6 220.8, 792.0 251.2 C 967.5 281.7, 913.8 261.9, 1028.4 396.4 C 1142.9 530.8, 1101.2 475.5, 1101.2 651.0 Z" fill="#4ECAD1" opacity="0.21" filter="url(#blur_coach_13_8076)"/>
  <path d="M 1685.4 1223.0 C 1685.4 1422.8, 1659.9 1387.6, 1552.1 1540.7 C 1444.2 1693.7, 1512.6 1564.5, 1347.3 1599.2 C 1182.0 1633.9, 1230.6 1770.9, 1085.3 1671.0 C 939.9 1571.1, 944.4 1566.6, 887.0 1378.8 C 829.6 1191.1, 837.9 1262.2, 895.3 1074.4 C 952.7 886.7, 978.4 918.2, 1123.8 818.3 C 1269.2 718.4, 1180.6 681.8, 1345.9 716.5 C 1511.2 751.2, 1505.4 813.6, 1613.3 966.6 C 1721.2 1119.7, 1685.4 1023.2, 1685.4 1223.0 Z" fill="#CCF7ED" opacity="0.25" filter="url(#blur_coach_13_8076)"/>
  <path d="M 1447.2 1798.0 C 1447.2 2018.5, 1490.4 1887.6, 1337.9 2056.5 C 1185.5 2225.4, 1277.5 2282.2, 1043.9 2320.5 C 810.4 2358.8, 888.3 2352.8, 683.0 2242.5 C 477.6 2132.3, 477.1 2157.1, 396.0 1949.9 C 314.8 1742.7, 375.2 1847.8, 456.4 1640.6 C 537.5 1433.4, 540.1 1540.8, 745.4 1430.5 C 950.8 1320.3, 837.2 1197.9, 1070.7 1236.2 C 1304.3 1274.5, 1185.4 1327.8, 1337.9 1496.7 C 1490.3 1665.7, 1447.2 1577.5, 1447.2 1798.0 Z" fill="#CCF7ED" opacity="0.20" filter="url(#blur_coach_13_8076)"/>
  <path d="M 326.8 246.0 C 326.8 419.2, 406.9 395.1, 277.8 527.8 C 148.8 660.5, 221.1 591.1, 23.4 621.2 C -174.2 651.3, -132.3 719.1, -306.1 632.5 C -480.0 545.9, -406.8 560.5, -475.5 397.6 C -544.1 234.8, -583.6 263.6, -514.9 100.8 C -446.3 -62.0, -432.2 -48.5, -258.4 -135.2 C -84.6 -221.8, -190.8 -119.7, 6.9 -89.6 C 204.5 -59.6, 148.6 -109.8, 277.6 22.9 C 406.6 155.6, 326.8 72.8, 326.8 246.0 Z" fill="#B4E6F8" opacity="0.34" filter="url(#blur_coach_13_8076)"/>
  <path d="M 1264.5 90.0 C 1264.5 221.0, 1269.8 156.3, 1137.6 256.6 C 1005.4 356.9, 1116.4 388.2, 913.9 410.9 C 711.3 433.7, 806.7 408.1, 628.6 342.6 C 450.6 277.1, 488.9 329.4, 418.6 206.4 C 348.3 83.3, 284.4 108.0, 354.8 -15.1 C 425.1 -138.1, 443.0 -81.9, 621.1 -147.3 C 799.2 -212.8, 714.9 -219.1, 917.5 -196.4 C 1120.0 -173.6, 1074.7 -173.6, 1206.8 -73.3 C 1339.0 27.0, 1264.5 -41.0, 1264.5 90.0 Z" fill="#B4E6F8" opacity="0.33" filter="url(#blur_coach_13_8076)"/>
  <path d="M 996.8 2688.0 C 996.8 2889.2, 971.8 2839.4, 846.8 2993.5 C 721.9 3147.6, 782.8 3117.0, 591.4 3151.9 C 399.9 3186.8, 477.0 3161.1, 308.7 3060.5 C 140.3 2959.9, 130.1 3018.9, 63.6 2829.8 C -2.9 2640.8, 5.6 2716.7, 72.1 2527.7 C 138.6 2338.7, 140.6 2371.7, 309.0 2271.2 C 477.3 2170.6, 399.8 2257.7, 591.3 2292.7 C 782.7 2327.6, 733.1 2249.6, 858.1 2403.6 C 983.0 2557.7, 996.8 2486.8, 996.8 2688.0 Z" fill="#B4E6F8" opacity="0.31" filter="url(#blur_coach_13_8076)"/>
  <path d="M 1736.7 535.0 C 1736.7 936.9, 1720.9 710.6, 1635.0 1035.7 C 1549.0 1360.8, 1596.5 1369.5, 1457.4 1493.7 C 1318.4 1617.9, 1399.1 1563.9, 1260.0 1439.7 C 1120.9 1315.6, 1191.3 1399.4, 1105.3 1074.2 C 1019.4 749.1, 1002.4 936.9, 1002.4 535.0 C 1002.4 133.2, 992.0 393.8, 1078.0 68.7 C 1164.0 -256.4, 1123.7 -239.9, 1262.8 -364.1 C 1401.9 -488.3, 1323.3 -504.4, 1462.4 -380.2 C 1601.5 -256.0, 1507.8 -291.0, 1593.8 34.1 C 1679.8 359.2, 1736.7 133.1, 1736.7 535.0 Z" fill="#E3E0FF" opacity="0.12" stroke="#E3E0FF" stroke-opacity="0.46" stroke-width="3" filter="url(#soft_coach_13_8076)"/>
  <path d="M 1736.7 535.0 C 1736.7 936.9, 1720.9 710.6, 1635.0 1035.7 C 1549.0 1360.8, 1596.5 1369.5, 1457.4 1493.7 C 1318.4 1617.9, 1399.1 1563.9, 1260.0 1439.7 C 1120.9 1315.6, 1191.3 1399.4, 1105.3 1074.2 C 1019.4 749.1, 1002.4 936.9, 1002.4 535.0 C 1002.4 133.2, 992.0 393.8, 1078.0 68.7 C 1164.0 -256.4, 1123.7 -239.9, 1262.8 -364.1 C 1401.9 -488.3, 1323.3 -504.4, 1462.4 -380.2 C 1601.5 -256.0, 1507.8 -291.0, 1593.8 34.1 C 1679.8 359.2, 1736.7 133.1, 1736.7 535.0 Z" fill="none" stroke="#FFFFFF" stroke-opacity="0.22" stroke-width="1.2"/>
  <path d="M 666.5 1004.0 C 666.5 1264.1, 622.4 1093.6, 475.1 1304.1 C 327.7 1514.5, 475.6 1485.6, 237.2 1566.0 C -1.2 1646.3, 103.8 1698.2, -134.6 1617.9 C -373.0 1537.5, -221.9 1530.6, -369.2 1320.2 C -516.6 1109.8, -490.6 1264.1, -490.6 1004.0 C -490.6 743.9, -616.8 911.2, -469.5 700.8 C -322.2 490.3, -392.3 568.1, -153.9 487.7 C 84.5 407.4, -4.1 299.9, 234.3 380.3 C 472.7 460.7, 384.0 462.4, 531.3 672.8 C 678.7 883.3, 666.5 743.9, 666.5 1004.0 Z" fill="#B891FF" opacity="0.12" stroke="#FFFFFF" stroke-opacity="0.46" stroke-width="3" filter="url(#soft_coach_13_8076)"/>
  <path d="M 666.5 1004.0 C 666.5 1264.1, 622.4 1093.6, 475.1 1304.1 C 327.7 1514.5, 475.6 1485.6, 237.2 1566.0 C -1.2 1646.3, 103.8 1698.2, -134.6 1617.9 C -373.0 1537.5, -221.9 1530.6, -369.2 1320.2 C -516.6 1109.8, -490.6 1264.1, -490.6 1004.0 C -490.6 743.9, -616.8 911.2, -469.5 700.8 C -322.2 490.3, -392.3 568.1, -153.9 487.7 C 84.5 407.4, -4.1 299.9, 234.3 380.3 C 472.7 460.7, 384.0 462.4, 531.3 672.8 C 678.7 883.3, 666.5 743.9, 666.5 1004.0 Z" fill="none" stroke="#FFFFFF" stroke-opacity="0.22" stroke-width="1.2"/>
  <path d="M 1093.3 2614.0 C 1093.3 2956.0, 1160.9 2772.8, 1029.2 3049.5 C 897.4 3326.2, 1013.6 3243.2, 800.4 3348.9 C 587.3 3454.6, 737.1 3469.2, 524.0 3363.5 C 310.8 3257.8, 424.0 3351.1, 292.2 3074.4 C 160.5 2797.7, 152.7 2956.0, 152.7 2614.0 C 152.7 2272.0, 106.3 2418.6, 238.0 2141.9 C 369.7 1865.3, 293.6 1933.9, 506.8 1828.2 C 719.9 1722.5, 587.7 1885.8, 800.8 1991.4 C 1013.9 2097.1, 918.0 1887.6, 1049.7 2164.3 C 1181.4 2440.9, 1093.3 2272.0, 1093.3 2614.0 Z" fill="#E3E0FF" opacity="0.12" stroke="#E3E0FF" stroke-opacity="0.46" stroke-width="3" filter="url(#soft_coach_13_8076)"/>
  <path d="M 1093.3 2614.0 C 1093.3 2956.0, 1160.9 2772.8, 1029.2 3049.5 C 897.4 3326.2, 1013.6 3243.2, 800.4 3348.9 C 587.3 3454.6, 737.1 3469.2, 524.0 3363.5 C 310.8 3257.8, 424.0 3351.1, 292.2 3074.4 C 160.5 2797.7, 152.7 2956.0, 152.7 2614.0 C 152.7 2272.0, 106.3 2418.6, 238.0 2141.9 C 369.7 1865.3, 293.6 1933.9, 506.8 1828.2 C 719.9 1722.5, 587.7 1885.8, 800.8 1991.4 C 1013.9 2097.1, 918.0 1887.6, 1049.7 2164.3 C 1181.4 2440.9, 1093.3 2272.0, 1093.3 2614.0 Z" fill="none" stroke="#FFFFFF" stroke-opacity="0.22" stroke-width="1.2"/>
  <path d="M 153.3 1739.0 C 153.3 2134.1, 185.6 1982.2, 95.6 2301.9 C 5.7 2621.5, 40.3 2466.8, -105.2 2588.9 C -250.7 2710.9, -177.2 2745.6, -322.7 2623.5 C -468.2 2501.4, -376.7 2580.9, -466.6 2261.2 C -556.5 1941.6, -580.1 2134.1, -580.1 1739.0 C -580.1 1343.9, -583.7 1526.4, -493.8 1206.7 C -403.8 887.1, -459.2 1022.8, -313.7 900.7 C -168.2 778.6, -261.6 841.3, -116.0 963.4 C 29.5 1085.5, -47.5 946.0, 42.4 1265.6 C 132.3 1585.3, 153.3 1343.9, 153.3 1739.0 Z" fill="#B4E6F8" opacity="0.12" stroke="#FFFFFF" stroke-opacity="0.46" stroke-width="3" filter="url(#soft_coach_13_8076)"/>
  <path d="M 153.3 1739.0 C 153.3 2134.1, 185.6 1982.2, 95.6 2301.9 C 5.7 2621.5, 40.3 2466.8, -105.2 2588.9 C -250.7 2710.9, -177.2 2745.6, -322.7 2623.5 C -468.2 2501.4, -376.7 2580.9, -466.6 2261.2 C -556.5 1941.6, -580.1 2134.1, -580.1 1739.0 C -580.1 1343.9, -583.7 1526.4, -493.8 1206.7 C -403.8 887.1, -459.2 1022.8, -313.7 900.7 C -168.2 778.6, -261.6 841.3, -116.0 963.4 C 29.5 1085.5, -47.5 946.0, 42.4 1265.6 C 132.3 1585.3, 153.3 1343.9, 153.3 1739.0 Z" fill="none" stroke="#FFFFFF" stroke-opacity="0.22" stroke-width="1.2"/>
  <path d="M 220.1 1962.0 C 220.1 2304.4, 241.8 2094.9, 149.5 2371.9 C 57.1 2649.0, 82.1 2610.8, -67.3 2716.6 C -216.7 2822.4, -117.8 2854.8, -267.2 2749.0 C -416.6 2643.2, -343.8 2675.0, -436.1 2398.0 C -528.4 2120.9, -556.6 2304.4, -556.6 1962.0 C -556.6 1619.5, -556.6 1745.7, -464.3 1468.6 C -372.0 1191.6, -423.3 1431.2, -273.9 1325.4 C -124.5 1219.5, -194.3 1181.9, -44.9 1287.8 C 104.4 1393.6, -0.2 1281.8, 92.1 1558.9 C 184.4 1835.9, 220.1 1619.5, 220.1 1962.0 Z" fill="#B891FF" opacity="0.12" stroke="#FFFFFF" stroke-opacity="0.46" stroke-width="3" filter="url(#soft_coach_13_8076)"/>
  <path d="M 220.1 1962.0 C 220.1 2304.4, 241.8 2094.9, 149.5 2371.9 C 57.1 2649.0, 82.1 2610.8, -67.3 2716.6 C -216.7 2822.4, -117.8 2854.8, -267.2 2749.0 C -416.6 2643.2, -343.8 2675.0, -436.1 2398.0 C -528.4 2120.9, -556.6 2304.4, -556.6 1962.0 C -556.6 1619.5, -556.6 1745.7, -464.3 1468.6 C -372.0 1191.6, -423.3 1431.2, -273.9 1325.4 C -124.5 1219.5, -194.3 1181.9, -44.9 1287.8 C 104.4 1393.6, -0.2 1281.8, 92.1 1558.9 C 184.4 1835.9, 220.1 1619.5, 220.1 1962.0 Z" fill="none" stroke="#FFFFFF" stroke-opacity="0.22" stroke-width="1.2"/>
  <path d="M 1025.6 2801.0 C 1025.6 3132.2, 1082.0 3025.5, 976.2 3293.4 C 870.4 3561.4, 935.9 3327.3, 764.8 3429.6 C 593.6 3531.9, 714.6 3685.3, 543.4 3582.9 C 372.2 3480.6, 395.4 3489.2, 289.6 3221.2 C 183.8 2953.3, 304.0 3132.2, 304.0 2801.0 C 304.0 2469.8, 264.4 2680.6, 370.2 2412.7 C 476.0 2144.7, 346.4 2179.8, 517.6 2077.5 C 688.8 1975.1, 598.8 1950.6, 770.0 2053.0 C 941.2 2155.3, 886.5 2069.0, 992.3 2337.0 C 1098.1 2604.9, 1025.6 2469.8, 1025.6 2801.0 Z" fill="#F7FEFF" opacity="0.12" stroke="#F7FEFF" stroke-opacity="0.46" stroke-width="3" filter="url(#soft_coach_13_8076)"/>
  <path d="M 1025.6 2801.0 C 1025.6 3132.2, 1082.0 3025.5, 976.2 3293.4 C 870.4 3561.4, 935.9 3327.3, 764.8 3429.6 C 593.6 3531.9, 714.6 3685.3, 543.4 3582.9 C 372.2 3480.6, 395.4 3489.2, 289.6 3221.2 C 183.8 2953.3, 304.0 3132.2, 304.0 2801.0 C 304.0 2469.8, 264.4 2680.6, 370.2 2412.7 C 476.0 2144.7, 346.4 2179.8, 517.6 2077.5 C 688.8 1975.1, 598.8 1950.6, 770.0 2053.0 C 941.2 2155.3, 886.5 2069.0, 992.3 2337.0 C 1098.1 2604.9, 1025.6 2469.8, 1025.6 2801.0 Z" fill="none" stroke="#FFFFFF" stroke-opacity="0.22" stroke-width="1.2"/>
  <path d="M -100.0 1702.7 Q 133.3 1436.1, 366.7 1586.3 Q 600.0 2014.4, 833.3 2063.3 Q 1066.7 1613.7, 1300.0 1466.5" fill="none" stroke="#FFFFFF" stroke-opacity="0.38" stroke-width="4" filter="url(#soft_coach_13_8076)"/>
  <path d="M -100.0 1702.7 Q 133.3 1436.1, 366.7 1586.3 Q 600.0 2014.4, 833.3 2063.3 Q 1066.7 1613.7, 1300.0 1466.5" fill="none" stroke="#86A8FF" stroke-opacity="0.18" stroke-width="2"/>
  <path d="M -100.0 1005.8 Q 133.3 887.0, 366.7 825.3 Q 600.0 649.1, 833.3 858.7 Q 1066.7 1041.7, 1300.0 1032.1" fill="none" stroke="#FFFFFF" stroke-opacity="0.38" stroke-width="4" filter="url(#soft_coach_13_8076)"/>
  <path d="M -100.0 1005.8 Q 133.3 887.0, 366.7 825.3 Q 600.0 649.1, 833.3 858.7 Q 1066.7 1041.7, 1300.0 1032.1" fill="none" stroke="#86A8FF" stroke-opacity="0.18" stroke-width="2"/>
  <path d="M -100.0 2274.0 Q 133.3 2257.4, 366.7 1679.6 Q 600.0 1881.2, 833.3 2279.2 Q 1066.7 1952.4, 1300.0 1703.5" fill="none" stroke="#FFFFFF" stroke-opacity="0.38" stroke-width="4" filter="url(#soft_coach_13_8076)"/>
  <path d="M -100.0 2274.0 Q 133.3 2257.4, 366.7 1679.6 Q 600.0 1881.2, 833.3 2279.2 Q 1066.7 1952.4, 1300.0 1703.5" fill="none" stroke="#B891FF" stroke-opacity="0.18" stroke-width="2"/>
  <path d="M -100.0 1559.1 Q 133.3 1880.4, 366.7 1679.8 Q 600.0 1257.9, 833.3 1237.1 Q 1066.7 1552.2, 1300.0 1746.8" fill="none" stroke="#FFFFFF" stroke-opacity="0.38" stroke-width="4" filter="url(#soft_coach_13_8076)"/>
  <path d="M -100.0 1559.1 Q 133.3 1880.4, 366.7 1679.8 Q 600.0 1257.9, 833.3 1237.1 Q 1066.7 1552.2, 1300.0 1746.8" fill="none" stroke="#86A8FF" stroke-opacity="0.18" stroke-width="2"/>
  <circle cx="1262" cy="733" r="255" fill="url(#orb_coach_13_8076)" opacity="0.36"/>
  <circle cx="1262" cy="733" r="255" fill="#CFF3FF" opacity="0.08"/>
  <circle cx="1262" cy="733" r="255" fill="none" stroke="#FFFFFF" stroke-opacity="0.56" stroke-width="3"/>
  <ellipse cx="1190.6" cy="641.2" rx="45.9" ry="20.4" fill="#FFFFFF" opacity="0.42" transform="rotate(-22 1190.6 641.2)"/>
  <circle cx="1095" cy="1061" r="110" fill="url(#orb_coach_13_8076)" opacity="0.36"/>
  <circle cx="1095" cy="1061" r="110" fill="#CCF7ED" opacity="0.08"/>
  <circle cx="1095" cy="1061" r="110" fill="none" stroke="#FFFFFF" stroke-opacity="0.56" stroke-width="3"/>
  <ellipse cx="1064.2" cy="1021.4" rx="19.8" ry="8.8" fill="#FFFFFF" opacity="0.42" transform="rotate(-22 1064.2 1021.4)"/>
  <circle cx="836" cy="817" r="113" fill="url(#orb_coach_13_8076)" opacity="0.36"/>
  <circle cx="836" cy="817" r="113" fill="#CCF7ED" opacity="0.08"/>
  <circle cx="836" cy="817" r="113" fill="none" stroke="#FFFFFF" stroke-opacity="0.56" stroke-width="3"/>
  <ellipse cx="804.4" cy="776.3" rx="20.3" ry="9.0" fill="#FFFFFF" opacity="0.42" transform="rotate(-22 804.4 776.3)"/>
  <circle cx="432" cy="2362" r="160" fill="url(#orb_coach_13_8076)" opacity="0.22"/>
  <circle cx="432" cy="2362" r="160" fill="#86A8FF" opacity="0.08"/>
  <circle cx="432" cy="2362" r="160" fill="none" stroke="#FFFFFF" stroke-opacity="0.56" stroke-width="3"/>
  <ellipse cx="387.2" cy="2304.4" rx="28.8" ry="12.8" fill="#FFFFFF" opacity="0.42" transform="rotate(-22 387.2 2304.4)"/>
  <circle cx="555" cy="2072" r="258" fill="url(#orb_coach_13_8076)" opacity="0.18"/>
  <circle cx="555" cy="2072" r="258" fill="#CCF7ED" opacity="0.08"/>
  <circle cx="555" cy="2072" r="258" fill="none" stroke="#FFFFFF" stroke-opacity="0.56" stroke-width="3"/>
  <ellipse cx="482.8" cy="1979.1" rx="46.4" ry="20.6" fill="#FFFFFF" opacity="0.42" transform="rotate(-22 482.8 1979.1)"/>
  <circle cx="79" cy="1609" r="186" fill="url(#orb_coach_13_8076)" opacity="0.22"/>
  <circle cx="79" cy="1609" r="186" fill="#F7FEFF" opacity="0.08"/>
  <circle cx="79" cy="1609" r="186" fill="none" stroke="#FFFFFF" stroke-opacity="0.56" stroke-width="3"/>
  <ellipse cx="26.9" cy="1542.0" rx="33.5" ry="14.9" fill="#FFFFFF" opacity="0.42" transform="rotate(-22 26.9 1542.0)"/>
  <circle cx="475" cy="2634" r="111" fill="url(#orb_coach_13_8076)" opacity="0.26"/>
  <circle cx="475" cy="2634" r="111" fill="#CCF7ED" opacity="0.08"/>
  <circle cx="475" cy="2634" r="111" fill="none" stroke="#FFFFFF" stroke-opacity="0.56" stroke-width="3"/>
  <ellipse cx="443.9" cy="2594.0" rx="20.0" ry="8.9" fill="#FFFFFF" opacity="0.42" transform="rotate(-22 443.9 2594.0)"/>
  <circle cx="966" cy="376" r="3" fill="#FFFFFF" opacity="0.45"/>
  <circle cx="283" cy="355" r="5" fill="#FFFFFF" opacity="0.70"/>
  <circle cx="430" cy="2149" r="7" fill="#FFFFFF" opacity="0.57"/>
  <circle cx="1081" cy="671" r="5" fill="#FFFFFF" opacity="0.65"/>
  <circle cx="366" cy="173" r="7" fill="#FFFFFF" opacity="0.29"/>
  <circle cx="275" cy="979" r="2" fill="#FFFFFF" opacity="0.54"/>
  <circle cx="167" cy="2169" r="2" fill="#FFFFFF" opacity="0.36"/>
  <circle cx="571" cy="1632" r="7" fill="#FFFFFF" opacity="0.40"/>
  <circle cx="960" cy="1239" r="2" fill="#FFFFFF" opacity="0.49"/>
  <circle cx="502" cy="1750" r="4" fill="#FFFFFF" opacity="0.48"/>
  <rect width="1200" height="2600" fill="#FFFFFF" opacity="0.08"/>
  <rect width="1200" height="2600" filter="url(#grain_coach_13_8076)" opacity="0.7"/>
</svg>
