<svg xmlns="http://www.w3.org/2000/svg" width="1200" height="2600" viewBox="0 0 1200 2600" preserveAspectRatio="xMidYMid slice">
  <defs>
    <linearGradient id="bg_coach_04_2593" x1="0" y1="0" x2="1" y2="1">
      <stop offset="0%" stop-color="#E3E0FF"/>
      <stop offset="48%" stop-color="#CCF7ED"/>
      <stop offset="100%" stop-color="#CFF3FF"/>
    </linearGradient>
    <radialGradient id="orb_coach_04_2593" cx="35%" cy="30%" r="70%">
      <stop offset="0%" stop-color="#FFFFFF" stop-opacity="0.85"/>
      <stop offset="42%" stop-color="#FFFFFF" stop-opacity="0.20"/>
      <stop offset="100%" stop-color="#FFFFFF" stop-opacity="0.02"/>
    </radialGradient>
    <filter id="blur_coach_04_2593" x="-30%" y="-30%" width="160%" height="160%">
      <feGaussianBlur stdDeviation="72"/>
    </filter>
    <filter id="soft_coach_04_2593" x="-20%" y="-20%" width="140%" height="140%">
      <feGaussianBlur stdDeviation="10"/>
    </filter>
    <filter id="grain_coach_04_2593">
      <feTurbulence type="fractalNoise" baseFrequency="0.85" numOctaves="2" stitchTiles="stitch"/>
      <feColorMatrix type="saturate" values="0"/>
      <feComponentTransfer>
        <feFuncA type="table" tableValues="0 0.035"/>
      </feComponentTransfer>
    </filter>
  </defs>
  <rect width="1200" height="2600" fill="url(#bg_coach_04_2593)"/>
  <path d="M 1266.0 2128.0 C 1266.0 2329.2, 1246.8 2225.8, 1123.0 2379.9 C 999.2 2534.0, 1081.5 2493.6, 891.9 2528.5 C 702.2 2563.4, 791.6 2646.7, 624.8 2546.1 C 458.0 2445.5, 503.9 2460.0, 438.0 2271.0 C 372.1 2082.0, 399.9 2148.5, 465.8 1959.5 C 531.6 1770.5, 426.1 1826.8, 592.9 1726.2 C 759.7 1625.6, 688.0 1699.8, 877.7 1734.7 C 1067.3 1769.7, 1055.1 1652.1, 1178.9 1806.2 C 1302.7 1960.2, 1266.0 1926.8, 1266.0 2128.0 Z" fill="#CCF7ED" opacity="0.29" filter="url(#blur_coach_04_2593)"/>
  <path d="M 1699.9 2678.0 C 1699.9 2939.9, 1782.8 2910.0, 1630.6 3110.6 C 1478.5 3311.2, 1549.8 3283.2, 1316.7 3328.6 C 1083.6 3374.1, 1152.3 3290.9, 947.3 3160.0 C 742.3 3029.0, 881.6 3122.5, 800.7 2876.4 C 719.7 2630.3, 685.4 2757.1, 766.4 2511.0 C 847.3 2264.9, 788.9 2348.3, 993.9 2217.3 C 1198.9 2086.4, 1084.8 1972.2, 1317.9 2017.7 C 1551.0 2063.1, 1464.0 2150.5, 1616.2 2351.2 C 1768.3 2551.8, 1699.9 2416.1, 1699.9 2678.0 Z" fill="#4ECAD1" opacity="0.28" filter="url(#blur_coach_04_2593)"/>
  <path d="M 178.4 2175.0 C 178.4 2395.1, 246.3 2268.4, 148.3 2437.0 C 50.2 2605.6, 78.3 2570.5, -72.0 2608.7 C -222.2 2646.9, -165.1 2709.0, -297.2 2599.0 C -429.3 2489.0, -444.3 2531.0, -496.5 2324.2 C -548.7 2117.4, -547.7 2222.0, -495.5 2015.2 C -443.3 1808.4, -402.4 1875.7, -270.3 1765.7 C -138.2 1655.7, -218.8 1587.3, -68.6 1625.5 C 81.6 1663.7, 66.1 1669.6, 164.1 1838.1 C 262.2 2006.7, 178.4 1955.0, 178.4 2175.0 Z" fill="#B4E6F8" opacity="0.23" filter="url(#blur_coach_04_2593)"/>
  <path d="M 934.5 362.0 C 934.5 507.8, 1086.1 437.5, 942.4 549.1 C 798.6 660.8, 840.6 629.5, 620.4 654.8 C 400.1 680.1, 438.0 674.2, 244.3 601.3 C 50.7 528.4, 199.9 599.2, 123.4 462.2 C 46.9 325.2, -50.3 399.8, 26.2 262.8 C 102.7 125.8, 120.7 187.2, 314.4 114.3 C 508.1 41.4, 389.5 24.6, 609.8 49.9 C 830.0 75.2, 719.6 41.1, 863.4 152.8 C 1007.1 264.5, 934.5 216.2, 934.5 362.0 Z" fill="#86A8FF" opacity="0.30" filter="url(#blur_coach_04_2593)"/>
  <path d="M 198.4 2027.0 C 198.4 2194.4, 202.1 2121.6, 88.4 2249.9 C -25.3 2378.1, 70.5 2344.3, -103.7 2373.4 C -277.8 2402.5, -188.2 2474.0, -341.4 2390.3 C -494.6 2306.6, -467.7 2314.3, -528.1 2157.0 C -588.6 1999.7, -544.1 2063.9, -483.6 1906.6 C -423.1 1749.3, -513.2 1759.6, -360.0 1675.9 C -206.8 1592.2, -268.3 1614.1, -94.1 1643.2 C 80.0 1672.2, -13.3 1686.2, 100.3 1814.4 C 214.0 1942.7, 198.4 1859.6, 198.4 2027.0 Z" fill="#CFF3FF" opacity="0.30" filter="url(#blur_coach_04_2593)"/>
  <path d="M 652.7 -246.0 C 652.7 -74.5, 705.3 -123.3, 627.2 8.0 C 549.1 139.4, 566.3 55.4, 446.6 85.2 C 326.9 114.9, 375.5 221.2, 270.3 135.5 C 165.1 49.7, 185.6 47.6, 144.0 -113.5 C 102.5 -274.6, 149.5 -195.8, 191.1 -356.9 C 232.7 -518.1, 140.5 -475.7, 245.7 -561.4 C 350.9 -647.1, 332.1 -664.8, 451.8 -635.0 C 571.4 -605.3, 502.9 -666.0, 581.0 -534.7 C 659.1 -403.4, 652.7 -417.5, 652.7 -246.0 Z" fill="#B891FF" opacity="0.23" filter="url(#blur_coach_04_2593)"/>
  <path d="M 290.9 2313.0 C 290.9 2466.9, 366.1 2400.4, 240.9 2518.3 C 115.6 2636.1, 157.2 2618.1, -34.7 2644.8 C -226.6 2671.5, -180.7 2645.1, -349.5 2568.1 C -518.2 2491.2, -461.2 2570.6, -527.8 2426.0 C -594.5 2281.4, -559.1 2323.5, -492.5 2178.9 C -425.8 2034.2, -482.0 2119.1, -313.3 2042.1 C -144.5 1965.2, -231.9 1957.6, -40.0 1984.3 C 151.9 2011.0, 29.3 1939.7, 154.5 2057.6 C 279.7 2175.5, 290.9 2159.1, 290.9 2313.0 Z" fill="#86A8FF" opacity="0.29" filter="url(#blur_coach_04_2593)"/>
  <path d="M 324.5 347.0 C 324.5 527.0, 416.0 439.6, 325.5 577.5 C 235.0 715.4, 234.9 654.5, 96.2 685.7 C -42.5 717.0, -10.1 727.1, -132.1 637.1 C -254.1 547.1, -218.8 673.4, -266.9 504.2 C -315.1 335.1, -272.2 359.9, -224.0 190.8 C -175.8 21.6, -203.9 87.5, -81.9 -2.5 C 40.1 -92.5, -26.9 -136.7, 111.8 -105.5 C 250.5 -74.2, 215.1 -21.0, 305.7 116.9 C 396.2 254.8, 324.5 167.0, 324.5 347.0 Z" fill="#86A8FF" opacity="0.25" filter="url(#blur_coach_04_2593)"/>
  <path d="M 1279.0 629.0 C 1279.0 782.9, 1226.6 713.4, 1110.0 831.3 C 993.4 949.2, 1070.0 883.0, 891.4 909.7 C 712.8 936.4, 754.7 1005.3, 597.7 928.3 C 440.6 851.4, 501.4 899.9, 439.4 755.3 C 377.4 610.7, 359.6 672.0, 421.6 527.4 C 483.6 382.7, 485.8 374.6, 642.8 297.7 C 799.9 220.7, 726.1 277.2, 904.7 303.9 C 1083.3 330.6, 1040.2 293.3, 1156.8 411.2 C 1273.3 529.1, 1279.0 475.1, 1279.0 629.0 Z" fill="#86A8FF" opacity="0.30" filter="url(#blur_coach_04_2593)"/>
  <path d="M 1331.1 1177.0 C 1331.1 1356.1, 1339.0 1282.5, 1161.8 1427.4 C 984.6 1572.3, 1103.7 1479.3, 816.9 1534.6 C 530.2 1590.0, 678.0 1587.0, 391.3 1531.7 C 104.5 1476.3, 192.6 1567.4, 15.4 1422.5 C -161.8 1277.6, -47.3 1356.1, -47.3 1177.0 C -47.3 997.9, -136.7 1080.4, 40.5 935.5 C 217.7 790.7, 78.0 892.6, 364.8 837.3 C 651.5 781.9, 521.3 740.0, 808.0 795.4 C 1094.8 850.7, 955.3 806.7, 1132.5 951.6 C 1309.7 1096.5, 1331.1 997.9, 1331.1 1177.0 Z" fill="#E3E0FF" opacity="0.12" stroke="#FFFFFF" stroke-opacity="0.46" stroke-width="3" filter="url(#soft_coach_04_2593)"/>
  <path d="M 1331.1 1177.0 C 1331.1 1356.1, 1339.0 1282.5, 1161.8 1427.4 C 984.6 1572.3, 1103.7 1479.3, 816.9 1534.6 C 530.2 1590.0, 678.0 1587.0, 391.3 1531.7 C 104.5 1476.3, 192.6 1567.4, 15.4 1422.5 C -161.8 1277.6, -47.3 1356.1, -47.3 1177.0 C -47.3 997.9, -136.7 1080.4, 40.5 935.5 C 217.7 790.7, 78.0 892.6, 364.8 837.3 C 651.5 781.9, 521.3 740.0, 808.0 795.4 C 1094.8 850.7, 955.3 806.7, 1132.5 951.6 C 1309.7 1096.5, 1331.1 997.9, 1331.1 1177.0 Z" fill="none" stroke="#FFFFFF" stroke-opacity="0.22" stroke-width="1.2"/>
  <path d="M 803.5 2488.0 C 803.5 2704.0, 934.2 2633.9, 794.8 2808.7 C 655.4 2983.4, 707.1 2867.1, 481.5 2933.8 C 256.0 3000.6, 373.9 3038.1, 148.4 2971.3 C -77.1 2904.6, 36.2 2910.1, -103.2 2735.3 C -242.6 2560.6, -260.9 2704.0, -260.9 2488.0 C -260.9 2272.0, -230.1 2400.1, -90.7 2225.3 C 48.7 2050.6, -90.5 2105.2, 135.1 2038.4 C 360.6 1971.7, 239.8 2014.2, 465.4 2080.9 C 690.9 2147.7, 594.9 2003.8, 734.3 2178.6 C 873.7 2353.3, 803.5 2272.0, 803.5 2488.0 Z" fill="#CFF3FF" opacity="0.12" stroke="#FFFFFF" stroke-opacity="0.46" stroke-width="3" filter="url(#soft_coach_04_2593)"/>
  <path d="M 803.5 2488.0 C 803.5 2704.0, 934.2 2633.9, 794.8 2808.7 C 655.4 2983.4, 707.1 2867.1, 481.5 2933.8 C 256.0 3000.6, 373.9 3038.1, 148.4 2971.3 C -77.1 2904.6, 36.2 2910.1, -103.2 2735.3 C -242.6 2560.6, -260.9 2704.0, -260.9 2488.0 C -260.9 2272.0, -230.1 2400.1, -90.7 2225.3 C 48.7 2050.6, -90.5 2105.2, 135.1 2038.4 C 360.6 1971.7, 239.8 2014.2, 465.4 2080.9 C 690.9 2147.7, 594.9 2003.8, 734.3 2178.6 C 873.7 2353.3, 803.5 2272.0, 803.5 2488.0 Z" fill="none" stroke="#FFFFFF" stroke-opacity="0.22" stroke-width="1.2"/>
  <path d="M 1771.1 737.0 C 1771.1 996.2, 1700.1 871.6, 1534.2 1081.3 C 1368.4 1291.0, 1546.5 1176.1, 1278.2 1256.2 C 1009.8 1336.3, 1161.0 1338.4, 892.6 1258.3 C 624.3 1178.2, 788.5 1263.7, 622.7 1054.0 C 456.8 844.3, 481.1 996.2, 481.1 737.0 C 481.1 477.8, 414.3 564.4, 580.1 354.7 C 746.0 145.0, 621.1 291.1, 889.4 211.0 C 1157.8 130.9, 1002.0 83.3, 1270.3 163.4 C 1538.7 243.5, 1411.7 144.9, 1577.5 354.6 C 1743.4 564.3, 1771.1 477.8, 1771.1 737.0 Z" fill="#CFF3FF" opacity="0.12" stroke="#CFF3FF" stroke-opacity="0.46" stroke-width="3" filter="url(#soft_coach_04_2593)"/>
  <path d="M 1771.1 737.0 C 1771.1 996.2, 1700.1 871.6, 1534.2 1081.3 C 1368.4 1291.0, 1546.5 1176.1, 1278.2 1256.2 C 1009.8 1336.3, 1161.0 1338.4, 892.6 1258.3 C 624.3 1178.2, 788.5 1263.7, 622.7 1054.0 C 456.8 844.3, 481.1 996.2, 481.1 737.0 C 481.1 477.8, 414.3 564.4, 580.1 354.7 C 746.0 145.0, 621.1 291.1, 889.4 211.0 C 1157.8 130.9, 1002.0 83.3, 1270.3 163.4 C 1538.7 243.5, 1411.7 144.9, 1577.5 354.6 C 1743.4 564.3, 1771.1 477.8, 1771.1 737.0 Z" fill="none" stroke="#FFFFFF" stroke-opacity="0.22" stroke-width="1.2"/>
  <path d="M 984.6 910.0 C 984.6 1103.0, 1075.2 997.0, 932.9 1153.2 C 790.6 1309.3, 883.8 1261.5, 653.5 1321.2 C 423.3 1380.9, 548.6 1321.4, 318.3 1261.8 C 88.1 1202.1, 232.3 1314.0, 90.0 1157.9 C -52.3 1001.7, -13.2 1103.0, -13.2 910.0 C -13.2 717.0, -105.7 840.4, 36.6 684.2 C 178.9 528.0, 106.8 580.0, 337.0 520.3 C 567.3 460.7, 406.6 387.9, 636.8 447.6 C 867.1 507.2, 755.3 472.4, 897.6 628.6 C 1039.9 784.8, 984.6 717.0, 984.6 910.0 Z" fill="#86A8FF" opacity="0.12" stroke="#FFFFFF" stroke-opacity="0.46" stroke-width="3" filter="url(#soft_coach_04_2593)"/>
  <path d="M 984.6 910.0 C 984.6 1103.0, 1075.2 997.0, 932.9 1153.2 C 790.6 1309.3, 883.8 1261.5, 653.5 1321.2 C 423.3 1380.9, 548.6 1321.4, 318.3 1261.8 C 88.1 1202.1, 232.3 1314.0, 90.0 1157.9 C -52.3 1001.7, -13.2 1103.0, -13.2 910.0 C -13.2 717.0, -105.7 840.4, 36.6 684.2 C 178.9 528.0, 106.8 580.0, 337.0 520.3 C 567.3 460.7, 406.6 387.9, 636.8 447.6 C 867.1 507.2, 755.3 472.4, 897.6 628.6 C 1039.9 784.8, 984.6 717.0, 984.6 910.0 Z" fill="none" stroke="#FFFFFF" stroke-opacity="0.22" stroke-width="1.2"/>
  <path d="M 601.2 1295.0 C 601.2 1592.5, 581.8 1394.3, 404.3 1635.0 C 226.8 1875.6, 377.3 1885.5, 90.1 1977.4 C -197.0 2069.3, -42.4 2099.7, -329.6 2007.8 C -616.8 1915.9, -521.1 1902.7, -698.6 1662.0 C -876.1 1421.4, -720.8 1592.5, -720.8 1295.0 C -720.8 997.5, -807.7 1105.9, -630.2 865.2 C -452.7 624.6, -618.0 708.5, -330.8 616.6 C -43.6 524.7, -155.6 491.4, 131.6 583.3 C 418.8 675.2, 225.1 634.1, 402.6 874.7 C 580.0 1115.3, 601.2 997.5, 601.2 1295.0 Z" fill="#B891FF" opacity="0.12" stroke="#FFFFFF" stroke-opacity="0.46" stroke-width="3" filter="url(#soft_coach_04_2593)"/>
  <path d="M 601.2 1295.0 C 601.2 1592.5, 581.8 1394.3, 404.3 1635.0 C 226.8 1875.6, 377.3 1885.5, 90.1 1977.4 C -197.0 2069.3, -42.4 2099.7, -329.6 2007.8 C -616.8 1915.9, -521.1 1902.7, -698.6 1662.0 C -876.1 1421.4, -720.8 1592.5, -720.8 1295.0 C -720.8 997.5, -807.7 1105.9, -630.2 865.2 C -452.7 624.6, -618.0 708.5, -330.8 616.6 C -43.6 524.7, -155.6 491.4, 131.6 583.3 C 418.8 675.2, 225.1 634.1, 402.6 874.7 C 580.0 1115.3, 601.2 997.5, 601.2 1295.0 Z" fill="none" stroke="#FFFFFF" stroke-opacity="0.22" stroke-width="1.2"/>
  <path d="M -100.0 366.3 Q 133.3 707.5, 366.7 373.1 Q 600.0 4.1, 833.3 10.0 Q 1066.7 528.0, 1300.0 609.8" fill="none" stroke="#FFFFFF" stroke-opacity="0.38" stroke-width="4" filter="url(#soft_coach_04_2593)"/>
  <path d="M -100.0 366.3 Q 133.3 707.5, 366.7 373.1 Q 600.0 4.1, 833.3 10.0 Q 1066.7 528.0, 1300.0 609.8" fill="none" stroke="#4ECAD1" stroke-opacity="0.18" stroke-width="2"/>
  <path d="M -100.0 2412.2 Q 133.3 2426.2, 366.7 2611.8 Q 600.0 2988.2, 833.3 3141.8 Q 1066.7 3055.1, 1300.0 2749.9" fill="none" stroke="#FFFFFF" stroke-opacity="0.38" stroke-width="4" filter="url(#soft_coach_04_2593)"/>
  <path d="M -100.0 2412.2 Q 133.3 2426.2, 366.7 2611.8 Q 600.0 2988.2, 833.3 3141.8 Q 1066.7 3055.1, 1300.0 2749.9" fill="none" stroke="#4ECAD1" stroke-opacity="0.18" stroke-width="2"/>
  <path d="M -100.0 799.1 Q 133.3 577.4, 366.7 611.1 Q 600.0 899.4, 833.3 1047.1 Q 1066.7 969.2, 1300.0 821.2" fill="none" stroke="#FFFFFF" stroke-opacity="0.38" stroke-width="4" filter="url(#soft_coach_04_2593)"/>
  <path d="M -100.0 799.1 Q 133.3 577.4, 366.7 611.1 Q 600.0 899.4, 833.3 1047.1 Q 1066.7 969.2, 1300.0 821.2" fill="none" stroke="#B891FF" stroke-opacity="0.18" stroke-width="2"/>
  <circle cx="358" cy="578" r="211" fill="url(#orb_coach_04_2593)" opacity="0.36"/>
  <circle cx="358" cy="578" r="211" fill="#E3E0FF" opacity="0.08"/>
  <circle cx="358" cy="578" r="211" fill="none" stroke="#FFFFFF" stroke-opacity="0.56" stroke-width="3"/>
  <ellipse cx="298.9" cy="502.0" rx="38.0" ry="16.9" fill="#FFFFFF" opacity="0.42" transform="rotate(-22 298.9 502.0)"/>
  <circle cx="121" cy="1836" r="114" fill="url(#orb_coach_04_2593)" opacity="0.36"/>
  <circle cx="121" cy="1836" r="114" fill="#86A8FF" opacity="0.08"/>
  <circle cx="121" cy="1836" r="114" fill="none" stroke="#FFFFFF" stroke-opacity="0.56" stroke-width="3"/>
  <ellipse cx="89.1" cy="1795.0" rx="20.5" ry="9.1" fill="#FFFFFF" opacity="0.42" transform="rotate(-22 89.1 1795.0)"/>
  <circle cx="479" cy="284" r="288" fill="url(#orb_coach_04_2593)" opacity="0.36"/>
  <circle cx="479" cy="284" r="288" fill="#E3E0FF" opacity="0.08"/>
  <circle cx="479" cy="284" r="288" fill="none" stroke="#FFFFFF" stroke-opacity="0.56" stroke-width="3"/>
  <ellipse cx="398.4" cy="180.3" rx="51.8" ry="23.0" fill="#FFFFFF" opacity="0.42" transform="rotate(-22 398.4 180.3)"/>
  <circle cx="10" cy="625" r="98" fill="url(#orb_coach_04_2593)" opacity="0.22"/>
  <circle cx="10" cy="625" r="98" fill="#E3E0FF" opacity="0.08"/>
  <circle cx="10" cy="625" r="98" fill="none" stroke="#FFFFFF" stroke-opacity="0.56" stroke-width="3"/>
  <ellipse cx="-17.4" cy="589.7" rx="17.6" ry="7.8" fill="#FFFFFF" opacity="0.42" transform="rotate(-22 -17.4 589.7)"/>
  <circle cx="416" cy="-60" r="106" fill="url(#orb_coach_04_2593)" opacity="0.27"/>
  <circle cx="416" cy="-60" r="106" fill="#B891FF" opacity="0.08"/>
  <circle cx="416" cy="-60" r="106" fill="none" stroke="#FFFFFF" stroke-opacity="0.56" stroke-width="3"/>
  <ellipse cx="386.3" cy="-98.2" rx="19.1" ry="8.5" fill="#FFFFFF" opacity="0.42" transform="rotate(-22 386.3 -98.2)"/>
  <circle cx="277" cy="-71" r="243" fill="url(#orb_coach_04_2593)" opacity="0.22"/>
  <circle cx="277" cy="-71" r="243" fill="#E3E0FF" opacity="0.08"/>
  <circle cx="277" cy="-71" r="243" fill="none" stroke="#FFFFFF" stroke-opacity="0.56" stroke-width="3"/>
  <ellipse cx="209.0" cy="-158.5" rx="43.7" ry="19.4" fill="#FFFFFF" opacity="0.42" transform="rotate(-22 209.0 -158.5)"/>
  <circle cx="755" cy="816" r="150" fill="url(#orb_coach_04_2593)" opacity="0.27"/>
  <circle cx="755" cy="816" r="150" fill="#E3E0FF" opacity="0.08"/>
  <circle cx="755" cy="816" r="150" fill="none" stroke="#FFFFFF" stroke-opacity="0.56" stroke-width="3"/>
  <ellipse cx="713.0" cy="762.0" rx="27.0" ry="12.0" fill="#FFFFFF" opacity="0.42" transform="rotate(-22 713.0 762.0)"/>
  <circle cx="1225" cy="-51" r="138" fill="url(#orb_coach_04_2593)" opacity="0.23"/>
  <circle cx="1225" cy="-51" r="138" fill="#CFF3FF" opacity="0.08"/>
  <circle cx="1225" cy="-51" r="138" fill="none" stroke="#FFFFFF" stroke-opacity="0.56" stroke-width="3"/>
  <ellipse cx="1186.4" cy="-100.7" rx="24.8" ry="11.0" fill="#FFFFFF" opacity="0.42" transform="rotate(-22 1186.4 -100.7)"/>
  <circle cx="1158" cy="318" r="153" fill="url(#orb_coach_04_2593)" opacity="0.16"/>
  <circle cx="1158" cy="318" r="153" fill="#E3E0FF" opacity="0.08"/>
  <circle cx="1158" cy="318" r="153" fill="none" stroke="#FFFFFF" stroke-opacity="0.56" stroke-width="3"/>
  <ellipse cx="1115.2" cy="262.9" rx="27.5" ry="12.2" fill="#FFFFFF" opacity="0.42" transform="rotate(-22 1115.2 262.9)"/>
  <circle cx="337" cy="858" r="170" fill="url(#orb_coach_04_2593)" opacity="0.28"/>
  <circle cx="337" cy="858" r="170" fill="#86A8FF" opacity="0.08"/>
  <circle cx="337" cy="858" r="170" fill="none" stroke="#FFFFFF" stroke-opacity="0.56" stroke-width="3"/>
  <ellipse cx="289.4" cy="796.8" rx="30.6" ry="13.6" fill="#FFFFFF" opacity="0.42" transform="rotate(-22 289.4 796.8)"/>
  <circle cx="569" cy="-47" r="100" fill="url(#orb_coach_04_2593)" opacity="0.20"/>
  <circle cx="569" cy="-47" r="100" fill="#4ECAD1" opacity="0.08"/>
  <circle cx="569" cy="-47" r="100" fill="none" stroke="#FFFFFF" stroke-opacity="0.56" stroke-width="3"/>
  <ellipse cx="541.0" cy="-83.0" rx="18.0" ry="8.0" fill="#FFFFFF" opacity="0.42" transform="rotate(-22 541.0 -83.0)"/>
  <circle cx="668" cy="1725" r="2" fill="#FFFFFF" opacity="0.68"/>
  <circle cx="378" cy="672" r="3" fill="#FFFFFF" opacity="0.63"/>
  <circle cx="887" cy="1526" r="7" fill="#FFFFFF" opacity="0.53"/>
  <circle cx="390" cy="1444" r="3" fill="#FFFFFF" opacity="0.30"/>
  <circle cx="618" cy="185" r="2" fill="#FFFFFF" opacity="0.61"/>
  <circle cx="645" cy="759" r="5" fill="#FFFFFF" opacity="0.54"/>
  <circle cx="565" cy="2508" r="2" fill="#FFFFFF" opacity="0.54"/>
  <circle cx="642" cy="2037" r="3" fill="#FFFFFF" opacity="0.69"/>
  <circle cx="139" cy="1805" r="4" fill="#FFFFFF" opacity="0.47"/>
  <circle cx="650" cy="2468" r="5" fill="#FFFFFF" opacity="0.61"/>
  <circle cx="513" cy="166" r="4" fill="#FFFFFF" opacity="0.66"/>
  <circle cx="304" cy="2335" r="4" fill="#FFFFFF" opacity="0.30"/>
  <circle cx="177" cy="2284" r="7" fill="#FFFFFF" opacity="0.49"/>
  <circle cx="1182" cy="2419" r="2" fill="#FFFFFF" opacity="0.37"/>
  <circle cx="937" cy="502" r="4" fill="#FFFFFF" opacity="0.65"/>
  <circle cx="945" cy="2588" r="2" fill="#FFFFFF" opacity="0.51"/>
  <circle cx="726" cy="1544" r="2" fill="#FFFFFF" opacity="0.37"/>
  <circle cx="151" cy="1819" r="5" fill="#FFFFFF" opacity="0.69"/>
  <rect width="1200" height="2600" fill="#FFFFFF" opacity="0.08"/>
  <rect width="1200" height="2600" filter="url(#grain_coach_04_2593)" opacity="0.7"/>
</svg>
