<svg xmlns="http://www.w3.org/2000/svg" width="1200" height="2600" viewBox="0 0 1200 2600" preserveAspectRatio="xMidYMid slice">
  <defs>
    <linearGradient id="bg_coach_12_9255" x1="0" y1="0" x2="1" y2="1">
      <stop offset="0%" stop-color="#F7FEFF"/>
      <stop offset="48%" stop-color="#B4E6F8"/>
      <stop offset="100%" stop-color="#CFF3FF"/>
    </linearGradient>
    <radialGradient id="orb_coach_12_9255" cx="35%" cy="30%" r="70%">
      <stop offset="0%" stop-color="#FFFFFF" stop-opacity="0.85"/>
      <stop offset="42%" stop-color="#FFFFFF" stop-opacity="0.20"/>
      <stop offset="100%" stop-color="#FFFFFF" stop-opacity="0.02"/>
    </radialGradient>
    <filter id="blur_coach_12_9255" x="-30%" y="-30%" width="160%" height="160%">
      <feGaussianBlur stdDeviation="72"/>
    </filter>
    <filter id="soft_coach_12_9255" x="-20%" y="-20%" width="140%" height="140%">
      <feGaussianBlur stdDeviation="10"/>
    </filter>
    <filter id="grain_coach_12_9255">
      <feTurbulence type="fractalNoise" baseFrequency="0.85" numOctaves="2" stitchTiles="stitch"/>
      <feColorMatrix type="saturate" values="0"/>
      <feComponentTransfer>
        <feFuncA type="table" tableValues="0 0.035"/>
      </feComponentTransfer>
    </filter>
  </defs>
  <rect width="1200" height="2600" fill="url(#bg_coach_12_9255)"/>
  <path d="M 1727.3 2058.0 C 1727.3 2237.6, 1743.8 2189.1, 1628.4 2326.6 C 1512.9 2464.2, 1576.5 2429.8, 1399.7 2461.0 C 1222.9 2492.1, 1306.8 2514.2, 1151.3 2424.5 C 995.8 2334.7, 1013.5 2364.8, 952.1 2196.1 C 890.7 2027.3, 837.8 2102.6, 899.2 1933.9 C 960.6 1765.2, 966.4 1824.1, 1121.9 1734.4 C 1277.4 1644.6, 1232.6 1703.8, 1409.4 1735.0 C 1586.2 1766.2, 1541.0 1685.8, 1656.4 1823.3 C 1771.8 1960.9, 1727.3 1878.5, 1727.3 2058.0 Z" fill="#4ECAD1" opacity="0.36" filter="url(#blur_coach_12_9255)"/>
  <path d="M 597.2 12.0 C 597.2 234.3, 544.7 175.3, 471.2 345.6 C 397.7 515.9, 454.8 527.3, 342.3 565.9 C 229.7 604.5, 270.5 575.8, 171.6 464.7 C 72.6 353.5, 98.0 391.0, 58.9 182.1 C 19.8 -26.8, 18.6 59.5, 57.7 -149.4 C 96.8 -358.3, 65.5 -369.2, 164.5 -480.3 C 263.5 -591.5, 222.6 -446.6, 335.2 -408.0 C 447.7 -369.4, 397.1 -481.6, 470.6 -311.3 C 544.0 -141.0, 597.2 -210.3, 597.2 12.0 Z" fill="#4ECAD1" opacity="0.19" filter="url(#blur_coach_12_9255)"/>
  <path d="M 947.9 2231.0 C 947.9 2491.1, 1017.2 2397.8, 900.7 2597.1 C 784.1 2796.3, 795.7 2728.9, 617.1 2774.0 C 438.5 2819.2, 528.6 2776.3, 371.6 2646.3 C 214.5 2516.2, 159.5 2690.3, 97.5 2445.9 C 35.4 2201.5, 123.9 2268.7, 185.9 2024.3 C 247.9 1779.9, 216.3 1947.9, 373.4 1817.8 C 530.5 1687.8, 423.3 1534.8, 601.9 1579.9 C 780.5 1625.1, 689.4 1637.0, 806.0 1836.3 C 922.6 2035.5, 947.9 1970.9, 947.9 2231.0 Z" fill="#B4E6F8" opacity="0.32" filter="url(#blur_coach_12_9255)"/>
  <path d="M 98.1 1764.0 C 98.1 1913.8, 102.5 1825.4, 27.0 1940.2 C -48.5 2055.0, -12.1 2039.8, -127.7 2065.8 C -243.4 2091.8, -202.7 2079.1, -304.4 2004.2 C -406.1 1929.3, -386.5 2018.8, -426.7 1878.0 C -466.8 1737.2, -440.7 1775.5, -400.6 1634.7 C -360.4 1493.8, -420.3 1556.9, -318.6 1481.9 C -216.9 1407.0, -248.8 1398.2, -133.1 1424.2 C -17.4 1450.2, -61.6 1450.3, 13.9 1565.1 C 89.4 1679.9, 98.1 1614.2, 98.1 1764.0 Z" fill="#CCF7ED" opacity="0.37" filter="url(#blur_coach_12_9255)"/>
  <path d="M 625.3 -56.0 C 625.3 225.7, 678.6 62.6, 546.7 278.4 C 414.8 494.2, 473.0 422.2, 270.9 471.1 C 68.8 520.0, 164.1 682.7, -13.6 541.8 C -191.3 401.0, -174.5 400.9, -244.7 136.2 C -314.9 -128.5, -368.1 -0.9, -297.9 -265.6 C -227.7 -530.3, -236.5 -479.7, -58.8 -620.6 C 118.9 -761.4, 70.9 -619.9, 273.0 -571.0 C 475.0 -522.1, 446.2 -648.1, 578.1 -432.3 C 710.0 -216.5, 625.3 -337.7, 625.3 -56.0 Z" fill="#B891FF" opacity="0.36" filter="url(#blur_coach_12_9255)"/>
  <path d="M 561.3 2516.0 C 561.3 2674.4, 596.0 2649.2, 493.0 2770.5 C 390.1 2891.9, 456.2 2800.5, 298.5 2828.0 C 140.7 2855.5, 186.2 2940.2, 47.5 2861.0 C -91.3 2781.8, -2.9 2801.3, -57.6 2652.5 C -112.4 2503.7, -218.4 2525.6, -163.6 2376.8 C -108.8 2227.9, -58.2 2305.1, 80.5 2225.9 C 219.3 2146.7, 133.0 2110.3, 290.7 2137.9 C 448.5 2165.4, 394.6 2130.6, 497.6 2251.9 C 600.5 2373.2, 561.3 2357.6, 561.3 2516.0 Z" fill="#CCF7ED" opacity="0.23" filter="url(#blur_coach_12_9255)"/>
  <path d="M 1513.0 1086.0 C 1513.0 1367.2, 1500.4 1339.3, 1423.2 1554.7 C 1346.0 1770.2, 1378.1 1629.1, 1259.8 1678.0 C 1141.4 1726.8, 1185.7 1785.2, 1081.6 1644.6 C 977.6 1503.9, 1016.6 1573.2, 975.5 1308.9 C 934.4 1044.6, 934.7 1166.1, 975.8 901.8 C 1016.8 637.5, 967.9 722.6, 1072.0 582.0 C 1176.0 441.4, 1149.2 405.0, 1267.5 453.8 C 1385.8 502.6, 1367.9 512.3, 1445.1 727.8 C 1522.4 943.2, 1513.0 804.8, 1513.0 1086.0 Z" fill="#CCF7ED" opacity="0.21" filter="url(#blur_coach_12_9255)"/>
  <path d="M 817.4 582.0 C 817.4 819.6, 842.5 787.9, 714.1 969.9 C 585.7 1151.9, 658.0 974.7, 461.2 1015.9 C 264.5 1057.2, 359.1 1212.6, 186.1 1093.8 C 13.0 975.0, 23.4 999.4, -44.9 776.1 C -113.2 552.9, -161.1 653.0, -92.8 429.7 C -24.4 206.4, -46.6 185.9, 126.5 67.1 C 299.5 -51.7, 272.7 35.6, 469.5 76.8 C 666.2 118.1, 656.1 94.5, 784.5 276.5 C 913.0 458.6, 817.4 344.4, 817.4 582.0 Z" fill="#CFF3FF" opacity="0.38" filter="url(#blur_coach_12_9255)"/>
  <path d="M 1396.9 741.0 C 1396.9 886.8, 1423.8 854.8, 1327.7 966.5 C 1231.7 1078.2, 1306.2 982.4, 1159.1 1007.7 C 1011.9 1033.0, 1028.2 1076.6, 898.8 1003.7 C 769.4 930.8, 873.3 1005.4, 822.2 868.4 C 771.1 731.4, 739.9 756.9, 791.0 619.9 C 842.1 482.9, 818.0 560.6, 947.4 487.7 C 1076.8 414.8, 1008.9 428.0, 1156.1 453.3 C 1303.2 478.6, 1211.4 443.9, 1307.4 555.6 C 1403.4 667.3, 1396.9 595.2, 1396.9 741.0 Z" fill="#CCF7ED" opacity="0.23" filter="url(#blur_coach_12_9255)"/>
  <path d="M 785.1 1702.0 C 785.1 2003.5, 788.2 1851.1, 699.7 2082.0 C 611.2 2313.0, 648.5 2331.8, 512.9 2384.2 C 377.2 2436.5, 415.0 2537.4, 295.8 2386.6 C 176.5 2235.9, 211.1 2208.1, 164.0 1924.8 C 116.9 1641.5, 86.2 1746.3, 133.3 1463.0 C 180.4 1179.7, 182.7 1289.0, 302.0 1138.2 C 421.2 987.5, 383.0 917.1, 518.6 969.4 C 654.2 1021.8, 614.7 999.7, 703.3 1230.7 C 791.8 1461.6, 785.1 1400.5, 785.1 1702.0 Z" fill="#86A8FF" opacity="0.25" filter="url(#blur_coach_12_9255)"/>
  <path d="M 1206.7 1181.0 C 1206.7 1534.2, 1248.7 1381.1, 1140.0 1666.8 C 1031.3 1952.6, 1156.6 1888.7, 980.7 1997.9 C 804.8 2107.0, 885.6 2138.3, 709.7 2029.1 C 533.8 1920.0, 582.6 1931.3, 473.9 1645.5 C 365.2 1359.7, 442.6 1534.2, 442.6 1181.0 C 442.6 827.8, 418.8 983.7, 527.5 697.9 C 636.2 412.1, 535.9 622.4, 711.8 513.2 C 887.7 404.1, 810.9 294.2, 986.8 403.4 C 1162.7 512.6, 1024.3 381.3, 1133.0 667.0 C 1241.7 952.8, 1206.7 827.8, 1206.7 1181.0 Z" fill="#B891FF" opacity="0.12" stroke="#B891FF" stroke-opacity="0.46" stroke-width="3" filter="url(#soft_coach_12_9255)"/>
  <path d="M 1206.7 1181.0 C 1206.7 1534.2, 1248.7 1381.1, 1140.0 1666.8 C 1031.3 1952.6, 1156.6 1888.7, 980.7 1997.9 C 804.8 2107.0, 885.6 2138.3, 709.7 2029.1 C 533.8 1920.0, 582.6 1931.3, 473.9 1645.5 C 365.2 1359.7, 442.6 1534.2, 442.6 1181.0 C 442.6 827.8, 418.8 983.7, 527.5 697.9 C 636.2 412.1, 535.9 622.4, 711.8 513.2 C 887.7 404.1, 810.9 294.2, 986.8 403.4 C 1162.7 512.6, 1024.3 381.3, 1133.0 667.0 C 1241.7 952.8, 1206.7 827.8, 1206.7 1181.0 Z" fill="none" stroke="#FFFFFF" stroke-opacity="0.22" stroke-width="1.2"/>
  <path d="M 475.0 2502.0 C 475.0 2880.4, 447.8 2733.4, 352.3 3039.6 C 256.8 3345.8, 324.3 3119.6, 169.8 3236.6 C 15.3 3353.5, 99.8 3518.1, -54.7 3401.2 C -209.2 3284.2, -99.3 3339.9, -194.8 3033.8 C -290.3 2727.6, -286.2 2880.4, -286.2 2502.0 C -286.2 2123.6, -331.9 2377.6, -236.4 2071.5 C -141.0 1765.3, -188.8 1846.2, -34.3 1729.2 C 120.2 1612.3, 40.5 1587.4, 195.0 1704.3 C 349.5 1821.2, 274.9 1651.9, 370.4 1958.1 C 465.9 2264.2, 475.0 2123.6, 475.0 2502.0 Z" fill="#B891FF" opacity="0.12" stroke="#B891FF" stroke-opacity="0.46" stroke-width="3" filter="url(#soft_coach_12_9255)"/>
  <path d="M 475.0 2502.0 C 475.0 2880.4, 447.8 2733.4, 352.3 3039.6 C 256.8 3345.8, 324.3 3119.6, 169.8 3236.6 C 15.3 3353.5, 99.8 3518.1, -54.7 3401.2 C -209.2 3284.2, -99.3 3339.9, -194.8 3033.8 C -290.3 2727.6, -286.2 2880.4, -286.2 2502.0 C -286.2 2123.6, -331.9 2377.6, -236.4 2071.5 C -141.0 1765.3, -188.8 1846.2, -34.3 1729.2 C 120.2 1612.3, 40.5 1587.4, 195.0 1704.3 C 349.5 1821.2, 274.9 1651.9, 370.4 1958.1 C 465.9 2264.2, 475.0 2123.6, 475.0 2502.0 Z" fill="none" stroke="#FFFFFF" stroke-opacity="0.22" stroke-width="1.2"/>
  <path d="M 1515.7 1383.0 C 1515.7 1788.0, 1583.0 1528.9, 1513.4 1856.6 C 1443.8 2184.2, 1475.4 2012.8, 1362.8 2137.9 C 1250.3 2263.1, 1316.3 2274.1, 1203.8 2148.9 C 1091.2 2023.8, 1151.1 2232.1, 1081.5 1904.4 C 1011.9 1576.8, 1020.9 1788.0, 1020.9 1383.0 C 1020.9 978.0, 972.5 1245.4, 1042.1 917.7 C 1111.7 590.1, 1084.8 663.9, 1197.4 538.7 C 1310.0 413.6, 1236.5 510.4, 1349.1 635.5 C 1461.6 760.7, 1431.1 515.3, 1500.7 842.9 C 1570.2 1170.6, 1515.7 978.0, 1515.7 1383.0 Z" fill="#CFF3FF" opacity="0.12" stroke="#CFF3FF" stroke-opacity="0.46" stroke-width="3" filter="url(#soft_coach_12_9255)"/>
  <path d="M 1515.7 1383.0 C 1515.7 1788.0, 1583.0 1528.9, 1513.4 1856.6 C 1443.8 2184.2, 1475.4 2012.8, 1362.8 2137.9 C 1250.3 2263.1, 1316.3 2274.1, 1203.8 2148.9 C 1091.2 2023.8, 1151.1 2232.1, 1081.5 1904.4 C 1011.9 1576.8, 1020.9 1788.0, 1020.9 1383.0 C 1020.9 978.0, 972.5 1245.4, 1042.1 917.7 C 1111.7 590.1, 1084.8 663.9, 1197.4 538.7 C 1310.0 413.6, 1236.5 510.4, 1349.1 635.5 C 1461.6 760.7, 1431.1 515.3, 1500.7 842.9 C 1570.2 1170.6, 1515.7 978.0, 1515.7 1383.0 Z" fill="none" stroke="#FFFFFF" stroke-opacity="0.22" stroke-width="1.2"/>
  <path d="M 775.8 2522.0 C 775.8 2689.4, 751.6 2591.9, 647.4 2727.3 C 543.2 2862.7, 629.9 2803.7, 461.3 2855.5 C 292.7 2907.2, 372.2 2910.4, 203.6 2858.6 C 35.0 2806.9, 136.7 2855.1, 32.5 2719.7 C -71.7 2584.2, -67.7 2689.4, -67.7 2522.0 C -67.7 2354.6, -48.0 2446.5, 56.2 2311.1 C 160.4 2175.7, 65.5 2246.4, 234.2 2194.7 C 402.8 2143.0, 282.9 2068.2, 451.5 2120.0 C 620.1 2171.7, 526.8 2146.8, 631.0 2282.2 C 735.2 2417.6, 775.8 2354.6, 775.8 2522.0 Z" fill="#E3E0FF" opacity="0.12" stroke="#FFFFFF" stroke-opacity="0.46" stroke-width="3" filter="url(#soft_coach_12_9255)"/>
  <path d="M 775.8 2522.0 C 775.8 2689.4, 751.6 2591.9, 647.4 2727.3 C 543.2 2862.7, 629.9 2803.7, 461.3 2855.5 C 292.7 2907.2, 372.2 2910.4, 203.6 2858.6 C 35.0 2806.9, 136.7 2855.1, 32.5 2719.7 C -71.7 2584.2, -67.7 2689.4, -67.7 2522.0 C -67.7 2354.6, -48.0 2446.5, 56.2 2311.1 C 160.4 2175.7, 65.5 2246.4, 234.2 2194.7 C 402.8 2143.0, 282.9 2068.2, 451.5 2120.0 C 620.1 2171.7, 526.8 2146.8, 631.0 2282.2 C 735.2 2417.6, 775.8 2354.6, 775.8 2522.0 Z" fill="none" stroke="#FFFFFF" stroke-opacity="0.22" stroke-width="1.2"/>
  <path d="M 1796.2 2114.0 C 1796.2 2294.4, 1842.3 2187.6, 1671.7 2333.6 C 1501.1 2479.6, 1568.3 2402.5, 1292.3 2458.2 C 1016.2 2514.0, 1159.5 2568.3, 883.4 2512.6 C 607.4 2456.8, 701.9 2484.4, 531.2 2338.5 C 360.6 2192.5, 422.8 2294.4, 422.8 2114.0 C 422.8 1933.5, 358.3 2032.2, 528.9 1886.2 C 699.5 1740.2, 624.1 1780.9, 900.1 1725.1 C 1176.2 1669.4, 1028.2 1710.0, 1304.2 1765.8 C 1580.3 1821.6, 1365.9 1739.7, 1536.5 1885.7 C 1707.1 2031.7, 1796.2 1933.5, 1796.2 2114.0 Z" fill="#CCF7ED" opacity="0.12" stroke="#FFFFFF" stroke-opacity="0.46" stroke-width="3" filter="url(#soft_coach_12_9255)"/>
  <path d="M 1796.2 2114.0 C 1796.2 2294.4, 1842.3 2187.6, 1671.7 2333.6 C 1501.1 2479.6, 1568.3 2402.5, 1292.3 2458.2 C 1016.2 2514.0, 1159.5 2568.3, 883.4 2512.6 C 607.4 2456.8, 701.9 2484.4, 531.2 2338.5 C 360.6 2192.5, 422.8 2294.4, 422.8 2114.0 C 422.8 1933.5, 358.3 2032.2, 528.9 1886.2 C 699.5 1740.2, 624.1 1780.9, 900.1 1725.1 C 1176.2 1669.4, 1028.2 1710.0, 1304.2 1765.8 C 1580.3 1821.6, 1365.9 1739.7, 1536.5 1885.7 C 1707.1 2031.7, 1796.2 1933.5, 1796.2 2114.0 Z" fill="none" stroke="#FFFFFF" stroke-opacity="0.22" stroke-width="1.2"/>
  <path d="M 1835.3 519.0 C 1835.3 867.8, 1894.0 646.6, 1749.3 928.8 C 1604.6 1210.9, 1714.7 1239.8, 1480.6 1347.5 C 1246.5 1455.3, 1413.6 1306.9, 1179.5 1199.2 C 945.4 1091.4, 1073.2 1295.9, 928.5 1013.8 C 783.9 731.6, 821.5 867.8, 821.5 519.0 C 821.5 170.3, 742.0 350.9, 886.7 68.8 C 1031.4 -213.4, 926.1 -62.8, 1160.2 -170.5 C 1394.3 -278.3, 1267.4 -230.3, 1501.5 -122.5 C 1735.6 -14.8, 1577.5 -237.8, 1722.1 44.4 C 1866.8 326.5, 1835.3 170.2, 1835.3 519.0 Z" fill="#86A8FF" opacity="0.12" stroke="#FFFFFF" stroke-opacity="0.46" stroke-width="3" filter="url(#soft_coach_12_9255)"/>
  <path d="M 1835.3 519.0 C 1835.3 867.8, 1894.0 646.6, 1749.3 928.8 C 1604.6 1210.9, 1714.7 1239.8, 1480.6 1347.5 C 1246.5 1455.3, 1413.6 1306.9, 1179.5 1199.2 C 945.4 1091.4, 1073.2 1295.9, 928.5 1013.8 C 783.9 731.6, 821.5 867.8, 821.5 519.0 C 821.5 170.3, 742.0 350.9, 886.7 68.8 C 1031.4 -213.4, 926.1 -62.8, 1160.2 -170.5 C 1394.3 -278.3, 1267.4 -230.3, 1501.5 -122.5 C 1735.6 -14.8, 1577.5 -237.8, 1722.1 44.4 C 1866.8 326.5, 1835.3 170.2, 1835.3 519.0 Z" fill="none" stroke="#FFFFFF" stroke-opacity="0.22" stroke-width="1.2"/>
  <path d="M 353.3 2644.0 C 353.3 2989.6, 304.0 2788.5, 160.1 3068.1 C 16.2 3347.7, 173.4 3338.2, -59.4 3445.0 C -292.2 3551.8, -170.9 3497.9, -403.8 3391.1 C -636.6 3284.3, -502.1 3418.3, -646.0 3138.7 C -789.9 2859.1, -789.8 2989.6, -789.8 2644.0 C -789.8 2298.4, -824.6 2498.2, -680.7 2218.6 C -536.8 1939.0, -648.0 2025.1, -415.2 1918.3 C -182.4 1811.5, -310.3 1819.5, -77.5 1926.3 C 155.3 2033.1, 18.3 1936.4, 162.2 2216.0 C 306.1 2495.6, 353.3 2298.4, 353.3 2644.0 Z" fill="#CFF3FF" opacity="0.12" stroke="#CFF3FF" stroke-opacity="0.46" stroke-width="3" filter="url(#soft_coach_12_9255)"/>
  <path d="M 353.3 2644.0 C 353.3 2989.6, 304.0 2788.5, 160.1 3068.1 C 16.2 3347.7, 173.4 3338.2, -59.4 3445.0 C -292.2 3551.8, -170.9 3497.9, -403.8 3391.1 C -636.6 3284.3, -502.1 3418.3, -646.0 3138.7 C -789.9 2859.1, -789.8 2989.6, -789.8 2644.0 C -789.8 2298.4, -824.6 2498.2, -680.7 2218.6 C -536.8 1939.0, -648.0 2025.1, -415.2 1918.3 C -182.4 1811.5, -310.3 1819.5, -77.5 1926.3 C 155.3 2033.1, 18.3 1936.4, 162.2 2216.0 C 306.1 2495.6, 353.3 2298.4, 353.3 2644.0 Z" fill="none" stroke="#FFFFFF" stroke-opacity="0.22" stroke-width="1.2"/>
  <path d="M -100.0 388.2 Q 133.3 648.7, 366.7 802.0 Q 600.0 756.8, 833.3 522.3 Q 1066.7 490.9, 1300.0 807.6" fill="none" stroke="#FFFFFF" stroke-opacity="0.38" stroke-width="4" filter="url(#soft_coach_12_9255)"/>
  <path d="M -100.0 388.2 Q 133.3 648.7, 366.7 802.0 Q 600.0 756.8, 833.3 522.3 Q 1066.7 490.9, 1300.0 807.6" fill="none" stroke="#4ECAD1" stroke-opacity="0.18" stroke-width="2"/>
  <path d="M -100.0 508.3 Q 133.3 660.5, 366.7 1025.7 Q 600.0 1051.7, 833.3 872.4 Q 1066.7 589.7, 1300.0 556.4" fill="none" stroke="#FFFFFF" stroke-opacity="0.38" stroke-width="4" filter="url(#soft_coach_12_9255)"/>
  <path d="M -100.0 508.3 Q 133.3 660.5, 366.7 1025.7 Q 600.0 1051.7, 833.3 872.4 Q 1066.7 589.7, 1300.0 556.4" fill="none" stroke="#B891FF" stroke-opacity="0.18" stroke-width="2"/>
  <path d="M -100.0 1591.7 Q 133.3 1316.0, 366.7 1158.1 Q 600.0 1465.3, 833.3 1634.3 Q 1066.7 1447.3, 1300.0 1142.1" fill="none" stroke="#FFFFFF" stroke-opacity="0.38" stroke-width="4" filter="url(#soft_coach_12_9255)"/>
  <path d="M -100.0 1591.7 Q 133.3 1316.0, 366.7 1158.1 Q 600.0 1465.3, 833.3 1634.3 Q 1066.7 1447.3, 1300.0 1142.1" fill="none" stroke="#B891FF" stroke-opacity="0.18" stroke-width="2"/>
  <path d="M -100.0 2571.2 Q 133.3 2052.3, 366.7 2321.6 Q 600.0 2660.4, 833.3 2440.1 Q 1066.7 2146.6, 1300.0 2332.5" fill="none" stroke="#FFFFFF" stroke-opacity="0.38" stroke-width="4" filter="url(#soft_coach_12_9255)"/>
  <path d="M -100.0 2571.2 Q 133.3 2052.3, 366.7 2321.6 Q 600.0 2660.4, 833.3 2440.1 Q 1066.7 2146.6, 1300.0 2332.5" fill="none" stroke="#86A8FF" stroke-opacity="0.18" stroke-width="2"/>
  <circle cx="43" cy="2509" r="145" fill="url(#orb_coach_12_9255)" opacity="0.36"/>
  <circle cx="43" cy="2509" r="145" fill="#B891FF" opacity="0.08"/>
  <circle cx="43" cy="2509" r="145" fill="none" stroke="#FFFFFF" stroke-opacity="0.56" stroke-width="3"/>
  <ellipse cx="2.4" cy="2456.8" rx="26.1" ry="11.6" fill="#FFFFFF" opacity="0.42" transform="rotate(-22 2.4 2456.8)"/>
  <circle cx="1201" cy="1308" r="84" fill="url(#orb_coach_12_9255)" opacity="0.36"/>
  <circle cx="1201" cy="1308" r="84" fill="#E3E0FF" opacity="0.08"/>
  <circle cx="1201" cy="1308" r="84" fill="none" stroke="#FFFFFF" stroke-opacity="0.56" stroke-width="3"/>
  <ellipse cx="1177.5" cy="1277.8" rx="15.1" ry="6.7" fill="#FFFFFF" opacity="0.42" transform="rotate(-22 1177.5 1277.8)"/>
  <circle cx="294" cy="1036" r="226" fill="url(#orb_coach_12_9255)" opacity="0.36"/>
  <circle cx="294" cy="1036" r="226" fill="#B4E6F8" opacity="0.08"/>
  <circle cx="294" cy="1036" r="226" fill="none" stroke="#FFFFFF" stroke-opacity="0.56" stroke-width="3"/>
  <ellipse cx="230.7" cy="954.6" rx="40.7" ry="18.1" fill="#FFFFFF" opacity="0.42" transform="rotate(-22 230.7 954.6)"/>
  <circle cx="255" cy="2109" r="165" fill="url(#orb_coach_12_9255)" opacity="0.20"/>
  <circle cx="255" cy="2109" r="165" fill="#B4E6F8" opacity="0.08"/>
  <circle cx="255" cy="2109" r="165" fill="none" stroke="#FFFFFF" stroke-opacity="0.56" stroke-width="3"/>
  <ellipse cx="208.8" cy="2049.6" rx="29.7" ry="13.2" fill="#FFFFFF" opacity="0.42" transform="rotate(-22 208.8 2049.6)"/>
  <circle cx="931" cy="71" r="112" fill="url(#orb_coach_12_9255)" opacity="0.18"/>
  <circle cx="931" cy="71" r="112" fill="#CCF7ED" opacity="0.08"/>
  <circle cx="931" cy="71" r="112" fill="none" stroke="#FFFFFF" stroke-opacity="0.56" stroke-width="3"/>
  <ellipse cx="899.6" cy="30.7" rx="20.2" ry="9.0" fill="#FFFFFF" opacity="0.42" transform="rotate(-22 899.6 30.7)"/>
  <circle cx="235" cy="172" r="83" fill="url(#orb_coach_12_9255)" opacity="0.26"/>
  <circle cx="235" cy="172" r="83" fill="#CCF7ED" opacity="0.08"/>
  <circle cx="235" cy="172" r="83" fill="none" stroke="#FFFFFF" stroke-opacity="0.56" stroke-width="3"/>
  <ellipse cx="211.8" cy="142.1" rx="14.9" ry="6.6" fill="#FFFFFF" opacity="0.42" transform="rotate(-22 211.8 142.1)"/>
  <circle cx="472" cy="757" r="225" fill="url(#orb_coach_12_9255)" opacity="0.17"/>
  <circle cx="472" cy="757" r="225" fill="#B4E6F8" opacity="0.08"/>
  <circle cx="472" cy="757" r="225" fill="none" stroke="#FFFFFF" stroke-opacity="0.56" stroke-width="3"/>
  <ellipse cx="409.0" cy="676.0" rx="40.5" ry="18.0" fill="#FFFFFF" opacity="0.42" transform="rotate(-22 409.0 676.0)"/>
  <circle cx="406" cy="99" r="85" fill="url(#orb_coach_12_9255)" opacity="0.17"/>
  <circle cx="406" cy="99" r="85" fill="#4ECAD1" opacity="0.08"/>
  <circle cx="406" cy="99" r="85" fill="none" stroke="#FFFFFF" stroke-opacity="0.56" stroke-width="3"/>
  <ellipse cx="382.2" cy="68.4" rx="15.3" ry="6.8" fill="#FFFFFF" opacity="0.42" transform="rotate(-22 382.2 68.4)"/>
  <circle cx="1238" cy="2381" r="234" fill="url(#orb_coach_12_9255)" opacity="0.24"/>
  <circle cx="1238" cy="2381" r="234" fill="#B4E6F8" opacity="0.08"/>
  <circle cx="1238" cy="2381" r="234" fill="none" stroke="#FFFFFF" stroke-opacity="0.56" stroke-width="3"/>
  <ellipse cx="1172.5" cy="2296.8" rx="42.1" ry="18.7" fill="#FFFFFF" opacity="0.42" transform="rotate(-22 1172.5 2296.8)"/>
  <circle cx="658" cy="2068" r="4" fill="#FFFFFF" opacity="0.45"/>
  <circle cx="234" cy="1789" r="7" fill="#FFFFFF" opacity="0.51"/>
  <circle cx="1072" cy="1598" r="7" fill="#FFFFFF" opacity="0.68"/>
  <circle cx="1198" cy="2426" r="7" fill="#FFFFFF" opacity="0.37"/>
  <circle cx="887" cy="2051" r="5" fill="#FFFFFF" opacity="0.33"/>
  <circle cx="294" cy="2488" r="5" fill="#FFFFFF" opacity="0.47"/>
  <circle cx="362" cy="79" r="3" fill="#FFFFFF" opacity="0.55"/>
  <circle cx="1071" cy="1356" r="2" fill="#FFFFFF" opacity="0.35"/>
  <circle cx="289" cy="2461" r="5" fill="#FFFFFF" opacity="0.30"/>
  <circle cx="54" cy="185" r="7" fill="#FFFFFF" opacity="0.47"/>
  <circle cx="608" cy="1957" r="3" fill="#FFFFFF" opacity="0.47"/>
  <circle cx="247" cy="2424" r="3" fill="#FFFFFF" opacity="0.54"/>
  <circle cx="906" cy="1474" r="4" fill="#FFFFFF" opacity="0.47"/>
  <circle cx="1198" cy="652" r="2" fill="#FFFFFF" opacity="0.43"/>
  <rect width="1200" height="2600" fill="#FFFFFF" opacity="0.08"/>
  <rect width="1200" height="2600" filter="url(#grain_coach_12_9255)" opacity="0.7"/>
</svg>
