<svg xmlns="http://www.w3.org/2000/svg" width="1200" height="2600" viewBox="0 0 1200 2600" preserveAspectRatio="xMidYMid slice">
  <defs>
    <linearGradient id="bg_coach_06_9538" x1="0" y1="0" x2="1" y2="1">
      <stop offset="0%" stop-color="#E3E0FF"/>
      <stop offset="48%" stop-color="#CFF3FF"/>
      <stop offset="100%" stop-color="#B4E6F8"/>
    </linearGradient>
    <radialGradient id="orb_coach_06_9538" cx="35%" cy="30%" r="70%">
      <stop offset="0%" stop-color="#FFFFFF" stop-opacity="0.85"/>
      <stop offset="42%" stop-color="#FFFFFF" stop-opacity="0.20"/>
      <stop offset="100%" stop-color="#FFFFFF" stop-opacity="0.02"/>
    </radialGradient>
    <filter id="blur_coach_06_9538" x="-30%" y="-30%" width="160%" height="160%">
      <feGaussianBlur stdDeviation="72"/>
    </filter>
    <filter id="soft_coach_06_9538" x="-20%" y="-20%" width="140%" height="140%">
      <feGaussianBlur stdDeviation="10"/>
    </filter>
    <filter id="grain_coach_06_9538">
      <feTurbulence type="fractalNoise" baseFrequency="0.85" numOctaves="2" stitchTiles="stitch"/>
      <feColorMatrix type="saturate" values="0"/>
      <feComponentTransfer>
        <feFuncA type="table" tableValues="0 0.035"/>
      </feComponentTransfer>
    </filter>
  </defs>
  <rect width="1200" height="2600" fill="url(#bg_coach_06_9538)"/>
  <path d="M 1570.7 1034.0 C 1570.7 1160.0, 1496.4 1086.7, 1399.5 1183.2 C 1302.6 1279.7, 1385.9 1238.3, 1237.5 1260.2 C 1089.0 1282.1, 1123.8 1345.9, 993.2 1282.9 C 862.6 1219.9, 943.4 1231.7, 891.9 1113.3 C 840.3 994.9, 785.1 1047.2, 836.7 928.8 C 888.3 810.4, 901.1 844.3, 1031.7 781.3 C 1162.2 718.3, 1084.9 716.9, 1233.4 738.7 C 1381.8 760.6, 1348.2 734.9, 1445.1 831.4 C 1542.0 928.0, 1570.7 908.0, 1570.7 1034.0 Z" fill="#CCF7ED" opacity="0.30" filter="url(#blur_coach_06_9538)"/>
  <path d="M 1485.9 1360.0 C 1485.9 1506.7, 1493.9 1426.1, 1425.1 1538.5 C 1356.2 1650.9, 1417.8 1610.0, 1312.3 1635.5 C 1206.8 1661.0, 1235.7 1685.7, 1142.9 1612.3 C 1050.1 1539.0, 1044.9 1606.3, 1008.3 1468.4 C 971.6 1330.6, 1011.8 1370.0, 1048.4 1232.2 C 1085.0 1094.3, 1038.9 1188.2, 1131.6 1114.8 C 1224.4 1041.5, 1198.6 1018.3, 1304.0 1043.8 C 1409.5 1069.2, 1374.0 1065.5, 1442.8 1177.9 C 1511.7 1290.2, 1485.9 1213.3, 1485.9 1360.0 Z" fill="#CCF7ED" opacity="0.24" filter="url(#blur_coach_06_9538)"/>
  <path d="M 1134.2 1789.0 C 1134.2 1949.2, 1123.7 1863.5, 1054.6 1986.3 C 985.5 2109.0, 1037.8 2051.6, 931.9 2079.4 C 826.0 2107.2, 867.7 2125.9, 774.5 2045.8 C 681.4 1965.7, 688.2 2045.3, 651.4 1894.8 C 614.6 1744.2, 626.8 1835.3, 663.5 1684.8 C 700.3 1534.2, 693.7 1508.9, 786.9 1428.8 C 880.0 1348.7, 819.5 1418.8, 925.4 1446.6 C 1031.3 1474.4, 1020.8 1477.1, 1089.9 1599.8 C 1159.0 1722.5, 1134.2 1628.8, 1134.2 1789.0 Z" fill="#CCF7ED" opacity="0.37" filter="url(#blur_coach_06_9538)"/>
  <path d="M 1279.9 2856.0 C 1279.9 3126.0, 1273.6 3056.8, 1194.1 3263.6 C 1114.5 3470.5, 1181.9 3305.5, 1060.0 3352.4 C 938.2 3399.3, 960.9 3469.7, 853.7 3334.7 C 746.6 3199.7, 790.9 3284.9, 748.6 3031.2 C 706.3 2777.4, 735.8 2909.2, 778.2 2655.5 C 820.5 2401.7, 746.0 2418.2, 853.1 2283.2 C 960.3 2148.2, 941.1 2302.5, 1063.0 2349.4 C 1184.9 2396.3, 1133.3 2256.9, 1212.9 2463.7 C 1292.4 2670.6, 1279.9 2586.0, 1279.9 2856.0 Z" fill="#86A8FF" opacity="0.34" filter="url(#blur_coach_06_9538)"/>
  <path d="M 1092.5 2264.0 C 1092.5 2535.8, 1149.8 2447.9, 988.4 2656.1 C 827.0 2864.3, 826.0 2738.6, 578.7 2785.8 C 331.4 2833.0, 407.3 2835.9, 189.8 2700.0 C -27.6 2564.1, 132.3 2731.9, 46.4 2476.5 C -39.5 2221.0, -97.9 2308.8, -12.0 2053.4 C 73.9 1798.0, 17.4 1857.4, 234.9 1721.5 C 452.4 1585.6, 340.9 1621.9, 588.2 1669.1 C 835.5 1716.3, 828.4 1718.8, 989.8 1927.0 C 1151.2 2135.3, 1092.5 1992.2, 1092.5 2264.0 Z" fill="#CFF3FF" opacity="0.19" filter="url(#blur_coach_06_9538)"/>
  <path d="M 355.9 318.0 C 355.9 567.8, 341.0 439.9, 240.4 631.2 C 139.7 822.5, 206.1 878.3, 51.9 921.6 C -102.3 965.0, -68.8 875.7, -204.4 750.8 C -340.0 625.9, -317.9 750.6, -371.4 515.9 C -425.0 281.3, -385.9 345.9, -332.3 111.3 C -278.7 -123.4, -322.4 -46.1, -186.7 -171.0 C -51.1 -295.9, -110.3 -210.9, 44.0 -167.5 C 198.2 -124.1, 171.4 -262.6, 272.0 -71.3 C 372.7 120.0, 355.9 68.2, 355.9 318.0 Z" fill="#B891FF" opacity="0.29" filter="url(#blur_coach_06_9538)"/>
  <path d="M 1061.8 1277.0 C 1061.8 1444.4, 1076.9 1384.8, 1008.6 1513.1 C 940.4 1641.3, 974.0 1645.3, 869.4 1674.4 C 764.8 1703.5, 817.0 1732.7, 725.0 1649.0 C 633.0 1565.3, 603.7 1576.9, 567.4 1419.6 C 531.1 1262.2, 596.0 1317.0, 632.3 1159.7 C 668.6 1002.4, 606.3 1012.9, 698.2 929.2 C 790.2 845.5, 755.6 941.4, 860.2 970.5 C 964.8 999.6, 959.5 890.4, 1027.8 1018.7 C 1096.0 1146.9, 1061.8 1109.6, 1061.8 1277.0 Z" fill="#CFF3FF" opacity="0.37" filter="url(#blur_coach_06_9538)"/>
  <path d="M 1612.4 2254.0 C 1612.4 2559.1, 1576.6 2383.6, 1451.6 2617.4 C 1326.7 2851.1, 1382.4 2803.6, 1191.0 2856.6 C 999.5 2909.5, 1027.8 2953.5, 859.4 2800.9 C 691.1 2648.4, 837.1 2796.2, 770.6 2509.5 C 704.1 2222.8, 569.4 2310.5, 635.9 2023.8 C 702.4 1737.1, 701.0 1922.6, 869.3 1770.1 C 1037.7 1617.5, 975.7 1471.6, 1167.1 1524.5 C 1358.6 1577.5, 1368.3 1535.2, 1493.2 1769.0 C 1618.2 2002.7, 1612.4 1948.9, 1612.4 2254.0 Z" fill="#E3E0FF" opacity="0.30" filter="url(#blur_coach_06_9538)"/>
  <path d="M 683.1 2361.0 C 683.1 2619.8, 862.4 2497.0, 700.7 2695.2 C 539.0 2893.5, 551.9 2822.2, 304.1 2867.1 C 56.4 2912.0, 165.5 3020.3, -52.3 2890.9 C -270.2 2761.5, -143.5 2815.9, -229.5 2572.8 C -315.6 2329.7, -378.1 2390.7, -292.1 2147.6 C -206.1 1904.4, -261.7 1949.4, -43.9 1820.0 C 174.0 1690.7, 53.2 1765.5, 300.9 1810.4 C 548.6 1855.4, 558.1 1755.7, 719.8 1953.9 C 881.4 2152.1, 683.1 2102.2, 683.1 2361.0 Z" fill="#E3E0FF" opacity="0.26" filter="url(#blur_coach_06_9538)"/>
  <path d="M 715.0 1836.0 C 715.0 2018.7, 757.5 1910.7, 618.1 2050.6 C 478.7 2190.6, 551.4 2259.1, 337.8 2290.8 C 124.2 2322.5, 199.1 2278.9, 11.3 2187.6 C -176.5 2096.2, -41.5 2124.5, -115.7 1952.8 C -189.9 1781.1, -296.8 1874.1, -222.6 1702.4 C -148.4 1530.8, -134.3 1587.2, 53.5 1495.8 C 241.3 1404.5, 144.4 1356.2, 358.0 1388.0 C 571.6 1419.7, 499.5 1406.2, 638.9 1546.1 C 778.3 1686.1, 715.0 1653.3, 715.0 1836.0 Z" fill="#86A8FF" opacity="0.26" filter="url(#blur_coach_06_9538)"/>
  <path d="M 1702.1 -39.0 C 1702.1 252.6, 1764.7 62.8, 1607.3 298.7 C 1449.9 534.6, 1567.1 549.5, 1312.5 639.6 C 1057.8 729.7, 1197.4 626.4, 942.8 536.3 C 688.2 446.2, 832.8 610.6, 675.5 374.7 C 518.1 138.8, 499.2 252.6, 499.2 -39.0 C 499.2 -330.6, 494.8 -203.1, 652.2 -439.0 C 809.6 -674.9, 719.1 -640.9, 973.8 -731.0 C 1228.4 -821.1, 1068.7 -754.7, 1323.3 -664.5 C 1578.0 -574.4, 1453.0 -689.6, 1610.4 -453.7 C 1767.8 -217.8, 1702.1 -330.6, 1702.1 -39.0 Z" fill="#CCF7ED" opacity="0.12" stroke="#CCF7ED" stroke-opacity="0.46" stroke-width="3" filter="url(#soft_coach_06_9538)"/>
  <path d="M 1702.1 -39.0 C 1702.1 252.6, 1764.7 62.8, 1607.3 298.7 C 1449.9 534.6, 1567.1 549.5, 1312.5 639.6 C 1057.8 729.7, 1197.4 626.4, 942.8 536.3 C 688.2 446.2, 832.8 610.6, 675.5 374.7 C 518.1 138.8, 499.2 252.6, 499.2 -39.0 C 499.2 -330.6, 494.8 -203.1, 652.2 -439.0 C 809.6 -674.9, 719.1 -640.9, 973.8 -731.0 C 1228.4 -821.1, 1068.7 -754.7, 1323.3 -664.5 C 1578.0 -574.4, 1453.0 -689.6, 1610.4 -453.7 C 1767.8 -217.8, 1702.1 -330.6, 1702.1 -39.0 Z" fill="none" stroke="#FFFFFF" stroke-opacity="0.22" stroke-width="1.2"/>
  <path d="M 1227.9 2639.0 C 1227.9 2907.2, 1216.1 2763.4, 1107.7 2980.3 C 999.2 3197.3, 1093.7 3157.2, 918.2 3240.1 C 742.8 3322.9, 848.7 3361.7, 673.2 3278.9 C 497.7 3196.0, 574.7 3249.3, 466.3 3032.3 C 357.9 2815.3, 449.3 2907.2, 449.3 2639.0 C 449.3 2370.8, 356.6 2489.2, 465.0 2272.2 C 573.5 2055.2, 503.7 2214.4, 679.2 2131.5 C 854.6 2048.6, 742.1 1944.7, 917.5 2027.5 C 1093.0 2110.4, 1072.3 2109.9, 1180.7 2326.9 C 1289.2 2543.9, 1227.9 2370.8, 1227.9 2639.0 Z" fill="#E3E0FF" opacity="0.12" stroke="#E3E0FF" stroke-opacity="0.46" stroke-width="3" filter="url(#soft_coach_06_9538)"/>
  <path d="M 1227.9 2639.0 C 1227.9 2907.2, 1216.1 2763.4, 1107.7 2980.3 C 999.2 3197.3, 1093.7 3157.2, 918.2 3240.1 C 742.8 3322.9, 848.7 3361.7, 673.2 3278.9 C 497.7 3196.0, 574.7 3249.3, 466.3 3032.3 C 357.9 2815.3, 449.3 2907.2, 449.3 2639.0 C 449.3 2370.8, 356.6 2489.2, 465.0 2272.2 C 573.5 2055.2, 503.7 2214.4, 679.2 2131.5 C 854.6 2048.6, 742.1 1944.7, 917.5 2027.5 C 1093.0 2110.4, 1072.3 2109.9, 1180.7 2326.9 C 1289.2 2543.9, 1227.9 2370.8, 1227.9 2639.0 Z" fill="none" stroke="#FFFFFF" stroke-opacity="0.22" stroke-width="1.2"/>
  <path d="M 1720.3 577.0 C 1720.3 781.8, 1787.5 675.2, 1621.1 840.9 C 1454.7 1006.5, 1625.6 899.7, 1356.4 962.9 C 1087.2 1026.2, 1226.4 1083.4, 957.2 1020.1 C 688.0 956.8, 763.2 1035.0, 596.8 869.4 C 430.5 703.7, 581.3 781.8, 581.3 577.0 C 581.3 372.3, 545.5 510.3, 711.8 344.6 C 878.2 179.0, 729.6 175.1, 998.8 111.8 C 1268.0 48.5, 1081.9 140.3, 1351.1 203.6 C 1620.3 266.9, 1576.3 177.8, 1742.6 343.5 C 1909.0 509.1, 1720.3 372.2, 1720.3 577.0 Z" fill="#E3E0FF" opacity="0.12" stroke="#E3E0FF" stroke-opacity="0.46" stroke-width="3" filter="url(#soft_coach_06_9538)"/>
  <path d="M 1720.3 577.0 C 1720.3 781.8, 1787.5 675.2, 1621.1 840.9 C 1454.7 1006.5, 1625.6 899.7, 1356.4 962.9 C 1087.2 1026.2, 1226.4 1083.4, 957.2 1020.1 C 688.0 956.8, 763.2 1035.0, 596.8 869.4 C 430.5 703.7, 581.3 781.8, 581.3 577.0 C 581.3 372.3, 545.5 510.3, 711.8 344.6 C 878.2 179.0, 729.6 175.1, 998.8 111.8 C 1268.0 48.5, 1081.9 140.3, 1351.1 203.6 C 1620.3 266.9, 1576.3 177.8, 1742.6 343.5 C 1909.0 509.1, 1720.3 372.2, 1720.3 577.0 Z" fill="none" stroke="#FFFFFF" stroke-opacity="0.22" stroke-width="1.2"/>
  <path d="M 1165.3 2070.0 C 1165.3 2429.1, 1196.5 2266.9, 1060.8 2557.4 C 925.1 2847.9, 972.5 2766.5, 753.0 2877.5 C 533.4 2988.4, 638.7 2902.8, 419.2 2791.8 C 199.6 2680.8, 315.0 2820.0, 179.3 2529.4 C 43.6 2238.9, 50.3 2429.1, 50.3 2070.0 C 50.3 1710.9, -9.4 1847.9, 126.3 1557.4 C 262.0 1266.9, 215.2 1383.2, 434.7 1272.2 C 654.3 1161.2, 522.6 1261.9, 742.1 1372.8 C 961.7 1483.8, 845.7 1362.8, 981.4 1653.3 C 1117.1 1943.8, 1165.3 1710.9, 1165.3 2070.0 Z" fill="#E3E0FF" opacity="0.12" stroke="#FFFFFF" stroke-opacity="0.46" stroke-width="3" filter="url(#soft_coach_06_9538)"/>
  <path d="M 1165.3 2070.0 C 1165.3 2429.1, 1196.5 2266.9, 1060.8 2557.4 C 925.1 2847.9, 972.5 2766.5, 753.0 2877.5 C 533.4 2988.4, 638.7 2902.8, 419.2 2791.8 C 199.6 2680.8, 315.0 2820.0, 179.3 2529.4 C 43.6 2238.9, 50.3 2429.1, 50.3 2070.0 C 50.3 1710.9, -9.4 1847.9, 126.3 1557.4 C 262.0 1266.9, 215.2 1383.2, 434.7 1272.2 C 654.3 1161.2, 522.6 1261.9, 742.1 1372.8 C 961.7 1483.8, 845.7 1362.8, 981.4 1653.3 C 1117.1 1943.8, 1165.3 1710.9, 1165.3 2070.0 Z" fill="none" stroke="#FFFFFF" stroke-opacity="0.22" stroke-width="1.2"/>
  <path d="M 842.8 159.0 C 842.8 324.1, 920.2 269.8, 769.4 403.4 C 618.6 537.0, 737.0 459.0, 493.1 510.1 C 249.1 561.1, 367.0 521.6, 123.1 470.6 C -120.9 419.6, -38.8 514.4, -189.6 380.8 C -340.4 247.2, -222.1 324.2, -222.1 159.0 C -222.1 -6.1, -342.4 73.4, -191.6 -60.2 C -40.8 -193.8, -111.6 -183.4, 132.3 -234.4 C 376.3 -285.4, 257.2 -283.7, 501.1 -232.6 C 745.0 -181.6, 632.4 -181.9, 783.1 -48.3 C 933.9 85.3, 842.8 -6.2, 842.8 159.0 Z" fill="#CFF3FF" opacity="0.12" stroke="#CFF3FF" stroke-opacity="0.46" stroke-width="3" filter="url(#soft_coach_06_9538)"/>
  <path d="M 842.8 159.0 C 842.8 324.1, 920.2 269.8, 769.4 403.4 C 618.6 537.0, 737.0 459.0, 493.1 510.1 C 249.1 561.1, 367.0 521.6, 123.1 470.6 C -120.9 419.6, -38.8 514.4, -189.6 380.8 C -340.4 247.2, -222.1 324.2, -222.1 159.0 C -222.1 -6.1, -342.4 73.4, -191.6 -60.2 C -40.8 -193.8, -111.6 -183.4, 132.3 -234.4 C 376.3 -285.4, 257.2 -283.7, 501.1 -232.6 C 745.0 -181.6, 632.4 -181.9, 783.1 -48.3 C 933.9 85.3, 842.8 -6.2, 842.8 159.0 Z" fill="none" stroke="#FFFFFF" stroke-opacity="0.22" stroke-width="1.2"/>
  <path d="M 333.1 1099.0 C 333.1 1374.4, 344.1 1249.6, 207.9 1472.4 C 71.7 1695.2, 182.2 1647.4, -38.2 1732.5 C -258.6 1817.6, -124.5 1837.6, -344.9 1752.5 C -565.3 1667.4, -499.2 1633.4, -635.4 1410.6 C -771.7 1187.8, -656.8 1374.4, -656.8 1099.0 C -656.8 823.6, -701.7 912.7, -565.5 689.9 C -429.2 467.1, -566.3 638.2, -345.9 553.1 C -125.5 468.0, -239.1 442.5, -18.7 527.6 C 201.8 612.7, 101.4 494.4, 237.6 717.2 C 373.8 940.0, 333.1 823.6, 333.1 1099.0 Z" fill="#86A8FF" opacity="0.12" stroke="#86A8FF" stroke-opacity="0.46" stroke-width="3" filter="url(#soft_coach_06_9538)"/>
  <path d="M 333.1 1099.0 C 333.1 1374.4, 344.1 1249.6, 207.9 1472.4 C 71.7 1695.2, 182.2 1647.4, -38.2 1732.5 C -258.6 1817.6, -124.5 1837.6, -344.9 1752.5 C -565.3 1667.4, -499.2 1633.4, -635.4 1410.6 C -771.7 1187.8, -656.8 1374.4, -656.8 1099.0 C -656.8 823.6, -701.7 912.7, -565.5 689.9 C -429.2 467.1, -566.3 638.2, -345.9 553.1 C -125.5 468.0, -239.1 442.5, -18.7 527.6 C 201.8 612.7, 101.4 494.4, 237.6 717.2 C 373.8 940.0, 333.1 823.6, 333.1 1099.0 Z" fill="none" stroke="#FFFFFF" stroke-opacity="0.22" stroke-width="1.2"/>
  <path d="M -100.0 464.0 Q 133.3 309.3, 366.7 -81.2 Q 600.0 -30.4, 833.3 87.3 Q 1066.7 401.1, 1300.0 486.4" fill="none" stroke="#FFFFFF" stroke-opacity="0.38" stroke-width="4" filter="url(#soft_coach_06_9538)"/>
  <path d="M -100.0 464.0 Q 133.3 309.3, 366.7 -81.2 Q 600.0 -30.4, 833.3 87.3 Q 1066.7 401.1, 1300.0 486.4" fill="none" stroke="#86A8FF" stroke-opacity="0.18" stroke-width="2"/>
  <path d="M -100.0 467.9 Q 133.3 94.7, 366.7 111.3 Q 600.0 317.3, 833.3 442.8 Q 1066.7 85.5, 1300.0 201.9" fill="none" stroke="#FFFFFF" stroke-opacity="0.38" stroke-width="4" filter="url(#soft_coach_06_9538)"/>
  <path d="M -100.0 467.9 Q 133.3 94.7, 366.7 111.3 Q 600.0 317.3, 833.3 442.8 Q 1066.7 85.5, 1300.0 201.9" fill="none" stroke="#86A8FF" stroke-opacity="0.18" stroke-width="2"/>
  <path d="M -100.0 1750.2 Q 133.3 1933.5, 366.7 2010.4 Q 600.0 1890.3, 833.3 1638.0 Q 1066.7 1820.7, 1300.0 1942.3" fill="none" stroke="#FFFFFF" stroke-opacity="0.38" stroke-width="4" filter="url(#soft_coach_06_9538)"/>
  <path d="M -100.0 1750.2 Q 133.3 1933.5, 366.7 2010.4 Q 600.0 1890.3, 833.3 1638.0 Q 1066.7 1820.7, 1300.0 1942.3" fill="none" stroke="#B891FF" stroke-opacity="0.18" stroke-width="2"/>
  <path d="M -100.0 2377.8 Q 133.3 2459.4, 366.7 2669.2 Q 600.0 2515.0, 833.3 2336.0 Q 1066.7 2217.3, 1300.0 2097.7" fill="none" stroke="#FFFFFF" stroke-opacity="0.38" stroke-width="4" filter="url(#soft_coach_06_9538)"/>
  <path d="M -100.0 2377.8 Q 133.3 2459.4, 366.7 2669.2 Q 600.0 2515.0, 833.3 2336.0 Q 1066.7 2217.3, 1300.0 2097.7" fill="none" stroke="#86A8FF" stroke-opacity="0.18" stroke-width="2"/>
  <circle cx="46" cy="2512" r="136" fill="url(#orb_coach_06_9538)" opacity="0.36"/>
  <circle cx="46" cy="2512" r="136" fill="#86A8FF" opacity="0.08"/>
  <circle cx="46" cy="2512" r="136" fill="none" stroke="#FFFFFF" stroke-opacity="0.56" stroke-width="3"/>
  <ellipse cx="7.9" cy="2463.0" rx="24.5" ry="10.9" fill="#FFFFFF" opacity="0.42" transform="rotate(-22 7.9 2463.0)"/>
  <circle cx="372" cy="2708" r="142" fill="url(#orb_coach_06_9538)" opacity="0.36"/>
  <circle cx="372" cy="2708" r="142" fill="#E3E0FF" opacity="0.08"/>
  <circle cx="372" cy="2708" r="142" fill="none" stroke="#FFFFFF" stroke-opacity="0.56" stroke-width="3"/>
  <ellipse cx="332.2" cy="2656.9" rx="25.6" ry="11.4" fill="#FFFFFF" opacity="0.42" transform="rotate(-22 332.2 2656.9)"/>
  <circle cx="524" cy="-113" r="150" fill="url(#orb_coach_06_9538)" opacity="0.36"/>
  <circle cx="524" cy="-113" r="150" fill="#F7FEFF" opacity="0.08"/>
  <circle cx="524" cy="-113" r="150" fill="none" stroke="#FFFFFF" stroke-opacity="0.56" stroke-width="3"/>
  <ellipse cx="482.0" cy="-167.0" rx="27.0" ry="12.0" fill="#FFFFFF" opacity="0.42" transform="rotate(-22 482.0 -167.0)"/>
  <circle cx="170" cy="462" r="201" fill="url(#orb_coach_06_9538)" opacity="0.21"/>
  <circle cx="170" cy="462" r="201" fill="#86A8FF" opacity="0.08"/>
  <circle cx="170" cy="462" r="201" fill="none" stroke="#FFFFFF" stroke-opacity="0.56" stroke-width="3"/>
  <ellipse cx="113.7" cy="389.6" rx="36.2" ry="16.1" fill="#FFFFFF" opacity="0.42" transform="rotate(-22 113.7 389.6)"/>
  <circle cx="730" cy="1397" r="113" fill="url(#orb_coach_06_9538)" opacity="0.18"/>
  <circle cx="730" cy="1397" r="113" fill="#B891FF" opacity="0.08"/>
  <circle cx="730" cy="1397" r="113" fill="none" stroke="#FFFFFF" stroke-opacity="0.56" stroke-width="3"/>
  <ellipse cx="698.4" cy="1356.3" rx="20.3" ry="9.0" fill="#FFFFFF" opacity="0.42" transform="rotate(-22 698.4 1356.3)"/>
  <circle cx="926" cy="2550" r="236" fill="url(#orb_coach_06_9538)" opacity="0.23"/>
  <circle cx="926" cy="2550" r="236" fill="#86A8FF" opacity="0.08"/>
  <circle cx="926" cy="2550" r="236" fill="none" stroke="#FFFFFF" stroke-opacity="0.56" stroke-width="3"/>
  <ellipse cx="859.9" cy="2465.0" rx="42.5" ry="18.9" fill="#FFFFFF" opacity="0.42" transform="rotate(-22 859.9 2465.0)"/>
  <circle cx="314" cy="1649" r="84" fill="url(#orb_coach_06_9538)" opacity="0.28"/>
  <circle cx="314" cy="1649" r="84" fill="#B4E6F8" opacity="0.08"/>
  <circle cx="314" cy="1649" r="84" fill="none" stroke="#FFFFFF" stroke-opacity="0.56" stroke-width="3"/>
  <ellipse cx="290.5" cy="1618.8" rx="15.1" ry="6.7" fill="#FFFFFF" opacity="0.42" transform="rotate(-22 290.5 1618.8)"/>
  <circle cx="119" cy="2031" r="132" fill="url(#orb_coach_06_9538)" opacity="0.19"/>
  <circle cx="119" cy="2031" r="132" fill="#CFF3FF" opacity="0.08"/>
  <circle cx="119" cy="2031" r="132" fill="none" stroke="#FFFFFF" stroke-opacity="0.56" stroke-width="3"/>
  <ellipse cx="82.0" cy="1983.5" rx="23.8" ry="10.6" fill="#FFFFFF" opacity="0.42" transform="rotate(-22 82.0 1983.5)"/>
  <circle cx="1266" cy="1799" r="220" fill="url(#orb_coach_06_9538)" opacity="0.24"/>
  <circle cx="1266" cy="1799" r="220" fill="#E3E0FF" opacity="0.08"/>
  <circle cx="1266" cy="1799" r="220" fill="none" stroke="#FFFFFF" stroke-opacity="0.56" stroke-width="3"/>
  <ellipse cx="1204.4" cy="1719.8" rx="39.6" ry="17.6" fill="#FFFFFF" opacity="0.42" transform="rotate(-22 1204.4 1719.8)"/>
  <circle cx="929" cy="913" r="164" fill="url(#orb_coach_06_9538)" opacity="0.25"/>
  <circle cx="929" cy="913" r="164" fill="#B4E6F8" opacity="0.08"/>
  <circle cx="929" cy="913" r="164" fill="none" stroke="#FFFFFF" stroke-opacity="0.56" stroke-width="3"/>
  <ellipse cx="883.1" cy="854.0" rx="29.5" ry="13.1" fill="#FFFFFF" opacity="0.42" transform="rotate(-22 883.1 854.0)"/>
  <circle cx="524" cy="2148" r="188" fill="url(#orb_coach_06_9538)" opacity="0.25"/>
  <circle cx="524" cy="2148" r="188" fill="#E3E0FF" opacity="0.08"/>
  <circle cx="524" cy="2148" r="188" fill="none" stroke="#FFFFFF" stroke-opacity="0.56" stroke-width="3"/>
  <ellipse cx="471.4" cy="2080.3" rx="33.8" ry="15.0" fill="#FFFFFF" opacity="0.42" transform="rotate(-22 471.4 2080.3)"/>
  <circle cx="776" cy="2599" r="4" fill="#FFFFFF" opacity="0.61"/>
  <circle cx="595" cy="322" r="7" fill="#FFFFFF" opacity="0.57"/>
  <circle cx="547" cy="741" r="3" fill="#FFFFFF" opacity="0.37"/>
  <circle cx="1148" cy="422" r="2" fill="#FFFFFF" opacity="0.50"/>
  <circle cx="190" cy="1618" r="3" fill="#FFFFFF" opacity="0.62"/>
  <circle cx="677" cy="398" r="4" fill="#FFFFFF" opacity="0.63"/>
  <circle cx="561" cy="1154" r="2" fill="#FFFFFF" opacity="0.33"/>
  <circle cx="1006" cy="135" r="4" fill="#FFFFFF" opacity="0.49"/>
  <circle cx="706" cy="1773" r="4" fill="#FFFFFF" opacity="0.65"/>
  <circle cx="803" cy="50" r="5" fill="#FFFFFF" opacity="0.71"/>
  <circle cx="1016" cy="2251" r="4" fill="#FFFFFF" opacity="0.43"/>
  <circle cx="723" cy="1546" r="7" fill="#FFFFFF" opacity="0.39"/>
  <circle cx="784" cy="1398" r="5" fill="#FFFFFF" opacity="0.58"/>
  <circle cx="650" cy="667" r="4" fill="#FFFFFF" opacity="0.66"/>
  <circle cx="1075" cy="2532" r="5" fill="#FFFFFF" opacity="0.52"/>
  <rect width="1200" height="2600" fill="#FFFFFF" opacity="0.08"/>
  <rect width="1200" height="2600" filter="url(#grain_coach_06_9538)" opacity="0.7"/>
</svg>
