<svg xmlns="http://www.w3.org/2000/svg" width="1200" height="2600" viewBox="0 0 1200 2600" preserveAspectRatio="xMidYMid slice">
  <defs>
    <linearGradient id="bg_coach_07_4590" x1="0" y1="0" x2="1" y2="1">
      <stop offset="0%" stop-color="#E3E0FF"/>
      <stop offset="48%" stop-color="#F7FEFF"/>
      <stop offset="100%" stop-color="#CCF7ED"/>
    </linearGradient>
    <radialGradient id="orb_coach_07_4590" cx="35%" cy="30%" r="70%">
      <stop offset="0%" stop-color="#FFFFFF" stop-opacity="0.85"/>
      <stop offset="42%" stop-color="#FFFFFF" stop-opacity="0.20"/>
      <stop offset="100%" stop-color="#FFFFFF" stop-opacity="0.02"/>
    </radialGradient>
    <filter id="blur_coach_07_4590" x="-30%" y="-30%" width="160%" height="160%">
      <feGaussianBlur stdDeviation="72"/>
    </filter>
    <filter id="soft_coach_07_4590" x="-20%" y="-20%" width="140%" height="140%">
      <feGaussianBlur stdDeviation="10"/>
    </filter>
    <filter id="grain_coach_07_4590">
      <feTurbulence type="fractalNoise" baseFrequency="0.85" numOctaves="2" stitchTiles="stitch"/>
      <feColorMatrix type="saturate" values="0"/>
      <feComponentTransfer>
        <feFuncA type="table" tableValues="0 0.035"/>
      </feComponentTransfer>
    </filter>
  </defs>
  <rect width="1200" height="2600" fill="url(#bg_coach_07_4590)"/>
  <path d="M 1671.7 1758.0 C 1671.7 1888.0, 1684.5 1860.2, 1599.8 1959.8 C 1515.0 2059.5, 1558.8 2027.7, 1429.0 2050.3 C 1299.1 2072.9, 1336.5 2111.0, 1222.3 2046.0 C 1108.1 1981.0, 1138.1 1963.5, 1093.0 1841.3 C 1047.9 1719.1, 1067.7 1765.8, 1112.8 1643.6 C 1157.9 1521.4, 1131.5 1593.3, 1245.7 1528.2 C 1359.9 1463.2, 1283.0 1496.2, 1412.9 1518.8 C 1542.7 1541.3, 1547.5 1505.3, 1632.3 1605.0 C 1717.0 1704.6, 1671.7 1628.0, 1671.7 1758.0 Z" fill="#CFF3FF" opacity="0.34" filter="url(#blur_coach_07_4590)"/>
  <path d="M 1883.2 328.0 C 1883.2 447.2, 1849.4 395.9, 1714.6 487.3 C 1579.8 578.6, 1636.8 558.1, 1430.3 578.8 C 1223.8 599.5, 1333.1 622.5, 1151.5 562.9 C 969.9 503.3, 957.2 528.7, 885.5 416.6 C 813.8 304.6, 789.1 339.8, 860.8 227.8 C 932.5 115.7, 907.8 119.4, 1089.4 59.7 C 1271.0 0.1, 1224.2 9.4, 1430.7 30.1 C 1637.2 50.8, 1536.3 71.4, 1671.1 162.8 C 1805.9 254.1, 1883.2 208.8, 1883.2 328.0 Z" fill="#E3E0FF" opacity="0.32" filter="url(#blur_coach_07_4590)"/>
  <path d="M 1489.8 -193.0 C 1489.8 106.2, 1479.3 -54.4, 1326.9 174.8 C 1174.4 404.1, 1206.2 328.9, 972.7 380.9 C 739.1 432.8, 832.9 459.9, 627.5 310.2 C 422.1 160.6, 570.0 311.3, 488.9 30.1 C 407.8 -251.1, 387.1 -109.2, 468.2 -390.4 C 549.3 -671.6, 396.9 -591.7, 602.3 -741.3 C 807.7 -890.9, 749.2 -1014.0, 982.8 -962.0 C 1216.3 -910.0, 1147.1 -814.4, 1299.5 -585.1 C 1452.0 -355.9, 1489.8 -492.2, 1489.8 -193.0 Z" fill="#86A8FF" opacity="0.25" filter="url(#blur_coach_07_4590)"/>
  <path d="M 348.6 1820.0 C 348.6 2071.6, 354.2 2028.2, 254.5 2220.9 C 154.7 2413.6, 209.2 2247.0, 56.3 2290.7 C -96.6 2334.4, -22.4 2401.2, -156.8 2275.4 C -291.3 2149.6, -293.8 2228.2, -346.9 1991.8 C -400.0 1755.5, -439.8 1865.3, -386.7 1628.9 C -333.6 1392.6, -292.0 1431.9, -157.6 1306.1 C -23.1 1180.4, -92.5 1181.4, 60.4 1225.1 C 213.3 1268.7, 141.4 1300.8, 241.2 1493.5 C 341.0 1686.2, 348.6 1568.5, 348.6 1820.0 Z" fill="#F7FEFF" opacity="0.33" filter="url(#blur_coach_07_4590)"/>
  <path d="M 1544.4 741.0 C 1544.4 991.2, 1531.9 894.4, 1433.3 1086.1 C 1334.7 1277.7, 1373.3 1233.9, 1222.2 1277.3 C 1071.1 1320.8, 1110.1 1402.4, 977.2 1277.3 C 844.3 1152.2, 930.1 1180.5, 877.7 945.4 C 825.2 710.3, 780.6 756.9, 833.1 521.8 C 885.6 286.6, 821.9 440.6, 954.8 315.5 C 1087.7 190.4, 1066.2 194.5, 1217.4 238.0 C 1368.5 281.4, 1281.8 219.2, 1380.4 410.9 C 1479.1 602.5, 1544.4 490.8, 1544.4 741.0 Z" fill="#E3E0FF" opacity="0.30" filter="url(#blur_coach_07_4590)"/>
  <path d="M 721.8 2232.0 C 721.8 2514.2, 701.8 2356.7, 627.5 2572.9 C 553.1 2789.0, 579.2 2893.0, 465.3 2942.0 C 351.4 2990.9, 378.1 2981.2, 277.9 2840.2 C 177.8 2699.1, 218.7 2727.1, 179.2 2462.0 C 139.6 2196.9, 110.7 2298.4, 150.3 2033.3 C 189.9 1768.2, 194.0 1810.1, 294.1 1669.1 C 394.3 1528.0, 359.3 1549.9, 473.2 1598.9 C 587.1 1647.9, 533.4 1612.7, 607.7 1828.9 C 682.0 2045.0, 721.8 1949.8, 721.8 2232.0 Z" fill="#E3E0FF" opacity="0.30" filter="url(#blur_coach_07_4590)"/>
  <path d="M 803.3 1630.0 C 803.3 1813.6, 786.2 1776.9, 678.6 1917.5 C 571.0 2058.1, 611.8 1972.5, 446.9 2004.4 C 282.1 2036.3, 323.0 2064.4, 178.0 1972.6 C 33.1 1880.8, 69.6 1929.5, 12.4 1756.9 C -44.9 1584.4, -61.3 1645.1, -4.1 1472.6 C 53.2 1300.1, 57.2 1375.2, 202.2 1283.4 C 347.2 1191.6, 286.8 1130.9, 451.6 1162.8 C 616.5 1194.7, 519.4 1225.3, 627.0 1365.9 C 734.7 1506.6, 803.3 1446.4, 803.3 1630.0 Z" fill="#B4E6F8" opacity="0.22" filter="url(#blur_coach_07_4590)"/>
  <path d="M 694.1 2579.0 C 694.1 2795.0, 732.0 2761.3, 601.0 2926.7 C 470.0 3092.2, 481.3 3054.8, 280.6 3092.3 C 79.8 3129.8, 118.3 3150.4, -58.2 3042.4 C -234.7 2934.4, -112.3 2962.6, -182.0 2759.6 C -251.7 2556.7, -289.1 2604.5, -219.4 2401.5 C -149.7 2198.6, -222.8 2218.1, -46.3 2110.1 C 130.3 2002.1, 85.8 2138.0, 286.5 2175.5 C 487.3 2213.0, 433.6 2116.8, 564.6 2282.3 C 695.6 2447.8, 694.1 2363.0, 694.1 2579.0 Z" fill="#CCF7ED" opacity="0.29" filter="url(#blur_coach_07_4590)"/>
  <path d="M 1606.2 581.0 C 1606.2 710.1, 1629.3 692.9, 1518.8 791.8 C 1408.3 890.8, 1504.9 886.6, 1335.7 909.0 C 1166.4 931.5, 1228.3 923.7, 1079.4 859.1 C 930.5 794.6, 957.4 804.1, 898.6 682.7 C 839.8 561.3, 816.1 594.2, 874.9 472.9 C 933.7 351.5, 969.1 370.8, 1117.9 306.2 C 1266.8 241.6, 1178.3 289.1, 1347.6 311.6 C 1516.9 334.0, 1474.1 302.9, 1584.6 401.8 C 1695.0 500.8, 1606.2 451.9, 1606.2 581.0 Z" fill="#86A8FF" opacity="0.19" filter="url(#blur_coach_07_4590)"/>
  <path d="M 383.1 933.0 C 383.1 1119.3, 391.7 1054.1, 282.1 1196.8 C 172.4 1339.5, 190.0 1308.7, 22.0 1341.0 C -145.9 1373.4, -97.2 1366.6, -244.9 1273.5 C -392.6 1180.3, -410.1 1234.1, -468.4 1059.0 C -526.7 884.0, -456.1 955.8, -397.8 780.8 C -339.5 605.7, -403.5 642.5, -255.8 549.4 C -108.1 456.2, -156.8 470.9, 11.1 503.3 C 179.1 535.6, 150.9 539.5, 260.5 682.2 C 370.1 824.9, 383.1 746.7, 383.1 933.0 Z" fill="#B4E6F8" opacity="0.20" filter="url(#blur_coach_07_4590)"/>
  <path d="M 1415.3 1237.0 C 1415.3 1458.8, 1558.7 1367.8, 1419.3 1537.7 C 1279.9 1707.7, 1296.3 1767.3, 1082.7 1805.9 C 869.0 1844.4, 928.6 1739.3, 740.8 1628.4 C 553.0 1517.5, 653.8 1606.6, 579.6 1398.1 C 505.4 1189.7, 510.6 1295.6, 584.8 1087.1 C 659.0 878.6, 554.8 939.8, 742.7 828.9 C 930.5 718.0, 869.5 702.1, 1083.1 740.7 C 1296.7 779.2, 1199.8 706.1, 1339.2 876.1 C 1478.6 1046.0, 1415.3 1015.1, 1415.3 1237.0 Z" fill="#CCF7ED" opacity="0.19" filter="url(#blur_coach_07_4590)"/>
  <path d="M 1240.8 707.0 C 1240.8 949.1, 1300.6 853.4, 1196.1 1049.3 C 1091.6 1245.2, 1150.8 1148.9, 981.7 1223.7 C 812.7 1298.6, 922.0 1349.9, 752.9 1275.1 C 583.9 1200.2, 652.7 1182.1, 548.3 986.2 C 443.8 790.3, 458.9 949.1, 458.9 707.0 C 458.9 464.9, 403.4 607.6, 507.9 411.7 C 612.4 215.8, 559.3 307.1, 728.4 232.3 C 897.4 157.5, 799.4 51.5, 968.5 126.4 C 1137.5 201.2, 1057.3 186.7, 1161.8 382.6 C 1266.3 578.5, 1240.8 464.9, 1240.8 707.0 Z" fill="#F7FEFF" opacity="0.12" stroke="#F7FEFF" stroke-opacity="0.46" stroke-width="3" filter="url(#soft_coach_07_4590)"/>
  <path d="M 1240.8 707.0 C 1240.8 949.1, 1300.6 853.4, 1196.1 1049.3 C 1091.6 1245.2, 1150.8 1148.9, 981.7 1223.7 C 812.7 1298.6, 922.0 1349.9, 752.9 1275.1 C 583.9 1200.2, 652.7 1182.1, 548.3 986.2 C 443.8 790.3, 458.9 949.1, 458.9 707.0 C 458.9 464.9, 403.4 607.6, 507.9 411.7 C 612.4 215.8, 559.3 307.1, 728.4 232.3 C 897.4 157.5, 799.4 51.5, 968.5 126.4 C 1137.5 201.2, 1057.3 186.7, 1161.8 382.6 C 1266.3 578.5, 1240.8 464.9, 1240.8 707.0 Z" fill="none" stroke="#FFFFFF" stroke-opacity="0.22" stroke-width="1.2"/>
  <path d="M 1438.6 2895.0 C 1438.6 3206.8, 1401.5 3012.8, 1257.1 3265.1 C 1112.7 3517.4, 1275.4 3533.2, 1041.7 3629.5 C 808.0 3725.9, 942.6 3680.4, 708.9 3584.1 C 475.3 3487.7, 513.5 3577.8, 369.1 3325.5 C 224.7 3073.3, 292.1 3206.8, 292.1 2895.0 C 292.1 2583.2, 296.3 2708.8, 440.7 2456.5 C 585.1 2204.2, 449.1 2390.3, 682.7 2294.0 C 916.4 2197.6, 804.0 2050.7, 1037.7 2147.1 C 1271.3 2243.4, 1141.8 2270.0, 1286.3 2522.3 C 1430.7 2774.6, 1438.6 2583.2, 1438.6 2895.0 Z" fill="#86A8FF" opacity="0.12" stroke="#FFFFFF" stroke-opacity="0.46" stroke-width="3" filter="url(#soft_coach_07_4590)"/>
  <path d="M 1438.6 2895.0 C 1438.6 3206.8, 1401.5 3012.8, 1257.1 3265.1 C 1112.7 3517.4, 1275.4 3533.2, 1041.7 3629.5 C 808.0 3725.9, 942.6 3680.4, 708.9 3584.1 C 475.3 3487.7, 513.5 3577.8, 369.1 3325.5 C 224.7 3073.3, 292.1 3206.8, 292.1 2895.0 C 292.1 2583.2, 296.3 2708.8, 440.7 2456.5 C 585.1 2204.2, 449.1 2390.3, 682.7 2294.0 C 916.4 2197.6, 804.0 2050.7, 1037.7 2147.1 C 1271.3 2243.4, 1141.8 2270.0, 1286.3 2522.3 C 1430.7 2774.6, 1438.6 2583.2, 1438.6 2895.0 Z" fill="none" stroke="#FFFFFF" stroke-opacity="0.22" stroke-width="1.2"/>
  <path d="M 851.3 8.0 C 851.3 228.1, 843.1 85.3, 737.3 263.3 C 631.5 441.4, 721.0 416.0, 549.8 484.0 C 378.6 552.0, 458.2 579.9, 287.0 511.9 C 115.8 443.9, 226.2 433.3, 120.4 255.2 C 14.6 77.2, 54.6 228.1, 54.6 8.0 C 54.6 -212.0, -15.1 -86.6, 90.7 -264.6 C 196.5 -442.6, 107.9 -410.4, 279.1 -478.4 C 450.2 -546.4, 370.4 -494.2, 541.5 -426.2 C 712.7 -358.2, 635.7 -437.4, 741.5 -259.4 C 847.3 -81.3, 851.3 -212.1, 851.3 8.0 Z" fill="#CCF7ED" opacity="0.12" stroke="#CCF7ED" stroke-opacity="0.46" stroke-width="3" filter="url(#soft_coach_07_4590)"/>
  <path d="M 851.3 8.0 C 851.3 228.1, 843.1 85.3, 737.3 263.3 C 631.5 441.4, 721.0 416.0, 549.8 484.0 C 378.6 552.0, 458.2 579.9, 287.0 511.9 C 115.8 443.9, 226.2 433.3, 120.4 255.2 C 14.6 77.2, 54.6 228.1, 54.6 8.0 C 54.6 -212.0, -15.1 -86.6, 90.7 -264.6 C 196.5 -442.6, 107.9 -410.4, 279.1 -478.4 C 450.2 -546.4, 370.4 -494.2, 541.5 -426.2 C 712.7 -358.2, 635.7 -437.4, 741.5 -259.4 C 847.3 -81.3, 851.3 -212.1, 851.3 8.0 Z" fill="none" stroke="#FFFFFF" stroke-opacity="0.22" stroke-width="1.2"/>
  <path d="M 695.4 2856.0 C 695.4 3254.2, 636.9 3076.8, 458.1 3399.0 C 279.3 3721.2, 485.5 3651.5, 196.2 3774.6 C -93.1 3897.7, 77.9 3901.7, -211.4 3778.6 C -500.7 3655.5, -324.5 3694.3, -503.3 3372.2 C -682.1 3050.0, -615.7 3254.2, -615.7 2856.0 C -615.7 2457.8, -759.9 2664.9, -581.1 2342.7 C -402.3 2020.5, -543.8 2051.3, -254.5 1928.2 C 34.9 1805.1, -75.9 1894.0, 213.4 2017.1 C 502.7 2140.2, 344.8 2066.8, 523.6 2389.0 C 702.5 2711.1, 695.4 2457.8, 695.4 2856.0 Z" fill="#B4E6F8" opacity="0.12" stroke="#FFFFFF" stroke-opacity="0.46" stroke-width="3" filter="url(#soft_coach_07_4590)"/>
  <path d="M 695.4 2856.0 C 695.4 3254.2, 636.9 3076.8, 458.1 3399.0 C 279.3 3721.2, 485.5 3651.5, 196.2 3774.6 C -93.1 3897.7, 77.9 3901.7, -211.4 3778.6 C -500.7 3655.5, -324.5 3694.3, -503.3 3372.2 C -682.1 3050.0, -615.7 3254.2, -615.7 2856.0 C -615.7 2457.8, -759.9 2664.9, -581.1 2342.7 C -402.3 2020.5, -543.8 2051.3, -254.5 1928.2 C 34.9 1805.1, -75.9 1894.0, 213.4 2017.1 C 502.7 2140.2, 344.8 2066.8, 523.6 2389.0 C 702.5 2711.1, 695.4 2457.8, 695.4 2856.0 Z" fill="none" stroke="#FFFFFF" stroke-opacity="0.22" stroke-width="1.2"/>
  <path d="M 354.3 2115.0 C 354.3 2314.8, 446.3 2233.1, 356.1 2394.7 C 265.9 2556.4, 289.9 2461.1, 143.9 2522.8 C -2.0 2584.5, 87.4 2628.4, -58.6 2566.7 C -204.5 2504.9, -170.1 2565.4, -260.3 2403.7 C -350.5 2242.1, -309.9 2314.8, -309.9 2115.0 C -309.9 1915.2, -307.8 2014.9, -217.6 1853.2 C -127.4 1691.6, -212.3 1743.8, -66.3 1682.1 C 79.6 1620.3, 0.5 1649.7, 146.5 1711.4 C 292.4 1773.2, 249.4 1716.3, 339.6 1878.0 C 429.8 2039.6, 354.3 1915.2, 354.3 2115.0 Z" fill="#F7FEFF" opacity="0.12" stroke="#F7FEFF" stroke-opacity="0.46" stroke-width="3" filter="url(#soft_coach_07_4590)"/>
  <path d="M 354.3 2115.0 C 354.3 2314.8, 446.3 2233.1, 356.1 2394.7 C 265.9 2556.4, 289.9 2461.1, 143.9 2522.8 C -2.0 2584.5, 87.4 2628.4, -58.6 2566.7 C -204.5 2504.9, -170.1 2565.4, -260.3 2403.7 C -350.5 2242.1, -309.9 2314.8, -309.9 2115.0 C -309.9 1915.2, -307.8 2014.9, -217.6 1853.2 C -127.4 1691.6, -212.3 1743.8, -66.3 1682.1 C 79.6 1620.3, 0.5 1649.7, 146.5 1711.4 C 292.4 1773.2, 249.4 1716.3, 339.6 1878.0 C 429.8 2039.6, 354.3 1915.2, 354.3 2115.0 Z" fill="none" stroke="#FFFFFF" stroke-opacity="0.22" stroke-width="1.2"/>
  <path d="M 1229.9 1868.0 C 1229.9 2145.7, 1299.3 1977.0, 1179.5 2201.6 C 1059.7 2426.2, 1105.0 2322.2, 911.1 2408.0 C 717.2 2493.8, 830.5 2475.8, 636.7 2390.0 C 442.8 2304.2, 545.3 2424.7, 425.5 2200.1 C 305.7 1975.5, 360.5 2145.7, 360.5 1868.0 C 360.5 1590.3, 239.5 1740.2, 359.4 1515.5 C 479.2 1290.9, 425.2 1382.1, 619.0 1296.3 C 812.9 1210.5, 694.1 1225.0, 888.0 1310.8 C 1081.9 1396.6, 1022.3 1237.4, 1142.1 1462.0 C 1261.9 1686.7, 1229.9 1590.3, 1229.9 1868.0 Z" fill="#4ECAD1" opacity="0.12" stroke="#4ECAD1" stroke-opacity="0.46" stroke-width="3" filter="url(#soft_coach_07_4590)"/>
  <path d="M 1229.9 1868.0 C 1229.9 2145.7, 1299.3 1977.0, 1179.5 2201.6 C 1059.7 2426.2, 1105.0 2322.2, 911.1 2408.0 C 717.2 2493.8, 830.5 2475.8, 636.7 2390.0 C 442.8 2304.2, 545.3 2424.7, 425.5 2200.1 C 305.7 1975.5, 360.5 2145.7, 360.5 1868.0 C 360.5 1590.3, 239.5 1740.2, 359.4 1515.5 C 479.2 1290.9, 425.2 1382.1, 619.0 1296.3 C 812.9 1210.5, 694.1 1225.0, 888.0 1310.8 C 1081.9 1396.6, 1022.3 1237.4, 1142.1 1462.0 C 1261.9 1686.7, 1229.9 1590.3, 1229.9 1868.0 Z" fill="none" stroke="#FFFFFF" stroke-opacity="0.22" stroke-width="1.2"/>
  <path d="M -100.0 374.2 Q 133.3 164.6, 366.7 41.8 Q 600.0 -80.5, 833.3 157.5 Q 1066.7 344.0, 1300.0 398.2" fill="none" stroke="#FFFFFF" stroke-opacity="0.38" stroke-width="4" filter="url(#soft_coach_07_4590)"/>
  <path d="M -100.0 374.2 Q 133.3 164.6, 366.7 41.8 Q 600.0 -80.5, 833.3 157.5 Q 1066.7 344.0, 1300.0 398.2" fill="none" stroke="#B891FF" stroke-opacity="0.18" stroke-width="2"/>
  <path d="M -100.0 2777.7 Q 133.3 2774.6, 366.7 2621.5 Q 600.0 2620.1, 833.3 2615.4 Q 1066.7 2715.2, 1300.0 2733.2" fill="none" stroke="#FFFFFF" stroke-opacity="0.38" stroke-width="4" filter="url(#soft_coach_07_4590)"/>
  <path d="M -100.0 2777.7 Q 133.3 2774.6, 366.7 2621.5 Q 600.0 2620.1, 833.3 2615.4 Q 1066.7 2715.2, 1300.0 2733.2" fill="none" stroke="#4ECAD1" stroke-opacity="0.18" stroke-width="2"/>
  <path d="M -100.0 439.5 Q 133.3 336.1, 366.7 605.2 Q 600.0 654.7, 833.3 527.5 Q 1066.7 415.0, 1300.0 637.5" fill="none" stroke="#FFFFFF" stroke-opacity="0.38" stroke-width="4" filter="url(#soft_coach_07_4590)"/>
  <path d="M -100.0 439.5 Q 133.3 336.1, 366.7 605.2 Q 600.0 654.7, 833.3 527.5 Q 1066.7 415.0, 1300.0 637.5" fill="none" stroke="#4ECAD1" stroke-opacity="0.18" stroke-width="2"/>
  <path d="M -100.0 2486.1 Q 133.3 2252.3, 366.7 2053.2 Q 600.0 2448.7, 833.3 2427.6 Q 1066.7 2067.9, 1300.0 2194.9" fill="none" stroke="#FFFFFF" stroke-opacity="0.38" stroke-width="4" filter="url(#soft_coach_07_4590)"/>
  <path d="M -100.0 2486.1 Q 133.3 2252.3, 366.7 2053.2 Q 600.0 2448.7, 833.3 2427.6 Q 1066.7 2067.9, 1300.0 2194.9" fill="none" stroke="#86A8FF" stroke-opacity="0.18" stroke-width="2"/>
  <circle cx="1196" cy="2488" r="164" fill="url(#orb_coach_07_4590)" opacity="0.36"/>
  <circle cx="1196" cy="2488" r="164" fill="#86A8FF" opacity="0.08"/>
  <circle cx="1196" cy="2488" r="164" fill="none" stroke="#FFFFFF" stroke-opacity="0.56" stroke-width="3"/>
  <ellipse cx="1150.1" cy="2429.0" rx="29.5" ry="13.1" fill="#FFFFFF" opacity="0.42" transform="rotate(-22 1150.1 2429.0)"/>
  <circle cx="338" cy="1596" r="226" fill="url(#orb_coach_07_4590)" opacity="0.36"/>
  <circle cx="338" cy="1596" r="226" fill="#86A8FF" opacity="0.08"/>
  <circle cx="338" cy="1596" r="226" fill="none" stroke="#FFFFFF" stroke-opacity="0.56" stroke-width="3"/>
  <ellipse cx="274.7" cy="1514.6" rx="40.7" ry="18.1" fill="#FFFFFF" opacity="0.42" transform="rotate(-22 274.7 1514.6)"/>
  <circle cx="506" cy="1952" r="113" fill="url(#orb_coach_07_4590)" opacity="0.36"/>
  <circle cx="506" cy="1952" r="113" fill="#B891FF" opacity="0.08"/>
  <circle cx="506" cy="1952" r="113" fill="none" stroke="#FFFFFF" stroke-opacity="0.56" stroke-width="3"/>
  <ellipse cx="474.4" cy="1911.3" rx="20.3" ry="9.0" fill="#FFFFFF" opacity="0.42" transform="rotate(-22 474.4 1911.3)"/>
  <circle cx="704" cy="2189" r="227" fill="url(#orb_coach_07_4590)" opacity="0.23"/>
  <circle cx="704" cy="2189" r="227" fill="#B4E6F8" opacity="0.08"/>
  <circle cx="704" cy="2189" r="227" fill="none" stroke="#FFFFFF" stroke-opacity="0.56" stroke-width="3"/>
  <ellipse cx="640.4" cy="2107.3" rx="40.9" ry="18.2" fill="#FFFFFF" opacity="0.42" transform="rotate(-22 640.4 2107.3)"/>
  <circle cx="5" cy="875" r="167" fill="url(#orb_coach_07_4590)" opacity="0.24"/>
  <circle cx="5" cy="875" r="167" fill="#E3E0FF" opacity="0.08"/>
  <circle cx="5" cy="875" r="167" fill="none" stroke="#FFFFFF" stroke-opacity="0.56" stroke-width="3"/>
  <ellipse cx="-41.8" cy="814.9" rx="30.1" ry="13.4" fill="#FFFFFF" opacity="0.42" transform="rotate(-22 -41.8 814.9)"/>
  <circle cx="180" cy="1842" r="151" fill="url(#orb_coach_07_4590)" opacity="0.26"/>
  <circle cx="180" cy="1842" r="151" fill="#B4E6F8" opacity="0.08"/>
  <circle cx="180" cy="1842" r="151" fill="none" stroke="#FFFFFF" stroke-opacity="0.56" stroke-width="3"/>
  <ellipse cx="137.7" cy="1787.6" rx="27.2" ry="12.1" fill="#FFFFFF" opacity="0.42" transform="rotate(-22 137.7 1787.6)"/>
  <circle cx="344" cy="1445" r="199" fill="url(#orb_coach_07_4590)" opacity="0.27"/>
  <circle cx="344" cy="1445" r="199" fill="#B4E6F8" opacity="0.08"/>
  <circle cx="344" cy="1445" r="199" fill="none" stroke="#FFFFFF" stroke-opacity="0.56" stroke-width="3"/>
  <ellipse cx="288.3" cy="1373.4" rx="35.8" ry="15.9" fill="#FFFFFF" opacity="0.42" transform="rotate(-22 288.3 1373.4)"/>
  <circle cx="746" cy="1425" r="102" fill="url(#orb_coach_07_4590)" opacity="0.25"/>
  <circle cx="746" cy="1425" r="102" fill="#CFF3FF" opacity="0.08"/>
  <circle cx="746" cy="1425" r="102" fill="none" stroke="#FFFFFF" stroke-opacity="0.56" stroke-width="3"/>
  <ellipse cx="717.4" cy="1388.3" rx="18.4" ry="8.2" fill="#FFFFFF" opacity="0.42" transform="rotate(-22 717.4 1388.3)"/>
  <circle cx="167" cy="1916" r="268" fill="url(#orb_coach_07_4590)" opacity="0.25"/>
  <circle cx="167" cy="1916" r="268" fill="#CCF7ED" opacity="0.08"/>
  <circle cx="167" cy="1916" r="268" fill="none" stroke="#FFFFFF" stroke-opacity="0.56" stroke-width="3"/>
  <ellipse cx="92.0" cy="1819.5" rx="48.2" ry="21.4" fill="#FFFFFF" opacity="0.42" transform="rotate(-22 92.0 1819.5)"/>
  <circle cx="752" cy="2490" r="7" fill="#FFFFFF" opacity="0.68"/>
  <circle cx="564" cy="2231" r="5" fill="#FFFFFF" opacity="0.59"/>
  <circle cx="1121" cy="1119" r="4" fill="#FFFFFF" opacity="0.54"/>
  <circle cx="388" cy="2471" r="2" fill="#FFFFFF" opacity="0.47"/>
  <circle cx="745" cy="273" r="4" fill="#FFFFFF" opacity="0.61"/>
  <circle cx="607" cy="2384" r="5" fill="#FFFFFF" opacity="0.30"/>
  <circle cx="169" cy="2584" r="7" fill="#FFFFFF" opacity="0.31"/>
  <circle cx="1162" cy="2462" r="4" fill="#FFFFFF" opacity="0.37"/>
  <circle cx="744" cy="1845" r="2" fill="#FFFFFF" opacity="0.67"/>
  <circle cx="557" cy="2274" r="3" fill="#FFFFFF" opacity="0.68"/>
  <circle cx="752" cy="579" r="3" fill="#FFFFFF" opacity="0.68"/>
  <rect width="1200" height="2600" fill="#FFFFFF" opacity="0.08"/>
  <rect width="1200" height="2600" filter="url(#grain_coach_07_4590)" opacity="0.7"/>
</svg>
