<svg xmlns="http://www.w3.org/2000/svg" width="1200" height="2600" viewBox="0 0 1200 2600" preserveAspectRatio="xMidYMid slice">
  <defs>
    <linearGradient id="bg_coach_20_3679" x1="0" y1="0" x2="1" y2="1">
      <stop offset="0%" stop-color="#F7FEFF"/>
      <stop offset="48%" stop-color="#CCF7ED"/>
      <stop offset="100%" stop-color="#E3E0FF"/>
    </linearGradient>
    <radialGradient id="orb_coach_20_3679" cx="35%" cy="30%" r="70%">
      <stop offset="0%" stop-color="#FFFFFF" stop-opacity="0.85"/>
      <stop offset="42%" stop-color="#FFFFFF" stop-opacity="0.20"/>
      <stop offset="100%" stop-color="#FFFFFF" stop-opacity="0.02"/>
    </radialGradient>
    <filter id="blur_coach_20_3679" x="-30%" y="-30%" width="160%" height="160%">
      <feGaussianBlur stdDeviation="72"/>
    </filter>
    <filter id="soft_coach_20_3679" x="-20%" y="-20%" width="140%" height="140%">
      <feGaussianBlur stdDeviation="10"/>
    </filter>
    <filter id="grain_coach_20_3679">
      <feTurbulence type="fractalNoise" baseFrequency="0.85" numOctaves="2" stitchTiles="stitch"/>
      <feColorMatrix type="saturate" values="0"/>
      <feComponentTransfer>
        <feFuncA type="table" tableValues="0 0.035"/>
      </feComponentTransfer>
    </filter>
  </defs>
  <rect width="1200" height="2600" fill="url(#bg_coach_20_3679)"/>
  <path d="M 215.4 1419.0 C 215.4 1697.1, 340.1 1643.9, 231.1 1857.0 C 122.0 2070.0, 146.6 1905.7, -20.5 1954.0 C -187.6 2002.3, -129.8 2004.3, -276.8 1865.2 C -423.7 1726.2, -423.1 1884.9, -481.1 1623.6 C -539.1 1362.2, -537.1 1503.5, -479.1 1242.1 C -421.1 980.8, -441.2 1012.9, -294.3 873.9 C -147.4 734.8, -199.1 660.3, -32.0 708.5 C 135.0 756.8, 69.3 752.8, 178.3 965.9 C 287.4 1178.9, 215.4 1140.9, 215.4 1419.0 Z" fill="#CFF3FF" opacity="0.38" filter="url(#blur_coach_20_3679)"/>
  <path d="M 1453.2 425.0 C 1453.2 542.9, 1463.5 529.4, 1362.0 619.7 C 1260.4 710.0, 1336.4 673.4, 1180.8 693.9 C 1025.2 714.4, 1050.3 724.0, 913.5 665.1 C 776.7 606.1, 779.8 631.4, 725.8 520.6 C 671.7 409.8, 754.2 449.1, 808.2 338.3 C 862.2 227.5, 815.2 239.3, 952.0 180.4 C 1088.8 121.4, 1020.0 113.2, 1175.6 133.7 C 1331.1 154.1, 1321.1 185.0, 1422.6 275.3 C 1524.2 365.6, 1453.2 307.1, 1453.2 425.0 Z" fill="#B891FF" opacity="0.23" filter="url(#blur_coach_20_3679)"/>
  <path d="M 1621.8 1459.0 C 1621.8 1763.7, 1517.7 1624.7, 1395.7 1858.1 C 1273.6 2091.4, 1390.4 2163.6, 1203.4 2216.5 C 1016.4 2269.4, 1110.8 2290.8, 946.3 2138.5 C 781.9 1986.2, 816.4 1940.6, 751.5 1654.3 C 686.5 1368.0, 738.7 1503.8, 803.6 1217.6 C 868.6 931.3, 787.9 954.2, 952.4 801.9 C 1116.8 649.5, 1015.2 634.3, 1202.2 687.2 C 1389.2 740.1, 1304.6 774.6, 1426.6 1008.0 C 1548.7 1241.4, 1621.8 1154.3, 1621.8 1459.0 Z" fill="#4ECAD1" opacity="0.27" filter="url(#blur_coach_20_3679)"/>
  <path d="M 448.9 2375.0 C 448.9 2591.9, 380.7 2543.1, 265.9 2709.3 C 151.0 2875.4, 245.3 2816.8, 69.4 2854.5 C -106.6 2892.2, -64.9 2875.3, -219.6 2766.9 C -374.3 2658.4, -278.5 2762.4, -339.6 2558.6 C -400.7 2354.8, -370.4 2442.2, -309.2 2238.3 C -248.1 2034.5, -340.9 2097.7, -186.2 1989.3 C -31.5 1880.8, -111.4 1898.3, 64.5 1935.9 C 240.5 1973.6, 213.1 1854.5, 327.9 2020.6 C 442.8 2186.8, 448.9 2158.1, 448.9 2375.0 Z" fill="#4ECAD1" opacity="0.19" filter="url(#blur_coach_20_3679)"/>
  <path d="M 1623.3 21.0 C 1623.3 321.6, 1572.4 219.8, 1497.4 450.0 C 1422.5 680.3, 1496.0 519.0, 1381.2 571.2 C 1266.4 623.4, 1319.4 701.5, 1218.4 551.2 C 1117.5 400.9, 1090.8 540.7, 1050.9 258.2 C 1011.0 -24.3, 1016.1 40.9, 1056.0 -241.6 C 1095.9 -524.0, 1104.5 -444.7, 1205.5 -595.0 C 1306.4 -745.3, 1263.3 -799.8, 1378.1 -747.6 C 1492.9 -695.4, 1462.5 -640.7, 1537.5 -410.5 C 1612.4 -180.2, 1623.3 -279.6, 1623.3 21.0 Z" fill="#E3E0FF" opacity="0.29" filter="url(#blur_coach_20_3679)"/>
  <path d="M 701.8 1351.0 C 701.8 1506.2, 758.3 1436.6, 625.2 1555.6 C 492.2 1674.5, 579.3 1624.1, 375.4 1651.0 C 171.6 1678.0, 223.5 1756.1, 44.2 1678.5 C -135.0 1600.8, -90.1 1633.6, -160.9 1487.7 C -231.7 1341.8, -229.7 1376.4, -158.9 1230.5 C -88.1 1084.6, -157.3 1138.3, 22.0 1060.6 C 201.3 983.0, 161.8 959.9, 365.7 986.9 C 569.5 1013.8, 484.2 1009.2, 617.3 1128.1 C 750.3 1247.0, 701.8 1195.8, 701.8 1351.0 Z" fill="#CFF3FF" opacity="0.34" filter="url(#blur_coach_20_3679)"/>
  <path d="M 696.5 2752.0 C 696.5 2975.2, 745.3 2883.2, 590.9 3054.1 C 436.4 3225.1, 509.7 3268.3, 273.0 3307.0 C 36.4 3345.8, 126.5 3283.8, -81.6 3172.2 C -289.7 3060.6, -204.6 3126.5, -286.8 2916.8 C -368.9 2707.1, -325.0 2810.9, -242.8 2601.1 C -160.6 2391.4, -337.4 2412.5, -129.3 2300.9 C 78.8 2189.3, 35.8 2281.4, 272.5 2320.1 C 509.1 2358.9, 383.3 2287.2, 537.7 2458.2 C 692.2 2629.2, 696.5 2528.8, 696.5 2752.0 Z" fill="#F7FEFF" opacity="0.36" filter="url(#blur_coach_20_3679)"/>
  <path d="M 776.2 2676.0 C 776.2 2793.9, 754.7 2743.1, 604.3 2833.4 C 453.8 2923.7, 548.1 2911.6, 317.7 2932.1 C 87.3 2952.6, 174.8 2949.7, -27.8 2890.7 C -230.5 2831.8, -143.0 2878.1, -223.0 2767.3 C -303.1 2656.6, -427.8 2711.3, -347.8 2600.5 C -267.7 2489.7, -204.4 2483.4, -1.7 2424.4 C 200.9 2365.5, 89.6 2367.6, 320.1 2388.0 C 550.5 2408.5, 494.3 2392.8, 644.7 2483.1 C 795.1 2573.5, 776.2 2558.1, 776.2 2676.0 Z" fill="#4ECAD1" opacity="0.20" filter="url(#blur_coach_20_3679)"/>
  <path d="M 508.1 874.0 C 508.1 1090.9, 549.9 1068.2, 482.5 1234.4 C 415.1 1400.5, 450.4 1382.0, 347.2 1419.7 C 243.9 1457.4, 286.6 1351.6, 195.8 1243.1 C 104.9 1134.7, 147.9 1249.5, 112.0 1045.7 C 76.2 841.9, 63.3 938.1, 99.1 734.3 C 135.0 530.5, 99.0 515.4, 189.8 407.0 C 280.6 298.5, 238.5 383.4, 341.7 421.1 C 445.0 458.8, 441.0 400.7, 508.4 566.9 C 575.8 733.0, 508.1 657.1, 508.1 874.0 Z" fill="#CFF3FF" opacity="0.25" filter="url(#blur_coach_20_3679)"/>
  <path d="M 1956.0 -171.0 C 1956.0 30.2, 1987.0 -107.0, 1832.8 55.8 C 1678.6 218.5, 1725.1 218.1, 1475.6 280.3 C 1226.1 342.4, 1366.4 344.2, 1116.9 282.0 C 867.4 219.9, 933.2 239.8, 779.0 77.0 C 624.8 -85.7, 634.8 30.2, 634.8 -171.0 C 634.8 -372.1, 725.7 -291.0, 879.9 -453.7 C 1034.1 -616.4, 893.3 -536.7, 1142.8 -598.8 C 1392.4 -661.0, 1233.9 -675.1, 1483.4 -613.0 C 1732.9 -550.8, 1626.5 -624.9, 1780.7 -462.2 C 1934.9 -299.5, 1956.0 -372.1, 1956.0 -171.0 Z" fill="#CFF3FF" opacity="0.12" stroke="#FFFFFF" stroke-opacity="0.46" stroke-width="3" filter="url(#soft_coach_20_3679)"/>
  <path d="M 1956.0 -171.0 C 1956.0 30.2, 1987.0 -107.0, 1832.8 55.8 C 1678.6 218.5, 1725.1 218.1, 1475.6 280.3 C 1226.1 342.4, 1366.4 344.2, 1116.9 282.0 C 867.4 219.9, 933.2 239.8, 779.0 77.0 C 624.8 -85.7, 634.8 30.2, 634.8 -171.0 C 634.8 -372.1, 725.7 -291.0, 879.9 -453.7 C 1034.1 -616.4, 893.3 -536.7, 1142.8 -598.8 C 1392.4 -661.0, 1233.9 -675.1, 1483.4 -613.0 C 1732.9 -550.8, 1626.5 -624.9, 1780.7 -462.2 C 1934.9 -299.5, 1956.0 -372.1, 1956.0 -171.0 Z" fill="none" stroke="#FFFFFF" stroke-opacity="0.22" stroke-width="1.2"/>
  <path d="M 1919.4 1024.0 C 1919.4 1335.8, 2002.3 1205.0, 1876.4 1457.3 C 1750.5 1709.6, 1775.8 1518.9, 1572.1 1615.3 C 1368.4 1711.6, 1489.3 1709.8, 1285.5 1613.5 C 1081.8 1517.1, 1204.3 1686.8, 1078.3 1434.5 C 952.4 1182.2, 916.0 1335.8, 916.0 1024.0 C 916.0 712.1, 940.4 824.3, 1066.3 572.0 C 1192.2 319.7, 1090.1 474.8, 1293.8 378.5 C 1497.5 282.1, 1372.0 305.4, 1575.8 401.8 C 1779.5 498.2, 1670.4 316.0, 1796.3 568.3 C 1922.2 820.6, 1919.4 712.1, 1919.4 1024.0 Z" fill="#86A8FF" opacity="0.12" stroke="#86A8FF" stroke-opacity="0.46" stroke-width="3" filter="url(#soft_coach_20_3679)"/>
  <path d="M 1919.4 1024.0 C 1919.4 1335.8, 2002.3 1205.0, 1876.4 1457.3 C 1750.5 1709.6, 1775.8 1518.9, 1572.1 1615.3 C 1368.4 1711.6, 1489.3 1709.8, 1285.5 1613.5 C 1081.8 1517.1, 1204.3 1686.8, 1078.3 1434.5 C 952.4 1182.2, 916.0 1335.8, 916.0 1024.0 C 916.0 712.1, 940.4 824.3, 1066.3 572.0 C 1192.2 319.7, 1090.1 474.8, 1293.8 378.5 C 1497.5 282.1, 1372.0 305.4, 1575.8 401.8 C 1779.5 498.2, 1670.4 316.0, 1796.3 568.3 C 1922.2 820.6, 1919.4 712.1, 1919.4 1024.0 Z" fill="none" stroke="#FFFFFF" stroke-opacity="0.22" stroke-width="1.2"/>
  <path d="M 1255.9 914.0 C 1255.9 1141.2, 1249.6 1000.9, 1158.0 1184.8 C 1066.5 1368.6, 1157.9 1257.1, 1009.8 1327.4 C 861.8 1397.6, 964.1 1513.2, 816.0 1442.9 C 667.9 1372.7, 745.9 1365.7, 654.4 1181.9 C 562.9 998.0, 526.3 1141.2, 526.3 914.0 C 526.3 686.8, 542.9 813.2, 634.4 629.3 C 725.9 445.5, 640.4 510.1, 788.5 439.9 C 936.6 369.7, 856.8 352.4, 1004.9 422.6 C 1153.0 492.8, 1088.3 459.0, 1179.8 642.9 C 1271.4 826.7, 1255.9 686.8, 1255.9 914.0 Z" fill="#B891FF" opacity="0.12" stroke="#FFFFFF" stroke-opacity="0.46" stroke-width="3" filter="url(#soft_coach_20_3679)"/>
  <path d="M 1255.9 914.0 C 1255.9 1141.2, 1249.6 1000.9, 1158.0 1184.8 C 1066.5 1368.6, 1157.9 1257.1, 1009.8 1327.4 C 861.8 1397.6, 964.1 1513.2, 816.0 1442.9 C 667.9 1372.7, 745.9 1365.7, 654.4 1181.9 C 562.9 998.0, 526.3 1141.2, 526.3 914.0 C 526.3 686.8, 542.9 813.2, 634.4 629.3 C 725.9 445.5, 640.4 510.1, 788.5 439.9 C 936.6 369.7, 856.8 352.4, 1004.9 422.6 C 1153.0 492.8, 1088.3 459.0, 1179.8 642.9 C 1271.4 826.7, 1255.9 686.8, 1255.9 914.0 Z" fill="none" stroke="#FFFFFF" stroke-opacity="0.22" stroke-width="1.2"/>
  <path d="M 1283.0 1312.0 C 1283.0 1623.4, 1325.1 1490.9, 1242.1 1742.8 C 1159.0 1994.7, 1200.6 1874.7, 1066.2 1970.9 C 931.8 2067.1, 1010.8 2153.5, 876.5 2057.2 C 742.1 1961.0, 807.9 1981.3, 724.9 1729.4 C 641.8 1477.4, 618.2 1623.4, 618.2 1312.0 C 618.2 1000.6, 630.8 1107.4, 713.9 855.5 C 796.9 603.5, 739.6 725.1, 874.0 628.9 C 1008.4 532.6, 918.5 527.0, 1052.9 623.2 C 1187.3 719.4, 1128.0 705.3, 1211.1 957.2 C 1294.1 1209.1, 1283.0 1000.6, 1283.0 1312.0 Z" fill="#4ECAD1" opacity="0.12" stroke="#FFFFFF" stroke-opacity="0.46" stroke-width="3" filter="url(#soft_coach_20_3679)"/>
  <path d="M 1283.0 1312.0 C 1283.0 1623.4, 1325.1 1490.9, 1242.1 1742.8 C 1159.0 1994.7, 1200.6 1874.7, 1066.2 1970.9 C 931.8 2067.1, 1010.8 2153.5, 876.5 2057.2 C 742.1 1961.0, 807.9 1981.3, 724.9 1729.4 C 641.8 1477.4, 618.2 1623.4, 618.2 1312.0 C 618.2 1000.6, 630.8 1107.4, 713.9 855.5 C 796.9 603.5, 739.6 725.1, 874.0 628.9 C 1008.4 532.6, 918.5 527.0, 1052.9 623.2 C 1187.3 719.4, 1128.0 705.3, 1211.1 957.2 C 1294.1 1209.1, 1283.0 1000.6, 1283.0 1312.0 Z" fill="none" stroke="#FFFFFF" stroke-opacity="0.22" stroke-width="1.2"/>
  <path d="M 1209.3 1173.0 C 1209.3 1528.5, 1155.0 1333.4, 1046.8 1621.0 C 938.6 1908.6, 1052.2 1913.5, 877.1 2023.4 C 702.1 2133.2, 787.8 2109.3, 612.8 1999.4 C 437.7 1889.5, 533.1 1974.7, 424.9 1687.1 C 316.7 1399.5, 331.2 1528.5, 331.2 1173.0 C 331.2 817.5, 294.1 942.2, 402.3 654.6 C 510.5 367.0, 434.1 551.6, 609.1 441.7 C 784.2 331.9, 709.6 212.3, 884.7 322.2 C 1059.7 432.0, 997.1 428.0, 1105.3 715.6 C 1213.5 1003.2, 1209.3 817.5, 1209.3 1173.0 Z" fill="#B4E6F8" opacity="0.12" stroke="#B4E6F8" stroke-opacity="0.46" stroke-width="3" filter="url(#soft_coach_20_3679)"/>
  <path d="M 1209.3 1173.0 C 1209.3 1528.5, 1155.0 1333.4, 1046.8 1621.0 C 938.6 1908.6, 1052.2 1913.5, 877.1 2023.4 C 702.1 2133.2, 787.8 2109.3, 612.8 1999.4 C 437.7 1889.5, 533.1 1974.7, 424.9 1687.1 C 316.7 1399.5, 331.2 1528.5, 331.2 1173.0 C 331.2 817.5, 294.1 942.2, 402.3 654.6 C 510.5 367.0, 434.1 551.6, 609.1 441.7 C 784.2 331.9, 709.6 212.3, 884.7 322.2 C 1059.7 432.0, 997.1 428.0, 1105.3 715.6 C 1213.5 1003.2, 1209.3 817.5, 1209.3 1173.0 Z" fill="none" stroke="#FFFFFF" stroke-opacity="0.22" stroke-width="1.2"/>
  <path d="M 827.3 1588.0 C 827.3 1867.0, 870.5 1740.3, 755.4 1966.0 C 640.4 2191.8, 713.8 2020.5, 527.6 2106.7 C 341.5 2192.9, 430.8 2235.4, 244.7 2149.2 C 58.5 2062.9, 182.6 2190.7, 67.5 1965.0 C -47.6 1739.3, -54.7 1867.0, -54.7 1588.0 C -54.7 1309.0, -81.2 1407.2, 33.8 1181.5 C 148.9 955.8, 74.5 1002.1, 260.6 915.9 C 446.8 829.6, 319.7 835.0, 505.8 921.2 C 692.0 1007.4, 588.5 960.3, 703.6 1186.0 C 818.6 1411.7, 827.3 1309.0, 827.3 1588.0 Z" fill="#CCF7ED" opacity="0.12" stroke="#FFFFFF" stroke-opacity="0.46" stroke-width="3" filter="url(#soft_coach_20_3679)"/>
  <path d="M 827.3 1588.0 C 827.3 1867.0, 870.5 1740.3, 755.4 1966.0 C 640.4 2191.8, 713.8 2020.5, 527.6 2106.7 C 341.5 2192.9, 430.8 2235.4, 244.7 2149.2 C 58.5 2062.9, 182.6 2190.7, 67.5 1965.0 C -47.6 1739.3, -54.7 1867.0, -54.7 1588.0 C -54.7 1309.0, -81.2 1407.2, 33.8 1181.5 C 148.9 955.8, 74.5 1002.1, 260.6 915.9 C 446.8 829.6, 319.7 835.0, 505.8 921.2 C 692.0 1007.4, 588.5 960.3, 703.6 1186.0 C 818.6 1411.7, 827.3 1309.0, 827.3 1588.0 Z" fill="none" stroke="#FFFFFF" stroke-opacity="0.22" stroke-width="1.2"/>
  <path d="M 852.4 1567.0 C 852.4 1971.5, 855.3 1841.5, 725.5 2168.8 C 595.6 2496.1, 674.5 2363.9, 464.4 2489.0 C 254.2 2614.0, 397.1 2454.9, 187.0 2329.9 C -23.1 2204.9, 38.1 2492.6, -91.7 2165.3 C -221.6 1838.1, -139.1 1971.6, -139.1 1567.0 C -139.1 1162.5, -148.0 1377.1, -18.1 1049.8 C 111.8 722.5, -40.5 881.7, 169.6 756.6 C 379.7 631.6, 265.6 640.7, 475.7 765.7 C 685.8 890.7, 598.5 707.4, 728.4 1034.6 C 858.2 1361.9, 852.4 1162.5, 852.4 1567.0 Z" fill="#B4E6F8" opacity="0.12" stroke="#B4E6F8" stroke-opacity="0.46" stroke-width="3" filter="url(#soft_coach_20_3679)"/>
  <path d="M 852.4 1567.0 C 852.4 1971.5, 855.3 1841.5, 725.5 2168.8 C 595.6 2496.1, 674.5 2363.9, 464.4 2489.0 C 254.2 2614.0, 397.1 2454.9, 187.0 2329.9 C -23.1 2204.9, 38.1 2492.6, -91.7 2165.3 C -221.6 1838.1, -139.1 1971.6, -139.1 1567.0 C -139.1 1162.5, -148.0 1377.1, -18.1 1049.8 C 111.8 722.5, -40.5 881.7, 169.6 756.6 C 379.7 631.6, 265.6 640.7, 475.7 765.7 C 685.8 890.7, 598.5 707.4, 728.4 1034.6 C 858.2 1361.9, 852.4 1162.5, 852.4 1567.0 Z" fill="none" stroke="#FFFFFF" stroke-opacity="0.22" stroke-width="1.2"/>
  <path d="M -100.0 2462.0 Q 133.3 2482.1, 366.7 2169.8 Q 600.0 1881.1, 833.3 1851.4 Q 1066.7 2113.8, 1300.0 2278.8" fill="none" stroke="#FFFFFF" stroke-opacity="0.38" stroke-width="4" filter="url(#soft_coach_20_3679)"/>
  <path d="M -100.0 2462.0 Q 133.3 2482.1, 366.7 2169.8 Q 600.0 1881.1, 833.3 1851.4 Q 1066.7 2113.8, 1300.0 2278.8" fill="none" stroke="#B891FF" stroke-opacity="0.18" stroke-width="2"/>
  <path d="M -100.0 -139.9 Q 133.3 -57.9, 366.7 68.5 Q 600.0 -57.0, 833.3 -170.2 Q 1066.7 -69.6, 1300.0 67.6" fill="none" stroke="#FFFFFF" stroke-opacity="0.38" stroke-width="4" filter="url(#soft_coach_20_3679)"/>
  <path d="M -100.0 -139.9 Q 133.3 -57.9, 366.7 68.5 Q 600.0 -57.0, 833.3 -170.2 Q 1066.7 -69.6, 1300.0 67.6" fill="none" stroke="#86A8FF" stroke-opacity="0.18" stroke-width="2"/>
  <path d="M -100.0 1748.0 Q 133.3 1985.0, 366.7 2008.5 Q 600.0 1958.5, 833.3 1727.7 Q 1066.7 1756.6, 1300.0 2058.9" fill="none" stroke="#FFFFFF" stroke-opacity="0.38" stroke-width="4" filter="url(#soft_coach_20_3679)"/>
  <path d="M -100.0 1748.0 Q 133.3 1985.0, 366.7 2008.5 Q 600.0 1958.5, 833.3 1727.7 Q 1066.7 1756.6, 1300.0 2058.9" fill="none" stroke="#86A8FF" stroke-opacity="0.18" stroke-width="2"/>
  <path d="M -100.0 738.3 Q 133.3 504.3, 366.7 698.3 Q 600.0 787.9, 833.3 626.9 Q 1066.7 609.2, 1300.0 781.0" fill="none" stroke="#FFFFFF" stroke-opacity="0.38" stroke-width="4" filter="url(#soft_coach_20_3679)"/>
  <path d="M -100.0 738.3 Q 133.3 504.3, 366.7 698.3 Q 600.0 787.9, 833.3 626.9 Q 1066.7 609.2, 1300.0 781.0" fill="none" stroke="#B891FF" stroke-opacity="0.18" stroke-width="2"/>
  <path d="M -100.0 1365.9 Q 133.3 1698.5, 366.7 2151.0 Q 600.0 1773.1, 833.3 1457.7 Q 1066.7 1837.6, 1300.0 2143.0" fill="none" stroke="#FFFFFF" stroke-opacity="0.38" stroke-width="4" filter="url(#soft_coach_20_3679)"/>
  <path d="M -100.0 1365.9 Q 133.3 1698.5, 366.7 2151.0 Q 600.0 1773.1, 833.3 1457.7 Q 1066.7 1837.6, 1300.0 2143.0" fill="none" stroke="#4ECAD1" stroke-opacity="0.18" stroke-width="2"/>
  <circle cx="825" cy="358" r="276" fill="url(#orb_coach_20_3679)" opacity="0.36"/>
  <circle cx="825" cy="358" r="276" fill="#4ECAD1" opacity="0.08"/>
  <circle cx="825" cy="358" r="276" fill="none" stroke="#FFFFFF" stroke-opacity="0.56" stroke-width="3"/>
  <ellipse cx="747.7" cy="258.6" rx="49.7" ry="22.1" fill="#FFFFFF" opacity="0.42" transform="rotate(-22 747.7 258.6)"/>
  <circle cx="146" cy="1133" r="205" fill="url(#orb_coach_20_3679)" opacity="0.36"/>
  <circle cx="146" cy="1133" r="205" fill="#B891FF" opacity="0.08"/>
  <circle cx="146" cy="1133" r="205" fill="none" stroke="#FFFFFF" stroke-opacity="0.56" stroke-width="3"/>
  <ellipse cx="88.6" cy="1059.2" rx="36.9" ry="16.4" fill="#FFFFFF" opacity="0.42" transform="rotate(-22 88.6 1059.2)"/>
  <circle cx="343" cy="2533" r="189" fill="url(#orb_coach_20_3679)" opacity="0.36"/>
  <circle cx="343" cy="2533" r="189" fill="#86A8FF" opacity="0.08"/>
  <circle cx="343" cy="2533" r="189" fill="none" stroke="#FFFFFF" stroke-opacity="0.56" stroke-width="3"/>
  <ellipse cx="290.1" cy="2465.0" rx="34.0" ry="15.1" fill="#FFFFFF" opacity="0.42" transform="rotate(-22 290.1 2465.0)"/>
  <circle cx="1177" cy="740" r="153" fill="url(#orb_coach_20_3679)" opacity="0.16"/>
  <circle cx="1177" cy="740" r="153" fill="#CFF3FF" opacity="0.08"/>
  <circle cx="1177" cy="740" r="153" fill="none" stroke="#FFFFFF" stroke-opacity="0.56" stroke-width="3"/>
  <ellipse cx="1134.2" cy="684.9" rx="27.5" ry="12.2" fill="#FFFFFF" opacity="0.42" transform="rotate(-22 1134.2 684.9)"/>
  <circle cx="980" cy="953" r="177" fill="url(#orb_coach_20_3679)" opacity="0.20"/>
  <circle cx="980" cy="953" r="177" fill="#F7FEFF" opacity="0.08"/>
  <circle cx="980" cy="953" r="177" fill="none" stroke="#FFFFFF" stroke-opacity="0.56" stroke-width="3"/>
  <ellipse cx="930.4" cy="889.3" rx="31.9" ry="14.2" fill="#FFFFFF" opacity="0.42" transform="rotate(-22 930.4 889.3)"/>
  <circle cx="615" cy="1700" r="176" fill="url(#orb_coach_20_3679)" opacity="0.19"/>
  <circle cx="615" cy="1700" r="176" fill="#B891FF" opacity="0.08"/>
  <circle cx="615" cy="1700" r="176" fill="none" stroke="#FFFFFF" stroke-opacity="0.56" stroke-width="3"/>
  <ellipse cx="565.7" cy="1636.6" rx="31.7" ry="14.1" fill="#FFFFFF" opacity="0.42" transform="rotate(-22 565.7 1636.6)"/>
  <circle cx="69" cy="2429" r="146" fill="url(#orb_coach_20_3679)" opacity="0.17"/>
  <circle cx="69" cy="2429" r="146" fill="#CCF7ED" opacity="0.08"/>
  <circle cx="69" cy="2429" r="146" fill="none" stroke="#FFFFFF" stroke-opacity="0.56" stroke-width="3"/>
  <ellipse cx="28.1" cy="2376.4" rx="26.3" ry="11.7" fill="#FFFFFF" opacity="0.42" transform="rotate(-22 28.1 2376.4)"/>
  <circle cx="979" cy="2086" r="281" fill="url(#orb_coach_20_3679)" opacity="0.24"/>
  <circle cx="979" cy="2086" r="281" fill="#B4E6F8" opacity="0.08"/>
  <circle cx="979" cy="2086" r="281" fill="none" stroke="#FFFFFF" stroke-opacity="0.56" stroke-width="3"/>
  <ellipse cx="900.3" cy="1984.8" rx="50.6" ry="22.5" fill="#FFFFFF" opacity="0.42" transform="rotate(-22 900.3 1984.8)"/>
  <circle cx="614" cy="1850" r="105" fill="url(#orb_coach_20_3679)" opacity="0.28"/>
  <circle cx="614" cy="1850" r="105" fill="#F7FEFF" opacity="0.08"/>
  <circle cx="614" cy="1850" r="105" fill="none" stroke="#FFFFFF" stroke-opacity="0.56" stroke-width="3"/>
  <ellipse cx="584.6" cy="1812.2" rx="18.9" ry="8.4" fill="#FFFFFF" opacity="0.42" transform="rotate(-22 584.6 1812.2)"/>
  <circle cx="866" cy="85" r="7" fill="#FFFFFF" opacity="0.69"/>
  <circle cx="280" cy="438" r="3" fill="#FFFFFF" opacity="0.50"/>
  <circle cx="592" cy="1062" r="3" fill="#FFFFFF" opacity="0.30"/>
  <circle cx="611" cy="868" r="4" fill="#FFFFFF" opacity="0.62"/>
  <circle cx="1078" cy="392" r="4" fill="#FFFFFF" opacity="0.41"/>
  <circle cx="424" cy="2497" r="2" fill="#FFFFFF" opacity="0.31"/>
  <circle cx="150" cy="1222" r="3" fill="#FFFFFF" opacity="0.45"/>
  <circle cx="1195" cy="1214" r="4" fill="#FFFFFF" opacity="0.35"/>
  <circle cx="236" cy="321" r="2" fill="#FFFFFF" opacity="0.62"/>
  <circle cx="576" cy="285" r="7" fill="#FFFFFF" opacity="0.47"/>
  <circle cx="381" cy="219" r="3" fill="#FFFFFF" opacity="0.45"/>
  <circle cx="669" cy="1911" r="2" fill="#FFFFFF" opacity="0.45"/>
  <circle cx="1164" cy="1915" r="2" fill="#FFFFFF" opacity="0.71"/>
  <circle cx="874" cy="839" r="4" fill="#FFFFFF" opacity="0.54"/>
  <circle cx="181" cy="664" r="2" fill="#FFFFFF" opacity="0.60"/>
  <circle cx="967" cy="846" r="3" fill="#FFFFFF" opacity="0.48"/>
  <circle cx="409" cy="746" r="5" fill="#FFFFFF" opacity="0.54"/>
  <circle cx="892" cy="1655" r="7" fill="#FFFFFF" opacity="0.53"/>
  <circle cx="627" cy="840" r="3" fill="#FFFFFF" opacity="0.60"/>
  <circle cx="474" cy="1786" r="7" fill="#FFFFFF" opacity="0.62"/>
  <circle cx="1191" cy="363" r="4" fill="#FFFFFF" opacity="0.46"/>
  <circle cx="810" cy="1924" r="4" fill="#FFFFFF" opacity="0.52"/>
  <rect width="1200" height="2600" fill="#FFFFFF" opacity="0.08"/>
  <rect width="1200" height="2600" filter="url(#grain_coach_20_3679)" opacity="0.7"/>
</svg>
