<svg xmlns="http://www.w3.org/2000/svg" width="1200" height="2600" viewBox="0 0 1200 2600" preserveAspectRatio="xMidYMid slice">
  <defs>
    <linearGradient id="bg_coach_19_1963" x1="0" y1="0" x2="1" y2="1">
      <stop offset="0%" stop-color="#B4E6F8"/>
      <stop offset="48%" stop-color="#CFF3FF"/>
      <stop offset="100%" stop-color="#E3E0FF"/>
    </linearGradient>
    <radialGradient id="orb_coach_19_1963" cx="35%" cy="30%" r="70%">
      <stop offset="0%" stop-color="#FFFFFF" stop-opacity="0.85"/>
      <stop offset="42%" stop-color="#FFFFFF" stop-opacity="0.20"/>
      <stop offset="100%" stop-color="#FFFFFF" stop-opacity="0.02"/>
    </radialGradient>
    <filter id="blur_coach_19_1963" x="-30%" y="-30%" width="160%" height="160%">
      <feGaussianBlur stdDeviation="72"/>
    </filter>
    <filter id="soft_coach_19_1963" x="-20%" y="-20%" width="140%" height="140%">
      <feGaussianBlur stdDeviation="10"/>
    </filter>
    <filter id="grain_coach_19_1963">
      <feTurbulence type="fractalNoise" baseFrequency="0.85" numOctaves="2" stitchTiles="stitch"/>
      <feColorMatrix type="saturate" values="0"/>
      <feComponentTransfer>
        <feFuncA type="table" tableValues="0 0.035"/>
      </feComponentTransfer>
    </filter>
  </defs>
  <rect width="1200" height="2600" fill="url(#bg_coach_19_1963)"/>
  <path d="M 399.4 2485.0 C 399.4 2688.4, 474.0 2591.5, 396.7 2747.3 C 319.5 2903.1, 319.4 2918.4, 201.1 2953.8 C 82.8 2989.1, 142.3 3008.1, 38.3 2906.4 C -65.8 2804.7, -18.9 2823.9, -60.0 2632.8 C -101.1 2441.6, -95.3 2523.4, -54.2 2332.2 C -13.1 2141.1, -100.4 2214.8, 3.6 2113.1 C 107.7 2011.4, 88.9 1925.3, 207.3 1960.6 C 325.6 1995.9, 278.7 2084.3, 356.0 2240.1 C 433.2 2395.9, 399.4 2281.6, 399.4 2485.0 Z" fill="#4ECAD1" opacity="0.20" filter="url(#blur_coach_19_1963)"/>
  <path d="M 1792.1 1012.0 C 1792.1 1273.5, 1737.2 1247.1, 1618.6 1447.3 C 1500.0 1647.6, 1613.8 1513.0, 1432.1 1558.4 C 1250.4 1603.8, 1273.6 1662.2, 1113.8 1531.4 C 954.0 1400.7, 1089.0 1448.7, 1025.9 1203.0 C 962.8 957.3, 851.8 1056.1, 914.9 810.4 C 978.0 564.8, 1016.9 627.6, 1176.7 496.9 C 1336.5 366.1, 1249.2 292.4, 1430.9 337.8 C 1612.6 383.2, 1550.3 394.4, 1668.9 594.7 C 1787.5 795.0, 1792.1 750.5, 1792.1 1012.0 Z" fill="#CCF7ED" opacity="0.17" filter="url(#blur_coach_19_1963)"/>
  <path d="M 520.0 -186.0 C 520.0 17.4, 536.4 -32.5, 413.2 123.3 C 289.9 279.2, 303.7 218.9, 115.0 254.2 C -73.8 289.5, 0.6 374.8, -165.4 273.1 C -331.4 171.4, -265.7 147.2, -331.3 -44.0 C -396.9 -235.1, -369.5 -128.7, -303.9 -319.8 C -238.4 -511.0, -328.7 -507.9, -162.7 -609.6 C 3.4 -711.3, -69.9 -647.7, 118.9 -612.4 C 307.7 -577.0, 244.5 -664.3, 367.7 -508.5 C 490.9 -352.7, 520.0 -389.4, 520.0 -186.0 Z" fill="#86A8FF" opacity="0.36" filter="url(#blur_coach_19_1963)"/>
  <path d="M 494.3 1707.0 C 494.3 1977.5, 459.0 1924.5, 391.9 2131.7 C 324.8 2338.9, 376.6 2300.0, 273.8 2346.9 C 171.0 2393.9, 223.1 2434.8, 132.7 2299.6 C 42.3 2164.4, 31.7 2186.5, -4.1 1932.3 C -39.8 1678.2, 6.0 1745.3, 41.7 1491.1 C 77.4 1237.0, 41.6 1332.5, 132.0 1197.3 C 222.4 1062.1, 182.3 1156.9, 285.2 1203.9 C 388.0 1250.9, 324.0 1146.4, 391.1 1353.6 C 458.2 1560.7, 494.3 1436.5, 494.3 1707.0 Z" fill="#F7FEFF" opacity="0.26" filter="url(#blur_coach_19_1963)"/>
  <path d="M 1423.8 1243.0 C 1423.8 1458.1, 1407.5 1429.4, 1328.8 1594.2 C 1250.1 1758.9, 1305.6 1599.7, 1185.1 1637.1 C 1064.5 1674.4, 1087.2 1730.5, 981.2 1623.0 C 875.2 1515.4, 897.9 1588.8, 856.0 1386.7 C 814.1 1184.5, 835.6 1257.9, 877.4 1055.7 C 919.3 853.6, 904.3 1006.0, 1010.3 898.5 C 1116.3 790.9, 1064.3 784.0, 1184.8 821.4 C 1305.4 858.7, 1259.9 789.8, 1338.6 954.5 C 1417.2 1119.3, 1423.8 1027.9, 1423.8 1243.0 Z" fill="#B891FF" opacity="0.29" filter="url(#blur_coach_19_1963)"/>
  <path d="M 511.1 560.0 C 511.1 789.5, 491.3 725.5, 383.7 901.3 C 276.1 1077.1, 338.5 995.2, 173.6 1035.1 C 8.7 1074.9, 43.8 1107.5, -101.1 992.8 C -246.1 878.0, -173.5 960.1, -230.8 744.5 C -288.0 528.8, -286.5 587.3, -229.3 371.7 C -172.0 156.0, -237.2 249.8, -92.2 135.1 C 52.8 20.3, 22.3 1.2, 187.1 41.0 C 352.0 80.9, 310.9 98.3, 418.5 274.1 C 526.1 449.9, 511.1 330.5, 511.1 560.0 Z" fill="#86A8FF" opacity="0.26" filter="url(#blur_coach_19_1963)"/>
  <path d="M 510.6 2621.0 C 510.6 2845.1, 557.8 2782.5, 432.6 2954.2 C 307.3 3125.9, 382.0 3088.4, 190.1 3127.3 C -1.8 3166.2, 83.7 3118.2, -85.0 3006.1 C -253.8 2894.1, -261.4 2997.5, -328.1 2786.9 C -394.7 2576.3, -411.1 2653.4, -344.4 2442.8 C -277.8 2232.2, -230.7 2298.7, -62.0 2186.7 C 106.8 2074.6, 10.7 2115.9, 202.6 2154.8 C 394.5 2193.7, 384.0 2119.7, 509.2 2291.3 C 634.5 2463.0, 510.6 2396.9, 510.6 2621.0 Z" fill="#4ECAD1" opacity="0.33" filter="url(#blur_coach_19_1963)"/>
  <path d="M 548.6 -34.0 C 548.6 91.1, 511.2 54.0, 396.1 149.8 C 281.0 245.7, 353.4 242.4, 177.0 264.1 C 0.6 285.9, 40.3 236.3, -114.8 173.8 C -269.9 111.2, -229.7 183.8, -290.9 66.2 C -352.2 -51.4, -301.6 -23.1, -240.3 -140.7 C -179.1 -258.2, -232.4 -249.5, -77.3 -312.1 C 77.8 -374.6, -2.9 -300.8, 173.4 -279.1 C 349.8 -257.4, 300.9 -281.3, 416.1 -185.4 C 531.2 -89.6, 548.6 -159.1, 548.6 -34.0 Z" fill="#E3E0FF" opacity="0.17" filter="url(#blur_coach_19_1963)"/>
  <path d="M 472.2 -152.0 C 472.2 -17.4, 599.2 -75.3, 440.1 27.8 C 281.0 130.8, 287.5 159.7, 43.7 183.1 C -200.0 206.4, -75.3 129.0, -289.7 61.8 C -504.0 -5.5, -534.2 60.5, -618.9 -66.0 C -703.5 -192.4, -684.6 -134.1, -600.0 -260.6 C -515.3 -387.0, -509.3 -342.3, -295.0 -409.6 C -80.6 -476.9, -187.9 -460.1, 55.8 -436.7 C 299.6 -413.4, 211.1 -452.6, 370.2 -349.5 C 529.3 -246.4, 472.2 -286.6, 472.2 -152.0 Z" fill="#CCF7ED" opacity="0.32" filter="url(#blur_coach_19_1963)"/>
  <path d="M 1292.7 197.0 C 1292.7 473.8, 1264.7 407.6, 1169.0 619.6 C 1073.3 831.6, 1115.4 838.1, 968.7 886.2 C 822.0 934.2, 871.7 812.5, 742.7 674.1 C 613.7 535.7, 683.9 699.5, 633.0 439.5 C 582.1 179.4, 560.4 232.6, 611.4 -27.5 C 662.3 -287.5, 635.6 -277.8, 764.6 -416.1 C 893.6 -554.5, 808.3 -465.4, 955.0 -417.3 C 1101.7 -369.3, 1019.0 -379.8, 1114.8 -167.8 C 1210.5 44.2, 1292.7 -79.8, 1292.7 197.0 Z" fill="#B4E6F8" opacity="0.36" filter="url(#blur_coach_19_1963)"/>
  <path d="M 1330.2 1273.0 C 1330.2 1476.4, 1327.7 1457.8, 1235.2 1613.7 C 1142.6 1769.5, 1166.6 1647.9, 1024.8 1683.2 C 883.0 1718.5, 930.1 1793.2, 805.3 1691.5 C 680.6 1589.8, 689.1 1605.3, 639.8 1414.2 C 590.6 1223.0, 582.5 1313.7, 631.8 1122.5 C 681.0 931.4, 686.0 991.2, 810.7 889.5 C 935.4 787.8, 870.3 834.0, 1012.2 869.3 C 1154.0 904.6, 1137.4 818.3, 1230.0 974.1 C 1322.5 1129.9, 1330.2 1069.6, 1330.2 1273.0 Z" fill="#F7FEFF" opacity="0.27" filter="url(#blur_coach_19_1963)"/>
  <path d="M 527.4 2385.0 C 527.4 2731.5, 594.2 2505.8, 435.2 2786.1 C 276.2 3066.5, 324.3 2968.0, 67.1 3075.1 C -190.1 3182.2, -27.1 3264.2, -284.3 3157.2 C -541.6 3050.1, -405.0 3154.3, -563.9 2873.9 C -722.9 2593.6, -681.7 2731.5, -681.7 2385.0 C -681.7 2038.5, -804.2 2199.6, -645.3 1919.3 C -486.3 1639.0, -536.5 1744.4, -279.3 1637.3 C -22.1 1530.2, -176.4 1612.7, 80.9 1719.8 C 338.1 1826.8, 254.1 1656.3, 413.1 1936.6 C 572.1 2216.9, 527.4 2038.5, 527.4 2385.0 Z" fill="#F7FEFF" opacity="0.12" stroke="#FFFFFF" stroke-opacity="0.46" stroke-width="3" filter="url(#soft_coach_19_1963)"/>
  <path d="M 527.4 2385.0 C 527.4 2731.5, 594.2 2505.8, 435.2 2786.1 C 276.2 3066.5, 324.3 2968.0, 67.1 3075.1 C -190.1 3182.2, -27.1 3264.2, -284.3 3157.2 C -541.6 3050.1, -405.0 3154.3, -563.9 2873.9 C -722.9 2593.6, -681.7 2731.5, -681.7 2385.0 C -681.7 2038.5, -804.2 2199.6, -645.3 1919.3 C -486.3 1639.0, -536.5 1744.4, -279.3 1637.3 C -22.1 1530.2, -176.4 1612.7, 80.9 1719.8 C 338.1 1826.8, 254.1 1656.3, 413.1 1936.6 C 572.1 2216.9, 527.4 2038.5, 527.4 2385.0 Z" fill="none" stroke="#FFFFFF" stroke-opacity="0.22" stroke-width="1.2"/>
  <path d="M 509.0 -53.0 C 509.0 346.6, 549.7 187.8, 470.6 511.1 C 391.6 834.4, 441.6 610.8, 313.6 734.3 C 185.7 857.8, 244.7 990.4, 116.8 866.9 C -11.2 743.5, 77.0 740.5, -2.1 417.2 C -81.2 93.9, -91.9 346.6, -91.9 -53.0 C -91.9 -452.6, -104.8 -298.8, -25.7 -622.1 C 53.4 -945.4, 5.0 -764.9, 133.0 -888.4 C 260.9 -1011.8, 195.5 -1001.5, 323.5 -878.0 C 451.4 -754.6, 369.0 -911.4, 448.1 -588.1 C 527.2 -264.9, 509.0 -452.6, 509.0 -53.0 Z" fill="#E3E0FF" opacity="0.12" stroke="#FFFFFF" stroke-opacity="0.46" stroke-width="3" filter="url(#soft_coach_19_1963)"/>
  <path d="M 509.0 -53.0 C 509.0 346.6, 549.7 187.8, 470.6 511.1 C 391.6 834.4, 441.6 610.8, 313.6 734.3 C 185.7 857.8, 244.7 990.4, 116.8 866.9 C -11.2 743.5, 77.0 740.5, -2.1 417.2 C -81.2 93.9, -91.9 346.6, -91.9 -53.0 C -91.9 -452.6, -104.8 -298.8, -25.7 -622.1 C 53.4 -945.4, 5.0 -764.9, 133.0 -888.4 C 260.9 -1011.8, 195.5 -1001.5, 323.5 -878.0 C 451.4 -754.6, 369.0 -911.4, 448.1 -588.1 C 527.2 -264.9, 509.0 -452.6, 509.0 -53.0 Z" fill="none" stroke="#FFFFFF" stroke-opacity="0.22" stroke-width="1.2"/>
  <path d="M 1329.6 1417.0 C 1329.6 1688.8, 1390.9 1561.6, 1284.3 1781.5 C 1177.7 2001.4, 1250.4 1901.9, 1078.0 1985.8 C 905.5 2069.8, 989.3 2051.1, 816.8 1967.2 C 644.3 1883.2, 774.2 1947.9, 667.6 1728.0 C 561.0 1508.1, 583.3 1688.8, 583.3 1417.0 C 583.3 1145.2, 516.9 1266.5, 623.5 1046.6 C 730.1 826.7, 635.6 974.3, 808.1 890.3 C 980.6 806.3, 913.6 766.6, 1086.0 850.6 C 1258.5 934.5, 1133.0 854.5, 1239.6 1074.4 C 1346.2 1294.3, 1329.6 1145.2, 1329.6 1417.0 Z" fill="#E3E0FF" opacity="0.12" stroke="#FFFFFF" stroke-opacity="0.46" stroke-width="3" filter="url(#soft_coach_19_1963)"/>
  <path d="M 1329.6 1417.0 C 1329.6 1688.8, 1390.9 1561.6, 1284.3 1781.5 C 1177.7 2001.4, 1250.4 1901.9, 1078.0 1985.8 C 905.5 2069.8, 989.3 2051.1, 816.8 1967.2 C 644.3 1883.2, 774.2 1947.9, 667.6 1728.0 C 561.0 1508.1, 583.3 1688.8, 583.3 1417.0 C 583.3 1145.2, 516.9 1266.5, 623.5 1046.6 C 730.1 826.7, 635.6 974.3, 808.1 890.3 C 980.6 806.3, 913.6 766.6, 1086.0 850.6 C 1258.5 934.5, 1133.0 854.5, 1239.6 1074.4 C 1346.2 1294.3, 1329.6 1145.2, 1329.6 1417.0 Z" fill="none" stroke="#FFFFFF" stroke-opacity="0.22" stroke-width="1.2"/>
  <path d="M 589.7 759.0 C 589.7 1137.0, 577.0 966.7, 473.1 1272.5 C 369.1 1578.4, 440.4 1367.4, 272.2 1484.2 C 104.0 1601.0, 227.6 1664.2, 59.4 1547.4 C -108.8 1430.6, -4.8 1505.0, -108.7 1199.2 C -212.7 893.3, -192.3 1137.0, -192.3 759.0 C -192.3 381.0, -295.9 555.3, -191.9 249.5 C -88.0 -56.3, -131.1 18.2, 37.1 -98.6 C 205.3 -215.4, 129.0 -88.2, 297.2 28.7 C 465.4 145.5, 415.2 -47.1, 519.1 258.7 C 623.1 564.5, 589.7 381.0, 589.7 759.0 Z" fill="#E3E0FF" opacity="0.12" stroke="#E3E0FF" stroke-opacity="0.46" stroke-width="3" filter="url(#soft_coach_19_1963)"/>
  <path d="M 589.7 759.0 C 589.7 1137.0, 577.0 966.7, 473.1 1272.5 C 369.1 1578.4, 440.4 1367.4, 272.2 1484.2 C 104.0 1601.0, 227.6 1664.2, 59.4 1547.4 C -108.8 1430.6, -4.8 1505.0, -108.7 1199.2 C -212.7 893.3, -192.3 1137.0, -192.3 759.0 C -192.3 381.0, -295.9 555.3, -191.9 249.5 C -88.0 -56.3, -131.1 18.2, 37.1 -98.6 C 205.3 -215.4, 129.0 -88.2, 297.2 28.7 C 465.4 145.5, 415.2 -47.1, 519.1 258.7 C 623.1 564.5, 589.7 381.0, 589.7 759.0 Z" fill="none" stroke="#FFFFFF" stroke-opacity="0.22" stroke-width="1.2"/>
  <path d="M 1053.6 2844.0 C 1053.6 3017.2, 1089.2 2945.4, 918.1 3085.6 C 747.0 3225.8, 858.1 3204.5, 581.2 3258.0 C 304.3 3311.6, 417.4 3287.9, 140.5 3234.4 C -136.4 3180.8, -25.3 3196.8, -196.5 3056.6 C -367.6 2916.4, -243.6 3017.2, -243.6 2844.0 C -243.6 2670.8, -339.9 2759.0, -168.8 2618.8 C 2.3 2478.6, -133.2 2489.8, 143.7 2436.3 C 420.6 2382.7, 270.8 2465.8, 547.7 2519.4 C 824.6 2572.9, 765.3 2507.4, 936.4 2647.6 C 1107.5 2787.7, 1053.6 2670.8, 1053.6 2844.0 Z" fill="#E3E0FF" opacity="0.12" stroke="#FFFFFF" stroke-opacity="0.46" stroke-width="3" filter="url(#soft_coach_19_1963)"/>
  <path d="M 1053.6 2844.0 C 1053.6 3017.2, 1089.2 2945.4, 918.1 3085.6 C 747.0 3225.8, 858.1 3204.5, 581.2 3258.0 C 304.3 3311.6, 417.4 3287.9, 140.5 3234.4 C -136.4 3180.8, -25.3 3196.8, -196.5 3056.6 C -367.6 2916.4, -243.6 3017.2, -243.6 2844.0 C -243.6 2670.8, -339.9 2759.0, -168.8 2618.8 C 2.3 2478.6, -133.2 2489.8, 143.7 2436.3 C 420.6 2382.7, 270.8 2465.8, 547.7 2519.4 C 824.6 2572.9, 765.3 2507.4, 936.4 2647.6 C 1107.5 2787.7, 1053.6 2670.8, 1053.6 2844.0 Z" fill="none" stroke="#FFFFFF" stroke-opacity="0.22" stroke-width="1.2"/>
  <path d="M 980.8 2808.0 C 980.8 3096.9, 958.9 2903.8, 807.8 3137.5 C 656.8 3371.3, 803.7 3331.0, 559.3 3420.2 C 314.9 3509.5, 441.6 3560.9, 197.2 3471.6 C -47.1 3382.4, 0.7 3368.1, -150.4 3134.4 C -301.4 2900.7, -268.1 3096.9, -268.1 2808.0 C -268.1 2519.1, -250.9 2686.8, -99.9 2453.0 C 51.1 2219.3, -65.9 2225.7, 178.5 2136.4 C 422.9 2047.1, 300.8 2100.0, 545.1 2189.3 C 789.5 2278.5, 678.9 2184.4, 830.0 2418.1 C 981.0 2651.8, 980.8 2519.1, 980.8 2808.0 Z" fill="#86A8FF" opacity="0.12" stroke="#86A8FF" stroke-opacity="0.46" stroke-width="3" filter="url(#soft_coach_19_1963)"/>
  <path d="M 980.8 2808.0 C 980.8 3096.9, 958.9 2903.8, 807.8 3137.5 C 656.8 3371.3, 803.7 3331.0, 559.3 3420.2 C 314.9 3509.5, 441.6 3560.9, 197.2 3471.6 C -47.1 3382.4, 0.7 3368.1, -150.4 3134.4 C -301.4 2900.7, -268.1 3096.9, -268.1 2808.0 C -268.1 2519.1, -250.9 2686.8, -99.9 2453.0 C 51.1 2219.3, -65.9 2225.7, 178.5 2136.4 C 422.9 2047.1, 300.8 2100.0, 545.1 2189.3 C 789.5 2278.5, 678.9 2184.4, 830.0 2418.1 C 981.0 2651.8, 980.8 2519.1, 980.8 2808.0 Z" fill="none" stroke="#FFFFFF" stroke-opacity="0.22" stroke-width="1.2"/>
  <path d="M -100.0 2069.7 Q 133.3 1798.9, 366.7 1499.3 Q 600.0 1309.5, 833.3 1339.7 Q 1066.7 1628.6, 1300.0 2031.8" fill="none" stroke="#FFFFFF" stroke-opacity="0.38" stroke-width="4" filter="url(#soft_coach_19_1963)"/>
  <path d="M -100.0 2069.7 Q 133.3 1798.9, 366.7 1499.3 Q 600.0 1309.5, 833.3 1339.7 Q 1066.7 1628.6, 1300.0 2031.8" fill="none" stroke="#86A8FF" stroke-opacity="0.18" stroke-width="2"/>
  <path d="M -100.0 1982.0 Q 133.3 2050.4, 366.7 1936.2 Q 600.0 1696.4, 833.3 1772.4 Q 1066.7 1908.8, 1300.0 2183.9" fill="none" stroke="#FFFFFF" stroke-opacity="0.38" stroke-width="4" filter="url(#soft_coach_19_1963)"/>
  <path d="M -100.0 1982.0 Q 133.3 2050.4, 366.7 1936.2 Q 600.0 1696.4, 833.3 1772.4 Q 1066.7 1908.8, 1300.0 2183.9" fill="none" stroke="#B891FF" stroke-opacity="0.18" stroke-width="2"/>
  <path d="M -100.0 1327.0 Q 133.3 1392.9, 366.7 1741.3 Q 600.0 1879.6, 833.3 1815.0 Q 1066.7 1357.8, 1300.0 1422.0" fill="none" stroke="#FFFFFF" stroke-opacity="0.38" stroke-width="4" filter="url(#soft_coach_19_1963)"/>
  <path d="M -100.0 1327.0 Q 133.3 1392.9, 366.7 1741.3 Q 600.0 1879.6, 833.3 1815.0 Q 1066.7 1357.8, 1300.0 1422.0" fill="none" stroke="#4ECAD1" stroke-opacity="0.18" stroke-width="2"/>
  <circle cx="903" cy="563" r="142" fill="url(#orb_coach_19_1963)" opacity="0.36"/>
  <circle cx="903" cy="563" r="142" fill="#86A8FF" opacity="0.08"/>
  <circle cx="903" cy="563" r="142" fill="none" stroke="#FFFFFF" stroke-opacity="0.56" stroke-width="3"/>
  <ellipse cx="863.2" cy="511.9" rx="25.6" ry="11.4" fill="#FFFFFF" opacity="0.42" transform="rotate(-22 863.2 511.9)"/>
  <circle cx="376" cy="2409" r="207" fill="url(#orb_coach_19_1963)" opacity="0.36"/>
  <circle cx="376" cy="2409" r="207" fill="#86A8FF" opacity="0.08"/>
  <circle cx="376" cy="2409" r="207" fill="none" stroke="#FFFFFF" stroke-opacity="0.56" stroke-width="3"/>
  <ellipse cx="318.0" cy="2334.5" rx="37.3" ry="16.6" fill="#FFFFFF" opacity="0.42" transform="rotate(-22 318.0 2334.5)"/>
  <circle cx="923" cy="1659" r="151" fill="url(#orb_coach_19_1963)" opacity="0.36"/>
  <circle cx="923" cy="1659" r="151" fill="#B4E6F8" opacity="0.08"/>
  <circle cx="923" cy="1659" r="151" fill="none" stroke="#FFFFFF" stroke-opacity="0.56" stroke-width="3"/>
  <ellipse cx="880.7" cy="1604.6" rx="27.2" ry="12.1" fill="#FFFFFF" opacity="0.42" transform="rotate(-22 880.7 1604.6)"/>
  <circle cx="731" cy="1089" r="268" fill="url(#orb_coach_19_1963)" opacity="0.24"/>
  <circle cx="731" cy="1089" r="268" fill="#86A8FF" opacity="0.08"/>
  <circle cx="731" cy="1089" r="268" fill="none" stroke="#FFFFFF" stroke-opacity="0.56" stroke-width="3"/>
  <ellipse cx="656.0" cy="992.5" rx="48.2" ry="21.4" fill="#FFFFFF" opacity="0.42" transform="rotate(-22 656.0 992.5)"/>
  <circle cx="-59" cy="1186" r="166" fill="url(#orb_coach_19_1963)" opacity="0.24"/>
  <circle cx="-59" cy="1186" r="166" fill="#B4E6F8" opacity="0.08"/>
  <circle cx="-59" cy="1186" r="166" fill="none" stroke="#FFFFFF" stroke-opacity="0.56" stroke-width="3"/>
  <ellipse cx="-105.5" cy="1126.2" rx="29.9" ry="13.3" fill="#FFFFFF" opacity="0.42" transform="rotate(-22 -105.5 1126.2)"/>
  <circle cx="171" cy="1177" r="205" fill="url(#orb_coach_19_1963)" opacity="0.19"/>
  <circle cx="171" cy="1177" r="205" fill="#F7FEFF" opacity="0.08"/>
  <circle cx="171" cy="1177" r="205" fill="none" stroke="#FFFFFF" stroke-opacity="0.56" stroke-width="3"/>
  <ellipse cx="113.6" cy="1103.2" rx="36.9" ry="16.4" fill="#FFFFFF" opacity="0.42" transform="rotate(-22 113.6 1103.2)"/>
  <circle cx="761" cy="-36" r="146" fill="url(#orb_coach_19_1963)" opacity="0.23"/>
  <circle cx="761" cy="-36" r="146" fill="#CCF7ED" opacity="0.08"/>
  <circle cx="761" cy="-36" r="146" fill="none" stroke="#FFFFFF" stroke-opacity="0.56" stroke-width="3"/>
  <ellipse cx="720.1" cy="-88.6" rx="26.3" ry="11.7" fill="#FFFFFF" opacity="0.42" transform="rotate(-22 720.1 -88.6)"/>
  <circle cx="1188" cy="1921" r="103" fill="url(#orb_coach_19_1963)" opacity="0.25"/>
  <circle cx="1188" cy="1921" r="103" fill="#B4E6F8" opacity="0.08"/>
  <circle cx="1188" cy="1921" r="103" fill="none" stroke="#FFFFFF" stroke-opacity="0.56" stroke-width="3"/>
  <ellipse cx="1159.2" cy="1883.9" rx="18.5" ry="8.2" fill="#FFFFFF" opacity="0.42" transform="rotate(-22 1159.2 1883.9)"/>
  <circle cx="-4" cy="2607" r="146" fill="url(#orb_coach_19_1963)" opacity="0.25"/>
  <circle cx="-4" cy="2607" r="146" fill="#CCF7ED" opacity="0.08"/>
  <circle cx="-4" cy="2607" r="146" fill="none" stroke="#FFFFFF" stroke-opacity="0.56" stroke-width="3"/>
  <ellipse cx="-44.9" cy="2554.4" rx="26.3" ry="11.7" fill="#FFFFFF" opacity="0.42" transform="rotate(-22 -44.9 2554.4)"/>
  <circle cx="997" cy="494" r="214" fill="url(#orb_coach_19_1963)" opacity="0.22"/>
  <circle cx="997" cy="494" r="214" fill="#4ECAD1" opacity="0.08"/>
  <circle cx="997" cy="494" r="214" fill="none" stroke="#FFFFFF" stroke-opacity="0.56" stroke-width="3"/>
  <ellipse cx="937.1" cy="417.0" rx="38.5" ry="17.1" fill="#FFFFFF" opacity="0.42" transform="rotate(-22 937.1 417.0)"/>
  <circle cx="623" cy="2142" r="7" fill="#FFFFFF" opacity="0.63"/>
  <circle cx="789" cy="2337" r="3" fill="#FFFFFF" opacity="0.45"/>
  <circle cx="1096" cy="1136" r="7" fill="#FFFFFF" opacity="0.65"/>
  <circle cx="22" cy="1510" r="7" fill="#FFFFFF" opacity="0.64"/>
  <circle cx="607" cy="553" r="3" fill="#FFFFFF" opacity="0.36"/>
  <circle cx="712" cy="1751" r="3" fill="#FFFFFF" opacity="0.69"/>
  <circle cx="976" cy="2110" r="5" fill="#FFFFFF" opacity="0.64"/>
  <circle cx="617" cy="814" r="3" fill="#FFFFFF" opacity="0.43"/>
  <circle cx="726" cy="407" r="7" fill="#FFFFFF" opacity="0.71"/>
  <circle cx="371" cy="228" r="5" fill="#FFFFFF" opacity="0.46"/>
  <circle cx="1094" cy="224" r="5" fill="#FFFFFF" opacity="0.42"/>
  <circle cx="979" cy="1176" r="3" fill="#FFFFFF" opacity="0.61"/>
  <circle cx="963" cy="1948" r="7" fill="#FFFFFF" opacity="0.42"/>
  <circle cx="59" cy="2404" r="4" fill="#FFFFFF" opacity="0.37"/>
  <circle cx="365" cy="1011" r="5" fill="#FFFFFF" opacity="0.53"/>
  <circle cx="52" cy="1808" r="5" fill="#FFFFFF" opacity="0.57"/>
  <rect width="1200" height="2600" fill="#FFFFFF" opacity="0.08"/>
  <rect width="1200" height="2600" filter="url(#grain_coach_19_1963)" opacity="0.7"/>
</svg>
