<svg xmlns="http://www.w3.org/2000/svg" width="1200" height="2600" viewBox="0 0 1200 2600" preserveAspectRatio="xMidYMid slice">
  <defs>
    <linearGradient id="bg_coach_17_7176" x1="0" y1="0" x2="1" y2="1">
      <stop offset="0%" stop-color="#F7FEFF"/>
      <stop offset="48%" stop-color="#CFF3FF"/>
      <stop offset="100%" stop-color="#B4E6F8"/>
    </linearGradient>
    <radialGradient id="orb_coach_17_7176" cx="35%" cy="30%" r="70%">
      <stop offset="0%" stop-color="#FFFFFF" stop-opacity="0.85"/>
      <stop offset="42%" stop-color="#FFFFFF" stop-opacity="0.20"/>
      <stop offset="100%" stop-color="#FFFFFF" stop-opacity="0.02"/>
    </radialGradient>
    <filter id="blur_coach_17_7176" x="-30%" y="-30%" width="160%" height="160%">
      <feGaussianBlur stdDeviation="72"/>
    </filter>
    <filter id="soft_coach_17_7176" x="-20%" y="-20%" width="140%" height="140%">
      <feGaussianBlur stdDeviation="10"/>
    </filter>
    <filter id="grain_coach_17_7176">
      <feTurbulence type="fractalNoise" baseFrequency="0.85" numOctaves="2" stitchTiles="stitch"/>
      <feColorMatrix type="saturate" values="0"/>
      <feComponentTransfer>
        <feFuncA type="table" tableValues="0 0.035"/>
      </feComponentTransfer>
    </filter>
  </defs>
  <rect width="1200" height="2600" fill="url(#bg_coach_17_7176)"/>
  <path d="M 1478.0 2773.0 C 1478.0 3002.1, 1580.6 2869.5, 1451.6 3044.9 C 1322.6 3220.4, 1371.2 3180.9, 1173.6 3220.7 C 975.9 3260.5, 1023.4 3281.3, 849.6 3166.7 C 675.8 3052.2, 783.4 3141.9, 714.8 2926.6 C 646.1 2711.4, 601.2 2797.8, 669.8 2582.5 C 738.5 2367.3, 670.0 2411.2, 843.8 2296.7 C 1017.7 2182.1, 977.9 2197.9, 1175.6 2237.7 C 1373.2 2277.5, 1253.4 2317.0, 1382.4 2492.5 C 1511.4 2667.9, 1478.0 2543.9, 1478.0 2773.0 Z" fill="#CFF3FF" opacity="0.21" filter="url(#blur_coach_17_7176)"/>
  <path d="M 583.5 2402.0 C 583.5 2670.2, 513.0 2588.8, 410.6 2794.2 C 308.2 2999.7, 405.0 2850.4, 248.1 2897.0 C 91.2 2943.6, 170.1 3051.3, 32.1 2917.2 C -105.8 2783.1, -104.7 2823.7, -159.2 2571.7 C -213.7 2319.7, -178.6 2438.8, -124.1 2186.7 C -69.6 1934.7, -156.4 1929.1, -18.4 1795.0 C 119.5 1660.9, 88.0 1807.8, 244.9 1854.4 C 401.8 1900.9, 394.1 1744.9, 496.5 1950.4 C 598.9 2155.8, 583.5 2133.8, 583.5 2402.0 Z" fill="#E3E0FF" opacity="0.19" filter="url(#blur_coach_17_7176)"/>
  <path d="M 971.5 169.0 C 971.5 458.8, 1023.3 355.2, 877.0 577.2 C 730.6 799.2, 822.6 653.5, 598.4 703.8 C 374.1 754.1, 413.9 809.1, 216.7 664.2 C 19.5 519.3, 51.3 640.1, -26.6 367.7 C -104.5 95.4, -26.9 204.2, 51.0 -68.1 C 128.9 -340.4, 29.5 -295.3, 226.7 -440.2 C 423.9 -585.1, 349.6 -618.1, 573.9 -567.8 C 798.1 -517.5, 695.5 -512.5, 841.8 -290.5 C 988.2 -68.5, 971.5 -120.8, 971.5 169.0 Z" fill="#4ECAD1" opacity="0.30" filter="url(#blur_coach_17_7176)"/>
  <path d="M 1430.1 2589.0 C 1430.1 2856.8, 1468.2 2705.9, 1335.7 2911.0 C 1203.2 3116.1, 1212.0 3212.1, 1009.1 3258.6 C 806.1 3305.1, 860.2 3317.2, 681.7 3183.3 C 503.2 3049.5, 533.3 3037.1, 462.8 2785.5 C 392.3 2533.9, 459.5 2663.7, 530.0 2412.1 C 600.5 2160.5, 520.3 2171.0, 698.8 2037.1 C 877.3 1903.2, 814.0 2021.5, 1016.9 2068.0 C 1219.9 2114.5, 1145.6 1995.3, 1278.1 2200.4 C 1410.6 2405.5, 1430.1 2321.2, 1430.1 2589.0 Z" fill="#E3E0FF" opacity="0.26" filter="url(#blur_coach_17_7176)"/>
  <path d="M 570.9 2299.0 C 570.9 2579.3, 670.3 2520.3, 553.1 2735.1 C 436.0 2949.9, 441.5 2948.0, 262.0 2996.6 C 82.5 3045.3, 167.6 3025.1, 9.8 2884.9 C -148.1 2744.7, -103.8 2805.8, -166.1 2542.3 C -228.4 2278.9, -292.3 2354.3, -229.9 2090.9 C -167.6 1827.4, -145.5 1844.3, 12.3 1704.1 C 170.1 1563.9, 96.4 1590.4, 275.8 1639.1 C 455.3 1687.8, 404.3 1750.2, 521.5 1964.9 C 638.6 2179.7, 570.9 2018.7, 570.9 2299.0 Z" fill="#CFF3FF" opacity="0.28" filter="url(#blur_coach_17_7176)"/>
  <path d="M 416.3 -24.0 C 416.3 226.7, 418.4 196.3, 309.9 388.3 C 201.4 580.3, 244.3 567.1, 78.1 610.6 C -88.1 654.1, -61.4 603.6, -207.6 478.3 C -353.7 353.0, -270.6 390.0, -328.4 154.5 C -386.1 -81.0, -401.4 5.8, -343.7 -229.7 C -286.0 -465.3, -347.9 -454.8, -201.8 -580.1 C -55.7 -705.4, -82.3 -591.0, 83.9 -547.4 C 250.0 -503.9, 209.2 -546.4, 317.7 -354.4 C 426.1 -162.4, 416.3 -274.6, 416.3 -24.0 Z" fill="#CCF7ED" opacity="0.20" filter="url(#blur_coach_17_7176)"/>
  <path d="M 1515.3 2533.0 C 1515.3 2748.6, 1472.8 2635.9, 1360.8 2801.0 C 1248.9 2966.1, 1297.0 2958.9, 1125.5 2996.3 C 954.0 3033.7, 1050.0 2988.8, 899.2 2881.0 C 748.3 2773.2, 760.5 2894.9, 700.9 2692.4 C 641.3 2489.8, 675.5 2585.1, 735.1 2382.5 C 794.6 2180.0, 715.1 2184.5, 865.9 2076.7 C 1016.8 1968.9, 966.4 1974.0, 1137.9 2011.4 C 1309.5 2048.8, 1289.6 2074.5, 1401.6 2239.7 C 1513.5 2404.8, 1515.3 2317.4, 1515.3 2533.0 Z" fill="#F7FEFF" opacity="0.21" filter="url(#blur_coach_17_7176)"/>
  <path d="M 684.3 343.0 C 684.3 532.0, 696.6 466.7, 559.0 611.5 C 421.3 756.3, 498.6 729.4, 287.7 762.2 C 76.7 795.0, 137.6 863.0, -47.9 768.5 C -233.4 674.0, -232.9 671.3, -306.1 493.7 C -379.4 316.1, -266.2 362.9, -193.0 185.3 C -119.7 7.7, -239.5 35.1, -54.0 -59.4 C 131.5 -153.9, 89.5 -45.4, 300.4 -12.5 C 511.4 20.3, 402.2 -89.7, 539.9 55.1 C 677.5 199.8, 684.3 154.0, 684.3 343.0 Z" fill="#E3E0FF" opacity="0.36" filter="url(#blur_coach_17_7176)"/>
  <path d="M 1167.0 2514.0 C 1167.0 2797.5, 1217.7 2698.8, 1091.0 2916.0 C 964.3 3133.1, 1011.8 2986.9, 817.7 3036.2 C 623.6 3085.4, 709.0 3181.8, 538.3 3040.0 C 367.6 2898.3, 376.5 2988.7, 309.0 2722.3 C 241.6 2455.9, 312.1 2601.4, 379.6 2335.0 C 447.0 2068.6, 364.1 2025.6, 534.8 1883.9 C 705.5 1742.1, 616.0 1769.7, 810.1 1818.9 C 1004.2 1868.2, 962.9 1918.2, 1089.5 2135.4 C 1216.2 2352.6, 1167.0 2230.5, 1167.0 2514.0 Z" fill="#E3E0FF" opacity="0.37" filter="url(#blur_coach_17_7176)"/>
  <path d="M 544.8 -113.0 C 544.8 69.7, 534.5 -18.9, 393.5 129.0 C 252.5 276.8, 377.5 239.3, 149.3 295.7 C -78.8 352.2, 50.1 357.1, -178.0 300.7 C -406.1 244.2, -288.9 254.1, -429.9 106.3 C -570.8 -41.5, -624.3 69.7, -624.3 -113.0 C -624.3 -295.7, -617.0 -217.6, -476.0 -365.4 C -335.0 -513.2, -426.3 -479.7, -198.2 -536.2 C 29.9 -592.6, -116.6 -587.0, 111.5 -530.5 C 339.6 -474.1, 271.9 -526.7, 412.9 -378.9 C 553.9 -231.1, 544.8 -295.7, 544.8 -113.0 Z" fill="#B4E6F8" opacity="0.12" stroke="#B4E6F8" stroke-opacity="0.46" stroke-width="3" filter="url(#soft_coach_17_7176)"/>
  <path d="M 544.8 -113.0 C 544.8 69.7, 534.5 -18.9, 393.5 129.0 C 252.5 276.8, 377.5 239.3, 149.3 295.7 C -78.8 352.2, 50.1 357.1, -178.0 300.7 C -406.1 244.2, -288.9 254.1, -429.9 106.3 C -570.8 -41.5, -624.3 69.7, -624.3 -113.0 C -624.3 -295.7, -617.0 -217.6, -476.0 -365.4 C -335.0 -513.2, -426.3 -479.7, -198.2 -536.2 C 29.9 -592.6, -116.6 -587.0, 111.5 -530.5 C 339.6 -474.1, 271.9 -526.7, 412.9 -378.9 C 553.9 -231.1, 544.8 -295.7, 544.8 -113.0 Z" fill="none" stroke="#FFFFFF" stroke-opacity="0.22" stroke-width="1.2"/>
  <path d="M 372.1 -170.0 C 372.1 186.9, 431.3 -20.6, 341.9 268.1 C 252.5 556.8, 311.2 466.8, 166.5 577.1 C 21.9 687.3, 98.7 686.7, -46.0 576.5 C -190.6 466.2, -162.7 571.7, -252.1 283.0 C -341.5 -5.7, -317.5 186.9, -317.5 -170.0 C -317.5 -526.8, -304.0 -321.2, -214.6 -609.9 C -125.2 -898.6, -190.7 -902.6, -46.1 -1012.9 C 98.6 -1123.2, 6.8 -953.5, 151.4 -843.2 C 296.1 -732.9, 227.9 -899.7, 317.3 -611.0 C 406.7 -322.3, 372.1 -526.9, 372.1 -170.0 Z" fill="#B4E6F8" opacity="0.12" stroke="#FFFFFF" stroke-opacity="0.46" stroke-width="3" filter="url(#soft_coach_17_7176)"/>
  <path d="M 372.1 -170.0 C 372.1 186.9, 431.3 -20.6, 341.9 268.1 C 252.5 556.8, 311.2 466.8, 166.5 577.1 C 21.9 687.3, 98.7 686.7, -46.0 576.5 C -190.6 466.2, -162.7 571.7, -252.1 283.0 C -341.5 -5.7, -317.5 186.9, -317.5 -170.0 C -317.5 -526.8, -304.0 -321.2, -214.6 -609.9 C -125.2 -898.6, -190.7 -902.6, -46.1 -1012.9 C 98.6 -1123.2, 6.8 -953.5, 151.4 -843.2 C 296.1 -732.9, 227.9 -899.7, 317.3 -611.0 C 406.7 -322.3, 372.1 -526.9, 372.1 -170.0 Z" fill="none" stroke="#FFFFFF" stroke-opacity="0.22" stroke-width="1.2"/>
  <path d="M 1081.8 864.0 C 1081.8 1090.3, 1160.9 995.7, 1063.5 1178.8 C 966.2 1362.0, 1006.9 1296.0, 849.4 1366.0 C 692.0 1435.9, 794.7 1414.5, 637.3 1344.6 C 479.8 1274.6, 517.0 1382.6, 419.7 1199.5 C 322.4 1016.4, 341.6 1090.4, 341.6 864.0 C 341.6 637.7, 345.7 754.6, 443.0 571.4 C 540.4 388.3, 456.4 434.4, 613.9 364.4 C 771.4 294.5, 699.5 377.9, 857.0 447.9 C 1014.5 517.8, 937.2 393.7, 1034.5 576.8 C 1131.8 759.9, 1081.8 637.6, 1081.8 864.0 Z" fill="#B4E6F8" opacity="0.12" stroke="#FFFFFF" stroke-opacity="0.46" stroke-width="3" filter="url(#soft_coach_17_7176)"/>
  <path d="M 1081.8 864.0 C 1081.8 1090.3, 1160.9 995.7, 1063.5 1178.8 C 966.2 1362.0, 1006.9 1296.0, 849.4 1366.0 C 692.0 1435.9, 794.7 1414.5, 637.3 1344.6 C 479.8 1274.6, 517.0 1382.6, 419.7 1199.5 C 322.4 1016.4, 341.6 1090.4, 341.6 864.0 C 341.6 637.7, 345.7 754.6, 443.0 571.4 C 540.4 388.3, 456.4 434.4, 613.9 364.4 C 771.4 294.5, 699.5 377.9, 857.0 447.9 C 1014.5 517.8, 937.2 393.7, 1034.5 576.8 C 1131.8 759.9, 1081.8 637.6, 1081.8 864.0 Z" fill="none" stroke="#FFFFFF" stroke-opacity="0.22" stroke-width="1.2"/>
  <path d="M 1194.4 -268.0 C 1194.4 -76.3, 1327.4 -155.1, 1216.1 -0.1 C 1104.7 155.0, 1147.2 42.1, 967.0 101.4 C 786.8 160.6, 880.1 238.3, 699.9 179.1 C 519.7 119.9, 610.5 114.2, 499.2 -40.9 C 387.8 -196.0, 408.3 -76.3, 408.3 -268.0 C 408.3 -459.7, 392.9 -374.7, 504.3 -529.8 C 615.6 -684.9, 536.4 -657.0, 716.6 -716.3 C 896.7 -775.5, 790.5 -699.5, 970.6 -640.3 C 1150.8 -581.1, 1103.5 -657.1, 1214.8 -502.0 C 1326.2 -346.9, 1194.4 -459.7, 1194.4 -268.0 Z" fill="#E3E0FF" opacity="0.12" stroke="#FFFFFF" stroke-opacity="0.46" stroke-width="3" filter="url(#soft_coach_17_7176)"/>
  <path d="M 1194.4 -268.0 C 1194.4 -76.3, 1327.4 -155.1, 1216.1 -0.1 C 1104.7 155.0, 1147.2 42.1, 967.0 101.4 C 786.8 160.6, 880.1 238.3, 699.9 179.1 C 519.7 119.9, 610.5 114.2, 499.2 -40.9 C 387.8 -196.0, 408.3 -76.3, 408.3 -268.0 C 408.3 -459.7, 392.9 -374.7, 504.3 -529.8 C 615.6 -684.9, 536.4 -657.0, 716.6 -716.3 C 896.7 -775.5, 790.5 -699.5, 970.6 -640.3 C 1150.8 -581.1, 1103.5 -657.1, 1214.8 -502.0 C 1326.2 -346.9, 1194.4 -459.7, 1194.4 -268.0 Z" fill="none" stroke="#FFFFFF" stroke-opacity="0.22" stroke-width="1.2"/>
  <path d="M -100.0 1418.3 Q 133.3 1510.6, 366.7 1378.2 Q 600.0 1288.4, 833.3 1352.4 Q 1066.7 1469.9, 1300.0 1413.4" fill="none" stroke="#FFFFFF" stroke-opacity="0.38" stroke-width="4" filter="url(#soft_coach_17_7176)"/>
  <path d="M -100.0 1418.3 Q 133.3 1510.6, 366.7 1378.2 Q 600.0 1288.4, 833.3 1352.4 Q 1066.7 1469.9, 1300.0 1413.4" fill="none" stroke="#4ECAD1" stroke-opacity="0.18" stroke-width="2"/>
  <path d="M -100.0 381.1 Q 133.3 442.3, 366.7 647.2 Q 600.0 648.8, 833.3 301.0 Q 1066.7 326.8, 1300.0 578.3" fill="none" stroke="#FFFFFF" stroke-opacity="0.38" stroke-width="4" filter="url(#soft_coach_17_7176)"/>
  <path d="M -100.0 381.1 Q 133.3 442.3, 366.7 647.2 Q 600.0 648.8, 833.3 301.0 Q 1066.7 326.8, 1300.0 578.3" fill="none" stroke="#B891FF" stroke-opacity="0.18" stroke-width="2"/>
  <path d="M -100.0 410.5 Q 133.3 399.6, 366.7 482.1 Q 600.0 420.3, 833.3 281.3 Q 1066.7 224.0, 1300.0 153.6" fill="none" stroke="#FFFFFF" stroke-opacity="0.38" stroke-width="4" filter="url(#soft_coach_17_7176)"/>
  <path d="M -100.0 410.5 Q 133.3 399.6, 366.7 482.1 Q 600.0 420.3, 833.3 281.3 Q 1066.7 224.0, 1300.0 153.6" fill="none" stroke="#86A8FF" stroke-opacity="0.18" stroke-width="2"/>
  <path d="M -100.0 1145.6 Q 133.3 858.3, 366.7 510.1 Q 600.0 840.6, 833.3 1180.8 Q 1066.7 1152.4, 1300.0 810.4" fill="none" stroke="#FFFFFF" stroke-opacity="0.38" stroke-width="4" filter="url(#soft_coach_17_7176)"/>
  <path d="M -100.0 1145.6 Q 133.3 858.3, 366.7 510.1 Q 600.0 840.6, 833.3 1180.8 Q 1066.7 1152.4, 1300.0 810.4" fill="none" stroke="#B891FF" stroke-opacity="0.18" stroke-width="2"/>
  <path d="M -100.0 1378.6 Q 133.3 1238.3, 366.7 1572.0 Q 600.0 1866.2, 833.3 1712.8 Q 1066.7 1303.7, 1300.0 1334.1" fill="none" stroke="#FFFFFF" stroke-opacity="0.38" stroke-width="4" filter="url(#soft_coach_17_7176)"/>
  <path d="M -100.0 1378.6 Q 133.3 1238.3, 366.7 1572.0 Q 600.0 1866.2, 833.3 1712.8 Q 1066.7 1303.7, 1300.0 1334.1" fill="none" stroke="#4ECAD1" stroke-opacity="0.18" stroke-width="2"/>
  <circle cx="644" cy="277" r="214" fill="url(#orb_coach_17_7176)" opacity="0.36"/>
  <circle cx="644" cy="277" r="214" fill="#CFF3FF" opacity="0.08"/>
  <circle cx="644" cy="277" r="214" fill="none" stroke="#FFFFFF" stroke-opacity="0.56" stroke-width="3"/>
  <ellipse cx="584.1" cy="200.0" rx="38.5" ry="17.1" fill="#FFFFFF" opacity="0.42" transform="rotate(-22 584.1 200.0)"/>
  <circle cx="808" cy="2430" r="202" fill="url(#orb_coach_17_7176)" opacity="0.36"/>
  <circle cx="808" cy="2430" r="202" fill="#F7FEFF" opacity="0.08"/>
  <circle cx="808" cy="2430" r="202" fill="none" stroke="#FFFFFF" stroke-opacity="0.56" stroke-width="3"/>
  <ellipse cx="751.4" cy="2357.3" rx="36.4" ry="16.2" fill="#FFFFFF" opacity="0.42" transform="rotate(-22 751.4 2357.3)"/>
  <circle cx="532" cy="421" r="116" fill="url(#orb_coach_17_7176)" opacity="0.36"/>
  <circle cx="532" cy="421" r="116" fill="#E3E0FF" opacity="0.08"/>
  <circle cx="532" cy="421" r="116" fill="none" stroke="#FFFFFF" stroke-opacity="0.56" stroke-width="3"/>
  <ellipse cx="499.5" cy="379.2" rx="20.9" ry="9.3" fill="#FFFFFF" opacity="0.42" transform="rotate(-22 499.5 379.2)"/>
  <circle cx="659" cy="1082" r="180" fill="url(#orb_coach_17_7176)" opacity="0.26"/>
  <circle cx="659" cy="1082" r="180" fill="#CCF7ED" opacity="0.08"/>
  <circle cx="659" cy="1082" r="180" fill="none" stroke="#FFFFFF" stroke-opacity="0.56" stroke-width="3"/>
  <ellipse cx="608.6" cy="1017.2" rx="32.4" ry="14.4" fill="#FFFFFF" opacity="0.42" transform="rotate(-22 608.6 1017.2)"/>
  <circle cx="1048" cy="1938" r="237" fill="url(#orb_coach_17_7176)" opacity="0.19"/>
  <circle cx="1048" cy="1938" r="237" fill="#CFF3FF" opacity="0.08"/>
  <circle cx="1048" cy="1938" r="237" fill="none" stroke="#FFFFFF" stroke-opacity="0.56" stroke-width="3"/>
  <ellipse cx="981.6" cy="1852.7" rx="42.7" ry="19.0" fill="#FFFFFF" opacity="0.42" transform="rotate(-22 981.6 1852.7)"/>
  <circle cx="796" cy="1859" r="124" fill="url(#orb_coach_17_7176)" opacity="0.26"/>
  <circle cx="796" cy="1859" r="124" fill="#86A8FF" opacity="0.08"/>
  <circle cx="796" cy="1859" r="124" fill="none" stroke="#FFFFFF" stroke-opacity="0.56" stroke-width="3"/>
  <ellipse cx="761.3" cy="1814.4" rx="22.3" ry="9.9" fill="#FFFFFF" opacity="0.42" transform="rotate(-22 761.3 1814.4)"/>
  <circle cx="951" cy="1064" r="161" fill="url(#orb_coach_17_7176)" opacity="0.24"/>
  <circle cx="951" cy="1064" r="161" fill="#F7FEFF" opacity="0.08"/>
  <circle cx="951" cy="1064" r="161" fill="none" stroke="#FFFFFF" stroke-opacity="0.56" stroke-width="3"/>
  <ellipse cx="905.9" cy="1006.0" rx="29.0" ry="12.9" fill="#FFFFFF" opacity="0.42" transform="rotate(-22 905.9 1006.0)"/>
  <circle cx="776" cy="1341" r="238" fill="url(#orb_coach_17_7176)" opacity="0.21"/>
  <circle cx="776" cy="1341" r="238" fill="#F7FEFF" opacity="0.08"/>
  <circle cx="776" cy="1341" r="238" fill="none" stroke="#FFFFFF" stroke-opacity="0.56" stroke-width="3"/>
  <ellipse cx="709.4" cy="1255.3" rx="42.8" ry="19.0" fill="#FFFFFF" opacity="0.42" transform="rotate(-22 709.4 1255.3)"/>
  <circle cx="629" cy="1671" r="131" fill="url(#orb_coach_17_7176)" opacity="0.24"/>
  <circle cx="629" cy="1671" r="131" fill="#4ECAD1" opacity="0.08"/>
  <circle cx="629" cy="1671" r="131" fill="none" stroke="#FFFFFF" stroke-opacity="0.56" stroke-width="3"/>
  <ellipse cx="592.3" cy="1623.8" rx="23.6" ry="10.5" fill="#FFFFFF" opacity="0.42" transform="rotate(-22 592.3 1623.8)"/>
  <circle cx="76" cy="1595" r="4" fill="#FFFFFF" opacity="0.46"/>
  <circle cx="1129" cy="537" r="4" fill="#FFFFFF" opacity="0.37"/>
  <circle cx="412" cy="280" r="3" fill="#FFFFFF" opacity="0.50"/>
  <circle cx="1174" cy="2511" r="3" fill="#FFFFFF" opacity="0.42"/>
  <circle cx="392" cy="1209" r="2" fill="#FFFFFF" opacity="0.71"/>
  <circle cx="1081" cy="37" r="5" fill="#FFFFFF" opacity="0.70"/>
  <circle cx="1072" cy="346" r="4" fill="#FFFFFF" opacity="0.55"/>
  <circle cx="1108" cy="456" r="4" fill="#FFFFFF" opacity="0.33"/>
  <circle cx="234" cy="1272" r="3" fill="#FFFFFF" opacity="0.65"/>
  <circle cx="120" cy="2339" r="7" fill="#FFFFFF" opacity="0.56"/>
  <circle cx="1058" cy="138" r="5" fill="#FFFFFF" opacity="0.71"/>
  <circle cx="342" cy="826" r="4" fill="#FFFFFF" opacity="0.54"/>
  <circle cx="296" cy="2445" r="4" fill="#FFFFFF" opacity="0.67"/>
  <circle cx="1140" cy="2300" r="4" fill="#FFFFFF" opacity="0.61"/>
  <rect width="1200" height="2600" fill="#FFFFFF" opacity="0.08"/>
  <rect width="1200" height="2600" filter="url(#grain_coach_17_7176)" opacity="0.7"/>
</svg>
