<svg xmlns="http://www.w3.org/2000/svg" width="1200" height="2600" viewBox="0 0 1200 2600" preserveAspectRatio="xMidYMid slice">
  <defs>
    <linearGradient id="bg_coach_08_2859" x1="0" y1="0" x2="1" y2="1">
      <stop offset="0%" stop-color="#B4E6F8"/>
      <stop offset="48%" stop-color="#F7FEFF"/>
      <stop offset="100%" stop-color="#CFF3FF"/>
    </linearGradient>
    <radialGradient id="orb_coach_08_2859" cx="35%" cy="30%" r="70%">
      <stop offset="0%" stop-color="#FFFFFF" stop-opacity="0.85"/>
      <stop offset="42%" stop-color="#FFFFFF" stop-opacity="0.20"/>
      <stop offset="100%" stop-color="#FFFFFF" stop-opacity="0.02"/>
    </radialGradient>
    <filter id="blur_coach_08_2859" x="-30%" y="-30%" width="160%" height="160%">
      <feGaussianBlur stdDeviation="72"/>
    </filter>
    <filter id="soft_coach_08_2859" x="-20%" y="-20%" width="140%" height="140%">
      <feGaussianBlur stdDeviation="10"/>
    </filter>
    <filter id="grain_coach_08_2859">
      <feTurbulence type="fractalNoise" baseFrequency="0.85" numOctaves="2" stitchTiles="stitch"/>
      <feColorMatrix type="saturate" values="0"/>
      <feComponentTransfer>
        <feFuncA type="table" tableValues="0 0.035"/>
      </feComponentTransfer>
    </filter>
  </defs>
  <rect width="1200" height="2600" fill="url(#bg_coach_08_2859)"/>
  <path d="M 984.7 1157.0 C 984.7 1302.3, 1051.9 1220.8, 932.7 1332.2 C 813.5 1443.5, 853.1 1467.0, 670.5 1492.2 C 487.9 1517.4, 567.9 1518.8, 407.3 1446.2 C 246.8 1373.5, 234.9 1394.6, 171.4 1258.0 C 108.0 1121.4, 120.2 1191.2, 183.6 1054.7 C 247.1 918.1, 239.6 931.8, 400.1 859.1 C 560.7 786.4, 485.6 854.2, 668.2 879.5 C 850.8 904.7, 756.8 826.3, 876.0 937.6 C 995.2 1049.0, 984.7 1011.6, 984.7 1157.0 Z" fill="#E3E0FF" opacity="0.18" filter="url(#blur_coach_08_2859)"/>
  <path d="M 1594.3 203.0 C 1594.3 370.0, 1598.1 281.9, 1483.6 409.8 C 1369.0 537.7, 1482.1 528.1, 1306.6 557.1 C 1131.2 586.1, 1151.1 558.6, 996.7 475.1 C 842.4 391.6, 970.7 467.0, 909.7 310.1 C 848.8 153.3, 755.9 243.9, 816.9 87.1 C 877.8 -69.8, 896.7 -2.6, 1051.0 -86.1 C 1205.3 -169.6, 1115.8 -188.7, 1291.3 -159.7 C 1466.8 -130.7, 1392.4 -142.5, 1506.9 -14.6 C 1621.5 113.3, 1594.3 36.0, 1594.3 203.0 Z" fill="#E3E0FF" opacity="0.20" filter="url(#blur_coach_08_2859)"/>
  <path d="M 747.3 2423.0 C 747.3 2734.4, 774.0 2612.2, 671.0 2850.8 C 568.1 3089.3, 576.3 3059.0, 418.6 3113.1 C 260.8 3167.1, 308.4 3161.0, 169.7 3005.3 C 31.0 2849.6, 35.7 2970.7, -19.1 2678.0 C -73.9 2385.4, -10.4 2439.9, 44.4 2147.3 C 99.2 1854.7, 35.1 1904.2, 173.8 1748.5 C 312.5 1592.8, 272.1 1783.4, 429.8 1837.5 C 587.6 1891.6, 507.3 1748.6, 610.3 1987.2 C 713.2 2225.7, 747.3 2111.6, 747.3 2423.0 Z" fill="#CFF3FF" opacity="0.21" filter="url(#blur_coach_08_2859)"/>
  <path d="M 1240.0 720.0 C 1240.0 905.9, 1246.0 845.6, 1172.5 988.0 C 1099.1 1130.3, 1132.9 1117.1, 1020.4 1149.4 C 907.8 1181.7, 960.1 1192.1, 861.1 1099.1 C 762.1 1006.2, 787.5 1014.4, 748.4 839.8 C 709.3 665.1, 731.7 747.5, 770.8 572.8 C 809.9 398.2, 744.6 471.1, 843.6 378.2 C 942.5 285.2, 904.7 312.4, 1017.3 344.7 C 1129.8 376.9, 1073.0 330.5, 1146.4 472.8 C 1219.9 615.2, 1240.0 534.1, 1240.0 720.0 Z" fill="#CCF7ED" opacity="0.36" filter="url(#blur_coach_08_2859)"/>
  <path d="M 1563.0 1167.0 C 1563.0 1420.8, 1557.4 1357.1, 1426.4 1551.5 C 1295.3 1745.9, 1363.0 1609.9, 1162.3 1653.9 C 961.5 1698.0, 1078.7 1776.9, 902.2 1650.0 C 725.6 1523.1, 666.4 1598.2, 596.7 1359.7 C 527.0 1121.2, 616.7 1238.5, 686.5 1000.0 C 756.2 761.5, 679.9 760.6, 856.4 633.7 C 1032.9 506.8, 963.7 602.6, 1164.4 646.7 C 1365.2 690.7, 1245.4 586.5, 1376.4 780.9 C 1507.4 975.3, 1563.0 913.2, 1563.0 1167.0 Z" fill="#86A8FF" opacity="0.20" filter="url(#blur_coach_08_2859)"/>
  <path d="M 635.5 453.0 C 635.5 736.0, 704.1 620.0, 633.9 836.8 C 563.6 1053.6, 569.0 946.5, 461.3 995.7 C 353.6 1044.8, 376.9 1055.2, 282.2 913.7 C 187.5 772.2, 222.1 958.9, 184.7 692.9 C 147.3 426.9, 170.6 488.6, 208.0 222.7 C 245.4 -43.3, 202.7 71.4, 297.4 -70.1 C 392.1 -211.7, 343.7 -198.6, 451.4 -149.5 C 559.1 -100.3, 507.5 -195.3, 577.8 21.6 C 648.1 238.4, 635.5 169.9, 635.5 453.0 Z" fill="#B891FF" opacity="0.35" filter="url(#blur_coach_08_2859)"/>
  <path d="M 1201.8 485.0 C 1201.8 676.7, 1145.2 626.1, 1052.0 772.9 C 958.9 919.8, 1045.4 908.1, 902.7 941.4 C 760.1 974.7, 819.3 977.2, 693.9 881.3 C 568.4 785.5, 572.7 811.6, 523.1 631.5 C 473.6 451.3, 527.1 531.4, 576.6 351.2 C 626.2 171.1, 561.9 212.2, 687.3 116.4 C 812.8 20.5, 747.3 11.9, 890.0 45.2 C 1032.7 78.5, 974.2 34.6, 1067.4 181.5 C 1160.5 328.3, 1201.8 293.3, 1201.8 485.0 Z" fill="#CFF3FF" opacity="0.35" filter="url(#blur_coach_08_2859)"/>
  <path d="M 1661.6 1253.0 C 1661.6 1373.6, 1724.4 1352.3, 1612.2 1444.7 C 1499.9 1537.1, 1590.3 1541.9, 1418.3 1562.9 C 1246.4 1583.8, 1287.9 1531.5, 1136.7 1471.2 C 985.5 1410.9, 988.7 1445.3, 929.0 1331.9 C 869.3 1218.6, 944.1 1279.5, 1003.8 1166.1 C 1063.5 1052.8, 959.8 1094.0, 1111.0 1033.7 C 1262.2 973.4, 1224.0 978.3, 1395.9 999.3 C 1567.9 1020.2, 1497.6 977.8, 1609.8 1070.1 C 1722.1 1162.5, 1661.6 1132.4, 1661.6 1253.0 Z" fill="#4ECAD1" opacity="0.30" filter="url(#blur_coach_08_2859)"/>
  <path d="M 1793.5 491.0 C 1793.5 659.8, 1752.6 597.0, 1603.1 726.3 C 1453.5 855.5, 1541.5 786.6, 1312.3 815.9 C 1083.2 845.2, 1185.0 928.3, 983.5 843.9 C 782.1 759.6, 756.1 781.2, 676.5 622.6 C 597.0 464.1, 741.2 541.9, 820.8 383.4 C 900.3 224.8, 788.0 233.0, 989.5 148.6 C 1191.0 64.3, 1090.7 138.6, 1319.8 167.9 C 1548.9 197.2, 1417.6 128.8, 1567.2 258.1 C 1716.7 387.4, 1793.5 322.2, 1793.5 491.0 Z" fill="#B4E6F8" opacity="0.25" filter="url(#blur_coach_08_2859)"/>
  <path d="M 365.8 460.0 C 365.8 827.2, 406.8 594.4, 322.7 891.5 C 238.6 1188.6, 295.5 1111.7, 159.4 1225.2 C 23.3 1338.6, 95.4 1340.8, -40.7 1227.3 C -176.8 1113.8, -115.6 1284.2, -199.7 987.1 C -283.8 690.0, -298.4 827.2, -298.4 460.0 C -298.4 92.8, -279.9 273.4, -195.8 -23.6 C -111.6 -320.7, -166.1 -100.5, -30.0 -214.0 C 106.1 -327.4, 21.7 -477.0, 157.8 -363.5 C 293.9 -250.1, 243.5 -254.5, 327.6 42.6 C 411.7 339.7, 365.8 92.8, 365.8 460.0 Z" fill="#B4E6F8" opacity="0.12" stroke="#FFFFFF" stroke-opacity="0.46" stroke-width="3" filter="url(#soft_coach_08_2859)"/>
  <path d="M 365.8 460.0 C 365.8 827.2, 406.8 594.4, 322.7 891.5 C 238.6 1188.6, 295.5 1111.7, 159.4 1225.2 C 23.3 1338.6, 95.4 1340.8, -40.7 1227.3 C -176.8 1113.8, -115.6 1284.2, -199.7 987.1 C -283.8 690.0, -298.4 827.2, -298.4 460.0 C -298.4 92.8, -279.9 273.4, -195.8 -23.6 C -111.6 -320.7, -166.1 -100.5, -30.0 -214.0 C 106.1 -327.4, 21.7 -477.0, 157.8 -363.5 C 293.9 -250.1, 243.5 -254.5, 327.6 42.6 C 411.7 339.7, 365.8 92.8, 365.8 460.0 Z" fill="none" stroke="#FFFFFF" stroke-opacity="0.22" stroke-width="1.2"/>
  <path d="M 533.5 1867.0 C 533.5 2029.0, 565.7 1949.3, 461.2 2080.3 C 356.7 2211.4, 411.0 2181.3, 241.9 2231.3 C 72.9 2281.4, 171.5 2233.1, 2.5 2183.0 C -166.6 2133.0, -58.0 2194.2, -162.4 2063.1 C -266.9 1932.0, -298.4 2029.0, -298.4 1867.0 C -298.4 1705.0, -302.5 1768.2, -198.0 1637.2 C -93.6 1506.1, -184.4 1618.0, -15.3 1568.0 C 153.7 1517.9, 64.7 1471.1, 233.7 1521.2 C 402.8 1571.2, 376.0 1525.4, 480.4 1656.5 C 584.9 1787.5, 533.5 1705.0, 533.5 1867.0 Z" fill="#86A8FF" opacity="0.12" stroke="#FFFFFF" stroke-opacity="0.46" stroke-width="3" filter="url(#soft_coach_08_2859)"/>
  <path d="M 533.5 1867.0 C 533.5 2029.0, 565.7 1949.3, 461.2 2080.3 C 356.7 2211.4, 411.0 2181.3, 241.9 2231.3 C 72.9 2281.4, 171.5 2233.1, 2.5 2183.0 C -166.6 2133.0, -58.0 2194.2, -162.4 2063.1 C -266.9 1932.0, -298.4 2029.0, -298.4 1867.0 C -298.4 1705.0, -302.5 1768.2, -198.0 1637.2 C -93.6 1506.1, -184.4 1618.0, -15.3 1568.0 C 153.7 1517.9, 64.7 1471.1, 233.7 1521.2 C 402.8 1571.2, 376.0 1525.4, 480.4 1656.5 C 584.9 1787.5, 533.5 1705.0, 533.5 1867.0 Z" fill="none" stroke="#FFFFFF" stroke-opacity="0.22" stroke-width="1.2"/>
  <path d="M 1469.3 1242.0 C 1469.3 1434.6, 1482.8 1351.2, 1410.6 1507.0 C 1338.4 1662.8, 1413.1 1566.0, 1296.3 1625.5 C 1179.4 1685.0, 1240.0 1676.6, 1123.2 1617.1 C 1006.3 1557.6, 1045.6 1648.2, 973.4 1492.4 C 901.2 1336.5, 947.2 1434.6, 947.2 1242.0 C 947.2 1049.4, 899.1 1124.9, 971.4 969.1 C 1043.6 813.3, 1011.6 863.2, 1128.4 803.7 C 1245.2 744.2, 1185.8 723.8, 1302.6 783.3 C 1419.5 842.8, 1376.7 822.4, 1448.9 978.2 C 1521.2 1134.0, 1469.3 1049.4, 1469.3 1242.0 Z" fill="#4ECAD1" opacity="0.12" stroke="#4ECAD1" stroke-opacity="0.46" stroke-width="3" filter="url(#soft_coach_08_2859)"/>
  <path d="M 1469.3 1242.0 C 1469.3 1434.6, 1482.8 1351.2, 1410.6 1507.0 C 1338.4 1662.8, 1413.1 1566.0, 1296.3 1625.5 C 1179.4 1685.0, 1240.0 1676.6, 1123.2 1617.1 C 1006.3 1557.6, 1045.6 1648.2, 973.4 1492.4 C 901.2 1336.5, 947.2 1434.6, 947.2 1242.0 C 947.2 1049.4, 899.1 1124.9, 971.4 969.1 C 1043.6 813.3, 1011.6 863.2, 1128.4 803.7 C 1245.2 744.2, 1185.8 723.8, 1302.6 783.3 C 1419.5 842.8, 1376.7 822.4, 1448.9 978.2 C 1521.2 1134.0, 1469.3 1049.4, 1469.3 1242.0 Z" fill="none" stroke="#FFFFFF" stroke-opacity="0.22" stroke-width="1.2"/>
  <path d="M 1096.9 1754.0 C 1096.9 2126.6, 1105.3 1886.3, 986.3 2187.7 C 867.2 2489.1, 947.9 2343.5, 755.4 2458.7 C 562.8 2573.8, 662.1 2558.2, 469.5 2443.1 C 276.9 2327.9, 339.2 2591.7, 220.2 2290.2 C 101.2 1988.8, 186.1 2126.6, 186.1 1754.0 C 186.1 1381.4, 93.2 1573.9, 212.3 1272.5 C 331.3 971.0, 262.8 1106.0, 455.4 990.9 C 648.0 875.7, 569.6 835.6, 762.2 950.8 C 954.8 1065.9, 898.8 993.3, 1017.8 1294.8 C 1136.9 1596.2, 1096.9 1381.4, 1096.9 1754.0 Z" fill="#F7FEFF" opacity="0.12" stroke="#F7FEFF" stroke-opacity="0.46" stroke-width="3" filter="url(#soft_coach_08_2859)"/>
  <path d="M 1096.9 1754.0 C 1096.9 2126.6, 1105.3 1886.3, 986.3 2187.7 C 867.2 2489.1, 947.9 2343.5, 755.4 2458.7 C 562.8 2573.8, 662.1 2558.2, 469.5 2443.1 C 276.9 2327.9, 339.2 2591.7, 220.2 2290.2 C 101.2 1988.8, 186.1 2126.6, 186.1 1754.0 C 186.1 1381.4, 93.2 1573.9, 212.3 1272.5 C 331.3 971.0, 262.8 1106.0, 455.4 990.9 C 648.0 875.7, 569.6 835.6, 762.2 950.8 C 954.8 1065.9, 898.8 993.3, 1017.8 1294.8 C 1136.9 1596.2, 1096.9 1381.4, 1096.9 1754.0 Z" fill="none" stroke="#FFFFFF" stroke-opacity="0.22" stroke-width="1.2"/>
  <path d="M 730.5 297.0 C 730.5 545.9, 817.2 381.4, 662.5 582.7 C 507.7 784.1, 644.6 706.9, 394.2 783.8 C 143.8 860.7, 315.9 928.0, 65.6 851.2 C -184.8 774.3, -48.4 866.0, -203.1 664.7 C -357.9 463.3, -320.9 545.9, -320.9 297.0 C -320.9 48.2, -400.8 146.8, -246.0 -54.5 C -91.3 -255.8, -231.4 -131.6, 19.0 -208.5 C 269.4 -285.4, 171.1 -320.9, 421.5 -244.0 C 671.9 -167.1, 596.8 -191.5, 751.6 9.8 C 906.3 211.2, 730.5 48.2, 730.5 297.0 Z" fill="#B4E6F8" opacity="0.12" stroke="#FFFFFF" stroke-opacity="0.46" stroke-width="3" filter="url(#soft_coach_08_2859)"/>
  <path d="M 730.5 297.0 C 730.5 545.9, 817.2 381.4, 662.5 582.7 C 507.7 784.1, 644.6 706.9, 394.2 783.8 C 143.8 860.7, 315.9 928.0, 65.6 851.2 C -184.8 774.3, -48.4 866.0, -203.1 664.7 C -357.9 463.3, -320.9 545.9, -320.9 297.0 C -320.9 48.2, -400.8 146.8, -246.0 -54.5 C -91.3 -255.8, -231.4 -131.6, 19.0 -208.5 C 269.4 -285.4, 171.1 -320.9, 421.5 -244.0 C 671.9 -167.1, 596.8 -191.5, 751.6 9.8 C 906.3 211.2, 730.5 48.2, 730.5 297.0 Z" fill="none" stroke="#FFFFFF" stroke-opacity="0.22" stroke-width="1.2"/>
  <path d="M 1134.1 838.0 C 1134.1 1164.2, 1190.1 1057.3, 1018.1 1321.3 C 846.2 1585.2, 1039.7 1395.1, 761.5 1495.9 C 483.3 1596.7, 637.6 1590.3, 359.4 1489.5 C 81.3 1388.7, 164.6 1529.8, -7.4 1265.9 C -179.3 1001.9, -175.8 1164.2, -175.8 838.0 C -175.8 511.8, -103.0 729.2, 68.9 465.3 C 240.8 201.3, 69.3 310.1, 347.4 209.3 C 625.6 108.5, 469.0 125.7, 747.2 226.5 C 1025.4 327.4, 866.7 129.0, 1038.6 393.0 C 1210.6 656.9, 1134.1 511.8, 1134.1 838.0 Z" fill="#B4E6F8" opacity="0.12" stroke="#B4E6F8" stroke-opacity="0.46" stroke-width="3" filter="url(#soft_coach_08_2859)"/>
  <path d="M 1134.1 838.0 C 1134.1 1164.2, 1190.1 1057.3, 1018.1 1321.3 C 846.2 1585.2, 1039.7 1395.1, 761.5 1495.9 C 483.3 1596.7, 637.6 1590.3, 359.4 1489.5 C 81.3 1388.7, 164.6 1529.8, -7.4 1265.9 C -179.3 1001.9, -175.8 1164.2, -175.8 838.0 C -175.8 511.8, -103.0 729.2, 68.9 465.3 C 240.8 201.3, 69.3 310.1, 347.4 209.3 C 625.6 108.5, 469.0 125.7, 747.2 226.5 C 1025.4 327.4, 866.7 129.0, 1038.6 393.0 C 1210.6 656.9, 1134.1 511.8, 1134.1 838.0 Z" fill="none" stroke="#FFFFFF" stroke-opacity="0.22" stroke-width="1.2"/>
  <path d="M -100.0 960.6 Q 133.3 1086.8, 366.7 832.8 Q 600.0 579.8, 833.3 557.3 Q 1066.7 830.5, 1300.0 988.1" fill="none" stroke="#FFFFFF" stroke-opacity="0.38" stroke-width="4" filter="url(#soft_coach_08_2859)"/>
  <path d="M -100.0 960.6 Q 133.3 1086.8, 366.7 832.8 Q 600.0 579.8, 833.3 557.3 Q 1066.7 830.5, 1300.0 988.1" fill="none" stroke="#4ECAD1" stroke-opacity="0.18" stroke-width="2"/>
  <path d="M -100.0 1045.4 Q 133.3 955.6, 366.7 1297.8 Q 600.0 1396.6, 833.3 1542.6 Q 1066.7 1223.7, 1300.0 1053.4" fill="none" stroke="#FFFFFF" stroke-opacity="0.38" stroke-width="4" filter="url(#soft_coach_08_2859)"/>
  <path d="M -100.0 1045.4 Q 133.3 955.6, 366.7 1297.8 Q 600.0 1396.6, 833.3 1542.6 Q 1066.7 1223.7, 1300.0 1053.4" fill="none" stroke="#B891FF" stroke-opacity="0.18" stroke-width="2"/>
  <path d="M -100.0 2687.7 Q 133.3 2869.0, 366.7 2781.9 Q 600.0 2692.1, 833.3 2348.6 Q 1066.7 2226.9, 1300.0 2510.8" fill="none" stroke="#FFFFFF" stroke-opacity="0.38" stroke-width="4" filter="url(#soft_coach_08_2859)"/>
  <path d="M -100.0 2687.7 Q 133.3 2869.0, 366.7 2781.9 Q 600.0 2692.1, 833.3 2348.6 Q 1066.7 2226.9, 1300.0 2510.8" fill="none" stroke="#B891FF" stroke-opacity="0.18" stroke-width="2"/>
  <path d="M -100.0 762.2 Q 133.3 1125.0, 366.7 1090.2 Q 600.0 870.1, 833.3 781.9 Q 1066.7 1011.3, 1300.0 1126.5" fill="none" stroke="#FFFFFF" stroke-opacity="0.38" stroke-width="4" filter="url(#soft_coach_08_2859)"/>
  <path d="M -100.0 762.2 Q 133.3 1125.0, 366.7 1090.2 Q 600.0 870.1, 833.3 781.9 Q 1066.7 1011.3, 1300.0 1126.5" fill="none" stroke="#86A8FF" stroke-opacity="0.18" stroke-width="2"/>
  <circle cx="893" cy="1550" r="89" fill="url(#orb_coach_08_2859)" opacity="0.36"/>
  <circle cx="893" cy="1550" r="89" fill="#4ECAD1" opacity="0.08"/>
  <circle cx="893" cy="1550" r="89" fill="none" stroke="#FFFFFF" stroke-opacity="0.56" stroke-width="3"/>
  <ellipse cx="868.1" cy="1518.0" rx="16.0" ry="7.1" fill="#FFFFFF" opacity="0.42" transform="rotate(-22 868.1 1518.0)"/>
  <circle cx="-31" cy="2558" r="105" fill="url(#orb_coach_08_2859)" opacity="0.36"/>
  <circle cx="-31" cy="2558" r="105" fill="#B4E6F8" opacity="0.08"/>
  <circle cx="-31" cy="2558" r="105" fill="none" stroke="#FFFFFF" stroke-opacity="0.56" stroke-width="3"/>
  <ellipse cx="-60.4" cy="2520.2" rx="18.9" ry="8.4" fill="#FFFFFF" opacity="0.42" transform="rotate(-22 -60.4 2520.2)"/>
  <circle cx="1192" cy="679" r="129" fill="url(#orb_coach_08_2859)" opacity="0.36"/>
  <circle cx="1192" cy="679" r="129" fill="#4ECAD1" opacity="0.08"/>
  <circle cx="1192" cy="679" r="129" fill="none" stroke="#FFFFFF" stroke-opacity="0.56" stroke-width="3"/>
  <ellipse cx="1155.9" cy="632.6" rx="23.2" ry="10.3" fill="#FFFFFF" opacity="0.42" transform="rotate(-22 1155.9 632.6)"/>
  <circle cx="811" cy="1702" r="135" fill="url(#orb_coach_08_2859)" opacity="0.18"/>
  <circle cx="811" cy="1702" r="135" fill="#86A8FF" opacity="0.08"/>
  <circle cx="811" cy="1702" r="135" fill="none" stroke="#FFFFFF" stroke-opacity="0.56" stroke-width="3"/>
  <ellipse cx="773.2" cy="1653.4" rx="24.3" ry="10.8" fill="#FFFFFF" opacity="0.42" transform="rotate(-22 773.2 1653.4)"/>
  <circle cx="817" cy="-117" r="176" fill="url(#orb_coach_08_2859)" opacity="0.18"/>
  <circle cx="817" cy="-117" r="176" fill="#86A8FF" opacity="0.08"/>
  <circle cx="817" cy="-117" r="176" fill="none" stroke="#FFFFFF" stroke-opacity="0.56" stroke-width="3"/>
  <ellipse cx="767.7" cy="-180.4" rx="31.7" ry="14.1" fill="#FFFFFF" opacity="0.42" transform="rotate(-22 767.7 -180.4)"/>
  <circle cx="447" cy="701" r="281" fill="url(#orb_coach_08_2859)" opacity="0.17"/>
  <circle cx="447" cy="701" r="281" fill="#E3E0FF" opacity="0.08"/>
  <circle cx="447" cy="701" r="281" fill="none" stroke="#FFFFFF" stroke-opacity="0.56" stroke-width="3"/>
  <ellipse cx="368.3" cy="599.8" rx="50.6" ry="22.5" fill="#FFFFFF" opacity="0.42" transform="rotate(-22 368.3 599.8)"/>
  <circle cx="196" cy="163" r="97" fill="url(#orb_coach_08_2859)" opacity="0.17"/>
  <circle cx="196" cy="163" r="97" fill="#4ECAD1" opacity="0.08"/>
  <circle cx="196" cy="163" r="97" fill="none" stroke="#FFFFFF" stroke-opacity="0.56" stroke-width="3"/>
  <ellipse cx="168.8" cy="128.1" rx="17.5" ry="7.8" fill="#FFFFFF" opacity="0.42" transform="rotate(-22 168.8 128.1)"/>
  <circle cx="788" cy="758" r="265" fill="url(#orb_coach_08_2859)" opacity="0.24"/>
  <circle cx="788" cy="758" r="265" fill="#B4E6F8" opacity="0.08"/>
  <circle cx="788" cy="758" r="265" fill="none" stroke="#FFFFFF" stroke-opacity="0.56" stroke-width="3"/>
  <ellipse cx="713.8" cy="662.6" rx="47.7" ry="21.2" fill="#FFFFFF" opacity="0.42" transform="rotate(-22 713.8 662.6)"/>
  <circle cx="1095" cy="2146" r="168" fill="url(#orb_coach_08_2859)" opacity="0.21"/>
  <circle cx="1095" cy="2146" r="168" fill="#4ECAD1" opacity="0.08"/>
  <circle cx="1095" cy="2146" r="168" fill="none" stroke="#FFFFFF" stroke-opacity="0.56" stroke-width="3"/>
  <ellipse cx="1048.0" cy="2085.5" rx="30.2" ry="13.4" fill="#FFFFFF" opacity="0.42" transform="rotate(-22 1048.0 2085.5)"/>
  <circle cx="632" cy="2333" r="5" fill="#FFFFFF" opacity="0.48"/>
  <circle cx="820" cy="1769" r="3" fill="#FFFFFF" opacity="0.65"/>
  <circle cx="178" cy="2394" r="4" fill="#FFFFFF" opacity="0.53"/>
  <circle cx="1104" cy="1170" r="5" fill="#FFFFFF" opacity="0.48"/>
  <circle cx="9" cy="656" r="2" fill="#FFFFFF" opacity="0.42"/>
  <circle cx="831" cy="743" r="7" fill="#FFFFFF" opacity="0.37"/>
  <circle cx="801" cy="1038" r="7" fill="#FFFFFF" opacity="0.64"/>
  <circle cx="249" cy="432" r="4" fill="#FFFFFF" opacity="0.36"/>
  <circle cx="1139" cy="1804" r="2" fill="#FFFFFF" opacity="0.52"/>
  <circle cx="411" cy="446" r="3" fill="#FFFFFF" opacity="0.65"/>
  <circle cx="460" cy="1138" r="5" fill="#FFFFFF" opacity="0.62"/>
  <circle cx="728" cy="1887" r="7" fill="#FFFFFF" opacity="0.52"/>
  <circle cx="930" cy="818" r="3" fill="#FFFFFF" opacity="0.53"/>
  <rect width="1200" height="2600" fill="#FFFFFF" opacity="0.08"/>
  <rect width="1200" height="2600" filter="url(#grain_coach_08_2859)" opacity="0.7"/>
</svg>
