<svg xmlns="http://www.w3.org/2000/svg" width="1200" height="2600" viewBox="0 0 1200 2600" preserveAspectRatio="xMidYMid slice">
  <defs>
    <linearGradient id="bg_coach_16_1567" x1="0" y1="0" x2="1" y2="1">
      <stop offset="0%" stop-color="#F7FEFF"/>
      <stop offset="48%" stop-color="#CFF3FF"/>
      <stop offset="100%" stop-color="#B4E6F8"/>
    </linearGradient>
    <radialGradient id="orb_coach_16_1567" cx="35%" cy="30%" r="70%">
      <stop offset="0%" stop-color="#FFFFFF" stop-opacity="0.85"/>
      <stop offset="42%" stop-color="#FFFFFF" stop-opacity="0.20"/>
      <stop offset="100%" stop-color="#FFFFFF" stop-opacity="0.02"/>
    </radialGradient>
    <filter id="blur_coach_16_1567" x="-30%" y="-30%" width="160%" height="160%">
      <feGaussianBlur stdDeviation="72"/>
    </filter>
    <filter id="soft_coach_16_1567" x="-20%" y="-20%" width="140%" height="140%">
      <feGaussianBlur stdDeviation="10"/>
    </filter>
    <filter id="grain_coach_16_1567">
      <feTurbulence type="fractalNoise" baseFrequency="0.85" numOctaves="2" stitchTiles="stitch"/>
      <feColorMatrix type="saturate" values="0"/>
      <feComponentTransfer>
        <feFuncA type="table" tableValues="0 0.035"/>
      </feComponentTransfer>
    </filter>
  </defs>
  <rect width="1200" height="2600" fill="url(#bg_coach_16_1567)"/>
  <path d="M 997.4 2545.0 C 997.4 2677.3, 1000.7 2648.6, 927.3 2749.9 C 853.8 2851.3, 869.7 2834.2, 757.2 2857.2 C 644.6 2880.2, 672.4 2888.3, 573.4 2822.1 C 474.4 2756.0, 520.8 2777.1, 481.7 2652.8 C 442.6 2528.4, 419.3 2555.8, 458.4 2431.5 C 497.4 2307.2, 472.3 2394.1, 571.3 2327.9 C 670.3 2261.8, 654.1 2184.7, 766.6 2207.6 C 879.2 2230.6, 857.2 2266.7, 930.6 2368.0 C 1004.1 2469.4, 997.4 2412.7, 997.4 2545.0 Z" fill="#B4E6F8" opacity="0.37" filter="url(#blur_coach_16_1567)"/>
  <path d="M 555.9 2547.0 C 555.9 2817.0, 654.6 2752.9, 546.1 2959.8 C 437.6 3166.6, 455.9 3028.3, 289.7 3075.2 C 123.6 3122.1, 182.0 3257.6, 35.9 3122.6 C -110.3 2987.6, -114.7 2986.5, -172.4 2732.8 C -230.2 2479.1, -191.4 2565.9, -133.7 2312.2 C -76.0 2058.5, -144.8 2122.2, 1.3 1987.2 C 147.4 1852.2, 107.3 1856.2, 273.5 1903.1 C 439.7 1950.0, 346.6 2012.9, 455.0 2219.8 C 563.5 2426.6, 555.9 2277.0, 555.9 2547.0 Z" fill="#CCF7ED" opacity="0.29" filter="url(#blur_coach_16_1567)"/>
  <path d="M 367.5 1607.0 C 367.5 1850.0, 523.8 1805.5, 381.2 1991.6 C 238.6 2177.8, 260.9 2125.4, 42.4 2167.6 C -176.0 2209.8, -58.8 2251.2, -250.9 2129.7 C -443.1 2008.2, -494.1 2011.3, -570.0 1782.9 C -645.9 1554.6, -605.7 1639.5, -529.8 1411.2 C -453.9 1182.8, -467.4 1292.6, -275.3 1171.1 C -83.1 1049.6, -173.8 1095.6, 44.7 1137.8 C 263.2 1180.0, 254.1 1123.6, 396.7 1309.8 C 539.3 1495.9, 367.5 1364.0, 367.5 1607.0 Z" fill="#4ECAD1" opacity="0.22" filter="url(#blur_coach_16_1567)"/>
  <path d="M 439.3 273.0 C 439.3 411.6, 377.3 388.8, 263.6 494.9 C 150.0 601.1, 241.7 583.4, 67.6 607.4 C -106.6 631.5, -44.0 591.8, -197.2 522.5 C -350.4 453.2, -364.3 507.4, -424.8 377.2 C -485.3 246.9, -391.7 293.4, -331.3 163.2 C -270.8 32.9, -357.5 40.0, -204.3 -29.3 C -51.2 -98.6, -123.8 -15.6, 50.4 8.5 C 224.5 32.6, 165.8 -10.9, 279.4 95.3 C 393.1 201.5, 439.3 134.4, 439.3 273.0 Z" fill="#86A8FF" opacity="0.24" filter="url(#blur_coach_16_1567)"/>
  <path d="M 1456.8 2793.0 C 1456.8 3020.7, 1497.4 2912.7, 1409.4 3087.1 C 1321.5 3261.6, 1351.1 3330.3, 1216.3 3369.8 C 1081.6 3409.4, 1117.8 3344.3, 999.3 3230.5 C 880.8 3116.6, 903.4 3184.3, 856.6 2970.3 C 809.8 2756.3, 780.2 2840.9, 827.0 2627.0 C 873.8 2413.0, 867.2 2459.2, 985.7 2345.3 C 1104.2 2231.5, 1073.1 2187.1, 1207.8 2226.7 C 1342.5 2266.2, 1324.7 2302.3, 1412.6 2476.7 C 1500.6 2651.1, 1456.8 2565.3, 1456.8 2793.0 Z" fill="#E3E0FF" opacity="0.31" filter="url(#blur_coach_16_1567)"/>
  <path d="M 1639.6 587.0 C 1639.6 827.3, 1641.3 757.8, 1564.7 941.9 C 1488.0 1126.0, 1529.5 1023.0, 1412.1 1064.7 C 1294.6 1106.4, 1312.1 1168.9, 1208.9 1048.7 C 1105.6 928.6, 1142.3 986.6, 1101.5 760.8 C 1060.7 535.0, 1087.4 643.6, 1128.2 417.8 C 1169.0 192.0, 1126.5 219.7, 1229.7 99.6 C 1333.0 -20.6, 1289.9 97.6, 1407.4 139.4 C 1524.8 181.1, 1457.6 62.0, 1534.3 246.1 C 1610.9 430.2, 1639.6 346.7, 1639.6 587.0 Z" fill="#B4E6F8" opacity="0.36" filter="url(#blur_coach_16_1567)"/>
  <path d="M 1150.5 818.0 C 1150.5 1048.8, 1161.4 918.3, 1020.0 1095.1 C 878.5 1272.0, 883.3 1323.9, 666.6 1364.0 C 449.9 1404.1, 566.0 1389.1, 375.4 1273.7 C 184.8 1158.3, 258.2 1202.2, 182.9 985.3 C 107.7 768.4, 13.1 847.8, 88.4 630.9 C 163.6 413.9, 162.9 511.3, 353.5 395.9 C 544.1 280.5, 464.5 182.6, 681.2 222.7 C 897.9 262.7, 811.9 345.1, 953.3 521.9 C 1094.8 698.8, 1150.5 587.1, 1150.5 818.0 Z" fill="#CCF7ED" opacity="0.26" filter="url(#blur_coach_16_1567)"/>
  <path d="M 980.3 2322.0 C 980.3 2614.1, 969.8 2559.2, 875.8 2782.9 C 781.8 3006.6, 808.5 2901.6, 664.4 2952.3 C 520.4 3003.0, 567.9 3052.8, 441.3 2906.8 C 314.6 2760.8, 396.1 2837.3, 346.0 2562.9 C 296.0 2288.5, 226.3 2345.3, 276.3 2070.8 C 326.3 1796.4, 315.5 1843.0, 442.2 1696.9 C 568.8 1550.9, 524.8 1643.0, 668.8 1693.7 C 812.8 1744.4, 728.6 1662.0, 822.6 1885.7 C 916.6 2109.4, 980.3 2030.0, 980.3 2322.0 Z" fill="#CFF3FF" opacity="0.24" filter="url(#blur_coach_16_1567)"/>
  <path d="M 1765.9 1234.0 C 1765.9 1522.5, 1820.6 1467.1, 1676.6 1688.1 C 1532.6 1909.1, 1538.3 1875.7, 1317.6 1925.7 C 1096.9 1975.8, 1226.7 1916.3, 1032.6 1772.1 C 838.6 1627.9, 798.3 1750.3, 721.6 1479.3 C 645.0 1208.2, 772.1 1319.1, 848.8 1048.1 C 925.4 777.0, 792.5 872.6, 986.6 728.4 C 1180.7 584.1, 1102.5 482.4, 1323.2 532.5 C 1543.9 582.6, 1520.8 605.6, 1664.8 826.5 C 1808.9 1047.5, 1765.9 945.5, 1765.9 1234.0 Z" fill="#F7FEFF" opacity="0.20" filter="url(#blur_coach_16_1567)"/>
  <path d="M 613.9 163.0 C 613.9 427.2, 655.7 353.8, 564.0 556.1 C 472.3 758.5, 533.3 703.9, 392.8 749.8 C 252.3 795.7, 328.1 751.2, 204.5 619.2 C 81.0 487.1, 109.7 584.5, 60.9 336.3 C 12.1 88.0, -11.9 212.4, 36.9 -35.8 C 85.7 -284.1, 70.9 -156.9, 194.4 -289.0 C 318.0 -421.1, 257.7 -453.4, 398.1 -407.5 C 538.6 -361.6, 493.4 -476.1, 585.1 -273.8 C 676.8 -71.4, 613.9 -101.2, 613.9 163.0 Z" fill="#86A8FF" opacity="0.30" filter="url(#blur_coach_16_1567)"/>
  <path d="M 1330.0 1005.0 C 1330.0 1159.3, 1308.8 1105.1, 1161.5 1223.3 C 1014.3 1341.5, 1080.5 1334.5, 854.9 1361.3 C 629.4 1388.1, 715.3 1327.3, 516.9 1250.1 C 318.6 1172.9, 369.8 1279.7, 291.5 1134.7 C 213.1 989.6, 214.3 1035.0, 292.7 890.0 C 371.0 744.9, 339.6 752.8, 537.9 675.6 C 736.3 598.4, 642.3 654.8, 867.9 681.6 C 1093.5 708.4, 992.1 700.9, 1139.4 819.1 C 1286.6 937.3, 1330.0 850.6, 1330.0 1005.0 Z" fill="#B891FF" opacity="0.25" filter="url(#blur_coach_16_1567)"/>
  <path d="M 771.7 747.0 C 771.7 1050.8, 854.3 886.9, 755.1 1132.6 C 655.9 1378.3, 711.6 1332.5, 551.2 1426.3 C 390.7 1520.2, 498.6 1546.5, 338.1 1452.7 C 177.6 1358.8, 238.0 1436.5, 138.8 1190.7 C 39.6 945.0, 25.8 1050.8, 25.8 747.0 C 25.8 443.3, 12.1 578.1, 111.3 332.4 C 210.5 86.6, 153.0 152.5, 313.5 58.6 C 474.0 -35.2, 393.2 45.5, 553.6 139.4 C 714.1 233.2, 662.7 89.6, 761.9 335.3 C 861.1 581.1, 771.7 443.2, 771.7 747.0 Z" fill="#B4E6F8" opacity="0.12" stroke="#FFFFFF" stroke-opacity="0.46" stroke-width="3" filter="url(#soft_coach_16_1567)"/>
  <path d="M 771.7 747.0 C 771.7 1050.8, 854.3 886.9, 755.1 1132.6 C 655.9 1378.3, 711.6 1332.5, 551.2 1426.3 C 390.7 1520.2, 498.6 1546.5, 338.1 1452.7 C 177.6 1358.8, 238.0 1436.5, 138.8 1190.7 C 39.6 945.0, 25.8 1050.8, 25.8 747.0 C 25.8 443.3, 12.1 578.1, 111.3 332.4 C 210.5 86.6, 153.0 152.5, 313.5 58.6 C 474.0 -35.2, 393.2 45.5, 553.6 139.4 C 714.1 233.2, 662.7 89.6, 761.9 335.3 C 861.1 581.1, 771.7 443.2, 771.7 747.0 Z" fill="none" stroke="#FFFFFF" stroke-opacity="0.22" stroke-width="1.2"/>
  <path d="M 2125.6 2459.0 C 2125.6 2826.7, 2104.5 2661.3, 1925.1 2958.7 C 1745.8 3256.1, 1926.6 3033.3, 1636.4 3146.9 C 1346.3 3260.6, 1478.2 3403.6, 1188.0 3290.0 C 897.8 3176.3, 1077.9 3298.0, 898.5 3000.6 C 719.2 2703.1, 730.1 2826.7, 730.1 2459.0 C 730.1 2091.3, 669.4 2245.4, 848.7 1947.9 C 1028.1 1650.5, 891.3 1704.7, 1181.5 1591.1 C 1471.7 1477.5, 1340.6 1546.4, 1630.8 1660.0 C 1920.9 1773.6, 1707.1 1678.4, 1886.5 1975.8 C 2065.8 2273.2, 2125.6 2091.3, 2125.6 2459.0 Z" fill="#B891FF" opacity="0.12" stroke="#FFFFFF" stroke-opacity="0.46" stroke-width="3" filter="url(#soft_coach_16_1567)"/>
  <path d="M 2125.6 2459.0 C 2125.6 2826.7, 2104.5 2661.3, 1925.1 2958.7 C 1745.8 3256.1, 1926.6 3033.3, 1636.4 3146.9 C 1346.3 3260.6, 1478.2 3403.6, 1188.0 3290.0 C 897.8 3176.3, 1077.9 3298.0, 898.5 3000.6 C 719.2 2703.1, 730.1 2826.7, 730.1 2459.0 C 730.1 2091.3, 669.4 2245.4, 848.7 1947.9 C 1028.1 1650.5, 891.3 1704.7, 1181.5 1591.1 C 1471.7 1477.5, 1340.6 1546.4, 1630.8 1660.0 C 1920.9 1773.6, 1707.1 1678.4, 1886.5 1975.8 C 2065.8 2273.2, 2125.6 2091.3, 2125.6 2459.0 Z" fill="none" stroke="#FFFFFF" stroke-opacity="0.22" stroke-width="1.2"/>
  <path d="M 1865.7 467.0 C 1865.7 778.9, 1842.8 669.7, 1686.5 922.0 C 1530.1 1174.3, 1695.4 953.6, 1442.5 1050.0 C 1189.5 1146.3, 1331.1 1195.4, 1078.2 1099.0 C 825.2 1002.7, 963.8 1112.6, 807.4 860.3 C 651.1 608.0, 616.5 778.9, 616.5 467.0 C 616.5 155.2, 636.5 341.0, 792.8 88.7 C 949.1 -163.6, 816.8 -180.6, 1069.7 -277.0 C 1322.6 -373.4, 1216.4 -255.0, 1469.4 -158.7 C 1722.3 -62.3, 1543.0 -189.0, 1699.3 63.3 C 1855.6 315.6, 1865.7 155.1, 1865.7 467.0 Z" fill="#B4E6F8" opacity="0.12" stroke="#FFFFFF" stroke-opacity="0.46" stroke-width="3" filter="url(#soft_coach_16_1567)"/>
  <path d="M 1865.7 467.0 C 1865.7 778.9, 1842.8 669.7, 1686.5 922.0 C 1530.1 1174.3, 1695.4 953.6, 1442.5 1050.0 C 1189.5 1146.3, 1331.1 1195.4, 1078.2 1099.0 C 825.2 1002.7, 963.8 1112.6, 807.4 860.3 C 651.1 608.0, 616.5 778.9, 616.5 467.0 C 616.5 155.2, 636.5 341.0, 792.8 88.7 C 949.1 -163.6, 816.8 -180.6, 1069.7 -277.0 C 1322.6 -373.4, 1216.4 -255.0, 1469.4 -158.7 C 1722.3 -62.3, 1543.0 -189.0, 1699.3 63.3 C 1855.6 315.6, 1865.7 155.1, 1865.7 467.0 Z" fill="none" stroke="#FFFFFF" stroke-opacity="0.22" stroke-width="1.2"/>
  <path d="M 204.2 760.0 C 204.2 1139.3, 231.4 985.5, 146.5 1292.4 C 61.6 1599.3, 158.8 1526.7, 21.5 1643.9 C -115.9 1761.2, -56.3 1705.3, -193.7 1588.1 C -331.1 1470.9, -293.8 1574.5, -378.7 1267.6 C -463.6 960.7, -389.9 1139.4, -389.9 760.0 C -389.9 380.7, -446.1 589.4, -361.2 282.5 C -276.3 -24.4, -321.6 123.4, -184.2 6.1 C -46.8 -111.1, -112.8 -84.5, 24.6 32.7 C 161.9 150.0, 65.4 -105.8, 150.3 201.1 C 235.2 508.0, 204.2 380.6, 204.2 760.0 Z" fill="#CCF7ED" opacity="0.12" stroke="#FFFFFF" stroke-opacity="0.46" stroke-width="3" filter="url(#soft_coach_16_1567)"/>
  <path d="M 204.2 760.0 C 204.2 1139.3, 231.4 985.5, 146.5 1292.4 C 61.6 1599.3, 158.8 1526.7, 21.5 1643.9 C -115.9 1761.2, -56.3 1705.3, -193.7 1588.1 C -331.1 1470.9, -293.8 1574.5, -378.7 1267.6 C -463.6 960.7, -389.9 1139.4, -389.9 760.0 C -389.9 380.7, -446.1 589.4, -361.2 282.5 C -276.3 -24.4, -321.6 123.4, -184.2 6.1 C -46.8 -111.1, -112.8 -84.5, 24.6 32.7 C 161.9 150.0, 65.4 -105.8, 150.3 201.1 C 235.2 508.0, 204.2 380.6, 204.2 760.0 Z" fill="none" stroke="#FFFFFF" stroke-opacity="0.22" stroke-width="1.2"/>
  <path d="M 265.6 531.0 C 265.6 772.6, 253.0 609.9, 163.9 805.4 C 74.7 1000.9, 157.6 993.4, 13.3 1068.1 C -130.9 1142.7, -76.6 1087.2, -220.8 1012.6 C -365.0 937.9, -318.2 1049.9, -407.4 854.4 C -496.5 658.9, -416.9 772.7, -416.9 531.0 C -416.9 289.4, -442.9 425.9, -353.7 230.4 C -264.6 34.9, -338.2 60.2, -194.0 -14.5 C -49.7 -89.2, -133.0 -8.0, 11.3 66.7 C 155.5 141.4, 56.2 61.6, 145.3 257.1 C 234.4 452.6, 265.6 289.4, 265.6 531.0 Z" fill="#CCF7ED" opacity="0.12" stroke="#CCF7ED" stroke-opacity="0.46" stroke-width="3" filter="url(#soft_coach_16_1567)"/>
  <path d="M 265.6 531.0 C 265.6 772.6, 253.0 609.9, 163.9 805.4 C 74.7 1000.9, 157.6 993.4, 13.3 1068.1 C -130.9 1142.7, -76.6 1087.2, -220.8 1012.6 C -365.0 937.9, -318.2 1049.9, -407.4 854.4 C -496.5 658.9, -416.9 772.7, -416.9 531.0 C -416.9 289.4, -442.9 425.9, -353.7 230.4 C -264.6 34.9, -338.2 60.2, -194.0 -14.5 C -49.7 -89.2, -133.0 -8.0, 11.3 66.7 C 155.5 141.4, 56.2 61.6, 145.3 257.1 C 234.4 452.6, 265.6 289.4, 265.6 531.0 Z" fill="none" stroke="#FFFFFF" stroke-opacity="0.22" stroke-width="1.2"/>
  <path d="M 1490.6 2361.0 C 1490.6 2581.9, 1446.5 2503.6, 1282.3 2682.4 C 1118.0 2861.1, 1270.4 2730.5, 1004.6 2798.8 C 738.8 2867.1, 919.4 2857.5, 653.7 2789.2 C 387.9 2720.9, 513.6 2848.1, 349.3 2669.4 C 185.0 2490.6, 262.7 2581.9, 262.7 2361.0 C 262.7 2140.1, 130.0 2274.5, 294.2 2095.8 C 458.5 1917.0, 382.8 1963.9, 648.6 1895.7 C 914.4 1827.4, 736.1 1820.0, 1001.9 1888.3 C 1267.6 1956.6, 1211.3 1910.8, 1375.5 2089.6 C 1539.8 2268.3, 1490.6 2140.1, 1490.6 2361.0 Z" fill="#CCF7ED" opacity="0.12" stroke="#CCF7ED" stroke-opacity="0.46" stroke-width="3" filter="url(#soft_coach_16_1567)"/>
  <path d="M 1490.6 2361.0 C 1490.6 2581.9, 1446.5 2503.6, 1282.3 2682.4 C 1118.0 2861.1, 1270.4 2730.5, 1004.6 2798.8 C 738.8 2867.1, 919.4 2857.5, 653.7 2789.2 C 387.9 2720.9, 513.6 2848.1, 349.3 2669.4 C 185.0 2490.6, 262.7 2581.9, 262.7 2361.0 C 262.7 2140.1, 130.0 2274.5, 294.2 2095.8 C 458.5 1917.0, 382.8 1963.9, 648.6 1895.7 C 914.4 1827.4, 736.1 1820.0, 1001.9 1888.3 C 1267.6 1956.6, 1211.3 1910.8, 1375.5 2089.6 C 1539.8 2268.3, 1490.6 2140.1, 1490.6 2361.0 Z" fill="none" stroke="#FFFFFF" stroke-opacity="0.22" stroke-width="1.2"/>
  <path d="M -100.0 229.4 Q 133.3 527.0, 366.7 332.6 Q 600.0 70.5, 833.3 330.2 Q 1066.7 538.7, 1300.0 323.6" fill="none" stroke="#FFFFFF" stroke-opacity="0.38" stroke-width="4" filter="url(#soft_coach_16_1567)"/>
  <path d="M -100.0 229.4 Q 133.3 527.0, 366.7 332.6 Q 600.0 70.5, 833.3 330.2 Q 1066.7 538.7, 1300.0 323.6" fill="none" stroke="#B891FF" stroke-opacity="0.18" stroke-width="2"/>
  <path d="M -100.0 1615.6 Q 133.3 1814.1, 366.7 1962.5 Q 600.0 1706.6, 833.3 1532.4 Q 1066.7 1767.3, 1300.0 1953.3" fill="none" stroke="#FFFFFF" stroke-opacity="0.38" stroke-width="4" filter="url(#soft_coach_16_1567)"/>
  <path d="M -100.0 1615.6 Q 133.3 1814.1, 366.7 1962.5 Q 600.0 1706.6, 833.3 1532.4 Q 1066.7 1767.3, 1300.0 1953.3" fill="none" stroke="#B891FF" stroke-opacity="0.18" stroke-width="2"/>
  <path d="M -100.0 1373.2 Q 133.3 1067.0, 366.7 980.0 Q 600.0 1135.2, 833.3 1185.6 Q 1066.7 1391.4, 1300.0 1227.8" fill="none" stroke="#FFFFFF" stroke-opacity="0.38" stroke-width="4" filter="url(#soft_coach_16_1567)"/>
  <path d="M -100.0 1373.2 Q 133.3 1067.0, 366.7 980.0 Q 600.0 1135.2, 833.3 1185.6 Q 1066.7 1391.4, 1300.0 1227.8" fill="none" stroke="#4ECAD1" stroke-opacity="0.18" stroke-width="2"/>
  <path d="M -100.0 893.9 Q 133.3 1214.8, 366.7 1092.2 Q 600.0 909.8, 833.3 658.9 Q 1066.7 537.0, 1300.0 436.8" fill="none" stroke="#FFFFFF" stroke-opacity="0.38" stroke-width="4" filter="url(#soft_coach_16_1567)"/>
  <path d="M -100.0 893.9 Q 133.3 1214.8, 366.7 1092.2 Q 600.0 909.8, 833.3 658.9 Q 1066.7 537.0, 1300.0 436.8" fill="none" stroke="#B891FF" stroke-opacity="0.18" stroke-width="2"/>
  <path d="M -100.0 747.0 Q 133.3 1125.4, 366.7 996.2 Q 600.0 822.1, 833.3 758.5 Q 1066.7 884.7, 1300.0 1060.6" fill="none" stroke="#FFFFFF" stroke-opacity="0.38" stroke-width="4" filter="url(#soft_coach_16_1567)"/>
  <path d="M -100.0 747.0 Q 133.3 1125.4, 366.7 996.2 Q 600.0 822.1, 833.3 758.5 Q 1066.7 884.7, 1300.0 1060.6" fill="none" stroke="#4ECAD1" stroke-opacity="0.18" stroke-width="2"/>
  <path d="M -100.0 2409.3 Q 133.3 2496.1, 366.7 2786.5 Q 600.0 2776.9, 833.3 2610.2 Q 1066.7 2474.5, 1300.0 2328.0" fill="none" stroke="#FFFFFF" stroke-opacity="0.38" stroke-width="4" filter="url(#soft_coach_16_1567)"/>
  <path d="M -100.0 2409.3 Q 133.3 2496.1, 366.7 2786.5 Q 600.0 2776.9, 833.3 2610.2 Q 1066.7 2474.5, 1300.0 2328.0" fill="none" stroke="#B891FF" stroke-opacity="0.18" stroke-width="2"/>
  <circle cx="329" cy="1106" r="143" fill="url(#orb_coach_16_1567)" opacity="0.36"/>
  <circle cx="329" cy="1106" r="143" fill="#B4E6F8" opacity="0.08"/>
  <circle cx="329" cy="1106" r="143" fill="none" stroke="#FFFFFF" stroke-opacity="0.56" stroke-width="3"/>
  <ellipse cx="289.0" cy="1054.5" rx="25.7" ry="11.4" fill="#FFFFFF" opacity="0.42" transform="rotate(-22 289.0 1054.5)"/>
  <circle cx="1218" cy="1230" r="95" fill="url(#orb_coach_16_1567)" opacity="0.36"/>
  <circle cx="1218" cy="1230" r="95" fill="#4ECAD1" opacity="0.08"/>
  <circle cx="1218" cy="1230" r="95" fill="none" stroke="#FFFFFF" stroke-opacity="0.56" stroke-width="3"/>
  <ellipse cx="1191.4" cy="1195.8" rx="17.1" ry="7.6" fill="#FFFFFF" opacity="0.42" transform="rotate(-22 1191.4 1195.8)"/>
  <circle cx="311" cy="1309" r="180" fill="url(#orb_coach_16_1567)" opacity="0.36"/>
  <circle cx="311" cy="1309" r="180" fill="#F7FEFF" opacity="0.08"/>
  <circle cx="311" cy="1309" r="180" fill="none" stroke="#FFFFFF" stroke-opacity="0.56" stroke-width="3"/>
  <ellipse cx="260.6" cy="1244.2" rx="32.4" ry="14.4" fill="#FFFFFF" opacity="0.42" transform="rotate(-22 260.6 1244.2)"/>
  <circle cx="484" cy="484" r="258" fill="url(#orb_coach_16_1567)" opacity="0.24"/>
  <circle cx="484" cy="484" r="258" fill="#86A8FF" opacity="0.08"/>
  <circle cx="484" cy="484" r="258" fill="none" stroke="#FFFFFF" stroke-opacity="0.56" stroke-width="3"/>
  <ellipse cx="411.8" cy="391.1" rx="46.4" ry="20.6" fill="#FFFFFF" opacity="0.42" transform="rotate(-22 411.8 391.1)"/>
  <circle cx="867" cy="1371" r="80" fill="url(#orb_coach_16_1567)" opacity="0.19"/>
  <circle cx="867" cy="1371" r="80" fill="#F7FEFF" opacity="0.08"/>
  <circle cx="867" cy="1371" r="80" fill="none" stroke="#FFFFFF" stroke-opacity="0.56" stroke-width="3"/>
  <ellipse cx="844.6" cy="1342.2" rx="14.4" ry="6.4" fill="#FFFFFF" opacity="0.42" transform="rotate(-22 844.6 1342.2)"/>
  <circle cx="299" cy="16" r="224" fill="url(#orb_coach_16_1567)" opacity="0.18"/>
  <circle cx="299" cy="16" r="224" fill="#CFF3FF" opacity="0.08"/>
  <circle cx="299" cy="16" r="224" fill="none" stroke="#FFFFFF" stroke-opacity="0.56" stroke-width="3"/>
  <ellipse cx="236.3" cy="-64.6" rx="40.3" ry="17.9" fill="#FFFFFF" opacity="0.42" transform="rotate(-22 236.3 -64.6)"/>
  <circle cx="1001" cy="1578" r="128" fill="url(#orb_coach_16_1567)" opacity="0.16"/>
  <circle cx="1001" cy="1578" r="128" fill="#86A8FF" opacity="0.08"/>
  <circle cx="1001" cy="1578" r="128" fill="none" stroke="#FFFFFF" stroke-opacity="0.56" stroke-width="3"/>
  <ellipse cx="965.2" cy="1531.9" rx="23.0" ry="10.2" fill="#FFFFFF" opacity="0.42" transform="rotate(-22 965.2 1531.9)"/>
  <circle cx="131" cy="261" r="218" fill="url(#orb_coach_16_1567)" opacity="0.25"/>
  <circle cx="131" cy="261" r="218" fill="#CFF3FF" opacity="0.08"/>
  <circle cx="131" cy="261" r="218" fill="none" stroke="#FFFFFF" stroke-opacity="0.56" stroke-width="3"/>
  <ellipse cx="70.0" cy="182.5" rx="39.2" ry="17.4" fill="#FFFFFF" opacity="0.42" transform="rotate(-22 70.0 182.5)"/>
  <circle cx="616" cy="1924" r="3" fill="#FFFFFF" opacity="0.28"/>
  <circle cx="1034" cy="361" r="3" fill="#FFFFFF" opacity="0.70"/>
  <circle cx="973" cy="502" r="3" fill="#FFFFFF" opacity="0.51"/>
  <circle cx="649" cy="2423" r="4" fill="#FFFFFF" opacity="0.68"/>
  <circle cx="311" cy="1363" r="7" fill="#FFFFFF" opacity="0.70"/>
  <circle cx="1002" cy="1679" r="5" fill="#FFFFFF" opacity="0.55"/>
  <circle cx="380" cy="1447" r="3" fill="#FFFFFF" opacity="0.38"/>
  <circle cx="596" cy="463" r="4" fill="#FFFFFF" opacity="0.38"/>
  <circle cx="1056" cy="817" r="3" fill="#FFFFFF" opacity="0.56"/>
  <circle cx="798" cy="1138" r="5" fill="#FFFFFF" opacity="0.42"/>
  <circle cx="85" cy="1503" r="2" fill="#FFFFFF" opacity="0.58"/>
  <circle cx="1011" cy="2094" r="3" fill="#FFFFFF" opacity="0.52"/>
  <circle cx="788" cy="1104" r="4" fill="#FFFFFF" opacity="0.44"/>
  <circle cx="648" cy="1662" r="7" fill="#FFFFFF" opacity="0.51"/>
  <circle cx="1046" cy="1315" r="5" fill="#FFFFFF" opacity="0.53"/>
  <circle cx="343" cy="1477" r="2" fill="#FFFFFF" opacity="0.37"/>
  <circle cx="698" cy="44" r="2" fill="#FFFFFF" opacity="0.69"/>
  <circle cx="151" cy="666" r="5" fill="#FFFFFF" opacity="0.40"/>
  <circle cx="61" cy="503" r="4" fill="#FFFFFF" opacity="0.64"/>
  <circle cx="775" cy="26" r="3" fill="#FFFFFF" opacity="0.40"/>
  <circle cx="905" cy="2037" r="7" fill="#FFFFFF" opacity="0.28"/>
  <circle cx="977" cy="791" r="3" fill="#FFFFFF" opacity="0.43"/>
  <rect width="1200" height="2600" fill="#FFFFFF" opacity="0.08"/>
  <rect width="1200" height="2600" filter="url(#grain_coach_16_1567)" opacity="0.7"/>
</svg>
