<svg xmlns="http://www.w3.org/2000/svg" width="1200" height="2600" viewBox="0 0 1200 2600" preserveAspectRatio="xMidYMid slice">
  <defs>
    <linearGradient id="bg_coach_05_5127" x1="0" y1="0" x2="1" y2="1">
      <stop offset="0%" stop-color="#CFF3FF"/>
      <stop offset="48%" stop-color="#F7FEFF"/>
      <stop offset="100%" stop-color="#E3E0FF"/>
    </linearGradient>
    <radialGradient id="orb_coach_05_5127" cx="35%" cy="30%" r="70%">
      <stop offset="0%" stop-color="#FFFFFF" stop-opacity="0.85"/>
      <stop offset="42%" stop-color="#FFFFFF" stop-opacity="0.20"/>
      <stop offset="100%" stop-color="#FFFFFF" stop-opacity="0.02"/>
    </radialGradient>
    <filter id="blur_coach_05_5127" x="-30%" y="-30%" width="160%" height="160%">
      <feGaussianBlur stdDeviation="72"/>
    </filter>
    <filter id="soft_coach_05_5127" x="-20%" y="-20%" width="140%" height="140%">
      <feGaussianBlur stdDeviation="10"/>
    </filter>
    <filter id="grain_coach_05_5127">
      <feTurbulence type="fractalNoise" baseFrequency="0.85" numOctaves="2" stitchTiles="stitch"/>
      <feColorMatrix type="saturate" values="0"/>
      <feComponentTransfer>
        <feFuncA type="table" tableValues="0 0.035"/>
      </feComponentTransfer>
    </filter>
  </defs>
  <rect width="1200" height="2600" fill="url(#bg_coach_05_5127)"/>
  <path d="M 1261.2 958.0 C 1261.2 1268.5, 1217.4 1085.0, 1080.9 1322.9 C 944.4 1560.7, 1042.4 1658.4, 833.3 1712.4 C 624.1 1766.3, 665.3 1722.7, 481.4 1567.4 C 297.4 1412.2, 423.3 1511.5, 350.7 1219.8 C 278.0 928.0, 213.1 1054.6, 285.7 762.8 C 358.4 471.0, 303.2 472.3, 487.2 317.0 C 671.1 161.8, 626.5 187.5, 835.6 241.4 C 1044.8 295.3, 1040.2 248.2, 1176.7 486.1 C 1313.3 724.0, 1261.2 647.5, 1261.2 958.0 Z" fill="#CFF3FF" opacity="0.31" filter="url(#blur_coach_05_5127)"/>
  <path d="M 1208.9 2404.0 C 1208.9 2678.1, 1216.7 2651.2, 1071.2 2861.1 C 925.7 3071.0, 983.9 2896.6, 761.0 2944.2 C 538.0 2991.8, 650.5 3100.8, 454.4 2963.8 C 258.4 2826.8, 278.3 2868.5, 200.8 2611.0 C 123.4 2353.4, 59.3 2431.2, 136.7 2173.7 C 214.1 1916.1, 211.2 1927.6, 407.2 1790.6 C 603.2 1653.5, 545.8 1660.0, 768.8 1707.6 C 991.7 1755.1, 886.8 1734.5, 1032.3 1944.5 C 1177.8 2154.4, 1208.9 2129.9, 1208.9 2404.0 Z" fill="#B4E6F8" opacity="0.25" filter="url(#blur_coach_05_5127)"/>
  <path d="M 423.2 2237.0 C 423.2 2491.2, 398.6 2453.1, 285.8 2647.9 C 173.0 2842.7, 286.3 2808.2, 113.5 2852.4 C -59.3 2896.5, -14.5 2844.1, -166.4 2716.9 C -318.4 2589.8, -274.7 2683.3, -334.8 2444.4 C -394.8 2205.5, -382.9 2273.9, -322.9 2034.9 C -262.8 1796.0, -288.5 1818.6, -136.5 1691.4 C 15.5 1564.3, -55.5 1689.5, 117.3 1733.7 C 290.2 1777.8, 208.1 1622.7, 320.9 1817.4 C 433.7 2012.2, 423.2 1982.8, 423.2 2237.0 Z" fill="#86A8FF" opacity="0.23" filter="url(#blur_coach_05_5127)"/>
  <path d="M 248.7 1378.0 C 248.7 1545.0, 266.4 1491.4, 181.1 1619.3 C 95.8 1747.2, 170.6 1755.6, 39.9 1784.6 C -90.9 1813.6, -44.8 1756.9, -159.8 1673.4 C -274.7 1589.9, -208.0 1646.4, -253.4 1489.5 C -298.8 1332.6, -385.8 1390.7, -340.4 1233.8 C -295.0 1076.9, -305.7 1085.0, -190.8 1001.5 C -75.8 918.0, -96.1 1007.6, 34.7 1036.6 C 165.4 1065.6, 89.7 1024.3, 175.0 1152.2 C 260.3 1280.1, 248.7 1211.0, 248.7 1378.0 Z" fill="#B4E6F8" opacity="0.18" filter="url(#blur_coach_05_5127)"/>
  <path d="M 1325.9 2410.0 C 1325.9 2638.2, 1359.7 2527.4, 1198.0 2702.2 C 1036.3 2877.0, 1123.3 2818.2, 875.5 2857.8 C 627.8 2897.4, 722.5 2925.4, 504.7 2811.3 C 286.8 2697.3, 321.3 2797.0, 235.2 2582.6 C 149.2 2368.2, 205.7 2467.2, 291.8 2252.8 C 377.8 2038.4, 332.3 2137.5, 550.1 2023.4 C 768.0 1909.3, 644.6 1816.7, 892.4 1856.3 C 1140.1 1896.0, 1068.5 1886.2, 1230.2 2061.0 C 1391.9 2235.7, 1325.9 2181.8, 1325.9 2410.0 Z" fill="#CFF3FF" opacity="0.38" filter="url(#blur_coach_05_5127)"/>
  <path d="M 289.4 2805.0 C 289.4 2946.8, 384.0 2879.4, 288.8 2988.0 C 193.7 3096.6, 217.0 3135.3, 71.2 3160.0 C -74.6 3184.6, -47.6 3133.7, -175.8 3062.8 C -304.0 2992.0, -241.4 3062.5, -292.0 2929.3 C -342.6 2796.1, -389.9 2843.9, -339.3 2710.7 C -288.7 2577.5, -281.2 2631.9, -153.0 2561.0 C -24.8 2490.1, -86.5 2417.4, 59.3 2442.0 C 205.1 2466.6, 191.7 2490.5, 286.9 2599.1 C 382.0 2707.7, 289.4 2663.2, 289.4 2805.0 Z" fill="#B891FF" opacity="0.19" filter="url(#blur_coach_05_5127)"/>
  <path d="M 866.6 1024.0 C 866.6 1211.2, 828.7 1156.3, 730.3 1299.7 C 632.0 1443.1, 718.6 1426.2, 567.9 1458.7 C 417.2 1491.2, 454.7 1514.9, 322.2 1421.3 C 189.7 1327.7, 268.6 1326.5, 216.3 1150.6 C 163.9 974.7, 89.0 1075.5, 141.3 899.5 C 193.7 723.6, 228.6 751.8, 361.1 658.2 C 493.6 564.6, 429.7 633.7, 580.3 666.2 C 731.0 698.7, 645.4 582.7, 743.8 726.1 C 842.1 869.5, 866.6 836.8, 866.6 1024.0 Z" fill="#E3E0FF" opacity="0.32" filter="url(#blur_coach_05_5127)"/>
  <path d="M 618.3 1533.0 C 618.3 1844.4, 720.5 1766.2, 581.9 2004.7 C 443.4 2243.3, 462.8 2213.2, 250.5 2267.3 C 38.2 2321.3, 102.6 2364.5, -84.1 2208.8 C -270.8 2053.1, -220.6 2078.3, -294.3 1785.7 C -368.0 1493.1, -305.3 1603.7, -231.5 1311.1 C -157.8 1018.5, -282.7 1147.3, -96.1 991.6 C 90.6 835.9, 50.3 713.0, 262.6 767.1 C 474.9 821.1, 432.3 926.5, 570.9 1165.1 C 709.4 1403.6, 618.3 1221.6, 618.3 1533.0 Z" fill="#B891FF" opacity="0.19" filter="url(#blur_coach_05_5127)"/>
  <path d="M 985.6 -269.0 C 985.6 -32.8, 1036.6 -160.5, 851.4 30.6 C 666.3 221.7, 898.2 100.7, 598.7 173.7 C 299.1 246.7, 423.8 357.0, 124.2 284.0 C -175.4 211.0, 5.4 249.5, -179.7 58.4 C -364.9 -132.8, -252.3 -32.7, -252.3 -269.0 C -252.3 -505.2, -417.9 -349.8, -232.8 -540.9 C -47.6 -732.1, -155.5 -765.0, 144.1 -838.0 C 443.7 -911.0, 282.7 -815.8, 582.3 -742.8 C 881.9 -669.8, 783.0 -783.9, 968.1 -592.8 C 1153.3 -401.6, 985.6 -505.2, 985.6 -269.0 Z" fill="#CCF7ED" opacity="0.12" stroke="#CCF7ED" stroke-opacity="0.46" stroke-width="3" filter="url(#soft_coach_05_5127)"/>
  <path d="M 985.6 -269.0 C 985.6 -32.8, 1036.6 -160.5, 851.4 30.6 C 666.3 221.7, 898.2 100.7, 598.7 173.7 C 299.1 246.7, 423.8 357.0, 124.2 284.0 C -175.4 211.0, 5.4 249.5, -179.7 58.4 C -364.9 -132.8, -252.3 -32.7, -252.3 -269.0 C -252.3 -505.2, -417.9 -349.8, -232.8 -540.9 C -47.6 -732.1, -155.5 -765.0, 144.1 -838.0 C 443.7 -911.0, 282.7 -815.8, 582.3 -742.8 C 881.9 -669.8, 783.0 -783.9, 968.1 -592.8 C 1153.3 -401.6, 985.6 -505.2, 985.6 -269.0 Z" fill="none" stroke="#FFFFFF" stroke-opacity="0.22" stroke-width="1.2"/>
  <path d="M 387.9 2696.0 C 387.9 2959.2, 400.7 2799.3, 304.9 3012.2 C 209.2 3225.2, 276.3 3153.9, 121.3 3235.3 C -33.6 3316.6, 47.2 3281.2, -107.7 3199.8 C -262.6 3118.5, -181.2 3215.5, -277.0 3002.5 C -372.7 2789.5, -346.6 2959.2, -346.6 2696.0 C -346.6 2432.8, -398.7 2517.1, -302.9 2304.1 C -207.2 2091.1, -251.3 2160.4, -96.4 2079.1 C 58.5 1997.7, -22.8 2072.9, 132.1 2154.3 C 287.1 2235.6, 239.1 2110.5, 334.8 2323.4 C 430.6 2536.4, 387.9 2432.8, 387.9 2696.0 Z" fill="#E3E0FF" opacity="0.12" stroke="#FFFFFF" stroke-opacity="0.46" stroke-width="3" filter="url(#soft_coach_05_5127)"/>
  <path d="M 387.9 2696.0 C 387.9 2959.2, 400.7 2799.3, 304.9 3012.2 C 209.2 3225.2, 276.3 3153.9, 121.3 3235.3 C -33.6 3316.6, 47.2 3281.2, -107.7 3199.8 C -262.6 3118.5, -181.2 3215.5, -277.0 3002.5 C -372.7 2789.5, -346.6 2959.2, -346.6 2696.0 C -346.6 2432.8, -398.7 2517.1, -302.9 2304.1 C -207.2 2091.1, -251.3 2160.4, -96.4 2079.1 C 58.5 1997.7, -22.8 2072.9, 132.1 2154.3 C 287.1 2235.6, 239.1 2110.5, 334.8 2323.4 C 430.6 2536.4, 387.9 2432.8, 387.9 2696.0 Z" fill="none" stroke="#FFFFFF" stroke-opacity="0.22" stroke-width="1.2"/>
  <path d="M 1008.6 1734.0 C 1008.6 2121.4, 1074.7 1892.3, 943.5 2205.8 C 812.3 2519.3, 909.4 2445.6, 697.1 2565.4 C 484.8 2685.1, 615.1 2762.8, 402.8 2643.0 C 190.6 2523.3, 309.6 2573.0, 178.4 2259.5 C 47.2 1946.1, 96.9 2121.4, 96.9 1734.0 C 96.9 1346.5, 65.6 1491.8, 196.8 1178.4 C 328.0 864.9, 190.0 1068.7, 402.3 949.0 C 614.5 829.3, 496.6 814.3, 708.9 934.1 C 921.1 1053.8, 869.9 871.7, 1001.1 1185.2 C 1132.3 1498.6, 1008.6 1346.5, 1008.6 1734.0 Z" fill="#B891FF" opacity="0.12" stroke="#B891FF" stroke-opacity="0.46" stroke-width="3" filter="url(#soft_coach_05_5127)"/>
  <path d="M 1008.6 1734.0 C 1008.6 2121.4, 1074.7 1892.3, 943.5 2205.8 C 812.3 2519.3, 909.4 2445.6, 697.1 2565.4 C 484.8 2685.1, 615.1 2762.8, 402.8 2643.0 C 190.6 2523.3, 309.6 2573.0, 178.4 2259.5 C 47.2 1946.1, 96.9 2121.4, 96.9 1734.0 C 96.9 1346.5, 65.6 1491.8, 196.8 1178.4 C 328.0 864.9, 190.0 1068.7, 402.3 949.0 C 614.5 829.3, 496.6 814.3, 708.9 934.1 C 921.1 1053.8, 869.9 871.7, 1001.1 1185.2 C 1132.3 1498.6, 1008.6 1346.5, 1008.6 1734.0 Z" fill="none" stroke="#FFFFFF" stroke-opacity="0.22" stroke-width="1.2"/>
  <path d="M 591.4 -83.0 C 591.4 245.9, 658.7 117.1, 523.3 383.2 C 387.9 649.4, 462.1 527.4, 243.0 629.1 C 23.9 730.7, 140.6 706.8, -78.5 605.1 C -297.6 503.5, -151.3 609.2, -286.7 343.1 C -422.1 76.9, -429.9 246.0, -429.9 -83.0 C -429.9 -411.9, -489.0 -239.8, -353.6 -505.9 C -218.2 -772.0, -315.3 -700.5, -96.2 -802.1 C 122.9 -903.8, 12.2 -787.0, 231.4 -685.4 C 450.5 -583.7, 334.1 -805.3, 469.5 -539.2 C 605.0 -273.0, 591.4 -411.9, 591.4 -83.0 Z" fill="#86A8FF" opacity="0.12" stroke="#FFFFFF" stroke-opacity="0.46" stroke-width="3" filter="url(#soft_coach_05_5127)"/>
  <path d="M 591.4 -83.0 C 591.4 245.9, 658.7 117.1, 523.3 383.2 C 387.9 649.4, 462.1 527.4, 243.0 629.1 C 23.9 730.7, 140.6 706.8, -78.5 605.1 C -297.6 503.5, -151.3 609.2, -286.7 343.1 C -422.1 76.9, -429.9 246.0, -429.9 -83.0 C -429.9 -411.9, -489.0 -239.8, -353.6 -505.9 C -218.2 -772.0, -315.3 -700.5, -96.2 -802.1 C 122.9 -903.8, 12.2 -787.0, 231.4 -685.4 C 450.5 -583.7, 334.1 -805.3, 469.5 -539.2 C 605.0 -273.0, 591.4 -411.9, 591.4 -83.0 Z" fill="none" stroke="#FFFFFF" stroke-opacity="0.22" stroke-width="1.2"/>
  <path d="M 722.1 2522.0 C 722.1 2829.3, 775.1 2726.7, 606.1 2975.3 C 437.1 3224.0, 487.9 3165.6, 214.4 3260.5 C -59.1 3355.5, 114.2 3344.6, -159.2 3249.7 C -432.7 3154.7, -286.8 3116.1, -455.8 2867.5 C -624.8 2618.8, -665.7 2829.3, -665.7 2522.0 C -665.7 2214.7, -687.4 2314.2, -518.4 2065.6 C -349.4 1816.9, -454.4 2026.5, -180.9 1931.5 C 92.6 1836.5, -31.5 1735.6, 241.9 1830.5 C 515.4 1925.5, 372.3 1854.9, 541.3 2103.5 C 710.4 2352.2, 722.1 2214.7, 722.1 2522.0 Z" fill="#F7FEFF" opacity="0.12" stroke="#FFFFFF" stroke-opacity="0.46" stroke-width="3" filter="url(#soft_coach_05_5127)"/>
  <path d="M 722.1 2522.0 C 722.1 2829.3, 775.1 2726.7, 606.1 2975.3 C 437.1 3224.0, 487.9 3165.6, 214.4 3260.5 C -59.1 3355.5, 114.2 3344.6, -159.2 3249.7 C -432.7 3154.7, -286.8 3116.1, -455.8 2867.5 C -624.8 2618.8, -665.7 2829.3, -665.7 2522.0 C -665.7 2214.7, -687.4 2314.2, -518.4 2065.6 C -349.4 1816.9, -454.4 2026.5, -180.9 1931.5 C 92.6 1836.5, -31.5 1735.6, 241.9 1830.5 C 515.4 1925.5, 372.3 1854.9, 541.3 2103.5 C 710.4 2352.2, 722.1 2214.7, 722.1 2522.0 Z" fill="none" stroke="#FFFFFF" stroke-opacity="0.22" stroke-width="1.2"/>
  <path d="M 1110.5 847.0 C 1110.5 1231.3, 1184.8 1014.7, 1045.2 1325.6 C 905.5 1636.5, 1018.4 1507.8, 792.5 1626.5 C 566.5 1745.3, 679.6 1839.8, 453.6 1721.1 C 227.6 1602.3, 328.0 1625.1, 188.4 1314.2 C 48.7 1003.3, 77.4 1231.3, 77.4 847.0 C 77.4 462.7, 40.8 616.6, 180.5 305.7 C 320.1 -5.2, 237.2 152.8, 463.2 34.0 C 689.1 -84.7, 576.2 -195.8, 802.1 -77.0 C 1028.1 41.7, 919.3 -10.8, 1058.9 300.1 C 1198.6 611.0, 1110.5 462.7, 1110.5 847.0 Z" fill="#4ECAD1" opacity="0.12" stroke="#FFFFFF" stroke-opacity="0.46" stroke-width="3" filter="url(#soft_coach_05_5127)"/>
  <path d="M 1110.5 847.0 C 1110.5 1231.3, 1184.8 1014.7, 1045.2 1325.6 C 905.5 1636.5, 1018.4 1507.8, 792.5 1626.5 C 566.5 1745.3, 679.6 1839.8, 453.6 1721.1 C 227.6 1602.3, 328.0 1625.1, 188.4 1314.2 C 48.7 1003.3, 77.4 1231.3, 77.4 847.0 C 77.4 462.7, 40.8 616.6, 180.5 305.7 C 320.1 -5.2, 237.2 152.8, 463.2 34.0 C 689.1 -84.7, 576.2 -195.8, 802.1 -77.0 C 1028.1 41.7, 919.3 -10.8, 1058.9 300.1 C 1198.6 611.0, 1110.5 462.7, 1110.5 847.0 Z" fill="none" stroke="#FFFFFF" stroke-opacity="0.22" stroke-width="1.2"/>
  <path d="M 1989.8 -164.0 C 1989.8 49.3, 2078.4 -86.7, 1910.7 85.8 C 1743.0 258.4, 1857.6 172.2, 1586.2 238.1 C 1314.9 304.0, 1505.1 362.3, 1233.8 296.4 C 962.5 230.5, 1000.7 265.3, 833.0 92.7 C 665.3 -79.8, 734.3 49.3, 734.3 -164.0 C 734.3 -377.3, 685.8 -285.0, 853.5 -457.5 C 1021.2 -630.1, 921.8 -544.0, 1193.1 -609.9 C 1464.5 -675.8, 1354.3 -675.9, 1625.6 -610.0 C 1897.0 -544.1, 1721.1 -630.5, 1888.8 -458.0 C 2056.5 -285.4, 1989.8 -377.3, 1989.8 -164.0 Z" fill="#CFF3FF" opacity="0.12" stroke="#CFF3FF" stroke-opacity="0.46" stroke-width="3" filter="url(#soft_coach_05_5127)"/>
  <path d="M 1989.8 -164.0 C 1989.8 49.3, 2078.4 -86.7, 1910.7 85.8 C 1743.0 258.4, 1857.6 172.2, 1586.2 238.1 C 1314.9 304.0, 1505.1 362.3, 1233.8 296.4 C 962.5 230.5, 1000.7 265.3, 833.0 92.7 C 665.3 -79.8, 734.3 49.3, 734.3 -164.0 C 734.3 -377.3, 685.8 -285.0, 853.5 -457.5 C 1021.2 -630.1, 921.8 -544.0, 1193.1 -609.9 C 1464.5 -675.8, 1354.3 -675.9, 1625.6 -610.0 C 1897.0 -544.1, 1721.1 -630.5, 1888.8 -458.0 C 2056.5 -285.4, 1989.8 -377.3, 1989.8 -164.0 Z" fill="none" stroke="#FFFFFF" stroke-opacity="0.22" stroke-width="1.2"/>
  <path d="M -100.0 2382.4 Q 133.3 2310.8, 366.7 2294.2 Q 600.0 2596.3, 833.3 2632.8 Q 1066.7 2511.9, 1300.0 2295.8" fill="none" stroke="#FFFFFF" stroke-opacity="0.38" stroke-width="4" filter="url(#soft_coach_05_5127)"/>
  <path d="M -100.0 2382.4 Q 133.3 2310.8, 366.7 2294.2 Q 600.0 2596.3, 833.3 2632.8 Q 1066.7 2511.9, 1300.0 2295.8" fill="none" stroke="#86A8FF" stroke-opacity="0.18" stroke-width="2"/>
  <path d="M -100.0 1084.5 Q 133.3 910.1, 366.7 682.5 Q 600.0 710.6, 833.3 956.5 Q 1066.7 1167.4, 1300.0 912.7" fill="none" stroke="#FFFFFF" stroke-opacity="0.38" stroke-width="4" filter="url(#soft_coach_05_5127)"/>
  <path d="M -100.0 1084.5 Q 133.3 910.1, 366.7 682.5 Q 600.0 710.6, 833.3 956.5 Q 1066.7 1167.4, 1300.0 912.7" fill="none" stroke="#86A8FF" stroke-opacity="0.18" stroke-width="2"/>
  <path d="M -100.0 1562.3 Q 133.3 1476.5, 366.7 1340.0 Q 600.0 1279.8, 833.3 1495.0 Q 1066.7 1578.6, 1300.0 1503.9" fill="none" stroke="#FFFFFF" stroke-opacity="0.38" stroke-width="4" filter="url(#soft_coach_05_5127)"/>
  <path d="M -100.0 1562.3 Q 133.3 1476.5, 366.7 1340.0 Q 600.0 1279.8, 833.3 1495.0 Q 1066.7 1578.6, 1300.0 1503.9" fill="none" stroke="#86A8FF" stroke-opacity="0.18" stroke-width="2"/>
  <path d="M -100.0 2333.7 Q 133.3 2727.7, 366.7 2854.2 Q 600.0 2533.1, 833.3 2430.3 Q 1066.7 2580.8, 1300.0 2892.3" fill="none" stroke="#FFFFFF" stroke-opacity="0.38" stroke-width="4" filter="url(#soft_coach_05_5127)"/>
  <path d="M -100.0 2333.7 Q 133.3 2727.7, 366.7 2854.2 Q 600.0 2533.1, 833.3 2430.3 Q 1066.7 2580.8, 1300.0 2892.3" fill="none" stroke="#86A8FF" stroke-opacity="0.18" stroke-width="2"/>
  <path d="M -100.0 218.0 Q 133.3 317.3, 366.7 619.3 Q 600.0 762.2, 833.3 661.9 Q 1066.7 528.4, 1300.0 378.8" fill="none" stroke="#FFFFFF" stroke-opacity="0.38" stroke-width="4" filter="url(#soft_coach_05_5127)"/>
  <path d="M -100.0 218.0 Q 133.3 317.3, 366.7 619.3 Q 600.0 762.2, 833.3 661.9 Q 1066.7 528.4, 1300.0 378.8" fill="none" stroke="#4ECAD1" stroke-opacity="0.18" stroke-width="2"/>
  <circle cx="451" cy="2484" r="148" fill="url(#orb_coach_05_5127)" opacity="0.36"/>
  <circle cx="451" cy="2484" r="148" fill="#F7FEFF" opacity="0.08"/>
  <circle cx="451" cy="2484" r="148" fill="none" stroke="#FFFFFF" stroke-opacity="0.56" stroke-width="3"/>
  <ellipse cx="409.6" cy="2430.7" rx="26.6" ry="11.8" fill="#FFFFFF" opacity="0.42" transform="rotate(-22 409.6 2430.7)"/>
  <circle cx="-57" cy="647" r="215" fill="url(#orb_coach_05_5127)" opacity="0.36"/>
  <circle cx="-57" cy="647" r="215" fill="#E3E0FF" opacity="0.08"/>
  <circle cx="-57" cy="647" r="215" fill="none" stroke="#FFFFFF" stroke-opacity="0.56" stroke-width="3"/>
  <ellipse cx="-117.2" cy="569.6" rx="38.7" ry="17.2" fill="#FFFFFF" opacity="0.42" transform="rotate(-22 -117.2 569.6)"/>
  <circle cx="101" cy="452" r="243" fill="url(#orb_coach_05_5127)" opacity="0.36"/>
  <circle cx="101" cy="452" r="243" fill="#CCF7ED" opacity="0.08"/>
  <circle cx="101" cy="452" r="243" fill="none" stroke="#FFFFFF" stroke-opacity="0.56" stroke-width="3"/>
  <ellipse cx="33.0" cy="364.5" rx="43.7" ry="19.4" fill="#FFFFFF" opacity="0.42" transform="rotate(-22 33.0 364.5)"/>
  <circle cx="131" cy="547" r="282" fill="url(#orb_coach_05_5127)" opacity="0.21"/>
  <circle cx="131" cy="547" r="282" fill="#4ECAD1" opacity="0.08"/>
  <circle cx="131" cy="547" r="282" fill="none" stroke="#FFFFFF" stroke-opacity="0.56" stroke-width="3"/>
  <ellipse cx="52.0" cy="445.5" rx="50.8" ry="22.6" fill="#FFFFFF" opacity="0.42" transform="rotate(-22 52.0 445.5)"/>
  <circle cx="178" cy="1253" r="146" fill="url(#orb_coach_05_5127)" opacity="0.17"/>
  <circle cx="178" cy="1253" r="146" fill="#B4E6F8" opacity="0.08"/>
  <circle cx="178" cy="1253" r="146" fill="none" stroke="#FFFFFF" stroke-opacity="0.56" stroke-width="3"/>
  <ellipse cx="137.1" cy="1200.4" rx="26.3" ry="11.7" fill="#FFFFFF" opacity="0.42" transform="rotate(-22 137.1 1200.4)"/>
  <circle cx="834" cy="1679" r="282" fill="url(#orb_coach_05_5127)" opacity="0.21"/>
  <circle cx="834" cy="1679" r="282" fill="#F7FEFF" opacity="0.08"/>
  <circle cx="834" cy="1679" r="282" fill="none" stroke="#FFFFFF" stroke-opacity="0.56" stroke-width="3"/>
  <ellipse cx="755.0" cy="1577.5" rx="50.8" ry="22.6" fill="#FFFFFF" opacity="0.42" transform="rotate(-22 755.0 1577.5)"/>
  <circle cx="1241" cy="-1" r="97" fill="url(#orb_coach_05_5127)" opacity="0.23"/>
  <circle cx="1241" cy="-1" r="97" fill="#B4E6F8" opacity="0.08"/>
  <circle cx="1241" cy="-1" r="97" fill="none" stroke="#FFFFFF" stroke-opacity="0.56" stroke-width="3"/>
  <ellipse cx="1213.8" cy="-35.9" rx="17.5" ry="7.8" fill="#FFFFFF" opacity="0.42" transform="rotate(-22 1213.8 -35.9)"/>
  <circle cx="28" cy="243" r="2" fill="#FFFFFF" opacity="0.70"/>
  <circle cx="43" cy="1119" r="5" fill="#FFFFFF" opacity="0.42"/>
  <circle cx="361" cy="349" r="4" fill="#FFFFFF" opacity="0.50"/>
  <circle cx="187" cy="403" r="2" fill="#FFFFFF" opacity="0.69"/>
  <circle cx="710" cy="2169" r="4" fill="#FFFFFF" opacity="0.45"/>
  <circle cx="700" cy="2420" r="7" fill="#FFFFFF" opacity="0.30"/>
  <circle cx="660" cy="576" r="4" fill="#FFFFFF" opacity="0.33"/>
  <circle cx="535" cy="1938" r="7" fill="#FFFFFF" opacity="0.54"/>
  <circle cx="473" cy="610" r="7" fill="#FFFFFF" opacity="0.72"/>
  <circle cx="1128" cy="1018" r="2" fill="#FFFFFF" opacity="0.53"/>
  <circle cx="524" cy="1627" r="2" fill="#FFFFFF" opacity="0.38"/>
  <circle cx="158" cy="2053" r="2" fill="#FFFFFF" opacity="0.57"/>
  <circle cx="141" cy="1170" r="3" fill="#FFFFFF" opacity="0.61"/>
  <circle cx="570" cy="379" r="5" fill="#FFFFFF" opacity="0.54"/>
  <circle cx="1106" cy="1391" r="5" fill="#FFFFFF" opacity="0.33"/>
  <circle cx="457" cy="69" r="5" fill="#FFFFFF" opacity="0.32"/>
  <circle cx="996" cy="2213" r="2" fill="#FFFFFF" opacity="0.58"/>
  <circle cx="1050" cy="1829" r="3" fill="#FFFFFF" opacity="0.69"/>
  <rect width="1200" height="2600" fill="#FFFFFF" opacity="0.08"/>
  <rect width="1200" height="2600" filter="url(#grain_coach_05_5127)" opacity="0.7"/>
</svg>
