<svg xmlns="http://www.w3.org/2000/svg" width="1200" height="2600" viewBox="0 0 1200 2600" preserveAspectRatio="xMidYMid slice">
  <defs>
    <linearGradient id="bg_coach_03_8475" x1="0" y1="0" x2="1" y2="1">
      <stop offset="0%" stop-color="#F7FEFF"/>
      <stop offset="48%" stop-color="#CFF3FF"/>
      <stop offset="100%" stop-color="#B4E6F8"/>
    </linearGradient>
    <radialGradient id="orb_coach_03_8475" cx="35%" cy="30%" r="70%">
      <stop offset="0%" stop-color="#FFFFFF" stop-opacity="0.85"/>
      <stop offset="42%" stop-color="#FFFFFF" stop-opacity="0.20"/>
      <stop offset="100%" stop-color="#FFFFFF" stop-opacity="0.02"/>
    </radialGradient>
    <filter id="blur_coach_03_8475" x="-30%" y="-30%" width="160%" height="160%">
      <feGaussianBlur stdDeviation="72"/>
    </filter>
    <filter id="soft_coach_03_8475" x="-20%" y="-20%" width="140%" height="140%">
      <feGaussianBlur stdDeviation="10"/>
    </filter>
    <filter id="grain_coach_03_8475">
      <feTurbulence type="fractalNoise" baseFrequency="0.85" numOctaves="2" stitchTiles="stitch"/>
      <feColorMatrix type="saturate" values="0"/>
      <feComponentTransfer>
        <feFuncA type="table" tableValues="0 0.035"/>
      </feComponentTransfer>
    </filter>
  </defs>
  <rect width="1200" height="2600" fill="url(#bg_coach_03_8475)"/>
  <path d="M 1410.0 -140.0 C 1410.0 143.1, 1375.6 93.4, 1268.8 310.2 C 1162.1 527.0, 1234.7 489.2, 1071.2 538.4 C 907.6 587.5, 931.2 597.7, 787.4 456.1 C 643.6 314.6, 739.6 374.8, 682.8 108.8 C 626.0 -157.2, 618.6 -78.0, 675.4 -344.0 C 732.2 -609.9, 670.5 -507.7, 814.3 -649.3 C 958.1 -790.8, 903.8 -853.1, 1067.4 -803.9 C 1230.9 -754.8, 1148.8 -785.5, 1255.5 -568.6 C 1362.3 -351.8, 1410.0 -423.1, 1410.0 -140.0 Z" fill="#B4E6F8" opacity="0.22" filter="url(#blur_coach_03_8475)"/>
  <path d="M 563.0 -190.0 C 563.0 -3.7, 581.3 -18.8, 485.6 123.9 C 389.8 266.7, 393.5 208.2, 246.8 240.6 C 100.1 272.9, 135.8 242.3, 6.8 149.2 C -122.2 56.0, -120.9 132.1, -171.8 -42.9 C -222.8 -218.0, -158.3 -155.9, -107.3 -331.0 C -56.4 -506.1, -111.5 -444.4, 17.5 -537.5 C 146.5 -630.7, 94.1 -570.6, 240.8 -538.3 C 387.4 -505.9, 358.3 -571.7, 454.1 -429.0 C 549.8 -286.3, 563.0 -376.3, 563.0 -190.0 Z" fill="#86A8FF" opacity="0.25" filter="url(#blur_coach_03_8475)"/>
  <path d="M 373.5 732.0 C 373.5 941.7, 493.4 908.9, 360.6 1069.6 C 227.9 1230.2, 250.6 1143.3, 47.2 1179.7 C -156.2 1216.2, -68.5 1264.9, -247.4 1160.1 C -426.3 1055.2, -394.7 1094.3, -465.4 897.2 C -536.0 700.2, -478.6 795.4, -407.9 598.3 C -337.3 401.3, -433.9 405.5, -255.0 300.6 C -76.1 195.8, -137.8 178.3, 65.6 214.7 C 269.0 251.1, 148.5 271.8, 281.2 432.5 C 414.0 593.1, 373.5 522.3, 373.5 732.0 Z" fill="#E3E0FF" opacity="0.34" filter="url(#blur_coach_03_8475)"/>
  <path d="M 1128.4 1538.0 C 1128.4 1687.4, 1245.6 1648.6, 1099.3 1763.0 C 952.9 1877.5, 975.8 1826.8, 751.5 1852.8 C 527.3 1878.7, 648.0 1854.2, 450.8 1779.5 C 253.6 1704.8, 318.7 1805.5, 240.8 1665.1 C 162.9 1524.7, 39.9 1566.4, 117.8 1426.0 C 195.7 1285.6, 231.8 1363.1, 429.0 1288.4 C 626.2 1213.7, 549.2 1175.5, 773.4 1201.4 C 997.7 1227.4, 916.7 1204.1, 1063.0 1318.6 C 1209.4 1433.0, 1128.4 1388.6, 1128.4 1538.0 Z" fill="#B891FF" opacity="0.33" filter="url(#blur_coach_03_8475)"/>
  <path d="M 1754.5 2811.0 C 1754.5 2929.3, 1869.2 2886.1, 1736.5 2976.7 C 1603.7 3067.4, 1649.3 3046.8, 1445.9 3067.4 C 1242.5 3087.9, 1296.6 3112.6, 1117.7 3053.4 C 938.8 2994.3, 1066.9 3000.8, 996.2 2889.6 C 925.6 2778.4, 823.2 2816.3, 893.9 2705.1 C 964.5 2593.9, 942.9 2672.9, 1121.8 2613.7 C 1300.7 2554.5, 1250.4 2564.9, 1453.8 2585.4 C 1657.2 2606.0, 1634.5 2579.1, 1767.2 2669.8 C 1900.0 2760.5, 1754.5 2692.7, 1754.5 2811.0 Z" fill="#E3E0FF" opacity="0.30" filter="url(#blur_coach_03_8475)"/>
  <path d="M 583.9 1910.0 C 583.9 2144.4, 648.7 2033.6, 502.4 2213.2 C 356.0 2392.8, 417.3 2297.7, 193.1 2338.4 C -31.2 2379.1, 14.1 2542.5, -183.0 2425.3 C -380.2 2308.1, -291.1 2309.8, -369.0 2089.5 C -446.9 1869.2, -476.1 1978.6, -398.2 1758.3 C -320.3 1538.0, -368.5 1525.7, -171.4 1408.5 C 25.8 1291.3, -47.2 1431.4, 177.1 1472.1 C 401.3 1512.8, 361.8 1353.9, 508.2 1533.5 C 654.6 1713.1, 583.9 1675.5, 583.9 1910.0 Z" fill="#CFF3FF" opacity="0.23" filter="url(#blur_coach_03_8475)"/>
  <path d="M 1629.7 681.0 C 1629.7 987.9, 1663.6 906.0, 1565.3 1141.1 C 1466.9 1376.2, 1468.6 1355.1, 1317.9 1408.4 C 1167.3 1461.7, 1210.6 1358.0, 1078.1 1204.5 C 945.6 1051.1, 998.7 1224.1, 946.4 935.7 C 894.0 647.3, 895.6 774.6, 947.9 486.2 C 1000.3 197.8, 952.3 343.3, 1084.8 189.8 C 1217.4 36.4, 1170.3 -85.2, 1320.9 -31.9 C 1471.6 21.4, 1433.5 -48.2, 1531.8 186.9 C 1630.2 422.0, 1629.7 374.1, 1629.7 681.0 Z" fill="#F7FEFF" opacity="0.37" filter="url(#blur_coach_03_8475)"/>
  <path d="M 1499.9 1165.0 C 1499.9 1321.2, 1434.9 1250.6, 1282.7 1370.3 C 1130.6 1489.9, 1281.9 1489.9, 1048.8 1517.1 C 815.7 1544.2, 849.4 1539.4, 644.4 1461.3 C 439.4 1383.3, 511.4 1415.6, 430.5 1268.8 C 349.5 1122.1, 377.8 1192.7, 458.7 1045.9 C 539.7 899.2, 438.7 891.9, 643.7 813.8 C 848.7 735.7, 817.0 846.2, 1050.1 873.3 C 1283.2 900.4, 1265.8 815.7, 1417.9 935.4 C 1570.1 1055.0, 1499.9 1008.9, 1499.9 1165.0 Z" fill="#E3E0FF" opacity="0.28" filter="url(#blur_coach_03_8475)"/>
  <path d="M 724.5 -223.0 C 724.5 -54.7, 718.1 -127.0, 589.6 1.9 C 461.2 130.9, 587.2 166.1, 390.5 195.3 C 193.7 224.5, 263.8 152.1, 90.8 68.0 C -82.2 -16.2, -69.7 45.9, -138.0 -112.2 C -206.4 -270.4, -224.3 -186.6, -156.0 -344.7 C -87.7 -502.9, -90.5 -474.0, 82.5 -558.2 C 255.5 -642.3, 177.5 -580.6, 374.3 -551.4 C 571.0 -522.2, 497.5 -562.3, 625.9 -433.4 C 754.3 -304.5, 724.5 -391.3, 724.5 -223.0 Z" fill="#4ECAD1" opacity="0.37" filter="url(#blur_coach_03_8475)"/>
  <path d="M 1732.1 661.0 C 1732.1 958.9, 1735.7 852.7, 1632.5 1093.7 C 1529.3 1334.7, 1582.8 1126.1, 1415.9 1218.1 C 1249.0 1310.2, 1346.7 1329.9, 1179.8 1237.8 C 1012.9 1145.8, 1041.3 1315.8, 938.1 1074.8 C 835.0 833.8, 843.9 958.9, 843.9 661.0 C 843.9 363.1, 857.4 487.5, 960.6 246.5 C 1063.7 5.5, 1003.1 72.4, 1170.0 -19.6 C 1336.9 -111.7, 1257.3 -0.5, 1424.2 91.5 C 1591.2 183.6, 1479.7 47.0, 1582.9 288.0 C 1686.0 529.0, 1732.1 363.1, 1732.1 661.0 Z" fill="#CCF7ED" opacity="0.12" stroke="#CCF7ED" stroke-opacity="0.46" stroke-width="3" filter="url(#soft_coach_03_8475)"/>
  <path d="M 1732.1 661.0 C 1732.1 958.9, 1735.7 852.7, 1632.5 1093.7 C 1529.3 1334.7, 1582.8 1126.1, 1415.9 1218.1 C 1249.0 1310.2, 1346.7 1329.9, 1179.8 1237.8 C 1012.9 1145.8, 1041.3 1315.8, 938.1 1074.8 C 835.0 833.8, 843.9 958.9, 843.9 661.0 C 843.9 363.1, 857.4 487.5, 960.6 246.5 C 1063.7 5.5, 1003.1 72.4, 1170.0 -19.6 C 1336.9 -111.7, 1257.3 -0.5, 1424.2 91.5 C 1591.2 183.6, 1479.7 47.0, 1582.9 288.0 C 1686.0 529.0, 1732.1 363.1, 1732.1 661.0 Z" fill="none" stroke="#FFFFFF" stroke-opacity="0.22" stroke-width="1.2"/>
  <path d="M 332.1 1558.0 C 332.1 1891.9, 381.0 1766.2, 277.6 2036.4 C 174.1 2306.5, 211.9 2070.1, 44.6 2173.3 C -122.7 2276.4, -24.3 2389.1, -191.6 2285.9 C -359.0 2182.7, -297.5 2315.0, -400.9 2044.9 C -504.3 1774.8, -449.2 1891.9, -449.2 1558.0 C -449.2 1224.1, -472.8 1406.6, -369.4 1136.4 C -265.9 866.3, -370.5 1052.9, -203.2 949.7 C -35.8 846.5, -120.2 694.9, 47.2 798.1 C 214.5 901.3, 154.8 832.0, 258.2 1102.1 C 361.6 1372.3, 332.1 1224.1, 332.1 1558.0 Z" fill="#E3E0FF" opacity="0.12" stroke="#E3E0FF" stroke-opacity="0.46" stroke-width="3" filter="url(#soft_coach_03_8475)"/>
  <path d="M 332.1 1558.0 C 332.1 1891.9, 381.0 1766.2, 277.6 2036.4 C 174.1 2306.5, 211.9 2070.1, 44.6 2173.3 C -122.7 2276.4, -24.3 2389.1, -191.6 2285.9 C -359.0 2182.7, -297.5 2315.0, -400.9 2044.9 C -504.3 1774.8, -449.2 1891.9, -449.2 1558.0 C -449.2 1224.1, -472.8 1406.6, -369.4 1136.4 C -265.9 866.3, -370.5 1052.9, -203.2 949.7 C -35.8 846.5, -120.2 694.9, 47.2 798.1 C 214.5 901.3, 154.8 832.0, 258.2 1102.1 C 361.6 1372.3, 332.1 1224.1, 332.1 1558.0 Z" fill="none" stroke="#FFFFFF" stroke-opacity="0.22" stroke-width="1.2"/>
  <path d="M 743.9 -24.0 C 743.9 217.2, 792.2 109.9, 694.6 305.0 C 597.0 500.1, 652.2 365.0, 494.2 439.6 C 336.3 514.1, 437.4 548.6, 279.5 474.0 C 121.6 399.5, 213.4 449.4, 115.8 254.3 C 18.2 59.1, 55.2 217.2, 55.2 -24.0 C 55.2 -265.2, -44.2 -173.8, 53.4 -369.0 C 151.0 -564.1, 110.8 -445.8, 268.7 -520.4 C 426.6 -594.9, 335.9 -539.3, 493.8 -464.7 C 651.8 -390.2, 592.0 -492.2, 689.6 -297.1 C 787.2 -102.0, 743.9 -265.2, 743.9 -24.0 Z" fill="#CFF3FF" opacity="0.12" stroke="#CFF3FF" stroke-opacity="0.46" stroke-width="3" filter="url(#soft_coach_03_8475)"/>
  <path d="M 743.9 -24.0 C 743.9 217.2, 792.2 109.9, 694.6 305.0 C 597.0 500.1, 652.2 365.0, 494.2 439.6 C 336.3 514.1, 437.4 548.6, 279.5 474.0 C 121.6 399.5, 213.4 449.4, 115.8 254.3 C 18.2 59.1, 55.2 217.2, 55.2 -24.0 C 55.2 -265.2, -44.2 -173.8, 53.4 -369.0 C 151.0 -564.1, 110.8 -445.8, 268.7 -520.4 C 426.6 -594.9, 335.9 -539.3, 493.8 -464.7 C 651.8 -390.2, 592.0 -492.2, 689.6 -297.1 C 787.2 -102.0, 743.9 -265.2, 743.9 -24.0 Z" fill="none" stroke="#FFFFFF" stroke-opacity="0.22" stroke-width="1.2"/>
  <path d="M 1582.4 1222.0 C 1582.4 1387.2, 1655.8 1293.3, 1532.8 1426.9 C 1409.8 1560.5, 1482.7 1560.2, 1283.7 1611.3 C 1084.7 1662.3, 1180.1 1631.1, 981.1 1580.1 C 782.0 1529.1, 899.6 1541.6, 776.6 1408.0 C 653.6 1274.4, 718.9 1387.2, 718.9 1222.0 C 718.9 1056.8, 614.8 1113.7, 737.8 980.1 C 860.8 846.5, 770.9 882.2, 969.9 831.2 C 1168.9 780.2, 1058.4 859.0, 1257.4 910.0 C 1456.4 961.0, 1404.3 860.7, 1527.2 994.4 C 1650.2 1128.0, 1582.4 1056.8, 1582.4 1222.0 Z" fill="#86A8FF" opacity="0.12" stroke="#FFFFFF" stroke-opacity="0.46" stroke-width="3" filter="url(#soft_coach_03_8475)"/>
  <path d="M 1582.4 1222.0 C 1582.4 1387.2, 1655.8 1293.3, 1532.8 1426.9 C 1409.8 1560.5, 1482.7 1560.2, 1283.7 1611.3 C 1084.7 1662.3, 1180.1 1631.1, 981.1 1580.1 C 782.0 1529.1, 899.6 1541.6, 776.6 1408.0 C 653.6 1274.4, 718.9 1387.2, 718.9 1222.0 C 718.9 1056.8, 614.8 1113.7, 737.8 980.1 C 860.8 846.5, 770.9 882.2, 969.9 831.2 C 1168.9 780.2, 1058.4 859.0, 1257.4 910.0 C 1456.4 961.0, 1404.3 860.7, 1527.2 994.4 C 1650.2 1128.0, 1582.4 1056.8, 1582.4 1222.0 Z" fill="none" stroke="#FFFFFF" stroke-opacity="0.22" stroke-width="1.2"/>
  <path d="M 713.7 1026.0 C 713.7 1323.0, 752.2 1182.3, 578.7 1422.6 C 405.2 1662.8, 559.9 1563.7, 279.1 1655.4 C -1.6 1747.2, 161.8 1737.0, -118.9 1645.3 C -399.7 1553.5, -265.9 1618.0, -439.4 1377.8 C -612.9 1137.5, -503.8 1323.0, -503.8 1026.0 C -503.8 729.0, -607.2 917.2, -433.7 676.9 C -260.2 436.6, -402.7 403.9, -122.0 312.1 C 158.8 220.3, -21.3 318.5, 259.4 410.3 C 540.2 502.0, 452.6 441.7, 626.1 681.9 C 799.6 922.2, 713.7 729.0, 713.7 1026.0 Z" fill="#CCF7ED" opacity="0.12" stroke="#FFFFFF" stroke-opacity="0.46" stroke-width="3" filter="url(#soft_coach_03_8475)"/>
  <path d="M 713.7 1026.0 C 713.7 1323.0, 752.2 1182.3, 578.7 1422.6 C 405.2 1662.8, 559.9 1563.7, 279.1 1655.4 C -1.6 1747.2, 161.8 1737.0, -118.9 1645.3 C -399.7 1553.5, -265.9 1618.0, -439.4 1377.8 C -612.9 1137.5, -503.8 1323.0, -503.8 1026.0 C -503.8 729.0, -607.2 917.2, -433.7 676.9 C -260.2 436.6, -402.7 403.9, -122.0 312.1 C 158.8 220.3, -21.3 318.5, 259.4 410.3 C 540.2 502.0, 452.6 441.7, 626.1 681.9 C 799.6 922.2, 713.7 729.0, 713.7 1026.0 Z" fill="none" stroke="#FFFFFF" stroke-opacity="0.22" stroke-width="1.2"/>
  <path d="M -100.0 1108.3 Q 133.3 695.3, 366.7 910.4 Q 600.0 1287.7, 833.3 1269.4 Q 1066.7 753.3, 1300.0 798.9" fill="none" stroke="#FFFFFF" stroke-opacity="0.38" stroke-width="4" filter="url(#soft_coach_03_8475)"/>
  <path d="M -100.0 1108.3 Q 133.3 695.3, 366.7 910.4 Q 600.0 1287.7, 833.3 1269.4 Q 1066.7 753.3, 1300.0 798.9" fill="none" stroke="#86A8FF" stroke-opacity="0.18" stroke-width="2"/>
  <path d="M -100.0 1953.1 Q 133.3 2247.4, 366.7 2317.0 Q 600.0 2222.3, 833.3 2107.9 Q 1066.7 1733.6, 1300.0 1746.7" fill="none" stroke="#FFFFFF" stroke-opacity="0.38" stroke-width="4" filter="url(#soft_coach_03_8475)"/>
  <path d="M -100.0 1953.1 Q 133.3 2247.4, 366.7 2317.0 Q 600.0 2222.3, 833.3 2107.9 Q 1066.7 1733.6, 1300.0 1746.7" fill="none" stroke="#B891FF" stroke-opacity="0.18" stroke-width="2"/>
  <path d="M -100.0 651.1 Q 133.3 609.6, 366.7 269.8 Q 600.0 124.9, 833.3 198.2 Q 1066.7 524.5, 1300.0 716.1" fill="none" stroke="#FFFFFF" stroke-opacity="0.38" stroke-width="4" filter="url(#soft_coach_03_8475)"/>
  <path d="M -100.0 651.1 Q 133.3 609.6, 366.7 269.8 Q 600.0 124.9, 833.3 198.2 Q 1066.7 524.5, 1300.0 716.1" fill="none" stroke="#4ECAD1" stroke-opacity="0.18" stroke-width="2"/>
  <path d="M -100.0 1557.9 Q 133.3 1397.9, 366.7 1072.5 Q 600.0 966.6, 833.3 1499.3 Q 1066.7 1646.2, 1300.0 1331.8" fill="none" stroke="#FFFFFF" stroke-opacity="0.38" stroke-width="4" filter="url(#soft_coach_03_8475)"/>
  <path d="M -100.0 1557.9 Q 133.3 1397.9, 366.7 1072.5 Q 600.0 966.6, 833.3 1499.3 Q 1066.7 1646.2, 1300.0 1331.8" fill="none" stroke="#86A8FF" stroke-opacity="0.18" stroke-width="2"/>
  <path d="M -100.0 1299.6 Q 133.3 1119.9, 366.7 855.9 Q 600.0 960.3, 833.3 1239.0 Q 1066.7 1304.6, 1300.0 1179.5" fill="none" stroke="#FFFFFF" stroke-opacity="0.38" stroke-width="4" filter="url(#soft_coach_03_8475)"/>
  <path d="M -100.0 1299.6 Q 133.3 1119.9, 366.7 855.9 Q 600.0 960.3, 833.3 1239.0 Q 1066.7 1304.6, 1300.0 1179.5" fill="none" stroke="#86A8FF" stroke-opacity="0.18" stroke-width="2"/>
  <circle cx="631" cy="469" r="204" fill="url(#orb_coach_03_8475)" opacity="0.36"/>
  <circle cx="631" cy="469" r="204" fill="#E3E0FF" opacity="0.08"/>
  <circle cx="631" cy="469" r="204" fill="none" stroke="#FFFFFF" stroke-opacity="0.56" stroke-width="3"/>
  <ellipse cx="573.9" cy="395.6" rx="36.7" ry="16.3" fill="#FFFFFF" opacity="0.42" transform="rotate(-22 573.9 395.6)"/>
  <circle cx="172" cy="1030" r="170" fill="url(#orb_coach_03_8475)" opacity="0.36"/>
  <circle cx="172" cy="1030" r="170" fill="#CCF7ED" opacity="0.08"/>
  <circle cx="172" cy="1030" r="170" fill="none" stroke="#FFFFFF" stroke-opacity="0.56" stroke-width="3"/>
  <ellipse cx="124.4" cy="968.8" rx="30.6" ry="13.6" fill="#FFFFFF" opacity="0.42" transform="rotate(-22 124.4 968.8)"/>
  <circle cx="743" cy="368" r="160" fill="url(#orb_coach_03_8475)" opacity="0.36"/>
  <circle cx="743" cy="368" r="160" fill="#B891FF" opacity="0.08"/>
  <circle cx="743" cy="368" r="160" fill="none" stroke="#FFFFFF" stroke-opacity="0.56" stroke-width="3"/>
  <ellipse cx="698.2" cy="310.4" rx="28.8" ry="12.8" fill="#FFFFFF" opacity="0.42" transform="rotate(-22 698.2 310.4)"/>
  <circle cx="693" cy="-102" r="252" fill="url(#orb_coach_03_8475)" opacity="0.27"/>
  <circle cx="693" cy="-102" r="252" fill="#CFF3FF" opacity="0.08"/>
  <circle cx="693" cy="-102" r="252" fill="none" stroke="#FFFFFF" stroke-opacity="0.56" stroke-width="3"/>
  <ellipse cx="622.4" cy="-192.7" rx="45.4" ry="20.2" fill="#FFFFFF" opacity="0.42" transform="rotate(-22 622.4 -192.7)"/>
  <circle cx="870" cy="1369" r="287" fill="url(#orb_coach_03_8475)" opacity="0.23"/>
  <circle cx="870" cy="1369" r="287" fill="#F7FEFF" opacity="0.08"/>
  <circle cx="870" cy="1369" r="287" fill="none" stroke="#FFFFFF" stroke-opacity="0.56" stroke-width="3"/>
  <ellipse cx="789.6" cy="1265.7" rx="51.7" ry="23.0" fill="#FFFFFF" opacity="0.42" transform="rotate(-22 789.6 1265.7)"/>
  <circle cx="569" cy="1823" r="162" fill="url(#orb_coach_03_8475)" opacity="0.22"/>
  <circle cx="569" cy="1823" r="162" fill="#86A8FF" opacity="0.08"/>
  <circle cx="569" cy="1823" r="162" fill="none" stroke="#FFFFFF" stroke-opacity="0.56" stroke-width="3"/>
  <ellipse cx="523.6" cy="1764.7" rx="29.2" ry="13.0" fill="#FFFFFF" opacity="0.42" transform="rotate(-22 523.6 1764.7)"/>
  <circle cx="935" cy="2554" r="185" fill="url(#orb_coach_03_8475)" opacity="0.21"/>
  <circle cx="935" cy="2554" r="185" fill="#86A8FF" opacity="0.08"/>
  <circle cx="935" cy="2554" r="185" fill="none" stroke="#FFFFFF" stroke-opacity="0.56" stroke-width="3"/>
  <ellipse cx="883.2" cy="2487.4" rx="33.3" ry="14.8" fill="#FFFFFF" opacity="0.42" transform="rotate(-22 883.2 2487.4)"/>
  <circle cx="40" cy="1371" r="105" fill="url(#orb_coach_03_8475)" opacity="0.24"/>
  <circle cx="40" cy="1371" r="105" fill="#4ECAD1" opacity="0.08"/>
  <circle cx="40" cy="1371" r="105" fill="none" stroke="#FFFFFF" stroke-opacity="0.56" stroke-width="3"/>
  <ellipse cx="10.6" cy="1333.2" rx="18.9" ry="8.4" fill="#FFFFFF" opacity="0.42" transform="rotate(-22 10.6 1333.2)"/>
  <circle cx="1018" cy="338" r="4" fill="#FFFFFF" opacity="0.38"/>
  <circle cx="225" cy="321" r="2" fill="#FFFFFF" opacity="0.39"/>
  <circle cx="577" cy="2331" r="2" fill="#FFFFFF" opacity="0.67"/>
  <circle cx="220" cy="78" r="3" fill="#FFFFFF" opacity="0.70"/>
  <circle cx="0" cy="1846" r="3" fill="#FFFFFF" opacity="0.49"/>
  <circle cx="327" cy="524" r="4" fill="#FFFFFF" opacity="0.70"/>
  <circle cx="139" cy="1125" r="7" fill="#FFFFFF" opacity="0.54"/>
  <circle cx="1032" cy="1787" r="2" fill="#FFFFFF" opacity="0.51"/>
  <circle cx="1123" cy="2259" r="2" fill="#FFFFFF" opacity="0.38"/>
  <circle cx="1005" cy="627" r="3" fill="#FFFFFF" opacity="0.34"/>
  <circle cx="936" cy="1943" r="2" fill="#FFFFFF" opacity="0.42"/>
  <circle cx="223" cy="2060" r="4" fill="#FFFFFF" opacity="0.35"/>
  <circle cx="558" cy="1983" r="5" fill="#FFFFFF" opacity="0.41"/>
  <circle cx="465" cy="599" r="4" fill="#FFFFFF" opacity="0.55"/>
  <circle cx="180" cy="1794" r="5" fill="#FFFFFF" opacity="0.41"/>
  <circle cx="811" cy="1899" r="5" fill="#FFFFFF" opacity="0.55"/>
  <circle cx="1175" cy="81" r="5" fill="#FFFFFF" opacity="0.51"/>
  <rect width="1200" height="2600" fill="#FFFFFF" opacity="0.08"/>
  <rect width="1200" height="2600" filter="url(#grain_coach_03_8475)" opacity="0.7"/>
</svg>
