<svg xmlns="http://www.w3.org/2000/svg" width="1200" height="2600" viewBox="0 0 1200 2600" preserveAspectRatio="xMidYMid slice">
  <defs>
    <linearGradient id="bg_coach_14_8295" x1="0" y1="0" x2="1" y2="1">
      <stop offset="0%" stop-color="#CCF7ED"/>
      <stop offset="48%" stop-color="#F7FEFF"/>
      <stop offset="100%" stop-color="#B4E6F8"/>
    </linearGradient>
    <radialGradient id="orb_coach_14_8295" cx="35%" cy="30%" r="70%">
      <stop offset="0%" stop-color="#FFFFFF" stop-opacity="0.85"/>
      <stop offset="42%" stop-color="#FFFFFF" stop-opacity="0.20"/>
      <stop offset="100%" stop-color="#FFFFFF" stop-opacity="0.02"/>
    </radialGradient>
    <filter id="blur_coach_14_8295" x="-30%" y="-30%" width="160%" height="160%">
      <feGaussianBlur stdDeviation="72"/>
    </filter>
    <filter id="soft_coach_14_8295" x="-20%" y="-20%" width="140%" height="140%">
      <feGaussianBlur stdDeviation="10"/>
    </filter>
    <filter id="grain_coach_14_8295">
      <feTurbulence type="fractalNoise" baseFrequency="0.85" numOctaves="2" stitchTiles="stitch"/>
      <feColorMatrix type="saturate" values="0"/>
      <feComponentTransfer>
        <feFuncA type="table" tableValues="0 0.035"/>
      </feComponentTransfer>
    </filter>
  </defs>
  <rect width="1200" height="2600" fill="url(#bg_coach_14_8295)"/>
  <path d="M 914.0 461.0 C 914.0 729.2, 913.3 646.4, 836.0 851.8 C 758.8 1057.3, 794.0 1076.3, 675.7 1122.8 C 557.4 1169.4, 577.3 1150.2, 473.3 1016.1 C 369.2 882.0, 395.5 927.6, 354.4 675.6 C 313.3 423.6, 378.8 513.6, 419.9 261.5 C 461.0 9.5, 385.7 168.0, 489.7 33.9 C 593.8 -100.2, 552.1 -144.6, 670.5 -98.1 C 788.8 -51.5, 787.2 -144.4, 864.4 61.0 C 941.7 266.5, 914.0 192.8, 914.0 461.0 Z" fill="#CCF7ED" opacity="0.37" filter="url(#blur_coach_14_8295)"/>
  <path d="M 218.0 554.0 C 218.0 687.2, 192.7 630.7, 119.5 732.8 C 46.3 834.8, 110.6 858.3, -1.5 881.4 C -113.6 904.6, -73.5 834.3, -172.1 767.7 C -270.7 701.1, -276.6 785.8, -315.6 660.6 C -354.5 535.4, -301.4 564.0, -262.5 438.8 C -223.6 313.6, -276.8 380.8, -178.2 314.2 C -79.6 247.6, -102.3 283.7, 9.9 306.8 C 122.0 329.9, 51.6 234.3, 124.8 336.4 C 198.0 438.4, 218.0 420.8, 218.0 554.0 Z" fill="#B891FF" opacity="0.18" filter="url(#blur_coach_14_8295)"/>
  <path d="M 1549.7 370.0 C 1549.7 581.5, 1516.8 534.9, 1385.8 697.0 C 1254.8 859.0, 1320.7 807.7, 1119.9 844.4 C 919.2 881.2, 994.3 810.5, 817.8 704.8 C 641.2 599.0, 748.5 750.0, 678.8 551.3 C 609.0 352.5, 613.0 409.4, 682.7 210.7 C 752.4 11.9, 618.3 113.9, 794.8 8.2 C 971.4 -97.6, 910.9 -90.8, 1111.7 -54.0 C 1312.5 -17.3, 1234.9 -140.3, 1366.0 21.7 C 1497.0 183.8, 1549.7 158.5, 1549.7 370.0 Z" fill="#B4E6F8" opacity="0.24" filter="url(#blur_coach_14_8295)"/>
  <path d="M 613.2 2782.0 C 613.2 3047.9, 652.3 2985.6, 533.1 3189.4 C 413.9 3393.1, 534.0 3397.1, 351.4 3443.2 C 168.8 3489.4, 208.9 3339.9, 48.4 3206.9 C -112.2 3073.9, -36.3 3257.2, -99.7 3007.3 C -163.2 2757.4, -240.7 2828.7, -177.3 2578.8 C -113.9 2328.9, -115.8 2402.7, 44.8 2269.7 C 205.4 2136.8, 145.3 2059.6, 327.9 2105.8 C 510.5 2152.0, 431.3 2172.1, 550.4 2375.8 C 669.6 2579.5, 613.2 2516.1, 613.2 2782.0 Z" fill="#B4E6F8" opacity="0.35" filter="url(#blur_coach_14_8295)"/>
  <path d="M 1174.3 -23.0 C 1174.3 94.0, 1205.5 25.7, 1130.9 115.3 C 1056.2 204.9, 1090.1 193.6, 975.7 213.9 C 861.4 234.2, 901.7 232.8, 801.1 174.3 C 700.6 115.8, 768.5 161.5, 728.8 51.6 C 689.1 -58.4, 616.0 7.1, 655.7 -102.8 C 695.4 -212.7, 716.2 -226.3, 816.7 -284.8 C 917.3 -343.3, 861.0 -298.3, 975.3 -278.0 C 1089.6 -257.7, 1040.6 -300.3, 1115.2 -210.7 C 1189.9 -121.0, 1174.3 -140.0, 1174.3 -23.0 Z" fill="#CCF7ED" opacity="0.37" filter="url(#blur_coach_14_8295)"/>
  <path d="M 658.7 91.0 C 658.7 395.7, 811.1 217.7, 663.5 451.1 C 516.0 684.5, 533.5 708.7, 307.5 761.6 C 81.4 814.5, 156.9 860.4, -41.8 708.1 C -240.6 555.7, -167.8 634.0, -246.3 347.7 C -324.8 61.5, -413.5 110.7, -335.0 -175.6 C -256.5 -461.8, -235.9 -258.3, -37.2 -410.6 C 161.6 -563.0, 91.0 -572.4, 317.0 -519.5 C 543.1 -466.6, 478.1 -651.0, 625.6 -417.6 C 773.1 -184.2, 658.7 -213.7, 658.7 91.0 Z" fill="#E3E0FF" opacity="0.24" filter="url(#blur_coach_14_8295)"/>
  <path d="M 206.4 637.0 C 206.4 914.7, 234.4 769.2, 162.7 981.9 C 91.0 1194.6, 103.7 1240.7, -6.2 1288.9 C -116.1 1337.1, -69.5 1406.3, -166.2 1267.5 C -262.8 1128.7, -254.5 1107.7, -292.7 846.8 C -330.9 585.9, -338.9 664.3, -300.7 403.4 C -262.5 142.5, -260.9 229.6, -164.2 90.7 C -67.6 -48.1, -109.4 -78.6, 0.5 -30.4 C 110.4 17.8, 41.5 -29.8, 113.2 182.9 C 184.9 395.6, 206.4 359.3, 206.4 637.0 Z" fill="#86A8FF" opacity="0.18" filter="url(#blur_coach_14_8295)"/>
  <path d="M 959.5 2410.0 C 959.5 2527.4, 922.6 2464.9, 829.8 2554.9 C 736.9 2644.9, 824.6 2619.5, 682.3 2639.9 C 540.1 2660.3, 580.1 2684.8, 455.0 2626.1 C 329.9 2567.4, 407.3 2617.8, 357.9 2507.5 C 308.4 2397.1, 314.8 2443.5, 364.2 2333.2 C 413.6 2222.8, 314.7 2206.6, 439.8 2147.9 C 564.9 2089.2, 526.6 2151.9, 668.8 2172.3 C 811.1 2192.7, 778.2 2161.7, 871.0 2251.7 C 963.9 2341.7, 959.5 2292.6, 959.5 2410.0 Z" fill="#CFF3FF" opacity="0.28" filter="url(#blur_coach_14_8295)"/>
  <path d="M 1566.9 649.0 C 1566.9 868.6, 1621.6 831.8, 1488.3 1000.0 C 1354.9 1168.2, 1384.8 1143.3, 1180.5 1181.5 C 976.2 1219.6, 1021.1 1219.0, 841.5 1109.2 C 661.8 999.4, 666.8 1003.4, 595.9 797.0 C 524.9 590.7, 594.9 661.7, 665.8 455.4 C 736.8 249.0, 679.4 344.1, 859.0 234.3 C 1038.7 124.5, 986.8 115.5, 1191.1 153.6 C 1395.4 191.8, 1367.4 146.8, 1500.8 315.1 C 1634.1 483.3, 1566.9 429.4, 1566.9 649.0 Z" fill="#CCF7ED" opacity="0.22" filter="url(#blur_coach_14_8295)"/>
  <path d="M 1044.6 804.0 C 1044.6 944.0, 1068.8 896.0, 996.2 1003.2 C 923.6 1110.5, 991.4 1138.1, 880.2 1162.5 C 769.0 1186.8, 788.1 1173.1, 690.3 1103.1 C 592.5 1033.1, 612.7 1053.3, 574.1 921.8 C 535.4 790.2, 586.7 820.0, 625.3 688.4 C 664.0 556.9, 591.5 620.7, 689.3 550.7 C 787.1 480.7, 761.7 523.1, 872.9 547.4 C 984.1 571.7, 926.7 523.0, 999.3 630.2 C 1071.9 737.4, 1044.6 664.0, 1044.6 804.0 Z" fill="#4ECAD1" opacity="0.19" filter="url(#blur_coach_14_8295)"/>
  <path d="M 687.4 428.0 C 687.4 829.4, 729.6 687.8, 603.9 1012.6 C 478.3 1337.3, 553.1 1244.6, 349.8 1368.7 C 146.5 1492.7, 267.8 1434.4, 64.6 1310.4 C -138.7 1186.4, -44.5 1307.9, -170.2 983.1 C -295.8 658.4, -314.4 829.4, -314.4 428.0 C -314.4 26.6, -344.2 269.7, -218.5 -55.0 C -92.9 -379.8, -159.6 -355.1, 43.6 -479.1 C 246.9 -603.2, 126.7 -539.0, 330.0 -415.0 C 533.3 -291.0, 402.7 -454.7, 528.4 -130.0 C 654.0 194.7, 687.4 26.6, 687.4 428.0 Z" fill="#B4E6F8" opacity="0.12" stroke="#FFFFFF" stroke-opacity="0.46" stroke-width="3" filter="url(#soft_coach_14_8295)"/>
  <path d="M 687.4 428.0 C 687.4 829.4, 729.6 687.8, 603.9 1012.6 C 478.3 1337.3, 553.1 1244.6, 349.8 1368.7 C 146.5 1492.7, 267.8 1434.4, 64.6 1310.4 C -138.7 1186.4, -44.5 1307.9, -170.2 983.1 C -295.8 658.4, -314.4 829.4, -314.4 428.0 C -314.4 26.6, -344.2 269.7, -218.5 -55.0 C -92.9 -379.8, -159.6 -355.1, 43.6 -479.1 C 246.9 -603.2, 126.7 -539.0, 330.0 -415.0 C 533.3 -291.0, 402.7 -454.7, 528.4 -130.0 C 654.0 194.7, 687.4 26.6, 687.4 428.0 Z" fill="none" stroke="#FFFFFF" stroke-opacity="0.22" stroke-width="1.2"/>
  <path d="M 2074.7 812.0 C 2074.7 1147.2, 2089.0 979.1, 1911.0 1250.3 C 1733.0 1521.6, 1903.6 1460.0, 1615.6 1563.6 C 1327.6 1667.2, 1480.6 1526.1, 1192.6 1422.5 C 904.5 1318.9, 1103.5 1560.6, 925.4 1289.4 C 747.4 1018.2, 681.5 1147.2, 681.5 812.0 C 681.5 476.8, 750.1 705.2, 928.1 434.0 C 1106.2 162.8, 892.0 209.0, 1180.1 105.4 C 1468.1 1.8, 1291.6 -48.9, 1579.7 54.7 C 1867.7 158.3, 1802.6 87.3, 1980.6 358.6 C 2158.6 629.8, 2074.7 476.8, 2074.7 812.0 Z" fill="#CCF7ED" opacity="0.12" stroke="#CCF7ED" stroke-opacity="0.46" stroke-width="3" filter="url(#soft_coach_14_8295)"/>
  <path d="M 2074.7 812.0 C 2074.7 1147.2, 2089.0 979.1, 1911.0 1250.3 C 1733.0 1521.6, 1903.6 1460.0, 1615.6 1563.6 C 1327.6 1667.2, 1480.6 1526.1, 1192.6 1422.5 C 904.5 1318.9, 1103.5 1560.6, 925.4 1289.4 C 747.4 1018.2, 681.5 1147.2, 681.5 812.0 C 681.5 476.8, 750.1 705.2, 928.1 434.0 C 1106.2 162.8, 892.0 209.0, 1180.1 105.4 C 1468.1 1.8, 1291.6 -48.9, 1579.7 54.7 C 1867.7 158.3, 1802.6 87.3, 1980.6 358.6 C 2158.6 629.8, 2074.7 476.8, 2074.7 812.0 Z" fill="none" stroke="#FFFFFF" stroke-opacity="0.22" stroke-width="1.2"/>
  <path d="M 1592.0 1542.0 C 1592.0 1935.8, 1696.6 1684.5, 1538.5 2003.0 C 1380.3 2321.6, 1456.7 2204.2, 1200.7 2325.9 C 944.8 2447.5, 1069.1 2586.3, 813.2 2464.6 C 557.2 2342.9, 678.8 2431.1, 520.7 2112.5 C 362.5 1794.0, 339.3 1935.8, 339.3 1542.0 C 339.3 1148.3, 328.0 1299.6, 486.2 981.1 C 644.3 662.5, 531.0 746.1, 786.9 624.4 C 1042.8 502.8, 909.0 496.1, 1164.9 617.8 C 1420.9 739.4, 1370.3 661.9, 1528.5 980.5 C 1686.7 1299.0, 1592.0 1148.2, 1592.0 1542.0 Z" fill="#CCF7ED" opacity="0.12" stroke="#CCF7ED" stroke-opacity="0.46" stroke-width="3" filter="url(#soft_coach_14_8295)"/>
  <path d="M 1592.0 1542.0 C 1592.0 1935.8, 1696.6 1684.5, 1538.5 2003.0 C 1380.3 2321.6, 1456.7 2204.2, 1200.7 2325.9 C 944.8 2447.5, 1069.1 2586.3, 813.2 2464.6 C 557.2 2342.9, 678.8 2431.1, 520.7 2112.5 C 362.5 1794.0, 339.3 1935.8, 339.3 1542.0 C 339.3 1148.3, 328.0 1299.6, 486.2 981.1 C 644.3 662.5, 531.0 746.1, 786.9 624.4 C 1042.8 502.8, 909.0 496.1, 1164.9 617.8 C 1420.9 739.4, 1370.3 661.9, 1528.5 980.5 C 1686.7 1299.0, 1592.0 1148.2, 1592.0 1542.0 Z" fill="none" stroke="#FFFFFF" stroke-opacity="0.22" stroke-width="1.2"/>
  <path d="M 1179.7 2343.0 C 1179.7 2744.4, 1240.9 2533.5, 1165.6 2858.3 C 1090.2 3183.0, 1107.7 3024.6, 985.7 3148.7 C 863.8 3272.7, 936.0 3251.6, 814.1 3127.5 C 692.1 3003.5, 724.6 3203.5, 649.2 2878.8 C 573.8 2554.1, 657.5 2744.4, 657.5 2343.0 C 657.5 1941.6, 573.4 2183.0, 648.7 1858.3 C 724.1 1533.5, 694.2 1618.6, 816.1 1494.6 C 938.1 1370.5, 882.1 1486.4, 1004.1 1610.4 C 1126.0 1734.5, 1075.1 1472.9, 1150.4 1797.6 C 1225.8 2122.4, 1179.7 1941.6, 1179.7 2343.0 Z" fill="#E3E0FF" opacity="0.12" stroke="#E3E0FF" stroke-opacity="0.46" stroke-width="3" filter="url(#soft_coach_14_8295)"/>
  <path d="M 1179.7 2343.0 C 1179.7 2744.4, 1240.9 2533.5, 1165.6 2858.3 C 1090.2 3183.0, 1107.7 3024.6, 985.7 3148.7 C 863.8 3272.7, 936.0 3251.6, 814.1 3127.5 C 692.1 3003.5, 724.6 3203.5, 649.2 2878.8 C 573.8 2554.1, 657.5 2744.4, 657.5 2343.0 C 657.5 1941.6, 573.4 2183.0, 648.7 1858.3 C 724.1 1533.5, 694.2 1618.6, 816.1 1494.6 C 938.1 1370.5, 882.1 1486.4, 1004.1 1610.4 C 1126.0 1734.5, 1075.1 1472.9, 1150.4 1797.6 C 1225.8 2122.4, 1179.7 1941.6, 1179.7 2343.0 Z" fill="none" stroke="#FFFFFF" stroke-opacity="0.22" stroke-width="1.2"/>
  <path d="M 1691.2 397.0 C 1691.2 715.6, 1702.4 516.6, 1598.7 774.4 C 1495.0 1032.1, 1600.3 975.3, 1432.6 1073.8 C 1264.8 1172.2, 1375.2 1077.3, 1207.4 978.8 C 1039.7 880.4, 1126.5 1097.6, 1022.9 839.8 C 919.2 582.1, 887.1 715.6, 887.1 397.0 C 887.1 78.4, 933.7 265.0, 1037.3 7.2 C 1141.0 -250.5, 1018.3 -220.3, 1186.1 -318.7 C 1353.9 -417.2, 1256.6 -324.1, 1424.3 -225.7 C 1592.1 -127.2, 1525.3 -324.7, 1629.0 -67.0 C 1732.7 190.8, 1691.2 78.4, 1691.2 397.0 Z" fill="#4ECAD1" opacity="0.12" stroke="#FFFFFF" stroke-opacity="0.46" stroke-width="3" filter="url(#soft_coach_14_8295)"/>
  <path d="M 1691.2 397.0 C 1691.2 715.6, 1702.4 516.6, 1598.7 774.4 C 1495.0 1032.1, 1600.3 975.3, 1432.6 1073.8 C 1264.8 1172.2, 1375.2 1077.3, 1207.4 978.8 C 1039.7 880.4, 1126.5 1097.6, 1022.9 839.8 C 919.2 582.1, 887.1 715.6, 887.1 397.0 C 887.1 78.4, 933.7 265.0, 1037.3 7.2 C 1141.0 -250.5, 1018.3 -220.3, 1186.1 -318.7 C 1353.9 -417.2, 1256.6 -324.1, 1424.3 -225.7 C 1592.1 -127.2, 1525.3 -324.7, 1629.0 -67.0 C 1732.7 190.8, 1691.2 78.4, 1691.2 397.0 Z" fill="none" stroke="#FFFFFF" stroke-opacity="0.22" stroke-width="1.2"/>
  <path d="M 1359.9 2692.0 C 1359.9 2868.4, 1408.3 2778.9, 1285.8 2921.6 C 1163.3 3064.3, 1275.2 2998.9, 1077.1 3053.4 C 878.9 3107.9, 1003.3 3131.9, 805.1 3077.4 C 607.0 3022.9, 697.9 3085.9, 575.4 2943.2 C 453.0 2800.5, 460.7 2868.4, 460.7 2692.0 C 460.7 2515.6, 451.5 2584.8, 574.0 2442.1 C 696.5 2299.4, 597.5 2349.4, 795.7 2294.9 C 993.8 2240.4, 879.3 2223.6, 1077.5 2278.1 C 1275.6 2332.6, 1154.7 2340.8, 1277.2 2483.5 C 1399.6 2626.2, 1359.9 2515.6, 1359.9 2692.0 Z" fill="#4ECAD1" opacity="0.12" stroke="#4ECAD1" stroke-opacity="0.46" stroke-width="3" filter="url(#soft_coach_14_8295)"/>
  <path d="M 1359.9 2692.0 C 1359.9 2868.4, 1408.3 2778.9, 1285.8 2921.6 C 1163.3 3064.3, 1275.2 2998.9, 1077.1 3053.4 C 878.9 3107.9, 1003.3 3131.9, 805.1 3077.4 C 607.0 3022.9, 697.9 3085.9, 575.4 2943.2 C 453.0 2800.5, 460.7 2868.4, 460.7 2692.0 C 460.7 2515.6, 451.5 2584.8, 574.0 2442.1 C 696.5 2299.4, 597.5 2349.4, 795.7 2294.9 C 993.8 2240.4, 879.3 2223.6, 1077.5 2278.1 C 1275.6 2332.6, 1154.7 2340.8, 1277.2 2483.5 C 1399.6 2626.2, 1359.9 2515.6, 1359.9 2692.0 Z" fill="none" stroke="#FFFFFF" stroke-opacity="0.22" stroke-width="1.2"/>
  <path d="M 717.8 1497.0 C 717.8 1900.7, 736.4 1642.1, 585.9 1968.6 C 435.4 2295.2, 592.5 2218.9, 349.0 2343.7 C 105.5 2468.4, 229.3 2461.2, -14.2 2336.5 C -257.7 2211.8, -212.4 2325.1, -362.9 1998.6 C -513.4 1672.0, -414.5 1900.7, -414.5 1497.0 C -414.5 1093.3, -422.6 1316.5, -272.1 990.0 C -121.6 663.4, -248.3 746.8, -4.8 622.0 C 238.7 497.3, 84.8 518.2, 328.3 642.9 C 571.9 767.6, 456.6 628.6, 607.1 955.2 C 757.6 1281.7, 717.8 1093.3, 717.8 1497.0 Z" fill="#4ECAD1" opacity="0.12" stroke="#FFFFFF" stroke-opacity="0.46" stroke-width="3" filter="url(#soft_coach_14_8295)"/>
  <path d="M 717.8 1497.0 C 717.8 1900.7, 736.4 1642.1, 585.9 1968.6 C 435.4 2295.2, 592.5 2218.9, 349.0 2343.7 C 105.5 2468.4, 229.3 2461.2, -14.2 2336.5 C -257.7 2211.8, -212.4 2325.1, -362.9 1998.6 C -513.4 1672.0, -414.5 1900.7, -414.5 1497.0 C -414.5 1093.3, -422.6 1316.5, -272.1 990.0 C -121.6 663.4, -248.3 746.8, -4.8 622.0 C 238.7 497.3, 84.8 518.2, 328.3 642.9 C 571.9 767.6, 456.6 628.6, 607.1 955.2 C 757.6 1281.7, 717.8 1093.3, 717.8 1497.0 Z" fill="none" stroke="#FFFFFF" stroke-opacity="0.22" stroke-width="1.2"/>
  <path d="M -100.0 268.7 Q 133.3 365.3, 366.7 514.6 Q 600.0 789.9, 833.3 780.4 Q 1066.7 635.2, 1300.0 464.1" fill="none" stroke="#FFFFFF" stroke-opacity="0.38" stroke-width="4" filter="url(#soft_coach_14_8295)"/>
  <path d="M -100.0 268.7 Q 133.3 365.3, 366.7 514.6 Q 600.0 789.9, 833.3 780.4 Q 1066.7 635.2, 1300.0 464.1" fill="none" stroke="#B891FF" stroke-opacity="0.18" stroke-width="2"/>
  <path d="M -100.0 -114.9 Q 133.3 -238.2, 366.7 -34.2 Q 600.0 304.7, 833.3 86.4 Q 1066.7 -206.9, 1300.0 -189.4" fill="none" stroke="#FFFFFF" stroke-opacity="0.38" stroke-width="4" filter="url(#soft_coach_14_8295)"/>
  <path d="M -100.0 -114.9 Q 133.3 -238.2, 366.7 -34.2 Q 600.0 304.7, 833.3 86.4 Q 1066.7 -206.9, 1300.0 -189.4" fill="none" stroke="#86A8FF" stroke-opacity="0.18" stroke-width="2"/>
  <path d="M -100.0 571.4 Q 133.3 532.5, 366.7 663.6 Q 600.0 666.7, 833.3 822.1 Q 1066.7 917.8, 1300.0 918.7" fill="none" stroke="#FFFFFF" stroke-opacity="0.38" stroke-width="4" filter="url(#soft_coach_14_8295)"/>
  <path d="M -100.0 571.4 Q 133.3 532.5, 366.7 663.6 Q 600.0 666.7, 833.3 822.1 Q 1066.7 917.8, 1300.0 918.7" fill="none" stroke="#86A8FF" stroke-opacity="0.18" stroke-width="2"/>
  <path d="M -100.0 1746.2 Q 133.3 1897.3, 366.7 2042.7 Q 600.0 2072.0, 833.3 1779.5 Q 1066.7 1837.3, 1300.0 1856.4" fill="none" stroke="#FFFFFF" stroke-opacity="0.38" stroke-width="4" filter="url(#soft_coach_14_8295)"/>
  <path d="M -100.0 1746.2 Q 133.3 1897.3, 366.7 2042.7 Q 600.0 2072.0, 833.3 1779.5 Q 1066.7 1837.3, 1300.0 1856.4" fill="none" stroke="#4ECAD1" stroke-opacity="0.18" stroke-width="2"/>
  <circle cx="983" cy="833" r="155" fill="url(#orb_coach_14_8295)" opacity="0.36"/>
  <circle cx="983" cy="833" r="155" fill="#CFF3FF" opacity="0.08"/>
  <circle cx="983" cy="833" r="155" fill="none" stroke="#FFFFFF" stroke-opacity="0.56" stroke-width="3"/>
  <ellipse cx="939.6" cy="777.2" rx="27.9" ry="12.4" fill="#FFFFFF" opacity="0.42" transform="rotate(-22 939.6 777.2)"/>
  <circle cx="148" cy="2412" r="156" fill="url(#orb_coach_14_8295)" opacity="0.36"/>
  <circle cx="148" cy="2412" r="156" fill="#B891FF" opacity="0.08"/>
  <circle cx="148" cy="2412" r="156" fill="none" stroke="#FFFFFF" stroke-opacity="0.56" stroke-width="3"/>
  <ellipse cx="104.3" cy="2355.8" rx="28.1" ry="12.5" fill="#FFFFFF" opacity="0.42" transform="rotate(-22 104.3 2355.8)"/>
  <circle cx="173" cy="291" r="255" fill="url(#orb_coach_14_8295)" opacity="0.36"/>
  <circle cx="173" cy="291" r="255" fill="#B4E6F8" opacity="0.08"/>
  <circle cx="173" cy="291" r="255" fill="none" stroke="#FFFFFF" stroke-opacity="0.56" stroke-width="3"/>
  <ellipse cx="101.6" cy="199.2" rx="45.9" ry="20.4" fill="#FFFFFF" opacity="0.42" transform="rotate(-22 101.6 199.2)"/>
  <circle cx="368" cy="792" r="213" fill="url(#orb_coach_14_8295)" opacity="0.27"/>
  <circle cx="368" cy="792" r="213" fill="#B891FF" opacity="0.08"/>
  <circle cx="368" cy="792" r="213" fill="none" stroke="#FFFFFF" stroke-opacity="0.56" stroke-width="3"/>
  <ellipse cx="308.4" cy="715.3" rx="38.3" ry="17.0" fill="#FFFFFF" opacity="0.42" transform="rotate(-22 308.4 715.3)"/>
  <circle cx="780" cy="1457" r="80" fill="url(#orb_coach_14_8295)" opacity="0.16"/>
  <circle cx="780" cy="1457" r="80" fill="#CFF3FF" opacity="0.08"/>
  <circle cx="780" cy="1457" r="80" fill="none" stroke="#FFFFFF" stroke-opacity="0.56" stroke-width="3"/>
  <ellipse cx="757.6" cy="1428.2" rx="14.4" ry="6.4" fill="#FFFFFF" opacity="0.42" transform="rotate(-22 757.6 1428.2)"/>
  <circle cx="456" cy="2608" r="139" fill="url(#orb_coach_14_8295)" opacity="0.27"/>
  <circle cx="456" cy="2608" r="139" fill="#B891FF" opacity="0.08"/>
  <circle cx="456" cy="2608" r="139" fill="none" stroke="#FFFFFF" stroke-opacity="0.56" stroke-width="3"/>
  <ellipse cx="417.1" cy="2558.0" rx="25.0" ry="11.1" fill="#FFFFFF" opacity="0.42" transform="rotate(-22 417.1 2558.0)"/>
  <circle cx="114" cy="2189" r="251" fill="url(#orb_coach_14_8295)" opacity="0.22"/>
  <circle cx="114" cy="2189" r="251" fill="#4ECAD1" opacity="0.08"/>
  <circle cx="114" cy="2189" r="251" fill="none" stroke="#FFFFFF" stroke-opacity="0.56" stroke-width="3"/>
  <ellipse cx="43.7" cy="2098.6" rx="45.2" ry="20.1" fill="#FFFFFF" opacity="0.42" transform="rotate(-22 43.7 2098.6)"/>
  <circle cx="99" cy="1768" r="201" fill="url(#orb_coach_14_8295)" opacity="0.16"/>
  <circle cx="99" cy="1768" r="201" fill="#B4E6F8" opacity="0.08"/>
  <circle cx="99" cy="1768" r="201" fill="none" stroke="#FFFFFF" stroke-opacity="0.56" stroke-width="3"/>
  <ellipse cx="42.7" cy="1695.6" rx="36.2" ry="16.1" fill="#FFFFFF" opacity="0.42" transform="rotate(-22 42.7 1695.6)"/>
  <circle cx="372" cy="193" r="128" fill="url(#orb_coach_14_8295)" opacity="0.17"/>
  <circle cx="372" cy="193" r="128" fill="#CCF7ED" opacity="0.08"/>
  <circle cx="372" cy="193" r="128" fill="none" stroke="#FFFFFF" stroke-opacity="0.56" stroke-width="3"/>
  <ellipse cx="336.2" cy="146.9" rx="23.0" ry="10.2" fill="#FFFFFF" opacity="0.42" transform="rotate(-22 336.2 146.9)"/>
  <circle cx="111" cy="988" r="261" fill="url(#orb_coach_14_8295)" opacity="0.20"/>
  <circle cx="111" cy="988" r="261" fill="#86A8FF" opacity="0.08"/>
  <circle cx="111" cy="988" r="261" fill="none" stroke="#FFFFFF" stroke-opacity="0.56" stroke-width="3"/>
  <ellipse cx="37.9" cy="894.0" rx="47.0" ry="20.9" fill="#FFFFFF" opacity="0.42" transform="rotate(-22 37.9 894.0)"/>
  <circle cx="558" cy="2289" r="7" fill="#FFFFFF" opacity="0.66"/>
  <circle cx="578" cy="1204" r="5" fill="#FFFFFF" opacity="0.37"/>
  <circle cx="493" cy="2239" r="7" fill="#FFFFFF" opacity="0.50"/>
  <circle cx="981" cy="2333" r="2" fill="#FFFFFF" opacity="0.68"/>
  <circle cx="396" cy="1303" r="3" fill="#FFFFFF" opacity="0.51"/>
  <circle cx="362" cy="2069" r="3" fill="#FFFFFF" opacity="0.47"/>
  <circle cx="1014" cy="2105" r="7" fill="#FFFFFF" opacity="0.69"/>
  <circle cx="1028" cy="2143" r="2" fill="#FFFFFF" opacity="0.50"/>
  <circle cx="145" cy="1243" r="4" fill="#FFFFFF" opacity="0.43"/>
  <circle cx="309" cy="1026" r="4" fill="#FFFFFF" opacity="0.32"/>
  <circle cx="818" cy="1683" r="4" fill="#FFFFFF" opacity="0.58"/>
  <circle cx="0" cy="2579" r="5" fill="#FFFFFF" opacity="0.68"/>
  <circle cx="393" cy="2469" r="5" fill="#FFFFFF" opacity="0.58"/>
  <circle cx="621" cy="293" r="2" fill="#FFFFFF" opacity="0.57"/>
  <rect width="1200" height="2600" fill="#FFFFFF" opacity="0.08"/>
  <rect width="1200" height="2600" filter="url(#grain_coach_14_8295)" opacity="0.7"/>
</svg>
