<svg xmlns="http://www.w3.org/2000/svg" width="1200" height="2600" viewBox="0 0 1200 2600" preserveAspectRatio="xMidYMid slice">
  <defs>
    <linearGradient id="bg_coach_11_1561" x1="0" y1="0" x2="1" y2="1">
      <stop offset="0%" stop-color="#CCF7ED"/>
      <stop offset="48%" stop-color="#B4E6F8"/>
      <stop offset="100%" stop-color="#F7FEFF"/>
    </linearGradient>
    <radialGradient id="orb_coach_11_1561" cx="35%" cy="30%" r="70%">
      <stop offset="0%" stop-color="#FFFFFF" stop-opacity="0.85"/>
      <stop offset="42%" stop-color="#FFFFFF" stop-opacity="0.20"/>
      <stop offset="100%" stop-color="#FFFFFF" stop-opacity="0.02"/>
    </radialGradient>
    <filter id="blur_coach_11_1561" x="-30%" y="-30%" width="160%" height="160%">
      <feGaussianBlur stdDeviation="72"/>
    </filter>
    <filter id="soft_coach_11_1561" x="-20%" y="-20%" width="140%" height="140%">
      <feGaussianBlur stdDeviation="10"/>
    </filter>
    <filter id="grain_coach_11_1561">
      <feTurbulence type="fractalNoise" baseFrequency="0.85" numOctaves="2" stitchTiles="stitch"/>
      <feColorMatrix type="saturate" values="0"/>
      <feComponentTransfer>
        <feFuncA type="table" tableValues="0 0.035"/>
      </feComponentTransfer>
    </filter>
  </defs>
  <rect width="1200" height="2600" fill="url(#bg_coach_11_1561)"/>
  <path d="M 1065.1 2224.0 C 1065.1 2507.5, 1142.6 2477.4, 1002.3 2694.6 C 862.0 2911.7, 916.3 2830.1, 701.4 2879.4 C 486.4 2928.6, 582.0 2916.5, 393.0 2774.8 C 203.9 2633.0, 285.8 2691.7, 211.1 2425.3 C 136.5 2158.9, 86.6 2259.9, 161.3 1993.5 C 235.9 1727.1, 200.3 1734.9, 389.3 1593.1 C 578.3 1451.4, 484.5 1596.6, 699.4 1645.8 C 914.4 1695.0, 904.2 1658.4, 1044.4 1875.5 C 1184.7 2092.7, 1065.1 1940.5, 1065.1 2224.0 Z" fill="#4ECAD1" opacity="0.27" filter="url(#blur_coach_11_1561)"/>
  <path d="M 1319.9 48.0 C 1319.9 197.0, 1319.8 169.2, 1195.1 283.3 C 1070.4 397.4, 1093.2 353.1, 902.2 378.9 C 711.2 404.8, 780.3 363.3, 612.3 288.9 C 444.4 214.4, 451.1 280.9, 384.8 140.9 C 318.4 1.0, 316.9 61.6, 383.3 -78.4 C 449.6 -218.3, 413.4 -113.2, 581.4 -187.7 C 749.3 -262.2, 709.1 -256.7, 900.1 -230.8 C 1091.1 -205.0, 1006.7 -249.5, 1131.4 -135.4 C 1256.0 -21.3, 1319.9 -101.0, 1319.9 48.0 Z" fill="#B4E6F8" opacity="0.34" filter="url(#blur_coach_11_1561)"/>
  <path d="M 935.1 2407.0 C 935.1 2577.6, 1036.8 2478.0, 947.7 2608.6 C 858.6 2739.3, 876.1 2716.2, 739.6 2745.8 C 603.1 2775.4, 671.1 2804.0, 551.0 2718.7 C 431.0 2633.4, 386.2 2702.7, 338.8 2542.4 C 291.4 2382.2, 348.2 2432.9, 395.6 2272.6 C 443.0 2112.4, 413.8 2143.4, 533.8 2058.1 C 653.8 1972.8, 602.5 2034.1, 739.0 2063.7 C 875.5 2093.4, 851.3 2000.3, 940.4 2130.9 C 1029.5 2261.6, 935.1 2236.4, 935.1 2407.0 Z" fill="#B891FF" opacity="0.32" filter="url(#blur_coach_11_1561)"/>
  <path d="M 1404.9 1650.0 C 1404.9 1813.8, 1467.1 1760.5, 1389.6 1886.0 C 1312.1 2011.5, 1323.6 1981.2, 1204.8 2009.6 C 1086.1 2038.1, 1111.5 2003.4, 1007.1 1921.5 C 902.7 1839.6, 935.0 1906.6, 893.8 1752.7 C 852.6 1598.7, 887.5 1676.9, 928.8 1523.0 C 970.0 1369.1, 924.9 1426.1, 1029.4 1344.2 C 1133.8 1262.3, 1100.9 1279.7, 1219.7 1308.2 C 1338.5 1336.6, 1318.7 1257.0, 1396.2 1382.5 C 1473.7 1508.0, 1404.9 1486.2, 1404.9 1650.0 Z" fill="#E3E0FF" opacity="0.19" filter="url(#blur_coach_11_1561)"/>
  <path d="M 1760.7 1481.0 C 1760.7 1706.0, 1792.5 1645.4, 1654.0 1817.8 C 1515.4 1990.1, 1622.5 1851.5, 1410.2 1890.6 C 1198.0 1929.7, 1310.9 2088.0, 1124.2 1975.5 C 937.5 1863.0, 932.8 1884.0, 859.1 1672.6 C 785.3 1461.2, 853.5 1506.8, 927.2 1295.4 C 1001.0 1083.9, 934.5 1106.3, 1121.1 993.8 C 1307.8 881.3, 1215.7 876.5, 1428.0 915.5 C 1640.2 954.6, 1593.3 980.1, 1731.8 1152.5 C 1870.4 1324.8, 1760.7 1256.0, 1760.7 1481.0 Z" fill="#F7FEFF" opacity="0.28" filter="url(#blur_coach_11_1561)"/>
  <path d="M 934.4 1481.0 C 934.4 1787.5, 1022.8 1715.2, 927.6 1949.9 C 832.5 2184.7, 876.2 2040.2, 730.4 2093.4 C 584.6 2146.6, 600.3 2280.6, 472.1 2127.4 C 343.9 1974.2, 453.8 2019.1, 403.1 1731.1 C 352.5 1443.1, 269.2 1547.2, 319.8 1259.2 C 370.5 971.3, 353.0 982.0, 481.2 828.7 C 609.5 675.5, 578.0 764.2, 723.8 817.4 C 869.6 870.6, 826.6 854.0, 921.8 1088.7 C 1016.9 1323.5, 934.4 1174.5, 934.4 1481.0 Z" fill="#E3E0FF" opacity="0.37" filter="url(#blur_coach_11_1561)"/>
  <path d="M 1768.8 -60.0 C 1768.8 113.7, 1853.9 86.8, 1718.0 219.9 C 1582.0 353.0, 1638.2 261.2, 1430.0 291.4 C 1221.7 321.5, 1271.0 322.1, 1087.9 235.2 C 904.7 148.4, 967.8 244.1, 895.5 80.8 C 823.2 -82.4, 868.4 -16.9, 940.8 -180.1 C 1013.1 -343.3, 917.6 -269.3, 1100.8 -356.1 C 1284.0 -443.0, 1224.3 -495.5, 1432.6 -465.4 C 1640.8 -435.2, 1541.9 -414.7, 1677.8 -281.6 C 1813.8 -148.5, 1768.8 -233.7, 1768.8 -60.0 Z" fill="#CCF7ED" opacity="0.34" filter="url(#blur_coach_11_1561)"/>
  <path d="M 1508.7 2826.0 C 1508.7 2960.6, 1495.5 2922.3, 1394.9 3025.4 C 1294.2 3128.4, 1359.5 3055.7, 1205.3 3079.1 C 1051.1 3102.5, 1101.5 3174.3, 965.9 3107.0 C 830.3 3039.8, 829.9 3049.6, 776.4 2923.2 C 722.8 2796.8, 808.9 2852.4, 862.5 2726.0 C 916.0 2599.5, 843.8 2657.4, 979.4 2590.1 C 1115.0 2522.8, 1047.4 2555.2, 1201.6 2578.5 C 1355.8 2601.9, 1336.1 2519.4, 1436.8 2622.4 C 1537.5 2725.5, 1508.7 2691.4, 1508.7 2826.0 Z" fill="#F7FEFF" opacity="0.18" filter="url(#blur_coach_11_1561)"/>
  <path d="M 1517.8 2205.0 C 1517.8 2418.8, 1550.1 2328.3, 1479.8 2492.0 C 1409.5 2655.7, 1432.3 2559.6, 1324.6 2596.7 C 1216.9 2633.8, 1277.5 2710.7, 1182.8 2603.8 C 1088.1 2496.9, 1122.6 2594.1, 1085.2 2393.2 C 1047.8 2192.4, 998.0 2250.7, 1035.4 2049.8 C 1072.8 1849.0, 1063.1 1965.7, 1157.8 1858.8 C 1252.5 1751.9, 1227.4 1670.0, 1335.1 1707.1 C 1442.7 1744.3, 1431.7 1737.6, 1502.0 1901.4 C 1572.3 2065.1, 1517.8 1991.2, 1517.8 2205.0 Z" fill="#F7FEFF" opacity="0.33" filter="url(#blur_coach_11_1561)"/>
  <path d="M 579.8 742.0 C 579.8 1062.4, 675.6 938.2, 508.7 1197.4 C 341.8 1456.6, 465.3 1402.8, 195.2 1501.8 C -74.9 1600.8, 82.3 1487.4, -187.7 1388.4 C -457.8 1289.4, -296.4 1458.7, -463.3 1199.5 C -630.2 940.3, -622.8 1062.4, -622.8 742.0 C -622.8 421.6, -596.5 574.6, -429.6 315.4 C -262.7 56.2, -425.9 222.0, -155.8 123.0 C 114.2 24.0, -39.1 -82.1, 231.0 16.9 C 501.0 115.9, 348.9 19.5, 515.8 278.7 C 682.7 537.9, 579.8 421.6, 579.8 742.0 Z" fill="#B891FF" opacity="0.12" stroke="#FFFFFF" stroke-opacity="0.46" stroke-width="3" filter="url(#soft_coach_11_1561)"/>
  <path d="M 579.8 742.0 C 579.8 1062.4, 675.6 938.2, 508.7 1197.4 C 341.8 1456.6, 465.3 1402.8, 195.2 1501.8 C -74.9 1600.8, 82.3 1487.4, -187.7 1388.4 C -457.8 1289.4, -296.4 1458.7, -463.3 1199.5 C -630.2 940.3, -622.8 1062.4, -622.8 742.0 C -622.8 421.6, -596.5 574.6, -429.6 315.4 C -262.7 56.2, -425.9 222.0, -155.8 123.0 C 114.2 24.0, -39.1 -82.1, 231.0 16.9 C 501.0 115.9, 348.9 19.5, 515.8 278.7 C 682.7 537.9, 579.8 421.6, 579.8 742.0 Z" fill="none" stroke="#FFFFFF" stroke-opacity="0.22" stroke-width="1.2"/>
  <path d="M 1147.3 71.0 C 1147.3 436.4, 1133.5 197.8, 1030.1 493.4 C 926.6 789.1, 983.2 811.3, 815.9 924.2 C 648.5 1037.2, 759.7 926.0, 592.3 813.1 C 425.0 700.2, 472.8 822.6, 369.4 527.0 C 266.0 231.4, 359.9 436.4, 359.9 71.0 C 359.9 -294.4, 253.7 -117.3, 357.1 -412.9 C 460.5 -708.5, 419.8 -491.1, 587.2 -604.0 C 754.5 -716.9, 673.4 -867.6, 840.7 -754.7 C 1008.0 -641.8, 933.4 -690.4, 1036.8 -394.8 C 1140.2 -99.2, 1147.3 -294.4, 1147.3 71.0 Z" fill="#B4E6F8" opacity="0.12" stroke="#B4E6F8" stroke-opacity="0.46" stroke-width="3" filter="url(#soft_coach_11_1561)"/>
  <path d="M 1147.3 71.0 C 1147.3 436.4, 1133.5 197.8, 1030.1 493.4 C 926.6 789.1, 983.2 811.3, 815.9 924.2 C 648.5 1037.2, 759.7 926.0, 592.3 813.1 C 425.0 700.2, 472.8 822.6, 369.4 527.0 C 266.0 231.4, 359.9 436.4, 359.9 71.0 C 359.9 -294.4, 253.7 -117.3, 357.1 -412.9 C 460.5 -708.5, 419.8 -491.1, 587.2 -604.0 C 754.5 -716.9, 673.4 -867.6, 840.7 -754.7 C 1008.0 -641.8, 933.4 -690.4, 1036.8 -394.8 C 1140.2 -99.2, 1147.3 -294.4, 1147.3 71.0 Z" fill="none" stroke="#FFFFFF" stroke-opacity="0.22" stroke-width="1.2"/>
  <path d="M 163.7 1303.0 C 163.7 1470.0, 155.2 1397.8, 61.6 1532.9 C -32.0 1668.0, 79.3 1627.8, -72.2 1679.4 C -223.7 1731.0, -168.4 1675.3, -319.9 1623.7 C -471.4 1572.2, -405.9 1654.6, -499.5 1519.5 C -593.1 1384.4, -500.9 1470.0, -500.9 1303.0 C -500.9 1136.0, -592.6 1236.0, -498.9 1100.9 C -405.3 965.8, -452.7 962.1, -301.2 910.5 C -149.7 858.9, -246.6 912.3, -95.1 963.9 C 56.4 1015.5, -16.7 970.6, 76.9 1105.7 C 170.6 1240.8, 163.7 1136.0, 163.7 1303.0 Z" fill="#CCF7ED" opacity="0.12" stroke="#CCF7ED" stroke-opacity="0.46" stroke-width="3" filter="url(#soft_coach_11_1561)"/>
  <path d="M 163.7 1303.0 C 163.7 1470.0, 155.2 1397.8, 61.6 1532.9 C -32.0 1668.0, 79.3 1627.8, -72.2 1679.4 C -223.7 1731.0, -168.4 1675.3, -319.9 1623.7 C -471.4 1572.2, -405.9 1654.6, -499.5 1519.5 C -593.1 1384.4, -500.9 1470.0, -500.9 1303.0 C -500.9 1136.0, -592.6 1236.0, -498.9 1100.9 C -405.3 965.8, -452.7 962.1, -301.2 910.5 C -149.7 858.9, -246.6 912.3, -95.1 963.9 C 56.4 1015.5, -16.7 970.6, 76.9 1105.7 C 170.6 1240.8, 163.7 1136.0, 163.7 1303.0 Z" fill="none" stroke="#FFFFFF" stroke-opacity="0.22" stroke-width="1.2"/>
  <path d="M 576.9 2608.0 C 576.9 2879.8, 641.1 2756.0, 455.9 2975.9 C 270.8 3195.8, 400.5 3146.9, 101.0 3230.9 C -198.6 3314.8, -83.3 3234.7, -382.9 3150.7 C -682.5 3066.7, -525.8 3171.9, -710.9 2952.0 C -896.1 2732.2, -932.8 2879.8, -932.8 2608.0 C -932.8 2336.2, -842.1 2432.6, -656.9 2212.7 C -471.8 1992.8, -674.8 2037.3, -375.2 1953.3 C -75.6 1869.3, -237.6 1937.2, 61.9 2021.2 C 361.5 2105.1, 316.4 2070.3, 501.5 2290.2 C 686.7 2510.1, 576.9 2336.2, 576.9 2608.0 Z" fill="#E3E0FF" opacity="0.12" stroke="#E3E0FF" stroke-opacity="0.46" stroke-width="3" filter="url(#soft_coach_11_1561)"/>
  <path d="M 576.9 2608.0 C 576.9 2879.8, 641.1 2756.0, 455.9 2975.9 C 270.8 3195.8, 400.5 3146.9, 101.0 3230.9 C -198.6 3314.8, -83.3 3234.7, -382.9 3150.7 C -682.5 3066.7, -525.8 3171.9, -710.9 2952.0 C -896.1 2732.2, -932.8 2879.8, -932.8 2608.0 C -932.8 2336.2, -842.1 2432.6, -656.9 2212.7 C -471.8 1992.8, -674.8 2037.3, -375.2 1953.3 C -75.6 1869.3, -237.6 1937.2, 61.9 2021.2 C 361.5 2105.1, 316.4 2070.3, 501.5 2290.2 C 686.7 2510.1, 576.9 2336.2, 576.9 2608.0 Z" fill="none" stroke="#FFFFFF" stroke-opacity="0.22" stroke-width="1.2"/>
  <path d="M 333.3 2920.0 C 333.3 3144.1, 447.4 3063.5, 298.0 3244.8 C 148.6 3426.1, 280.8 3327.8, 39.0 3397.1 C -202.8 3466.3, -108.4 3471.0, -350.2 3401.8 C -592.0 3332.5, -492.4 3371.2, -641.9 3189.9 C -791.3 3008.6, -692.8 3144.1, -692.8 2920.0 C -692.8 2695.9, -758.2 2847.7, -608.8 2666.4 C -459.3 2485.1, -581.4 2518.4, -339.6 2449.1 C -97.8 2379.9, -245.4 2420.1, -3.6 2489.4 C 238.2 2558.6, 213.5 2448.7, 362.9 2630.1 C 512.4 2811.4, 333.3 2695.9, 333.3 2920.0 Z" fill="#E3E0FF" opacity="0.12" stroke="#FFFFFF" stroke-opacity="0.46" stroke-width="3" filter="url(#soft_coach_11_1561)"/>
  <path d="M 333.3 2920.0 C 333.3 3144.1, 447.4 3063.5, 298.0 3244.8 C 148.6 3426.1, 280.8 3327.8, 39.0 3397.1 C -202.8 3466.3, -108.4 3471.0, -350.2 3401.8 C -592.0 3332.5, -492.4 3371.2, -641.9 3189.9 C -791.3 3008.6, -692.8 3144.1, -692.8 2920.0 C -692.8 2695.9, -758.2 2847.7, -608.8 2666.4 C -459.3 2485.1, -581.4 2518.4, -339.6 2449.1 C -97.8 2379.9, -245.4 2420.1, -3.6 2489.4 C 238.2 2558.6, 213.5 2448.7, 362.9 2630.1 C 512.4 2811.4, 333.3 2695.9, 333.3 2920.0 Z" fill="none" stroke="#FFFFFF" stroke-opacity="0.22" stroke-width="1.2"/>
  <path d="M 212.1 -317.0 C 212.1 -80.3, 267.5 -197.8, 197.1 -6.3 C 126.7 185.2, 160.1 52.4, 46.3 125.5 C -67.6 198.7, -5.0 305.4, -118.8 232.3 C -232.7 159.1, -200.6 158.3, -270.9 -33.2 C -341.3 -224.7, -287.8 -80.3, -287.8 -317.0 C -287.8 -553.7, -335.9 -429.5, -265.5 -621.0 C -195.1 -812.5, -237.3 -707.9, -123.4 -781.0 C -9.6 -854.1, -54.3 -883.5, 59.6 -810.3 C 173.4 -737.2, 116.2 -847.4, 186.6 -655.9 C 257.0 -464.4, 212.1 -553.7, 212.1 -317.0 Z" fill="#CCF7ED" opacity="0.12" stroke="#FFFFFF" stroke-opacity="0.46" stroke-width="3" filter="url(#soft_coach_11_1561)"/>
  <path d="M 212.1 -317.0 C 212.1 -80.3, 267.5 -197.8, 197.1 -6.3 C 126.7 185.2, 160.1 52.4, 46.3 125.5 C -67.6 198.7, -5.0 305.4, -118.8 232.3 C -232.7 159.1, -200.6 158.3, -270.9 -33.2 C -341.3 -224.7, -287.8 -80.3, -287.8 -317.0 C -287.8 -553.7, -335.9 -429.5, -265.5 -621.0 C -195.1 -812.5, -237.3 -707.9, -123.4 -781.0 C -9.6 -854.1, -54.3 -883.5, 59.6 -810.3 C 173.4 -737.2, 116.2 -847.4, 186.6 -655.9 C 257.0 -464.4, 212.1 -553.7, 212.1 -317.0 Z" fill="none" stroke="#FFFFFF" stroke-opacity="0.22" stroke-width="1.2"/>
  <path d="M 312.4 1504.0 C 312.4 1739.8, 364.1 1647.5, 249.5 1838.3 C 135.0 2029.0, 240.7 1949.7, 55.4 2022.5 C -129.9 2095.4, -20.6 2103.2, -205.9 2030.3 C -391.2 1957.5, -315.1 1994.1, -429.6 1803.3 C -544.2 1612.5, -502.4 1739.8, -502.4 1504.0 C -502.4 1268.2, -547.8 1414.8, -433.3 1224.0 C -318.8 1033.2, -392.5 1058.7, -207.2 985.8 C -21.9 912.9, -139.1 903.8, 46.2 976.7 C 231.5 1049.6, 120.4 1006.8, 235.0 1197.6 C 349.5 1388.4, 312.4 1268.2, 312.4 1504.0 Z" fill="#E3E0FF" opacity="0.12" stroke="#FFFFFF" stroke-opacity="0.46" stroke-width="3" filter="url(#soft_coach_11_1561)"/>
  <path d="M 312.4 1504.0 C 312.4 1739.8, 364.1 1647.5, 249.5 1838.3 C 135.0 2029.0, 240.7 1949.7, 55.4 2022.5 C -129.9 2095.4, -20.6 2103.2, -205.9 2030.3 C -391.2 1957.5, -315.1 1994.1, -429.6 1803.3 C -544.2 1612.5, -502.4 1739.8, -502.4 1504.0 C -502.4 1268.2, -547.8 1414.8, -433.3 1224.0 C -318.8 1033.2, -392.5 1058.7, -207.2 985.8 C -21.9 912.9, -139.1 903.8, 46.2 976.7 C 231.5 1049.6, 120.4 1006.8, 235.0 1197.6 C 349.5 1388.4, 312.4 1268.2, 312.4 1504.0 Z" fill="none" stroke="#FFFFFF" stroke-opacity="0.22" stroke-width="1.2"/>
  <path d="M -100.0 1877.8 Q 133.3 2325.4, 366.7 2512.4 Q 600.0 2042.6, 833.3 1905.0 Q 1066.7 2179.4, 1300.0 2430.9" fill="none" stroke="#FFFFFF" stroke-opacity="0.38" stroke-width="4" filter="url(#soft_coach_11_1561)"/>
  <path d="M -100.0 1877.8 Q 133.3 2325.4, 366.7 2512.4 Q 600.0 2042.6, 833.3 1905.0 Q 1066.7 2179.4, 1300.0 2430.9" fill="none" stroke="#B891FF" stroke-opacity="0.18" stroke-width="2"/>
  <path d="M -100.0 2536.8 Q 133.3 2575.1, 366.7 2151.8 Q 600.0 1847.7, 833.3 2032.6 Q 1066.7 2289.3, 1300.0 2506.4" fill="none" stroke="#FFFFFF" stroke-opacity="0.38" stroke-width="4" filter="url(#soft_coach_11_1561)"/>
  <path d="M -100.0 2536.8 Q 133.3 2575.1, 366.7 2151.8 Q 600.0 1847.7, 833.3 2032.6 Q 1066.7 2289.3, 1300.0 2506.4" fill="none" stroke="#4ECAD1" stroke-opacity="0.18" stroke-width="2"/>
  <path d="M -100.0 337.4 Q 133.3 503.3, 366.7 645.5 Q 600.0 479.9, 833.3 392.0 Q 1066.7 352.2, 1300.0 614.8" fill="none" stroke="#FFFFFF" stroke-opacity="0.38" stroke-width="4" filter="url(#soft_coach_11_1561)"/>
  <path d="M -100.0 337.4 Q 133.3 503.3, 366.7 645.5 Q 600.0 479.9, 833.3 392.0 Q 1066.7 352.2, 1300.0 614.8" fill="none" stroke="#4ECAD1" stroke-opacity="0.18" stroke-width="2"/>
  <circle cx="936" cy="199" r="156" fill="url(#orb_coach_11_1561)" opacity="0.36"/>
  <circle cx="936" cy="199" r="156" fill="#B891FF" opacity="0.08"/>
  <circle cx="936" cy="199" r="156" fill="none" stroke="#FFFFFF" stroke-opacity="0.56" stroke-width="3"/>
  <ellipse cx="892.3" cy="142.8" rx="28.1" ry="12.5" fill="#FFFFFF" opacity="0.42" transform="rotate(-22 892.3 142.8)"/>
  <circle cx="156" cy="1530" r="283" fill="url(#orb_coach_11_1561)" opacity="0.36"/>
  <circle cx="156" cy="1530" r="283" fill="#E3E0FF" opacity="0.08"/>
  <circle cx="156" cy="1530" r="283" fill="none" stroke="#FFFFFF" stroke-opacity="0.56" stroke-width="3"/>
  <ellipse cx="76.8" cy="1428.1" rx="50.9" ry="22.6" fill="#FFFFFF" opacity="0.42" transform="rotate(-22 76.8 1428.1)"/>
  <circle cx="569" cy="-13" r="242" fill="url(#orb_coach_11_1561)" opacity="0.36"/>
  <circle cx="569" cy="-13" r="242" fill="#F7FEFF" opacity="0.08"/>
  <circle cx="569" cy="-13" r="242" fill="none" stroke="#FFFFFF" stroke-opacity="0.56" stroke-width="3"/>
  <ellipse cx="501.2" cy="-100.1" rx="43.6" ry="19.4" fill="#FFFFFF" opacity="0.42" transform="rotate(-22 501.2 -100.1)"/>
  <circle cx="592" cy="580" r="225" fill="url(#orb_coach_11_1561)" opacity="0.19"/>
  <circle cx="592" cy="580" r="225" fill="#CFF3FF" opacity="0.08"/>
  <circle cx="592" cy="580" r="225" fill="none" stroke="#FFFFFF" stroke-opacity="0.56" stroke-width="3"/>
  <ellipse cx="529.0" cy="499.0" rx="40.5" ry="18.0" fill="#FFFFFF" opacity="0.42" transform="rotate(-22 529.0 499.0)"/>
  <circle cx="34" cy="2065" r="158" fill="url(#orb_coach_11_1561)" opacity="0.20"/>
  <circle cx="34" cy="2065" r="158" fill="#B4E6F8" opacity="0.08"/>
  <circle cx="34" cy="2065" r="158" fill="none" stroke="#FFFFFF" stroke-opacity="0.56" stroke-width="3"/>
  <ellipse cx="-10.2" cy="2008.1" rx="28.4" ry="12.6" fill="#FFFFFF" opacity="0.42" transform="rotate(-22 -10.2 2008.1)"/>
  <circle cx="192" cy="2150" r="227" fill="url(#orb_coach_11_1561)" opacity="0.21"/>
  <circle cx="192" cy="2150" r="227" fill="#B4E6F8" opacity="0.08"/>
  <circle cx="192" cy="2150" r="227" fill="none" stroke="#FFFFFF" stroke-opacity="0.56" stroke-width="3"/>
  <ellipse cx="128.4" cy="2068.3" rx="40.9" ry="18.2" fill="#FFFFFF" opacity="0.42" transform="rotate(-22 128.4 2068.3)"/>
  <circle cx="1178" cy="1200" r="123" fill="url(#orb_coach_11_1561)" opacity="0.20"/>
  <circle cx="1178" cy="1200" r="123" fill="#CCF7ED" opacity="0.08"/>
  <circle cx="1178" cy="1200" r="123" fill="none" stroke="#FFFFFF" stroke-opacity="0.56" stroke-width="3"/>
  <ellipse cx="1143.6" cy="1155.7" rx="22.1" ry="9.8" fill="#FFFFFF" opacity="0.42" transform="rotate(-22 1143.6 1155.7)"/>
  <circle cx="1095" cy="881" r="2" fill="#FFFFFF" opacity="0.40"/>
  <circle cx="551" cy="911" r="5" fill="#FFFFFF" opacity="0.57"/>
  <circle cx="682" cy="653" r="2" fill="#FFFFFF" opacity="0.67"/>
  <circle cx="662" cy="1366" r="2" fill="#FFFFFF" opacity="0.69"/>
  <circle cx="723" cy="35" r="4" fill="#FFFFFF" opacity="0.31"/>
  <circle cx="495" cy="1237" r="4" fill="#FFFFFF" opacity="0.70"/>
  <circle cx="254" cy="1278" r="2" fill="#FFFFFF" opacity="0.69"/>
  <circle cx="229" cy="1519" r="3" fill="#FFFFFF" opacity="0.58"/>
  <circle cx="798" cy="450" r="2" fill="#FFFFFF" opacity="0.57"/>
  <circle cx="1108" cy="2033" r="5" fill="#FFFFFF" opacity="0.70"/>
  <circle cx="545" cy="1633" r="7" fill="#FFFFFF" opacity="0.54"/>
  <circle cx="834" cy="1112" r="2" fill="#FFFFFF" opacity="0.38"/>
  <circle cx="212" cy="995" r="3" fill="#FFFFFF" opacity="0.64"/>
  <circle cx="650" cy="1085" r="5" fill="#FFFFFF" opacity="0.69"/>
  <circle cx="445" cy="727" r="3" fill="#FFFFFF" opacity="0.33"/>
  <circle cx="48" cy="2264" r="3" fill="#FFFFFF" opacity="0.30"/>
  <circle cx="1094" cy="2116" r="3" fill="#FFFFFF" opacity="0.35"/>
  <circle cx="641" cy="172" r="5" fill="#FFFFFF" opacity="0.42"/>
  <circle cx="152" cy="2466" r="4" fill="#FFFFFF" opacity="0.39"/>
  <circle cx="1042" cy="801" r="7" fill="#FFFFFF" opacity="0.30"/>
  <rect width="1200" height="2600" fill="#FFFFFF" opacity="0.08"/>
  <rect width="1200" height="2600" filter="url(#grain_coach_11_1561)" opacity="0.7"/>
</svg>
