<svg xmlns="http://www.w3.org/2000/svg" width="1200" height="2600" viewBox="0 0 1200 2600" preserveAspectRatio="xMidYMid slice">
  <defs>
    <linearGradient id="bg_coach_15_9062" x1="0" y1="0" x2="1" y2="1">
      <stop offset="0%" stop-color="#B4E6F8"/>
      <stop offset="48%" stop-color="#CFF3FF"/>
      <stop offset="100%" stop-color="#CCF7ED"/>
    </linearGradient>
    <radialGradient id="orb_coach_15_9062" cx="35%" cy="30%" r="70%">
      <stop offset="0%" stop-color="#FFFFFF" stop-opacity="0.85"/>
      <stop offset="42%" stop-color="#FFFFFF" stop-opacity="0.20"/>
      <stop offset="100%" stop-color="#FFFFFF" stop-opacity="0.02"/>
    </radialGradient>
    <filter id="blur_coach_15_9062" x="-30%" y="-30%" width="160%" height="160%">
      <feGaussianBlur stdDeviation="72"/>
    </filter>
    <filter id="soft_coach_15_9062" x="-20%" y="-20%" width="140%" height="140%">
      <feGaussianBlur stdDeviation="10"/>
    </filter>
    <filter id="grain_coach_15_9062">
      <feTurbulence type="fractalNoise" baseFrequency="0.85" numOctaves="2" stitchTiles="stitch"/>
      <feColorMatrix type="saturate" values="0"/>
      <feComponentTransfer>
        <feFuncA type="table" tableValues="0 0.035"/>
      </feComponentTransfer>
    </filter>
  </defs>
  <rect width="1200" height="2600" fill="url(#bg_coach_15_9062)"/>
  <path d="M 849.6 2854.0 C 849.6 3087.1, 879.6 3004.0, 805.9 3182.5 C 732.1 3361.1, 796.1 3337.3, 683.1 3377.8 C 570.1 3418.3, 599.7 3389.3, 500.3 3272.8 C 400.9 3156.2, 469.0 3221.5, 429.8 3002.4 C 390.5 2783.4, 326.6 2880.5, 365.9 2661.4 C 405.1 2442.4, 420.9 2522.1, 520.3 2405.6 C 619.6 2289.0, 559.5 2370.8, 672.5 2411.3 C 785.5 2451.8, 780.7 2328.1, 854.4 2506.6 C 928.2 2685.2, 849.6 2620.9, 849.6 2854.0 Z" fill="#86A8FF" opacity="0.24" filter="url(#blur_coach_15_9062)"/>
  <path d="M 1284.6 1710.0 C 1284.6 2005.2, 1357.3 1911.4, 1243.9 2137.5 C 1130.5 2363.7, 1169.2 2196.8, 995.5 2248.0 C 821.8 2299.3, 910.9 2384.6, 758.1 2237.0 C 605.3 2089.4, 620.7 2211.6, 560.4 1934.2 C 500.0 1656.8, 429.4 1754.7, 489.7 1477.3 C 550.1 1199.9, 605.4 1318.2, 758.1 1170.6 C 910.9 1023.0, 821.1 1120.3, 994.8 1171.5 C 1168.5 1222.8, 1073.3 1025.1, 1186.6 1251.2 C 1300.0 1477.3, 1284.6 1414.8, 1284.6 1710.0 Z" fill="#CFF3FF" opacity="0.30" filter="url(#blur_coach_15_9062)"/>
  <path d="M 1266.0 2308.0 C 1266.0 2573.9, 1312.0 2442.1, 1238.5 2645.8 C 1165.0 2849.5, 1197.1 2924.9, 1084.5 2971.1 C 972.0 3017.3, 1002.2 2961.4, 903.2 2828.5 C 804.2 2695.5, 804.1 2746.1, 765.0 2496.1 C 725.9 2246.2, 801.7 2337.5, 840.8 2087.6 C 879.9 1837.6, 833.5 1865.2, 932.5 1732.2 C 1031.5 1599.2, 976.6 1707.8, 1089.1 1754.0 C 1201.7 1800.1, 1150.2 1682.7, 1223.7 1886.4 C 1297.2 2090.1, 1266.0 2042.0, 1266.0 2308.0 Z" fill="#CFF3FF" opacity="0.20" filter="url(#blur_coach_15_9062)"/>
  <path d="M 456.8 2055.0 C 456.8 2351.1, 466.6 2311.7, 389.4 2538.5 C 312.1 2765.3, 353.4 2730.5, 235.1 2781.9 C 116.8 2833.3, 169.9 2869.0, 65.8 2721.0 C -38.2 2572.9, -50.5 2550.9, -91.6 2272.6 C -132.7 1994.4, -114.2 2118.0, -73.1 1839.7 C -32.0 1561.5, -45.4 1628.7, 58.6 1480.7 C 162.7 1332.6, 115.2 1278.8, 233.5 1330.2 C 351.9 1381.6, 299.4 1477.7, 376.7 1704.5 C 453.9 1931.4, 456.8 1758.9, 456.8 2055.0 Z" fill="#4ECAD1" opacity="0.21" filter="url(#blur_coach_15_9062)"/>
  <path d="M 1402.9 805.0 C 1402.9 1004.4, 1395.0 958.5, 1328.5 1111.2 C 1261.9 1263.9, 1296.8 1250.8, 1194.8 1285.4 C 1092.9 1320.0, 1120.8 1349.6, 1031.1 1249.9 C 941.5 1150.2, 998.0 1124.2, 962.6 936.9 C 927.2 749.6, 922.4 865.8, 957.8 678.4 C 993.2 491.1, 949.1 455.7, 1038.7 356.0 C 1128.3 256.3, 1096.0 344.9, 1197.9 379.5 C 1299.8 414.2, 1292.3 390.4, 1358.8 543.1 C 1425.4 695.8, 1402.9 605.6, 1402.9 805.0 Z" fill="#CFF3FF" opacity="0.28" filter="url(#blur_coach_15_9062)"/>
  <path d="M 372.0 1720.0 C 372.0 1846.5, 448.3 1772.6, 345.6 1869.4 C 242.9 1966.3, 285.2 2015.6, 127.9 2037.5 C -29.5 2059.5, 4.6 2065.4, -133.8 2002.2 C -272.1 1938.9, -194.3 1918.6, -248.9 1799.7 C -303.6 1680.9, -337.1 1741.4, -282.5 1622.6 C -227.9 1503.8, -218.1 1507.5, -79.8 1444.3 C 58.6 1381.1, -16.4 1432.7, 140.9 1454.6 C 298.2 1476.6, 250.3 1454.6, 353.0 1551.5 C 455.7 1648.3, 372.0 1593.5, 372.0 1720.0 Z" fill="#86A8FF" opacity="0.37" filter="url(#blur_coach_15_9062)"/>
  <path d="M 1090.9 2515.0 C 1090.9 2659.9, 1149.8 2635.4, 1005.5 2746.4 C 861.1 2857.4, 890.9 2769.0, 669.8 2794.1 C 448.7 2819.3, 545.4 2887.0, 351.0 2814.5 C 156.5 2742.1, 148.5 2763.4, 71.7 2627.3 C -5.1 2491.1, -31.3 2521.7, 45.5 2385.5 C 122.3 2249.3, 102.1 2278.4, 296.5 2206.0 C 491.0 2133.5, 447.2 2226.0, 668.4 2251.2 C 889.5 2276.4, 892.0 2227.3, 1036.3 2338.3 C 1180.7 2449.3, 1090.9 2370.1, 1090.9 2515.0 Z" fill="#F7FEFF" opacity="0.21" filter="url(#blur_coach_15_9062)"/>
  <path d="M 975.1 1851.0 C 975.1 1994.5, 981.8 1925.8, 852.5 2035.8 C 723.2 2145.7, 831.8 2086.5, 633.7 2111.4 C 435.6 2136.4, 535.7 2154.3, 361.5 2082.5 C 187.3 2010.7, 241.2 2093.4, 172.4 1958.6 C 103.6 1823.7, 33.4 1873.9, 102.2 1739.0 C 171.0 1604.1, 183.1 1606.8, 357.3 1535.1 C 531.5 1463.3, 423.5 1555.8, 621.6 1580.7 C 819.7 1605.7, 795.5 1555.1, 924.8 1665.1 C 1054.1 1775.0, 975.1 1707.5, 975.1 1851.0 Z" fill="#E3E0FF" opacity="0.36" filter="url(#blur_coach_15_9062)"/>
  <path d="M 547.6 2435.0 C 547.6 2740.1, 556.8 2615.7, 469.5 2849.4 C 382.1 3083.2, 424.8 3087.6, 291.0 3140.6 C 157.1 3193.5, 198.4 3133.4, 80.7 2980.8 C -37.0 2828.3, -12.0 2959.0, -58.5 2672.3 C -104.9 2385.6, -86.9 2472.2, -40.4 2185.5 C 6.1 1898.8, 2.2 1915.0, 119.9 1762.5 C 237.6 1609.9, 174.5 1822.8, 308.3 1875.8 C 442.2 1928.7, 398.6 1756.1, 486.0 1989.8 C 573.3 2223.5, 547.6 2129.9, 547.6 2435.0 Z" fill="#F7FEFF" opacity="0.24" filter="url(#blur_coach_15_9062)"/>
  <path d="M 875.2 1267.0 C 875.2 1529.3, 837.8 1490.6, 760.9 1691.6 C 684.0 1892.6, 729.9 1773.2, 612.0 1818.8 C 494.2 1864.3, 523.1 1881.5, 419.5 1750.3 C 315.8 1619.1, 391.6 1690.5, 350.6 1444.0 C 309.7 1197.5, 272.7 1289.0, 313.6 1042.5 C 354.5 795.9, 352.9 817.3, 456.5 686.1 C 560.2 555.0, 509.0 732.9, 626.8 778.4 C 744.7 824.0, 719.7 739.4, 796.6 940.4 C 873.6 1141.4, 875.2 1004.6, 875.2 1267.0 Z" fill="#CCF7ED" opacity="0.22" filter="url(#blur_coach_15_9062)"/>
  <path d="M 935.5 1819.0 C 935.5 2090.8, 999.8 1941.6, 914.1 2161.5 C 828.4 2381.3, 849.5 2296.6, 710.9 2380.6 C 572.2 2464.6, 652.1 2526.6, 513.4 2442.6 C 374.7 2358.6, 420.8 2439.4, 335.1 2219.5 C 249.4 1999.6, 317.0 2090.8, 317.0 1819.0 C 317.0 1547.2, 261.1 1674.3, 346.8 1454.4 C 432.5 1234.5, 379.6 1267.4, 518.2 1183.4 C 656.9 1099.4, 571.2 1165.8, 709.9 1249.8 C 848.5 1333.8, 817.9 1266.1, 903.6 1486.0 C 989.3 1705.9, 935.5 1547.2, 935.5 1819.0 Z" fill="#86A8FF" opacity="0.12" stroke="#86A8FF" stroke-opacity="0.46" stroke-width="3" filter="url(#soft_coach_15_9062)"/>
  <path d="M 935.5 1819.0 C 935.5 2090.8, 999.8 1941.6, 914.1 2161.5 C 828.4 2381.3, 849.5 2296.6, 710.9 2380.6 C 572.2 2464.6, 652.1 2526.6, 513.4 2442.6 C 374.7 2358.6, 420.8 2439.4, 335.1 2219.5 C 249.4 1999.6, 317.0 2090.8, 317.0 1819.0 C 317.0 1547.2, 261.1 1674.3, 346.8 1454.4 C 432.5 1234.5, 379.6 1267.4, 518.2 1183.4 C 656.9 1099.4, 571.2 1165.8, 709.9 1249.8 C 848.5 1333.8, 817.9 1266.1, 903.6 1486.0 C 989.3 1705.9, 935.5 1547.2, 935.5 1819.0 Z" fill="none" stroke="#FFFFFF" stroke-opacity="0.22" stroke-width="1.2"/>
  <path d="M 565.9 2618.0 C 565.9 2841.2, 523.0 2721.6, 344.1 2902.2 C 165.3 3082.8, 325.9 3042.1, 36.6 3111.1 C -252.7 3180.1, -115.8 3214.4, -405.1 3145.4 C -694.4 3076.4, -556.4 3051.4, -735.2 2870.8 C -914.0 2690.2, -845.1 2841.2, -845.1 2618.0 C -845.1 2394.8, -852.7 2531.8, -673.9 2351.2 C -495.1 2170.6, -694.4 2200.0, -405.1 2131.1 C -115.8 2062.1, -264.8 2013.1, 24.5 2082.0 C 313.8 2151.0, 172.0 2151.3, 350.8 2331.9 C 529.6 2512.5, 565.9 2394.8, 565.9 2618.0 Z" fill="#CCF7ED" opacity="0.12" stroke="#CCF7ED" stroke-opacity="0.46" stroke-width="3" filter="url(#soft_coach_15_9062)"/>
  <path d="M 565.9 2618.0 C 565.9 2841.2, 523.0 2721.6, 344.1 2902.2 C 165.3 3082.8, 325.9 3042.1, 36.6 3111.1 C -252.7 3180.1, -115.8 3214.4, -405.1 3145.4 C -694.4 3076.4, -556.4 3051.4, -735.2 2870.8 C -914.0 2690.2, -845.1 2841.2, -845.1 2618.0 C -845.1 2394.8, -852.7 2531.8, -673.9 2351.2 C -495.1 2170.6, -694.4 2200.0, -405.1 2131.1 C -115.8 2062.1, -264.8 2013.1, 24.5 2082.0 C 313.8 2151.0, 172.0 2151.3, 350.8 2331.9 C 529.6 2512.5, 565.9 2394.8, 565.9 2618.0 Z" fill="none" stroke="#FFFFFF" stroke-opacity="0.22" stroke-width="1.2"/>
  <path d="M 703.2 926.0 C 703.2 1205.0, 809.5 1088.3, 715.8 1314.0 C 622.2 1539.8, 648.4 1486.3, 496.9 1572.5 C 345.4 1658.7, 440.6 1537.3, 289.1 1451.1 C 137.6 1364.9, 187.5 1555.6, 93.9 1329.9 C 0.3 1104.2, 57.5 1205.0, 57.5 926.0 C 57.5 647.0, -20.3 810.2, 73.3 584.4 C 166.9 358.7, 137.8 361.4, 289.3 275.2 C 440.8 188.9, 351.9 323.8, 503.4 410.0 C 654.9 496.3, 547.9 343.4, 641.5 569.1 C 735.1 794.8, 703.2 647.0, 703.2 926.0 Z" fill="#B4E6F8" opacity="0.12" stroke="#FFFFFF" stroke-opacity="0.46" stroke-width="3" filter="url(#soft_coach_15_9062)"/>
  <path d="M 703.2 926.0 C 703.2 1205.0, 809.5 1088.3, 715.8 1314.0 C 622.2 1539.8, 648.4 1486.3, 496.9 1572.5 C 345.4 1658.7, 440.6 1537.3, 289.1 1451.1 C 137.6 1364.9, 187.5 1555.6, 93.9 1329.9 C 0.3 1104.2, 57.5 1205.0, 57.5 926.0 C 57.5 647.0, -20.3 810.2, 73.3 584.4 C 166.9 358.7, 137.8 361.4, 289.3 275.2 C 440.8 188.9, 351.9 323.8, 503.4 410.0 C 654.9 496.3, 547.9 343.4, 641.5 569.1 C 735.1 794.8, 703.2 647.0, 703.2 926.0 Z" fill="none" stroke="#FFFFFF" stroke-opacity="0.22" stroke-width="1.2"/>
  <path d="M 902.9 1377.0 C 902.9 1708.7, 958.6 1491.9, 796.0 1760.2 C 633.3 2028.5, 694.4 1910.9, 431.2 2013.4 C 168.0 2115.9, 312.8 2235.0, 49.5 2132.5 C -213.7 2030.0, -120.9 2018.2, -283.6 1749.9 C -446.3 1481.6, -365.3 1708.7, -365.3 1377.0 C -365.3 1045.3, -474.0 1186.4, -311.4 918.1 C -148.7 649.8, -202.7 739.6, 60.5 637.1 C 323.7 534.6, 173.9 667.4, 437.1 769.9 C 700.3 872.4, 598.1 647.7, 760.8 916.0 C 923.4 1184.3, 902.9 1045.3, 902.9 1377.0 Z" fill="#B891FF" opacity="0.12" stroke="#B891FF" stroke-opacity="0.46" stroke-width="3" filter="url(#soft_coach_15_9062)"/>
  <path d="M 902.9 1377.0 C 902.9 1708.7, 958.6 1491.9, 796.0 1760.2 C 633.3 2028.5, 694.4 1910.9, 431.2 2013.4 C 168.0 2115.9, 312.8 2235.0, 49.5 2132.5 C -213.7 2030.0, -120.9 2018.2, -283.6 1749.9 C -446.3 1481.6, -365.3 1708.7, -365.3 1377.0 C -365.3 1045.3, -474.0 1186.4, -311.4 918.1 C -148.7 649.8, -202.7 739.6, 60.5 637.1 C 323.7 534.6, 173.9 667.4, 437.1 769.9 C 700.3 872.4, 598.1 647.7, 760.8 916.0 C 923.4 1184.3, 902.9 1045.3, 902.9 1377.0 Z" fill="none" stroke="#FFFFFF" stroke-opacity="0.22" stroke-width="1.2"/>
  <path d="M 1345.0 -175.0 C 1345.0 200.8, 1373.1 54.1, 1290.0 358.1 C 1207.0 662.1, 1312.0 531.7, 1177.6 647.8 C 1043.2 763.9, 1098.0 690.4, 963.6 574.3 C 829.2 458.2, 920.6 571.8, 837.6 267.8 C 754.5 -36.2, 713.3 200.8, 713.3 -175.0 C 713.3 -550.7, 700.9 -307.6, 784.0 -611.6 C 867.0 -915.6, 836.7 -809.1, 971.1 -925.2 C 1105.4 -1041.3, 1020.6 -1093.5, 1155.0 -977.4 C 1289.3 -861.3, 1224.9 -988.0, 1308.0 -684.0 C 1391.0 -380.1, 1345.0 -550.8, 1345.0 -175.0 Z" fill="#4ECAD1" opacity="0.12" stroke="#FFFFFF" stroke-opacity="0.46" stroke-width="3" filter="url(#soft_coach_15_9062)"/>
  <path d="M 1345.0 -175.0 C 1345.0 200.8, 1373.1 54.1, 1290.0 358.1 C 1207.0 662.1, 1312.0 531.7, 1177.6 647.8 C 1043.2 763.9, 1098.0 690.4, 963.6 574.3 C 829.2 458.2, 920.6 571.8, 837.6 267.8 C 754.5 -36.2, 713.3 200.8, 713.3 -175.0 C 713.3 -550.7, 700.9 -307.6, 784.0 -611.6 C 867.0 -915.6, 836.7 -809.1, 971.1 -925.2 C 1105.4 -1041.3, 1020.6 -1093.5, 1155.0 -977.4 C 1289.3 -861.3, 1224.9 -988.0, 1308.0 -684.0 C 1391.0 -380.1, 1345.0 -550.8, 1345.0 -175.0 Z" fill="none" stroke="#FFFFFF" stroke-opacity="0.22" stroke-width="1.2"/>
  <path d="M 444.3 1900.0 C 444.3 2071.4, 525.7 2005.6, 352.7 2144.3 C 179.8 2283.0, 229.8 2224.8, -50.1 2277.8 C -330.0 2330.8, -135.6 2267.9, -415.5 2214.9 C -695.4 2161.9, -634.7 2281.3, -807.7 2142.6 C -980.7 2003.9, -977.1 2071.4, -977.1 1900.0 C -977.1 1728.5, -942.0 1836.7, -769.0 1697.9 C -596.0 1559.2, -737.6 1590.0, -457.7 1537.0 C -177.8 1484.0, -325.3 1440.2, -45.4 1493.1 C 234.5 1546.1, 158.6 1514.2, 331.6 1652.9 C 504.6 1791.6, 444.3 1728.5, 444.3 1900.0 Z" fill="#CCF7ED" opacity="0.12" stroke="#CCF7ED" stroke-opacity="0.46" stroke-width="3" filter="url(#soft_coach_15_9062)"/>
  <path d="M 444.3 1900.0 C 444.3 2071.4, 525.7 2005.6, 352.7 2144.3 C 179.8 2283.0, 229.8 2224.8, -50.1 2277.8 C -330.0 2330.8, -135.6 2267.9, -415.5 2214.9 C -695.4 2161.9, -634.7 2281.3, -807.7 2142.6 C -980.7 2003.9, -977.1 2071.4, -977.1 1900.0 C -977.1 1728.5, -942.0 1836.7, -769.0 1697.9 C -596.0 1559.2, -737.6 1590.0, -457.7 1537.0 C -177.8 1484.0, -325.3 1440.2, -45.4 1493.1 C 234.5 1546.1, 158.6 1514.2, 331.6 1652.9 C 504.6 1791.6, 444.3 1728.5, 444.3 1900.0 Z" fill="none" stroke="#FFFFFF" stroke-opacity="0.22" stroke-width="1.2"/>
  <path d="M -100.0 1968.6 Q 133.3 2412.9, 366.7 2338.7 Q 600.0 1899.6, 833.3 2049.3 Q 1066.7 2459.3, 1300.0 2161.1" fill="none" stroke="#FFFFFF" stroke-opacity="0.38" stroke-width="4" filter="url(#soft_coach_15_9062)"/>
  <path d="M -100.0 1968.6 Q 133.3 2412.9, 366.7 2338.7 Q 600.0 1899.6, 833.3 2049.3 Q 1066.7 2459.3, 1300.0 2161.1" fill="none" stroke="#86A8FF" stroke-opacity="0.18" stroke-width="2"/>
  <path d="M -100.0 703.7 Q 133.3 540.1, 366.7 232.9 Q 600.0 307.2, 833.3 508.2 Q 1066.7 734.0, 1300.0 543.7" fill="none" stroke="#FFFFFF" stroke-opacity="0.38" stroke-width="4" filter="url(#soft_coach_15_9062)"/>
  <path d="M -100.0 703.7 Q 133.3 540.1, 366.7 232.9 Q 600.0 307.2, 833.3 508.2 Q 1066.7 734.0, 1300.0 543.7" fill="none" stroke="#B891FF" stroke-opacity="0.18" stroke-width="2"/>
  <path d="M -100.0 347.2 Q 133.3 263.5, 366.7 623.3 Q 600.0 808.3, 833.3 691.9 Q 1066.7 381.8, 1300.0 270.3" fill="none" stroke="#FFFFFF" stroke-opacity="0.38" stroke-width="4" filter="url(#soft_coach_15_9062)"/>
  <path d="M -100.0 347.2 Q 133.3 263.5, 366.7 623.3 Q 600.0 808.3, 833.3 691.9 Q 1066.7 381.8, 1300.0 270.3" fill="none" stroke="#86A8FF" stroke-opacity="0.18" stroke-width="2"/>
  <circle cx="-20" cy="-78" r="109" fill="url(#orb_coach_15_9062)" opacity="0.36"/>
  <circle cx="-20" cy="-78" r="109" fill="#B4E6F8" opacity="0.08"/>
  <circle cx="-20" cy="-78" r="109" fill="none" stroke="#FFFFFF" stroke-opacity="0.56" stroke-width="3"/>
  <ellipse cx="-50.5" cy="-117.2" rx="19.6" ry="8.7" fill="#FFFFFF" opacity="0.42" transform="rotate(-22 -50.5 -117.2)"/>
  <circle cx="1134" cy="1782" r="157" fill="url(#orb_coach_15_9062)" opacity="0.36"/>
  <circle cx="1134" cy="1782" r="157" fill="#E3E0FF" opacity="0.08"/>
  <circle cx="1134" cy="1782" r="157" fill="none" stroke="#FFFFFF" stroke-opacity="0.56" stroke-width="3"/>
  <ellipse cx="1090.0" cy="1725.5" rx="28.3" ry="12.6" fill="#FFFFFF" opacity="0.42" transform="rotate(-22 1090.0 1725.5)"/>
  <circle cx="416" cy="2556" r="179" fill="url(#orb_coach_15_9062)" opacity="0.36"/>
  <circle cx="416" cy="2556" r="179" fill="#F7FEFF" opacity="0.08"/>
  <circle cx="416" cy="2556" r="179" fill="none" stroke="#FFFFFF" stroke-opacity="0.56" stroke-width="3"/>
  <ellipse cx="365.9" cy="2491.6" rx="32.2" ry="14.3" fill="#FFFFFF" opacity="0.42" transform="rotate(-22 365.9 2491.6)"/>
  <circle cx="1107" cy="540" r="99" fill="url(#orb_coach_15_9062)" opacity="0.21"/>
  <circle cx="1107" cy="540" r="99" fill="#B4E6F8" opacity="0.08"/>
  <circle cx="1107" cy="540" r="99" fill="none" stroke="#FFFFFF" stroke-opacity="0.56" stroke-width="3"/>
  <ellipse cx="1079.3" cy="504.4" rx="17.8" ry="7.9" fill="#FFFFFF" opacity="0.42" transform="rotate(-22 1079.3 504.4)"/>
  <circle cx="950" cy="128" r="269" fill="url(#orb_coach_15_9062)" opacity="0.16"/>
  <circle cx="950" cy="128" r="269" fill="#4ECAD1" opacity="0.08"/>
  <circle cx="950" cy="128" r="269" fill="none" stroke="#FFFFFF" stroke-opacity="0.56" stroke-width="3"/>
  <ellipse cx="874.7" cy="31.2" rx="48.4" ry="21.5" fill="#FFFFFF" opacity="0.42" transform="rotate(-22 874.7 31.2)"/>
  <circle cx="455" cy="1602" r="277" fill="url(#orb_coach_15_9062)" opacity="0.25"/>
  <circle cx="455" cy="1602" r="277" fill="#B4E6F8" opacity="0.08"/>
  <circle cx="455" cy="1602" r="277" fill="none" stroke="#FFFFFF" stroke-opacity="0.56" stroke-width="3"/>
  <ellipse cx="377.4" cy="1502.3" rx="49.9" ry="22.2" fill="#FFFFFF" opacity="0.42" transform="rotate(-22 377.4 1502.3)"/>
  <circle cx="1260" cy="351" r="245" fill="url(#orb_coach_15_9062)" opacity="0.26"/>
  <circle cx="1260" cy="351" r="245" fill="#CCF7ED" opacity="0.08"/>
  <circle cx="1260" cy="351" r="245" fill="none" stroke="#FFFFFF" stroke-opacity="0.56" stroke-width="3"/>
  <ellipse cx="1191.4" cy="262.8" rx="44.1" ry="19.6" fill="#FFFFFF" opacity="0.42" transform="rotate(-22 1191.4 262.8)"/>
  <circle cx="262" cy="862" r="287" fill="url(#orb_coach_15_9062)" opacity="0.24"/>
  <circle cx="262" cy="862" r="287" fill="#B891FF" opacity="0.08"/>
  <circle cx="262" cy="862" r="287" fill="none" stroke="#FFFFFF" stroke-opacity="0.56" stroke-width="3"/>
  <ellipse cx="181.6" cy="758.7" rx="51.7" ry="23.0" fill="#FFFFFF" opacity="0.42" transform="rotate(-22 181.6 758.7)"/>
  <circle cx="784" cy="1793" r="3" fill="#FFFFFF" opacity="0.31"/>
  <circle cx="523" cy="1159" r="2" fill="#FFFFFF" opacity="0.60"/>
  <circle cx="103" cy="1770" r="7" fill="#FFFFFF" opacity="0.59"/>
  <circle cx="680" cy="2472" r="7" fill="#FFFFFF" opacity="0.44"/>
  <circle cx="1132" cy="1308" r="3" fill="#FFFFFF" opacity="0.42"/>
  <circle cx="514" cy="1042" r="5" fill="#FFFFFF" opacity="0.56"/>
  <circle cx="876" cy="1817" r="3" fill="#FFFFFF" opacity="0.59"/>
  <circle cx="1115" cy="2302" r="2" fill="#FFFFFF" opacity="0.65"/>
  <circle cx="598" cy="1852" r="5" fill="#FFFFFF" opacity="0.51"/>
  <circle cx="1130" cy="447" r="4" fill="#FFFFFF" opacity="0.72"/>
  <circle cx="929" cy="1448" r="5" fill="#FFFFFF" opacity="0.36"/>
  <circle cx="1072" cy="2159" r="5" fill="#FFFFFF" opacity="0.67"/>
  <circle cx="260" cy="2568" r="5" fill="#FFFFFF" opacity="0.66"/>
  <circle cx="141" cy="1754" r="2" fill="#FFFFFF" opacity="0.34"/>
  <circle cx="300" cy="1509" r="7" fill="#FFFFFF" opacity="0.36"/>
  <circle cx="132" cy="1760" r="5" fill="#FFFFFF" opacity="0.54"/>
  <circle cx="336" cy="695" r="7" fill="#FFFFFF" opacity="0.35"/>
  <circle cx="114" cy="2066" r="3" fill="#FFFFFF" opacity="0.64"/>
  <circle cx="993" cy="1403" r="5" fill="#FFFFFF" opacity="0.63"/>
  <rect width="1200" height="2600" fill="#FFFFFF" opacity="0.08"/>
  <rect width="1200" height="2600" filter="url(#grain_coach_15_9062)" opacity="0.7"/>
</svg>
