<svg xmlns="http://www.w3.org/2000/svg" width="1200" height="2600" viewBox="0 0 1200 2600" preserveAspectRatio="xMidYMid slice">
  <defs>
    <linearGradient id="bg_coach_10_5941" x1="0" y1="0" x2="1" y2="1">
      <stop offset="0%" stop-color="#F7FEFF"/>
      <stop offset="48%" stop-color="#E3E0FF"/>
      <stop offset="100%" stop-color="#CCF7ED"/>
    </linearGradient>
    <radialGradient id="orb_coach_10_5941" cx="35%" cy="30%" r="70%">
      <stop offset="0%" stop-color="#FFFFFF" stop-opacity="0.85"/>
      <stop offset="42%" stop-color="#FFFFFF" stop-opacity="0.20"/>
      <stop offset="100%" stop-color="#FFFFFF" stop-opacity="0.02"/>
    </radialGradient>
    <filter id="blur_coach_10_5941" x="-30%" y="-30%" width="160%" height="160%">
      <feGaussianBlur stdDeviation="72"/>
    </filter>
    <filter id="soft_coach_10_5941" x="-20%" y="-20%" width="140%" height="140%">
      <feGaussianBlur stdDeviation="10"/>
    </filter>
    <filter id="grain_coach_10_5941">
      <feTurbulence type="fractalNoise" baseFrequency="0.85" numOctaves="2" stitchTiles="stitch"/>
      <feColorMatrix type="saturate" values="0"/>
      <feComponentTransfer>
        <feFuncA type="table" tableValues="0 0.035"/>
      </feComponentTransfer>
    </filter>
  </defs>
  <rect width="1200" height="2600" fill="url(#bg_coach_10_5941)"/>
  <path d="M 994.9 1824.0 C 994.9 2086.8, 1084.0 1978.6, 969.2 2179.9 C 854.4 2381.2, 893.0 2271.9, 717.1 2317.5 C 541.2 2363.2, 618.4 2515.9, 463.7 2384.5 C 309.0 2253.1, 279.0 2271.4, 217.9 2024.5 C 156.8 1777.5, 236.4 1875.8, 297.5 1628.9 C 358.6 1381.9, 286.7 1440.2, 441.4 1308.8 C 596.1 1177.4, 527.0 1278.7, 702.9 1324.3 C 878.9 1370.0, 812.6 1193.4, 927.4 1394.8 C 1042.3 1596.1, 994.9 1561.2, 994.9 1824.0 Z" fill="#CFF3FF" opacity="0.28" filter="url(#blur_coach_10_5941)"/>
  <path d="M 1576.1 2654.0 C 1576.1 2949.2, 1613.9 2853.5, 1468.1 3079.7 C 1322.4 3305.8, 1453.6 3200.4, 1230.2 3251.6 C 1006.8 3302.9, 1051.9 3396.5, 855.5 3248.9 C 659.1 3101.3, 837.7 3185.5, 760.1 2908.1 C 682.5 2630.7, 655.2 2673.3, 732.8 2395.9 C 810.3 2118.5, 726.3 2273.4, 922.7 2125.8 C 1119.2 1978.2, 1019.6 1868.3, 1242.9 1919.6 C 1466.3 1970.9, 1441.1 1950.4, 1586.9 2176.6 C 1732.7 2402.7, 1576.1 2358.8, 1576.1 2654.0 Z" fill="#B891FF" opacity="0.37" filter="url(#blur_coach_10_5941)"/>
  <path d="M 1142.4 1157.0 C 1142.4 1382.5, 1109.0 1268.1, 956.5 1440.8 C 804.1 1613.5, 851.8 1627.2, 618.3 1666.3 C 384.7 1705.5, 521.2 1651.9, 315.8 1539.2 C 110.4 1426.4, 160.0 1530.0, 78.9 1318.1 C -2.3 1106.3, -119.1 1173.5, -38.0 961.7 C 43.1 749.8, 61.1 903.8, 266.5 791.1 C 471.9 678.4, 388.9 652.6, 622.5 691.8 C 856.0 730.9, 772.0 638.2, 924.4 810.9 C 1076.9 983.7, 1142.4 931.5, 1142.4 1157.0 Z" fill="#B891FF" opacity="0.26" filter="url(#blur_coach_10_5941)"/>
  <path d="M 1163.6 1150.0 C 1163.6 1444.8, 1186.4 1418.5, 1060.8 1644.3 C 935.3 1870.1, 940.3 1630.6, 748.0 1681.8 C 555.6 1733.0, 664.1 1891.1, 495.0 1743.8 C 325.8 1596.4, 298.7 1662.4, 231.9 1385.4 C 165.1 1108.5, 268.2 1186.4, 335.0 909.4 C 401.7 632.5, 329.2 713.5, 498.3 566.1 C 667.4 418.8, 562.2 480.0, 754.5 531.2 C 946.8 582.3, 921.6 466.2, 1047.2 692.0 C 1172.7 917.8, 1163.6 855.2, 1163.6 1150.0 Z" fill="#CFF3FF" opacity="0.34" filter="url(#blur_coach_10_5941)"/>
  <path d="M 1538.4 1340.0 C 1538.4 1589.8, 1618.6 1449.1, 1467.9 1640.4 C 1317.2 1831.8, 1351.5 1882.0, 1120.7 1925.4 C 889.8 1968.8, 1009.1 1974.1, 806.1 1849.2 C 603.0 1724.4, 710.6 1798.5, 630.4 1563.8 C 550.2 1329.1, 384.8 1376.4, 465.0 1141.7 C 545.2 907.0, 559.4 1059.3, 762.5 934.4 C 965.5 809.5, 906.0 805.5, 1136.9 848.8 C 1367.8 892.2, 1335.8 804.7, 1486.5 996.1 C 1637.2 1187.4, 1538.4 1090.2, 1538.4 1340.0 Z" fill="#F7FEFF" opacity="0.30" filter="url(#blur_coach_10_5941)"/>
  <path d="M 1055.8 -249.0 C 1055.8 -28.0, 1093.0 -49.6, 1017.5 119.7 C 942.0 289.0, 974.2 179.1, 858.5 217.4 C 742.9 255.8, 780.2 350.8, 678.5 240.3 C 576.7 129.9, 583.1 107.8, 542.9 -99.9 C 502.8 -307.5, 547.5 -236.5, 587.7 -444.1 C 627.9 -651.7, 556.3 -638.8, 658.0 -749.3 C 759.8 -859.8, 733.9 -736.7, 849.5 -698.3 C 965.2 -659.9, 920.3 -701.7, 995.8 -532.5 C 1071.3 -363.2, 1055.8 -470.0, 1055.8 -249.0 Z" fill="#CCF7ED" opacity="0.23" filter="url(#blur_coach_10_5941)"/>
  <path d="M 495.0 910.0 C 495.0 1147.2, 507.1 1098.2, 359.9 1279.9 C 212.7 1461.6, 292.4 1377.3, 66.8 1418.4 C -158.7 1459.6, -68.6 1443.6, -267.0 1325.0 C -465.4 1206.4, -477.2 1318.7, -555.6 1095.9 C -633.9 873.0, -532.8 958.5, -454.5 735.7 C -376.1 512.9, -480.7 627.0, -282.3 508.5 C -83.9 389.9, -174.0 273.1, 51.5 314.3 C 277.1 355.5, 157.1 351.5, 304.3 533.1 C 451.5 714.8, 495.0 672.9, 495.0 910.0 Z" fill="#F7FEFF" opacity="0.30" filter="url(#blur_coach_10_5941)"/>
  <path d="M 1551.7 2016.0 C 1551.7 2155.9, 1585.0 2083.1, 1453.7 2190.3 C 1322.4 2297.5, 1330.9 2267.8, 1129.7 2292.1 C 928.5 2316.4, 967.3 2307.7, 790.4 2237.7 C 613.5 2167.7, 724.4 2259.3, 654.5 2127.8 C 584.6 1996.3, 586.0 2051.4, 655.9 1919.9 C 725.7 1788.3, 635.8 1769.5, 812.8 1699.6 C 989.7 1629.6, 920.6 1709.4, 1121.8 1733.7 C 1323.0 1758.0, 1314.0 1685.5, 1445.3 1792.7 C 1576.7 1899.9, 1551.7 1876.0, 1551.7 2016.0 Z" fill="#CFF3FF" opacity="0.21" filter="url(#blur_coach_10_5941)"/>
  <path d="M 273.0 1808.0 C 273.0 1975.4, 196.0 1893.9, 89.9 2022.2 C -16.3 2150.4, 85.2 2192.2, -77.4 2221.2 C -240.0 2250.3, -201.6 2256.7, -344.6 2173.0 C -487.6 2089.3, -479.8 2094.3, -536.2 1937.0 C -592.7 1779.7, -496.3 1839.1, -439.8 1681.8 C -383.3 1524.5, -454.3 1519.1, -311.3 1435.4 C -168.3 1351.7, -248.1 1368.2, -85.5 1397.3 C 77.1 1426.4, 4.2 1401.2, 110.3 1529.4 C 216.5 1657.7, 273.0 1640.6, 273.0 1808.0 Z" fill="#CFF3FF" opacity="0.33" filter="url(#blur_coach_10_5941)"/>
  <path d="M 1715.8 1031.0 C 1715.8 1403.2, 1805.9 1213.0, 1686.6 1514.0 C 1567.3 1815.1, 1605.8 1674.1, 1412.8 1789.1 C 1219.8 1904.1, 1331.9 1897.8, 1138.9 1782.8 C 945.9 1667.8, 1074.0 1780.7, 954.7 1479.6 C 835.4 1178.6, 891.8 1403.2, 891.8 1031.0 C 891.8 658.8, 799.0 884.8, 918.3 583.7 C 1037.6 282.6, 962.6 372.8, 1155.6 257.8 C 1348.6 142.8, 1222.9 102.1, 1416.0 217.1 C 1609.0 332.1, 1539.1 206.2, 1658.4 507.2 C 1777.7 808.3, 1715.8 658.8, 1715.8 1031.0 Z" fill="#F7FEFF" opacity="0.12" stroke="#F7FEFF" stroke-opacity="0.46" stroke-width="3" filter="url(#soft_coach_10_5941)"/>
  <path d="M 1715.8 1031.0 C 1715.8 1403.2, 1805.9 1213.0, 1686.6 1514.0 C 1567.3 1815.1, 1605.8 1674.1, 1412.8 1789.1 C 1219.8 1904.1, 1331.9 1897.8, 1138.9 1782.8 C 945.9 1667.8, 1074.0 1780.7, 954.7 1479.6 C 835.4 1178.6, 891.8 1403.2, 891.8 1031.0 C 891.8 658.8, 799.0 884.8, 918.3 583.7 C 1037.6 282.6, 962.6 372.8, 1155.6 257.8 C 1348.6 142.8, 1222.9 102.1, 1416.0 217.1 C 1609.0 332.1, 1539.1 206.2, 1658.4 507.2 C 1777.7 808.3, 1715.8 658.8, 1715.8 1031.0 Z" fill="none" stroke="#FFFFFF" stroke-opacity="0.22" stroke-width="1.2"/>
  <path d="M 1446.3 920.0 C 1446.3 1079.3, 1551.7 993.1, 1449.0 1121.9 C 1346.4 1250.8, 1377.9 1250.4, 1211.9 1299.7 C 1045.8 1348.9, 1151.6 1319.6, 985.6 1270.4 C 819.5 1221.2, 913.3 1250.1, 810.6 1121.2 C 708.0 992.3, 727.0 1079.3, 727.0 920.0 C 727.0 760.7, 702.9 823.9, 805.6 695.0 C 908.2 566.1, 827.6 624.9, 993.6 575.7 C 1159.7 526.5, 1039.1 567.8, 1205.2 617.0 C 1371.2 666.3, 1304.3 603.4, 1407.0 732.3 C 1509.6 861.2, 1446.3 760.7, 1446.3 920.0 Z" fill="#4ECAD1" opacity="0.12" stroke="#FFFFFF" stroke-opacity="0.46" stroke-width="3" filter="url(#soft_coach_10_5941)"/>
  <path d="M 1446.3 920.0 C 1446.3 1079.3, 1551.7 993.1, 1449.0 1121.9 C 1346.4 1250.8, 1377.9 1250.4, 1211.9 1299.7 C 1045.8 1348.9, 1151.6 1319.6, 985.6 1270.4 C 819.5 1221.2, 913.3 1250.1, 810.6 1121.2 C 708.0 992.3, 727.0 1079.3, 727.0 920.0 C 727.0 760.7, 702.9 823.9, 805.6 695.0 C 908.2 566.1, 827.6 624.9, 993.6 575.7 C 1159.7 526.5, 1039.1 567.8, 1205.2 617.0 C 1371.2 666.3, 1304.3 603.4, 1407.0 732.3 C 1509.6 861.2, 1446.3 760.7, 1446.3 920.0 Z" fill="none" stroke="#FFFFFF" stroke-opacity="0.22" stroke-width="1.2"/>
  <path d="M 1046.3 1124.0 C 1046.3 1441.2, 1139.7 1282.7, 1018.8 1539.3 C 897.9 1796.0, 983.7 1754.5, 788.1 1852.5 C 592.5 1950.6, 697.2 1884.5, 501.6 1786.5 C 306.0 1688.5, 424.2 1757.5, 303.3 1500.8 C 182.4 1244.1, 167.0 1441.2, 167.0 1124.0 C 167.0 806.8, 155.9 1001.9, 276.8 745.2 C 397.7 488.6, 303.2 460.9, 498.8 362.9 C 694.4 264.8, 577.4 311.5, 773.0 409.5 C 968.6 507.6, 922.0 472.7, 1042.9 729.4 C 1163.8 986.0, 1046.3 806.8, 1046.3 1124.0 Z" fill="#CFF3FF" opacity="0.12" stroke="#CFF3FF" stroke-opacity="0.46" stroke-width="3" filter="url(#soft_coach_10_5941)"/>
  <path d="M 1046.3 1124.0 C 1046.3 1441.2, 1139.7 1282.7, 1018.8 1539.3 C 897.9 1796.0, 983.7 1754.5, 788.1 1852.5 C 592.5 1950.6, 697.2 1884.5, 501.6 1786.5 C 306.0 1688.5, 424.2 1757.5, 303.3 1500.8 C 182.4 1244.1, 167.0 1441.2, 167.0 1124.0 C 167.0 806.8, 155.9 1001.9, 276.8 745.2 C 397.7 488.6, 303.2 460.9, 498.8 362.9 C 694.4 264.8, 577.4 311.5, 773.0 409.5 C 968.6 507.6, 922.0 472.7, 1042.9 729.4 C 1163.8 986.0, 1046.3 806.8, 1046.3 1124.0 Z" fill="none" stroke="#FFFFFF" stroke-opacity="0.22" stroke-width="1.2"/>
  <path d="M 1770.0 1018.0 C 1770.0 1261.9, 1879.1 1172.5, 1719.8 1369.8 C 1560.6 1567.2, 1597.5 1395.7, 1339.9 1471.0 C 1082.2 1546.4, 1264.4 1648.5, 1006.8 1573.1 C 749.2 1497.8, 808.9 1569.4, 649.6 1372.1 C 490.4 1174.8, 518.9 1261.9, 518.9 1018.0 C 518.9 774.1, 557.9 909.7, 717.1 712.3 C 876.4 515.0, 717.7 515.1, 975.4 439.8 C 1233.0 364.4, 1118.4 424.1, 1376.0 499.4 C 1633.6 574.8, 1487.6 509.2, 1646.8 706.5 C 1806.0 903.9, 1770.0 774.1, 1770.0 1018.0 Z" fill="#4ECAD1" opacity="0.12" stroke="#4ECAD1" stroke-opacity="0.46" stroke-width="3" filter="url(#soft_coach_10_5941)"/>
  <path d="M 1770.0 1018.0 C 1770.0 1261.9, 1879.1 1172.5, 1719.8 1369.8 C 1560.6 1567.2, 1597.5 1395.7, 1339.9 1471.0 C 1082.2 1546.4, 1264.4 1648.5, 1006.8 1573.1 C 749.2 1497.8, 808.9 1569.4, 649.6 1372.1 C 490.4 1174.8, 518.9 1261.9, 518.9 1018.0 C 518.9 774.1, 557.9 909.7, 717.1 712.3 C 876.4 515.0, 717.7 515.1, 975.4 439.8 C 1233.0 364.4, 1118.4 424.1, 1376.0 499.4 C 1633.6 574.8, 1487.6 509.2, 1646.8 706.5 C 1806.0 903.9, 1770.0 774.1, 1770.0 1018.0 Z" fill="none" stroke="#FFFFFF" stroke-opacity="0.22" stroke-width="1.2"/>
  <path d="M 1130.6 -141.0 C 1130.6 144.8, 1139.2 -6.9, 954.0 224.3 C 768.9 455.5, 955.4 403.2, 655.8 491.5 C 356.2 579.8, 505.7 487.7, 206.2 399.4 C -93.4 311.1, 95.1 436.0, -90.0 204.8 C -275.2 -26.4, -178.8 144.8, -178.8 -141.0 C -178.8 -426.7, -287.1 -258.5, -101.9 -489.7 C 83.2 -720.8, -95.8 -632.3, 203.8 -720.6 C 503.4 -808.9, 368.6 -914.6, 668.2 -826.3 C 967.7 -738.0, 849.5 -700.6, 1034.7 -469.4 C 1219.8 -238.2, 1130.6 -426.8, 1130.6 -141.0 Z" fill="#86A8FF" opacity="0.12" stroke="#FFFFFF" stroke-opacity="0.46" stroke-width="3" filter="url(#soft_coach_10_5941)"/>
  <path d="M 1130.6 -141.0 C 1130.6 144.8, 1139.2 -6.9, 954.0 224.3 C 768.9 455.5, 955.4 403.2, 655.8 491.5 C 356.2 579.8, 505.7 487.7, 206.2 399.4 C -93.4 311.1, 95.1 436.0, -90.0 204.8 C -275.2 -26.4, -178.8 144.8, -178.8 -141.0 C -178.8 -426.7, -287.1 -258.5, -101.9 -489.7 C 83.2 -720.8, -95.8 -632.3, 203.8 -720.6 C 503.4 -808.9, 368.6 -914.6, 668.2 -826.3 C 967.7 -738.0, 849.5 -700.6, 1034.7 -469.4 C 1219.8 -238.2, 1130.6 -426.8, 1130.6 -141.0 Z" fill="none" stroke="#FFFFFF" stroke-opacity="0.22" stroke-width="1.2"/>
  <path d="M -100.0 2553.4 Q 133.3 2214.6, 366.7 2031.1 Q 600.0 2030.0, 833.3 2368.7 Q 1066.7 2574.8, 1300.0 2423.2" fill="none" stroke="#FFFFFF" stroke-opacity="0.38" stroke-width="4" filter="url(#soft_coach_10_5941)"/>
  <path d="M -100.0 2553.4 Q 133.3 2214.6, 366.7 2031.1 Q 600.0 2030.0, 833.3 2368.7 Q 1066.7 2574.8, 1300.0 2423.2" fill="none" stroke="#B891FF" stroke-opacity="0.18" stroke-width="2"/>
  <path d="M -100.0 969.1 Q 133.3 983.7, 366.7 969.6 Q 600.0 794.6, 833.3 681.2 Q 1066.7 573.8, 1300.0 522.7" fill="none" stroke="#FFFFFF" stroke-opacity="0.38" stroke-width="4" filter="url(#soft_coach_10_5941)"/>
  <path d="M -100.0 969.1 Q 133.3 983.7, 366.7 969.6 Q 600.0 794.6, 833.3 681.2 Q 1066.7 573.8, 1300.0 522.7" fill="none" stroke="#86A8FF" stroke-opacity="0.18" stroke-width="2"/>
  <path d="M -100.0 1781.6 Q 133.3 1714.9, 366.7 1621.4 Q 600.0 1690.3, 833.3 1932.7 Q 1066.7 1951.2, 1300.0 1964.1" fill="none" stroke="#FFFFFF" stroke-opacity="0.38" stroke-width="4" filter="url(#soft_coach_10_5941)"/>
  <path d="M -100.0 1781.6 Q 133.3 1714.9, 366.7 1621.4 Q 600.0 1690.3, 833.3 1932.7 Q 1066.7 1951.2, 1300.0 1964.1" fill="none" stroke="#86A8FF" stroke-opacity="0.18" stroke-width="2"/>
  <path d="M -100.0 660.0 Q 133.3 877.1, 366.7 886.6 Q 600.0 584.7, 833.3 781.7 Q 1066.7 919.4, 1300.0 842.0" fill="none" stroke="#FFFFFF" stroke-opacity="0.38" stroke-width="4" filter="url(#soft_coach_10_5941)"/>
  <path d="M -100.0 660.0 Q 133.3 877.1, 366.7 886.6 Q 600.0 584.7, 833.3 781.7 Q 1066.7 919.4, 1300.0 842.0" fill="none" stroke="#86A8FF" stroke-opacity="0.18" stroke-width="2"/>
  <path d="M -100.0 2582.8 Q 133.3 2931.0, 366.7 3054.4 Q 600.0 2790.7, 833.3 2600.8 Q 1066.7 2464.7, 1300.0 2402.1" fill="none" stroke="#FFFFFF" stroke-opacity="0.38" stroke-width="4" filter="url(#soft_coach_10_5941)"/>
  <path d="M -100.0 2582.8 Q 133.3 2931.0, 366.7 3054.4 Q 600.0 2790.7, 833.3 2600.8 Q 1066.7 2464.7, 1300.0 2402.1" fill="none" stroke="#4ECAD1" stroke-opacity="0.18" stroke-width="2"/>
  <path d="M -100.0 1993.7 Q 133.3 2479.0, 366.7 2759.4 Q 600.0 2466.7, 833.3 2006.5 Q 1066.7 2084.7, 1300.0 2620.9" fill="none" stroke="#FFFFFF" stroke-opacity="0.38" stroke-width="4" filter="url(#soft_coach_10_5941)"/>
  <path d="M -100.0 1993.7 Q 133.3 2479.0, 366.7 2759.4 Q 600.0 2466.7, 833.3 2006.5 Q 1066.7 2084.7, 1300.0 2620.9" fill="none" stroke="#B891FF" stroke-opacity="0.18" stroke-width="2"/>
  <circle cx="1052" cy="777" r="171" fill="url(#orb_coach_10_5941)" opacity="0.36"/>
  <circle cx="1052" cy="777" r="171" fill="#B891FF" opacity="0.08"/>
  <circle cx="1052" cy="777" r="171" fill="none" stroke="#FFFFFF" stroke-opacity="0.56" stroke-width="3"/>
  <ellipse cx="1004.1" cy="715.4" rx="30.8" ry="13.7" fill="#FFFFFF" opacity="0.42" transform="rotate(-22 1004.1 715.4)"/>
  <circle cx="808" cy="2140" r="185" fill="url(#orb_coach_10_5941)" opacity="0.36"/>
  <circle cx="808" cy="2140" r="185" fill="#B891FF" opacity="0.08"/>
  <circle cx="808" cy="2140" r="185" fill="none" stroke="#FFFFFF" stroke-opacity="0.56" stroke-width="3"/>
  <ellipse cx="756.2" cy="2073.4" rx="33.3" ry="14.8" fill="#FFFFFF" opacity="0.42" transform="rotate(-22 756.2 2073.4)"/>
  <circle cx="427" cy="2490" r="194" fill="url(#orb_coach_10_5941)" opacity="0.36"/>
  <circle cx="427" cy="2490" r="194" fill="#CCF7ED" opacity="0.08"/>
  <circle cx="427" cy="2490" r="194" fill="none" stroke="#FFFFFF" stroke-opacity="0.56" stroke-width="3"/>
  <ellipse cx="372.7" cy="2420.2" rx="34.9" ry="15.5" fill="#FFFFFF" opacity="0.42" transform="rotate(-22 372.7 2420.2)"/>
  <circle cx="207" cy="1365" r="140" fill="url(#orb_coach_10_5941)" opacity="0.21"/>
  <circle cx="207" cy="1365" r="140" fill="#B891FF" opacity="0.08"/>
  <circle cx="207" cy="1365" r="140" fill="none" stroke="#FFFFFF" stroke-opacity="0.56" stroke-width="3"/>
  <ellipse cx="167.8" cy="1314.6" rx="25.2" ry="11.2" fill="#FFFFFF" opacity="0.42" transform="rotate(-22 167.8 1314.6)"/>
  <circle cx="884" cy="2437" r="83" fill="url(#orb_coach_10_5941)" opacity="0.25"/>
  <circle cx="884" cy="2437" r="83" fill="#86A8FF" opacity="0.08"/>
  <circle cx="884" cy="2437" r="83" fill="none" stroke="#FFFFFF" stroke-opacity="0.56" stroke-width="3"/>
  <ellipse cx="860.8" cy="2407.1" rx="14.9" ry="6.6" fill="#FFFFFF" opacity="0.42" transform="rotate(-22 860.8 2407.1)"/>
  <circle cx="551" cy="2596" r="115" fill="url(#orb_coach_10_5941)" opacity="0.24"/>
  <circle cx="551" cy="2596" r="115" fill="#CCF7ED" opacity="0.08"/>
  <circle cx="551" cy="2596" r="115" fill="none" stroke="#FFFFFF" stroke-opacity="0.56" stroke-width="3"/>
  <ellipse cx="518.8" cy="2554.6" rx="20.7" ry="9.2" fill="#FFFFFF" opacity="0.42" transform="rotate(-22 518.8 2554.6)"/>
  <circle cx="-68" cy="46" r="110" fill="url(#orb_coach_10_5941)" opacity="0.23"/>
  <circle cx="-68" cy="46" r="110" fill="#E3E0FF" opacity="0.08"/>
  <circle cx="-68" cy="46" r="110" fill="none" stroke="#FFFFFF" stroke-opacity="0.56" stroke-width="3"/>
  <ellipse cx="-98.8" cy="6.4" rx="19.8" ry="8.8" fill="#FFFFFF" opacity="0.42" transform="rotate(-22 -98.8 6.4)"/>
  <circle cx="516" cy="1445" r="220" fill="url(#orb_coach_10_5941)" opacity="0.19"/>
  <circle cx="516" cy="1445" r="220" fill="#CFF3FF" opacity="0.08"/>
  <circle cx="516" cy="1445" r="220" fill="none" stroke="#FFFFFF" stroke-opacity="0.56" stroke-width="3"/>
  <ellipse cx="454.4" cy="1365.8" rx="39.6" ry="17.6" fill="#FFFFFF" opacity="0.42" transform="rotate(-22 454.4 1365.8)"/>
  <circle cx="563" cy="144" r="151" fill="url(#orb_coach_10_5941)" opacity="0.18"/>
  <circle cx="563" cy="144" r="151" fill="#B4E6F8" opacity="0.08"/>
  <circle cx="563" cy="144" r="151" fill="none" stroke="#FFFFFF" stroke-opacity="0.56" stroke-width="3"/>
  <ellipse cx="520.7" cy="89.6" rx="27.2" ry="12.1" fill="#FFFFFF" opacity="0.42" transform="rotate(-22 520.7 89.6)"/>
  <circle cx="730" cy="1630" r="276" fill="url(#orb_coach_10_5941)" opacity="0.23"/>
  <circle cx="730" cy="1630" r="276" fill="#4ECAD1" opacity="0.08"/>
  <circle cx="730" cy="1630" r="276" fill="none" stroke="#FFFFFF" stroke-opacity="0.56" stroke-width="3"/>
  <ellipse cx="652.7" cy="1530.6" rx="49.7" ry="22.1" fill="#FFFFFF" opacity="0.42" transform="rotate(-22 652.7 1530.6)"/>
  <circle cx="449" cy="252" r="2" fill="#FFFFFF" opacity="0.57"/>
  <circle cx="688" cy="2296" r="4" fill="#FFFFFF" opacity="0.43"/>
  <circle cx="941" cy="887" r="7" fill="#FFFFFF" opacity="0.66"/>
  <circle cx="652" cy="2370" r="3" fill="#FFFFFF" opacity="0.31"/>
  <circle cx="1190" cy="2269" r="3" fill="#FFFFFF" opacity="0.71"/>
  <circle cx="298" cy="457" r="4" fill="#FFFFFF" opacity="0.65"/>
  <circle cx="1015" cy="1484" r="2" fill="#FFFFFF" opacity="0.50"/>
  <circle cx="82" cy="1859" r="7" fill="#FFFFFF" opacity="0.66"/>
  <circle cx="548" cy="2226" r="4" fill="#FFFFFF" opacity="0.71"/>
  <circle cx="226" cy="682" r="3" fill="#FFFFFF" opacity="0.67"/>
  <circle cx="663" cy="411" r="2" fill="#FFFFFF" opacity="0.61"/>
  <circle cx="652" cy="2479" r="5" fill="#FFFFFF" opacity="0.52"/>
  <circle cx="726" cy="2235" r="7" fill="#FFFFFF" opacity="0.65"/>
  <circle cx="1175" cy="66" r="2" fill="#FFFFFF" opacity="0.33"/>
  <circle cx="404" cy="393" r="2" fill="#FFFFFF" opacity="0.30"/>
  <circle cx="19" cy="2006" r="4" fill="#FFFFFF" opacity="0.57"/>
  <circle cx="249" cy="1319" r="3" fill="#FFFFFF" opacity="0.48"/>
  <circle cx="778" cy="981" r="2" fill="#FFFFFF" opacity="0.42"/>
  <circle cx="555" cy="1031" r="5" fill="#FFFFFF" opacity="0.43"/>
  <circle cx="532" cy="1136" r="7" fill="#FFFFFF" opacity="0.54"/>
  <circle cx="300" cy="579" r="5" fill="#FFFFFF" opacity="0.62"/>
  <circle cx="149" cy="238" r="2" fill="#FFFFFF" opacity="0.58"/>
  <rect width="1200" height="2600" fill="#FFFFFF" opacity="0.08"/>
  <rect width="1200" height="2600" filter="url(#grain_coach_10_5941)" opacity="0.7"/>
</svg>
