<svg xmlns="http://www.w3.org/2000/svg" width="1200" height="2600" viewBox="0 0 1200 2600" preserveAspectRatio="xMidYMid slice">
  <defs>
    <linearGradient id="bg_crm_18_3718" x1="0" y1="0" x2="1" y2="1">
      <stop offset="0%" stop-color="#F6F7FF"/>
      <stop offset="48%" stop-color="#FBFFFF"/>
      <stop offset="100%" stop-color="#E9FFF1"/>
    </linearGradient>
    <radialGradient id="orb_crm_18_3718" cx="35%" cy="30%" r="70%">
      <stop offset="0%" stop-color="#FFFFFF" stop-opacity="0.85"/>
      <stop offset="42%" stop-color="#FFFFFF" stop-opacity="0.20"/>
      <stop offset="100%" stop-color="#FFFFFF" stop-opacity="0.02"/>
    </radialGradient>
    <filter id="blur_crm_18_3718" x="-30%" y="-30%" width="160%" height="160%">
      <feGaussianBlur stdDeviation="72"/>
    </filter>
    <filter id="soft_crm_18_3718" x="-20%" y="-20%" width="140%" height="140%">
      <feGaussianBlur stdDeviation="10"/>
    </filter>
    <filter id="grain_crm_18_3718">
      <feTurbulence type="fractalNoise" baseFrequency="0.85" numOctaves="2" stitchTiles="stitch"/>
      <feColorMatrix type="saturate" values="0"/>
      <feComponentTransfer>
        <feFuncA type="table" tableValues="0 0.035"/>
      </feComponentTransfer>
    </filter>
  </defs>
  <rect width="1200" height="2600" fill="url(#bg_crm_18_3718)"/>
  <path d="M 1732.6 123.0 C 1732.6 315.6, 1735.5 220.5, 1573.8 368.0 C 1412.1 515.6, 1544.4 534.7, 1296.7 568.1 C 1049.0 601.6, 1122.9 540.4, 905.0 444.1 C 687.2 347.8, 773.3 431.2, 687.3 250.2 C 601.3 69.3, 548.7 180.4, 634.7 -0.6 C 720.7 -181.6, 690.4 -154.1, 908.2 -250.4 C 1126.1 -346.7, 1058.7 -284.4, 1306.4 -250.9 C 1554.1 -217.5, 1458.0 -326.5, 1619.7 -179.0 C 1781.4 -31.4, 1732.6 -69.6, 1732.6 123.0 Z" fill="#9EE2C2" opacity="0.29" filter="url(#blur_crm_18_3718)"/>
  <path d="M 403.9 2695.0 C 403.9 2958.7, 423.5 2875.5, 335.3 3077.5 C 247.1 3279.5, 282.4 3225.3, 147.2 3271.1 C 12.1 3316.9, 40.0 3377.0, -78.8 3245.2 C -197.7 3113.3, -105.2 3139.6, -152.1 2891.8 C -199.1 2644.0, -220.5 2734.7, -173.6 2486.9 C -126.6 2239.1, -177.2 2331.4, -58.3 2199.6 C 60.5 2067.7, 8.1 1971.0, 143.3 2016.8 C 278.4 2062.6, 260.8 2108.2, 349.0 2310.2 C 437.2 2512.2, 403.9 2431.3, 403.9 2695.0 Z" fill="#FBFFFF" opacity="0.19" filter="url(#blur_crm_18_3718)"/>
  <path d="M 1833.9 1542.0 C 1833.9 1708.5, 1857.3 1659.9, 1726.3 1787.4 C 1595.3 1915.0, 1648.5 1929.2, 1447.7 1958.1 C 1247.0 1987.0, 1298.4 1967.1, 1121.9 1883.9 C 945.3 1800.6, 1036.3 1819.3, 966.6 1662.9 C 896.9 1506.4, 921.0 1591.0, 990.7 1434.5 C 1060.4 1278.1, 993.7 1296.9, 1170.2 1213.7 C 1346.7 1130.4, 1249.8 1149.2, 1450.6 1178.1 C 1651.3 1207.0, 1553.4 1190.3, 1684.4 1317.8 C 1815.5 1445.4, 1833.9 1375.5, 1833.9 1542.0 Z" fill="#E9FFF1" opacity="0.28" filter="url(#blur_crm_18_3718)"/>
  <path d="M 1318.3 58.0 C 1318.3 206.1, 1295.8 129.6, 1168.5 243.0 C 1041.2 356.4, 1124.2 311.3, 929.2 337.0 C 734.2 362.7, 775.3 367.5, 603.8 293.5 C 432.3 219.4, 446.6 293.1, 378.8 154.0 C 311.1 14.9, 392.6 97.1, 460.3 -42.0 C 528.0 -181.2, 455.7 -143.6, 627.2 -217.6 C 798.7 -291.6, 727.9 -312.2, 922.9 -286.5 C 1117.9 -260.8, 1102.9 -243.4, 1230.1 -130.0 C 1357.4 -16.5, 1318.3 -90.1, 1318.3 58.0 Z" fill="#FBFFFF" opacity="0.33" filter="url(#blur_crm_18_3718)"/>
  <path d="M 1893.2 2538.0 C 1893.2 2852.1, 1848.2 2680.0, 1692.8 2920.6 C 1537.5 3161.3, 1629.2 3163.5, 1391.2 3218.0 C 1153.3 3272.5, 1243.4 3293.5, 1034.1 3136.5 C 824.8 2979.4, 950.3 3069.9, 867.7 2774.8 C 785.0 2479.6, 648.6 2556.7, 731.3 2261.6 C 813.9 1966.4, 811.5 2154.4, 1020.8 1997.3 C 1230.1 1840.3, 1138.2 1751.3, 1376.2 1805.9 C 1614.2 1860.4, 1571.1 1782.7, 1726.4 2023.3 C 1881.7 2263.9, 1893.2 2223.9, 1893.2 2538.0 Z" fill="#D5F4FF" opacity="0.19" filter="url(#blur_crm_18_3718)"/>
  <path d="M 750.9 1157.0 C 750.9 1406.3, 733.3 1369.7, 585.5 1560.6 C 437.7 1751.6, 560.5 1737.0, 334.0 1780.2 C 107.5 1823.5, 178.9 1824.7, -20.3 1700.0 C -219.4 1575.4, -79.8 1582.2, -158.4 1348.0 C -237.1 1113.7, -330.5 1216.6, -251.8 982.4 C -173.2 748.1, -238.7 728.6, -39.6 603.9 C 159.6 479.3, 104.0 502.4, 330.5 545.7 C 556.9 589.0, 437.6 624.4, 585.4 815.4 C 733.2 1006.3, 750.9 907.7, 750.9 1157.0 Z" fill="#D5F4FF" opacity="0.37" filter="url(#blur_crm_18_3718)"/>
  <path d="M 873.6 1665.0 C 873.6 1927.3, 951.2 1795.9, 800.2 1996.9 C 649.2 2197.8, 699.1 2232.4, 467.8 2277.9 C 236.5 2323.5, 301.7 2370.6, 98.3 2239.4 C -105.1 2108.2, -32.3 2080.4, -112.6 1833.9 C -192.9 1587.3, -258.2 1747.7, -177.9 1501.2 C -97.6 1254.6, -73.6 1317.8, 129.8 1186.6 C 333.3 1055.5, 230.7 945.0, 462.0 990.6 C 693.4 1036.1, 603.9 1098.3, 754.9 1299.2 C 905.8 1500.2, 873.6 1402.7, 873.6 1665.0 Z" fill="#FBFFFF" opacity="0.29" filter="url(#blur_crm_18_3718)"/>
  <path d="M 932.5 1283.0 C 932.5 1578.7, 993.9 1484.2, 918.4 1710.6 C 842.9 1937.1, 862.1 1974.4, 746.5 2025.8 C 630.8 2077.1, 661.8 2088.0, 560.1 1940.2 C 458.4 1792.4, 467.5 1798.7, 427.4 1520.8 C 387.2 1243.0, 381.3 1346.3, 421.5 1068.5 C 461.6 790.7, 448.4 788.9, 550.1 641.0 C 651.8 493.2, 637.8 692.8, 753.4 744.1 C 869.1 795.5, 792.5 592.7, 868.0 819.2 C 943.5 1045.7, 932.5 987.3, 932.5 1283.0 Z" fill="#E8FAFF" opacity="0.28" filter="url(#blur_crm_18_3718)"/>
  <path d="M 647.7 1013.0 C 647.7 1149.3, 734.1 1097.6, 615.8 1202.0 C 497.5 1306.5, 570.7 1341.0, 389.4 1364.6 C 208.2 1388.3, 296.5 1355.8, 137.1 1287.6 C -22.3 1219.4, -29.6 1236.7, -92.6 1108.5 C -155.5 980.4, -195.8 1026.4, -132.8 898.2 C -69.9 770.1, -78.2 857.2, 81.2 789.0 C 240.6 720.8, 211.0 722.8, 392.3 746.5 C 573.5 770.1, 487.8 746.9, 606.1 851.4 C 724.4 955.8, 647.7 876.6, 647.7 1013.0 Z" fill="#D5F4FF" opacity="0.36" filter="url(#blur_crm_18_3718)"/>
  <path d="M 842.6 543.0 C 842.6 780.6, 835.5 663.9, 678.8 845.9 C 522.0 1028.0, 643.0 957.2, 402.9 998.5 C 162.7 1039.8, 261.7 1059.3, 50.5 940.5 C -160.7 821.7, -104.7 920.7, -188.1 697.4 C -271.5 474.2, -335.7 561.7, -252.2 338.4 C -168.8 115.2, -142.3 141.0, 68.9 22.2 C 280.2 -96.6, 141.6 -10.9, 381.8 30.4 C 622.0 71.7, 507.7 -38.5, 664.5 143.5 C 821.2 325.5, 842.6 305.4, 842.6 543.0 Z" fill="#A7CCFF" opacity="0.24" filter="url(#blur_crm_18_3718)"/>
  <path d="M 708.2 841.0 C 708.2 1008.0, 757.9 967.7, 671.4 1095.6 C 585.0 1223.5, 616.9 1208.5, 484.4 1237.5 C 351.9 1266.5, 411.4 1189.3, 294.9 1105.8 C 178.3 1022.4, 212.2 1132.1, 166.1 975.3 C 120.1 818.4, 107.5 893.3, 153.5 736.4 C 199.5 579.5, 150.0 649.7, 266.6 566.2 C 383.1 482.7, 358.1 441.4, 490.6 470.3 C 623.1 499.3, 610.4 438.2, 696.9 566.1 C 783.4 694.0, 708.2 674.0, 708.2 841.0 Z" fill="#9EE2C2" opacity="0.19" filter="url(#blur_crm_18_3718)"/>
  <path d="M 1883.2 2435.0 C 1883.2 2688.8, 1887.7 2627.6, 1728.6 2822.0 C 1569.5 3016.4, 1593.9 2940.6, 1350.2 2984.7 C 1106.4 3028.7, 1173.2 2993.5, 958.8 2866.6 C 744.5 2739.7, 723.2 2883.0, 638.5 2644.5 C 553.9 2406.0, 572.5 2490.0, 657.1 2251.5 C 741.8 2013.0, 770.0 2050.1, 984.4 1923.2 C 1198.7 1796.3, 1092.8 1822.3, 1336.6 1866.3 C 1580.3 1910.4, 1551.1 1824.3, 1710.2 2018.7 C 1869.3 2213.1, 1883.2 2181.2, 1883.2 2435.0 Z" fill="#9EE2C2" opacity="0.25" filter="url(#blur_crm_18_3718)"/>
  <path d="M 964.4 1594.0 C 964.4 1728.1, 922.8 1699.4, 775.0 1802.1 C 627.2 1904.8, 723.3 1864.9, 496.8 1888.2 C 270.4 1911.5, 394.3 1950.6, 195.2 1883.5 C -4.0 1816.5, 49.5 1832.3, -29.2 1706.3 C -107.8 1580.2, -206.7 1624.7, -128.1 1498.7 C -49.4 1372.7, -84.8 1402.9, 114.4 1335.8 C 313.5 1268.8, 257.7 1314.9, 484.2 1338.2 C 710.6 1361.5, 681.7 1266.1, 829.5 1368.8 C 977.3 1471.6, 964.4 1459.9, 964.4 1594.0 Z" fill="#FBFFFF" opacity="0.28" filter="url(#blur_crm_18_3718)"/>
  <path d="M 990.6 242.0 C 990.6 515.2, 1052.5 424.5, 904.7 645.5 C 756.8 866.5, 927.9 703.9, 688.7 788.3 C 449.4 872.7, 552.1 912.9, 312.9 828.5 C 73.7 744.1, 231.9 859.7, 84.1 638.7 C -63.8 417.7, -30.5 515.2, -30.5 242.0 C -30.5 -31.1, -117.0 113.2, 30.9 -107.7 C 178.7 -328.7, 101.9 -316.3, 341.1 -400.7 C 580.3 -485.2, 420.0 -384.7, 659.3 -300.3 C 898.5 -215.9, 866.7 -380.1, 1014.5 -159.2 C 1162.4 61.8, 990.6 -31.2, 990.6 242.0 Z" fill="#A7CCFF" opacity="0.12" stroke="#A7CCFF" stroke-opacity="0.46" stroke-width="3" filter="url(#soft_crm_18_3718)"/>
  <path d="M 990.6 242.0 C 990.6 515.2, 1052.5 424.5, 904.7 645.5 C 756.8 866.5, 927.9 703.9, 688.7 788.3 C 449.4 872.7, 552.1 912.9, 312.9 828.5 C 73.7 744.1, 231.9 859.7, 84.1 638.7 C -63.8 417.7, -30.5 515.2, -30.5 242.0 C -30.5 -31.1, -117.0 113.2, 30.9 -107.7 C 178.7 -328.7, 101.9 -316.3, 341.1 -400.7 C 580.3 -485.2, 420.0 -384.7, 659.3 -300.3 C 898.5 -215.9, 866.7 -380.1, 1014.5 -159.2 C 1162.4 61.8, 990.6 -31.2, 990.6 242.0 Z" fill="none" stroke="#FFFFFF" stroke-opacity="0.22" stroke-width="1.2"/>
  <path d="M 1715.4 3.0 C 1715.4 284.2, 1737.3 122.6, 1621.2 350.2 C 1505.1 577.7, 1598.9 442.6, 1411.0 529.5 C 1223.1 616.4, 1321.6 736.7, 1133.7 649.8 C 945.8 562.9, 1065.7 586.8, 949.6 359.3 C 833.5 131.7, 835.3 284.3, 835.3 3.0 C 835.3 -278.2, 799.4 -117.4, 915.5 -345.0 C 1031.6 -572.5, 965.5 -494.0, 1153.4 -580.9 C 1341.3 -667.8, 1216.9 -663.7, 1404.8 -576.8 C 1592.7 -489.9, 1554.5 -575.6, 1670.7 -348.1 C 1786.8 -120.6, 1715.4 -278.2, 1715.4 3.0 Z" fill="#FBFFFF" opacity="0.12" stroke="#FFFFFF" stroke-opacity="0.46" stroke-width="3" filter="url(#soft_crm_18_3718)"/>
  <path d="M 1715.4 3.0 C 1715.4 284.2, 1737.3 122.6, 1621.2 350.2 C 1505.1 577.7, 1598.9 442.6, 1411.0 529.5 C 1223.1 616.4, 1321.6 736.7, 1133.7 649.8 C 945.8 562.9, 1065.7 586.8, 949.6 359.3 C 833.5 131.7, 835.3 284.3, 835.3 3.0 C 835.3 -278.2, 799.4 -117.4, 915.5 -345.0 C 1031.6 -572.5, 965.5 -494.0, 1153.4 -580.9 C 1341.3 -667.8, 1216.9 -663.7, 1404.8 -576.8 C 1592.7 -489.9, 1554.5 -575.6, 1670.7 -348.1 C 1786.8 -120.6, 1715.4 -278.2, 1715.4 3.0 Z" fill="none" stroke="#FFFFFF" stroke-opacity="0.22" stroke-width="1.2"/>
  <path d="M 976.2 1224.0 C 976.2 1598.4, 1150.5 1463.0, 972.8 1765.9 C 795.0 2068.8, 896.1 1853.7, 608.5 1969.4 C 320.9 2085.1, 456.4 2230.0, 168.8 2114.3 C -118.8 1998.6, -9.3 1993.9, -187.1 1691.0 C -364.8 1388.1, -308.3 1598.4, -308.3 1224.0 C -308.3 849.6, -252.3 1099.9, -74.6 797.0 C 103.2 494.1, -110.2 494.9, 177.4 379.2 C 465.0 263.5, 318.3 414.7, 605.9 530.4 C 893.5 646.1, 757.9 489.3, 935.7 792.2 C 1113.4 1095.1, 976.2 849.6, 976.2 1224.0 Z" fill="#6DB6CF" opacity="0.12" stroke="#FFFFFF" stroke-opacity="0.46" stroke-width="3" filter="url(#soft_crm_18_3718)"/>
  <path d="M 976.2 1224.0 C 976.2 1598.4, 1150.5 1463.0, 972.8 1765.9 C 795.0 2068.8, 896.1 1853.7, 608.5 1969.4 C 320.9 2085.1, 456.4 2230.0, 168.8 2114.3 C -118.8 1998.6, -9.3 1993.9, -187.1 1691.0 C -364.8 1388.1, -308.3 1598.4, -308.3 1224.0 C -308.3 849.6, -252.3 1099.9, -74.6 797.0 C 103.2 494.1, -110.2 494.9, 177.4 379.2 C 465.0 263.5, 318.3 414.7, 605.9 530.4 C 893.5 646.1, 757.9 489.3, 935.7 792.2 C 1113.4 1095.1, 976.2 849.6, 976.2 1224.0 Z" fill="none" stroke="#FFFFFF" stroke-opacity="0.22" stroke-width="1.2"/>
  <path d="M 1535.3 -236.0 C 1535.3 120.4, 1584.4 -53.5, 1424.4 234.8 C 1264.4 523.2, 1419.6 414.7, 1160.7 524.9 C 901.7 635.0, 1016.1 525.3, 757.1 415.2 C 498.2 305.0, 611.8 487.2, 451.8 198.8 C 291.7 -89.5, 330.7 120.4, 330.7 -236.0 C 330.7 -592.4, 302.0 -385.6, 462.0 -673.9 C 622.0 -962.2, 510.4 -786.4, 769.3 -896.5 C 1028.2 -1006.6, 868.1 -1063.9, 1127.1 -953.8 C 1386.0 -843.7, 1278.0 -975.1, 1438.0 -686.7 C 1598.0 -398.4, 1535.3 -592.4, 1535.3 -236.0 Z" fill="#E9FFF1" opacity="0.12" stroke="#E9FFF1" stroke-opacity="0.46" stroke-width="3" filter="url(#soft_crm_18_3718)"/>
  <path d="M 1535.3 -236.0 C 1535.3 120.4, 1584.4 -53.5, 1424.4 234.8 C 1264.4 523.2, 1419.6 414.7, 1160.7 524.9 C 901.7 635.0, 1016.1 525.3, 757.1 415.2 C 498.2 305.0, 611.8 487.2, 451.8 198.8 C 291.7 -89.5, 330.7 120.4, 330.7 -236.0 C 330.7 -592.4, 302.0 -385.6, 462.0 -673.9 C 622.0 -962.2, 510.4 -786.4, 769.3 -896.5 C 1028.2 -1006.6, 868.1 -1063.9, 1127.1 -953.8 C 1386.0 -843.7, 1278.0 -975.1, 1438.0 -686.7 C 1598.0 -398.4, 1535.3 -592.4, 1535.3 -236.0 Z" fill="none" stroke="#FFFFFF" stroke-opacity="0.22" stroke-width="1.2"/>
  <path d="M -100.0 1112.5 Q 133.3 1421.8, 366.7 1279.2 Q 600.0 1079.5, 833.3 1024.7 Q 1066.7 1288.0, 1300.0 1359.9" fill="none" stroke="#FFFFFF" stroke-opacity="0.38" stroke-width="4" filter="url(#soft_crm_18_3718)"/>
  <path d="M -100.0 1112.5 Q 133.3 1421.8, 366.7 1279.2 Q 600.0 1079.5, 833.3 1024.7 Q 1066.7 1288.0, 1300.0 1359.9" fill="none" stroke="#A7CCFF" stroke-opacity="0.18" stroke-width="2"/>
  <path d="M -100.0 1364.8 Q 133.3 1225.7, 366.7 981.3 Q 600.0 669.0, 833.3 747.4 Q 1066.7 1141.4, 1300.0 1293.5" fill="none" stroke="#FFFFFF" stroke-opacity="0.38" stroke-width="4" filter="url(#soft_crm_18_3718)"/>
  <path d="M -100.0 1364.8 Q 133.3 1225.7, 366.7 981.3 Q 600.0 669.0, 833.3 747.4 Q 1066.7 1141.4, 1300.0 1293.5" fill="none" stroke="#9EE2C2" stroke-opacity="0.18" stroke-width="2"/>
  <path d="M -100.0 719.3 Q 133.3 791.5, 366.7 675.2 Q 600.0 396.6, 833.3 184.3 Q 1066.7 334.3, 1300.0 784.8" fill="none" stroke="#FFFFFF" stroke-opacity="0.38" stroke-width="4" filter="url(#soft_crm_18_3718)"/>
  <path d="M -100.0 719.3 Q 133.3 791.5, 366.7 675.2 Q 600.0 396.6, 833.3 184.3 Q 1066.7 334.3, 1300.0 784.8" fill="none" stroke="#6DB6CF" stroke-opacity="0.18" stroke-width="2"/>
  <circle cx="450" cy="2662" r="100" fill="url(#orb_crm_18_3718)" opacity="0.36"/>
  <circle cx="450" cy="2662" r="100" fill="#D5F4FF" opacity="0.08"/>
  <circle cx="450" cy="2662" r="100" fill="none" stroke="#FFFFFF" stroke-opacity="0.56" stroke-width="3"/>
  <ellipse cx="422.0" cy="2626.0" rx="18.0" ry="8.0" fill="#FFFFFF" opacity="0.42" transform="rotate(-22 422.0 2626.0)"/>
  <circle cx="197" cy="1336" r="279" fill="url(#orb_crm_18_3718)" opacity="0.36"/>
  <circle cx="197" cy="1336" r="279" fill="#E9FFF1" opacity="0.08"/>
  <circle cx="197" cy="1336" r="279" fill="none" stroke="#FFFFFF" stroke-opacity="0.56" stroke-width="3"/>
  <ellipse cx="118.9" cy="1235.6" rx="50.2" ry="22.3" fill="#FFFFFF" opacity="0.42" transform="rotate(-22 118.9 1235.6)"/>
  <circle cx="457" cy="1819" r="80" fill="url(#orb_crm_18_3718)" opacity="0.36"/>
  <circle cx="457" cy="1819" r="80" fill="#FBFFFF" opacity="0.08"/>
  <circle cx="457" cy="1819" r="80" fill="none" stroke="#FFFFFF" stroke-opacity="0.56" stroke-width="3"/>
  <ellipse cx="434.6" cy="1790.2" rx="14.4" ry="6.4" fill="#FFFFFF" opacity="0.42" transform="rotate(-22 434.6 1790.2)"/>
  <circle cx="454" cy="93" r="287" fill="url(#orb_crm_18_3718)" opacity="0.26"/>
  <circle cx="454" cy="93" r="287" fill="#A7CCFF" opacity="0.08"/>
  <circle cx="454" cy="93" r="287" fill="none" stroke="#FFFFFF" stroke-opacity="0.56" stroke-width="3"/>
  <ellipse cx="373.6" cy="-10.3" rx="51.7" ry="23.0" fill="#FFFFFF" opacity="0.42" transform="rotate(-22 373.6 -10.3)"/>
  <circle cx="-30" cy="18" r="159" fill="url(#orb_crm_18_3718)" opacity="0.21"/>
  <circle cx="-30" cy="18" r="159" fill="#F6F7FF" opacity="0.08"/>
  <circle cx="-30" cy="18" r="159" fill="none" stroke="#FFFFFF" stroke-opacity="0.56" stroke-width="3"/>
  <ellipse cx="-74.5" cy="-39.2" rx="28.6" ry="12.7" fill="#FFFFFF" opacity="0.42" transform="rotate(-22 -74.5 -39.2)"/>
  <circle cx="583" cy="-77" r="237" fill="url(#orb_crm_18_3718)" opacity="0.26"/>
  <circle cx="583" cy="-77" r="237" fill="#9EE2C2" opacity="0.08"/>
  <circle cx="583" cy="-77" r="237" fill="none" stroke="#FFFFFF" stroke-opacity="0.56" stroke-width="3"/>
  <ellipse cx="516.6" cy="-162.3" rx="42.7" ry="19.0" fill="#FFFFFF" opacity="0.42" transform="rotate(-22 516.6 -162.3)"/>
  <circle cx="457" cy="1315" r="107" fill="url(#orb_crm_18_3718)" opacity="0.20"/>
  <circle cx="457" cy="1315" r="107" fill="#9EE2C2" opacity="0.08"/>
  <circle cx="457" cy="1315" r="107" fill="none" stroke="#FFFFFF" stroke-opacity="0.56" stroke-width="3"/>
  <ellipse cx="427.0" cy="1276.5" rx="19.3" ry="8.6" fill="#FFFFFF" opacity="0.42" transform="rotate(-22 427.0 1276.5)"/>
  <circle cx="-29" cy="319" r="284" fill="url(#orb_crm_18_3718)" opacity="0.17"/>
  <circle cx="-29" cy="319" r="284" fill="#FBFFFF" opacity="0.08"/>
  <circle cx="-29" cy="319" r="284" fill="none" stroke="#FFFFFF" stroke-opacity="0.56" stroke-width="3"/>
  <ellipse cx="-108.5" cy="216.8" rx="51.1" ry="22.7" fill="#FFFFFF" opacity="0.42" transform="rotate(-22 -108.5 216.8)"/>
  <circle cx="1159" cy="1083" r="185" fill="url(#orb_crm_18_3718)" opacity="0.23"/>
  <circle cx="1159" cy="1083" r="185" fill="#FBFFFF" opacity="0.08"/>
  <circle cx="1159" cy="1083" r="185" fill="none" stroke="#FFFFFF" stroke-opacity="0.56" stroke-width="3"/>
  <ellipse cx="1107.2" cy="1016.4" rx="33.3" ry="14.8" fill="#FFFFFF" opacity="0.42" transform="rotate(-22 1107.2 1016.4)"/>
  <circle cx="328" cy="1965" r="225" fill="url(#orb_crm_18_3718)" opacity="0.22"/>
  <circle cx="328" cy="1965" r="225" fill="#D5F4FF" opacity="0.08"/>
  <circle cx="328" cy="1965" r="225" fill="none" stroke="#FFFFFF" stroke-opacity="0.56" stroke-width="3"/>
  <ellipse cx="265.0" cy="1884.0" rx="40.5" ry="18.0" fill="#FFFFFF" opacity="0.42" transform="rotate(-22 265.0 1884.0)"/>
  <circle cx="800" cy="973" r="3" fill="#FFFFFF" opacity="0.69"/>
  <circle cx="372" cy="2167" r="3" fill="#FFFFFF" opacity="0.47"/>
  <circle cx="447" cy="648" r="5" fill="#FFFFFF" opacity="0.51"/>
  <circle cx="975" cy="393" r="5" fill="#FFFFFF" opacity="0.34"/>
  <circle cx="890" cy="991" r="3" fill="#FFFFFF" opacity="0.66"/>
  <circle cx="483" cy="199" r="5" fill="#FFFFFF" opacity="0.54"/>
  <circle cx="719" cy="924" r="5" fill="#FFFFFF" opacity="0.31"/>
  <circle cx="1189" cy="1287" r="4" fill="#FFFFFF" opacity="0.36"/>
  <circle cx="338" cy="767" r="3" fill="#FFFFFF" opacity="0.38"/>
  <circle cx="658" cy="1489" r="3" fill="#FFFFFF" opacity="0.37"/>
  <circle cx="222" cy="1294" r="7" fill="#FFFFFF" opacity="0.43"/>
  <circle cx="420" cy="184" r="7" fill="#FFFFFF" opacity="0.35"/>
  <circle cx="293" cy="818" r="3" fill="#FFFFFF" opacity="0.52"/>
  <circle cx="788" cy="545" r="7" fill="#FFFFFF" opacity="0.53"/>
  <circle cx="389" cy="2156" r="4" fill="#FFFFFF" opacity="0.43"/>
  <circle cx="711" cy="899" r="5" fill="#FFFFFF" opacity="0.67"/>
  <circle cx="1197" cy="1896" r="7" fill="#FFFFFF" opacity="0.69"/>
  <circle cx="59" cy="1155" r="5" fill="#FFFFFF" opacity="0.40"/>
  <circle cx="255" cy="137" r="5" fill="#FFFFFF" opacity="0.65"/>
  <circle cx="793" cy="1827" r="4" fill="#FFFFFF" opacity="0.48"/>
  <rect width="1200" height="2600" fill="#FFFFFF" opacity="0.08"/>
  <rect width="1200" height="2600" filter="url(#grain_crm_18_3718)" opacity="0.7"/>
</svg>
