<svg xmlns="http://www.w3.org/2000/svg" width="1200" height="2600" viewBox="0 0 1200 2600" preserveAspectRatio="xMidYMid slice">
  <defs>
    <linearGradient id="bg_crm_19_4816" x1="0" y1="0" x2="1" y2="1">
      <stop offset="0%" stop-color="#E9FFF1"/>
      <stop offset="48%" stop-color="#FBFFFF"/>
      <stop offset="100%" stop-color="#D5F4FF"/>
    </linearGradient>
    <radialGradient id="orb_crm_19_4816" cx="35%" cy="30%" r="70%">
      <stop offset="0%" stop-color="#FFFFFF" stop-opacity="0.85"/>
      <stop offset="42%" stop-color="#FFFFFF" stop-opacity="0.20"/>
      <stop offset="100%" stop-color="#FFFFFF" stop-opacity="0.02"/>
    </radialGradient>
    <filter id="blur_crm_19_4816" x="-30%" y="-30%" width="160%" height="160%">
      <feGaussianBlur stdDeviation="72"/>
    </filter>
    <filter id="soft_crm_19_4816" x="-20%" y="-20%" width="140%" height="140%">
      <feGaussianBlur stdDeviation="10"/>
    </filter>
    <filter id="grain_crm_19_4816">
      <feTurbulence type="fractalNoise" baseFrequency="0.85" numOctaves="2" stitchTiles="stitch"/>
      <feColorMatrix type="saturate" values="0"/>
      <feComponentTransfer>
        <feFuncA type="table" tableValues="0 0.035"/>
      </feComponentTransfer>
    </filter>
  </defs>
  <rect width="1200" height="2600" fill="url(#bg_crm_19_4816)"/>
  <path d="M 567.8 2436.0 C 567.8 2597.1, 541.1 2534.8, 402.6 2658.3 C 264.0 2781.7, 302.1 2792.9, 89.8 2820.9 C -122.5 2848.9, -44.7 2783.6, -231.4 2703.1 C -418.1 2622.5, -292.0 2723.2, -365.7 2571.8 C -439.4 2420.4, -563.0 2464.8, -489.3 2313.4 C -415.6 2162.0, -397.5 2239.0, -210.8 2158.5 C -24.1 2077.9, -105.2 2022.1, 107.1 2050.0 C 319.4 2078.0, 314.9 2077.7, 453.4 2201.1 C 592.0 2324.5, 567.8 2274.9, 567.8 2436.0 Z" fill="#6DB6CF" opacity="0.33" filter="url(#blur_crm_19_4816)"/>
  <path d="M 280.2 2174.0 C 280.2 2478.2, 275.2 2300.2, 182.6 2533.2 C 90.0 2766.3, 117.0 2885.7, -24.8 2938.5 C -166.6 2991.3, -111.5 2999.5, -236.3 2847.4 C -361.0 2695.3, -309.4 2729.1, -358.7 2443.3 C -408.0 2157.4, -435.2 2199.6, -385.9 1913.8 C -336.7 1627.9, -342.9 1816.9, -218.2 1664.8 C -93.5 1512.7, -161.7 1377.4, -19.8 1430.2 C 122.0 1483.0, 48.8 1448.8, 141.4 1681.9 C 234.0 1914.9, 280.2 1869.8, 280.2 2174.0 Z" fill="#D5F4FF" opacity="0.32" filter="url(#blur_crm_19_4816)"/>
  <path d="M 461.5 2529.0 C 461.5 2749.5, 379.8 2682.7, 277.4 2851.7 C 175.0 3020.6, 273.3 2914.9, 116.4 2953.1 C -40.5 2991.4, 15.8 3124.1, -122.2 3013.8 C -260.1 2903.6, -237.8 2917.4, -292.3 2710.2 C -346.8 2503.0, -354.1 2570.0, -299.6 2362.8 C -245.2 2155.6, -273.7 2254.0, -135.7 2143.8 C 2.2 2033.5, -42.6 1955.8, 114.3 1994.1 C 271.2 2032.4, 174.4 2030.2, 276.8 2199.1 C 379.2 2368.0, 461.5 2308.5, 461.5 2529.0 Z" fill="#A7CCFF" opacity="0.31" filter="url(#blur_crm_19_4816)"/>
  <path d="M 1305.1 2291.0 C 1305.1 2542.1, 1372.6 2469.2, 1263.8 2661.6 C 1155.1 2854.0, 1219.7 2788.0, 1053.0 2831.6 C 886.4 2875.2, 963.6 2879.7, 817.0 2754.1 C 670.5 2628.6, 665.5 2720.1, 607.7 2484.1 C 549.8 2248.2, 605.2 2331.3, 663.1 2095.3 C 721.0 1859.4, 665.0 1922.8, 811.6 1797.3 C 958.1 1671.7, 879.6 1667.7, 1046.3 1711.3 C 1212.9 1754.9, 1172.3 1774.2, 1281.1 1966.5 C 1389.8 2158.9, 1305.1 2039.9, 1305.1 2291.0 Z" fill="#E9FFF1" opacity="0.34" filter="url(#blur_crm_19_4816)"/>
  <path d="M 597.6 1636.0 C 597.6 1788.5, 559.4 1771.9, 486.8 1888.8 C 414.2 2005.7, 476.5 1997.0, 365.3 2023.5 C 254.0 2050.0, 287.7 1970.9, 189.9 1894.6 C 92.0 1818.4, 147.5 1893.2, 108.8 1749.9 C 70.2 1606.5, 0.9 1671.1, 39.5 1527.8 C 78.2 1384.4, 79.2 1414.7, 177.0 1338.5 C 274.9 1262.2, 256.8 1247.4, 368.0 1273.9 C 479.3 1300.3, 431.5 1334.8, 504.1 1451.7 C 576.7 1568.6, 597.6 1483.5, 597.6 1636.0 Z" fill="#E9FFF1" opacity="0.26" filter="url(#blur_crm_19_4816)"/>
  <path d="M 1066.8 2268.0 C 1066.8 2419.2, 1121.7 2399.9, 973.6 2515.8 C 825.5 2631.6, 838.2 2581.9, 611.3 2608.2 C 384.4 2634.5, 444.0 2624.1, 244.5 2548.5 C 44.9 2472.9, 103.8 2517.1, 25.0 2375.1 C -53.8 2233.0, 10.5 2286.4, 89.3 2144.4 C 168.1 2002.3, 35.2 2099.3, 234.7 2023.7 C 434.3 1948.1, 399.5 1959.5, 626.4 1985.8 C 853.3 2012.0, 768.7 1963.5, 916.8 2079.3 C 1064.9 2195.1, 1066.8 2116.8, 1066.8 2268.0 Z" fill="#9EE2C2" opacity="0.34" filter="url(#blur_crm_19_4816)"/>
  <path d="M 811.8 1858.0 C 811.8 2109.6, 849.8 1991.6, 698.8 2184.3 C 547.8 2377.0, 655.1 2330.7, 423.8 2374.4 C 192.5 2418.1, 239.5 2543.2, 36.1 2417.4 C -167.3 2291.6, -130.6 2264.9, -211.0 2028.5 C -291.3 1792.1, -225.9 1927.2, -145.5 1690.8 C -65.2 1454.4, -172.5 1459.2, 31.0 1333.4 C 234.4 1207.6, 188.7 1271.0, 420.0 1314.6 C 651.3 1358.3, 615.9 1346.5, 766.9 1539.2 C 917.9 1731.9, 811.8 1606.5, 811.8 1858.0 Z" fill="#E8FAFF" opacity="0.29" filter="url(#blur_crm_19_4816)"/>
  <path d="M 622.2 993.0 C 622.2 1217.1, 687.7 1156.2, 607.9 1327.9 C 528.0 1499.5, 562.2 1376.0, 439.9 1414.9 C 317.6 1453.8, 365.8 1579.3, 258.3 1467.3 C 150.7 1355.2, 133.3 1365.4, 90.9 1154.8 C 48.4 944.3, 118.1 1004.7, 160.6 794.1 C 203.1 583.5, 143.8 745.8, 251.4 633.8 C 358.9 521.7, 316.4 472.6, 438.8 511.5 C 561.1 550.4, 494.7 496.3, 574.6 668.0 C 654.4 839.6, 622.2 768.9, 622.2 993.0 Z" fill="#FBFFFF" opacity="0.34" filter="url(#blur_crm_19_4816)"/>
  <path d="M 856.7 2165.0 C 856.7 2309.4, 978.2 2232.7, 825.8 2343.4 C 673.4 2454.0, 675.6 2499.1, 442.0 2524.1 C 208.5 2549.2, 290.5 2532.2, 85.2 2459.9 C -120.2 2387.7, -94.5 2395.1, -175.7 2259.4 C -256.8 2123.7, -272.8 2174.8, -191.7 2039.1 C -110.6 1903.4, -132.4 1929.4, 73.0 1857.1 C 278.4 1784.9, 210.9 1842.5, 444.4 1867.6 C 677.9 1892.7, 619.0 1832.3, 771.4 1942.9 C 923.8 2053.6, 856.7 2020.5, 856.7 2165.0 Z" fill="#FBFFFF" opacity="0.23" filter="url(#blur_crm_19_4816)"/>
  <path d="M 1404.3 1196.0 C 1404.3 1430.9, 1406.0 1351.3, 1310.8 1531.3 C 1215.7 1711.2, 1269.9 1656.1, 1124.1 1696.9 C 978.3 1737.7, 1030.3 1827.1, 902.1 1709.7 C 773.9 1592.2, 854.8 1593.5, 804.1 1372.8 C 753.5 1152.1, 737.4 1251.0, 788.1 1030.3 C 838.7 809.6, 757.5 919.6, 885.7 802.1 C 1013.9 684.7, 971.7 703.4, 1117.5 744.2 C 1263.3 785.0, 1237.3 678.3, 1332.5 858.2 C 1427.6 1038.2, 1404.3 961.1, 1404.3 1196.0 Z" fill="#FBFFFF" opacity="0.36" filter="url(#blur_crm_19_4816)"/>
  <path d="M 929.3 2353.0 C 929.3 2667.1, 930.7 2544.5, 853.2 2785.1 C 775.7 3025.7, 791.9 3087.2, 673.1 3141.8 C 554.4 3196.3, 584.2 3009.2, 479.8 2852.1 C 375.4 2695.1, 459.3 2849.4, 418.1 2554.2 C 376.8 2259.1, 318.7 2449.6, 359.9 2154.5 C 401.2 1859.3, 392.9 1884.3, 497.3 1727.2 C 601.8 1570.2, 554.1 1660.8, 672.9 1715.3 C 791.6 1769.9, 722.8 1636.9, 800.3 1877.5 C 877.8 2118.2, 929.3 2038.9, 929.3 2353.0 Z" fill="#9EE2C2" opacity="0.30" filter="url(#blur_crm_19_4816)"/>
  <path d="M 1748.3 2525.0 C 1748.3 2734.2, 1814.5 2644.6, 1653.4 2813.9 C 1492.3 2983.1, 1592.4 2933.6, 1331.8 2998.2 C 1071.2 3062.9, 1244.6 3073.6, 984.0 3009.0 C 723.3 2944.3, 802.4 2979.8, 641.3 2810.5 C 480.2 2641.2, 511.2 2734.2, 511.2 2525.0 C 511.2 2315.8, 478.8 2430.7, 639.9 2261.4 C 801.0 2092.1, 702.9 2102.6, 963.6 2038.0 C 1224.2 1973.3, 1108.3 2008.9, 1369.0 2073.6 C 1629.6 2138.2, 1504.2 2050.0, 1665.2 2219.2 C 1826.3 2388.5, 1748.3 2315.8, 1748.3 2525.0 Z" fill="#6DB6CF" opacity="0.12" stroke="#6DB6CF" stroke-opacity="0.46" stroke-width="3" filter="url(#soft_crm_19_4816)"/>
  <path d="M 1748.3 2525.0 C 1748.3 2734.2, 1814.5 2644.6, 1653.4 2813.9 C 1492.3 2983.1, 1592.4 2933.6, 1331.8 2998.2 C 1071.2 3062.9, 1244.6 3073.6, 984.0 3009.0 C 723.3 2944.3, 802.4 2979.8, 641.3 2810.5 C 480.2 2641.2, 511.2 2734.2, 511.2 2525.0 C 511.2 2315.8, 478.8 2430.7, 639.9 2261.4 C 801.0 2092.1, 702.9 2102.6, 963.6 2038.0 C 1224.2 1973.3, 1108.3 2008.9, 1369.0 2073.6 C 1629.6 2138.2, 1504.2 2050.0, 1665.2 2219.2 C 1826.3 2388.5, 1748.3 2315.8, 1748.3 2525.0 Z" fill="none" stroke="#FFFFFF" stroke-opacity="0.22" stroke-width="1.2"/>
  <path d="M 1641.9 378.0 C 1641.9 765.5, 1644.9 534.5, 1501.0 848.0 C 1357.1 1161.4, 1444.7 1154.2, 1211.9 1273.9 C 979.0 1393.7, 1085.2 1384.3, 852.4 1264.6 C 619.5 1144.9, 787.8 1252.5, 643.9 939.0 C 500.0 625.5, 494.6 765.5, 494.6 378.0 C 494.6 -9.4, 487.0 213.2, 630.9 -100.2 C 774.8 -413.7, 655.8 -329.7, 888.7 -449.5 C 1121.5 -569.2, 985.9 -572.9, 1218.7 -453.2 C 1451.5 -333.4, 1369.6 -496.8, 1513.5 -183.3 C 1657.3 130.1, 1641.9 -9.4, 1641.9 378.0 Z" fill="#E9FFF1" opacity="0.12" stroke="#E9FFF1" stroke-opacity="0.46" stroke-width="3" filter="url(#soft_crm_19_4816)"/>
  <path d="M 1641.9 378.0 C 1641.9 765.5, 1644.9 534.5, 1501.0 848.0 C 1357.1 1161.4, 1444.7 1154.2, 1211.9 1273.9 C 979.0 1393.7, 1085.2 1384.3, 852.4 1264.6 C 619.5 1144.9, 787.8 1252.5, 643.9 939.0 C 500.0 625.5, 494.6 765.5, 494.6 378.0 C 494.6 -9.4, 487.0 213.2, 630.9 -100.2 C 774.8 -413.7, 655.8 -329.7, 888.7 -449.5 C 1121.5 -569.2, 985.9 -572.9, 1218.7 -453.2 C 1451.5 -333.4, 1369.6 -496.8, 1513.5 -183.3 C 1657.3 130.1, 1641.9 -9.4, 1641.9 378.0 Z" fill="none" stroke="#FFFFFF" stroke-opacity="0.22" stroke-width="1.2"/>
  <path d="M 1396.0 145.0 C 1396.0 467.7, 1399.5 364.2, 1258.0 625.2 C 1116.5 886.3, 1205.1 698.9, 976.2 798.6 C 747.2 898.3, 887.8 940.8, 658.8 841.1 C 429.9 741.4, 515.7 825.6, 374.2 564.5 C 232.7 303.5, 253.6 467.7, 253.6 145.0 C 253.6 -177.6, 286.6 8.4, 428.1 -252.6 C 569.6 -513.6, 424.9 -518.4, 653.9 -618.1 C 882.8 -717.8, 748.0 -729.1, 977.0 -629.4 C 1205.9 -529.7, 1055.2 -553.0, 1196.7 -291.9 C 1338.2 -30.9, 1396.0 -177.7, 1396.0 145.0 Z" fill="#F6F7FF" opacity="0.12" stroke="#FFFFFF" stroke-opacity="0.46" stroke-width="3" filter="url(#soft_crm_19_4816)"/>
  <path d="M 1396.0 145.0 C 1396.0 467.7, 1399.5 364.2, 1258.0 625.2 C 1116.5 886.3, 1205.1 698.9, 976.2 798.6 C 747.2 898.3, 887.8 940.8, 658.8 841.1 C 429.9 741.4, 515.7 825.6, 374.2 564.5 C 232.7 303.5, 253.6 467.7, 253.6 145.0 C 253.6 -177.6, 286.6 8.4, 428.1 -252.6 C 569.6 -513.6, 424.9 -518.4, 653.9 -618.1 C 882.8 -717.8, 748.0 -729.1, 977.0 -629.4 C 1205.9 -529.7, 1055.2 -553.0, 1196.7 -291.9 C 1338.2 -30.9, 1396.0 -177.7, 1396.0 145.0 Z" fill="none" stroke="#FFFFFF" stroke-opacity="0.22" stroke-width="1.2"/>
  <path d="M 1497.9 1175.0 C 1497.9 1342.4, 1472.2 1264.8, 1387.9 1400.3 C 1303.5 1535.7, 1402.8 1512.5, 1266.3 1564.2 C 1129.8 1616.0, 1189.8 1625.3, 1053.3 1573.6 C 916.8 1521.8, 1004.1 1528.4, 919.7 1393.0 C 835.4 1257.6, 796.6 1342.4, 796.6 1175.0 C 796.6 1007.6, 799.9 1116.5, 884.3 981.1 C 968.7 845.6, 932.4 881.3, 1068.9 829.6 C 1205.4 777.9, 1110.1 762.6, 1246.6 814.3 C 1383.1 866.1, 1295.8 834.2, 1380.1 969.7 C 1464.5 1105.1, 1497.9 1007.6, 1497.9 1175.0 Z" fill="#E9FFF1" opacity="0.12" stroke="#FFFFFF" stroke-opacity="0.46" stroke-width="3" filter="url(#soft_crm_19_4816)"/>
  <path d="M 1497.9 1175.0 C 1497.9 1342.4, 1472.2 1264.8, 1387.9 1400.3 C 1303.5 1535.7, 1402.8 1512.5, 1266.3 1564.2 C 1129.8 1616.0, 1189.8 1625.3, 1053.3 1573.6 C 916.8 1521.8, 1004.1 1528.4, 919.7 1393.0 C 835.4 1257.6, 796.6 1342.4, 796.6 1175.0 C 796.6 1007.6, 799.9 1116.5, 884.3 981.1 C 968.7 845.6, 932.4 881.3, 1068.9 829.6 C 1205.4 777.9, 1110.1 762.6, 1246.6 814.3 C 1383.1 866.1, 1295.8 834.2, 1380.1 969.7 C 1464.5 1105.1, 1497.9 1007.6, 1497.9 1175.0 Z" fill="none" stroke="#FFFFFF" stroke-opacity="0.22" stroke-width="1.2"/>
  <path d="M 1330.5 259.0 C 1330.5 518.7, 1319.7 388.7, 1236.4 598.7 C 1153.1 808.8, 1200.8 750.6, 1065.9 830.8 C 931.1 911.1, 1022.9 845.4, 888.0 765.1 C 753.2 684.9, 821.3 786.2, 738.0 576.1 C 654.7 366.0, 694.4 518.7, 694.4 259.0 C 694.4 -0.6, 607.5 91.1, 690.8 -119.0 C 774.1 -329.0, 753.8 -257.1, 888.7 -337.4 C 1023.5 -417.6, 932.1 -432.1, 1066.9 -351.9 C 1201.7 -271.7, 1166.8 -315.1, 1250.1 -105.0 C 1333.5 105.0, 1330.5 -0.7, 1330.5 259.0 Z" fill="#E8FAFF" opacity="0.12" stroke="#FFFFFF" stroke-opacity="0.46" stroke-width="3" filter="url(#soft_crm_19_4816)"/>
  <path d="M 1330.5 259.0 C 1330.5 518.7, 1319.7 388.7, 1236.4 598.7 C 1153.1 808.8, 1200.8 750.6, 1065.9 830.8 C 931.1 911.1, 1022.9 845.4, 888.0 765.1 C 753.2 684.9, 821.3 786.2, 738.0 576.1 C 654.7 366.0, 694.4 518.7, 694.4 259.0 C 694.4 -0.6, 607.5 91.1, 690.8 -119.0 C 774.1 -329.0, 753.8 -257.1, 888.7 -337.4 C 1023.5 -417.6, 932.1 -432.1, 1066.9 -351.9 C 1201.7 -271.7, 1166.8 -315.1, 1250.1 -105.0 C 1333.5 105.0, 1330.5 -0.7, 1330.5 259.0 Z" fill="none" stroke="#FFFFFF" stroke-opacity="0.22" stroke-width="1.2"/>
  <path d="M -100.0 788.1 Q 133.3 1180.7, 366.7 1201.4 Q 600.0 901.3, 833.3 720.2 Q 1066.7 979.7, 1300.0 1139.9" fill="none" stroke="#FFFFFF" stroke-opacity="0.38" stroke-width="4" filter="url(#soft_crm_19_4816)"/>
  <path d="M -100.0 788.1 Q 133.3 1180.7, 366.7 1201.4 Q 600.0 901.3, 833.3 720.2 Q 1066.7 979.7, 1300.0 1139.9" fill="none" stroke="#9EE2C2" stroke-opacity="0.18" stroke-width="2"/>
  <path d="M -100.0 2605.0 Q 133.3 2327.8, 366.7 2622.9 Q 600.0 2811.0, 833.3 2501.8 Q 1066.7 2318.1, 1300.0 2589.4" fill="none" stroke="#FFFFFF" stroke-opacity="0.38" stroke-width="4" filter="url(#soft_crm_19_4816)"/>
  <path d="M -100.0 2605.0 Q 133.3 2327.8, 366.7 2622.9 Q 600.0 2811.0, 833.3 2501.8 Q 1066.7 2318.1, 1300.0 2589.4" fill="none" stroke="#A7CCFF" stroke-opacity="0.18" stroke-width="2"/>
  <path d="M -100.0 2127.0 Q 133.3 1833.4, 366.7 1973.8 Q 600.0 2306.6, 833.3 2134.5 Q 1066.7 1794.2, 1300.0 2075.5" fill="none" stroke="#FFFFFF" stroke-opacity="0.38" stroke-width="4" filter="url(#soft_crm_19_4816)"/>
  <path d="M -100.0 2127.0 Q 133.3 1833.4, 366.7 1973.8 Q 600.0 2306.6, 833.3 2134.5 Q 1066.7 1794.2, 1300.0 2075.5" fill="none" stroke="#A7CCFF" stroke-opacity="0.18" stroke-width="2"/>
  <circle cx="700" cy="1999" r="239" fill="url(#orb_crm_19_4816)" opacity="0.36"/>
  <circle cx="700" cy="1999" r="239" fill="#6DB6CF" opacity="0.08"/>
  <circle cx="700" cy="1999" r="239" fill="none" stroke="#FFFFFF" stroke-opacity="0.56" stroke-width="3"/>
  <ellipse cx="633.1" cy="1913.0" rx="43.0" ry="19.1" fill="#FFFFFF" opacity="0.42" transform="rotate(-22 633.1 1913.0)"/>
  <circle cx="1105" cy="1951" r="176" fill="url(#orb_crm_19_4816)" opacity="0.36"/>
  <circle cx="1105" cy="1951" r="176" fill="#E9FFF1" opacity="0.08"/>
  <circle cx="1105" cy="1951" r="176" fill="none" stroke="#FFFFFF" stroke-opacity="0.56" stroke-width="3"/>
  <ellipse cx="1055.7" cy="1887.6" rx="31.7" ry="14.1" fill="#FFFFFF" opacity="0.42" transform="rotate(-22 1055.7 1887.6)"/>
  <circle cx="1238" cy="2337" r="124" fill="url(#orb_crm_19_4816)" opacity="0.36"/>
  <circle cx="1238" cy="2337" r="124" fill="#6DB6CF" opacity="0.08"/>
  <circle cx="1238" cy="2337" r="124" fill="none" stroke="#FFFFFF" stroke-opacity="0.56" stroke-width="3"/>
  <ellipse cx="1203.3" cy="2292.4" rx="22.3" ry="9.9" fill="#FFFFFF" opacity="0.42" transform="rotate(-22 1203.3 2292.4)"/>
  <circle cx="626" cy="2181" r="224" fill="url(#orb_crm_19_4816)" opacity="0.25"/>
  <circle cx="626" cy="2181" r="224" fill="#D5F4FF" opacity="0.08"/>
  <circle cx="626" cy="2181" r="224" fill="none" stroke="#FFFFFF" stroke-opacity="0.56" stroke-width="3"/>
  <ellipse cx="563.3" cy="2100.4" rx="40.3" ry="17.9" fill="#FFFFFF" opacity="0.42" transform="rotate(-22 563.3 2100.4)"/>
  <circle cx="863" cy="2016" r="92" fill="url(#orb_crm_19_4816)" opacity="0.26"/>
  <circle cx="863" cy="2016" r="92" fill="#9EE2C2" opacity="0.08"/>
  <circle cx="863" cy="2016" r="92" fill="none" stroke="#FFFFFF" stroke-opacity="0.56" stroke-width="3"/>
  <ellipse cx="837.2" cy="1982.9" rx="16.6" ry="7.4" fill="#FFFFFF" opacity="0.42" transform="rotate(-22 837.2 1982.9)"/>
  <circle cx="536" cy="213" r="220" fill="url(#orb_crm_19_4816)" opacity="0.25"/>
  <circle cx="536" cy="213" r="220" fill="#D5F4FF" opacity="0.08"/>
  <circle cx="536" cy="213" r="220" fill="none" stroke="#FFFFFF" stroke-opacity="0.56" stroke-width="3"/>
  <ellipse cx="474.4" cy="133.8" rx="39.6" ry="17.6" fill="#FFFFFF" opacity="0.42" transform="rotate(-22 474.4 133.8)"/>
  <circle cx="237" cy="2484" r="282" fill="url(#orb_crm_19_4816)" opacity="0.26"/>
  <circle cx="237" cy="2484" r="282" fill="#E9FFF1" opacity="0.08"/>
  <circle cx="237" cy="2484" r="282" fill="none" stroke="#FFFFFF" stroke-opacity="0.56" stroke-width="3"/>
  <ellipse cx="158.0" cy="2382.5" rx="50.8" ry="22.6" fill="#FFFFFF" opacity="0.42" transform="rotate(-22 158.0 2382.5)"/>
  <circle cx="1143" cy="-105" r="260" fill="url(#orb_crm_19_4816)" opacity="0.17"/>
  <circle cx="1143" cy="-105" r="260" fill="#E9FFF1" opacity="0.08"/>
  <circle cx="1143" cy="-105" r="260" fill="none" stroke="#FFFFFF" stroke-opacity="0.56" stroke-width="3"/>
  <ellipse cx="1070.2" cy="-198.6" rx="46.8" ry="20.8" fill="#FFFFFF" opacity="0.42" transform="rotate(-22 1070.2 -198.6)"/>
  <circle cx="259" cy="-123" r="80" fill="url(#orb_crm_19_4816)" opacity="0.26"/>
  <circle cx="259" cy="-123" r="80" fill="#A7CCFF" opacity="0.08"/>
  <circle cx="259" cy="-123" r="80" fill="none" stroke="#FFFFFF" stroke-opacity="0.56" stroke-width="3"/>
  <ellipse cx="236.6" cy="-151.8" rx="14.4" ry="6.4" fill="#FFFFFF" opacity="0.42" transform="rotate(-22 236.6 -151.8)"/>
  <circle cx="548" cy="892" r="185" fill="url(#orb_crm_19_4816)" opacity="0.17"/>
  <circle cx="548" cy="892" r="185" fill="#E9FFF1" opacity="0.08"/>
  <circle cx="548" cy="892" r="185" fill="none" stroke="#FFFFFF" stroke-opacity="0.56" stroke-width="3"/>
  <ellipse cx="496.2" cy="825.4" rx="33.3" ry="14.8" fill="#FFFFFF" opacity="0.42" transform="rotate(-22 496.2 825.4)"/>
  <circle cx="498" cy="653" r="2" fill="#FFFFFF" opacity="0.51"/>
  <circle cx="392" cy="1824" r="4" fill="#FFFFFF" opacity="0.41"/>
  <circle cx="618" cy="1241" r="7" fill="#FFFFFF" opacity="0.47"/>
  <circle cx="702" cy="1656" r="5" fill="#FFFFFF" opacity="0.30"/>
  <circle cx="1189" cy="11" r="7" fill="#FFFFFF" opacity="0.40"/>
  <circle cx="918" cy="1480" r="2" fill="#FFFFFF" opacity="0.44"/>
  <circle cx="518" cy="562" r="5" fill="#FFFFFF" opacity="0.62"/>
  <circle cx="296" cy="1481" r="5" fill="#FFFFFF" opacity="0.52"/>
  <circle cx="178" cy="1349" r="3" fill="#FFFFFF" opacity="0.71"/>
  <circle cx="50" cy="190" r="5" fill="#FFFFFF" opacity="0.39"/>
  <circle cx="1040" cy="996" r="5" fill="#FFFFFF" opacity="0.55"/>
  <circle cx="567" cy="2541" r="4" fill="#FFFFFF" opacity="0.51"/>
  <circle cx="47" cy="2057" r="4" fill="#FFFFFF" opacity="0.58"/>
  <circle cx="16" cy="332" r="3" fill="#FFFFFF" opacity="0.62"/>
  <rect width="1200" height="2600" fill="#FFFFFF" opacity="0.08"/>
  <rect width="1200" height="2600" filter="url(#grain_crm_19_4816)" opacity="0.7"/>
</svg>
