<svg xmlns="http://www.w3.org/2000/svg" width="1200" height="2600" viewBox="0 0 1200 2600" preserveAspectRatio="xMidYMid slice">
  <defs>
    <linearGradient id="bg_crm_13_5955" x1="0" y1="0" x2="1" y2="1">
      <stop offset="0%" stop-color="#F6F7FF"/>
      <stop offset="48%" stop-color="#D5F4FF"/>
      <stop offset="100%" stop-color="#FBFFFF"/>
    </linearGradient>
    <radialGradient id="orb_crm_13_5955" cx="35%" cy="30%" r="70%">
      <stop offset="0%" stop-color="#FFFFFF" stop-opacity="0.85"/>
      <stop offset="42%" stop-color="#FFFFFF" stop-opacity="0.20"/>
      <stop offset="100%" stop-color="#FFFFFF" stop-opacity="0.02"/>
    </radialGradient>
    <filter id="blur_crm_13_5955" x="-30%" y="-30%" width="160%" height="160%">
      <feGaussianBlur stdDeviation="72"/>
    </filter>
    <filter id="soft_crm_13_5955" x="-20%" y="-20%" width="140%" height="140%">
      <feGaussianBlur stdDeviation="10"/>
    </filter>
    <filter id="grain_crm_13_5955">
      <feTurbulence type="fractalNoise" baseFrequency="0.85" numOctaves="2" stitchTiles="stitch"/>
      <feColorMatrix type="saturate" values="0"/>
      <feComponentTransfer>
        <feFuncA type="table" tableValues="0 0.035"/>
      </feComponentTransfer>
    </filter>
  </defs>
  <rect width="1200" height="2600" fill="url(#bg_crm_13_5955)"/>
  <path d="M 371.0 737.0 C 371.0 1006.5, 443.3 873.7, 314.3 1080.1 C 185.3 1286.6, 193.6 1287.7, -4.1 1334.5 C -201.7 1381.3, -145.2 1401.6, -319.0 1266.9 C -492.8 1132.1, -460.3 1159.2, -529.0 905.9 C -597.6 652.6, -552.2 758.9, -483.6 505.6 C -414.9 252.3, -469.2 337.0, -295.4 202.2 C -121.6 67.4, -191.2 139.4, 6.5 186.2 C 204.1 233.0, 82.9 89.1, 211.9 295.6 C 340.9 502.1, 371.0 467.4, 371.0 737.0 Z" fill="#FBFFFF" opacity="0.27" filter="url(#blur_crm_13_5955)"/>
  <path d="M 984.7 2614.0 C 984.7 2902.0, 1033.5 2761.0, 895.0 2981.6 C 756.4 3202.3, 787.6 3114.1, 575.3 3164.1 C 363.0 3214.1, 409.2 3390.9, 222.5 3246.9 C 35.8 3102.9, 188.7 3103.0, 114.9 2832.3 C 41.2 2561.7, -96.8 2702.5, -23.1 2431.9 C 50.6 2161.3, 36.3 2240.6, 223.0 2096.6 C 409.6 1952.6, 363.0 2021.6, 575.3 2071.7 C 787.5 2121.7, 653.9 1979.3, 792.5 2199.9 C 931.0 2420.6, 984.7 2326.0, 984.7 2614.0 Z" fill="#6DB6CF" opacity="0.27" filter="url(#blur_crm_13_5955)"/>
  <path d="M 866.1 375.0 C 866.1 595.0, 931.9 490.5, 827.8 659.1 C 723.7 827.7, 748.8 773.4, 589.3 811.6 C 429.8 849.9, 477.3 884.3, 337.0 774.3 C 196.7 664.2, 254.7 755.6, 199.3 548.8 C 143.9 342.0, 147.1 444.2, 202.5 237.4 C 257.9 30.7, 226.1 7.2, 366.3 -102.8 C 506.6 -212.9, 416.1 -178.6, 575.7 -140.4 C 735.2 -102.2, 707.0 -112.0, 811.1 56.6 C 915.2 225.2, 866.1 154.9, 866.1 375.0 Z" fill="#F6F7FF" opacity="0.18" filter="url(#blur_crm_13_5955)"/>
  <path d="M 502.6 2260.0 C 502.6 2465.7, 580.4 2364.4, 471.4 2522.0 C 362.3 2679.5, 431.1 2660.9, 264.1 2696.6 C 97.0 2732.3, 177.6 2735.0, 30.7 2632.2 C -116.3 2529.3, -140.9 2614.1, -199.0 2420.8 C -257.0 2227.6, -183.9 2278.3, -125.8 2085.0 C -67.8 1891.8, -150.8 1995.1, -3.9 1892.3 C 143.0 1789.5, 84.9 1763.7, 252.0 1799.4 C 419.0 1835.2, 330.4 1795.7, 439.4 1953.2 C 548.5 2110.8, 502.6 2054.3, 502.6 2260.0 Z" fill="#6DB6CF" opacity="0.37" filter="url(#blur_crm_13_5955)"/>
  <path d="M 587.7 1904.0 C 587.7 2033.2, 558.0 2020.5, 459.9 2119.4 C 361.8 2218.3, 395.5 2181.8, 245.3 2204.2 C 95.1 2226.7, 155.9 2252.8, 23.8 2188.2 C -108.3 2123.6, -44.2 2111.0, -96.4 1989.7 C -148.6 1868.3, -169.7 1922.8, -117.5 1801.4 C -65.3 1680.1, -106.9 1709.7, 25.2 1645.2 C 157.3 1580.6, 93.8 1633.9, 244.0 1656.4 C 394.3 1678.8, 347.7 1598.4, 445.8 1697.3 C 543.9 1796.3, 587.7 1774.8, 587.7 1904.0 Z" fill="#F6F7FF" opacity="0.24" filter="url(#blur_crm_13_5955)"/>
  <path d="M 662.4 1892.0 C 662.4 2029.7, 691.2 1973.4, 615.4 2078.9 C 539.6 2184.4, 612.5 2180.2, 496.4 2204.1 C 380.3 2228.1, 407.1 2228.0, 305.0 2159.1 C 202.9 2090.3, 283.4 2140.7, 243.1 2011.3 C 202.7 1881.9, 164.6 1916.9, 204.9 1787.5 C 245.2 1658.1, 205.5 1683.2, 307.6 1614.3 C 409.7 1545.5, 379.4 1548.8, 495.5 1572.7 C 611.7 1596.6, 593.9 1581.2, 669.7 1686.7 C 745.5 1792.2, 662.4 1754.3, 662.4 1892.0 Z" fill="#F6F7FF" opacity="0.21" filter="url(#blur_crm_13_5955)"/>
  <path d="M 495.5 155.0 C 495.5 463.2, 450.0 381.1, 331.1 617.3 C 212.2 853.4, 301.6 830.8, 119.5 884.4 C -62.7 937.9, 44.5 902.4, -115.6 748.3 C -275.8 594.1, -211.7 670.0, -274.9 380.4 C -338.2 90.7, -449.7 208.9, -386.4 -80.8 C -323.1 -370.5, -334.8 -250.4, -174.7 -404.5 C -14.5 -558.6, -49.5 -471.3, 132.7 -417.7 C 314.8 -364.2, 267.5 -531.6, 386.4 -295.5 C 505.3 -59.3, 495.5 -153.2, 495.5 155.0 Z" fill="#F6F7FF" opacity="0.24" filter="url(#blur_crm_13_5955)"/>
  <path d="M 1793.4 1723.0 C 1793.4 1865.2, 1827.0 1797.8, 1669.4 1906.8 C 1511.7 2015.7, 1561.8 2052.8, 1320.2 2077.5 C 1078.7 2102.2, 1179.7 2092.2, 967.3 2021.1 C 754.9 1950.0, 856.1 1961.3, 772.3 1827.7 C 688.4 1694.1, 555.0 1752.8, 638.9 1619.2 C 722.8 1485.6, 774.6 1508.7, 987.0 1437.6 C 1199.3 1366.5, 1082.9 1416.0, 1324.5 1440.7 C 1566.0 1465.3, 1549.0 1390.4, 1706.7 1499.4 C 1864.3 1608.3, 1793.4 1580.8, 1793.4 1723.0 Z" fill="#D5F4FF" opacity="0.33" filter="url(#blur_crm_13_5955)"/>
  <path d="M 1574.5 27.0 C 1574.5 168.8, 1531.3 110.2, 1430.6 218.8 C 1330.0 327.4, 1402.8 334.8, 1248.5 359.4 C 1094.3 384.0, 1141.9 337.8, 1006.3 266.9 C 870.6 196.0, 972.3 280.7, 918.7 147.5 C 865.2 14.3, 788.3 63.8, 841.9 -69.4 C 895.4 -202.6, 868.6 -219.9, 1004.2 -290.7 C 1139.8 -361.6, 1111.9 -351.3, 1266.1 -326.7 C 1420.3 -302.1, 1400.0 -265.2, 1500.7 -156.6 C 1601.3 -48.0, 1574.5 -114.8, 1574.5 27.0 Z" fill="#E8FAFF" opacity="0.27" filter="url(#blur_crm_13_5955)"/>
  <path d="M 1432.5 842.0 C 1432.5 1096.7, 1475.1 992.2, 1348.1 1198.3 C 1221.2 1404.3, 1313.0 1252.6, 1107.6 1331.3 C 902.2 1410.0, 1002.5 1410.1, 797.1 1331.4 C 591.7 1252.7, 690.0 1339.2, 563.0 1133.2 C 436.0 927.1, 460.1 1096.7, 460.1 842.0 C 460.1 587.3, 398.9 736.9, 525.9 530.9 C 652.8 324.8, 612.0 381.7, 817.4 303.0 C 1022.8 224.3, 898.4 150.9, 1103.8 229.6 C 1309.2 308.3, 1215.1 302.2, 1342.1 508.2 C 1469.1 714.3, 1432.5 587.3, 1432.5 842.0 Z" fill="#FBFFFF" opacity="0.12" stroke="#FBFFFF" stroke-opacity="0.46" stroke-width="3" filter="url(#soft_crm_13_5955)"/>
  <path d="M 1432.5 842.0 C 1432.5 1096.7, 1475.1 992.2, 1348.1 1198.3 C 1221.2 1404.3, 1313.0 1252.6, 1107.6 1331.3 C 902.2 1410.0, 1002.5 1410.1, 797.1 1331.4 C 591.7 1252.7, 690.0 1339.2, 563.0 1133.2 C 436.0 927.1, 460.1 1096.7, 460.1 842.0 C 460.1 587.3, 398.9 736.9, 525.9 530.9 C 652.8 324.8, 612.0 381.7, 817.4 303.0 C 1022.8 224.3, 898.4 150.9, 1103.8 229.6 C 1309.2 308.3, 1215.1 302.2, 1342.1 508.2 C 1469.1 714.3, 1432.5 587.3, 1432.5 842.0 Z" fill="none" stroke="#FFFFFF" stroke-opacity="0.22" stroke-width="1.2"/>
  <path d="M 771.9 1452.0 C 771.9 1763.4, 791.3 1662.4, 694.0 1914.4 C 596.6 2166.3, 635.8 2039.1, 478.3 2135.4 C 320.8 2231.6, 406.4 2234.4, 248.9 2138.2 C 91.4 2042.0, 128.0 2056.9, 30.6 1805.0 C -66.7 1553.1, -57.4 1763.4, -57.4 1452.0 C -57.4 1140.6, -34.9 1264.1, 62.4 1012.1 C 159.7 760.2, 95.5 902.7, 253.0 806.5 C 410.5 710.3, 320.4 667.1, 477.9 763.3 C 635.4 859.5, 543.6 775.8, 641.0 1027.7 C 738.3 1279.6, 771.9 1140.6, 771.9 1452.0 Z" fill="#E9FFF1" opacity="0.12" stroke="#FFFFFF" stroke-opacity="0.46" stroke-width="3" filter="url(#soft_crm_13_5955)"/>
  <path d="M 771.9 1452.0 C 771.9 1763.4, 791.3 1662.4, 694.0 1914.4 C 596.6 2166.3, 635.8 2039.1, 478.3 2135.4 C 320.8 2231.6, 406.4 2234.4, 248.9 2138.2 C 91.4 2042.0, 128.0 2056.9, 30.6 1805.0 C -66.7 1553.1, -57.4 1763.4, -57.4 1452.0 C -57.4 1140.6, -34.9 1264.1, 62.4 1012.1 C 159.7 760.2, 95.5 902.7, 253.0 806.5 C 410.5 710.3, 320.4 667.1, 477.9 763.3 C 635.4 859.5, 543.6 775.8, 641.0 1027.7 C 738.3 1279.6, 771.9 1140.6, 771.9 1452.0 Z" fill="none" stroke="#FFFFFF" stroke-opacity="0.22" stroke-width="1.2"/>
  <path d="M 581.4 1006.0 C 581.4 1270.2, 535.7 1090.1, 357.4 1303.8 C 179.1 1517.5, 379.1 1457.2, 90.6 1538.8 C -197.8 1620.5, -57.7 1583.5, -346.2 1501.8 C -634.6 1420.2, -492.6 1555.6, -670.9 1341.9 C -849.2 1128.2, -747.7 1270.2, -747.7 1006.0 C -747.7 741.9, -783.6 860.7, -605.4 647.0 C -427.1 433.3, -634.6 483.1, -346.2 401.5 C -57.7 319.9, -183.8 372.1, 104.7 453.7 C 393.2 535.3, 207.6 433.4, 385.9 647.1 C 564.1 860.8, 581.4 741.8, 581.4 1006.0 Z" fill="#F6F7FF" opacity="0.12" stroke="#FFFFFF" stroke-opacity="0.46" stroke-width="3" filter="url(#soft_crm_13_5955)"/>
  <path d="M 581.4 1006.0 C 581.4 1270.2, 535.7 1090.1, 357.4 1303.8 C 179.1 1517.5, 379.1 1457.2, 90.6 1538.8 C -197.8 1620.5, -57.7 1583.5, -346.2 1501.8 C -634.6 1420.2, -492.6 1555.6, -670.9 1341.9 C -849.2 1128.2, -747.7 1270.2, -747.7 1006.0 C -747.7 741.9, -783.6 860.7, -605.4 647.0 C -427.1 433.3, -634.6 483.1, -346.2 401.5 C -57.7 319.9, -183.8 372.1, 104.7 453.7 C 393.2 535.3, 207.6 433.4, 385.9 647.1 C 564.1 860.8, 581.4 741.8, 581.4 1006.0 Z" fill="none" stroke="#FFFFFF" stroke-opacity="0.22" stroke-width="1.2"/>
  <path d="M 694.7 2862.0 C 694.7 3061.8, 768.5 2960.3, 629.1 3121.9 C 489.7 3283.6, 567.3 3189.7, 341.8 3251.4 C 116.2 3313.2, 258.8 3383.2, 33.3 3321.4 C -192.3 3259.7, -137.1 3297.3, -276.5 3135.7 C -415.9 2974.0, -254.2 3061.8, -254.2 2862.0 C -254.2 2662.2, -358.1 2793.0, -218.7 2631.3 C -79.3 2469.7, -184.9 2517.2, 40.7 2455.5 C 266.2 2393.8, 158.2 2346.1, 383.7 2407.9 C 609.3 2469.6, 463.7 2473.7, 603.1 2635.3 C 742.5 2797.0, 694.7 2662.2, 694.7 2862.0 Z" fill="#A7CCFF" opacity="0.12" stroke="#A7CCFF" stroke-opacity="0.46" stroke-width="3" filter="url(#soft_crm_13_5955)"/>
  <path d="M 694.7 2862.0 C 694.7 3061.8, 768.5 2960.3, 629.1 3121.9 C 489.7 3283.6, 567.3 3189.7, 341.8 3251.4 C 116.2 3313.2, 258.8 3383.2, 33.3 3321.4 C -192.3 3259.7, -137.1 3297.3, -276.5 3135.7 C -415.9 2974.0, -254.2 3061.8, -254.2 2862.0 C -254.2 2662.2, -358.1 2793.0, -218.7 2631.3 C -79.3 2469.7, -184.9 2517.2, 40.7 2455.5 C 266.2 2393.8, 158.2 2346.1, 383.7 2407.9 C 609.3 2469.6, 463.7 2473.7, 603.1 2635.3 C 742.5 2797.0, 694.7 2662.2, 694.7 2862.0 Z" fill="none" stroke="#FFFFFF" stroke-opacity="0.22" stroke-width="1.2"/>
  <path d="M 1798.4 1773.0 C 1798.4 2064.2, 1843.5 1905.2, 1703.3 2140.7 C 1563.1 2376.3, 1656.6 2296.9, 1429.8 2386.8 C 1202.9 2476.8, 1328.4 2437.4, 1101.5 2347.4 C 874.7 2257.4, 957.0 2390.4, 816.8 2154.9 C 676.6 1919.3, 779.3 2064.2, 779.3 1773.0 C 779.3 1481.8, 664.4 1587.4, 804.6 1351.8 C 944.8 1116.3, 869.4 1211.8, 1096.3 1121.8 C 1323.1 1031.9, 1218.1 999.3, 1444.9 1089.2 C 1671.7 1179.2, 1502.3 1208.3, 1642.5 1443.9 C 1782.7 1679.4, 1798.4 1481.8, 1798.4 1773.0 Z" fill="#6DB6CF" opacity="0.12" stroke="#6DB6CF" stroke-opacity="0.46" stroke-width="3" filter="url(#soft_crm_13_5955)"/>
  <path d="M 1798.4 1773.0 C 1798.4 2064.2, 1843.5 1905.2, 1703.3 2140.7 C 1563.1 2376.3, 1656.6 2296.9, 1429.8 2386.8 C 1202.9 2476.8, 1328.4 2437.4, 1101.5 2347.4 C 874.7 2257.4, 957.0 2390.4, 816.8 2154.9 C 676.6 1919.3, 779.3 2064.2, 779.3 1773.0 C 779.3 1481.8, 664.4 1587.4, 804.6 1351.8 C 944.8 1116.3, 869.4 1211.8, 1096.3 1121.8 C 1323.1 1031.9, 1218.1 999.3, 1444.9 1089.2 C 1671.7 1179.2, 1502.3 1208.3, 1642.5 1443.9 C 1782.7 1679.4, 1798.4 1481.8, 1798.4 1773.0 Z" fill="none" stroke="#FFFFFF" stroke-opacity="0.22" stroke-width="1.2"/>
  <path d="M 1872.4 981.0 C 1872.4 1185.3, 1867.3 1088.8, 1740.6 1254.1 C 1613.9 1419.4, 1729.8 1384.5, 1524.8 1447.6 C 1319.8 1510.8, 1409.7 1453.8, 1204.7 1390.7 C 999.7 1327.5, 1109.0 1449.4, 982.3 1284.1 C 855.6 1118.8, 950.1 1185.3, 950.1 981.0 C 950.1 776.7, 808.7 870.3, 935.4 705.0 C 1062.1 539.7, 1017.2 562.3, 1222.2 499.1 C 1427.2 436.0, 1286.8 488.7, 1491.8 551.8 C 1696.8 615.0, 1591.6 519.6, 1718.3 684.9 C 1845.0 850.2, 1872.4 776.7, 1872.4 981.0 Z" fill="#9EE2C2" opacity="0.12" stroke="#9EE2C2" stroke-opacity="0.46" stroke-width="3" filter="url(#soft_crm_13_5955)"/>
  <path d="M 1872.4 981.0 C 1872.4 1185.3, 1867.3 1088.8, 1740.6 1254.1 C 1613.9 1419.4, 1729.8 1384.5, 1524.8 1447.6 C 1319.8 1510.8, 1409.7 1453.8, 1204.7 1390.7 C 999.7 1327.5, 1109.0 1449.4, 982.3 1284.1 C 855.6 1118.8, 950.1 1185.3, 950.1 981.0 C 950.1 776.7, 808.7 870.3, 935.4 705.0 C 1062.1 539.7, 1017.2 562.3, 1222.2 499.1 C 1427.2 436.0, 1286.8 488.7, 1491.8 551.8 C 1696.8 615.0, 1591.6 519.6, 1718.3 684.9 C 1845.0 850.2, 1872.4 776.7, 1872.4 981.0 Z" fill="none" stroke="#FFFFFF" stroke-opacity="0.22" stroke-width="1.2"/>
  <path d="M -100.0 610.9 Q 133.3 614.0, 366.7 869.4 Q 600.0 948.7, 833.3 846.3 Q 1066.7 628.4, 1300.0 499.3" fill="none" stroke="#FFFFFF" stroke-opacity="0.38" stroke-width="4" filter="url(#soft_crm_13_5955)"/>
  <path d="M -100.0 610.9 Q 133.3 614.0, 366.7 869.4 Q 600.0 948.7, 833.3 846.3 Q 1066.7 628.4, 1300.0 499.3" fill="none" stroke="#6DB6CF" stroke-opacity="0.18" stroke-width="2"/>
  <path d="M -100.0 -39.7 Q 133.3 133.8, 366.7 325.7 Q 600.0 503.7, 833.3 266.8 Q 1066.7 52.6, 1300.0 73.2" fill="none" stroke="#FFFFFF" stroke-opacity="0.38" stroke-width="4" filter="url(#soft_crm_13_5955)"/>
  <path d="M -100.0 -39.7 Q 133.3 133.8, 366.7 325.7 Q 600.0 503.7, 833.3 266.8 Q 1066.7 52.6, 1300.0 73.2" fill="none" stroke="#A7CCFF" stroke-opacity="0.18" stroke-width="2"/>
  <path d="M -100.0 765.4 Q 133.3 966.1, 366.7 1297.6 Q 600.0 1324.8, 833.3 1284.2 Q 1066.7 998.9, 1300.0 842.5" fill="none" stroke="#FFFFFF" stroke-opacity="0.38" stroke-width="4" filter="url(#soft_crm_13_5955)"/>
  <path d="M -100.0 765.4 Q 133.3 966.1, 366.7 1297.6 Q 600.0 1324.8, 833.3 1284.2 Q 1066.7 998.9, 1300.0 842.5" fill="none" stroke="#6DB6CF" stroke-opacity="0.18" stroke-width="2"/>
  <path d="M -100.0 1595.8 Q 133.3 1767.5, 366.7 1782.6 Q 600.0 1848.0, 833.3 1992.5 Q 1066.7 1965.4, 1300.0 1954.9" fill="none" stroke="#FFFFFF" stroke-opacity="0.38" stroke-width="4" filter="url(#soft_crm_13_5955)"/>
  <path d="M -100.0 1595.8 Q 133.3 1767.5, 366.7 1782.6 Q 600.0 1848.0, 833.3 1992.5 Q 1066.7 1965.4, 1300.0 1954.9" fill="none" stroke="#6DB6CF" stroke-opacity="0.18" stroke-width="2"/>
  <circle cx="1111" cy="1054" r="98" fill="url(#orb_crm_13_5955)" opacity="0.36"/>
  <circle cx="1111" cy="1054" r="98" fill="#F6F7FF" opacity="0.08"/>
  <circle cx="1111" cy="1054" r="98" fill="none" stroke="#FFFFFF" stroke-opacity="0.56" stroke-width="3"/>
  <ellipse cx="1083.6" cy="1018.7" rx="17.6" ry="7.8" fill="#FFFFFF" opacity="0.42" transform="rotate(-22 1083.6 1018.7)"/>
  <circle cx="458" cy="2434" r="133" fill="url(#orb_crm_13_5955)" opacity="0.36"/>
  <circle cx="458" cy="2434" r="133" fill="#A7CCFF" opacity="0.08"/>
  <circle cx="458" cy="2434" r="133" fill="none" stroke="#FFFFFF" stroke-opacity="0.56" stroke-width="3"/>
  <ellipse cx="420.8" cy="2386.1" rx="23.9" ry="10.6" fill="#FFFFFF" opacity="0.42" transform="rotate(-22 420.8 2386.1)"/>
  <circle cx="158" cy="1951" r="280" fill="url(#orb_crm_13_5955)" opacity="0.36"/>
  <circle cx="158" cy="1951" r="280" fill="#9EE2C2" opacity="0.08"/>
  <circle cx="158" cy="1951" r="280" fill="none" stroke="#FFFFFF" stroke-opacity="0.56" stroke-width="3"/>
  <ellipse cx="79.6" cy="1850.2" rx="50.4" ry="22.4" fill="#FFFFFF" opacity="0.42" transform="rotate(-22 79.6 1850.2)"/>
  <circle cx="156" cy="2123" r="224" fill="url(#orb_crm_13_5955)" opacity="0.25"/>
  <circle cx="156" cy="2123" r="224" fill="#FBFFFF" opacity="0.08"/>
  <circle cx="156" cy="2123" r="224" fill="none" stroke="#FFFFFF" stroke-opacity="0.56" stroke-width="3"/>
  <ellipse cx="93.3" cy="2042.4" rx="40.3" ry="17.9" fill="#FFFFFF" opacity="0.42" transform="rotate(-22 93.3 2042.4)"/>
  <circle cx="502" cy="2712" r="102" fill="url(#orb_crm_13_5955)" opacity="0.19"/>
  <circle cx="502" cy="2712" r="102" fill="#D5F4FF" opacity="0.08"/>
  <circle cx="502" cy="2712" r="102" fill="none" stroke="#FFFFFF" stroke-opacity="0.56" stroke-width="3"/>
  <ellipse cx="473.4" cy="2675.3" rx="18.4" ry="8.2" fill="#FFFFFF" opacity="0.42" transform="rotate(-22 473.4 2675.3)"/>
  <circle cx="348" cy="324" r="266" fill="url(#orb_crm_13_5955)" opacity="0.21"/>
  <circle cx="348" cy="324" r="266" fill="#9EE2C2" opacity="0.08"/>
  <circle cx="348" cy="324" r="266" fill="none" stroke="#FFFFFF" stroke-opacity="0.56" stroke-width="3"/>
  <ellipse cx="273.5" cy="228.2" rx="47.9" ry="21.3" fill="#FFFFFF" opacity="0.42" transform="rotate(-22 273.5 228.2)"/>
  <circle cx="477" cy="1170" r="133" fill="url(#orb_crm_13_5955)" opacity="0.23"/>
  <circle cx="477" cy="1170" r="133" fill="#9EE2C2" opacity="0.08"/>
  <circle cx="477" cy="1170" r="133" fill="none" stroke="#FFFFFF" stroke-opacity="0.56" stroke-width="3"/>
  <ellipse cx="439.8" cy="1122.1" rx="23.9" ry="10.6" fill="#FFFFFF" opacity="0.42" transform="rotate(-22 439.8 1122.1)"/>
  <circle cx="82" cy="1225" r="252" fill="url(#orb_crm_13_5955)" opacity="0.18"/>
  <circle cx="82" cy="1225" r="252" fill="#9EE2C2" opacity="0.08"/>
  <circle cx="82" cy="1225" r="252" fill="none" stroke="#FFFFFF" stroke-opacity="0.56" stroke-width="3"/>
  <ellipse cx="11.4" cy="1134.3" rx="45.4" ry="20.2" fill="#FFFFFF" opacity="0.42" transform="rotate(-22 11.4 1134.3)"/>
  <circle cx="214" cy="124" r="282" fill="url(#orb_crm_13_5955)" opacity="0.20"/>
  <circle cx="214" cy="124" r="282" fill="#FBFFFF" opacity="0.08"/>
  <circle cx="214" cy="124" r="282" fill="none" stroke="#FFFFFF" stroke-opacity="0.56" stroke-width="3"/>
  <ellipse cx="135.0" cy="22.5" rx="50.8" ry="22.6" fill="#FFFFFF" opacity="0.42" transform="rotate(-22 135.0 22.5)"/>
  <circle cx="63" cy="788" r="108" fill="url(#orb_crm_13_5955)" opacity="0.25"/>
  <circle cx="63" cy="788" r="108" fill="#6DB6CF" opacity="0.08"/>
  <circle cx="63" cy="788" r="108" fill="none" stroke="#FFFFFF" stroke-opacity="0.56" stroke-width="3"/>
  <ellipse cx="32.8" cy="749.1" rx="19.4" ry="8.6" fill="#FFFFFF" opacity="0.42" transform="rotate(-22 32.8 749.1)"/>
  <circle cx="795" cy="1909" r="210" fill="url(#orb_crm_13_5955)" opacity="0.20"/>
  <circle cx="795" cy="1909" r="210" fill="#E9FFF1" opacity="0.08"/>
  <circle cx="795" cy="1909" r="210" fill="none" stroke="#FFFFFF" stroke-opacity="0.56" stroke-width="3"/>
  <ellipse cx="736.2" cy="1833.4" rx="37.8" ry="16.8" fill="#FFFFFF" opacity="0.42" transform="rotate(-22 736.2 1833.4)"/>
  <circle cx="1094" cy="2524" r="7" fill="#FFFFFF" opacity="0.38"/>
  <circle cx="1165" cy="585" r="3" fill="#FFFFFF" opacity="0.29"/>
  <circle cx="14" cy="2325" r="3" fill="#FFFFFF" opacity="0.57"/>
  <circle cx="317" cy="1030" r="3" fill="#FFFFFF" opacity="0.51"/>
  <circle cx="293" cy="2182" r="7" fill="#FFFFFF" opacity="0.29"/>
  <circle cx="166" cy="1601" r="5" fill="#FFFFFF" opacity="0.47"/>
  <circle cx="93" cy="507" r="7" fill="#FFFFFF" opacity="0.41"/>
  <circle cx="446" cy="1251" r="4" fill="#FFFFFF" opacity="0.50"/>
  <circle cx="674" cy="42" r="2" fill="#FFFFFF" opacity="0.53"/>
  <circle cx="817" cy="2108" r="7" fill="#FFFFFF" opacity="0.34"/>
  <circle cx="1022" cy="1798" r="4" fill="#FFFFFF" opacity="0.56"/>
  <circle cx="277" cy="2267" r="7" fill="#FFFFFF" opacity="0.57"/>
  <circle cx="111" cy="2238" r="4" fill="#FFFFFF" opacity="0.57"/>
  <circle cx="513" cy="2455" r="2" fill="#FFFFFF" opacity="0.71"/>
  <circle cx="438" cy="283" r="2" fill="#FFFFFF" opacity="0.43"/>
  <rect width="1200" height="2600" fill="#FFFFFF" opacity="0.08"/>
  <rect width="1200" height="2600" filter="url(#grain_crm_13_5955)" opacity="0.7"/>
</svg>
