<svg xmlns="http://www.w3.org/2000/svg" width="1200" height="2600" viewBox="0 0 1200 2600" preserveAspectRatio="xMidYMid slice">
  <defs>
    <linearGradient id="bg_crm_01_8781" x1="0" y1="0" x2="1" y2="1">
      <stop offset="0%" stop-color="#E8FAFF"/>
      <stop offset="48%" stop-color="#E9FFF1"/>
      <stop offset="100%" stop-color="#F6F7FF"/>
    </linearGradient>
    <radialGradient id="orb_crm_01_8781" cx="35%" cy="30%" r="70%">
      <stop offset="0%" stop-color="#FFFFFF" stop-opacity="0.85"/>
      <stop offset="42%" stop-color="#FFFFFF" stop-opacity="0.20"/>
      <stop offset="100%" stop-color="#FFFFFF" stop-opacity="0.02"/>
    </radialGradient>
    <filter id="blur_crm_01_8781" x="-30%" y="-30%" width="160%" height="160%">
      <feGaussianBlur stdDeviation="72"/>
    </filter>
    <filter id="soft_crm_01_8781" x="-20%" y="-20%" width="140%" height="140%">
      <feGaussianBlur stdDeviation="10"/>
    </filter>
    <filter id="grain_crm_01_8781">
      <feTurbulence type="fractalNoise" baseFrequency="0.85" numOctaves="2" stitchTiles="stitch"/>
      <feColorMatrix type="saturate" values="0"/>
      <feComponentTransfer>
        <feFuncA type="table" tableValues="0 0.035"/>
      </feComponentTransfer>
    </filter>
  </defs>
  <rect width="1200" height="2600" fill="url(#bg_crm_01_8781)"/>
  <path d="M 1478.7 2351.0 C 1478.7 2495.4, 1482.7 2433.4, 1397.4 2544.1 C 1312.0 2654.7, 1386.4 2638.9, 1255.7 2664.0 C 1124.9 2689.1, 1182.4 2693.9, 1067.4 2621.7 C 952.4 2549.4, 982.6 2588.9, 937.2 2453.1 C 891.8 2317.4, 929.7 2361.5, 975.1 2225.7 C 1020.5 2090.0, 928.7 2126.5, 1043.7 2054.3 C 1158.6 1982.1, 1131.7 2060.7, 1262.5 2085.8 C 1393.2 2110.9, 1391.3 2046.3, 1476.6 2156.9 C 1561.9 2267.6, 1478.7 2206.6, 1478.7 2351.0 Z" fill="#F6F7FF" opacity="0.33" filter="url(#blur_crm_01_8781)"/>
  <path d="M 1565.7 1497.0 C 1565.7 1771.0, 1526.8 1681.5, 1374.7 1891.4 C 1222.5 2101.3, 1279.5 2149.3, 1046.4 2196.9 C 813.3 2244.5, 854.7 2085.0, 649.7 1948.0 C 444.7 1811.0, 465.4 1946.8, 384.4 1689.3 C 303.5 1431.8, 305.3 1547.1, 386.2 1289.6 C 467.2 1032.1, 495.4 1118.0, 700.4 980.9 C 905.4 843.9, 807.3 862.5, 1040.4 910.1 C 1273.5 957.7, 1141.0 905.8, 1293.1 1115.8 C 1445.3 1325.7, 1565.7 1223.0, 1565.7 1497.0 Z" fill="#E9FFF1" opacity="0.35" filter="url(#blur_crm_01_8781)"/>
  <path d="M 1593.1 918.0 C 1593.1 1062.0, 1756.5 985.3, 1598.8 1095.7 C 1441.2 1206.0, 1486.3 1235.9, 1244.7 1260.9 C 1003.2 1285.9, 1053.1 1286.5, 840.7 1214.5 C 628.3 1142.5, 754.7 1158.7, 670.9 1023.3 C 587.0 888.0, 517.3 959.3, 601.2 823.9 C 685.1 688.6, 701.6 685.9, 914.0 613.9 C 1126.4 541.9, 999.1 532.3, 1240.6 557.3 C 1482.1 582.3, 1409.9 610.8, 1567.6 721.1 C 1725.2 831.4, 1593.1 774.0, 1593.1 918.0 Z" fill="#6DB6CF" opacity="0.32" filter="url(#blur_crm_01_8781)"/>
  <path d="M 1488.8 1516.0 C 1488.8 1767.1, 1594.3 1686.8, 1437.8 1879.1 C 1281.3 2071.5, 1374.9 2021.7, 1135.1 2065.3 C 895.4 2108.9, 1006.6 2135.2, 795.7 2009.6 C 584.9 1884.1, 556.8 1935.3, 473.5 1699.3 C 390.3 1463.4, 355.9 1594.9, 439.2 1359.0 C 522.4 1123.0, 562.4 1202.3, 773.2 1076.7 C 984.0 951.2, 870.6 892.9, 1110.4 936.5 C 1350.1 980.1, 1341.9 998.1, 1498.4 1190.5 C 1654.9 1382.8, 1488.8 1264.9, 1488.8 1516.0 Z" fill="#6DB6CF" opacity="0.34" filter="url(#blur_crm_01_8781)"/>
  <path d="M 813.6 2181.0 C 813.6 2487.0, 774.4 2396.4, 637.3 2630.9 C 500.2 2865.3, 609.0 2718.6, 398.9 2771.8 C 188.8 2824.9, 281.2 2932.4, 96.5 2779.4 C -88.2 2626.4, -47.0 2704.4, -119.9 2416.8 C -192.9 2129.3, -270.3 2244.0, -197.4 1956.5 C -124.4 1668.9, -137.4 1816.8, 47.3 1663.8 C 232.0 1510.8, 166.5 1550.0, 376.5 1603.1 C 586.6 1656.3, 538.6 1493.1, 675.7 1727.5 C 812.8 1961.9, 813.6 1875.0, 813.6 2181.0 Z" fill="#6DB6CF" opacity="0.29" filter="url(#blur_crm_01_8781)"/>
  <path d="M 1091.3 1579.0 C 1091.3 1827.4, 1062.6 1712.6, 928.1 1902.9 C 793.6 2093.2, 880.8 2048.9, 674.7 2092.0 C 468.7 2135.2, 524.2 2163.6, 343.0 2039.4 C 161.8 1915.2, 286.4 1989.9, 214.8 1756.5 C 143.2 1523.0, 74.7 1607.0, 146.3 1373.6 C 217.8 1140.2, 207.5 1225.8, 388.7 1101.6 C 570.0 977.4, 459.4 923.8, 665.4 966.9 C 871.5 1010.1, 774.0 1005.0, 908.5 1195.3 C 1043.0 1385.6, 1091.3 1330.6, 1091.3 1579.0 Z" fill="#D5F4FF" opacity="0.35" filter="url(#blur_crm_01_8781)"/>
  <path d="M 1597.5 1973.0 C 1597.5 2225.9, 1621.5 2157.7, 1489.9 2351.4 C 1358.3 2545.2, 1368.2 2537.6, 1166.6 2581.5 C 964.9 2625.4, 1002.4 2575.9, 825.0 2449.4 C 647.7 2323.0, 800.6 2389.8, 730.6 2152.1 C 660.5 1914.5, 662.3 2009.7, 732.3 1772.0 C 802.4 1534.4, 712.5 1536.8, 889.8 1410.3 C 1067.2 1283.9, 977.0 1457.7, 1178.7 1501.6 C 1380.3 1545.6, 1360.4 1457.4, 1492.0 1651.1 C 1623.6 1844.8, 1597.5 1720.1, 1597.5 1973.0 Z" fill="#E8FAFF" opacity="0.25" filter="url(#blur_crm_01_8781)"/>
  <path d="M 572.4 2095.0 C 572.4 2345.2, 565.1 2220.0, 457.5 2411.7 C 349.9 2603.3, 422.3 2535.6, 257.5 2579.0 C 92.6 2622.5, 146.8 2663.7, 1.8 2538.6 C -143.1 2413.5, -162.1 2493.0, -219.4 2257.9 C -276.6 2022.8, -236.0 2173.1, -178.8 1938.0 C -121.5 1702.9, -119.2 1767.3, 25.8 1642.2 C 170.8 1517.1, 82.1 1444.4, 247.0 1487.8 C 411.8 1531.2, 397.2 1581.2, 504.8 1772.8 C 612.4 1964.5, 572.4 1844.8, 572.4 2095.0 Z" fill="#A7CCFF" opacity="0.22" filter="url(#blur_crm_01_8781)"/>
  <path d="M 1136.4 -149.0 C 1136.4 -10.4, 1158.1 -79.6, 1050.2 26.6 C 942.3 132.8, 1033.3 168.3, 868.0 192.4 C 702.7 216.5, 771.7 223.1, 626.4 153.8 C 481.0 84.5, 484.5 74.0, 427.1 -56.2 C 369.7 -186.5, 379.5 -120.1, 436.9 -250.4 C 494.3 -380.6, 469.5 -326.4, 614.9 -395.7 C 760.3 -465.0, 700.8 -514.0, 866.1 -490.0 C 1031.4 -465.9, 1000.8 -450.2, 1108.7 -344.0 C 1216.5 -237.8, 1136.4 -287.6, 1136.4 -149.0 Z" fill="#D5F4FF" opacity="0.35" filter="url(#blur_crm_01_8781)"/>
  <path d="M 335.9 659.0 C 335.9 875.0, 313.5 833.8, 191.8 999.2 C 70.0 1164.7, 94.2 1133.9, -92.4 1171.4 C -279.0 1208.9, -197.6 1243.6, -361.7 1135.6 C -525.8 1027.6, -489.2 1021.9, -553.9 818.9 C -618.7 615.9, -558.1 701.4, -493.3 498.4 C -428.6 295.4, -508.3 292.9, -344.2 184.9 C -180.2 76.9, -259.2 164.2, -72.6 201.7 C 114.0 239.2, 44.2 136.6, 166.0 302.1 C 287.8 467.5, 335.9 443.0, 335.9 659.0 Z" fill="#9EE2C2" opacity="0.33" filter="url(#blur_crm_01_8781)"/>
  <path d="M 707.4 35.0 C 707.4 317.6, 811.3 189.5, 653.1 406.0 C 494.9 622.4, 554.7 613.6, 312.3 662.7 C 69.9 711.8, 162.4 759.2, -50.7 617.9 C -263.9 476.6, -315.4 490.6, -399.6 225.0 C -483.8 -40.6, -328.4 78.6, -244.3 -186.9 C -160.1 -452.5, -237.8 -337.1, -24.6 -478.4 C 188.6 -619.7, 39.9 -575.6, 282.4 -526.6 C 524.8 -477.5, 522.7 -627.5, 680.9 -411.0 C 839.2 -194.5, 707.4 -247.6, 707.4 35.0 Z" fill="#A7CCFF" opacity="0.27" filter="url(#blur_crm_01_8781)"/>
  <path d="M 324.7 165.0 C 324.7 415.6, 370.9 265.3, 277.0 468.1 C 183.1 670.9, 229.2 573.1, 77.3 650.5 C -74.6 728.0, -2.3 809.7, -154.2 732.3 C -306.2 654.8, -229.1 653.2, -323.0 450.4 C -416.9 247.6, -370.8 415.7, -370.8 165.0 C -370.8 -85.6, -412.8 65.4, -318.9 -137.4 C -225.0 -340.2, -291.8 -278.8, -139.9 -356.2 C 12.1 -433.7, -84.7 -477.7, 67.2 -400.2 C 219.2 -322.8, 138.6 -372.3, 232.5 -169.6 C 326.4 33.2, 324.7 -85.7, 324.7 165.0 Z" fill="#FBFFFF" opacity="0.12" stroke="#FBFFFF" stroke-opacity="0.46" stroke-width="3" filter="url(#soft_crm_01_8781)"/>
  <path d="M 324.7 165.0 C 324.7 415.6, 370.9 265.3, 277.0 468.1 C 183.1 670.9, 229.2 573.1, 77.3 650.5 C -74.6 728.0, -2.3 809.7, -154.2 732.3 C -306.2 654.8, -229.1 653.2, -323.0 450.4 C -416.9 247.6, -370.8 415.7, -370.8 165.0 C -370.8 -85.6, -412.8 65.4, -318.9 -137.4 C -225.0 -340.2, -291.8 -278.8, -139.9 -356.2 C 12.1 -433.7, -84.7 -477.7, 67.2 -400.2 C 219.2 -322.8, 138.6 -372.3, 232.5 -169.6 C 326.4 33.2, 324.7 -85.7, 324.7 165.0 Z" fill="none" stroke="#FFFFFF" stroke-opacity="0.22" stroke-width="1.2"/>
  <path d="M 1196.8 191.0 C 1196.8 446.1, 1219.4 303.3, 1137.4 509.7 C 1055.4 716.1, 1083.8 660.8, 951.1 739.7 C 818.4 818.5, 900.9 736.1, 768.2 657.3 C 635.5 578.4, 655.1 701.7, 573.1 495.3 C 491.1 288.9, 559.2 446.2, 559.2 191.0 C 559.2 -64.1, 529.8 75.5, 611.7 -130.9 C 693.7 -337.4, 626.8 -326.2, 759.5 -405.0 C 892.2 -483.9, 807.8 -393.5, 940.4 -314.7 C 1073.1 -235.8, 1038.3 -377.6, 1120.3 -171.2 C 1202.3 35.3, 1196.8 -64.2, 1196.8 191.0 Z" fill="#F6F7FF" opacity="0.12" stroke="#FFFFFF" stroke-opacity="0.46" stroke-width="3" filter="url(#soft_crm_01_8781)"/>
  <path d="M 1196.8 191.0 C 1196.8 446.1, 1219.4 303.3, 1137.4 509.7 C 1055.4 716.1, 1083.8 660.8, 951.1 739.7 C 818.4 818.5, 900.9 736.1, 768.2 657.3 C 635.5 578.4, 655.1 701.7, 573.1 495.3 C 491.1 288.9, 559.2 446.2, 559.2 191.0 C 559.2 -64.1, 529.8 75.5, 611.7 -130.9 C 693.7 -337.4, 626.8 -326.2, 759.5 -405.0 C 892.2 -483.9, 807.8 -393.5, 940.4 -314.7 C 1073.1 -235.8, 1038.3 -377.6, 1120.3 -171.2 C 1202.3 35.3, 1196.8 -64.2, 1196.8 191.0 Z" fill="none" stroke="#FFFFFF" stroke-opacity="0.22" stroke-width="1.2"/>
  <path d="M 576.1 1381.0 C 576.1 1765.3, 598.2 1596.2, 455.1 1907.1 C 312.0 2218.0, 447.8 2153.6, 216.3 2272.3 C -15.3 2391.1, 115.7 2356.5, -115.9 2237.8 C -347.4 2119.0, -283.1 2201.4, -426.2 1890.5 C -569.3 1579.6, -476.1 1765.3, -476.1 1381.0 C -476.1 996.7, -489.1 1147.9, -346.0 837.0 C -202.9 526.1, -372.6 679.2, -141.1 560.4 C 90.5 441.7, -22.4 364.1, 209.1 482.9 C 440.7 601.6, 359.6 553.8, 502.7 864.7 C 645.8 1175.6, 576.1 996.7, 576.1 1381.0 Z" fill="#E9FFF1" opacity="0.12" stroke="#FFFFFF" stroke-opacity="0.46" stroke-width="3" filter="url(#soft_crm_01_8781)"/>
  <path d="M 576.1 1381.0 C 576.1 1765.3, 598.2 1596.2, 455.1 1907.1 C 312.0 2218.0, 447.8 2153.6, 216.3 2272.3 C -15.3 2391.1, 115.7 2356.5, -115.9 2237.8 C -347.4 2119.0, -283.1 2201.4, -426.2 1890.5 C -569.3 1579.6, -476.1 1765.3, -476.1 1381.0 C -476.1 996.7, -489.1 1147.9, -346.0 837.0 C -202.9 526.1, -372.6 679.2, -141.1 560.4 C 90.5 441.7, -22.4 364.1, 209.1 482.9 C 440.7 601.6, 359.6 553.8, 502.7 864.7 C 645.8 1175.6, 576.1 996.7, 576.1 1381.0 Z" fill="none" stroke="#FFFFFF" stroke-opacity="0.22" stroke-width="1.2"/>
  <path d="M 1707.5 1935.0 C 1707.5 2191.9, 1737.1 2091.4, 1657.8 2299.3 C 1578.4 2507.1, 1620.8 2445.1, 1492.4 2524.5 C 1364.0 2603.9, 1428.6 2581.9, 1300.2 2502.5 C 1171.8 2423.1, 1221.6 2491.6, 1142.3 2283.7 C 1062.9 2075.8, 1082.9 2191.9, 1082.9 1935.0 C 1082.9 1678.0, 1094.5 1822.4, 1173.9 1614.5 C 1253.2 1406.6, 1180.1 1540.7, 1308.5 1461.3 C 1436.9 1381.9, 1365.8 1294.5, 1494.2 1373.9 C 1622.6 1453.3, 1529.7 1418.6, 1609.1 1626.4 C 1688.4 1834.3, 1707.5 1678.0, 1707.5 1935.0 Z" fill="#E8FAFF" opacity="0.12" stroke="#E8FAFF" stroke-opacity="0.46" stroke-width="3" filter="url(#soft_crm_01_8781)"/>
  <path d="M 1707.5 1935.0 C 1707.5 2191.9, 1737.1 2091.4, 1657.8 2299.3 C 1578.4 2507.1, 1620.8 2445.1, 1492.4 2524.5 C 1364.0 2603.9, 1428.6 2581.9, 1300.2 2502.5 C 1171.8 2423.1, 1221.6 2491.6, 1142.3 2283.7 C 1062.9 2075.8, 1082.9 2191.9, 1082.9 1935.0 C 1082.9 1678.0, 1094.5 1822.4, 1173.9 1614.5 C 1253.2 1406.6, 1180.1 1540.7, 1308.5 1461.3 C 1436.9 1381.9, 1365.8 1294.5, 1494.2 1373.9 C 1622.6 1453.3, 1529.7 1418.6, 1609.1 1626.4 C 1688.4 1834.3, 1707.5 1678.0, 1707.5 1935.0 Z" fill="none" stroke="#FFFFFF" stroke-opacity="0.22" stroke-width="1.2"/>
  <path d="M 174.7 -45.0 C 174.7 181.3, 250.4 42.0, 166.8 225.2 C 83.3 408.3, 136.9 321.5, 1.7 391.4 C -133.6 461.4, -67.3 455.6, -202.5 385.6 C -337.7 315.7, -275.5 446.0, -359.0 262.8 C -442.6 79.7, -384.4 181.4, -384.4 -45.0 C -384.4 -271.3, -462.7 -127.1, -379.1 -310.2 C -295.5 -493.3, -326.6 -466.3, -191.4 -536.2 C -56.1 -606.2, -133.6 -551.1, 1.6 -481.1 C 136.8 -411.2, 93.1 -518.8, 176.6 -335.6 C 260.2 -152.5, 174.7 -271.4, 174.7 -45.0 Z" fill="#F6F7FF" opacity="0.12" stroke="#F6F7FF" stroke-opacity="0.46" stroke-width="3" filter="url(#soft_crm_01_8781)"/>
  <path d="M 174.7 -45.0 C 174.7 181.3, 250.4 42.0, 166.8 225.2 C 83.3 408.3, 136.9 321.5, 1.7 391.4 C -133.6 461.4, -67.3 455.6, -202.5 385.6 C -337.7 315.7, -275.5 446.0, -359.0 262.8 C -442.6 79.7, -384.4 181.4, -384.4 -45.0 C -384.4 -271.3, -462.7 -127.1, -379.1 -310.2 C -295.5 -493.3, -326.6 -466.3, -191.4 -536.2 C -56.1 -606.2, -133.6 -551.1, 1.6 -481.1 C 136.8 -411.2, 93.1 -518.8, 176.6 -335.6 C 260.2 -152.5, 174.7 -271.4, 174.7 -45.0 Z" fill="none" stroke="#FFFFFF" stroke-opacity="0.22" stroke-width="1.2"/>
  <path d="M 388.5 -278.0 C 388.5 -68.3, 383.9 -147.8, 261.7 21.9 C 139.5 191.5, 248.7 97.3, 51.0 162.1 C -146.7 226.9, -22.0 206.3, -219.8 141.5 C -417.5 76.7, -326.9 137.0, -449.1 -32.6 C -571.3 -202.3, -546.0 -68.3, -546.0 -278.0 C -546.0 -487.7, -548.1 -366.8, -425.9 -536.5 C -303.7 -706.2, -447.4 -686.7, -249.7 -751.5 C -52.0 -816.3, -154.0 -744.2, 43.8 -679.4 C 241.5 -614.6, 182.4 -705.4, 304.6 -535.8 C 426.8 -366.1, 388.5 -487.7, 388.5 -278.0 Z" fill="#A7CCFF" opacity="0.12" stroke="#FFFFFF" stroke-opacity="0.46" stroke-width="3" filter="url(#soft_crm_01_8781)"/>
  <path d="M 388.5 -278.0 C 388.5 -68.3, 383.9 -147.8, 261.7 21.9 C 139.5 191.5, 248.7 97.3, 51.0 162.1 C -146.7 226.9, -22.0 206.3, -219.8 141.5 C -417.5 76.7, -326.9 137.0, -449.1 -32.6 C -571.3 -202.3, -546.0 -68.3, -546.0 -278.0 C -546.0 -487.7, -548.1 -366.8, -425.9 -536.5 C -303.7 -706.2, -447.4 -686.7, -249.7 -751.5 C -52.0 -816.3, -154.0 -744.2, 43.8 -679.4 C 241.5 -614.6, 182.4 -705.4, 304.6 -535.8 C 426.8 -366.1, 388.5 -487.7, 388.5 -278.0 Z" fill="none" stroke="#FFFFFF" stroke-opacity="0.22" stroke-width="1.2"/>
  <path d="M -100.0 2495.4 Q 133.3 2674.2, 366.7 2747.0 Q 600.0 2520.4, 833.3 2389.4 Q 1066.7 2447.3, 1300.0 2604.0" fill="none" stroke="#FFFFFF" stroke-opacity="0.38" stroke-width="4" filter="url(#soft_crm_01_8781)"/>
  <path d="M -100.0 2495.4 Q 133.3 2674.2, 366.7 2747.0 Q 600.0 2520.4, 833.3 2389.4 Q 1066.7 2447.3, 1300.0 2604.0" fill="none" stroke="#A7CCFF" stroke-opacity="0.18" stroke-width="2"/>
  <path d="M -100.0 -19.6 Q 133.3 -78.3, 366.7 -146.8 Q 600.0 -18.4, 833.3 147.5 Q 1066.7 307.6, 1300.0 345.4" fill="none" stroke="#FFFFFF" stroke-opacity="0.38" stroke-width="4" filter="url(#soft_crm_01_8781)"/>
  <path d="M -100.0 -19.6 Q 133.3 -78.3, 366.7 -146.8 Q 600.0 -18.4, 833.3 147.5 Q 1066.7 307.6, 1300.0 345.4" fill="none" stroke="#6DB6CF" stroke-opacity="0.18" stroke-width="2"/>
  <path d="M -100.0 2465.3 Q 133.3 2437.9, 366.7 2226.2 Q 600.0 2198.8, 833.3 2136.3 Q 1066.7 2186.8, 1300.0 2357.6" fill="none" stroke="#FFFFFF" stroke-opacity="0.38" stroke-width="4" filter="url(#soft_crm_01_8781)"/>
  <path d="M -100.0 2465.3 Q 133.3 2437.9, 366.7 2226.2 Q 600.0 2198.8, 833.3 2136.3 Q 1066.7 2186.8, 1300.0 2357.6" fill="none" stroke="#9EE2C2" stroke-opacity="0.18" stroke-width="2"/>
  <path d="M -100.0 532.8 Q 133.3 600.7, 366.7 378.4 Q 600.0 378.5, 833.3 350.2 Q 1066.7 374.4, 1300.0 451.0" fill="none" stroke="#FFFFFF" stroke-opacity="0.38" stroke-width="4" filter="url(#soft_crm_01_8781)"/>
  <path d="M -100.0 532.8 Q 133.3 600.7, 366.7 378.4 Q 600.0 378.5, 833.3 350.2 Q 1066.7 374.4, 1300.0 451.0" fill="none" stroke="#6DB6CF" stroke-opacity="0.18" stroke-width="2"/>
  <path d="M -100.0 872.4 Q 133.3 662.0, 366.7 562.0 Q 600.0 873.0, 833.3 1209.6 Q 1066.7 1109.6, 1300.0 749.4" fill="none" stroke="#FFFFFF" stroke-opacity="0.38" stroke-width="4" filter="url(#soft_crm_01_8781)"/>
  <path d="M -100.0 872.4 Q 133.3 662.0, 366.7 562.0 Q 600.0 873.0, 833.3 1209.6 Q 1066.7 1109.6, 1300.0 749.4" fill="none" stroke="#6DB6CF" stroke-opacity="0.18" stroke-width="2"/>
  <circle cx="1204" cy="1110" r="246" fill="url(#orb_crm_01_8781)" opacity="0.36"/>
  <circle cx="1204" cy="1110" r="246" fill="#6DB6CF" opacity="0.08"/>
  <circle cx="1204" cy="1110" r="246" fill="none" stroke="#FFFFFF" stroke-opacity="0.56" stroke-width="3"/>
  <ellipse cx="1135.1" cy="1021.4" rx="44.3" ry="19.7" fill="#FFFFFF" opacity="0.42" transform="rotate(-22 1135.1 1021.4)"/>
  <circle cx="1152" cy="2664" r="203" fill="url(#orb_crm_01_8781)" opacity="0.36"/>
  <circle cx="1152" cy="2664" r="203" fill="#E9FFF1" opacity="0.08"/>
  <circle cx="1152" cy="2664" r="203" fill="none" stroke="#FFFFFF" stroke-opacity="0.56" stroke-width="3"/>
  <ellipse cx="1095.2" cy="2590.9" rx="36.5" ry="16.2" fill="#FFFFFF" opacity="0.42" transform="rotate(-22 1095.2 2590.9)"/>
  <circle cx="83" cy="914" r="240" fill="url(#orb_crm_01_8781)" opacity="0.36"/>
  <circle cx="83" cy="914" r="240" fill="#D5F4FF" opacity="0.08"/>
  <circle cx="83" cy="914" r="240" fill="none" stroke="#FFFFFF" stroke-opacity="0.56" stroke-width="3"/>
  <ellipse cx="15.8" cy="827.6" rx="43.2" ry="19.2" fill="#FFFFFF" opacity="0.42" transform="rotate(-22 15.8 827.6)"/>
  <circle cx="537" cy="2441" r="255" fill="url(#orb_crm_01_8781)" opacity="0.22"/>
  <circle cx="537" cy="2441" r="255" fill="#FBFFFF" opacity="0.08"/>
  <circle cx="537" cy="2441" r="255" fill="none" stroke="#FFFFFF" stroke-opacity="0.56" stroke-width="3"/>
  <ellipse cx="465.6" cy="2349.2" rx="45.9" ry="20.4" fill="#FFFFFF" opacity="0.42" transform="rotate(-22 465.6 2349.2)"/>
  <circle cx="531" cy="1763" r="154" fill="url(#orb_crm_01_8781)" opacity="0.17"/>
  <circle cx="531" cy="1763" r="154" fill="#FBFFFF" opacity="0.08"/>
  <circle cx="531" cy="1763" r="154" fill="none" stroke="#FFFFFF" stroke-opacity="0.56" stroke-width="3"/>
  <ellipse cx="487.9" cy="1707.6" rx="27.7" ry="12.3" fill="#FFFFFF" opacity="0.42" transform="rotate(-22 487.9 1707.6)"/>
  <circle cx="336" cy="195" r="99" fill="url(#orb_crm_01_8781)" opacity="0.21"/>
  <circle cx="336" cy="195" r="99" fill="#F6F7FF" opacity="0.08"/>
  <circle cx="336" cy="195" r="99" fill="none" stroke="#FFFFFF" stroke-opacity="0.56" stroke-width="3"/>
  <ellipse cx="308.3" cy="159.4" rx="17.8" ry="7.9" fill="#FFFFFF" opacity="0.42" transform="rotate(-22 308.3 159.4)"/>
  <circle cx="473" cy="1722" r="201" fill="url(#orb_crm_01_8781)" opacity="0.24"/>
  <circle cx="473" cy="1722" r="201" fill="#6DB6CF" opacity="0.08"/>
  <circle cx="473" cy="1722" r="201" fill="none" stroke="#FFFFFF" stroke-opacity="0.56" stroke-width="3"/>
  <ellipse cx="416.7" cy="1649.6" rx="36.2" ry="16.1" fill="#FFFFFF" opacity="0.42" transform="rotate(-22 416.7 1649.6)"/>
  <circle cx="846" cy="1766" r="130" fill="url(#orb_crm_01_8781)" opacity="0.22"/>
  <circle cx="846" cy="1766" r="130" fill="#F6F7FF" opacity="0.08"/>
  <circle cx="846" cy="1766" r="130" fill="none" stroke="#FFFFFF" stroke-opacity="0.56" stroke-width="3"/>
  <ellipse cx="809.6" cy="1719.2" rx="23.4" ry="10.4" fill="#FFFFFF" opacity="0.42" transform="rotate(-22 809.6 1719.2)"/>
  <circle cx="833" cy="1258" r="204" fill="url(#orb_crm_01_8781)" opacity="0.21"/>
  <circle cx="833" cy="1258" r="204" fill="#D5F4FF" opacity="0.08"/>
  <circle cx="833" cy="1258" r="204" fill="none" stroke="#FFFFFF" stroke-opacity="0.56" stroke-width="3"/>
  <ellipse cx="775.9" cy="1184.6" rx="36.7" ry="16.3" fill="#FFFFFF" opacity="0.42" transform="rotate(-22 775.9 1184.6)"/>
  <circle cx="597" cy="1187" r="111" fill="url(#orb_crm_01_8781)" opacity="0.20"/>
  <circle cx="597" cy="1187" r="111" fill="#D5F4FF" opacity="0.08"/>
  <circle cx="597" cy="1187" r="111" fill="none" stroke="#FFFFFF" stroke-opacity="0.56" stroke-width="3"/>
  <ellipse cx="565.9" cy="1147.0" rx="20.0" ry="8.9" fill="#FFFFFF" opacity="0.42" transform="rotate(-22 565.9 1147.0)"/>
  <circle cx="1061" cy="344" r="5" fill="#FFFFFF" opacity="0.43"/>
  <circle cx="151" cy="837" r="4" fill="#FFFFFF" opacity="0.33"/>
  <circle cx="1045" cy="1039" r="4" fill="#FFFFFF" opacity="0.37"/>
  <circle cx="867" cy="2380" r="2" fill="#FFFFFF" opacity="0.51"/>
  <circle cx="935" cy="1608" r="7" fill="#FFFFFF" opacity="0.34"/>
  <circle cx="767" cy="1465" r="3" fill="#FFFFFF" opacity="0.67"/>
  <circle cx="631" cy="1258" r="5" fill="#FFFFFF" opacity="0.43"/>
  <circle cx="432" cy="1369" r="4" fill="#FFFFFF" opacity="0.43"/>
  <circle cx="141" cy="666" r="7" fill="#FFFFFF" opacity="0.50"/>
  <circle cx="725" cy="2018" r="7" fill="#FFFFFF" opacity="0.52"/>
  <circle cx="686" cy="470" r="4" fill="#FFFFFF" opacity="0.39"/>
  <circle cx="480" cy="1656" r="2" fill="#FFFFFF" opacity="0.61"/>
  <circle cx="198" cy="512" r="7" fill="#FFFFFF" opacity="0.45"/>
  <circle cx="477" cy="207" r="5" fill="#FFFFFF" opacity="0.52"/>
  <circle cx="948" cy="861" r="4" fill="#FFFFFF" opacity="0.34"/>
  <circle cx="218" cy="2386" r="4" fill="#FFFFFF" opacity="0.49"/>
  <circle cx="547" cy="1000" r="5" fill="#FFFFFF" opacity="0.32"/>
  <circle cx="423" cy="2556" r="7" fill="#FFFFFF" opacity="0.63"/>
  <circle cx="532" cy="1369" r="7" fill="#FFFFFF" opacity="0.62"/>
  <circle cx="1086" cy="1411" r="3" fill="#FFFFFF" opacity="0.60"/>
  <circle cx="600" cy="1904" r="7" fill="#FFFFFF" opacity="0.65"/>
  <rect width="1200" height="2600" fill="#FFFFFF" opacity="0.08"/>
  <rect width="1200" height="2600" filter="url(#grain_crm_01_8781)" opacity="0.7"/>
</svg>
