<svg xmlns="http://www.w3.org/2000/svg" width="1200" height="2600" viewBox="0 0 1200 2600" preserveAspectRatio="xMidYMid slice">
  <defs>
    <linearGradient id="bg_crm_05_1948" x1="0" y1="0" x2="1" y2="1">
      <stop offset="0%" stop-color="#F6F7FF"/>
      <stop offset="48%" stop-color="#E8FAFF"/>
      <stop offset="100%" stop-color="#E9FFF1"/>
    </linearGradient>
    <radialGradient id="orb_crm_05_1948" cx="35%" cy="30%" r="70%">
      <stop offset="0%" stop-color="#FFFFFF" stop-opacity="0.85"/>
      <stop offset="42%" stop-color="#FFFFFF" stop-opacity="0.20"/>
      <stop offset="100%" stop-color="#FFFFFF" stop-opacity="0.02"/>
    </radialGradient>
    <filter id="blur_crm_05_1948" x="-30%" y="-30%" width="160%" height="160%">
      <feGaussianBlur stdDeviation="72"/>
    </filter>
    <filter id="soft_crm_05_1948" x="-20%" y="-20%" width="140%" height="140%">
      <feGaussianBlur stdDeviation="10"/>
    </filter>
    <filter id="grain_crm_05_1948">
      <feTurbulence type="fractalNoise" baseFrequency="0.85" numOctaves="2" stitchTiles="stitch"/>
      <feColorMatrix type="saturate" values="0"/>
      <feComponentTransfer>
        <feFuncA type="table" tableValues="0 0.035"/>
      </feComponentTransfer>
    </filter>
  </defs>
  <rect width="1200" height="2600" fill="url(#bg_crm_05_1948)"/>
  <path d="M 176.7 2292.0 C 176.7 2430.6, 229.9 2366.2, 160.2 2472.3 C 90.4 2578.5, 108.8 2533.6, 2.0 2557.7 C -104.9 2581.7, -46.2 2645.1, -140.2 2575.8 C -234.1 2506.5, -191.9 2529.7, -229.0 2399.4 C -266.0 2269.2, -314.6 2320.4, -277.5 2190.1 C -240.4 2059.9, -245.6 2110.9, -151.7 2041.6 C -57.8 1972.3, -106.2 1948.8, 0.6 1972.9 C 107.4 1997.0, 84.8 1968.9, 154.5 2075.1 C 224.2 2181.2, 176.7 2153.4, 176.7 2292.0 Z" fill="#A7CCFF" opacity="0.33" filter="url(#blur_crm_05_1948)"/>
  <path d="M 1405.6 2559.0 C 1405.6 2694.4, 1391.5 2634.4, 1301.2 2738.1 C 1211.0 2841.9, 1283.1 2859.5, 1144.8 2883.0 C 1006.5 2906.5, 1047.5 2864.2, 925.9 2796.5 C 804.3 2728.8, 857.4 2799.1, 809.4 2671.8 C 761.4 2544.6, 736.3 2567.6, 784.3 2440.3 C 832.3 2313.0, 842.6 2334.1, 964.2 2266.4 C 1085.8 2198.6, 1003.8 2286.0, 1142.0 2309.5 C 1280.3 2333.1, 1268.3 2286.9, 1358.5 2390.6 C 1448.8 2494.4, 1405.6 2423.6, 1405.6 2559.0 Z" fill="#6DB6CF" opacity="0.31" filter="url(#blur_crm_05_1948)"/>
  <path d="M 1343.1 910.0 C 1343.1 1163.8, 1334.7 1024.0, 1214.3 1218.4 C 1094.0 1412.8, 1109.1 1421.5, 924.8 1465.6 C 740.4 1509.6, 809.0 1555.1, 646.9 1428.2 C 484.7 1301.3, 482.0 1327.4, 418.0 1088.9 C 354.0 850.4, 420.5 981.6, 484.5 743.1 C 548.6 504.6, 487.0 629.7, 649.1 502.8 C 811.3 375.9, 758.0 329.2, 942.3 373.2 C 1126.7 417.3, 1017.3 298.3, 1137.7 492.7 C 1258.0 687.2, 1343.1 656.2, 1343.1 910.0 Z" fill="#D5F4FF" opacity="0.29" filter="url(#blur_crm_05_1948)"/>
  <path d="M 1301.9 329.0 C 1301.9 484.2, 1366.9 400.8, 1231.5 519.8 C 1096.1 638.7, 1156.1 675.2, 948.7 702.2 C 741.3 729.1, 782.9 685.0, 600.5 607.4 C 418.1 529.8, 476.7 598.6, 404.6 452.7 C 332.6 306.8, 418.5 339.9, 490.5 194.0 C 562.6 48.1, 451.3 97.2, 633.7 19.6 C 816.0 -58.0, 730.0 -65.3, 937.4 -38.4 C 1144.8 -11.4, 1069.9 22.4, 1205.3 141.3 C 1340.7 260.2, 1301.9 173.8, 1301.9 329.0 Z" fill="#A7CCFF" opacity="0.20" filter="url(#blur_crm_05_1948)"/>
  <path d="M 1128.4 -22.0 C 1128.4 172.4, 1068.1 140.8, 935.9 289.7 C 803.8 438.6, 888.8 403.3, 686.3 437.0 C 483.8 470.8, 512.8 397.6, 334.7 300.4 C 156.6 203.2, 267.5 290.6, 197.2 108.0 C 126.9 -74.7, 57.2 -5.2, 127.5 -187.9 C 197.8 -370.6, 180.6 -353.6, 358.7 -450.8 C 536.8 -548.0, 475.2 -445.2, 677.7 -411.5 C 880.3 -377.7, 837.1 -456.3, 969.3 -307.4 C 1101.5 -158.5, 1128.4 -216.4, 1128.4 -22.0 Z" fill="#9EE2C2" opacity="0.35" filter="url(#blur_crm_05_1948)"/>
  <path d="M 1399.4 1627.0 C 1399.4 1863.2, 1395.7 1738.3, 1267.0 1919.3 C 1138.3 2100.3, 1215.8 2131.6, 1018.6 2172.6 C 821.4 2213.6, 885.9 2273.0, 712.5 2154.9 C 539.0 2036.7, 531.1 2002.4, 462.6 1780.4 C 394.1 1558.4, 450.7 1687.2, 519.2 1465.2 C 587.7 1243.2, 549.8 1252.8, 723.2 1134.7 C 896.7 1016.6, 826.2 1083.1, 1023.4 1124.2 C 1220.6 1165.2, 1147.5 1092.1, 1276.3 1273.0 C 1405.0 1454.0, 1399.4 1390.8, 1399.4 1627.0 Z" fill="#A7CCFF" opacity="0.17" filter="url(#blur_crm_05_1948)"/>
  <path d="M 676.9 2068.0 C 676.9 2375.8, 636.7 2233.5, 513.2 2469.3 C 389.7 2705.1, 512.6 2640.8, 323.4 2694.2 C 134.2 2747.7, 152.7 2832.3, -13.7 2678.4 C -180.1 2524.5, -88.2 2580.7, -154.0 2291.4 C -219.7 2002.2, -294.0 2145.3, -228.3 1856.1 C -162.6 1566.8, -116.1 1715.4, 50.3 1561.5 C 216.7 1407.6, 127.1 1452.9, 316.4 1506.4 C 505.6 1559.8, 401.7 1388.5, 525.2 1624.3 C 648.7 1860.1, 676.9 1760.2, 676.9 2068.0 Z" fill="#FBFFFF" opacity="0.35" filter="url(#blur_crm_05_1948)"/>
  <path d="M 538.3 2285.0 C 538.3 2497.4, 542.4 2437.5, 443.5 2600.2 C 344.6 2762.9, 414.4 2792.9, 262.9 2829.8 C 111.3 2866.7, 152.8 2840.5, 19.6 2734.3 C -113.7 2628.1, -14.4 2633.7, -67.0 2434.1 C -119.7 2234.5, -145.7 2352.1, -93.1 2152.5 C -40.4 1952.9, -104.5 1923.8, 28.7 1817.6 C 162.0 1711.4, 102.9 1805.8, 254.4 1842.7 C 406.0 1879.5, 368.6 1866.0, 467.5 2028.7 C 566.4 2191.5, 538.3 2072.6, 538.3 2285.0 Z" fill="#D5F4FF" opacity="0.22" filter="url(#blur_crm_05_1948)"/>
  <path d="M 1667.4 1455.0 C 1667.4 1636.3, 1723.6 1554.2, 1574.6 1693.1 C 1425.6 1832.1, 1444.2 1765.2, 1216.0 1796.7 C 987.7 1828.2, 1103.2 1886.1, 902.5 1795.5 C 701.8 1704.8, 780.5 1777.5, 701.3 1607.1 C 622.0 1436.6, 640.2 1495.4, 719.5 1325.0 C 798.7 1154.6, 696.3 1250.9, 897.0 1160.3 C 1097.7 1069.6, 1000.1 1051.2, 1228.4 1082.7 C 1456.6 1114.2, 1327.5 1062.6, 1476.5 1201.5 C 1625.4 1340.4, 1667.4 1273.7, 1667.4 1455.0 Z" fill="#A7CCFF" opacity="0.30" filter="url(#blur_crm_05_1948)"/>
  <path d="M 428.2 42.0 C 428.2 373.2, 495.5 173.3, 408.8 441.2 C 322.0 709.2, 352.3 633.5, 211.9 735.8 C 71.6 838.2, 158.7 757.8, 18.3 655.4 C -122.1 553.1, -41.5 701.5, -128.2 433.5 C -215.0 165.6, -203.9 373.2, -203.9 42.0 C -203.9 -289.2, -234.9 -97.7, -148.2 -365.6 C -61.4 -633.6, -131.1 -525.9, 9.3 -628.2 C 149.7 -730.6, 62.4 -856.1, 202.7 -753.7 C 343.1 -651.4, 285.3 -665.4, 372.1 -397.5 C 458.8 -129.5, 428.2 -289.2, 428.2 42.0 Z" fill="#E8FAFF" opacity="0.12" stroke="#E8FAFF" stroke-opacity="0.46" stroke-width="3" filter="url(#soft_crm_05_1948)"/>
  <path d="M 428.2 42.0 C 428.2 373.2, 495.5 173.3, 408.8 441.2 C 322.0 709.2, 352.3 633.5, 211.9 735.8 C 71.6 838.2, 158.7 757.8, 18.3 655.4 C -122.1 553.1, -41.5 701.5, -128.2 433.5 C -215.0 165.6, -203.9 373.2, -203.9 42.0 C -203.9 -289.2, -234.9 -97.7, -148.2 -365.6 C -61.4 -633.6, -131.1 -525.9, 9.3 -628.2 C 149.7 -730.6, 62.4 -856.1, 202.7 -753.7 C 343.1 -651.4, 285.3 -665.4, 372.1 -397.5 C 458.8 -129.5, 428.2 -289.2, 428.2 42.0 Z" fill="none" stroke="#FFFFFF" stroke-opacity="0.22" stroke-width="1.2"/>
  <path d="M 1102.7 2744.0 C 1102.7 2953.7, 1252.5 2868.2, 1086.6 3037.9 C 920.8 3207.5, 971.6 3138.3, 703.3 3203.1 C 435.0 3267.9, 578.6 3203.4, 310.3 3138.6 C 41.9 3073.8, 251.1 3166.7, 85.3 2997.0 C -80.6 2827.4, -141.2 2953.7, -141.2 2744.0 C -141.2 2534.3, -76.6 2640.0, 89.3 2470.4 C 255.1 2300.7, 64.8 2394.6, 333.2 2329.8 C 601.5 2265.0, 439.5 2284.9, 707.9 2349.7 C 976.2 2414.5, 894.6 2295.7, 1060.5 2465.4 C 1226.3 2635.0, 1102.7 2534.3, 1102.7 2744.0 Z" fill="#E9FFF1" opacity="0.12" stroke="#E9FFF1" stroke-opacity="0.46" stroke-width="3" filter="url(#soft_crm_05_1948)"/>
  <path d="M 1102.7 2744.0 C 1102.7 2953.7, 1252.5 2868.2, 1086.6 3037.9 C 920.8 3207.5, 971.6 3138.3, 703.3 3203.1 C 435.0 3267.9, 578.6 3203.4, 310.3 3138.6 C 41.9 3073.8, 251.1 3166.7, 85.3 2997.0 C -80.6 2827.4, -141.2 2953.7, -141.2 2744.0 C -141.2 2534.3, -76.6 2640.0, 89.3 2470.4 C 255.1 2300.7, 64.8 2394.6, 333.2 2329.8 C 601.5 2265.0, 439.5 2284.9, 707.9 2349.7 C 976.2 2414.5, 894.6 2295.7, 1060.5 2465.4 C 1226.3 2635.0, 1102.7 2534.3, 1102.7 2744.0 Z" fill="none" stroke="#FFFFFF" stroke-opacity="0.22" stroke-width="1.2"/>
  <path d="M 597.7 1496.0 C 597.7 1865.5, 654.2 1664.5, 524.9 1963.3 C 395.5 2262.2, 479.0 2097.9, 269.7 2212.1 C 60.4 2326.3, 173.6 2468.2, -35.7 2354.1 C -244.9 2239.9, -188.3 2226.8, -317.6 1927.9 C -447.0 1629.0, -367.9 1865.5, -367.9 1496.0 C -367.9 1126.6, -358.5 1264.7, -229.2 965.8 C -99.8 666.9, -233.0 936.6, -23.7 822.4 C 185.6 708.3, 73.1 670.5, 282.3 784.7 C 491.6 898.8, 448.5 675.9, 577.8 974.8 C 707.2 1273.7, 597.7 1126.5, 597.7 1496.0 Z" fill="#D5F4FF" opacity="0.12" stroke="#FFFFFF" stroke-opacity="0.46" stroke-width="3" filter="url(#soft_crm_05_1948)"/>
  <path d="M 597.7 1496.0 C 597.7 1865.5, 654.2 1664.5, 524.9 1963.3 C 395.5 2262.2, 479.0 2097.9, 269.7 2212.1 C 60.4 2326.3, 173.6 2468.2, -35.7 2354.1 C -244.9 2239.9, -188.3 2226.8, -317.6 1927.9 C -447.0 1629.0, -367.9 1865.5, -367.9 1496.0 C -367.9 1126.6, -358.5 1264.7, -229.2 965.8 C -99.8 666.9, -233.0 936.6, -23.7 822.4 C 185.6 708.3, 73.1 670.5, 282.3 784.7 C 491.6 898.8, 448.5 675.9, 577.8 974.8 C 707.2 1273.7, 597.7 1126.5, 597.7 1496.0 Z" fill="none" stroke="#FFFFFF" stroke-opacity="0.22" stroke-width="1.2"/>
  <path d="M 1757.4 637.0 C 1757.4 1029.8, 1749.7 820.4, 1604.8 1138.2 C 1459.8 1456.1, 1589.1 1404.3, 1354.6 1525.7 C 1120.0 1647.1, 1293.1 1656.2, 1058.6 1534.8 C 824.0 1413.4, 918.1 1505.0, 773.2 1187.2 C 628.2 869.4, 653.4 1029.9, 653.4 637.0 C 653.4 244.2, 601.0 424.7, 746.0 106.9 C 890.9 -211.0, 807.6 -8.2, 1042.1 -129.6 C 1276.6 -251.0, 1161.4 -286.8, 1395.9 -165.4 C 1630.5 -44.0, 1469.5 -179.2, 1614.4 138.6 C 1759.4 456.4, 1757.4 244.1, 1757.4 637.0 Z" fill="#D5F4FF" opacity="0.12" stroke="#FFFFFF" stroke-opacity="0.46" stroke-width="3" filter="url(#soft_crm_05_1948)"/>
  <path d="M 1757.4 637.0 C 1757.4 1029.8, 1749.7 820.4, 1604.8 1138.2 C 1459.8 1456.1, 1589.1 1404.3, 1354.6 1525.7 C 1120.0 1647.1, 1293.1 1656.2, 1058.6 1534.8 C 824.0 1413.4, 918.1 1505.0, 773.2 1187.2 C 628.2 869.4, 653.4 1029.9, 653.4 637.0 C 653.4 244.2, 601.0 424.7, 746.0 106.9 C 890.9 -211.0, 807.6 -8.2, 1042.1 -129.6 C 1276.6 -251.0, 1161.4 -286.8, 1395.9 -165.4 C 1630.5 -44.0, 1469.5 -179.2, 1614.4 138.6 C 1759.4 456.4, 1757.4 244.1, 1757.4 637.0 Z" fill="none" stroke="#FFFFFF" stroke-opacity="0.22" stroke-width="1.2"/>
  <path d="M 983.0 1572.0 C 983.0 1878.0, 987.8 1774.4, 890.5 2022.0 C 793.1 2269.5, 907.8 2168.5, 750.3 2263.1 C 592.8 2357.7, 684.8 2310.3, 527.3 2215.8 C 369.8 2121.2, 452.4 2194.8, 355.1 1947.3 C 257.7 1699.7, 232.4 1878.0, 232.4 1572.0 C 232.4 1266.0, 236.7 1409.4, 334.0 1161.8 C 431.3 914.3, 373.1 940.1, 530.6 845.5 C 688.1 751.0, 604.4 770.6, 761.9 865.2 C 919.4 959.7, 873.8 938.7, 971.1 1186.3 C 1068.5 1433.8, 983.0 1266.0, 983.0 1572.0 Z" fill="#FBFFFF" opacity="0.12" stroke="#FBFFFF" stroke-opacity="0.46" stroke-width="3" filter="url(#soft_crm_05_1948)"/>
  <path d="M 983.0 1572.0 C 983.0 1878.0, 987.8 1774.4, 890.5 2022.0 C 793.1 2269.5, 907.8 2168.5, 750.3 2263.1 C 592.8 2357.7, 684.8 2310.3, 527.3 2215.8 C 369.8 2121.2, 452.4 2194.8, 355.1 1947.3 C 257.7 1699.7, 232.4 1878.0, 232.4 1572.0 C 232.4 1266.0, 236.7 1409.4, 334.0 1161.8 C 431.3 914.3, 373.1 940.1, 530.6 845.5 C 688.1 751.0, 604.4 770.6, 761.9 865.2 C 919.4 959.7, 873.8 938.7, 971.1 1186.3 C 1068.5 1433.8, 983.0 1266.0, 983.0 1572.0 Z" fill="none" stroke="#FFFFFF" stroke-opacity="0.22" stroke-width="1.2"/>
  <path d="M -100.0 1735.0 Q 133.3 1725.1, 366.7 1435.0 Q 600.0 1107.1, 833.3 1170.6 Q 1066.7 1581.9, 1300.0 1737.4" fill="none" stroke="#FFFFFF" stroke-opacity="0.38" stroke-width="4" filter="url(#soft_crm_05_1948)"/>
  <path d="M -100.0 1735.0 Q 133.3 1725.1, 366.7 1435.0 Q 600.0 1107.1, 833.3 1170.6 Q 1066.7 1581.9, 1300.0 1737.4" fill="none" stroke="#6DB6CF" stroke-opacity="0.18" stroke-width="2"/>
  <path d="M -100.0 2043.1 Q 133.3 2126.4, 366.7 2416.2 Q 600.0 2572.3, 833.3 2365.5 Q 1066.7 2037.4, 1300.0 1951.6" fill="none" stroke="#FFFFFF" stroke-opacity="0.38" stroke-width="4" filter="url(#soft_crm_05_1948)"/>
  <path d="M -100.0 2043.1 Q 133.3 2126.4, 366.7 2416.2 Q 600.0 2572.3, 833.3 2365.5 Q 1066.7 2037.4, 1300.0 1951.6" fill="none" stroke="#6DB6CF" stroke-opacity="0.18" stroke-width="2"/>
  <path d="M -100.0 2436.2 Q 133.3 2455.2, 366.7 2730.0 Q 600.0 2630.4, 833.3 2612.5 Q 1066.7 2356.7, 1300.0 2533.0" fill="none" stroke="#FFFFFF" stroke-opacity="0.38" stroke-width="4" filter="url(#soft_crm_05_1948)"/>
  <path d="M -100.0 2436.2 Q 133.3 2455.2, 366.7 2730.0 Q 600.0 2630.4, 833.3 2612.5 Q 1066.7 2356.7, 1300.0 2533.0" fill="none" stroke="#A7CCFF" stroke-opacity="0.18" stroke-width="2"/>
  <circle cx="779" cy="894" r="119" fill="url(#orb_crm_05_1948)" opacity="0.36"/>
  <circle cx="779" cy="894" r="119" fill="#A7CCFF" opacity="0.08"/>
  <circle cx="779" cy="894" r="119" fill="none" stroke="#FFFFFF" stroke-opacity="0.56" stroke-width="3"/>
  <ellipse cx="745.7" cy="851.2" rx="21.4" ry="9.5" fill="#FFFFFF" opacity="0.42" transform="rotate(-22 745.7 851.2)"/>
  <circle cx="583" cy="721" r="182" fill="url(#orb_crm_05_1948)" opacity="0.36"/>
  <circle cx="583" cy="721" r="182" fill="#E9FFF1" opacity="0.08"/>
  <circle cx="583" cy="721" r="182" fill="none" stroke="#FFFFFF" stroke-opacity="0.56" stroke-width="3"/>
  <ellipse cx="532.0" cy="655.5" rx="32.8" ry="14.6" fill="#FFFFFF" opacity="0.42" transform="rotate(-22 532.0 655.5)"/>
  <circle cx="666" cy="1512" r="189" fill="url(#orb_crm_05_1948)" opacity="0.36"/>
  <circle cx="666" cy="1512" r="189" fill="#E9FFF1" opacity="0.08"/>
  <circle cx="666" cy="1512" r="189" fill="none" stroke="#FFFFFF" stroke-opacity="0.56" stroke-width="3"/>
  <ellipse cx="613.1" cy="1444.0" rx="34.0" ry="15.1" fill="#FFFFFF" opacity="0.42" transform="rotate(-22 613.1 1444.0)"/>
  <circle cx="147" cy="245" r="142" fill="url(#orb_crm_05_1948)" opacity="0.17"/>
  <circle cx="147" cy="245" r="142" fill="#E9FFF1" opacity="0.08"/>
  <circle cx="147" cy="245" r="142" fill="none" stroke="#FFFFFF" stroke-opacity="0.56" stroke-width="3"/>
  <ellipse cx="107.2" cy="193.9" rx="25.6" ry="11.4" fill="#FFFFFF" opacity="0.42" transform="rotate(-22 107.2 193.9)"/>
  <circle cx="636" cy="-84" r="100" fill="url(#orb_crm_05_1948)" opacity="0.23"/>
  <circle cx="636" cy="-84" r="100" fill="#9EE2C2" opacity="0.08"/>
  <circle cx="636" cy="-84" r="100" fill="none" stroke="#FFFFFF" stroke-opacity="0.56" stroke-width="3"/>
  <ellipse cx="608.0" cy="-120.0" rx="18.0" ry="8.0" fill="#FFFFFF" opacity="0.42" transform="rotate(-22 608.0 -120.0)"/>
  <circle cx="626" cy="2097" r="195" fill="url(#orb_crm_05_1948)" opacity="0.18"/>
  <circle cx="626" cy="2097" r="195" fill="#D5F4FF" opacity="0.08"/>
  <circle cx="626" cy="2097" r="195" fill="none" stroke="#FFFFFF" stroke-opacity="0.56" stroke-width="3"/>
  <ellipse cx="571.4" cy="2026.8" rx="35.1" ry="15.6" fill="#FFFFFF" opacity="0.42" transform="rotate(-22 571.4 2026.8)"/>
  <circle cx="13" cy="1059" r="125" fill="url(#orb_crm_05_1948)" opacity="0.24"/>
  <circle cx="13" cy="1059" r="125" fill="#9EE2C2" opacity="0.08"/>
  <circle cx="13" cy="1059" r="125" fill="none" stroke="#FFFFFF" stroke-opacity="0.56" stroke-width="3"/>
  <ellipse cx="-22.0" cy="1014.0" rx="22.5" ry="10.0" fill="#FFFFFF" opacity="0.42" transform="rotate(-22 -22.0 1014.0)"/>
  <circle cx="87" cy="1963" r="175" fill="url(#orb_crm_05_1948)" opacity="0.20"/>
  <circle cx="87" cy="1963" r="175" fill="#E8FAFF" opacity="0.08"/>
  <circle cx="87" cy="1963" r="175" fill="none" stroke="#FFFFFF" stroke-opacity="0.56" stroke-width="3"/>
  <ellipse cx="38.0" cy="1900.0" rx="31.5" ry="14.0" fill="#FFFFFF" opacity="0.42" transform="rotate(-22 38.0 1900.0)"/>
  <circle cx="93" cy="-120" r="223" fill="url(#orb_crm_05_1948)" opacity="0.22"/>
  <circle cx="93" cy="-120" r="223" fill="#E9FFF1" opacity="0.08"/>
  <circle cx="93" cy="-120" r="223" fill="none" stroke="#FFFFFF" stroke-opacity="0.56" stroke-width="3"/>
  <ellipse cx="30.6" cy="-200.3" rx="40.1" ry="17.8" fill="#FFFFFF" opacity="0.42" transform="rotate(-22 30.6 -200.3)"/>
  <circle cx="197" cy="1041" r="122" fill="url(#orb_crm_05_1948)" opacity="0.19"/>
  <circle cx="197" cy="1041" r="122" fill="#A7CCFF" opacity="0.08"/>
  <circle cx="197" cy="1041" r="122" fill="none" stroke="#FFFFFF" stroke-opacity="0.56" stroke-width="3"/>
  <ellipse cx="162.8" cy="997.1" rx="22.0" ry="9.8" fill="#FFFFFF" opacity="0.42" transform="rotate(-22 162.8 997.1)"/>
  <circle cx="271" cy="1464" r="88" fill="url(#orb_crm_05_1948)" opacity="0.19"/>
  <circle cx="271" cy="1464" r="88" fill="#9EE2C2" opacity="0.08"/>
  <circle cx="271" cy="1464" r="88" fill="none" stroke="#FFFFFF" stroke-opacity="0.56" stroke-width="3"/>
  <ellipse cx="246.4" cy="1432.3" rx="15.8" ry="7.0" fill="#FFFFFF" opacity="0.42" transform="rotate(-22 246.4 1432.3)"/>
  <circle cx="1083" cy="921" r="7" fill="#FFFFFF" opacity="0.39"/>
  <circle cx="689" cy="1954" r="3" fill="#FFFFFF" opacity="0.68"/>
  <circle cx="767" cy="170" r="5" fill="#FFFFFF" opacity="0.65"/>
  <circle cx="872" cy="350" r="2" fill="#FFFFFF" opacity="0.60"/>
  <circle cx="1041" cy="1249" r="5" fill="#FFFFFF" opacity="0.49"/>
  <circle cx="188" cy="1339" r="2" fill="#FFFFFF" opacity="0.39"/>
  <circle cx="641" cy="2368" r="4" fill="#FFFFFF" opacity="0.29"/>
  <circle cx="1005" cy="2324" r="3" fill="#FFFFFF" opacity="0.49"/>
  <circle cx="798" cy="1468" r="3" fill="#FFFFFF" opacity="0.54"/>
  <circle cx="757" cy="2448" r="7" fill="#FFFFFF" opacity="0.51"/>
  <circle cx="657" cy="245" r="4" fill="#FFFFFF" opacity="0.65"/>
  <circle cx="487" cy="2210" r="4" fill="#FFFFFF" opacity="0.33"/>
  <circle cx="663" cy="46" r="3" fill="#FFFFFF" opacity="0.69"/>
  <circle cx="490" cy="929" r="2" fill="#FFFFFF" opacity="0.33"/>
  <circle cx="856" cy="1670" r="5" fill="#FFFFFF" opacity="0.71"/>
  <circle cx="350" cy="2176" r="5" fill="#FFFFFF" opacity="0.36"/>
  <rect width="1200" height="2600" fill="#FFFFFF" opacity="0.08"/>
  <rect width="1200" height="2600" filter="url(#grain_crm_05_1948)" opacity="0.7"/>
</svg>
