<svg xmlns="http://www.w3.org/2000/svg" width="1200" height="2600" viewBox="0 0 1200 2600" preserveAspectRatio="xMidYMid slice">
  <defs>
    <linearGradient id="bg_crm_08_7902" x1="0" y1="0" x2="1" y2="1">
      <stop offset="0%" stop-color="#F6F7FF"/>
      <stop offset="48%" stop-color="#FBFFFF"/>
      <stop offset="100%" stop-color="#D5F4FF"/>
    </linearGradient>
    <radialGradient id="orb_crm_08_7902" cx="35%" cy="30%" r="70%">
      <stop offset="0%" stop-color="#FFFFFF" stop-opacity="0.85"/>
      <stop offset="42%" stop-color="#FFFFFF" stop-opacity="0.20"/>
      <stop offset="100%" stop-color="#FFFFFF" stop-opacity="0.02"/>
    </radialGradient>
    <filter id="blur_crm_08_7902" x="-30%" y="-30%" width="160%" height="160%">
      <feGaussianBlur stdDeviation="72"/>
    </filter>
    <filter id="soft_crm_08_7902" x="-20%" y="-20%" width="140%" height="140%">
      <feGaussianBlur stdDeviation="10"/>
    </filter>
    <filter id="grain_crm_08_7902">
      <feTurbulence type="fractalNoise" baseFrequency="0.85" numOctaves="2" stitchTiles="stitch"/>
      <feColorMatrix type="saturate" values="0"/>
      <feComponentTransfer>
        <feFuncA type="table" tableValues="0 0.035"/>
      </feComponentTransfer>
    </filter>
  </defs>
  <rect width="1200" height="2600" fill="url(#bg_crm_08_7902)"/>
  <path d="M 1157.1 605.0 C 1157.1 834.0, 1140.1 712.1, 1067.8 887.6 C 995.5 1063.0, 1025.7 1025.7, 914.9 1065.5 C 804.1 1105.3, 831.7 1157.3, 734.2 1042.8 C 636.8 928.3, 715.6 1014.0, 677.2 798.7 C 638.7 583.5, 572.2 662.8, 610.7 447.5 C 649.2 232.3, 671.5 272.3, 768.9 157.8 C 866.3 43.3, 805.8 148.4, 916.6 188.2 C 1027.3 227.9, 968.2 120.2, 1040.5 295.6 C 1112.8 471.1, 1157.1 375.9, 1157.1 605.0 Z" fill="#F6F7FF" opacity="0.35" filter="url(#blur_crm_08_7902)"/>
  <path d="M 1257.6 1367.0 C 1257.6 1662.7, 1300.1 1534.1, 1228.4 1760.6 C 1156.7 1987.1, 1209.0 1933.8, 1099.1 1985.1 C 989.2 2036.4, 1005.2 2165.6, 908.6 2017.7 C 812.0 1869.9, 898.0 1898.5, 859.9 1620.7 C 821.7 1342.9, 740.2 1391.5, 778.4 1113.7 C 816.5 835.8, 816.4 1004.4, 913.0 856.6 C 1009.7 708.8, 991.6 632.3, 1101.5 683.6 C 1211.4 735.0, 1189.2 699.6, 1260.9 926.1 C 1332.7 1152.6, 1257.6 1071.3, 1257.6 1367.0 Z" fill="#F6F7FF" opacity="0.33" filter="url(#blur_crm_08_7902)"/>
  <path d="M 471.8 497.0 C 471.8 619.9, 497.0 549.2, 375.8 643.3 C 254.6 737.4, 337.7 784.4, 152.0 805.7 C -33.7 827.1, 61.0 822.0, -102.3 760.5 C -265.6 699.1, -306.2 714.8, -370.7 599.4 C -435.2 483.9, -325.3 520.2, -260.8 404.7 C -196.3 289.3, -272.9 307.1, -109.6 245.7 C 53.7 184.2, -31.1 250.0, 154.6 271.3 C 340.3 292.6, 304.7 211.3, 425.9 305.4 C 547.1 399.5, 471.8 374.1, 471.8 497.0 Z" fill="#A7CCFF" opacity="0.32" filter="url(#blur_crm_08_7902)"/>
  <path d="M 579.3 2850.0 C 579.3 3033.6, 598.7 2977.8, 476.9 3118.4 C 355.1 3259.1, 480.9 3258.5, 294.4 3290.4 C 107.8 3322.3, 145.8 3323.2, -18.3 3231.4 C -182.3 3139.6, -118.8 3153.1, -183.6 2980.6 C -248.4 2808.1, -263.9 2904.1, -199.1 2731.5 C -134.4 2559.0, -197.7 2562.1, -33.6 2470.3 C 130.5 2378.5, 103.9 2436.9, 290.5 2468.7 C 477.0 2500.6, 447.6 2449.2, 569.4 2589.8 C 691.1 2730.5, 579.3 2666.4, 579.3 2850.0 Z" fill="#6DB6CF" opacity="0.32" filter="url(#blur_crm_08_7902)"/>
  <path d="M 1193.9 1417.0 C 1193.9 1627.6, 1213.9 1556.2, 1134.9 1717.5 C 1056.0 1878.9, 1117.7 1901.3, 996.7 1937.9 C 875.7 1974.5, 907.7 1864.3, 801.3 1759.0 C 695.0 1653.7, 718.1 1795.1, 676.1 1597.2 C 634.1 1399.3, 673.8 1474.7, 715.8 1276.8 C 757.8 1078.9, 714.4 1153.7, 820.8 1048.4 C 927.2 943.1, 881.4 841.8, 1002.3 878.3 C 1123.3 914.9, 1085.3 902.6, 1164.3 1063.9 C 1243.2 1225.2, 1193.9 1206.4, 1193.9 1417.0 Z" fill="#9EE2C2" opacity="0.37" filter="url(#blur_crm_08_7902)"/>
  <path d="M 1691.7 132.0 C 1691.7 253.5, 1682.8 223.9, 1598.7 316.9 C 1514.5 410.0, 1532.2 424.0, 1403.3 445.1 C 1274.3 466.2, 1348.0 401.9, 1234.6 341.2 C 1121.2 280.4, 1100.2 347.0, 1055.4 232.8 C 1010.7 118.6, 1027.1 141.8, 1071.8 27.6 C 1116.6 -86.6, 1097.0 -31.5, 1210.4 -92.3 C 1323.8 -153.0, 1279.2 -150.6, 1408.2 -129.5 C 1537.2 -108.4, 1521.1 -162.9, 1605.3 -69.8 C 1689.4 23.2, 1691.7 10.5, 1691.7 132.0 Z" fill="#E8FAFF" opacity="0.17" filter="url(#blur_crm_08_7902)"/>
  <path d="M 1435.4 2024.0 C 1435.4 2228.8, 1517.2 2113.3, 1374.5 2270.2 C 1231.9 2427.0, 1322.6 2376.3, 1104.1 2411.8 C 885.6 2447.4, 960.1 2562.8, 768.0 2460.5 C 575.8 2358.1, 585.8 2382.0, 510.0 2189.6 C 434.1 1997.2, 482.3 2062.1, 558.2 1869.7 C 634.1 1677.3, 604.0 1781.7, 796.1 1679.3 C 988.3 1576.9, 893.9 1530.8, 1112.3 1566.4 C 1330.8 1601.9, 1196.0 1539.3, 1338.6 1696.1 C 1481.2 1853.0, 1435.4 1819.2, 1435.4 2024.0 Z" fill="#D5F4FF" opacity="0.19" filter="url(#blur_crm_08_7902)"/>
  <path d="M 1832.6 1814.0 C 1832.6 2031.3, 1789.0 1949.3, 1641.4 2115.8 C 1493.9 2282.3, 1589.6 2305.3, 1363.6 2343.1 C 1137.6 2380.8, 1243.2 2372.0, 1044.5 2263.3 C 845.7 2154.7, 809.0 2211.0, 730.5 2006.7 C 652.0 1802.5, 778.8 1825.1, 857.3 1620.8 C 935.8 1416.6, 794.4 1515.3, 993.2 1406.6 C 1191.9 1297.9, 1132.4 1296.6, 1358.4 1334.3 C 1584.4 1372.1, 1475.7 1378.4, 1623.2 1544.9 C 1770.8 1711.4, 1832.6 1596.7, 1832.6 1814.0 Z" fill="#D5F4FF" opacity="0.29" filter="url(#blur_crm_08_7902)"/>
  <path d="M 1158.2 1327.0 C 1158.2 1609.2, 1107.6 1577.9, 1019.9 1794.0 C 932.3 2010.2, 996.0 2004.2, 861.8 2053.2 C 727.5 2102.2, 762.4 1956.4, 644.3 1815.3 C 526.2 1674.3, 607.5 1778.6, 560.9 1513.4 C 514.2 1248.3, 479.4 1365.4, 526.0 1100.3 C 572.6 835.2, 546.9 937.9, 665.0 796.8 C 783.0 655.7, 719.8 681.7, 854.1 730.7 C 988.3 779.7, 986.8 735.1, 1074.4 951.2 C 1162.1 1167.3, 1158.2 1044.8, 1158.2 1327.0 Z" fill="#E8FAFF" opacity="0.28" filter="url(#blur_crm_08_7902)"/>
  <path d="M 1174.6 1369.0 C 1174.6 1627.8, 1157.6 1468.1, 1047.9 1677.4 C 938.1 1886.7, 1036.3 1895.8, 858.7 1975.8 C 681.1 2055.7, 801.7 2050.9, 624.1 1970.9 C 446.5 1891.0, 548.7 1904.8, 439.0 1695.4 C 329.2 1486.1, 312.5 1627.8, 312.5 1369.0 C 312.5 1110.2, 303.5 1234.4, 413.3 1025.0 C 523.0 815.7, 427.4 903.2, 605.0 823.2 C 782.6 743.2, 701.9 730.7, 879.5 810.6 C 1057.1 890.6, 1003.4 824.8, 1113.2 1034.1 C 1222.9 1243.5, 1174.6 1110.2, 1174.6 1369.0 Z" fill="#E9FFF1" opacity="0.12" stroke="#FFFFFF" stroke-opacity="0.46" stroke-width="3" filter="url(#soft_crm_08_7902)"/>
  <path d="M 1174.6 1369.0 C 1174.6 1627.8, 1157.6 1468.1, 1047.9 1677.4 C 938.1 1886.7, 1036.3 1895.8, 858.7 1975.8 C 681.1 2055.7, 801.7 2050.9, 624.1 1970.9 C 446.5 1891.0, 548.7 1904.8, 439.0 1695.4 C 329.2 1486.1, 312.5 1627.8, 312.5 1369.0 C 312.5 1110.2, 303.5 1234.4, 413.3 1025.0 C 523.0 815.7, 427.4 903.2, 605.0 823.2 C 782.6 743.2, 701.9 730.7, 879.5 810.6 C 1057.1 890.6, 1003.4 824.8, 1113.2 1034.1 C 1222.9 1243.5, 1174.6 1110.2, 1174.6 1369.0 Z" fill="none" stroke="#FFFFFF" stroke-opacity="0.22" stroke-width="1.2"/>
  <path d="M 1712.0 545.0 C 1712.0 707.9, 1774.8 645.1, 1646.0 776.9 C 1517.2 908.7, 1608.5 813.5, 1400.1 863.9 C 1191.7 914.2, 1303.4 914.5, 1094.9 864.2 C 886.5 813.8, 965.3 874.4, 836.5 742.6 C 707.7 610.8, 755.9 707.9, 755.9 545.0 C 755.9 382.1, 780.7 447.7, 909.5 316.0 C 1038.3 184.2, 890.7 221.8, 1099.2 171.5 C 1307.6 121.2, 1210.1 155.2, 1418.5 205.6 C 1626.9 255.9, 1483.3 185.7, 1612.1 317.5 C 1740.9 449.3, 1712.0 382.1, 1712.0 545.0 Z" fill="#F6F7FF" opacity="0.12" stroke="#FFFFFF" stroke-opacity="0.46" stroke-width="3" filter="url(#soft_crm_08_7902)"/>
  <path d="M 1712.0 545.0 C 1712.0 707.9, 1774.8 645.1, 1646.0 776.9 C 1517.2 908.7, 1608.5 813.5, 1400.1 863.9 C 1191.7 914.2, 1303.4 914.5, 1094.9 864.2 C 886.5 813.8, 965.3 874.4, 836.5 742.6 C 707.7 610.8, 755.9 707.9, 755.9 545.0 C 755.9 382.1, 780.7 447.7, 909.5 316.0 C 1038.3 184.2, 890.7 221.8, 1099.2 171.5 C 1307.6 121.2, 1210.1 155.2, 1418.5 205.6 C 1626.9 255.9, 1483.3 185.7, 1612.1 317.5 C 1740.9 449.3, 1712.0 382.1, 1712.0 545.0 Z" fill="none" stroke="#FFFFFF" stroke-opacity="0.22" stroke-width="1.2"/>
  <path d="M 247.7 2148.0 C 247.7 2542.2, 339.4 2298.4, 203.4 2617.3 C 67.5 2936.2, 145.8 2790.4, -74.2 2912.2 C -294.1 3034.0, -170.2 3182.7, -390.2 3060.9 C -610.1 2939.1, -468.2 2934.7, -604.1 2615.8 C -740.1 2296.9, -767.6 2542.2, -767.6 2148.0 C -767.6 1753.8, -711.9 1880.5, -576.0 1561.5 C -440.0 1242.6, -613.0 1463.0, -393.0 1341.2 C -173.1 1219.4, -281.7 1233.1, -61.7 1354.9 C 158.3 1476.7, 74.0 1351.3, 210.0 1670.2 C 345.9 1989.1, 247.7 1753.8, 247.7 2148.0 Z" fill="#9EE2C2" opacity="0.12" stroke="#9EE2C2" stroke-opacity="0.46" stroke-width="3" filter="url(#soft_crm_08_7902)"/>
  <path d="M 247.7 2148.0 C 247.7 2542.2, 339.4 2298.4, 203.4 2617.3 C 67.5 2936.2, 145.8 2790.4, -74.2 2912.2 C -294.1 3034.0, -170.2 3182.7, -390.2 3060.9 C -610.1 2939.1, -468.2 2934.7, -604.1 2615.8 C -740.1 2296.9, -767.6 2542.2, -767.6 2148.0 C -767.6 1753.8, -711.9 1880.5, -576.0 1561.5 C -440.0 1242.6, -613.0 1463.0, -393.0 1341.2 C -173.1 1219.4, -281.7 1233.1, -61.7 1354.9 C 158.3 1476.7, 74.0 1351.3, 210.0 1670.2 C 345.9 1989.1, 247.7 1753.8, 247.7 2148.0 Z" fill="none" stroke="#FFFFFF" stroke-opacity="0.22" stroke-width="1.2"/>
  <path d="M 457.4 2267.0 C 457.4 2649.9, 419.1 2432.5, 279.2 2742.3 C 139.3 3052.1, 258.9 2889.1, 32.5 3007.4 C -193.9 3125.7, -71.2 3208.6, -297.6 3090.3 C -524.0 2972.0, -390.1 3137.2, -530.0 2827.4 C -669.9 2517.6, -645.5 2649.9, -645.5 2267.0 C -645.5 1884.0, -731.6 2059.0, -591.6 1749.2 C -451.7 1439.4, -543.2 1655.0, -316.8 1536.7 C -90.4 1418.4, -205.6 1331.9, 20.8 1450.3 C 247.2 1568.6, 108.6 1494.6, 248.5 1804.4 C 388.5 2114.2, 457.4 1884.0, 457.4 2267.0 Z" fill="#FBFFFF" opacity="0.12" stroke="#FFFFFF" stroke-opacity="0.46" stroke-width="3" filter="url(#soft_crm_08_7902)"/>
  <path d="M 457.4 2267.0 C 457.4 2649.9, 419.1 2432.5, 279.2 2742.3 C 139.3 3052.1, 258.9 2889.1, 32.5 3007.4 C -193.9 3125.7, -71.2 3208.6, -297.6 3090.3 C -524.0 2972.0, -390.1 3137.2, -530.0 2827.4 C -669.9 2517.6, -645.5 2649.9, -645.5 2267.0 C -645.5 1884.0, -731.6 2059.0, -591.6 1749.2 C -451.7 1439.4, -543.2 1655.0, -316.8 1536.7 C -90.4 1418.4, -205.6 1331.9, 20.8 1450.3 C 247.2 1568.6, 108.6 1494.6, 248.5 1804.4 C 388.5 2114.2, 457.4 1884.0, 457.4 2267.0 Z" fill="none" stroke="#FFFFFF" stroke-opacity="0.22" stroke-width="1.2"/>
  <path d="M 999.7 2470.0 C 999.7 2749.0, 1064.3 2625.3, 950.8 2851.1 C 837.3 3076.8, 918.3 3012.6, 734.7 3098.8 C 551.1 3185.0, 659.3 3068.7, 475.7 2982.5 C 292.1 2896.3, 393.0 3029.0, 279.5 2803.3 C 166.1 2577.6, 195.1 2749.0, 195.1 2470.0 C 195.1 2191.0, 132.5 2305.1, 246.0 2079.4 C 359.4 1853.7, 310.2 1973.4, 493.8 1887.2 C 677.4 1801.0, 575.4 1759.0, 759.0 1845.2 C 942.6 1931.4, 843.0 1920.8, 956.5 2146.5 C 1069.9 2372.3, 999.7 2191.0, 999.7 2470.0 Z" fill="#FBFFFF" opacity="0.12" stroke="#FFFFFF" stroke-opacity="0.46" stroke-width="3" filter="url(#soft_crm_08_7902)"/>
  <path d="M 999.7 2470.0 C 999.7 2749.0, 1064.3 2625.3, 950.8 2851.1 C 837.3 3076.8, 918.3 3012.6, 734.7 3098.8 C 551.1 3185.0, 659.3 3068.7, 475.7 2982.5 C 292.1 2896.3, 393.0 3029.0, 279.5 2803.3 C 166.1 2577.6, 195.1 2749.0, 195.1 2470.0 C 195.1 2191.0, 132.5 2305.1, 246.0 2079.4 C 359.4 1853.7, 310.2 1973.4, 493.8 1887.2 C 677.4 1801.0, 575.4 1759.0, 759.0 1845.2 C 942.6 1931.4, 843.0 1920.8, 956.5 2146.5 C 1069.9 2372.3, 999.7 2191.0, 999.7 2470.0 Z" fill="none" stroke="#FFFFFF" stroke-opacity="0.22" stroke-width="1.2"/>
  <path d="M 533.6 1562.0 C 533.6 1921.1, 491.4 1780.3, 381.1 2070.8 C 270.8 2361.3, 385.3 2194.0, 206.8 2305.0 C 28.3 2416.0, 130.9 2415.6, -47.6 2304.6 C -226.1 2193.6, -184.0 2380.6, -294.3 2090.0 C -404.6 1799.5, -348.3 1921.1, -348.3 1562.0 C -348.3 1202.9, -366.3 1334.8, -256.0 1044.3 C -145.7 753.7, -217.8 853.1, -39.3 742.1 C 139.2 631.2, 14.2 786.6, 192.7 897.5 C 371.1 1008.5, 287.9 828.4, 398.2 1118.9 C 508.5 1409.4, 533.6 1202.9, 533.6 1562.0 Z" fill="#F6F7FF" opacity="0.12" stroke="#FFFFFF" stroke-opacity="0.46" stroke-width="3" filter="url(#soft_crm_08_7902)"/>
  <path d="M 533.6 1562.0 C 533.6 1921.1, 491.4 1780.3, 381.1 2070.8 C 270.8 2361.3, 385.3 2194.0, 206.8 2305.0 C 28.3 2416.0, 130.9 2415.6, -47.6 2304.6 C -226.1 2193.6, -184.0 2380.6, -294.3 2090.0 C -404.6 1799.5, -348.3 1921.1, -348.3 1562.0 C -348.3 1202.9, -366.3 1334.8, -256.0 1044.3 C -145.7 753.7, -217.8 853.1, -39.3 742.1 C 139.2 631.2, 14.2 786.6, 192.7 897.5 C 371.1 1008.5, 287.9 828.4, 398.2 1118.9 C 508.5 1409.4, 533.6 1202.9, 533.6 1562.0 Z" fill="none" stroke="#FFFFFF" stroke-opacity="0.22" stroke-width="1.2"/>
  <path d="M -100.0 554.2 Q 133.3 151.5, 366.7 188.2 Q 600.0 441.4, 833.3 710.6 Q 1066.7 482.2, 1300.0 82.8" fill="none" stroke="#FFFFFF" stroke-opacity="0.38" stroke-width="4" filter="url(#soft_crm_08_7902)"/>
  <path d="M -100.0 554.2 Q 133.3 151.5, 366.7 188.2 Q 600.0 441.4, 833.3 710.6 Q 1066.7 482.2, 1300.0 82.8" fill="none" stroke="#9EE2C2" stroke-opacity="0.18" stroke-width="2"/>
  <path d="M -100.0 1770.4 Q 133.3 1923.8, 366.7 2370.7 Q 600.0 2360.1, 833.3 1970.7 Q 1066.7 1684.2, 1300.0 1875.8" fill="none" stroke="#FFFFFF" stroke-opacity="0.38" stroke-width="4" filter="url(#soft_crm_08_7902)"/>
  <path d="M -100.0 1770.4 Q 133.3 1923.8, 366.7 2370.7 Q 600.0 2360.1, 833.3 1970.7 Q 1066.7 1684.2, 1300.0 1875.8" fill="none" stroke="#6DB6CF" stroke-opacity="0.18" stroke-width="2"/>
  <path d="M -100.0 -211.8 Q 133.3 -431.0, 366.7 -131.0 Q 600.0 120.5, 833.3 238.8 Q 1066.7 -200.6, 1300.0 -297.9" fill="none" stroke="#FFFFFF" stroke-opacity="0.38" stroke-width="4" filter="url(#soft_crm_08_7902)"/>
  <path d="M -100.0 -211.8 Q 133.3 -431.0, 366.7 -131.0 Q 600.0 120.5, 833.3 238.8 Q 1066.7 -200.6, 1300.0 -297.9" fill="none" stroke="#6DB6CF" stroke-opacity="0.18" stroke-width="2"/>
  <path d="M -100.0 1662.6 Q 133.3 1859.4, 366.7 1934.9 Q 600.0 2131.5, 833.3 1970.0 Q 1066.7 1760.1, 1300.0 1637.5" fill="none" stroke="#FFFFFF" stroke-opacity="0.38" stroke-width="4" filter="url(#soft_crm_08_7902)"/>
  <path d="M -100.0 1662.6 Q 133.3 1859.4, 366.7 1934.9 Q 600.0 2131.5, 833.3 1970.0 Q 1066.7 1760.1, 1300.0 1637.5" fill="none" stroke="#A7CCFF" stroke-opacity="0.18" stroke-width="2"/>
  <path d="M -100.0 742.2 Q 133.3 839.8, 366.7 642.6 Q 600.0 526.9, 833.3 511.0 Q 1066.7 446.7, 1300.0 563.2" fill="none" stroke="#FFFFFF" stroke-opacity="0.38" stroke-width="4" filter="url(#soft_crm_08_7902)"/>
  <path d="M -100.0 742.2 Q 133.3 839.8, 366.7 642.6 Q 600.0 526.9, 833.3 511.0 Q 1066.7 446.7, 1300.0 563.2" fill="none" stroke="#A7CCFF" stroke-opacity="0.18" stroke-width="2"/>
  <circle cx="470" cy="2591" r="103" fill="url(#orb_crm_08_7902)" opacity="0.36"/>
  <circle cx="470" cy="2591" r="103" fill="#9EE2C2" opacity="0.08"/>
  <circle cx="470" cy="2591" r="103" fill="none" stroke="#FFFFFF" stroke-opacity="0.56" stroke-width="3"/>
  <ellipse cx="441.2" cy="2553.9" rx="18.5" ry="8.2" fill="#FFFFFF" opacity="0.42" transform="rotate(-22 441.2 2553.9)"/>
  <circle cx="1152" cy="1921" r="284" fill="url(#orb_crm_08_7902)" opacity="0.36"/>
  <circle cx="1152" cy="1921" r="284" fill="#F6F7FF" opacity="0.08"/>
  <circle cx="1152" cy="1921" r="284" fill="none" stroke="#FFFFFF" stroke-opacity="0.56" stroke-width="3"/>
  <ellipse cx="1072.5" cy="1818.8" rx="51.1" ry="22.7" fill="#FFFFFF" opacity="0.42" transform="rotate(-22 1072.5 1818.8)"/>
  <circle cx="921" cy="279" r="144" fill="url(#orb_crm_08_7902)" opacity="0.36"/>
  <circle cx="921" cy="279" r="144" fill="#A7CCFF" opacity="0.08"/>
  <circle cx="921" cy="279" r="144" fill="none" stroke="#FFFFFF" stroke-opacity="0.56" stroke-width="3"/>
  <ellipse cx="880.7" cy="227.2" rx="25.9" ry="11.5" fill="#FFFFFF" opacity="0.42" transform="rotate(-22 880.7 227.2)"/>
  <circle cx="380" cy="1365" r="185" fill="url(#orb_crm_08_7902)" opacity="0.28"/>
  <circle cx="380" cy="1365" r="185" fill="#F6F7FF" opacity="0.08"/>
  <circle cx="380" cy="1365" r="185" fill="none" stroke="#FFFFFF" stroke-opacity="0.56" stroke-width="3"/>
  <ellipse cx="328.2" cy="1298.4" rx="33.3" ry="14.8" fill="#FFFFFF" opacity="0.42" transform="rotate(-22 328.2 1298.4)"/>
  <circle cx="952" cy="1068" r="275" fill="url(#orb_crm_08_7902)" opacity="0.28"/>
  <circle cx="952" cy="1068" r="275" fill="#E9FFF1" opacity="0.08"/>
  <circle cx="952" cy="1068" r="275" fill="none" stroke="#FFFFFF" stroke-opacity="0.56" stroke-width="3"/>
  <ellipse cx="875.0" cy="969.0" rx="49.5" ry="22.0" fill="#FFFFFF" opacity="0.42" transform="rotate(-22 875.0 969.0)"/>
  <circle cx="496" cy="1453" r="98" fill="url(#orb_crm_08_7902)" opacity="0.24"/>
  <circle cx="496" cy="1453" r="98" fill="#9EE2C2" opacity="0.08"/>
  <circle cx="496" cy="1453" r="98" fill="none" stroke="#FFFFFF" stroke-opacity="0.56" stroke-width="3"/>
  <ellipse cx="468.6" cy="1417.7" rx="17.6" ry="7.8" fill="#FFFFFF" opacity="0.42" transform="rotate(-22 468.6 1417.7)"/>
  <circle cx="225" cy="393" r="289" fill="url(#orb_crm_08_7902)" opacity="0.24"/>
  <circle cx="225" cy="393" r="289" fill="#9EE2C2" opacity="0.08"/>
  <circle cx="225" cy="393" r="289" fill="none" stroke="#FFFFFF" stroke-opacity="0.56" stroke-width="3"/>
  <ellipse cx="144.1" cy="289.0" rx="52.0" ry="23.1" fill="#FFFFFF" opacity="0.42" transform="rotate(-22 144.1 289.0)"/>
  <circle cx="495" cy="1400" r="3" fill="#FFFFFF" opacity="0.61"/>
  <circle cx="9" cy="248" r="5" fill="#FFFFFF" opacity="0.50"/>
  <circle cx="453" cy="416" r="7" fill="#FFFFFF" opacity="0.43"/>
  <circle cx="798" cy="1232" r="7" fill="#FFFFFF" opacity="0.71"/>
  <circle cx="275" cy="871" r="3" fill="#FFFFFF" opacity="0.56"/>
  <circle cx="84" cy="569" r="2" fill="#FFFFFF" opacity="0.38"/>
  <circle cx="672" cy="1956" r="7" fill="#FFFFFF" opacity="0.72"/>
  <circle cx="903" cy="570" r="3" fill="#FFFFFF" opacity="0.37"/>
  <circle cx="430" cy="370" r="3" fill="#FFFFFF" opacity="0.28"/>
  <circle cx="442" cy="933" r="4" fill="#FFFFFF" opacity="0.58"/>
  <circle cx="904" cy="1372" r="2" fill="#FFFFFF" opacity="0.59"/>
  <circle cx="429" cy="354" r="7" fill="#FFFFFF" opacity="0.31"/>
  <circle cx="68" cy="789" r="3" fill="#FFFFFF" opacity="0.68"/>
  <circle cx="645" cy="1751" r="3" fill="#FFFFFF" opacity="0.56"/>
  <circle cx="299" cy="850" r="2" fill="#FFFFFF" opacity="0.38"/>
  <circle cx="235" cy="84" r="5" fill="#FFFFFF" opacity="0.33"/>
  <circle cx="943" cy="1665" r="7" fill="#FFFFFF" opacity="0.56"/>
  <circle cx="781" cy="547" r="5" fill="#FFFFFF" opacity="0.60"/>
  <circle cx="343" cy="1436" r="4" fill="#FFFFFF" opacity="0.63"/>
  <circle cx="101" cy="1263" r="5" fill="#FFFFFF" opacity="0.69"/>
  <rect width="1200" height="2600" fill="#FFFFFF" opacity="0.08"/>
  <rect width="1200" height="2600" filter="url(#grain_crm_08_7902)" opacity="0.7"/>
</svg>
