<svg xmlns="http://www.w3.org/2000/svg" width="1200" height="2600" viewBox="0 0 1200 2600" preserveAspectRatio="xMidYMid slice">
  <defs>
    <linearGradient id="bg_crm_09_4642" x1="0" y1="0" x2="1" y2="1">
      <stop offset="0%" stop-color="#E9FFF1"/>
      <stop offset="48%" stop-color="#D5F4FF"/>
      <stop offset="100%" stop-color="#E8FAFF"/>
    </linearGradient>
    <radialGradient id="orb_crm_09_4642" cx="35%" cy="30%" r="70%">
      <stop offset="0%" stop-color="#FFFFFF" stop-opacity="0.85"/>
      <stop offset="42%" stop-color="#FFFFFF" stop-opacity="0.20"/>
      <stop offset="100%" stop-color="#FFFFFF" stop-opacity="0.02"/>
    </radialGradient>
    <filter id="blur_crm_09_4642" x="-30%" y="-30%" width="160%" height="160%">
      <feGaussianBlur stdDeviation="72"/>
    </filter>
    <filter id="soft_crm_09_4642" x="-20%" y="-20%" width="140%" height="140%">
      <feGaussianBlur stdDeviation="10"/>
    </filter>
    <filter id="grain_crm_09_4642">
      <feTurbulence type="fractalNoise" baseFrequency="0.85" numOctaves="2" stitchTiles="stitch"/>
      <feColorMatrix type="saturate" values="0"/>
      <feComponentTransfer>
        <feFuncA type="table" tableValues="0 0.035"/>
      </feComponentTransfer>
    </filter>
  </defs>
  <rect width="1200" height="2600" fill="url(#bg_crm_09_4642)"/>
  <path d="M 377.7 786.0 C 377.7 1081.2, 379.6 1020.8, 295.4 1247.0 C 211.3 1473.1, 210.6 1402.4, 81.7 1453.6 C -47.3 1504.9, -4.2 1407.1, -117.6 1259.5 C -231.0 1111.9, -183.0 1313.0, -227.8 1035.6 C -272.5 758.2, -293.9 854.6, -249.1 577.2 C -204.3 299.8, -227.0 395.9, -113.6 248.3 C -0.2 100.7, -45.4 131.3, 83.5 182.5 C 212.5 233.8, 196.2 184.7, 280.4 410.9 C 364.6 637.0, 377.7 490.8, 377.7 786.0 Z" fill="#E9FFF1" opacity="0.32" filter="url(#blur_crm_09_4642)"/>
  <path d="M 650.5 777.0 C 650.5 1031.2, 622.2 980.3, 550.2 1175.1 C 478.2 1369.9, 510.1 1299.0, 399.7 1343.2 C 289.4 1387.3, 322.0 1339.1, 225.0 1212.0 C 128.0 1084.9, 157.5 1238.5, 119.2 999.6 C 80.9 760.7, 102.0 822.5, 140.3 583.6 C 178.6 344.7, 127.8 331.4, 224.8 204.2 C 321.9 77.1, 300.4 218.2, 410.7 262.3 C 521.1 306.5, 498.8 193.0, 570.8 387.7 C 642.8 582.5, 650.5 522.8, 650.5 777.0 Z" fill="#D5F4FF" opacity="0.28" filter="url(#blur_crm_09_4642)"/>
  <path d="M 542.1 2061.0 C 542.1 2349.0, 549.0 2311.0, 448.3 2531.6 C 347.7 2752.2, 399.2 2625.0, 245.0 2675.0 C 90.7 2725.0, 153.1 2783.6, 17.5 2639.6 C -118.1 2495.6, -123.9 2562.5, -177.5 2291.9 C -231.0 2021.3, -176.8 2151.9, -123.2 1881.3 C -69.7 1610.6, -126.2 1713.0, 9.4 1569.0 C 145.0 1425.0, 77.4 1461.2, 231.6 1511.2 C 385.9 1561.2, 382.2 1368.0, 482.9 1588.6 C 583.6 1809.2, 542.1 1773.0, 542.1 2061.0 Z" fill="#FBFFFF" opacity="0.37" filter="url(#blur_crm_09_4642)"/>
  <path d="M 638.1 1674.0 C 638.1 1897.7, 659.7 1812.8, 576.6 1984.1 C 493.6 2155.5, 512.3 2041.6, 385.2 2080.5 C 258.0 2119.3, 305.1 2152.9, 193.3 2041.1 C 81.4 1929.3, 81.0 2056.7, 36.8 1846.5 C -7.4 1636.4, 46.3 1730.7, 90.5 1520.5 C 134.7 1310.3, 92.4 1349.1, 204.2 1237.3 C 316.1 1125.5, 259.3 1211.7, 386.4 1250.5 C 513.6 1289.4, 492.7 1185.8, 575.7 1357.1 C 658.8 1528.5, 638.1 1450.3, 638.1 1674.0 Z" fill="#F6F7FF" opacity="0.25" filter="url(#blur_crm_09_4642)"/>
  <path d="M 1880.2 549.0 C 1880.2 791.5, 1798.6 771.7, 1660.9 957.5 C 1523.3 1143.3, 1614.1 1117.5, 1403.2 1159.7 C 1192.2 1201.8, 1253.1 1127.8, 1067.6 1006.6 C 882.1 885.3, 960.9 951.1, 887.7 723.2 C 814.4 495.3, 732.9 616.9, 806.2 389.0 C 879.5 161.1, 882.9 254.8, 1068.4 133.5 C 1253.9 12.2, 1189.0 71.5, 1399.9 113.6 C 1610.9 155.8, 1600.7 -12.7, 1738.4 173.1 C 1876.0 358.9, 1880.2 306.4, 1880.2 549.0 Z" fill="#F6F7FF" opacity="0.20" filter="url(#blur_crm_09_4642)"/>
  <path d="M 1195.2 -20.0 C 1195.2 290.1, 1217.0 252.8, 1138.1 490.3 C 1059.1 727.8, 1078.9 625.8, 957.9 679.7 C 836.9 733.5, 857.1 741.0, 750.7 586.0 C 644.3 430.9, 663.5 494.5, 621.4 203.2 C 579.4 -88.2, 633.2 2.5, 675.2 -288.9 C 717.2 -580.2, 656.6 -551.5, 763.0 -706.5 C 869.4 -861.5, 838.6 -749.4, 959.6 -695.6 C 1080.6 -641.7, 1001.0 -674.1, 1080.0 -436.6 C 1159.0 -199.1, 1195.2 -330.1, 1195.2 -20.0 Z" fill="#E9FFF1" opacity="0.24" filter="url(#blur_crm_09_4642)"/>
  <path d="M 1126.4 583.0 C 1126.4 815.6, 1124.1 702.4, 1050.1 880.6 C 976.0 1058.9, 1024.4 1115.2, 911.0 1155.6 C 797.5 1196.0, 838.8 1079.9, 739.0 963.6 C 639.3 847.3, 660.8 1003.3, 621.4 784.7 C 582.0 566.1, 600.2 634.0, 639.6 415.4 C 679.0 196.8, 633.9 218.9, 733.6 102.6 C 833.4 -13.7, 803.9 -16.3, 917.3 24.1 C 1030.8 64.5, 1005.2 44.6, 1079.2 222.8 C 1153.3 401.0, 1126.4 350.4, 1126.4 583.0 Z" fill="#A7CCFF" opacity="0.32" filter="url(#blur_crm_09_4642)"/>
  <path d="M 1318.4 1921.0 C 1318.4 2145.6, 1299.5 2036.5, 1167.3 2208.5 C 1035.1 2380.5, 1095.6 2327.6, 893.1 2366.6 C 690.5 2405.6, 713.2 2495.8, 535.1 2383.5 C 357.0 2271.3, 372.4 2279.1, 302.0 2068.1 C 231.7 1857.0, 263.6 1959.9, 334.0 1748.9 C 404.3 1537.8, 408.8 1583.9, 586.9 1471.6 C 765.0 1359.3, 682.2 1376.5, 884.7 1415.5 C 1087.2 1454.5, 1072.5 1447.8, 1204.7 1619.8 C 1336.9 1791.8, 1318.4 1696.5, 1318.4 1921.0 Z" fill="#E8FAFF" opacity="0.20" filter="url(#blur_crm_09_4642)"/>
  <path d="M 1166.2 1355.0 C 1166.2 1634.9, 1240.6 1575.2, 1106.4 1789.6 C 972.2 2004.1, 1042.4 2008.4, 836.7 2057.0 C 631.1 2105.6, 747.8 1943.0, 566.9 1803.0 C 386.1 1663.1, 352.8 1817.4, 281.4 1554.3 C 210.0 1291.3, 211.8 1378.7, 283.2 1115.7 C 354.7 852.7, 355.5 956.6, 536.4 816.6 C 717.2 676.7, 626.7 763.9, 832.4 812.5 C 1038.0 861.1, 960.7 731.1, 1095.0 945.5 C 1229.2 1159.9, 1166.2 1075.1, 1166.2 1355.0 Z" fill="#F6F7FF" opacity="0.21" filter="url(#blur_crm_09_4642)"/>
  <path d="M 731.0 732.0 C 731.0 1047.0, 741.7 845.9, 608.4 1100.7 C 475.1 1355.5, 571.4 1300.0, 355.7 1397.4 C 140.0 1494.7, 259.6 1467.5, 43.9 1370.2 C -171.8 1272.8, -80.6 1390.4, -213.9 1135.6 C -347.2 880.7, -284.4 1047.0, -284.4 732.0 C -284.4 417.0, -394.5 543.4, -261.2 288.6 C -127.9 33.7, -199.7 242.7, 16.0 145.3 C 231.7 48.0, 101.7 -0.8, 317.4 96.6 C 533.1 193.9, 462.7 40.8, 596.0 295.6 C 729.3 550.4, 731.0 417.0, 731.0 732.0 Z" fill="#E9FFF1" opacity="0.12" stroke="#E9FFF1" stroke-opacity="0.46" stroke-width="3" filter="url(#soft_crm_09_4642)"/>
  <path d="M 731.0 732.0 C 731.0 1047.0, 741.7 845.9, 608.4 1100.7 C 475.1 1355.5, 571.4 1300.0, 355.7 1397.4 C 140.0 1494.7, 259.6 1467.5, 43.9 1370.2 C -171.8 1272.8, -80.6 1390.4, -213.9 1135.6 C -347.2 880.7, -284.4 1047.0, -284.4 732.0 C -284.4 417.0, -394.5 543.4, -261.2 288.6 C -127.9 33.7, -199.7 242.7, 16.0 145.3 C 231.7 48.0, 101.7 -0.8, 317.4 96.6 C 533.1 193.9, 462.7 40.8, 596.0 295.6 C 729.3 550.4, 731.0 417.0, 731.0 732.0 Z" fill="none" stroke="#FFFFFF" stroke-opacity="0.22" stroke-width="1.2"/>
  <path d="M 1756.9 30.0 C 1756.9 321.6, 1771.0 174.1, 1638.2 410.1 C 1505.4 646.0, 1546.7 573.3, 1331.8 663.4 C 1117.0 753.5, 1269.6 784.5, 1054.7 694.4 C 839.9 604.3, 880.7 612.6, 747.9 376.7 C 615.2 140.7, 715.2 321.6, 715.2 30.0 C 715.2 -261.6, 695.7 -159.8, 828.5 -395.7 C 961.3 -631.6, 825.0 -452.7, 1039.9 -542.8 C 1254.7 -632.9, 1115.1 -744.2, 1329.9 -654.1 C 1544.8 -563.9, 1429.7 -544.0, 1562.5 -308.1 C 1695.3 -72.2, 1756.9 -261.6, 1756.9 30.0 Z" fill="#A7CCFF" opacity="0.12" stroke="#FFFFFF" stroke-opacity="0.46" stroke-width="3" filter="url(#soft_crm_09_4642)"/>
  <path d="M 1756.9 30.0 C 1756.9 321.6, 1771.0 174.1, 1638.2 410.1 C 1505.4 646.0, 1546.7 573.3, 1331.8 663.4 C 1117.0 753.5, 1269.6 784.5, 1054.7 694.4 C 839.9 604.3, 880.7 612.6, 747.9 376.7 C 615.2 140.7, 715.2 321.6, 715.2 30.0 C 715.2 -261.6, 695.7 -159.8, 828.5 -395.7 C 961.3 -631.6, 825.0 -452.7, 1039.9 -542.8 C 1254.7 -632.9, 1115.1 -744.2, 1329.9 -654.1 C 1544.8 -563.9, 1429.7 -544.0, 1562.5 -308.1 C 1695.3 -72.2, 1756.9 -261.6, 1756.9 30.0 Z" fill="none" stroke="#FFFFFF" stroke-opacity="0.22" stroke-width="1.2"/>
  <path d="M 771.4 1841.0 C 771.4 2190.7, 843.7 2052.1, 699.6 2334.9 C 555.4 2617.8, 595.1 2406.0, 361.9 2514.1 C 128.6 2622.1, 286.0 2615.0, 52.7 2506.9 C -180.5 2398.9, -51.2 2587.9, -195.3 2305.1 C -339.5 2022.2, -391.7 2190.7, -391.7 1841.0 C -391.7 1491.3, -339.2 1687.0, -195.1 1404.1 C -50.9 1121.2, -189.0 1240.2, 44.2 1132.1 C 277.5 1024.1, 161.3 1071.4, 394.6 1179.4 C 627.8 1287.5, 539.3 1110.1, 683.4 1392.9 C 827.6 1675.8, 771.4 1491.3, 771.4 1841.0 Z" fill="#F6F7FF" opacity="0.12" stroke="#FFFFFF" stroke-opacity="0.46" stroke-width="3" filter="url(#soft_crm_09_4642)"/>
  <path d="M 771.4 1841.0 C 771.4 2190.7, 843.7 2052.1, 699.6 2334.9 C 555.4 2617.8, 595.1 2406.0, 361.9 2514.1 C 128.6 2622.1, 286.0 2615.0, 52.7 2506.9 C -180.5 2398.9, -51.2 2587.9, -195.3 2305.1 C -339.5 2022.2, -391.7 2190.7, -391.7 1841.0 C -391.7 1491.3, -339.2 1687.0, -195.1 1404.1 C -50.9 1121.2, -189.0 1240.2, 44.2 1132.1 C 277.5 1024.1, 161.3 1071.4, 394.6 1179.4 C 627.8 1287.5, 539.3 1110.1, 683.4 1392.9 C 827.6 1675.8, 771.4 1491.3, 771.4 1841.0 Z" fill="none" stroke="#FFFFFF" stroke-opacity="0.22" stroke-width="1.2"/>
  <path d="M 808.1 1217.0 C 808.1 1377.7, 852.1 1291.4, 764.6 1421.4 C 677.0 1551.3, 758.9 1459.7, 617.2 1509.4 C 475.5 1559.0, 554.1 1649.4, 412.4 1599.8 C 270.7 1550.1, 296.2 1532.2, 208.7 1402.2 C 121.1 1272.3, 178.0 1377.7, 178.0 1217.0 C 178.0 1056.3, 119.6 1117.8, 207.1 987.8 C 294.7 857.8, 267.6 905.6, 409.3 855.9 C 550.9 806.3, 474.0 811.7, 615.6 861.4 C 757.3 911.0, 688.6 860.7, 776.1 990.7 C 863.7 1120.7, 808.1 1056.3, 808.1 1217.0 Z" fill="#6DB6CF" opacity="0.12" stroke="#6DB6CF" stroke-opacity="0.46" stroke-width="3" filter="url(#soft_crm_09_4642)"/>
  <path d="M 808.1 1217.0 C 808.1 1377.7, 852.1 1291.4, 764.6 1421.4 C 677.0 1551.3, 758.9 1459.7, 617.2 1509.4 C 475.5 1559.0, 554.1 1649.4, 412.4 1599.8 C 270.7 1550.1, 296.2 1532.2, 208.7 1402.2 C 121.1 1272.3, 178.0 1377.7, 178.0 1217.0 C 178.0 1056.3, 119.6 1117.8, 207.1 987.8 C 294.7 857.8, 267.6 905.6, 409.3 855.9 C 550.9 806.3, 474.0 811.7, 615.6 861.4 C 757.3 911.0, 688.6 860.7, 776.1 990.7 C 863.7 1120.7, 808.1 1056.3, 808.1 1217.0 Z" fill="none" stroke="#FFFFFF" stroke-opacity="0.22" stroke-width="1.2"/>
  <path d="M 511.5 1882.0 C 511.5 2047.6, 459.9 1978.8, 294.9 2112.8 C 129.8 2246.7, 296.0 2212.3, 29.0 2263.5 C -238.1 2314.7, -105.4 2241.9, -372.4 2190.7 C -639.5 2139.5, -534.8 2254.1, -699.8 2120.1 C -864.9 1986.1, -869.2 2047.6, -869.2 1882.0 C -869.2 1716.4, -903.8 1778.8, -738.7 1644.8 C -573.7 1510.9, -626.6 1607.5, -359.5 1556.3 C -92.5 1505.1, -268.3 1499.0, -1.3 1550.1 C 265.8 1601.3, 203.2 1501.5, 368.3 1635.5 C 533.3 1769.5, 511.5 1716.4, 511.5 1882.0 Z" fill="#FBFFFF" opacity="0.12" stroke="#FFFFFF" stroke-opacity="0.46" stroke-width="3" filter="url(#soft_crm_09_4642)"/>
  <path d="M 511.5 1882.0 C 511.5 2047.6, 459.9 1978.8, 294.9 2112.8 C 129.8 2246.7, 296.0 2212.3, 29.0 2263.5 C -238.1 2314.7, -105.4 2241.9, -372.4 2190.7 C -639.5 2139.5, -534.8 2254.1, -699.8 2120.1 C -864.9 1986.1, -869.2 2047.6, -869.2 1882.0 C -869.2 1716.4, -903.8 1778.8, -738.7 1644.8 C -573.7 1510.9, -626.6 1607.5, -359.5 1556.3 C -92.5 1505.1, -268.3 1499.0, -1.3 1550.1 C 265.8 1601.3, 203.2 1501.5, 368.3 1635.5 C 533.3 1769.5, 511.5 1716.4, 511.5 1882.0 Z" fill="none" stroke="#FFFFFF" stroke-opacity="0.22" stroke-width="1.2"/>
  <path d="M 1204.6 100.0 C 1204.6 296.2, 1325.3 218.6, 1164.2 377.4 C 1003.1 536.1, 1107.9 481.2, 847.3 541.8 C 586.6 602.4, 745.4 584.1, 484.7 523.4 C 224.1 462.8, 285.8 525.9, 124.7 367.2 C -36.4 208.5, 55.3 296.2, 55.3 100.0 C 55.3 -96.2, 4.8 -33.1, 165.9 -191.9 C 326.9 -350.6, 205.5 -200.0, 466.2 -260.6 C 726.8 -321.2, 559.4 -328.6, 820.1 -268.0 C 1080.7 -207.4, 1041.2 -303.4, 1202.3 -144.7 C 1363.3 14.1, 1204.6 -96.2, 1204.6 100.0 Z" fill="#9EE2C2" opacity="0.12" stroke="#9EE2C2" stroke-opacity="0.46" stroke-width="3" filter="url(#soft_crm_09_4642)"/>
  <path d="M 1204.6 100.0 C 1204.6 296.2, 1325.3 218.6, 1164.2 377.4 C 1003.1 536.1, 1107.9 481.2, 847.3 541.8 C 586.6 602.4, 745.4 584.1, 484.7 523.4 C 224.1 462.8, 285.8 525.9, 124.7 367.2 C -36.4 208.5, 55.3 296.2, 55.3 100.0 C 55.3 -96.2, 4.8 -33.1, 165.9 -191.9 C 326.9 -350.6, 205.5 -200.0, 466.2 -260.6 C 726.8 -321.2, 559.4 -328.6, 820.1 -268.0 C 1080.7 -207.4, 1041.2 -303.4, 1202.3 -144.7 C 1363.3 14.1, 1204.6 -96.2, 1204.6 100.0 Z" fill="none" stroke="#FFFFFF" stroke-opacity="0.22" stroke-width="1.2"/>
  <path d="M -100.0 1943.2 Q 133.3 2110.7, 366.7 2366.6 Q 600.0 2440.6, 833.3 2206.2 Q 1066.7 1942.4, 1300.0 1771.9" fill="none" stroke="#FFFFFF" stroke-opacity="0.38" stroke-width="4" filter="url(#soft_crm_09_4642)"/>
  <path d="M -100.0 1943.2 Q 133.3 2110.7, 366.7 2366.6 Q 600.0 2440.6, 833.3 2206.2 Q 1066.7 1942.4, 1300.0 1771.9" fill="none" stroke="#6DB6CF" stroke-opacity="0.18" stroke-width="2"/>
  <path d="M -100.0 1250.6 Q 133.3 1379.5, 366.7 1741.7 Q 600.0 1550.3, 833.3 1354.7 Q 1066.7 1496.3, 1300.0 1621.5" fill="none" stroke="#FFFFFF" stroke-opacity="0.38" stroke-width="4" filter="url(#soft_crm_09_4642)"/>
  <path d="M -100.0 1250.6 Q 133.3 1379.5, 366.7 1741.7 Q 600.0 1550.3, 833.3 1354.7 Q 1066.7 1496.3, 1300.0 1621.5" fill="none" stroke="#A7CCFF" stroke-opacity="0.18" stroke-width="2"/>
  <path d="M -100.0 1255.0 Q 133.3 1089.4, 366.7 937.1 Q 600.0 560.0, 833.3 664.8 Q 1066.7 848.9, 1300.0 1069.7" fill="none" stroke="#FFFFFF" stroke-opacity="0.38" stroke-width="4" filter="url(#soft_crm_09_4642)"/>
  <path d="M -100.0 1255.0 Q 133.3 1089.4, 366.7 937.1 Q 600.0 560.0, 833.3 664.8 Q 1066.7 848.9, 1300.0 1069.7" fill="none" stroke="#6DB6CF" stroke-opacity="0.18" stroke-width="2"/>
  <path d="M -100.0 461.7 Q 133.3 238.7, 366.7 268.2 Q 600.0 444.3, 833.3 674.0 Q 1066.7 781.1, 1300.0 558.5" fill="none" stroke="#FFFFFF" stroke-opacity="0.38" stroke-width="4" filter="url(#soft_crm_09_4642)"/>
  <path d="M -100.0 461.7 Q 133.3 238.7, 366.7 268.2 Q 600.0 444.3, 833.3 674.0 Q 1066.7 781.1, 1300.0 558.5" fill="none" stroke="#9EE2C2" stroke-opacity="0.18" stroke-width="2"/>
  <path d="M -100.0 2326.9 Q 133.3 2055.8, 366.7 1833.9 Q 600.0 1559.6, 833.3 1750.2 Q 1066.7 1923.1, 1300.0 2261.1" fill="none" stroke="#FFFFFF" stroke-opacity="0.38" stroke-width="4" filter="url(#soft_crm_09_4642)"/>
  <path d="M -100.0 2326.9 Q 133.3 2055.8, 366.7 1833.9 Q 600.0 1559.6, 833.3 1750.2 Q 1066.7 1923.1, 1300.0 2261.1" fill="none" stroke="#6DB6CF" stroke-opacity="0.18" stroke-width="2"/>
  <circle cx="487" cy="2697" r="239" fill="url(#orb_crm_09_4642)" opacity="0.36"/>
  <circle cx="487" cy="2697" r="239" fill="#F6F7FF" opacity="0.08"/>
  <circle cx="487" cy="2697" r="239" fill="none" stroke="#FFFFFF" stroke-opacity="0.56" stroke-width="3"/>
  <ellipse cx="420.1" cy="2611.0" rx="43.0" ry="19.1" fill="#FFFFFF" opacity="0.42" transform="rotate(-22 420.1 2611.0)"/>
  <circle cx="842" cy="2462" r="185" fill="url(#orb_crm_09_4642)" opacity="0.36"/>
  <circle cx="842" cy="2462" r="185" fill="#E8FAFF" opacity="0.08"/>
  <circle cx="842" cy="2462" r="185" fill="none" stroke="#FFFFFF" stroke-opacity="0.56" stroke-width="3"/>
  <ellipse cx="790.2" cy="2395.4" rx="33.3" ry="14.8" fill="#FFFFFF" opacity="0.42" transform="rotate(-22 790.2 2395.4)"/>
  <circle cx="1139" cy="2614" r="233" fill="url(#orb_crm_09_4642)" opacity="0.36"/>
  <circle cx="1139" cy="2614" r="233" fill="#9EE2C2" opacity="0.08"/>
  <circle cx="1139" cy="2614" r="233" fill="none" stroke="#FFFFFF" stroke-opacity="0.56" stroke-width="3"/>
  <ellipse cx="1073.8" cy="2530.1" rx="41.9" ry="18.6" fill="#FFFFFF" opacity="0.42" transform="rotate(-22 1073.8 2530.1)"/>
  <circle cx="1243" cy="1588" r="275" fill="url(#orb_crm_09_4642)" opacity="0.26"/>
  <circle cx="1243" cy="1588" r="275" fill="#6DB6CF" opacity="0.08"/>
  <circle cx="1243" cy="1588" r="275" fill="none" stroke="#FFFFFF" stroke-opacity="0.56" stroke-width="3"/>
  <ellipse cx="1166.0" cy="1489.0" rx="49.5" ry="22.0" fill="#FFFFFF" opacity="0.42" transform="rotate(-22 1166.0 1489.0)"/>
  <circle cx="941" cy="-63" r="108" fill="url(#orb_crm_09_4642)" opacity="0.17"/>
  <circle cx="941" cy="-63" r="108" fill="#6DB6CF" opacity="0.08"/>
  <circle cx="941" cy="-63" r="108" fill="none" stroke="#FFFFFF" stroke-opacity="0.56" stroke-width="3"/>
  <ellipse cx="910.8" cy="-101.9" rx="19.4" ry="8.6" fill="#FFFFFF" opacity="0.42" transform="rotate(-22 910.8 -101.9)"/>
  <circle cx="329" cy="1243" r="237" fill="url(#orb_crm_09_4642)" opacity="0.22"/>
  <circle cx="329" cy="1243" r="237" fill="#FBFFFF" opacity="0.08"/>
  <circle cx="329" cy="1243" r="237" fill="none" stroke="#FFFFFF" stroke-opacity="0.56" stroke-width="3"/>
  <ellipse cx="262.6" cy="1157.7" rx="42.7" ry="19.0" fill="#FFFFFF" opacity="0.42" transform="rotate(-22 262.6 1157.7)"/>
  <circle cx="1267" cy="1870" r="117" fill="url(#orb_crm_09_4642)" opacity="0.26"/>
  <circle cx="1267" cy="1870" r="117" fill="#E9FFF1" opacity="0.08"/>
  <circle cx="1267" cy="1870" r="117" fill="none" stroke="#FFFFFF" stroke-opacity="0.56" stroke-width="3"/>
  <ellipse cx="1234.2" cy="1827.9" rx="21.1" ry="9.4" fill="#FFFFFF" opacity="0.42" transform="rotate(-22 1234.2 1827.9)"/>
  <circle cx="210" cy="223" r="165" fill="url(#orb_crm_09_4642)" opacity="0.20"/>
  <circle cx="210" cy="223" r="165" fill="#D5F4FF" opacity="0.08"/>
  <circle cx="210" cy="223" r="165" fill="none" stroke="#FFFFFF" stroke-opacity="0.56" stroke-width="3"/>
  <ellipse cx="163.8" cy="163.6" rx="29.7" ry="13.2" fill="#FFFFFF" opacity="0.42" transform="rotate(-22 163.8 163.6)"/>
  <circle cx="598" cy="1695" r="118" fill="url(#orb_crm_09_4642)" opacity="0.17"/>
  <circle cx="598" cy="1695" r="118" fill="#F6F7FF" opacity="0.08"/>
  <circle cx="598" cy="1695" r="118" fill="none" stroke="#FFFFFF" stroke-opacity="0.56" stroke-width="3"/>
  <ellipse cx="565.0" cy="1652.5" rx="21.2" ry="9.4" fill="#FFFFFF" opacity="0.42" transform="rotate(-22 565.0 1652.5)"/>
  <circle cx="1018" cy="1599" r="240" fill="url(#orb_crm_09_4642)" opacity="0.20"/>
  <circle cx="1018" cy="1599" r="240" fill="#9EE2C2" opacity="0.08"/>
  <circle cx="1018" cy="1599" r="240" fill="none" stroke="#FFFFFF" stroke-opacity="0.56" stroke-width="3"/>
  <ellipse cx="950.8" cy="1512.6" rx="43.2" ry="19.2" fill="#FFFFFF" opacity="0.42" transform="rotate(-22 950.8 1512.6)"/>
  <circle cx="359" cy="791" r="284" fill="url(#orb_crm_09_4642)" opacity="0.16"/>
  <circle cx="359" cy="791" r="284" fill="#E9FFF1" opacity="0.08"/>
  <circle cx="359" cy="791" r="284" fill="none" stroke="#FFFFFF" stroke-opacity="0.56" stroke-width="3"/>
  <ellipse cx="279.5" cy="688.8" rx="51.1" ry="22.7" fill="#FFFFFF" opacity="0.42" transform="rotate(-22 279.5 688.8)"/>
  <circle cx="373" cy="1379" r="4" fill="#FFFFFF" opacity="0.45"/>
  <circle cx="336" cy="1471" r="3" fill="#FFFFFF" opacity="0.54"/>
  <circle cx="696" cy="2398" r="3" fill="#FFFFFF" opacity="0.31"/>
  <circle cx="920" cy="826" r="3" fill="#FFFFFF" opacity="0.46"/>
  <circle cx="82" cy="286" r="3" fill="#FFFFFF" opacity="0.59"/>
  <circle cx="216" cy="1431" r="2" fill="#FFFFFF" opacity="0.58"/>
  <circle cx="974" cy="574" r="3" fill="#FFFFFF" opacity="0.49"/>
  <circle cx="587" cy="1772" r="7" fill="#FFFFFF" opacity="0.51"/>
  <circle cx="590" cy="2149" r="2" fill="#FFFFFF" opacity="0.35"/>
  <circle cx="26" cy="631" r="4" fill="#FFFFFF" opacity="0.66"/>
  <circle cx="678" cy="1073" r="2" fill="#FFFFFF" opacity="0.43"/>
  <circle cx="641" cy="2595" r="3" fill="#FFFFFF" opacity="0.33"/>
  <circle cx="147" cy="1388" r="3" fill="#FFFFFF" opacity="0.71"/>
  <circle cx="760" cy="2246" r="4" fill="#FFFFFF" opacity="0.49"/>
  <circle cx="594" cy="1092" r="7" fill="#FFFFFF" opacity="0.37"/>
  <circle cx="588" cy="969" r="2" fill="#FFFFFF" opacity="0.52"/>
  <rect width="1200" height="2600" fill="#FFFFFF" opacity="0.08"/>
  <rect width="1200" height="2600" filter="url(#grain_crm_09_4642)" opacity="0.7"/>
</svg>
