<svg xmlns="http://www.w3.org/2000/svg" width="1200" height="2600" viewBox="0 0 1200 2600" preserveAspectRatio="xMidYMid slice">
  <defs>
    <linearGradient id="bg_crm_02_4524" x1="0" y1="0" x2="1" y2="1">
      <stop offset="0%" stop-color="#F6F7FF"/>
      <stop offset="48%" stop-color="#FBFFFF"/>
      <stop offset="100%" stop-color="#E9FFF1"/>
    </linearGradient>
    <radialGradient id="orb_crm_02_4524" cx="35%" cy="30%" r="70%">
      <stop offset="0%" stop-color="#FFFFFF" stop-opacity="0.85"/>
      <stop offset="42%" stop-color="#FFFFFF" stop-opacity="0.20"/>
      <stop offset="100%" stop-color="#FFFFFF" stop-opacity="0.02"/>
    </radialGradient>
    <filter id="blur_crm_02_4524" x="-30%" y="-30%" width="160%" height="160%">
      <feGaussianBlur stdDeviation="72"/>
    </filter>
    <filter id="soft_crm_02_4524" x="-20%" y="-20%" width="140%" height="140%">
      <feGaussianBlur stdDeviation="10"/>
    </filter>
    <filter id="grain_crm_02_4524">
      <feTurbulence type="fractalNoise" baseFrequency="0.85" numOctaves="2" stitchTiles="stitch"/>
      <feColorMatrix type="saturate" values="0"/>
      <feComponentTransfer>
        <feFuncA type="table" tableValues="0 0.035"/>
      </feComponentTransfer>
    </filter>
  </defs>
  <rect width="1200" height="2600" fill="url(#bg_crm_02_4524)"/>
  <path d="M 832.5 643.0 C 832.5 929.7, 842.7 825.5, 715.1 1045.1 C 587.5 1264.7, 651.2 1138.0, 455.8 1187.8 C 260.3 1237.6, 318.2 1389.6, 146.4 1246.3 C -25.5 1103.0, 17.7 1129.0, -50.2 859.6 C -118.1 590.2, -139.8 677.4, -71.9 408.0 C -4.0 138.7, -15.2 330.3, 156.7 187.0 C 328.5 43.7, 277.8 -127.3, 473.2 -77.5 C 668.6 -27.7, 540.8 32.3, 668.3 251.9 C 795.9 471.4, 832.5 356.3, 832.5 643.0 Z" fill="#A7CCFF" opacity="0.28" filter="url(#blur_crm_02_4524)"/>
  <path d="M 1724.4 417.0 C 1724.4 665.4, 1746.8 621.3, 1592.9 811.6 C 1439.1 1001.9, 1558.6 1004.3, 1322.9 1047.4 C 1087.1 1090.6, 1162.2 1102.5, 954.9 978.3 C 747.6 854.1, 791.1 806.1, 709.2 572.7 C 627.3 339.3, 748.1 486.8, 830.0 253.4 C 911.8 20.0, 766.3 98.0, 973.6 -26.2 C 1180.9 -150.4, 1100.5 -168.6, 1336.2 -125.5 C 1572.0 -82.3, 1500.8 -133.4, 1654.7 56.8 C 1808.6 247.1, 1724.4 168.6, 1724.4 417.0 Z" fill="#F6F7FF" opacity="0.23" filter="url(#blur_crm_02_4524)"/>
  <path d="M 1331.2 2125.0 C 1331.2 2377.4, 1322.2 2282.8, 1198.7 2476.2 C 1075.2 2669.5, 1131.9 2678.1, 942.7 2721.9 C 753.5 2765.7, 782.9 2795.0, 616.5 2668.8 C 450.1 2542.6, 488.1 2545.1, 422.4 2307.9 C 356.7 2070.7, 326.9 2177.6, 392.6 1940.3 C 458.4 1703.1, 450.4 1783.0, 616.8 1656.8 C 783.2 1530.6, 754.9 1453.6, 944.1 1497.5 C 1133.3 1541.3, 1079.0 1577.6, 1202.5 1771.0 C 1326.0 1964.4, 1331.2 1872.5, 1331.2 2125.0 Z" fill="#D5F4FF" opacity="0.21" filter="url(#blur_crm_02_4524)"/>
  <path d="M 1051.7 1035.0 C 1051.7 1228.5, 1028.2 1158.3, 866.8 1306.6 C 705.4 1454.8, 817.5 1413.3, 570.2 1446.9 C 322.9 1480.5, 384.6 1469.6, 167.1 1372.8 C -50.3 1276.1, 119.3 1352.7, 33.4 1170.8 C -52.5 989.0, -136.7 1067.9, -50.8 886.1 C 35.1 704.2, 4.0 754.7, 221.5 657.9 C 438.9 561.2, 313.0 558.1, 560.2 591.7 C 807.5 625.3, 679.9 641.1, 841.3 789.3 C 1002.7 937.5, 1051.7 841.5, 1051.7 1035.0 Z" fill="#A7CCFF" opacity="0.34" filter="url(#blur_crm_02_4524)"/>
  <path d="M 885.1 2566.0 C 885.1 2728.9, 882.8 2694.5, 786.7 2819.3 C 690.7 2944.1, 729.2 2902.5, 582.0 2930.7 C 434.9 2959.0, 470.8 2930.0, 341.4 2848.5 C 212.0 2767.1, 306.7 2826.9, 255.6 2673.8 C 204.5 2520.7, 158.2 2589.8, 209.3 2436.7 C 260.4 2283.6, 232.5 2371.8, 361.9 2290.4 C 491.2 2208.9, 435.5 2181.4, 582.7 2209.7 C 729.8 2238.0, 646.8 2180.2, 742.9 2305.0 C 838.9 2429.8, 885.1 2403.1, 885.1 2566.0 Z" fill="#F6F7FF" opacity="0.23" filter="url(#blur_crm_02_4524)"/>
  <path d="M 1168.9 711.0 C 1168.9 855.0, 1182.0 814.7, 1092.6 925.0 C 1003.2 1035.3, 1055.1 982.0, 918.2 1007.0 C 781.2 1032.0, 798.7 1063.3, 678.3 991.3 C 557.9 919.3, 667.3 944.3, 619.7 809.0 C 572.2 673.7, 531.0 741.6, 578.5 606.3 C 626.1 471.0, 570.4 507.5, 690.8 435.5 C 811.2 363.5, 774.1 425.0, 911.1 450.0 C 1048.0 475.0, 997.4 421.7, 1086.8 532.0 C 1176.2 642.4, 1168.9 567.0, 1168.9 711.0 Z" fill="#FBFFFF" opacity="0.18" filter="url(#blur_crm_02_4524)"/>
  <path d="M 322.5 994.0 C 322.5 1138.9, 470.8 1063.0, 310.2 1174.0 C 149.7 1285.0, 196.6 1329.1, -49.3 1354.3 C -295.3 1379.4, -213.5 1313.6, -429.8 1241.2 C -646.1 1168.7, -648.5 1241.0, -733.9 1104.8 C -819.3 968.7, -726.0 1037.4, -640.6 901.2 C -555.1 765.1, -654.5 784.0, -438.2 711.5 C -221.9 639.1, -312.5 597.6, -66.5 622.8 C 179.4 647.9, 180.7 709.1, 341.3 820.1 C 501.8 931.1, 322.5 849.1, 322.5 994.0 Z" fill="#FBFFFF" opacity="0.36" filter="url(#blur_crm_02_4524)"/>
  <path d="M 349.9 1670.0 C 349.9 1901.3, 525.6 1878.2, 376.0 2055.4 C 226.5 2232.6, 245.9 2087.6, 16.7 2127.7 C -212.4 2167.9, -162.7 2223.0, -364.2 2107.3 C -565.6 1991.7, -510.4 2055.3, -590.0 1837.9 C -669.5 1620.5, -611.8 1731.8, -532.2 1514.5 C -452.6 1297.1, -581.6 1377.8, -380.2 1262.2 C -178.7 1146.5, -221.6 1149.1, 7.5 1189.3 C 236.6 1229.4, 203.6 1174.4, 353.1 1351.6 C 502.7 1528.8, 349.9 1438.7, 349.9 1670.0 Z" fill="#D5F4FF" opacity="0.17" filter="url(#blur_crm_02_4524)"/>
  <path d="M 1340.7 1225.0 C 1340.7 1354.2, 1332.8 1309.4, 1263.1 1408.3 C 1193.4 1507.3, 1218.6 1442.3, 1111.8 1464.7 C 1005.0 1487.1, 1036.0 1531.1, 942.1 1466.5 C 848.2 1401.9, 910.6 1449.6, 873.5 1328.2 C 836.4 1206.8, 765.9 1251.0, 803.0 1129.6 C 840.1 1008.2, 862.9 1015.9, 956.8 951.3 C 1050.8 886.8, 997.4 926.2, 1104.2 948.6 C 1211.0 971.0, 1155.9 927.4, 1225.6 1026.4 C 1295.3 1125.3, 1340.7 1095.8, 1340.7 1225.0 Z" fill="#E9FFF1" opacity="0.37" filter="url(#blur_crm_02_4524)"/>
  <path d="M 334.2 2859.0 C 334.2 3107.4, 339.2 3043.5, 197.4 3233.8 C 55.7 3424.1, 143.4 3399.3, -73.7 3442.5 C -290.9 3485.6, -252.6 3502.0, -443.5 3377.8 C -634.5 3253.6, -518.3 3314.4, -593.7 3081.0 C -669.1 2847.6, -736.8 2876.5, -661.4 2643.1 C -585.9 2409.7, -580.1 2456.6, -389.1 2332.4 C -198.2 2208.2, -292.6 2225.8, -75.4 2268.9 C 141.7 2312.0, 84.2 2330.8, 225.9 2521.1 C 367.7 2711.4, 334.2 2610.6, 334.2 2859.0 Z" fill="#FBFFFF" opacity="0.33" filter="url(#blur_crm_02_4524)"/>
  <path d="M 1214.6 -79.0 C 1214.6 105.1, 1371.4 79.8, 1239.7 220.7 C 1108.1 361.7, 1117.6 246.3, 916.0 278.2 C 714.3 310.2, 764.8 413.4, 587.4 321.4 C 410.1 229.4, 489.7 211.6, 419.7 38.6 C 349.7 -134.3, 380.8 -53.8, 450.8 -226.8 C 520.9 -399.7, 434.4 -341.8, 611.7 -433.8 C 789.0 -525.8, 705.8 -492.6, 907.4 -460.7 C 1109.1 -428.7, 1035.3 -482.5, 1166.9 -341.5 C 1298.5 -200.5, 1214.6 -263.1, 1214.6 -79.0 Z" fill="#6DB6CF" opacity="0.18" filter="url(#blur_crm_02_4524)"/>
  <path d="M 953.4 2623.0 C 953.4 2748.6, 992.0 2711.3, 846.5 2807.4 C 701.0 2903.6, 775.3 2857.2, 552.4 2879.0 C 329.5 2900.8, 418.7 2918.3, 222.7 2855.5 C 26.6 2792.8, 137.8 2833.0, 60.4 2715.0 C -17.0 2597.0, -101.0 2644.3, -23.6 2526.3 C 53.9 2408.3, 14.9 2453.8, 211.0 2391.1 C 407.0 2328.3, 332.5 2290.7, 555.4 2312.5 C 778.3 2334.3, 656.6 2372.5, 802.1 2468.7 C 947.6 2564.8, 953.4 2497.4, 953.4 2623.0 Z" fill="#E9FFF1" opacity="0.36" filter="url(#blur_crm_02_4524)"/>
  <path d="M 788.1 1609.0 C 788.1 1762.9, 772.1 1685.4, 666.8 1803.2 C 561.5 1921.1, 603.2 1935.1, 441.9 1961.8 C 280.6 1988.5, 304.2 1975.2, 162.4 1898.3 C 20.5 1821.3, 72.4 1867.9, 16.4 1723.3 C -39.6 1578.7, 8.2 1653.2, 64.2 1508.6 C 120.3 1363.9, 14.5 1406.5, 156.4 1329.6 C 298.2 1252.6, 271.4 1263.4, 432.7 1290.2 C 594.0 1316.9, 523.9 1253.1, 629.2 1371.0 C 734.5 1488.9, 788.1 1455.1, 788.1 1609.0 Z" fill="#E9FFF1" opacity="0.28" filter="url(#blur_crm_02_4524)"/>
  <path d="M 229.2 1622.0 C 229.2 1790.8, 216.7 1687.6, 134.4 1824.1 C 52.2 1960.7, 143.2 1895.5, 10.1 1947.6 C -123.0 1999.8, -58.7 2036.2, -191.8 1984.1 C -324.9 1931.9, -257.4 1958.2, -339.7 1821.7 C -422.0 1685.2, -360.4 1790.8, -360.4 1622.0 C -360.4 1453.2, -433.2 1558.0, -351.0 1421.5 C -268.7 1285.0, -314.9 1298.6, -181.8 1246.5 C -48.7 1194.4, -123.6 1212.0, 9.5 1264.2 C 142.6 1316.3, 58.1 1236.9, 140.4 1373.4 C 222.6 1509.9, 229.2 1453.2, 229.2 1622.0 Z" fill="#E8FAFF" opacity="0.12" stroke="#FFFFFF" stroke-opacity="0.46" stroke-width="3" filter="url(#soft_crm_02_4524)"/>
  <path d="M 229.2 1622.0 C 229.2 1790.8, 216.7 1687.6, 134.4 1824.1 C 52.2 1960.7, 143.2 1895.5, 10.1 1947.6 C -123.0 1999.8, -58.7 2036.2, -191.8 1984.1 C -324.9 1931.9, -257.4 1958.2, -339.7 1821.7 C -422.0 1685.2, -360.4 1790.8, -360.4 1622.0 C -360.4 1453.2, -433.2 1558.0, -351.0 1421.5 C -268.7 1285.0, -314.9 1298.6, -181.8 1246.5 C -48.7 1194.4, -123.6 1212.0, 9.5 1264.2 C 142.6 1316.3, 58.1 1236.9, 140.4 1373.4 C 222.6 1509.9, 229.2 1453.2, 229.2 1622.0 Z" fill="none" stroke="#FFFFFF" stroke-opacity="0.22" stroke-width="1.2"/>
  <path d="M 383.1 2146.0 C 383.1 2514.6, 416.5 2364.0, 261.8 2662.2 C 107.0 2960.3, 248.1 2704.3, -2.3 2818.2 C -252.6 2932.0, -99.3 3117.0, -349.7 3003.1 C -600.0 2889.2, -457.4 2888.5, -612.1 2590.4 C -766.8 2292.2, -762.6 2514.6, -762.6 2146.0 C -762.6 1777.5, -846.6 1929.4, -691.8 1631.2 C -537.1 1333.1, -620.3 1430.8, -369.9 1316.9 C -119.5 1203.0, -265.3 1146.7, -15.0 1260.6 C 235.4 1374.5, 140.1 1323.1, 294.8 1621.3 C 449.5 1919.4, 383.1 1777.5, 383.1 2146.0 Z" fill="#9EE2C2" opacity="0.12" stroke="#FFFFFF" stroke-opacity="0.46" stroke-width="3" filter="url(#soft_crm_02_4524)"/>
  <path d="M 383.1 2146.0 C 383.1 2514.6, 416.5 2364.0, 261.8 2662.2 C 107.0 2960.3, 248.1 2704.3, -2.3 2818.2 C -252.6 2932.0, -99.3 3117.0, -349.7 3003.1 C -600.0 2889.2, -457.4 2888.5, -612.1 2590.4 C -766.8 2292.2, -762.6 2514.6, -762.6 2146.0 C -762.6 1777.5, -846.6 1929.4, -691.8 1631.2 C -537.1 1333.1, -620.3 1430.8, -369.9 1316.9 C -119.5 1203.0, -265.3 1146.7, -15.0 1260.6 C 235.4 1374.5, 140.1 1323.1, 294.8 1621.3 C 449.5 1919.4, 383.1 1777.5, 383.1 2146.0 Z" fill="none" stroke="#FFFFFF" stroke-opacity="0.22" stroke-width="1.2"/>
  <path d="M 907.8 1250.0 C 907.8 1591.5, 890.4 1409.6, 807.6 1685.9 C 724.8 1962.3, 791.6 1845.0, 657.7 1950.6 C 523.7 2056.1, 597.4 2094.0, 463.5 1988.5 C 329.5 1882.9, 409.1 1919.2, 326.4 1642.9 C 243.6 1366.6, 238.4 1591.5, 238.4 1250.0 C 238.4 908.5, 255.3 1051.0, 338.1 774.7 C 420.9 498.4, 331.2 727.3, 465.2 621.8 C 599.1 516.2, 514.6 482.4, 648.5 587.9 C 782.5 693.5, 761.9 503.1, 844.7 779.5 C 927.5 1055.8, 907.8 908.5, 907.8 1250.0 Z" fill="#D5F4FF" opacity="0.12" stroke="#FFFFFF" stroke-opacity="0.46" stroke-width="3" filter="url(#soft_crm_02_4524)"/>
  <path d="M 907.8 1250.0 C 907.8 1591.5, 890.4 1409.6, 807.6 1685.9 C 724.8 1962.3, 791.6 1845.0, 657.7 1950.6 C 523.7 2056.1, 597.4 2094.0, 463.5 1988.5 C 329.5 1882.9, 409.1 1919.2, 326.4 1642.9 C 243.6 1366.6, 238.4 1591.5, 238.4 1250.0 C 238.4 908.5, 255.3 1051.0, 338.1 774.7 C 420.9 498.4, 331.2 727.3, 465.2 621.8 C 599.1 516.2, 514.6 482.4, 648.5 587.9 C 782.5 693.5, 761.9 503.1, 844.7 779.5 C 927.5 1055.8, 907.8 908.5, 907.8 1250.0 Z" fill="none" stroke="#FFFFFF" stroke-opacity="0.22" stroke-width="1.2"/>
  <path d="M 278.7 2175.0 C 278.7 2418.9, 301.4 2335.4, 196.9 2532.7 C 92.4 2730.0, 136.2 2568.6, -32.8 2644.0 C -201.9 2719.4, -108.9 2767.7, -277.9 2692.3 C -447.0 2616.9, -389.1 2694.1, -493.6 2496.8 C -598.0 2299.5, -504.8 2418.9, -504.8 2175.0 C -504.8 1931.1, -590.2 2046.6, -485.7 1849.2 C -381.3 1651.9, -442.7 1671.6, -273.7 1596.2 C -104.6 1520.8, -205.1 1598.6, -36.0 1674.0 C 133.0 1749.4, 71.0 1649.6, 175.5 1846.9 C 279.9 2044.2, 278.7 1931.1, 278.7 2175.0 Z" fill="#F6F7FF" opacity="0.12" stroke="#FFFFFF" stroke-opacity="0.46" stroke-width="3" filter="url(#soft_crm_02_4524)"/>
  <path d="M 278.7 2175.0 C 278.7 2418.9, 301.4 2335.4, 196.9 2532.7 C 92.4 2730.0, 136.2 2568.6, -32.8 2644.0 C -201.9 2719.4, -108.9 2767.7, -277.9 2692.3 C -447.0 2616.9, -389.1 2694.1, -493.6 2496.8 C -598.0 2299.5, -504.8 2418.9, -504.8 2175.0 C -504.8 1931.1, -590.2 2046.6, -485.7 1849.2 C -381.3 1651.9, -442.7 1671.6, -273.7 1596.2 C -104.6 1520.8, -205.1 1598.6, -36.0 1674.0 C 133.0 1749.4, 71.0 1649.6, 175.5 1846.9 C 279.9 2044.2, 278.7 1931.1, 278.7 2175.0 Z" fill="none" stroke="#FFFFFF" stroke-opacity="0.22" stroke-width="1.2"/>
  <path d="M -100.0 351.5 Q 133.3 448.1, 366.7 548.7 Q 600.0 596.2, 833.3 593.0 Q 1066.7 569.6, 1300.0 393.6" fill="none" stroke="#FFFFFF" stroke-opacity="0.38" stroke-width="4" filter="url(#soft_crm_02_4524)"/>
  <path d="M -100.0 351.5 Q 133.3 448.1, 366.7 548.7 Q 600.0 596.2, 833.3 593.0 Q 1066.7 569.6, 1300.0 393.6" fill="none" stroke="#9EE2C2" stroke-opacity="0.18" stroke-width="2"/>
  <path d="M -100.0 1564.2 Q 133.3 1796.9, 366.7 1798.4 Q 600.0 1838.0, 833.3 1754.7 Q 1066.7 1596.9, 1300.0 1396.1" fill="none" stroke="#FFFFFF" stroke-opacity="0.38" stroke-width="4" filter="url(#soft_crm_02_4524)"/>
  <path d="M -100.0 1564.2 Q 133.3 1796.9, 366.7 1798.4 Q 600.0 1838.0, 833.3 1754.7 Q 1066.7 1596.9, 1300.0 1396.1" fill="none" stroke="#6DB6CF" stroke-opacity="0.18" stroke-width="2"/>
  <path d="M -100.0 2536.5 Q 133.3 2907.6, 366.7 2765.6 Q 600.0 2486.9, 833.3 2388.4 Q 1066.7 2507.8, 1300.0 2811.3" fill="none" stroke="#FFFFFF" stroke-opacity="0.38" stroke-width="4" filter="url(#soft_crm_02_4524)"/>
  <path d="M -100.0 2536.5 Q 133.3 2907.6, 366.7 2765.6 Q 600.0 2486.9, 833.3 2388.4 Q 1066.7 2507.8, 1300.0 2811.3" fill="none" stroke="#6DB6CF" stroke-opacity="0.18" stroke-width="2"/>
  <path d="M -100.0 1171.4 Q 133.3 1063.1, 366.7 901.0 Q 600.0 706.1, 833.3 758.7 Q 1066.7 760.7, 1300.0 870.4" fill="none" stroke="#FFFFFF" stroke-opacity="0.38" stroke-width="4" filter="url(#soft_crm_02_4524)"/>
  <path d="M -100.0 1171.4 Q 133.3 1063.1, 366.7 901.0 Q 600.0 706.1, 833.3 758.7 Q 1066.7 760.7, 1300.0 870.4" fill="none" stroke="#6DB6CF" stroke-opacity="0.18" stroke-width="2"/>
  <circle cx="366" cy="467" r="285" fill="url(#orb_crm_02_4524)" opacity="0.36"/>
  <circle cx="366" cy="467" r="285" fill="#A7CCFF" opacity="0.08"/>
  <circle cx="366" cy="467" r="285" fill="none" stroke="#FFFFFF" stroke-opacity="0.56" stroke-width="3"/>
  <ellipse cx="286.2" cy="364.4" rx="51.3" ry="22.8" fill="#FFFFFF" opacity="0.42" transform="rotate(-22 286.2 364.4)"/>
  <circle cx="1196" cy="1577" r="287" fill="url(#orb_crm_02_4524)" opacity="0.36"/>
  <circle cx="1196" cy="1577" r="287" fill="#FBFFFF" opacity="0.08"/>
  <circle cx="1196" cy="1577" r="287" fill="none" stroke="#FFFFFF" stroke-opacity="0.56" stroke-width="3"/>
  <ellipse cx="1115.6" cy="1473.7" rx="51.7" ry="23.0" fill="#FFFFFF" opacity="0.42" transform="rotate(-22 1115.6 1473.7)"/>
  <circle cx="481" cy="1279" r="117" fill="url(#orb_crm_02_4524)" opacity="0.36"/>
  <circle cx="481" cy="1279" r="117" fill="#E8FAFF" opacity="0.08"/>
  <circle cx="481" cy="1279" r="117" fill="none" stroke="#FFFFFF" stroke-opacity="0.56" stroke-width="3"/>
  <ellipse cx="448.2" cy="1236.9" rx="21.1" ry="9.4" fill="#FFFFFF" opacity="0.42" transform="rotate(-22 448.2 1236.9)"/>
  <circle cx="1047" cy="1288" r="173" fill="url(#orb_crm_02_4524)" opacity="0.26"/>
  <circle cx="1047" cy="1288" r="173" fill="#9EE2C2" opacity="0.08"/>
  <circle cx="1047" cy="1288" r="173" fill="none" stroke="#FFFFFF" stroke-opacity="0.56" stroke-width="3"/>
  <ellipse cx="998.6" cy="1225.7" rx="31.1" ry="13.8" fill="#FFFFFF" opacity="0.42" transform="rotate(-22 998.6 1225.7)"/>
  <circle cx="742" cy="-3" r="105" fill="url(#orb_crm_02_4524)" opacity="0.21"/>
  <circle cx="742" cy="-3" r="105" fill="#A7CCFF" opacity="0.08"/>
  <circle cx="742" cy="-3" r="105" fill="none" stroke="#FFFFFF" stroke-opacity="0.56" stroke-width="3"/>
  <ellipse cx="712.6" cy="-40.8" rx="18.9" ry="8.4" fill="#FFFFFF" opacity="0.42" transform="rotate(-22 712.6 -40.8)"/>
  <circle cx="188" cy="1875" r="133" fill="url(#orb_crm_02_4524)" opacity="0.22"/>
  <circle cx="188" cy="1875" r="133" fill="#E9FFF1" opacity="0.08"/>
  <circle cx="188" cy="1875" r="133" fill="none" stroke="#FFFFFF" stroke-opacity="0.56" stroke-width="3"/>
  <ellipse cx="150.8" cy="1827.1" rx="23.9" ry="10.6" fill="#FFFFFF" opacity="0.42" transform="rotate(-22 150.8 1827.1)"/>
  <circle cx="1254" cy="862" r="229" fill="url(#orb_crm_02_4524)" opacity="0.23"/>
  <circle cx="1254" cy="862" r="229" fill="#E9FFF1" opacity="0.08"/>
  <circle cx="1254" cy="862" r="229" fill="none" stroke="#FFFFFF" stroke-opacity="0.56" stroke-width="3"/>
  <ellipse cx="1189.9" cy="779.6" rx="41.2" ry="18.3" fill="#FFFFFF" opacity="0.42" transform="rotate(-22 1189.9 779.6)"/>
  <circle cx="46" cy="1025" r="285" fill="url(#orb_crm_02_4524)" opacity="0.26"/>
  <circle cx="46" cy="1025" r="285" fill="#A7CCFF" opacity="0.08"/>
  <circle cx="46" cy="1025" r="285" fill="none" stroke="#FFFFFF" stroke-opacity="0.56" stroke-width="3"/>
  <ellipse cx="-33.8" cy="922.4" rx="51.3" ry="22.8" fill="#FFFFFF" opacity="0.42" transform="rotate(-22 -33.8 922.4)"/>
  <circle cx="718" cy="110" r="182" fill="url(#orb_crm_02_4524)" opacity="0.25"/>
  <circle cx="718" cy="110" r="182" fill="#E9FFF1" opacity="0.08"/>
  <circle cx="718" cy="110" r="182" fill="none" stroke="#FFFFFF" stroke-opacity="0.56" stroke-width="3"/>
  <ellipse cx="667.0" cy="44.5" rx="32.8" ry="14.6" fill="#FFFFFF" opacity="0.42" transform="rotate(-22 667.0 44.5)"/>
  <circle cx="403" cy="1296" r="260" fill="url(#orb_crm_02_4524)" opacity="0.26"/>
  <circle cx="403" cy="1296" r="260" fill="#9EE2C2" opacity="0.08"/>
  <circle cx="403" cy="1296" r="260" fill="none" stroke="#FFFFFF" stroke-opacity="0.56" stroke-width="3"/>
  <ellipse cx="330.2" cy="1202.4" rx="46.8" ry="20.8" fill="#FFFFFF" opacity="0.42" transform="rotate(-22 330.2 1202.4)"/>
  <circle cx="675" cy="2050" r="114" fill="url(#orb_crm_02_4524)" opacity="0.17"/>
  <circle cx="675" cy="2050" r="114" fill="#A7CCFF" opacity="0.08"/>
  <circle cx="675" cy="2050" r="114" fill="none" stroke="#FFFFFF" stroke-opacity="0.56" stroke-width="3"/>
  <ellipse cx="643.1" cy="2009.0" rx="20.5" ry="9.1" fill="#FFFFFF" opacity="0.42" transform="rotate(-22 643.1 2009.0)"/>
  <circle cx="74" cy="1906" r="5" fill="#FFFFFF" opacity="0.66"/>
  <circle cx="1086" cy="1221" r="3" fill="#FFFFFF" opacity="0.40"/>
  <circle cx="963" cy="525" r="5" fill="#FFFFFF" opacity="0.42"/>
  <circle cx="1174" cy="1094" r="3" fill="#FFFFFF" opacity="0.35"/>
  <circle cx="37" cy="1135" r="5" fill="#FFFFFF" opacity="0.40"/>
  <circle cx="1041" cy="1475" r="5" fill="#FFFFFF" opacity="0.63"/>
  <circle cx="951" cy="186" r="4" fill="#FFFFFF" opacity="0.45"/>
  <circle cx="909" cy="1682" r="4" fill="#FFFFFF" opacity="0.41"/>
  <circle cx="275" cy="767" r="2" fill="#FFFFFF" opacity="0.66"/>
  <circle cx="547" cy="520" r="5" fill="#FFFFFF" opacity="0.30"/>
  <rect width="1200" height="2600" fill="#FFFFFF" opacity="0.08"/>
  <rect width="1200" height="2600" filter="url(#grain_crm_02_4524)" opacity="0.7"/>
</svg>
