<svg xmlns="http://www.w3.org/2000/svg" width="1200" height="2600" viewBox="0 0 1200 2600" preserveAspectRatio="xMidYMid slice">
  <defs>
    <linearGradient id="bg_crm_20_5605" x1="0" y1="0" x2="1" y2="1">
      <stop offset="0%" stop-color="#E9FFF1"/>
      <stop offset="48%" stop-color="#D5F4FF"/>
      <stop offset="100%" stop-color="#FBFFFF"/>
    </linearGradient>
    <radialGradient id="orb_crm_20_5605" cx="35%" cy="30%" r="70%">
      <stop offset="0%" stop-color="#FFFFFF" stop-opacity="0.85"/>
      <stop offset="42%" stop-color="#FFFFFF" stop-opacity="0.20"/>
      <stop offset="100%" stop-color="#FFFFFF" stop-opacity="0.02"/>
    </radialGradient>
    <filter id="blur_crm_20_5605" x="-30%" y="-30%" width="160%" height="160%">
      <feGaussianBlur stdDeviation="72"/>
    </filter>
    <filter id="soft_crm_20_5605" x="-20%" y="-20%" width="140%" height="140%">
      <feGaussianBlur stdDeviation="10"/>
    </filter>
    <filter id="grain_crm_20_5605">
      <feTurbulence type="fractalNoise" baseFrequency="0.85" numOctaves="2" stitchTiles="stitch"/>
      <feColorMatrix type="saturate" values="0"/>
      <feComponentTransfer>
        <feFuncA type="table" tableValues="0 0.035"/>
      </feComponentTransfer>
    </filter>
  </defs>
  <rect width="1200" height="2600" fill="url(#bg_crm_20_5605)"/>
  <path d="M 372.8 140.0 C 372.8 302.5, 373.8 206.4, 223.1 330.9 C 72.4 455.3, 154.9 472.1, -76.0 500.3 C -306.9 528.5, -270.4 570.8, -473.4 489.6 C -676.5 408.4, -572.9 406.5, -653.1 253.8 C -733.3 101.2, -768.3 147.7, -688.1 -5.0 C -607.9 -157.7, -607.3 -92.8, -404.3 -174.1 C -201.3 -255.3, -311.4 -212.7, -80.5 -184.5 C 150.4 -156.3, 62.3 -206.3, 213.0 -81.9 C 363.7 42.6, 372.8 -22.5, 372.8 140.0 Z" fill="#9EE2C2" opacity="0.31" filter="url(#blur_crm_20_5605)"/>
  <path d="M 1678.8 947.0 C 1678.8 1226.5, 1771.5 1130.4, 1644.8 1344.5 C 1518.1 1558.6, 1523.2 1431.0, 1329.1 1479.6 C 1135.0 1528.1, 1191.3 1687.6, 1020.6 1547.9 C 849.9 1408.2, 949.4 1407.1, 882.0 1144.5 C 814.6 881.9, 758.8 1021.8, 826.2 759.2 C 893.6 496.6, 853.8 616.1, 1024.5 476.4 C 1195.2 336.7, 1136.5 279.8, 1330.6 328.3 C 1524.7 376.8, 1506.9 379.7, 1633.6 593.8 C 1760.3 807.9, 1678.8 667.5, 1678.8 947.0 Z" fill="#D5F4FF" opacity="0.37" filter="url(#blur_crm_20_5605)"/>
  <path d="M 523.7 193.0 C 523.7 459.9, 551.7 420.4, 455.1 624.8 C 358.5 829.2, 407.0 746.4, 259.0 792.7 C 111.0 839.1, 183.1 790.2, 52.9 656.7 C -77.3 523.3, -74.1 614.8, -125.5 364.1 C -176.9 113.3, -182.2 223.8, -130.8 -26.9 C -79.4 -277.7, -92.8 -121.7, 37.4 -255.1 C 167.6 -388.5, 100.8 -385.5, 248.9 -339.2 C 396.9 -292.9, 380.7 -326.8, 477.3 -122.4 C 573.9 82.0, 523.7 -73.9, 523.7 193.0 Z" fill="#6DB6CF" opacity="0.32" filter="url(#blur_crm_20_5605)"/>
  <path d="M 1382.5 1880.0 C 1382.5 2150.9, 1414.2 2062.5, 1340.8 2270.0 C 1267.3 2477.5, 1274.5 2515.5, 1161.9 2562.5 C 1049.4 2609.6, 1093.7 2456.6, 994.7 2321.2 C 895.7 2185.7, 935.9 2313.0, 896.8 2058.4 C 857.7 1803.9, 855.1 1936.9, 894.2 1682.4 C 933.3 1427.8, 905.8 1552.9, 1004.8 1417.5 C 1103.8 1282.0, 1055.5 1183.9, 1168.1 1231.0 C 1280.6 1278.0, 1272.0 1346.1, 1345.5 1553.6 C 1419.0 1761.1, 1382.5 1609.1, 1382.5 1880.0 Z" fill="#F6F7FF" opacity="0.30" filter="url(#blur_crm_20_5605)"/>
  <path d="M 151.7 -6.0 C 151.7 266.2, 227.1 125.2, 160.3 333.7 C 93.5 542.3, 93.6 572.3, -8.8 619.6 C -111.1 666.8, -89.9 732.7, -179.9 596.6 C -270.0 460.4, -235.5 483.3, -271.0 227.5 C -306.6 -28.3, -326.8 76.2, -291.3 -179.6 C -255.7 -435.5, -269.8 -301.7, -179.7 -437.8 C -89.7 -573.9, -103.7 -737.1, -1.4 -689.8 C 101.0 -642.6, 85.2 -595.0, 152.0 -386.5 C 218.8 -177.9, 151.7 -278.2, 151.7 -6.0 Z" fill="#D5F4FF" opacity="0.37" filter="url(#blur_crm_20_5605)"/>
  <path d="M 1483.4 1093.0 C 1483.4 1251.0, 1430.8 1194.0, 1335.1 1315.0 C 1239.3 1436.0, 1319.1 1402.7, 1172.5 1430.1 C 1025.8 1457.5, 1083.7 1424.2, 954.7 1345.2 C 825.7 1266.2, 833.3 1373.0, 782.3 1224.5 C 731.4 1076.1, 781.2 1116.2, 832.2 967.8 C 883.1 819.4, 833.0 827.2, 962.0 748.2 C 1091.0 669.2, 1019.9 700.2, 1166.6 727.7 C 1313.3 755.1, 1264.0 739.7, 1359.8 860.7 C 1455.5 981.7, 1483.4 935.0, 1483.4 1093.0 Z" fill="#E8FAFF" opacity="0.38" filter="url(#blur_crm_20_5605)"/>
  <path d="M 731.2 1284.0 C 731.2 1414.0, 848.2 1341.0, 700.4 1440.6 C 552.6 1540.3, 584.3 1533.5, 357.9 1556.1 C 131.4 1578.6, 179.9 1627.2, -19.3 1562.2 C -218.4 1497.2, -169.3 1516.3, -247.9 1394.1 C -326.6 1271.9, -296.7 1318.1, -218.0 1195.8 C -139.4 1073.6, -135.1 1089.1, 64.1 1024.1 C 263.2 959.1, 122.5 957.4, 348.9 979.9 C 575.4 1002.5, 498.4 973.4, 646.2 1073.1 C 794.0 1172.7, 731.2 1154.0, 731.2 1284.0 Z" fill="#FBFFFF" opacity="0.31" filter="url(#blur_crm_20_5605)"/>
  <path d="M 1262.6 634.0 C 1262.6 796.0, 1243.9 742.4, 1122.1 866.5 C 1000.3 990.6, 1084.1 968.5, 897.5 996.7 C 710.9 1024.8, 808.4 978.2, 644.3 897.2 C 480.3 816.2, 529.4 904.3, 464.6 752.1 C 399.8 599.9, 385.5 646.0, 450.3 493.7 C 515.1 341.5, 441.9 433.5, 606.0 352.5 C 770.1 271.5, 709.3 228.3, 895.9 256.4 C 1082.5 284.5, 999.6 299.0, 1121.3 423.1 C 1243.1 547.2, 1262.6 472.0, 1262.6 634.0 Z" fill="#9EE2C2" opacity="0.33" filter="url(#blur_crm_20_5605)"/>
  <path d="M 1242.8 1229.0 C 1242.8 1472.0, 1334.6 1410.0, 1216.6 1596.2 C 1098.6 1782.3, 1161.6 1802.7, 980.8 1844.9 C 800.0 1887.1, 879.2 1814.2, 720.2 1692.7 C 561.2 1571.2, 602.6 1628.7, 539.8 1400.4 C 477.0 1172.0, 449.0 1263.4, 511.8 1035.0 C 574.6 806.7, 526.3 830.9, 685.3 709.4 C 844.3 587.9, 780.1 726.3, 961.0 768.5 C 1141.8 810.7, 1112.6 752.5, 1230.6 938.6 C 1348.6 1124.8, 1242.8 986.0, 1242.8 1229.0 Z" fill="#E8FAFF" opacity="0.36" filter="url(#blur_crm_20_5605)"/>
  <path d="M 598.5 361.0 C 598.5 575.2, 628.0 468.3, 534.0 632.4 C 440.0 796.5, 471.3 745.8, 327.3 783.0 C 183.2 820.2, 228.1 895.0, 101.5 787.9 C -25.2 680.8, -13.6 740.4, -63.6 539.2 C -113.6 337.9, -92.7 422.6, -42.7 221.3 C 7.3 20.1, -20.8 79.6, 105.8 -27.5 C 232.5 -134.6, 175.0 -181.4, 319.0 -144.2 C 463.1 -107.0, 422.5 -75.4, 516.5 88.7 C 610.5 252.8, 598.5 146.8, 598.5 361.0 Z" fill="#9EE2C2" opacity="0.18" filter="url(#blur_crm_20_5605)"/>
  <path d="M 1044.7 2133.0 C 1044.7 2409.8, 1041.7 2363.0, 972.3 2575.0 C 902.9 2787.0, 946.1 2720.1, 839.8 2768.2 C 733.4 2816.3, 789.9 2753.9, 696.4 2615.5 C 602.8 2477.1, 573.8 2618.8, 536.8 2358.8 C 499.9 2098.7, 496.7 2218.7, 533.7 1958.6 C 570.6 1698.6, 590.1 1779.2, 683.6 1640.8 C 777.1 1502.4, 732.9 1563.2, 839.3 1611.3 C 945.6 1659.3, 909.4 1585.8, 978.8 1797.8 C 1048.3 2009.8, 1044.7 1856.2, 1044.7 2133.0 Z" fill="#FBFFFF" opacity="0.24" filter="url(#blur_crm_20_5605)"/>
  <path d="M 1206.5 1148.0 C 1206.5 1414.8, 1214.7 1328.5, 1127.4 1532.9 C 1040.0 1737.3, 1128.8 1621.8, 995.0 1668.2 C 861.2 1714.5, 904.6 1783.4, 786.9 1649.9 C 669.2 1516.5, 683.9 1576.9, 637.5 1326.2 C 591.0 1075.4, 657.4 1208.4, 703.9 957.7 C 750.4 706.9, 659.8 697.4, 777.5 564.0 C 895.2 430.5, 848.2 440.3, 982.0 486.6 C 1115.9 533.0, 1106.6 605.3, 1194.0 809.7 C 1281.3 1014.1, 1206.5 881.1, 1206.5 1148.0 Z" fill="#D5F4FF" opacity="0.35" filter="url(#blur_crm_20_5605)"/>
  <path d="M 595.6 2719.0 C 595.6 2889.6, 578.6 2867.4, 480.6 2998.0 C 382.5 3128.7, 418.4 3099.6, 268.2 3129.2 C 117.9 3158.8, 164.8 3105.0, 32.7 3019.7 C -99.4 2934.4, -72.6 3013.4, -124.8 2853.1 C -176.9 2692.9, -122.1 2749.3, -69.9 2589.1 C -17.7 2428.8, -111.1 2481.7, 21.0 2396.4 C 153.1 2311.2, 100.1 2255.0, 250.3 2284.6 C 400.6 2314.2, 375.9 2371.4, 474.0 2502.1 C 572.0 2632.7, 595.6 2548.4, 595.6 2719.0 Z" fill="#A7CCFF" opacity="0.34" filter="url(#blur_crm_20_5605)"/>
  <path d="M 1139.7 -117.0 C 1139.7 41.8, 1156.2 -56.0, 1053.8 72.5 C 951.4 201.0, 1041.9 200.4, 876.3 249.5 C 710.7 298.6, 792.7 279.0, 627.1 229.9 C 461.5 180.8, 563.3 204.7, 460.9 76.2 C 358.6 -52.3, 396.9 41.9, 396.9 -117.0 C 396.9 -275.8, 333.3 -204.7, 435.7 -333.3 C 538.0 -461.8, 469.8 -450.4, 635.4 -499.5 C 801.0 -548.5, 709.5 -468.3, 875.2 -419.2 C 1040.8 -370.1, 976.5 -435.5, 1078.9 -307.0 C 1181.2 -178.5, 1139.7 -275.9, 1139.7 -117.0 Z" fill="#D5F4FF" opacity="0.12" stroke="#D5F4FF" stroke-opacity="0.46" stroke-width="3" filter="url(#soft_crm_20_5605)"/>
  <path d="M 1139.7 -117.0 C 1139.7 41.8, 1156.2 -56.0, 1053.8 72.5 C 951.4 201.0, 1041.9 200.4, 876.3 249.5 C 710.7 298.6, 792.7 279.0, 627.1 229.9 C 461.5 180.8, 563.3 204.7, 460.9 76.2 C 358.6 -52.3, 396.9 41.9, 396.9 -117.0 C 396.9 -275.8, 333.3 -204.7, 435.7 -333.3 C 538.0 -461.8, 469.8 -450.4, 635.4 -499.5 C 801.0 -548.5, 709.5 -468.3, 875.2 -419.2 C 1040.8 -370.1, 976.5 -435.5, 1078.9 -307.0 C 1181.2 -178.5, 1139.7 -275.9, 1139.7 -117.0 Z" fill="none" stroke="#FFFFFF" stroke-opacity="0.22" stroke-width="1.2"/>
  <path d="M 1071.3 1637.0 C 1071.3 1957.8, 1102.4 1741.3, 1019.7 2000.8 C 936.9 2260.4, 1005.4 2292.5, 871.4 2391.7 C 737.5 2490.8, 793.5 2417.4, 659.6 2318.3 C 525.6 2219.1, 618.4 2296.2, 535.6 2036.6 C 452.8 1777.0, 409.8 1957.8, 409.8 1637.0 C 409.8 1316.2, 419.0 1469.2, 501.8 1209.6 C 584.6 950.1, 522.6 983.2, 656.6 884.1 C 790.5 784.9, 719.4 840.7, 853.4 939.9 C 987.3 1039.0, 930.1 993.9, 1012.9 1253.5 C 1095.7 1513.0, 1071.3 1316.2, 1071.3 1637.0 Z" fill="#A7CCFF" opacity="0.12" stroke="#A7CCFF" stroke-opacity="0.46" stroke-width="3" filter="url(#soft_crm_20_5605)"/>
  <path d="M 1071.3 1637.0 C 1071.3 1957.8, 1102.4 1741.3, 1019.7 2000.8 C 936.9 2260.4, 1005.4 2292.5, 871.4 2391.7 C 737.5 2490.8, 793.5 2417.4, 659.6 2318.3 C 525.6 2219.1, 618.4 2296.2, 535.6 2036.6 C 452.8 1777.0, 409.8 1957.8, 409.8 1637.0 C 409.8 1316.2, 419.0 1469.2, 501.8 1209.6 C 584.6 950.1, 522.6 983.2, 656.6 884.1 C 790.5 784.9, 719.4 840.7, 853.4 939.9 C 987.3 1039.0, 930.1 993.9, 1012.9 1253.5 C 1095.7 1513.0, 1071.3 1316.2, 1071.3 1637.0 Z" fill="none" stroke="#FFFFFF" stroke-opacity="0.22" stroke-width="1.2"/>
  <path d="M 1394.7 2771.0 C 1394.7 3076.6, 1360.7 2948.6, 1213.6 3195.8 C 1066.6 3443.0, 1215.9 3292.0, 977.9 3386.4 C 740.0 3480.9, 882.0 3468.9, 644.0 3374.5 C 406.1 3280.0, 557.7 3434.3, 410.6 3187.1 C 263.6 2939.9, 282.6 3076.6, 282.6 2771.0 C 282.6 2465.4, 259.0 2643.8, 406.1 2396.6 C 553.1 2149.4, 398.3 2148.1, 636.3 2053.7 C 874.2 1959.3, 732.2 2110.6, 970.2 2205.0 C 1208.1 2299.4, 1157.2 2090.2, 1304.3 2337.3 C 1451.3 2584.5, 1394.7 2465.4, 1394.7 2771.0 Z" fill="#E9FFF1" opacity="0.12" stroke="#FFFFFF" stroke-opacity="0.46" stroke-width="3" filter="url(#soft_crm_20_5605)"/>
  <path d="M 1394.7 2771.0 C 1394.7 3076.6, 1360.7 2948.6, 1213.6 3195.8 C 1066.6 3443.0, 1215.9 3292.0, 977.9 3386.4 C 740.0 3480.9, 882.0 3468.9, 644.0 3374.5 C 406.1 3280.0, 557.7 3434.3, 410.6 3187.1 C 263.6 2939.9, 282.6 3076.6, 282.6 2771.0 C 282.6 2465.4, 259.0 2643.8, 406.1 2396.6 C 553.1 2149.4, 398.3 2148.1, 636.3 2053.7 C 874.2 1959.3, 732.2 2110.6, 970.2 2205.0 C 1208.1 2299.4, 1157.2 2090.2, 1304.3 2337.3 C 1451.3 2584.5, 1394.7 2465.4, 1394.7 2771.0 Z" fill="none" stroke="#FFFFFF" stroke-opacity="0.22" stroke-width="1.2"/>
  <path d="M 1713.9 1156.0 C 1713.9 1552.5, 1729.3 1394.9, 1641.4 1715.6 C 1553.6 2036.4, 1645.3 1888.5, 1503.2 2011.0 C 1361.1 2133.5, 1439.4 2082.3, 1297.3 1959.8 C 1155.2 1837.3, 1186.0 2001.0, 1098.2 1680.2 C 1010.3 1359.5, 1055.3 1552.5, 1055.3 1156.0 C 1055.3 759.6, 1058.6 934.6, 1146.4 613.8 C 1234.2 293.1, 1158.1 464.9, 1300.2 342.4 C 1442.3 219.9, 1344.0 263.8, 1486.1 386.3 C 1628.2 508.8, 1541.2 366.5, 1629.0 687.2 C 1716.8 1008.0, 1713.9 759.5, 1713.9 1156.0 Z" fill="#F6F7FF" opacity="0.12" stroke="#F6F7FF" stroke-opacity="0.46" stroke-width="3" filter="url(#soft_crm_20_5605)"/>
  <path d="M 1713.9 1156.0 C 1713.9 1552.5, 1729.3 1394.9, 1641.4 1715.6 C 1553.6 2036.4, 1645.3 1888.5, 1503.2 2011.0 C 1361.1 2133.5, 1439.4 2082.3, 1297.3 1959.8 C 1155.2 1837.3, 1186.0 2001.0, 1098.2 1680.2 C 1010.3 1359.5, 1055.3 1552.5, 1055.3 1156.0 C 1055.3 759.6, 1058.6 934.6, 1146.4 613.8 C 1234.2 293.1, 1158.1 464.9, 1300.2 342.4 C 1442.3 219.9, 1344.0 263.8, 1486.1 386.3 C 1628.2 508.8, 1541.2 366.5, 1629.0 687.2 C 1716.8 1008.0, 1713.9 759.5, 1713.9 1156.0 Z" fill="none" stroke="#FFFFFF" stroke-opacity="0.22" stroke-width="1.2"/>
  <path d="M 757.9 1363.0 C 757.9 1642.9, 809.2 1517.6, 687.2 1744.0 C 565.3 1970.5, 608.3 1809.9, 411.0 1896.4 C 213.7 1982.9, 316.6 2076.8, 119.3 1990.4 C -78.0 1903.9, 61.9 1997.5, -60.0 1771.1 C -181.9 1544.7, -225.2 1642.9, -225.2 1363.0 C -225.2 1083.1, -240.2 1197.3, -118.3 970.8 C 3.6 744.4, -52.9 929.1, 144.4 842.6 C 341.7 756.1, 243.8 761.9, 441.1 848.4 C 638.4 934.9, 511.5 745.7, 633.5 972.2 C 755.4 1198.6, 757.9 1083.1, 757.9 1363.0 Z" fill="#E9FFF1" opacity="0.12" stroke="#E9FFF1" stroke-opacity="0.46" stroke-width="3" filter="url(#soft_crm_20_5605)"/>
  <path d="M 757.9 1363.0 C 757.9 1642.9, 809.2 1517.6, 687.2 1744.0 C 565.3 1970.5, 608.3 1809.9, 411.0 1896.4 C 213.7 1982.9, 316.6 2076.8, 119.3 1990.4 C -78.0 1903.9, 61.9 1997.5, -60.0 1771.1 C -181.9 1544.7, -225.2 1642.9, -225.2 1363.0 C -225.2 1083.1, -240.2 1197.3, -118.3 970.8 C 3.6 744.4, -52.9 929.1, 144.4 842.6 C 341.7 756.1, 243.8 761.9, 441.1 848.4 C 638.4 934.9, 511.5 745.7, 633.5 972.2 C 755.4 1198.6, 757.9 1083.1, 757.9 1363.0 Z" fill="none" stroke="#FFFFFF" stroke-opacity="0.22" stroke-width="1.2"/>
  <path d="M 1152.7 1292.0 C 1152.7 1535.9, 1268.7 1393.1, 1092.3 1590.4 C 915.9 1787.8, 1039.8 1673.9, 754.4 1749.3 C 468.9 1824.7, 585.6 1841.5, 300.1 1766.1 C 14.7 1690.7, 230.3 1817.8, 53.9 1620.5 C -122.5 1423.2, -123.7 1535.9, -123.7 1292.0 C -123.7 1048.1, -165.6 1130.7, 10.8 933.4 C 187.3 736.1, 62.1 821.8, 347.5 746.5 C 633.0 671.1, 455.5 662.7, 740.9 738.1 C 1026.4 813.4, 835.6 794.8, 1012.0 992.1 C 1188.4 1189.4, 1152.7 1048.1, 1152.7 1292.0 Z" fill="#F6F7FF" opacity="0.12" stroke="#F6F7FF" stroke-opacity="0.46" stroke-width="3" filter="url(#soft_crm_20_5605)"/>
  <path d="M 1152.7 1292.0 C 1152.7 1535.9, 1268.7 1393.1, 1092.3 1590.4 C 915.9 1787.8, 1039.8 1673.9, 754.4 1749.3 C 468.9 1824.7, 585.6 1841.5, 300.1 1766.1 C 14.7 1690.7, 230.3 1817.8, 53.9 1620.5 C -122.5 1423.2, -123.7 1535.9, -123.7 1292.0 C -123.7 1048.1, -165.6 1130.7, 10.8 933.4 C 187.3 736.1, 62.1 821.8, 347.5 746.5 C 633.0 671.1, 455.5 662.7, 740.9 738.1 C 1026.4 813.4, 835.6 794.8, 1012.0 992.1 C 1188.4 1189.4, 1152.7 1048.1, 1152.7 1292.0 Z" fill="none" stroke="#FFFFFF" stroke-opacity="0.22" stroke-width="1.2"/>
  <path d="M 54.2 -279.0 C 54.2 -124.7, 119.2 -181.7, 41.2 -56.8 C -36.8 68.1, 21.9 43.5, -104.3 91.2 C -230.6 138.9, -159.6 107.9, -285.8 60.2 C -412.1 12.5, -386.6 74.6, -464.6 -50.3 C -542.7 -175.2, -495.1 -124.6, -495.1 -279.0 C -495.1 -433.3, -513.4 -369.2, -435.3 -494.1 C -357.3 -619.0, -435.9 -565.9, -309.7 -613.6 C -183.4 -661.3, -245.5 -613.4, -119.2 -565.7 C 7.0 -518.0, -60.8 -592.7, 17.2 -467.9 C 95.2 -343.0, 54.2 -433.4, 54.2 -279.0 Z" fill="#6DB6CF" opacity="0.12" stroke="#FFFFFF" stroke-opacity="0.46" stroke-width="3" filter="url(#soft_crm_20_5605)"/>
  <path d="M 54.2 -279.0 C 54.2 -124.7, 119.2 -181.7, 41.2 -56.8 C -36.8 68.1, 21.9 43.5, -104.3 91.2 C -230.6 138.9, -159.6 107.9, -285.8 60.2 C -412.1 12.5, -386.6 74.6, -464.6 -50.3 C -542.7 -175.2, -495.1 -124.6, -495.1 -279.0 C -495.1 -433.3, -513.4 -369.2, -435.3 -494.1 C -357.3 -619.0, -435.9 -565.9, -309.7 -613.6 C -183.4 -661.3, -245.5 -613.4, -119.2 -565.7 C 7.0 -518.0, -60.8 -592.7, 17.2 -467.9 C 95.2 -343.0, 54.2 -433.4, 54.2 -279.0 Z" fill="none" stroke="#FFFFFF" stroke-opacity="0.22" stroke-width="1.2"/>
  <path d="M -100.0 2151.9 Q 133.3 2374.9, 366.7 2418.1 Q 600.0 2620.1, 833.3 2442.0 Q 1066.7 2418.3, 1300.0 2188.9" fill="none" stroke="#FFFFFF" stroke-opacity="0.38" stroke-width="4" filter="url(#soft_crm_20_5605)"/>
  <path d="M -100.0 2151.9 Q 133.3 2374.9, 366.7 2418.1 Q 600.0 2620.1, 833.3 2442.0 Q 1066.7 2418.3, 1300.0 2188.9" fill="none" stroke="#9EE2C2" stroke-opacity="0.18" stroke-width="2"/>
  <path d="M -100.0 1497.9 Q 133.3 1387.2, 366.7 1555.7 Q 600.0 1676.2, 833.3 1740.3 Q 1066.7 1673.3, 1300.0 1566.5" fill="none" stroke="#FFFFFF" stroke-opacity="0.38" stroke-width="4" filter="url(#soft_crm_20_5605)"/>
  <path d="M -100.0 1497.9 Q 133.3 1387.2, 366.7 1555.7 Q 600.0 1676.2, 833.3 1740.3 Q 1066.7 1673.3, 1300.0 1566.5" fill="none" stroke="#6DB6CF" stroke-opacity="0.18" stroke-width="2"/>
  <path d="M -100.0 2208.0 Q 133.3 2015.2, 366.7 2104.3 Q 600.0 2353.4, 833.3 2459.1 Q 1066.7 2125.8, 1300.0 2035.6" fill="none" stroke="#FFFFFF" stroke-opacity="0.38" stroke-width="4" filter="url(#soft_crm_20_5605)"/>
  <path d="M -100.0 2208.0 Q 133.3 2015.2, 366.7 2104.3 Q 600.0 2353.4, 833.3 2459.1 Q 1066.7 2125.8, 1300.0 2035.6" fill="none" stroke="#9EE2C2" stroke-opacity="0.18" stroke-width="2"/>
  <circle cx="901" cy="680" r="131" fill="url(#orb_crm_20_5605)" opacity="0.36"/>
  <circle cx="901" cy="680" r="131" fill="#E9FFF1" opacity="0.08"/>
  <circle cx="901" cy="680" r="131" fill="none" stroke="#FFFFFF" stroke-opacity="0.56" stroke-width="3"/>
  <ellipse cx="864.3" cy="632.8" rx="23.6" ry="10.5" fill="#FFFFFF" opacity="0.42" transform="rotate(-22 864.3 632.8)"/>
  <circle cx="627" cy="1385" r="86" fill="url(#orb_crm_20_5605)" opacity="0.36"/>
  <circle cx="627" cy="1385" r="86" fill="#E8FAFF" opacity="0.08"/>
  <circle cx="627" cy="1385" r="86" fill="none" stroke="#FFFFFF" stroke-opacity="0.56" stroke-width="3"/>
  <ellipse cx="602.9" cy="1354.0" rx="15.5" ry="6.9" fill="#FFFFFF" opacity="0.42" transform="rotate(-22 602.9 1354.0)"/>
  <circle cx="1235" cy="824" r="206" fill="url(#orb_crm_20_5605)" opacity="0.36"/>
  <circle cx="1235" cy="824" r="206" fill="#F6F7FF" opacity="0.08"/>
  <circle cx="1235" cy="824" r="206" fill="none" stroke="#FFFFFF" stroke-opacity="0.56" stroke-width="3"/>
  <ellipse cx="1177.3" cy="749.8" rx="37.1" ry="16.5" fill="#FFFFFF" opacity="0.42" transform="rotate(-22 1177.3 749.8)"/>
  <circle cx="874" cy="411" r="188" fill="url(#orb_crm_20_5605)" opacity="0.16"/>
  <circle cx="874" cy="411" r="188" fill="#9EE2C2" opacity="0.08"/>
  <circle cx="874" cy="411" r="188" fill="none" stroke="#FFFFFF" stroke-opacity="0.56" stroke-width="3"/>
  <ellipse cx="821.4" cy="343.3" rx="33.8" ry="15.0" fill="#FFFFFF" opacity="0.42" transform="rotate(-22 821.4 343.3)"/>
  <circle cx="569" cy="2521" r="127" fill="url(#orb_crm_20_5605)" opacity="0.22"/>
  <circle cx="569" cy="2521" r="127" fill="#F6F7FF" opacity="0.08"/>
  <circle cx="569" cy="2521" r="127" fill="none" stroke="#FFFFFF" stroke-opacity="0.56" stroke-width="3"/>
  <ellipse cx="533.4" cy="2475.3" rx="22.9" ry="10.2" fill="#FFFFFF" opacity="0.42" transform="rotate(-22 533.4 2475.3)"/>
  <circle cx="1000" cy="2377" r="189" fill="url(#orb_crm_20_5605)" opacity="0.26"/>
  <circle cx="1000" cy="2377" r="189" fill="#E9FFF1" opacity="0.08"/>
  <circle cx="1000" cy="2377" r="189" fill="none" stroke="#FFFFFF" stroke-opacity="0.56" stroke-width="3"/>
  <ellipse cx="947.1" cy="2309.0" rx="34.0" ry="15.1" fill="#FFFFFF" opacity="0.42" transform="rotate(-22 947.1 2309.0)"/>
  <circle cx="561" cy="1916" r="230" fill="url(#orb_crm_20_5605)" opacity="0.23"/>
  <circle cx="561" cy="1916" r="230" fill="#9EE2C2" opacity="0.08"/>
  <circle cx="561" cy="1916" r="230" fill="none" stroke="#FFFFFF" stroke-opacity="0.56" stroke-width="3"/>
  <ellipse cx="496.6" cy="1833.2" rx="41.4" ry="18.4" fill="#FFFFFF" opacity="0.42" transform="rotate(-22 496.6 1833.2)"/>
  <circle cx="1232" cy="1403" r="146" fill="url(#orb_crm_20_5605)" opacity="0.25"/>
  <circle cx="1232" cy="1403" r="146" fill="#A7CCFF" opacity="0.08"/>
  <circle cx="1232" cy="1403" r="146" fill="none" stroke="#FFFFFF" stroke-opacity="0.56" stroke-width="3"/>
  <ellipse cx="1191.1" cy="1350.4" rx="26.3" ry="11.7" fill="#FFFFFF" opacity="0.42" transform="rotate(-22 1191.1 1350.4)"/>
  <circle cx="273" cy="1723" r="3" fill="#FFFFFF" opacity="0.37"/>
  <circle cx="64" cy="1889" r="3" fill="#FFFFFF" opacity="0.59"/>
  <circle cx="113" cy="1083" r="4" fill="#FFFFFF" opacity="0.36"/>
  <circle cx="1028" cy="1095" r="7" fill="#FFFFFF" opacity="0.63"/>
  <circle cx="789" cy="2139" r="2" fill="#FFFFFF" opacity="0.41"/>
  <circle cx="305" cy="449" r="7" fill="#FFFFFF" opacity="0.62"/>
  <circle cx="1003" cy="1876" r="2" fill="#FFFFFF" opacity="0.62"/>
  <circle cx="1067" cy="199" r="4" fill="#FFFFFF" opacity="0.66"/>
  <circle cx="121" cy="249" r="7" fill="#FFFFFF" opacity="0.36"/>
  <circle cx="707" cy="1457" r="7" fill="#FFFFFF" opacity="0.30"/>
  <circle cx="389" cy="2426" r="3" fill="#FFFFFF" opacity="0.50"/>
  <circle cx="797" cy="1668" r="3" fill="#FFFFFF" opacity="0.43"/>
  <rect width="1200" height="2600" fill="#FFFFFF" opacity="0.08"/>
  <rect width="1200" height="2600" filter="url(#grain_crm_20_5605)" opacity="0.7"/>
</svg>
