<svg xmlns="http://www.w3.org/2000/svg" width="1200" height="2600" viewBox="0 0 1200 2600" preserveAspectRatio="xMidYMid slice">
  <defs>
    <linearGradient id="bg_crm_17_8010" x1="0" y1="0" x2="1" y2="1">
      <stop offset="0%" stop-color="#E8FAFF"/>
      <stop offset="48%" stop-color="#F6F7FF"/>
      <stop offset="100%" stop-color="#D5F4FF"/>
    </linearGradient>
    <radialGradient id="orb_crm_17_8010" cx="35%" cy="30%" r="70%">
      <stop offset="0%" stop-color="#FFFFFF" stop-opacity="0.85"/>
      <stop offset="42%" stop-color="#FFFFFF" stop-opacity="0.20"/>
      <stop offset="100%" stop-color="#FFFFFF" stop-opacity="0.02"/>
    </radialGradient>
    <filter id="blur_crm_17_8010" x="-30%" y="-30%" width="160%" height="160%">
      <feGaussianBlur stdDeviation="72"/>
    </filter>
    <filter id="soft_crm_17_8010" x="-20%" y="-20%" width="140%" height="140%">
      <feGaussianBlur stdDeviation="10"/>
    </filter>
    <filter id="grain_crm_17_8010">
      <feTurbulence type="fractalNoise" baseFrequency="0.85" numOctaves="2" stitchTiles="stitch"/>
      <feColorMatrix type="saturate" values="0"/>
      <feComponentTransfer>
        <feFuncA type="table" tableValues="0 0.035"/>
      </feComponentTransfer>
    </filter>
  </defs>
  <rect width="1200" height="2600" fill="url(#bg_crm_17_8010)"/>
  <path d="M 1046.6 870.0 C 1046.6 1107.2, 1051.7 1061.3, 965.2 1243.0 C 878.7 1424.7, 940.2 1387.8, 807.6 1429.0 C 675.1 1470.2, 713.9 1383.8, 597.3 1265.2 C 480.8 1146.7, 547.4 1277.7, 501.4 1054.8 C 455.4 832.0, 463.4 905.8, 509.4 682.9 C 555.5 460.1, 499.1 535.2, 615.6 416.6 C 732.1 298.1, 661.5 289.8, 794.0 330.9 C 926.5 372.1, 854.8 367.3, 941.3 549.0 C 1027.8 730.7, 1046.6 632.9, 1046.6 870.0 Z" fill="#E9FFF1" opacity="0.29" filter="url(#blur_crm_17_8010)"/>
  <path d="M 989.9 1818.0 C 989.9 2083.5, 982.2 1973.8, 846.0 2177.2 C 709.8 2380.6, 765.9 2348.2, 557.2 2394.3 C 348.4 2440.4, 454.8 2421.8, 271.2 2289.0 C 87.7 2156.3, 110.2 2270.9, 37.7 2021.4 C -34.8 1771.9, -67.6 1843.8, 4.9 1594.3 C 77.4 1344.8, 76.6 1380.8, 260.2 1248.1 C 443.8 1115.3, 350.3 1172.2, 559.0 1218.3 C 767.8 1264.4, 647.0 1195.8, 783.2 1399.2 C 919.5 1602.6, 989.9 1552.5, 989.9 1818.0 Z" fill="#D5F4FF" opacity="0.27" filter="url(#blur_crm_17_8010)"/>
  <path d="M 778.8 2311.0 C 778.8 2576.5, 756.7 2532.8, 666.7 2736.2 C 576.7 2939.6, 635.3 2910.7, 497.5 2956.8 C 359.7 3002.9, 396.9 2949.0, 275.7 2816.3 C 154.5 2683.5, 241.7 2744.5, 193.8 2495.0 C 146.0 2245.5, 118.6 2377.0, 166.5 2127.5 C 214.3 1878.0, 160.6 1889.7, 281.8 1756.9 C 403.0 1624.2, 349.2 1605.9, 487.0 1652.0 C 624.8 1698.1, 577.8 1709.3, 667.8 1912.6 C 757.7 2116.0, 778.8 2045.5, 778.8 2311.0 Z" fill="#A7CCFF" opacity="0.18" filter="url(#blur_crm_17_8010)"/>
  <path d="M 1589.9 1627.0 C 1589.9 1896.5, 1578.5 1800.6, 1500.4 2007.1 C 1422.3 2213.6, 1466.9 2213.0, 1347.2 2259.8 C 1227.6 2306.6, 1298.0 2366.3, 1192.8 2231.5 C 1087.6 2096.7, 1082.1 2105.1, 1040.6 1851.8 C 999.0 1598.5, 988.3 1684.0, 1029.8 1430.7 C 1071.4 1177.4, 1072.0 1262.9, 1177.3 1128.1 C 1282.5 993.3, 1237.9 1044.9, 1357.6 1091.8 C 1477.2 1138.6, 1401.1 1088.5, 1479.2 1295.0 C 1557.3 1501.5, 1589.9 1357.5, 1589.9 1627.0 Z" fill="#A7CCFF" opacity="0.37" filter="url(#blur_crm_17_8010)"/>
  <path d="M 222.5 619.0 C 222.5 850.3, 309.3 762.4, 230.1 939.6 C 150.8 1116.8, 144.5 1042.8, 23.1 1083.0 C -98.3 1123.1, -49.8 1160.4, -156.6 1044.7 C -263.4 929.1, -197.0 991.2, -239.2 773.8 C -281.4 556.5, -309.0 656.2, -266.9 438.9 C -224.7 221.5, -283.2 261.7, -176.5 146.1 C -69.7 30.4, -88.9 44.6, 32.5 84.8 C 153.9 125.0, 84.0 65.9, 163.2 243.1 C 242.5 420.2, 222.5 387.7, 222.5 619.0 Z" fill="#E9FFF1" opacity="0.21" filter="url(#blur_crm_17_8010)"/>
  <path d="M 954.5 750.0 C 954.5 921.0, 991.1 905.9, 912.4 1036.9 C 833.7 1167.9, 862.1 1033.5, 741.6 1063.2 C 621.1 1092.9, 653.7 1218.8, 547.7 1133.3 C 441.7 1047.8, 460.6 1036.9, 418.8 876.3 C 376.9 715.6, 359.5 774.6, 401.4 613.9 C 443.2 453.2, 429.7 557.4, 535.7 471.9 C 641.7 386.4, 630.0 359.8, 750.6 389.5 C 871.1 419.2, 857.2 388.1, 935.8 519.1 C 1014.5 650.0, 954.5 579.0, 954.5 750.0 Z" fill="#D5F4FF" opacity="0.23" filter="url(#blur_crm_17_8010)"/>
  <path d="M 1283.0 392.0 C 1283.0 702.0, 1199.7 534.0, 1058.9 771.5 C 918.0 1009.0, 1048.9 999.9, 833.1 1053.7 C 617.2 1107.5, 721.8 1113.9, 532.0 958.9 C 342.3 803.8, 383.5 897.0, 308.5 605.6 C 233.6 314.3, 247.4 459.8, 322.4 168.5 C 397.3 -122.9, 311.8 -50.7, 501.6 -205.8 C 691.4 -360.8, 599.4 -361.2, 815.2 -307.3 C 1031.0 -253.5, 1005.4 -228.0, 1146.2 9.5 C 1287.1 247.0, 1283.0 81.9, 1283.0 392.0 Z" fill="#D5F4FF" opacity="0.31" filter="url(#blur_crm_17_8010)"/>
  <path d="M 1448.1 497.0 C 1448.1 643.7, 1399.7 622.5, 1301.9 734.8 C 1204.2 847.2, 1288.9 792.8, 1139.1 818.3 C 989.3 843.7, 1034.5 868.4, 902.8 795.1 C 771.0 721.7, 851.4 728.7, 799.4 590.8 C 747.3 453.0, 685.1 513.6, 737.1 375.8 C 789.1 237.9, 774.4 296.5, 906.1 223.1 C 1037.8 149.8, 989.9 161.8, 1139.7 187.3 C 1289.5 212.8, 1208.7 154.7, 1306.5 267.1 C 1404.2 379.5, 1448.1 350.3, 1448.1 497.0 Z" fill="#F6F7FF" opacity="0.19" filter="url(#blur_crm_17_8010)"/>
  <path d="M 736.1 -205.0 C 736.1 155.0, 785.0 31.9, 674.1 323.2 C 563.3 614.4, 639.2 475.7, 459.9 587.0 C 280.6 698.2, 367.1 734.0, 187.8 622.7 C 8.4 511.5, 82.8 576.7, -28.0 285.5 C -138.8 -5.8, -109.6 155.0, -109.6 -205.0 C -109.6 -565.0, -92.9 -401.7, 17.9 -693.0 C 128.8 -984.2, 5.3 -875.1, 184.6 -986.3 C 363.9 -1097.6, 263.4 -1057.7, 442.7 -946.4 C 622.0 -835.2, 571.3 -908.6, 682.1 -617.4 C 792.9 -326.1, 736.1 -565.0, 736.1 -205.0 Z" fill="#E8FAFF" opacity="0.12" stroke="#FFFFFF" stroke-opacity="0.46" stroke-width="3" filter="url(#soft_crm_17_8010)"/>
  <path d="M 736.1 -205.0 C 736.1 155.0, 785.0 31.9, 674.1 323.2 C 563.3 614.4, 639.2 475.7, 459.9 587.0 C 280.6 698.2, 367.1 734.0, 187.8 622.7 C 8.4 511.5, 82.8 576.7, -28.0 285.5 C -138.8 -5.8, -109.6 155.0, -109.6 -205.0 C -109.6 -565.0, -92.9 -401.7, 17.9 -693.0 C 128.8 -984.2, 5.3 -875.1, 184.6 -986.3 C 363.9 -1097.6, 263.4 -1057.7, 442.7 -946.4 C 622.0 -835.2, 571.3 -908.6, 682.1 -617.4 C 792.9 -326.1, 736.1 -565.0, 736.1 -205.0 Z" fill="none" stroke="#FFFFFF" stroke-opacity="0.22" stroke-width="1.2"/>
  <path d="M 1035.6 1260.0 C 1035.6 1636.7, 1151.1 1445.1, 1042.7 1749.8 C 934.2 2054.6, 973.4 1989.3, 797.9 2105.7 C 622.5 2222.1, 727.3 2076.0, 551.8 1959.6 C 376.3 1843.2, 428.8 2092.2, 320.3 1787.5 C 211.9 1482.8, 286.2 1636.7, 286.2 1260.0 C 286.2 883.3, 228.9 1029.4, 337.3 724.7 C 445.8 420.0, 369.4 625.1, 544.9 508.8 C 720.4 392.4, 620.4 452.6, 795.9 569.0 C 971.3 685.4, 892.8 493.5, 1001.2 798.2 C 1109.7 1102.9, 1035.6 883.3, 1035.6 1260.0 Z" fill="#6DB6CF" opacity="0.12" stroke="#FFFFFF" stroke-opacity="0.46" stroke-width="3" filter="url(#soft_crm_17_8010)"/>
  <path d="M 1035.6 1260.0 C 1035.6 1636.7, 1151.1 1445.1, 1042.7 1749.8 C 934.2 2054.6, 973.4 1989.3, 797.9 2105.7 C 622.5 2222.1, 727.3 2076.0, 551.8 1959.6 C 376.3 1843.2, 428.8 2092.2, 320.3 1787.5 C 211.9 1482.8, 286.2 1636.7, 286.2 1260.0 C 286.2 883.3, 228.9 1029.4, 337.3 724.7 C 445.8 420.0, 369.4 625.1, 544.9 508.8 C 720.4 392.4, 620.4 452.6, 795.9 569.0 C 971.3 685.4, 892.8 493.5, 1001.2 798.2 C 1109.7 1102.9, 1035.6 883.3, 1035.6 1260.0 Z" fill="none" stroke="#FFFFFF" stroke-opacity="0.22" stroke-width="1.2"/>
  <path d="M 1629.8 1243.0 C 1629.8 1589.0, 1679.6 1451.2, 1571.9 1731.2 C 1464.3 2011.1, 1551.7 1782.7, 1377.5 1889.6 C 1203.3 1996.5, 1298.2 2169.3, 1124.0 2062.3 C 949.9 1955.4, 1010.2 1994.7, 902.5 1714.7 C 794.9 1434.7, 855.0 1589.0, 855.0 1243.0 C 855.0 897.0, 789.3 1108.1, 896.9 828.1 C 1004.6 548.2, 931.8 573.7, 1105.9 466.8 C 1280.1 359.9, 1187.2 346.4, 1361.4 453.3 C 1535.6 560.3, 1491.1 481.7, 1598.8 761.6 C 1706.5 1041.6, 1629.8 897.0, 1629.8 1243.0 Z" fill="#9EE2C2" opacity="0.12" stroke="#9EE2C2" stroke-opacity="0.46" stroke-width="3" filter="url(#soft_crm_17_8010)"/>
  <path d="M 1629.8 1243.0 C 1629.8 1589.0, 1679.6 1451.2, 1571.9 1731.2 C 1464.3 2011.1, 1551.7 1782.7, 1377.5 1889.6 C 1203.3 1996.5, 1298.2 2169.3, 1124.0 2062.3 C 949.9 1955.4, 1010.2 1994.7, 902.5 1714.7 C 794.9 1434.7, 855.0 1589.0, 855.0 1243.0 C 855.0 897.0, 789.3 1108.1, 896.9 828.1 C 1004.6 548.2, 931.8 573.7, 1105.9 466.8 C 1280.1 359.9, 1187.2 346.4, 1361.4 453.3 C 1535.6 560.3, 1491.1 481.7, 1598.8 761.6 C 1706.5 1041.6, 1629.8 897.0, 1629.8 1243.0 Z" fill="none" stroke="#FFFFFF" stroke-opacity="0.22" stroke-width="1.2"/>
  <path d="M 946.0 1474.0 C 946.0 1812.8, 952.0 1674.8, 862.6 1948.9 C 773.2 2223.0, 827.6 1997.0, 683.0 2101.7 C 538.3 2206.4, 597.3 2219.6, 452.7 2114.9 C 308.0 2010.2, 397.0 2246.0, 307.6 1971.8 C 218.2 1697.7, 212.8 1812.8, 212.8 1474.0 C 212.8 1135.2, 231.6 1248.0, 321.0 973.9 C 410.4 699.8, 321.4 919.1, 466.1 814.4 C 610.7 709.7, 519.6 580.8, 664.3 685.5 C 808.9 790.2, 769.2 743.4, 858.6 1017.6 C 948.0 1291.7, 946.0 1135.2, 946.0 1474.0 Z" fill="#A7CCFF" opacity="0.12" stroke="#FFFFFF" stroke-opacity="0.46" stroke-width="3" filter="url(#soft_crm_17_8010)"/>
  <path d="M 946.0 1474.0 C 946.0 1812.8, 952.0 1674.8, 862.6 1948.9 C 773.2 2223.0, 827.6 1997.0, 683.0 2101.7 C 538.3 2206.4, 597.3 2219.6, 452.7 2114.9 C 308.0 2010.2, 397.0 2246.0, 307.6 1971.8 C 218.2 1697.7, 212.8 1812.8, 212.8 1474.0 C 212.8 1135.2, 231.6 1248.0, 321.0 973.9 C 410.4 699.8, 321.4 919.1, 466.1 814.4 C 610.7 709.7, 519.6 580.8, 664.3 685.5 C 808.9 790.2, 769.2 743.4, 858.6 1017.6 C 948.0 1291.7, 946.0 1135.2, 946.0 1474.0 Z" fill="none" stroke="#FFFFFF" stroke-opacity="0.22" stroke-width="1.2"/>
  <path d="M 260.8 2749.0 C 260.8 3107.7, 245.3 2912.7, 131.0 3202.8 C 16.8 3493.0, 129.0 3338.6, -55.9 3449.5 C -240.8 3560.3, -133.4 3545.8, -318.3 3435.0 C -503.2 3324.2, -480.0 3539.9, -594.3 3249.7 C -708.5 2959.6, -672.5 3107.7, -672.5 2749.0 C -672.5 2390.3, -626.4 2624.1, -512.1 2334.0 C -397.9 2043.8, -523.0 2009.8, -338.1 1899.0 C -153.2 1788.2, -250.5 1929.5, -65.6 2040.4 C 119.3 2151.2, -2.3 1968.6, 112.0 2258.7 C 226.3 2548.9, 260.8 2390.3, 260.8 2749.0 Z" fill="#6DB6CF" opacity="0.12" stroke="#6DB6CF" stroke-opacity="0.46" stroke-width="3" filter="url(#soft_crm_17_8010)"/>
  <path d="M 260.8 2749.0 C 260.8 3107.7, 245.3 2912.7, 131.0 3202.8 C 16.8 3493.0, 129.0 3338.6, -55.9 3449.5 C -240.8 3560.3, -133.4 3545.8, -318.3 3435.0 C -503.2 3324.2, -480.0 3539.9, -594.3 3249.7 C -708.5 2959.6, -672.5 3107.7, -672.5 2749.0 C -672.5 2390.3, -626.4 2624.1, -512.1 2334.0 C -397.9 2043.8, -523.0 2009.8, -338.1 1899.0 C -153.2 1788.2, -250.5 1929.5, -65.6 2040.4 C 119.3 2151.2, -2.3 1968.6, 112.0 2258.7 C 226.3 2548.9, 260.8 2390.3, 260.8 2749.0 Z" fill="none" stroke="#FFFFFF" stroke-opacity="0.22" stroke-width="1.2"/>
  <path d="M 1231.7 1452.0 C 1231.7 1639.2, 1191.5 1530.6, 1071.7 1682.0 C 951.9 1833.5, 1075.7 1800.4, 881.8 1858.3 C 688.0 1916.1, 792.8 1861.1, 598.9 1803.3 C 405.0 1745.4, 529.7 1863.3, 409.9 1711.9 C 290.1 1560.5, 315.0 1639.2, 315.0 1452.0 C 315.0 1264.8, 297.7 1349.0, 417.5 1197.5 C 537.3 1046.1, 411.5 1096.4, 605.4 1038.6 C 799.3 980.7, 695.1 952.2, 888.9 1010.1 C 1082.8 1067.9, 1027.9 1024.9, 1147.7 1176.4 C 1267.5 1327.8, 1231.7 1264.8, 1231.7 1452.0 Z" fill="#E8FAFF" opacity="0.12" stroke="#FFFFFF" stroke-opacity="0.46" stroke-width="3" filter="url(#soft_crm_17_8010)"/>
  <path d="M 1231.7 1452.0 C 1231.7 1639.2, 1191.5 1530.6, 1071.7 1682.0 C 951.9 1833.5, 1075.7 1800.4, 881.8 1858.3 C 688.0 1916.1, 792.8 1861.1, 598.9 1803.3 C 405.0 1745.4, 529.7 1863.3, 409.9 1711.9 C 290.1 1560.5, 315.0 1639.2, 315.0 1452.0 C 315.0 1264.8, 297.7 1349.0, 417.5 1197.5 C 537.3 1046.1, 411.5 1096.4, 605.4 1038.6 C 799.3 980.7, 695.1 952.2, 888.9 1010.1 C 1082.8 1067.9, 1027.9 1024.9, 1147.7 1176.4 C 1267.5 1327.8, 1231.7 1264.8, 1231.7 1452.0 Z" fill="none" stroke="#FFFFFF" stroke-opacity="0.22" stroke-width="1.2"/>
  <path d="M -100.0 2493.5 Q 133.3 2683.7, 366.7 2873.4 Q 600.0 2841.4, 833.3 2673.2 Q 1066.7 2496.4, 1300.0 2605.9" fill="none" stroke="#FFFFFF" stroke-opacity="0.38" stroke-width="4" filter="url(#soft_crm_17_8010)"/>
  <path d="M -100.0 2493.5 Q 133.3 2683.7, 366.7 2873.4 Q 600.0 2841.4, 833.3 2673.2 Q 1066.7 2496.4, 1300.0 2605.9" fill="none" stroke="#9EE2C2" stroke-opacity="0.18" stroke-width="2"/>
  <path d="M -100.0 740.4 Q 133.3 242.8, 366.7 274.7 Q 600.0 736.6, 833.3 674.8 Q 1066.7 291.6, 1300.0 282.8" fill="none" stroke="#FFFFFF" stroke-opacity="0.38" stroke-width="4" filter="url(#soft_crm_17_8010)"/>
  <path d="M -100.0 740.4 Q 133.3 242.8, 366.7 274.7 Q 600.0 736.6, 833.3 674.8 Q 1066.7 291.6, 1300.0 282.8" fill="none" stroke="#6DB6CF" stroke-opacity="0.18" stroke-width="2"/>
  <path d="M -100.0 2759.4 Q 133.3 2675.4, 366.7 2189.3 Q 600.0 2354.1, 833.3 2646.3 Q 1066.7 2637.7, 1300.0 2236.8" fill="none" stroke="#FFFFFF" stroke-opacity="0.38" stroke-width="4" filter="url(#soft_crm_17_8010)"/>
  <path d="M -100.0 2759.4 Q 133.3 2675.4, 366.7 2189.3 Q 600.0 2354.1, 833.3 2646.3 Q 1066.7 2637.7, 1300.0 2236.8" fill="none" stroke="#A7CCFF" stroke-opacity="0.18" stroke-width="2"/>
  <path d="M -100.0 1958.0 Q 133.3 1999.7, 366.7 2269.4 Q 600.0 2293.9, 833.3 2176.3 Q 1066.7 1976.7, 1300.0 1896.3" fill="none" stroke="#FFFFFF" stroke-opacity="0.38" stroke-width="4" filter="url(#soft_crm_17_8010)"/>
  <path d="M -100.0 1958.0 Q 133.3 1999.7, 366.7 2269.4 Q 600.0 2293.9, 833.3 2176.3 Q 1066.7 1976.7, 1300.0 1896.3" fill="none" stroke="#A7CCFF" stroke-opacity="0.18" stroke-width="2"/>
  <path d="M -100.0 214.4 Q 133.3 296.1, 366.7 448.6 Q 600.0 604.4, 833.3 723.7 Q 1066.7 871.9, 1300.0 688.2" fill="none" stroke="#FFFFFF" stroke-opacity="0.38" stroke-width="4" filter="url(#soft_crm_17_8010)"/>
  <path d="M -100.0 214.4 Q 133.3 296.1, 366.7 448.6 Q 600.0 604.4, 833.3 723.7 Q 1066.7 871.9, 1300.0 688.2" fill="none" stroke="#9EE2C2" stroke-opacity="0.18" stroke-width="2"/>
  <circle cx="82" cy="2466" r="153" fill="url(#orb_crm_17_8010)" opacity="0.36"/>
  <circle cx="82" cy="2466" r="153" fill="#A7CCFF" opacity="0.08"/>
  <circle cx="82" cy="2466" r="153" fill="none" stroke="#FFFFFF" stroke-opacity="0.56" stroke-width="3"/>
  <ellipse cx="39.2" cy="2410.9" rx="27.5" ry="12.2" fill="#FFFFFF" opacity="0.42" transform="rotate(-22 39.2 2410.9)"/>
  <circle cx="62" cy="271" r="138" fill="url(#orb_crm_17_8010)" opacity="0.36"/>
  <circle cx="62" cy="271" r="138" fill="#A7CCFF" opacity="0.08"/>
  <circle cx="62" cy="271" r="138" fill="none" stroke="#FFFFFF" stroke-opacity="0.56" stroke-width="3"/>
  <ellipse cx="23.4" cy="221.3" rx="24.8" ry="11.0" fill="#FFFFFF" opacity="0.42" transform="rotate(-22 23.4 221.3)"/>
  <circle cx="298" cy="-48" r="103" fill="url(#orb_crm_17_8010)" opacity="0.36"/>
  <circle cx="298" cy="-48" r="103" fill="#A7CCFF" opacity="0.08"/>
  <circle cx="298" cy="-48" r="103" fill="none" stroke="#FFFFFF" stroke-opacity="0.56" stroke-width="3"/>
  <ellipse cx="269.2" cy="-85.1" rx="18.5" ry="8.2" fill="#FFFFFF" opacity="0.42" transform="rotate(-22 269.2 -85.1)"/>
  <circle cx="801" cy="2272" r="208" fill="url(#orb_crm_17_8010)" opacity="0.23"/>
  <circle cx="801" cy="2272" r="208" fill="#FBFFFF" opacity="0.08"/>
  <circle cx="801" cy="2272" r="208" fill="none" stroke="#FFFFFF" stroke-opacity="0.56" stroke-width="3"/>
  <ellipse cx="742.8" cy="2197.1" rx="37.4" ry="16.6" fill="#FFFFFF" opacity="0.42" transform="rotate(-22 742.8 2197.1)"/>
  <circle cx="75" cy="977" r="252" fill="url(#orb_crm_17_8010)" opacity="0.24"/>
  <circle cx="75" cy="977" r="252" fill="#E8FAFF" opacity="0.08"/>
  <circle cx="75" cy="977" r="252" fill="none" stroke="#FFFFFF" stroke-opacity="0.56" stroke-width="3"/>
  <ellipse cx="4.4" cy="886.3" rx="45.4" ry="20.2" fill="#FFFFFF" opacity="0.42" transform="rotate(-22 4.4 886.3)"/>
  <circle cx="1194" cy="841" r="261" fill="url(#orb_crm_17_8010)" opacity="0.25"/>
  <circle cx="1194" cy="841" r="261" fill="#9EE2C2" opacity="0.08"/>
  <circle cx="1194" cy="841" r="261" fill="none" stroke="#FFFFFF" stroke-opacity="0.56" stroke-width="3"/>
  <ellipse cx="1120.9" cy="747.0" rx="47.0" ry="20.9" fill="#FFFFFF" opacity="0.42" transform="rotate(-22 1120.9 747.0)"/>
  <circle cx="402" cy="2542" r="214" fill="url(#orb_crm_17_8010)" opacity="0.20"/>
  <circle cx="402" cy="2542" r="214" fill="#F6F7FF" opacity="0.08"/>
  <circle cx="402" cy="2542" r="214" fill="none" stroke="#FFFFFF" stroke-opacity="0.56" stroke-width="3"/>
  <ellipse cx="342.1" cy="2465.0" rx="38.5" ry="17.1" fill="#FFFFFF" opacity="0.42" transform="rotate(-22 342.1 2465.0)"/>
  <circle cx="1031" cy="1179" r="280" fill="url(#orb_crm_17_8010)" opacity="0.19"/>
  <circle cx="1031" cy="1179" r="280" fill="#FBFFFF" opacity="0.08"/>
  <circle cx="1031" cy="1179" r="280" fill="none" stroke="#FFFFFF" stroke-opacity="0.56" stroke-width="3"/>
  <ellipse cx="952.6" cy="1078.2" rx="50.4" ry="22.4" fill="#FFFFFF" opacity="0.42" transform="rotate(-22 952.6 1078.2)"/>
  <circle cx="274" cy="1830" r="271" fill="url(#orb_crm_17_8010)" opacity="0.26"/>
  <circle cx="274" cy="1830" r="271" fill="#FBFFFF" opacity="0.08"/>
  <circle cx="274" cy="1830" r="271" fill="none" stroke="#FFFFFF" stroke-opacity="0.56" stroke-width="3"/>
  <ellipse cx="198.1" cy="1732.4" rx="48.8" ry="21.7" fill="#FFFFFF" opacity="0.42" transform="rotate(-22 198.1 1732.4)"/>
  <circle cx="476" cy="1555" r="234" fill="url(#orb_crm_17_8010)" opacity="0.23"/>
  <circle cx="476" cy="1555" r="234" fill="#F6F7FF" opacity="0.08"/>
  <circle cx="476" cy="1555" r="234" fill="none" stroke="#FFFFFF" stroke-opacity="0.56" stroke-width="3"/>
  <ellipse cx="410.5" cy="1470.8" rx="42.1" ry="18.7" fill="#FFFFFF" opacity="0.42" transform="rotate(-22 410.5 1470.8)"/>
  <circle cx="105" cy="386" r="2" fill="#FFFFFF" opacity="0.66"/>
  <circle cx="520" cy="312" r="2" fill="#FFFFFF" opacity="0.43"/>
  <circle cx="545" cy="2497" r="3" fill="#FFFFFF" opacity="0.30"/>
  <circle cx="5" cy="2490" r="3" fill="#FFFFFF" opacity="0.55"/>
  <circle cx="1192" cy="1642" r="4" fill="#FFFFFF" opacity="0.62"/>
  <circle cx="350" cy="1592" r="2" fill="#FFFFFF" opacity="0.61"/>
  <circle cx="159" cy="2216" r="5" fill="#FFFFFF" opacity="0.63"/>
  <circle cx="1186" cy="748" r="3" fill="#FFFFFF" opacity="0.56"/>
  <circle cx="212" cy="1453" r="7" fill="#FFFFFF" opacity="0.57"/>
  <circle cx="1083" cy="117" r="2" fill="#FFFFFF" opacity="0.41"/>
  <circle cx="761" cy="2243" r="3" fill="#FFFFFF" opacity="0.71"/>
  <circle cx="629" cy="2078" r="3" fill="#FFFFFF" opacity="0.33"/>
  <circle cx="870" cy="1288" r="3" fill="#FFFFFF" opacity="0.30"/>
  <circle cx="553" cy="464" r="4" fill="#FFFFFF" opacity="0.70"/>
  <circle cx="200" cy="144" r="5" fill="#FFFFFF" opacity="0.68"/>
  <circle cx="160" cy="66" r="7" fill="#FFFFFF" opacity="0.29"/>
  <rect width="1200" height="2600" fill="#FFFFFF" opacity="0.08"/>
  <rect width="1200" height="2600" filter="url(#grain_crm_17_8010)" opacity="0.7"/>
</svg>
