<svg xmlns="http://www.w3.org/2000/svg" width="1200" height="2600" viewBox="0 0 1200 2600" preserveAspectRatio="xMidYMid slice">
  <defs>
    <linearGradient id="bg_crm_07_7559" x1="0" y1="0" x2="1" y2="1">
      <stop offset="0%" stop-color="#D5F4FF"/>
      <stop offset="48%" stop-color="#F6F7FF"/>
      <stop offset="100%" stop-color="#E9FFF1"/>
    </linearGradient>
    <radialGradient id="orb_crm_07_7559" cx="35%" cy="30%" r="70%">
      <stop offset="0%" stop-color="#FFFFFF" stop-opacity="0.85"/>
      <stop offset="42%" stop-color="#FFFFFF" stop-opacity="0.20"/>
      <stop offset="100%" stop-color="#FFFFFF" stop-opacity="0.02"/>
    </radialGradient>
    <filter id="blur_crm_07_7559" x="-30%" y="-30%" width="160%" height="160%">
      <feGaussianBlur stdDeviation="72"/>
    </filter>
    <filter id="soft_crm_07_7559" x="-20%" y="-20%" width="140%" height="140%">
      <feGaussianBlur stdDeviation="10"/>
    </filter>
    <filter id="grain_crm_07_7559">
      <feTurbulence type="fractalNoise" baseFrequency="0.85" numOctaves="2" stitchTiles="stitch"/>
      <feColorMatrix type="saturate" values="0"/>
      <feComponentTransfer>
        <feFuncA type="table" tableValues="0 0.035"/>
      </feComponentTransfer>
    </filter>
  </defs>
  <rect width="1200" height="2600" fill="url(#bg_crm_07_7559)"/>
  <path d="M 903.4 1781.0 C 903.4 1945.7, 982.2 1850.5, 875.7 1976.6 C 769.3 2102.8, 828.7 2170.2, 665.6 2198.8 C 502.5 2227.4, 539.9 2233.0, 396.5 2150.6 C 253.1 2068.3, 339.2 2079.9, 282.5 1925.1 C 225.9 1770.4, 144.7 1829.6, 201.3 1674.8 C 257.9 1520.1, 306.2 1577.8, 449.6 1495.5 C 593.0 1413.1, 500.2 1408.4, 663.3 1437.0 C 826.4 1465.6, 747.2 1410.4, 853.7 1536.6 C 960.1 1662.8, 903.4 1616.3, 903.4 1781.0 Z" fill="#6DB6CF" opacity="0.26" filter="url(#blur_crm_07_7559)"/>
  <path d="M 670.2 2487.0 C 670.2 2752.5, 665.9 2668.8, 584.6 2872.1 C 503.3 3075.5, 529.5 2931.9, 405.0 2978.0 C 280.4 3024.1, 315.1 3065.1, 205.6 2932.4 C 96.0 2799.6, 178.2 2933.5, 134.9 2684.0 C 91.7 2434.5, 51.2 2520.3, 94.5 2270.8 C 137.7 2021.3, 111.5 2181.2, 221.0 2048.5 C 330.5 1915.7, 281.5 1840.0, 406.0 1886.1 C 530.5 1932.2, 468.2 1843.9, 549.5 2047.3 C 630.8 2250.7, 670.2 2221.5, 670.2 2487.0 Z" fill="#6DB6CF" opacity="0.16" filter="url(#blur_crm_07_7559)"/>
  <path d="M 978.0 2618.0 C 978.0 2820.1, 1043.5 2729.0, 964.2 2883.8 C 885.0 3038.6, 886.6 2963.2, 765.2 2998.3 C 643.8 3033.4, 682.1 3116.7, 575.3 3015.7 C 468.5 2914.6, 464.9 2987.1, 422.7 2797.2 C 380.6 2607.3, 396.8 2662.8, 438.9 2472.9 C 481.1 2283.0, 472.2 2346.5, 579.0 2245.5 C 685.8 2144.5, 652.5 2111.8, 773.9 2146.9 C 895.3 2182.0, 816.8 2211.2, 896.0 2366.0 C 975.3 2520.8, 978.0 2415.9, 978.0 2618.0 Z" fill="#D5F4FF" opacity="0.37" filter="url(#blur_crm_07_7559)"/>
  <path d="M 1186.4 63.0 C 1186.4 275.4, 1216.5 152.7, 1084.4 315.4 C 952.2 478.1, 1002.7 497.9, 800.2 534.8 C 597.7 571.7, 707.2 582.2, 529.1 476.0 C 351.0 369.8, 423.8 418.2, 353.4 218.6 C 283.1 19.0, 167.1 126.8, 237.4 -72.7 C 307.7 -272.3, 338.7 -233.6, 516.8 -339.8 C 694.9 -446.0, 591.8 -370.8, 794.3 -333.9 C 996.9 -297.0, 974.0 -428.7, 1106.2 -266.0 C 1238.4 -103.3, 1186.4 -149.4, 1186.4 63.0 Z" fill="#D5F4FF" opacity="0.18" filter="url(#blur_crm_07_7559)"/>
  <path d="M 1026.7 1319.0 C 1026.7 1550.3, 1006.0 1476.4, 935.2 1653.6 C 864.3 1830.8, 921.6 1859.6, 813.0 1899.8 C 704.5 1940.0, 729.9 1926.3, 634.4 1810.7 C 539.0 1695.0, 570.7 1718.7, 533.0 1501.3 C 495.3 1284.0, 467.7 1372.1, 505.4 1154.8 C 543.1 937.4, 552.5 926.8, 648.0 811.1 C 743.5 695.5, 711.2 859.9, 819.8 900.1 C 928.4 940.3, 914.3 869.1, 985.2 1046.3 C 1056.0 1223.5, 1026.7 1087.7, 1026.7 1319.0 Z" fill="#D5F4FF" opacity="0.30" filter="url(#blur_crm_07_7559)"/>
  <path d="M 1293.2 878.0 C 1293.2 1018.9, 1346.2 966.5, 1277.1 1074.4 C 1208.0 1182.3, 1222.4 1116.5, 1116.5 1141.0 C 1010.6 1165.4, 1055.5 1249.0, 962.4 1178.6 C 869.3 1108.2, 850.3 1098.2, 813.5 965.9 C 776.7 833.5, 811.8 915.6, 848.6 783.2 C 885.4 650.9, 854.1 672.4, 947.2 602.0 C 1040.4 531.6, 1011.9 552.9, 1117.8 577.3 C 1223.8 601.8, 1205.2 587.5, 1274.4 695.3 C 1343.5 803.2, 1293.2 737.1, 1293.2 878.0 Z" fill="#D5F4FF" opacity="0.25" filter="url(#blur_crm_07_7559)"/>
  <path d="M 186.5 411.0 C 186.5 666.6, 262.4 547.7, 176.4 743.5 C 90.5 939.3, 118.7 936.5, -12.9 980.8 C -144.6 1025.2, -94.1 1005.6, -209.8 877.8 C -325.5 750.0, -310.0 843.2, -355.7 603.0 C -401.5 362.9, -389.8 439.6, -344.1 199.4 C -298.4 -40.8, -323.0 106.8, -207.3 -21.0 C -91.5 -148.8, -149.1 -201.6, -17.5 -157.2 C 114.1 -112.8, 34.8 -98.5, 120.7 97.3 C 206.6 293.1, 186.5 155.4, 186.5 411.0 Z" fill="#6DB6CF" opacity="0.16" filter="url(#blur_crm_07_7559)"/>
  <path d="M 885.6 50.0 C 885.6 179.6, 948.0 147.6, 878.3 246.9 C 808.6 346.2, 814.7 285.0, 707.9 307.5 C 601.1 330.0, 651.6 396.6, 557.7 331.8 C 463.8 267.0, 479.6 281.1, 442.5 159.4 C 405.4 37.6, 409.5 77.2, 446.6 -44.6 C 483.7 -166.4, 447.1 -91.9, 541.1 -156.7 C 635.0 -221.5, 599.8 -270.8, 706.6 -248.3 C 813.4 -225.8, 757.8 -241.6, 827.5 -142.3 C 897.2 -43.1, 885.6 -79.6, 885.6 50.0 Z" fill="#6DB6CF" opacity="0.33" filter="url(#blur_crm_07_7559)"/>
  <path d="M 1095.9 2807.0 C 1095.9 2949.7, 1046.7 2935.0, 943.5 3044.3 C 840.2 3153.6, 909.6 3094.2, 751.4 3118.9 C 593.1 3143.7, 685.8 3130.6, 546.7 3059.3 C 407.5 2987.9, 391.7 3030.1, 336.7 2896.0 C 281.8 2762.0, 281.7 2823.0, 336.6 2689.0 C 391.6 2554.9, 403.2 2652.1, 542.3 2580.8 C 681.4 2509.5, 613.7 2471.4, 771.9 2496.2 C 930.2 2521.0, 840.2 2494.3, 943.5 2603.6 C 1046.8 2712.9, 1095.9 2664.3, 1095.9 2807.0 Z" fill="#6DB6CF" opacity="0.17" filter="url(#blur_crm_07_7559)"/>
  <path d="M 1042.8 2844.0 C 1042.8 2976.3, 1099.3 2932.6, 959.0 3034.0 C 818.7 3135.3, 865.7 3120.8, 650.8 3143.8 C 435.9 3166.8, 542.5 3151.0, 353.5 3084.8 C 164.5 3018.7, 191.5 3066.6, 116.9 2942.3 C 42.2 2817.9, -21.1 2852.3, 53.6 2728.0 C 128.2 2603.7, 138.8 2698.0, 327.8 2631.8 C 516.8 2565.7, 425.9 2482.3, 640.8 2505.2 C 855.7 2528.2, 850.8 2530.8, 991.1 2632.2 C 1131.4 2733.5, 1042.8 2711.7, 1042.8 2844.0 Z" fill="#D5F4FF" opacity="0.33" filter="url(#blur_crm_07_7559)"/>
  <path d="M 584.1 1058.0 C 584.1 1404.5, 593.3 1289.5, 511.8 1569.9 C 430.3 1850.2, 477.4 1726.2, 345.6 1833.2 C 213.8 1940.3, 290.1 1983.4, 158.2 1876.3 C 26.4 1769.2, 102.0 1850.0, 20.6 1569.6 C -60.9 1289.3, -78.3 1404.5, -78.3 1058.0 C -78.3 711.5, -77.0 936.3, 4.5 656.0 C 86.0 375.7, 23.6 437.4, 155.4 330.3 C 287.2 223.2, 222.9 232.4, 354.7 339.4 C 486.5 446.5, 412.1 272.1, 493.5 552.4 C 575.0 832.7, 584.1 711.5, 584.1 1058.0 Z" fill="#D5F4FF" opacity="0.12" stroke="#D5F4FF" stroke-opacity="0.46" stroke-width="3" filter="url(#soft_crm_07_7559)"/>
  <path d="M 584.1 1058.0 C 584.1 1404.5, 593.3 1289.5, 511.8 1569.9 C 430.3 1850.2, 477.4 1726.2, 345.6 1833.2 C 213.8 1940.3, 290.1 1983.4, 158.2 1876.3 C 26.4 1769.2, 102.0 1850.0, 20.6 1569.6 C -60.9 1289.3, -78.3 1404.5, -78.3 1058.0 C -78.3 711.5, -77.0 936.3, 4.5 656.0 C 86.0 375.7, 23.6 437.4, 155.4 330.3 C 287.2 223.2, 222.9 232.4, 354.7 339.4 C 486.5 446.5, 412.1 272.1, 493.5 552.4 C 575.0 832.7, 584.1 711.5, 584.1 1058.0 Z" fill="none" stroke="#FFFFFF" stroke-opacity="0.22" stroke-width="1.2"/>
  <path d="M 1810.1 813.0 C 1810.1 988.0, 1934.4 921.9, 1751.4 1063.5 C 1568.4 1205.1, 1740.9 1132.9, 1444.8 1187.0 C 1148.6 1241.1, 1269.6 1259.2, 973.5 1205.1 C 677.3 1151.0, 772.4 1209.4, 589.3 1067.8 C 406.3 926.1, 588.4 988.0, 588.4 813.0 C 588.4 638.0, 436.6 754.6, 619.7 613.0 C 802.7 471.4, 661.8 484.4, 958.0 430.3 C 1254.2 376.2, 1117.8 430.2, 1414.0 484.3 C 1710.2 538.4, 1584.4 428.5, 1767.5 570.1 C 1950.5 711.7, 1810.1 638.0, 1810.1 813.0 Z" fill="#E8FAFF" opacity="0.12" stroke="#E8FAFF" stroke-opacity="0.46" stroke-width="3" filter="url(#soft_crm_07_7559)"/>
  <path d="M 1810.1 813.0 C 1810.1 988.0, 1934.4 921.9, 1751.4 1063.5 C 1568.4 1205.1, 1740.9 1132.9, 1444.8 1187.0 C 1148.6 1241.1, 1269.6 1259.2, 973.5 1205.1 C 677.3 1151.0, 772.4 1209.4, 589.3 1067.8 C 406.3 926.1, 588.4 988.0, 588.4 813.0 C 588.4 638.0, 436.6 754.6, 619.7 613.0 C 802.7 471.4, 661.8 484.4, 958.0 430.3 C 1254.2 376.2, 1117.8 430.2, 1414.0 484.3 C 1710.2 538.4, 1584.4 428.5, 1767.5 570.1 C 1950.5 711.7, 1810.1 638.0, 1810.1 813.0 Z" fill="none" stroke="#FFFFFF" stroke-opacity="0.22" stroke-width="1.2"/>
  <path d="M 1759.6 1605.0 C 1759.6 1845.8, 1879.1 1760.5, 1718.6 1955.2 C 1558.0 2150.0, 1653.6 2072.7, 1393.8 2147.1 C 1134.1 2221.5, 1271.2 2162.2, 1011.4 2087.8 C 751.6 2013.4, 818.2 2123.8, 657.6 1929.0 C 497.1 1734.3, 544.4 1845.8, 544.4 1605.0 C 544.4 1364.2, 593.1 1462.1, 753.7 1267.3 C 914.2 1072.5, 765.6 1133.5, 1025.3 1059.1 C 1285.1 984.7, 1114.7 1033.7, 1374.4 1108.1 C 1634.2 1182.5, 1522.5 1097.9, 1683.1 1292.6 C 1843.6 1487.4, 1759.6 1364.2, 1759.6 1605.0 Z" fill="#A7CCFF" opacity="0.12" stroke="#A7CCFF" stroke-opacity="0.46" stroke-width="3" filter="url(#soft_crm_07_7559)"/>
  <path d="M 1759.6 1605.0 C 1759.6 1845.8, 1879.1 1760.5, 1718.6 1955.2 C 1558.0 2150.0, 1653.6 2072.7, 1393.8 2147.1 C 1134.1 2221.5, 1271.2 2162.2, 1011.4 2087.8 C 751.6 2013.4, 818.2 2123.8, 657.6 1929.0 C 497.1 1734.3, 544.4 1845.8, 544.4 1605.0 C 544.4 1364.2, 593.1 1462.1, 753.7 1267.3 C 914.2 1072.5, 765.6 1133.5, 1025.3 1059.1 C 1285.1 984.7, 1114.7 1033.7, 1374.4 1108.1 C 1634.2 1182.5, 1522.5 1097.9, 1683.1 1292.6 C 1843.6 1487.4, 1759.6 1364.2, 1759.6 1605.0 Z" fill="none" stroke="#FFFFFF" stroke-opacity="0.22" stroke-width="1.2"/>
  <path d="M 946.9 2917.0 C 946.9 3287.3, 990.5 3088.6, 894.0 3388.3 C 797.4 3687.9, 877.7 3502.3, 721.5 3616.7 C 565.3 3731.2, 668.9 3817.9, 512.7 3703.4 C 356.5 3589.0, 431.1 3744.8, 334.5 3445.2 C 238.0 3145.6, 242.8 3287.3, 242.8 2917.0 C 242.8 2546.7, 240.8 2671.1, 337.4 2371.4 C 433.9 2071.8, 346.9 2252.8, 503.2 2138.4 C 659.4 2023.9, 568.0 1926.3, 724.3 2040.7 C 880.5 2155.2, 804.7 2113.9, 901.3 2413.5 C 997.8 2713.1, 946.9 2546.7, 946.9 2917.0 Z" fill="#A7CCFF" opacity="0.12" stroke="#A7CCFF" stroke-opacity="0.46" stroke-width="3" filter="url(#soft_crm_07_7559)"/>
  <path d="M 946.9 2917.0 C 946.9 3287.3, 990.5 3088.6, 894.0 3388.3 C 797.4 3687.9, 877.7 3502.3, 721.5 3616.7 C 565.3 3731.2, 668.9 3817.9, 512.7 3703.4 C 356.5 3589.0, 431.1 3744.8, 334.5 3445.2 C 238.0 3145.6, 242.8 3287.3, 242.8 2917.0 C 242.8 2546.7, 240.8 2671.1, 337.4 2371.4 C 433.9 2071.8, 346.9 2252.8, 503.2 2138.4 C 659.4 2023.9, 568.0 1926.3, 724.3 2040.7 C 880.5 2155.2, 804.7 2113.9, 901.3 2413.5 C 997.8 2713.1, 946.9 2546.7, 946.9 2917.0 Z" fill="none" stroke="#FFFFFF" stroke-opacity="0.22" stroke-width="1.2"/>
  <path d="M 1630.2 2033.0 C 1630.2 2297.6, 1647.2 2157.2, 1565.5 2371.3 C 1483.8 2585.3, 1580.9 2436.0, 1448.6 2517.7 C 1316.4 2599.5, 1372.6 2650.2, 1240.4 2568.4 C 1108.1 2486.7, 1188.1 2613.0, 1106.3 2399.0 C 1024.6 2184.9, 999.1 2297.6, 999.1 2033.0 C 999.1 1768.4, 995.4 1902.3, 1077.1 1688.2 C 1158.8 1474.2, 1127.3 1632.5, 1259.5 1550.7 C 1391.8 1468.9, 1308.8 1411.5, 1441.0 1493.3 C 1573.3 1575.0, 1543.8 1467.3, 1625.5 1681.3 C 1707.3 1895.4, 1630.2 1768.4, 1630.2 2033.0 Z" fill="#F6F7FF" opacity="0.12" stroke="#F6F7FF" stroke-opacity="0.46" stroke-width="3" filter="url(#soft_crm_07_7559)"/>
  <path d="M 1630.2 2033.0 C 1630.2 2297.6, 1647.2 2157.2, 1565.5 2371.3 C 1483.8 2585.3, 1580.9 2436.0, 1448.6 2517.7 C 1316.4 2599.5, 1372.6 2650.2, 1240.4 2568.4 C 1108.1 2486.7, 1188.1 2613.0, 1106.3 2399.0 C 1024.6 2184.9, 999.1 2297.6, 999.1 2033.0 C 999.1 1768.4, 995.4 1902.3, 1077.1 1688.2 C 1158.8 1474.2, 1127.3 1632.5, 1259.5 1550.7 C 1391.8 1468.9, 1308.8 1411.5, 1441.0 1493.3 C 1573.3 1575.0, 1543.8 1467.3, 1625.5 1681.3 C 1707.3 1895.4, 1630.2 1768.4, 1630.2 2033.0 Z" fill="none" stroke="#FFFFFF" stroke-opacity="0.22" stroke-width="1.2"/>
  <path d="M 1336.8 2512.0 C 1336.8 2811.7, 1280.1 2708.1, 1134.6 2950.5 C 989.1 3193.0, 1132.9 3139.8, 897.5 3232.4 C 662.1 3325.0, 769.4 3210.4, 534.0 3117.8 C 298.6 3025.2, 464.9 3111.4, 319.5 2868.9 C 174.0 2626.4, 186.8 2811.7, 186.8 2512.0 C 186.8 2212.3, 143.1 2317.1, 288.6 2074.6 C 434.0 1832.1, 298.8 1945.5, 534.2 1852.9 C 769.6 1760.2, 666.8 1718.6, 902.1 1811.2 C 1137.5 1903.8, 1032.5 1880.3, 1178.0 2122.8 C 1323.5 2365.2, 1336.8 2212.3, 1336.8 2512.0 Z" fill="#A7CCFF" opacity="0.12" stroke="#A7CCFF" stroke-opacity="0.46" stroke-width="3" filter="url(#soft_crm_07_7559)"/>
  <path d="M 1336.8 2512.0 C 1336.8 2811.7, 1280.1 2708.1, 1134.6 2950.5 C 989.1 3193.0, 1132.9 3139.8, 897.5 3232.4 C 662.1 3325.0, 769.4 3210.4, 534.0 3117.8 C 298.6 3025.2, 464.9 3111.4, 319.5 2868.9 C 174.0 2626.4, 186.8 2811.7, 186.8 2512.0 C 186.8 2212.3, 143.1 2317.1, 288.6 2074.6 C 434.0 1832.1, 298.8 1945.5, 534.2 1852.9 C 769.6 1760.2, 666.8 1718.6, 902.1 1811.2 C 1137.5 1903.8, 1032.5 1880.3, 1178.0 2122.8 C 1323.5 2365.2, 1336.8 2212.3, 1336.8 2512.0 Z" fill="none" stroke="#FFFFFF" stroke-opacity="0.22" stroke-width="1.2"/>
  <path d="M -100.0 2296.8 Q 133.3 2449.9, 366.7 2420.4 Q 600.0 2320.7, 833.3 2186.8 Q 1066.7 2155.6, 1300.0 2273.1" fill="none" stroke="#FFFFFF" stroke-opacity="0.38" stroke-width="4" filter="url(#soft_crm_07_7559)"/>
  <path d="M -100.0 2296.8 Q 133.3 2449.9, 366.7 2420.4 Q 600.0 2320.7, 833.3 2186.8 Q 1066.7 2155.6, 1300.0 2273.1" fill="none" stroke="#6DB6CF" stroke-opacity="0.18" stroke-width="2"/>
  <path d="M -100.0 1168.9 Q 133.3 1038.9, 366.7 882.9 Q 600.0 665.7, 833.3 686.0 Q 1066.7 827.3, 1300.0 952.9" fill="none" stroke="#FFFFFF" stroke-opacity="0.38" stroke-width="4" filter="url(#soft_crm_07_7559)"/>
  <path d="M -100.0 1168.9 Q 133.3 1038.9, 366.7 882.9 Q 600.0 665.7, 833.3 686.0 Q 1066.7 827.3, 1300.0 952.9" fill="none" stroke="#A7CCFF" stroke-opacity="0.18" stroke-width="2"/>
  <path d="M -100.0 2072.7 Q 133.3 1959.3, 366.7 1804.9 Q 600.0 1746.8, 833.3 1911.4 Q 1066.7 2096.2, 1300.0 1903.6" fill="none" stroke="#FFFFFF" stroke-opacity="0.38" stroke-width="4" filter="url(#soft_crm_07_7559)"/>
  <path d="M -100.0 2072.7 Q 133.3 1959.3, 366.7 1804.9 Q 600.0 1746.8, 833.3 1911.4 Q 1066.7 2096.2, 1300.0 1903.6" fill="none" stroke="#A7CCFF" stroke-opacity="0.18" stroke-width="2"/>
  <path d="M -100.0 2666.6 Q 133.3 2600.7, 366.7 2468.0 Q 600.0 2596.8, 833.3 2658.0 Q 1066.7 2715.1, 1300.0 2487.8" fill="none" stroke="#FFFFFF" stroke-opacity="0.38" stroke-width="4" filter="url(#soft_crm_07_7559)"/>
  <path d="M -100.0 2666.6 Q 133.3 2600.7, 366.7 2468.0 Q 600.0 2596.8, 833.3 2658.0 Q 1066.7 2715.1, 1300.0 2487.8" fill="none" stroke="#6DB6CF" stroke-opacity="0.18" stroke-width="2"/>
  <path d="M -100.0 985.9 Q 133.3 654.4, 366.7 663.1 Q 600.0 622.9, 833.3 947.0 Q 1066.7 940.3, 1300.0 821.1" fill="none" stroke="#FFFFFF" stroke-opacity="0.38" stroke-width="4" filter="url(#soft_crm_07_7559)"/>
  <path d="M -100.0 985.9 Q 133.3 654.4, 366.7 663.1 Q 600.0 622.9, 833.3 947.0 Q 1066.7 940.3, 1300.0 821.1" fill="none" stroke="#6DB6CF" stroke-opacity="0.18" stroke-width="2"/>
  <circle cx="421" cy="241" r="167" fill="url(#orb_crm_07_7559)" opacity="0.36"/>
  <circle cx="421" cy="241" r="167" fill="#9EE2C2" opacity="0.08"/>
  <circle cx="421" cy="241" r="167" fill="none" stroke="#FFFFFF" stroke-opacity="0.56" stroke-width="3"/>
  <ellipse cx="374.2" cy="180.9" rx="30.1" ry="13.4" fill="#FFFFFF" opacity="0.42" transform="rotate(-22 374.2 180.9)"/>
  <circle cx="99" cy="171" r="274" fill="url(#orb_crm_07_7559)" opacity="0.36"/>
  <circle cx="99" cy="171" r="274" fill="#F6F7FF" opacity="0.08"/>
  <circle cx="99" cy="171" r="274" fill="none" stroke="#FFFFFF" stroke-opacity="0.56" stroke-width="3"/>
  <ellipse cx="22.3" cy="72.4" rx="49.3" ry="21.9" fill="#FFFFFF" opacity="0.42" transform="rotate(-22 22.3 72.4)"/>
  <circle cx="-72" cy="818" r="105" fill="url(#orb_crm_07_7559)" opacity="0.36"/>
  <circle cx="-72" cy="818" r="105" fill="#D5F4FF" opacity="0.08"/>
  <circle cx="-72" cy="818" r="105" fill="none" stroke="#FFFFFF" stroke-opacity="0.56" stroke-width="3"/>
  <ellipse cx="-101.4" cy="780.2" rx="18.9" ry="8.4" fill="#FFFFFF" opacity="0.42" transform="rotate(-22 -101.4 780.2)"/>
  <circle cx="1115" cy="2579" r="233" fill="url(#orb_crm_07_7559)" opacity="0.27"/>
  <circle cx="1115" cy="2579" r="233" fill="#E8FAFF" opacity="0.08"/>
  <circle cx="1115" cy="2579" r="233" fill="none" stroke="#FFFFFF" stroke-opacity="0.56" stroke-width="3"/>
  <ellipse cx="1049.8" cy="2495.1" rx="41.9" ry="18.6" fill="#FFFFFF" opacity="0.42" transform="rotate(-22 1049.8 2495.1)"/>
  <circle cx="996" cy="318" r="263" fill="url(#orb_crm_07_7559)" opacity="0.18"/>
  <circle cx="996" cy="318" r="263" fill="#FBFFFF" opacity="0.08"/>
  <circle cx="996" cy="318" r="263" fill="none" stroke="#FFFFFF" stroke-opacity="0.56" stroke-width="3"/>
  <ellipse cx="922.4" cy="223.3" rx="47.3" ry="21.0" fill="#FFFFFF" opacity="0.42" transform="rotate(-22 922.4 223.3)"/>
  <circle cx="472" cy="2060" r="164" fill="url(#orb_crm_07_7559)" opacity="0.21"/>
  <circle cx="472" cy="2060" r="164" fill="#E9FFF1" opacity="0.08"/>
  <circle cx="472" cy="2060" r="164" fill="none" stroke="#FFFFFF" stroke-opacity="0.56" stroke-width="3"/>
  <ellipse cx="426.1" cy="2001.0" rx="29.5" ry="13.1" fill="#FFFFFF" opacity="0.42" transform="rotate(-22 426.1 2001.0)"/>
  <circle cx="746" cy="-75" r="152" fill="url(#orb_crm_07_7559)" opacity="0.18"/>
  <circle cx="746" cy="-75" r="152" fill="#A7CCFF" opacity="0.08"/>
  <circle cx="746" cy="-75" r="152" fill="none" stroke="#FFFFFF" stroke-opacity="0.56" stroke-width="3"/>
  <ellipse cx="703.4" cy="-129.7" rx="27.4" ry="12.2" fill="#FFFFFF" opacity="0.42" transform="rotate(-22 703.4 -129.7)"/>
  <circle cx="-69" cy="1464" r="238" fill="url(#orb_crm_07_7559)" opacity="0.22"/>
  <circle cx="-69" cy="1464" r="238" fill="#E8FAFF" opacity="0.08"/>
  <circle cx="-69" cy="1464" r="238" fill="none" stroke="#FFFFFF" stroke-opacity="0.56" stroke-width="3"/>
  <ellipse cx="-135.6" cy="1378.3" rx="42.8" ry="19.0" fill="#FFFFFF" opacity="0.42" transform="rotate(-22 -135.6 1378.3)"/>
  <circle cx="641" cy="212" r="115" fill="url(#orb_crm_07_7559)" opacity="0.22"/>
  <circle cx="641" cy="212" r="115" fill="#9EE2C2" opacity="0.08"/>
  <circle cx="641" cy="212" r="115" fill="none" stroke="#FFFFFF" stroke-opacity="0.56" stroke-width="3"/>
  <ellipse cx="608.8" cy="170.6" rx="20.7" ry="9.2" fill="#FFFFFF" opacity="0.42" transform="rotate(-22 608.8 170.6)"/>
  <circle cx="398" cy="978" r="103" fill="url(#orb_crm_07_7559)" opacity="0.20"/>
  <circle cx="398" cy="978" r="103" fill="#E8FAFF" opacity="0.08"/>
  <circle cx="398" cy="978" r="103" fill="none" stroke="#FFFFFF" stroke-opacity="0.56" stroke-width="3"/>
  <ellipse cx="369.2" cy="940.9" rx="18.5" ry="8.2" fill="#FFFFFF" opacity="0.42" transform="rotate(-22 369.2 940.9)"/>
  <circle cx="172" cy="1408" r="7" fill="#FFFFFF" opacity="0.44"/>
  <circle cx="499" cy="1174" r="2" fill="#FFFFFF" opacity="0.43"/>
  <circle cx="698" cy="424" r="3" fill="#FFFFFF" opacity="0.71"/>
  <circle cx="280" cy="2313" r="7" fill="#FFFFFF" opacity="0.40"/>
  <circle cx="152" cy="2010" r="4" fill="#FFFFFF" opacity="0.64"/>
  <circle cx="1195" cy="1978" r="3" fill="#FFFFFF" opacity="0.64"/>
  <circle cx="879" cy="1884" r="2" fill="#FFFFFF" opacity="0.42"/>
  <circle cx="1113" cy="998" r="3" fill="#FFFFFF" opacity="0.64"/>
  <circle cx="907" cy="653" r="3" fill="#FFFFFF" opacity="0.66"/>
  <circle cx="74" cy="1616" r="7" fill="#FFFFFF" opacity="0.51"/>
  <circle cx="438" cy="665" r="3" fill="#FFFFFF" opacity="0.60"/>
  <circle cx="796" cy="2590" r="5" fill="#FFFFFF" opacity="0.50"/>
  <circle cx="1086" cy="2148" r="5" fill="#FFFFFF" opacity="0.64"/>
  <circle cx="914" cy="1951" r="7" fill="#FFFFFF" opacity="0.35"/>
  <rect width="1200" height="2600" fill="#FFFFFF" opacity="0.08"/>
  <rect width="1200" height="2600" filter="url(#grain_crm_07_7559)" opacity="0.7"/>
</svg>
