<svg xmlns="http://www.w3.org/2000/svg" width="1200" height="2600" viewBox="0 0 1200 2600" preserveAspectRatio="xMidYMid slice">
  <defs>
    <linearGradient id="bg_crm_16_7161" x1="0" y1="0" x2="1" y2="1">
      <stop offset="0%" stop-color="#E9FFF1"/>
      <stop offset="48%" stop-color="#F6F7FF"/>
      <stop offset="100%" stop-color="#D5F4FF"/>
    </linearGradient>
    <radialGradient id="orb_crm_16_7161" cx="35%" cy="30%" r="70%">
      <stop offset="0%" stop-color="#FFFFFF" stop-opacity="0.85"/>
      <stop offset="42%" stop-color="#FFFFFF" stop-opacity="0.20"/>
      <stop offset="100%" stop-color="#FFFFFF" stop-opacity="0.02"/>
    </radialGradient>
    <filter id="blur_crm_16_7161" x="-30%" y="-30%" width="160%" height="160%">
      <feGaussianBlur stdDeviation="72"/>
    </filter>
    <filter id="soft_crm_16_7161" x="-20%" y="-20%" width="140%" height="140%">
      <feGaussianBlur stdDeviation="10"/>
    </filter>
    <filter id="grain_crm_16_7161">
      <feTurbulence type="fractalNoise" baseFrequency="0.85" numOctaves="2" stitchTiles="stitch"/>
      <feColorMatrix type="saturate" values="0"/>
      <feComponentTransfer>
        <feFuncA type="table" tableValues="0 0.035"/>
      </feComponentTransfer>
    </filter>
  </defs>
  <rect width="1200" height="2600" fill="url(#bg_crm_16_7161)"/>
  <path d="M 1457.4 1102.0 C 1457.4 1229.3, 1398.3 1211.0, 1270.5 1308.5 C 1142.6 1406.1, 1237.2 1322.6, 1041.3 1344.7 C 845.4 1366.8, 901.1 1454.1, 728.8 1390.4 C 556.6 1326.7, 688.8 1326.1, 620.8 1206.5 C 552.8 1086.8, 522.0 1114.7, 590.0 995.1 C 658.1 875.4, 555.3 884.5, 727.6 820.9 C 899.8 757.2, 840.5 814.3, 1036.4 836.4 C 1232.3 858.5, 1152.3 830.5, 1280.1 928.0 C 1408.0 1025.6, 1457.4 974.6, 1457.4 1102.0 Z" fill="#F6F7FF" opacity="0.33" filter="url(#blur_crm_16_7161)"/>
  <path d="M 1497.7 1740.0 C 1497.7 1860.6, 1489.5 1793.9, 1401.3 1886.3 C 1313.1 1978.7, 1362.6 2020.7, 1227.5 2041.6 C 1092.3 2062.6, 1146.7 2021.6, 1027.9 1961.3 C 909.0 1901.0, 902.9 1930.7, 856.0 1817.3 C 809.1 1704.0, 801.1 1774.6, 848.0 1661.3 C 895.0 1548.0, 907.1 1538.4, 1026.0 1478.1 C 1144.8 1417.8, 1084.5 1431.3, 1219.7 1452.3 C 1354.9 1473.2, 1309.8 1456.4, 1398.1 1548.8 C 1486.3 1641.2, 1497.7 1619.4, 1497.7 1740.0 Z" fill="#A7CCFF" opacity="0.29" filter="url(#blur_crm_16_7161)"/>
  <path d="M 639.7 356.0 C 639.7 512.1, 768.9 421.6, 619.1 541.2 C 469.2 660.9, 517.2 645.4, 287.6 672.5 C 58.1 699.6, 119.1 684.0, -82.8 606.0 C -284.7 527.9, -216.7 609.2, -296.5 462.5 C -376.2 315.8, -337.7 388.1, -258.0 241.4 C -178.3 94.6, -230.4 164.5, -28.5 86.4 C 173.3 8.4, 66.5 -60.9, 296.1 -33.8 C 525.7 -6.6, 422.0 -19.9, 571.8 99.7 C 721.6 219.3, 639.7 199.8, 639.7 356.0 Z" fill="#E8FAFF" opacity="0.27" filter="url(#blur_crm_16_7161)"/>
  <path d="M 642.5 2258.0 C 642.5 2420.0, 629.9 2384.3, 562.2 2508.4 C 494.5 2632.5, 533.5 2596.1, 429.8 2624.2 C 326.1 2652.3, 376.8 2656.9, 285.6 2575.9 C 194.4 2494.9, 179.8 2529.8, 143.8 2377.5 C 107.8 2225.3, 94.4 2284.6, 130.5 2132.4 C 166.5 1980.1, 193.3 2055.2, 284.5 1974.2 C 375.6 1893.2, 316.2 1934.5, 419.9 1962.6 C 523.6 1990.8, 465.2 1943.5, 532.9 2067.6 C 600.5 2191.7, 642.5 2096.0, 642.5 2258.0 Z" fill="#E8FAFF" opacity="0.18" filter="url(#blur_crm_16_7161)"/>
  <path d="M 903.1 1421.0 C 903.1 1683.8, 887.0 1652.2, 782.3 1853.5 C 677.6 2054.8, 740.1 1872.2, 579.7 1917.8 C 419.3 1963.5, 468.3 2078.5, 327.2 1947.1 C 186.2 1815.7, 257.4 1872.4, 201.7 1625.4 C 146.0 1378.4, 125.1 1459.3, 180.8 1212.3 C 236.5 965.4, 159.4 1136.6, 300.5 1005.2 C 441.6 873.8, 404.6 777.0, 565.0 822.6 C 725.5 868.3, 687.5 836.1, 792.3 1037.4 C 897.0 1238.7, 903.1 1158.2, 903.1 1421.0 Z" fill="#A7CCFF" opacity="0.24" filter="url(#blur_crm_16_7161)"/>
  <path d="M 477.8 1921.0 C 477.8 2084.3, 438.1 2010.5, 296.4 2135.6 C 154.7 2260.8, 252.0 2278.8, 34.9 2307.2 C -182.3 2335.5, -137.0 2287.5, -328.0 2205.8 C -519.0 2124.2, -505.4 2182.7, -580.8 2029.2 C -656.2 1875.7, -568.8 1930.8, -493.4 1777.3 C -418.0 1623.8, -474.1 1715.9, -283.2 1634.2 C -92.2 1552.5, -169.0 1482.8, 48.1 1511.1 C 265.3 1539.5, 187.3 1593.0, 329.0 1718.2 C 470.7 1843.3, 477.8 1757.7, 477.8 1921.0 Z" fill="#D5F4FF" opacity="0.27" filter="url(#blur_crm_16_7161)"/>
  <path d="M 257.2 2136.0 C 257.2 2398.3, 269.2 2249.2, 181.3 2450.1 C 93.3 2651.1, 172.4 2683.3, 37.7 2728.9 C -97.0 2774.5, -52.9 2772.6, -171.4 2641.4 C -289.9 2510.2, -262.1 2580.8, -308.9 2334.2 C -355.7 2087.7, -386.0 2193.2, -339.3 1946.7 C -292.5 1700.1, -316.5 1704.8, -198.0 1573.6 C -79.5 1442.5, -106.2 1419.7, 28.5 1465.2 C 163.2 1510.8, 121.3 1580.1, 209.2 1781.0 C 297.1 1982.0, 257.2 1873.7, 257.2 2136.0 Z" fill="#FBFFFF" opacity="0.34" filter="url(#blur_crm_16_7161)"/>
  <path d="M 963.6 2386.0 C 963.6 2595.7, 1018.3 2573.3, 895.6 2733.9 C 773.0 2894.6, 856.2 2855.5, 668.3 2891.9 C 480.3 2928.3, 553.2 2955.7, 388.0 2850.9 C 222.7 2746.0, 203.8 2770.4, 138.6 2573.4 C 73.3 2376.3, 176.7 2399.9, 242.0 2202.9 C 307.2 2005.8, 245.9 2124.0, 411.2 2019.2 C 576.4 1914.3, 504.3 1808.5, 692.2 1844.9 C 880.1 1881.4, 768.8 1909.6, 891.4 2070.2 C 1014.1 2230.9, 963.6 2176.3, 963.6 2386.0 Z" fill="#A7CCFF" opacity="0.16" filter="url(#blur_crm_16_7161)"/>
  <path d="M 617.1 957.0 C 617.1 1216.2, 665.1 1140.6, 555.7 1339.2 C 446.4 1537.8, 532.5 1414.1, 365.0 1459.2 C 197.5 1504.2, 242.8 1630.8, 95.4 1501.2 C -51.9 1371.6, 46.9 1366.6, -11.2 1123.0 C -69.4 879.5, -156.4 1031.7, -98.2 788.1 C -40.1 544.6, -24.8 557.2, 122.5 427.6 C 269.8 298.0, 209.6 257.4, 377.1 302.4 C 544.7 347.4, 436.3 407.5, 545.6 606.0 C 655.0 804.6, 617.1 697.8, 617.1 957.0 Z" fill="#9EE2C2" opacity="0.25" filter="url(#blur_crm_16_7161)"/>
  <path d="M 755.3 -182.0 C 755.3 -49.7, 787.0 -97.4, 632.6 4.0 C 478.1 105.3, 516.1 120.3, 279.5 143.3 C 42.8 166.2, 138.1 169.1, -70.0 103.0 C -278.1 36.8, -252.7 57.2, -334.9 -67.1 C -417.1 -191.4, -471.6 -154.7, -389.4 -279.0 C -307.2 -403.4, -246.2 -384.8, -38.1 -450.9 C 170.0 -517.1, 52.3 -522.2, 288.9 -499.2 C 525.6 -476.3, 460.0 -487.4, 614.4 -386.1 C 768.9 -284.7, 755.3 -314.3, 755.3 -182.0 Z" fill="#A7CCFF" opacity="0.38" filter="url(#blur_crm_16_7161)"/>
  <path d="M 1386.5 4.0 C 1386.5 304.2, 1500.2 132.4, 1338.5 362.3 C 1176.8 592.2, 1222.0 569.3, 974.2 621.5 C 726.5 673.6, 773.0 691.4, 555.1 541.3 C 337.3 391.2, 346.7 508.1, 260.6 226.1 C 174.6 -56.0, 214.6 54.9, 300.6 -227.2 C 386.6 -509.2, 344.6 -448.0, 562.5 -598.0 C 780.3 -748.1, 726.9 -677.5, 974.6 -625.4 C 1222.4 -573.3, 1092.0 -703.9, 1253.7 -474.0 C 1415.4 -244.0, 1386.5 -296.2, 1386.5 4.0 Z" fill="#FBFFFF" opacity="0.20" filter="url(#blur_crm_16_7161)"/>
  <path d="M 528.6 -6.0 C 528.6 318.4, 642.3 138.6, 525.1 401.0 C 408.0 663.5, 476.3 654.5, 286.7 754.8 C 97.1 855.1, 206.2 735.9, 16.6 635.6 C -173.0 535.3, -84.2 706.7, -201.3 444.3 C -318.5 181.8, -316.9 318.5, -316.9 -6.0 C -316.9 -330.4, -291.3 -211.1, -174.1 -473.6 C -56.9 -736.1, -209.1 -578.8, -19.5 -679.0 C 170.1 -779.3, 78.3 -832.4, 267.9 -732.2 C 457.5 -631.9, 411.5 -662.1, 528.7 -399.7 C 645.9 -137.2, 528.6 -330.4, 528.6 -6.0 Z" fill="#6DB6CF" opacity="0.12" stroke="#FFFFFF" stroke-opacity="0.46" stroke-width="3" filter="url(#soft_crm_16_7161)"/>
  <path d="M 528.6 -6.0 C 528.6 318.4, 642.3 138.6, 525.1 401.0 C 408.0 663.5, 476.3 654.5, 286.7 754.8 C 97.1 855.1, 206.2 735.9, 16.6 635.6 C -173.0 535.3, -84.2 706.7, -201.3 444.3 C -318.5 181.8, -316.9 318.5, -316.9 -6.0 C -316.9 -330.4, -291.3 -211.1, -174.1 -473.6 C -56.9 -736.1, -209.1 -578.8, -19.5 -679.0 C 170.1 -779.3, 78.3 -832.4, 267.9 -732.2 C 457.5 -631.9, 411.5 -662.1, 528.7 -399.7 C 645.9 -137.2, 528.6 -330.4, 528.6 -6.0 Z" fill="none" stroke="#FFFFFF" stroke-opacity="0.22" stroke-width="1.2"/>
  <path d="M 1483.3 1536.0 C 1483.3 1845.6, 1480.1 1682.0, 1376.7 1932.4 C 1273.2 2182.9, 1358.4 2163.6, 1191.1 2259.3 C 1023.7 2355.0, 1119.0 2280.2, 951.7 2184.5 C 784.3 2088.8, 862.9 2216.7, 759.5 1966.2 C 656.0 1715.7, 647.9 1845.6, 647.9 1536.0 C 647.9 1226.4, 661.3 1423.3, 764.8 1172.9 C 868.2 922.4, 778.2 905.5, 945.5 809.8 C 1112.8 714.1, 1028.2 731.5, 1195.5 827.2 C 1362.9 922.8, 1331.0 920.3, 1434.4 1170.8 C 1537.9 1421.3, 1483.3 1226.4, 1483.3 1536.0 Z" fill="#FBFFFF" opacity="0.12" stroke="#FFFFFF" stroke-opacity="0.46" stroke-width="3" filter="url(#soft_crm_16_7161)"/>
  <path d="M 1483.3 1536.0 C 1483.3 1845.6, 1480.1 1682.0, 1376.7 1932.4 C 1273.2 2182.9, 1358.4 2163.6, 1191.1 2259.3 C 1023.7 2355.0, 1119.0 2280.2, 951.7 2184.5 C 784.3 2088.8, 862.9 2216.7, 759.5 1966.2 C 656.0 1715.7, 647.9 1845.6, 647.9 1536.0 C 647.9 1226.4, 661.3 1423.3, 764.8 1172.9 C 868.2 922.4, 778.2 905.5, 945.5 809.8 C 1112.8 714.1, 1028.2 731.5, 1195.5 827.2 C 1362.9 922.8, 1331.0 920.3, 1434.4 1170.8 C 1537.9 1421.3, 1483.3 1226.4, 1483.3 1536.0 Z" fill="none" stroke="#FFFFFF" stroke-opacity="0.22" stroke-width="1.2"/>
  <path d="M 1029.5 1746.0 C 1029.5 1999.8, 1091.3 1834.7, 985.5 2040.0 C 879.7 2245.4, 924.8 2188.9, 753.6 2267.3 C 582.4 2345.7, 706.2 2364.9, 535.0 2286.5 C 363.8 2208.1, 452.2 2247.3, 346.4 2042.0 C 240.6 1836.6, 260.9 1999.8, 260.9 1746.0 C 260.9 1492.2, 213.0 1628.8, 318.9 1423.5 C 424.7 1218.1, 342.2 1304.0, 513.4 1225.5 C 684.6 1147.1, 588.3 1124.0, 759.5 1202.5 C 930.7 1280.9, 861.0 1174.9, 966.8 1380.3 C 1072.6 1585.6, 1029.5 1492.2, 1029.5 1746.0 Z" fill="#E8FAFF" opacity="0.12" stroke="#FFFFFF" stroke-opacity="0.46" stroke-width="3" filter="url(#soft_crm_16_7161)"/>
  <path d="M 1029.5 1746.0 C 1029.5 1999.8, 1091.3 1834.7, 985.5 2040.0 C 879.7 2245.4, 924.8 2188.9, 753.6 2267.3 C 582.4 2345.7, 706.2 2364.9, 535.0 2286.5 C 363.8 2208.1, 452.2 2247.3, 346.4 2042.0 C 240.6 1836.6, 260.9 1999.8, 260.9 1746.0 C 260.9 1492.2, 213.0 1628.8, 318.9 1423.5 C 424.7 1218.1, 342.2 1304.0, 513.4 1225.5 C 684.6 1147.1, 588.3 1124.0, 759.5 1202.5 C 930.7 1280.9, 861.0 1174.9, 966.8 1380.3 C 1072.6 1585.6, 1029.5 1492.2, 1029.5 1746.0 Z" fill="none" stroke="#FFFFFF" stroke-opacity="0.22" stroke-width="1.2"/>
  <path d="M 236.1 2459.0 C 236.1 2814.5, 271.5 2697.8, 187.2 2985.4 C 102.8 3273.0, 165.0 3042.2, 28.4 3152.1 C -108.1 3261.9, -10.8 3255.0, -147.4 3145.1 C -283.9 3035.3, -246.2 3156.5, -330.6 2868.9 C -415.0 2581.3, -364.6 2814.5, -364.6 2459.0 C -364.6 2103.5, -426.6 2233.4, -342.3 1945.8 C -257.9 1658.2, -298.0 1882.5, -161.4 1772.7 C -24.9 1662.8, -103.5 1505.9, 33.0 1615.8 C 169.5 1725.6, 131.3 1753.7, 215.7 2041.3 C 300.0 2328.9, 236.1 2103.5, 236.1 2459.0 Z" fill="#FBFFFF" opacity="0.12" stroke="#FFFFFF" stroke-opacity="0.46" stroke-width="3" filter="url(#soft_crm_16_7161)"/>
  <path d="M 236.1 2459.0 C 236.1 2814.5, 271.5 2697.8, 187.2 2985.4 C 102.8 3273.0, 165.0 3042.2, 28.4 3152.1 C -108.1 3261.9, -10.8 3255.0, -147.4 3145.1 C -283.9 3035.3, -246.2 3156.5, -330.6 2868.9 C -415.0 2581.3, -364.6 2814.5, -364.6 2459.0 C -364.6 2103.5, -426.6 2233.4, -342.3 1945.8 C -257.9 1658.2, -298.0 1882.5, -161.4 1772.7 C -24.9 1662.8, -103.5 1505.9, 33.0 1615.8 C 169.5 1725.6, 131.3 1753.7, 215.7 2041.3 C 300.0 2328.9, 236.1 2103.5, 236.1 2459.0 Z" fill="none" stroke="#FFFFFF" stroke-opacity="0.22" stroke-width="1.2"/>
  <path d="M 1441.9 226.0 C 1441.9 480.2, 1494.9 345.4, 1334.9 551.1 C 1174.8 756.8, 1356.9 715.9, 1098.0 794.5 C 839.1 873.0, 965.3 834.7, 706.4 756.1 C 447.5 677.6, 542.3 766.0, 382.2 560.3 C 222.2 354.6, 310.7 480.3, 310.7 226.0 C 310.7 -28.2, 288.9 69.7, 448.9 -136.0 C 608.9 -341.7, 443.3 -264.2, 702.2 -342.8 C 961.2 -421.3, 832.8 -337.2, 1091.8 -258.7 C 1350.7 -180.1, 1230.6 -300.8, 1390.6 -95.1 C 1550.6 110.6, 1441.9 -28.2, 1441.9 226.0 Z" fill="#A7CCFF" opacity="0.12" stroke="#FFFFFF" stroke-opacity="0.46" stroke-width="3" filter="url(#soft_crm_16_7161)"/>
  <path d="M 1441.9 226.0 C 1441.9 480.2, 1494.9 345.4, 1334.9 551.1 C 1174.8 756.8, 1356.9 715.9, 1098.0 794.5 C 839.1 873.0, 965.3 834.7, 706.4 756.1 C 447.5 677.6, 542.3 766.0, 382.2 560.3 C 222.2 354.6, 310.7 480.3, 310.7 226.0 C 310.7 -28.2, 288.9 69.7, 448.9 -136.0 C 608.9 -341.7, 443.3 -264.2, 702.2 -342.8 C 961.2 -421.3, 832.8 -337.2, 1091.8 -258.7 C 1350.7 -180.1, 1230.6 -300.8, 1390.6 -95.1 C 1550.6 110.6, 1441.9 -28.2, 1441.9 226.0 Z" fill="none" stroke="#FFFFFF" stroke-opacity="0.22" stroke-width="1.2"/>
  <path d="M 1377.9 2277.0 C 1377.9 2570.8, 1361.7 2454.2, 1258.5 2691.9 C 1155.4 2929.6, 1223.2 2770.4, 1056.3 2861.3 C 889.4 2952.1, 988.8 2931.9, 821.8 2841.1 C 654.9 2750.2, 762.2 2845.2, 659.0 2607.4 C 555.9 2369.7, 513.7 2570.8, 513.7 2277.0 C 513.7 1983.2, 520.0 2156.7, 623.2 1918.9 C 726.4 1681.2, 652.8 1783.9, 819.7 1693.1 C 986.6 1602.3, 910.5 1561.1, 1077.4 1651.9 C 1244.3 1742.7, 1132.3 1637.6, 1235.4 1875.3 C 1338.6 2113.1, 1377.9 1983.2, 1377.9 2277.0 Z" fill="#F6F7FF" opacity="0.12" stroke="#F6F7FF" stroke-opacity="0.46" stroke-width="3" filter="url(#soft_crm_16_7161)"/>
  <path d="M 1377.9 2277.0 C 1377.9 2570.8, 1361.7 2454.2, 1258.5 2691.9 C 1155.4 2929.6, 1223.2 2770.4, 1056.3 2861.3 C 889.4 2952.1, 988.8 2931.9, 821.8 2841.1 C 654.9 2750.2, 762.2 2845.2, 659.0 2607.4 C 555.9 2369.7, 513.7 2570.8, 513.7 2277.0 C 513.7 1983.2, 520.0 2156.7, 623.2 1918.9 C 726.4 1681.2, 652.8 1783.9, 819.7 1693.1 C 986.6 1602.3, 910.5 1561.1, 1077.4 1651.9 C 1244.3 1742.7, 1132.3 1637.6, 1235.4 1875.3 C 1338.6 2113.1, 1377.9 1983.2, 1377.9 2277.0 Z" fill="none" stroke="#FFFFFF" stroke-opacity="0.22" stroke-width="1.2"/>
  <path d="M 1859.1 1811.0 C 1859.1 2153.0, 1833.0 1949.3, 1659.0 2226.0 C 1484.9 2502.7, 1610.8 2473.5, 1329.2 2579.2 C 1047.6 2684.9, 1190.7 2646.3, 909.1 2540.6 C 627.5 2434.9, 749.3 2575.9, 575.2 2299.2 C 401.2 2022.5, 469.0 2153.0, 469.0 1811.0 C 469.0 1469.0, 362.4 1650.6, 536.5 1374.0 C 710.5 1097.3, 617.0 1177.8, 898.6 1072.1 C 1180.2 966.4, 1028.7 905.6, 1310.3 1011.3 C 1591.9 1117.0, 1514.3 1037.0, 1688.4 1313.6 C 1862.4 1590.3, 1859.1 1469.0, 1859.1 1811.0 Z" fill="#A7CCFF" opacity="0.12" stroke="#A7CCFF" stroke-opacity="0.46" stroke-width="3" filter="url(#soft_crm_16_7161)"/>
  <path d="M 1859.1 1811.0 C 1859.1 2153.0, 1833.0 1949.3, 1659.0 2226.0 C 1484.9 2502.7, 1610.8 2473.5, 1329.2 2579.2 C 1047.6 2684.9, 1190.7 2646.3, 909.1 2540.6 C 627.5 2434.9, 749.3 2575.9, 575.2 2299.2 C 401.2 2022.5, 469.0 2153.0, 469.0 1811.0 C 469.0 1469.0, 362.4 1650.6, 536.5 1374.0 C 710.5 1097.3, 617.0 1177.8, 898.6 1072.1 C 1180.2 966.4, 1028.7 905.6, 1310.3 1011.3 C 1591.9 1117.0, 1514.3 1037.0, 1688.4 1313.6 C 1862.4 1590.3, 1859.1 1469.0, 1859.1 1811.0 Z" fill="none" stroke="#FFFFFF" stroke-opacity="0.22" stroke-width="1.2"/>
  <path d="M -100.0 460.5 Q 133.3 526.6, 366.7 871.6 Q 600.0 990.3, 833.3 825.2 Q 1066.7 342.5, 1300.0 591.9" fill="none" stroke="#FFFFFF" stroke-opacity="0.38" stroke-width="4" filter="url(#soft_crm_16_7161)"/>
  <path d="M -100.0 460.5 Q 133.3 526.6, 366.7 871.6 Q 600.0 990.3, 833.3 825.2 Q 1066.7 342.5, 1300.0 591.9" fill="none" stroke="#9EE2C2" stroke-opacity="0.18" stroke-width="2"/>
  <path d="M -100.0 1483.8 Q 133.3 1577.8, 366.7 1514.0 Q 600.0 1440.9, 833.3 1412.4 Q 1066.7 1195.2, 1300.0 1216.1" fill="none" stroke="#FFFFFF" stroke-opacity="0.38" stroke-width="4" filter="url(#soft_crm_16_7161)"/>
  <path d="M -100.0 1483.8 Q 133.3 1577.8, 366.7 1514.0 Q 600.0 1440.9, 833.3 1412.4 Q 1066.7 1195.2, 1300.0 1216.1" fill="none" stroke="#6DB6CF" stroke-opacity="0.18" stroke-width="2"/>
  <path d="M -100.0 510.2 Q 133.3 489.1, 366.7 -97.5 Q 600.0 -123.2, 833.3 268.4 Q 1066.7 573.5, 1300.0 301.0" fill="none" stroke="#FFFFFF" stroke-opacity="0.38" stroke-width="4" filter="url(#soft_crm_16_7161)"/>
  <path d="M -100.0 510.2 Q 133.3 489.1, 366.7 -97.5 Q 600.0 -123.2, 833.3 268.4 Q 1066.7 573.5, 1300.0 301.0" fill="none" stroke="#6DB6CF" stroke-opacity="0.18" stroke-width="2"/>
  <path d="M -100.0 2218.2 Q 133.3 2509.5, 366.7 2386.9 Q 600.0 2271.6, 833.3 2231.6 Q 1066.7 2437.9, 1300.0 2540.3" fill="none" stroke="#FFFFFF" stroke-opacity="0.38" stroke-width="4" filter="url(#soft_crm_16_7161)"/>
  <path d="M -100.0 2218.2 Q 133.3 2509.5, 366.7 2386.9 Q 600.0 2271.6, 833.3 2231.6 Q 1066.7 2437.9, 1300.0 2540.3" fill="none" stroke="#9EE2C2" stroke-opacity="0.18" stroke-width="2"/>
  <path d="M -100.0 402.0 Q 133.3 402.0, 366.7 455.7 Q 600.0 677.4, 833.3 780.1 Q 1066.7 731.7, 1300.0 746.0" fill="none" stroke="#FFFFFF" stroke-opacity="0.38" stroke-width="4" filter="url(#soft_crm_16_7161)"/>
  <path d="M -100.0 402.0 Q 133.3 402.0, 366.7 455.7 Q 600.0 677.4, 833.3 780.1 Q 1066.7 731.7, 1300.0 746.0" fill="none" stroke="#9EE2C2" stroke-opacity="0.18" stroke-width="2"/>
  <path d="M -100.0 2818.4 Q 133.3 2545.9, 366.7 2346.0 Q 600.0 2672.1, 833.3 2821.1 Q 1066.7 2844.3, 1300.0 2436.7" fill="none" stroke="#FFFFFF" stroke-opacity="0.38" stroke-width="4" filter="url(#soft_crm_16_7161)"/>
  <path d="M -100.0 2818.4 Q 133.3 2545.9, 366.7 2346.0 Q 600.0 2672.1, 833.3 2821.1 Q 1066.7 2844.3, 1300.0 2436.7" fill="none" stroke="#9EE2C2" stroke-opacity="0.18" stroke-width="2"/>
  <circle cx="398" cy="669" r="104" fill="url(#orb_crm_16_7161)" opacity="0.36"/>
  <circle cx="398" cy="669" r="104" fill="#F6F7FF" opacity="0.08"/>
  <circle cx="398" cy="669" r="104" fill="none" stroke="#FFFFFF" stroke-opacity="0.56" stroke-width="3"/>
  <ellipse cx="368.9" cy="631.6" rx="18.7" ry="8.3" fill="#FFFFFF" opacity="0.42" transform="rotate(-22 368.9 631.6)"/>
  <circle cx="494" cy="444" r="89" fill="url(#orb_crm_16_7161)" opacity="0.36"/>
  <circle cx="494" cy="444" r="89" fill="#9EE2C2" opacity="0.08"/>
  <circle cx="494" cy="444" r="89" fill="none" stroke="#FFFFFF" stroke-opacity="0.56" stroke-width="3"/>
  <ellipse cx="469.1" cy="412.0" rx="16.0" ry="7.1" fill="#FFFFFF" opacity="0.42" transform="rotate(-22 469.1 412.0)"/>
  <circle cx="1189" cy="1026" r="110" fill="url(#orb_crm_16_7161)" opacity="0.36"/>
  <circle cx="1189" cy="1026" r="110" fill="#D5F4FF" opacity="0.08"/>
  <circle cx="1189" cy="1026" r="110" fill="none" stroke="#FFFFFF" stroke-opacity="0.56" stroke-width="3"/>
  <ellipse cx="1158.2" cy="986.4" rx="19.8" ry="8.8" fill="#FFFFFF" opacity="0.42" transform="rotate(-22 1158.2 986.4)"/>
  <circle cx="1178" cy="2368" r="246" fill="url(#orb_crm_16_7161)" opacity="0.16"/>
  <circle cx="1178" cy="2368" r="246" fill="#E8FAFF" opacity="0.08"/>
  <circle cx="1178" cy="2368" r="246" fill="none" stroke="#FFFFFF" stroke-opacity="0.56" stroke-width="3"/>
  <ellipse cx="1109.1" cy="2279.4" rx="44.3" ry="19.7" fill="#FFFFFF" opacity="0.42" transform="rotate(-22 1109.1 2279.4)"/>
  <circle cx="341" cy="549" r="89" fill="url(#orb_crm_16_7161)" opacity="0.27"/>
  <circle cx="341" cy="549" r="89" fill="#9EE2C2" opacity="0.08"/>
  <circle cx="341" cy="549" r="89" fill="none" stroke="#FFFFFF" stroke-opacity="0.56" stroke-width="3"/>
  <ellipse cx="316.1" cy="517.0" rx="16.0" ry="7.1" fill="#FFFFFF" opacity="0.42" transform="rotate(-22 316.1 517.0)"/>
  <circle cx="504" cy="2082" r="239" fill="url(#orb_crm_16_7161)" opacity="0.27"/>
  <circle cx="504" cy="2082" r="239" fill="#F6F7FF" opacity="0.08"/>
  <circle cx="504" cy="2082" r="239" fill="none" stroke="#FFFFFF" stroke-opacity="0.56" stroke-width="3"/>
  <ellipse cx="437.1" cy="1996.0" rx="43.0" ry="19.1" fill="#FFFFFF" opacity="0.42" transform="rotate(-22 437.1 1996.0)"/>
  <circle cx="157" cy="1444" r="198" fill="url(#orb_crm_16_7161)" opacity="0.25"/>
  <circle cx="157" cy="1444" r="198" fill="#A7CCFF" opacity="0.08"/>
  <circle cx="157" cy="1444" r="198" fill="none" stroke="#FFFFFF" stroke-opacity="0.56" stroke-width="3"/>
  <ellipse cx="101.6" cy="1372.7" rx="35.6" ry="15.8" fill="#FFFFFF" opacity="0.42" transform="rotate(-22 101.6 1372.7)"/>
  <circle cx="1144" cy="1611" r="2" fill="#FFFFFF" opacity="0.64"/>
  <circle cx="780" cy="1402" r="5" fill="#FFFFFF" opacity="0.55"/>
  <circle cx="382" cy="127" r="3" fill="#FFFFFF" opacity="0.69"/>
  <circle cx="1179" cy="490" r="5" fill="#FFFFFF" opacity="0.38"/>
  <circle cx="231" cy="1027" r="2" fill="#FFFFFF" opacity="0.62"/>
  <circle cx="743" cy="764" r="7" fill="#FFFFFF" opacity="0.66"/>
  <circle cx="816" cy="1615" r="2" fill="#FFFFFF" opacity="0.48"/>
  <circle cx="368" cy="2123" r="3" fill="#FFFFFF" opacity="0.28"/>
  <circle cx="1115" cy="2274" r="4" fill="#FFFFFF" opacity="0.51"/>
  <circle cx="317" cy="1350" r="5" fill="#FFFFFF" opacity="0.62"/>
  <circle cx="654" cy="1611" r="2" fill="#FFFFFF" opacity="0.39"/>
  <circle cx="668" cy="846" r="7" fill="#FFFFFF" opacity="0.69"/>
  <circle cx="1186" cy="1141" r="7" fill="#FFFFFF" opacity="0.43"/>
  <circle cx="1128" cy="1269" r="7" fill="#FFFFFF" opacity="0.62"/>
  <circle cx="649" cy="262" r="4" fill="#FFFFFF" opacity="0.47"/>
  <circle cx="360" cy="2268" r="2" fill="#FFFFFF" opacity="0.71"/>
  <circle cx="120" cy="230" r="5" fill="#FFFFFF" opacity="0.37"/>
  <circle cx="275" cy="826" r="7" fill="#FFFFFF" opacity="0.48"/>
  <circle cx="226" cy="2235" r="7" fill="#FFFFFF" opacity="0.47"/>
  <circle cx="1084" cy="1701" r="3" fill="#FFFFFF" opacity="0.40"/>
  <circle cx="82" cy="477" r="7" fill="#FFFFFF" opacity="0.68"/>
  <circle cx="1157" cy="2043" r="5" fill="#FFFFFF" opacity="0.40"/>
  <rect width="1200" height="2600" fill="#FFFFFF" opacity="0.08"/>
  <rect width="1200" height="2600" filter="url(#grain_crm_16_7161)" opacity="0.7"/>
</svg>
