<svg xmlns="http://www.w3.org/2000/svg" width="1200" height="2600" viewBox="0 0 1200 2600" preserveAspectRatio="xMidYMid slice">
  <defs>
    <linearGradient id="bg_crm_10_9458" x1="0" y1="0" x2="1" y2="1">
      <stop offset="0%" stop-color="#D5F4FF"/>
      <stop offset="48%" stop-color="#F6F7FF"/>
      <stop offset="100%" stop-color="#FBFFFF"/>
    </linearGradient>
    <radialGradient id="orb_crm_10_9458" cx="35%" cy="30%" r="70%">
      <stop offset="0%" stop-color="#FFFFFF" stop-opacity="0.85"/>
      <stop offset="42%" stop-color="#FFFFFF" stop-opacity="0.20"/>
      <stop offset="100%" stop-color="#FFFFFF" stop-opacity="0.02"/>
    </radialGradient>
    <filter id="blur_crm_10_9458" x="-30%" y="-30%" width="160%" height="160%">
      <feGaussianBlur stdDeviation="72"/>
    </filter>
    <filter id="soft_crm_10_9458" x="-20%" y="-20%" width="140%" height="140%">
      <feGaussianBlur stdDeviation="10"/>
    </filter>
    <filter id="grain_crm_10_9458">
      <feTurbulence type="fractalNoise" baseFrequency="0.85" numOctaves="2" stitchTiles="stitch"/>
      <feColorMatrix type="saturate" values="0"/>
      <feComponentTransfer>
        <feFuncA type="table" tableValues="0 0.035"/>
      </feComponentTransfer>
    </filter>
  </defs>
  <rect width="1200" height="2600" fill="url(#bg_crm_10_9458)"/>
  <path d="M 330.9 2025.0 C 330.9 2283.8, 388.9 2175.4, 261.9 2373.7 C 134.9 2571.9, 218.0 2557.7, 23.5 2602.6 C -171.1 2647.5, -73.8 2664.0, -244.9 2534.7 C -416.0 2405.3, -386.6 2430.1, -454.1 2186.9 C -521.7 1943.8, -530.7 2102.3, -463.1 1859.1 C -395.6 1616.0, -408.0 1684.7, -236.9 1555.4 C -65.8 1426.0, -154.0 1386.9, 40.5 1431.9 C 235.1 1476.8, 107.9 1455.5, 234.9 1653.7 C 361.9 1851.9, 330.9 1766.2, 330.9 2025.0 Z" fill="#9EE2C2" opacity="0.34" filter="url(#blur_crm_10_9458)"/>
  <path d="M 1381.9 1121.0 C 1381.9 1333.8, 1456.5 1312.9, 1353.2 1476.0 C 1250.0 1639.1, 1310.4 1542.5, 1152.2 1579.5 C 993.9 1616.4, 1051.9 1686.0, 912.8 1579.5 C 773.6 1473.1, 782.5 1498.5, 727.6 1298.5 C 672.7 1098.4, 744.3 1135.3, 799.3 935.3 C 854.2 735.3, 745.1 825.6, 884.3 719.1 C 1023.4 612.7, 981.7 548.9, 1140.0 585.8 C 1298.2 622.8, 1269.9 701.4, 1373.1 864.4 C 1476.4 1027.5, 1381.9 908.1, 1381.9 1121.0 Z" fill="#A7CCFF" opacity="0.19" filter="url(#blur_crm_10_9458)"/>
  <path d="M 688.7 125.0 C 688.7 400.9, 693.4 363.9, 570.5 575.3 C 447.6 786.6, 491.8 640.2, 303.4 688.1 C 115.1 736.0, 157.7 782.7, -7.9 644.8 C -173.5 506.8, -161.1 558.5, -226.5 299.3 C -291.9 40.1, -187.1 146.4, -121.7 -112.8 C -56.3 -372.0, -107.7 -256.9, 58.0 -394.8 C 223.6 -532.7, 114.8 -455.1, 303.2 -407.2 C 491.5 -359.3, 413.5 -430.6, 536.4 -219.3 C 659.4 -8.0, 688.7 -150.9, 688.7 125.0 Z" fill="#D5F4FF" opacity="0.35" filter="url(#blur_crm_10_9458)"/>
  <path d="M 360.1 1726.0 C 360.1 2038.8, 384.4 1979.7, 306.0 2219.3 C 227.6 2458.8, 251.9 2411.2, 131.8 2465.5 C 11.7 2519.8, 48.9 2449.4, -56.7 2293.0 C -162.3 2136.6, -151.5 2239.5, -193.2 1945.6 C -234.9 1651.7, -206.2 1816.1, -164.4 1522.2 C -122.7 1228.4, -137.9 1349.4, -32.3 1193.0 C 73.3 1036.7, 6.3 918.1, 126.4 972.4 C 246.5 1026.7, 208.3 1103.6, 286.7 1343.2 C 365.1 1582.8, 360.1 1413.2, 360.1 1726.0 Z" fill="#9EE2C2" opacity="0.18" filter="url(#blur_crm_10_9458)"/>
  <path d="M 1726.3 1606.0 C 1726.3 1777.9, 1743.2 1746.1, 1585.3 1877.8 C 1427.4 2009.5, 1518.2 2005.6, 1276.2 2035.5 C 1034.3 2065.3, 1131.4 2056.7, 918.6 1970.8 C 705.8 1884.8, 739.9 1917.9, 655.8 1756.4 C 571.8 1594.9, 618.2 1623.5, 702.3 1462.0 C 786.3 1300.5, 703.7 1316.8, 916.5 1230.9 C 1129.3 1144.9, 1029.7 1134.2, 1271.7 1164.0 C 1513.7 1193.9, 1505.4 1185.7, 1663.3 1317.4 C 1821.2 1449.1, 1726.3 1434.1, 1726.3 1606.0 Z" fill="#6DB6CF" opacity="0.33" filter="url(#blur_crm_10_9458)"/>
  <path d="M 1439.1 1108.0 C 1439.1 1267.8, 1489.6 1212.0, 1408.3 1334.4 C 1327.0 1456.8, 1378.9 1401.4, 1254.4 1429.1 C 1129.8 1456.9, 1177.2 1495.1, 1067.7 1415.2 C 958.2 1335.4, 974.2 1361.0, 931.0 1210.9 C 887.7 1060.8, 944.2 1138.7, 987.4 988.5 C 1030.7 838.4, 949.5 832.9, 1059.0 753.0 C 1168.6 673.1, 1134.5 721.9, 1259.1 749.6 C 1383.6 777.4, 1367.8 764.5, 1449.1 886.9 C 1530.3 1009.3, 1439.1 948.2, 1439.1 1108.0 Z" fill="#E9FFF1" opacity="0.29" filter="url(#blur_crm_10_9458)"/>
  <path d="M 230.2 404.0 C 230.2 649.2, 227.1 504.1, 101.6 692.0 C -24.0 879.9, 89.8 869.3, -102.6 911.9 C -294.9 954.5, -199.5 950.3, -368.6 827.6 C -537.7 705.0, -472.6 788.3, -539.4 557.8 C -606.2 327.4, -593.1 457.7, -526.3 227.2 C -459.5 -3.3, -572.8 133.7, -403.7 11.1 C -234.5 -111.6, -303.1 -241.7, -110.8 -199.1 C 81.5 -156.5, 33.1 -130.3, 158.6 57.6 C 284.2 245.4, 230.2 158.8, 230.2 404.0 Z" fill="#D5F4FF" opacity="0.27" filter="url(#blur_crm_10_9458)"/>
  <path d="M 1576.6 455.0 C 1576.6 764.6, 1649.0 670.3, 1492.8 907.5 C 1336.6 1144.6, 1411.5 1149.2, 1172.2 1202.9 C 932.9 1256.7, 1032.0 1181.4, 821.5 1026.6 C 611.1 871.8, 616.1 993.6, 533.0 702.6 C 449.8 411.7, 455.8 506.8, 538.9 215.9 C 622.0 -75.0, 592.7 37.0, 803.2 -117.8 C 1013.6 -272.6, 908.2 -227.7, 1147.5 -173.9 C 1386.9 -120.1, 1303.7 -238.8, 1459.9 -1.6 C 1616.0 235.5, 1576.6 145.4, 1576.6 455.0 Z" fill="#A7CCFF" opacity="0.27" filter="url(#blur_crm_10_9458)"/>
  <path d="M 1686.2 2538.0 C 1686.2 2767.5, 1696.1 2687.8, 1557.3 2863.6 C 1418.5 3039.4, 1539.0 3059.2, 1326.3 3099.1 C 1113.5 3139.0, 1219.3 3037.6, 1032.2 2922.9 C 845.2 2808.1, 836.3 2918.6, 762.4 2702.9 C 688.6 2487.3, 674.2 2573.9, 748.1 2358.2 C 822.0 2142.5, 796.9 2282.9, 983.9 2168.2 C 1171.0 2053.4, 1118.1 2062.3, 1330.9 2102.2 C 1543.6 2142.0, 1456.1 2001.1, 1594.9 2176.9 C 1733.8 2352.7, 1686.2 2308.5, 1686.2 2538.0 Z" fill="#E8FAFF" opacity="0.19" filter="url(#blur_crm_10_9458)"/>
  <path d="M 321.8 552.0 C 321.8 690.1, 357.5 655.9, 225.6 761.7 C 93.7 867.6, 173.5 854.1, -28.6 878.1 C -230.7 902.1, -154.4 894.1, -332.1 825.1 C -509.8 756.0, -399.0 805.2, -469.1 675.4 C -539.3 545.6, -562.6 593.3, -492.4 463.4 C -422.2 333.6, -461.6 346.8, -283.9 277.7 C -106.1 208.6, -227.4 194.9, -25.3 218.9 C 176.7 242.9, 132.6 221.3, 264.5 327.1 C 396.4 433.0, 321.8 413.9, 321.8 552.0 Z" fill="#6DB6CF" opacity="0.24" filter="url(#blur_crm_10_9458)"/>
  <path d="M 832.7 943.0 C 832.7 1116.2, 878.2 1059.7, 794.0 1192.4 C 709.9 1325.1, 746.9 1319.2, 617.9 1349.3 C 489.0 1379.3, 546.7 1334.3, 433.3 1247.7 C 319.9 1161.1, 366.1 1235.7, 321.3 1072.9 C 276.5 910.1, 215.1 980.6, 259.9 817.8 C 304.7 655.0, 324.5 753.4, 437.9 666.8 C 551.3 580.2, 496.9 530.1, 625.9 560.2 C 754.8 590.2, 702.4 596.6, 786.6 729.3 C 870.7 862.0, 832.7 769.8, 832.7 943.0 Z" fill="#6DB6CF" opacity="0.28" filter="url(#blur_crm_10_9458)"/>
  <path d="M 238.0 1248.0 C 238.0 1487.8, 244.0 1415.6, 169.1 1599.3 C 94.1 1783.1, 119.2 1640.1, 4.4 1681.8 C -110.3 1723.4, -53.6 1783.4, -154.5 1663.5 C -255.4 1543.6, -237.2 1640.6, -277.0 1415.2 C -316.9 1189.8, -329.0 1280.5, -289.2 1055.1 C -249.3 829.7, -259.9 987.8, -159.0 867.9 C -58.0 748.0, -118.9 593.2, -4.1 634.8 C 110.7 676.5, 65.4 755.8, 140.3 939.6 C 215.2 1123.3, 238.0 1008.1, 238.0 1248.0 Z" fill="#E9FFF1" opacity="0.30" filter="url(#blur_crm_10_9458)"/>
  <path d="M 771.9 788.0 C 771.9 1059.8, 841.7 895.1, 675.0 1115.0 C 508.4 1334.9, 639.1 1247.6, 369.5 1331.6 C 99.8 1415.6, 244.4 1489.2, -25.2 1405.2 C -294.9 1321.2, -113.6 1383.1, -280.3 1163.2 C -446.9 943.3, -448.4 1059.8, -448.4 788.0 C -448.4 516.2, -488.3 671.4, -321.7 451.5 C -155.1 231.7, -284.3 330.5, -14.7 246.5 C 254.9 162.5, 88.6 199.8, 358.3 283.8 C 627.9 367.8, 514.7 189.3, 681.3 409.2 C 848.0 629.1, 771.9 516.2, 771.9 788.0 Z" fill="#E9FFF1" opacity="0.12" stroke="#E9FFF1" stroke-opacity="0.46" stroke-width="3" filter="url(#soft_crm_10_9458)"/>
  <path d="M 771.9 788.0 C 771.9 1059.8, 841.7 895.1, 675.0 1115.0 C 508.4 1334.9, 639.1 1247.6, 369.5 1331.6 C 99.8 1415.6, 244.4 1489.2, -25.2 1405.2 C -294.9 1321.2, -113.6 1383.1, -280.3 1163.2 C -446.9 943.3, -448.4 1059.8, -448.4 788.0 C -448.4 516.2, -488.3 671.4, -321.7 451.5 C -155.1 231.7, -284.3 330.5, -14.7 246.5 C 254.9 162.5, 88.6 199.8, 358.3 283.8 C 627.9 367.8, 514.7 189.3, 681.3 409.2 C 848.0 629.1, 771.9 516.2, 771.9 788.0 Z" fill="none" stroke="#FFFFFF" stroke-opacity="0.22" stroke-width="1.2"/>
  <path d="M 1473.6 651.0 C 1473.6 815.7, 1494.2 733.2, 1348.7 866.4 C 1203.2 999.6, 1340.3 966.8, 1104.9 1017.7 C 869.5 1068.6, 998.7 1098.5, 763.3 1047.6 C 527.9 996.7, 652.8 1026.1, 507.3 892.9 C 361.9 759.6, 332.8 815.7, 332.8 651.0 C 332.8 486.3, 339.6 568.1, 485.0 434.8 C 630.5 301.6, 520.7 332.1, 756.0 281.2 C 991.4 230.3, 887.9 206.4, 1123.3 257.3 C 1358.7 308.2, 1263.1 284.0, 1408.6 417.3 C 1554.0 550.5, 1473.6 486.3, 1473.6 651.0 Z" fill="#E9FFF1" opacity="0.12" stroke="#FFFFFF" stroke-opacity="0.46" stroke-width="3" filter="url(#soft_crm_10_9458)"/>
  <path d="M 1473.6 651.0 C 1473.6 815.7, 1494.2 733.2, 1348.7 866.4 C 1203.2 999.6, 1340.3 966.8, 1104.9 1017.7 C 869.5 1068.6, 998.7 1098.5, 763.3 1047.6 C 527.9 996.7, 652.8 1026.1, 507.3 892.9 C 361.9 759.6, 332.8 815.7, 332.8 651.0 C 332.8 486.3, 339.6 568.1, 485.0 434.8 C 630.5 301.6, 520.7 332.1, 756.0 281.2 C 991.4 230.3, 887.9 206.4, 1123.3 257.3 C 1358.7 308.2, 1263.1 284.0, 1408.6 417.3 C 1554.0 550.5, 1473.6 486.3, 1473.6 651.0 Z" fill="none" stroke="#FFFFFF" stroke-opacity="0.22" stroke-width="1.2"/>
  <path d="M 620.4 728.0 C 620.4 944.0, 589.8 837.5, 478.2 1012.2 C 366.6 1187.0, 475.9 1070.6, 295.3 1137.4 C 114.7 1204.1, 224.2 1250.5, 43.6 1183.7 C -137.0 1117.0, -50.9 1204.8, -162.5 1030.1 C -274.2 855.3, -236.0 944.0, -236.0 728.0 C -236.0 512.0, -301.9 591.5, -190.3 416.7 C -78.7 242.0, -123.5 386.7, 57.1 320.0 C 237.8 253.2, 133.6 248.9, 314.2 315.6 C 494.8 382.3, 373.1 307.0, 484.7 481.7 C 596.3 656.5, 620.4 512.0, 620.4 728.0 Z" fill="#E8FAFF" opacity="0.12" stroke="#E8FAFF" stroke-opacity="0.46" stroke-width="3" filter="url(#soft_crm_10_9458)"/>
  <path d="M 620.4 728.0 C 620.4 944.0, 589.8 837.5, 478.2 1012.2 C 366.6 1187.0, 475.9 1070.6, 295.3 1137.4 C 114.7 1204.1, 224.2 1250.5, 43.6 1183.7 C -137.0 1117.0, -50.9 1204.8, -162.5 1030.1 C -274.2 855.3, -236.0 944.0, -236.0 728.0 C -236.0 512.0, -301.9 591.5, -190.3 416.7 C -78.7 242.0, -123.5 386.7, 57.1 320.0 C 237.8 253.2, 133.6 248.9, 314.2 315.6 C 494.8 382.3, 373.1 307.0, 484.7 481.7 C 596.3 656.5, 620.4 512.0, 620.4 728.0 Z" fill="none" stroke="#FFFFFF" stroke-opacity="0.22" stroke-width="1.2"/>
  <path d="M 742.8 2007.0 C 742.8 2312.1, 809.6 2128.3, 729.2 2375.1 C 648.8 2622.0, 664.6 2469.2, 534.5 2563.5 C 404.4 2657.7, 482.7 2703.3, 352.6 2609.0 C 222.5 2514.8, 285.9 2620.4, 205.5 2373.5 C 125.1 2126.7, 118.5 2312.1, 118.5 2007.0 C 118.5 1701.9, 129.1 1886.8, 209.5 1640.0 C 289.9 1393.1, 228.1 1387.2, 358.2 1292.9 C 488.3 1198.6, 412.9 1346.4, 543.0 1440.7 C 673.1 1535.0, 648.7 1406.0, 729.1 1652.9 C 809.5 1899.7, 742.8 1701.9, 742.8 2007.0 Z" fill="#A7CCFF" opacity="0.12" stroke="#A7CCFF" stroke-opacity="0.46" stroke-width="3" filter="url(#soft_crm_10_9458)"/>
  <path d="M 742.8 2007.0 C 742.8 2312.1, 809.6 2128.3, 729.2 2375.1 C 648.8 2622.0, 664.6 2469.2, 534.5 2563.5 C 404.4 2657.7, 482.7 2703.3, 352.6 2609.0 C 222.5 2514.8, 285.9 2620.4, 205.5 2373.5 C 125.1 2126.7, 118.5 2312.1, 118.5 2007.0 C 118.5 1701.9, 129.1 1886.8, 209.5 1640.0 C 289.9 1393.1, 228.1 1387.2, 358.2 1292.9 C 488.3 1198.6, 412.9 1346.4, 543.0 1440.7 C 673.1 1535.0, 648.7 1406.0, 729.1 1652.9 C 809.5 1899.7, 742.8 1701.9, 742.8 2007.0 Z" fill="none" stroke="#FFFFFF" stroke-opacity="0.22" stroke-width="1.2"/>
  <path d="M 648.5 2418.0 C 648.5 2657.8, 708.7 2580.6, 577.5 2774.7 C 446.3 2968.7, 487.8 2827.4, 275.5 2901.6 C 63.2 2975.7, 211.1 3037.5, -1.1 2963.4 C -213.4 2889.3, -103.9 2935.0, -235.1 2740.9 C -366.3 2546.9, -305.5 2657.8, -305.5 2418.0 C -305.5 2178.2, -444.6 2261.8, -313.4 2067.8 C -182.3 1873.7, -236.0 1923.1, -23.7 1849.0 C 188.6 1774.9, 68.0 1859.6, 280.3 1933.7 C 492.6 2007.8, 383.6 1938.0, 514.8 2132.0 C 646.0 2326.0, 648.5 2178.2, 648.5 2418.0 Z" fill="#A7CCFF" opacity="0.12" stroke="#A7CCFF" stroke-opacity="0.46" stroke-width="3" filter="url(#soft_crm_10_9458)"/>
  <path d="M 648.5 2418.0 C 648.5 2657.8, 708.7 2580.6, 577.5 2774.7 C 446.3 2968.7, 487.8 2827.4, 275.5 2901.6 C 63.2 2975.7, 211.1 3037.5, -1.1 2963.4 C -213.4 2889.3, -103.9 2935.0, -235.1 2740.9 C -366.3 2546.9, -305.5 2657.8, -305.5 2418.0 C -305.5 2178.2, -444.6 2261.8, -313.4 2067.8 C -182.3 1873.7, -236.0 1923.1, -23.7 1849.0 C 188.6 1774.9, 68.0 1859.6, 280.3 1933.7 C 492.6 2007.8, 383.6 1938.0, 514.8 2132.0 C 646.0 2326.0, 648.5 2178.2, 648.5 2418.0 Z" fill="none" stroke="#FFFFFF" stroke-opacity="0.22" stroke-width="1.2"/>
  <path d="M 1219.1 2915.0 C 1219.1 3195.3, 1179.8 3070.6, 1010.2 3297.4 C 840.7 3524.2, 1035.2 3388.3, 760.9 3474.9 C 486.6 3561.5, 631.8 3538.0, 357.4 3451.4 C 83.1 3364.7, 203.5 3554.5, 33.9 3327.7 C -135.6 3100.9, -10.6 3195.3, -10.6 2915.0 C -10.6 2634.7, -152.9 2732.8, 16.6 2506.0 C 186.2 2279.2, 105.9 2334.3, 380.2 2247.7 C 654.5 2161.1, 489.9 2206.4, 764.2 2293.1 C 1038.6 2379.7, 868.1 2277.1, 1037.7 2503.9 C 1207.2 2730.7, 1219.1 2634.7, 1219.1 2915.0 Z" fill="#9EE2C2" opacity="0.12" stroke="#FFFFFF" stroke-opacity="0.46" stroke-width="3" filter="url(#soft_crm_10_9458)"/>
  <path d="M 1219.1 2915.0 C 1219.1 3195.3, 1179.8 3070.6, 1010.2 3297.4 C 840.7 3524.2, 1035.2 3388.3, 760.9 3474.9 C 486.6 3561.5, 631.8 3538.0, 357.4 3451.4 C 83.1 3364.7, 203.5 3554.5, 33.9 3327.7 C -135.6 3100.9, -10.6 3195.3, -10.6 2915.0 C -10.6 2634.7, -152.9 2732.8, 16.6 2506.0 C 186.2 2279.2, 105.9 2334.3, 380.2 2247.7 C 654.5 2161.1, 489.9 2206.4, 764.2 2293.1 C 1038.6 2379.7, 868.1 2277.1, 1037.7 2503.9 C 1207.2 2730.7, 1219.1 2634.7, 1219.1 2915.0 Z" fill="none" stroke="#FFFFFF" stroke-opacity="0.22" stroke-width="1.2"/>
  <path d="M -100.0 357.2 Q 133.3 285.0, 366.7 -27.6 Q 600.0 -131.7, 833.3 92.3 Q 1066.7 332.9, 1300.0 127.4" fill="none" stroke="#FFFFFF" stroke-opacity="0.38" stroke-width="4" filter="url(#soft_crm_10_9458)"/>
  <path d="M -100.0 357.2 Q 133.3 285.0, 366.7 -27.6 Q 600.0 -131.7, 833.3 92.3 Q 1066.7 332.9, 1300.0 127.4" fill="none" stroke="#9EE2C2" stroke-opacity="0.18" stroke-width="2"/>
  <path d="M -100.0 1726.1 Q 133.3 2019.2, 366.7 2247.3 Q 600.0 1733.9, 833.3 1567.2 Q 1066.7 1949.2, 1300.0 2190.1" fill="none" stroke="#FFFFFF" stroke-opacity="0.38" stroke-width="4" filter="url(#soft_crm_10_9458)"/>
  <path d="M -100.0 1726.1 Q 133.3 2019.2, 366.7 2247.3 Q 600.0 1733.9, 833.3 1567.2 Q 1066.7 1949.2, 1300.0 2190.1" fill="none" stroke="#A7CCFF" stroke-opacity="0.18" stroke-width="2"/>
  <path d="M -100.0 2247.5 Q 133.3 2501.1, 366.7 2425.9 Q 600.0 2178.2, 833.3 2019.3 Q 1066.7 1993.3, 1300.0 2247.5" fill="none" stroke="#FFFFFF" stroke-opacity="0.38" stroke-width="4" filter="url(#soft_crm_10_9458)"/>
  <path d="M -100.0 2247.5 Q 133.3 2501.1, 366.7 2425.9 Q 600.0 2178.2, 833.3 2019.3 Q 1066.7 1993.3, 1300.0 2247.5" fill="none" stroke="#6DB6CF" stroke-opacity="0.18" stroke-width="2"/>
  <path d="M -100.0 1528.4 Q 133.3 1652.6, 366.7 1864.0 Q 600.0 2018.3, 833.3 1863.1 Q 1066.7 1631.8, 1300.0 1659.1" fill="none" stroke="#FFFFFF" stroke-opacity="0.38" stroke-width="4" filter="url(#soft_crm_10_9458)"/>
  <path d="M -100.0 1528.4 Q 133.3 1652.6, 366.7 1864.0 Q 600.0 2018.3, 833.3 1863.1 Q 1066.7 1631.8, 1300.0 1659.1" fill="none" stroke="#A7CCFF" stroke-opacity="0.18" stroke-width="2"/>
  <path d="M -100.0 458.8 Q 133.3 713.3, 366.7 969.8 Q 600.0 956.0, 833.3 635.9 Q 1066.7 397.7, 1300.0 364.8" fill="none" stroke="#FFFFFF" stroke-opacity="0.38" stroke-width="4" filter="url(#soft_crm_10_9458)"/>
  <path d="M -100.0 458.8 Q 133.3 713.3, 366.7 969.8 Q 600.0 956.0, 833.3 635.9 Q 1066.7 397.7, 1300.0 364.8" fill="none" stroke="#A7CCFF" stroke-opacity="0.18" stroke-width="2"/>
  <circle cx="63" cy="6" r="97" fill="url(#orb_crm_10_9458)" opacity="0.36"/>
  <circle cx="63" cy="6" r="97" fill="#F6F7FF" opacity="0.08"/>
  <circle cx="63" cy="6" r="97" fill="none" stroke="#FFFFFF" stroke-opacity="0.56" stroke-width="3"/>
  <ellipse cx="35.8" cy="-28.9" rx="17.5" ry="7.8" fill="#FFFFFF" opacity="0.42" transform="rotate(-22 35.8 -28.9)"/>
  <circle cx="1093" cy="261" r="97" fill="url(#orb_crm_10_9458)" opacity="0.36"/>
  <circle cx="1093" cy="261" r="97" fill="#E9FFF1" opacity="0.08"/>
  <circle cx="1093" cy="261" r="97" fill="none" stroke="#FFFFFF" stroke-opacity="0.56" stroke-width="3"/>
  <ellipse cx="1065.8" cy="226.1" rx="17.5" ry="7.8" fill="#FFFFFF" opacity="0.42" transform="rotate(-22 1065.8 226.1)"/>
  <circle cx="894" cy="2123" r="93" fill="url(#orb_crm_10_9458)" opacity="0.36"/>
  <circle cx="894" cy="2123" r="93" fill="#FBFFFF" opacity="0.08"/>
  <circle cx="894" cy="2123" r="93" fill="none" stroke="#FFFFFF" stroke-opacity="0.56" stroke-width="3"/>
  <ellipse cx="868.0" cy="2089.5" rx="16.7" ry="7.4" fill="#FFFFFF" opacity="0.42" transform="rotate(-22 868.0 2089.5)"/>
  <circle cx="162" cy="1242" r="265" fill="url(#orb_crm_10_9458)" opacity="0.25"/>
  <circle cx="162" cy="1242" r="265" fill="#F6F7FF" opacity="0.08"/>
  <circle cx="162" cy="1242" r="265" fill="none" stroke="#FFFFFF" stroke-opacity="0.56" stroke-width="3"/>
  <ellipse cx="87.8" cy="1146.6" rx="47.7" ry="21.2" fill="#FFFFFF" opacity="0.42" transform="rotate(-22 87.8 1146.6)"/>
  <circle cx="1091" cy="108" r="214" fill="url(#orb_crm_10_9458)" opacity="0.19"/>
  <circle cx="1091" cy="108" r="214" fill="#D5F4FF" opacity="0.08"/>
  <circle cx="1091" cy="108" r="214" fill="none" stroke="#FFFFFF" stroke-opacity="0.56" stroke-width="3"/>
  <ellipse cx="1031.1" cy="31.0" rx="38.5" ry="17.1" fill="#FFFFFF" opacity="0.42" transform="rotate(-22 1031.1 31.0)"/>
  <circle cx="732" cy="1041" r="282" fill="url(#orb_crm_10_9458)" opacity="0.21"/>
  <circle cx="732" cy="1041" r="282" fill="#FBFFFF" opacity="0.08"/>
  <circle cx="732" cy="1041" r="282" fill="none" stroke="#FFFFFF" stroke-opacity="0.56" stroke-width="3"/>
  <ellipse cx="653.0" cy="939.5" rx="50.8" ry="22.6" fill="#FFFFFF" opacity="0.42" transform="rotate(-22 653.0 939.5)"/>
  <circle cx="862" cy="1104" r="165" fill="url(#orb_crm_10_9458)" opacity="0.19"/>
  <circle cx="862" cy="1104" r="165" fill="#F6F7FF" opacity="0.08"/>
  <circle cx="862" cy="1104" r="165" fill="none" stroke="#FFFFFF" stroke-opacity="0.56" stroke-width="3"/>
  <ellipse cx="815.8" cy="1044.6" rx="29.7" ry="13.2" fill="#FFFFFF" opacity="0.42" transform="rotate(-22 815.8 1044.6)"/>
  <circle cx="134" cy="10" r="125" fill="url(#orb_crm_10_9458)" opacity="0.22"/>
  <circle cx="134" cy="10" r="125" fill="#9EE2C2" opacity="0.08"/>
  <circle cx="134" cy="10" r="125" fill="none" stroke="#FFFFFF" stroke-opacity="0.56" stroke-width="3"/>
  <ellipse cx="99.0" cy="-35.0" rx="22.5" ry="10.0" fill="#FFFFFF" opacity="0.42" transform="rotate(-22 99.0 -35.0)"/>
  <circle cx="993" cy="2541" r="4" fill="#FFFFFF" opacity="0.36"/>
  <circle cx="919" cy="282" r="7" fill="#FFFFFF" opacity="0.51"/>
  <circle cx="928" cy="5" r="5" fill="#FFFFFF" opacity="0.64"/>
  <circle cx="607" cy="1221" r="2" fill="#FFFFFF" opacity="0.39"/>
  <circle cx="194" cy="2319" r="2" fill="#FFFFFF" opacity="0.44"/>
  <circle cx="1015" cy="2179" r="4" fill="#FFFFFF" opacity="0.31"/>
  <circle cx="908" cy="1633" r="7" fill="#FFFFFF" opacity="0.49"/>
  <circle cx="560" cy="588" r="4" fill="#FFFFFF" opacity="0.43"/>
  <circle cx="1090" cy="298" r="4" fill="#FFFFFF" opacity="0.33"/>
  <circle cx="484" cy="1133" r="7" fill="#FFFFFF" opacity="0.52"/>
  <circle cx="862" cy="1296" r="5" fill="#FFFFFF" opacity="0.67"/>
  <circle cx="300" cy="279" r="3" fill="#FFFFFF" opacity="0.50"/>
  <circle cx="503" cy="249" r="5" fill="#FFFFFF" opacity="0.29"/>
  <circle cx="697" cy="119" r="2" fill="#FFFFFF" opacity="0.57"/>
  <circle cx="897" cy="1038" r="3" fill="#FFFFFF" opacity="0.32"/>
  <circle cx="180" cy="1687" r="5" fill="#FFFFFF" opacity="0.65"/>
  <circle cx="827" cy="2094" r="2" fill="#FFFFFF" opacity="0.32"/>
  <rect width="1200" height="2600" fill="#FFFFFF" opacity="0.08"/>
  <rect width="1200" height="2600" filter="url(#grain_crm_10_9458)" opacity="0.7"/>
</svg>
