<svg xmlns="http://www.w3.org/2000/svg" width="1200" height="2600" viewBox="0 0 1200 2600" preserveAspectRatio="xMidYMid slice">
  <defs>
    <linearGradient id="bg_crm_03_1218" x1="0" y1="0" x2="1" y2="1">
      <stop offset="0%" stop-color="#FBFFFF"/>
      <stop offset="48%" stop-color="#D5F4FF"/>
      <stop offset="100%" stop-color="#F6F7FF"/>
    </linearGradient>
    <radialGradient id="orb_crm_03_1218" cx="35%" cy="30%" r="70%">
      <stop offset="0%" stop-color="#FFFFFF" stop-opacity="0.85"/>
      <stop offset="42%" stop-color="#FFFFFF" stop-opacity="0.20"/>
      <stop offset="100%" stop-color="#FFFFFF" stop-opacity="0.02"/>
    </radialGradient>
    <filter id="blur_crm_03_1218" x="-30%" y="-30%" width="160%" height="160%">
      <feGaussianBlur stdDeviation="72"/>
    </filter>
    <filter id="soft_crm_03_1218" x="-20%" y="-20%" width="140%" height="140%">
      <feGaussianBlur stdDeviation="10"/>
    </filter>
    <filter id="grain_crm_03_1218">
      <feTurbulence type="fractalNoise" baseFrequency="0.85" numOctaves="2" stitchTiles="stitch"/>
      <feColorMatrix type="saturate" values="0"/>
      <feComponentTransfer>
        <feFuncA type="table" tableValues="0 0.035"/>
      </feComponentTransfer>
    </filter>
  </defs>
  <rect width="1200" height="2600" fill="url(#bg_crm_03_1218)"/>
  <path d="M 513.7 857.0 C 513.7 1155.3, 451.5 1087.2, 336.9 1315.8 C 222.4 1544.3, 301.0 1378.0, 125.5 1429.8 C -49.9 1481.6, -13.3 1595.8, -167.6 1446.6 C -321.9 1297.4, -272.8 1348.0, -333.7 1067.7 C -394.6 787.3, -310.5 887.3, -249.6 607.0 C -188.7 326.6, -278.8 419.8, -124.5 270.7 C 29.9 121.5, -47.9 229.0, 127.6 280.8 C 303.1 332.6, 236.0 142.6, 350.5 371.1 C 465.1 599.7, 513.7 558.6, 513.7 857.0 Z" fill="#D5F4FF" opacity="0.37" filter="url(#blur_crm_03_1218)"/>
  <path d="M 392.4 2634.0 C 392.4 2928.8, 448.5 2772.9, 350.7 2998.7 C 252.9 3224.5, 304.4 3151.1, 154.6 3202.2 C 4.8 3253.4, 39.6 3402.3, -92.1 3254.9 C -223.9 3107.5, -212.4 3160.2, -264.4 2883.2 C -316.4 2606.2, -281.6 2696.8, -229.6 2419.8 C -177.5 2142.8, -194.7 2155.0, -63.0 2007.7 C 68.7 1860.3, 19.6 2049.6, 169.4 2100.7 C 319.2 2151.9, 230.0 2051.7, 327.8 2277.5 C 425.5 2503.3, 392.4 2339.2, 392.4 2634.0 Z" fill="#E8FAFF" opacity="0.18" filter="url(#blur_crm_03_1218)"/>
  <path d="M 882.2 2207.0 C 882.2 2422.6, 873.7 2387.9, 734.3 2553.0 C 594.8 2718.1, 623.0 2611.9, 409.4 2649.3 C 195.8 2686.8, 249.6 2747.7, 61.7 2639.9 C -126.1 2532.1, -39.5 2598.5, -113.7 2395.9 C -187.9 2193.4, -127.1 2242.7, -52.9 2040.2 C 21.2 1837.6, -103.6 1894.7, 84.3 1786.9 C 272.1 1679.1, 209.0 1657.1, 422.6 1694.5 C 636.2 1732.0, 588.3 1723.8, 727.7 1888.9 C 867.1 2054.0, 882.2 1991.5, 882.2 2207.0 Z" fill="#E8FAFF" opacity="0.27" filter="url(#blur_crm_03_1218)"/>
  <path d="M 998.2 2030.0 C 998.2 2259.9, 985.7 2217.8, 881.9 2394.0 C 778.0 2570.1, 805.8 2572.9, 646.7 2612.8 C 487.6 2652.8, 568.6 2522.4, 428.6 2407.4 C 288.7 2292.5, 344.8 2419.0, 289.6 2203.0 C 234.3 1986.9, 193.3 2055.1, 248.5 1839.0 C 303.8 1622.9, 264.1 1754.8, 404.0 1639.9 C 543.9 1524.9, 491.6 1471.9, 650.7 1511.8 C 809.8 1551.7, 738.7 1470.0, 842.5 1646.1 C 946.4 1822.3, 998.2 1800.0, 998.2 2030.0 Z" fill="#A7CCFF" opacity="0.30" filter="url(#blur_crm_03_1218)"/>
  <path d="M 924.8 1305.0 C 924.8 1589.8, 1087.5 1437.7, 947.5 1655.9 C 807.5 1874.1, 808.0 1987.6, 593.5 2037.0 C 379.0 2086.5, 439.9 1943.4, 251.3 1801.0 C 62.7 1658.5, 83.8 1764.6, 9.3 1496.9 C -65.2 1229.2, 44.2 1382.3, 118.7 1114.6 C 193.2 846.9, 120.4 858.4, 309.0 716.0 C 497.6 573.5, 385.9 714.9, 600.4 764.3 C 814.9 813.8, 717.5 734.3, 857.5 952.5 C 997.5 1170.7, 924.8 1020.1, 924.8 1305.0 Z" fill="#E8FAFF" opacity="0.33" filter="url(#blur_crm_03_1218)"/>
  <path d="M 1727.2 1319.0 C 1727.2 1450.8, 1814.9 1425.3, 1678.0 1526.4 C 1541.2 1627.4, 1575.7 1568.9, 1366.1 1591.8 C 1156.5 1614.7, 1221.0 1617.1, 1036.7 1551.2 C 852.3 1485.3, 968.9 1554.5, 896.1 1430.6 C 823.3 1306.7, 852.2 1360.1, 925.0 1236.2 C 997.8 1112.3, 890.7 1096.8, 1075.1 1030.9 C 1259.4 964.9, 1173.2 1054.0, 1382.9 1076.9 C 1592.5 1099.8, 1572.9 999.2, 1709.7 1100.2 C 1846.5 1201.2, 1727.2 1187.2, 1727.2 1319.0 Z" fill="#6DB6CF" opacity="0.30" filter="url(#blur_crm_03_1218)"/>
  <path d="M 799.9 681.0 C 799.9 920.0, 813.2 826.3, 717.7 1009.4 C 622.3 1192.4, 645.8 1126.5, 499.6 1168.0 C 353.4 1209.5, 395.1 1211.8, 266.5 1092.3 C 137.9 972.9, 144.7 1091.6, 93.9 867.1 C 43.1 642.6, 117.8 708.1, 168.6 483.5 C 219.4 259.0, 151.0 364.8, 279.6 245.3 C 408.2 125.8, 352.0 131.1, 498.3 172.6 C 644.5 214.1, 612.4 184.3, 707.9 367.3 C 803.3 550.4, 799.9 442.0, 799.9 681.0 Z" fill="#6DB6CF" opacity="0.37" filter="url(#blur_crm_03_1218)"/>
  <path d="M 607.0 2764.0 C 607.0 2986.8, 667.6 2890.3, 584.1 3061.0 C 500.5 3231.6, 526.6 3296.6, 398.5 3335.3 C 270.4 3374.0, 347.6 3265.5, 234.9 3154.2 C 122.3 3042.8, 93.4 3167.5, 48.9 2958.2 C 4.5 2748.8, -4.6 2817.0, 39.9 2607.7 C 84.4 2398.4, 81.4 2455.7, 194.0 2344.3 C 306.6 2232.9, 284.0 2226.3, 412.0 2265.0 C 540.1 2303.6, 484.5 2229.1, 568.1 2399.7 C 651.7 2570.3, 607.0 2541.2, 607.0 2764.0 Z" fill="#6DB6CF" opacity="0.36" filter="url(#blur_crm_03_1218)"/>
  <path d="M 1916.0 2265.0 C 1916.0 2446.8, 1892.9 2381.8, 1750.0 2521.0 C 1607.1 2660.3, 1668.4 2702.5, 1449.5 2734.1 C 1230.5 2765.6, 1325.5 2708.1, 1133.0 2617.2 C 940.5 2526.3, 997.7 2585.7, 921.7 2414.8 C 845.7 2244.0, 781.2 2318.3, 857.3 2147.5 C 933.3 1976.6, 951.6 1958.5, 1144.1 1867.6 C 1336.6 1776.7, 1224.9 1887.6, 1443.9 1919.2 C 1662.8 1950.8, 1626.9 1839.9, 1769.8 1979.2 C 1912.7 2118.4, 1916.0 2083.2, 1916.0 2265.0 Z" fill="#FBFFFF" opacity="0.36" filter="url(#blur_crm_03_1218)"/>
  <path d="M 1005.9 1046.0 C 1005.9 1295.3, 1013.9 1252.8, 856.0 1443.8 C 698.1 1634.8, 739.1 1463.1, 497.1 1506.4 C 255.1 1549.7, 314.8 1620.5, 102.0 1495.8 C -110.8 1371.2, -47.3 1497.8, -131.3 1263.5 C -215.3 1029.2, -110.9 1105.0, -26.8 870.8 C 57.2 636.5, -98.2 709.1, 114.6 584.5 C 327.3 459.8, 252.5 489.9, 494.5 533.2 C 736.5 576.5, 670.7 519.3, 828.7 710.3 C 986.6 901.3, 1005.9 796.7, 1005.9 1046.0 Z" fill="#FBFFFF" opacity="0.30" filter="url(#blur_crm_03_1218)"/>
  <path d="M 314.7 2733.0 C 314.7 2992.7, 383.5 2893.8, 271.9 3103.9 C 160.3 3313.9, 208.2 3148.5, 27.6 3228.8 C -153.0 3309.0, -57.5 3355.0, -238.1 3274.8 C -418.7 3194.6, -315.4 3288.4, -427.0 3078.3 C -538.6 2868.2, -510.5 2992.7, -510.5 2733.0 C -510.5 2473.3, -575.6 2598.2, -464.0 2388.1 C -352.4 2178.1, -430.2 2234.3, -249.5 2154.1 C -68.9 2073.9, -165.1 2112.8, 15.5 2193.1 C 196.1 2273.3, 160.5 2174.3, 272.1 2384.4 C 383.7 2594.4, 314.7 2473.3, 314.7 2733.0 Z" fill="#6DB6CF" opacity="0.12" stroke="#6DB6CF" stroke-opacity="0.46" stroke-width="3" filter="url(#soft_crm_03_1218)"/>
  <path d="M 314.7 2733.0 C 314.7 2992.7, 383.5 2893.8, 271.9 3103.9 C 160.3 3313.9, 208.2 3148.5, 27.6 3228.8 C -153.0 3309.0, -57.5 3355.0, -238.1 3274.8 C -418.7 3194.6, -315.4 3288.4, -427.0 3078.3 C -538.6 2868.2, -510.5 2992.7, -510.5 2733.0 C -510.5 2473.3, -575.6 2598.2, -464.0 2388.1 C -352.4 2178.1, -430.2 2234.3, -249.5 2154.1 C -68.9 2073.9, -165.1 2112.8, 15.5 2193.1 C 196.1 2273.3, 160.5 2174.3, 272.1 2384.4 C 383.7 2594.4, 314.7 2473.3, 314.7 2733.0 Z" fill="none" stroke="#FFFFFF" stroke-opacity="0.22" stroke-width="1.2"/>
  <path d="M 610.0 1290.0 C 610.0 1479.5, 610.0 1411.9, 540.4 1565.2 C 470.8 1718.5, 527.1 1621.7, 414.5 1680.3 C 302.0 1738.8, 362.4 1698.8, 249.8 1640.2 C 137.2 1581.7, 184.0 1676.1, 114.4 1522.8 C 44.9 1369.6, 70.8 1479.5, 70.8 1290.0 C 70.8 1100.5, 26.6 1222.9, 96.2 1069.7 C 165.8 916.4, 138.2 921.9, 250.7 863.3 C 363.3 804.8, 296.4 787.0, 409.0 845.5 C 521.5 904.1, 444.7 872.7, 514.2 1026.0 C 583.8 1179.3, 610.0 1100.5, 610.0 1290.0 Z" fill="#E8FAFF" opacity="0.12" stroke="#E8FAFF" stroke-opacity="0.46" stroke-width="3" filter="url(#soft_crm_03_1218)"/>
  <path d="M 610.0 1290.0 C 610.0 1479.5, 610.0 1411.9, 540.4 1565.2 C 470.8 1718.5, 527.1 1621.7, 414.5 1680.3 C 302.0 1738.8, 362.4 1698.8, 249.8 1640.2 C 137.2 1581.7, 184.0 1676.1, 114.4 1522.8 C 44.9 1369.6, 70.8 1479.5, 70.8 1290.0 C 70.8 1100.5, 26.6 1222.9, 96.2 1069.7 C 165.8 916.4, 138.2 921.9, 250.7 863.3 C 363.3 804.8, 296.4 787.0, 409.0 845.5 C 521.5 904.1, 444.7 872.7, 514.2 1026.0 C 583.8 1179.3, 610.0 1100.5, 610.0 1290.0 Z" fill="none" stroke="#FFFFFF" stroke-opacity="0.22" stroke-width="1.2"/>
  <path d="M 424.1 2519.0 C 424.1 2707.1, 533.7 2595.0, 376.3 2747.2 C 218.9 2899.4, 296.8 2858.2, 42.2 2916.4 C -212.5 2974.5, -63.4 2942.1, -318.1 2884.0 C -572.7 2825.9, -531.3 2911.2, -688.6 2759.0 C -846.0 2606.8, -712.9 2707.1, -712.9 2519.0 C -712.9 2330.9, -835.7 2426.9, -678.4 2274.7 C -521.0 2122.5, -575.1 2201.2, -320.5 2143.0 C -65.8 2084.9, -245.4 2065.8, 9.2 2124.0 C 263.9 2182.1, 136.8 2149.6, 294.2 2301.8 C 451.6 2453.9, 424.1 2330.9, 424.1 2519.0 Z" fill="#6DB6CF" opacity="0.12" stroke="#FFFFFF" stroke-opacity="0.46" stroke-width="3" filter="url(#soft_crm_03_1218)"/>
  <path d="M 424.1 2519.0 C 424.1 2707.1, 533.7 2595.0, 376.3 2747.2 C 218.9 2899.4, 296.8 2858.2, 42.2 2916.4 C -212.5 2974.5, -63.4 2942.1, -318.1 2884.0 C -572.7 2825.9, -531.3 2911.2, -688.6 2759.0 C -846.0 2606.8, -712.9 2707.1, -712.9 2519.0 C -712.9 2330.9, -835.7 2426.9, -678.4 2274.7 C -521.0 2122.5, -575.1 2201.2, -320.5 2143.0 C -65.8 2084.9, -245.4 2065.8, 9.2 2124.0 C 263.9 2182.1, 136.8 2149.6, 294.2 2301.8 C 451.6 2453.9, 424.1 2330.9, 424.1 2519.0 Z" fill="none" stroke="#FFFFFF" stroke-opacity="0.22" stroke-width="1.2"/>
  <path d="M 920.7 -65.0 C 920.7 239.7, 923.0 103.3, 816.4 349.8 C 709.8 596.2, 768.0 471.3, 595.5 565.5 C 423.1 659.6, 497.9 586.8, 325.5 492.7 C 153.0 398.5, 203.6 580.8, 97.0 334.4 C -9.6 87.9, 40.0 239.7, 40.0 -65.0 C 40.0 -369.6, -0.4 -192.3, 106.2 -438.7 C 212.8 -685.2, 166.2 -605.9, 338.7 -700.0 C 511.2 -794.2, 413.8 -791.7, 586.2 -697.5 C 758.7 -603.4, 683.0 -706.3, 789.6 -459.8 C 896.2 -213.3, 920.7 -369.7, 920.7 -65.0 Z" fill="#A7CCFF" opacity="0.12" stroke="#A7CCFF" stroke-opacity="0.46" stroke-width="3" filter="url(#soft_crm_03_1218)"/>
  <path d="M 920.7 -65.0 C 920.7 239.7, 923.0 103.3, 816.4 349.8 C 709.8 596.2, 768.0 471.3, 595.5 565.5 C 423.1 659.6, 497.9 586.8, 325.5 492.7 C 153.0 398.5, 203.6 580.8, 97.0 334.4 C -9.6 87.9, 40.0 239.7, 40.0 -65.0 C 40.0 -369.6, -0.4 -192.3, 106.2 -438.7 C 212.8 -685.2, 166.2 -605.9, 338.7 -700.0 C 511.2 -794.2, 413.8 -791.7, 586.2 -697.5 C 758.7 -603.4, 683.0 -706.3, 789.6 -459.8 C 896.2 -213.3, 920.7 -369.7, 920.7 -65.0 Z" fill="none" stroke="#FFFFFF" stroke-opacity="0.22" stroke-width="1.2"/>
  <path d="M 1802.5 1367.0 C 1802.5 1681.5, 1862.3 1517.6, 1742.8 1772.1 C 1623.2 2026.6, 1721.4 2005.2, 1528.0 2102.4 C 1334.5 2199.6, 1424.7 2166.2, 1231.3 2069.0 C 1037.8 1971.8, 1133.1 2082.0, 1013.6 1827.6 C 894.0 1573.1, 993.3 1681.5, 993.3 1367.0 C 993.3 1052.5, 917.9 1186.2, 1037.4 931.7 C 1157.0 677.3, 1063.0 852.7, 1256.4 755.5 C 1449.9 658.3, 1334.2 663.7, 1527.7 760.9 C 1721.1 858.1, 1597.5 730.7, 1717.1 985.1 C 1836.6 1239.6, 1802.5 1052.5, 1802.5 1367.0 Z" fill="#D5F4FF" opacity="0.12" stroke="#D5F4FF" stroke-opacity="0.46" stroke-width="3" filter="url(#soft_crm_03_1218)"/>
  <path d="M 1802.5 1367.0 C 1802.5 1681.5, 1862.3 1517.6, 1742.8 1772.1 C 1623.2 2026.6, 1721.4 2005.2, 1528.0 2102.4 C 1334.5 2199.6, 1424.7 2166.2, 1231.3 2069.0 C 1037.8 1971.8, 1133.1 2082.0, 1013.6 1827.6 C 894.0 1573.1, 993.3 1681.5, 993.3 1367.0 C 993.3 1052.5, 917.9 1186.2, 1037.4 931.7 C 1157.0 677.3, 1063.0 852.7, 1256.4 755.5 C 1449.9 658.3, 1334.2 663.7, 1527.7 760.9 C 1721.1 858.1, 1597.5 730.7, 1717.1 985.1 C 1836.6 1239.6, 1802.5 1052.5, 1802.5 1367.0 Z" fill="none" stroke="#FFFFFF" stroke-opacity="0.22" stroke-width="1.2"/>
  <path d="M -100.0 573.1 Q 133.3 796.5, 366.7 655.4 Q 600.0 351.4, 833.3 497.9 Q 1066.7 715.9, 1300.0 657.4" fill="none" stroke="#FFFFFF" stroke-opacity="0.38" stroke-width="4" filter="url(#soft_crm_03_1218)"/>
  <path d="M -100.0 573.1 Q 133.3 796.5, 366.7 655.4 Q 600.0 351.4, 833.3 497.9 Q 1066.7 715.9, 1300.0 657.4" fill="none" stroke="#6DB6CF" stroke-opacity="0.18" stroke-width="2"/>
  <path d="M -100.0 121.9 Q 133.3 305.5, 366.7 181.2 Q 600.0 13.5, 833.3 -38.3 Q 1066.7 -112.9, 1300.0 -119.2" fill="none" stroke="#FFFFFF" stroke-opacity="0.38" stroke-width="4" filter="url(#soft_crm_03_1218)"/>
  <path d="M -100.0 121.9 Q 133.3 305.5, 366.7 181.2 Q 600.0 13.5, 833.3 -38.3 Q 1066.7 -112.9, 1300.0 -119.2" fill="none" stroke="#9EE2C2" stroke-opacity="0.18" stroke-width="2"/>
  <path d="M -100.0 445.2 Q 133.3 523.9, 366.7 405.2 Q 600.0 144.8, 833.3 334.2 Q 1066.7 440.2, 1300.0 532.2" fill="none" stroke="#FFFFFF" stroke-opacity="0.38" stroke-width="4" filter="url(#soft_crm_03_1218)"/>
  <path d="M -100.0 445.2 Q 133.3 523.9, 366.7 405.2 Q 600.0 144.8, 833.3 334.2 Q 1066.7 440.2, 1300.0 532.2" fill="none" stroke="#6DB6CF" stroke-opacity="0.18" stroke-width="2"/>
  <circle cx="524" cy="1943" r="148" fill="url(#orb_crm_03_1218)" opacity="0.36"/>
  <circle cx="524" cy="1943" r="148" fill="#D5F4FF" opacity="0.08"/>
  <circle cx="524" cy="1943" r="148" fill="none" stroke="#FFFFFF" stroke-opacity="0.56" stroke-width="3"/>
  <ellipse cx="482.6" cy="1889.7" rx="26.6" ry="11.8" fill="#FFFFFF" opacity="0.42" transform="rotate(-22 482.6 1889.7)"/>
  <circle cx="745" cy="2040" r="271" fill="url(#orb_crm_03_1218)" opacity="0.36"/>
  <circle cx="745" cy="2040" r="271" fill="#E8FAFF" opacity="0.08"/>
  <circle cx="745" cy="2040" r="271" fill="none" stroke="#FFFFFF" stroke-opacity="0.56" stroke-width="3"/>
  <ellipse cx="669.1" cy="1942.4" rx="48.8" ry="21.7" fill="#FFFFFF" opacity="0.42" transform="rotate(-22 669.1 1942.4)"/>
  <circle cx="969" cy="903" r="207" fill="url(#orb_crm_03_1218)" opacity="0.36"/>
  <circle cx="969" cy="903" r="207" fill="#F6F7FF" opacity="0.08"/>
  <circle cx="969" cy="903" r="207" fill="none" stroke="#FFFFFF" stroke-opacity="0.56" stroke-width="3"/>
  <ellipse cx="911.0" cy="828.5" rx="37.3" ry="16.6" fill="#FFFFFF" opacity="0.42" transform="rotate(-22 911.0 828.5)"/>
  <circle cx="836" cy="921" r="194" fill="url(#orb_crm_03_1218)" opacity="0.25"/>
  <circle cx="836" cy="921" r="194" fill="#FBFFFF" opacity="0.08"/>
  <circle cx="836" cy="921" r="194" fill="none" stroke="#FFFFFF" stroke-opacity="0.56" stroke-width="3"/>
  <ellipse cx="781.7" cy="851.2" rx="34.9" ry="15.5" fill="#FFFFFF" opacity="0.42" transform="rotate(-22 781.7 851.2)"/>
  <circle cx="395" cy="2308" r="130" fill="url(#orb_crm_03_1218)" opacity="0.20"/>
  <circle cx="395" cy="2308" r="130" fill="#E8FAFF" opacity="0.08"/>
  <circle cx="395" cy="2308" r="130" fill="none" stroke="#FFFFFF" stroke-opacity="0.56" stroke-width="3"/>
  <ellipse cx="358.6" cy="2261.2" rx="23.4" ry="10.4" fill="#FFFFFF" opacity="0.42" transform="rotate(-22 358.6 2261.2)"/>
  <circle cx="487" cy="2101" r="165" fill="url(#orb_crm_03_1218)" opacity="0.25"/>
  <circle cx="487" cy="2101" r="165" fill="#F6F7FF" opacity="0.08"/>
  <circle cx="487" cy="2101" r="165" fill="none" stroke="#FFFFFF" stroke-opacity="0.56" stroke-width="3"/>
  <ellipse cx="440.8" cy="2041.6" rx="29.7" ry="13.2" fill="#FFFFFF" opacity="0.42" transform="rotate(-22 440.8 2041.6)"/>
  <circle cx="582" cy="1753" r="166" fill="url(#orb_crm_03_1218)" opacity="0.17"/>
  <circle cx="582" cy="1753" r="166" fill="#FBFFFF" opacity="0.08"/>
  <circle cx="582" cy="1753" r="166" fill="none" stroke="#FFFFFF" stroke-opacity="0.56" stroke-width="3"/>
  <ellipse cx="535.5" cy="1693.2" rx="29.9" ry="13.3" fill="#FFFFFF" opacity="0.42" transform="rotate(-22 535.5 1693.2)"/>
  <circle cx="476" cy="2308" r="4" fill="#FFFFFF" opacity="0.48"/>
  <circle cx="982" cy="2579" r="7" fill="#FFFFFF" opacity="0.42"/>
  <circle cx="1053" cy="1609" r="7" fill="#FFFFFF" opacity="0.43"/>
  <circle cx="506" cy="321" r="5" fill="#FFFFFF" opacity="0.64"/>
  <circle cx="739" cy="131" r="4" fill="#FFFFFF" opacity="0.50"/>
  <circle cx="748" cy="247" r="5" fill="#FFFFFF" opacity="0.63"/>
  <circle cx="880" cy="1198" r="4" fill="#FFFFFF" opacity="0.37"/>
  <circle cx="387" cy="957" r="3" fill="#FFFFFF" opacity="0.65"/>
  <circle cx="32" cy="840" r="5" fill="#FFFFFF" opacity="0.63"/>
  <circle cx="591" cy="391" r="3" fill="#FFFFFF" opacity="0.66"/>
  <circle cx="360" cy="1847" r="3" fill="#FFFFFF" opacity="0.64"/>
  <circle cx="1049" cy="2574" r="2" fill="#FFFFFF" opacity="0.29"/>
  <circle cx="769" cy="2065" r="3" fill="#FFFFFF" opacity="0.42"/>
  <rect width="1200" height="2600" fill="#FFFFFF" opacity="0.08"/>
  <rect width="1200" height="2600" filter="url(#grain_crm_03_1218)" opacity="0.7"/>
</svg>
