<svg xmlns="http://www.w3.org/2000/svg" width="1200" height="2600" viewBox="0 0 1200 2600" preserveAspectRatio="xMidYMid slice">
  <defs>
    <linearGradient id="bg_crm_04_5497" x1="0" y1="0" x2="1" y2="1">
      <stop offset="0%" stop-color="#D5F4FF"/>
      <stop offset="48%" stop-color="#E9FFF1"/>
      <stop offset="100%" stop-color="#F6F7FF"/>
    </linearGradient>
    <radialGradient id="orb_crm_04_5497" cx="35%" cy="30%" r="70%">
      <stop offset="0%" stop-color="#FFFFFF" stop-opacity="0.85"/>
      <stop offset="42%" stop-color="#FFFFFF" stop-opacity="0.20"/>
      <stop offset="100%" stop-color="#FFFFFF" stop-opacity="0.02"/>
    </radialGradient>
    <filter id="blur_crm_04_5497" x="-30%" y="-30%" width="160%" height="160%">
      <feGaussianBlur stdDeviation="72"/>
    </filter>
    <filter id="soft_crm_04_5497" x="-20%" y="-20%" width="140%" height="140%">
      <feGaussianBlur stdDeviation="10"/>
    </filter>
    <filter id="grain_crm_04_5497">
      <feTurbulence type="fractalNoise" baseFrequency="0.85" numOctaves="2" stitchTiles="stitch"/>
      <feColorMatrix type="saturate" values="0"/>
      <feComponentTransfer>
        <feFuncA type="table" tableValues="0 0.035"/>
      </feComponentTransfer>
    </filter>
  </defs>
  <rect width="1200" height="2600" fill="url(#bg_crm_04_5497)"/>
  <path d="M 1575.2 1773.0 C 1575.2 1964.7, 1603.0 1934.7, 1520.6 2081.5 C 1438.1 2228.4, 1513.2 2210.4, 1386.9 2243.7 C 1260.6 2276.9, 1298.6 2194.7, 1187.5 2098.8 C 1076.5 2003.0, 1077.9 2118.0, 1034.0 1937.9 C 990.2 1757.8, 1057.9 1781.8, 1101.8 1601.7 C 1145.6 1421.6, 1093.8 1436.8, 1204.8 1341.0 C 1315.9 1245.1, 1244.7 1272.0, 1371.0 1305.3 C 1497.3 1338.5, 1443.4 1365.7, 1525.9 1512.6 C 1608.3 1659.4, 1575.2 1581.3, 1575.2 1773.0 Z" fill="#D5F4FF" opacity="0.33" filter="url(#blur_crm_04_5497)"/>
  <path d="M 191.3 1657.0 C 191.3 1816.8, 254.5 1733.3, 130.7 1855.7 C 6.9 1978.1, 72.2 2037.9, -117.5 2065.7 C -307.2 2093.4, -215.8 2016.9, -382.6 1937.0 C -549.4 1857.1, -512.9 1949.4, -578.8 1799.3 C -644.6 1649.2, -697.6 1675.7, -631.8 1525.6 C -565.9 1375.5, -580.3 1456.2, -413.5 1376.3 C -246.7 1296.5, -297.9 1290.3, -108.2 1318.1 C 81.5 1345.8, 27.5 1287.9, 151.3 1410.3 C 275.1 1532.7, 191.3 1497.2, 191.3 1657.0 Z" fill="#F6F7FF" opacity="0.23" filter="url(#blur_crm_04_5497)"/>
  <path d="M 380.3 1122.0 C 380.3 1263.8, 403.7 1249.4, 296.4 1358.0 C 189.1 1466.6, 283.1 1460.0, 118.7 1484.7 C -45.7 1509.3, -20.5 1454.5, -165.1 1383.7 C -309.7 1312.8, -259.4 1369.5, -316.5 1236.3 C -373.6 1103.1, -353.3 1153.2, -296.2 1020.0 C -239.1 886.8, -269.8 932.3, -125.2 861.4 C 19.4 790.5, -64.7 813.7, 99.7 838.3 C 264.1 862.9, 244.0 805.9, 351.3 914.5 C 458.6 1023.1, 380.3 980.2, 380.3 1122.0 Z" fill="#A7CCFF" opacity="0.33" filter="url(#blur_crm_04_5497)"/>
  <path d="M 391.0 73.0 C 391.0 267.9, 419.0 183.1, 305.4 332.3 C 191.7 481.6, 237.2 505.1, 63.0 538.9 C -111.2 572.7, -41.2 512.8, -194.4 415.4 C -347.5 318.0, -290.8 401.4, -351.3 218.3 C -411.8 35.2, -393.4 114.7, -332.9 -68.4 C -272.4 -251.5, -349.8 -208.3, -196.7 -305.7 C -43.5 -403.2, -106.0 -435.5, 68.2 -401.6 C 242.4 -367.8, 145.1 -356.1, 258.7 -206.8 C 372.4 -57.5, 391.0 -121.8, 391.0 73.0 Z" fill="#D5F4FF" opacity="0.26" filter="url(#blur_crm_04_5497)"/>
  <path d="M 877.8 247.0 C 877.8 467.5, 886.7 366.4, 725.3 535.3 C 563.8 704.2, 660.0 720.5, 412.8 758.8 C 165.5 797.1, 233.4 825.5, 16.0 715.2 C -201.5 605.0, -158.1 632.4, -244.0 425.2 C -329.8 218.0, -319.9 283.2, -234.0 76.0 C -148.1 -131.2, -185.3 -75.3, 32.1 -185.6 C 249.6 -295.8, 132.0 -223.6, 379.3 -185.3 C 626.5 -147.0, 563.8 -184.6, 725.3 -15.7 C 886.7 153.2, 877.8 26.5, 877.8 247.0 Z" fill="#A7CCFF" opacity="0.23" filter="url(#blur_crm_04_5497)"/>
  <path d="M 1505.0 2824.0 C 1505.0 3127.8, 1483.5 3015.4, 1400.1 3248.1 C 1316.8 3480.8, 1366.8 3441.0, 1239.2 3493.8 C 1111.6 3546.5, 1150.6 3638.1, 1038.4 3486.3 C 926.2 3334.4, 1002.0 3324.7, 957.7 3039.3 C 913.4 2753.9, 891.1 2869.8, 935.5 2584.3 C 979.8 2298.9, 935.2 2449.4, 1047.5 2297.5 C 1159.7 2145.6, 1109.9 2022.9, 1237.6 2075.6 C 1365.2 2128.4, 1302.0 2183.6, 1385.3 2416.3 C 1468.6 2649.0, 1505.0 2520.2, 1505.0 2824.0 Z" fill="#E8FAFF" opacity="0.22" filter="url(#blur_crm_04_5497)"/>
  <path d="M 1309.2 1739.0 C 1309.2 1938.3, 1292.2 1866.5, 1183.1 2019.2 C 1074.1 2171.9, 1133.2 2074.2, 966.1 2108.8 C 799.1 2143.4, 831.2 2233.1, 684.3 2133.4 C 537.3 2033.7, 567.4 2102.5, 509.4 1915.2 C 451.3 1727.9, 474.9 1792.8, 532.9 1605.5 C 590.9 1418.1, 587.6 1515.8, 734.5 1416.1 C 881.5 1316.5, 784.7 1273.0, 951.7 1307.7 C 1118.8 1342.3, 1038.5 1291.5, 1147.5 1444.2 C 1256.6 1596.9, 1309.2 1539.7, 1309.2 1739.0 Z" fill="#6DB6CF" opacity="0.18" filter="url(#blur_crm_04_5497)"/>
  <path d="M 1625.5 490.0 C 1625.5 728.5, 1611.3 611.7, 1516.2 794.4 C 1421.0 977.1, 1454.5 948.7, 1308.7 990.1 C 1162.9 1031.6, 1231.9 1075.4, 1103.7 956.1 C 975.5 836.9, 1040.4 911.4, 989.8 687.3 C 939.1 463.2, 870.0 561.0, 920.7 336.8 C 971.3 112.7, 935.9 108.0, 1064.1 -11.2 C 1192.4 -130.5, 1164.6 -136.3, 1310.4 -94.9 C 1456.2 -53.5, 1379.3 -57.7, 1474.5 125.1 C 1569.7 307.8, 1625.5 251.5, 1625.5 490.0 Z" fill="#9EE2C2" opacity="0.22" filter="url(#blur_crm_04_5497)"/>
  <path d="M 570.0 2287.0 C 570.0 2430.1, 508.1 2368.2, 377.4 2477.8 C 246.6 2587.4, 340.6 2587.1, 140.2 2611.9 C -60.1 2636.8, 16.4 2632.6, -159.8 2561.1 C -335.9 2489.5, -297.1 2539.2, -366.7 2404.8 C -436.3 2270.3, -358.0 2324.8, -288.5 2190.3 C -218.9 2055.8, -302.7 2101.8, -126.5 2030.3 C 49.6 1958.7, -43.8 1894.5, 156.5 1919.3 C 356.8 1944.2, 297.5 1978.5, 428.2 2088.1 C 559.0 2197.7, 570.0 2143.9, 570.0 2287.0 Z" fill="#E9FFF1" opacity="0.31" filter="url(#blur_crm_04_5497)"/>
  <path d="M 463.3 2460.0 C 463.3 2765.6, 485.0 2674.3, 367.3 2908.4 C 249.6 3142.4, 329.6 3149.8, 149.2 3202.8 C -31.2 3255.9, 67.4 3263.2, -91.2 3110.4 C -249.8 2957.6, -274.4 2964.7, -337.0 2677.6 C -399.6 2390.5, -427.3 2498.1, -364.7 2211.0 C -302.0 1923.9, -263.6 2098.5, -105.0 1945.8 C 53.6 1793.0, -31.0 1681.6, 149.4 1734.7 C 329.8 1787.7, 296.7 1817.6, 414.4 2051.7 C 532.1 2285.8, 463.3 2154.4, 463.3 2460.0 Z" fill="#E8FAFF" opacity="0.31" filter="url(#blur_crm_04_5497)"/>
  <path d="M 570.9 91.0 C 570.9 303.0, 603.4 185.4, 514.6 347.8 C 425.8 510.1, 437.3 477.5, 301.2 514.3 C 165.2 551.1, 191.9 675.6, 72.3 569.6 C -47.4 463.7, -31.3 459.5, -78.5 260.3 C -125.8 61.1, -111.6 147.7, -64.3 -51.4 C -17.1 -250.6, 0.7 -143.0, 120.3 -249.0 C 240.0 -355.0, 164.6 -375.0, 300.6 -338.2 C 436.7 -301.4, 404.3 -385.8, 493.1 -223.4 C 581.9 -61.1, 570.9 -121.0, 570.9 91.0 Z" fill="#D5F4FF" opacity="0.27" filter="url(#blur_crm_04_5497)"/>
  <path d="M 631.9 577.0 C 631.9 723.2, 600.5 690.2, 464.3 802.2 C 328.0 914.2, 378.4 899.4, 169.7 924.8 C -39.1 950.2, 48.2 932.8, -135.4 859.7 C -318.9 786.6, -297.2 812.5, -369.7 675.0 C -442.2 537.6, -438.7 617.6, -366.2 480.2 C -293.7 342.8, -279.2 328.2, -95.7 255.1 C 87.9 182.0, -40.0 186.3, 168.7 211.7 C 377.4 237.1, 267.9 226.3, 404.2 338.3 C 540.4 450.4, 631.9 430.8, 631.9 577.0 Z" fill="#6DB6CF" opacity="0.25" filter="url(#blur_crm_04_5497)"/>
  <path d="M 295.4 301.0 C 295.4 612.0, 343.0 510.9, 240.9 762.5 C 138.8 1014.0, 187.3 840.1, 22.1 936.2 C -143.1 1032.3, -21.6 981.9, -186.8 885.8 C -352.0 789.7, -317.5 943.0, -419.6 691.4 C -521.7 439.8, -465.2 612.0, -465.2 301.0 C -465.2 -9.9, -476.6 146.5, -374.5 -105.0 C -272.4 -356.6, -380.2 -169.0, -215.0 -265.1 C -49.8 -361.2, -124.1 -523.7, 41.1 -427.6 C 206.3 -331.6, 113.7 -388.6, 215.8 -137.0 C 317.9 114.5, 295.4 -9.9, 295.4 301.0 Z" fill="#9EE2C2" opacity="0.12" stroke="#FFFFFF" stroke-opacity="0.46" stroke-width="3" filter="url(#soft_crm_04_5497)"/>
  <path d="M 295.4 301.0 C 295.4 612.0, 343.0 510.9, 240.9 762.5 C 138.8 1014.0, 187.3 840.1, 22.1 936.2 C -143.1 1032.3, -21.6 981.9, -186.8 885.8 C -352.0 789.7, -317.5 943.0, -419.6 691.4 C -521.7 439.8, -465.2 612.0, -465.2 301.0 C -465.2 -9.9, -476.6 146.5, -374.5 -105.0 C -272.4 -356.6, -380.2 -169.0, -215.0 -265.1 C -49.8 -361.2, -124.1 -523.7, 41.1 -427.6 C 206.3 -331.6, 113.7 -388.6, 215.8 -137.0 C 317.9 114.5, 295.4 -9.9, 295.4 301.0 Z" fill="none" stroke="#FFFFFF" stroke-opacity="0.22" stroke-width="1.2"/>
  <path d="M 1023.7 437.0 C 1023.7 614.3, 1071.5 548.7, 1002.7 692.1 C 933.9 835.6, 997.8 720.9, 886.5 775.7 C 775.2 830.5, 825.4 848.3, 714.1 793.5 C 602.9 738.7, 669.7 781.7, 600.9 638.2 C 532.2 494.8, 535.5 614.3, 535.5 437.0 C 535.5 259.7, 542.3 328.2, 611.0 184.7 C 679.8 41.3, 598.2 163.7, 709.5 108.9 C 820.8 54.1, 766.0 23.5, 877.3 78.3 C 988.6 133.1, 947.6 72.5, 1016.4 216.0 C 1085.2 359.4, 1023.7 259.7, 1023.7 437.0 Z" fill="#A7CCFF" opacity="0.12" stroke="#FFFFFF" stroke-opacity="0.46" stroke-width="3" filter="url(#soft_crm_04_5497)"/>
  <path d="M 1023.7 437.0 C 1023.7 614.3, 1071.5 548.7, 1002.7 692.1 C 933.9 835.6, 997.8 720.9, 886.5 775.7 C 775.2 830.5, 825.4 848.3, 714.1 793.5 C 602.9 738.7, 669.7 781.7, 600.9 638.2 C 532.2 494.8, 535.5 614.3, 535.5 437.0 C 535.5 259.7, 542.3 328.2, 611.0 184.7 C 679.8 41.3, 598.2 163.7, 709.5 108.9 C 820.8 54.1, 766.0 23.5, 877.3 78.3 C 988.6 133.1, 947.6 72.5, 1016.4 216.0 C 1085.2 359.4, 1023.7 259.7, 1023.7 437.0 Z" fill="none" stroke="#FFFFFF" stroke-opacity="0.22" stroke-width="1.2"/>
  <path d="M 422.8 2722.0 C 422.8 3003.7, 498.4 2831.9, 322.5 3059.8 C 146.7 3287.7, 338.6 3210.2, 54.0 3297.2 C -230.7 3384.3, -76.8 3456.9, -361.4 3369.9 C -646.0 3282.8, -475.3 3280.9, -651.2 3053.0 C -827.1 2825.1, -795.1 3003.7, -795.1 2722.0 C -795.1 2440.3, -922.6 2549.3, -746.7 2321.4 C -570.8 2093.5, -660.2 2287.4, -375.6 2200.3 C -91.0 2113.3, -278.1 1967.7, 6.5 2054.8 C 291.1 2141.8, 251.6 2159.2, 427.5 2387.1 C 603.4 2615.0, 422.8 2440.3, 422.8 2722.0 Z" fill="#E8FAFF" opacity="0.12" stroke="#E8FAFF" stroke-opacity="0.46" stroke-width="3" filter="url(#soft_crm_04_5497)"/>
  <path d="M 422.8 2722.0 C 422.8 3003.7, 498.4 2831.9, 322.5 3059.8 C 146.7 3287.7, 338.6 3210.2, 54.0 3297.2 C -230.7 3384.3, -76.8 3456.9, -361.4 3369.9 C -646.0 3282.8, -475.3 3280.9, -651.2 3053.0 C -827.1 2825.1, -795.1 3003.7, -795.1 2722.0 C -795.1 2440.3, -922.6 2549.3, -746.7 2321.4 C -570.8 2093.5, -660.2 2287.4, -375.6 2200.3 C -91.0 2113.3, -278.1 1967.7, 6.5 2054.8 C 291.1 2141.8, 251.6 2159.2, 427.5 2387.1 C 603.4 2615.0, 422.8 2440.3, 422.8 2722.0 Z" fill="none" stroke="#FFFFFF" stroke-opacity="0.22" stroke-width="1.2"/>
  <path d="M 484.7 2302.0 C 484.7 2693.1, 595.1 2466.5, 459.4 2782.9 C 323.7 3099.3, 400.9 2903.4, 181.4 3024.2 C -38.2 3145.1, 94.3 3203.6, -125.2 3082.8 C -344.8 2961.9, -293.2 3106.5, -428.9 2790.1 C -564.6 2473.7, -477.9 2693.1, -477.9 2302.0 C -477.9 1911.0, -559.6 2157.3, -423.9 1840.9 C -288.2 1524.6, -345.0 1673.8, -125.4 1552.9 C 94.1 1432.1, -59.5 1421.2, 160.0 1542.1 C 379.6 1662.9, 275.0 1523.8, 410.7 1840.1 C 546.4 2156.5, 484.7 1911.0, 484.7 2302.0 Z" fill="#6DB6CF" opacity="0.12" stroke="#6DB6CF" stroke-opacity="0.46" stroke-width="3" filter="url(#soft_crm_04_5497)"/>
  <path d="M 484.7 2302.0 C 484.7 2693.1, 595.1 2466.5, 459.4 2782.9 C 323.7 3099.3, 400.9 2903.4, 181.4 3024.2 C -38.2 3145.1, 94.3 3203.6, -125.2 3082.8 C -344.8 2961.9, -293.2 3106.5, -428.9 2790.1 C -564.6 2473.7, -477.9 2693.1, -477.9 2302.0 C -477.9 1911.0, -559.6 2157.3, -423.9 1840.9 C -288.2 1524.6, -345.0 1673.8, -125.4 1552.9 C 94.1 1432.1, -59.5 1421.2, 160.0 1542.1 C 379.6 1662.9, 275.0 1523.8, 410.7 1840.1 C 546.4 2156.5, 484.7 1911.0, 484.7 2302.0 Z" fill="none" stroke="#FFFFFF" stroke-opacity="0.22" stroke-width="1.2"/>
  <path d="M 530.0 2267.0 C 530.0 2444.8, 546.2 2343.1, 402.3 2486.9 C 258.4 2630.7, 354.2 2610.6, 121.4 2665.6 C -111.4 2720.5, 1.3 2709.8, -231.5 2654.9 C -464.3 2599.9, -310.5 2620.8, -454.4 2477.0 C -598.3 2333.2, -579.0 2444.8, -579.0 2267.0 C -579.0 2089.2, -598.0 2160.5, -454.1 2016.7 C -310.2 1872.9, -457.9 1993.4, -225.1 1938.5 C 7.8 1883.6, -142.4 1869.5, 90.5 1924.4 C 323.3 1979.3, 192.8 1870.4, 336.7 2014.2 C 480.5 2158.0, 530.0 2089.2, 530.0 2267.0 Z" fill="#6DB6CF" opacity="0.12" stroke="#FFFFFF" stroke-opacity="0.46" stroke-width="3" filter="url(#soft_crm_04_5497)"/>
  <path d="M 530.0 2267.0 C 530.0 2444.8, 546.2 2343.1, 402.3 2486.9 C 258.4 2630.7, 354.2 2610.6, 121.4 2665.6 C -111.4 2720.5, 1.3 2709.8, -231.5 2654.9 C -464.3 2599.9, -310.5 2620.8, -454.4 2477.0 C -598.3 2333.2, -579.0 2444.8, -579.0 2267.0 C -579.0 2089.2, -598.0 2160.5, -454.1 2016.7 C -310.2 1872.9, -457.9 1993.4, -225.1 1938.5 C 7.8 1883.6, -142.4 1869.5, 90.5 1924.4 C 323.3 1979.3, 192.8 1870.4, 336.7 2014.2 C 480.5 2158.0, 530.0 2089.2, 530.0 2267.0 Z" fill="none" stroke="#FFFFFF" stroke-opacity="0.22" stroke-width="1.2"/>
  <path d="M 732.4 2691.0 C 732.4 3071.2, 680.2 2862.9, 549.0 3170.5 C 417.8 3478.1, 556.2 3266.3, 344.0 3383.8 C 131.7 3501.3, 263.2 3590.4, 50.9 3472.9 C -161.4 3355.4, -13.1 3442.6, -144.3 3135.0 C -275.5 2827.4, -240.3 3071.2, -240.3 2691.0 C -240.3 2310.8, -383.6 2503.3, -252.4 2195.7 C -121.2 1888.0, -148.7 1928.0, 63.6 1810.5 C 275.9 1693.0, 123.7 1794.6, 335.9 1912.1 C 548.2 2029.6, 455.2 1886.8, 586.4 2194.4 C 717.6 2502.0, 732.4 2310.8, 732.4 2691.0 Z" fill="#D5F4FF" opacity="0.12" stroke="#FFFFFF" stroke-opacity="0.46" stroke-width="3" filter="url(#soft_crm_04_5497)"/>
  <path d="M 732.4 2691.0 C 732.4 3071.2, 680.2 2862.9, 549.0 3170.5 C 417.8 3478.1, 556.2 3266.3, 344.0 3383.8 C 131.7 3501.3, 263.2 3590.4, 50.9 3472.9 C -161.4 3355.4, -13.1 3442.6, -144.3 3135.0 C -275.5 2827.4, -240.3 3071.2, -240.3 2691.0 C -240.3 2310.8, -383.6 2503.3, -252.4 2195.7 C -121.2 1888.0, -148.7 1928.0, 63.6 1810.5 C 275.9 1693.0, 123.7 1794.6, 335.9 1912.1 C 548.2 2029.6, 455.2 1886.8, 586.4 2194.4 C 717.6 2502.0, 732.4 2310.8, 732.4 2691.0 Z" fill="none" stroke="#FFFFFF" stroke-opacity="0.22" stroke-width="1.2"/>
  <path d="M 1625.3 1603.0 C 1625.3 1797.8, 1621.8 1685.9, 1543.0 1843.6 C 1464.2 2001.2, 1535.1 1940.6, 1407.6 2000.8 C 1280.1 2061.0, 1373.0 2047.8, 1245.4 1987.6 C 1117.9 1927.4, 1148.1 1987.4, 1069.3 1829.7 C 990.5 1672.1, 1014.3 1797.8, 1014.3 1603.0 C 1014.3 1408.2, 988.0 1526.8, 1066.8 1369.2 C 1145.6 1211.6, 1102.6 1251.9, 1230.2 1191.7 C 1357.7 1131.5, 1280.4 1160.8, 1407.9 1221.0 C 1535.4 1281.2, 1479.9 1175.6, 1558.7 1333.3 C 1637.6 1490.9, 1625.3 1408.2, 1625.3 1603.0 Z" fill="#6DB6CF" opacity="0.12" stroke="#6DB6CF" stroke-opacity="0.46" stroke-width="3" filter="url(#soft_crm_04_5497)"/>
  <path d="M 1625.3 1603.0 C 1625.3 1797.8, 1621.8 1685.9, 1543.0 1843.6 C 1464.2 2001.2, 1535.1 1940.6, 1407.6 2000.8 C 1280.1 2061.0, 1373.0 2047.8, 1245.4 1987.6 C 1117.9 1927.4, 1148.1 1987.4, 1069.3 1829.7 C 990.5 1672.1, 1014.3 1797.8, 1014.3 1603.0 C 1014.3 1408.2, 988.0 1526.8, 1066.8 1369.2 C 1145.6 1211.6, 1102.6 1251.9, 1230.2 1191.7 C 1357.7 1131.5, 1280.4 1160.8, 1407.9 1221.0 C 1535.4 1281.2, 1479.9 1175.6, 1558.7 1333.3 C 1637.6 1490.9, 1625.3 1408.2, 1625.3 1603.0 Z" fill="none" stroke="#FFFFFF" stroke-opacity="0.22" stroke-width="1.2"/>
  <path d="M -100.0 1750.1 Q 133.3 1889.1, 366.7 2279.7 Q 600.0 2050.9, 833.3 1783.0 Q 1066.7 1956.2, 1300.0 2265.6" fill="none" stroke="#FFFFFF" stroke-opacity="0.38" stroke-width="4" filter="url(#soft_crm_04_5497)"/>
  <path d="M -100.0 1750.1 Q 133.3 1889.1, 366.7 2279.7 Q 600.0 2050.9, 833.3 1783.0 Q 1066.7 1956.2, 1300.0 2265.6" fill="none" stroke="#6DB6CF" stroke-opacity="0.18" stroke-width="2"/>
  <path d="M -100.0 1646.9 Q 133.3 1635.7, 366.7 1561.9 Q 600.0 1455.9, 833.3 1505.6 Q 1066.7 1636.3, 1300.0 1764.8" fill="none" stroke="#FFFFFF" stroke-opacity="0.38" stroke-width="4" filter="url(#soft_crm_04_5497)"/>
  <path d="M -100.0 1646.9 Q 133.3 1635.7, 366.7 1561.9 Q 600.0 1455.9, 833.3 1505.6 Q 1066.7 1636.3, 1300.0 1764.8" fill="none" stroke="#9EE2C2" stroke-opacity="0.18" stroke-width="2"/>
  <path d="M -100.0 1050.9 Q 133.3 1242.4, 366.7 1257.5 Q 600.0 1137.6, 833.3 888.0 Q 1066.7 1150.2, 1300.0 1327.7" fill="none" stroke="#FFFFFF" stroke-opacity="0.38" stroke-width="4" filter="url(#soft_crm_04_5497)"/>
  <path d="M -100.0 1050.9 Q 133.3 1242.4, 366.7 1257.5 Q 600.0 1137.6, 833.3 888.0 Q 1066.7 1150.2, 1300.0 1327.7" fill="none" stroke="#A7CCFF" stroke-opacity="0.18" stroke-width="2"/>
  <path d="M -100.0 1706.4 Q 133.3 1544.8, 366.7 1647.8 Q 600.0 1827.4, 833.3 1718.3 Q 1066.7 1545.0, 1300.0 1820.5" fill="none" stroke="#FFFFFF" stroke-opacity="0.38" stroke-width="4" filter="url(#soft_crm_04_5497)"/>
  <path d="M -100.0 1706.4 Q 133.3 1544.8, 366.7 1647.8 Q 600.0 1827.4, 833.3 1718.3 Q 1066.7 1545.0, 1300.0 1820.5" fill="none" stroke="#9EE2C2" stroke-opacity="0.18" stroke-width="2"/>
  <circle cx="1152" cy="2654" r="232" fill="url(#orb_crm_04_5497)" opacity="0.36"/>
  <circle cx="1152" cy="2654" r="232" fill="#6DB6CF" opacity="0.08"/>
  <circle cx="1152" cy="2654" r="232" fill="none" stroke="#FFFFFF" stroke-opacity="0.56" stroke-width="3"/>
  <ellipse cx="1087.0" cy="2570.5" rx="41.8" ry="18.6" fill="#FFFFFF" opacity="0.42" transform="rotate(-22 1087.0 2570.5)"/>
  <circle cx="881" cy="1981" r="117" fill="url(#orb_crm_04_5497)" opacity="0.36"/>
  <circle cx="881" cy="1981" r="117" fill="#6DB6CF" opacity="0.08"/>
  <circle cx="881" cy="1981" r="117" fill="none" stroke="#FFFFFF" stroke-opacity="0.56" stroke-width="3"/>
  <ellipse cx="848.2" cy="1938.9" rx="21.1" ry="9.4" fill="#FFFFFF" opacity="0.42" transform="rotate(-22 848.2 1938.9)"/>
  <circle cx="1274" cy="1704" r="162" fill="url(#orb_crm_04_5497)" opacity="0.36"/>
  <circle cx="1274" cy="1704" r="162" fill="#A7CCFF" opacity="0.08"/>
  <circle cx="1274" cy="1704" r="162" fill="none" stroke="#FFFFFF" stroke-opacity="0.56" stroke-width="3"/>
  <ellipse cx="1228.6" cy="1645.7" rx="29.2" ry="13.0" fill="#FFFFFF" opacity="0.42" transform="rotate(-22 1228.6 1645.7)"/>
  <circle cx="423" cy="2704" r="171" fill="url(#orb_crm_04_5497)" opacity="0.21"/>
  <circle cx="423" cy="2704" r="171" fill="#E9FFF1" opacity="0.08"/>
  <circle cx="423" cy="2704" r="171" fill="none" stroke="#FFFFFF" stroke-opacity="0.56" stroke-width="3"/>
  <ellipse cx="375.1" cy="2642.4" rx="30.8" ry="13.7" fill="#FFFFFF" opacity="0.42" transform="rotate(-22 375.1 2642.4)"/>
  <circle cx="430" cy="1732" r="155" fill="url(#orb_crm_04_5497)" opacity="0.28"/>
  <circle cx="430" cy="1732" r="155" fill="#E9FFF1" opacity="0.08"/>
  <circle cx="430" cy="1732" r="155" fill="none" stroke="#FFFFFF" stroke-opacity="0.56" stroke-width="3"/>
  <ellipse cx="386.6" cy="1676.2" rx="27.9" ry="12.4" fill="#FFFFFF" opacity="0.42" transform="rotate(-22 386.6 1676.2)"/>
  <circle cx="32" cy="1638" r="256" fill="url(#orb_crm_04_5497)" opacity="0.17"/>
  <circle cx="32" cy="1638" r="256" fill="#E8FAFF" opacity="0.08"/>
  <circle cx="32" cy="1638" r="256" fill="none" stroke="#FFFFFF" stroke-opacity="0.56" stroke-width="3"/>
  <ellipse cx="-39.7" cy="1545.8" rx="46.1" ry="20.5" fill="#FFFFFF" opacity="0.42" transform="rotate(-22 -39.7 1545.8)"/>
  <circle cx="324" cy="860" r="194" fill="url(#orb_crm_04_5497)" opacity="0.21"/>
  <circle cx="324" cy="860" r="194" fill="#6DB6CF" opacity="0.08"/>
  <circle cx="324" cy="860" r="194" fill="none" stroke="#FFFFFF" stroke-opacity="0.56" stroke-width="3"/>
  <ellipse cx="269.7" cy="790.2" rx="34.9" ry="15.5" fill="#FFFFFF" opacity="0.42" transform="rotate(-22 269.7 790.2)"/>
  <circle cx="1066" cy="1708" r="100" fill="url(#orb_crm_04_5497)" opacity="0.26"/>
  <circle cx="1066" cy="1708" r="100" fill="#F6F7FF" opacity="0.08"/>
  <circle cx="1066" cy="1708" r="100" fill="none" stroke="#FFFFFF" stroke-opacity="0.56" stroke-width="3"/>
  <ellipse cx="1038.0" cy="1672.0" rx="18.0" ry="8.0" fill="#FFFFFF" opacity="0.42" transform="rotate(-22 1038.0 1672.0)"/>
  <circle cx="1043" cy="1158" r="3" fill="#FFFFFF" opacity="0.71"/>
  <circle cx="1076" cy="350" r="2" fill="#FFFFFF" opacity="0.45"/>
  <circle cx="802" cy="318" r="7" fill="#FFFFFF" opacity="0.57"/>
  <circle cx="315" cy="2158" r="7" fill="#FFFFFF" opacity="0.31"/>
  <circle cx="412" cy="2079" r="4" fill="#FFFFFF" opacity="0.63"/>
  <circle cx="966" cy="438" r="7" fill="#FFFFFF" opacity="0.61"/>
  <circle cx="387" cy="2234" r="2" fill="#FFFFFF" opacity="0.38"/>
  <circle cx="463" cy="2315" r="4" fill="#FFFFFF" opacity="0.35"/>
  <circle cx="438" cy="2348" r="2" fill="#FFFFFF" opacity="0.28"/>
  <circle cx="495" cy="2200" r="3" fill="#FFFFFF" opacity="0.36"/>
  <circle cx="875" cy="525" r="4" fill="#FFFFFF" opacity="0.54"/>
  <circle cx="395" cy="493" r="4" fill="#FFFFFF" opacity="0.47"/>
  <circle cx="30" cy="1272" r="7" fill="#FFFFFF" opacity="0.66"/>
  <circle cx="978" cy="96" r="4" fill="#FFFFFF" opacity="0.64"/>
  <circle cx="99" cy="669" r="5" fill="#FFFFFF" opacity="0.31"/>
  <circle cx="1167" cy="523" r="7" fill="#FFFFFF" opacity="0.49"/>
  <circle cx="856" cy="688" r="5" fill="#FFFFFF" opacity="0.35"/>
  <circle cx="377" cy="316" r="3" fill="#FFFFFF" opacity="0.39"/>
  <circle cx="953" cy="468" r="5" fill="#FFFFFF" opacity="0.67"/>
  <circle cx="429" cy="1640" r="3" fill="#FFFFFF" opacity="0.34"/>
  <circle cx="870" cy="2559" r="5" fill="#FFFFFF" opacity="0.68"/>
  <rect width="1200" height="2600" fill="#FFFFFF" opacity="0.08"/>
  <rect width="1200" height="2600" filter="url(#grain_crm_04_5497)" opacity="0.7"/>
</svg>
