<svg xmlns="http://www.w3.org/2000/svg" width="1200" height="2600" viewBox="0 0 1200 2600" preserveAspectRatio="xMidYMid slice">
  <defs>
    <linearGradient id="bg_crm_14_8098" x1="0" y1="0" x2="1" y2="1">
      <stop offset="0%" stop-color="#FBFFFF"/>
      <stop offset="48%" stop-color="#E8FAFF"/>
      <stop offset="100%" stop-color="#E9FFF1"/>
    </linearGradient>
    <radialGradient id="orb_crm_14_8098" cx="35%" cy="30%" r="70%">
      <stop offset="0%" stop-color="#FFFFFF" stop-opacity="0.85"/>
      <stop offset="42%" stop-color="#FFFFFF" stop-opacity="0.20"/>
      <stop offset="100%" stop-color="#FFFFFF" stop-opacity="0.02"/>
    </radialGradient>
    <filter id="blur_crm_14_8098" x="-30%" y="-30%" width="160%" height="160%">
      <feGaussianBlur stdDeviation="72"/>
    </filter>
    <filter id="soft_crm_14_8098" x="-20%" y="-20%" width="140%" height="140%">
      <feGaussianBlur stdDeviation="10"/>
    </filter>
    <filter id="grain_crm_14_8098">
      <feTurbulence type="fractalNoise" baseFrequency="0.85" numOctaves="2" stitchTiles="stitch"/>
      <feColorMatrix type="saturate" values="0"/>
      <feComponentTransfer>
        <feFuncA type="table" tableValues="0 0.035"/>
      </feComponentTransfer>
    </filter>
  </defs>
  <rect width="1200" height="2600" fill="url(#bg_crm_14_8098)"/>
  <path d="M 1486.6 2655.0 C 1486.6 2937.6, 1515.4 2833.9, 1395.1 3050.4 C 1274.7 3266.9, 1283.4 3328.9, 1099.1 3377.9 C 914.7 3427.0, 969.3 3281.5, 807.2 3140.2 C 645.1 2998.9, 705.0 3153.6, 641.0 2888.0 C 576.9 2622.4, 505.5 2691.8, 569.5 2426.3 C 633.5 2160.7, 630.5 2279.9, 792.6 2138.6 C 954.8 1997.3, 921.2 1928.6, 1105.5 1977.6 C 1289.9 2026.7, 1191.2 2091.9, 1311.5 2308.4 C 1431.9 2524.8, 1486.6 2372.4, 1486.6 2655.0 Z" fill="#FBFFFF" opacity="0.27" filter="url(#blur_crm_14_8098)"/>
  <path d="M 1455.2 23.0 C 1455.2 148.6, 1471.0 114.2, 1375.2 210.4 C 1279.5 306.6, 1277.6 287.8, 1130.9 309.6 C 984.2 331.5, 1056.0 309.0, 927.0 246.2 C 798.0 183.5, 839.2 243.3, 788.3 125.3 C 737.3 7.4, 735.0 50.4, 785.9 -67.6 C 836.9 -185.6, 809.7 -174.7, 938.6 -237.5 C 1067.6 -300.3, 982.8 -321.4, 1129.5 -299.6 C 1276.2 -277.8, 1250.9 -240.1, 1346.6 -143.9 C 1442.4 -47.7, 1455.2 -102.5, 1455.2 23.0 Z" fill="#9EE2C2" opacity="0.34" filter="url(#blur_crm_14_8098)"/>
  <path d="M 339.2 663.0 C 339.2 826.8, 484.1 730.3, 324.4 855.7 C 164.7 981.2, 211.6 1032.5, -33.1 1060.9 C -277.7 1089.3, -149.7 1083.4, -364.8 1001.5 C -579.9 919.6, -659.5 936.9, -744.5 783.0 C -829.5 629.1, -648.0 709.1, -563.0 555.2 C -478.0 401.3, -620.3 389.5, -405.1 307.6 C -190.0 225.7, -268.5 212.8, -23.8 241.2 C 220.8 269.7, 173.0 343.0, 332.6 468.5 C 492.3 593.9, 339.2 499.2, 339.2 663.0 Z" fill="#A7CCFF" opacity="0.32" filter="url(#blur_crm_14_8098)"/>
  <path d="M 1463.4 941.0 C 1463.4 1166.0, 1508.6 1132.1, 1375.3 1304.5 C 1241.9 1476.8, 1312.8 1336.7, 1108.5 1375.8 C 904.2 1414.9, 1010.0 1516.8, 830.3 1404.3 C 650.7 1291.8, 729.1 1309.1, 658.1 1097.7 C 587.2 886.2, 578.5 968.8, 649.4 757.3 C 720.4 545.9, 604.6 575.0, 784.3 462.5 C 964.0 350.0, 914.3 373.0, 1118.6 412.1 C 1322.9 451.1, 1301.1 483.4, 1434.5 655.8 C 1567.8 828.1, 1463.4 716.0, 1463.4 941.0 Z" fill="#F6F7FF" opacity="0.35" filter="url(#blur_crm_14_8098)"/>
  <path d="M 207.2 650.0 C 207.2 916.4, 153.2 846.6, 60.6 1050.7 C -31.9 1254.8, 51.7 1191.8, -90.1 1238.1 C -231.9 1284.4, -154.8 1306.2, -279.5 1173.0 C -404.3 1039.8, -414.6 1105.6, -463.9 855.3 C -513.1 604.9, -470.6 722.2, -421.3 471.9 C -372.1 221.5, -457.3 232.8, -332.6 99.6 C -207.9 -33.6, -226.5 113.9, -84.7 160.1 C 57.1 206.4, -30.8 89.4, 61.7 293.4 C 154.3 497.5, 207.2 383.6, 207.2 650.0 Z" fill="#D5F4FF" opacity="0.34" filter="url(#blur_crm_14_8098)"/>
  <path d="M 1491.6 -123.0 C 1491.6 125.4, 1506.7 24.2, 1375.7 214.5 C 1244.6 404.8, 1331.5 318.3, 1130.8 361.5 C 930.0 404.6, 1015.2 401.0, 838.7 276.8 C 662.1 152.6, 677.5 296.4, 607.8 63.0 C 538.0 -170.5, 590.7 -77.6, 660.4 -311.0 C 730.1 -544.4, 630.2 -438.1, 806.7 -562.3 C 983.3 -686.5, 946.7 -666.1, 1147.4 -623.0 C 1348.2 -579.9, 1259.5 -720.7, 1390.5 -530.4 C 1521.6 -340.1, 1491.6 -371.4, 1491.6 -123.0 Z" fill="#F6F7FF" opacity="0.38" filter="url(#blur_crm_14_8098)"/>
  <path d="M 1075.8 -153.0 C 1075.8 10.3, 1094.7 -34.3, 972.6 90.8 C 850.6 215.9, 957.3 208.3, 770.3 236.7 C 583.3 265.1, 615.1 260.3, 450.6 178.6 C 286.2 96.9, 351.4 121.6, 286.4 -31.9 C 221.5 -185.4, 230.2 -124.5, 295.1 -278.0 C 360.1 -431.5, 351.6 -349.9, 516.1 -431.6 C 680.5 -513.3, 592.7 -475.3, 779.7 -446.9 C 966.7 -418.5, 869.5 -477.2, 991.5 -352.0 C 1113.6 -226.9, 1075.8 -316.4, 1075.8 -153.0 Z" fill="#D5F4FF" opacity="0.20" filter="url(#blur_crm_14_8098)"/>
  <path d="M 1175.9 1891.0 C 1175.9 2041.3, 1167.2 1971.7, 1052.3 2086.9 C 937.5 2202.0, 1008.0 2168.7, 832.0 2194.8 C 656.1 2220.9, 725.4 2209.3, 570.7 2134.2 C 416.0 2059.0, 456.5 2130.1, 395.4 1988.9 C 334.3 1847.7, 269.0 1903.0, 330.1 1761.8 C 391.2 1620.6, 374.1 1687.5, 528.8 1612.4 C 683.6 1537.2, 661.8 1571.0, 837.7 1597.1 C 1013.6 1623.2, 991.1 1589.6, 1105.9 1704.7 C 1220.7 1819.8, 1175.9 1740.7, 1175.9 1891.0 Z" fill="#FBFFFF" opacity="0.29" filter="url(#blur_crm_14_8098)"/>
  <path d="M 156.8 1623.0 C 156.8 1745.8, 201.1 1727.0, 131.7 1821.2 C 62.3 1915.3, 106.6 1887.8, 0.3 1909.1 C -106.1 1930.4, -80.9 1933.3, -174.5 1871.8 C -268.0 1810.4, -200.6 1819.5, -237.5 1704.1 C -274.5 1588.6, -308.0 1657.1, -271.1 1541.6 C -234.2 1426.2, -262.5 1472.1, -169.0 1410.7 C -75.5 1349.3, -105.5 1332.8, 0.8 1354.1 C 107.2 1375.5, 73.4 1367.7, 142.9 1461.9 C 212.3 1556.0, 156.8 1500.2, 156.8 1623.0 Z" fill="#6DB6CF" opacity="0.26" filter="url(#blur_crm_14_8098)"/>
  <path d="M 273.0 -165.0 C 273.0 144.2, 391.9 -7.1, 255.6 229.7 C 119.4 466.6, 144.8 559.3, -63.9 613.0 C -272.6 666.7, -179.0 615.8, -362.5 461.3 C -546.1 306.7, -491.3 376.0, -563.8 85.5 C -636.3 -205.0, -673.5 -95.6, -601.0 -386.1 C -528.5 -676.6, -563.3 -500.0, -379.7 -654.5 C -196.2 -809.1, -248.4 -812.7, -39.6 -759.0 C 169.1 -705.3, 119.4 -832.1, 255.6 -595.2 C 391.9 -358.4, 273.0 -474.2, 273.0 -165.0 Z" fill="#6DB6CF" opacity="0.33" filter="url(#blur_crm_14_8098)"/>
  <path d="M 838.5 2089.0 C 838.5 2269.0, 960.9 2191.7, 838.2 2337.4 C 715.5 2483.0, 758.5 2376.0, 559.9 2431.6 C 361.3 2487.3, 467.2 2552.5, 268.7 2496.9 C 70.1 2441.2, 143.7 2459.8, 20.9 2314.1 C -101.8 2168.5, -64.0 2269.0, -64.0 2089.0 C -64.0 1909.0, -93.6 2020.0, 29.1 1874.3 C 151.9 1728.7, 81.3 1809.7, 279.9 1754.1 C 478.5 1698.5, 380.2 1618.4, 578.7 1674.0 C 777.3 1729.6, 629.6 1723.1, 752.3 1868.7 C 875.1 2014.4, 838.5 1909.0, 838.5 2089.0 Z" fill="#E9FFF1" opacity="0.12" stroke="#E9FFF1" stroke-opacity="0.46" stroke-width="3" filter="url(#soft_crm_14_8098)"/>
  <path d="M 838.5 2089.0 C 838.5 2269.0, 960.9 2191.7, 838.2 2337.4 C 715.5 2483.0, 758.5 2376.0, 559.9 2431.6 C 361.3 2487.3, 467.2 2552.5, 268.7 2496.9 C 70.1 2441.2, 143.7 2459.8, 20.9 2314.1 C -101.8 2168.5, -64.0 2269.0, -64.0 2089.0 C -64.0 1909.0, -93.6 2020.0, 29.1 1874.3 C 151.9 1728.7, 81.3 1809.7, 279.9 1754.1 C 478.5 1698.5, 380.2 1618.4, 578.7 1674.0 C 777.3 1729.6, 629.6 1723.1, 752.3 1868.7 C 875.1 2014.4, 838.5 1909.0, 838.5 2089.0 Z" fill="none" stroke="#FFFFFF" stroke-opacity="0.22" stroke-width="1.2"/>
  <path d="M 1981.1 811.0 C 1981.1 1205.7, 2030.8 940.2, 1849.1 1259.5 C 1667.3 1578.7, 1784.5 1629.3, 1490.5 1751.2 C 1196.5 1873.2, 1369.6 1774.9, 1075.6 1652.9 C 781.6 1531.0, 861.8 1652.2, 680.1 1332.9 C 498.3 1013.6, 689.1 1205.7, 689.1 811.0 C 689.1 416.4, 599.9 679.9, 781.6 360.6 C 963.3 41.3, 776.4 141.7, 1070.5 19.8 C 1364.5 -102.2, 1188.4 -159.6, 1482.5 -37.6 C 1776.5 84.3, 1625.4 -68.0, 1807.1 251.2 C 1988.8 570.5, 1981.1 416.3, 1981.1 811.0 Z" fill="#D5F4FF" opacity="0.12" stroke="#D5F4FF" stroke-opacity="0.46" stroke-width="3" filter="url(#soft_crm_14_8098)"/>
  <path d="M 1981.1 811.0 C 1981.1 1205.7, 2030.8 940.2, 1849.1 1259.5 C 1667.3 1578.7, 1784.5 1629.3, 1490.5 1751.2 C 1196.5 1873.2, 1369.6 1774.9, 1075.6 1652.9 C 781.6 1531.0, 861.8 1652.2, 680.1 1332.9 C 498.3 1013.6, 689.1 1205.7, 689.1 811.0 C 689.1 416.4, 599.9 679.9, 781.6 360.6 C 963.3 41.3, 776.4 141.7, 1070.5 19.8 C 1364.5 -102.2, 1188.4 -159.6, 1482.5 -37.6 C 1776.5 84.3, 1625.4 -68.0, 1807.1 251.2 C 1988.8 570.5, 1981.1 416.3, 1981.1 811.0 Z" fill="none" stroke="#FFFFFF" stroke-opacity="0.22" stroke-width="1.2"/>
  <path d="M 1750.7 2453.0 C 1750.7 2669.0, 1855.6 2583.3, 1713.2 2758.1 C 1570.9 2932.8, 1674.8 2798.4, 1444.5 2865.2 C 1214.3 2931.9, 1341.6 2928.6, 1111.3 2861.8 C 881.1 2795.1, 952.8 2891.7, 810.5 2717.0 C 668.2 2542.2, 747.6 2669.0, 747.6 2453.0 C 747.6 2237.0, 642.3 2308.2, 784.6 2133.4 C 926.9 1958.7, 894.3 2013.6, 1124.6 1946.8 C 1354.8 1880.1, 1196.6 1893.6, 1426.8 1960.3 C 1657.1 2027.1, 1507.0 2006.4, 1649.3 2181.2 C 1791.6 2355.9, 1750.7 2237.0, 1750.7 2453.0 Z" fill="#6DB6CF" opacity="0.12" stroke="#6DB6CF" stroke-opacity="0.46" stroke-width="3" filter="url(#soft_crm_14_8098)"/>
  <path d="M 1750.7 2453.0 C 1750.7 2669.0, 1855.6 2583.3, 1713.2 2758.1 C 1570.9 2932.8, 1674.8 2798.4, 1444.5 2865.2 C 1214.3 2931.9, 1341.6 2928.6, 1111.3 2861.8 C 881.1 2795.1, 952.8 2891.7, 810.5 2717.0 C 668.2 2542.2, 747.6 2669.0, 747.6 2453.0 C 747.6 2237.0, 642.3 2308.2, 784.6 2133.4 C 926.9 1958.7, 894.3 2013.6, 1124.6 1946.8 C 1354.8 1880.1, 1196.6 1893.6, 1426.8 1960.3 C 1657.1 2027.1, 1507.0 2006.4, 1649.3 2181.2 C 1791.6 2355.9, 1750.7 2237.0, 1750.7 2453.0 Z" fill="none" stroke="#FFFFFF" stroke-opacity="0.22" stroke-width="1.2"/>
  <path d="M 920.5 1509.0 C 920.5 1721.8, 951.4 1625.3, 804.1 1797.5 C 656.8 1969.7, 787.7 1947.4, 549.4 2013.2 C 311.0 2078.9, 436.1 2010.8, 197.7 1945.0 C -40.7 1879.2, 76.9 1932.9, -70.5 1760.7 C -217.8 1588.5, -182.0 1721.8, -182.0 1509.0 C -182.0 1296.2, -218.5 1400.3, -71.2 1228.1 C 76.2 1055.9, -45.7 1128.5, 192.7 1062.7 C 431.1 996.9, 272.8 949.1, 511.2 1014.8 C 749.6 1080.6, 644.7 1025.3, 792.0 1197.5 C 939.4 1369.7, 920.5 1296.2, 920.5 1509.0 Z" fill="#D5F4FF" opacity="0.12" stroke="#FFFFFF" stroke-opacity="0.46" stroke-width="3" filter="url(#soft_crm_14_8098)"/>
  <path d="M 920.5 1509.0 C 920.5 1721.8, 951.4 1625.3, 804.1 1797.5 C 656.8 1969.7, 787.7 1947.4, 549.4 2013.2 C 311.0 2078.9, 436.1 2010.8, 197.7 1945.0 C -40.7 1879.2, 76.9 1932.9, -70.5 1760.7 C -217.8 1588.5, -182.0 1721.8, -182.0 1509.0 C -182.0 1296.2, -218.5 1400.3, -71.2 1228.1 C 76.2 1055.9, -45.7 1128.5, 192.7 1062.7 C 431.1 996.9, 272.8 949.1, 511.2 1014.8 C 749.6 1080.6, 644.7 1025.3, 792.0 1197.5 C 939.4 1369.7, 920.5 1296.2, 920.5 1509.0 Z" fill="none" stroke="#FFFFFF" stroke-opacity="0.22" stroke-width="1.2"/>
  <path d="M 1687.8 2350.0 C 1687.8 2574.1, 1758.9 2430.8, 1678.8 2612.1 C 1598.7 2793.4, 1642.8 2795.7, 1513.1 2864.9 C 1383.5 2934.2, 1452.5 2840.3, 1322.8 2771.1 C 1193.1 2701.8, 1222.5 2844.8, 1142.3 2663.5 C 1062.2 2482.2, 1085.2 2574.1, 1085.2 2350.0 C 1085.2 2125.9, 1113.3 2223.4, 1193.4 2042.1 C 1273.6 1860.8, 1184.7 1916.7, 1314.4 1847.5 C 1444.0 1778.2, 1380.3 1849.7, 1509.9 1918.9 C 1639.6 1988.2, 1572.2 1850.1, 1652.4 2031.4 C 1732.5 2212.7, 1687.8 2125.9, 1687.8 2350.0 Z" fill="#FBFFFF" opacity="0.12" stroke="#FBFFFF" stroke-opacity="0.46" stroke-width="3" filter="url(#soft_crm_14_8098)"/>
  <path d="M 1687.8 2350.0 C 1687.8 2574.1, 1758.9 2430.8, 1678.8 2612.1 C 1598.7 2793.4, 1642.8 2795.7, 1513.1 2864.9 C 1383.5 2934.2, 1452.5 2840.3, 1322.8 2771.1 C 1193.1 2701.8, 1222.5 2844.8, 1142.3 2663.5 C 1062.2 2482.2, 1085.2 2574.1, 1085.2 2350.0 C 1085.2 2125.9, 1113.3 2223.4, 1193.4 2042.1 C 1273.6 1860.8, 1184.7 1916.7, 1314.4 1847.5 C 1444.0 1778.2, 1380.3 1849.7, 1509.9 1918.9 C 1639.6 1988.2, 1572.2 1850.1, 1652.4 2031.4 C 1732.5 2212.7, 1687.8 2125.9, 1687.8 2350.0 Z" fill="none" stroke="#FFFFFF" stroke-opacity="0.22" stroke-width="1.2"/>
  <path d="M 745.8 346.0 C 745.8 703.8, 853.6 580.5, 739.6 869.9 C 625.6 1159.3, 669.6 911.4, 485.1 1021.9 C 300.7 1132.5, 400.9 1205.3, 216.4 1094.7 C 32.0 984.2, 157.6 1062.4, 43.6 772.9 C -70.4 483.5, -113.5 703.8, -113.5 346.0 C -113.5 -11.7, -111.8 232.1, 2.3 -57.3 C 116.3 -346.7, 57.3 -358.7, 241.7 -469.2 C 426.2 -579.8, 295.9 -491.0, 480.3 -380.4 C 664.8 -269.9, 621.4 -424.9, 735.4 -135.5 C 849.4 154.0, 745.8 -11.8, 745.8 346.0 Z" fill="#D5F4FF" opacity="0.12" stroke="#D5F4FF" stroke-opacity="0.46" stroke-width="3" filter="url(#soft_crm_14_8098)"/>
  <path d="M 745.8 346.0 C 745.8 703.8, 853.6 580.5, 739.6 869.9 C 625.6 1159.3, 669.6 911.4, 485.1 1021.9 C 300.7 1132.5, 400.9 1205.3, 216.4 1094.7 C 32.0 984.2, 157.6 1062.4, 43.6 772.9 C -70.4 483.5, -113.5 703.8, -113.5 346.0 C -113.5 -11.7, -111.8 232.1, 2.3 -57.3 C 116.3 -346.7, 57.3 -358.7, 241.7 -469.2 C 426.2 -579.8, 295.9 -491.0, 480.3 -380.4 C 664.8 -269.9, 621.4 -424.9, 735.4 -135.5 C 849.4 154.0, 745.8 -11.8, 745.8 346.0 Z" fill="none" stroke="#FFFFFF" stroke-opacity="0.22" stroke-width="1.2"/>
  <path d="M -100.0 1672.2 Q 133.3 1712.8, 366.7 1458.3 Q 600.0 1433.8, 833.3 1472.6 Q 1066.7 1718.2, 1300.0 1792.0" fill="none" stroke="#FFFFFF" stroke-opacity="0.38" stroke-width="4" filter="url(#soft_crm_14_8098)"/>
  <path d="M -100.0 1672.2 Q 133.3 1712.8, 366.7 1458.3 Q 600.0 1433.8, 833.3 1472.6 Q 1066.7 1718.2, 1300.0 1792.0" fill="none" stroke="#A7CCFF" stroke-opacity="0.18" stroke-width="2"/>
  <path d="M -100.0 1705.0 Q 133.3 1598.3, 366.7 1792.4 Q 600.0 2079.3, 833.3 2342.5 Q 1066.7 2129.0, 1300.0 1828.9" fill="none" stroke="#FFFFFF" stroke-opacity="0.38" stroke-width="4" filter="url(#soft_crm_14_8098)"/>
  <path d="M -100.0 1705.0 Q 133.3 1598.3, 366.7 1792.4 Q 600.0 2079.3, 833.3 2342.5 Q 1066.7 2129.0, 1300.0 1828.9" fill="none" stroke="#9EE2C2" stroke-opacity="0.18" stroke-width="2"/>
  <path d="M -100.0 1643.6 Q 133.3 1935.5, 366.7 2036.2 Q 600.0 1879.6, 833.3 1620.2 Q 1066.7 1497.3, 1300.0 1763.1" fill="none" stroke="#FFFFFF" stroke-opacity="0.38" stroke-width="4" filter="url(#soft_crm_14_8098)"/>
  <path d="M -100.0 1643.6 Q 133.3 1935.5, 366.7 2036.2 Q 600.0 1879.6, 833.3 1620.2 Q 1066.7 1497.3, 1300.0 1763.1" fill="none" stroke="#6DB6CF" stroke-opacity="0.18" stroke-width="2"/>
  <circle cx="653" cy="608" r="113" fill="url(#orb_crm_14_8098)" opacity="0.36"/>
  <circle cx="653" cy="608" r="113" fill="#6DB6CF" opacity="0.08"/>
  <circle cx="653" cy="608" r="113" fill="none" stroke="#FFFFFF" stroke-opacity="0.56" stroke-width="3"/>
  <ellipse cx="621.4" cy="567.3" rx="20.3" ry="9.0" fill="#FFFFFF" opacity="0.42" transform="rotate(-22 621.4 567.3)"/>
  <circle cx="96" cy="2621" r="265" fill="url(#orb_crm_14_8098)" opacity="0.36"/>
  <circle cx="96" cy="2621" r="265" fill="#A7CCFF" opacity="0.08"/>
  <circle cx="96" cy="2621" r="265" fill="none" stroke="#FFFFFF" stroke-opacity="0.56" stroke-width="3"/>
  <ellipse cx="21.8" cy="2525.6" rx="47.7" ry="21.2" fill="#FFFFFF" opacity="0.42" transform="rotate(-22 21.8 2525.6)"/>
  <circle cx="273" cy="1314" r="80" fill="url(#orb_crm_14_8098)" opacity="0.36"/>
  <circle cx="273" cy="1314" r="80" fill="#9EE2C2" opacity="0.08"/>
  <circle cx="273" cy="1314" r="80" fill="none" stroke="#FFFFFF" stroke-opacity="0.56" stroke-width="3"/>
  <ellipse cx="250.6" cy="1285.2" rx="14.4" ry="6.4" fill="#FFFFFF" opacity="0.42" transform="rotate(-22 250.6 1285.2)"/>
  <circle cx="781" cy="1107" r="271" fill="url(#orb_crm_14_8098)" opacity="0.25"/>
  <circle cx="781" cy="1107" r="271" fill="#A7CCFF" opacity="0.08"/>
  <circle cx="781" cy="1107" r="271" fill="none" stroke="#FFFFFF" stroke-opacity="0.56" stroke-width="3"/>
  <ellipse cx="705.1" cy="1009.4" rx="48.8" ry="21.7" fill="#FFFFFF" opacity="0.42" transform="rotate(-22 705.1 1009.4)"/>
  <circle cx="746" cy="1895" r="131" fill="url(#orb_crm_14_8098)" opacity="0.24"/>
  <circle cx="746" cy="1895" r="131" fill="#D5F4FF" opacity="0.08"/>
  <circle cx="746" cy="1895" r="131" fill="none" stroke="#FFFFFF" stroke-opacity="0.56" stroke-width="3"/>
  <ellipse cx="709.3" cy="1847.8" rx="23.6" ry="10.5" fill="#FFFFFF" opacity="0.42" transform="rotate(-22 709.3 1847.8)"/>
  <circle cx="458" cy="1306" r="201" fill="url(#orb_crm_14_8098)" opacity="0.23"/>
  <circle cx="458" cy="1306" r="201" fill="#E8FAFF" opacity="0.08"/>
  <circle cx="458" cy="1306" r="201" fill="none" stroke="#FFFFFF" stroke-opacity="0.56" stroke-width="3"/>
  <ellipse cx="401.7" cy="1233.6" rx="36.2" ry="16.1" fill="#FFFFFF" opacity="0.42" transform="rotate(-22 401.7 1233.6)"/>
  <circle cx="360" cy="1035" r="203" fill="url(#orb_crm_14_8098)" opacity="0.19"/>
  <circle cx="360" cy="1035" r="203" fill="#FBFFFF" opacity="0.08"/>
  <circle cx="360" cy="1035" r="203" fill="none" stroke="#FFFFFF" stroke-opacity="0.56" stroke-width="3"/>
  <ellipse cx="303.2" cy="961.9" rx="36.5" ry="16.2" fill="#FFFFFF" opacity="0.42" transform="rotate(-22 303.2 961.9)"/>
  <circle cx="278" cy="1011" r="223" fill="url(#orb_crm_14_8098)" opacity="0.22"/>
  <circle cx="278" cy="1011" r="223" fill="#A7CCFF" opacity="0.08"/>
  <circle cx="278" cy="1011" r="223" fill="none" stroke="#FFFFFF" stroke-opacity="0.56" stroke-width="3"/>
  <ellipse cx="215.6" cy="930.7" rx="40.1" ry="17.8" fill="#FFFFFF" opacity="0.42" transform="rotate(-22 215.6 930.7)"/>
  <circle cx="896" cy="1148" r="260" fill="url(#orb_crm_14_8098)" opacity="0.16"/>
  <circle cx="896" cy="1148" r="260" fill="#A7CCFF" opacity="0.08"/>
  <circle cx="896" cy="1148" r="260" fill="none" stroke="#FFFFFF" stroke-opacity="0.56" stroke-width="3"/>
  <ellipse cx="823.2" cy="1054.4" rx="46.8" ry="20.8" fill="#FFFFFF" opacity="0.42" transform="rotate(-22 823.2 1054.4)"/>
  <circle cx="586" cy="1604" r="5" fill="#FFFFFF" opacity="0.42"/>
  <circle cx="321" cy="900" r="2" fill="#FFFFFF" opacity="0.59"/>
  <circle cx="834" cy="1326" r="5" fill="#FFFFFF" opacity="0.38"/>
  <circle cx="345" cy="2017" r="7" fill="#FFFFFF" opacity="0.54"/>
  <circle cx="937" cy="1681" r="7" fill="#FFFFFF" opacity="0.37"/>
  <circle cx="742" cy="1526" r="4" fill="#FFFFFF" opacity="0.67"/>
  <circle cx="916" cy="1456" r="3" fill="#FFFFFF" opacity="0.43"/>
  <circle cx="146" cy="1026" r="3" fill="#FFFFFF" opacity="0.57"/>
  <circle cx="36" cy="2066" r="7" fill="#FFFFFF" opacity="0.60"/>
  <circle cx="700" cy="566" r="7" fill="#FFFFFF" opacity="0.41"/>
  <circle cx="349" cy="1266" r="5" fill="#FFFFFF" opacity="0.43"/>
  <circle cx="755" cy="525" r="5" fill="#FFFFFF" opacity="0.31"/>
  <circle cx="638" cy="998" r="2" fill="#FFFFFF" opacity="0.64"/>
  <circle cx="383" cy="624" r="5" fill="#FFFFFF" opacity="0.62"/>
  <circle cx="994" cy="1409" r="2" fill="#FFFFFF" opacity="0.55"/>
  <circle cx="117" cy="2185" r="3" fill="#FFFFFF" opacity="0.53"/>
  <circle cx="523" cy="1621" r="4" fill="#FFFFFF" opacity="0.29"/>
  <circle cx="1186" cy="2595" r="4" fill="#FFFFFF" opacity="0.43"/>
  <circle cx="264" cy="2524" r="4" fill="#FFFFFF" opacity="0.68"/>
  <circle cx="451" cy="1745" r="7" fill="#FFFFFF" opacity="0.42"/>
  <rect width="1200" height="2600" fill="#FFFFFF" opacity="0.08"/>
  <rect width="1200" height="2600" filter="url(#grain_crm_14_8098)" opacity="0.7"/>
</svg>
