<svg xmlns="http://www.w3.org/2000/svg" width="1200" height="2600" viewBox="0 0 1200 2600" preserveAspectRatio="xMidYMid slice">
  <defs>
    <linearGradient id="bg_crm_15_6505" x1="0" y1="0" x2="1" y2="1">
      <stop offset="0%" stop-color="#F6F7FF"/>
      <stop offset="48%" stop-color="#FBFFFF"/>
      <stop offset="100%" stop-color="#E8FAFF"/>
    </linearGradient>
    <radialGradient id="orb_crm_15_6505" cx="35%" cy="30%" r="70%">
      <stop offset="0%" stop-color="#FFFFFF" stop-opacity="0.85"/>
      <stop offset="42%" stop-color="#FFFFFF" stop-opacity="0.20"/>
      <stop offset="100%" stop-color="#FFFFFF" stop-opacity="0.02"/>
    </radialGradient>
    <filter id="blur_crm_15_6505" x="-30%" y="-30%" width="160%" height="160%">
      <feGaussianBlur stdDeviation="72"/>
    </filter>
    <filter id="soft_crm_15_6505" x="-20%" y="-20%" width="140%" height="140%">
      <feGaussianBlur stdDeviation="10"/>
    </filter>
    <filter id="grain_crm_15_6505">
      <feTurbulence type="fractalNoise" baseFrequency="0.85" numOctaves="2" stitchTiles="stitch"/>
      <feColorMatrix type="saturate" values="0"/>
      <feComponentTransfer>
        <feFuncA type="table" tableValues="0 0.035"/>
      </feComponentTransfer>
    </filter>
  </defs>
  <rect width="1200" height="2600" fill="url(#bg_crm_15_6505)"/>
  <path d="M 971.4 454.0 C 971.4 625.5, 903.7 611.1, 803.9 742.4 C 704.2 873.7, 796.0 735.2, 643.1 765.0 C 490.2 794.8, 552.9 832.8, 418.4 747.0 C 284.0 661.3, 314.5 726.9, 261.4 565.8 C 208.3 404.7, 206.6 482.5, 259.7 321.4 C 312.8 160.3, 252.2 216.3, 386.6 130.6 C 521.1 44.8, 493.3 13.8, 646.2 43.6 C 799.1 73.3, 753.7 86.7, 853.5 218.0 C 953.3 349.4, 971.4 282.5, 971.4 454.0 Z" fill="#E9FFF1" opacity="0.38" filter="url(#blur_crm_15_6505)"/>
  <path d="M 1055.3 806.0 C 1055.3 925.2, 1079.9 859.7, 932.7 951.0 C 785.4 1042.4, 932.8 1051.8, 707.3 1072.5 C 481.7 1093.2, 509.4 1106.9, 311.1 1047.3 C 112.7 987.6, 220.3 1016.6, 142.0 904.6 C 63.6 792.5, -18.0 837.1, 60.3 725.1 C 138.7 613.0, 179.5 642.5, 377.8 582.8 C 576.2 523.2, 460.3 542.1, 685.9 562.8 C 911.5 583.5, 809.1 529.6, 956.3 620.9 C 1103.6 712.3, 1055.3 686.8, 1055.3 806.0 Z" fill="#E9FFF1" opacity="0.25" filter="url(#blur_crm_15_6505)"/>
  <path d="M 1018.8 1873.0 C 1018.8 2063.8, 1038.1 1959.4, 884.0 2105.5 C 729.8 2251.7, 754.6 2214.8, 518.4 2247.9 C 282.2 2281.1, 388.1 2287.1, 180.4 2191.7 C -27.3 2096.3, 35.5 2172.9, -46.5 1993.6 C -128.5 1814.3, -227.8 1930.5, -145.8 1751.2 C -63.8 1571.9, -91.1 1607.9, 116.6 1512.5 C 324.3 1417.1, 275.4 1402.5, 511.6 1435.6 C 747.8 1468.7, 732.0 1471.0, 886.2 1617.2 C 1040.4 1763.4, 1018.8 1682.2, 1018.8 1873.0 Z" fill="#9EE2C2" opacity="0.35" filter="url(#blur_crm_15_6505)"/>
  <path d="M 545.2 1725.0 C 545.2 1924.3, 559.0 1809.4, 419.5 1962.1 C 280.1 2114.8, 396.3 2189.9, 182.6 2224.6 C -31.0 2259.2, 65.2 2218.8, -122.6 2119.1 C -310.5 2019.4, -267.3 2042.1, -341.5 1854.8 C -415.7 1667.4, -391.0 1735.4, -316.8 1548.1 C -242.6 1360.8, -291.1 1433.3, -103.3 1333.6 C 84.6 1233.9, -12.0 1248.4, 201.6 1283.0 C 415.3 1317.6, 323.1 1320.9, 462.5 1473.6 C 601.9 1626.3, 545.2 1525.7, 545.2 1725.0 Z" fill="#FBFFFF" opacity="0.20" filter="url(#blur_crm_15_6505)"/>
  <path d="M 1270.6 973.0 C 1270.6 1135.9, 1280.8 1067.6, 1192.6 1192.4 C 1104.4 1317.2, 1142.7 1326.1, 1007.6 1354.4 C 872.4 1382.7, 923.6 1338.9, 804.7 1257.5 C 685.9 1176.0, 672.0 1263.1, 625.1 1110.1 C 578.1 957.0, 651.1 1006.3, 698.1 853.2 C 745.0 700.2, 662.3 757.5, 781.2 676.0 C 900.0 594.6, 866.9 568.2, 1002.1 596.5 C 1137.2 624.8, 1091.0 596.6, 1179.3 721.4 C 1267.5 846.2, 1270.6 810.1, 1270.6 973.0 Z" fill="#FBFFFF" opacity="0.22" filter="url(#blur_crm_15_6505)"/>
  <path d="M 1418.4 150.0 C 1418.4 366.9, 1398.7 250.0, 1331.9 416.1 C 1265.1 582.3, 1313.4 622.8, 1211.1 660.5 C 1108.7 698.2, 1143.2 717.3, 1053.1 608.8 C 963.1 500.4, 946.8 533.7, 911.3 329.8 C 875.7 126.0, 940.1 213.1, 975.6 9.3 C 1011.2 -194.6, 949.3 -157.2, 1039.3 -265.6 C 1129.3 -374.1, 1100.8 -337.3, 1203.2 -299.6 C 1305.6 -261.9, 1252.1 -334.2, 1318.9 -168.0 C 1385.8 -1.9, 1418.4 -66.9, 1418.4 150.0 Z" fill="#A7CCFF" opacity="0.24" filter="url(#blur_crm_15_6505)"/>
  <path d="M 1571.8 712.0 C 1571.8 915.9, 1600.0 810.6, 1516.2 966.8 C 1432.3 1122.9, 1472.8 1046.4, 1344.3 1081.8 C 1215.7 1117.2, 1255.6 1173.1, 1142.5 1071.2 C 1029.5 969.3, 1071.5 1042.6, 1026.9 851.1 C 982.3 659.5, 999.3 758.1, 1043.9 566.5 C 1088.5 374.9, 1026.9 407.9, 1139.9 306.0 C 1252.9 204.0, 1225.9 254.0, 1354.4 289.4 C 1483.0 324.8, 1453.6 219.0, 1537.5 375.1 C 1621.4 531.3, 1571.8 508.1, 1571.8 712.0 Z" fill="#D5F4FF" opacity="0.18" filter="url(#blur_crm_15_6505)"/>
  <path d="M 1206.0 1303.0 C 1206.0 1580.2, 1257.4 1476.3, 1142.8 1688.6 C 1028.3 1901.0, 1067.8 1855.3, 892.3 1903.4 C 716.8 1951.6, 746.1 1950.4, 591.8 1811.8 C 437.5 1673.2, 555.0 1797.6, 494.1 1537.1 C 433.1 1276.6, 425.2 1334.0, 486.1 1073.5 C 547.1 813.0, 451.0 952.8, 605.3 814.2 C 759.6 675.6, 711.7 687.1, 887.2 735.3 C 1062.6 783.4, 986.8 668.0, 1101.4 880.3 C 1215.9 1092.7, 1206.0 1025.8, 1206.0 1303.0 Z" fill="#FBFFFF" opacity="0.36" filter="url(#blur_crm_15_6505)"/>
  <path d="M 1664.1 2404.0 C 1664.1 2696.9, 1667.3 2621.9, 1542.4 2846.3 C 1417.4 3070.7, 1442.9 2993.8, 1251.4 3044.7 C 1060.0 3095.6, 1095.1 3084.6, 926.8 2938.1 C 758.4 2791.7, 865.0 2903.7, 798.5 2628.4 C 732.0 2353.1, 659.8 2420.3, 726.3 2145.0 C 792.7 1869.8, 799.8 1928.3, 968.1 1781.8 C 1136.5 1635.3, 1050.3 1727.6, 1241.7 1778.5 C 1433.2 1829.4, 1383.3 1766.1, 1508.3 1990.5 C 1633.2 2214.9, 1664.1 2111.1, 1664.1 2404.0 Z" fill="#6DB6CF" opacity="0.22" filter="url(#blur_crm_15_6505)"/>
  <path d="M 1443.2 266.0 C 1443.2 383.4, 1511.0 341.7, 1382.6 431.7 C 1254.1 521.7, 1306.0 530.8, 1109.3 551.2 C 912.5 571.6, 952.8 574.0, 779.7 515.3 C 606.7 456.6, 667.6 474.4, 599.2 364.1 C 530.9 253.7, 495.2 278.2, 563.6 167.8 C 631.9 57.5, 653.9 90.2, 826.9 31.5 C 999.9 -27.3, 915.3 27.9, 1112.1 48.3 C 1308.9 68.7, 1308.2 16.2, 1436.7 106.2 C 1565.1 196.1, 1443.2 148.6, 1443.2 266.0 Z" fill="#F6F7FF" opacity="0.37" filter="url(#blur_crm_15_6505)"/>
  <path d="M 1050.0 2780.0 C 1050.0 3081.1, 1058.1 2981.8, 953.7 3212.4 C 849.3 3443.0, 878.9 3495.5, 718.9 3547.8 C 558.9 3600.1, 623.0 3467.2, 482.3 3316.7 C 341.6 3166.1, 371.7 3286.8, 316.1 3003.9 C 260.6 2721.0, 306.1 2801.2, 361.7 2518.3 C 417.3 2235.4, 344.0 2415.9, 484.7 2265.4 C 625.4 2114.8, 559.8 2040.4, 719.8 2092.7 C 879.8 2145.0, 824.5 2138.7, 928.9 2369.3 C 1033.3 2600.0, 1050.0 2478.9, 1050.0 2780.0 Z" fill="#E9FFF1" opacity="0.36" filter="url(#blur_crm_15_6505)"/>
  <path d="M 1407.6 -264.0 C 1407.6 44.7, 1389.6 -85.7, 1214.5 164.0 C 1039.4 413.8, 1160.1 215.5, 876.8 310.9 C 593.5 406.3, 786.2 507.8, 502.8 412.4 C 219.5 317.0, 288.0 435.9, 112.8 186.2 C -62.3 -63.6, 4.1 44.7, 4.1 -264.0 C 4.1 -572.7, 20.8 -398.2, 195.9 -647.9 C 371.0 -897.7, 196.3 -887.9, 479.6 -983.3 C 762.9 -1078.7, 601.5 -1072.1, 884.9 -976.7 C 1168.2 -881.3, 1019.8 -972.1, 1194.9 -722.3 C 1370.0 -472.6, 1407.6 -572.7, 1407.6 -264.0 Z" fill="#E9FFF1" opacity="0.12" stroke="#E9FFF1" stroke-opacity="0.46" stroke-width="3" filter="url(#soft_crm_15_6505)"/>
  <path d="M 1407.6 -264.0 C 1407.6 44.7, 1389.6 -85.7, 1214.5 164.0 C 1039.4 413.8, 1160.1 215.5, 876.8 310.9 C 593.5 406.3, 786.2 507.8, 502.8 412.4 C 219.5 317.0, 288.0 435.9, 112.8 186.2 C -62.3 -63.6, 4.1 44.7, 4.1 -264.0 C 4.1 -572.7, 20.8 -398.2, 195.9 -647.9 C 371.0 -897.7, 196.3 -887.9, 479.6 -983.3 C 762.9 -1078.7, 601.5 -1072.1, 884.9 -976.7 C 1168.2 -881.3, 1019.8 -972.1, 1194.9 -722.3 C 1370.0 -472.6, 1407.6 -572.7, 1407.6 -264.0 Z" fill="none" stroke="#FFFFFF" stroke-opacity="0.22" stroke-width="1.2"/>
  <path d="M 1761.8 -265.0 C 1761.8 93.7, 1774.0 -105.8, 1692.0 184.4 C 1610.0 474.5, 1673.8 279.8, 1541.1 390.7 C 1408.4 501.5, 1467.2 577.7, 1334.5 466.9 C 1201.9 356.1, 1261.6 505.2, 1179.6 215.1 C 1097.6 -75.1, 1109.6 93.7, 1109.6 -265.0 C 1109.6 -623.6, 1130.9 -452.3, 1212.9 -742.4 C 1294.9 -1032.6, 1212.5 -896.4, 1345.1 -1007.2 C 1477.8 -1118.0, 1390.2 -1113.6, 1522.9 -1002.8 C 1655.5 -891.9, 1629.9 -998.6, 1711.9 -708.5 C 1793.9 -418.3, 1761.8 -623.7, 1761.8 -265.0 Z" fill="#E8FAFF" opacity="0.12" stroke="#E8FAFF" stroke-opacity="0.46" stroke-width="3" filter="url(#soft_crm_15_6505)"/>
  <path d="M 1761.8 -265.0 C 1761.8 93.7, 1774.0 -105.8, 1692.0 184.4 C 1610.0 474.5, 1673.8 279.8, 1541.1 390.7 C 1408.4 501.5, 1467.2 577.7, 1334.5 466.9 C 1201.9 356.1, 1261.6 505.2, 1179.6 215.1 C 1097.6 -75.1, 1109.6 93.7, 1109.6 -265.0 C 1109.6 -623.6, 1130.9 -452.3, 1212.9 -742.4 C 1294.9 -1032.6, 1212.5 -896.4, 1345.1 -1007.2 C 1477.8 -1118.0, 1390.2 -1113.6, 1522.9 -1002.8 C 1655.5 -891.9, 1629.9 -998.6, 1711.9 -708.5 C 1793.9 -418.3, 1761.8 -623.7, 1761.8 -265.0 Z" fill="none" stroke="#FFFFFF" stroke-opacity="0.22" stroke-width="1.2"/>
  <path d="M 1147.7 270.0 C 1147.7 529.2, 1248.7 400.5, 1096.1 610.2 C 943.5 819.9, 1026.9 715.7, 779.9 795.8 C 533.0 875.9, 699.5 881.6, 452.5 801.5 C 205.6 721.5, 352.5 844.1, 199.9 634.4 C 47.3 424.7, 43.9 529.2, 43.9 270.0 C 43.9 10.8, -18.9 106.3, 133.7 -103.4 C 286.3 -313.1, 193.8 -218.3, 440.8 -298.4 C 687.7 -378.5, 533.8 -367.5, 780.7 -287.4 C 1027.7 -207.3, 965.6 -243.1, 1118.2 -33.4 C 1270.9 176.3, 1147.7 10.8, 1147.7 270.0 Z" fill="#E8FAFF" opacity="0.12" stroke="#E8FAFF" stroke-opacity="0.46" stroke-width="3" filter="url(#soft_crm_15_6505)"/>
  <path d="M 1147.7 270.0 C 1147.7 529.2, 1248.7 400.5, 1096.1 610.2 C 943.5 819.9, 1026.9 715.7, 779.9 795.8 C 533.0 875.9, 699.5 881.6, 452.5 801.5 C 205.6 721.5, 352.5 844.1, 199.9 634.4 C 47.3 424.7, 43.9 529.2, 43.9 270.0 C 43.9 10.8, -18.9 106.3, 133.7 -103.4 C 286.3 -313.1, 193.8 -218.3, 440.8 -298.4 C 687.7 -378.5, 533.8 -367.5, 780.7 -287.4 C 1027.7 -207.3, 965.6 -243.1, 1118.2 -33.4 C 1270.9 176.3, 1147.7 10.8, 1147.7 270.0 Z" fill="none" stroke="#FFFFFF" stroke-opacity="0.22" stroke-width="1.2"/>
  <path d="M 916.2 2361.0 C 916.2 2641.8, 976.4 2463.9, 826.2 2691.1 C 676.0 2918.3, 754.1 2847.8, 511.0 2934.6 C 267.9 3021.4, 389.6 3117.3, 146.5 3030.5 C -96.5 2943.7, 52.9 2965.1, -97.3 2738.0 C -247.5 2510.8, -199.7 2641.8, -199.7 2361.0 C -199.7 2080.2, -332.5 2205.5, -182.2 1978.3 C -32.0 1751.1, -74.6 1875.7, 168.5 1788.9 C 411.6 1702.1, 263.5 1731.6, 506.6 1818.4 C 749.6 1905.1, 624.0 1807.5, 774.2 2034.7 C 924.5 2261.9, 916.2 2080.2, 916.2 2361.0 Z" fill="#E9FFF1" opacity="0.12" stroke="#E9FFF1" stroke-opacity="0.46" stroke-width="3" filter="url(#soft_crm_15_6505)"/>
  <path d="M 916.2 2361.0 C 916.2 2641.8, 976.4 2463.9, 826.2 2691.1 C 676.0 2918.3, 754.1 2847.8, 511.0 2934.6 C 267.9 3021.4, 389.6 3117.3, 146.5 3030.5 C -96.5 2943.7, 52.9 2965.1, -97.3 2738.0 C -247.5 2510.8, -199.7 2641.8, -199.7 2361.0 C -199.7 2080.2, -332.5 2205.5, -182.2 1978.3 C -32.0 1751.1, -74.6 1875.7, 168.5 1788.9 C 411.6 1702.1, 263.5 1731.6, 506.6 1818.4 C 749.6 1905.1, 624.0 1807.5, 774.2 2034.7 C 924.5 2261.9, 916.2 2080.2, 916.2 2361.0 Z" fill="none" stroke="#FFFFFF" stroke-opacity="0.22" stroke-width="1.2"/>
  <path d="M -100.0 242.6 Q 133.3 -223.5, 366.7 -376.3 Q 600.0 27.6, 833.3 394.3 Q 1066.7 249.8, 1300.0 -274.8" fill="none" stroke="#FFFFFF" stroke-opacity="0.38" stroke-width="4" filter="url(#soft_crm_15_6505)"/>
  <path d="M -100.0 242.6 Q 133.3 -223.5, 366.7 -376.3 Q 600.0 27.6, 833.3 394.3 Q 1066.7 249.8, 1300.0 -274.8" fill="none" stroke="#9EE2C2" stroke-opacity="0.18" stroke-width="2"/>
  <path d="M -100.0 2387.8 Q 133.3 2216.9, 366.7 2027.8 Q 600.0 2106.8, 833.3 2273.4 Q 1066.7 2543.7, 1300.0 2504.4" fill="none" stroke="#FFFFFF" stroke-opacity="0.38" stroke-width="4" filter="url(#soft_crm_15_6505)"/>
  <path d="M -100.0 2387.8 Q 133.3 2216.9, 366.7 2027.8 Q 600.0 2106.8, 833.3 2273.4 Q 1066.7 2543.7, 1300.0 2504.4" fill="none" stroke="#A7CCFF" stroke-opacity="0.18" stroke-width="2"/>
  <path d="M -100.0 1675.6 Q 133.3 2099.6, 366.7 2356.5 Q 600.0 1877.1, 833.3 1721.0 Q 1066.7 2121.1, 1300.0 2263.9" fill="none" stroke="#FFFFFF" stroke-opacity="0.38" stroke-width="4" filter="url(#soft_crm_15_6505)"/>
  <path d="M -100.0 1675.6 Q 133.3 2099.6, 366.7 2356.5 Q 600.0 1877.1, 833.3 1721.0 Q 1066.7 2121.1, 1300.0 2263.9" fill="none" stroke="#A7CCFF" stroke-opacity="0.18" stroke-width="2"/>
  <circle cx="247" cy="2" r="100" fill="url(#orb_crm_15_6505)" opacity="0.36"/>
  <circle cx="247" cy="2" r="100" fill="#D5F4FF" opacity="0.08"/>
  <circle cx="247" cy="2" r="100" fill="none" stroke="#FFFFFF" stroke-opacity="0.56" stroke-width="3"/>
  <ellipse cx="219.0" cy="-34.0" rx="18.0" ry="8.0" fill="#FFFFFF" opacity="0.42" transform="rotate(-22 219.0 -34.0)"/>
  <circle cx="1011" cy="1504" r="183" fill="url(#orb_crm_15_6505)" opacity="0.36"/>
  <circle cx="1011" cy="1504" r="183" fill="#9EE2C2" opacity="0.08"/>
  <circle cx="1011" cy="1504" r="183" fill="none" stroke="#FFFFFF" stroke-opacity="0.56" stroke-width="3"/>
  <ellipse cx="959.8" cy="1438.1" rx="32.9" ry="14.6" fill="#FFFFFF" opacity="0.42" transform="rotate(-22 959.8 1438.1)"/>
  <circle cx="997" cy="801" r="279" fill="url(#orb_crm_15_6505)" opacity="0.36"/>
  <circle cx="997" cy="801" r="279" fill="#FBFFFF" opacity="0.08"/>
  <circle cx="997" cy="801" r="279" fill="none" stroke="#FFFFFF" stroke-opacity="0.56" stroke-width="3"/>
  <ellipse cx="918.9" cy="700.6" rx="50.2" ry="22.3" fill="#FFFFFF" opacity="0.42" transform="rotate(-22 918.9 700.6)"/>
  <circle cx="-24" cy="761" r="183" fill="url(#orb_crm_15_6505)" opacity="0.17"/>
  <circle cx="-24" cy="761" r="183" fill="#F6F7FF" opacity="0.08"/>
  <circle cx="-24" cy="761" r="183" fill="none" stroke="#FFFFFF" stroke-opacity="0.56" stroke-width="3"/>
  <ellipse cx="-75.2" cy="695.1" rx="32.9" ry="14.6" fill="#FFFFFF" opacity="0.42" transform="rotate(-22 -75.2 695.1)"/>
  <circle cx="939" cy="2720" r="203" fill="url(#orb_crm_15_6505)" opacity="0.25"/>
  <circle cx="939" cy="2720" r="203" fill="#6DB6CF" opacity="0.08"/>
  <circle cx="939" cy="2720" r="203" fill="none" stroke="#FFFFFF" stroke-opacity="0.56" stroke-width="3"/>
  <ellipse cx="882.2" cy="2646.9" rx="36.5" ry="16.2" fill="#FFFFFF" opacity="0.42" transform="rotate(-22 882.2 2646.9)"/>
  <circle cx="993" cy="1450" r="210" fill="url(#orb_crm_15_6505)" opacity="0.19"/>
  <circle cx="993" cy="1450" r="210" fill="#A7CCFF" opacity="0.08"/>
  <circle cx="993" cy="1450" r="210" fill="none" stroke="#FFFFFF" stroke-opacity="0.56" stroke-width="3"/>
  <ellipse cx="934.2" cy="1374.4" rx="37.8" ry="16.8" fill="#FFFFFF" opacity="0.42" transform="rotate(-22 934.2 1374.4)"/>
  <circle cx="688" cy="1719" r="287" fill="url(#orb_crm_15_6505)" opacity="0.26"/>
  <circle cx="688" cy="1719" r="287" fill="#F6F7FF" opacity="0.08"/>
  <circle cx="688" cy="1719" r="287" fill="none" stroke="#FFFFFF" stroke-opacity="0.56" stroke-width="3"/>
  <ellipse cx="607.6" cy="1615.7" rx="51.7" ry="23.0" fill="#FFFFFF" opacity="0.42" transform="rotate(-22 607.6 1615.7)"/>
  <circle cx="839" cy="1466" r="222" fill="url(#orb_crm_15_6505)" opacity="0.20"/>
  <circle cx="839" cy="1466" r="222" fill="#6DB6CF" opacity="0.08"/>
  <circle cx="839" cy="1466" r="222" fill="none" stroke="#FFFFFF" stroke-opacity="0.56" stroke-width="3"/>
  <ellipse cx="776.8" cy="1386.1" rx="40.0" ry="17.8" fill="#FFFFFF" opacity="0.42" transform="rotate(-22 776.8 1386.1)"/>
  <circle cx="333" cy="1037" r="136" fill="url(#orb_crm_15_6505)" opacity="0.22"/>
  <circle cx="333" cy="1037" r="136" fill="#FBFFFF" opacity="0.08"/>
  <circle cx="333" cy="1037" r="136" fill="none" stroke="#FFFFFF" stroke-opacity="0.56" stroke-width="3"/>
  <ellipse cx="294.9" cy="988.0" rx="24.5" ry="10.9" fill="#FFFFFF" opacity="0.42" transform="rotate(-22 294.9 988.0)"/>
  <circle cx="633" cy="572" r="257" fill="url(#orb_crm_15_6505)" opacity="0.21"/>
  <circle cx="633" cy="572" r="257" fill="#9EE2C2" opacity="0.08"/>
  <circle cx="633" cy="572" r="257" fill="none" stroke="#FFFFFF" stroke-opacity="0.56" stroke-width="3"/>
  <ellipse cx="561.0" cy="479.5" rx="46.3" ry="20.6" fill="#FFFFFF" opacity="0.42" transform="rotate(-22 561.0 479.5)"/>
  <circle cx="1194" cy="313" r="5" fill="#FFFFFF" opacity="0.38"/>
  <circle cx="143" cy="663" r="5" fill="#FFFFFF" opacity="0.55"/>
  <circle cx="1098" cy="2557" r="2" fill="#FFFFFF" opacity="0.57"/>
  <circle cx="957" cy="1408" r="4" fill="#FFFFFF" opacity="0.68"/>
  <circle cx="502" cy="1132" r="7" fill="#FFFFFF" opacity="0.35"/>
  <circle cx="526" cy="2153" r="2" fill="#FFFFFF" opacity="0.45"/>
  <circle cx="664" cy="870" r="2" fill="#FFFFFF" opacity="0.70"/>
  <circle cx="1078" cy="1772" r="2" fill="#FFFFFF" opacity="0.65"/>
  <circle cx="573" cy="1179" r="3" fill="#FFFFFF" opacity="0.52"/>
  <circle cx="845" cy="2185" r="7" fill="#FFFFFF" opacity="0.39"/>
  <circle cx="946" cy="1271" r="4" fill="#FFFFFF" opacity="0.49"/>
  <circle cx="186" cy="1971" r="2" fill="#FFFFFF" opacity="0.43"/>
  <circle cx="946" cy="1945" r="4" fill="#FFFFFF" opacity="0.34"/>
  <circle cx="514" cy="1250" r="2" fill="#FFFFFF" opacity="0.38"/>
  <circle cx="507" cy="1501" r="3" fill="#FFFFFF" opacity="0.66"/>
  <circle cx="1010" cy="2404" r="3" fill="#FFFFFF" opacity="0.44"/>
  <circle cx="648" cy="364" r="7" fill="#FFFFFF" opacity="0.67"/>
  <circle cx="192" cy="624" r="2" fill="#FFFFFF" opacity="0.44"/>
  <rect width="1200" height="2600" fill="#FFFFFF" opacity="0.08"/>
  <rect width="1200" height="2600" filter="url(#grain_crm_15_6505)" opacity="0.7"/>
</svg>
