<svg xmlns="http://www.w3.org/2000/svg" width="1200" height="2600" viewBox="0 0 1200 2600" preserveAspectRatio="xMidYMid slice">
  <defs>
    <linearGradient id="bg_crm_06_1150" x1="0" y1="0" x2="1" y2="1">
      <stop offset="0%" stop-color="#FBFFFF"/>
      <stop offset="48%" stop-color="#F6F7FF"/>
      <stop offset="100%" stop-color="#D5F4FF"/>
    </linearGradient>
    <radialGradient id="orb_crm_06_1150" cx="35%" cy="30%" r="70%">
      <stop offset="0%" stop-color="#FFFFFF" stop-opacity="0.85"/>
      <stop offset="42%" stop-color="#FFFFFF" stop-opacity="0.20"/>
      <stop offset="100%" stop-color="#FFFFFF" stop-opacity="0.02"/>
    </radialGradient>
    <filter id="blur_crm_06_1150" x="-30%" y="-30%" width="160%" height="160%">
      <feGaussianBlur stdDeviation="72"/>
    </filter>
    <filter id="soft_crm_06_1150" x="-20%" y="-20%" width="140%" height="140%">
      <feGaussianBlur stdDeviation="10"/>
    </filter>
    <filter id="grain_crm_06_1150">
      <feTurbulence type="fractalNoise" baseFrequency="0.85" numOctaves="2" stitchTiles="stitch"/>
      <feColorMatrix type="saturate" values="0"/>
      <feComponentTransfer>
        <feFuncA type="table" tableValues="0 0.035"/>
      </feComponentTransfer>
    </filter>
  </defs>
  <rect width="1200" height="2600" fill="url(#bg_crm_06_1150)"/>
  <path d="M 935.9 1381.0 C 935.9 1619.5, 1023.7 1536.9, 926.0 1719.6 C 828.2 1902.3, 858.6 1782.0, 708.8 1823.4 C 559.0 1864.9, 599.0 1981.9, 467.3 1862.6 C 335.6 1743.4, 429.8 1779.8, 377.7 1555.7 C 325.7 1331.6, 303.1 1447.7, 355.2 1223.6 C 407.2 999.5, 380.0 1006.5, 511.7 887.3 C 643.5 768.0, 572.5 847.5, 722.3 889.0 C 872.1 930.4, 820.0 856.7, 917.8 1039.4 C 1015.5 1222.1, 935.9 1142.5, 935.9 1381.0 Z" fill="#9EE2C2" opacity="0.37" filter="url(#blur_crm_06_1150)"/>
  <path d="M 536.4 2217.0 C 536.4 2499.6, 533.2 2358.3, 407.0 2574.8 C 280.9 2791.3, 321.9 2695.6, 128.6 2744.7 C -64.6 2793.8, 20.2 2806.8, -149.7 2665.5 C -319.6 2524.2, -234.2 2701.4, -301.3 2435.8 C -368.4 2170.3, -415.1 2229.2, -347.9 1963.7 C -280.8 1698.1, -340.7 1770.9, -170.8 1629.6 C -0.9 1488.3, -71.6 1472.3, 121.6 1521.3 C 314.9 1570.4, 273.4 1555.6, 399.5 1772.1 C 525.6 1988.6, 536.4 1934.4, 536.4 2217.0 Z" fill="#9EE2C2" opacity="0.28" filter="url(#blur_crm_06_1150)"/>
  <path d="M 1056.2 677.0 C 1056.2 911.9, 1029.1 781.2, 918.0 961.1 C 806.9 1141.1, 902.4 1103.2, 732.2 1144.0 C 562.1 1184.8, 616.4 1206.9, 466.7 1089.5 C 317.1 972.0, 318.1 1073.8, 259.0 853.1 C 199.9 632.3, 281.4 717.0, 340.5 496.3 C 399.6 275.5, 334.0 308.0, 483.6 190.5 C 633.3 73.1, 543.0 177.1, 713.2 217.9 C 883.4 258.7, 798.2 192.4, 909.3 372.4 C 1020.4 552.3, 1056.2 442.1, 1056.2 677.0 Z" fill="#9EE2C2" opacity="0.37" filter="url(#blur_crm_06_1150)"/>
  <path d="M 587.1 1642.0 C 587.1 1876.9, 652.4 1764.0, 533.5 1943.9 C 414.6 2123.8, 430.0 2046.8, 247.8 2087.6 C 65.7 2128.4, 163.7 2156.3, 3.6 2038.8 C -156.6 1921.4, -211.9 2058.6, -275.2 1837.8 C -338.4 1617.1, -329.6 1664.1, -266.3 1443.4 C -203.0 1222.7, -154.1 1375.2, 6.1 1257.8 C 166.2 1140.3, 67.1 1034.0, 249.2 1074.8 C 431.3 1115.5, 387.6 1131.6, 506.5 1311.6 C 625.4 1491.5, 587.1 1407.1, 587.1 1642.0 Z" fill="#E9FFF1" opacity="0.16" filter="url(#blur_crm_06_1150)"/>
  <path d="M 1267.8 2384.0 C 1267.8 2591.0, 1250.0 2484.9, 1156.9 2643.4 C 1063.7 2802.0, 1129.0 2820.2, 986.3 2856.2 C 843.6 2892.1, 887.1 2846.8, 761.7 2743.3 C 636.2 2639.8, 654.1 2716.7, 604.5 2522.2 C 555.0 2327.7, 553.2 2431.9, 602.8 2237.4 C 652.3 2042.8, 632.1 2143.0, 757.6 2039.5 C 883.1 1936.0, 837.6 1868.0, 980.3 1903.9 C 1123.0 1939.8, 1101.7 1927.7, 1194.9 2086.3 C 1288.0 2244.8, 1267.8 2177.0, 1267.8 2384.0 Z" fill="#E9FFF1" opacity="0.29" filter="url(#blur_crm_06_1150)"/>
  <path d="M 362.3 411.0 C 362.3 687.3, 364.7 569.6, 265.7 781.3 C 166.8 992.9, 220.7 958.4, 69.1 1006.3 C -82.5 1054.3, -59.8 1051.4, -193.0 913.3 C -326.3 775.1, -260.1 880.2, -312.7 620.6 C -365.3 360.9, -362.0 471.1, -309.3 211.5 C -256.7 -48.2, -279.3 -11.4, -146.0 -149.5 C -12.8 -287.7, -95.7 -295.9, 55.9 -247.9 C 207.4 -199.9, 181.4 -237.7, 280.3 -26.0 C 379.3 185.6, 362.3 134.7, 362.3 411.0 Z" fill="#F6F7FF" opacity="0.36" filter="url(#blur_crm_06_1150)"/>
  <path d="M 1365.6 1900.0 C 1365.6 2109.7, 1264.0 2084.8, 1113.5 2245.4 C 963.1 2406.1, 1092.9 2338.7, 862.4 2375.1 C 632.0 2411.5, 691.7 2346.6, 489.0 2241.8 C 286.4 2136.9, 289.8 2241.4, 209.8 2044.3 C 129.7 1847.3, 224.0 1927.0, 304.0 1729.9 C 384.0 1532.9, 300.4 1627.1, 503.0 1522.2 C 705.7 1417.4, 608.3 1421.8, 838.8 1458.2 C 1069.2 1494.6, 1027.4 1458.9, 1177.8 1619.5 C 1328.2 1780.1, 1365.6 1690.3, 1365.6 1900.0 Z" fill="#E8FAFF" opacity="0.19" filter="url(#blur_crm_06_1150)"/>
  <path d="M 443.2 -105.0 C 443.2 84.0, 464.8 -10.5, 303.1 134.3 C 141.4 279.1, 251.5 213.2, 3.7 246.0 C -244.0 278.8, -204.4 350.8, -422.3 256.3 C -640.1 161.8, -487.5 234.9, -573.5 57.3 C -659.5 -120.3, -671.0 -54.3, -585.0 -231.9 C -499.0 -409.5, -587.6 -395.4, -369.7 -489.9 C -151.9 -584.4, -252.3 -536.4, -4.6 -503.6 C 243.1 -470.8, 179.8 -500.8, 341.5 -356.0 C 503.2 -211.2, 443.2 -294.0, 443.2 -105.0 Z" fill="#D5F4FF" opacity="0.36" filter="url(#blur_crm_06_1150)"/>
  <path d="M 724.8 1716.0 C 724.8 2116.5, 838.2 1887.8, 732.1 2211.8 C 626.0 2535.8, 660.9 2327.9, 489.2 2451.7 C 317.6 2575.4, 434.6 2602.6, 263.0 2478.8 C 91.4 2355.0, 119.8 2532.6, 13.8 2208.6 C -92.3 1884.6, -18.3 2116.5, -18.3 1716.0 C -18.3 1315.5, -91.8 1461.1, 14.3 1137.1 C 120.4 813.1, 84.3 1065.5, 255.9 941.7 C 427.5 818.0, 318.3 786.2, 489.9 910.0 C 661.6 1033.7, 626.3 821.8, 732.4 1145.8 C 838.5 1469.8, 724.8 1315.5, 724.8 1716.0 Z" fill="#E8FAFF" opacity="0.12" stroke="#E8FAFF" stroke-opacity="0.46" stroke-width="3" filter="url(#soft_crm_06_1150)"/>
  <path d="M 724.8 1716.0 C 724.8 2116.5, 838.2 1887.8, 732.1 2211.8 C 626.0 2535.8, 660.9 2327.9, 489.2 2451.7 C 317.6 2575.4, 434.6 2602.6, 263.0 2478.8 C 91.4 2355.0, 119.8 2532.6, 13.8 2208.6 C -92.3 1884.6, -18.3 2116.5, -18.3 1716.0 C -18.3 1315.5, -91.8 1461.1, 14.3 1137.1 C 120.4 813.1, 84.3 1065.5, 255.9 941.7 C 427.5 818.0, 318.3 786.2, 489.9 910.0 C 661.6 1033.7, 626.3 821.8, 732.4 1145.8 C 838.5 1469.8, 724.8 1315.5, 724.8 1716.0 Z" fill="none" stroke="#FFFFFF" stroke-opacity="0.22" stroke-width="1.2"/>
  <path d="M 1708.1 695.0 C 1708.1 1024.4, 1861.1 879.2, 1718.5 1145.7 C 1575.9 1412.1, 1660.6 1372.8, 1429.9 1474.6 C 1199.2 1576.4, 1307.6 1493.5, 1076.9 1391.7 C 846.2 1290.0, 909.6 1446.1, 767.1 1179.6 C 624.5 913.1, 676.3 1024.4, 676.3 695.0 C 676.3 365.6, 717.1 578.0, 859.7 311.5 C 1002.2 45.0, 851.3 130.0, 1082.0 28.2 C 1312.7 -73.5, 1178.1 -12.7, 1408.8 89.0 C 1639.5 190.8, 1500.1 18.3, 1642.7 284.8 C 1785.3 551.3, 1708.1 365.6, 1708.1 695.0 Z" fill="#A7CCFF" opacity="0.12" stroke="#FFFFFF" stroke-opacity="0.46" stroke-width="3" filter="url(#soft_crm_06_1150)"/>
  <path d="M 1708.1 695.0 C 1708.1 1024.4, 1861.1 879.2, 1718.5 1145.7 C 1575.9 1412.1, 1660.6 1372.8, 1429.9 1474.6 C 1199.2 1576.4, 1307.6 1493.5, 1076.9 1391.7 C 846.2 1290.0, 909.6 1446.1, 767.1 1179.6 C 624.5 913.1, 676.3 1024.4, 676.3 695.0 C 676.3 365.6, 717.1 578.0, 859.7 311.5 C 1002.2 45.0, 851.3 130.0, 1082.0 28.2 C 1312.7 -73.5, 1178.1 -12.7, 1408.8 89.0 C 1639.5 190.8, 1500.1 18.3, 1642.7 284.8 C 1785.3 551.3, 1708.1 365.6, 1708.1 695.0 Z" fill="none" stroke="#FFFFFF" stroke-opacity="0.22" stroke-width="1.2"/>
  <path d="M 987.8 425.0 C 987.8 777.4, 1171.6 602.6, 993.1 887.6 C 814.5 1172.7, 873.9 985.5, 585.1 1094.4 C 296.2 1203.3, 491.9 1315.9, 203.0 1207.0 C -85.9 1098.1, 2.6 1149.7, -176.0 864.7 C -354.5 579.6, -197.8 777.4, -197.8 425.0 C -197.8 72.7, -262.6 266.5, -84.0 -18.6 C 94.5 -303.6, -113.7 -200.4, 175.2 -309.3 C 464.0 -418.2, 308.2 -488.6, 597.0 -379.7 C 885.9 -270.8, 770.1 -306.9, 948.6 -21.9 C 1127.1 263.2, 987.8 72.6, 987.8 425.0 Z" fill="#9EE2C2" opacity="0.12" stroke="#FFFFFF" stroke-opacity="0.46" stroke-width="3" filter="url(#soft_crm_06_1150)"/>
  <path d="M 987.8 425.0 C 987.8 777.4, 1171.6 602.6, 993.1 887.6 C 814.5 1172.7, 873.9 985.5, 585.1 1094.4 C 296.2 1203.3, 491.9 1315.9, 203.0 1207.0 C -85.9 1098.1, 2.6 1149.7, -176.0 864.7 C -354.5 579.6, -197.8 777.4, -197.8 425.0 C -197.8 72.7, -262.6 266.5, -84.0 -18.6 C 94.5 -303.6, -113.7 -200.4, 175.2 -309.3 C 464.0 -418.2, 308.2 -488.6, 597.0 -379.7 C 885.9 -270.8, 770.1 -306.9, 948.6 -21.9 C 1127.1 263.2, 987.8 72.6, 987.8 425.0 Z" fill="none" stroke="#FFFFFF" stroke-opacity="0.22" stroke-width="1.2"/>
  <path d="M 1690.4 1778.0 C 1690.4 1943.6, 1716.8 1885.4, 1613.4 2019.4 C 1510.0 2153.4, 1575.8 2105.4, 1408.4 2156.6 C 1241.1 2207.8, 1334.0 2191.8, 1166.6 2140.7 C 999.3 2089.5, 1070.4 2146.2, 967.0 2012.2 C 863.5 1878.2, 950.8 1943.6, 950.8 1778.0 C 950.8 1612.4, 871.0 1723.3, 974.4 1589.3 C 1077.8 1455.3, 1029.8 1459.2, 1197.1 1408.0 C 1364.5 1356.8, 1242.3 1335.7, 1409.6 1386.9 C 1577.0 1438.0, 1499.3 1457.4, 1602.7 1591.3 C 1706.1 1725.3, 1690.4 1612.4, 1690.4 1778.0 Z" fill="#6DB6CF" opacity="0.12" stroke="#6DB6CF" stroke-opacity="0.46" stroke-width="3" filter="url(#soft_crm_06_1150)"/>
  <path d="M 1690.4 1778.0 C 1690.4 1943.6, 1716.8 1885.4, 1613.4 2019.4 C 1510.0 2153.4, 1575.8 2105.4, 1408.4 2156.6 C 1241.1 2207.8, 1334.0 2191.8, 1166.6 2140.7 C 999.3 2089.5, 1070.4 2146.2, 967.0 2012.2 C 863.5 1878.2, 950.8 1943.6, 950.8 1778.0 C 950.8 1612.4, 871.0 1723.3, 974.4 1589.3 C 1077.8 1455.3, 1029.8 1459.2, 1197.1 1408.0 C 1364.5 1356.8, 1242.3 1335.7, 1409.6 1386.9 C 1577.0 1438.0, 1499.3 1457.4, 1602.7 1591.3 C 1706.1 1725.3, 1690.4 1612.4, 1690.4 1778.0 Z" fill="none" stroke="#FFFFFF" stroke-opacity="0.22" stroke-width="1.2"/>
  <path d="M 1891.7 2374.0 C 1891.7 2690.3, 1924.9 2498.2, 1794.7 2754.2 C 1664.6 3010.1, 1718.5 3014.5, 1507.9 3112.2 C 1297.4 3210.0, 1420.0 3183.8, 1209.4 3086.0 C 998.8 2988.3, 1077.5 2992.5, 947.4 2736.5 C 817.2 2480.6, 815.2 2690.3, 815.2 2374.0 C 815.2 2057.7, 812.3 2191.1, 942.5 1935.2 C 1072.6 1679.2, 999.6 1713.1, 1210.2 1615.4 C 1420.7 1517.6, 1309.0 1641.1, 1519.5 1738.9 C 1730.1 1836.6, 1653.4 1654.9, 1783.6 1910.8 C 1913.7 2166.7, 1891.7 2057.7, 1891.7 2374.0 Z" fill="#6DB6CF" opacity="0.12" stroke="#FFFFFF" stroke-opacity="0.46" stroke-width="3" filter="url(#soft_crm_06_1150)"/>
  <path d="M 1891.7 2374.0 C 1891.7 2690.3, 1924.9 2498.2, 1794.7 2754.2 C 1664.6 3010.1, 1718.5 3014.5, 1507.9 3112.2 C 1297.4 3210.0, 1420.0 3183.8, 1209.4 3086.0 C 998.8 2988.3, 1077.5 2992.5, 947.4 2736.5 C 817.2 2480.6, 815.2 2690.3, 815.2 2374.0 C 815.2 2057.7, 812.3 2191.1, 942.5 1935.2 C 1072.6 1679.2, 999.6 1713.1, 1210.2 1615.4 C 1420.7 1517.6, 1309.0 1641.1, 1519.5 1738.9 C 1730.1 1836.6, 1653.4 1654.9, 1783.6 1910.8 C 1913.7 2166.7, 1891.7 2057.7, 1891.7 2374.0 Z" fill="none" stroke="#FFFFFF" stroke-opacity="0.22" stroke-width="1.2"/>
  <path d="M 1303.2 2427.0 C 1303.2 2639.4, 1370.1 2510.1, 1225.9 2681.9 C 1081.8 2853.7, 1165.4 2864.6, 932.1 2930.2 C 698.9 2995.9, 802.3 3000.7, 569.1 2935.0 C 335.8 2869.4, 430.1 2913.0, 285.9 2741.2 C 141.8 2569.4, 137.6 2639.4, 137.6 2427.0 C 137.6 2214.6, 143.3 2306.8, 287.4 2134.9 C 431.6 1963.1, 320.9 2055.6, 554.2 1990.0 C 787.4 1924.3, 701.7 1849.8, 934.9 1915.5 C 1168.2 1981.1, 1047.3 1957.8, 1191.5 2129.6 C 1335.6 2301.5, 1303.2 2214.6, 1303.2 2427.0 Z" fill="#6DB6CF" opacity="0.12" stroke="#FFFFFF" stroke-opacity="0.46" stroke-width="3" filter="url(#soft_crm_06_1150)"/>
  <path d="M 1303.2 2427.0 C 1303.2 2639.4, 1370.1 2510.1, 1225.9 2681.9 C 1081.8 2853.7, 1165.4 2864.6, 932.1 2930.2 C 698.9 2995.9, 802.3 3000.7, 569.1 2935.0 C 335.8 2869.4, 430.1 2913.0, 285.9 2741.2 C 141.8 2569.4, 137.6 2639.4, 137.6 2427.0 C 137.6 2214.6, 143.3 2306.8, 287.4 2134.9 C 431.6 1963.1, 320.9 2055.6, 554.2 1990.0 C 787.4 1924.3, 701.7 1849.8, 934.9 1915.5 C 1168.2 1981.1, 1047.3 1957.8, 1191.5 2129.6 C 1335.6 2301.5, 1303.2 2214.6, 1303.2 2427.0 Z" fill="none" stroke="#FFFFFF" stroke-opacity="0.22" stroke-width="1.2"/>
  <path d="M -100.0 1467.9 Q 133.3 1626.7, 366.7 1861.9 Q 600.0 2049.5, 833.3 1946.6 Q 1066.7 1922.7, 1300.0 1699.2" fill="none" stroke="#FFFFFF" stroke-opacity="0.38" stroke-width="4" filter="url(#soft_crm_06_1150)"/>
  <path d="M -100.0 1467.9 Q 133.3 1626.7, 366.7 1861.9 Q 600.0 2049.5, 833.3 1946.6 Q 1066.7 1922.7, 1300.0 1699.2" fill="none" stroke="#6DB6CF" stroke-opacity="0.18" stroke-width="2"/>
  <path d="M -100.0 1154.1 Q 133.3 944.2, 366.7 663.1 Q 600.0 463.5, 833.3 451.7 Q 1066.7 761.7, 1300.0 903.2" fill="none" stroke="#FFFFFF" stroke-opacity="0.38" stroke-width="4" filter="url(#soft_crm_06_1150)"/>
  <path d="M -100.0 1154.1 Q 133.3 944.2, 366.7 663.1 Q 600.0 463.5, 833.3 451.7 Q 1066.7 761.7, 1300.0 903.2" fill="none" stroke="#9EE2C2" stroke-opacity="0.18" stroke-width="2"/>
  <path d="M -100.0 1806.0 Q 133.3 1781.9, 366.7 1709.7 Q 600.0 1686.9, 833.3 1504.9 Q 1066.7 1369.3, 1300.0 1410.0" fill="none" stroke="#FFFFFF" stroke-opacity="0.38" stroke-width="4" filter="url(#soft_crm_06_1150)"/>
  <path d="M -100.0 1806.0 Q 133.3 1781.9, 366.7 1709.7 Q 600.0 1686.9, 833.3 1504.9 Q 1066.7 1369.3, 1300.0 1410.0" fill="none" stroke="#A7CCFF" stroke-opacity="0.18" stroke-width="2"/>
  <circle cx="1274" cy="144" r="256" fill="url(#orb_crm_06_1150)" opacity="0.36"/>
  <circle cx="1274" cy="144" r="256" fill="#F6F7FF" opacity="0.08"/>
  <circle cx="1274" cy="144" r="256" fill="none" stroke="#FFFFFF" stroke-opacity="0.56" stroke-width="3"/>
  <ellipse cx="1202.3" cy="51.8" rx="46.1" ry="20.5" fill="#FFFFFF" opacity="0.42" transform="rotate(-22 1202.3 51.8)"/>
  <circle cx="949" cy="477" r="191" fill="url(#orb_crm_06_1150)" opacity="0.36"/>
  <circle cx="949" cy="477" r="191" fill="#F6F7FF" opacity="0.08"/>
  <circle cx="949" cy="477" r="191" fill="none" stroke="#FFFFFF" stroke-opacity="0.56" stroke-width="3"/>
  <ellipse cx="895.5" cy="408.2" rx="34.4" ry="15.3" fill="#FFFFFF" opacity="0.42" transform="rotate(-22 895.5 408.2)"/>
  <circle cx="461" cy="1566" r="196" fill="url(#orb_crm_06_1150)" opacity="0.36"/>
  <circle cx="461" cy="1566" r="196" fill="#E9FFF1" opacity="0.08"/>
  <circle cx="461" cy="1566" r="196" fill="none" stroke="#FFFFFF" stroke-opacity="0.56" stroke-width="3"/>
  <ellipse cx="406.1" cy="1495.4" rx="35.3" ry="15.7" fill="#FFFFFF" opacity="0.42" transform="rotate(-22 406.1 1495.4)"/>
  <circle cx="1253" cy="-123" r="120" fill="url(#orb_crm_06_1150)" opacity="0.23"/>
  <circle cx="1253" cy="-123" r="120" fill="#FBFFFF" opacity="0.08"/>
  <circle cx="1253" cy="-123" r="120" fill="none" stroke="#FFFFFF" stroke-opacity="0.56" stroke-width="3"/>
  <ellipse cx="1219.4" cy="-166.2" rx="21.6" ry="9.6" fill="#FFFFFF" opacity="0.42" transform="rotate(-22 1219.4 -166.2)"/>
  <circle cx="948" cy="1997" r="145" fill="url(#orb_crm_06_1150)" opacity="0.19"/>
  <circle cx="948" cy="1997" r="145" fill="#6DB6CF" opacity="0.08"/>
  <circle cx="948" cy="1997" r="145" fill="none" stroke="#FFFFFF" stroke-opacity="0.56" stroke-width="3"/>
  <ellipse cx="907.4" cy="1944.8" rx="26.1" ry="11.6" fill="#FFFFFF" opacity="0.42" transform="rotate(-22 907.4 1944.8)"/>
  <circle cx="832" cy="2638" r="120" fill="url(#orb_crm_06_1150)" opacity="0.23"/>
  <circle cx="832" cy="2638" r="120" fill="#E9FFF1" opacity="0.08"/>
  <circle cx="832" cy="2638" r="120" fill="none" stroke="#FFFFFF" stroke-opacity="0.56" stroke-width="3"/>
  <ellipse cx="798.4" cy="2594.8" rx="21.6" ry="9.6" fill="#FFFFFF" opacity="0.42" transform="rotate(-22 798.4 2594.8)"/>
  <circle cx="253" cy="415" r="2" fill="#FFFFFF" opacity="0.32"/>
  <circle cx="960" cy="1254" r="4" fill="#FFFFFF" opacity="0.71"/>
  <circle cx="577" cy="815" r="3" fill="#FFFFFF" opacity="0.54"/>
  <circle cx="149" cy="1774" r="3" fill="#FFFFFF" opacity="0.33"/>
  <circle cx="1028" cy="685" r="3" fill="#FFFFFF" opacity="0.31"/>
  <circle cx="79" cy="2561" r="3" fill="#FFFFFF" opacity="0.30"/>
  <circle cx="180" cy="2445" r="5" fill="#FFFFFF" opacity="0.40"/>
  <circle cx="41" cy="488" r="2" fill="#FFFFFF" opacity="0.47"/>
  <circle cx="240" cy="1282" r="3" fill="#FFFFFF" opacity="0.68"/>
  <circle cx="1094" cy="157" r="3" fill="#FFFFFF" opacity="0.71"/>
  <rect width="1200" height="2600" fill="#FFFFFF" opacity="0.08"/>
  <rect width="1200" height="2600" filter="url(#grain_crm_06_1150)" opacity="0.7"/>
</svg>
