<svg xmlns="http://www.w3.org/2000/svg" width="1200" height="2600" viewBox="0 0 1200 2600" preserveAspectRatio="xMidYMid slice">
  <defs>
    <linearGradient id="bg_crm_11_8479" x1="0" y1="0" x2="1" y2="1">
      <stop offset="0%" stop-color="#FBFFFF"/>
      <stop offset="48%" stop-color="#D5F4FF"/>
      <stop offset="100%" stop-color="#F6F7FF"/>
    </linearGradient>
    <radialGradient id="orb_crm_11_8479" cx="35%" cy="30%" r="70%">
      <stop offset="0%" stop-color="#FFFFFF" stop-opacity="0.85"/>
      <stop offset="42%" stop-color="#FFFFFF" stop-opacity="0.20"/>
      <stop offset="100%" stop-color="#FFFFFF" stop-opacity="0.02"/>
    </radialGradient>
    <filter id="blur_crm_11_8479" x="-30%" y="-30%" width="160%" height="160%">
      <feGaussianBlur stdDeviation="72"/>
    </filter>
    <filter id="soft_crm_11_8479" x="-20%" y="-20%" width="140%" height="140%">
      <feGaussianBlur stdDeviation="10"/>
    </filter>
    <filter id="grain_crm_11_8479">
      <feTurbulence type="fractalNoise" baseFrequency="0.85" numOctaves="2" stitchTiles="stitch"/>
      <feColorMatrix type="saturate" values="0"/>
      <feComponentTransfer>
        <feFuncA type="table" tableValues="0 0.035"/>
      </feComponentTransfer>
    </filter>
  </defs>
  <rect width="1200" height="2600" fill="url(#bg_crm_11_8479)"/>
  <path d="M 1385.0 2512.0 C 1385.0 2663.7, 1370.8 2603.7, 1219.0 2719.8 C 1067.1 2836.0, 1147.3 2820.3, 914.6 2846.6 C 681.9 2873.0, 758.0 2917.6, 553.4 2841.8 C 348.8 2766.0, 382.2 2760.5, 301.4 2618.0 C 220.6 2475.5, 160.1 2534.5, 240.9 2392.0 C 321.7 2249.5, 354.8 2312.7, 559.4 2236.8 C 764.0 2161.0, 684.7 2113.4, 917.3 2139.8 C 1150.0 2166.1, 1118.9 2184.3, 1270.8 2300.5 C 1422.6 2416.7, 1385.0 2360.3, 1385.0 2512.0 Z" fill="#F6F7FF" opacity="0.26" filter="url(#blur_crm_11_8479)"/>
  <path d="M 594.6 174.0 C 594.6 464.2, 698.2 402.5, 543.7 624.8 C 389.2 847.2, 392.9 756.0, 156.2 806.4 C -80.4 856.8, 43.8 974.8, -164.3 829.7 C -372.5 684.6, -346.4 692.7, -428.6 420.0 C -510.8 147.2, -560.6 212.2, -478.4 -60.5 C -396.2 -333.3, -396.5 -179.7, -188.4 -324.8 C 19.7 -470.0, -73.7 -548.9, 162.9 -498.5 C 399.6 -448.1, 394.9 -501.8, 549.3 -279.4 C 703.8 -57.1, 594.6 -116.2, 594.6 174.0 Z" fill="#E9FFF1" opacity="0.24" filter="url(#blur_crm_11_8479)"/>
  <path d="M 384.5 1169.0 C 384.5 1313.9, 320.7 1297.3, 192.5 1408.3 C 64.4 1519.3, 189.3 1471.1, -7.0 1496.2 C -203.4 1521.4, -140.1 1517.2, -312.7 1444.8 C -485.4 1372.3, -503.1 1422.4, -571.3 1286.2 C -639.5 1150.1, -636.9 1190.4, -568.8 1054.3 C -500.6 918.1, -480.8 967.9, -308.2 895.4 C -135.5 823.0, -210.1 801.7, -13.8 826.9 C 182.5 852.0, 136.0 841.0, 264.2 952.0 C 392.3 1063.0, 384.5 1024.1, 384.5 1169.0 Z" fill="#E9FFF1" opacity="0.19" filter="url(#blur_crm_11_8479)"/>
  <path d="M 644.6 -253.0 C 644.6 59.3, 699.3 -65.4, 630.1 173.8 C 561.0 413.0, 588.7 428.5, 482.8 482.7 C 376.9 536.9, 406.4 448.5, 313.3 292.3 C 220.1 136.2, 270.4 284.5, 233.6 -8.9 C 196.8 -302.4, 158.8 -215.7, 195.6 -509.2 C 232.3 -802.6, 241.9 -654.9, 335.0 -811.1 C 428.2 -967.2, 373.4 -1038.7, 479.3 -984.4 C 585.2 -930.2, 528.7 -954.3, 597.8 -715.1 C 666.9 -475.9, 644.6 -565.3, 644.6 -253.0 Z" fill="#A7CCFF" opacity="0.21" filter="url(#blur_crm_11_8479)"/>
  <path d="M 1041.3 2382.0 C 1041.3 2570.1, 1058.0 2463.2, 963.4 2607.3 C 868.8 2751.4, 868.7 2744.3, 723.7 2776.9 C 578.8 2809.6, 641.3 2791.6, 513.9 2697.5 C 386.5 2603.5, 398.6 2705.7, 348.3 2529.0 C 298.0 2352.2, 294.9 2431.6, 345.3 2254.9 C 395.6 2078.1, 369.9 2123.0, 497.3 2028.9 C 624.8 1934.9, 592.0 1947.3, 736.9 1979.9 C 881.9 2012.6, 835.0 2000.2, 929.6 2144.3 C 1024.2 2288.4, 1041.3 2193.9, 1041.3 2382.0 Z" fill="#FBFFFF" opacity="0.26" filter="url(#blur_crm_11_8479)"/>
  <path d="M 1505.3 2002.0 C 1505.3 2231.1, 1483.1 2138.6, 1346.8 2314.0 C 1210.6 2489.5, 1270.1 2531.7, 1061.4 2571.5 C 852.7 2611.3, 935.6 2613.9, 752.0 2499.4 C 568.5 2384.8, 676.2 2367.8, 603.7 2152.5 C 531.2 1937.3, 473.3 2061.3, 545.8 1846.1 C 618.3 1630.9, 537.2 1739.7, 720.8 1625.2 C 904.4 1510.6, 864.6 1512.0, 1073.3 1551.7 C 1282.1 1591.5, 1258.5 1506.8, 1394.7 1682.3 C 1531.0 1857.8, 1505.3 1773.0, 1505.3 2002.0 Z" fill="#6DB6CF" opacity="0.29" filter="url(#blur_crm_11_8479)"/>
  <path d="M 1742.2 1495.0 C 1742.2 1698.4, 1751.6 1601.9, 1644.6 1757.8 C 1537.5 1913.6, 1581.2 1916.6, 1417.2 1951.9 C 1253.3 1987.2, 1281.1 1988.9, 1136.9 1887.2 C 992.7 1785.5, 1071.4 1861.5, 1014.4 1670.4 C 957.5 1479.2, 918.4 1510.3, 975.4 1319.1 C 1032.3 1128.0, 1049.3 1207.1, 1193.5 1105.4 C 1337.7 1003.7, 1256.7 1092.6, 1420.7 1127.9 C 1584.6 1163.2, 1548.6 1087.0, 1655.6 1242.9 C 1762.6 1398.7, 1742.2 1291.6, 1742.2 1495.0 Z" fill="#FBFFFF" opacity="0.16" filter="url(#blur_crm_11_8479)"/>
  <path d="M 1803.8 2358.0 C 1803.8 2535.3, 1822.5 2461.8, 1662.0 2597.7 C 1501.4 2733.5, 1579.8 2652.1, 1333.8 2682.9 C 1087.9 2713.7, 1230.8 2732.7, 1014.5 2644.0 C 798.2 2555.4, 802.6 2658.9, 717.2 2492.3 C 631.8 2325.7, 685.8 2367.9, 771.2 2201.3 C 856.6 2034.7, 758.4 2133.2, 974.7 2044.5 C 1191.0 1955.9, 1085.6 1878.5, 1331.6 1909.3 C 1577.5 1940.0, 1436.2 1961.9, 1596.8 2097.7 C 1757.3 2233.5, 1803.8 2180.7, 1803.8 2358.0 Z" fill="#6DB6CF" opacity="0.33" filter="url(#blur_crm_11_8479)"/>
  <path d="M 132.8 2511.0 C 132.8 2720.7, 234.3 2623.7, 134.8 2784.4 C 35.3 2945.0, 30.0 2951.4, -122.4 2987.8 C -274.8 3024.2, -205.0 3050.0, -339.1 2945.1 C -473.2 2840.3, -460.3 2862.0, -513.3 2665.0 C -566.2 2467.9, -593.3 2572.0, -540.4 2374.9 C -487.4 2177.9, -470.0 2245.6, -335.9 2140.7 C -201.9 2035.9, -265.6 2095.9, -113.2 2132.3 C 39.3 2168.8, -0.1 2081.4, 99.4 2242.0 C 198.9 2402.6, 132.8 2301.3, 132.8 2511.0 Z" fill="#A7CCFF" opacity="0.24" filter="url(#blur_crm_11_8479)"/>
  <path d="M 1177.4 705.0 C 1177.4 979.0, 1226.3 896.1, 1087.8 1106.1 C 949.2 1316.0, 1006.9 1239.0, 794.7 1286.6 C 582.4 1334.2, 662.8 1363.9, 476.2 1226.9 C 289.5 1089.9, 269.8 1162.1, 196.1 904.6 C 122.3 647.1, 177.3 754.5, 251.0 497.0 C 324.7 239.5, 258.2 356.5, 444.9 219.5 C 631.6 82.5, 583.2 133.4, 795.5 181.0 C 1007.8 228.6, 943.1 125.5, 1081.6 335.4 C 1220.2 545.3, 1177.4 430.9, 1177.4 705.0 Z" fill="#FBFFFF" opacity="0.29" filter="url(#blur_crm_11_8479)"/>
  <path d="M 1086.6 2426.0 C 1086.6 2718.5, 1142.5 2601.3, 981.1 2825.4 C 819.7 3049.5, 879.3 3058.8, 632.1 3109.6 C 384.8 3160.3, 452.7 3069.3, 235.3 2923.1 C 17.8 2776.8, 93.3 2890.8, 7.4 2615.9 C -78.5 2341.1, -117.4 2512.2, -31.5 2237.3 C 54.4 1962.4, 69.8 2026.5, 287.3 1880.3 C 504.8 1734.0, 385.4 1708.5, 632.7 1759.3 C 880.0 1810.1, 730.1 1850.5, 891.5 2074.6 C 1052.9 2298.7, 1086.6 2133.5, 1086.6 2426.0 Z" fill="#9EE2C2" opacity="0.33" filter="url(#blur_crm_11_8479)"/>
  <path d="M 508.3 150.0 C 508.3 401.6, 526.6 269.8, 387.2 473.4 C 247.8 676.9, 418.3 649.6, 192.8 727.3 C -32.8 805.0, 77.1 774.3, -148.5 696.6 C -374.0 618.9, -328.5 720.1, -467.9 516.6 C -607.3 313.1, -478.1 401.6, -478.1 150.0 C -478.1 -101.5, -511.5 45.3, -372.1 -158.2 C -232.7 -361.7, -387.9 -347.4, -162.4 -425.2 C 63.2 -502.9, -50.3 -472.5, 175.3 -394.8 C 400.8 -317.0, 304.4 -425.8, 443.8 -222.3 C 583.2 -18.8, 508.3 -101.6, 508.3 150.0 Z" fill="#E8FAFF" opacity="0.12" stroke="#FFFFFF" stroke-opacity="0.46" stroke-width="3" filter="url(#soft_crm_11_8479)"/>
  <path d="M 508.3 150.0 C 508.3 401.6, 526.6 269.8, 387.2 473.4 C 247.8 676.9, 418.3 649.6, 192.8 727.3 C -32.8 805.0, 77.1 774.3, -148.5 696.6 C -374.0 618.9, -328.5 720.1, -467.9 516.6 C -607.3 313.1, -478.1 401.6, -478.1 150.0 C -478.1 -101.5, -511.5 45.3, -372.1 -158.2 C -232.7 -361.7, -387.9 -347.4, -162.4 -425.2 C 63.2 -502.9, -50.3 -472.5, 175.3 -394.8 C 400.8 -317.0, 304.4 -425.8, 443.8 -222.3 C 583.2 -18.8, 508.3 -101.6, 508.3 150.0 Z" fill="none" stroke="#FFFFFF" stroke-opacity="0.22" stroke-width="1.2"/>
  <path d="M 1374.4 903.0 C 1374.4 1082.1, 1374.3 1008.5, 1295.2 1153.4 C 1216.1 1298.3, 1284.6 1252.0, 1156.7 1307.4 C 1028.7 1362.7, 1101.6 1354.4, 973.7 1299.1 C 845.7 1243.7, 886.5 1296.4, 807.4 1151.5 C 728.3 1006.6, 790.3 1082.1, 790.3 903.0 C 790.3 723.9, 724.6 812.8, 803.7 667.9 C 882.8 523.0, 860.4 553.0, 988.4 497.6 C 1116.3 442.3, 1026.4 454.9, 1154.4 510.3 C 1282.3 565.6, 1215.9 528.3, 1295.0 673.2 C 1374.1 818.1, 1374.4 723.9, 1374.4 903.0 Z" fill="#F6F7FF" opacity="0.12" stroke="#F6F7FF" stroke-opacity="0.46" stroke-width="3" filter="url(#soft_crm_11_8479)"/>
  <path d="M 1374.4 903.0 C 1374.4 1082.1, 1374.3 1008.5, 1295.2 1153.4 C 1216.1 1298.3, 1284.6 1252.0, 1156.7 1307.4 C 1028.7 1362.7, 1101.6 1354.4, 973.7 1299.1 C 845.7 1243.7, 886.5 1296.4, 807.4 1151.5 C 728.3 1006.6, 790.3 1082.1, 790.3 903.0 C 790.3 723.9, 724.6 812.8, 803.7 667.9 C 882.8 523.0, 860.4 553.0, 988.4 497.6 C 1116.3 442.3, 1026.4 454.9, 1154.4 510.3 C 1282.3 565.6, 1215.9 528.3, 1295.0 673.2 C 1374.1 818.1, 1374.4 723.9, 1374.4 903.0 Z" fill="none" stroke="#FFFFFF" stroke-opacity="0.22" stroke-width="1.2"/>
  <path d="M 1009.5 1563.0 C 1009.5 1829.8, 985.5 1669.5, 807.2 1885.4 C 628.9 2101.3, 781.2 1981.2, 492.8 2063.7 C 204.3 2146.1, 404.6 2134.6, 116.2 2052.1 C -172.3 1969.6, -13.1 2135.9, -191.3 1920.0 C -369.6 1704.2, -444.8 1829.8, -444.8 1563.0 C -444.8 1296.2, -472.3 1444.2, -294.0 1228.3 C -115.7 1012.4, -173.1 1083.8, 115.3 1001.4 C 403.8 918.9, 244.5 959.4, 532.9 1041.8 C 821.4 1124.3, 731.7 1040.6, 910.0 1256.5 C 1088.3 1472.3, 1009.5 1296.2, 1009.5 1563.0 Z" fill="#9EE2C2" opacity="0.12" stroke="#FFFFFF" stroke-opacity="0.46" stroke-width="3" filter="url(#soft_crm_11_8479)"/>
  <path d="M 1009.5 1563.0 C 1009.5 1829.8, 985.5 1669.5, 807.2 1885.4 C 628.9 2101.3, 781.2 1981.2, 492.8 2063.7 C 204.3 2146.1, 404.6 2134.6, 116.2 2052.1 C -172.3 1969.6, -13.1 2135.9, -191.3 1920.0 C -369.6 1704.2, -444.8 1829.8, -444.8 1563.0 C -444.8 1296.2, -472.3 1444.2, -294.0 1228.3 C -115.7 1012.4, -173.1 1083.8, 115.3 1001.4 C 403.8 918.9, 244.5 959.4, 532.9 1041.8 C 821.4 1124.3, 731.7 1040.6, 910.0 1256.5 C 1088.3 1472.3, 1009.5 1296.2, 1009.5 1563.0 Z" fill="none" stroke="#FFFFFF" stroke-opacity="0.22" stroke-width="1.2"/>
  <path d="M 1269.0 1411.0 C 1269.0 1737.7, 1346.8 1519.0, 1178.9 1783.3 C 1010.9 2047.6, 1141.2 1929.3, 869.4 2030.3 C 597.7 2131.2, 727.2 2150.7, 455.4 2049.8 C 183.7 1948.8, 277.9 2046.1, 110.0 1781.8 C -58.0 1517.5, 33.3 1737.7, 33.3 1411.0 C 33.3 1084.3, 39.1 1222.4, 207.0 958.1 C 375.0 693.8, 217.8 780.8, 489.6 679.9 C 761.4 578.9, 601.0 558.4, 872.7 659.4 C 1144.5 760.3, 1035.5 663.9, 1203.5 928.2 C 1371.5 1192.5, 1269.0 1084.3, 1269.0 1411.0 Z" fill="#FBFFFF" opacity="0.12" stroke="#FFFFFF" stroke-opacity="0.46" stroke-width="3" filter="url(#soft_crm_11_8479)"/>
  <path d="M 1269.0 1411.0 C 1269.0 1737.7, 1346.8 1519.0, 1178.9 1783.3 C 1010.9 2047.6, 1141.2 1929.3, 869.4 2030.3 C 597.7 2131.2, 727.2 2150.7, 455.4 2049.8 C 183.7 1948.8, 277.9 2046.1, 110.0 1781.8 C -58.0 1517.5, 33.3 1737.7, 33.3 1411.0 C 33.3 1084.3, 39.1 1222.4, 207.0 958.1 C 375.0 693.8, 217.8 780.8, 489.6 679.9 C 761.4 578.9, 601.0 558.4, 872.7 659.4 C 1144.5 760.3, 1035.5 663.9, 1203.5 928.2 C 1371.5 1192.5, 1269.0 1084.3, 1269.0 1411.0 Z" fill="none" stroke="#FFFFFF" stroke-opacity="0.22" stroke-width="1.2"/>
  <path d="M 1513.9 529.0 C 1513.9 846.7, 1525.5 726.3, 1411.0 983.3 C 1296.5 1240.3, 1376.9 1069.4, 1191.6 1167.6 C 1006.3 1265.8, 1076.4 1280.3, 891.1 1182.1 C 705.8 1084.0, 765.0 1215.6, 650.5 958.6 C 535.9 701.6, 589.4 846.7, 589.4 529.0 C 589.4 211.3, 571.3 425.5, 685.8 168.5 C 800.4 -88.6, 722.6 15.0, 907.9 -83.1 C 1093.2 -181.3, 983.3 -215.9, 1168.6 -117.7 C 1353.9 -19.5, 1303.6 -165.4, 1418.2 91.7 C 1532.7 348.7, 1513.9 211.3, 1513.9 529.0 Z" fill="#6DB6CF" opacity="0.12" stroke="#6DB6CF" stroke-opacity="0.46" stroke-width="3" filter="url(#soft_crm_11_8479)"/>
  <path d="M 1513.9 529.0 C 1513.9 846.7, 1525.5 726.3, 1411.0 983.3 C 1296.5 1240.3, 1376.9 1069.4, 1191.6 1167.6 C 1006.3 1265.8, 1076.4 1280.3, 891.1 1182.1 C 705.8 1084.0, 765.0 1215.6, 650.5 958.6 C 535.9 701.6, 589.4 846.7, 589.4 529.0 C 589.4 211.3, 571.3 425.5, 685.8 168.5 C 800.4 -88.6, 722.6 15.0, 907.9 -83.1 C 1093.2 -181.3, 983.3 -215.9, 1168.6 -117.7 C 1353.9 -19.5, 1303.6 -165.4, 1418.2 91.7 C 1532.7 348.7, 1513.9 211.3, 1513.9 529.0 Z" fill="none" stroke="#FFFFFF" stroke-opacity="0.22" stroke-width="1.2"/>
  <path d="M 1429.6 -129.0 C 1429.6 207.2, 1479.4 61.8, 1300.6 333.8 C 1121.8 605.7, 1247.9 423.0, 958.6 526.9 C 669.2 630.7, 835.2 771.3, 545.9 667.4 C 256.6 563.5, 436.6 544.4, 257.8 272.4 C 79.0 0.5, -2.6 207.2, -2.6 -129.0 C -2.6 -465.1, 63.6 -293.7, 242.4 -565.7 C 421.2 -837.6, 282.1 -720.1, 571.4 -823.9 C 860.7 -927.8, 700.4 -925.7, 989.7 -821.8 C 1279.0 -717.9, 1064.8 -801.9, 1243.6 -529.9 C 1422.4 -258.0, 1429.6 -465.2, 1429.6 -129.0 Z" fill="#9EE2C2" opacity="0.12" stroke="#FFFFFF" stroke-opacity="0.46" stroke-width="3" filter="url(#soft_crm_11_8479)"/>
  <path d="M 1429.6 -129.0 C 1429.6 207.2, 1479.4 61.8, 1300.6 333.8 C 1121.8 605.7, 1247.9 423.0, 958.6 526.9 C 669.2 630.7, 835.2 771.3, 545.9 667.4 C 256.6 563.5, 436.6 544.4, 257.8 272.4 C 79.0 0.5, -2.6 207.2, -2.6 -129.0 C -2.6 -465.1, 63.6 -293.7, 242.4 -565.7 C 421.2 -837.6, 282.1 -720.1, 571.4 -823.9 C 860.7 -927.8, 700.4 -925.7, 989.7 -821.8 C 1279.0 -717.9, 1064.8 -801.9, 1243.6 -529.9 C 1422.4 -258.0, 1429.6 -465.2, 1429.6 -129.0 Z" fill="none" stroke="#FFFFFF" stroke-opacity="0.22" stroke-width="1.2"/>
  <path d="M -100.0 197.6 Q 133.3 209.5, 366.7 441.0 Q 600.0 735.2, 833.3 585.6 Q 1066.7 149.6, 1300.0 124.9" fill="none" stroke="#FFFFFF" stroke-opacity="0.38" stroke-width="4" filter="url(#soft_crm_11_8479)"/>
  <path d="M -100.0 197.6 Q 133.3 209.5, 366.7 441.0 Q 600.0 735.2, 833.3 585.6 Q 1066.7 149.6, 1300.0 124.9" fill="none" stroke="#6DB6CF" stroke-opacity="0.18" stroke-width="2"/>
  <path d="M -100.0 2068.7 Q 133.3 1807.9, 366.7 1940.3 Q 600.0 2206.6, 833.3 2096.5 Q 1066.7 1882.8, 1300.0 1866.9" fill="none" stroke="#FFFFFF" stroke-opacity="0.38" stroke-width="4" filter="url(#soft_crm_11_8479)"/>
  <path d="M -100.0 2068.7 Q 133.3 1807.9, 366.7 1940.3 Q 600.0 2206.6, 833.3 2096.5 Q 1066.7 1882.8, 1300.0 1866.9" fill="none" stroke="#A7CCFF" stroke-opacity="0.18" stroke-width="2"/>
  <path d="M -100.0 712.2 Q 133.3 522.6, 366.7 264.7 Q 600.0 247.4, 833.3 526.5 Q 1066.7 754.7, 1300.0 611.2" fill="none" stroke="#FFFFFF" stroke-opacity="0.38" stroke-width="4" filter="url(#soft_crm_11_8479)"/>
  <path d="M -100.0 712.2 Q 133.3 522.6, 366.7 264.7 Q 600.0 247.4, 833.3 526.5 Q 1066.7 754.7, 1300.0 611.2" fill="none" stroke="#A7CCFF" stroke-opacity="0.18" stroke-width="2"/>
  <path d="M -100.0 -229.3 Q 133.3 -10.2, 366.7 347.7 Q 600.0 30.4, 833.3 -177.6 Q 1066.7 -356.2, 1300.0 -249.8" fill="none" stroke="#FFFFFF" stroke-opacity="0.38" stroke-width="4" filter="url(#soft_crm_11_8479)"/>
  <path d="M -100.0 -229.3 Q 133.3 -10.2, 366.7 347.7 Q 600.0 30.4, 833.3 -177.6 Q 1066.7 -356.2, 1300.0 -249.8" fill="none" stroke="#6DB6CF" stroke-opacity="0.18" stroke-width="2"/>
  <path d="M -100.0 1751.8 Q 133.3 1971.9, 366.7 1585.6 Q 600.0 1355.7, 833.3 1397.2 Q 1066.7 1740.6, 1300.0 1936.1" fill="none" stroke="#FFFFFF" stroke-opacity="0.38" stroke-width="4" filter="url(#soft_crm_11_8479)"/>
  <path d="M -100.0 1751.8 Q 133.3 1971.9, 366.7 1585.6 Q 600.0 1355.7, 833.3 1397.2 Q 1066.7 1740.6, 1300.0 1936.1" fill="none" stroke="#6DB6CF" stroke-opacity="0.18" stroke-width="2"/>
  <path d="M -100.0 1556.2 Q 133.3 1364.9, 366.7 1228.1 Q 600.0 1197.6, 833.3 1172.7 Q 1066.7 1406.9, 1300.0 1547.8" fill="none" stroke="#FFFFFF" stroke-opacity="0.38" stroke-width="4" filter="url(#soft_crm_11_8479)"/>
  <path d="M -100.0 1556.2 Q 133.3 1364.9, 366.7 1228.1 Q 600.0 1197.6, 833.3 1172.7 Q 1066.7 1406.9, 1300.0 1547.8" fill="none" stroke="#A7CCFF" stroke-opacity="0.18" stroke-width="2"/>
  <circle cx="128" cy="2578" r="222" fill="url(#orb_crm_11_8479)" opacity="0.36"/>
  <circle cx="128" cy="2578" r="222" fill="#A7CCFF" opacity="0.08"/>
  <circle cx="128" cy="2578" r="222" fill="none" stroke="#FFFFFF" stroke-opacity="0.56" stroke-width="3"/>
  <ellipse cx="65.8" cy="2498.1" rx="40.0" ry="17.8" fill="#FFFFFF" opacity="0.42" transform="rotate(-22 65.8 2498.1)"/>
  <circle cx="244" cy="858" r="264" fill="url(#orb_crm_11_8479)" opacity="0.36"/>
  <circle cx="244" cy="858" r="264" fill="#A7CCFF" opacity="0.08"/>
  <circle cx="244" cy="858" r="264" fill="none" stroke="#FFFFFF" stroke-opacity="0.56" stroke-width="3"/>
  <ellipse cx="170.1" cy="763.0" rx="47.5" ry="21.1" fill="#FFFFFF" opacity="0.42" transform="rotate(-22 170.1 763.0)"/>
  <circle cx="1279" cy="166" r="122" fill="url(#orb_crm_11_8479)" opacity="0.36"/>
  <circle cx="1279" cy="166" r="122" fill="#F6F7FF" opacity="0.08"/>
  <circle cx="1279" cy="166" r="122" fill="none" stroke="#FFFFFF" stroke-opacity="0.56" stroke-width="3"/>
  <ellipse cx="1244.8" cy="122.1" rx="22.0" ry="9.8" fill="#FFFFFF" opacity="0.42" transform="rotate(-22 1244.8 122.1)"/>
  <circle cx="399" cy="1583" r="237" fill="url(#orb_crm_11_8479)" opacity="0.28"/>
  <circle cx="399" cy="1583" r="237" fill="#D5F4FF" opacity="0.08"/>
  <circle cx="399" cy="1583" r="237" fill="none" stroke="#FFFFFF" stroke-opacity="0.56" stroke-width="3"/>
  <ellipse cx="332.6" cy="1497.7" rx="42.7" ry="19.0" fill="#FFFFFF" opacity="0.42" transform="rotate(-22 332.6 1497.7)"/>
  <circle cx="1013" cy="2434" r="94" fill="url(#orb_crm_11_8479)" opacity="0.25"/>
  <circle cx="1013" cy="2434" r="94" fill="#D5F4FF" opacity="0.08"/>
  <circle cx="1013" cy="2434" r="94" fill="none" stroke="#FFFFFF" stroke-opacity="0.56" stroke-width="3"/>
  <ellipse cx="986.7" cy="2400.2" rx="16.9" ry="7.5" fill="#FFFFFF" opacity="0.42" transform="rotate(-22 986.7 2400.2)"/>
  <circle cx="319" cy="522" r="96" fill="url(#orb_crm_11_8479)" opacity="0.20"/>
  <circle cx="319" cy="522" r="96" fill="#D5F4FF" opacity="0.08"/>
  <circle cx="319" cy="522" r="96" fill="none" stroke="#FFFFFF" stroke-opacity="0.56" stroke-width="3"/>
  <ellipse cx="292.1" cy="487.4" rx="17.3" ry="7.7" fill="#FFFFFF" opacity="0.42" transform="rotate(-22 292.1 487.4)"/>
  <circle cx="1168" cy="981" r="112" fill="url(#orb_crm_11_8479)" opacity="0.22"/>
  <circle cx="1168" cy="981" r="112" fill="#9EE2C2" opacity="0.08"/>
  <circle cx="1168" cy="981" r="112" fill="none" stroke="#FFFFFF" stroke-opacity="0.56" stroke-width="3"/>
  <ellipse cx="1136.6" cy="940.7" rx="20.2" ry="9.0" fill="#FFFFFF" opacity="0.42" transform="rotate(-22 1136.6 940.7)"/>
  <circle cx="158" cy="768" r="134" fill="url(#orb_crm_11_8479)" opacity="0.25"/>
  <circle cx="158" cy="768" r="134" fill="#FBFFFF" opacity="0.08"/>
  <circle cx="158" cy="768" r="134" fill="none" stroke="#FFFFFF" stroke-opacity="0.56" stroke-width="3"/>
  <ellipse cx="120.5" cy="719.8" rx="24.1" ry="10.7" fill="#FFFFFF" opacity="0.42" transform="rotate(-22 120.5 719.8)"/>
  <circle cx="1201" cy="941" r="81" fill="url(#orb_crm_11_8479)" opacity="0.25"/>
  <circle cx="1201" cy="941" r="81" fill="#F6F7FF" opacity="0.08"/>
  <circle cx="1201" cy="941" r="81" fill="none" stroke="#FFFFFF" stroke-opacity="0.56" stroke-width="3"/>
  <ellipse cx="1178.3" cy="911.8" rx="14.6" ry="6.5" fill="#FFFFFF" opacity="0.42" transform="rotate(-22 1178.3 911.8)"/>
  <circle cx="590" cy="2173" r="246" fill="url(#orb_crm_11_8479)" opacity="0.19"/>
  <circle cx="590" cy="2173" r="246" fill="#E9FFF1" opacity="0.08"/>
  <circle cx="590" cy="2173" r="246" fill="none" stroke="#FFFFFF" stroke-opacity="0.56" stroke-width="3"/>
  <ellipse cx="521.1" cy="2084.4" rx="44.3" ry="19.7" fill="#FFFFFF" opacity="0.42" transform="rotate(-22 521.1 2084.4)"/>
  <circle cx="1175" cy="1115" r="5" fill="#FFFFFF" opacity="0.64"/>
  <circle cx="1073" cy="1311" r="5" fill="#FFFFFF" opacity="0.43"/>
  <circle cx="858" cy="1114" r="4" fill="#FFFFFF" opacity="0.55"/>
  <circle cx="1096" cy="2230" r="3" fill="#FFFFFF" opacity="0.32"/>
  <circle cx="46" cy="2464" r="5" fill="#FFFFFF" opacity="0.39"/>
  <circle cx="47" cy="1883" r="4" fill="#FFFFFF" opacity="0.69"/>
  <circle cx="592" cy="2581" r="3" fill="#FFFFFF" opacity="0.41"/>
  <circle cx="289" cy="188" r="3" fill="#FFFFFF" opacity="0.35"/>
  <circle cx="940" cy="2546" r="7" fill="#FFFFFF" opacity="0.67"/>
  <circle cx="101" cy="386" r="4" fill="#FFFFFF" opacity="0.46"/>
  <circle cx="231" cy="1726" r="4" fill="#FFFFFF" opacity="0.38"/>
  <circle cx="955" cy="1950" r="7" fill="#FFFFFF" opacity="0.37"/>
  <circle cx="57" cy="1148" r="5" fill="#FFFFFF" opacity="0.42"/>
  <circle cx="555" cy="264" r="5" fill="#FFFFFF" opacity="0.68"/>
  <circle cx="79" cy="2092" r="2" fill="#FFFFFF" opacity="0.36"/>
  <circle cx="1000" cy="500" r="7" fill="#FFFFFF" opacity="0.65"/>
  <rect width="1200" height="2600" fill="#FFFFFF" opacity="0.08"/>
  <rect width="1200" height="2600" filter="url(#grain_crm_11_8479)" opacity="0.7"/>
</svg>
