<svg xmlns="http://www.w3.org/2000/svg" width="1200" height="2600" viewBox="0 0 1200 2600" preserveAspectRatio="xMidYMid slice">
  <defs>
    <linearGradient id="bg_crm_12_1744" x1="0" y1="0" x2="1" y2="1">
      <stop offset="0%" stop-color="#D5F4FF"/>
      <stop offset="48%" stop-color="#E9FFF1"/>
      <stop offset="100%" stop-color="#F6F7FF"/>
    </linearGradient>
    <radialGradient id="orb_crm_12_1744" cx="35%" cy="30%" r="70%">
      <stop offset="0%" stop-color="#FFFFFF" stop-opacity="0.85"/>
      <stop offset="42%" stop-color="#FFFFFF" stop-opacity="0.20"/>
      <stop offset="100%" stop-color="#FFFFFF" stop-opacity="0.02"/>
    </radialGradient>
    <filter id="blur_crm_12_1744" x="-30%" y="-30%" width="160%" height="160%">
      <feGaussianBlur stdDeviation="72"/>
    </filter>
    <filter id="soft_crm_12_1744" x="-20%" y="-20%" width="140%" height="140%">
      <feGaussianBlur stdDeviation="10"/>
    </filter>
    <filter id="grain_crm_12_1744">
      <feTurbulence type="fractalNoise" baseFrequency="0.85" numOctaves="2" stitchTiles="stitch"/>
      <feColorMatrix type="saturate" values="0"/>
      <feComponentTransfer>
        <feFuncA type="table" tableValues="0 0.035"/>
      </feComponentTransfer>
    </filter>
  </defs>
  <rect width="1200" height="2600" fill="url(#bg_crm_12_1744)"/>
  <path d="M 279.3 1287.0 C 279.3 1587.6, 344.4 1486.7, 216.9 1717.0 C 89.3 1947.3, 154.6 1936.5, -40.9 1988.7 C -236.3 2040.9, -165.3 2070.2, -337.2 1919.9 C -509.1 1769.6, -514.0 1805.7, -581.9 1523.2 C -649.7 1240.8, -552.4 1379.7, -484.6 1097.2 C -416.7 814.8, -528.6 957.7, -356.8 807.4 C -184.9 657.1, -257.6 692.9, -62.1 745.1 C 133.3 797.3, 24.0 672.9, 151.5 903.2 C 279.1 1133.5, 279.3 986.4, 279.3 1287.0 Z" fill="#FBFFFF" opacity="0.28" filter="url(#blur_crm_12_1744)"/>
  <path d="M 1354.1 15.0 C 1354.1 235.5, 1328.2 125.3, 1183.0 294.2 C 1037.8 463.1, 1084.1 482.1, 861.6 520.4 C 639.2 558.6, 675.1 487.0, 479.5 376.7 C 283.9 266.5, 425.5 419.0, 348.2 211.7 C 270.9 4.5, 166.2 72.6, 243.5 -134.6 C 320.8 -341.8, 370.3 -339.8, 565.9 -450.0 C 761.5 -560.3, 646.8 -428.9, 869.3 -390.6 C 1091.8 -352.3, 988.9 -504.1, 1134.1 -335.2 C 1279.3 -166.3, 1354.1 -205.5, 1354.1 15.0 Z" fill="#F6F7FF" opacity="0.30" filter="url(#blur_crm_12_1744)"/>
  <path d="M 399.7 492.0 C 399.7 713.4, 421.8 692.2, 289.9 861.8 C 158.0 1031.4, 211.6 976.9, 9.5 1015.4 C -192.6 1053.8, -121.1 1065.3, -298.8 954.6 C -476.5 843.9, -365.9 889.2, -436.1 681.2 C -506.3 473.1, -572.7 526.1, -502.5 318.0 C -432.3 110.0, -490.5 208.5, -312.8 97.8 C -135.1 -12.9, -197.7 43.5, 4.4 82.0 C 206.5 120.4, 171.5 7.5, 303.4 177.1 C 435.3 346.7, 399.7 270.6, 399.7 492.0 Z" fill="#D5F4FF" opacity="0.18" filter="url(#blur_crm_12_1744)"/>
  <path d="M 682.3 2029.0 C 682.3 2230.2, 806.8 2200.5, 666.2 2354.6 C 525.6 2508.7, 526.8 2502.0, 311.4 2536.9 C 96.0 2571.9, 154.7 2455.8, -34.7 2355.2 C -224.1 2254.6, -175.0 2359.4, -249.8 2170.4 C -324.6 1981.4, -268.6 2045.5, -193.8 1856.5 C -119.0 1667.5, -217.7 1802.0, -28.3 1701.4 C 161.1 1600.8, 90.0 1564.9, 305.4 1599.8 C 520.7 1634.7, 516.0 1552.6, 656.5 1706.7 C 797.1 1860.8, 682.3 1827.8, 682.3 2029.0 Z" fill="#6DB6CF" opacity="0.38" filter="url(#blur_crm_12_1744)"/>
  <path d="M 325.0 255.0 C 325.0 531.3, 434.3 499.9, 289.1 711.6 C 143.9 923.3, 176.9 848.4, -45.5 896.4 C -268.0 944.4, -201.0 846.2, -396.7 708.1 C -592.3 569.9, -450.7 696.2, -527.9 436.5 C -605.2 176.9, -752.8 278.9, -675.5 19.2 C -598.3 -240.4, -543.0 -103.3, -347.3 -241.4 C -151.7 -379.6, -271.9 -355.3, -49.5 -307.4 C 173.0 -259.4, 87.6 -370.7, 232.8 -159.0 C 378.0 52.7, 325.0 -21.3, 325.0 255.0 Z" fill="#F6F7FF" opacity="0.28" filter="url(#blur_crm_12_1744)"/>
  <path d="M 1116.5 2391.0 C 1116.5 2590.3, 1083.5 2486.2, 978.2 2638.9 C 872.9 2791.6, 970.2 2750.6, 808.9 2785.2 C 647.6 2819.8, 733.6 2937.0, 591.8 2837.3 C 449.9 2737.6, 514.0 2742.0, 458.0 2554.7 C 402.0 2367.4, 351.3 2435.4, 407.3 2248.0 C 463.4 2060.7, 428.4 2173.9, 570.3 2074.2 C 712.1 1974.6, 653.3 1906.1, 814.6 1940.7 C 975.9 1975.3, 876.8 1989.6, 982.1 2142.3 C 1087.4 2295.0, 1116.5 2191.7, 1116.5 2391.0 Z" fill="#F6F7FF" opacity="0.17" filter="url(#blur_crm_12_1744)"/>
  <path d="M 243.2 531.0 C 243.2 687.6, 254.6 637.4, 183.2 757.4 C 111.7 877.3, 170.4 905.9, 60.9 933.1 C -48.6 960.3, 5.8 877.5, -90.4 799.2 C -186.7 720.9, -152.2 790.9, -190.2 643.8 C -228.2 496.6, -267.3 564.8, -229.3 417.6 C -191.2 270.5, -200.0 279.3, -103.7 201.0 C -7.5 122.7, -48.6 138.1, 60.8 165.3 C 170.3 192.5, 117.5 186.0, 188.9 305.9 C 260.4 425.9, 243.2 374.4, 243.2 531.0 Z" fill="#E9FFF1" opacity="0.27" filter="url(#blur_crm_12_1744)"/>
  <path d="M 1447.5 2159.0 C 1447.5 2414.2, 1511.0 2277.3, 1427.7 2472.7 C 1344.3 2668.2, 1362.4 2579.5, 1234.8 2623.8 C 1107.1 2668.2, 1134.6 2840.7, 1022.4 2713.1 C 910.2 2585.5, 968.0 2594.2, 923.7 2354.4 C 879.4 2114.7, 855.2 2203.7, 899.6 1963.9 C 943.9 1724.1, 945.0 1829.1, 1057.2 1701.6 C 1169.5 1574.0, 1117.2 1533.7, 1244.8 1578.0 C 1372.5 1622.3, 1357.6 1635.6, 1440.9 1831.0 C 1524.2 2026.5, 1447.5 1903.8, 1447.5 2159.0 Z" fill="#E8FAFF" opacity="0.18" filter="url(#blur_crm_12_1744)"/>
  <path d="M 272.0 2314.0 C 272.0 2618.7, 230.0 2591.2, 153.6 2824.6 C 77.3 3058.0, 136.1 2868.6, 19.1 2921.5 C -97.9 2974.4, -42.2 3047.3, -145.1 2894.9 C -248.0 2742.6, -232.7 2863.7, -273.4 2577.4 C -314.0 2291.1, -316.1 2358.7, -275.5 2072.4 C -234.9 1786.1, -252.4 1837.1, -149.5 1684.8 C -46.6 1532.5, -93.4 1657.9, 23.6 1710.8 C 140.6 1763.7, 88.0 1683.6, 164.3 1917.0 C 240.7 2150.4, 272.0 2009.3, 272.0 2314.0 Z" fill="#F6F7FF" opacity="0.35" filter="url(#blur_crm_12_1744)"/>
  <path d="M 465.6 2765.0 C 465.6 3010.7, 364.6 2987.5, 208.1 3175.7 C 51.6 3363.9, 206.4 3199.6, -33.3 3242.3 C -273.1 3284.9, -216.6 3354.7, -427.4 3231.8 C -638.3 3109.0, -527.9 3180.7, -611.1 2949.8 C -694.4 2719.0, -642.7 2816.5, -559.5 2585.6 C -476.2 2354.7, -624.2 2451.9, -413.4 2329.1 C -202.6 2206.2, -288.4 2212.9, -48.7 2255.6 C 191.1 2298.3, 55.6 2205.6, 212.1 2393.8 C 368.6 2582.0, 465.6 2519.3, 465.6 2765.0 Z" fill="#6DB6CF" opacity="0.29" filter="url(#blur_crm_12_1744)"/>
  <path d="M 971.6 333.0 C 971.6 647.5, 983.6 530.6, 848.5 771.6 C 713.4 1012.5, 801.9 960.9, 594.9 1015.5 C 388.0 1070.1, 450.2 1145.3, 268.2 988.0 C 86.2 830.8, 175.3 858.6, 103.4 563.0 C 31.5 267.4, -47.2 429.9, 24.6 134.3 C 96.5 -161.3, 129.2 -148.2, 311.2 -305.5 C 493.2 -462.8, 377.9 -381.5, 584.9 -326.9 C 791.8 -272.3, 709.4 -336.0, 844.5 -95.1 C 979.6 145.9, 971.6 18.4, 971.6 333.0 Z" fill="#6DB6CF" opacity="0.20" filter="url(#blur_crm_12_1744)"/>
  <path d="M 1723.1 653.0 C 1723.1 860.0, 1735.4 769.2, 1556.6 936.6 C 1377.7 1104.1, 1498.8 1046.4, 1209.5 1110.3 C 920.1 1174.3, 1108.7 1142.3, 819.4 1078.3 C 530.1 1014.3, 617.0 1077.4, 438.1 909.9 C 259.3 742.5, 425.5 860.0, 425.5 653.0 C 425.5 446.0, 230.6 566.8, 409.4 399.4 C 588.2 231.9, 513.3 289.7, 802.7 225.7 C 1092.0 161.7, 925.8 101.0, 1215.1 164.9 C 1504.4 228.9, 1452.2 235.8, 1631.0 403.2 C 1809.8 570.7, 1723.1 446.0, 1723.1 653.0 Z" fill="#D5F4FF" opacity="0.12" stroke="#D5F4FF" stroke-opacity="0.46" stroke-width="3" filter="url(#soft_crm_12_1744)"/>
  <path d="M 1723.1 653.0 C 1723.1 860.0, 1735.4 769.2, 1556.6 936.6 C 1377.7 1104.1, 1498.8 1046.4, 1209.5 1110.3 C 920.1 1174.3, 1108.7 1142.3, 819.4 1078.3 C 530.1 1014.3, 617.0 1077.4, 438.1 909.9 C 259.3 742.5, 425.5 860.0, 425.5 653.0 C 425.5 446.0, 230.6 566.8, 409.4 399.4 C 588.2 231.9, 513.3 289.7, 802.7 225.7 C 1092.0 161.7, 925.8 101.0, 1215.1 164.9 C 1504.4 228.9, 1452.2 235.8, 1631.0 403.2 C 1809.8 570.7, 1723.1 446.0, 1723.1 653.0 Z" fill="none" stroke="#FFFFFF" stroke-opacity="0.22" stroke-width="1.2"/>
  <path d="M 1096.3 713.0 C 1096.3 1086.0, 1063.0 887.6, 923.1 1189.4 C 783.2 1491.2, 900.3 1381.3, 673.9 1496.6 C 447.5 1611.9, 598.3 1576.0, 371.9 1460.7 C 145.5 1345.5, 251.9 1566.4, 111.9 1264.6 C -28.0 962.8, -45.4 1086.1, -45.4 713.0 C -45.4 340.0, -54.4 565.1, 85.5 263.3 C 225.4 -38.5, 109.0 -55.8, 335.4 -171.1 C 561.8 -286.3, 452.0 -175.0, 678.4 -59.7 C 904.8 55.6, 795.5 -139.5, 935.4 162.3 C 1075.3 464.1, 1096.3 339.9, 1096.3 713.0 Z" fill="#F6F7FF" opacity="0.12" stroke="#F6F7FF" stroke-opacity="0.46" stroke-width="3" filter="url(#soft_crm_12_1744)"/>
  <path d="M 1096.3 713.0 C 1096.3 1086.0, 1063.0 887.6, 923.1 1189.4 C 783.2 1491.2, 900.3 1381.3, 673.9 1496.6 C 447.5 1611.9, 598.3 1576.0, 371.9 1460.7 C 145.5 1345.5, 251.9 1566.4, 111.9 1264.6 C -28.0 962.8, -45.4 1086.1, -45.4 713.0 C -45.4 340.0, -54.4 565.1, 85.5 263.3 C 225.4 -38.5, 109.0 -55.8, 335.4 -171.1 C 561.8 -286.3, 452.0 -175.0, 678.4 -59.7 C 904.8 55.6, 795.5 -139.5, 935.4 162.3 C 1075.3 464.1, 1096.3 339.9, 1096.3 713.0 Z" fill="none" stroke="#FFFFFF" stroke-opacity="0.22" stroke-width="1.2"/>
  <path d="M 668.0 1595.0 C 668.0 1973.5, 746.8 1818.9, 670.4 2125.1 C 593.9 2431.2, 636.5 2364.5, 512.8 2481.4 C 389.1 2598.4, 444.3 2565.4, 320.6 2448.5 C 196.9 2331.5, 256.1 2390.6, 179.7 2084.5 C 103.3 1778.3, 149.3 1973.5, 149.3 1595.0 C 149.3 1216.5, 128.1 1411.1, 204.5 1104.9 C 281.0 798.7, 206.3 879.8, 330.0 762.9 C 453.7 645.9, 384.2 685.8, 507.9 802.7 C 631.5 919.7, 576.4 796.0, 652.9 1102.2 C 729.3 1408.4, 668.0 1216.5, 668.0 1595.0 Z" fill="#A7CCFF" opacity="0.12" stroke="#A7CCFF" stroke-opacity="0.46" stroke-width="3" filter="url(#soft_crm_12_1744)"/>
  <path d="M 668.0 1595.0 C 668.0 1973.5, 746.8 1818.9, 670.4 2125.1 C 593.9 2431.2, 636.5 2364.5, 512.8 2481.4 C 389.1 2598.4, 444.3 2565.4, 320.6 2448.5 C 196.9 2331.5, 256.1 2390.6, 179.7 2084.5 C 103.3 1778.3, 149.3 1973.5, 149.3 1595.0 C 149.3 1216.5, 128.1 1411.1, 204.5 1104.9 C 281.0 798.7, 206.3 879.8, 330.0 762.9 C 453.7 645.9, 384.2 685.8, 507.9 802.7 C 631.5 919.7, 576.4 796.0, 652.9 1102.2 C 729.3 1408.4, 668.0 1216.5, 668.0 1595.0 Z" fill="none" stroke="#FFFFFF" stroke-opacity="0.22" stroke-width="1.2"/>
  <path d="M 1752.4 -185.0 C 1752.4 1.3, 1769.1 -72.3, 1622.0 78.5 C 1474.9 229.2, 1554.8 164.8, 1316.9 222.3 C 1078.9 279.9, 1212.0 321.1, 974.0 263.5 C 736.1 206.0, 888.8 241.0, 741.8 90.3 C 594.7 -60.4, 636.6 1.3, 636.6 -185.0 C 636.6 -371.3, 561.0 -308.2, 708.1 -458.9 C 855.2 -609.7, 741.3 -563.3, 979.2 -620.9 C 1217.2 -678.5, 1071.2 -590.2, 1309.1 -532.6 C 1547.1 -475.0, 1430.6 -585.6, 1577.6 -434.9 C 1724.7 -284.1, 1752.4 -371.3, 1752.4 -185.0 Z" fill="#F6F7FF" opacity="0.12" stroke="#FFFFFF" stroke-opacity="0.46" stroke-width="3" filter="url(#soft_crm_12_1744)"/>
  <path d="M 1752.4 -185.0 C 1752.4 1.3, 1769.1 -72.3, 1622.0 78.5 C 1474.9 229.2, 1554.8 164.8, 1316.9 222.3 C 1078.9 279.9, 1212.0 321.1, 974.0 263.5 C 736.1 206.0, 888.8 241.0, 741.8 90.3 C 594.7 -60.4, 636.6 1.3, 636.6 -185.0 C 636.6 -371.3, 561.0 -308.2, 708.1 -458.9 C 855.2 -609.7, 741.3 -563.3, 979.2 -620.9 C 1217.2 -678.5, 1071.2 -590.2, 1309.1 -532.6 C 1547.1 -475.0, 1430.6 -585.6, 1577.6 -434.9 C 1724.7 -284.1, 1752.4 -371.3, 1752.4 -185.0 Z" fill="none" stroke="#FFFFFF" stroke-opacity="0.22" stroke-width="1.2"/>
  <path d="M -100.0 329.4 Q 133.3 327.1, 366.7 -36.0 Q 600.0 -328.3, 833.3 -249.3 Q 1066.7 97.0, 1300.0 312.0" fill="none" stroke="#FFFFFF" stroke-opacity="0.38" stroke-width="4" filter="url(#soft_crm_12_1744)"/>
  <path d="M -100.0 329.4 Q 133.3 327.1, 366.7 -36.0 Q 600.0 -328.3, 833.3 -249.3 Q 1066.7 97.0, 1300.0 312.0" fill="none" stroke="#A7CCFF" stroke-opacity="0.18" stroke-width="2"/>
  <path d="M -100.0 2762.7 Q 133.3 2781.3, 366.7 2433.9 Q 600.0 2236.0, 833.3 2129.1 Q 1066.7 2363.1, 1300.0 2583.1" fill="none" stroke="#FFFFFF" stroke-opacity="0.38" stroke-width="4" filter="url(#soft_crm_12_1744)"/>
  <path d="M -100.0 2762.7 Q 133.3 2781.3, 366.7 2433.9 Q 600.0 2236.0, 833.3 2129.1 Q 1066.7 2363.1, 1300.0 2583.1" fill="none" stroke="#A7CCFF" stroke-opacity="0.18" stroke-width="2"/>
  <path d="M -100.0 1449.4 Q 133.3 1298.4, 366.7 1080.7 Q 600.0 938.9, 833.3 906.2 Q 1066.7 1123.3, 1300.0 1221.7" fill="none" stroke="#FFFFFF" stroke-opacity="0.38" stroke-width="4" filter="url(#soft_crm_12_1744)"/>
  <path d="M -100.0 1449.4 Q 133.3 1298.4, 366.7 1080.7 Q 600.0 938.9, 833.3 906.2 Q 1066.7 1123.3, 1300.0 1221.7" fill="none" stroke="#A7CCFF" stroke-opacity="0.18" stroke-width="2"/>
  <path d="M -100.0 458.6 Q 133.3 426.8, 366.7 852.6 Q 600.0 778.2, 833.3 331.3 Q 1066.7 448.0, 1300.0 788.4" fill="none" stroke="#FFFFFF" stroke-opacity="0.38" stroke-width="4" filter="url(#soft_crm_12_1744)"/>
  <path d="M -100.0 458.6 Q 133.3 426.8, 366.7 852.6 Q 600.0 778.2, 833.3 331.3 Q 1066.7 448.0, 1300.0 788.4" fill="none" stroke="#6DB6CF" stroke-opacity="0.18" stroke-width="2"/>
  <path d="M -100.0 1545.5 Q 133.3 1470.3, 366.7 1286.3 Q 600.0 1039.9, 833.3 1202.5 Q 1066.7 1545.8, 1300.0 1520.0" fill="none" stroke="#FFFFFF" stroke-opacity="0.38" stroke-width="4" filter="url(#soft_crm_12_1744)"/>
  <path d="M -100.0 1545.5 Q 133.3 1470.3, 366.7 1286.3 Q 600.0 1039.9, 833.3 1202.5 Q 1066.7 1545.8, 1300.0 1520.0" fill="none" stroke="#6DB6CF" stroke-opacity="0.18" stroke-width="2"/>
  <circle cx="285" cy="2636" r="85" fill="url(#orb_crm_12_1744)" opacity="0.36"/>
  <circle cx="285" cy="2636" r="85" fill="#FBFFFF" opacity="0.08"/>
  <circle cx="285" cy="2636" r="85" fill="none" stroke="#FFFFFF" stroke-opacity="0.56" stroke-width="3"/>
  <ellipse cx="261.2" cy="2605.4" rx="15.3" ry="6.8" fill="#FFFFFF" opacity="0.42" transform="rotate(-22 261.2 2605.4)"/>
  <circle cx="187" cy="1218" r="172" fill="url(#orb_crm_12_1744)" opacity="0.36"/>
  <circle cx="187" cy="1218" r="172" fill="#D5F4FF" opacity="0.08"/>
  <circle cx="187" cy="1218" r="172" fill="none" stroke="#FFFFFF" stroke-opacity="0.56" stroke-width="3"/>
  <ellipse cx="138.8" cy="1156.1" rx="31.0" ry="13.8" fill="#FFFFFF" opacity="0.42" transform="rotate(-22 138.8 1156.1)"/>
  <circle cx="40" cy="5" r="245" fill="url(#orb_crm_12_1744)" opacity="0.36"/>
  <circle cx="40" cy="5" r="245" fill="#6DB6CF" opacity="0.08"/>
  <circle cx="40" cy="5" r="245" fill="none" stroke="#FFFFFF" stroke-opacity="0.56" stroke-width="3"/>
  <ellipse cx="-28.6" cy="-83.2" rx="44.1" ry="19.6" fill="#FFFFFF" opacity="0.42" transform="rotate(-22 -28.6 -83.2)"/>
  <circle cx="864" cy="942" r="231" fill="url(#orb_crm_12_1744)" opacity="0.21"/>
  <circle cx="864" cy="942" r="231" fill="#E9FFF1" opacity="0.08"/>
  <circle cx="864" cy="942" r="231" fill="none" stroke="#FFFFFF" stroke-opacity="0.56" stroke-width="3"/>
  <ellipse cx="799.3" cy="858.8" rx="41.6" ry="18.5" fill="#FFFFFF" opacity="0.42" transform="rotate(-22 799.3 858.8)"/>
  <circle cx="1022" cy="2322" r="279" fill="url(#orb_crm_12_1744)" opacity="0.28"/>
  <circle cx="1022" cy="2322" r="279" fill="#6DB6CF" opacity="0.08"/>
  <circle cx="1022" cy="2322" r="279" fill="none" stroke="#FFFFFF" stroke-opacity="0.56" stroke-width="3"/>
  <ellipse cx="943.9" cy="2221.6" rx="50.2" ry="22.3" fill="#FFFFFF" opacity="0.42" transform="rotate(-22 943.9 2221.6)"/>
  <circle cx="244" cy="552" r="92" fill="url(#orb_crm_12_1744)" opacity="0.25"/>
  <circle cx="244" cy="552" r="92" fill="#9EE2C2" opacity="0.08"/>
  <circle cx="244" cy="552" r="92" fill="none" stroke="#FFFFFF" stroke-opacity="0.56" stroke-width="3"/>
  <ellipse cx="218.2" cy="518.9" rx="16.6" ry="7.4" fill="#FFFFFF" opacity="0.42" transform="rotate(-22 218.2 518.9)"/>
  <circle cx="762" cy="1483" r="105" fill="url(#orb_crm_12_1744)" opacity="0.24"/>
  <circle cx="762" cy="1483" r="105" fill="#A7CCFF" opacity="0.08"/>
  <circle cx="762" cy="1483" r="105" fill="none" stroke="#FFFFFF" stroke-opacity="0.56" stroke-width="3"/>
  <ellipse cx="732.6" cy="1445.2" rx="18.9" ry="8.4" fill="#FFFFFF" opacity="0.42" transform="rotate(-22 732.6 1445.2)"/>
  <circle cx="192" cy="2319" r="5" fill="#FFFFFF" opacity="0.51"/>
  <circle cx="817" cy="898" r="3" fill="#FFFFFF" opacity="0.55"/>
  <circle cx="1148" cy="159" r="2" fill="#FFFFFF" opacity="0.71"/>
  <circle cx="50" cy="1329" r="2" fill="#FFFFFF" opacity="0.54"/>
  <circle cx="653" cy="2183" r="4" fill="#FFFFFF" opacity="0.34"/>
  <circle cx="1026" cy="1286" r="3" fill="#FFFFFF" opacity="0.50"/>
  <circle cx="722" cy="1366" r="2" fill="#FFFFFF" opacity="0.31"/>
  <circle cx="155" cy="937" r="4" fill="#FFFFFF" opacity="0.39"/>
  <circle cx="1044" cy="977" r="4" fill="#FFFFFF" opacity="0.32"/>
  <circle cx="1123" cy="2341" r="2" fill="#FFFFFF" opacity="0.30"/>
  <circle cx="966" cy="157" r="5" fill="#FFFFFF" opacity="0.38"/>
  <circle cx="332" cy="1996" r="4" fill="#FFFFFF" opacity="0.35"/>
  <circle cx="657" cy="784" r="3" fill="#FFFFFF" opacity="0.39"/>
  <circle cx="1119" cy="1232" r="7" fill="#FFFFFF" opacity="0.71"/>
  <rect width="1200" height="2600" fill="#FFFFFF" opacity="0.08"/>
  <rect width="1200" height="2600" filter="url(#grain_crm_12_1744)" opacity="0.7"/>
</svg>
