<svg xmlns="http://www.w3.org/2000/svg" width="1200" height="2600" viewBox="0 0 1200 2600" preserveAspectRatio="xMidYMid slice">
  <defs>
    <linearGradient id="bg_achievements_17_2287" x1="0" y1="0" x2="1" y2="1">
      <stop offset="0%" stop-color="#C9FFF2"/>
      <stop offset="48%" stop-color="#D8E8FF"/>
      <stop offset="100%" stop-color="#FAFFFB"/>
    </linearGradient>
    <radialGradient id="orb_achievements_17_2287" cx="35%" cy="30%" r="70%">
      <stop offset="0%" stop-color="#FFFFFF" stop-opacity="0.85"/>
      <stop offset="42%" stop-color="#FFFFFF" stop-opacity="0.20"/>
      <stop offset="100%" stop-color="#FFFFFF" stop-opacity="0.02"/>
    </radialGradient>
    <filter id="blur_achievements_17_2287" x="-30%" y="-30%" width="160%" height="160%">
      <feGaussianBlur stdDeviation="72"/>
    </filter>
    <filter id="soft_achievements_17_2287" x="-20%" y="-20%" width="140%" height="140%">
      <feGaussianBlur stdDeviation="10"/>
    </filter>
    <filter id="grain_achievements_17_2287">
      <feTurbulence type="fractalNoise" baseFrequency="0.85" numOctaves="2" stitchTiles="stitch"/>
      <feColorMatrix type="saturate" values="0"/>
      <feComponentTransfer>
        <feFuncA type="table" tableValues="0 0.035"/>
      </feComponentTransfer>
    </filter>
  </defs>
  <rect width="1200" height="2600" fill="url(#bg_achievements_17_2287)"/>
  <path d="M 1320.4 2482.0 C 1320.4 2778.6, 1369.8 2705.7, 1209.3 2932.9 C 1048.8 3160.1, 1127.0 2998.1, 881.1 3049.6 C 635.1 3101.1, 684.1 3118.6, 467.8 2970.3 C 251.5 2822.1, 375.2 3007.2, 289.8 2728.6 C 204.4 2449.9, 197.2 2540.8, 282.6 2262.1 C 368.1 1983.4, 230.1 2081.3, 446.4 1933.0 C 662.7 1784.7, 627.9 1683.8, 873.9 1735.3 C 1119.8 1786.8, 1099.9 1894.0, 1260.4 2121.2 C 1421.0 2348.4, 1320.4 2185.4, 1320.4 2482.0 Z" fill="#38D5C7" opacity="0.32" filter="url(#blur_achievements_17_2287)"/>
  <path d="M 1186.2 780.0 C 1186.2 1063.5, 1202.9 922.6, 1115.3 1139.8 C 1027.6 1356.9, 1078.6 1365.6, 944.3 1414.8 C 810.0 1464.0, 873.5 1515.2, 755.4 1373.5 C 637.3 1231.7, 687.8 1258.1, 641.2 991.7 C 594.5 725.2, 540.5 822.9, 587.2 556.5 C 633.8 290.1, 620.7 467.2, 738.8 325.5 C 856.9 183.7, 806.2 79.7, 940.4 128.9 C 1074.7 178.1, 995.0 123.7, 1082.6 340.9 C 1170.3 558.1, 1186.2 496.5, 1186.2 780.0 Z" fill="#C9FFF2" opacity="0.34" filter="url(#blur_achievements_17_2287)"/>
  <path d="M 680.7 146.0 C 680.7 369.2, 757.6 277.9, 660.9 448.8 C 564.3 619.8, 594.2 571.1, 446.2 609.9 C 298.2 648.6, 371.3 639.4, 241.1 527.8 C 111.0 416.2, 128.3 553.5, 76.9 343.8 C 25.4 134.0, 40.2 187.4, 91.6 -22.3 C 143.0 -232.1, 74.6 -142.6, 204.8 -254.2 C 334.9 -365.8, 302.1 -389.3, 450.1 -350.6 C 598.1 -311.8, 577.0 -362.2, 673.6 -191.2 C 770.2 -20.2, 680.7 -77.2, 680.7 146.0 Z" fill="#7EE56D" opacity="0.20" filter="url(#blur_achievements_17_2287)"/>
  <path d="M 776.6 2696.0 C 776.6 3005.2, 806.1 2848.9, 654.2 3085.8 C 502.3 3322.6, 500.0 3304.0, 267.4 3357.7 C 34.7 3411.4, 167.7 3530.1, -36.9 3375.5 C -241.5 3221.0, -295.0 3254.5, -375.8 2964.0 C -456.6 2673.5, -442.1 2733.7, -361.3 2443.2 C -280.5 2152.7, -283.7 2227.4, -79.1 2072.9 C 125.5 1918.3, 48.9 2072.0, 281.5 2125.7 C 514.2 2179.4, 474.2 2007.3, 626.1 2244.1 C 778.0 2480.9, 776.6 2386.8, 776.6 2696.0 Z" fill="#DFFFD3" opacity="0.26" filter="url(#blur_achievements_17_2287)"/>
  <path d="M 728.0 2842.0 C 728.0 3001.8, 803.2 2981.0, 649.6 3103.4 C 496.0 3225.8, 519.2 3114.9, 283.9 3142.6 C 48.6 3170.3, 172.6 3267.6, -34.3 3187.7 C -241.2 3107.8, -189.0 3111.8, -270.8 2961.6 C -352.5 2811.5, -427.7 2883.3, -346.0 2733.2 C -264.3 2583.1, -311.9 2559.8, -104.9 2479.9 C 102.0 2400.0, 40.1 2502.5, 275.4 2530.2 C 510.7 2557.9, 497.6 2451.0, 651.2 2573.4 C 804.8 2695.7, 728.0 2682.2, 728.0 2842.0 Z" fill="#7EE56D" opacity="0.26" filter="url(#blur_achievements_17_2287)"/>
  <path d="M 421.7 2487.0 C 421.7 2643.2, 377.5 2610.1, 230.9 2729.7 C 84.2 2849.3, 155.4 2755.4, -69.3 2782.5 C -293.9 2809.6, -234.9 2834.8, -432.4 2756.8 C -630.0 2678.7, -506.4 2741.8, -584.4 2595.1 C -662.4 2448.4, -683.8 2529.6, -605.8 2382.9 C -527.8 2236.2, -569.1 2245.0, -371.6 2166.9 C -174.0 2088.9, -308.1 2130.2, -83.4 2157.3 C 141.3 2184.5, 78.2 2112.9, 224.8 2232.5 C 371.5 2352.2, 421.7 2330.8, 421.7 2487.0 Z" fill="#C9FFF2" opacity="0.26" filter="url(#blur_achievements_17_2287)"/>
  <path d="M 1587.7 2317.0 C 1587.7 2601.4, 1582.2 2469.0, 1420.5 2686.8 C 1258.8 2904.7, 1371.7 2904.4, 1123.9 2953.8 C 876.2 3003.2, 980.2 3014.3, 762.3 2872.1 C 544.5 2729.9, 646.6 2769.3, 560.5 2502.0 C 474.5 2234.8, 466.8 2337.6, 552.9 2070.3 C 638.9 1803.1, 554.9 1840.6, 772.7 1698.4 C 990.6 1556.2, 852.7 1567.1, 1100.4 1616.5 C 1348.2 1665.9, 1354.6 1655.3, 1516.3 1873.1 C 1678.0 2091.0, 1587.7 2032.6, 1587.7 2317.0 Z" fill="#FAFFFB" opacity="0.30" filter="url(#blur_achievements_17_2287)"/>
  <path d="M 1670.4 2704.0 C 1670.4 2859.7, 1736.4 2787.7, 1634.9 2907.0 C 1533.3 3026.2, 1600.8 2984.4, 1445.3 3011.4 C 1289.7 3038.5, 1345.3 3117.5, 1208.5 3039.6 C 1071.7 2961.8, 1049.9 2967.7, 995.9 2821.4 C 941.8 2675.1, 1045.9 2740.9, 1100.0 2594.6 C 1154.0 2448.3, 1056.7 2512.1, 1193.4 2434.3 C 1330.2 2356.4, 1286.4 2344.0, 1442.0 2371.0 C 1597.5 2398.1, 1542.0 2369.4, 1643.5 2488.6 C 1745.0 2607.9, 1670.4 2548.3, 1670.4 2704.0 Z" fill="#A7F3EF" opacity="0.19" filter="url(#blur_achievements_17_2287)"/>
  <path d="M 667.5 2609.0 C 667.5 2838.5, 658.4 2754.1, 574.0 2929.9 C 489.5 3105.7, 538.2 3068.1, 408.8 3107.9 C 279.4 3147.8, 302.2 3244.2, 188.4 3129.4 C 74.6 3014.7, 80.2 3015.3, 35.3 2799.7 C -9.7 2584.0, 47.8 2634.0, 92.7 2418.3 C 137.7 2202.6, 114.7 2351.8, 228.5 2237.0 C 342.3 2122.3, 266.5 1991.9, 395.9 2031.7 C 525.3 2071.6, 513.0 2077.0, 597.5 2252.8 C 682.0 2428.6, 667.5 2379.5, 667.5 2609.0 Z" fill="#DFFFD3" opacity="0.25" filter="url(#blur_achievements_17_2287)"/>
  <path d="M 1625.6 1580.0 C 1625.6 1785.2, 1586.0 1704.2, 1466.0 1861.4 C 1346.0 2018.6, 1407.1 1963.1, 1223.2 1998.7 C 1039.3 2034.4, 1114.2 2033.8, 952.5 1931.2 C 790.7 1828.6, 824.0 1944.0, 760.1 1751.1 C 696.2 1558.3, 731.4 1601.8, 795.3 1408.9 C 859.2 1216.1, 825.4 1250.2, 987.1 1147.6 C 1148.8 1045.0, 1045.2 1100.4, 1229.1 1136.0 C 1413.0 1171.6, 1363.4 1148.1, 1483.4 1305.3 C 1603.5 1462.5, 1625.6 1374.8, 1625.6 1580.0 Z" fill="#C9FFF2" opacity="0.35" filter="url(#blur_achievements_17_2287)"/>
  <path d="M 269.0 2101.0 C 269.0 2388.6, 338.9 2284.7, 236.1 2517.3 C 133.2 2749.9, 207.6 2541.2, 41.2 2630.1 C -125.3 2718.9, -32.4 2757.0, -198.9 2668.2 C -365.4 2579.3, -317.5 2667.1, -420.4 2434.5 C -523.3 2201.8, -511.0 2388.6, -511.0 2101.0 C -511.0 1813.5, -486.6 1969.0, -383.7 1736.4 C -280.8 1503.8, -397.3 1554.1, -230.9 1465.3 C -64.4 1376.4, -128.6 1412.7, 37.9 1501.6 C 204.4 1590.4, 124.7 1458.9, 227.6 1691.5 C 330.5 1924.1, 269.0 1813.5, 269.0 2101.0 Z" fill="#DFFFD3" opacity="0.12" stroke="#FFFFFF" stroke-opacity="0.46" stroke-width="3" filter="url(#soft_achievements_17_2287)"/>
  <path d="M 269.0 2101.0 C 269.0 2388.6, 338.9 2284.7, 236.1 2517.3 C 133.2 2749.9, 207.6 2541.2, 41.2 2630.1 C -125.3 2718.9, -32.4 2757.0, -198.9 2668.2 C -365.4 2579.3, -317.5 2667.1, -420.4 2434.5 C -523.3 2201.8, -511.0 2388.6, -511.0 2101.0 C -511.0 1813.5, -486.6 1969.0, -383.7 1736.4 C -280.8 1503.8, -397.3 1554.1, -230.9 1465.3 C -64.4 1376.4, -128.6 1412.7, 37.9 1501.6 C 204.4 1590.4, 124.7 1458.9, 227.6 1691.5 C 330.5 1924.1, 269.0 1813.5, 269.0 2101.0 Z" fill="none" stroke="#FFFFFF" stroke-opacity="0.22" stroke-width="1.2"/>
  <path d="M 673.5 1136.0 C 673.5 1398.8, 667.6 1238.2, 532.2 1450.8 C 396.8 1663.4, 514.7 1577.1, 295.6 1658.3 C 76.5 1739.5, 202.5 1782.5, -16.7 1701.3 C -235.8 1620.0, -87.6 1654.5, -223.0 1441.9 C -358.4 1229.3, -392.1 1398.8, -392.1 1136.0 C -392.1 873.2, -376.2 986.6, -240.8 774.0 C -105.3 561.4, -243.6 607.1, -24.5 525.8 C 194.6 444.6, 78.6 439.1, 297.7 520.3 C 516.8 601.5, 377.5 578.0, 512.9 790.6 C 648.3 1003.3, 673.5 873.2, 673.5 1136.0 Z" fill="#FAFFFB" opacity="0.12" stroke="#FFFFFF" stroke-opacity="0.46" stroke-width="3" filter="url(#soft_achievements_17_2287)"/>
  <path d="M 673.5 1136.0 C 673.5 1398.8, 667.6 1238.2, 532.2 1450.8 C 396.8 1663.4, 514.7 1577.1, 295.6 1658.3 C 76.5 1739.5, 202.5 1782.5, -16.7 1701.3 C -235.8 1620.0, -87.6 1654.5, -223.0 1441.9 C -358.4 1229.3, -392.1 1398.8, -392.1 1136.0 C -392.1 873.2, -376.2 986.6, -240.8 774.0 C -105.3 561.4, -243.6 607.1, -24.5 525.8 C 194.6 444.6, 78.6 439.1, 297.7 520.3 C 516.8 601.5, 377.5 578.0, 512.9 790.6 C 648.3 1003.3, 673.5 873.2, 673.5 1136.0 Z" fill="none" stroke="#FFFFFF" stroke-opacity="0.22" stroke-width="1.2"/>
  <path d="M 884.8 2560.0 C 884.8 2847.1, 1008.2 2740.9, 830.9 2973.2 C 653.7 3205.4, 778.2 2997.5, 491.4 3086.2 C 204.7 3174.9, 373.1 3191.1, 86.3 3102.4 C -200.4 3013.7, -7.9 3174.6, -185.2 2942.3 C -362.4 2710.1, -472.8 2847.1, -472.8 2560.0 C -472.8 2272.9, -496.3 2389.3, -319.1 2157.1 C -141.8 1924.8, -193.1 2087.7, 93.6 1998.9 C 380.4 1910.2, 197.9 1943.7, 484.6 2032.4 C 771.4 2121.1, 646.9 1959.7, 824.2 2192.0 C 1001.4 2424.2, 884.8 2272.9, 884.8 2560.0 Z" fill="#38D5C7" opacity="0.12" stroke="#38D5C7" stroke-opacity="0.46" stroke-width="3" filter="url(#soft_achievements_17_2287)"/>
  <path d="M 884.8 2560.0 C 884.8 2847.1, 1008.2 2740.9, 830.9 2973.2 C 653.7 3205.4, 778.2 2997.5, 491.4 3086.2 C 204.7 3174.9, 373.1 3191.1, 86.3 3102.4 C -200.4 3013.7, -7.9 3174.6, -185.2 2942.3 C -362.4 2710.1, -472.8 2847.1, -472.8 2560.0 C -472.8 2272.9, -496.3 2389.3, -319.1 2157.1 C -141.8 1924.8, -193.1 2087.7, 93.6 1998.9 C 380.4 1910.2, 197.9 1943.7, 484.6 2032.4 C 771.4 2121.1, 646.9 1959.7, 824.2 2192.0 C 1001.4 2424.2, 884.8 2272.9, 884.8 2560.0 Z" fill="none" stroke="#FFFFFF" stroke-opacity="0.22" stroke-width="1.2"/>
  <path d="M 1364.5 1131.0 C 1364.5 1441.0, 1466.2 1267.3, 1301.9 1518.1 C 1137.7 1769.0, 1287.9 1647.0, 1022.1 1742.8 C 756.3 1838.6, 904.6 1812.9, 638.8 1717.1 C 373.1 1621.3, 497.1 1842.8, 332.9 1592.0 C 168.6 1341.1, 168.0 1441.0, 168.0 1131.0 C 168.0 821.0, 158.4 930.0, 322.7 679.1 C 486.9 428.3, 362.6 618.5, 628.3 522.7 C 894.1 426.9, 713.7 424.8, 979.5 520.6 C 1245.3 616.4, 1181.8 458.2, 1346.0 709.0 C 1510.3 959.8, 1364.5 821.0, 1364.5 1131.0 Z" fill="#7EE56D" opacity="0.12" stroke="#FFFFFF" stroke-opacity="0.46" stroke-width="3" filter="url(#soft_achievements_17_2287)"/>
  <path d="M 1364.5 1131.0 C 1364.5 1441.0, 1466.2 1267.3, 1301.9 1518.1 C 1137.7 1769.0, 1287.9 1647.0, 1022.1 1742.8 C 756.3 1838.6, 904.6 1812.9, 638.8 1717.1 C 373.1 1621.3, 497.1 1842.8, 332.9 1592.0 C 168.6 1341.1, 168.0 1441.0, 168.0 1131.0 C 168.0 821.0, 158.4 930.0, 322.7 679.1 C 486.9 428.3, 362.6 618.5, 628.3 522.7 C 894.1 426.9, 713.7 424.8, 979.5 520.6 C 1245.3 616.4, 1181.8 458.2, 1346.0 709.0 C 1510.3 959.8, 1364.5 821.0, 1364.5 1131.0 Z" fill="none" stroke="#FFFFFF" stroke-opacity="0.22" stroke-width="1.2"/>
  <path d="M -100.0 376.1 Q 133.3 449.5, 366.7 94.8 Q 600.0 -100.4, 833.3 44.5 Q 1066.7 424.8, 1300.0 465.6" fill="none" stroke="#FFFFFF" stroke-opacity="0.38" stroke-width="4" filter="url(#soft_achievements_17_2287)"/>
  <path d="M -100.0 376.1 Q 133.3 449.5, 366.7 94.8 Q 600.0 -100.4, 833.3 44.5 Q 1066.7 424.8, 1300.0 465.6" fill="none" stroke="#38D5C7" stroke-opacity="0.18" stroke-width="2"/>
  <path d="M -100.0 2323.5 Q 133.3 2322.5, 366.7 2251.0 Q 600.0 2308.3, 833.3 2410.2 Q 1066.7 2554.3, 1300.0 2499.3" fill="none" stroke="#FFFFFF" stroke-opacity="0.38" stroke-width="4" filter="url(#soft_achievements_17_2287)"/>
  <path d="M -100.0 2323.5 Q 133.3 2322.5, 366.7 2251.0 Q 600.0 2308.3, 833.3 2410.2 Q 1066.7 2554.3, 1300.0 2499.3" fill="none" stroke="#80B9FF" stroke-opacity="0.18" stroke-width="2"/>
  <path d="M -100.0 349.0 Q 133.3 373.9, 366.7 545.2 Q 600.0 631.2, 833.3 612.5 Q 1066.7 470.9, 1300.0 283.6" fill="none" stroke="#FFFFFF" stroke-opacity="0.38" stroke-width="4" filter="url(#soft_achievements_17_2287)"/>
  <path d="M -100.0 349.0 Q 133.3 373.9, 366.7 545.2 Q 600.0 631.2, 833.3 612.5 Q 1066.7 470.9, 1300.0 283.6" fill="none" stroke="#38D5C7" stroke-opacity="0.18" stroke-width="2"/>
  <path d="M -100.0 492.0 Q 133.3 453.3, 366.7 395.6 Q 600.0 223.5, 833.3 108.4 Q 1066.7 169.3, 1300.0 234.5" fill="none" stroke="#FFFFFF" stroke-opacity="0.38" stroke-width="4" filter="url(#soft_achievements_17_2287)"/>
  <path d="M -100.0 492.0 Q 133.3 453.3, 366.7 395.6 Q 600.0 223.5, 833.3 108.4 Q 1066.7 169.3, 1300.0 234.5" fill="none" stroke="#7EE56D" stroke-opacity="0.18" stroke-width="2"/>
  <path d="M -100.0 2080.4 Q 133.3 2461.4, 366.7 2658.7 Q 600.0 2684.1, 833.3 2533.8 Q 1066.7 2143.4, 1300.0 2079.4" fill="none" stroke="#FFFFFF" stroke-opacity="0.38" stroke-width="4" filter="url(#soft_achievements_17_2287)"/>
  <path d="M -100.0 2080.4 Q 133.3 2461.4, 366.7 2658.7 Q 600.0 2684.1, 833.3 2533.8 Q 1066.7 2143.4, 1300.0 2079.4" fill="none" stroke="#7EE56D" stroke-opacity="0.18" stroke-width="2"/>
  <circle cx="242" cy="988" r="226" fill="url(#orb_achievements_17_2287)" opacity="0.36"/>
  <circle cx="242" cy="988" r="226" fill="#80B9FF" opacity="0.08"/>
  <circle cx="242" cy="988" r="226" fill="none" stroke="#FFFFFF" stroke-opacity="0.56" stroke-width="3"/>
  <ellipse cx="178.7" cy="906.6" rx="40.7" ry="18.1" fill="#FFFFFF" opacity="0.42" transform="rotate(-22 178.7 906.6)"/>
  <circle cx="201" cy="-102" r="248" fill="url(#orb_achievements_17_2287)" opacity="0.36"/>
  <circle cx="201" cy="-102" r="248" fill="#FAFFFB" opacity="0.08"/>
  <circle cx="201" cy="-102" r="248" fill="none" stroke="#FFFFFF" stroke-opacity="0.56" stroke-width="3"/>
  <ellipse cx="131.6" cy="-191.3" rx="44.6" ry="19.8" fill="#FFFFFF" opacity="0.42" transform="rotate(-22 131.6 -191.3)"/>
  <circle cx="605" cy="973" r="131" fill="url(#orb_achievements_17_2287)" opacity="0.36"/>
  <circle cx="605" cy="973" r="131" fill="#38D5C7" opacity="0.08"/>
  <circle cx="605" cy="973" r="131" fill="none" stroke="#FFFFFF" stroke-opacity="0.56" stroke-width="3"/>
  <ellipse cx="568.3" cy="925.8" rx="23.6" ry="10.5" fill="#FFFFFF" opacity="0.42" transform="rotate(-22 568.3 925.8)"/>
  <circle cx="659" cy="811" r="191" fill="url(#orb_achievements_17_2287)" opacity="0.25"/>
  <circle cx="659" cy="811" r="191" fill="#A7F3EF" opacity="0.08"/>
  <circle cx="659" cy="811" r="191" fill="none" stroke="#FFFFFF" stroke-opacity="0.56" stroke-width="3"/>
  <ellipse cx="605.5" cy="742.2" rx="34.4" ry="15.3" fill="#FFFFFF" opacity="0.42" transform="rotate(-22 605.5 742.2)"/>
  <circle cx="958" cy="669" r="275" fill="url(#orb_achievements_17_2287)" opacity="0.26"/>
  <circle cx="958" cy="669" r="275" fill="#80B9FF" opacity="0.08"/>
  <circle cx="958" cy="669" r="275" fill="none" stroke="#FFFFFF" stroke-opacity="0.56" stroke-width="3"/>
  <ellipse cx="881.0" cy="570.0" rx="49.5" ry="22.0" fill="#FFFFFF" opacity="0.42" transform="rotate(-22 881.0 570.0)"/>
  <circle cx="688" cy="-20" r="93" fill="url(#orb_achievements_17_2287)" opacity="0.22"/>
  <circle cx="688" cy="-20" r="93" fill="#DFFFD3" opacity="0.08"/>
  <circle cx="688" cy="-20" r="93" fill="none" stroke="#FFFFFF" stroke-opacity="0.56" stroke-width="3"/>
  <ellipse cx="662.0" cy="-53.5" rx="16.7" ry="7.4" fill="#FFFFFF" opacity="0.42" transform="rotate(-22 662.0 -53.5)"/>
  <circle cx="1248" cy="975" r="236" fill="url(#orb_achievements_17_2287)" opacity="0.20"/>
  <circle cx="1248" cy="975" r="236" fill="#D8E8FF" opacity="0.08"/>
  <circle cx="1248" cy="975" r="236" fill="none" stroke="#FFFFFF" stroke-opacity="0.56" stroke-width="3"/>
  <ellipse cx="1181.9" cy="890.0" rx="42.5" ry="18.9" fill="#FFFFFF" opacity="0.42" transform="rotate(-22 1181.9 890.0)"/>
  <circle cx="-54" cy="1201" r="243" fill="url(#orb_achievements_17_2287)" opacity="0.18"/>
  <circle cx="-54" cy="1201" r="243" fill="#DFFFD3" opacity="0.08"/>
  <circle cx="-54" cy="1201" r="243" fill="none" stroke="#FFFFFF" stroke-opacity="0.56" stroke-width="3"/>
  <ellipse cx="-122.0" cy="1113.5" rx="43.7" ry="19.4" fill="#FFFFFF" opacity="0.42" transform="rotate(-22 -122.0 1113.5)"/>
  <circle cx="879" cy="353" r="153" fill="url(#orb_achievements_17_2287)" opacity="0.19"/>
  <circle cx="879" cy="353" r="153" fill="#FAFFFB" opacity="0.08"/>
  <circle cx="879" cy="353" r="153" fill="none" stroke="#FFFFFF" stroke-opacity="0.56" stroke-width="3"/>
  <ellipse cx="836.2" cy="297.9" rx="27.5" ry="12.2" fill="#FFFFFF" opacity="0.42" transform="rotate(-22 836.2 297.9)"/>
  <circle cx="112" cy="1317" r="4" fill="#FFFFFF" opacity="0.57"/>
  <circle cx="992" cy="2202" r="3" fill="#FFFFFF" opacity="0.30"/>
  <circle cx="762" cy="485" r="3" fill="#FFFFFF" opacity="0.42"/>
  <circle cx="820" cy="440" r="5" fill="#FFFFFF" opacity="0.49"/>
  <circle cx="631" cy="447" r="3" fill="#FFFFFF" opacity="0.52"/>
  <circle cx="447" cy="1809" r="7" fill="#FFFFFF" opacity="0.38"/>
  <circle cx="105" cy="829" r="3" fill="#FFFFFF" opacity="0.71"/>
  <circle cx="795" cy="2452" r="7" fill="#FFFFFF" opacity="0.33"/>
  <circle cx="605" cy="1955" r="2" fill="#FFFFFF" opacity="0.59"/>
  <circle cx="1161" cy="633" r="2" fill="#FFFFFF" opacity="0.54"/>
  <circle cx="85" cy="511" r="4" fill="#FFFFFF" opacity="0.67"/>
  <circle cx="285" cy="1864" r="3" fill="#FFFFFF" opacity="0.37"/>
  <circle cx="781" cy="111" r="5" fill="#FFFFFF" opacity="0.50"/>
  <circle cx="867" cy="2445" r="5" fill="#FFFFFF" opacity="0.37"/>
  <rect width="1200" height="2600" fill="#FFFFFF" opacity="0.08"/>
  <rect width="1200" height="2600" filter="url(#grain_achievements_17_2287)" opacity="0.7"/>
</svg>
