<svg xmlns="http://www.w3.org/2000/svg" width="1200" height="2600" viewBox="0 0 1200 2600" preserveAspectRatio="xMidYMid slice">
  <defs>
    <linearGradient id="bg_achievements_18_2298" x1="0" y1="0" x2="1" y2="1">
      <stop offset="0%" stop-color="#FAFFFB"/>
      <stop offset="48%" stop-color="#DFFFD3"/>
      <stop offset="100%" stop-color="#D8E8FF"/>
    </linearGradient>
    <radialGradient id="orb_achievements_18_2298" cx="35%" cy="30%" r="70%">
      <stop offset="0%" stop-color="#FFFFFF" stop-opacity="0.85"/>
      <stop offset="42%" stop-color="#FFFFFF" stop-opacity="0.20"/>
      <stop offset="100%" stop-color="#FFFFFF" stop-opacity="0.02"/>
    </radialGradient>
    <filter id="blur_achievements_18_2298" x="-30%" y="-30%" width="160%" height="160%">
      <feGaussianBlur stdDeviation="72"/>
    </filter>
    <filter id="soft_achievements_18_2298" x="-20%" y="-20%" width="140%" height="140%">
      <feGaussianBlur stdDeviation="10"/>
    </filter>
    <filter id="grain_achievements_18_2298">
      <feTurbulence type="fractalNoise" baseFrequency="0.85" numOctaves="2" stitchTiles="stitch"/>
      <feColorMatrix type="saturate" values="0"/>
      <feComponentTransfer>
        <feFuncA type="table" tableValues="0 0.035"/>
      </feComponentTransfer>
    </filter>
  </defs>
  <rect width="1200" height="2600" fill="url(#bg_achievements_18_2298)"/>
  <path d="M 1782.3 145.0 C 1782.3 445.2, 1678.1 420.2, 1548.2 650.1 C 1418.3 880.0, 1549.5 761.6, 1350.6 813.7 C 1151.6 865.8, 1186.4 796.7, 1011.4 646.7 C 836.4 496.6, 836.9 647.3, 767.8 365.2 C 698.7 83.2, 756.2 184.5, 825.4 -97.5 C 894.5 -379.6, 879.8 -369.1, 1054.8 -519.2 C 1229.8 -669.2, 1140.0 -505.1, 1338.9 -453.0 C 1537.9 -400.9, 1531.7 -479.7, 1661.6 -249.8 C 1791.5 -19.8, 1782.3 -155.2, 1782.3 145.0 Z" fill="#C9FFF2" opacity="0.30" filter="url(#blur_achievements_18_2298)"/>
  <path d="M 583.3 1569.0 C 583.3 1862.4, 548.0 1760.6, 454.2 1985.4 C 360.5 2210.1, 436.3 2105.7, 292.7 2156.6 C 149.1 2207.6, 196.0 2248.1, 69.7 2101.4 C -56.5 1954.7, -5.8 2095.6, -55.7 1819.9 C -105.5 1544.2, -151.4 1587.0, -101.5 1311.3 C -51.7 1035.6, -23.3 1154.3, 103.0 1007.6 C 229.2 860.9, 140.2 912.9, 283.8 963.9 C 427.4 1014.8, 370.0 901.6, 463.8 1126.3 C 557.5 1351.1, 583.3 1275.6, 583.3 1569.0 Z" fill="#A7F3EF" opacity="0.21" filter="url(#blur_achievements_18_2298)"/>
  <path d="M 1518.1 818.0 C 1518.1 968.8, 1527.6 931.9, 1385.0 1047.4 C 1242.4 1162.8, 1254.7 1164.2, 1036.2 1190.4 C 817.7 1216.6, 927.4 1235.0, 735.3 1159.7 C 543.1 1084.3, 491.8 1064.1, 415.9 922.4 C 340.1 780.8, 436.8 853.1, 512.7 711.4 C 588.5 569.7, 499.9 632.1, 692.0 556.7 C 884.1 481.3, 800.1 478.8, 1018.6 505.0 C 1237.1 531.2, 1172.7 469.4, 1315.3 584.9 C 1457.9 700.3, 1518.1 667.2, 1518.1 818.0 Z" fill="#DFFFD3" opacity="0.24" filter="url(#blur_achievements_18_2298)"/>
  <path d="M 220.5 113.0 C 220.5 282.2, 198.7 231.1, 124.6 360.7 C 50.6 490.3, 96.2 510.0, -17.3 539.4 C -130.7 568.8, -64.6 572.7, -164.4 488.1 C -264.2 403.5, -302.8 384.2, -342.2 225.2 C -381.6 66.2, -318.8 158.1, -279.4 -0.9 C -240.0 -159.9, -285.4 -164.8, -185.6 -249.4 C -85.8 -334.0, -130.8 -349.4, -17.4 -320.0 C 96.1 -290.6, 36.7 -219.5, 110.7 -89.9 C 184.8 39.7, 220.5 -56.2, 220.5 113.0 Z" fill="#80B9FF" opacity="0.32" filter="url(#blur_achievements_18_2298)"/>
  <path d="M 816.1 2277.0 C 816.1 2495.2, 748.8 2427.3, 603.0 2594.5 C 457.2 2761.7, 555.8 2782.3, 332.4 2820.2 C 109.1 2858.1, 237.7 2866.6, 41.3 2757.5 C -155.1 2648.3, -184.0 2670.0, -261.6 2464.9 C -339.1 2259.8, -361.7 2334.3, -284.2 2129.2 C -206.6 1924.1, -167.6 2021.3, 28.8 1912.1 C 225.2 1803.0, 121.3 1714.7, 344.6 1752.6 C 568.0 1790.5, 496.7 1794.8, 642.4 1962.0 C 788.2 2129.1, 816.1 2058.8, 816.1 2277.0 Z" fill="#80B9FF" opacity="0.30" filter="url(#blur_achievements_18_2298)"/>
  <path d="M 1173.3 -115.0 C 1173.3 177.9, 1129.8 121.1, 983.2 345.6 C 836.5 570.0, 917.4 485.6, 692.7 536.4 C 468.0 587.3, 588.5 505.7, 390.9 359.2 C 193.3 212.7, 222.4 381.0, 144.3 105.7 C 66.3 -169.6, 68.1 -22.5, 146.1 -297.7 C 224.2 -573.0, 125.0 -626.7, 322.6 -773.1 C 520.1 -919.6, 462.9 -798.7, 687.6 -747.9 C 912.3 -697.0, 812.6 -779.2, 959.2 -554.8 C 1105.9 -330.4, 1173.3 -407.9, 1173.3 -115.0 Z" fill="#C9FFF2" opacity="0.27" filter="url(#blur_achievements_18_2298)"/>
  <path d="M 804.7 571.0 C 804.7 693.4, 870.3 650.9, 711.2 744.7 C 552.1 838.4, 632.1 832.6, 388.4 853.8 C 144.7 875.1, 275.1 877.8, 60.7 816.6 C -153.6 755.4, -196.3 782.4, -280.9 667.3 C -365.6 552.3, -228.4 588.0, -143.8 473.0 C -59.1 358.0, -206.4 431.4, 8.0 370.2 C 222.3 309.0, 144.5 279.9, 388.2 301.1 C 632.0 322.4, 587.8 275.8, 746.9 369.6 C 906.0 463.3, 804.7 448.6, 804.7 571.0 Z" fill="#38D5C7" opacity="0.31" filter="url(#blur_achievements_18_2298)"/>
  <path d="M 1082.9 2441.0 C 1082.9 2695.7, 1093.2 2581.1, 1007.0 2776.2 C 920.8 2971.3, 944.8 2886.6, 812.7 2930.8 C 680.6 2975.0, 721.1 3012.8, 605.0 2885.5 C 488.9 2758.1, 493.0 2847.8, 447.1 2608.4 C 401.3 2369.1, 411.0 2509.6, 456.8 2270.3 C 502.7 2031.0, 503.0 1994.4, 619.1 1867.1 C 735.3 1739.7, 682.9 1889.1, 815.0 1933.4 C 947.0 1977.6, 941.0 1838.6, 1027.2 2033.7 C 1113.4 2228.8, 1082.9 2186.3, 1082.9 2441.0 Z" fill="#80B9FF" opacity="0.23" filter="url(#blur_achievements_18_2298)"/>
  <path d="M 1264.4 2393.0 C 1264.4 2633.8, 1187.6 2531.9, 1056.0 2716.3 C 924.4 2900.8, 1034.5 2910.9, 832.9 2952.7 C 631.3 2994.6, 727.3 2980.8, 550.0 2860.5 C 372.7 2740.1, 419.3 2775.2, 349.2 2549.0 C 279.2 2322.7, 267.3 2419.8, 337.3 2193.6 C 407.3 1967.3, 369.9 2002.9, 547.2 1882.5 C 724.6 1762.2, 611.5 1751.3, 813.1 1793.1 C 1014.7 1834.9, 935.5 1810.1, 1067.1 1994.5 C 1198.7 2178.9, 1264.4 2152.2, 1264.4 2393.0 Z" fill="#C9FFF2" opacity="0.27" filter="url(#blur_achievements_18_2298)"/>
  <path d="M 1281.0 1470.0 C 1281.0 1732.8, 1405.8 1659.3, 1291.3 1860.7 C 1176.7 2062.0, 1190.8 1899.3, 1015.3 1944.9 C 839.8 1990.6, 889.1 2179.1, 734.8 2047.7 C 580.4 1916.3, 623.0 1899.2, 562.1 1652.2 C 501.1 1405.3, 549.4 1492.6, 610.3 1245.6 C 671.3 998.7, 614.8 1048.5, 769.2 917.1 C 923.5 785.7, 833.7 868.1, 1009.2 913.7 C 1184.7 959.3, 1106.8 833.4, 1221.4 1034.8 C 1335.9 1236.1, 1281.0 1207.2, 1281.0 1470.0 Z" fill="#C9FFF2" opacity="0.38" filter="url(#blur_achievements_18_2298)"/>
  <path d="M 1183.5 552.0 C 1183.5 708.6, 1261.4 615.6, 1194.0 735.5 C 1126.6 855.5, 1126.6 819.7, 1023.3 846.9 C 920.1 874.1, 969.0 969.9, 878.2 891.6 C 787.4 813.3, 815.1 803.9, 779.2 656.8 C 743.4 509.6, 760.8 584.9, 796.7 437.7 C 832.6 290.6, 795.7 334.6, 886.5 256.3 C 977.3 178.0, 930.8 173.3, 1034.1 200.5 C 1137.3 227.7, 1107.7 219.4, 1175.1 339.4 C 1242.5 459.3, 1183.5 395.4, 1183.5 552.0 Z" fill="#D8E8FF" opacity="0.30" filter="url(#blur_achievements_18_2298)"/>
  <path d="M 1502.3 1087.0 C 1502.3 1386.2, 1457.8 1291.5, 1368.7 1520.7 C 1279.6 1750.0, 1340.1 1720.6, 1203.6 1772.5 C 1067.1 1824.5, 1125.9 1805.5, 1005.8 1655.9 C 885.8 1506.3, 932.5 1636.4, 885.1 1355.2 C 837.7 1074.0, 803.5 1124.3, 850.9 843.1 C 898.3 561.9, 884.7 729.7, 1004.8 580.1 C 1124.8 430.4, 1069.0 291.8, 1205.5 343.8 C 1342.0 395.7, 1334.4 372.0, 1423.4 601.3 C 1512.5 830.5, 1502.3 787.8, 1502.3 1087.0 Z" fill="#7EE56D" opacity="0.17" filter="url(#blur_achievements_18_2298)"/>
  <path d="M 1047.1 2863.0 C 1047.1 3099.7, 1069.0 3001.6, 928.5 3193.1 C 788.1 3384.6, 958.3 3235.7, 731.0 3308.8 C 503.7 3381.9, 598.2 3488.4, 371.0 3415.3 C 143.7 3342.1, 197.3 3327.6, 56.9 3136.1 C -83.6 2944.6, 70.5 3099.7, 70.5 2863.0 C 70.5 2626.3, -44.1 2754.0, 96.3 2562.5 C 236.8 2371.0, 135.4 2422.3, 362.7 2349.1 C 590.0 2276.0, 478.0 2284.6, 705.3 2357.8 C 932.5 2430.9, 854.5 2392.7, 994.9 2584.2 C 1135.4 2775.7, 1047.1 2626.3, 1047.1 2863.0 Z" fill="#C9FFF2" opacity="0.12" stroke="#FFFFFF" stroke-opacity="0.46" stroke-width="3" filter="url(#soft_achievements_18_2298)"/>
  <path d="M 1047.1 2863.0 C 1047.1 3099.7, 1069.0 3001.6, 928.5 3193.1 C 788.1 3384.6, 958.3 3235.7, 731.0 3308.8 C 503.7 3381.9, 598.2 3488.4, 371.0 3415.3 C 143.7 3342.1, 197.3 3327.6, 56.9 3136.1 C -83.6 2944.6, 70.5 3099.7, 70.5 2863.0 C 70.5 2626.3, -44.1 2754.0, 96.3 2562.5 C 236.8 2371.0, 135.4 2422.3, 362.7 2349.1 C 590.0 2276.0, 478.0 2284.6, 705.3 2357.8 C 932.5 2430.9, 854.5 2392.7, 994.9 2584.2 C 1135.4 2775.7, 1047.1 2626.3, 1047.1 2863.0 Z" fill="none" stroke="#FFFFFF" stroke-opacity="0.22" stroke-width="1.2"/>
  <path d="M 1690.3 331.0 C 1690.3 636.1, 1764.7 508.5, 1650.5 755.4 C 1536.2 1002.2, 1574.1 932.3, 1389.2 1026.5 C 1204.3 1120.8, 1316.6 1008.4, 1131.7 914.1 C 946.8 819.8, 1014.6 1006.3, 900.3 759.4 C 786.1 512.6, 786.4 636.1, 786.4 331.0 C 786.4 25.9, 759.9 170.5, 874.2 -76.3 C 988.4 -323.1, 937.6 -147.8, 1122.5 -242.1 C 1307.3 -336.4, 1206.2 -362.2, 1391.1 -267.9 C 1575.9 -173.7, 1485.5 -291.3, 1599.7 -44.5 C 1714.0 202.3, 1690.3 25.9, 1690.3 331.0 Z" fill="#D8E8FF" opacity="0.12" stroke="#FFFFFF" stroke-opacity="0.46" stroke-width="3" filter="url(#soft_achievements_18_2298)"/>
  <path d="M 1690.3 331.0 C 1690.3 636.1, 1764.7 508.5, 1650.5 755.4 C 1536.2 1002.2, 1574.1 932.3, 1389.2 1026.5 C 1204.3 1120.8, 1316.6 1008.4, 1131.7 914.1 C 946.8 819.8, 1014.6 1006.3, 900.3 759.4 C 786.1 512.6, 786.4 636.1, 786.4 331.0 C 786.4 25.9, 759.9 170.5, 874.2 -76.3 C 988.4 -323.1, 937.6 -147.8, 1122.5 -242.1 C 1307.3 -336.4, 1206.2 -362.2, 1391.1 -267.9 C 1575.9 -173.7, 1485.5 -291.3, 1599.7 -44.5 C 1714.0 202.3, 1690.3 25.9, 1690.3 331.0 Z" fill="none" stroke="#FFFFFF" stroke-opacity="0.22" stroke-width="1.2"/>
  <path d="M 1179.2 -23.0 C 1179.2 296.1, 1216.5 114.7, 1079.2 372.8 C 941.9 630.9, 989.1 459.1, 767.0 557.7 C 544.9 656.2, 685.6 674.8, 463.5 576.2 C 241.4 477.6, 274.4 671.3, 137.1 413.1 C -0.1 155.0, 91.8 296.1, 91.8 -23.0 C 91.8 -342.0, 91.6 -183.2, 228.8 -441.3 C 366.1 -699.5, 240.8 -613.3, 462.9 -711.9 C 685.0 -810.5, 525.2 -754.2, 747.3 -655.6 C 969.4 -557.0, 885.5 -721.3, 1022.8 -463.1 C 1160.1 -205.0, 1179.2 -342.1, 1179.2 -23.0 Z" fill="#38D5C7" opacity="0.12" stroke="#38D5C7" stroke-opacity="0.46" stroke-width="3" filter="url(#soft_achievements_18_2298)"/>
  <path d="M 1179.2 -23.0 C 1179.2 296.1, 1216.5 114.7, 1079.2 372.8 C 941.9 630.9, 989.1 459.1, 767.0 557.7 C 544.9 656.2, 685.6 674.8, 463.5 576.2 C 241.4 477.6, 274.4 671.3, 137.1 413.1 C -0.1 155.0, 91.8 296.1, 91.8 -23.0 C 91.8 -342.0, 91.6 -183.2, 228.8 -441.3 C 366.1 -699.5, 240.8 -613.3, 462.9 -711.9 C 685.0 -810.5, 525.2 -754.2, 747.3 -655.6 C 969.4 -557.0, 885.5 -721.3, 1022.8 -463.1 C 1160.1 -205.0, 1179.2 -342.1, 1179.2 -23.0 Z" fill="none" stroke="#FFFFFF" stroke-opacity="0.22" stroke-width="1.2"/>
  <path d="M 1776.6 -29.0 C 1776.6 338.2, 1846.5 209.1, 1724.3 506.2 C 1602.1 803.2, 1715.3 588.9, 1517.5 702.3 C 1319.8 815.8, 1408.5 936.6, 1210.7 823.1 C 1013.0 709.7, 1063.5 682.6, 941.3 385.5 C 819.1 88.5, 912.5 338.2, 912.5 -29.0 C 912.5 -396.2, 818.5 -206.1, 940.7 -503.1 C 1062.9 -800.2, 1003.6 -645.6, 1201.3 -759.0 C 1399.0 -872.5, 1297.2 -908.9, 1494.9 -795.4 C 1692.6 -682.0, 1650.1 -822.8, 1772.3 -525.7 C 1894.5 -228.6, 1776.6 -396.2, 1776.6 -29.0 Z" fill="#80B9FF" opacity="0.12" stroke="#80B9FF" stroke-opacity="0.46" stroke-width="3" filter="url(#soft_achievements_18_2298)"/>
  <path d="M 1776.6 -29.0 C 1776.6 338.2, 1846.5 209.1, 1724.3 506.2 C 1602.1 803.2, 1715.3 588.9, 1517.5 702.3 C 1319.8 815.8, 1408.5 936.6, 1210.7 823.1 C 1013.0 709.7, 1063.5 682.6, 941.3 385.5 C 819.1 88.5, 912.5 338.2, 912.5 -29.0 C 912.5 -396.2, 818.5 -206.1, 940.7 -503.1 C 1062.9 -800.2, 1003.6 -645.6, 1201.3 -759.0 C 1399.0 -872.5, 1297.2 -908.9, 1494.9 -795.4 C 1692.6 -682.0, 1650.1 -822.8, 1772.3 -525.7 C 1894.5 -228.6, 1776.6 -396.2, 1776.6 -29.0 Z" fill="none" stroke="#FFFFFF" stroke-opacity="0.22" stroke-width="1.2"/>
  <path d="M 1280.8 1592.0 C 1280.8 1876.0, 1367.5 1738.4, 1251.9 1968.1 C 1136.3 2197.9, 1170.1 2140.2, 983.1 2228.0 C 796.0 2315.7, 904.9 2324.8, 717.8 2237.1 C 530.8 2149.3, 591.3 2155.9, 475.7 1926.1 C 360.1 1696.4, 460.5 1876.0, 460.5 1592.0 C 460.5 1308.0, 439.7 1443.5, 555.3 1213.8 C 670.8 984.1, 529.2 1063.6, 716.2 975.9 C 903.2 888.2, 807.0 882.6, 994.0 970.4 C 1181.0 1058.1, 1051.1 1026.9, 1166.7 1256.6 C 1282.3 1486.3, 1280.8 1308.0, 1280.8 1592.0 Z" fill="#38D5C7" opacity="0.12" stroke="#38D5C7" stroke-opacity="0.46" stroke-width="3" filter="url(#soft_achievements_18_2298)"/>
  <path d="M 1280.8 1592.0 C 1280.8 1876.0, 1367.5 1738.4, 1251.9 1968.1 C 1136.3 2197.9, 1170.1 2140.2, 983.1 2228.0 C 796.0 2315.7, 904.9 2324.8, 717.8 2237.1 C 530.8 2149.3, 591.3 2155.9, 475.7 1926.1 C 360.1 1696.4, 460.5 1876.0, 460.5 1592.0 C 460.5 1308.0, 439.7 1443.5, 555.3 1213.8 C 670.8 984.1, 529.2 1063.6, 716.2 975.9 C 903.2 888.2, 807.0 882.6, 994.0 970.4 C 1181.0 1058.1, 1051.1 1026.9, 1166.7 1256.6 C 1282.3 1486.3, 1280.8 1308.0, 1280.8 1592.0 Z" fill="none" stroke="#FFFFFF" stroke-opacity="0.22" stroke-width="1.2"/>
  <path d="M -100.0 1611.9 Q 133.3 1541.7, 366.7 1697.2 Q 600.0 1726.5, 833.3 1806.3 Q 1066.7 1809.3, 1300.0 1650.9" fill="none" stroke="#FFFFFF" stroke-opacity="0.38" stroke-width="4" filter="url(#soft_achievements_18_2298)"/>
  <path d="M -100.0 1611.9 Q 133.3 1541.7, 366.7 1697.2 Q 600.0 1726.5, 833.3 1806.3 Q 1066.7 1809.3, 1300.0 1650.9" fill="none" stroke="#38D5C7" stroke-opacity="0.18" stroke-width="2"/>
  <path d="M -100.0 1815.8 Q 133.3 1479.2, 366.7 1274.9 Q 600.0 1517.2, 833.3 1981.9 Q 1066.7 1988.7, 1300.0 1851.6" fill="none" stroke="#FFFFFF" stroke-opacity="0.38" stroke-width="4" filter="url(#soft_achievements_18_2298)"/>
  <path d="M -100.0 1815.8 Q 133.3 1479.2, 366.7 1274.9 Q 600.0 1517.2, 833.3 1981.9 Q 1066.7 1988.7, 1300.0 1851.6" fill="none" stroke="#7EE56D" stroke-opacity="0.18" stroke-width="2"/>
  <path d="M -100.0 697.8 Q 133.3 634.7, 366.7 610.7 Q 600.0 872.1, 833.3 991.4 Q 1066.7 1152.3, 1300.0 1007.3" fill="none" stroke="#FFFFFF" stroke-opacity="0.38" stroke-width="4" filter="url(#soft_achievements_18_2298)"/>
  <path d="M -100.0 697.8 Q 133.3 634.7, 366.7 610.7 Q 600.0 872.1, 833.3 991.4 Q 1066.7 1152.3, 1300.0 1007.3" fill="none" stroke="#7EE56D" stroke-opacity="0.18" stroke-width="2"/>
  <path d="M -100.0 2583.5 Q 133.3 2515.7, 366.7 2354.5 Q 600.0 2665.7, 833.3 2610.6 Q 1066.7 2577.7, 1300.0 2330.2" fill="none" stroke="#FFFFFF" stroke-opacity="0.38" stroke-width="4" filter="url(#soft_achievements_18_2298)"/>
  <path d="M -100.0 2583.5 Q 133.3 2515.7, 366.7 2354.5 Q 600.0 2665.7, 833.3 2610.6 Q 1066.7 2577.7, 1300.0 2330.2" fill="none" stroke="#7EE56D" stroke-opacity="0.18" stroke-width="2"/>
  <circle cx="705" cy="1582" r="106" fill="url(#orb_achievements_18_2298)" opacity="0.36"/>
  <circle cx="705" cy="1582" r="106" fill="#D8E8FF" opacity="0.08"/>
  <circle cx="705" cy="1582" r="106" fill="none" stroke="#FFFFFF" stroke-opacity="0.56" stroke-width="3"/>
  <ellipse cx="675.3" cy="1543.8" rx="19.1" ry="8.5" fill="#FFFFFF" opacity="0.42" transform="rotate(-22 675.3 1543.8)"/>
  <circle cx="88" cy="1205" r="272" fill="url(#orb_achievements_18_2298)" opacity="0.36"/>
  <circle cx="88" cy="1205" r="272" fill="#A7F3EF" opacity="0.08"/>
  <circle cx="88" cy="1205" r="272" fill="none" stroke="#FFFFFF" stroke-opacity="0.56" stroke-width="3"/>
  <ellipse cx="11.8" cy="1107.1" rx="49.0" ry="21.8" fill="#FFFFFF" opacity="0.42" transform="rotate(-22 11.8 1107.1)"/>
  <circle cx="1280" cy="108" r="176" fill="url(#orb_achievements_18_2298)" opacity="0.36"/>
  <circle cx="1280" cy="108" r="176" fill="#80B9FF" opacity="0.08"/>
  <circle cx="1280" cy="108" r="176" fill="none" stroke="#FFFFFF" stroke-opacity="0.56" stroke-width="3"/>
  <ellipse cx="1230.7" cy="44.6" rx="31.7" ry="14.1" fill="#FFFFFF" opacity="0.42" transform="rotate(-22 1230.7 44.6)"/>
  <circle cx="-1" cy="1799" r="198" fill="url(#orb_achievements_18_2298)" opacity="0.24"/>
  <circle cx="-1" cy="1799" r="198" fill="#7EE56D" opacity="0.08"/>
  <circle cx="-1" cy="1799" r="198" fill="none" stroke="#FFFFFF" stroke-opacity="0.56" stroke-width="3"/>
  <ellipse cx="-56.4" cy="1727.7" rx="35.6" ry="15.8" fill="#FFFFFF" opacity="0.42" transform="rotate(-22 -56.4 1727.7)"/>
  <circle cx="409" cy="194" r="108" fill="url(#orb_achievements_18_2298)" opacity="0.19"/>
  <circle cx="409" cy="194" r="108" fill="#DFFFD3" opacity="0.08"/>
  <circle cx="409" cy="194" r="108" fill="none" stroke="#FFFFFF" stroke-opacity="0.56" stroke-width="3"/>
  <ellipse cx="378.8" cy="155.1" rx="19.4" ry="8.6" fill="#FFFFFF" opacity="0.42" transform="rotate(-22 378.8 155.1)"/>
  <circle cx="327" cy="712" r="96" fill="url(#orb_achievements_18_2298)" opacity="0.21"/>
  <circle cx="327" cy="712" r="96" fill="#C9FFF2" opacity="0.08"/>
  <circle cx="327" cy="712" r="96" fill="none" stroke="#FFFFFF" stroke-opacity="0.56" stroke-width="3"/>
  <ellipse cx="300.1" cy="677.4" rx="17.3" ry="7.7" fill="#FFFFFF" opacity="0.42" transform="rotate(-22 300.1 677.4)"/>
  <circle cx="299" cy="2116" r="219" fill="url(#orb_achievements_18_2298)" opacity="0.27"/>
  <circle cx="299" cy="2116" r="219" fill="#80B9FF" opacity="0.08"/>
  <circle cx="299" cy="2116" r="219" fill="none" stroke="#FFFFFF" stroke-opacity="0.56" stroke-width="3"/>
  <ellipse cx="237.7" cy="2037.2" rx="39.4" ry="17.5" fill="#FFFFFF" opacity="0.42" transform="rotate(-22 237.7 2037.2)"/>
  <circle cx="780" cy="1258" r="182" fill="url(#orb_achievements_18_2298)" opacity="0.24"/>
  <circle cx="780" cy="1258" r="182" fill="#7EE56D" opacity="0.08"/>
  <circle cx="780" cy="1258" r="182" fill="none" stroke="#FFFFFF" stroke-opacity="0.56" stroke-width="3"/>
  <ellipse cx="729.0" cy="1192.5" rx="32.8" ry="14.6" fill="#FFFFFF" opacity="0.42" transform="rotate(-22 729.0 1192.5)"/>
  <circle cx="689" cy="2224" r="2" fill="#FFFFFF" opacity="0.31"/>
  <circle cx="1056" cy="2512" r="7" fill="#FFFFFF" opacity="0.68"/>
  <circle cx="147" cy="2467" r="2" fill="#FFFFFF" opacity="0.28"/>
  <circle cx="412" cy="813" r="5" fill="#FFFFFF" opacity="0.30"/>
  <circle cx="920" cy="948" r="3" fill="#FFFFFF" opacity="0.69"/>
  <circle cx="712" cy="1299" r="3" fill="#FFFFFF" opacity="0.68"/>
  <circle cx="86" cy="398" r="7" fill="#FFFFFF" opacity="0.36"/>
  <circle cx="659" cy="1968" r="3" fill="#FFFFFF" opacity="0.45"/>
  <circle cx="1093" cy="551" r="4" fill="#FFFFFF" opacity="0.55"/>
  <circle cx="3" cy="784" r="5" fill="#FFFFFF" opacity="0.53"/>
  <circle cx="933" cy="134" r="2" fill="#FFFFFF" opacity="0.46"/>
  <circle cx="433" cy="1366" r="7" fill="#FFFFFF" opacity="0.51"/>
  <circle cx="924" cy="103" r="2" fill="#FFFFFF" opacity="0.33"/>
  <circle cx="725" cy="704" r="7" fill="#FFFFFF" opacity="0.57"/>
  <circle cx="1044" cy="90" r="7" fill="#FFFFFF" opacity="0.60"/>
  <rect width="1200" height="2600" fill="#FFFFFF" opacity="0.08"/>
  <rect width="1200" height="2600" filter="url(#grain_achievements_18_2298)" opacity="0.7"/>
</svg>
