<svg xmlns="http://www.w3.org/2000/svg" width="1200" height="2600" viewBox="0 0 1200 2600" preserveAspectRatio="xMidYMid slice">
  <defs>
    <linearGradient id="bg_achievements_15_5064" x1="0" y1="0" x2="1" y2="1">
      <stop offset="0%" stop-color="#C9FFF2"/>
      <stop offset="48%" stop-color="#D8E8FF"/>
      <stop offset="100%" stop-color="#DFFFD3"/>
    </linearGradient>
    <radialGradient id="orb_achievements_15_5064" cx="35%" cy="30%" r="70%">
      <stop offset="0%" stop-color="#FFFFFF" stop-opacity="0.85"/>
      <stop offset="42%" stop-color="#FFFFFF" stop-opacity="0.20"/>
      <stop offset="100%" stop-color="#FFFFFF" stop-opacity="0.02"/>
    </radialGradient>
    <filter id="blur_achievements_15_5064" x="-30%" y="-30%" width="160%" height="160%">
      <feGaussianBlur stdDeviation="72"/>
    </filter>
    <filter id="soft_achievements_15_5064" x="-20%" y="-20%" width="140%" height="140%">
      <feGaussianBlur stdDeviation="10"/>
    </filter>
    <filter id="grain_achievements_15_5064">
      <feTurbulence type="fractalNoise" baseFrequency="0.85" numOctaves="2" stitchTiles="stitch"/>
      <feColorMatrix type="saturate" values="0"/>
      <feComponentTransfer>
        <feFuncA type="table" tableValues="0 0.035"/>
      </feComponentTransfer>
    </filter>
  </defs>
  <rect width="1200" height="2600" fill="url(#bg_achievements_15_5064)"/>
  <path d="M 703.0 1434.0 C 703.0 1623.5, 724.4 1554.6, 631.6 1699.7 C 538.7 1844.8, 587.2 1869.2, 444.9 1902.1 C 302.7 1935.0, 335.9 1926.1, 210.8 1831.4 C 85.7 1736.7, 98.6 1774.5, 49.2 1596.5 C -0.2 1418.5, 33.2 1462.2, 82.6 1284.2 C 132.0 1106.1, 82.1 1109.9, 207.2 1015.2 C 332.3 920.5, 312.0 1020.0, 454.2 1052.9 C 596.5 1085.8, 571.5 1042.9, 664.3 1188.0 C 757.2 1333.2, 703.0 1244.5, 703.0 1434.0 Z" fill="#DFFFD3" opacity="0.25" filter="url(#blur_achievements_15_5064)"/>
  <path d="M 188.7 2369.0 C 188.7 2619.2, 194.0 2487.0, 104.6 2678.6 C 15.3 2870.3, 91.5 2950.1, -45.4 2993.5 C -182.3 3037.0, -100.5 3056.4, -220.9 2931.3 C -341.4 2806.2, -340.5 2770.9, -388.1 2535.8 C -435.6 2300.7, -440.2 2417.5, -392.6 2182.3 C -345.0 1947.2, -340.4 2023.6, -220.0 1898.5 C -99.6 1773.4, -164.4 1837.0, -27.5 1880.5 C 109.5 1923.9, 21.7 1775.9, 111.1 1967.6 C 200.5 2159.2, 188.7 2118.8, 188.7 2369.0 Z" fill="#A7F3EF" opacity="0.21" filter="url(#blur_achievements_15_5064)"/>
  <path d="M 353.6 1791.0 C 353.6 2010.2, 492.9 1934.8, 362.2 2102.7 C 231.5 2270.6, 226.7 2215.2, 26.4 2253.2 C -173.9 2291.3, -74.6 2249.4, -250.7 2139.8 C -426.9 2030.2, -426.8 2148.2, -496.3 1942.2 C -565.9 1736.3, -574.0 1848.9, -504.5 1643.0 C -434.9 1437.1, -428.7 1465.9, -252.6 1356.3 C -76.4 1246.7, -150.5 1208.6, 49.8 1246.7 C 250.1 1284.7, 141.3 1268.3, 272.0 1436.1 C 402.8 1604.0, 353.6 1571.8, 353.6 1791.0 Z" fill="#FAFFFB" opacity="0.38" filter="url(#blur_achievements_15_5064)"/>
  <path d="M 781.8 1279.0 C 781.8 1432.0, 772.9 1403.5, 651.4 1520.7 C 529.9 1637.9, 606.4 1644.2, 420.3 1670.7 C 234.2 1697.3, 306.4 1668.1, 142.7 1591.6 C -21.0 1515.1, 1.1 1534.3, -63.5 1390.5 C -128.2 1246.8, -163.1 1315.7, -98.5 1172.0 C -33.9 1028.2, -55.3 1077.5, 108.4 1001.0 C 272.1 924.5, 243.9 922.0, 430.0 948.6 C 616.2 975.1, 514.0 959.6, 635.5 1076.8 C 757.0 1194.0, 781.8 1126.0, 781.8 1279.0 Z" fill="#D8E8FF" opacity="0.27" filter="url(#blur_achievements_15_5064)"/>
  <path d="M 533.8 806.0 C 533.8 1033.7, 584.2 909.0, 471.1 1083.5 C 358.0 1257.9, 400.3 1253.5, 227.0 1293.0 C 53.8 1332.6, 90.1 1304.1, -62.3 1190.2 C -214.7 1076.4, -167.1 1185.7, -227.3 971.7 C -287.5 757.8, -301.6 870.4, -241.5 656.4 C -181.3 442.4, -185.3 493.9, -32.9 380.1 C 119.5 266.2, 40.0 266.0, 213.3 305.6 C 386.6 345.1, 342.4 311.9, 455.5 486.3 C 568.6 660.7, 533.8 578.3, 533.8 806.0 Z" fill="#38D5C7" opacity="0.35" filter="url(#blur_achievements_15_5064)"/>
  <path d="M 1094.7 -70.0 C 1094.7 193.2, 1151.9 62.6, 1055.0 264.3 C 958.1 466.0, 978.4 538.9, 830.0 584.6 C 681.5 630.3, 735.7 477.3, 605.2 345.6 C 474.6 214.0, 566.3 344.8, 514.8 97.4 C 463.2 -150.0, 355.8 -15.6, 407.3 -262.9 C 458.9 -510.3, 503.3 -512.5, 633.8 -644.2 C 764.4 -775.8, 676.9 -653.3, 825.3 -607.6 C 973.8 -561.9, 890.7 -649.9, 987.6 -448.3 C 1084.5 -246.6, 1094.7 -333.2, 1094.7 -70.0 Z" fill="#FAFFFB" opacity="0.16" filter="url(#blur_achievements_15_5064)"/>
  <path d="M 1064.1 2322.0 C 1064.1 2455.2, 1179.2 2406.8, 1028.8 2508.9 C 878.3 2610.9, 935.9 2588.5, 705.4 2611.6 C 475.0 2634.8, 568.6 2603.8, 365.9 2537.2 C 163.3 2470.6, 143.6 2540.5, 63.6 2415.3 C -16.5 2290.2, -29.3 2339.6, 50.7 2214.4 C 130.7 2089.2, 176.0 2090.5, 378.6 2023.9 C 581.3 1957.3, 489.5 1991.2, 719.9 2014.3 C 950.4 2037.4, 850.9 2015.4, 1001.3 2117.4 C 1151.7 2219.5, 1064.1 2188.8, 1064.1 2322.0 Z" fill="#FAFFFB" opacity="0.19" filter="url(#blur_achievements_15_5064)"/>
  <path d="M 1217.2 2837.0 C 1217.2 3116.9, 1278.6 2985.6, 1181.7 3200.0 C 1084.8 3414.4, 1116.0 3423.7, 967.6 3472.3 C 819.1 3520.9, 860.2 3486.4, 729.6 3346.4 C 599.1 3206.5, 666.0 3295.3, 614.4 3032.3 C 562.9 2769.3, 501.1 2859.3, 552.6 2596.3 C 604.2 2333.3, 591.2 2411.8, 721.7 2271.8 C 852.3 2131.9, 819.5 2101.3, 967.9 2149.9 C 1116.4 2198.5, 1107.5 2211.6, 1204.4 2426.0 C 1301.3 2640.4, 1217.2 2557.1, 1217.2 2837.0 Z" fill="#FAFFFB" opacity="0.21" filter="url(#blur_achievements_15_5064)"/>
  <path d="M 1259.9 2815.0 C 1259.9 3041.3, 1205.1 2995.5, 1059.9 3168.9 C 914.7 3342.3, 1016.5 3236.6, 794.1 3275.9 C 571.6 3315.2, 667.3 3391.7, 471.6 3278.5 C 276.0 3165.3, 353.5 3209.4, 276.3 2996.7 C 199.0 2784.0, 194.3 2850.7, 271.5 2638.0 C 348.8 2425.3, 276.5 2492.9, 472.1 2379.7 C 667.7 2266.6, 591.1 2234.1, 813.6 2273.4 C 1036.1 2312.7, 926.5 2352.7, 1071.7 2526.1 C 1216.9 2699.5, 1259.9 2588.7, 1259.9 2815.0 Z" fill="#C9FFF2" opacity="0.17" filter="url(#blur_achievements_15_5064)"/>
  <path d="M 1400.4 346.0 C 1400.4 659.2, 1320.7 497.3, 1220.9 737.2 C 1121.1 977.1, 1201.8 922.8, 1048.9 977.2 C 896.0 1031.6, 964.2 1196.7, 829.8 1040.1 C 695.3 883.5, 778.4 887.0, 725.3 592.7 C 672.2 298.4, 663.1 390.6, 716.2 96.2 C 769.3 -198.1, 699.4 7.1, 833.9 -149.5 C 968.3 -306.1, 910.3 -388.1, 1063.2 -333.7 C 1216.1 -279.3, 1189.6 -266.3, 1289.4 -26.4 C 1389.2 213.6, 1400.4 32.8, 1400.4 346.0 Z" fill="#38D5C7" opacity="0.20" filter="url(#blur_achievements_15_5064)"/>
  <path d="M 202.9 1864.0 C 202.9 2267.7, 218.9 2124.1, 145.9 2450.7 C 72.9 2777.2, 135.2 2679.9, 17.0 2804.7 C -101.1 2929.4, -26.8 2759.6, -145.0 2634.9 C -263.1 2510.2, -201.6 2649.2, -274.6 2322.7 C -347.6 1996.1, -317.1 2267.7, -317.1 1864.0 C -317.1 1460.3, -354.9 1646.4, -281.9 1319.8 C -208.9 993.2, -264.6 1203.0, -146.5 1078.3 C -28.3 953.6, -93.9 824.5, 24.2 949.3 C 142.3 1074.0, 103.0 1043.9, 176.0 1370.4 C 249.0 1697.0, 202.9 1460.3, 202.9 1864.0 Z" fill="#C9FFF2" opacity="0.12" stroke="#C9FFF2" stroke-opacity="0.46" stroke-width="3" filter="url(#soft_achievements_15_5064)"/>
  <path d="M 202.9 1864.0 C 202.9 2267.7, 218.9 2124.1, 145.9 2450.7 C 72.9 2777.2, 135.2 2679.9, 17.0 2804.7 C -101.1 2929.4, -26.8 2759.6, -145.0 2634.9 C -263.1 2510.2, -201.6 2649.2, -274.6 2322.7 C -347.6 1996.1, -317.1 2267.7, -317.1 1864.0 C -317.1 1460.3, -354.9 1646.4, -281.9 1319.8 C -208.9 993.2, -264.6 1203.0, -146.5 1078.3 C -28.3 953.6, -93.9 824.5, 24.2 949.3 C 142.3 1074.0, 103.0 1043.9, 176.0 1370.4 C 249.0 1697.0, 202.9 1460.3, 202.9 1864.0 Z" fill="none" stroke="#FFFFFF" stroke-opacity="0.22" stroke-width="1.2"/>
  <path d="M 1547.6 1189.0 C 1547.6 1428.0, 1564.7 1286.9, 1394.4 1480.2 C 1224.0 1673.6, 1308.0 1621.0, 1032.4 1694.9 C 756.8 1768.7, 915.3 1760.6, 639.7 1686.8 C 364.1 1612.9, 468.9 1711.5, 298.5 1518.1 C 128.2 1324.8, 149.7 1428.0, 149.7 1189.0 C 149.7 950.0, 124.9 1040.1, 295.3 846.8 C 465.6 653.5, 336.5 771.3, 612.1 697.4 C 887.7 623.6, 759.3 662.7, 1034.9 736.6 C 1310.5 810.4, 1260.1 722.5, 1430.5 915.8 C 1600.8 1109.1, 1547.6 950.0, 1547.6 1189.0 Z" fill="#80B9FF" opacity="0.12" stroke="#80B9FF" stroke-opacity="0.46" stroke-width="3" filter="url(#soft_achievements_15_5064)"/>
  <path d="M 1547.6 1189.0 C 1547.6 1428.0, 1564.7 1286.9, 1394.4 1480.2 C 1224.0 1673.6, 1308.0 1621.0, 1032.4 1694.9 C 756.8 1768.7, 915.3 1760.6, 639.7 1686.8 C 364.1 1612.9, 468.9 1711.5, 298.5 1518.1 C 128.2 1324.8, 149.7 1428.0, 149.7 1189.0 C 149.7 950.0, 124.9 1040.1, 295.3 846.8 C 465.6 653.5, 336.5 771.3, 612.1 697.4 C 887.7 623.6, 759.3 662.7, 1034.9 736.6 C 1310.5 810.4, 1260.1 722.5, 1430.5 915.8 C 1600.8 1109.1, 1547.6 950.0, 1547.6 1189.0 Z" fill="none" stroke="#FFFFFF" stroke-opacity="0.22" stroke-width="1.2"/>
  <path d="M 1760.6 1228.0 C 1760.6 1402.2, 1762.2 1287.4, 1675.2 1428.3 C 1588.2 1569.2, 1697.5 1508.2, 1556.7 1562.0 C 1415.9 1615.8, 1475.4 1622.0, 1334.6 1568.2 C 1193.8 1514.4, 1288.7 1574.5, 1201.6 1433.6 C 1114.6 1292.7, 1105.1 1402.2, 1105.1 1228.0 C 1105.1 1053.8, 1108.5 1137.3, 1195.5 996.4 C 1282.5 855.5, 1202.1 942.9, 1342.9 889.1 C 1483.7 835.3, 1413.2 805.6, 1554.0 859.4 C 1694.8 913.2, 1600.6 829.1, 1687.6 970.0 C 1774.7 1110.9, 1760.6 1053.8, 1760.6 1228.0 Z" fill="#FAFFFB" opacity="0.12" stroke="#FAFFFB" stroke-opacity="0.46" stroke-width="3" filter="url(#soft_achievements_15_5064)"/>
  <path d="M 1760.6 1228.0 C 1760.6 1402.2, 1762.2 1287.4, 1675.2 1428.3 C 1588.2 1569.2, 1697.5 1508.2, 1556.7 1562.0 C 1415.9 1615.8, 1475.4 1622.0, 1334.6 1568.2 C 1193.8 1514.4, 1288.7 1574.5, 1201.6 1433.6 C 1114.6 1292.7, 1105.1 1402.2, 1105.1 1228.0 C 1105.1 1053.8, 1108.5 1137.3, 1195.5 996.4 C 1282.5 855.5, 1202.1 942.9, 1342.9 889.1 C 1483.7 835.3, 1413.2 805.6, 1554.0 859.4 C 1694.8 913.2, 1600.6 829.1, 1687.6 970.0 C 1774.7 1110.9, 1760.6 1053.8, 1760.6 1228.0 Z" fill="none" stroke="#FFFFFF" stroke-opacity="0.22" stroke-width="1.2"/>
  <path d="M 368.9 1980.0 C 368.9 2150.6, 382.5 2075.3, 284.4 2213.2 C 186.3 2351.2, 299.2 2257.8, 140.5 2310.5 C -18.3 2363.2, 41.1 2386.4, -117.7 2333.7 C -276.5 2281.0, -164.6 2344.5, -262.8 2206.6 C -360.9 2068.6, -401.2 2150.6, -401.2 1980.0 C -401.2 1809.5, -359.5 1888.2, -261.4 1750.3 C -163.2 1612.3, -257.9 1637.0, -99.1 1584.3 C 59.7 1531.6, -46.3 1529.1, 112.4 1581.8 C 271.2 1634.5, 246.4 1594.0, 344.5 1732.0 C 442.6 1870.0, 368.9 1809.5, 368.9 1980.0 Z" fill="#38D5C7" opacity="0.12" stroke="#FFFFFF" stroke-opacity="0.46" stroke-width="3" filter="url(#soft_achievements_15_5064)"/>
  <path d="M 368.9 1980.0 C 368.9 2150.6, 382.5 2075.3, 284.4 2213.2 C 186.3 2351.2, 299.2 2257.8, 140.5 2310.5 C -18.3 2363.2, 41.1 2386.4, -117.7 2333.7 C -276.5 2281.0, -164.6 2344.5, -262.8 2206.6 C -360.9 2068.6, -401.2 2150.6, -401.2 1980.0 C -401.2 1809.5, -359.5 1888.2, -261.4 1750.3 C -163.2 1612.3, -257.9 1637.0, -99.1 1584.3 C 59.7 1531.6, -46.3 1529.1, 112.4 1581.8 C 271.2 1634.5, 246.4 1594.0, 344.5 1732.0 C 442.6 1870.0, 368.9 1809.5, 368.9 1980.0 Z" fill="none" stroke="#FFFFFF" stroke-opacity="0.22" stroke-width="1.2"/>
  <path d="M 782.7 1079.0 C 782.7 1467.3, 884.0 1252.8, 771.0 1566.9 C 658.1 1881.1, 697.8 1770.7, 515.1 1890.7 C 332.4 2010.7, 461.0 1977.9, 278.2 1857.9 C 95.5 1737.9, 180.9 1840.8, 68.0 1526.6 C -45.0 1212.5, -1.8 1467.3, -1.8 1079.0 C -1.8 690.6, -63.8 901.2, 49.1 587.1 C 162.1 272.9, 74.0 474.0, 256.7 354.0 C 439.5 234.0, 330.4 189.8, 513.1 309.8 C 695.9 429.8, 599.2 268.9, 712.2 583.0 C 825.1 897.2, 782.7 690.6, 782.7 1079.0 Z" fill="#80B9FF" opacity="0.12" stroke="#FFFFFF" stroke-opacity="0.46" stroke-width="3" filter="url(#soft_achievements_15_5064)"/>
  <path d="M 782.7 1079.0 C 782.7 1467.3, 884.0 1252.8, 771.0 1566.9 C 658.1 1881.1, 697.8 1770.7, 515.1 1890.7 C 332.4 2010.7, 461.0 1977.9, 278.2 1857.9 C 95.5 1737.9, 180.9 1840.8, 68.0 1526.6 C -45.0 1212.5, -1.8 1467.3, -1.8 1079.0 C -1.8 690.6, -63.8 901.2, 49.1 587.1 C 162.1 272.9, 74.0 474.0, 256.7 354.0 C 439.5 234.0, 330.4 189.8, 513.1 309.8 C 695.9 429.8, 599.2 268.9, 712.2 583.0 C 825.1 897.2, 782.7 690.6, 782.7 1079.0 Z" fill="none" stroke="#FFFFFF" stroke-opacity="0.22" stroke-width="1.2"/>
  <path d="M 820.0 1355.0 C 820.0 1657.4, 904.8 1516.8, 781.6 1761.4 C 658.3 2006.1, 727.5 1932.3, 528.1 2025.8 C 328.6 2119.2, 474.5 2101.2, 275.1 2007.8 C 75.6 1914.3, 199.5 2033.2, 76.3 1788.6 C -47.0 1543.9, -120.8 1657.4, -120.8 1355.0 C -120.8 1052.6, -129.9 1166.9, -6.7 922.2 C 116.6 677.6, 75.0 752.6, 274.4 659.2 C 473.8 565.7, 360.8 676.3, 560.2 769.8 C 759.7 863.2, 663.5 674.0, 786.7 918.7 C 910.0 1163.3, 820.0 1052.6, 820.0 1355.0 Z" fill="#DFFFD3" opacity="0.12" stroke="#DFFFD3" stroke-opacity="0.46" stroke-width="3" filter="url(#soft_achievements_15_5064)"/>
  <path d="M 820.0 1355.0 C 820.0 1657.4, 904.8 1516.8, 781.6 1761.4 C 658.3 2006.1, 727.5 1932.3, 528.1 2025.8 C 328.6 2119.2, 474.5 2101.2, 275.1 2007.8 C 75.6 1914.3, 199.5 2033.2, 76.3 1788.6 C -47.0 1543.9, -120.8 1657.4, -120.8 1355.0 C -120.8 1052.6, -129.9 1166.9, -6.7 922.2 C 116.6 677.6, 75.0 752.6, 274.4 659.2 C 473.8 565.7, 360.8 676.3, 560.2 769.8 C 759.7 863.2, 663.5 674.0, 786.7 918.7 C 910.0 1163.3, 820.0 1052.6, 820.0 1355.0 Z" fill="none" stroke="#FFFFFF" stroke-opacity="0.22" stroke-width="1.2"/>
  <path d="M -100.0 130.1 Q 133.3 238.7, 366.7 49.0 Q 600.0 -143.6, 833.3 -302.8 Q 1066.7 -80.5, 1300.0 111.3" fill="none" stroke="#FFFFFF" stroke-opacity="0.38" stroke-width="4" filter="url(#soft_achievements_15_5064)"/>
  <path d="M -100.0 130.1 Q 133.3 238.7, 366.7 49.0 Q 600.0 -143.6, 833.3 -302.8 Q 1066.7 -80.5, 1300.0 111.3" fill="none" stroke="#80B9FF" stroke-opacity="0.18" stroke-width="2"/>
  <path d="M -100.0 313.2 Q 133.3 492.6, 366.7 517.9 Q 600.0 434.2, 833.3 360.1 Q 1066.7 202.8, 1300.0 372.0" fill="none" stroke="#FFFFFF" stroke-opacity="0.38" stroke-width="4" filter="url(#soft_achievements_15_5064)"/>
  <path d="M -100.0 313.2 Q 133.3 492.6, 366.7 517.9 Q 600.0 434.2, 833.3 360.1 Q 1066.7 202.8, 1300.0 372.0" fill="none" stroke="#80B9FF" stroke-opacity="0.18" stroke-width="2"/>
  <path d="M -100.0 884.4 Q 133.3 996.5, 366.7 1319.3 Q 600.0 1485.8, 833.3 1098.6 Q 1066.7 835.4, 1300.0 897.8" fill="none" stroke="#FFFFFF" stroke-opacity="0.38" stroke-width="4" filter="url(#soft_achievements_15_5064)"/>
  <path d="M -100.0 884.4 Q 133.3 996.5, 366.7 1319.3 Q 600.0 1485.8, 833.3 1098.6 Q 1066.7 835.4, 1300.0 897.8" fill="none" stroke="#38D5C7" stroke-opacity="0.18" stroke-width="2"/>
  <path d="M -100.0 1680.1 Q 133.3 1931.8, 366.7 2001.1 Q 600.0 1827.2, 833.3 1684.7 Q 1066.7 2009.9, 1300.0 2011.1" fill="none" stroke="#FFFFFF" stroke-opacity="0.38" stroke-width="4" filter="url(#soft_achievements_15_5064)"/>
  <path d="M -100.0 1680.1 Q 133.3 1931.8, 366.7 2001.1 Q 600.0 1827.2, 833.3 1684.7 Q 1066.7 2009.9, 1300.0 2011.1" fill="none" stroke="#38D5C7" stroke-opacity="0.18" stroke-width="2"/>
  <circle cx="881" cy="1160" r="136" fill="url(#orb_achievements_15_5064)" opacity="0.36"/>
  <circle cx="881" cy="1160" r="136" fill="#D8E8FF" opacity="0.08"/>
  <circle cx="881" cy="1160" r="136" fill="none" stroke="#FFFFFF" stroke-opacity="0.56" stroke-width="3"/>
  <ellipse cx="842.9" cy="1111.0" rx="24.5" ry="10.9" fill="#FFFFFF" opacity="0.42" transform="rotate(-22 842.9 1111.0)"/>
  <circle cx="1146" cy="540" r="207" fill="url(#orb_achievements_15_5064)" opacity="0.36"/>
  <circle cx="1146" cy="540" r="207" fill="#A7F3EF" opacity="0.08"/>
  <circle cx="1146" cy="540" r="207" fill="none" stroke="#FFFFFF" stroke-opacity="0.56" stroke-width="3"/>
  <ellipse cx="1088.0" cy="465.5" rx="37.3" ry="16.6" fill="#FFFFFF" opacity="0.42" transform="rotate(-22 1088.0 465.5)"/>
  <circle cx="-7" cy="2480" r="260" fill="url(#orb_achievements_15_5064)" opacity="0.36"/>
  <circle cx="-7" cy="2480" r="260" fill="#D8E8FF" opacity="0.08"/>
  <circle cx="-7" cy="2480" r="260" fill="none" stroke="#FFFFFF" stroke-opacity="0.56" stroke-width="3"/>
  <ellipse cx="-79.8" cy="2386.4" rx="46.8" ry="20.8" fill="#FFFFFF" opacity="0.42" transform="rotate(-22 -79.8 2386.4)"/>
  <circle cx="928" cy="1793" r="264" fill="url(#orb_achievements_15_5064)" opacity="0.27"/>
  <circle cx="928" cy="1793" r="264" fill="#38D5C7" opacity="0.08"/>
  <circle cx="928" cy="1793" r="264" fill="none" stroke="#FFFFFF" stroke-opacity="0.56" stroke-width="3"/>
  <ellipse cx="854.1" cy="1698.0" rx="47.5" ry="21.1" fill="#FFFFFF" opacity="0.42" transform="rotate(-22 854.1 1698.0)"/>
  <circle cx="701" cy="1179" r="228" fill="url(#orb_achievements_15_5064)" opacity="0.25"/>
  <circle cx="701" cy="1179" r="228" fill="#38D5C7" opacity="0.08"/>
  <circle cx="701" cy="1179" r="228" fill="none" stroke="#FFFFFF" stroke-opacity="0.56" stroke-width="3"/>
  <ellipse cx="637.2" cy="1096.9" rx="41.0" ry="18.2" fill="#FFFFFF" opacity="0.42" transform="rotate(-22 637.2 1096.9)"/>
  <circle cx="775" cy="1245" r="163" fill="url(#orb_achievements_15_5064)" opacity="0.21"/>
  <circle cx="775" cy="1245" r="163" fill="#38D5C7" opacity="0.08"/>
  <circle cx="775" cy="1245" r="163" fill="none" stroke="#FFFFFF" stroke-opacity="0.56" stroke-width="3"/>
  <ellipse cx="729.4" cy="1186.3" rx="29.3" ry="13.0" fill="#FFFFFF" opacity="0.42" transform="rotate(-22 729.4 1186.3)"/>
  <circle cx="3" cy="-52" r="140" fill="url(#orb_achievements_15_5064)" opacity="0.20"/>
  <circle cx="3" cy="-52" r="140" fill="#38D5C7" opacity="0.08"/>
  <circle cx="3" cy="-52" r="140" fill="none" stroke="#FFFFFF" stroke-opacity="0.56" stroke-width="3"/>
  <ellipse cx="-36.2" cy="-102.4" rx="25.2" ry="11.2" fill="#FFFFFF" opacity="0.42" transform="rotate(-22 -36.2 -102.4)"/>
  <circle cx="1242" cy="1025" r="249" fill="url(#orb_achievements_15_5064)" opacity="0.20"/>
  <circle cx="1242" cy="1025" r="249" fill="#80B9FF" opacity="0.08"/>
  <circle cx="1242" cy="1025" r="249" fill="none" stroke="#FFFFFF" stroke-opacity="0.56" stroke-width="3"/>
  <ellipse cx="1172.3" cy="935.4" rx="44.8" ry="19.9" fill="#FFFFFF" opacity="0.42" transform="rotate(-22 1172.3 935.4)"/>
  <circle cx="350" cy="1445" r="250" fill="url(#orb_achievements_15_5064)" opacity="0.23"/>
  <circle cx="350" cy="1445" r="250" fill="#7EE56D" opacity="0.08"/>
  <circle cx="350" cy="1445" r="250" fill="none" stroke="#FFFFFF" stroke-opacity="0.56" stroke-width="3"/>
  <ellipse cx="280.0" cy="1355.0" rx="45.0" ry="20.0" fill="#FFFFFF" opacity="0.42" transform="rotate(-22 280.0 1355.0)"/>
  <circle cx="44" cy="656" r="84" fill="url(#orb_achievements_15_5064)" opacity="0.23"/>
  <circle cx="44" cy="656" r="84" fill="#DFFFD3" opacity="0.08"/>
  <circle cx="44" cy="656" r="84" fill="none" stroke="#FFFFFF" stroke-opacity="0.56" stroke-width="3"/>
  <ellipse cx="20.5" cy="625.8" rx="15.1" ry="6.7" fill="#FFFFFF" opacity="0.42" transform="rotate(-22 20.5 625.8)"/>
  <circle cx="676" cy="2310" r="194" fill="url(#orb_achievements_15_5064)" opacity="0.19"/>
  <circle cx="676" cy="2310" r="194" fill="#7EE56D" opacity="0.08"/>
  <circle cx="676" cy="2310" r="194" fill="none" stroke="#FFFFFF" stroke-opacity="0.56" stroke-width="3"/>
  <ellipse cx="621.7" cy="2240.2" rx="34.9" ry="15.5" fill="#FFFFFF" opacity="0.42" transform="rotate(-22 621.7 2240.2)"/>
  <circle cx="644" cy="2187" r="7" fill="#FFFFFF" opacity="0.38"/>
  <circle cx="341" cy="1352" r="3" fill="#FFFFFF" opacity="0.56"/>
  <circle cx="1162" cy="1742" r="5" fill="#FFFFFF" opacity="0.38"/>
  <circle cx="301" cy="1305" r="3" fill="#FFFFFF" opacity="0.67"/>
  <circle cx="710" cy="1638" r="4" fill="#FFFFFF" opacity="0.48"/>
  <circle cx="699" cy="1995" r="4" fill="#FFFFFF" opacity="0.54"/>
  <circle cx="653" cy="1525" r="4" fill="#FFFFFF" opacity="0.60"/>
  <circle cx="255" cy="2575" r="3" fill="#FFFFFF" opacity="0.68"/>
  <circle cx="1180" cy="727" r="5" fill="#FFFFFF" opacity="0.32"/>
  <circle cx="1152" cy="1664" r="4" fill="#FFFFFF" opacity="0.61"/>
  <circle cx="1067" cy="2041" r="4" fill="#FFFFFF" opacity="0.59"/>
  <circle cx="94" cy="2255" r="5" fill="#FFFFFF" opacity="0.61"/>
  <circle cx="470" cy="1830" r="5" fill="#FFFFFF" opacity="0.51"/>
  <circle cx="618" cy="973" r="5" fill="#FFFFFF" opacity="0.42"/>
  <circle cx="650" cy="1709" r="5" fill="#FFFFFF" opacity="0.61"/>
  <circle cx="288" cy="445" r="7" fill="#FFFFFF" opacity="0.47"/>
  <circle cx="871" cy="849" r="5" fill="#FFFFFF" opacity="0.60"/>
  <rect width="1200" height="2600" fill="#FFFFFF" opacity="0.08"/>
  <rect width="1200" height="2600" filter="url(#grain_achievements_15_5064)" opacity="0.7"/>
</svg>
