<svg xmlns="http://www.w3.org/2000/svg" width="1200" height="2600" viewBox="0 0 1200 2600" preserveAspectRatio="xMidYMid slice">
  <defs>
    <linearGradient id="bg_achievements_14_5902" x1="0" y1="0" x2="1" y2="1">
      <stop offset="0%" stop-color="#DFFFD3"/>
      <stop offset="48%" stop-color="#A7F3EF"/>
      <stop offset="100%" stop-color="#FAFFFB"/>
    </linearGradient>
    <radialGradient id="orb_achievements_14_5902" cx="35%" cy="30%" r="70%">
      <stop offset="0%" stop-color="#FFFFFF" stop-opacity="0.85"/>
      <stop offset="42%" stop-color="#FFFFFF" stop-opacity="0.20"/>
      <stop offset="100%" stop-color="#FFFFFF" stop-opacity="0.02"/>
    </radialGradient>
    <filter id="blur_achievements_14_5902" x="-30%" y="-30%" width="160%" height="160%">
      <feGaussianBlur stdDeviation="72"/>
    </filter>
    <filter id="soft_achievements_14_5902" x="-20%" y="-20%" width="140%" height="140%">
      <feGaussianBlur stdDeviation="10"/>
    </filter>
    <filter id="grain_achievements_14_5902">
      <feTurbulence type="fractalNoise" baseFrequency="0.85" numOctaves="2" stitchTiles="stitch"/>
      <feColorMatrix type="saturate" values="0"/>
      <feComponentTransfer>
        <feFuncA type="table" tableValues="0 0.035"/>
      </feComponentTransfer>
    </filter>
  </defs>
  <rect width="1200" height="2600" fill="url(#bg_achievements_14_5902)"/>
  <path d="M 742.3 2252.0 C 742.3 2414.0, 832.9 2395.9, 685.7 2520.0 C 538.5 2644.1, 587.5 2620.0, 361.9 2648.1 C 136.3 2676.2, 163.0 2641.2, -35.3 2560.2 C -233.7 2479.2, -62.9 2524.4, -141.2 2372.1 C -219.5 2219.9, -309.6 2298.5, -231.3 2146.3 C -152.9 1994.1, -157.3 2027.7, 41.0 1946.7 C 239.4 1865.7, 121.6 1837.7, 347.1 1865.8 C 572.7 1894.0, 550.1 1856.5, 697.4 1980.6 C 844.6 2104.7, 742.3 2090.0, 742.3 2252.0 Z" fill="#D8E8FF" opacity="0.28" filter="url(#blur_achievements_14_5902)"/>
  <path d="M 1587.7 2630.0 C 1587.7 2799.7, 1690.8 2785.2, 1582.1 2915.2 C 1473.3 3045.1, 1492.3 2989.1, 1325.7 3018.5 C 1159.1 3048.0, 1206.3 3063.1, 1059.8 2978.3 C 913.3 2893.5, 944.0 2923.8, 886.1 2764.3 C 828.3 2604.9, 882.0 2641.2, 939.9 2481.8 C 997.7 2322.4, 957.7 2419.5, 1104.2 2334.6 C 1250.7 2249.8, 1171.8 2293.0, 1338.5 2322.4 C 1505.1 2351.9, 1446.1 2252.5, 1554.9 2382.4 C 1663.6 2512.4, 1587.7 2460.3, 1587.7 2630.0 Z" fill="#D8E8FF" opacity="0.22" filter="url(#blur_achievements_14_5902)"/>
  <path d="M 933.0 32.0 C 933.0 225.1, 1022.4 143.5, 922.0 291.4 C 821.6 439.2, 829.9 448.6, 676.1 482.2 C 522.4 515.7, 558.7 538.8, 423.4 442.2 C 288.2 345.7, 382.0 349.5, 328.6 168.1 C 275.2 -13.3, 267.8 56.2, 321.2 -125.2 C 374.6 -306.6, 288.5 -186.2, 423.7 -282.8 C 559.0 -379.3, 530.1 -356.5, 683.9 -323.0 C 837.7 -289.5, 753.9 -364.0, 854.3 -216.1 C 954.7 -68.3, 933.0 -161.1, 933.0 32.0 Z" fill="#80B9FF" opacity="0.23" filter="url(#blur_achievements_14_5902)"/>
  <path d="M 885.0 -108.0 C 885.0 90.0, 895.9 36.7, 813.2 188.4 C 730.5 340.0, 739.2 253.7, 612.5 288.0 C 485.7 322.4, 525.9 370.6, 414.5 271.6 C 303.0 172.6, 386.1 228.2, 342.1 42.1 C 298.1 -143.9, 211.1 -52.1, 255.1 -238.2 C 299.1 -424.2, 332.4 -406.1, 443.9 -505.1 C 555.4 -604.1, 490.3 -593.3, 617.0 -558.9 C 743.8 -524.6, 724.3 -567.3, 807.1 -415.6 C 889.8 -263.9, 885.0 -306.0, 885.0 -108.0 Z" fill="#A7F3EF" opacity="0.37" filter="url(#blur_achievements_14_5902)"/>
  <path d="M 254.1 858.0 C 254.1 1121.7, 180.6 1024.5, 73.6 1226.5 C -33.4 1428.5, 52.8 1418.2, -111.1 1464.0 C -275.1 1509.8, -186.6 1457.8, -330.8 1326.0 C -475.0 1194.1, -500.6 1318.2, -557.6 1070.4 C -614.5 822.6, -600.0 939.2, -543.1 691.4 C -486.1 443.6, -528.6 421.2, -384.4 289.4 C -240.2 157.5, -263.8 262.1, -99.8 307.9 C 64.2 353.7, 28.9 257.3, 135.9 459.3 C 242.9 661.3, 254.1 594.3, 254.1 858.0 Z" fill="#DFFFD3" opacity="0.31" filter="url(#blur_achievements_14_5902)"/>
  <path d="M 649.2 1752.0 C 649.2 1982.8, 579.0 1907.1, 417.3 2083.9 C 255.6 2260.7, 349.2 2227.0, 101.5 2267.1 C -146.2 2307.2, -22.7 2367.9, -240.5 2252.5 C -458.4 2137.1, -353.7 2173.7, -439.7 1956.7 C -525.7 1739.8, -524.9 1778.4, -438.9 1561.4 C -352.8 1344.5, -526.0 1451.4, -308.1 1335.9 C -90.3 1220.5, -121.8 1266.2, 125.9 1306.2 C 373.7 1346.3, 241.1 1247.3, 402.7 1424.2 C 564.4 1601.0, 649.2 1521.2, 649.2 1752.0 Z" fill="#D8E8FF" opacity="0.35" filter="url(#blur_achievements_14_5902)"/>
  <path d="M 977.3 1386.0 C 977.3 1687.5, 991.0 1603.9, 844.9 1834.9 C 698.9 2065.9, 731.8 1999.6, 508.0 2051.9 C 284.2 2104.3, 384.6 2157.2, 187.8 2006.4 C -9.0 1855.7, -33.0 1928.2, -110.7 1644.9 C -188.4 1361.6, -106.5 1402.0, -28.8 1118.6 C 49.0 835.3, 11.2 994.6, 208.0 843.8 C 404.8 693.1, 299.9 690.2, 523.7 742.6 C 747.5 794.9, 713.7 714.4, 859.8 945.4 C 1005.8 1176.3, 977.3 1084.5, 977.3 1386.0 Z" fill="#FAFFFB" opacity="0.27" filter="url(#blur_achievements_14_5902)"/>
  <path d="M 1642.0 67.0 C 1642.0 258.7, 1687.2 236.8, 1545.7 383.6 C 1404.3 530.5, 1503.8 484.1, 1287.0 517.4 C 1070.3 550.7, 1122.7 496.5, 932.1 400.7 C 741.5 304.8, 748.5 366.8, 673.3 186.6 C 598.0 6.5, 625.6 96.4, 700.9 -83.7 C 776.2 -263.8, 758.6 -151.1, 949.2 -246.9 C 1139.7 -342.8, 1075.5 -320.9, 1292.2 -287.6 C 1508.9 -254.3, 1491.9 -351.7, 1633.4 -204.9 C 1774.8 -58.0, 1642.0 -124.7, 1642.0 67.0 Z" fill="#C9FFF2" opacity="0.27" filter="url(#blur_achievements_14_5902)"/>
  <path d="M 666.9 2661.0 C 666.9 2944.1, 706.2 2891.7, 585.0 3108.6 C 463.8 3325.4, 505.5 3329.0, 319.8 3378.1 C 134.1 3427.3, 202.4 3343.7, 39.2 3202.2 C -124.1 3060.6, -37.8 3165.6, -102.2 2899.6 C -166.7 2633.6, -185.6 2721.4, -121.1 2455.4 C -56.6 2189.4, -137.7 2297.7, 25.5 2156.2 C 188.8 2014.7, 131.8 1966.9, 317.5 2016.0 C 503.2 2065.2, 466.0 1972.8, 587.2 2189.7 C 708.4 2406.5, 666.9 2377.9, 666.9 2661.0 Z" fill="#DFFFD3" opacity="0.36" filter="url(#blur_achievements_14_5902)"/>
  <path d="M 1254.2 1141.0 C 1254.2 1306.6, 1300.6 1258.4, 1193.6 1385.3 C 1086.6 1512.1, 1147.2 1518.5, 983.2 1547.3 C 819.2 1576.1, 868.6 1494.7, 724.4 1411.9 C 580.2 1329.1, 627.3 1442.3, 570.3 1286.7 C 513.4 1131.0, 557.1 1171.8, 614.0 1016.2 C 671.0 860.6, 584.4 872.8, 728.6 790.0 C 872.8 707.2, 798.4 689.2, 962.3 717.9 C 1126.3 746.7, 1052.5 796.6, 1159.5 923.5 C 1266.5 1050.3, 1254.2 975.4, 1254.2 1141.0 Z" fill="#A7F3EF" opacity="0.32" filter="url(#blur_achievements_14_5902)"/>
  <path d="M 1505.0 2758.0 C 1505.0 2906.9, 1507.0 2849.1, 1403.8 2963.2 C 1300.5 3077.3, 1325.0 3040.2, 1166.8 3066.1 C 1008.6 3091.9, 1045.8 3142.9, 906.7 3068.4 C 767.5 2993.9, 856.9 3030.9, 801.9 2890.9 C 747.0 2751.0, 760.6 2769.5, 815.6 2629.5 C 870.5 2489.5, 780.5 2504.1, 919.7 2429.6 C 1058.8 2355.1, 1021.5 2463.6, 1179.7 2489.4 C 1337.9 2515.3, 1290.9 2464.1, 1394.2 2578.2 C 1497.5 2692.3, 1505.0 2609.1, 1505.0 2758.0 Z" fill="#C9FFF2" opacity="0.23" filter="url(#blur_achievements_14_5902)"/>
  <path d="M 750.3 -82.0 C 750.3 44.5, 751.0 1.8, 607.6 98.7 C 464.1 195.5, 552.4 152.1, 332.6 174.1 C 112.8 196.0, 216.2 258.5, 22.9 195.3 C -170.4 132.1, -101.8 126.6, -178.1 7.7 C -254.5 -111.1, -331.1 -61.7, -254.8 -180.5 C -178.5 -299.3, -191.9 -291.5, 1.4 -354.8 C 194.7 -418.0, 136.6 -382.9, 356.4 -361.0 C 576.2 -339.0, 503.6 -352.0, 647.1 -255.1 C 790.5 -158.2, 750.3 -208.4, 750.3 -82.0 Z" fill="#38D5C7" opacity="0.17" filter="url(#blur_achievements_14_5902)"/>
  <path d="M 1263.3 2509.0 C 1263.3 2662.0, 1332.3 2632.2, 1218.3 2749.4 C 1104.3 2866.6, 1182.1 2762.7, 1007.4 2789.3 C 832.8 2815.8, 901.6 2873.9, 748.1 2797.4 C 594.5 2720.9, 654.0 2771.0, 593.3 2627.2 C 532.7 2483.5, 514.7 2526.6, 575.3 2382.8 C 635.9 2239.1, 616.3 2305.1, 769.8 2228.6 C 923.4 2152.1, 821.6 2108.1, 996.2 2134.7 C 1170.8 2161.3, 1101.4 2139.8, 1215.3 2257.0 C 1329.3 2374.3, 1263.3 2356.0, 1263.3 2509.0 Z" fill="#FAFFFB" opacity="0.38" filter="url(#blur_achievements_14_5902)"/>
  <path d="M 673.6 2358.0 C 673.6 2560.5, 672.6 2486.2, 497.7 2650.0 C 322.9 2813.8, 443.7 2694.2, 160.8 2756.8 C -122.1 2819.4, 44.8 2908.1, -238.1 2845.5 C -521.0 2782.9, -344.4 2766.2, -519.2 2602.4 C -694.1 2438.6, -648.8 2560.5, -648.8 2358.0 C -648.8 2155.5, -696.3 2277.0, -521.4 2113.1 C -346.6 1949.3, -491.2 1953.1, -208.3 1890.5 C 74.6 1827.9, -92.3 1876.1, 190.6 1938.7 C 473.5 2001.2, 359.4 1898.6, 534.2 2062.4 C 709.0 2226.2, 673.6 2155.5, 673.6 2358.0 Z" fill="#FAFFFB" opacity="0.12" stroke="#FFFFFF" stroke-opacity="0.46" stroke-width="3" filter="url(#soft_achievements_14_5902)"/>
  <path d="M 673.6 2358.0 C 673.6 2560.5, 672.6 2486.2, 497.7 2650.0 C 322.9 2813.8, 443.7 2694.2, 160.8 2756.8 C -122.1 2819.4, 44.8 2908.1, -238.1 2845.5 C -521.0 2782.9, -344.4 2766.2, -519.2 2602.4 C -694.1 2438.6, -648.8 2560.5, -648.8 2358.0 C -648.8 2155.5, -696.3 2277.0, -521.4 2113.1 C -346.6 1949.3, -491.2 1953.1, -208.3 1890.5 C 74.6 1827.9, -92.3 1876.1, 190.6 1938.7 C 473.5 2001.2, 359.4 1898.6, 534.2 2062.4 C 709.0 2226.2, 673.6 2155.5, 673.6 2358.0 Z" fill="none" stroke="#FFFFFF" stroke-opacity="0.22" stroke-width="1.2"/>
  <path d="M 575.4 -49.0 C 575.4 228.7, 613.2 82.3, 500.2 306.9 C 387.3 531.5, 499.3 481.8, 316.6 567.6 C 133.8 653.4, 261.8 577.7, 79.0 491.9 C -103.7 406.1, -51.0 560.0, -163.9 335.3 C -276.9 110.7, -224.0 228.7, -224.0 -49.0 C -224.0 -326.6, -259.4 -136.5, -146.5 -361.1 C -33.6 -585.8, -99.9 -501.2, 82.8 -587.0 C 265.5 -672.8, 139.0 -716.7, 321.7 -630.9 C 504.5 -545.1, 420.9 -610.1, 533.8 -385.5 C 646.8 -160.9, 575.4 -326.7, 575.4 -49.0 Z" fill="#FAFFFB" opacity="0.12" stroke="#FAFFFB" stroke-opacity="0.46" stroke-width="3" filter="url(#soft_achievements_14_5902)"/>
  <path d="M 575.4 -49.0 C 575.4 228.7, 613.2 82.3, 500.2 306.9 C 387.3 531.5, 499.3 481.8, 316.6 567.6 C 133.8 653.4, 261.8 577.7, 79.0 491.9 C -103.7 406.1, -51.0 560.0, -163.9 335.3 C -276.9 110.7, -224.0 228.7, -224.0 -49.0 C -224.0 -326.6, -259.4 -136.5, -146.5 -361.1 C -33.6 -585.8, -99.9 -501.2, 82.8 -587.0 C 265.5 -672.8, 139.0 -716.7, 321.7 -630.9 C 504.5 -545.1, 420.9 -610.1, 533.8 -385.5 C 646.8 -160.9, 575.4 -326.7, 575.4 -49.0 Z" fill="none" stroke="#FFFFFF" stroke-opacity="0.22" stroke-width="1.2"/>
  <path d="M 1095.3 876.0 C 1095.3 1040.7, 1190.2 955.4, 1029.4 1088.6 C 868.5 1221.8, 963.6 1177.4, 703.4 1228.3 C 443.2 1279.2, 563.7 1231.4, 303.4 1180.5 C 43.2 1129.6, 187.4 1253.1, 26.5 1119.9 C -134.3 986.6, -70.8 1040.7, -70.8 876.0 C -70.8 711.3, -218.1 795.9, -57.3 662.7 C 103.5 529.4, 61.2 553.1, 321.4 502.3 C 581.6 451.4, 425.5 517.2, 685.7 568.1 C 945.9 619.0, 778.8 549.0, 939.6 682.3 C 1100.4 815.5, 1095.3 711.3, 1095.3 876.0 Z" fill="#C9FFF2" opacity="0.12" stroke="#C9FFF2" stroke-opacity="0.46" stroke-width="3" filter="url(#soft_achievements_14_5902)"/>
  <path d="M 1095.3 876.0 C 1095.3 1040.7, 1190.2 955.4, 1029.4 1088.6 C 868.5 1221.8, 963.6 1177.4, 703.4 1228.3 C 443.2 1279.2, 563.7 1231.4, 303.4 1180.5 C 43.2 1129.6, 187.4 1253.1, 26.5 1119.9 C -134.3 986.6, -70.8 1040.7, -70.8 876.0 C -70.8 711.3, -218.1 795.9, -57.3 662.7 C 103.5 529.4, 61.2 553.1, 321.4 502.3 C 581.6 451.4, 425.5 517.2, 685.7 568.1 C 945.9 619.0, 778.8 549.0, 939.6 682.3 C 1100.4 815.5, 1095.3 711.3, 1095.3 876.0 Z" fill="none" stroke="#FFFFFF" stroke-opacity="0.22" stroke-width="1.2"/>
  <path d="M 1366.4 2485.0 C 1366.4 2709.6, 1339.5 2611.9, 1177.4 2793.6 C 1015.3 2975.3, 1178.6 2944.9, 916.2 3014.3 C 653.9 3083.7, 786.9 2988.1, 524.5 2918.7 C 262.2 2849.3, 396.8 2987.6, 234.6 2805.9 C 72.5 2624.3, 34.3 2709.6, 34.3 2485.0 C 34.3 2260.4, 79.1 2413.0, 241.2 2231.3 C 403.3 2049.7, 281.2 2092.3, 543.5 2022.9 C 805.9 1953.5, 658.3 1977.1, 920.6 2046.5 C 1183.0 2115.9, 1127.5 1993.0, 1289.6 2174.6 C 1451.7 2356.3, 1366.4 2260.4, 1366.4 2485.0 Z" fill="#DFFFD3" opacity="0.12" stroke="#DFFFD3" stroke-opacity="0.46" stroke-width="3" filter="url(#soft_achievements_14_5902)"/>
  <path d="M 1366.4 2485.0 C 1366.4 2709.6, 1339.5 2611.9, 1177.4 2793.6 C 1015.3 2975.3, 1178.6 2944.9, 916.2 3014.3 C 653.9 3083.7, 786.9 2988.1, 524.5 2918.7 C 262.2 2849.3, 396.8 2987.6, 234.6 2805.9 C 72.5 2624.3, 34.3 2709.6, 34.3 2485.0 C 34.3 2260.4, 79.1 2413.0, 241.2 2231.3 C 403.3 2049.7, 281.2 2092.3, 543.5 2022.9 C 805.9 1953.5, 658.3 1977.1, 920.6 2046.5 C 1183.0 2115.9, 1127.5 1993.0, 1289.6 2174.6 C 1451.7 2356.3, 1366.4 2260.4, 1366.4 2485.0 Z" fill="none" stroke="#FFFFFF" stroke-opacity="0.22" stroke-width="1.2"/>
  <path d="M 383.6 494.0 C 383.6 883.7, 421.7 628.5, 343.9 943.8 C 266.1 1259.1, 319.6 1228.9, 193.8 1349.3 C 68.0 1469.7, 127.7 1511.5, 1.8 1391.0 C -124.0 1270.6, -85.1 1376.2, -162.9 1060.9 C -240.6 745.7, -215.7 883.7, -215.7 494.0 C -215.7 104.3, -205.0 263.9, -127.2 -51.4 C -49.4 -366.6, -111.9 -286.9, 13.9 -407.3 C 139.8 -527.7, 56.9 -563.1, 182.7 -442.6 C 308.5 -322.2, 275.8 -369.4, 353.6 -54.2 C 431.4 261.1, 383.6 104.3, 383.6 494.0 Z" fill="#DFFFD3" opacity="0.12" stroke="#FFFFFF" stroke-opacity="0.46" stroke-width="3" filter="url(#soft_achievements_14_5902)"/>
  <path d="M 383.6 494.0 C 383.6 883.7, 421.7 628.5, 343.9 943.8 C 266.1 1259.1, 319.6 1228.9, 193.8 1349.3 C 68.0 1469.7, 127.7 1511.5, 1.8 1391.0 C -124.0 1270.6, -85.1 1376.2, -162.9 1060.9 C -240.6 745.7, -215.7 883.7, -215.7 494.0 C -215.7 104.3, -205.0 263.9, -127.2 -51.4 C -49.4 -366.6, -111.9 -286.9, 13.9 -407.3 C 139.8 -527.7, 56.9 -563.1, 182.7 -442.6 C 308.5 -322.2, 275.8 -369.4, 353.6 -54.2 C 431.4 261.1, 383.6 104.3, 383.6 494.0 Z" fill="none" stroke="#FFFFFF" stroke-opacity="0.22" stroke-width="1.2"/>
  <path d="M -100.0 1020.0 Q 133.3 1222.2, 366.7 1094.9 Q 600.0 948.4, 833.3 796.4 Q 1066.7 716.7, 1300.0 853.5" fill="none" stroke="#FFFFFF" stroke-opacity="0.38" stroke-width="4" filter="url(#soft_achievements_14_5902)"/>
  <path d="M -100.0 1020.0 Q 133.3 1222.2, 366.7 1094.9 Q 600.0 948.4, 833.3 796.4 Q 1066.7 716.7, 1300.0 853.5" fill="none" stroke="#80B9FF" stroke-opacity="0.18" stroke-width="2"/>
  <path d="M -100.0 2467.7 Q 133.3 2448.6, 366.7 2604.1 Q 600.0 2571.2, 833.3 2483.0 Q 1066.7 2257.5, 1300.0 2247.7" fill="none" stroke="#FFFFFF" stroke-opacity="0.38" stroke-width="4" filter="url(#soft_achievements_14_5902)"/>
  <path d="M -100.0 2467.7 Q 133.3 2448.6, 366.7 2604.1 Q 600.0 2571.2, 833.3 2483.0 Q 1066.7 2257.5, 1300.0 2247.7" fill="none" stroke="#7EE56D" stroke-opacity="0.18" stroke-width="2"/>
  <path d="M -100.0 153.0 Q 133.3 237.4, 366.7 109.7 Q 600.0 -191.8, 833.3 -297.1 Q 1066.7 91.1, 1300.0 275.2" fill="none" stroke="#FFFFFF" stroke-opacity="0.38" stroke-width="4" filter="url(#soft_achievements_14_5902)"/>
  <path d="M -100.0 153.0 Q 133.3 237.4, 366.7 109.7 Q 600.0 -191.8, 833.3 -297.1 Q 1066.7 91.1, 1300.0 275.2" fill="none" stroke="#38D5C7" stroke-opacity="0.18" stroke-width="2"/>
  <path d="M -100.0 -88.7 Q 133.3 91.0, 366.7 393.0 Q 600.0 430.0, 833.3 130.3 Q 1066.7 -223.5, 1300.0 22.6" fill="none" stroke="#FFFFFF" stroke-opacity="0.38" stroke-width="4" filter="url(#soft_achievements_14_5902)"/>
  <path d="M -100.0 -88.7 Q 133.3 91.0, 366.7 393.0 Q 600.0 430.0, 833.3 130.3 Q 1066.7 -223.5, 1300.0 22.6" fill="none" stroke="#7EE56D" stroke-opacity="0.18" stroke-width="2"/>
  <path d="M -100.0 874.4 Q 133.3 1029.9, 366.7 1003.3 Q 600.0 710.8, 833.3 845.0 Q 1066.7 1043.1, 1300.0 864.3" fill="none" stroke="#FFFFFF" stroke-opacity="0.38" stroke-width="4" filter="url(#soft_achievements_14_5902)"/>
  <path d="M -100.0 874.4 Q 133.3 1029.9, 366.7 1003.3 Q 600.0 710.8, 833.3 845.0 Q 1066.7 1043.1, 1300.0 864.3" fill="none" stroke="#80B9FF" stroke-opacity="0.18" stroke-width="2"/>
  <path d="M -100.0 1692.7 Q 133.3 1940.9, 366.7 2032.2 Q 600.0 2210.8, 833.3 2062.4 Q 1066.7 1792.7, 1300.0 1469.2" fill="none" stroke="#FFFFFF" stroke-opacity="0.38" stroke-width="4" filter="url(#soft_achievements_14_5902)"/>
  <path d="M -100.0 1692.7 Q 133.3 1940.9, 366.7 2032.2 Q 600.0 2210.8, 833.3 2062.4 Q 1066.7 1792.7, 1300.0 1469.2" fill="none" stroke="#7EE56D" stroke-opacity="0.18" stroke-width="2"/>
  <circle cx="-51" cy="350" r="242" fill="url(#orb_achievements_14_5902)" opacity="0.36"/>
  <circle cx="-51" cy="350" r="242" fill="#FAFFFB" opacity="0.08"/>
  <circle cx="-51" cy="350" r="242" fill="none" stroke="#FFFFFF" stroke-opacity="0.56" stroke-width="3"/>
  <ellipse cx="-118.8" cy="262.9" rx="43.6" ry="19.4" fill="#FFFFFF" opacity="0.42" transform="rotate(-22 -118.8 262.9)"/>
  <circle cx="1232" cy="2636" r="135" fill="url(#orb_achievements_14_5902)" opacity="0.36"/>
  <circle cx="1232" cy="2636" r="135" fill="#C9FFF2" opacity="0.08"/>
  <circle cx="1232" cy="2636" r="135" fill="none" stroke="#FFFFFF" stroke-opacity="0.56" stroke-width="3"/>
  <ellipse cx="1194.2" cy="2587.4" rx="24.3" ry="10.8" fill="#FFFFFF" opacity="0.42" transform="rotate(-22 1194.2 2587.4)"/>
  <circle cx="953" cy="1214" r="127" fill="url(#orb_achievements_14_5902)" opacity="0.36"/>
  <circle cx="953" cy="1214" r="127" fill="#A7F3EF" opacity="0.08"/>
  <circle cx="953" cy="1214" r="127" fill="none" stroke="#FFFFFF" stroke-opacity="0.56" stroke-width="3"/>
  <ellipse cx="917.4" cy="1168.3" rx="22.9" ry="10.2" fill="#FFFFFF" opacity="0.42" transform="rotate(-22 917.4 1168.3)"/>
  <circle cx="1108" cy="1525" r="166" fill="url(#orb_achievements_14_5902)" opacity="0.23"/>
  <circle cx="1108" cy="1525" r="166" fill="#C9FFF2" opacity="0.08"/>
  <circle cx="1108" cy="1525" r="166" fill="none" stroke="#FFFFFF" stroke-opacity="0.56" stroke-width="3"/>
  <ellipse cx="1061.5" cy="1465.2" rx="29.9" ry="13.3" fill="#FFFFFF" opacity="0.42" transform="rotate(-22 1061.5 1465.2)"/>
  <circle cx="910" cy="417" r="171" fill="url(#orb_achievements_14_5902)" opacity="0.19"/>
  <circle cx="910" cy="417" r="171" fill="#38D5C7" opacity="0.08"/>
  <circle cx="910" cy="417" r="171" fill="none" stroke="#FFFFFF" stroke-opacity="0.56" stroke-width="3"/>
  <ellipse cx="862.1" cy="355.4" rx="30.8" ry="13.7" fill="#FFFFFF" opacity="0.42" transform="rotate(-22 862.1 355.4)"/>
  <circle cx="-80" cy="1097" r="286" fill="url(#orb_achievements_14_5902)" opacity="0.19"/>
  <circle cx="-80" cy="1097" r="286" fill="#38D5C7" opacity="0.08"/>
  <circle cx="-80" cy="1097" r="286" fill="none" stroke="#FFFFFF" stroke-opacity="0.56" stroke-width="3"/>
  <ellipse cx="-160.1" cy="994.0" rx="51.5" ry="22.9" fill="#FFFFFF" opacity="0.42" transform="rotate(-22 -160.1 994.0)"/>
  <circle cx="189" cy="843" r="283" fill="url(#orb_achievements_14_5902)" opacity="0.17"/>
  <circle cx="189" cy="843" r="283" fill="#7EE56D" opacity="0.08"/>
  <circle cx="189" cy="843" r="283" fill="none" stroke="#FFFFFF" stroke-opacity="0.56" stroke-width="3"/>
  <ellipse cx="109.8" cy="741.1" rx="50.9" ry="22.6" fill="#FFFFFF" opacity="0.42" transform="rotate(-22 109.8 741.1)"/>
  <circle cx="836" cy="1222" r="282" fill="url(#orb_achievements_14_5902)" opacity="0.24"/>
  <circle cx="836" cy="1222" r="282" fill="#38D5C7" opacity="0.08"/>
  <circle cx="836" cy="1222" r="282" fill="none" stroke="#FFFFFF" stroke-opacity="0.56" stroke-width="3"/>
  <ellipse cx="757.0" cy="1120.5" rx="50.8" ry="22.6" fill="#FFFFFF" opacity="0.42" transform="rotate(-22 757.0 1120.5)"/>
  <circle cx="1214" cy="1204" r="209" fill="url(#orb_achievements_14_5902)" opacity="0.19"/>
  <circle cx="1214" cy="1204" r="209" fill="#38D5C7" opacity="0.08"/>
  <circle cx="1214" cy="1204" r="209" fill="none" stroke="#FFFFFF" stroke-opacity="0.56" stroke-width="3"/>
  <ellipse cx="1155.5" cy="1128.8" rx="37.6" ry="16.7" fill="#FFFFFF" opacity="0.42" transform="rotate(-22 1155.5 1128.8)"/>
  <circle cx="94" cy="11" r="151" fill="url(#orb_achievements_14_5902)" opacity="0.22"/>
  <circle cx="94" cy="11" r="151" fill="#7EE56D" opacity="0.08"/>
  <circle cx="94" cy="11" r="151" fill="none" stroke="#FFFFFF" stroke-opacity="0.56" stroke-width="3"/>
  <ellipse cx="51.7" cy="-43.4" rx="27.2" ry="12.1" fill="#FFFFFF" opacity="0.42" transform="rotate(-22 51.7 -43.4)"/>
  <circle cx="1059" cy="2211" r="3" fill="#FFFFFF" opacity="0.44"/>
  <circle cx="1184" cy="675" r="7" fill="#FFFFFF" opacity="0.68"/>
  <circle cx="481" cy="1812" r="4" fill="#FFFFFF" opacity="0.63"/>
  <circle cx="794" cy="2074" r="3" fill="#FFFFFF" opacity="0.66"/>
  <circle cx="842" cy="1570" r="3" fill="#FFFFFF" opacity="0.34"/>
  <circle cx="156" cy="964" r="2" fill="#FFFFFF" opacity="0.66"/>
  <circle cx="725" cy="448" r="2" fill="#FFFFFF" opacity="0.44"/>
  <circle cx="870" cy="536" r="5" fill="#FFFFFF" opacity="0.33"/>
  <circle cx="309" cy="1498" r="7" fill="#FFFFFF" opacity="0.33"/>
  <circle cx="142" cy="1146" r="4" fill="#FFFFFF" opacity="0.41"/>
  <circle cx="258" cy="792" r="4" fill="#FFFFFF" opacity="0.46"/>
  <rect width="1200" height="2600" fill="#FFFFFF" opacity="0.08"/>
  <rect width="1200" height="2600" filter="url(#grain_achievements_14_5902)" opacity="0.7"/>
</svg>
