<svg xmlns="http://www.w3.org/2000/svg" width="1200" height="2600" viewBox="0 0 1200 2600" preserveAspectRatio="xMidYMid slice">
  <defs>
    <linearGradient id="bg_achievements_16_8714" x1="0" y1="0" x2="1" y2="1">
      <stop offset="0%" stop-color="#D8E8FF"/>
      <stop offset="48%" stop-color="#DFFFD3"/>
      <stop offset="100%" stop-color="#A7F3EF"/>
    </linearGradient>
    <radialGradient id="orb_achievements_16_8714" cx="35%" cy="30%" r="70%">
      <stop offset="0%" stop-color="#FFFFFF" stop-opacity="0.85"/>
      <stop offset="42%" stop-color="#FFFFFF" stop-opacity="0.20"/>
      <stop offset="100%" stop-color="#FFFFFF" stop-opacity="0.02"/>
    </radialGradient>
    <filter id="blur_achievements_16_8714" x="-30%" y="-30%" width="160%" height="160%">
      <feGaussianBlur stdDeviation="72"/>
    </filter>
    <filter id="soft_achievements_16_8714" x="-20%" y="-20%" width="140%" height="140%">
      <feGaussianBlur stdDeviation="10"/>
    </filter>
    <filter id="grain_achievements_16_8714">
      <feTurbulence type="fractalNoise" baseFrequency="0.85" numOctaves="2" stitchTiles="stitch"/>
      <feColorMatrix type="saturate" values="0"/>
      <feComponentTransfer>
        <feFuncA type="table" tableValues="0 0.035"/>
      </feComponentTransfer>
    </filter>
  </defs>
  <rect width="1200" height="2600" fill="url(#bg_achievements_16_8714)"/>
  <path d="M 1670.9 1475.0 C 1670.9 1741.8, 1543.9 1615.4, 1393.5 1819.9 C 1243.1 2024.3, 1384.2 2039.6, 1153.8 2085.9 C 923.3 2132.3, 1014.9 2193.0, 812.3 2059.6 C 609.6 1926.1, 704.9 1945.6, 624.9 1694.9 C 544.8 1444.1, 415.7 1501.0, 495.7 1250.3 C 575.8 999.5, 577.3 1185.8, 779.9 1052.4 C 982.6 919.0, 934.1 819.1, 1164.6 865.4 C 1395.0 911.7, 1379.0 823.0, 1529.4 1027.4 C 1679.8 1231.9, 1670.9 1208.2, 1670.9 1475.0 Z" fill="#80B9FF" opacity="0.33" filter="url(#blur_achievements_16_8714)"/>
  <path d="M 457.7 2707.0 C 457.7 2968.4, 524.8 2891.4, 435.2 3091.7 C 345.5 3292.0, 366.6 3134.1, 229.2 3179.5 C 91.8 3224.9, 163.5 3407.8, 42.7 3277.1 C -78.1 3146.4, -74.1 3143.3, -121.8 2897.6 C -169.5 2651.9, -217.2 2726.2, -169.5 2480.5 C -121.8 2234.8, -113.4 2360.8, 7.4 2230.1 C 128.2 2099.3, 91.8 2020.8, 229.2 2066.2 C 366.6 2111.6, 315.5 2198.0, 405.2 2398.2 C 494.9 2598.5, 457.7 2445.6, 457.7 2707.0 Z" fill="#A7F3EF" opacity="0.22" filter="url(#blur_achievements_16_8714)"/>
  <path d="M 1789.6 2787.0 C 1789.6 3082.2, 1768.0 2984.1, 1638.1 3210.2 C 1508.3 3436.4, 1615.6 3273.4, 1416.6 3324.7 C 1217.6 3376.0, 1256.4 3503.8, 1081.4 3356.2 C 906.4 3208.6, 1032.1 3306.7, 963.0 3029.3 C 893.9 2751.9, 871.7 2871.8, 940.8 2594.4 C 1009.9 2317.0, 902.2 2412.5, 1077.2 2264.9 C 1252.2 2117.3, 1218.5 2135.9, 1417.5 2187.2 C 1616.5 2238.4, 1565.9 2205.8, 1695.8 2432.0 C 1825.7 2658.1, 1789.6 2491.8, 1789.6 2787.0 Z" fill="#A7F3EF" opacity="0.27" filter="url(#blur_achievements_16_8714)"/>
  <path d="M 590.9 1208.0 C 590.9 1368.7, 671.8 1330.2, 539.7 1453.3 C 407.5 1576.4, 455.0 1473.7, 252.5 1501.6 C 50.0 1529.5, 107.4 1603.6, -70.7 1523.3 C -248.8 1443.0, -275.4 1476.4, -345.7 1325.4 C -416.1 1174.5, -338.7 1256.6, -268.4 1105.6 C -198.1 954.7, -251.3 1023.0, -73.2 942.7 C 104.9 862.4, 44.6 857.3, 247.1 885.2 C 449.6 913.1, 415.7 848.0, 547.9 971.0 C 680.1 1094.1, 590.9 1047.3, 590.9 1208.0 Z" fill="#FAFFFB" opacity="0.16" filter="url(#blur_achievements_16_8714)"/>
  <path d="M 591.6 1106.0 C 591.6 1370.2, 701.5 1284.3, 598.2 1486.6 C 495.0 1689.0, 520.4 1717.0, 362.2 1762.9 C 204.0 1808.8, 222.7 1805.7, 83.5 1673.6 C -55.6 1541.5, 11.2 1564.3, -43.7 1316.1 C -98.7 1067.8, -120.0 1174.8, -65.0 926.6 C -10.1 678.4, -39.8 699.7, 99.3 567.7 C 238.5 435.6, 195.8 456.9, 354.0 502.7 C 512.2 548.6, 452.7 500.6, 556.0 703.0 C 659.3 905.3, 591.6 841.8, 591.6 1106.0 Z" fill="#38D5C7" opacity="0.19" filter="url(#blur_achievements_16_8714)"/>
  <path d="M 699.9 342.0 C 699.9 513.5, 676.1 435.7, 607.5 567.0 C 539.0 698.4, 579.1 671.8, 474.1 701.6 C 369.0 731.3, 388.4 713.7, 296.0 628.0 C 203.7 542.3, 257.8 622.8, 221.3 461.7 C 184.8 300.6, 208.0 392.5, 244.5 231.4 C 281.0 70.3, 240.4 122.8, 332.7 37.1 C 425.1 -48.7, 375.7 -6.0, 480.7 23.8 C 585.8 53.6, 549.6 -63.7, 618.2 67.6 C 686.7 198.9, 699.9 170.5, 699.9 342.0 Z" fill="#7EE56D" opacity="0.28" filter="url(#blur_achievements_16_8714)"/>
  <path d="M 586.1 204.0 C 586.1 330.4, 591.7 276.8, 475.8 373.7 C 359.8 470.5, 429.7 448.9, 252.0 470.9 C 74.3 492.8, 145.2 545.4, -11.1 482.1 C -167.3 418.9, -171.6 435.0, -233.4 316.1 C -295.1 197.3, -286.8 238.0, -225.1 119.1 C -163.3 0.3, -147.5 66.9, 8.7 3.7 C 165.0 -59.5, 75.1 -140.7, 252.8 -118.7 C 430.5 -96.7, 427.9 -80.3, 543.9 16.5 C 659.9 113.4, 586.1 77.5, 586.1 204.0 Z" fill="#38D5C7" opacity="0.37" filter="url(#blur_achievements_16_8714)"/>
  <path d="M 753.6 2419.0 C 753.6 2557.6, 854.1 2544.3, 721.9 2650.5 C 589.7 2756.6, 622.2 2674.6, 419.7 2698.7 C 217.2 2722.8, 330.4 2755.1, 152.3 2685.8 C -25.8 2616.5, -23.9 2662.4, -94.2 2532.1 C -164.6 2401.9, -164.2 2454.9, -93.8 2324.7 C -23.5 2194.5, -76.7 2222.5, 101.4 2153.2 C 279.5 2083.9, 229.2 2071.1, 431.7 2095.1 C 634.2 2119.2, 509.8 2124.0, 642.0 2230.2 C 774.2 2336.3, 753.6 2280.4, 753.6 2419.0 Z" fill="#80B9FF" opacity="0.31" filter="url(#blur_achievements_16_8714)"/>
  <path d="M 1039.9 1651.0 C 1039.9 1923.2, 1079.1 1777.9, 933.3 1986.5 C 787.5 2195.0, 932.6 2180.8, 709.3 2228.0 C 485.9 2275.3, 540.9 2359.6, 344.5 2223.5 C 148.1 2087.4, 235.2 2112.7, 157.6 1856.9 C 80.1 1601.1, 91.6 1714.1, 169.2 1458.3 C 246.8 1202.5, 119.7 1177.5, 316.1 1041.4 C 512.5 905.3, 472.5 953.6, 695.9 1000.9 C 919.2 1048.2, 895.0 993.5, 1040.8 1202.1 C 1186.6 1410.6, 1039.9 1378.8, 1039.9 1651.0 Z" fill="#DFFFD3" opacity="0.26" filter="url(#blur_achievements_16_8714)"/>
  <path d="M 972.8 2153.0 C 972.8 2450.9, 1011.2 2293.6, 864.2 2521.8 C 717.3 2750.0, 712.8 2750.6, 487.7 2802.3 C 262.6 2854.1, 348.8 2858.8, 150.8 2709.8 C -47.1 2560.9, 3.1 2679.3, -75.1 2399.4 C -153.3 2119.5, -200.2 2193.4, -122.0 1913.5 C -43.8 1633.6, -89.2 1730.1, 108.8 1581.2 C 306.8 1432.2, 271.1 1499.2, 496.2 1550.9 C 721.4 1602.6, 672.6 1531.1, 819.6 1759.3 C 966.5 1987.5, 972.8 1855.1, 972.8 2153.0 Z" fill="#38D5C7" opacity="0.19" filter="url(#blur_achievements_16_8714)"/>
  <path d="M 1611.3 1467.0 C 1611.3 1654.7, 1659.2 1549.7, 1501.6 1693.4 C 1343.9 1837.2, 1480.7 1796.6, 1239.1 1829.2 C 997.6 1861.8, 1049.7 1892.8, 837.3 1799.0 C 624.9 1705.2, 795.9 1785.6, 712.0 1609.3 C 628.1 1432.9, 647.8 1510.9, 731.7 1334.5 C 815.6 1158.2, 647.2 1166.4, 859.6 1072.6 C 1072.0 978.7, 1024.8 1074.1, 1266.3 1106.7 C 1507.8 1139.3, 1401.9 1021.4, 1559.5 1165.1 C 1717.2 1308.9, 1611.3 1279.3, 1611.3 1467.0 Z" fill="#D8E8FF" opacity="0.22" filter="url(#blur_achievements_16_8714)"/>
  <path d="M 1229.0 2030.0 C 1229.0 2201.4, 1276.2 2133.1, 1152.2 2264.4 C 1028.1 2395.8, 1052.7 2431.3, 862.6 2461.1 C 672.5 2490.9, 705.8 2416.0, 538.6 2330.3 C 371.4 2244.5, 483.2 2331.1, 417.1 2170.0 C 351.1 2008.9, 379.8 2055.5, 445.8 1894.4 C 511.9 1733.3, 397.4 1833.9, 564.6 1748.2 C 731.8 1662.4, 656.0 1671.3, 846.1 1701.1 C 1036.2 1730.8, 973.7 1668.7, 1097.8 1800.0 C 1221.9 1931.4, 1229.0 1858.5, 1229.0 2030.0 Z" fill="#A7F3EF" opacity="0.23" filter="url(#blur_achievements_16_8714)"/>
  <path d="M 969.7 406.0 C 969.7 711.5, 915.8 608.3, 767.4 842.3 C 619.0 1076.4, 688.8 1095.0, 461.4 1148.1 C 234.1 1201.1, 319.8 1201.6, 119.9 1048.9 C -80.0 896.1, -95.7 910.5, -174.6 623.3 C -253.6 336.2, -240.9 474.6, -161.9 187.5 C -83.0 -99.6, -74.6 -55.7, 125.3 -208.5 C 325.3 -361.3, 264.1 -278.8, 491.5 -225.7 C 718.8 -172.6, 633.0 -320.1, 781.4 -86.1 C 929.7 148.0, 969.7 100.4, 969.7 406.0 Z" fill="#80B9FF" opacity="0.18" filter="url(#blur_achievements_16_8714)"/>
  <path d="M 1142.1 1702.0 C 1142.1 1872.1, 1127.5 1762.7, 959.8 1900.3 C 792.1 2037.9, 969.1 1979.8, 697.8 2032.3 C 426.4 2084.9, 581.4 2066.8, 310.1 2014.3 C 38.7 1961.7, 138.8 2051.7, -28.9 1914.1 C -196.5 1776.5, -166.4 1872.1, -166.4 1702.0 C -166.4 1531.9, -229.3 1597.9, -61.6 1460.3 C 106.1 1322.7, 14.3 1421.1, 285.6 1368.6 C 556.9 1316.0, 418.1 1278.9, 689.5 1331.5 C 960.8 1384.0, 831.5 1319.3, 999.2 1457.0 C 1166.8 1594.6, 1142.1 1531.9, 1142.1 1702.0 Z" fill="#A7F3EF" opacity="0.12" stroke="#A7F3EF" stroke-opacity="0.46" stroke-width="3" filter="url(#soft_achievements_16_8714)"/>
  <path d="M 1142.1 1702.0 C 1142.1 1872.1, 1127.5 1762.7, 959.8 1900.3 C 792.1 2037.9, 969.1 1979.8, 697.8 2032.3 C 426.4 2084.9, 581.4 2066.8, 310.1 2014.3 C 38.7 1961.7, 138.8 2051.7, -28.9 1914.1 C -196.5 1776.5, -166.4 1872.1, -166.4 1702.0 C -166.4 1531.9, -229.3 1597.9, -61.6 1460.3 C 106.1 1322.7, 14.3 1421.1, 285.6 1368.6 C 556.9 1316.0, 418.1 1278.9, 689.5 1331.5 C 960.8 1384.0, 831.5 1319.3, 999.2 1457.0 C 1166.8 1594.6, 1142.1 1531.9, 1142.1 1702.0 Z" fill="none" stroke="#FFFFFF" stroke-opacity="0.22" stroke-width="1.2"/>
  <path d="M 1608.4 910.0 C 1608.4 1170.5, 1642.9 1063.7, 1559.3 1274.5 C 1475.7 1485.2, 1528.3 1341.7, 1393.1 1422.2 C 1257.9 1502.7, 1321.3 1468.2, 1186.1 1387.7 C 1050.8 1307.1, 1082.7 1478.3, 999.1 1267.5 C 915.5 1056.7, 961.7 1170.6, 961.7 910.0 C 961.7 649.5, 940.6 744.7, 1024.2 534.0 C 1107.8 323.2, 1068.6 495.9, 1203.8 415.4 C 1339.1 334.9, 1254.2 252.4, 1389.5 332.9 C 1524.7 413.4, 1465.2 397.3, 1548.8 608.1 C 1632.3 818.8, 1608.4 649.5, 1608.4 910.0 Z" fill="#38D5C7" opacity="0.12" stroke="#FFFFFF" stroke-opacity="0.46" stroke-width="3" filter="url(#soft_achievements_16_8714)"/>
  <path d="M 1608.4 910.0 C 1608.4 1170.5, 1642.9 1063.7, 1559.3 1274.5 C 1475.7 1485.2, 1528.3 1341.7, 1393.1 1422.2 C 1257.9 1502.7, 1321.3 1468.2, 1186.1 1387.7 C 1050.8 1307.1, 1082.7 1478.3, 999.1 1267.5 C 915.5 1056.7, 961.7 1170.6, 961.7 910.0 C 961.7 649.5, 940.6 744.7, 1024.2 534.0 C 1107.8 323.2, 1068.6 495.9, 1203.8 415.4 C 1339.1 334.9, 1254.2 252.4, 1389.5 332.9 C 1524.7 413.4, 1465.2 397.3, 1548.8 608.1 C 1632.3 818.8, 1608.4 649.5, 1608.4 910.0 Z" fill="none" stroke="#FFFFFF" stroke-opacity="0.22" stroke-width="1.2"/>
  <path d="M 288.6 2814.0 C 288.6 3146.6, 425.7 3018.0, 289.5 3287.1 C 153.3 3556.1, 204.6 3437.9, -15.8 3540.7 C -236.2 3643.4, -126.8 3685.7, -347.2 3582.9 C -567.6 3480.1, -478.2 3502.2, -614.4 3233.1 C -750.6 2964.1, -718.8 3146.6, -718.8 2814.0 C -718.8 2481.4, -742.7 2677.5, -606.5 2408.5 C -470.3 2139.4, -545.5 2139.6, -325.1 2036.9 C -104.7 1934.1, -235.8 2070.2, -15.4 2173.0 C 205.0 2275.7, 45.2 2122.4, 181.4 2391.4 C 317.6 2660.5, 288.6 2481.4, 288.6 2814.0 Z" fill="#D8E8FF" opacity="0.12" stroke="#FFFFFF" stroke-opacity="0.46" stroke-width="3" filter="url(#soft_achievements_16_8714)"/>
  <path d="M 288.6 2814.0 C 288.6 3146.6, 425.7 3018.0, 289.5 3287.1 C 153.3 3556.1, 204.6 3437.9, -15.8 3540.7 C -236.2 3643.4, -126.8 3685.7, -347.2 3582.9 C -567.6 3480.1, -478.2 3502.2, -614.4 3233.1 C -750.6 2964.1, -718.8 3146.6, -718.8 2814.0 C -718.8 2481.4, -742.7 2677.5, -606.5 2408.5 C -470.3 2139.4, -545.5 2139.6, -325.1 2036.9 C -104.7 1934.1, -235.8 2070.2, -15.4 2173.0 C 205.0 2275.7, 45.2 2122.4, 181.4 2391.4 C 317.6 2660.5, 288.6 2481.4, 288.6 2814.0 Z" fill="none" stroke="#FFFFFF" stroke-opacity="0.22" stroke-width="1.2"/>
  <path d="M 628.3 2625.0 C 628.3 3025.9, 743.5 2831.1, 558.3 3155.4 C 373.1 3479.8, 487.8 3308.9, 188.2 3432.8 C -111.3 3556.7, 35.1 3696.6, -264.4 3572.7 C -564.0 3448.8, -493.2 3504.0, -678.4 3179.7 C -863.5 2855.3, -715.6 3025.9, -715.6 2625.0 C -715.6 2224.1, -809.0 2442.2, -623.8 2117.8 C -438.7 1793.4, -585.9 1810.6, -286.3 1686.7 C 13.3 1562.8, -147.2 1691.0, 152.4 1814.9 C 452.0 1938.8, 298.8 1823.4, 483.9 2147.8 C 669.1 2472.2, 628.3 2224.1, 628.3 2625.0 Z" fill="#FAFFFB" opacity="0.12" stroke="#FAFFFB" stroke-opacity="0.46" stroke-width="3" filter="url(#soft_achievements_16_8714)"/>
  <path d="M 628.3 2625.0 C 628.3 3025.9, 743.5 2831.1, 558.3 3155.4 C 373.1 3479.8, 487.8 3308.9, 188.2 3432.8 C -111.3 3556.7, 35.1 3696.6, -264.4 3572.7 C -564.0 3448.8, -493.2 3504.0, -678.4 3179.7 C -863.5 2855.3, -715.6 3025.9, -715.6 2625.0 C -715.6 2224.1, -809.0 2442.2, -623.8 2117.8 C -438.7 1793.4, -585.9 1810.6, -286.3 1686.7 C 13.3 1562.8, -147.2 1691.0, 152.4 1814.9 C 452.0 1938.8, 298.8 1823.4, 483.9 2147.8 C 669.1 2472.2, 628.3 2224.1, 628.3 2625.0 Z" fill="none" stroke="#FFFFFF" stroke-opacity="0.22" stroke-width="1.2"/>
  <path d="M 462.9 2112.0 C 462.9 2383.3, 457.7 2226.2, 345.5 2445.7 C 233.4 2665.2, 295.0 2665.5, 113.6 2749.4 C -67.9 2833.2, 45.7 2734.8, -135.8 2650.9 C -317.2 2567.1, -261.3 2679.7, -373.5 2460.1 C -485.6 2240.6, -405.0 2383.3, -405.0 2112.0 C -405.0 1840.7, -482.1 1979.8, -369.9 1760.3 C -257.8 1540.8, -334.7 1638.0, -153.3 1554.2 C 28.2 1470.3, -50.5 1411.8, 130.9 1495.7 C 312.4 1579.5, 246.2 1570.7, 358.3 1790.2 C 470.5 2009.7, 462.9 1840.7, 462.9 2112.0 Z" fill="#7EE56D" opacity="0.12" stroke="#7EE56D" stroke-opacity="0.46" stroke-width="3" filter="url(#soft_achievements_16_8714)"/>
  <path d="M 462.9 2112.0 C 462.9 2383.3, 457.7 2226.2, 345.5 2445.7 C 233.4 2665.2, 295.0 2665.5, 113.6 2749.4 C -67.9 2833.2, 45.7 2734.8, -135.8 2650.9 C -317.2 2567.1, -261.3 2679.7, -373.5 2460.1 C -485.6 2240.6, -405.0 2383.3, -405.0 2112.0 C -405.0 1840.7, -482.1 1979.8, -369.9 1760.3 C -257.8 1540.8, -334.7 1638.0, -153.3 1554.2 C 28.2 1470.3, -50.5 1411.8, 130.9 1495.7 C 312.4 1579.5, 246.2 1570.7, 358.3 1790.2 C 470.5 2009.7, 462.9 1840.7, 462.9 2112.0 Z" fill="none" stroke="#FFFFFF" stroke-opacity="0.22" stroke-width="1.2"/>
  <path d="M 1163.5 1992.0 C 1163.5 2370.0, 1283.5 2186.1, 1113.9 2491.9 C 944.4 2797.7, 1036.2 2755.9, 761.9 2872.7 C 487.5 2989.5, 634.2 2830.5, 359.9 2713.7 C 85.5 2596.9, 232.2 2806.0, 62.7 2500.2 C -106.9 2194.4, -22.5 2370.0, -22.5 1992.0 C -22.5 1614.0, -76.1 1740.4, 93.4 1434.6 C 263.0 1128.8, 118.0 1221.0, 392.3 1104.1 C 666.7 987.3, 486.2 1116.9, 760.5 1233.7 C 1034.8 1350.5, 962.6 1208.4, 1132.1 1514.2 C 1301.7 1820.0, 1163.5 1614.0, 1163.5 1992.0 Z" fill="#38D5C7" opacity="0.12" stroke="#38D5C7" stroke-opacity="0.46" stroke-width="3" filter="url(#soft_achievements_16_8714)"/>
  <path d="M 1163.5 1992.0 C 1163.5 2370.0, 1283.5 2186.1, 1113.9 2491.9 C 944.4 2797.7, 1036.2 2755.9, 761.9 2872.7 C 487.5 2989.5, 634.2 2830.5, 359.9 2713.7 C 85.5 2596.9, 232.2 2806.0, 62.7 2500.2 C -106.9 2194.4, -22.5 2370.0, -22.5 1992.0 C -22.5 1614.0, -76.1 1740.4, 93.4 1434.6 C 263.0 1128.8, 118.0 1221.0, 392.3 1104.1 C 666.7 987.3, 486.2 1116.9, 760.5 1233.7 C 1034.8 1350.5, 962.6 1208.4, 1132.1 1514.2 C 1301.7 1820.0, 1163.5 1614.0, 1163.5 1992.0 Z" fill="none" stroke="#FFFFFF" stroke-opacity="0.22" stroke-width="1.2"/>
  <path d="M 1298.9 1368.0 C 1298.9 1542.6, 1307.6 1427.4, 1124.3 1568.6 C 941.0 1709.9, 1081.0 1728.4, 784.4 1782.4 C 487.8 1836.4, 700.3 1767.0, 403.7 1713.0 C 107.1 1659.1, 167.1 1726.3, -16.2 1585.0 C -199.5 1443.8, -151.0 1542.6, -151.0 1368.0 C -151.0 1193.4, -231.7 1261.8, -48.4 1120.6 C 134.9 979.3, 88.8 1023.7, 385.4 969.8 C 682.0 915.8, 505.2 985.0, 801.8 1039.0 C 1098.4 1092.9, 949.8 1016.7, 1133.1 1158.0 C 1316.4 1299.2, 1298.9 1193.4, 1298.9 1368.0 Z" fill="#DFFFD3" opacity="0.12" stroke="#FFFFFF" stroke-opacity="0.46" stroke-width="3" filter="url(#soft_achievements_16_8714)"/>
  <path d="M 1298.9 1368.0 C 1298.9 1542.6, 1307.6 1427.4, 1124.3 1568.6 C 941.0 1709.9, 1081.0 1728.4, 784.4 1782.4 C 487.8 1836.4, 700.3 1767.0, 403.7 1713.0 C 107.1 1659.1, 167.1 1726.3, -16.2 1585.0 C -199.5 1443.8, -151.0 1542.6, -151.0 1368.0 C -151.0 1193.4, -231.7 1261.8, -48.4 1120.6 C 134.9 979.3, 88.8 1023.7, 385.4 969.8 C 682.0 915.8, 505.2 985.0, 801.8 1039.0 C 1098.4 1092.9, 949.8 1016.7, 1133.1 1158.0 C 1316.4 1299.2, 1298.9 1193.4, 1298.9 1368.0 Z" fill="none" stroke="#FFFFFF" stroke-opacity="0.22" stroke-width="1.2"/>
  <path d="M -100.0 1296.7 Q 133.3 981.8, 366.7 629.7 Q 600.0 877.3, 833.3 1323.8 Q 1066.7 1309.9, 1300.0 926.2" fill="none" stroke="#FFFFFF" stroke-opacity="0.38" stroke-width="4" filter="url(#soft_achievements_16_8714)"/>
  <path d="M -100.0 1296.7 Q 133.3 981.8, 366.7 629.7 Q 600.0 877.3, 833.3 1323.8 Q 1066.7 1309.9, 1300.0 926.2" fill="none" stroke="#80B9FF" stroke-opacity="0.18" stroke-width="2"/>
  <path d="M -100.0 1257.9 Q 133.3 1210.3, 366.7 1415.4 Q 600.0 1451.9, 833.3 1210.7 Q 1066.7 1298.7, 1300.0 1521.2" fill="none" stroke="#FFFFFF" stroke-opacity="0.38" stroke-width="4" filter="url(#soft_achievements_16_8714)"/>
  <path d="M -100.0 1257.9 Q 133.3 1210.3, 366.7 1415.4 Q 600.0 1451.9, 833.3 1210.7 Q 1066.7 1298.7, 1300.0 1521.2" fill="none" stroke="#80B9FF" stroke-opacity="0.18" stroke-width="2"/>
  <path d="M -100.0 421.3 Q 133.3 647.8, 366.7 676.5 Q 600.0 562.3, 833.3 424.5 Q 1066.7 159.9, 1300.0 35.3" fill="none" stroke="#FFFFFF" stroke-opacity="0.38" stroke-width="4" filter="url(#soft_achievements_16_8714)"/>
  <path d="M -100.0 421.3 Q 133.3 647.8, 366.7 676.5 Q 600.0 562.3, 833.3 424.5 Q 1066.7 159.9, 1300.0 35.3" fill="none" stroke="#38D5C7" stroke-opacity="0.18" stroke-width="2"/>
  <path d="M -100.0 2271.9 Q 133.3 2314.1, 366.7 2495.7 Q 600.0 2249.3, 833.3 2110.1 Q 1066.7 2112.3, 1300.0 1986.2" fill="none" stroke="#FFFFFF" stroke-opacity="0.38" stroke-width="4" filter="url(#soft_achievements_16_8714)"/>
  <path d="M -100.0 2271.9 Q 133.3 2314.1, 366.7 2495.7 Q 600.0 2249.3, 833.3 2110.1 Q 1066.7 2112.3, 1300.0 1986.2" fill="none" stroke="#80B9FF" stroke-opacity="0.18" stroke-width="2"/>
  <path d="M -100.0 1923.5 Q 133.3 2080.5, 366.7 1628.7 Q 600.0 1418.4, 833.3 1883.6 Q 1066.7 2167.8, 1300.0 1708.9" fill="none" stroke="#FFFFFF" stroke-opacity="0.38" stroke-width="4" filter="url(#soft_achievements_16_8714)"/>
  <path d="M -100.0 1923.5 Q 133.3 2080.5, 366.7 1628.7 Q 600.0 1418.4, 833.3 1883.6 Q 1066.7 2167.8, 1300.0 1708.9" fill="none" stroke="#38D5C7" stroke-opacity="0.18" stroke-width="2"/>
  <path d="M -100.0 1321.8 Q 133.3 1402.8, 366.7 1139.3 Q 600.0 899.6, 833.3 1189.3 Q 1066.7 1380.4, 1300.0 1229.1" fill="none" stroke="#FFFFFF" stroke-opacity="0.38" stroke-width="4" filter="url(#soft_achievements_16_8714)"/>
  <path d="M -100.0 1321.8 Q 133.3 1402.8, 366.7 1139.3 Q 600.0 899.6, 833.3 1189.3 Q 1066.7 1380.4, 1300.0 1229.1" fill="none" stroke="#80B9FF" stroke-opacity="0.18" stroke-width="2"/>
  <circle cx="287" cy="1579" r="274" fill="url(#orb_achievements_16_8714)" opacity="0.36"/>
  <circle cx="287" cy="1579" r="274" fill="#A7F3EF" opacity="0.08"/>
  <circle cx="287" cy="1579" r="274" fill="none" stroke="#FFFFFF" stroke-opacity="0.56" stroke-width="3"/>
  <ellipse cx="210.3" cy="1480.4" rx="49.3" ry="21.9" fill="#FFFFFF" opacity="0.42" transform="rotate(-22 210.3 1480.4)"/>
  <circle cx="1085" cy="378" r="105" fill="url(#orb_achievements_16_8714)" opacity="0.36"/>
  <circle cx="1085" cy="378" r="105" fill="#DFFFD3" opacity="0.08"/>
  <circle cx="1085" cy="378" r="105" fill="none" stroke="#FFFFFF" stroke-opacity="0.56" stroke-width="3"/>
  <ellipse cx="1055.6" cy="340.2" rx="18.9" ry="8.4" fill="#FFFFFF" opacity="0.42" transform="rotate(-22 1055.6 340.2)"/>
  <circle cx="355" cy="1342" r="224" fill="url(#orb_achievements_16_8714)" opacity="0.36"/>
  <circle cx="355" cy="1342" r="224" fill="#D8E8FF" opacity="0.08"/>
  <circle cx="355" cy="1342" r="224" fill="none" stroke="#FFFFFF" stroke-opacity="0.56" stroke-width="3"/>
  <ellipse cx="292.3" cy="1261.4" rx="40.3" ry="17.9" fill="#FFFFFF" opacity="0.42" transform="rotate(-22 292.3 1261.4)"/>
  <circle cx="1138" cy="1788" r="178" fill="url(#orb_achievements_16_8714)" opacity="0.21"/>
  <circle cx="1138" cy="1788" r="178" fill="#7EE56D" opacity="0.08"/>
  <circle cx="1138" cy="1788" r="178" fill="none" stroke="#FFFFFF" stroke-opacity="0.56" stroke-width="3"/>
  <ellipse cx="1088.2" cy="1723.9" rx="32.0" ry="14.2" fill="#FFFFFF" opacity="0.42" transform="rotate(-22 1088.2 1723.9)"/>
  <circle cx="484" cy="2052" r="194" fill="url(#orb_achievements_16_8714)" opacity="0.27"/>
  <circle cx="484" cy="2052" r="194" fill="#DFFFD3" opacity="0.08"/>
  <circle cx="484" cy="2052" r="194" fill="none" stroke="#FFFFFF" stroke-opacity="0.56" stroke-width="3"/>
  <ellipse cx="429.7" cy="1982.2" rx="34.9" ry="15.5" fill="#FFFFFF" opacity="0.42" transform="rotate(-22 429.7 1982.2)"/>
  <circle cx="201" cy="1674" r="108" fill="url(#orb_achievements_16_8714)" opacity="0.18"/>
  <circle cx="201" cy="1674" r="108" fill="#C9FFF2" opacity="0.08"/>
  <circle cx="201" cy="1674" r="108" fill="none" stroke="#FFFFFF" stroke-opacity="0.56" stroke-width="3"/>
  <ellipse cx="170.8" cy="1635.1" rx="19.4" ry="8.6" fill="#FFFFFF" opacity="0.42" transform="rotate(-22 170.8 1635.1)"/>
  <circle cx="472" cy="837" r="148" fill="url(#orb_achievements_16_8714)" opacity="0.17"/>
  <circle cx="472" cy="837" r="148" fill="#DFFFD3" opacity="0.08"/>
  <circle cx="472" cy="837" r="148" fill="none" stroke="#FFFFFF" stroke-opacity="0.56" stroke-width="3"/>
  <ellipse cx="430.6" cy="783.7" rx="26.6" ry="11.8" fill="#FFFFFF" opacity="0.42" transform="rotate(-22 430.6 783.7)"/>
  <circle cx="1080" cy="1865" r="274" fill="url(#orb_achievements_16_8714)" opacity="0.23"/>
  <circle cx="1080" cy="1865" r="274" fill="#80B9FF" opacity="0.08"/>
  <circle cx="1080" cy="1865" r="274" fill="none" stroke="#FFFFFF" stroke-opacity="0.56" stroke-width="3"/>
  <ellipse cx="1003.3" cy="1766.4" rx="49.3" ry="21.9" fill="#FFFFFF" opacity="0.42" transform="rotate(-22 1003.3 1766.4)"/>
  <circle cx="1061" cy="1981" r="268" fill="url(#orb_achievements_16_8714)" opacity="0.25"/>
  <circle cx="1061" cy="1981" r="268" fill="#A7F3EF" opacity="0.08"/>
  <circle cx="1061" cy="1981" r="268" fill="none" stroke="#FFFFFF" stroke-opacity="0.56" stroke-width="3"/>
  <ellipse cx="986.0" cy="1884.5" rx="48.2" ry="21.4" fill="#FFFFFF" opacity="0.42" transform="rotate(-22 986.0 1884.5)"/>
  <circle cx="811" cy="137" r="263" fill="url(#orb_achievements_16_8714)" opacity="0.19"/>
  <circle cx="811" cy="137" r="263" fill="#C9FFF2" opacity="0.08"/>
  <circle cx="811" cy="137" r="263" fill="none" stroke="#FFFFFF" stroke-opacity="0.56" stroke-width="3"/>
  <ellipse cx="737.4" cy="42.3" rx="47.3" ry="21.0" fill="#FFFFFF" opacity="0.42" transform="rotate(-22 737.4 42.3)"/>
  <circle cx="276" cy="2560" r="244" fill="url(#orb_achievements_16_8714)" opacity="0.21"/>
  <circle cx="276" cy="2560" r="244" fill="#A7F3EF" opacity="0.08"/>
  <circle cx="276" cy="2560" r="244" fill="none" stroke="#FFFFFF" stroke-opacity="0.56" stroke-width="3"/>
  <ellipse cx="207.7" cy="2472.2" rx="43.9" ry="19.5" fill="#FFFFFF" opacity="0.42" transform="rotate(-22 207.7 2472.2)"/>
  <circle cx="918" cy="2222" r="2" fill="#FFFFFF" opacity="0.48"/>
  <circle cx="275" cy="10" r="4" fill="#FFFFFF" opacity="0.38"/>
  <circle cx="1000" cy="2246" r="3" fill="#FFFFFF" opacity="0.50"/>
  <circle cx="110" cy="1119" r="5" fill="#FFFFFF" opacity="0.48"/>
  <circle cx="492" cy="1616" r="7" fill="#FFFFFF" opacity="0.61"/>
  <circle cx="1057" cy="264" r="7" fill="#FFFFFF" opacity="0.44"/>
  <circle cx="183" cy="371" r="4" fill="#FFFFFF" opacity="0.52"/>
  <circle cx="1090" cy="2014" r="3" fill="#FFFFFF" opacity="0.53"/>
  <circle cx="702" cy="316" r="5" fill="#FFFFFF" opacity="0.59"/>
  <circle cx="1080" cy="2082" r="4" fill="#FFFFFF" opacity="0.30"/>
  <circle cx="174" cy="102" r="5" fill="#FFFFFF" opacity="0.47"/>
  <circle cx="519" cy="2542" r="2" fill="#FFFFFF" opacity="0.42"/>
  <circle cx="298" cy="1508" r="3" fill="#FFFFFF" opacity="0.35"/>
  <circle cx="1152" cy="1503" r="7" fill="#FFFFFF" opacity="0.38"/>
  <circle cx="1099" cy="1988" r="4" fill="#FFFFFF" opacity="0.66"/>
  <circle cx="10" cy="2301" r="7" fill="#FFFFFF" opacity="0.33"/>
  <circle cx="1085" cy="449" r="2" fill="#FFFFFF" opacity="0.33"/>
  <circle cx="407" cy="1305" r="4" fill="#FFFFFF" opacity="0.54"/>
  <circle cx="292" cy="1016" r="7" fill="#FFFFFF" opacity="0.52"/>
  <rect width="1200" height="2600" fill="#FFFFFF" opacity="0.08"/>
  <rect width="1200" height="2600" filter="url(#grain_achievements_16_8714)" opacity="0.7"/>
</svg>
