<svg xmlns="http://www.w3.org/2000/svg" width="1200" height="2600" viewBox="0 0 1200 2600" preserveAspectRatio="xMidYMid slice">
  <defs>
    <linearGradient id="bg_achievements_06_1824" x1="0" y1="0" x2="1" y2="1">
      <stop offset="0%" stop-color="#DFFFD3"/>
      <stop offset="48%" stop-color="#A7F3EF"/>
      <stop offset="100%" stop-color="#FAFFFB"/>
    </linearGradient>
    <radialGradient id="orb_achievements_06_1824" cx="35%" cy="30%" r="70%">
      <stop offset="0%" stop-color="#FFFFFF" stop-opacity="0.85"/>
      <stop offset="42%" stop-color="#FFFFFF" stop-opacity="0.20"/>
      <stop offset="100%" stop-color="#FFFFFF" stop-opacity="0.02"/>
    </radialGradient>
    <filter id="blur_achievements_06_1824" x="-30%" y="-30%" width="160%" height="160%">
      <feGaussianBlur stdDeviation="72"/>
    </filter>
    <filter id="soft_achievements_06_1824" x="-20%" y="-20%" width="140%" height="140%">
      <feGaussianBlur stdDeviation="10"/>
    </filter>
    <filter id="grain_achievements_06_1824">
      <feTurbulence type="fractalNoise" baseFrequency="0.85" numOctaves="2" stitchTiles="stitch"/>
      <feColorMatrix type="saturate" values="0"/>
      <feComponentTransfer>
        <feFuncA type="table" tableValues="0 0.035"/>
      </feComponentTransfer>
    </filter>
  </defs>
  <rect width="1200" height="2600" fill="url(#bg_achievements_06_1824)"/>
  <path d="M 1661.4 924.0 C 1661.4 1145.4, 1726.9 1058.7, 1617.8 1228.3 C 1508.8 1398.0, 1529.0 1396.8, 1362.0 1435.3 C 1194.9 1473.7, 1252.7 1521.2, 1105.8 1410.5 C 958.9 1299.8, 998.3 1287.0, 940.3 1078.9 C 882.2 870.9, 899.7 986.4, 957.8 778.3 C 1015.8 570.3, 934.0 597.4, 1080.9 486.7 C 1227.8 376.0, 1184.5 318.5, 1351.5 357.0 C 1518.6 395.4, 1492.7 461.1, 1601.8 630.7 C 1710.8 800.3, 1661.4 702.6, 1661.4 924.0 Z" fill="#A7F3EF" opacity="0.26" filter="url(#blur_achievements_06_1824)"/>
  <path d="M 1489.8 2702.0 C 1489.8 2840.2, 1470.4 2763.2, 1310.7 2869.0 C 1151.1 2974.8, 1229.2 2973.9, 984.6 2997.9 C 740.0 3021.9, 874.4 3084.7, 659.2 3015.6 C 444.1 2946.5, 531.6 2927.3, 446.6 2797.5 C 361.7 2667.6, 246.2 2712.0, 331.2 2582.2 C 416.1 2452.4, 370.0 2510.2, 585.1 2441.1 C 800.2 2372.1, 745.6 2321.7, 990.2 2345.7 C 1234.8 2369.7, 1164.5 2398.8, 1324.2 2504.6 C 1483.8 2610.5, 1489.8 2563.8, 1489.8 2702.0 Z" fill="#80B9FF" opacity="0.28" filter="url(#blur_achievements_06_1824)"/>
  <path d="M 1667.9 521.0 C 1667.9 811.2, 1648.2 673.7, 1513.7 896.0 C 1379.2 1118.4, 1504.7 1173.2, 1298.6 1223.7 C 1092.5 1274.1, 1180.4 1287.9, 999.2 1142.8 C 818.0 997.6, 890.0 987.8, 818.4 715.0 C 746.9 442.3, 737.0 592.0, 808.6 319.2 C 880.1 46.5, 825.3 115.0, 1006.5 -30.1 C 1187.7 -175.2, 1074.4 -209.8, 1280.5 -159.4 C 1486.6 -109.0, 1432.2 -74.0, 1566.7 148.3 C 1701.2 370.6, 1667.9 230.8, 1667.9 521.0 Z" fill="#DFFFD3" opacity="0.38" filter="url(#blur_achievements_06_1824)"/>
  <path d="M 1013.7 462.0 C 1013.7 666.8, 1088.4 617.7, 1010.0 774.5 C 931.6 931.4, 948.0 858.2, 827.9 893.8 C 707.8 929.3, 727.0 934.5, 621.4 832.1 C 515.8 729.7, 556.6 824.1, 514.9 631.7 C 473.2 439.3, 493.3 489.3, 535.1 296.9 C 576.8 104.5, 555.5 127.0, 661.1 24.6 C 766.7 -77.7, 704.9 -48.8, 825.0 -13.2 C 945.1 22.3, 936.2 -26.5, 1014.6 130.3 C 1093.0 287.2, 1013.7 257.2, 1013.7 462.0 Z" fill="#DFFFD3" opacity="0.25" filter="url(#blur_achievements_06_1824)"/>
  <path d="M 1099.1 1739.0 C 1099.1 1926.2, 1120.7 1831.8, 1021.8 1975.2 C 922.9 2118.6, 952.5 2123.4, 800.9 2155.9 C 649.4 2188.4, 741.6 2217.4, 608.3 2123.8 C 475.0 2030.2, 435.7 2069.0, 383.1 1893.1 C 330.4 1717.2, 350.3 1758.8, 402.9 1582.9 C 455.6 1407.0, 454.8 1509.3, 588.1 1415.7 C 721.4 1322.1, 653.7 1229.5, 805.3 1262.0 C 956.9 1294.5, 934.0 1353.9, 1032.9 1497.3 C 1131.8 1640.7, 1099.1 1551.8, 1099.1 1739.0 Z" fill="#FAFFFB" opacity="0.16" filter="url(#blur_achievements_06_1824)"/>
  <path d="M 1779.7 428.0 C 1779.7 687.7, 1748.2 545.5, 1598.9 744.4 C 1449.7 943.3, 1476.6 956.3, 1247.9 1001.4 C 1019.3 1046.5, 1140.5 1111.3, 939.4 981.5 C 738.3 851.7, 791.2 848.8, 711.8 604.8 C 632.4 360.9, 616.4 482.6, 695.8 238.6 C 775.2 -5.4, 750.2 57.5, 951.3 -72.3 C 1152.4 -202.1, 1036.6 -177.5, 1265.3 -132.4 C 1493.9 -87.3, 1466.4 -81.2, 1615.7 117.7 C 1764.9 316.6, 1779.7 168.3, 1779.7 428.0 Z" fill="#FAFFFB" opacity="0.36" filter="url(#blur_achievements_06_1824)"/>
  <path d="M 1155.9 2188.0 C 1155.9 2393.2, 1210.8 2331.9, 1131.5 2489.1 C 1052.3 2646.3, 1090.8 2592.8, 969.4 2628.4 C 847.9 2664.0, 895.0 2742.0, 788.2 2639.4 C 681.4 2536.8, 713.0 2523.0, 670.8 2330.2 C 628.7 2137.4, 603.3 2206.8, 645.5 2013.9 C 687.7 1821.1, 663.7 1939.1, 770.5 1836.5 C 877.2 1733.9, 852.1 1633.6, 973.5 1669.2 C 1094.9 1704.9, 1023.8 1773.4, 1103.1 1930.6 C 1182.4 2087.8, 1155.9 1982.8, 1155.9 2188.0 Z" fill="#7EE56D" opacity="0.19" filter="url(#blur_achievements_06_1824)"/>
  <path d="M 1158.7 624.0 C 1158.7 841.4, 1208.4 727.3, 1095.3 893.8 C 982.2 1060.3, 1028.7 1037.3, 855.5 1075.1 C 682.2 1112.8, 729.2 1135.0, 576.8 1026.3 C 424.4 917.7, 476.0 1020.9, 415.8 816.7 C 355.6 612.4, 334.1 654.1, 394.2 449.8 C 454.4 245.6, 447.5 351.1, 599.8 242.4 C 752.2 133.7, 673.5 31.0, 846.8 68.7 C 1020.0 106.5, 970.4 98.5, 1083.5 265.0 C 1196.6 431.5, 1158.7 406.6, 1158.7 624.0 Z" fill="#80B9FF" opacity="0.34" filter="url(#blur_achievements_06_1824)"/>
  <path d="M 1716.8 2638.0 C 1716.8 2871.1, 1806.4 2845.5, 1647.9 3024.1 C 1489.4 3202.7, 1579.7 3114.8, 1336.9 3155.3 C 1094.0 3195.8, 1192.6 3258.6, 979.0 3142.1 C 765.5 3025.5, 831.8 3027.4, 747.5 2808.3 C 663.2 2589.3, 678.2 2691.7, 762.6 2472.7 C 846.9 2253.6, 694.1 2353.9, 907.7 2237.4 C 1121.2 2120.8, 1074.5 2000.1, 1317.3 2040.6 C 1560.2 2081.0, 1512.9 2165.3, 1671.4 2343.9 C 1829.9 2522.5, 1716.8 2404.9, 1716.8 2638.0 Z" fill="#DFFFD3" opacity="0.32" filter="url(#blur_achievements_06_1824)"/>
  <path d="M 395.9 1097.0 C 395.9 1231.5, 389.3 1197.9, 244.4 1301.0 C 99.5 1404.0, 213.8 1372.3, -8.3 1395.6 C -230.3 1419.0, -186.6 1426.5, -381.9 1359.2 C -577.1 1291.9, -457.5 1338.6, -534.6 1212.1 C -611.7 1085.7, -733.7 1111.3, -656.6 984.9 C -579.5 858.5, -546.8 882.4, -351.6 815.1 C -156.3 747.8, -247.1 809.0, -25.1 832.4 C 196.9 855.7, 194.8 812.3, 339.7 915.4 C 484.6 1018.5, 395.9 962.5, 395.9 1097.0 Z" fill="#DFFFD3" opacity="0.26" filter="url(#blur_achievements_06_1824)"/>
  <path d="M 1553.9 673.0 C 1553.9 941.2, 1594.5 837.4, 1463.5 1042.9 C 1332.4 1248.3, 1357.6 1217.7, 1156.8 1264.3 C 956.1 1310.9, 1004.8 1336.1, 828.3 1202.0 C 651.8 1067.9, 675.9 1099.7, 606.2 847.7 C 536.4 595.7, 632.5 720.1, 702.2 468.0 C 772.0 216.0, 689.6 322.4, 866.2 188.3 C 1042.7 54.2, 943.9 132.7, 1144.7 179.3 C 1345.4 225.8, 1334.5 126.9, 1465.6 332.4 C 1596.6 537.8, 1553.9 404.8, 1553.9 673.0 Z" fill="#7EE56D" opacity="0.18" filter="url(#blur_achievements_06_1824)"/>
  <path d="M 707.5 2801.0 C 707.5 3080.9, 721.9 2978.8, 636.6 3193.2 C 551.3 3407.6, 570.9 3365.2, 440.2 3413.8 C 309.5 3462.4, 359.2 3452.3, 244.2 3312.4 C 129.3 3172.4, 169.8 3298.9, 124.4 3035.8 C 79.0 2772.8, 24.6 2837.9, 70.1 2574.9 C 115.5 2311.9, 131.5 2334.3, 246.4 2194.3 C 361.4 2054.4, 305.5 2206.2, 436.2 2254.8 C 567.0 2303.4, 499.5 2189.7, 584.8 2404.1 C 670.1 2618.5, 707.5 2521.1, 707.5 2801.0 Z" fill="#D8E8FF" opacity="0.22" filter="url(#blur_achievements_06_1824)"/>
  <path d="M 1226.1 1491.0 C 1226.1 1637.7, 1222.6 1550.9, 1096.1 1663.3 C 969.7 1775.7, 1025.5 1770.1, 831.8 1795.6 C 638.2 1821.0, 709.1 1878.4, 538.8 1805.0 C 368.5 1731.7, 337.1 1746.9, 269.8 1609.0 C 202.6 1471.2, 214.1 1528.6, 281.3 1390.8 C 348.6 1252.9, 376.4 1244.5, 546.7 1171.2 C 717.0 1097.8, 635.6 1144.5, 829.2 1169.9 C 1022.9 1195.4, 926.5 1165.8, 1052.9 1278.2 C 1179.3 1390.6, 1226.1 1344.3, 1226.1 1491.0 Z" fill="#DFFFD3" opacity="0.28" filter="url(#blur_achievements_06_1824)"/>
  <path d="M 1836.0 2219.0 C 1836.0 2519.2, 1858.5 2417.3, 1696.1 2660.1 C 1533.7 2903.0, 1615.9 2835.9, 1353.2 2928.6 C 1090.4 3021.4, 1229.8 2971.3, 967.0 2878.5 C 704.2 2785.8, 832.0 2842.1, 669.5 2599.3 C 507.1 2356.4, 539.7 2519.2, 539.7 2219.0 C 539.7 1918.8, 533.2 2055.7, 695.6 1812.8 C 858.0 1570.0, 705.0 1636.9, 967.8 1544.2 C 1230.5 1451.4, 1086.5 1414.3, 1349.3 1507.0 C 1612.0 1599.8, 1571.1 1565.2, 1733.5 1808.1 C 1895.9 2050.9, 1836.0 1918.8, 1836.0 2219.0 Z" fill="#DFFFD3" opacity="0.12" stroke="#FFFFFF" stroke-opacity="0.46" stroke-width="3" filter="url(#soft_achievements_06_1824)"/>
  <path d="M 1836.0 2219.0 C 1836.0 2519.2, 1858.5 2417.3, 1696.1 2660.1 C 1533.7 2903.0, 1615.9 2835.9, 1353.2 2928.6 C 1090.4 3021.4, 1229.8 2971.3, 967.0 2878.5 C 704.2 2785.8, 832.0 2842.1, 669.5 2599.3 C 507.1 2356.4, 539.7 2519.2, 539.7 2219.0 C 539.7 1918.8, 533.2 2055.7, 695.6 1812.8 C 858.0 1570.0, 705.0 1636.9, 967.8 1544.2 C 1230.5 1451.4, 1086.5 1414.3, 1349.3 1507.0 C 1612.0 1599.8, 1571.1 1565.2, 1733.5 1808.1 C 1895.9 2050.9, 1836.0 1918.8, 1836.0 2219.0 Z" fill="none" stroke="#FFFFFF" stroke-opacity="0.22" stroke-width="1.2"/>
  <path d="M 1782.1 2691.0 C 1782.1 3074.8, 1814.8 2858.3, 1717.8 3168.8 C 1620.7 3479.3, 1664.5 3295.2, 1507.4 3413.8 C 1350.4 3532.4, 1439.2 3727.9, 1282.1 3609.3 C 1125.1 3490.7, 1172.2 3472.1, 1075.1 3161.6 C 978.1 2851.1, 1006.6 3074.8, 1006.6 2691.0 C 1006.6 2307.2, 1020.2 2564.7, 1117.3 2254.2 C 1214.3 1943.7, 1128.2 1904.6, 1285.2 1786.0 C 1442.3 1667.4, 1365.4 1866.0, 1522.4 1984.6 C 1679.5 2103.2, 1621.4 1841.1, 1718.4 2151.6 C 1815.5 2462.2, 1782.1 2307.2, 1782.1 2691.0 Z" fill="#FAFFFB" opacity="0.12" stroke="#FFFFFF" stroke-opacity="0.46" stroke-width="3" filter="url(#soft_achievements_06_1824)"/>
  <path d="M 1782.1 2691.0 C 1782.1 3074.8, 1814.8 2858.3, 1717.8 3168.8 C 1620.7 3479.3, 1664.5 3295.2, 1507.4 3413.8 C 1350.4 3532.4, 1439.2 3727.9, 1282.1 3609.3 C 1125.1 3490.7, 1172.2 3472.1, 1075.1 3161.6 C 978.1 2851.1, 1006.6 3074.8, 1006.6 2691.0 C 1006.6 2307.2, 1020.2 2564.7, 1117.3 2254.2 C 1214.3 1943.7, 1128.2 1904.6, 1285.2 1786.0 C 1442.3 1667.4, 1365.4 1866.0, 1522.4 1984.6 C 1679.5 2103.2, 1621.4 1841.1, 1718.4 2151.6 C 1815.5 2462.2, 1782.1 2307.2, 1782.1 2691.0 Z" fill="none" stroke="#FFFFFF" stroke-opacity="0.22" stroke-width="1.2"/>
  <path d="M 1004.5 1606.0 C 1004.5 1968.2, 1002.4 1790.6, 867.2 2083.7 C 732.1 2376.8, 810.8 2301.6, 592.1 2413.6 C 373.4 2525.5, 485.4 2413.7, 266.7 2301.8 C 48.0 2189.8, 204.7 2329.3, 69.5 2036.3 C -65.7 1743.2, -8.8 1968.2, -8.8 1606.0 C -8.8 1243.8, -144.8 1481.1, -9.6 1188.0 C 125.6 894.9, 58.2 851.4, 276.9 739.4 C 495.6 627.5, 361.2 775.4, 579.9 887.4 C 798.6 999.3, 659.4 875.4, 794.5 1168.5 C 929.7 1461.6, 1004.5 1243.8, 1004.5 1606.0 Z" fill="#DFFFD3" opacity="0.12" stroke="#DFFFD3" stroke-opacity="0.46" stroke-width="3" filter="url(#soft_achievements_06_1824)"/>
  <path d="M 1004.5 1606.0 C 1004.5 1968.2, 1002.4 1790.6, 867.2 2083.7 C 732.1 2376.8, 810.8 2301.6, 592.1 2413.6 C 373.4 2525.5, 485.4 2413.7, 266.7 2301.8 C 48.0 2189.8, 204.7 2329.3, 69.5 2036.3 C -65.7 1743.2, -8.8 1968.2, -8.8 1606.0 C -8.8 1243.8, -144.8 1481.1, -9.6 1188.0 C 125.6 894.9, 58.2 851.4, 276.9 739.4 C 495.6 627.5, 361.2 775.4, 579.9 887.4 C 798.6 999.3, 659.4 875.4, 794.5 1168.5 C 929.7 1461.6, 1004.5 1243.8, 1004.5 1606.0 Z" fill="none" stroke="#FFFFFF" stroke-opacity="0.22" stroke-width="1.2"/>
  <path d="M 486.1 2802.0 C 486.1 2959.5, 517.1 2884.1, 410.5 3011.5 C 303.9 3138.9, 413.9 3090.2, 241.5 3138.9 C 69.0 3187.6, 165.5 3200.6, -6.9 3152.0 C -179.4 3103.3, -48.3 3124.2, -154.9 2996.8 C -261.5 2869.4, -244.6 2959.5, -244.6 2802.0 C -244.6 2644.5, -262.0 2698.2, -155.4 2570.8 C -48.8 2443.3, -184.5 2500.0, -12.0 2451.3 C 160.5 2402.7, 61.8 2445.1, 234.3 2493.7 C 406.8 2542.4, 375.7 2490.5, 482.3 2617.9 C 588.9 2745.3, 486.1 2644.5, 486.1 2802.0 Z" fill="#FAFFFB" opacity="0.12" stroke="#FAFFFB" stroke-opacity="0.46" stroke-width="3" filter="url(#soft_achievements_06_1824)"/>
  <path d="M 486.1 2802.0 C 486.1 2959.5, 517.1 2884.1, 410.5 3011.5 C 303.9 3138.9, 413.9 3090.2, 241.5 3138.9 C 69.0 3187.6, 165.5 3200.6, -6.9 3152.0 C -179.4 3103.3, -48.3 3124.2, -154.9 2996.8 C -261.5 2869.4, -244.6 2959.5, -244.6 2802.0 C -244.6 2644.5, -262.0 2698.2, -155.4 2570.8 C -48.8 2443.3, -184.5 2500.0, -12.0 2451.3 C 160.5 2402.7, 61.8 2445.1, 234.3 2493.7 C 406.8 2542.4, 375.7 2490.5, 482.3 2617.9 C 588.9 2745.3, 486.1 2644.5, 486.1 2802.0 Z" fill="none" stroke="#FFFFFF" stroke-opacity="0.22" stroke-width="1.2"/>
  <path d="M 1277.4 2033.0 C 1277.4 2411.4, 1245.8 2280.4, 1119.7 2586.5 C 993.5 2892.7, 1075.6 2815.6, 871.4 2932.5 C 667.3 3049.5, 809.4 2950.3, 605.2 2833.4 C 401.1 2716.4, 511.8 2824.0, 385.7 2517.9 C 259.5 2211.7, 233.3 2411.4, 233.3 2033.0 C 233.3 1654.5, 191.3 1876.0, 317.5 1569.9 C 443.7 1263.7, 372.2 1430.9, 576.4 1314.0 C 780.5 1197.0, 695.6 1124.8, 899.7 1241.7 C 1103.8 1358.7, 1000.8 1275.7, 1127.0 1581.9 C 1253.1 1888.0, 1277.4 1654.5, 1277.4 2033.0 Z" fill="#80B9FF" opacity="0.12" stroke="#FFFFFF" stroke-opacity="0.46" stroke-width="3" filter="url(#soft_achievements_06_1824)"/>
  <path d="M 1277.4 2033.0 C 1277.4 2411.4, 1245.8 2280.4, 1119.7 2586.5 C 993.5 2892.7, 1075.6 2815.6, 871.4 2932.5 C 667.3 3049.5, 809.4 2950.3, 605.2 2833.4 C 401.1 2716.4, 511.8 2824.0, 385.7 2517.9 C 259.5 2211.7, 233.3 2411.4, 233.3 2033.0 C 233.3 1654.5, 191.3 1876.0, 317.5 1569.9 C 443.7 1263.7, 372.2 1430.9, 576.4 1314.0 C 780.5 1197.0, 695.6 1124.8, 899.7 1241.7 C 1103.8 1358.7, 1000.8 1275.7, 1127.0 1581.9 C 1253.1 1888.0, 1277.4 1654.5, 1277.4 2033.0 Z" fill="none" stroke="#FFFFFF" stroke-opacity="0.22" stroke-width="1.2"/>
  <path d="M -100.0 2915.2 Q 133.3 2924.0, 366.7 2828.9 Q 600.0 2507.3, 833.3 2362.8 Q 1066.7 2465.4, 1300.0 2604.3" fill="none" stroke="#FFFFFF" stroke-opacity="0.38" stroke-width="4" filter="url(#soft_achievements_06_1824)"/>
  <path d="M -100.0 2915.2 Q 133.3 2924.0, 366.7 2828.9 Q 600.0 2507.3, 833.3 2362.8 Q 1066.7 2465.4, 1300.0 2604.3" fill="none" stroke="#7EE56D" stroke-opacity="0.18" stroke-width="2"/>
  <path d="M -100.0 1552.4 Q 133.3 1247.8, 366.7 1067.5 Q 600.0 1083.1, 833.3 1408.2 Q 1066.7 1580.4, 1300.0 1697.2" fill="none" stroke="#FFFFFF" stroke-opacity="0.38" stroke-width="4" filter="url(#soft_achievements_06_1824)"/>
  <path d="M -100.0 1552.4 Q 133.3 1247.8, 366.7 1067.5 Q 600.0 1083.1, 833.3 1408.2 Q 1066.7 1580.4, 1300.0 1697.2" fill="none" stroke="#80B9FF" stroke-opacity="0.18" stroke-width="2"/>
  <path d="M -100.0 942.5 Q 133.3 977.8, 366.7 1299.7 Q 600.0 1477.5, 833.3 1349.2 Q 1066.7 1263.2, 1300.0 975.3" fill="none" stroke="#FFFFFF" stroke-opacity="0.38" stroke-width="4" filter="url(#soft_achievements_06_1824)"/>
  <path d="M -100.0 942.5 Q 133.3 977.8, 366.7 1299.7 Q 600.0 1477.5, 833.3 1349.2 Q 1066.7 1263.2, 1300.0 975.3" fill="none" stroke="#7EE56D" stroke-opacity="0.18" stroke-width="2"/>
  <path d="M -100.0 2574.2 Q 133.3 2774.2, 366.7 2355.6 Q 600.0 2208.7, 833.3 2739.9 Q 1066.7 2692.4, 1300.0 2212.0" fill="none" stroke="#FFFFFF" stroke-opacity="0.38" stroke-width="4" filter="url(#soft_achievements_06_1824)"/>
  <path d="M -100.0 2574.2 Q 133.3 2774.2, 366.7 2355.6 Q 600.0 2208.7, 833.3 2739.9 Q 1066.7 2692.4, 1300.0 2212.0" fill="none" stroke="#38D5C7" stroke-opacity="0.18" stroke-width="2"/>
  <path d="M -100.0 159.8 Q 133.3 337.4, 366.7 87.4 Q 600.0 -150.7, 833.3 -412.3 Q 1066.7 -233.6, 1300.0 -51.9" fill="none" stroke="#FFFFFF" stroke-opacity="0.38" stroke-width="4" filter="url(#soft_achievements_06_1824)"/>
  <path d="M -100.0 159.8 Q 133.3 337.4, 366.7 87.4 Q 600.0 -150.7, 833.3 -412.3 Q 1066.7 -233.6, 1300.0 -51.9" fill="none" stroke="#80B9FF" stroke-opacity="0.18" stroke-width="2"/>
  <circle cx="807" cy="499" r="222" fill="url(#orb_achievements_06_1824)" opacity="0.36"/>
  <circle cx="807" cy="499" r="222" fill="#C9FFF2" opacity="0.08"/>
  <circle cx="807" cy="499" r="222" fill="none" stroke="#FFFFFF" stroke-opacity="0.56" stroke-width="3"/>
  <ellipse cx="744.8" cy="419.1" rx="40.0" ry="17.8" fill="#FFFFFF" opacity="0.42" transform="rotate(-22 744.8 419.1)"/>
  <circle cx="9" cy="1380" r="229" fill="url(#orb_achievements_06_1824)" opacity="0.36"/>
  <circle cx="9" cy="1380" r="229" fill="#C9FFF2" opacity="0.08"/>
  <circle cx="9" cy="1380" r="229" fill="none" stroke="#FFFFFF" stroke-opacity="0.56" stroke-width="3"/>
  <ellipse cx="-55.1" cy="1297.6" rx="41.2" ry="18.3" fill="#FFFFFF" opacity="0.42" transform="rotate(-22 -55.1 1297.6)"/>
  <circle cx="210" cy="550" r="271" fill="url(#orb_achievements_06_1824)" opacity="0.36"/>
  <circle cx="210" cy="550" r="271" fill="#DFFFD3" opacity="0.08"/>
  <circle cx="210" cy="550" r="271" fill="none" stroke="#FFFFFF" stroke-opacity="0.56" stroke-width="3"/>
  <ellipse cx="134.1" cy="452.4" rx="48.8" ry="21.7" fill="#FFFFFF" opacity="0.42" transform="rotate(-22 134.1 452.4)"/>
  <circle cx="349" cy="1592" r="108" fill="url(#orb_achievements_06_1824)" opacity="0.18"/>
  <circle cx="349" cy="1592" r="108" fill="#38D5C7" opacity="0.08"/>
  <circle cx="349" cy="1592" r="108" fill="none" stroke="#FFFFFF" stroke-opacity="0.56" stroke-width="3"/>
  <ellipse cx="318.8" cy="1553.1" rx="19.4" ry="8.6" fill="#FFFFFF" opacity="0.42" transform="rotate(-22 318.8 1553.1)"/>
  <circle cx="328" cy="986" r="182" fill="url(#orb_achievements_06_1824)" opacity="0.26"/>
  <circle cx="328" cy="986" r="182" fill="#A7F3EF" opacity="0.08"/>
  <circle cx="328" cy="986" r="182" fill="none" stroke="#FFFFFF" stroke-opacity="0.56" stroke-width="3"/>
  <ellipse cx="277.0" cy="920.5" rx="32.8" ry="14.6" fill="#FFFFFF" opacity="0.42" transform="rotate(-22 277.0 920.5)"/>
  <circle cx="688" cy="4" r="288" fill="url(#orb_achievements_06_1824)" opacity="0.20"/>
  <circle cx="688" cy="4" r="288" fill="#DFFFD3" opacity="0.08"/>
  <circle cx="688" cy="4" r="288" fill="none" stroke="#FFFFFF" stroke-opacity="0.56" stroke-width="3"/>
  <ellipse cx="607.4" cy="-99.7" rx="51.8" ry="23.0" fill="#FFFFFF" opacity="0.42" transform="rotate(-22 607.4 -99.7)"/>
  <circle cx="205" cy="2147" r="285" fill="url(#orb_achievements_06_1824)" opacity="0.26"/>
  <circle cx="205" cy="2147" r="285" fill="#C9FFF2" opacity="0.08"/>
  <circle cx="205" cy="2147" r="285" fill="none" stroke="#FFFFFF" stroke-opacity="0.56" stroke-width="3"/>
  <ellipse cx="125.2" cy="2044.4" rx="51.3" ry="22.8" fill="#FFFFFF" opacity="0.42" transform="rotate(-22 125.2 2044.4)"/>
  <circle cx="1081" cy="1763" r="201" fill="url(#orb_achievements_06_1824)" opacity="0.20"/>
  <circle cx="1081" cy="1763" r="201" fill="#DFFFD3" opacity="0.08"/>
  <circle cx="1081" cy="1763" r="201" fill="none" stroke="#FFFFFF" stroke-opacity="0.56" stroke-width="3"/>
  <ellipse cx="1024.7" cy="1690.6" rx="36.2" ry="16.1" fill="#FFFFFF" opacity="0.42" transform="rotate(-22 1024.7 1690.6)"/>
  <circle cx="-15" cy="2129" r="186" fill="url(#orb_achievements_06_1824)" opacity="0.25"/>
  <circle cx="-15" cy="2129" r="186" fill="#A7F3EF" opacity="0.08"/>
  <circle cx="-15" cy="2129" r="186" fill="none" stroke="#FFFFFF" stroke-opacity="0.56" stroke-width="3"/>
  <ellipse cx="-67.1" cy="2062.0" rx="33.5" ry="14.9" fill="#FFFFFF" opacity="0.42" transform="rotate(-22 -67.1 2062.0)"/>
  <circle cx="430" cy="238" r="4" fill="#FFFFFF" opacity="0.62"/>
  <circle cx="1125" cy="907" r="5" fill="#FFFFFF" opacity="0.61"/>
  <circle cx="679" cy="1411" r="7" fill="#FFFFFF" opacity="0.53"/>
  <circle cx="379" cy="142" r="3" fill="#FFFFFF" opacity="0.39"/>
  <circle cx="940" cy="298" r="2" fill="#FFFFFF" opacity="0.69"/>
  <circle cx="633" cy="721" r="2" fill="#FFFFFF" opacity="0.36"/>
  <circle cx="375" cy="374" r="4" fill="#FFFFFF" opacity="0.36"/>
  <circle cx="784" cy="683" r="5" fill="#FFFFFF" opacity="0.57"/>
  <circle cx="381" cy="614" r="3" fill="#FFFFFF" opacity="0.56"/>
  <circle cx="756" cy="1948" r="2" fill="#FFFFFF" opacity="0.32"/>
  <circle cx="317" cy="302" r="2" fill="#FFFFFF" opacity="0.57"/>
  <circle cx="1058" cy="2415" r="4" fill="#FFFFFF" opacity="0.33"/>
  <circle cx="595" cy="1708" r="3" fill="#FFFFFF" opacity="0.38"/>
  <circle cx="868" cy="401" r="3" fill="#FFFFFF" opacity="0.37"/>
  <circle cx="1061" cy="1203" r="4" fill="#FFFFFF" opacity="0.49"/>
  <circle cx="593" cy="1079" r="2" fill="#FFFFFF" opacity="0.37"/>
  <circle cx="135" cy="1997" r="2" fill="#FFFFFF" opacity="0.34"/>
  <circle cx="746" cy="128" r="4" fill="#FFFFFF" opacity="0.57"/>
  <circle cx="996" cy="1852" r="5" fill="#FFFFFF" opacity="0.59"/>
  <circle cx="274" cy="104" r="3" fill="#FFFFFF" opacity="0.50"/>
  <rect width="1200" height="2600" fill="#FFFFFF" opacity="0.08"/>
  <rect width="1200" height="2600" filter="url(#grain_achievements_06_1824)" opacity="0.7"/>
</svg>
