<svg xmlns="http://www.w3.org/2000/svg" width="1200" height="2600" viewBox="0 0 1200 2600" preserveAspectRatio="xMidYMid slice">
  <defs>
    <linearGradient id="bg_achievements_04_7146" x1="0" y1="0" x2="1" y2="1">
      <stop offset="0%" stop-color="#DFFFD3"/>
      <stop offset="48%" stop-color="#A7F3EF"/>
      <stop offset="100%" stop-color="#C9FFF2"/>
    </linearGradient>
    <radialGradient id="orb_achievements_04_7146" cx="35%" cy="30%" r="70%">
      <stop offset="0%" stop-color="#FFFFFF" stop-opacity="0.85"/>
      <stop offset="42%" stop-color="#FFFFFF" stop-opacity="0.20"/>
      <stop offset="100%" stop-color="#FFFFFF" stop-opacity="0.02"/>
    </radialGradient>
    <filter id="blur_achievements_04_7146" x="-30%" y="-30%" width="160%" height="160%">
      <feGaussianBlur stdDeviation="72"/>
    </filter>
    <filter id="soft_achievements_04_7146" x="-20%" y="-20%" width="140%" height="140%">
      <feGaussianBlur stdDeviation="10"/>
    </filter>
    <filter id="grain_achievements_04_7146">
      <feTurbulence type="fractalNoise" baseFrequency="0.85" numOctaves="2" stitchTiles="stitch"/>
      <feColorMatrix type="saturate" values="0"/>
      <feComponentTransfer>
        <feFuncA type="table" tableValues="0 0.035"/>
      </feComponentTransfer>
    </filter>
  </defs>
  <rect width="1200" height="2600" fill="url(#bg_achievements_04_7146)"/>
  <path d="M 1008.9 1239.0 C 1008.9 1461.8, 1038.7 1400.8, 889.5 1571.4 C 740.2 1742.1, 733.3 1751.0, 504.6 1789.7 C 276.0 1828.4, 380.2 1822.3, 179.1 1710.9 C -21.9 1599.6, 59.1 1621.8, -20.3 1412.5 C -99.7 1203.1, -198.6 1308.0, -119.2 1098.7 C -39.8 889.3, -19.0 958.1, 182.1 846.7 C 383.2 735.3, 274.1 665.7, 502.8 704.4 C 731.5 743.0, 638.7 712.6, 787.9 883.2 C 937.2 1053.9, 1008.9 1016.2, 1008.9 1239.0 Z" fill="#38D5C7" opacity="0.21" filter="url(#blur_achievements_04_7146)"/>
  <path d="M 574.6 1933.0 C 574.6 2208.4, 595.4 2048.4, 446.7 2259.3 C 298.0 2470.3, 385.9 2516.6, 158.2 2564.4 C -69.6 2612.3, -16.5 2536.0, -216.8 2398.3 C -417.1 2260.6, -364.4 2436.8, -443.5 2178.1 C -522.6 1919.3, -566.5 1995.0, -487.3 1736.2 C -408.2 1477.4, -424.8 1473.0, -224.5 1335.3 C -24.2 1197.6, -82.0 1279.1, 145.8 1326.9 C 373.5 1374.7, 344.2 1385.3, 492.9 1596.3 C 641.5 1807.2, 574.6 1657.6, 574.6 1933.0 Z" fill="#80B9FF" opacity="0.22" filter="url(#blur_achievements_04_7146)"/>
  <path d="M 1133.9 581.0 C 1133.9 839.8, 1108.1 692.9, 997.0 891.2 C 885.9 1089.4, 973.6 1072.1, 803.4 1117.1 C 633.3 1162.0, 706.1 1223.6, 556.4 1094.3 C 406.8 964.9, 410.3 1044.8, 351.2 801.7 C 292.1 558.5, 287.8 636.5, 346.9 393.3 C 406.0 150.2, 394.6 269.6, 544.3 140.2 C 693.9 10.9, 617.7 -92.7, 787.9 -47.7 C 958.1 -2.8, 956.2 -46.3, 1067.3 151.9 C 1178.4 350.1, 1133.9 322.2, 1133.9 581.0 Z" fill="#FAFFFB" opacity="0.27" filter="url(#blur_achievements_04_7146)"/>
  <path d="M 463.5 78.0 C 463.5 366.9, 543.9 284.0, 437.7 505.3 C 331.6 726.6, 366.7 559.6, 204.1 609.7 C 41.4 659.9, 117.4 862.2, -25.6 717.8 C -168.6 573.3, -146.7 536.2, -203.2 264.7 C -259.7 -6.8, -213.1 166.7, -156.6 -104.8 C -100.1 -376.2, -184.0 -301.8, -41.0 -446.2 C 102.0 -590.7, 49.4 -562.3, 212.0 -512.2 C 374.7 -462.0, 328.6 -530.3, 434.8 -309.0 C 541.0 -87.6, 463.5 -210.9, 463.5 78.0 Z" fill="#DFFFD3" opacity="0.37" filter="url(#blur_achievements_04_7146)"/>
  <path d="M 470.1 1600.0 C 470.1 1761.5, 505.5 1734.1, 404.9 1857.8 C 304.2 1981.6, 358.9 1933.6, 204.7 1961.7 C 50.5 1989.7, 132.9 2013.5, -2.7 1932.7 C -138.3 1851.9, -176.3 1864.4, -229.9 1712.6 C -283.5 1560.8, -167.9 1628.4, -114.3 1476.6 C -60.7 1324.8, -170.7 1386.7, -35.1 1305.9 C 100.5 1225.1, 58.6 1189.4, 212.8 1217.5 C 367.0 1245.5, 361.8 1223.5, 462.4 1347.3 C 563.1 1471.0, 470.1 1438.5, 470.1 1600.0 Z" fill="#C9FFF2" opacity="0.28" filter="url(#blur_achievements_04_7146)"/>
  <path d="M 689.5 -70.0 C 689.5 99.2, 677.0 1.0, 599.8 130.7 C 522.6 260.3, 587.5 205.1, 469.2 234.5 C 350.9 263.9, 405.7 370.1, 301.6 285.5 C 197.6 200.9, 222.6 222.2, 181.5 63.2 C 140.4 -95.8, 94.8 -17.0, 135.9 -176.0 C 176.9 -335.0, 214.9 -344.8, 319.0 -429.4 C 423.0 -514.0, 362.3 -504.2, 480.7 -474.8 C 599.0 -445.4, 548.6 -435.6, 625.8 -306.0 C 703.1 -176.4, 689.5 -239.2, 689.5 -70.0 Z" fill="#38D5C7" opacity="0.26" filter="url(#blur_achievements_04_7146)"/>
  <path d="M 1399.0 1045.0 C 1399.0 1316.3, 1375.9 1258.3, 1262.5 1466.2 C 1149.1 1674.0, 1215.5 1623.1, 1041.8 1670.2 C 868.1 1717.3, 934.7 1727.9, 781.9 1592.2 C 629.2 1456.5, 695.8 1533.2, 635.5 1278.2 C 575.1 1023.3, 532.5 1089.7, 592.9 834.8 C 653.2 579.8, 599.9 720.1, 752.7 584.4 C 905.4 448.7, 884.2 445.4, 1057.9 492.6 C 1231.7 539.7, 1152.1 496.2, 1265.5 704.1 C 1378.9 912.0, 1399.0 773.6, 1399.0 1045.0 Z" fill="#C9FFF2" opacity="0.24" filter="url(#blur_achievements_04_7146)"/>
  <path d="M 1834.7 -131.0 C 1834.7 2.2, 1857.6 -32.2, 1721.1 69.8 C 1584.6 171.9, 1627.0 86.7, 1417.9 109.9 C 1208.7 133.0, 1243.9 236.6, 1059.9 170.0 C 876.0 103.4, 969.4 111.1, 896.8 -14.0 C 824.1 -139.2, 883.4 -113.5, 956.1 -238.6 C 1028.7 -363.8, 935.6 -338.6, 1119.6 -405.2 C 1303.5 -471.8, 1207.9 -464.9, 1417.1 -441.8 C 1626.3 -418.7, 1620.8 -425.8, 1757.3 -323.8 C 1893.9 -221.7, 1834.7 -264.2, 1834.7 -131.0 Z" fill="#7EE56D" opacity="0.28" filter="url(#blur_achievements_04_7146)"/>
  <path d="M 1659.9 1423.0 C 1659.9 1595.8, 1762.5 1563.0, 1648.5 1695.4 C 1534.5 1827.8, 1543.8 1795.6, 1369.2 1825.6 C 1194.6 1855.6, 1248.8 1847.1, 1095.3 1760.7 C 941.7 1674.3, 951.2 1715.2, 890.6 1552.8 C 829.9 1390.4, 918.0 1466.1, 978.7 1303.8 C 1039.3 1141.4, 908.0 1202.1, 1061.6 1115.7 C 1215.1 1029.3, 1176.2 1075.1, 1350.8 1105.1 C 1525.4 1135.1, 1526.5 1034.4, 1640.4 1166.8 C 1754.4 1299.1, 1659.9 1250.2, 1659.9 1423.0 Z" fill="#DFFFD3" opacity="0.25" filter="url(#blur_achievements_04_7146)"/>
  <path d="M 1496.7 2314.0 C 1496.7 2573.7, 1435.0 2533.0, 1297.9 2731.9 C 1160.8 2930.8, 1261.3 2754.2, 1051.2 2799.3 C 841.2 2844.4, 919.7 2933.8, 735.0 2803.9 C 550.3 2674.1, 617.9 2779.5, 544.9 2535.5 C 471.9 2291.5, 443.4 2361.2, 516.3 2117.2 C 589.3 1873.2, 503.5 1987.6, 688.3 1857.7 C 873.0 1727.9, 826.4 1737.1, 1036.4 1782.2 C 1246.5 1827.3, 1162.4 1772.2, 1299.5 1971.2 C 1436.6 2170.1, 1496.7 2054.3, 1496.7 2314.0 Z" fill="#7EE56D" opacity="0.37" filter="url(#blur_achievements_04_7146)"/>
  <path d="M 1070.6 1520.0 C 1070.6 1760.8, 1160.2 1734.1, 1021.1 1918.6 C 882.0 2103.0, 933.7 1951.1, 720.5 1992.9 C 507.4 2034.7, 554.4 2035.1, 366.9 1914.7 C 179.5 1794.3, 319.7 1923.8, 245.6 1697.6 C 171.6 1471.3, 107.3 1592.1, 181.3 1365.8 C 255.3 1139.6, 184.0 1202.4, 371.4 1082.0 C 558.9 961.6, 509.1 860.2, 722.3 902.0 C 935.5 943.8, 836.9 1052.4, 976.0 1236.8 C 1115.2 1421.3, 1070.6 1279.2, 1070.6 1520.0 Z" fill="#80B9FF" opacity="0.34" filter="url(#blur_achievements_04_7146)"/>
  <path d="M 1358.8 721.0 C 1358.8 951.0, 1291.8 829.0, 1179.6 1005.1 C 1067.4 1181.3, 1138.6 1266.0, 966.6 1306.0 C 794.7 1345.9, 888.2 1219.3, 737.0 1104.3 C 585.8 989.3, 624.4 1087.2, 564.6 871.1 C 504.9 655.1, 511.6 785.6, 571.3 569.6 C 631.0 353.5, 591.5 457.1, 742.7 342.1 C 893.9 227.2, 794.5 133.0, 966.5 173.0 C 1138.4 212.9, 1085.4 159.4, 1197.7 335.5 C 1309.9 511.7, 1358.8 491.0, 1358.8 721.0 Z" fill="#FAFFFB" opacity="0.35" filter="url(#blur_achievements_04_7146)"/>
  <path d="M 571.3 670.0 C 571.3 949.5, 605.9 884.1, 494.2 1098.2 C 382.5 1312.3, 461.1 1310.4, 290.1 1358.9 C 119.0 1407.4, 185.9 1349.2, 35.4 1209.4 C -115.0 1069.7, -42.2 1139.9, -101.6 877.3 C -161.0 614.7, -146.2 755.9, -86.8 493.3 C -27.4 230.7, -134.1 299.7, 16.3 160.0 C 166.7 20.3, 121.1 6.1, 292.1 54.6 C 463.2 103.2, 391.7 38.9, 503.4 253.0 C 615.0 467.0, 571.3 390.6, 571.3 670.0 Z" fill="#C9FFF2" opacity="0.32" filter="url(#blur_achievements_04_7146)"/>
  <path d="M 1356.5 2455.0 C 1356.5 2682.2, 1379.7 2543.1, 1256.5 2727.0 C 1133.2 2910.8, 1276.4 2912.8, 1077.0 2983.0 C 877.6 3053.2, 976.7 3023.8, 777.3 2953.6 C 577.8 2883.4, 688.6 2923.4, 565.3 2739.5 C 442.0 2555.7, 504.8 2682.2, 504.8 2455.0 C 504.8 2227.8, 455.1 2377.8, 578.3 2194.0 C 701.6 2010.1, 575.7 2088.2, 775.1 2018.0 C 974.6 1947.7, 878.2 1960.3, 1077.7 2030.5 C 1277.1 2100.8, 1186.4 1943.0, 1309.6 2126.9 C 1432.9 2310.7, 1356.5 2227.8, 1356.5 2455.0 Z" fill="#80B9FF" opacity="0.12" stroke="#80B9FF" stroke-opacity="0.46" stroke-width="3" filter="url(#soft_achievements_04_7146)"/>
  <path d="M 1356.5 2455.0 C 1356.5 2682.2, 1379.7 2543.1, 1256.5 2727.0 C 1133.2 2910.8, 1276.4 2912.8, 1077.0 2983.0 C 877.6 3053.2, 976.7 3023.8, 777.3 2953.6 C 577.8 2883.4, 688.6 2923.4, 565.3 2739.5 C 442.0 2555.7, 504.8 2682.2, 504.8 2455.0 C 504.8 2227.8, 455.1 2377.8, 578.3 2194.0 C 701.6 2010.1, 575.7 2088.2, 775.1 2018.0 C 974.6 1947.7, 878.2 1960.3, 1077.7 2030.5 C 1277.1 2100.8, 1186.4 1943.0, 1309.6 2126.9 C 1432.9 2310.7, 1356.5 2227.8, 1356.5 2455.0 Z" fill="none" stroke="#FFFFFF" stroke-opacity="0.22" stroke-width="1.2"/>
  <path d="M 1360.9 649.0 C 1360.9 907.8, 1415.9 772.7, 1271.2 982.0 C 1126.5 1191.3, 1285.7 1058.9, 1051.6 1138.8 C 817.5 1218.8, 966.4 1287.7, 732.3 1207.8 C 498.2 1127.8, 553.2 1219.9, 408.5 1010.5 C 263.8 801.2, 370.8 907.8, 370.8 649.0 C 370.8 390.3, 344.7 527.7, 489.4 318.4 C 634.0 109.0, 480.1 181.8, 714.2 101.9 C 948.3 21.9, 798.6 31.8, 1032.7 111.8 C 1266.8 191.7, 1138.7 62.7, 1283.4 272.1 C 1428.1 481.4, 1360.9 390.2, 1360.9 649.0 Z" fill="#FAFFFB" opacity="0.12" stroke="#FFFFFF" stroke-opacity="0.46" stroke-width="3" filter="url(#soft_achievements_04_7146)"/>
  <path d="M 1360.9 649.0 C 1360.9 907.8, 1415.9 772.7, 1271.2 982.0 C 1126.5 1191.3, 1285.7 1058.9, 1051.6 1138.8 C 817.5 1218.8, 966.4 1287.7, 732.3 1207.8 C 498.2 1127.8, 553.2 1219.9, 408.5 1010.5 C 263.8 801.2, 370.8 907.8, 370.8 649.0 C 370.8 390.3, 344.7 527.7, 489.4 318.4 C 634.0 109.0, 480.1 181.8, 714.2 101.9 C 948.3 21.9, 798.6 31.8, 1032.7 111.8 C 1266.8 191.7, 1138.7 62.7, 1283.4 272.1 C 1428.1 481.4, 1360.9 390.2, 1360.9 649.0 Z" fill="none" stroke="#FFFFFF" stroke-opacity="0.22" stroke-width="1.2"/>
  <path d="M 1303.7 794.0 C 1303.7 1156.7, 1322.4 1009.0, 1209.2 1302.5 C 1096.0 1595.9, 1219.4 1490.0, 1036.3 1602.1 C 853.1 1714.2, 978.0 1718.0, 794.8 1606.0 C 611.7 1493.9, 667.5 1506.5, 554.3 1213.0 C 441.1 919.6, 493.4 1156.7, 493.4 794.0 C 493.4 431.3, 409.0 612.6, 522.2 319.2 C 635.4 25.8, 601.1 216.2, 784.3 104.1 C 967.5 -8.0, 863.8 -188.0, 1047.0 -75.9 C 1230.1 36.2, 1102.8 -22.4, 1216.0 271.1 C 1329.2 564.5, 1303.7 431.3, 1303.7 794.0 Z" fill="#D8E8FF" opacity="0.12" stroke="#D8E8FF" stroke-opacity="0.46" stroke-width="3" filter="url(#soft_achievements_04_7146)"/>
  <path d="M 1303.7 794.0 C 1303.7 1156.7, 1322.4 1009.0, 1209.2 1302.5 C 1096.0 1595.9, 1219.4 1490.0, 1036.3 1602.1 C 853.1 1714.2, 978.0 1718.0, 794.8 1606.0 C 611.7 1493.9, 667.5 1506.5, 554.3 1213.0 C 441.1 919.6, 493.4 1156.7, 493.4 794.0 C 493.4 431.3, 409.0 612.6, 522.2 319.2 C 635.4 25.8, 601.1 216.2, 784.3 104.1 C 967.5 -8.0, 863.8 -188.0, 1047.0 -75.9 C 1230.1 36.2, 1102.8 -22.4, 1216.0 271.1 C 1329.2 564.5, 1303.7 431.3, 1303.7 794.0 Z" fill="none" stroke="#FFFFFF" stroke-opacity="0.22" stroke-width="1.2"/>
  <path d="M 305.3 1743.0 C 305.3 1937.0, 413.6 1804.4, 268.6 1961.3 C 123.7 2118.2, 209.3 2117.7, -25.2 2177.6 C -259.7 2237.5, -140.5 2226.1, -375.0 2166.1 C -609.5 2106.2, -496.6 2185.7, -641.6 2028.8 C -786.5 1871.8, -691.7 1937.0, -691.7 1743.0 C -691.7 1549.0, -735.7 1625.3, -590.8 1468.4 C -445.8 1311.5, -581.4 1353.7, -346.8 1293.8 C -112.3 1233.8, -248.7 1325.4, -14.2 1385.3 C 220.4 1445.2, 123.6 1301.1, 268.5 1458.0 C 413.5 1614.9, 305.3 1549.0, 305.3 1743.0 Z" fill="#7EE56D" opacity="0.12" stroke="#7EE56D" stroke-opacity="0.46" stroke-width="3" filter="url(#soft_achievements_04_7146)"/>
  <path d="M 305.3 1743.0 C 305.3 1937.0, 413.6 1804.4, 268.6 1961.3 C 123.7 2118.2, 209.3 2117.7, -25.2 2177.6 C -259.7 2237.5, -140.5 2226.1, -375.0 2166.1 C -609.5 2106.2, -496.6 2185.7, -641.6 2028.8 C -786.5 1871.8, -691.7 1937.0, -691.7 1743.0 C -691.7 1549.0, -735.7 1625.3, -590.8 1468.4 C -445.8 1311.5, -581.4 1353.7, -346.8 1293.8 C -112.3 1233.8, -248.7 1325.4, -14.2 1385.3 C 220.4 1445.2, 123.6 1301.1, 268.5 1458.0 C 413.5 1614.9, 305.3 1549.0, 305.3 1743.0 Z" fill="none" stroke="#FFFFFF" stroke-opacity="0.22" stroke-width="1.2"/>
  <path d="M 1754.2 435.0 C 1754.2 834.2, 1737.4 596.9, 1605.9 919.8 C 1474.5 1242.7, 1632.5 1215.1, 1419.8 1338.4 C 1207.1 1461.7, 1302.2 1508.4, 1089.4 1385.1 C 876.7 1261.7, 1014.0 1261.9, 882.6 939.0 C 751.1 616.1, 718.4 834.2, 718.4 435.0 C 718.4 35.9, 760.3 230.8, 891.7 -92.1 C 1023.2 -415.0, 892.0 -188.4, 1104.7 -311.7 C 1317.4 -435.1, 1195.5 -505.7, 1408.2 -382.3 C 1620.9 -259.0, 1528.5 -472.0, 1660.0 -149.1 C 1791.4 173.8, 1754.2 35.8, 1754.2 435.0 Z" fill="#D8E8FF" opacity="0.12" stroke="#D8E8FF" stroke-opacity="0.46" stroke-width="3" filter="url(#soft_achievements_04_7146)"/>
  <path d="M 1754.2 435.0 C 1754.2 834.2, 1737.4 596.9, 1605.9 919.8 C 1474.5 1242.7, 1632.5 1215.1, 1419.8 1338.4 C 1207.1 1461.7, 1302.2 1508.4, 1089.4 1385.1 C 876.7 1261.7, 1014.0 1261.9, 882.6 939.0 C 751.1 616.1, 718.4 834.2, 718.4 435.0 C 718.4 35.9, 760.3 230.8, 891.7 -92.1 C 1023.2 -415.0, 892.0 -188.4, 1104.7 -311.7 C 1317.4 -435.1, 1195.5 -505.7, 1408.2 -382.3 C 1620.9 -259.0, 1528.5 -472.0, 1660.0 -149.1 C 1791.4 173.8, 1754.2 35.8, 1754.2 435.0 Z" fill="none" stroke="#FFFFFF" stroke-opacity="0.22" stroke-width="1.2"/>
  <path d="M 919.2 496.0 C 919.2 669.2, 1023.5 570.6, 848.1 710.8 C 672.8 850.9, 790.3 830.3, 506.6 883.8 C 222.9 937.4, 362.0 914.0, 78.2 860.5 C -205.5 807.0, -12.0 877.7, -187.4 737.5 C -362.8 597.4, -273.1 669.2, -273.1 496.0 C -273.1 322.8, -342.1 389.4, -166.8 249.2 C 8.6 109.0, -175.6 182.6, 108.2 129.1 C 391.9 75.6, 205.5 77.6, 489.3 131.1 C 773.0 184.6, 686.9 154.2, 862.3 294.4 C 1037.6 434.6, 919.2 322.8, 919.2 496.0 Z" fill="#DFFFD3" opacity="0.12" stroke="#FFFFFF" stroke-opacity="0.46" stroke-width="3" filter="url(#soft_achievements_04_7146)"/>
  <path d="M 919.2 496.0 C 919.2 669.2, 1023.5 570.6, 848.1 710.8 C 672.8 850.9, 790.3 830.3, 506.6 883.8 C 222.9 937.4, 362.0 914.0, 78.2 860.5 C -205.5 807.0, -12.0 877.7, -187.4 737.5 C -362.8 597.4, -273.1 669.2, -273.1 496.0 C -273.1 322.8, -342.1 389.4, -166.8 249.2 C 8.6 109.0, -175.6 182.6, 108.2 129.1 C 391.9 75.6, 205.5 77.6, 489.3 131.1 C 773.0 184.6, 686.9 154.2, 862.3 294.4 C 1037.6 434.6, 919.2 322.8, 919.2 496.0 Z" fill="none" stroke="#FFFFFF" stroke-opacity="0.22" stroke-width="1.2"/>
  <path d="M -100.0 125.7 Q 133.3 46.0, 366.7 549.9 Q 600.0 650.7, 833.3 447.9 Q 1066.7 31.8, 1300.0 146.7" fill="none" stroke="#FFFFFF" stroke-opacity="0.38" stroke-width="4" filter="url(#soft_achievements_04_7146)"/>
  <path d="M -100.0 125.7 Q 133.3 46.0, 366.7 549.9 Q 600.0 650.7, 833.3 447.9 Q 1066.7 31.8, 1300.0 146.7" fill="none" stroke="#38D5C7" stroke-opacity="0.18" stroke-width="2"/>
  <path d="M -100.0 339.8 Q 133.3 211.5, 366.7 62.6 Q 600.0 30.9, 833.3 239.6 Q 1066.7 326.9, 1300.0 165.6" fill="none" stroke="#FFFFFF" stroke-opacity="0.38" stroke-width="4" filter="url(#soft_achievements_04_7146)"/>
  <path d="M -100.0 339.8 Q 133.3 211.5, 366.7 62.6 Q 600.0 30.9, 833.3 239.6 Q 1066.7 326.9, 1300.0 165.6" fill="none" stroke="#38D5C7" stroke-opacity="0.18" stroke-width="2"/>
  <path d="M -100.0 719.1 Q 133.3 685.1, 366.7 726.2 Q 600.0 897.8, 833.3 1114.1 Q 1066.7 1187.3, 1300.0 1167.2" fill="none" stroke="#FFFFFF" stroke-opacity="0.38" stroke-width="4" filter="url(#soft_achievements_04_7146)"/>
  <path d="M -100.0 719.1 Q 133.3 685.1, 366.7 726.2 Q 600.0 897.8, 833.3 1114.1 Q 1066.7 1187.3, 1300.0 1167.2" fill="none" stroke="#7EE56D" stroke-opacity="0.18" stroke-width="2"/>
  <path d="M -100.0 1495.3 Q 133.3 1358.6, 366.7 1687.6 Q 600.0 1812.2, 833.3 1562.0 Q 1066.7 1362.3, 1300.0 1576.6" fill="none" stroke="#FFFFFF" stroke-opacity="0.38" stroke-width="4" filter="url(#soft_achievements_04_7146)"/>
  <path d="M -100.0 1495.3 Q 133.3 1358.6, 366.7 1687.6 Q 600.0 1812.2, 833.3 1562.0 Q 1066.7 1362.3, 1300.0 1576.6" fill="none" stroke="#80B9FF" stroke-opacity="0.18" stroke-width="2"/>
  <path d="M -100.0 250.0 Q 133.3 314.3, 366.7 23.0 Q 600.0 -365.6, 833.3 -190.2 Q 1066.7 153.6, 1300.0 398.7" fill="none" stroke="#FFFFFF" stroke-opacity="0.38" stroke-width="4" filter="url(#soft_achievements_04_7146)"/>
  <path d="M -100.0 250.0 Q 133.3 314.3, 366.7 23.0 Q 600.0 -365.6, 833.3 -190.2 Q 1066.7 153.6, 1300.0 398.7" fill="none" stroke="#7EE56D" stroke-opacity="0.18" stroke-width="2"/>
  <circle cx="1037" cy="712" r="130" fill="url(#orb_achievements_04_7146)" opacity="0.36"/>
  <circle cx="1037" cy="712" r="130" fill="#80B9FF" opacity="0.08"/>
  <circle cx="1037" cy="712" r="130" fill="none" stroke="#FFFFFF" stroke-opacity="0.56" stroke-width="3"/>
  <ellipse cx="1000.6" cy="665.2" rx="23.4" ry="10.4" fill="#FFFFFF" opacity="0.42" transform="rotate(-22 1000.6 665.2)"/>
  <circle cx="796" cy="1443" r="80" fill="url(#orb_achievements_04_7146)" opacity="0.36"/>
  <circle cx="796" cy="1443" r="80" fill="#FAFFFB" opacity="0.08"/>
  <circle cx="796" cy="1443" r="80" fill="none" stroke="#FFFFFF" stroke-opacity="0.56" stroke-width="3"/>
  <ellipse cx="773.6" cy="1414.2" rx="14.4" ry="6.4" fill="#FFFFFF" opacity="0.42" transform="rotate(-22 773.6 1414.2)"/>
  <circle cx="-31" cy="2189" r="152" fill="url(#orb_achievements_04_7146)" opacity="0.36"/>
  <circle cx="-31" cy="2189" r="152" fill="#7EE56D" opacity="0.08"/>
  <circle cx="-31" cy="2189" r="152" fill="none" stroke="#FFFFFF" stroke-opacity="0.56" stroke-width="3"/>
  <ellipse cx="-73.6" cy="2134.3" rx="27.4" ry="12.2" fill="#FFFFFF" opacity="0.42" transform="rotate(-22 -73.6 2134.3)"/>
  <circle cx="119" cy="2261" r="134" fill="url(#orb_achievements_04_7146)" opacity="0.19"/>
  <circle cx="119" cy="2261" r="134" fill="#A7F3EF" opacity="0.08"/>
  <circle cx="119" cy="2261" r="134" fill="none" stroke="#FFFFFF" stroke-opacity="0.56" stroke-width="3"/>
  <ellipse cx="81.5" cy="2212.8" rx="24.1" ry="10.7" fill="#FFFFFF" opacity="0.42" transform="rotate(-22 81.5 2212.8)"/>
  <circle cx="508" cy="164" r="101" fill="url(#orb_achievements_04_7146)" opacity="0.26"/>
  <circle cx="508" cy="164" r="101" fill="#38D5C7" opacity="0.08"/>
  <circle cx="508" cy="164" r="101" fill="none" stroke="#FFFFFF" stroke-opacity="0.56" stroke-width="3"/>
  <ellipse cx="479.7" cy="127.6" rx="18.2" ry="8.1" fill="#FFFFFF" opacity="0.42" transform="rotate(-22 479.7 127.6)"/>
  <circle cx="1234" cy="1351" r="189" fill="url(#orb_achievements_04_7146)" opacity="0.21"/>
  <circle cx="1234" cy="1351" r="189" fill="#C9FFF2" opacity="0.08"/>
  <circle cx="1234" cy="1351" r="189" fill="none" stroke="#FFFFFF" stroke-opacity="0.56" stroke-width="3"/>
  <ellipse cx="1181.1" cy="1283.0" rx="34.0" ry="15.1" fill="#FFFFFF" opacity="0.42" transform="rotate(-22 1181.1 1283.0)"/>
  <circle cx="646" cy="110" r="252" fill="url(#orb_achievements_04_7146)" opacity="0.16"/>
  <circle cx="646" cy="110" r="252" fill="#C9FFF2" opacity="0.08"/>
  <circle cx="646" cy="110" r="252" fill="none" stroke="#FFFFFF" stroke-opacity="0.56" stroke-width="3"/>
  <ellipse cx="575.4" cy="19.3" rx="45.4" ry="20.2" fill="#FFFFFF" opacity="0.42" transform="rotate(-22 575.4 19.3)"/>
  <circle cx="57" cy="2405" r="249" fill="url(#orb_achievements_04_7146)" opacity="0.26"/>
  <circle cx="57" cy="2405" r="249" fill="#FAFFFB" opacity="0.08"/>
  <circle cx="57" cy="2405" r="249" fill="none" stroke="#FFFFFF" stroke-opacity="0.56" stroke-width="3"/>
  <ellipse cx="-12.7" cy="2315.4" rx="44.8" ry="19.9" fill="#FFFFFF" opacity="0.42" transform="rotate(-22 -12.7 2315.4)"/>
  <circle cx="1220" cy="663" r="89" fill="url(#orb_achievements_04_7146)" opacity="0.19"/>
  <circle cx="1220" cy="663" r="89" fill="#7EE56D" opacity="0.08"/>
  <circle cx="1220" cy="663" r="89" fill="none" stroke="#FFFFFF" stroke-opacity="0.56" stroke-width="3"/>
  <ellipse cx="1195.1" cy="631.0" rx="16.0" ry="7.1" fill="#FFFFFF" opacity="0.42" transform="rotate(-22 1195.1 631.0)"/>
  <circle cx="1026" cy="2527" r="7" fill="#FFFFFF" opacity="0.67"/>
  <circle cx="1153" cy="613" r="4" fill="#FFFFFF" opacity="0.45"/>
  <circle cx="905" cy="1142" r="4" fill="#FFFFFF" opacity="0.43"/>
  <circle cx="799" cy="987" r="5" fill="#FFFFFF" opacity="0.70"/>
  <circle cx="923" cy="1168" r="4" fill="#FFFFFF" opacity="0.62"/>
  <circle cx="731" cy="704" r="2" fill="#FFFFFF" opacity="0.65"/>
  <circle cx="750" cy="541" r="3" fill="#FFFFFF" opacity="0.51"/>
  <circle cx="988" cy="2345" r="3" fill="#FFFFFF" opacity="0.30"/>
  <circle cx="1199" cy="514" r="5" fill="#FFFFFF" opacity="0.42"/>
  <circle cx="1169" cy="1940" r="5" fill="#FFFFFF" opacity="0.36"/>
  <circle cx="1027" cy="1344" r="2" fill="#FFFFFF" opacity="0.62"/>
  <circle cx="836" cy="295" r="3" fill="#FFFFFF" opacity="0.60"/>
  <circle cx="333" cy="2566" r="7" fill="#FFFFFF" opacity="0.38"/>
  <circle cx="1058" cy="130" r="3" fill="#FFFFFF" opacity="0.68"/>
  <circle cx="456" cy="774" r="2" fill="#FFFFFF" opacity="0.66"/>
  <circle cx="929" cy="2317" r="3" fill="#FFFFFF" opacity="0.35"/>
  <circle cx="738" cy="2398" r="4" fill="#FFFFFF" opacity="0.29"/>
  <circle cx="884" cy="1847" r="2" fill="#FFFFFF" opacity="0.57"/>
  <circle cx="653" cy="1630" r="2" fill="#FFFFFF" opacity="0.37"/>
  <circle cx="1146" cy="21" r="5" fill="#FFFFFF" opacity="0.64"/>
  <circle cx="48" cy="332" r="3" fill="#FFFFFF" opacity="0.37"/>
  <circle cx="1128" cy="1463" r="7" fill="#FFFFFF" opacity="0.65"/>
  <rect width="1200" height="2600" fill="#FFFFFF" opacity="0.08"/>
  <rect width="1200" height="2600" filter="url(#grain_achievements_04_7146)" opacity="0.7"/>
</svg>
