<svg xmlns="http://www.w3.org/2000/svg" width="1200" height="2600" viewBox="0 0 1200 2600" preserveAspectRatio="xMidYMid slice">
  <defs>
    <linearGradient id="bg_achievements_09_8189" x1="0" y1="0" x2="1" y2="1">
      <stop offset="0%" stop-color="#D8E8FF"/>
      <stop offset="48%" stop-color="#A7F3EF"/>
      <stop offset="100%" stop-color="#FAFFFB"/>
    </linearGradient>
    <radialGradient id="orb_achievements_09_8189" cx="35%" cy="30%" r="70%">
      <stop offset="0%" stop-color="#FFFFFF" stop-opacity="0.85"/>
      <stop offset="42%" stop-color="#FFFFFF" stop-opacity="0.20"/>
      <stop offset="100%" stop-color="#FFFFFF" stop-opacity="0.02"/>
    </radialGradient>
    <filter id="blur_achievements_09_8189" x="-30%" y="-30%" width="160%" height="160%">
      <feGaussianBlur stdDeviation="72"/>
    </filter>
    <filter id="soft_achievements_09_8189" x="-20%" y="-20%" width="140%" height="140%">
      <feGaussianBlur stdDeviation="10"/>
    </filter>
    <filter id="grain_achievements_09_8189">
      <feTurbulence type="fractalNoise" baseFrequency="0.85" numOctaves="2" stitchTiles="stitch"/>
      <feColorMatrix type="saturate" values="0"/>
      <feComponentTransfer>
        <feFuncA type="table" tableValues="0 0.035"/>
      </feComponentTransfer>
    </filter>
  </defs>
  <rect width="1200" height="2600" fill="url(#bg_achievements_09_8189)"/>
  <path d="M 892.0 482.0 C 892.0 683.6, 905.8 651.1, 779.1 805.5 C 652.4 959.9, 652.3 900.1, 458.2 935.1 C 264.1 970.1, 344.7 1001.6, 174.0 900.8 C 3.3 800.0, 45.2 814.9, -22.2 625.4 C -89.6 436.0, -49.2 520.2, 18.2 330.8 C 85.6 141.3, 38.0 161.1, 208.7 60.3 C 379.4 -40.5, 277.4 -24.6, 471.5 10.4 C 665.6 45.4, 617.6 70.5, 744.3 224.9 C 871.0 379.3, 892.0 280.4, 892.0 482.0 Z" fill="#D8E8FF" opacity="0.18" filter="url(#blur_achievements_09_8189)"/>
  <path d="M 1336.2 2699.0 C 1336.2 2829.9, 1364.3 2762.0, 1236.2 2862.3 C 1108.0 2962.6, 1173.6 2970.4, 977.3 2993.1 C 781.0 3015.9, 847.1 3048.7, 674.5 2983.3 C 501.9 2917.8, 550.4 2921.4, 482.2 2798.4 C 414.0 2675.3, 478.7 2739.2, 546.9 2616.1 C 615.1 2493.1, 499.8 2479.5, 672.4 2414.0 C 845.0 2348.5, 788.3 2413.0, 984.6 2435.7 C 1180.9 2458.5, 1161.8 2439.6, 1290.0 2540.0 C 1418.1 2640.3, 1336.2 2568.1, 1336.2 2699.0 Z" fill="#DFFFD3" opacity="0.33" filter="url(#blur_achievements_09_8189)"/>
  <path d="M 1535.9 629.0 C 1535.9 755.0, 1570.5 721.0, 1419.8 817.5 C 1269.1 914.0, 1395.2 850.7, 1164.3 872.6 C 933.4 894.5, 1034.5 906.2, 831.4 843.2 C 628.4 780.2, 594.6 847.2, 514.4 728.8 C 434.2 610.4, 433.4 659.2, 513.6 540.8 C 593.8 422.4, 615.3 446.9, 818.3 383.9 C 1021.3 320.9, 921.4 321.3, 1152.3 343.2 C 1383.2 365.1, 1259.6 369.0, 1410.3 465.5 C 1561.0 562.0, 1535.9 503.0, 1535.9 629.0 Z" fill="#38D5C7" opacity="0.34" filter="url(#blur_achievements_09_8189)"/>
  <path d="M 781.4 115.0 C 781.4 310.3, 693.4 225.3, 589.5 374.9 C 485.7 524.5, 592.6 580.5, 433.5 614.4 C 274.4 648.4, 297.4 589.1, 157.5 491.4 C 17.6 393.8, 59.7 422.0, 4.5 238.5 C -50.8 55.0, -86.2 160.4, -31.0 -23.1 C 24.3 -206.7, 68.6 -226.2, 208.5 -323.9 C 348.4 -421.5, 261.1 -369.9, 420.2 -335.9 C 579.3 -302.0, 558.6 -308.3, 662.5 -158.7 C 766.3 -9.1, 781.4 -80.3, 781.4 115.0 Z" fill="#80B9FF" opacity="0.25" filter="url(#blur_achievements_09_8189)"/>
  <path d="M 157.0 2776.0 C 157.0 2949.2, 183.0 2883.8, 110.1 3016.6 C 37.2 3149.3, 86.9 3117.8, -24.8 3147.9 C -136.4 3178.0, -105.9 3229.7, -204.1 3143.1 C -302.3 3056.4, -235.4 3058.4, -274.2 2895.6 C -313.0 2732.8, -310.4 2796.1, -271.6 2633.3 C -232.8 2470.5, -304.7 2523.5, -206.5 2436.9 C -108.3 2350.2, -141.9 2370.4, -30.3 2400.5 C 81.4 2430.6, 29.0 2437.4, 101.8 2570.2 C 174.7 2702.9, 157.0 2602.8, 157.0 2776.0 Z" fill="#D8E8FF" opacity="0.19" filter="url(#blur_achievements_09_8189)"/>
  <path d="M 1572.0 264.0 C 1572.0 527.7, 1471.4 382.4, 1317.5 584.4 C 1163.6 786.4, 1295.5 758.1, 1059.8 803.9 C 824.0 849.6, 949.0 875.9, 741.7 744.0 C 534.4 612.2, 590.0 720.2, 508.1 472.4 C 426.2 224.6, 358.9 291.3, 440.8 43.5 C 522.6 -204.3, 479.0 -42.9, 686.3 -174.7 C 893.7 -306.6, 830.7 -412.5, 1066.5 -366.7 C 1302.2 -321.0, 1148.4 -311.7, 1302.3 -109.7 C 1456.2 92.3, 1572.0 0.3, 1572.0 264.0 Z" fill="#7EE56D" opacity="0.22" filter="url(#blur_achievements_09_8189)"/>
  <path d="M 397.5 895.0 C 397.5 1019.2, 423.0 997.0, 332.2 1092.1 C 241.3 1187.3, 311.8 1106.2, 172.7 1127.8 C 33.5 1149.4, 98.5 1202.1, -23.9 1140.0 C -146.3 1077.9, -138.3 1090.4, -186.6 973.7 C -235.0 857.0, -242.8 921.4, -194.5 804.7 C -146.2 688.0, -146.4 748.1, -24.0 686.0 C 98.3 623.9, 28.1 610.5, 167.2 632.1 C 306.4 653.7, 304.5 615.7, 395.3 710.8 C 486.2 805.9, 397.5 770.8, 397.5 895.0 Z" fill="#38D5C7" opacity="0.31" filter="url(#blur_achievements_09_8189)"/>
  <path d="M 1249.5 2729.0 C 1249.5 2911.7, 1238.6 2835.8, 1086.4 2975.8 C 934.3 3115.7, 963.3 3128.5, 730.2 3160.2 C 497.1 3191.9, 529.3 3121.7, 324.3 3030.3 C 119.3 2939.0, 288.0 3035.4, 207.1 2863.7 C 126.1 2692.1, 111.2 2783.1, 192.1 2611.4 C 273.1 2439.7, 177.8 2440.4, 382.8 2349.1 C 587.8 2257.7, 498.0 2267.2, 731.1 2298.9 C 964.2 2330.7, 835.1 2323.9, 987.2 2463.8 C 1139.4 2603.8, 1249.5 2546.3, 1249.5 2729.0 Z" fill="#A7F3EF" opacity="0.35" filter="url(#blur_achievements_09_8189)"/>
  <path d="M 555.8 2249.0 C 555.8 2528.0, 576.9 2472.5, 416.1 2686.2 C 255.3 2899.9, 356.1 2765.7, 109.7 2814.1 C -136.7 2862.6, -15.5 2980.9, -232.2 2841.4 C -448.9 2701.9, -445.4 2724.9, -530.9 2462.7 C -616.5 2200.6, -584.0 2268.4, -498.4 2006.2 C -412.8 1744.1, -440.7 1875.0, -224.0 1735.5 C -7.4 1596.0, -137.4 1486.7, 109.0 1535.2 C 355.4 1583.6, 273.0 1701.2, 433.8 1914.9 C 594.7 2128.6, 555.8 1970.0, 555.8 2249.0 Z" fill="#FAFFFB" opacity="0.20" filter="url(#blur_achievements_09_8189)"/>
  <path d="M 1092.6 1179.0 C 1092.6 1343.7, 1063.2 1287.2, 963.4 1413.4 C 863.6 1539.5, 930.2 1555.8, 777.4 1584.4 C 624.5 1613.0, 683.8 1570.3, 549.4 1487.9 C 414.9 1405.6, 481.9 1474.9, 428.8 1320.1 C 375.7 1165.4, 354.8 1199.7, 407.9 1044.9 C 461.0 890.2, 427.4 904.8, 561.9 822.4 C 696.3 740.1, 616.0 779.7, 768.9 808.3 C 921.8 836.9, 839.0 826.8, 938.8 953.0 C 1038.6 1079.1, 1092.6 1014.3, 1092.6 1179.0 Z" fill="#D8E8FF" opacity="0.21" filter="url(#blur_achievements_09_8189)"/>
  <path d="M 684.2 1718.0 C 684.2 1855.2, 685.4 1788.6, 533.0 1893.7 C 380.6 1998.9, 421.8 2036.9, 188.3 2060.7 C -45.3 2084.5, 75.4 2097.9, -130.0 2029.3 C -335.4 1960.6, -282.3 1945.3, -363.4 1816.4 C -444.6 1687.4, -560.5 1750.7, -479.4 1621.7 C -398.3 1492.8, -328.4 1556.5, -123.0 1487.9 C 82.4 1419.3, -33.9 1420.6, 199.7 1444.5 C 433.2 1468.3, 406.6 1386.4, 559.0 1491.6 C 711.5 1596.7, 684.2 1580.8, 684.2 1718.0 Z" fill="#7EE56D" opacity="0.21" filter="url(#blur_achievements_09_8189)"/>
  <path d="M 1393.6 64.0 C 1393.6 248.1, 1429.7 224.2, 1296.1 365.2 C 1162.5 506.2, 1180.6 429.0, 975.8 460.9 C 771.1 492.9, 871.5 509.8, 691.5 417.7 C 511.4 325.7, 517.9 388.4, 446.8 215.5 C 375.7 42.5, 418.8 82.5, 489.9 -90.5 C 561.0 -263.4, 452.1 -235.5, 632.1 -327.5 C 812.2 -419.5, 771.7 -359.5, 976.5 -327.5 C 1181.2 -295.5, 1155.0 -316.2, 1288.6 -175.2 C 1422.2 -34.2, 1393.6 -120.1, 1393.6 64.0 Z" fill="#DFFFD3" opacity="0.37" filter="url(#blur_achievements_09_8189)"/>
  <path d="M 996.0 732.0 C 996.0 860.7, 1047.4 842.0, 893.6 940.6 C 739.7 1039.2, 803.6 956.1, 567.9 978.5 C 332.1 1000.8, 389.6 1079.0, 182.2 1014.7 C -25.1 950.3, 97.4 950.7, 15.5 829.7 C -66.3 708.8, -166.9 761.2, -85.1 640.2 C -3.2 519.3, -3.6 563.0, 203.7 498.6 C 411.1 434.3, 331.6 460.5, 567.4 482.9 C 803.1 505.2, 640.9 473.5, 794.8 572.1 C 948.6 670.6, 996.0 603.3, 996.0 732.0 Z" fill="#FAFFFB" opacity="0.19" filter="url(#blur_achievements_09_8189)"/>
  <path d="M 1074.3 1577.0 C 1074.3 1866.8, 1107.6 1675.3, 965.6 1909.8 C 823.6 2144.2, 953.6 2145.9, 723.8 2235.4 C 493.9 2325.0, 603.9 2294.2, 374.0 2204.6 C 144.2 2115.1, 229.8 2202.5, 87.7 1968.1 C -54.3 1733.6, 47.7 1866.8, 47.7 1577.0 C 47.7 1287.2, -36.8 1393.0, 105.3 1158.6 C 247.3 924.1, 164.0 1070.2, 393.9 980.7 C 623.7 891.1, 488.5 924.2, 718.4 1013.8 C 948.2 1103.3, 819.1 1014.2, 961.2 1248.7 C 1103.2 1483.1, 1074.3 1287.2, 1074.3 1577.0 Z" fill="#7EE56D" opacity="0.12" stroke="#FFFFFF" stroke-opacity="0.46" stroke-width="3" filter="url(#soft_achievements_09_8189)"/>
  <path d="M 1074.3 1577.0 C 1074.3 1866.8, 1107.6 1675.3, 965.6 1909.8 C 823.6 2144.2, 953.6 2145.9, 723.8 2235.4 C 493.9 2325.0, 603.9 2294.2, 374.0 2204.6 C 144.2 2115.1, 229.8 2202.5, 87.7 1968.1 C -54.3 1733.6, 47.7 1866.8, 47.7 1577.0 C 47.7 1287.2, -36.8 1393.0, 105.3 1158.6 C 247.3 924.1, 164.0 1070.2, 393.9 980.7 C 623.7 891.1, 488.5 924.2, 718.4 1013.8 C 948.2 1103.3, 819.1 1014.2, 961.2 1248.7 C 1103.2 1483.1, 1074.3 1287.2, 1074.3 1577.0 Z" fill="none" stroke="#FFFFFF" stroke-opacity="0.22" stroke-width="1.2"/>
  <path d="M 185.8 131.0 C 185.8 430.7, 202.3 321.1, 116.6 563.5 C 30.9 806.0, 63.7 667.0, -74.9 759.6 C -213.6 852.2, -142.9 875.4, -281.5 782.8 C -420.2 690.1, -340.5 769.3, -426.2 526.8 C -511.9 284.4, -455.7 430.7, -455.7 131.0 C -455.7 -168.7, -529.2 -58.3, -443.5 -300.8 C -357.8 -543.3, -422.3 -441.1, -283.7 -533.7 C -145.0 -626.3, -225.3 -534.8, -86.7 -442.2 C 52.0 -349.6, 18.2 -456.6, 103.9 -214.1 C 189.6 28.3, 185.8 -168.7, 185.8 131.0 Z" fill="#7EE56D" opacity="0.12" stroke="#FFFFFF" stroke-opacity="0.46" stroke-width="3" filter="url(#soft_achievements_09_8189)"/>
  <path d="M 185.8 131.0 C 185.8 430.7, 202.3 321.1, 116.6 563.5 C 30.9 806.0, 63.7 667.0, -74.9 759.6 C -213.6 852.2, -142.9 875.4, -281.5 782.8 C -420.2 690.1, -340.5 769.3, -426.2 526.8 C -511.9 284.4, -455.7 430.7, -455.7 131.0 C -455.7 -168.7, -529.2 -58.3, -443.5 -300.8 C -357.8 -543.3, -422.3 -441.1, -283.7 -533.7 C -145.0 -626.3, -225.3 -534.8, -86.7 -442.2 C 52.0 -349.6, 18.2 -456.6, 103.9 -214.1 C 189.6 28.3, 185.8 -168.7, 185.8 131.0 Z" fill="none" stroke="#FFFFFF" stroke-opacity="0.22" stroke-width="1.2"/>
  <path d="M 1090.1 186.0 C 1090.1 545.5, 1100.7 378.6, 1003.6 669.5 C 906.5 960.4, 987.3 816.4, 830.2 927.5 C 673.2 1038.6, 782.2 1060.1, 625.1 948.9 C 468.0 837.8, 552.5 952.8, 455.5 661.9 C 358.4 371.1, 371.3 545.6, 371.3 186.0 C 371.3 -173.5, 307.1 69.8, 404.1 -221.1 C 501.2 -512.0, 459.5 -564.4, 616.6 -675.5 C 773.6 -786.6, 689.2 -697.4, 846.3 -586.3 C 1003.4 -475.2, 919.5 -570.3, 1016.6 -279.4 C 1113.7 11.4, 1090.1 -173.6, 1090.1 186.0 Z" fill="#A7F3EF" opacity="0.12" stroke="#FFFFFF" stroke-opacity="0.46" stroke-width="3" filter="url(#soft_achievements_09_8189)"/>
  <path d="M 1090.1 186.0 C 1090.1 545.5, 1100.7 378.6, 1003.6 669.5 C 906.5 960.4, 987.3 816.4, 830.2 927.5 C 673.2 1038.6, 782.2 1060.1, 625.1 948.9 C 468.0 837.8, 552.5 952.8, 455.5 661.9 C 358.4 371.1, 371.3 545.6, 371.3 186.0 C 371.3 -173.5, 307.1 69.8, 404.1 -221.1 C 501.2 -512.0, 459.5 -564.4, 616.6 -675.5 C 773.6 -786.6, 689.2 -697.4, 846.3 -586.3 C 1003.4 -475.2, 919.5 -570.3, 1016.6 -279.4 C 1113.7 11.4, 1090.1 -173.6, 1090.1 186.0 Z" fill="none" stroke="#FFFFFF" stroke-opacity="0.22" stroke-width="1.2"/>
  <path d="M 1843.3 1925.0 C 1843.3 2142.3, 1868.1 2010.9, 1745.6 2186.7 C 1623.2 2362.6, 1768.9 2365.6, 1570.7 2432.7 C 1372.5 2499.9, 1455.0 2490.8, 1256.8 2423.7 C 1058.7 2356.5, 1132.4 2353.4, 1010.0 2177.5 C 887.5 2001.7, 995.5 2142.3, 995.5 1925.0 C 995.5 1707.7, 900.4 1798.6, 1022.9 1622.8 C 1145.4 1446.9, 1069.0 1476.1, 1267.2 1408.9 C 1465.3 1341.7, 1334.0 1380.1, 1532.1 1447.3 C 1730.3 1514.5, 1643.6 1468.5, 1766.1 1644.3 C 1888.5 1820.2, 1843.3 1707.7, 1843.3 1925.0 Z" fill="#D8E8FF" opacity="0.12" stroke="#FFFFFF" stroke-opacity="0.46" stroke-width="3" filter="url(#soft_achievements_09_8189)"/>
  <path d="M 1843.3 1925.0 C 1843.3 2142.3, 1868.1 2010.9, 1745.6 2186.7 C 1623.2 2362.6, 1768.9 2365.6, 1570.7 2432.7 C 1372.5 2499.9, 1455.0 2490.8, 1256.8 2423.7 C 1058.7 2356.5, 1132.4 2353.4, 1010.0 2177.5 C 887.5 2001.7, 995.5 2142.3, 995.5 1925.0 C 995.5 1707.7, 900.4 1798.6, 1022.9 1622.8 C 1145.4 1446.9, 1069.0 1476.1, 1267.2 1408.9 C 1465.3 1341.7, 1334.0 1380.1, 1532.1 1447.3 C 1730.3 1514.5, 1643.6 1468.5, 1766.1 1644.3 C 1888.5 1820.2, 1843.3 1707.7, 1843.3 1925.0 Z" fill="none" stroke="#FFFFFF" stroke-opacity="0.22" stroke-width="1.2"/>
  <path d="M 795.0 1647.0 C 795.0 2018.2, 860.2 1786.1, 781.4 2086.4 C 702.6 2386.8, 761.9 2216.4, 634.4 2331.1 C 506.9 2445.9, 559.3 2620.5, 431.8 2505.8 C 304.3 2391.1, 365.8 2467.5, 287.0 2167.1 C 208.2 1866.8, 196.0 2018.2, 196.0 1647.0 C 196.0 1275.8, 214.1 1520.8, 292.9 1220.4 C 371.7 920.1, 297.9 911.9, 425.4 797.1 C 553.0 682.4, 483.6 740.7, 611.2 855.4 C 738.7 970.1, 666.6 796.0, 745.4 1096.3 C 824.2 1396.6, 795.0 1275.8, 795.0 1647.0 Z" fill="#FAFFFB" opacity="0.12" stroke="#FAFFFB" stroke-opacity="0.46" stroke-width="3" filter="url(#soft_achievements_09_8189)"/>
  <path d="M 795.0 1647.0 C 795.0 2018.2, 860.2 1786.1, 781.4 2086.4 C 702.6 2386.8, 761.9 2216.4, 634.4 2331.1 C 506.9 2445.9, 559.3 2620.5, 431.8 2505.8 C 304.3 2391.1, 365.8 2467.5, 287.0 2167.1 C 208.2 1866.8, 196.0 2018.2, 196.0 1647.0 C 196.0 1275.8, 214.1 1520.8, 292.9 1220.4 C 371.7 920.1, 297.9 911.9, 425.4 797.1 C 553.0 682.4, 483.6 740.7, 611.2 855.4 C 738.7 970.1, 666.6 796.0, 745.4 1096.3 C 824.2 1396.6, 795.0 1275.8, 795.0 1647.0 Z" fill="none" stroke="#FFFFFF" stroke-opacity="0.22" stroke-width="1.2"/>
  <path d="M 1843.3 -68.0 C 1843.3 314.9, 1781.4 112.7, 1625.4 422.5 C 1469.3 732.3, 1614.8 541.4, 1362.3 659.7 C 1109.7 778.0, 1253.0 863.7, 1000.4 745.4 C 747.9 627.0, 944.8 674.5, 788.7 364.7 C 632.7 54.9, 656.9 315.0, 656.9 -68.0 C 656.9 -450.9, 581.3 -221.8, 737.4 -531.6 C 893.4 -841.5, 770.5 -836.3, 1023.0 -954.6 C 1275.5 -1072.9, 1136.9 -970.7, 1389.4 -852.3 C 1641.9 -734.0, 1486.8 -897.4, 1642.9 -587.6 C 1798.9 -277.8, 1843.3 -450.9, 1843.3 -68.0 Z" fill="#DFFFD3" opacity="0.12" stroke="#DFFFD3" stroke-opacity="0.46" stroke-width="3" filter="url(#soft_achievements_09_8189)"/>
  <path d="M 1843.3 -68.0 C 1843.3 314.9, 1781.4 112.7, 1625.4 422.5 C 1469.3 732.3, 1614.8 541.4, 1362.3 659.7 C 1109.7 778.0, 1253.0 863.7, 1000.4 745.4 C 747.9 627.0, 944.8 674.5, 788.7 364.7 C 632.7 54.9, 656.9 315.0, 656.9 -68.0 C 656.9 -450.9, 581.3 -221.8, 737.4 -531.6 C 893.4 -841.5, 770.5 -836.3, 1023.0 -954.6 C 1275.5 -1072.9, 1136.9 -970.7, 1389.4 -852.3 C 1641.9 -734.0, 1486.8 -897.4, 1642.9 -587.6 C 1798.9 -277.8, 1843.3 -450.9, 1843.3 -68.0 Z" fill="none" stroke="#FFFFFF" stroke-opacity="0.22" stroke-width="1.2"/>
  <path d="M 1872.3 80.0 C 1872.3 463.4, 1855.9 339.8, 1726.6 650.0 C 1597.3 960.1, 1724.2 860.1, 1514.9 978.6 C 1305.6 1097.1, 1416.3 1009.0, 1207.0 890.6 C 997.7 772.1, 1087.3 823.4, 958.0 513.2 C 828.7 203.1, 839.7 463.4, 839.7 80.0 C 839.7 -303.4, 888.0 -42.4, 1017.3 -352.5 C 1146.7 -662.7, 1009.7 -655.1, 1219.0 -773.6 C 1428.3 -892.1, 1292.9 -926.6, 1502.1 -808.1 C 1711.4 -689.6, 1646.8 -730.5, 1776.2 -420.3 C 1905.5 -110.1, 1872.3 -303.4, 1872.3 80.0 Z" fill="#A7F3EF" opacity="0.12" stroke="#FFFFFF" stroke-opacity="0.46" stroke-width="3" filter="url(#soft_achievements_09_8189)"/>
  <path d="M 1872.3 80.0 C 1872.3 463.4, 1855.9 339.8, 1726.6 650.0 C 1597.3 960.1, 1724.2 860.1, 1514.9 978.6 C 1305.6 1097.1, 1416.3 1009.0, 1207.0 890.6 C 997.7 772.1, 1087.3 823.4, 958.0 513.2 C 828.7 203.1, 839.7 463.4, 839.7 80.0 C 839.7 -303.4, 888.0 -42.4, 1017.3 -352.5 C 1146.7 -662.7, 1009.7 -655.1, 1219.0 -773.6 C 1428.3 -892.1, 1292.9 -926.6, 1502.1 -808.1 C 1711.4 -689.6, 1646.8 -730.5, 1776.2 -420.3 C 1905.5 -110.1, 1872.3 -303.4, 1872.3 80.0 Z" fill="none" stroke="#FFFFFF" stroke-opacity="0.22" stroke-width="1.2"/>
  <path d="M -100.0 1634.0 Q 133.3 1389.9, 366.7 1444.7 Q 600.0 1379.5, 833.3 1575.3 Q 1066.7 1728.3, 1300.0 1844.4" fill="none" stroke="#FFFFFF" stroke-opacity="0.38" stroke-width="4" filter="url(#soft_achievements_09_8189)"/>
  <path d="M -100.0 1634.0 Q 133.3 1389.9, 366.7 1444.7 Q 600.0 1379.5, 833.3 1575.3 Q 1066.7 1728.3, 1300.0 1844.4" fill="none" stroke="#38D5C7" stroke-opacity="0.18" stroke-width="2"/>
  <path d="M -100.0 1662.4 Q 133.3 1521.2, 366.7 1304.2 Q 600.0 1403.4, 833.3 1672.4 Q 1066.7 1763.2, 1300.0 1497.4" fill="none" stroke="#FFFFFF" stroke-opacity="0.38" stroke-width="4" filter="url(#soft_achievements_09_8189)"/>
  <path d="M -100.0 1662.4 Q 133.3 1521.2, 366.7 1304.2 Q 600.0 1403.4, 833.3 1672.4 Q 1066.7 1763.2, 1300.0 1497.4" fill="none" stroke="#80B9FF" stroke-opacity="0.18" stroke-width="2"/>
  <path d="M -100.0 975.5 Q 133.3 707.6, 366.7 832.4 Q 600.0 1137.1, 833.3 1171.1 Q 1066.7 816.8, 1300.0 734.4" fill="none" stroke="#FFFFFF" stroke-opacity="0.38" stroke-width="4" filter="url(#soft_achievements_09_8189)"/>
  <path d="M -100.0 975.5 Q 133.3 707.6, 366.7 832.4 Q 600.0 1137.1, 833.3 1171.1 Q 1066.7 816.8, 1300.0 734.4" fill="none" stroke="#38D5C7" stroke-opacity="0.18" stroke-width="2"/>
  <path d="M -100.0 2664.3 Q 133.3 2653.0, 366.7 2203.1 Q 600.0 1962.4, 833.3 2063.0 Q 1066.7 2582.8, 1300.0 2756.2" fill="none" stroke="#FFFFFF" stroke-opacity="0.38" stroke-width="4" filter="url(#soft_achievements_09_8189)"/>
  <path d="M -100.0 2664.3 Q 133.3 2653.0, 366.7 2203.1 Q 600.0 1962.4, 833.3 2063.0 Q 1066.7 2582.8, 1300.0 2756.2" fill="none" stroke="#38D5C7" stroke-opacity="0.18" stroke-width="2"/>
  <path d="M -100.0 1768.5 Q 133.3 1438.3, 366.7 1463.6 Q 600.0 1721.4, 833.3 1664.7 Q 1066.7 1421.5, 1300.0 1529.0" fill="none" stroke="#FFFFFF" stroke-opacity="0.38" stroke-width="4" filter="url(#soft_achievements_09_8189)"/>
  <path d="M -100.0 1768.5 Q 133.3 1438.3, 366.7 1463.6 Q 600.0 1721.4, 833.3 1664.7 Q 1066.7 1421.5, 1300.0 1529.0" fill="none" stroke="#7EE56D" stroke-opacity="0.18" stroke-width="2"/>
  <circle cx="1276" cy="851" r="131" fill="url(#orb_achievements_09_8189)" opacity="0.36"/>
  <circle cx="1276" cy="851" r="131" fill="#D8E8FF" opacity="0.08"/>
  <circle cx="1276" cy="851" r="131" fill="none" stroke="#FFFFFF" stroke-opacity="0.56" stroke-width="3"/>
  <ellipse cx="1239.3" cy="803.8" rx="23.6" ry="10.5" fill="#FFFFFF" opacity="0.42" transform="rotate(-22 1239.3 803.8)"/>
  <circle cx="389" cy="1494" r="181" fill="url(#orb_achievements_09_8189)" opacity="0.36"/>
  <circle cx="389" cy="1494" r="181" fill="#A7F3EF" opacity="0.08"/>
  <circle cx="389" cy="1494" r="181" fill="none" stroke="#FFFFFF" stroke-opacity="0.56" stroke-width="3"/>
  <ellipse cx="338.3" cy="1428.8" rx="32.6" ry="14.5" fill="#FFFFFF" opacity="0.42" transform="rotate(-22 338.3 1428.8)"/>
  <circle cx="1140" cy="2711" r="157" fill="url(#orb_achievements_09_8189)" opacity="0.36"/>
  <circle cx="1140" cy="2711" r="157" fill="#7EE56D" opacity="0.08"/>
  <circle cx="1140" cy="2711" r="157" fill="none" stroke="#FFFFFF" stroke-opacity="0.56" stroke-width="3"/>
  <ellipse cx="1096.0" cy="2654.5" rx="28.3" ry="12.6" fill="#FFFFFF" opacity="0.42" transform="rotate(-22 1096.0 2654.5)"/>
  <circle cx="-68" cy="2183" r="248" fill="url(#orb_achievements_09_8189)" opacity="0.27"/>
  <circle cx="-68" cy="2183" r="248" fill="#38D5C7" opacity="0.08"/>
  <circle cx="-68" cy="2183" r="248" fill="none" stroke="#FFFFFF" stroke-opacity="0.56" stroke-width="3"/>
  <ellipse cx="-137.4" cy="2093.7" rx="44.6" ry="19.8" fill="#FFFFFF" opacity="0.42" transform="rotate(-22 -137.4 2093.7)"/>
  <circle cx="997" cy="1582" r="209" fill="url(#orb_achievements_09_8189)" opacity="0.25"/>
  <circle cx="997" cy="1582" r="209" fill="#FAFFFB" opacity="0.08"/>
  <circle cx="997" cy="1582" r="209" fill="none" stroke="#FFFFFF" stroke-opacity="0.56" stroke-width="3"/>
  <ellipse cx="938.5" cy="1506.8" rx="37.6" ry="16.7" fill="#FFFFFF" opacity="0.42" transform="rotate(-22 938.5 1506.8)"/>
  <circle cx="139" cy="1053" r="213" fill="url(#orb_achievements_09_8189)" opacity="0.18"/>
  <circle cx="139" cy="1053" r="213" fill="#DFFFD3" opacity="0.08"/>
  <circle cx="139" cy="1053" r="213" fill="none" stroke="#FFFFFF" stroke-opacity="0.56" stroke-width="3"/>
  <ellipse cx="79.4" cy="976.3" rx="38.3" ry="17.0" fill="#FFFFFF" opacity="0.42" transform="rotate(-22 79.4 976.3)"/>
  <circle cx="-11" cy="226" r="169" fill="url(#orb_achievements_09_8189)" opacity="0.18"/>
  <circle cx="-11" cy="226" r="169" fill="#C9FFF2" opacity="0.08"/>
  <circle cx="-11" cy="226" r="169" fill="none" stroke="#FFFFFF" stroke-opacity="0.56" stroke-width="3"/>
  <ellipse cx="-58.3" cy="165.2" rx="30.4" ry="13.5" fill="#FFFFFF" opacity="0.42" transform="rotate(-22 -58.3 165.2)"/>
  <circle cx="629" cy="2320" r="238" fill="url(#orb_achievements_09_8189)" opacity="0.27"/>
  <circle cx="629" cy="2320" r="238" fill="#80B9FF" opacity="0.08"/>
  <circle cx="629" cy="2320" r="238" fill="none" stroke="#FFFFFF" stroke-opacity="0.56" stroke-width="3"/>
  <ellipse cx="562.4" cy="2234.3" rx="42.8" ry="19.0" fill="#FFFFFF" opacity="0.42" transform="rotate(-22 562.4 2234.3)"/>
  <circle cx="52" cy="413" r="4" fill="#FFFFFF" opacity="0.54"/>
  <circle cx="1000" cy="1677" r="3" fill="#FFFFFF" opacity="0.54"/>
  <circle cx="409" cy="1242" r="3" fill="#FFFFFF" opacity="0.38"/>
  <circle cx="1108" cy="55" r="4" fill="#FFFFFF" opacity="0.36"/>
  <circle cx="658" cy="1593" r="7" fill="#FFFFFF" opacity="0.64"/>
  <circle cx="263" cy="1377" r="2" fill="#FFFFFF" opacity="0.44"/>
  <circle cx="1104" cy="461" r="3" fill="#FFFFFF" opacity="0.71"/>
  <circle cx="350" cy="1343" r="7" fill="#FFFFFF" opacity="0.36"/>
  <circle cx="396" cy="1061" r="4" fill="#FFFFFF" opacity="0.62"/>
  <circle cx="1071" cy="2042" r="7" fill="#FFFFFF" opacity="0.66"/>
  <circle cx="366" cy="1568" r="4" fill="#FFFFFF" opacity="0.33"/>
  <circle cx="279" cy="1811" r="7" fill="#FFFFFF" opacity="0.35"/>
  <rect width="1200" height="2600" fill="#FFFFFF" opacity="0.08"/>
  <rect width="1200" height="2600" filter="url(#grain_achievements_09_8189)" opacity="0.7"/>
</svg>
