<svg xmlns="http://www.w3.org/2000/svg" width="1200" height="2600" viewBox="0 0 1200 2600" preserveAspectRatio="xMidYMid slice">
  <defs>
    <linearGradient id="bg_achievements_10_5164" x1="0" y1="0" x2="1" y2="1">
      <stop offset="0%" stop-color="#FAFFFB"/>
      <stop offset="48%" stop-color="#D8E8FF"/>
      <stop offset="100%" stop-color="#A7F3EF"/>
    </linearGradient>
    <radialGradient id="orb_achievements_10_5164" cx="35%" cy="30%" r="70%">
      <stop offset="0%" stop-color="#FFFFFF" stop-opacity="0.85"/>
      <stop offset="42%" stop-color="#FFFFFF" stop-opacity="0.20"/>
      <stop offset="100%" stop-color="#FFFFFF" stop-opacity="0.02"/>
    </radialGradient>
    <filter id="blur_achievements_10_5164" x="-30%" y="-30%" width="160%" height="160%">
      <feGaussianBlur stdDeviation="72"/>
    </filter>
    <filter id="soft_achievements_10_5164" x="-20%" y="-20%" width="140%" height="140%">
      <feGaussianBlur stdDeviation="10"/>
    </filter>
    <filter id="grain_achievements_10_5164">
      <feTurbulence type="fractalNoise" baseFrequency="0.85" numOctaves="2" stitchTiles="stitch"/>
      <feColorMatrix type="saturate" values="0"/>
      <feComponentTransfer>
        <feFuncA type="table" tableValues="0 0.035"/>
      </feComponentTransfer>
    </filter>
  </defs>
  <rect width="1200" height="2600" fill="url(#bg_achievements_10_5164)"/>
  <path d="M 1304.1 183.0 C 1304.1 425.1, 1474.2 368.0, 1318.6 553.5 C 1163.0 738.9, 1161.5 604.8, 923.1 646.8 C 684.6 688.8, 776.7 837.9, 567.0 716.8 C 357.4 595.8, 422.2 609.4, 339.4 381.9 C 256.6 154.4, 310.4 204.9, 393.2 -22.6 C 476.0 -250.1, 347.5 -125.6, 557.1 -246.7 C 766.8 -367.7, 708.1 -428.1, 946.5 -386.1 C 1184.9 -344.1, 1142.1 -291.2, 1297.7 -105.7 C 1453.3 79.7, 1304.1 -59.1, 1304.1 183.0 Z" fill="#80B9FF" opacity="0.20" filter="url(#blur_achievements_10_5164)"/>
  <path d="M 730.1 2761.0 C 730.1 2892.4, 732.8 2815.3, 593.3 2916.0 C 453.9 3016.7, 488.2 2990.5, 274.6 3013.3 C 61.0 3036.1, 181.1 3064.2, -6.7 2998.5 C -194.6 2932.8, -249.0 2977.7, -323.2 2854.3 C -397.3 2730.8, -274.7 2770.6, -200.5 2647.1 C -126.3 2523.6, -226.2 2528.7, -38.3 2463.0 C 149.5 2397.3, 79.3 2493.5, 292.9 2516.3 C 506.5 2539.2, 442.2 2483.9, 581.6 2584.5 C 721.1 2685.2, 730.1 2629.6, 730.1 2761.0 Z" fill="#C9FFF2" opacity="0.34" filter="url(#blur_achievements_10_5164)"/>
  <path d="M 435.4 1771.0 C 435.4 2044.2, 391.7 2007.6, 314.5 2216.8 C 237.3 2426.1, 307.7 2251.3, 189.3 2298.8 C 71.0 2346.2, 112.5 2402.1, 8.4 2265.5 C -95.7 2129.0, -67.8 2266.3, -108.9 2009.6 C -150.0 1752.9, -122.6 1801.1, -81.5 1544.4 C -40.4 1287.7, -119.3 1457.7, -15.3 1321.1 C 88.8 1184.6, 61.6 1119.3, 179.9 1166.7 C 298.2 1214.1, 242.5 1239.6, 319.7 1448.8 C 396.9 1658.1, 435.4 1497.8, 435.4 1771.0 Z" fill="#38D5C7" opacity="0.18" filter="url(#blur_achievements_10_5164)"/>
  <path d="M 628.2 1872.0 C 628.2 2099.2, 671.9 2003.0, 527.6 2177.0 C 383.2 2351.1, 408.4 2283.4, 187.3 2322.8 C -33.8 2362.3, 41.6 2441.1, -152.8 2327.5 C -347.3 2213.8, -213.3 2275.7, -290.1 2062.2 C -366.9 1848.6, -455.6 1896.4, -378.8 1682.9 C -302.0 1469.4, -316.8 1618.3, -122.3 1504.7 C 72.2 1391.1, -33.3 1390.0, 187.9 1429.5 C 409.0 1469.0, 364.0 1362.6, 508.3 1536.7 C 652.6 1710.8, 628.2 1644.8, 628.2 1872.0 Z" fill="#38D5C7" opacity="0.31" filter="url(#blur_achievements_10_5164)"/>
  <path d="M 1015.1 639.0 C 1015.1 927.9, 1159.9 895.4, 1002.0 1116.7 C 844.0 1338.0, 863.1 1117.6, 621.1 1167.8 C 379.1 1217.9, 457.5 1330.6, 244.7 1186.1 C 31.9 1041.7, 32.3 1158.6, -51.7 887.1 C -135.8 615.7, -40.2 656.5, 43.9 385.0 C 127.9 113.5, 90.1 314.9, 302.9 170.5 C 515.6 26.0, 376.1 47.8, 618.0 97.9 C 860.0 148.1, 835.3 56.7, 993.2 278.0 C 1151.2 499.3, 1015.1 350.1, 1015.1 639.0 Z" fill="#D8E8FF" opacity="0.29" filter="url(#blur_achievements_10_5164)"/>
  <path d="M 1324.8 2472.0 C 1324.8 2755.5, 1324.5 2680.0, 1172.3 2897.2 C 1020.2 3114.4, 1102.6 2963.1, 869.5 3012.3 C 636.4 3061.5, 711.0 3200.8, 506.0 3059.0 C 301.0 2917.3, 301.3 2959.6, 220.4 2693.2 C 139.4 2426.8, 169.5 2555.5, 250.5 2289.1 C 331.5 2022.7, 317.5 2147.6, 522.5 2005.8 C 727.5 1864.1, 654.2 1798.3, 887.3 1847.5 C 1120.4 1896.7, 1079.1 1910.0, 1231.3 2127.2 C 1383.4 2344.4, 1324.8 2188.5, 1324.8 2472.0 Z" fill="#38D5C7" opacity="0.34" filter="url(#blur_achievements_10_5164)"/>
  <path d="M 321.9 144.0 C 321.9 333.5, 305.8 244.3, 174.2 389.4 C 42.6 534.5, 138.1 565.9, -63.5 598.8 C -265.1 631.7, -203.0 576.0, -380.4 481.3 C -557.7 386.6, -466.7 478.8, -536.7 300.8 C -606.7 122.8, -679.7 201.3, -609.6 23.2 C -539.6 -154.8, -522.0 -130.6, -344.7 -225.3 C -167.3 -320.0, -278.8 -238.0, -77.1 -205.1 C 124.5 -172.2, 70.9 -259.4, 202.5 -114.3 C 334.1 30.9, 321.9 -45.5, 321.9 144.0 Z" fill="#D8E8FF" opacity="0.35" filter="url(#blur_achievements_10_5164)"/>
  <path d="M 435.4 2107.0 C 435.4 2369.3, 462.7 2233.7, 391.8 2434.7 C 321.0 2635.6, 376.0 2579.0, 267.4 2624.6 C 158.9 2670.2, 186.2 2794.4, 90.7 2663.2 C -4.8 2532.1, 0.6 2517.5, -37.1 2271.0 C -74.8 2024.4, -70.5 2151.0, -32.8 1904.4 C 4.9 1657.9, -18.2 1698.7, 77.3 1567.6 C 172.8 1436.4, 148.1 1519.9, 256.6 1565.4 C 365.2 1611.0, 335.4 1520.9, 406.3 1721.9 C 477.2 1922.9, 435.4 1844.7, 435.4 2107.0 Z" fill="#FAFFFB" opacity="0.35" filter="url(#blur_achievements_10_5164)"/>
  <path d="M 571.4 2843.0 C 571.4 3052.2, 637.0 3015.4, 501.3 3175.7 C 365.7 3336.0, 483.8 3288.8, 276.0 3325.1 C 68.2 3361.5, 111.2 3320.3, -71.5 3215.6 C -254.3 3111.0, -213.1 3224.8, -285.3 3028.2 C -357.5 2831.6, -405.6 2875.2, -333.5 2678.5 C -261.3 2481.9, -274.5 2617.3, -91.8 2512.7 C 91.0 2408.1, 42.6 2400.0, 250.4 2436.3 C 458.3 2472.6, 353.3 2403.8, 489.0 2564.1 C 624.7 2724.4, 571.4 2633.8, 571.4 2843.0 Z" fill="#DFFFD3" opacity="0.33" filter="url(#blur_achievements_10_5164)"/>
  <path d="M 1190.8 676.0 C 1190.8 893.8, 1212.8 824.2, 1124.0 991.0 C 1035.2 1157.9, 1062.3 1193.7, 926.2 1231.5 C 790.2 1269.3, 822.4 1193.9, 702.7 1085.0 C 583.1 976.1, 623.3 1057.6, 576.0 853.0 C 528.8 648.3, 519.7 740.2, 566.9 535.6 C 614.2 330.9, 604.7 314.7, 724.3 205.8 C 844.0 96.9, 799.5 230.4, 935.5 268.2 C 1071.6 306.1, 1014.9 147.2, 1103.7 314.0 C 1192.5 480.9, 1190.8 458.2, 1190.8 676.0 Z" fill="#D8E8FF" opacity="0.17" filter="url(#blur_achievements_10_5164)"/>
  <path d="M 335.0 1226.0 C 335.0 1526.6, 364.2 1352.7, 275.1 1583.0 C 186.0 1813.3, 195.9 1779.6, 59.4 1831.8 C -77.1 1884.0, -33.8 2020.1, -153.8 1869.8 C -273.8 1719.5, -217.3 1733.1, -264.7 1450.7 C -312.1 1168.2, -350.0 1250.4, -302.5 968.0 C -255.1 685.5, -274.5 875.6, -154.4 725.3 C -34.4 575.0, -65.2 459.0, 71.3 511.2 C 207.8 563.4, 156.5 569.8, 245.6 800.0 C 334.7 1030.3, 335.0 925.4, 335.0 1226.0 Z" fill="#A7F3EF" opacity="0.31" filter="url(#blur_achievements_10_5164)"/>
  <path d="M 356.6 2562.0 C 356.6 2730.3, 302.3 2670.7, 187.5 2806.9 C 72.7 2943.1, 194.2 2884.8, 8.5 2936.8 C -177.3 2988.9, -65.7 2937.3, -251.4 2885.3 C -437.1 2833.3, -404.3 2893.2, -519.1 2757.0 C -633.9 2620.9, -601.5 2730.3, -601.5 2562.0 C -601.5 2393.7, -582.4 2458.3, -467.6 2322.2 C -352.8 2186.0, -438.5 2218.9, -252.8 2166.9 C -67.0 2114.9, -175.0 2193.7, 10.7 2245.7 C 196.5 2297.7, 85.5 2232.9, 200.3 2369.1 C 315.1 2505.2, 356.6 2393.7, 356.6 2562.0 Z" fill="#D8E8FF" opacity="0.12" stroke="#D8E8FF" stroke-opacity="0.46" stroke-width="3" filter="url(#soft_achievements_10_5164)"/>
  <path d="M 356.6 2562.0 C 356.6 2730.3, 302.3 2670.7, 187.5 2806.9 C 72.7 2943.1, 194.2 2884.8, 8.5 2936.8 C -177.3 2988.9, -65.7 2937.3, -251.4 2885.3 C -437.1 2833.3, -404.3 2893.2, -519.1 2757.0 C -633.9 2620.9, -601.5 2730.3, -601.5 2562.0 C -601.5 2393.7, -582.4 2458.3, -467.6 2322.2 C -352.8 2186.0, -438.5 2218.9, -252.8 2166.9 C -67.0 2114.9, -175.0 2193.7, 10.7 2245.7 C 196.5 2297.7, 85.5 2232.9, 200.3 2369.1 C 315.1 2505.2, 356.6 2393.7, 356.6 2562.0 Z" fill="none" stroke="#FFFFFF" stroke-opacity="0.22" stroke-width="1.2"/>
  <path d="M 442.6 1850.0 C 442.6 2160.1, 572.9 1951.6, 399.4 2202.4 C 225.9 2453.3, 312.2 2373.0, 31.4 2468.8 C -249.3 2564.6, -100.1 2531.2, -380.9 2435.4 C -661.7 2339.6, -578.5 2462.8, -752.0 2212.0 C -925.6 1961.2, -904.0 2160.1, -904.0 1850.0 C -904.0 1540.0, -868.1 1740.2, -694.6 1489.4 C -521.1 1238.5, -651.9 1270.4, -371.2 1174.5 C -90.4 1078.7, -261.5 1047.3, 19.2 1143.1 C 300.0 1238.9, 198.5 1239.8, 372.0 1490.6 C 545.5 1741.4, 442.6 1540.0, 442.6 1850.0 Z" fill="#DFFFD3" opacity="0.12" stroke="#FFFFFF" stroke-opacity="0.46" stroke-width="3" filter="url(#soft_achievements_10_5164)"/>
  <path d="M 442.6 1850.0 C 442.6 2160.1, 572.9 1951.6, 399.4 2202.4 C 225.9 2453.3, 312.2 2373.0, 31.4 2468.8 C -249.3 2564.6, -100.1 2531.2, -380.9 2435.4 C -661.7 2339.6, -578.5 2462.8, -752.0 2212.0 C -925.6 1961.2, -904.0 2160.1, -904.0 1850.0 C -904.0 1540.0, -868.1 1740.2, -694.6 1489.4 C -521.1 1238.5, -651.9 1270.4, -371.2 1174.5 C -90.4 1078.7, -261.5 1047.3, 19.2 1143.1 C 300.0 1238.9, 198.5 1239.8, 372.0 1490.6 C 545.5 1741.4, 442.6 1540.0, 442.6 1850.0 Z" fill="none" stroke="#FFFFFF" stroke-opacity="0.22" stroke-width="1.2"/>
  <path d="M 601.9 696.0 C 601.9 854.9, 614.5 781.3, 534.1 909.8 C 453.7 1038.4, 524.6 983.7, 394.4 1032.7 C 264.3 1081.8, 341.5 1120.7, 211.4 1071.6 C 81.3 1022.5, 106.8 1045.2, 26.4 916.7 C -54.0 788.2, 10.3 854.9, 10.3 696.0 C 10.3 537.1, -36.2 588.4, 44.2 459.9 C 124.6 331.4, 78.9 419.7, 209.0 370.6 C 339.1 321.5, 262.1 298.0, 392.2 347.1 C 522.4 396.2, 431.5 350.9, 512.0 479.4 C 592.4 607.9, 601.9 537.1, 601.9 696.0 Z" fill="#C9FFF2" opacity="0.12" stroke="#C9FFF2" stroke-opacity="0.46" stroke-width="3" filter="url(#soft_achievements_10_5164)"/>
  <path d="M 601.9 696.0 C 601.9 854.9, 614.5 781.3, 534.1 909.8 C 453.7 1038.4, 524.6 983.7, 394.4 1032.7 C 264.3 1081.8, 341.5 1120.7, 211.4 1071.6 C 81.3 1022.5, 106.8 1045.2, 26.4 916.7 C -54.0 788.2, 10.3 854.9, 10.3 696.0 C 10.3 537.1, -36.2 588.4, 44.2 459.9 C 124.6 331.4, 78.9 419.7, 209.0 370.6 C 339.1 321.5, 262.1 298.0, 392.2 347.1 C 522.4 396.2, 431.5 350.9, 512.0 479.4 C 592.4 607.9, 601.9 537.1, 601.9 696.0 Z" fill="none" stroke="#FFFFFF" stroke-opacity="0.22" stroke-width="1.2"/>
  <path d="M 429.5 429.0 C 429.5 671.5, 569.8 534.1, 386.2 730.4 C 202.6 926.6, 311.5 882.8, 14.5 957.8 C -282.6 1032.7, -93.3 1060.7, -390.3 985.7 C -687.3 910.8, -499.5 931.6, -683.1 735.3 C -866.6 539.1, -981.4 671.6, -981.4 429.0 C -981.4 186.5, -977.1 286.9, -793.6 90.7 C -610.0 -105.5, -676.0 27.0, -379.0 -48.0 C -81.9 -122.9, -285.6 -150.8, 11.4 -75.9 C 308.4 -0.9, 110.1 -72.3, 293.6 123.9 C 477.2 320.1, 429.5 186.4, 429.5 429.0 Z" fill="#7EE56D" opacity="0.12" stroke="#7EE56D" stroke-opacity="0.46" stroke-width="3" filter="url(#soft_achievements_10_5164)"/>
  <path d="M 429.5 429.0 C 429.5 671.5, 569.8 534.1, 386.2 730.4 C 202.6 926.6, 311.5 882.8, 14.5 957.8 C -282.6 1032.7, -93.3 1060.7, -390.3 985.7 C -687.3 910.8, -499.5 931.6, -683.1 735.3 C -866.6 539.1, -981.4 671.6, -981.4 429.0 C -981.4 186.5, -977.1 286.9, -793.6 90.7 C -610.0 -105.5, -676.0 27.0, -379.0 -48.0 C -81.9 -122.9, -285.6 -150.8, 11.4 -75.9 C 308.4 -0.9, 110.1 -72.3, 293.6 123.9 C 477.2 320.1, 429.5 186.4, 429.5 429.0 Z" fill="none" stroke="#FFFFFF" stroke-opacity="0.22" stroke-width="1.2"/>
  <path d="M 1442.8 2348.0 C 1442.8 2746.7, 1455.8 2533.0, 1351.4 2855.6 C 1246.9 3178.1, 1379.2 3067.7, 1210.1 3190.9 C 1041.1 3314.1, 1119.3 3352.3, 950.3 3229.1 C 781.2 3105.9, 819.7 3163.8, 715.2 2841.3 C 610.7 2518.7, 719.2 2746.7, 719.2 2348.0 C 719.2 1949.3, 637.2 2205.7, 741.7 1883.1 C 846.2 1560.6, 767.0 1613.3, 936.1 1490.1 C 1105.1 1366.9, 1024.3 1497.4, 1193.4 1620.6 C 1362.4 1743.8, 1308.5 1485.8, 1413.0 1808.3 C 1517.5 2130.9, 1442.8 1949.3, 1442.8 2348.0 Z" fill="#FAFFFB" opacity="0.12" stroke="#FFFFFF" stroke-opacity="0.46" stroke-width="3" filter="url(#soft_achievements_10_5164)"/>
  <path d="M 1442.8 2348.0 C 1442.8 2746.7, 1455.8 2533.0, 1351.4 2855.6 C 1246.9 3178.1, 1379.2 3067.7, 1210.1 3190.9 C 1041.1 3314.1, 1119.3 3352.3, 950.3 3229.1 C 781.2 3105.9, 819.7 3163.8, 715.2 2841.3 C 610.7 2518.7, 719.2 2746.7, 719.2 2348.0 C 719.2 1949.3, 637.2 2205.7, 741.7 1883.1 C 846.2 1560.6, 767.0 1613.3, 936.1 1490.1 C 1105.1 1366.9, 1024.3 1497.4, 1193.4 1620.6 C 1362.4 1743.8, 1308.5 1485.8, 1413.0 1808.3 C 1517.5 2130.9, 1442.8 1949.3, 1442.8 2348.0 Z" fill="none" stroke="#FFFFFF" stroke-opacity="0.22" stroke-width="1.2"/>
  <path d="M 583.0 949.0 C 583.0 1293.2, 630.2 1089.0, 497.9 1367.5 C 365.7 1646.0, 428.6 1669.6, 214.6 1776.0 C 0.6 1882.4, 86.9 1782.3, -127.1 1676.0 C -341.1 1569.6, -271.9 1708.3, -404.1 1429.8 C -536.4 1151.3, -437.4 1293.2, -437.4 949.0 C -437.4 604.8, -520.9 727.8, -388.7 449.3 C -256.4 170.8, -340.1 348.9, -126.1 242.5 C 87.9 136.1, 5.4 80.4, 219.3 186.8 C 433.3 293.1, 375.4 214.8, 507.6 493.3 C 639.9 771.8, 583.0 604.8, 583.0 949.0 Z" fill="#80B9FF" opacity="0.12" stroke="#80B9FF" stroke-opacity="0.46" stroke-width="3" filter="url(#soft_achievements_10_5164)"/>
  <path d="M 583.0 949.0 C 583.0 1293.2, 630.2 1089.0, 497.9 1367.5 C 365.7 1646.0, 428.6 1669.6, 214.6 1776.0 C 0.6 1882.4, 86.9 1782.3, -127.1 1676.0 C -341.1 1569.6, -271.9 1708.3, -404.1 1429.8 C -536.4 1151.3, -437.4 1293.2, -437.4 949.0 C -437.4 604.8, -520.9 727.8, -388.7 449.3 C -256.4 170.8, -340.1 348.9, -126.1 242.5 C 87.9 136.1, 5.4 80.4, 219.3 186.8 C 433.3 293.1, 375.4 214.8, 507.6 493.3 C 639.9 771.8, 583.0 604.8, 583.0 949.0 Z" fill="none" stroke="#FFFFFF" stroke-opacity="0.22" stroke-width="1.2"/>
  <path d="M -100.0 1199.7 Q 133.3 1507.5, 366.7 1591.4 Q 600.0 1599.1, 833.3 1286.5 Q 1066.7 1226.5, 1300.0 1491.2" fill="none" stroke="#FFFFFF" stroke-opacity="0.38" stroke-width="4" filter="url(#soft_achievements_10_5164)"/>
  <path d="M -100.0 1199.7 Q 133.3 1507.5, 366.7 1591.4 Q 600.0 1599.1, 833.3 1286.5 Q 1066.7 1226.5, 1300.0 1491.2" fill="none" stroke="#80B9FF" stroke-opacity="0.18" stroke-width="2"/>
  <path d="M -100.0 852.2 Q 133.3 861.5, 366.7 1116.8 Q 600.0 1115.8, 833.3 1013.6 Q 1066.7 819.7, 1300.0 894.7" fill="none" stroke="#FFFFFF" stroke-opacity="0.38" stroke-width="4" filter="url(#soft_achievements_10_5164)"/>
  <path d="M -100.0 852.2 Q 133.3 861.5, 366.7 1116.8 Q 600.0 1115.8, 833.3 1013.6 Q 1066.7 819.7, 1300.0 894.7" fill="none" stroke="#7EE56D" stroke-opacity="0.18" stroke-width="2"/>
  <path d="M -100.0 1718.2 Q 133.3 1596.8, 366.7 1840.8 Q 600.0 1942.9, 833.3 1734.6 Q 1066.7 1715.1, 1300.0 1778.8" fill="none" stroke="#FFFFFF" stroke-opacity="0.38" stroke-width="4" filter="url(#soft_achievements_10_5164)"/>
  <path d="M -100.0 1718.2 Q 133.3 1596.8, 366.7 1840.8 Q 600.0 1942.9, 833.3 1734.6 Q 1066.7 1715.1, 1300.0 1778.8" fill="none" stroke="#38D5C7" stroke-opacity="0.18" stroke-width="2"/>
  <path d="M -100.0 1331.4 Q 133.3 1645.8, 366.7 1466.4 Q 600.0 1227.9, 833.3 1229.2 Q 1066.7 1459.9, 1300.0 1604.5" fill="none" stroke="#FFFFFF" stroke-opacity="0.38" stroke-width="4" filter="url(#soft_achievements_10_5164)"/>
  <path d="M -100.0 1331.4 Q 133.3 1645.8, 366.7 1466.4 Q 600.0 1227.9, 833.3 1229.2 Q 1066.7 1459.9, 1300.0 1604.5" fill="none" stroke="#38D5C7" stroke-opacity="0.18" stroke-width="2"/>
  <circle cx="955" cy="348" r="91" fill="url(#orb_achievements_10_5164)" opacity="0.36"/>
  <circle cx="955" cy="348" r="91" fill="#D8E8FF" opacity="0.08"/>
  <circle cx="955" cy="348" r="91" fill="none" stroke="#FFFFFF" stroke-opacity="0.56" stroke-width="3"/>
  <ellipse cx="929.5" cy="315.2" rx="16.4" ry="7.3" fill="#FFFFFF" opacity="0.42" transform="rotate(-22 929.5 315.2)"/>
  <circle cx="299" cy="2613" r="84" fill="url(#orb_achievements_10_5164)" opacity="0.36"/>
  <circle cx="299" cy="2613" r="84" fill="#DFFFD3" opacity="0.08"/>
  <circle cx="299" cy="2613" r="84" fill="none" stroke="#FFFFFF" stroke-opacity="0.56" stroke-width="3"/>
  <ellipse cx="275.5" cy="2582.8" rx="15.1" ry="6.7" fill="#FFFFFF" opacity="0.42" transform="rotate(-22 275.5 2582.8)"/>
  <circle cx="1128" cy="1121" r="170" fill="url(#orb_achievements_10_5164)" opacity="0.36"/>
  <circle cx="1128" cy="1121" r="170" fill="#FAFFFB" opacity="0.08"/>
  <circle cx="1128" cy="1121" r="170" fill="none" stroke="#FFFFFF" stroke-opacity="0.56" stroke-width="3"/>
  <ellipse cx="1080.4" cy="1059.8" rx="30.6" ry="13.6" fill="#FFFFFF" opacity="0.42" transform="rotate(-22 1080.4 1059.8)"/>
  <circle cx="80" cy="838" r="187" fill="url(#orb_achievements_10_5164)" opacity="0.20"/>
  <circle cx="80" cy="838" r="187" fill="#C9FFF2" opacity="0.08"/>
  <circle cx="80" cy="838" r="187" fill="none" stroke="#FFFFFF" stroke-opacity="0.56" stroke-width="3"/>
  <ellipse cx="27.6" cy="770.7" rx="33.7" ry="15.0" fill="#FFFFFF" opacity="0.42" transform="rotate(-22 27.6 770.7)"/>
  <circle cx="561" cy="2342" r="200" fill="url(#orb_achievements_10_5164)" opacity="0.26"/>
  <circle cx="561" cy="2342" r="200" fill="#C9FFF2" opacity="0.08"/>
  <circle cx="561" cy="2342" r="200" fill="none" stroke="#FFFFFF" stroke-opacity="0.56" stroke-width="3"/>
  <ellipse cx="505.0" cy="2270.0" rx="36.0" ry="16.0" fill="#FFFFFF" opacity="0.42" transform="rotate(-22 505.0 2270.0)"/>
  <circle cx="939" cy="2435" r="261" fill="url(#orb_achievements_10_5164)" opacity="0.18"/>
  <circle cx="939" cy="2435" r="261" fill="#A7F3EF" opacity="0.08"/>
  <circle cx="939" cy="2435" r="261" fill="none" stroke="#FFFFFF" stroke-opacity="0.56" stroke-width="3"/>
  <ellipse cx="865.9" cy="2341.0" rx="47.0" ry="20.9" fill="#FFFFFF" opacity="0.42" transform="rotate(-22 865.9 2341.0)"/>
  <circle cx="1250" cy="-52" r="215" fill="url(#orb_achievements_10_5164)" opacity="0.21"/>
  <circle cx="1250" cy="-52" r="215" fill="#D8E8FF" opacity="0.08"/>
  <circle cx="1250" cy="-52" r="215" fill="none" stroke="#FFFFFF" stroke-opacity="0.56" stroke-width="3"/>
  <ellipse cx="1189.8" cy="-129.4" rx="38.7" ry="17.2" fill="#FFFFFF" opacity="0.42" transform="rotate(-22 1189.8 -129.4)"/>
  <circle cx="1230" cy="1531" r="234" fill="url(#orb_achievements_10_5164)" opacity="0.28"/>
  <circle cx="1230" cy="1531" r="234" fill="#FAFFFB" opacity="0.08"/>
  <circle cx="1230" cy="1531" r="234" fill="none" stroke="#FFFFFF" stroke-opacity="0.56" stroke-width="3"/>
  <ellipse cx="1164.5" cy="1446.8" rx="42.1" ry="18.7" fill="#FFFFFF" opacity="0.42" transform="rotate(-22 1164.5 1446.8)"/>
  <circle cx="1199" cy="1774" r="171" fill="url(#orb_achievements_10_5164)" opacity="0.17"/>
  <circle cx="1199" cy="1774" r="171" fill="#7EE56D" opacity="0.08"/>
  <circle cx="1199" cy="1774" r="171" fill="none" stroke="#FFFFFF" stroke-opacity="0.56" stroke-width="3"/>
  <ellipse cx="1151.1" cy="1712.4" rx="30.8" ry="13.7" fill="#FFFFFF" opacity="0.42" transform="rotate(-22 1151.1 1712.4)"/>
  <circle cx="599" cy="1594" r="209" fill="url(#orb_achievements_10_5164)" opacity="0.16"/>
  <circle cx="599" cy="1594" r="209" fill="#FAFFFB" opacity="0.08"/>
  <circle cx="599" cy="1594" r="209" fill="none" stroke="#FFFFFF" stroke-opacity="0.56" stroke-width="3"/>
  <ellipse cx="540.5" cy="1518.8" rx="37.6" ry="16.7" fill="#FFFFFF" opacity="0.42" transform="rotate(-22 540.5 1518.8)"/>
  <circle cx="1021" cy="1323" r="4" fill="#FFFFFF" opacity="0.33"/>
  <circle cx="497" cy="1718" r="3" fill="#FFFFFF" opacity="0.61"/>
  <circle cx="419" cy="2217" r="2" fill="#FFFFFF" opacity="0.56"/>
  <circle cx="48" cy="2126" r="7" fill="#FFFFFF" opacity="0.70"/>
  <circle cx="925" cy="366" r="7" fill="#FFFFFF" opacity="0.59"/>
  <circle cx="667" cy="902" r="3" fill="#FFFFFF" opacity="0.57"/>
  <circle cx="758" cy="1269" r="5" fill="#FFFFFF" opacity="0.51"/>
  <circle cx="966" cy="1566" r="4" fill="#FFFFFF" opacity="0.35"/>
  <circle cx="913" cy="63" r="5" fill="#FFFFFF" opacity="0.63"/>
  <circle cx="320" cy="820" r="5" fill="#FFFFFF" opacity="0.65"/>
  <circle cx="645" cy="1054" r="5" fill="#FFFFFF" opacity="0.52"/>
  <circle cx="840" cy="414" r="5" fill="#FFFFFF" opacity="0.56"/>
  <circle cx="218" cy="1026" r="5" fill="#FFFFFF" opacity="0.44"/>
  <rect width="1200" height="2600" fill="#FFFFFF" opacity="0.08"/>
  <rect width="1200" height="2600" filter="url(#grain_achievements_10_5164)" opacity="0.7"/>
</svg>
