<svg xmlns="http://www.w3.org/2000/svg" width="1200" height="2600" viewBox="0 0 1200 2600" preserveAspectRatio="xMidYMid slice">
  <defs>
    <linearGradient id="bg_achievements_13_5229" x1="0" y1="0" x2="1" y2="1">
      <stop offset="0%" stop-color="#DFFFD3"/>
      <stop offset="48%" stop-color="#C9FFF2"/>
      <stop offset="100%" stop-color="#FAFFFB"/>
    </linearGradient>
    <radialGradient id="orb_achievements_13_5229" cx="35%" cy="30%" r="70%">
      <stop offset="0%" stop-color="#FFFFFF" stop-opacity="0.85"/>
      <stop offset="42%" stop-color="#FFFFFF" stop-opacity="0.20"/>
      <stop offset="100%" stop-color="#FFFFFF" stop-opacity="0.02"/>
    </radialGradient>
    <filter id="blur_achievements_13_5229" x="-30%" y="-30%" width="160%" height="160%">
      <feGaussianBlur stdDeviation="72"/>
    </filter>
    <filter id="soft_achievements_13_5229" x="-20%" y="-20%" width="140%" height="140%">
      <feGaussianBlur stdDeviation="10"/>
    </filter>
    <filter id="grain_achievements_13_5229">
      <feTurbulence type="fractalNoise" baseFrequency="0.85" numOctaves="2" stitchTiles="stitch"/>
      <feColorMatrix type="saturate" values="0"/>
      <feComponentTransfer>
        <feFuncA type="table" tableValues="0 0.035"/>
      </feComponentTransfer>
    </filter>
  </defs>
  <rect width="1200" height="2600" fill="url(#bg_achievements_13_5229)"/>
  <path d="M 754.0 2533.0 C 754.0 2671.6, 828.5 2631.3, 741.4 2737.5 C 654.4 2843.7, 666.8 2830.1, 533.5 2854.2 C 400.1 2878.2, 424.1 2870.4, 306.8 2801.1 C 189.5 2731.8, 225.9 2784.1, 179.6 2653.8 C 133.2 2523.6, 99.9 2541.7, 146.2 2411.5 C 192.6 2281.2, 218.6 2323.7, 335.9 2254.4 C 453.2 2185.1, 398.5 2213.8, 531.9 2237.8 C 665.2 2261.9, 624.9 2218.9, 711.9 2325.1 C 799.0 2431.2, 754.0 2394.4, 754.0 2533.0 Z" fill="#38D5C7" opacity="0.28" filter="url(#blur_achievements_13_5229)"/>
  <path d="M 1573.8 2715.0 C 1573.8 2853.6, 1742.1 2782.1, 1582.8 2888.3 C 1423.4 2994.5, 1424.9 3020.3, 1180.7 3044.3 C 936.5 3068.4, 989.2 3023.7, 774.5 2954.4 C 559.8 2885.1, 591.9 2937.2, 507.1 2807.0 C 422.3 2676.7, 568.6 2728.1, 653.4 2597.9 C 738.2 2467.6, 648.3 2490.4, 863.0 2421.1 C 1077.8 2351.8, 944.4 2414.6, 1188.6 2438.6 C 1432.8 2462.7, 1370.3 2375.3, 1529.7 2481.5 C 1689.0 2587.7, 1573.8 2576.4, 1573.8 2715.0 Z" fill="#D8E8FF" opacity="0.35" filter="url(#blur_achievements_13_5229)"/>
  <path d="M 962.6 567.0 C 962.6 743.0, 944.0 653.6, 798.2 788.3 C 652.4 923.1, 718.6 909.5, 495.2 940.1 C 271.9 970.6, 397.1 948.3, 200.7 860.3 C 4.2 772.3, 10.4 861.7, -67.2 696.3 C -144.8 531.0, -215.5 584.6, -137.9 419.3 C -60.4 254.0, -59.8 341.1, 136.6 253.1 C 333.0 165.1, 279.1 166.0, 502.4 196.5 C 725.8 227.1, 690.6 155.3, 836.4 290.0 C 982.2 424.8, 962.6 391.0, 962.6 567.0 Z" fill="#80B9FF" opacity="0.16" filter="url(#blur_achievements_13_5229)"/>
  <path d="M 1184.0 -253.0 C 1184.0 58.4, 1298.2 -33.1, 1176.2 205.5 C 1054.1 444.0, 1066.3 421.8, 879.3 475.8 C 692.3 529.9, 768.2 586.0, 603.7 430.3 C 439.3 274.6, 428.8 249.5, 363.9 -43.1 C 298.9 -335.7, 408.4 -160.0, 473.4 -452.6 C 538.3 -745.2, 405.7 -648.4, 570.1 -804.1 C 734.6 -959.8, 708.0 -986.7, 895.0 -932.6 C 1082.0 -878.5, 963.1 -862.5, 1085.2 -624.0 C 1207.3 -385.5, 1184.0 -564.4, 1184.0 -253.0 Z" fill="#C9FFF2" opacity="0.34" filter="url(#blur_achievements_13_5229)"/>
  <path d="M 549.0 87.0 C 549.0 330.5, 596.2 296.2, 460.9 482.7 C 325.5 669.2, 403.3 564.8, 195.9 607.1 C -11.5 649.3, 13.1 595.5, -169.3 473.7 C -351.7 352.0, -230.4 489.5, -302.4 260.7 C -374.4 32.0, -448.8 148.0, -376.7 -80.7 C -304.7 -309.5, -279.8 -306.4, -97.4 -428.1 C 85.0 -549.8, -19.0 -559.3, 188.4 -517.0 C 395.8 -474.7, 290.6 -432.8, 426.0 -246.3 C 561.4 -59.8, 549.0 -156.5, 549.0 87.0 Z" fill="#D8E8FF" opacity="0.36" filter="url(#blur_achievements_13_5229)"/>
  <path d="M 1283.6 1378.0 C 1283.6 1601.2, 1292.7 1523.5, 1176.4 1694.5 C 1060.2 1865.5, 1079.3 1788.6, 901.1 1827.4 C 723.0 1866.1, 807.4 1869.4, 650.8 1757.8 C 494.1 1646.2, 524.7 1750.5, 462.9 1540.8 C 401.0 1331.1, 339.4 1391.3, 401.3 1181.6 C 463.1 971.8, 468.6 1132.5, 625.3 1020.9 C 782.0 909.3, 715.9 779.7, 894.1 818.4 C 1072.2 857.2, 1052.3 851.5, 1168.6 1022.5 C 1284.8 1193.5, 1283.6 1154.8, 1283.6 1378.0 Z" fill="#DFFFD3" opacity="0.21" filter="url(#blur_achievements_13_5229)"/>
  <path d="M 1039.7 1096.0 C 1039.7 1371.0, 1026.5 1287.3, 949.9 1497.9 C 873.2 1708.6, 927.4 1586.6, 810.0 1634.4 C 692.5 1682.1, 752.8 1808.1, 649.5 1670.6 C 546.3 1533.2, 579.5 1555.7, 538.7 1297.3 C 497.9 1039.0, 458.6 1174.2, 499.4 915.9 C 540.2 657.5, 542.6 797.1, 645.9 659.6 C 749.2 522.1, 705.0 542.9, 822.4 590.7 C 939.9 638.4, 929.6 514.3, 1006.2 724.9 C 1082.9 935.6, 1039.7 821.0, 1039.7 1096.0 Z" fill="#D8E8FF" opacity="0.26" filter="url(#blur_achievements_13_5229)"/>
  <path d="M 1203.0 1763.0 C 1203.0 2007.3, 1249.5 1864.2, 1147.1 2051.4 C 1044.7 2238.6, 1115.0 2267.2, 958.2 2309.6 C 801.3 2352.0, 850.6 2322.6, 712.7 2200.4 C 574.7 2078.3, 641.3 2150.1, 586.8 1920.5 C 532.3 1690.9, 496.0 1784.4, 550.5 1554.8 C 604.9 1325.2, 560.6 1477.7, 698.6 1355.5 C 836.5 1233.3, 803.3 1170.8, 960.1 1213.2 C 1117.0 1255.6, 1064.1 1194.7, 1166.5 1381.9 C 1268.9 1569.1, 1203.0 1518.7, 1203.0 1763.0 Z" fill="#D8E8FF" opacity="0.18" filter="url(#blur_achievements_13_5229)"/>
  <path d="M 157.8 1951.0 C 157.8 2086.4, 208.8 2038.8, 107.9 2142.6 C 6.9 2246.3, 81.8 2238.6, -72.9 2262.1 C -227.5 2285.6, -167.7 2291.2, -303.8 2223.5 C -439.8 2155.8, -458.1 2170.7, -511.8 2043.4 C -565.5 1916.1, -540.9 1970.8, -487.2 1843.5 C -433.4 1716.2, -430.4 1733.8, -294.4 1666.1 C -158.4 1598.3, -236.0 1670.3, -81.4 1693.9 C 73.3 1717.4, 38.6 1669.9, 139.6 1773.6 C 240.5 1877.4, 157.8 1815.5, 157.8 1951.0 Z" fill="#A7F3EF" opacity="0.29" filter="url(#blur_achievements_13_5229)"/>
  <path d="M 1719.9 2384.0 C 1719.9 2643.7, 1774.9 2533.6, 1644.2 2732.5 C 1513.4 2931.4, 1513.5 3005.9, 1313.1 3051.0 C 1112.8 3096.1, 1163.3 3055.3, 987.2 2925.5 C 811.0 2795.6, 822.0 2813.5, 752.5 2569.5 C 682.9 2325.5, 789.1 2403.0, 858.7 2159.0 C 928.3 1915.0, 842.5 2004.5, 1018.6 1874.7 C 1194.8 1744.8, 1105.8 1694.9, 1306.1 1740.0 C 1506.5 1785.1, 1396.0 1772.6, 1526.7 1971.5 C 1657.5 2170.4, 1719.9 2124.3, 1719.9 2384.0 Z" fill="#C9FFF2" opacity="0.32" filter="url(#blur_achievements_13_5229)"/>
  <path d="M 1364.6 2761.0 C 1364.6 2949.6, 1367.0 2889.8, 1290.4 3034.3 C 1213.7 3178.7, 1278.9 3148.0, 1161.5 3180.7 C 1044.0 3213.4, 1068.7 3263.2, 965.4 3168.9 C 862.1 3074.6, 910.8 3078.5, 870.1 2901.3 C 829.3 2724.1, 860.6 2776.2, 901.4 2599.0 C 942.2 2421.8, 894.9 2536.5, 998.1 2442.2 C 1101.4 2348.0, 1043.3 2276.0, 1160.8 2308.7 C 1278.2 2341.5, 1231.5 2330.8, 1308.1 2475.3 C 1384.8 2619.7, 1364.6 2572.4, 1364.6 2761.0 Z" fill="#A7F3EF" opacity="0.37" filter="url(#blur_achievements_13_5229)"/>
  <path d="M 971.0 1209.0 C 971.0 1449.3, 1020.0 1371.3, 878.3 1555.4 C 736.5 1739.5, 846.7 1771.7, 629.6 1813.4 C 412.4 1855.1, 477.0 1822.7, 286.0 1702.6 C 95.1 1582.4, 203.5 1619.2, 128.1 1393.3 C 52.7 1167.5, -12.0 1228.6, 63.4 1002.8 C 138.9 777.0, 113.9 896.5, 304.9 776.4 C 495.9 656.2, 401.2 623.1, 618.3 664.8 C 835.5 706.6, 762.6 742.0, 904.3 926.1 C 1046.0 1110.2, 971.0 968.7, 971.0 1209.0 Z" fill="#A7F3EF" opacity="0.33" filter="url(#blur_achievements_13_5229)"/>
  <path d="M 933.7 -155.0 C 933.7 239.7, 949.3 59.5, 848.8 378.8 C 748.3 698.0, 826.7 480.5, 664.1 602.5 C 501.4 724.4, 618.0 891.9, 455.4 770.0 C 292.8 648.0, 327.9 714.8, 227.4 395.6 C 126.9 76.3, 221.8 239.7, 221.8 -155.0 C 221.8 -549.6, 182.7 -400.7, 283.2 -719.9 C 383.7 -1039.2, 268.7 -953.4, 431.3 -1075.4 C 594.0 -1197.4, 501.2 -1036.5, 663.8 -914.6 C 826.5 -792.6, 803.6 -964.4, 904.1 -645.1 C 1004.6 -325.8, 933.7 -549.7, 933.7 -155.0 Z" fill="#D8E8FF" opacity="0.12" stroke="#D8E8FF" stroke-opacity="0.46" stroke-width="3" filter="url(#soft_achievements_13_5229)"/>
  <path d="M 933.7 -155.0 C 933.7 239.7, 949.3 59.5, 848.8 378.8 C 748.3 698.0, 826.7 480.5, 664.1 602.5 C 501.4 724.4, 618.0 891.9, 455.4 770.0 C 292.8 648.0, 327.9 714.8, 227.4 395.6 C 126.9 76.3, 221.8 239.7, 221.8 -155.0 C 221.8 -549.6, 182.7 -400.7, 283.2 -719.9 C 383.7 -1039.2, 268.7 -953.4, 431.3 -1075.4 C 594.0 -1197.4, 501.2 -1036.5, 663.8 -914.6 C 826.5 -792.6, 803.6 -964.4, 904.1 -645.1 C 1004.6 -325.8, 933.7 -549.7, 933.7 -155.0 Z" fill="none" stroke="#FFFFFF" stroke-opacity="0.22" stroke-width="1.2"/>
  <path d="M 842.7 772.0 C 842.7 1031.2, 835.4 907.7, 700.3 1117.4 C 565.1 1327.1, 662.4 1192.7, 443.7 1272.8 C 225.0 1352.9, 342.7 1347.0, 124.0 1266.9 C -94.7 1186.8, -57.6 1334.9, -192.7 1125.2 C -327.9 915.5, -177.2 1031.2, -177.2 772.0 C -177.2 512.8, -293.6 643.6, -158.5 433.9 C -23.3 224.2, -125.2 358.2, 93.5 278.1 C 312.2 198.0, 200.0 108.9, 418.7 189.0 C 637.4 269.1, 597.7 199.6, 732.9 409.3 C 868.0 619.0, 842.7 512.8, 842.7 772.0 Z" fill="#A7F3EF" opacity="0.12" stroke="#A7F3EF" stroke-opacity="0.46" stroke-width="3" filter="url(#soft_achievements_13_5229)"/>
  <path d="M 842.7 772.0 C 842.7 1031.2, 835.4 907.7, 700.3 1117.4 C 565.1 1327.1, 662.4 1192.7, 443.7 1272.8 C 225.0 1352.9, 342.7 1347.0, 124.0 1266.9 C -94.7 1186.8, -57.6 1334.9, -192.7 1125.2 C -327.9 915.5, -177.2 1031.2, -177.2 772.0 C -177.2 512.8, -293.6 643.6, -158.5 433.9 C -23.3 224.2, -125.2 358.2, 93.5 278.1 C 312.2 198.0, 200.0 108.9, 418.7 189.0 C 637.4 269.1, 597.7 199.6, 732.9 409.3 C 868.0 619.0, 842.7 512.8, 842.7 772.0 Z" fill="none" stroke="#FFFFFF" stroke-opacity="0.22" stroke-width="1.2"/>
  <path d="M 1451.0 2286.0 C 1451.0 2668.9, 1390.9 2488.0, 1275.9 2797.8 C 1160.8 3107.7, 1299.8 2892.4, 1113.6 3010.7 C 927.5 3129.1, 1024.3 3118.0, 838.1 2999.7 C 652.0 2881.3, 754.7 3092.2, 639.7 2782.4 C 524.6 2472.6, 499.2 2668.9, 499.2 2286.0 C 499.2 1903.0, 523.1 2113.7, 638.2 1803.9 C 753.2 1494.1, 649.1 1609.0, 835.3 1490.7 C 1021.4 1372.4, 912.2 1387.7, 1098.4 1506.0 C 1284.6 1624.3, 1191.7 1406.9, 1306.8 1716.8 C 1421.8 2026.6, 1451.0 1903.0, 1451.0 2286.0 Z" fill="#C9FFF2" opacity="0.12" stroke="#FFFFFF" stroke-opacity="0.46" stroke-width="3" filter="url(#soft_achievements_13_5229)"/>
  <path d="M 1451.0 2286.0 C 1451.0 2668.9, 1390.9 2488.0, 1275.9 2797.8 C 1160.8 3107.7, 1299.8 2892.4, 1113.6 3010.7 C 927.5 3129.1, 1024.3 3118.0, 838.1 2999.7 C 652.0 2881.3, 754.7 3092.2, 639.7 2782.4 C 524.6 2472.6, 499.2 2668.9, 499.2 2286.0 C 499.2 1903.0, 523.1 2113.7, 638.2 1803.9 C 753.2 1494.1, 649.1 1609.0, 835.3 1490.7 C 1021.4 1372.4, 912.2 1387.7, 1098.4 1506.0 C 1284.6 1624.3, 1191.7 1406.9, 1306.8 1716.8 C 1421.8 2026.6, 1451.0 1903.0, 1451.0 2286.0 Z" fill="none" stroke="#FFFFFF" stroke-opacity="0.22" stroke-width="1.2"/>
  <path d="M 1747.3 1295.0 C 1747.3 1619.5, 1659.0 1503.0, 1497.9 1765.5 C 1336.9 2028.0, 1525.6 1806.8, 1265.0 1907.1 C 1004.4 2007.4, 1150.3 1987.4, 889.7 1887.2 C 629.0 1786.9, 800.5 1940.9, 639.5 1678.5 C 478.4 1416.0, 408.5 1619.5, 408.5 1295.0 C 408.5 970.5, 362.5 1080.4, 523.6 818.0 C 684.7 555.5, 621.5 641.7, 882.1 541.4 C 1142.8 441.1, 976.6 473.5, 1237.3 573.7 C 1497.9 674.0, 1351.9 588.4, 1513.0 850.9 C 1674.1 1113.4, 1747.3 970.5, 1747.3 1295.0 Z" fill="#80B9FF" opacity="0.12" stroke="#FFFFFF" stroke-opacity="0.46" stroke-width="3" filter="url(#soft_achievements_13_5229)"/>
  <path d="M 1747.3 1295.0 C 1747.3 1619.5, 1659.0 1503.0, 1497.9 1765.5 C 1336.9 2028.0, 1525.6 1806.8, 1265.0 1907.1 C 1004.4 2007.4, 1150.3 1987.4, 889.7 1887.2 C 629.0 1786.9, 800.5 1940.9, 639.5 1678.5 C 478.4 1416.0, 408.5 1619.5, 408.5 1295.0 C 408.5 970.5, 362.5 1080.4, 523.6 818.0 C 684.7 555.5, 621.5 641.7, 882.1 541.4 C 1142.8 441.1, 976.6 473.5, 1237.3 573.7 C 1497.9 674.0, 1351.9 588.4, 1513.0 850.9 C 1674.1 1113.4, 1747.3 970.5, 1747.3 1295.0 Z" fill="none" stroke="#FFFFFF" stroke-opacity="0.22" stroke-width="1.2"/>
  <path d="M 747.6 -116.0 C 747.6 126.6, 770.6 -25.8, 646.0 170.4 C 521.4 366.6, 655.6 354.0, 454.0 429.0 C 252.4 503.9, 353.2 484.2, 151.7 409.2 C -49.9 334.3, 57.8 408.9, -66.8 212.7 C -191.4 16.5, -198.8 126.6, -198.8 -116.0 C -198.8 -358.5, -248.6 -259.5, -124.0 -455.8 C 0.5 -652.0, -34.5 -581.4, 167.1 -656.4 C 368.7 -731.3, 252.3 -746.0, 453.9 -671.1 C 655.4 -596.1, 599.7 -591.0, 724.3 -394.8 C 848.9 -198.5, 747.6 -358.6, 747.6 -116.0 Z" fill="#D8E8FF" opacity="0.12" stroke="#FFFFFF" stroke-opacity="0.46" stroke-width="3" filter="url(#soft_achievements_13_5229)"/>
  <path d="M 747.6 -116.0 C 747.6 126.6, 770.6 -25.8, 646.0 170.4 C 521.4 366.6, 655.6 354.0, 454.0 429.0 C 252.4 503.9, 353.2 484.2, 151.7 409.2 C -49.9 334.3, 57.8 408.9, -66.8 212.7 C -191.4 16.5, -198.8 126.6, -198.8 -116.0 C -198.8 -358.5, -248.6 -259.5, -124.0 -455.8 C 0.5 -652.0, -34.5 -581.4, 167.1 -656.4 C 368.7 -731.3, 252.3 -746.0, 453.9 -671.1 C 655.4 -596.1, 599.7 -591.0, 724.3 -394.8 C 848.9 -198.5, 747.6 -358.6, 747.6 -116.0 Z" fill="none" stroke="#FFFFFF" stroke-opacity="0.22" stroke-width="1.2"/>
  <path d="M -100.0 1579.3 Q 133.3 1263.8, 366.7 1035.0 Q 600.0 1496.6, 833.3 1518.2 Q 1066.7 1230.9, 1300.0 1186.4" fill="none" stroke="#FFFFFF" stroke-opacity="0.38" stroke-width="4" filter="url(#soft_achievements_13_5229)"/>
  <path d="M -100.0 1579.3 Q 133.3 1263.8, 366.7 1035.0 Q 600.0 1496.6, 833.3 1518.2 Q 1066.7 1230.9, 1300.0 1186.4" fill="none" stroke="#38D5C7" stroke-opacity="0.18" stroke-width="2"/>
  <path d="M -100.0 -346.2 Q 133.3 -377.1, 366.7 -205.0 Q 600.0 82.5, 833.3 341.1 Q 1066.7 368.8, 1300.0 151.0" fill="none" stroke="#FFFFFF" stroke-opacity="0.38" stroke-width="4" filter="url(#soft_achievements_13_5229)"/>
  <path d="M -100.0 -346.2 Q 133.3 -377.1, 366.7 -205.0 Q 600.0 82.5, 833.3 341.1 Q 1066.7 368.8, 1300.0 151.0" fill="none" stroke="#80B9FF" stroke-opacity="0.18" stroke-width="2"/>
  <path d="M -100.0 363.6 Q 133.3 233.2, 366.7 -195.8 Q 600.0 65.7, 833.3 334.8 Q 1066.7 100.5, 1300.0 -228.3" fill="none" stroke="#FFFFFF" stroke-opacity="0.38" stroke-width="4" filter="url(#soft_achievements_13_5229)"/>
  <path d="M -100.0 363.6 Q 133.3 233.2, 366.7 -195.8 Q 600.0 65.7, 833.3 334.8 Q 1066.7 100.5, 1300.0 -228.3" fill="none" stroke="#38D5C7" stroke-opacity="0.18" stroke-width="2"/>
  <circle cx="369" cy="1188" r="212" fill="url(#orb_achievements_13_5229)" opacity="0.36"/>
  <circle cx="369" cy="1188" r="212" fill="#C9FFF2" opacity="0.08"/>
  <circle cx="369" cy="1188" r="212" fill="none" stroke="#FFFFFF" stroke-opacity="0.56" stroke-width="3"/>
  <ellipse cx="309.6" cy="1111.7" rx="38.2" ry="17.0" fill="#FFFFFF" opacity="0.42" transform="rotate(-22 309.6 1111.7)"/>
  <circle cx="313" cy="57" r="100" fill="url(#orb_achievements_13_5229)" opacity="0.36"/>
  <circle cx="313" cy="57" r="100" fill="#7EE56D" opacity="0.08"/>
  <circle cx="313" cy="57" r="100" fill="none" stroke="#FFFFFF" stroke-opacity="0.56" stroke-width="3"/>
  <ellipse cx="285.0" cy="21.0" rx="18.0" ry="8.0" fill="#FFFFFF" opacity="0.42" transform="rotate(-22 285.0 21.0)"/>
  <circle cx="674" cy="-70" r="260" fill="url(#orb_achievements_13_5229)" opacity="0.36"/>
  <circle cx="674" cy="-70" r="260" fill="#FAFFFB" opacity="0.08"/>
  <circle cx="674" cy="-70" r="260" fill="none" stroke="#FFFFFF" stroke-opacity="0.56" stroke-width="3"/>
  <ellipse cx="601.2" cy="-163.6" rx="46.8" ry="20.8" fill="#FFFFFF" opacity="0.42" transform="rotate(-22 601.2 -163.6)"/>
  <circle cx="402" cy="1298" r="191" fill="url(#orb_achievements_13_5229)" opacity="0.25"/>
  <circle cx="402" cy="1298" r="191" fill="#DFFFD3" opacity="0.08"/>
  <circle cx="402" cy="1298" r="191" fill="none" stroke="#FFFFFF" stroke-opacity="0.56" stroke-width="3"/>
  <ellipse cx="348.5" cy="1229.2" rx="34.4" ry="15.3" fill="#FFFFFF" opacity="0.42" transform="rotate(-22 348.5 1229.2)"/>
  <circle cx="370" cy="2361" r="221" fill="url(#orb_achievements_13_5229)" opacity="0.24"/>
  <circle cx="370" cy="2361" r="221" fill="#A7F3EF" opacity="0.08"/>
  <circle cx="370" cy="2361" r="221" fill="none" stroke="#FFFFFF" stroke-opacity="0.56" stroke-width="3"/>
  <ellipse cx="308.1" cy="2281.4" rx="39.8" ry="17.7" fill="#FFFFFF" opacity="0.42" transform="rotate(-22 308.1 2281.4)"/>
  <circle cx="293" cy="1454" r="89" fill="url(#orb_achievements_13_5229)" opacity="0.23"/>
  <circle cx="293" cy="1454" r="89" fill="#FAFFFB" opacity="0.08"/>
  <circle cx="293" cy="1454" r="89" fill="none" stroke="#FFFFFF" stroke-opacity="0.56" stroke-width="3"/>
  <ellipse cx="268.1" cy="1422.0" rx="16.0" ry="7.1" fill="#FFFFFF" opacity="0.42" transform="rotate(-22 268.1 1422.0)"/>
  <circle cx="68" cy="1298" r="85" fill="url(#orb_achievements_13_5229)" opacity="0.18"/>
  <circle cx="68" cy="1298" r="85" fill="#C9FFF2" opacity="0.08"/>
  <circle cx="68" cy="1298" r="85" fill="none" stroke="#FFFFFF" stroke-opacity="0.56" stroke-width="3"/>
  <ellipse cx="44.2" cy="1267.4" rx="15.3" ry="6.8" fill="#FFFFFF" opacity="0.42" transform="rotate(-22 44.2 1267.4)"/>
  <circle cx="1016" cy="693" r="164" fill="url(#orb_achievements_13_5229)" opacity="0.26"/>
  <circle cx="1016" cy="693" r="164" fill="#D8E8FF" opacity="0.08"/>
  <circle cx="1016" cy="693" r="164" fill="none" stroke="#FFFFFF" stroke-opacity="0.56" stroke-width="3"/>
  <ellipse cx="970.1" cy="634.0" rx="29.5" ry="13.1" fill="#FFFFFF" opacity="0.42" transform="rotate(-22 970.1 634.0)"/>
  <circle cx="709" cy="2413" r="170" fill="url(#orb_achievements_13_5229)" opacity="0.17"/>
  <circle cx="709" cy="2413" r="170" fill="#7EE56D" opacity="0.08"/>
  <circle cx="709" cy="2413" r="170" fill="none" stroke="#FFFFFF" stroke-opacity="0.56" stroke-width="3"/>
  <ellipse cx="661.4" cy="2351.8" rx="30.6" ry="13.6" fill="#FFFFFF" opacity="0.42" transform="rotate(-22 661.4 2351.8)"/>
  <circle cx="1042" cy="226" r="271" fill="url(#orb_achievements_13_5229)" opacity="0.24"/>
  <circle cx="1042" cy="226" r="271" fill="#D8E8FF" opacity="0.08"/>
  <circle cx="1042" cy="226" r="271" fill="none" stroke="#FFFFFF" stroke-opacity="0.56" stroke-width="3"/>
  <ellipse cx="966.1" cy="128.4" rx="48.8" ry="21.7" fill="#FFFFFF" opacity="0.42" transform="rotate(-22 966.1 128.4)"/>
  <circle cx="927" cy="1424" r="7" fill="#FFFFFF" opacity="0.69"/>
  <circle cx="665" cy="1532" r="5" fill="#FFFFFF" opacity="0.64"/>
  <circle cx="79" cy="1358" r="7" fill="#FFFFFF" opacity="0.52"/>
  <circle cx="1038" cy="2596" r="3" fill="#FFFFFF" opacity="0.30"/>
  <circle cx="598" cy="94" r="3" fill="#FFFFFF" opacity="0.44"/>
  <circle cx="44" cy="1323" r="3" fill="#FFFFFF" opacity="0.40"/>
  <circle cx="24" cy="1308" r="7" fill="#FFFFFF" opacity="0.53"/>
  <circle cx="870" cy="1038" r="5" fill="#FFFFFF" opacity="0.68"/>
  <circle cx="37" cy="1549" r="3" fill="#FFFFFF" opacity="0.65"/>
  <circle cx="735" cy="908" r="5" fill="#FFFFFF" opacity="0.31"/>
  <circle cx="301" cy="2421" r="5" fill="#FFFFFF" opacity="0.70"/>
  <circle cx="458" cy="1528" r="3" fill="#FFFFFF" opacity="0.45"/>
  <rect width="1200" height="2600" fill="#FFFFFF" opacity="0.08"/>
  <rect width="1200" height="2600" filter="url(#grain_achievements_13_5229)" opacity="0.7"/>
</svg>
