<svg xmlns="http://www.w3.org/2000/svg" width="1200" height="2600" viewBox="0 0 1200 2600" preserveAspectRatio="xMidYMid slice">
  <defs>
    <linearGradient id="bg_achievements_08_7437" x1="0" y1="0" x2="1" y2="1">
      <stop offset="0%" stop-color="#DFFFD3"/>
      <stop offset="48%" stop-color="#C9FFF2"/>
      <stop offset="100%" stop-color="#A7F3EF"/>
    </linearGradient>
    <radialGradient id="orb_achievements_08_7437" cx="35%" cy="30%" r="70%">
      <stop offset="0%" stop-color="#FFFFFF" stop-opacity="0.85"/>
      <stop offset="42%" stop-color="#FFFFFF" stop-opacity="0.20"/>
      <stop offset="100%" stop-color="#FFFFFF" stop-opacity="0.02"/>
    </radialGradient>
    <filter id="blur_achievements_08_7437" x="-30%" y="-30%" width="160%" height="160%">
      <feGaussianBlur stdDeviation="72"/>
    </filter>
    <filter id="soft_achievements_08_7437" x="-20%" y="-20%" width="140%" height="140%">
      <feGaussianBlur stdDeviation="10"/>
    </filter>
    <filter id="grain_achievements_08_7437">
      <feTurbulence type="fractalNoise" baseFrequency="0.85" numOctaves="2" stitchTiles="stitch"/>
      <feColorMatrix type="saturate" values="0"/>
      <feComponentTransfer>
        <feFuncA type="table" tableValues="0 0.035"/>
      </feComponentTransfer>
    </filter>
  </defs>
  <rect width="1200" height="2600" fill="url(#bg_achievements_08_7437)"/>
  <path d="M 519.7 1071.0 C 519.7 1283.0, 606.3 1226.1, 490.0 1388.5 C 373.7 1550.8, 382.5 1421.5, 204.3 1458.3 C 26.2 1495.1, 60.7 1517.7, -96.0 1411.7 C -252.6 1305.7, -219.0 1420.2, -280.9 1221.1 C -342.7 1021.9, -344.4 1131.7, -282.5 932.5 C -220.6 733.3, -241.2 733.8, -84.5 627.8 C 72.1 521.8, 34.1 558.3, 212.2 595.1 C 390.4 631.9, 303.4 552.6, 419.6 715.0 C 535.9 877.3, 519.7 859.0, 519.7 1071.0 Z" fill="#FAFFFB" opacity="0.20" filter="url(#blur_achievements_08_7437)"/>
  <path d="M 727.2 2180.0 C 727.2 2371.7, 772.7 2300.5, 645.5 2447.4 C 518.2 2594.2, 543.6 2623.6, 348.6 2656.9 C 153.6 2690.2, 198.4 2590.9, 26.9 2495.1 C -144.6 2399.2, -8.3 2500.8, -76.0 2320.7 C -143.7 2140.6, -140.4 2229.2, -72.7 2049.1 C -5.0 1868.9, -147.1 1871.0, 24.3 1775.2 C 195.8 1679.3, 153.5 1798.9, 348.5 1832.1 C 543.5 1865.4, 468.2 1792.2, 595.4 1939.1 C 722.7 2085.9, 727.2 1988.3, 727.2 2180.0 Z" fill="#7EE56D" opacity="0.16" filter="url(#blur_achievements_08_7437)"/>
  <path d="M 818.5 296.0 C 818.5 442.7, 783.6 370.2, 660.1 482.6 C 536.6 595.0, 619.5 563.3, 430.3 588.8 C 241.1 614.2, 277.3 607.9, 110.9 534.5 C -55.5 461.2, -40.6 542.8, -106.3 405.0 C -172.0 267.1, -179.0 330.1, -113.3 192.2 C -47.6 54.4, -19.9 61.6, 146.5 -11.7 C 312.9 -85.1, 242.2 -6.6, 431.4 18.9 C 620.6 44.3, 533.7 -25.8, 657.2 86.5 C 780.7 198.9, 818.5 149.3, 818.5 296.0 Z" fill="#FAFFFB" opacity="0.19" filter="url(#blur_achievements_08_7437)"/>
  <path d="M 1120.6 436.0 C 1120.6 745.2, 1139.3 619.8, 1068.7 856.6 C 998.1 1093.4, 1026.3 1159.6, 918.2 1213.3 C 810.1 1266.9, 836.9 1227.2, 741.8 1072.7 C 646.7 918.1, 693.2 978.0, 655.7 687.5 C 618.1 397.0, 597.9 506.8, 635.5 216.3 C 673.0 -74.2, 664.3 55.6, 759.4 -99.0 C 854.5 -253.6, 811.4 -371.7, 919.5 -318.0 C 1027.7 -264.3, 993.3 -194.9, 1063.9 41.9 C 1134.4 278.7, 1120.6 126.8, 1120.6 436.0 Z" fill="#D8E8FF" opacity="0.19" filter="url(#blur_achievements_08_7437)"/>
  <path d="M 729.5 28.0 C 729.5 295.3, 726.5 205.2, 636.5 409.9 C 546.6 614.7, 587.5 525.0, 449.7 571.4 C 311.9 617.8, 359.9 722.0, 238.7 588.4 C 117.5 454.7, 207.9 492.8, 160.0 241.6 C 112.1 -9.6, 29.2 93.3, 77.1 -157.9 C 125.0 -409.1, 107.6 -394.6, 228.8 -528.3 C 350.0 -661.9, 323.0 -603.8, 460.9 -557.4 C 598.7 -510.9, 589.4 -575.5, 679.4 -370.7 C 769.4 -165.9, 729.5 -239.3, 729.5 28.0 Z" fill="#D8E8FF" opacity="0.25" filter="url(#blur_achievements_08_7437)"/>
  <path d="M 271.7 836.0 C 271.7 985.9, 235.3 906.6, 152.3 1021.4 C 69.3 1136.2, 120.7 1101.7, -6.5 1127.8 C -133.7 1153.8, -64.6 1150.2, -176.4 1075.2 C -288.3 1000.3, -254.8 1088.1, -299.0 947.3 C -343.1 806.5, -402.8 880.8, -358.6 740.0 C -314.4 599.2, -320.3 585.3, -208.5 510.4 C -96.6 435.5, -127.8 534.3, -0.6 560.3 C 126.6 586.4, 86.4 481.9, 169.4 596.7 C 252.5 711.5, 271.7 686.1, 271.7 836.0 Z" fill="#80B9FF" opacity="0.25" filter="url(#blur_achievements_08_7437)"/>
  <path d="M 1414.4 2429.0 C 1414.4 2606.8, 1390.1 2523.3, 1309.1 2659.5 C 1228.1 2795.6, 1275.1 2809.5, 1151.0 2840.3 C 1027.0 2871.2, 1058.9 2847.0, 949.7 2758.1 C 840.6 2669.3, 847.3 2722.4, 804.2 2555.4 C 761.1 2388.3, 829.4 2467.6, 872.5 2300.5 C 915.6 2133.5, 874.9 2198.6, 984.0 2109.8 C 1093.1 2020.9, 1029.8 1957.3, 1153.9 1988.2 C 1278.0 2019.0, 1205.3 2035.1, 1286.3 2171.3 C 1367.3 2307.5, 1414.4 2251.2, 1414.4 2429.0 Z" fill="#DFFFD3" opacity="0.24" filter="url(#blur_achievements_08_7437)"/>
  <path d="M 681.6 299.0 C 681.6 549.2, 751.3 453.3, 661.0 645.0 C 570.8 836.6, 597.4 785.4, 459.2 828.8 C 320.9 872.3, 361.2 968.2, 239.6 843.1 C 118.0 718.0, 106.0 710.5, 57.9 475.4 C 9.9 240.3, 24.8 344.1, 72.8 109.0 C 120.9 -126.2, 136.4 -114.9, 258.0 -240.0 C 379.6 -365.1, 314.7 -222.4, 453.0 -178.9 C 591.3 -135.5, 507.5 -253.6, 597.7 -62.0 C 688.0 129.7, 681.6 48.8, 681.6 299.0 Z" fill="#DFFFD3" opacity="0.23" filter="url(#blur_achievements_08_7437)"/>
  <path d="M 244.6 278.0 C 244.6 501.2, 292.1 450.5, 156.4 621.5 C 20.8 792.5, 121.4 742.3, -86.5 781.1 C -294.3 819.9, -243.6 863.1, -426.4 751.5 C -609.2 639.9, -515.8 638.8, -588.0 429.0 C -660.1 219.3, -739.5 305.0, -667.4 95.2 C -595.2 -114.5, -605.8 -61.6, -423.0 -173.2 C -240.3 -284.8, -315.6 -214.1, -107.7 -175.3 C 100.1 -136.6, -12.6 -218.1, 123.0 -47.1 C 258.7 123.9, 244.6 54.8, 244.6 278.0 Z" fill="#38D5C7" opacity="0.24" filter="url(#blur_achievements_08_7437)"/>
  <path d="M 263.0 1336.0 C 263.0 1554.2, 216.1 1515.3, 149.0 1682.5 C 81.9 1849.7, 130.9 1806.7, 28.1 1844.6 C -74.7 1882.5, -28.9 1810.8, -119.3 1701.6 C -209.7 1592.5, -193.0 1727.9, -228.7 1522.9 C -264.4 1317.8, -232.9 1392.6, -197.2 1187.5 C -161.5 982.4, -226.8 1061.3, -136.4 952.2 C -46.0 843.0, -70.8 810.0, 32.0 847.9 C 134.8 885.8, 87.8 814.7, 154.9 981.9 C 222.0 1149.1, 263.0 1117.8, 263.0 1336.0 Z" fill="#80B9FF" opacity="0.24" filter="url(#blur_achievements_08_7437)"/>
  <path d="M 164.0 2525.0 C 164.0 2684.8, 230.1 2632.5, 163.3 2754.8 C 96.5 2877.2, 102.1 2826.5, -0.2 2854.2 C -102.6 2882.0, -58.3 2892.8, -148.3 2812.9 C -238.3 2733.0, -234.7 2805.3, -270.2 2655.2 C -305.8 2505.0, -279.1 2546.4, -243.5 2396.3 C -208.0 2246.2, -244.7 2266.3, -154.7 2186.4 C -64.7 2106.6, -105.3 2106.6, -2.9 2134.3 C 99.4 2162.1, 64.8 2143.6, 131.6 2266.0 C 198.4 2388.4, 164.0 2365.2, 164.0 2525.0 Z" fill="#80B9FF" opacity="0.23" filter="url(#blur_achievements_08_7437)"/>
  <path d="M 788.7 2689.0 C 788.7 2880.2, 875.5 2840.6, 761.8 2987.1 C 648.1 3133.7, 655.2 3107.0, 481.1 3140.2 C 306.9 3173.5, 381.2 3147.7, 228.0 3052.1 C 74.9 2956.5, 111.3 3013.0, 50.9 2833.3 C -9.6 2653.6, -62.2 2707.2, -1.8 2527.5 C 58.7 2347.8, 30.4 2469.4, 183.5 2373.8 C 336.7 2278.2, 301.7 2216.1, 475.8 2249.3 C 650.0 2282.5, 644.2 2286.4, 757.9 2432.9 C 871.5 2579.4, 788.7 2497.8, 788.7 2689.0 Z" fill="#DFFFD3" opacity="0.34" filter="url(#blur_achievements_08_7437)"/>
  <path d="M 1386.1 2697.0 C 1386.1 2851.3, 1463.4 2767.9, 1344.9 2892.8 C 1226.4 3017.7, 1328.9 2976.4, 1137.1 3024.1 C 945.4 3071.8, 1040.9 3109.3, 849.2 3061.6 C 657.4 3013.9, 736.1 3009.2, 617.6 2884.3 C 499.1 2759.5, 492.1 2851.3, 492.1 2697.0 C 492.1 2542.7, 499.2 2610.0, 617.7 2485.1 C 736.2 2360.2, 655.6 2381.6, 847.3 2333.9 C 1039.1 2286.2, 950.0 2327.7, 1141.7 2375.4 C 1333.4 2423.1, 1271.1 2355.3, 1389.6 2480.2 C 1508.1 2605.1, 1386.1 2542.7, 1386.1 2697.0 Z" fill="#80B9FF" opacity="0.12" stroke="#80B9FF" stroke-opacity="0.46" stroke-width="3" filter="url(#soft_achievements_08_7437)"/>
  <path d="M 1386.1 2697.0 C 1386.1 2851.3, 1463.4 2767.9, 1344.9 2892.8 C 1226.4 3017.7, 1328.9 2976.4, 1137.1 3024.1 C 945.4 3071.8, 1040.9 3109.3, 849.2 3061.6 C 657.4 3013.9, 736.1 3009.2, 617.6 2884.3 C 499.1 2759.5, 492.1 2851.3, 492.1 2697.0 C 492.1 2542.7, 499.2 2610.0, 617.7 2485.1 C 736.2 2360.2, 655.6 2381.6, 847.3 2333.9 C 1039.1 2286.2, 950.0 2327.7, 1141.7 2375.4 C 1333.4 2423.1, 1271.1 2355.3, 1389.6 2480.2 C 1508.1 2605.1, 1386.1 2542.7, 1386.1 2697.0 Z" fill="none" stroke="#FFFFFF" stroke-opacity="0.22" stroke-width="1.2"/>
  <path d="M 402.1 2217.0 C 402.1 2427.6, 511.6 2314.0, 411.1 2484.4 C 310.5 2654.8, 331.9 2639.1, 169.3 2704.2 C 6.6 2769.3, 104.4 2725.7, -58.2 2660.6 C -220.8 2595.5, -141.9 2662.9, -242.4 2492.5 C -342.9 2322.1, -311.6 2427.6, -311.6 2217.0 C -311.6 2006.4, -301.5 2092.2, -201.0 1921.8 C -100.5 1751.4, -196.0 1839.3, -33.4 1774.2 C 129.2 1709.2, 8.5 1667.0, 171.2 1732.0 C 333.8 1797.1, 244.0 1779.9, 344.5 1950.2 C 445.1 2120.6, 402.1 2006.4, 402.1 2217.0 Z" fill="#C9FFF2" opacity="0.12" stroke="#FFFFFF" stroke-opacity="0.46" stroke-width="3" filter="url(#soft_achievements_08_7437)"/>
  <path d="M 402.1 2217.0 C 402.1 2427.6, 511.6 2314.0, 411.1 2484.4 C 310.5 2654.8, 331.9 2639.1, 169.3 2704.2 C 6.6 2769.3, 104.4 2725.7, -58.2 2660.6 C -220.8 2595.5, -141.9 2662.9, -242.4 2492.5 C -342.9 2322.1, -311.6 2427.6, -311.6 2217.0 C -311.6 2006.4, -301.5 2092.2, -201.0 1921.8 C -100.5 1751.4, -196.0 1839.3, -33.4 1774.2 C 129.2 1709.2, 8.5 1667.0, 171.2 1732.0 C 333.8 1797.1, 244.0 1779.9, 344.5 1950.2 C 445.1 2120.6, 402.1 2006.4, 402.1 2217.0 Z" fill="none" stroke="#FFFFFF" stroke-opacity="0.22" stroke-width="1.2"/>
  <path d="M 919.8 327.0 C 919.8 497.6, 876.9 438.4, 789.9 576.4 C 702.8 714.4, 802.8 594.3, 662.0 647.0 C 521.2 699.7, 597.8 738.4, 457.0 685.7 C 316.2 633.0, 367.6 678.6, 280.6 540.6 C 193.6 402.6, 221.8 497.6, 221.8 327.0 C 221.8 156.5, 165.9 250.0, 253.0 112.0 C 340.0 -25.9, 316.7 46.0, 457.5 -6.7 C 598.3 -59.4, 524.2 -100.1, 665.0 -47.4 C 805.8 5.3, 735.2 -60.9, 822.2 77.0 C 909.2 215.0, 919.8 156.4, 919.8 327.0 Z" fill="#FAFFFB" opacity="0.12" stroke="#FFFFFF" stroke-opacity="0.46" stroke-width="3" filter="url(#soft_achievements_08_7437)"/>
  <path d="M 919.8 327.0 C 919.8 497.6, 876.9 438.4, 789.9 576.4 C 702.8 714.4, 802.8 594.3, 662.0 647.0 C 521.2 699.7, 597.8 738.4, 457.0 685.7 C 316.2 633.0, 367.6 678.6, 280.6 540.6 C 193.6 402.6, 221.8 497.6, 221.8 327.0 C 221.8 156.5, 165.9 250.0, 253.0 112.0 C 340.0 -25.9, 316.7 46.0, 457.5 -6.7 C 598.3 -59.4, 524.2 -100.1, 665.0 -47.4 C 805.8 5.3, 735.2 -60.9, 822.2 77.0 C 909.2 215.0, 919.8 156.4, 919.8 327.0 Z" fill="none" stroke="#FFFFFF" stroke-opacity="0.22" stroke-width="1.2"/>
  <path d="M 1550.1 -149.0 C 1550.1 139.4, 1706.4 3.6, 1532.6 237.0 C 1358.8 470.3, 1431.8 369.7, 1150.6 458.9 C 869.4 548.0, 1058.8 491.5, 777.6 402.3 C 496.4 313.2, 665.9 479.2, 492.1 245.9 C 318.4 12.5, 215.2 139.5, 215.2 -149.0 C 215.2 -437.4, 183.7 -341.0, 357.5 -574.4 C 531.3 -807.7, 490.0 -639.5, 771.2 -728.6 C 1052.4 -817.7, 869.6 -854.5, 1150.8 -765.4 C 1432.0 -676.3, 1352.5 -777.0, 1526.2 -543.6 C 1700.0 -310.3, 1550.1 -437.4, 1550.1 -149.0 Z" fill="#A7F3EF" opacity="0.12" stroke="#FFFFFF" stroke-opacity="0.46" stroke-width="3" filter="url(#soft_achievements_08_7437)"/>
  <path d="M 1550.1 -149.0 C 1550.1 139.4, 1706.4 3.6, 1532.6 237.0 C 1358.8 470.3, 1431.8 369.7, 1150.6 458.9 C 869.4 548.0, 1058.8 491.5, 777.6 402.3 C 496.4 313.2, 665.9 479.2, 492.1 245.9 C 318.4 12.5, 215.2 139.5, 215.2 -149.0 C 215.2 -437.4, 183.7 -341.0, 357.5 -574.4 C 531.3 -807.7, 490.0 -639.5, 771.2 -728.6 C 1052.4 -817.7, 869.6 -854.5, 1150.8 -765.4 C 1432.0 -676.3, 1352.5 -777.0, 1526.2 -543.6 C 1700.0 -310.3, 1550.1 -437.4, 1550.1 -149.0 Z" fill="none" stroke="#FFFFFF" stroke-opacity="0.22" stroke-width="1.2"/>
  <path d="M -100.0 531.2 Q 133.3 804.4, 366.7 973.9 Q 600.0 1139.6, 833.3 1232.7 Q 1066.7 1107.9, 1300.0 814.5" fill="none" stroke="#FFFFFF" stroke-opacity="0.38" stroke-width="4" filter="url(#soft_achievements_08_7437)"/>
  <path d="M -100.0 531.2 Q 133.3 804.4, 366.7 973.9 Q 600.0 1139.6, 833.3 1232.7 Q 1066.7 1107.9, 1300.0 814.5" fill="none" stroke="#7EE56D" stroke-opacity="0.18" stroke-width="2"/>
  <path d="M -100.0 2442.7 Q 133.3 2212.4, 366.7 2503.5 Q 600.0 2803.8, 833.3 2380.1 Q 1066.7 2242.5, 1300.0 2507.3" fill="none" stroke="#FFFFFF" stroke-opacity="0.38" stroke-width="4" filter="url(#soft_achievements_08_7437)"/>
  <path d="M -100.0 2442.7 Q 133.3 2212.4, 366.7 2503.5 Q 600.0 2803.8, 833.3 2380.1 Q 1066.7 2242.5, 1300.0 2507.3" fill="none" stroke="#80B9FF" stroke-opacity="0.18" stroke-width="2"/>
  <path d="M -100.0 383.6 Q 133.3 640.4, 366.7 878.2 Q 600.0 617.5, 833.3 411.5 Q 1066.7 470.3, 1300.0 743.8" fill="none" stroke="#FFFFFF" stroke-opacity="0.38" stroke-width="4" filter="url(#soft_achievements_08_7437)"/>
  <path d="M -100.0 383.6 Q 133.3 640.4, 366.7 878.2 Q 600.0 617.5, 833.3 411.5 Q 1066.7 470.3, 1300.0 743.8" fill="none" stroke="#80B9FF" stroke-opacity="0.18" stroke-width="2"/>
  <path d="M -100.0 1087.7 Q 133.3 921.8, 366.7 776.0 Q 600.0 750.1, 833.3 823.9 Q 1066.7 939.0, 1300.0 966.1" fill="none" stroke="#FFFFFF" stroke-opacity="0.38" stroke-width="4" filter="url(#soft_achievements_08_7437)"/>
  <path d="M -100.0 1087.7 Q 133.3 921.8, 366.7 776.0 Q 600.0 750.1, 833.3 823.9 Q 1066.7 939.0, 1300.0 966.1" fill="none" stroke="#80B9FF" stroke-opacity="0.18" stroke-width="2"/>
  <path d="M -100.0 18.8 Q 133.3 -13.5, 366.7 301.9 Q 600.0 555.1, 833.3 510.8 Q 1066.7 73.5, 1300.0 -80.6" fill="none" stroke="#FFFFFF" stroke-opacity="0.38" stroke-width="4" filter="url(#soft_achievements_08_7437)"/>
  <path d="M -100.0 18.8 Q 133.3 -13.5, 366.7 301.9 Q 600.0 555.1, 833.3 510.8 Q 1066.7 73.5, 1300.0 -80.6" fill="none" stroke="#7EE56D" stroke-opacity="0.18" stroke-width="2"/>
  <path d="M -100.0 1595.9 Q 133.3 1586.2, 366.7 1766.1 Q 600.0 1963.2, 833.3 2220.3 Q 1066.7 2156.4, 1300.0 1986.6" fill="none" stroke="#FFFFFF" stroke-opacity="0.38" stroke-width="4" filter="url(#soft_achievements_08_7437)"/>
  <path d="M -100.0 1595.9 Q 133.3 1586.2, 366.7 1766.1 Q 600.0 1963.2, 833.3 2220.3 Q 1066.7 2156.4, 1300.0 1986.6" fill="none" stroke="#38D5C7" stroke-opacity="0.18" stroke-width="2"/>
  <circle cx="95" cy="1080" r="247" fill="url(#orb_achievements_08_7437)" opacity="0.36"/>
  <circle cx="95" cy="1080" r="247" fill="#38D5C7" opacity="0.08"/>
  <circle cx="95" cy="1080" r="247" fill="none" stroke="#FFFFFF" stroke-opacity="0.56" stroke-width="3"/>
  <ellipse cx="25.8" cy="991.1" rx="44.5" ry="19.8" fill="#FFFFFF" opacity="0.42" transform="rotate(-22 25.8 991.1)"/>
  <circle cx="442" cy="1898" r="289" fill="url(#orb_achievements_08_7437)" opacity="0.36"/>
  <circle cx="442" cy="1898" r="289" fill="#7EE56D" opacity="0.08"/>
  <circle cx="442" cy="1898" r="289" fill="none" stroke="#FFFFFF" stroke-opacity="0.56" stroke-width="3"/>
  <ellipse cx="361.1" cy="1794.0" rx="52.0" ry="23.1" fill="#FFFFFF" opacity="0.42" transform="rotate(-22 361.1 1794.0)"/>
  <circle cx="80" cy="2216" r="273" fill="url(#orb_achievements_08_7437)" opacity="0.36"/>
  <circle cx="80" cy="2216" r="273" fill="#FAFFFB" opacity="0.08"/>
  <circle cx="80" cy="2216" r="273" fill="none" stroke="#FFFFFF" stroke-opacity="0.56" stroke-width="3"/>
  <ellipse cx="3.6" cy="2117.7" rx="49.1" ry="21.8" fill="#FFFFFF" opacity="0.42" transform="rotate(-22 3.6 2117.7)"/>
  <circle cx="120" cy="-94" r="225" fill="url(#orb_achievements_08_7437)" opacity="0.21"/>
  <circle cx="120" cy="-94" r="225" fill="#C9FFF2" opacity="0.08"/>
  <circle cx="120" cy="-94" r="225" fill="none" stroke="#FFFFFF" stroke-opacity="0.56" stroke-width="3"/>
  <ellipse cx="57.0" cy="-175.0" rx="40.5" ry="18.0" fill="#FFFFFF" opacity="0.42" transform="rotate(-22 57.0 -175.0)"/>
  <circle cx="1065" cy="277" r="125" fill="url(#orb_achievements_08_7437)" opacity="0.27"/>
  <circle cx="1065" cy="277" r="125" fill="#D8E8FF" opacity="0.08"/>
  <circle cx="1065" cy="277" r="125" fill="none" stroke="#FFFFFF" stroke-opacity="0.56" stroke-width="3"/>
  <ellipse cx="1030.0" cy="232.0" rx="22.5" ry="10.0" fill="#FFFFFF" opacity="0.42" transform="rotate(-22 1030.0 232.0)"/>
  <circle cx="886" cy="2267" r="104" fill="url(#orb_achievements_08_7437)" opacity="0.17"/>
  <circle cx="886" cy="2267" r="104" fill="#DFFFD3" opacity="0.08"/>
  <circle cx="886" cy="2267" r="104" fill="none" stroke="#FFFFFF" stroke-opacity="0.56" stroke-width="3"/>
  <ellipse cx="856.9" cy="2229.6" rx="18.7" ry="8.3" fill="#FFFFFF" opacity="0.42" transform="rotate(-22 856.9 2229.6)"/>
  <circle cx="229" cy="655" r="192" fill="url(#orb_achievements_08_7437)" opacity="0.18"/>
  <circle cx="229" cy="655" r="192" fill="#A7F3EF" opacity="0.08"/>
  <circle cx="229" cy="655" r="192" fill="none" stroke="#FFFFFF" stroke-opacity="0.56" stroke-width="3"/>
  <ellipse cx="175.2" cy="585.9" rx="34.6" ry="15.4" fill="#FFFFFF" opacity="0.42" transform="rotate(-22 175.2 585.9)"/>
  <circle cx="3" cy="-9" r="166" fill="url(#orb_achievements_08_7437)" opacity="0.20"/>
  <circle cx="3" cy="-9" r="166" fill="#C9FFF2" opacity="0.08"/>
  <circle cx="3" cy="-9" r="166" fill="none" stroke="#FFFFFF" stroke-opacity="0.56" stroke-width="3"/>
  <ellipse cx="-43.5" cy="-68.8" rx="29.9" ry="13.3" fill="#FFFFFF" opacity="0.42" transform="rotate(-22 -43.5 -68.8)"/>
  <circle cx="1227" cy="-68" r="288" fill="url(#orb_achievements_08_7437)" opacity="0.21"/>
  <circle cx="1227" cy="-68" r="288" fill="#7EE56D" opacity="0.08"/>
  <circle cx="1227" cy="-68" r="288" fill="none" stroke="#FFFFFF" stroke-opacity="0.56" stroke-width="3"/>
  <ellipse cx="1146.4" cy="-171.7" rx="51.8" ry="23.0" fill="#FFFFFF" opacity="0.42" transform="rotate(-22 1146.4 -171.7)"/>
  <circle cx="599" cy="255" r="130" fill="url(#orb_achievements_08_7437)" opacity="0.21"/>
  <circle cx="599" cy="255" r="130" fill="#A7F3EF" opacity="0.08"/>
  <circle cx="599" cy="255" r="130" fill="none" stroke="#FFFFFF" stroke-opacity="0.56" stroke-width="3"/>
  <ellipse cx="562.6" cy="208.2" rx="23.4" ry="10.4" fill="#FFFFFF" opacity="0.42" transform="rotate(-22 562.6 208.2)"/>
  <circle cx="879" cy="1115" r="226" fill="url(#orb_achievements_08_7437)" opacity="0.16"/>
  <circle cx="879" cy="1115" r="226" fill="#DFFFD3" opacity="0.08"/>
  <circle cx="879" cy="1115" r="226" fill="none" stroke="#FFFFFF" stroke-opacity="0.56" stroke-width="3"/>
  <ellipse cx="815.7" cy="1033.6" rx="40.7" ry="18.1" fill="#FFFFFF" opacity="0.42" transform="rotate(-22 815.7 1033.6)"/>
  <circle cx="36" cy="2207" r="5" fill="#FFFFFF" opacity="0.51"/>
  <circle cx="1017" cy="1948" r="2" fill="#FFFFFF" opacity="0.68"/>
  <circle cx="606" cy="236" r="2" fill="#FFFFFF" opacity="0.30"/>
  <circle cx="376" cy="2142" r="3" fill="#FFFFFF" opacity="0.50"/>
  <circle cx="677" cy="65" r="5" fill="#FFFFFF" opacity="0.69"/>
  <circle cx="29" cy="727" r="5" fill="#FFFFFF" opacity="0.37"/>
  <circle cx="438" cy="2355" r="3" fill="#FFFFFF" opacity="0.34"/>
  <circle cx="387" cy="2080" r="4" fill="#FFFFFF" opacity="0.36"/>
  <circle cx="922" cy="403" r="7" fill="#FFFFFF" opacity="0.31"/>
  <circle cx="239" cy="926" r="4" fill="#FFFFFF" opacity="0.59"/>
  <circle cx="960" cy="512" r="5" fill="#FFFFFF" opacity="0.36"/>
  <circle cx="40" cy="1384" r="5" fill="#FFFFFF" opacity="0.35"/>
  <circle cx="348" cy="430" r="2" fill="#FFFFFF" opacity="0.71"/>
  <circle cx="74" cy="1282" r="3" fill="#FFFFFF" opacity="0.51"/>
  <circle cx="130" cy="1145" r="2" fill="#FFFFFF" opacity="0.38"/>
  <circle cx="317" cy="965" r="3" fill="#FFFFFF" opacity="0.41"/>
  <circle cx="415" cy="2292" r="5" fill="#FFFFFF" opacity="0.51"/>
  <circle cx="659" cy="734" r="3" fill="#FFFFFF" opacity="0.34"/>
  <circle cx="1019" cy="1283" r="3" fill="#FFFFFF" opacity="0.65"/>
  <circle cx="751" cy="512" r="5" fill="#FFFFFF" opacity="0.53"/>
  <circle cx="948" cy="1106" r="5" fill="#FFFFFF" opacity="0.67"/>
  <rect width="1200" height="2600" fill="#FFFFFF" opacity="0.08"/>
  <rect width="1200" height="2600" filter="url(#grain_achievements_08_7437)" opacity="0.7"/>
</svg>
