<svg xmlns="http://www.w3.org/2000/svg" width="1200" height="2600" viewBox="0 0 1200 2600" preserveAspectRatio="xMidYMid slice">
  <defs>
    <linearGradient id="bg_achievements_03_6171" x1="0" y1="0" x2="1" y2="1">
      <stop offset="0%" stop-color="#DFFFD3"/>
      <stop offset="48%" stop-color="#FAFFFB"/>
      <stop offset="100%" stop-color="#D8E8FF"/>
    </linearGradient>
    <radialGradient id="orb_achievements_03_6171" cx="35%" cy="30%" r="70%">
      <stop offset="0%" stop-color="#FFFFFF" stop-opacity="0.85"/>
      <stop offset="42%" stop-color="#FFFFFF" stop-opacity="0.20"/>
      <stop offset="100%" stop-color="#FFFFFF" stop-opacity="0.02"/>
    </radialGradient>
    <filter id="blur_achievements_03_6171" x="-30%" y="-30%" width="160%" height="160%">
      <feGaussianBlur stdDeviation="72"/>
    </filter>
    <filter id="soft_achievements_03_6171" x="-20%" y="-20%" width="140%" height="140%">
      <feGaussianBlur stdDeviation="10"/>
    </filter>
    <filter id="grain_achievements_03_6171">
      <feTurbulence type="fractalNoise" baseFrequency="0.85" numOctaves="2" stitchTiles="stitch"/>
      <feColorMatrix type="saturate" values="0"/>
      <feComponentTransfer>
        <feFuncA type="table" tableValues="0 0.035"/>
      </feComponentTransfer>
    </filter>
  </defs>
  <rect width="1200" height="2600" fill="url(#bg_achievements_03_6171)"/>
  <path d="M 930.6 2179.0 C 930.6 2368.4, 1053.8 2324.9, 921.6 2470.0 C 789.4 2615.2, 809.4 2530.6, 606.9 2563.5 C 404.4 2596.4, 437.9 2617.8, 259.8 2523.1 C 81.7 2428.4, 153.5 2496.1, 83.1 2318.0 C 12.8 2140.0, -35.5 2200.5, 34.9 2022.4 C 105.2 1844.4, 71.1 1970.9, 249.2 1876.1 C 427.3 1781.4, 401.8 1761.0, 604.3 1793.9 C 806.9 1826.8, 693.1 1777.2, 825.3 1922.4 C 957.5 2067.5, 930.6 1989.5, 930.6 2179.0 Z" fill="#7EE56D" opacity="0.20" filter="url(#blur_achievements_03_6171)"/>
  <path d="M 1487.4 2859.0 C 1487.4 3169.5, 1560.7 3135.3, 1427.1 3373.2 C 1293.5 3611.1, 1344.3 3494.4, 1139.5 3548.3 C 934.8 3602.3, 1011.8 3518.7, 831.8 3363.4 C 651.7 3208.2, 718.4 3401.9, 647.3 3110.1 C 576.2 2818.3, 496.3 2916.4, 567.4 2624.6 C 638.6 2332.8, 646.6 2426.4, 826.6 2271.1 C 1006.7 2115.9, 916.9 2152.5, 1121.6 2206.4 C 1326.4 2260.3, 1244.4 2229.3, 1378.0 2467.2 C 1511.7 2705.0, 1487.4 2548.5, 1487.4 2859.0 Z" fill="#FAFFFB" opacity="0.30" filter="url(#blur_achievements_03_6171)"/>
  <path d="M 233.9 2581.0 C 233.9 2751.1, 212.1 2707.6, 108.9 2837.9 C 5.6 2968.2, 60.1 2907.9, -98.1 2937.4 C -256.3 2966.9, -197.7 3005.4, -336.9 2920.3 C -476.0 2835.3, -508.0 2884.0, -562.9 2724.1 C -617.9 2564.3, -527.5 2617.0, -472.6 2457.2 C -417.6 2297.4, -503.5 2332.8, -364.4 2247.7 C -225.3 2162.7, -273.4 2151.3, -115.2 2180.8 C 43.0 2210.3, 35.2 2214.1, 138.5 2344.4 C 241.8 2474.7, 233.9 2410.9, 233.9 2581.0 Z" fill="#7EE56D" opacity="0.24" filter="url(#blur_achievements_03_6171)"/>
  <path d="M 1018.8 567.0 C 1018.8 851.0, 1022.8 784.4, 903.3 1002.0 C 783.9 1219.5, 882.7 1228.0, 699.7 1277.3 C 516.7 1326.6, 578.5 1181.7, 417.6 1039.7 C 256.6 897.7, 272.3 1059.4, 208.8 792.6 C 145.2 525.8, 171.4 595.1, 234.9 328.2 C 298.5 61.4, 235.8 260.8, 396.7 118.8 C 557.7 -23.2, 520.5 -127.7, 703.6 -78.4 C 886.6 -29.1, 791.8 -109.4, 911.2 108.1 C 1030.7 325.6, 1018.8 283.1, 1018.8 567.0 Z" fill="#7EE56D" opacity="0.21" filter="url(#blur_achievements_03_6171)"/>
  <path d="M 1751.9 2441.0 C 1751.9 2633.2, 1853.7 2565.8, 1727.8 2713.0 C 1602.0 2860.2, 1630.1 2866.4, 1437.3 2899.8 C 1244.6 2933.1, 1285.9 2907.5, 1116.4 2811.5 C 946.8 2715.4, 970.0 2787.5, 903.0 2607.0 C 836.1 2426.4, 919.3 2465.7, 986.2 2285.1 C 1053.2 2104.5, 975.8 2201.1, 1145.3 2105.0 C 1314.8 2009.0, 1238.1 1954.7, 1430.9 1988.1 C 1623.6 2021.4, 1534.1 2026.7, 1659.9 2173.9 C 1785.8 2321.1, 1751.9 2248.8, 1751.9 2441.0 Z" fill="#C9FFF2" opacity="0.36" filter="url(#blur_achievements_03_6171)"/>
  <path d="M 716.5 222.0 C 716.5 345.3, 819.9 280.7, 658.2 375.2 C 496.5 469.6, 534.0 458.7, 286.3 480.1 C 38.5 501.5, 152.4 535.4, -65.5 473.7 C -283.3 412.1, -335.6 445.7, -421.6 329.8 C -507.6 214.0, -492.5 243.9, -406.5 128.0 C -320.4 12.2, -318.1 49.0, -100.3 -12.6 C 117.6 -74.3, 23.4 -41.8, 271.1 -20.4 C 518.8 1.0, 516.5 -28.6, 678.1 65.9 C 839.8 160.3, 716.5 98.7, 716.5 222.0 Z" fill="#DFFFD3" opacity="0.37" filter="url(#blur_achievements_03_6171)"/>
  <path d="M 1516.8 2366.0 C 1516.8 2597.3, 1593.0 2486.9, 1504.7 2664.1 C 1416.5 2841.3, 1423.8 2878.0, 1288.6 2918.2 C 1153.4 2958.3, 1236.8 2936.8, 1117.9 2821.1 C 999.1 2705.5, 1018.1 2730.5, 971.2 2513.1 C 924.2 2295.8, 899.0 2387.3, 946.0 2170.0 C 992.9 1952.6, 958.0 2109.3, 1076.9 1993.7 C 1195.8 1878.0, 1163.9 1899.9, 1299.1 1940.1 C 1434.2 1980.3, 1374.4 1866.6, 1462.6 2043.8 C 1550.9 2221.0, 1516.8 2134.7, 1516.8 2366.0 Z" fill="#38D5C7" opacity="0.38" filter="url(#blur_achievements_03_6171)"/>
  <path d="M 1150.2 1977.0 C 1150.2 2134.5, 1122.4 2080.0, 993.7 2200.7 C 865.0 2321.3, 928.9 2280.4, 731.7 2307.7 C 534.5 2335.0, 633.3 2351.8, 459.9 2273.0 C 286.5 2194.3, 240.9 2237.3, 172.4 2089.3 C 103.9 1941.3, 113.0 2018.1, 181.5 1870.1 C 250.0 1722.1, 287.5 1774.7, 460.9 1695.9 C 634.3 1617.2, 526.6 1596.9, 723.8 1624.2 C 921.0 1651.5, 881.2 1654.8, 1009.9 1775.5 C 1138.6 1896.1, 1150.2 1819.5, 1150.2 1977.0 Z" fill="#7EE56D" opacity="0.23" filter="url(#blur_achievements_03_6171)"/>
  <path d="M 907.4 134.0 C 907.4 296.9, 1040.4 214.6, 925.8 339.4 C 811.3 464.2, 818.1 522.8, 642.6 551.0 C 467.1 579.3, 518.5 487.7, 364.2 406.2 C 209.9 324.8, 280.4 403.6, 219.4 250.5 C 158.5 97.4, 136.6 165.5, 197.6 12.4 C 258.5 -140.7, 226.9 -125.6, 381.2 -207.0 C 535.6 -288.5, 471.4 -211.0, 646.9 -182.7 C 822.4 -154.5, 795.3 -230.7, 909.9 -105.9 C 1024.4 18.8, 907.4 -28.9, 907.4 134.0 Z" fill="#D8E8FF" opacity="0.28" filter="url(#blur_achievements_03_6171)"/>
  <path d="M 1248.9 1345.0 C 1248.9 1496.2, 1247.1 1432.7, 1090.6 1548.5 C 934.1 1664.4, 1047.0 1667.5, 807.3 1693.7 C 567.5 1720.0, 714.0 1662.8, 503.1 1587.2 C 292.3 1511.6, 222.2 1588.1, 138.9 1446.0 C 55.7 1303.9, 209.1 1363.6, 292.3 1221.6 C 375.6 1079.5, 244.6 1127.5, 455.4 1051.9 C 666.2 976.3, 569.2 1019.0, 808.9 1045.2 C 1048.7 1071.5, 1058.6 992.5, 1215.1 1108.3 C 1371.5 1224.1, 1248.9 1193.8, 1248.9 1345.0 Z" fill="#D8E8FF" opacity="0.22" filter="url(#blur_achievements_03_6171)"/>
  <path d="M 862.5 508.0 C 862.5 650.2, 974.7 636.6, 871.1 745.5 C 767.6 854.5, 785.9 839.6, 627.2 864.3 C 468.6 889.0, 497.9 885.4, 358.4 814.3 C 218.9 743.2, 237.9 734.7, 182.8 601.1 C 127.7 467.5, 167.8 518.4, 222.9 384.8 C 278.0 251.1, 264.8 321.4, 404.3 250.3 C 543.9 179.2, 471.4 138.9, 630.1 163.5 C 788.7 188.2, 741.3 172.9, 844.9 281.9 C 948.5 390.8, 862.5 365.8, 862.5 508.0 Z" fill="#80B9FF" opacity="0.34" filter="url(#blur_achievements_03_6171)"/>
  <path d="M 885.3 204.0 C 885.3 460.5, 994.4 298.3, 832.8 505.8 C 671.2 713.3, 769.4 716.4, 507.9 795.7 C 246.4 874.9, 399.0 858.7, 137.5 779.4 C -124.0 700.2, -37.9 723.0, -199.5 515.5 C -361.1 308.0, -287.2 460.5, -287.2 204.0 C -287.2 -52.5, -345.0 72.2, -183.4 -135.3 C -21.8 -342.8, -104.5 -264.2, 157.0 -343.4 C 418.5 -422.7, 243.2 -467.0, 504.7 -387.7 C 766.2 -308.5, 655.0 -342.2, 816.6 -134.7 C 978.3 72.8, 885.3 -52.5, 885.3 204.0 Z" fill="#D8E8FF" opacity="0.12" stroke="#D8E8FF" stroke-opacity="0.46" stroke-width="3" filter="url(#soft_achievements_03_6171)"/>
  <path d="M 885.3 204.0 C 885.3 460.5, 994.4 298.3, 832.8 505.8 C 671.2 713.3, 769.4 716.4, 507.9 795.7 C 246.4 874.9, 399.0 858.7, 137.5 779.4 C -124.0 700.2, -37.9 723.0, -199.5 515.5 C -361.1 308.0, -287.2 460.5, -287.2 204.0 C -287.2 -52.5, -345.0 72.2, -183.4 -135.3 C -21.8 -342.8, -104.5 -264.2, 157.0 -343.4 C 418.5 -422.7, 243.2 -467.0, 504.7 -387.7 C 766.2 -308.5, 655.0 -342.2, 816.6 -134.7 C 978.3 72.8, 885.3 -52.5, 885.3 204.0 Z" fill="none" stroke="#FFFFFF" stroke-opacity="0.22" stroke-width="1.2"/>
  <path d="M 846.9 2870.0 C 846.9 3058.1, 871.5 2959.5, 717.9 3111.7 C 564.2 3263.9, 684.7 3254.2, 436.1 3312.3 C 187.4 3370.4, 349.8 3280.6, 101.2 3222.5 C -147.5 3164.3, -115.8 3247.9, -269.5 3095.7 C -423.2 2943.5, -401.1 3058.1, -401.1 2870.0 C -401.1 2681.9, -311.5 2759.5, -157.9 2607.3 C -4.2 2455.1, -168.1 2562.7, 80.6 2504.6 C 329.2 2446.5, 173.2 2365.2, 421.9 2423.3 C 670.5 2481.4, 515.3 2451.4, 669.0 2603.6 C 822.7 2755.8, 846.9 2681.9, 846.9 2870.0 Z" fill="#DFFFD3" opacity="0.12" stroke="#DFFFD3" stroke-opacity="0.46" stroke-width="3" filter="url(#soft_achievements_03_6171)"/>
  <path d="M 846.9 2870.0 C 846.9 3058.1, 871.5 2959.5, 717.9 3111.7 C 564.2 3263.9, 684.7 3254.2, 436.1 3312.3 C 187.4 3370.4, 349.8 3280.6, 101.2 3222.5 C -147.5 3164.3, -115.8 3247.9, -269.5 3095.7 C -423.2 2943.5, -401.1 3058.1, -401.1 2870.0 C -401.1 2681.9, -311.5 2759.5, -157.9 2607.3 C -4.2 2455.1, -168.1 2562.7, 80.6 2504.6 C 329.2 2446.5, 173.2 2365.2, 421.9 2423.3 C 670.5 2481.4, 515.3 2451.4, 669.0 2603.6 C 822.7 2755.8, 846.9 2681.9, 846.9 2870.0 Z" fill="none" stroke="#FFFFFF" stroke-opacity="0.22" stroke-width="1.2"/>
  <path d="M 943.0 848.0 C 943.0 1096.4, 1037.4 930.9, 935.3 1131.9 C 833.2 1332.8, 868.0 1320.7, 702.9 1397.5 C 537.7 1474.2, 629.8 1460.5, 464.6 1383.7 C 299.4 1307.0, 385.0 1369.5, 282.9 1168.6 C 180.8 967.6, 182.2 1096.4, 182.2 848.0 C 182.2 599.6, 158.8 724.0, 260.9 523.1 C 363.0 322.1, 306.7 395.4, 471.9 318.6 C 637.1 241.9, 541.5 222.6, 706.7 299.4 C 871.9 376.2, 769.6 345.9, 871.7 546.8 C 973.8 747.8, 943.0 599.6, 943.0 848.0 Z" fill="#80B9FF" opacity="0.12" stroke="#FFFFFF" stroke-opacity="0.46" stroke-width="3" filter="url(#soft_achievements_03_6171)"/>
  <path d="M 943.0 848.0 C 943.0 1096.4, 1037.4 930.9, 935.3 1131.9 C 833.2 1332.8, 868.0 1320.7, 702.9 1397.5 C 537.7 1474.2, 629.8 1460.5, 464.6 1383.7 C 299.4 1307.0, 385.0 1369.5, 282.9 1168.6 C 180.8 967.6, 182.2 1096.4, 182.2 848.0 C 182.2 599.6, 158.8 724.0, 260.9 523.1 C 363.0 322.1, 306.7 395.4, 471.9 318.6 C 637.1 241.9, 541.5 222.6, 706.7 299.4 C 871.9 376.2, 769.6 345.9, 871.7 546.8 C 973.8 747.8, 943.0 599.6, 943.0 848.0 Z" fill="none" stroke="#FFFFFF" stroke-opacity="0.22" stroke-width="1.2"/>
  <path d="M 1597.1 2867.0 C 1597.1 3204.5, 1618.7 2975.9, 1515.0 3248.9 C 1411.3 3522.0, 1460.7 3453.8, 1292.9 3558.1 C 1125.1 3662.4, 1236.3 3688.3, 1068.5 3584.0 C 900.8 3479.7, 1000.6 3543.5, 896.9 3270.5 C 793.3 2997.5, 845.9 3204.5, 845.9 2867.0 C 845.9 2529.5, 748.6 2734.6, 852.3 2461.5 C 956.0 2188.5, 894.3 2311.7, 1062.0 2207.4 C 1229.8 2103.1, 1139.1 2090.0, 1306.9 2194.3 C 1474.6 2298.5, 1361.0 2135.8, 1464.7 2408.9 C 1568.4 2681.9, 1597.1 2529.5, 1597.1 2867.0 Z" fill="#D8E8FF" opacity="0.12" stroke="#D8E8FF" stroke-opacity="0.46" stroke-width="3" filter="url(#soft_achievements_03_6171)"/>
  <path d="M 1597.1 2867.0 C 1597.1 3204.5, 1618.7 2975.9, 1515.0 3248.9 C 1411.3 3522.0, 1460.7 3453.8, 1292.9 3558.1 C 1125.1 3662.4, 1236.3 3688.3, 1068.5 3584.0 C 900.8 3479.7, 1000.6 3543.5, 896.9 3270.5 C 793.3 2997.5, 845.9 3204.5, 845.9 2867.0 C 845.9 2529.5, 748.6 2734.6, 852.3 2461.5 C 956.0 2188.5, 894.3 2311.7, 1062.0 2207.4 C 1229.8 2103.1, 1139.1 2090.0, 1306.9 2194.3 C 1474.6 2298.5, 1361.0 2135.8, 1464.7 2408.9 C 1568.4 2681.9, 1597.1 2529.5, 1597.1 2867.0 Z" fill="none" stroke="#FFFFFF" stroke-opacity="0.22" stroke-width="1.2"/>
  <path d="M -100.0 1537.6 Q 133.3 1243.5, 366.7 1479.9 Q 600.0 1696.3, 833.3 1589.0 Q 1066.7 1264.7, 1300.0 1503.2" fill="none" stroke="#FFFFFF" stroke-opacity="0.38" stroke-width="4" filter="url(#soft_achievements_03_6171)"/>
  <path d="M -100.0 1537.6 Q 133.3 1243.5, 366.7 1479.9 Q 600.0 1696.3, 833.3 1589.0 Q 1066.7 1264.7, 1300.0 1503.2" fill="none" stroke="#7EE56D" stroke-opacity="0.18" stroke-width="2"/>
  <path d="M -100.0 2867.3 Q 133.3 2600.2, 366.7 2280.8 Q 600.0 2512.7, 833.3 2822.5 Q 1066.7 2667.3, 1300.0 2298.2" fill="none" stroke="#FFFFFF" stroke-opacity="0.38" stroke-width="4" filter="url(#soft_achievements_03_6171)"/>
  <path d="M -100.0 2867.3 Q 133.3 2600.2, 366.7 2280.8 Q 600.0 2512.7, 833.3 2822.5 Q 1066.7 2667.3, 1300.0 2298.2" fill="none" stroke="#7EE56D" stroke-opacity="0.18" stroke-width="2"/>
  <path d="M -100.0 57.7 Q 133.3 219.4, 366.7 -270.6 Q 600.0 -271.3, 833.3 200.6 Q 1066.7 203.4, 1300.0 -313.9" fill="none" stroke="#FFFFFF" stroke-opacity="0.38" stroke-width="4" filter="url(#soft_achievements_03_6171)"/>
  <path d="M -100.0 57.7 Q 133.3 219.4, 366.7 -270.6 Q 600.0 -271.3, 833.3 200.6 Q 1066.7 203.4, 1300.0 -313.9" fill="none" stroke="#7EE56D" stroke-opacity="0.18" stroke-width="2"/>
  <path d="M -100.0 1117.0 Q 133.3 1177.5, 366.7 1301.8 Q 600.0 1351.9, 833.3 1446.0 Q 1066.7 1526.6, 1300.0 1269.7" fill="none" stroke="#FFFFFF" stroke-opacity="0.38" stroke-width="4" filter="url(#soft_achievements_03_6171)"/>
  <path d="M -100.0 1117.0 Q 133.3 1177.5, 366.7 1301.8 Q 600.0 1351.9, 833.3 1446.0 Q 1066.7 1526.6, 1300.0 1269.7" fill="none" stroke="#7EE56D" stroke-opacity="0.18" stroke-width="2"/>
  <circle cx="1202" cy="1648" r="102" fill="url(#orb_achievements_03_6171)" opacity="0.36"/>
  <circle cx="1202" cy="1648" r="102" fill="#80B9FF" opacity="0.08"/>
  <circle cx="1202" cy="1648" r="102" fill="none" stroke="#FFFFFF" stroke-opacity="0.56" stroke-width="3"/>
  <ellipse cx="1173.4" cy="1611.3" rx="18.4" ry="8.2" fill="#FFFFFF" opacity="0.42" transform="rotate(-22 1173.4 1611.3)"/>
  <circle cx="344" cy="831" r="116" fill="url(#orb_achievements_03_6171)" opacity="0.36"/>
  <circle cx="344" cy="831" r="116" fill="#DFFFD3" opacity="0.08"/>
  <circle cx="344" cy="831" r="116" fill="none" stroke="#FFFFFF" stroke-opacity="0.56" stroke-width="3"/>
  <ellipse cx="311.5" cy="789.2" rx="20.9" ry="9.3" fill="#FFFFFF" opacity="0.42" transform="rotate(-22 311.5 789.2)"/>
  <circle cx="159" cy="903" r="219" fill="url(#orb_achievements_03_6171)" opacity="0.36"/>
  <circle cx="159" cy="903" r="219" fill="#DFFFD3" opacity="0.08"/>
  <circle cx="159" cy="903" r="219" fill="none" stroke="#FFFFFF" stroke-opacity="0.56" stroke-width="3"/>
  <ellipse cx="97.7" cy="824.2" rx="39.4" ry="17.5" fill="#FFFFFF" opacity="0.42" transform="rotate(-22 97.7 824.2)"/>
  <circle cx="318" cy="2017" r="102" fill="url(#orb_achievements_03_6171)" opacity="0.24"/>
  <circle cx="318" cy="2017" r="102" fill="#38D5C7" opacity="0.08"/>
  <circle cx="318" cy="2017" r="102" fill="none" stroke="#FFFFFF" stroke-opacity="0.56" stroke-width="3"/>
  <ellipse cx="289.4" cy="1980.3" rx="18.4" ry="8.2" fill="#FFFFFF" opacity="0.42" transform="rotate(-22 289.4 1980.3)"/>
  <circle cx="1199" cy="1074" r="108" fill="url(#orb_achievements_03_6171)" opacity="0.25"/>
  <circle cx="1199" cy="1074" r="108" fill="#D8E8FF" opacity="0.08"/>
  <circle cx="1199" cy="1074" r="108" fill="none" stroke="#FFFFFF" stroke-opacity="0.56" stroke-width="3"/>
  <ellipse cx="1168.8" cy="1035.1" rx="19.4" ry="8.6" fill="#FFFFFF" opacity="0.42" transform="rotate(-22 1168.8 1035.1)"/>
  <circle cx="133" cy="2613" r="197" fill="url(#orb_achievements_03_6171)" opacity="0.19"/>
  <circle cx="133" cy="2613" r="197" fill="#D8E8FF" opacity="0.08"/>
  <circle cx="133" cy="2613" r="197" fill="none" stroke="#FFFFFF" stroke-opacity="0.56" stroke-width="3"/>
  <ellipse cx="77.8" cy="2542.1" rx="35.5" ry="15.8" fill="#FFFFFF" opacity="0.42" transform="rotate(-22 77.8 2542.1)"/>
  <circle cx="660" cy="2245" r="108" fill="url(#orb_achievements_03_6171)" opacity="0.23"/>
  <circle cx="660" cy="2245" r="108" fill="#7EE56D" opacity="0.08"/>
  <circle cx="660" cy="2245" r="108" fill="none" stroke="#FFFFFF" stroke-opacity="0.56" stroke-width="3"/>
  <ellipse cx="629.8" cy="2206.1" rx="19.4" ry="8.6" fill="#FFFFFF" opacity="0.42" transform="rotate(-22 629.8 2206.1)"/>
  <circle cx="346" cy="2672" r="193" fill="url(#orb_achievements_03_6171)" opacity="0.24"/>
  <circle cx="346" cy="2672" r="193" fill="#D8E8FF" opacity="0.08"/>
  <circle cx="346" cy="2672" r="193" fill="none" stroke="#FFFFFF" stroke-opacity="0.56" stroke-width="3"/>
  <ellipse cx="292.0" cy="2602.5" rx="34.7" ry="15.4" fill="#FFFFFF" opacity="0.42" transform="rotate(-22 292.0 2602.5)"/>
  <circle cx="381" cy="281" r="221" fill="url(#orb_achievements_03_6171)" opacity="0.27"/>
  <circle cx="381" cy="281" r="221" fill="#FAFFFB" opacity="0.08"/>
  <circle cx="381" cy="281" r="221" fill="none" stroke="#FFFFFF" stroke-opacity="0.56" stroke-width="3"/>
  <ellipse cx="319.1" cy="201.4" rx="39.8" ry="17.7" fill="#FFFFFF" opacity="0.42" transform="rotate(-22 319.1 201.4)"/>
  <circle cx="836" cy="2550" r="3" fill="#FFFFFF" opacity="0.52"/>
  <circle cx="1176" cy="259" r="3" fill="#FFFFFF" opacity="0.36"/>
  <circle cx="18" cy="2319" r="4" fill="#FFFFFF" opacity="0.68"/>
  <circle cx="307" cy="1824" r="7" fill="#FFFFFF" opacity="0.63"/>
  <circle cx="663" cy="956" r="2" fill="#FFFFFF" opacity="0.59"/>
  <circle cx="1099" cy="1608" r="3" fill="#FFFFFF" opacity="0.46"/>
  <circle cx="517" cy="2239" r="3" fill="#FFFFFF" opacity="0.66"/>
  <circle cx="176" cy="1964" r="7" fill="#FFFFFF" opacity="0.65"/>
  <circle cx="608" cy="782" r="5" fill="#FFFFFF" opacity="0.46"/>
  <circle cx="375" cy="1347" r="7" fill="#FFFFFF" opacity="0.52"/>
  <circle cx="1073" cy="1371" r="4" fill="#FFFFFF" opacity="0.70"/>
  <rect width="1200" height="2600" fill="#FFFFFF" opacity="0.08"/>
  <rect width="1200" height="2600" filter="url(#grain_achievements_03_6171)" opacity="0.7"/>
</svg>
