<svg xmlns="http://www.w3.org/2000/svg" width="1200" height="2600" viewBox="0 0 1200 2600" preserveAspectRatio="xMidYMid slice">
  <defs>
    <linearGradient id="bg_achievements_05_4066" x1="0" y1="0" x2="1" y2="1">
      <stop offset="0%" stop-color="#A7F3EF"/>
      <stop offset="48%" stop-color="#D8E8FF"/>
      <stop offset="100%" stop-color="#FAFFFB"/>
    </linearGradient>
    <radialGradient id="orb_achievements_05_4066" cx="35%" cy="30%" r="70%">
      <stop offset="0%" stop-color="#FFFFFF" stop-opacity="0.85"/>
      <stop offset="42%" stop-color="#FFFFFF" stop-opacity="0.20"/>
      <stop offset="100%" stop-color="#FFFFFF" stop-opacity="0.02"/>
    </radialGradient>
    <filter id="blur_achievements_05_4066" x="-30%" y="-30%" width="160%" height="160%">
      <feGaussianBlur stdDeviation="72"/>
    </filter>
    <filter id="soft_achievements_05_4066" x="-20%" y="-20%" width="140%" height="140%">
      <feGaussianBlur stdDeviation="10"/>
    </filter>
    <filter id="grain_achievements_05_4066">
      <feTurbulence type="fractalNoise" baseFrequency="0.85" numOctaves="2" stitchTiles="stitch"/>
      <feColorMatrix type="saturate" values="0"/>
      <feComponentTransfer>
        <feFuncA type="table" tableValues="0 0.035"/>
      </feComponentTransfer>
    </filter>
  </defs>
  <rect width="1200" height="2600" fill="url(#bg_achievements_05_4066)"/>
  <path d="M 309.5 1230.0 C 309.5 1358.7, 327.2 1329.3, 229.8 1427.9 C 132.3 1526.5, 164.0 1479.4, 14.7 1501.8 C -134.7 1524.1, -87.5 1577.3, -218.8 1513.0 C -350.1 1448.6, -284.4 1450.7, -336.3 1329.7 C -388.2 1208.8, -460.5 1247.3, -408.7 1126.3 C -356.8 1005.4, -366.0 1021.3, -234.7 956.9 C -103.3 892.6, -133.7 894.4, 15.6 916.8 C 165.0 939.1, 87.0 929.6, 184.5 1028.2 C 282.0 1126.8, 309.5 1101.3, 309.5 1230.0 Z" fill="#D8E8FF" opacity="0.30" filter="url(#blur_achievements_05_4066)"/>
  <path d="M 966.3 1904.0 C 966.3 2021.5, 971.4 1989.9, 880.5 2079.9 C 789.7 2169.9, 852.2 2123.9, 713.0 2144.3 C 573.9 2164.7, 620.2 2171.9, 497.9 2113.2 C 375.5 2054.4, 457.3 2091.8, 409.0 1981.4 C 360.7 1871.0, 329.3 1911.6, 377.7 1801.2 C 426.0 1690.8, 391.1 1751.5, 513.5 1692.8 C 635.9 1634.1, 576.0 1589.3, 715.2 1609.7 C 854.3 1630.1, 830.8 1665.8, 921.6 1755.7 C 1012.5 1845.7, 966.3 1786.5, 966.3 1904.0 Z" fill="#D8E8FF" opacity="0.31" filter="url(#blur_achievements_05_4066)"/>
  <path d="M 269.5 880.0 C 269.5 1010.0, 271.2 938.3, 182.1 1037.9 C 93.0 1137.5, 123.9 1108.5, -12.6 1131.1 C -149.1 1153.6, -108.9 1160.6, -228.9 1095.5 C -348.9 1030.5, -253.3 1101.8, -300.7 979.6 C -348.1 857.4, -427.6 904.9, -380.2 782.7 C -332.7 660.5, -344.6 711.8, -224.5 646.7 C -104.5 581.7, -144.8 546.3, -8.3 568.8 C 128.2 591.4, 83.0 593.5, 172.1 693.2 C 261.2 792.8, 269.5 750.0, 269.5 880.0 Z" fill="#80B9FF" opacity="0.33" filter="url(#blur_achievements_05_4066)"/>
  <path d="M 1183.3 1270.0 C 1183.3 1416.2, 1205.8 1374.4, 1126.3 1486.4 C 1046.8 1598.4, 1061.6 1596.5, 939.8 1621.9 C 817.9 1647.3, 851.9 1673.1, 744.7 1600.0 C 637.5 1526.9, 665.2 1517.2, 622.8 1379.7 C 580.5 1242.3, 574.7 1293.6, 617.0 1156.1 C 659.4 1018.7, 621.3 1021.2, 728.5 948.1 C 835.6 875.0, 824.3 971.4, 946.2 996.8 C 1068.1 1022.2, 1048.4 982.8, 1128.0 1094.9 C 1207.5 1206.9, 1183.3 1123.8, 1183.3 1270.0 Z" fill="#D8E8FF" opacity="0.37" filter="url(#blur_achievements_05_4066)"/>
  <path d="M 763.4 1163.0 C 763.4 1319.6, 739.0 1257.0, 638.0 1377.0 C 537.1 1497.0, 612.5 1441.5, 457.8 1468.7 C 303.2 1495.9, 319.8 1578.7, 183.8 1500.4 C 47.8 1422.1, 131.0 1442.9, 77.3 1295.8 C 23.6 1148.6, -20.7 1199.5, 33.0 1052.4 C 86.7 905.2, 102.0 978.3, 238.0 900.0 C 374.0 821.7, 283.4 781.4, 438.1 808.6 C 592.7 835.8, 559.2 820.1, 660.2 940.1 C 761.1 1060.1, 763.4 1006.4, 763.4 1163.0 Z" fill="#7EE56D" opacity="0.34" filter="url(#blur_achievements_05_4066)"/>
  <path d="M 642.4 347.0 C 642.4 591.4, 700.5 568.0, 617.8 755.2 C 535.1 942.4, 542.1 809.3, 415.4 851.8 C 288.7 894.2, 337.3 894.5, 225.8 772.3 C 114.4 650.2, 160.0 787.8, 116.0 558.1 C 72.0 328.5, 85.7 373.7, 129.8 144.1 C 173.8 -85.5, 113.5 17.9, 225.0 -104.3 C 336.4 -226.5, 296.2 -147.7, 422.9 -105.3 C 549.7 -62.9, 514.9 -228.4, 597.6 -41.2 C 680.3 146.0, 642.4 102.7, 642.4 347.0 Z" fill="#38D5C7" opacity="0.37" filter="url(#blur_achievements_05_4066)"/>
  <path d="M 978.9 649.0 C 978.9 794.4, 1025.2 715.4, 935.3 826.7 C 845.3 938.0, 873.8 933.2, 736.0 958.5 C 598.1 983.7, 628.9 971.7, 507.7 899.0 C 386.5 826.3, 465.2 880.8, 417.3 744.2 C 369.5 607.6, 305.2 663.2, 353.0 526.6 C 400.9 390.0, 423.0 403.0, 544.2 330.3 C 665.4 257.6, 611.2 273.0, 749.1 298.2 C 886.9 323.5, 849.7 345.9, 939.7 457.3 C 1029.7 568.6, 978.9 503.6, 978.9 649.0 Z" fill="#38D5C7" opacity="0.25" filter="url(#blur_achievements_05_4066)"/>
  <path d="M 1410.6 1809.0 C 1410.6 2039.4, 1488.0 1975.4, 1367.7 2151.9 C 1247.4 2328.4, 1265.1 2220.0, 1080.7 2260.0 C 896.4 2300.0, 931.5 2331.9, 769.4 2216.7 C 607.3 2101.5, 660.6 2224.2, 596.6 2007.7 C 532.6 1791.2, 580.9 1828.4, 645.0 1611.9 C 709.0 1395.4, 638.7 1521.0, 800.8 1405.8 C 962.9 1290.6, 887.7 1181.0, 1072.1 1221.0 C 1256.4 1261.0, 1162.2 1277.4, 1282.6 1453.9 C 1402.9 1630.4, 1410.6 1578.6, 1410.6 1809.0 Z" fill="#FAFFFB" opacity="0.16" filter="url(#blur_achievements_05_4066)"/>
  <path d="M 642.2 2572.0 C 642.2 2749.8, 710.7 2689.0, 636.2 2832.8 C 561.6 2976.6, 578.0 2886.6, 457.3 2941.5 C 336.6 2996.4, 415.3 2962.0, 294.6 2907.0 C 173.9 2852.1, 248.4 2945.7, 173.8 2801.9 C 99.2 2658.1, 114.8 2749.8, 114.8 2572.0 C 114.8 2394.2, 55.5 2490.6, 130.1 2346.8 C 204.6 2203.0, 181.0 2228.9, 301.7 2174.0 C 422.4 2119.1, 340.1 2159.6, 460.7 2214.5 C 581.4 2269.5, 552.8 2194.4, 627.4 2338.2 C 702.0 2482.0, 642.2 2394.2, 642.2 2572.0 Z" fill="#DFFFD3" opacity="0.12" stroke="#FFFFFF" stroke-opacity="0.46" stroke-width="3" filter="url(#soft_achievements_05_4066)"/>
  <path d="M 642.2 2572.0 C 642.2 2749.8, 710.7 2689.0, 636.2 2832.8 C 561.6 2976.6, 578.0 2886.6, 457.3 2941.5 C 336.6 2996.4, 415.3 2962.0, 294.6 2907.0 C 173.9 2852.1, 248.4 2945.7, 173.8 2801.9 C 99.2 2658.1, 114.8 2749.8, 114.8 2572.0 C 114.8 2394.2, 55.5 2490.6, 130.1 2346.8 C 204.6 2203.0, 181.0 2228.9, 301.7 2174.0 C 422.4 2119.1, 340.1 2159.6, 460.7 2214.5 C 581.4 2269.5, 552.8 2194.4, 627.4 2338.2 C 702.0 2482.0, 642.2 2394.2, 642.2 2572.0 Z" fill="none" stroke="#FFFFFF" stroke-opacity="0.22" stroke-width="1.2"/>
  <path d="M 864.5 1971.0 C 864.5 2343.6, 892.5 2215.2, 812.1 2516.6 C 731.7 2818.0, 768.9 2553.4, 638.8 2668.6 C 508.6 2783.7, 566.6 2855.6, 436.4 2740.5 C 306.3 2625.3, 387.4 2795.2, 306.9 2493.7 C 226.5 2192.3, 235.4 2343.6, 235.4 1971.0 C 235.4 1598.4, 223.3 1776.5, 303.7 1475.1 C 384.1 1173.6, 310.8 1298.9, 440.9 1183.8 C 571.1 1068.7, 488.6 1050.6, 618.7 1165.7 C 748.8 1280.9, 722.4 1147.0, 802.8 1448.4 C 883.2 1749.9, 864.5 1598.4, 864.5 1971.0 Z" fill="#D8E8FF" opacity="0.12" stroke="#D8E8FF" stroke-opacity="0.46" stroke-width="3" filter="url(#soft_achievements_05_4066)"/>
  <path d="M 864.5 1971.0 C 864.5 2343.6, 892.5 2215.2, 812.1 2516.6 C 731.7 2818.0, 768.9 2553.4, 638.8 2668.6 C 508.6 2783.7, 566.6 2855.6, 436.4 2740.5 C 306.3 2625.3, 387.4 2795.2, 306.9 2493.7 C 226.5 2192.3, 235.4 2343.6, 235.4 1971.0 C 235.4 1598.4, 223.3 1776.5, 303.7 1475.1 C 384.1 1173.6, 310.8 1298.9, 440.9 1183.8 C 571.1 1068.7, 488.6 1050.6, 618.7 1165.7 C 748.8 1280.9, 722.4 1147.0, 802.8 1448.4 C 883.2 1749.9, 864.5 1598.4, 864.5 1971.0 Z" fill="none" stroke="#FFFFFF" stroke-opacity="0.22" stroke-width="1.2"/>
  <path d="M 1760.1 1749.0 C 1760.1 2126.1, 1851.6 1885.4, 1678.6 2190.5 C 1505.6 2495.6, 1614.5 2324.1, 1334.6 2440.7 C 1054.7 2557.2, 1232.4 2591.0, 952.5 2474.4 C 672.6 2357.9, 732.1 2489.6, 559.1 2184.5 C 386.1 1879.4, 471.8 2126.1, 471.8 1749.0 C 471.8 1371.9, 367.2 1574.5, 540.2 1269.4 C 713.2 964.3, 662.2 1051.7, 942.1 935.2 C 1222.0 818.7, 1079.8 739.3, 1359.7 855.8 C 1639.6 972.4, 1425.0 966.3, 1598.0 1271.4 C 1771.0 1576.5, 1760.1 1371.9, 1760.1 1749.0 Z" fill="#D8E8FF" opacity="0.12" stroke="#FFFFFF" stroke-opacity="0.46" stroke-width="3" filter="url(#soft_achievements_05_4066)"/>
  <path d="M 1760.1 1749.0 C 1760.1 2126.1, 1851.6 1885.4, 1678.6 2190.5 C 1505.6 2495.6, 1614.5 2324.1, 1334.6 2440.7 C 1054.7 2557.2, 1232.4 2591.0, 952.5 2474.4 C 672.6 2357.9, 732.1 2489.6, 559.1 2184.5 C 386.1 1879.4, 471.8 2126.1, 471.8 1749.0 C 471.8 1371.9, 367.2 1574.5, 540.2 1269.4 C 713.2 964.3, 662.2 1051.7, 942.1 935.2 C 1222.0 818.7, 1079.8 739.3, 1359.7 855.8 C 1639.6 972.4, 1425.0 966.3, 1598.0 1271.4 C 1771.0 1576.5, 1760.1 1371.9, 1760.1 1749.0 Z" fill="none" stroke="#FFFFFF" stroke-opacity="0.22" stroke-width="1.2"/>
  <path d="M 1081.3 407.0 C 1081.3 763.4, 1093.7 642.7, 924.4 931.1 C 755.1 1219.4, 815.6 1031.3, 541.7 1141.4 C 267.8 1251.6, 442.4 1317.1, 168.5 1207.0 C -105.4 1096.8, -25.4 1198.7, -194.7 910.4 C -364.0 622.1, -359.4 763.4, -359.4 407.0 C -359.4 50.6, -294.8 203.6, -125.5 -84.8 C 43.8 -373.1, -78.8 -272.2, 195.1 -382.3 C 469.0 -492.5, 285.1 -548.4, 559.0 -438.2 C 832.9 -328.1, 647.8 -314.2, 817.1 -25.9 C 986.4 262.4, 1081.3 50.6, 1081.3 407.0 Z" fill="#38D5C7" opacity="0.12" stroke="#FFFFFF" stroke-opacity="0.46" stroke-width="3" filter="url(#soft_achievements_05_4066)"/>
  <path d="M 1081.3 407.0 C 1081.3 763.4, 1093.7 642.7, 924.4 931.1 C 755.1 1219.4, 815.6 1031.3, 541.7 1141.4 C 267.8 1251.6, 442.4 1317.1, 168.5 1207.0 C -105.4 1096.8, -25.4 1198.7, -194.7 910.4 C -364.0 622.1, -359.4 763.4, -359.4 407.0 C -359.4 50.6, -294.8 203.6, -125.5 -84.8 C 43.8 -373.1, -78.8 -272.2, 195.1 -382.3 C 469.0 -492.5, 285.1 -548.4, 559.0 -438.2 C 832.9 -328.1, 647.8 -314.2, 817.1 -25.9 C 986.4 262.4, 1081.3 50.6, 1081.3 407.0 Z" fill="none" stroke="#FFFFFF" stroke-opacity="0.22" stroke-width="1.2"/>
  <path d="M 1628.0 2874.0 C 1628.0 3241.7, 1609.5 3056.4, 1445.3 3353.9 C 1281.0 3651.3, 1369.3 3557.5, 1103.6 3671.1 C 837.8 3784.7, 986.5 3849.0, 720.8 3735.4 C 455.0 3621.8, 640.8 3616.4, 476.6 3319.0 C 312.3 3021.5, 230.6 3241.7, 230.6 2874.0 C 230.6 2506.3, 199.8 2734.6, 364.1 2437.2 C 528.3 2139.8, 485.1 2215.7, 750.8 2102.1 C 1016.6 1988.5, 837.4 1951.7, 1103.2 2065.3 C 1369.0 2178.9, 1216.3 2132.9, 1380.5 2430.3 C 1544.8 2727.7, 1628.0 2506.3, 1628.0 2874.0 Z" fill="#DFFFD3" opacity="0.12" stroke="#FFFFFF" stroke-opacity="0.46" stroke-width="3" filter="url(#soft_achievements_05_4066)"/>
  <path d="M 1628.0 2874.0 C 1628.0 3241.7, 1609.5 3056.4, 1445.3 3353.9 C 1281.0 3651.3, 1369.3 3557.5, 1103.6 3671.1 C 837.8 3784.7, 986.5 3849.0, 720.8 3735.4 C 455.0 3621.8, 640.8 3616.4, 476.6 3319.0 C 312.3 3021.5, 230.6 3241.7, 230.6 2874.0 C 230.6 2506.3, 199.8 2734.6, 364.1 2437.2 C 528.3 2139.8, 485.1 2215.7, 750.8 2102.1 C 1016.6 1988.5, 837.4 1951.7, 1103.2 2065.3 C 1369.0 2178.9, 1216.3 2132.9, 1380.5 2430.3 C 1544.8 2727.7, 1628.0 2506.3, 1628.0 2874.0 Z" fill="none" stroke="#FFFFFF" stroke-opacity="0.22" stroke-width="1.2"/>
  <path d="M -100.0 -128.1 Q 133.3 -32.3, 366.7 164.1 Q 600.0 8.2, 833.3 -97.2 Q 1066.7 -139.1, 1300.0 1.7" fill="none" stroke="#FFFFFF" stroke-opacity="0.38" stroke-width="4" filter="url(#soft_achievements_05_4066)"/>
  <path d="M -100.0 -128.1 Q 133.3 -32.3, 366.7 164.1 Q 600.0 8.2, 833.3 -97.2 Q 1066.7 -139.1, 1300.0 1.7" fill="none" stroke="#38D5C7" stroke-opacity="0.18" stroke-width="2"/>
  <path d="M -100.0 1561.7 Q 133.3 1520.4, 366.7 1365.9 Q 600.0 1335.0, 833.3 1504.3 Q 1066.7 1779.4, 1300.0 1851.8" fill="none" stroke="#FFFFFF" stroke-opacity="0.38" stroke-width="4" filter="url(#soft_achievements_05_4066)"/>
  <path d="M -100.0 1561.7 Q 133.3 1520.4, 366.7 1365.9 Q 600.0 1335.0, 833.3 1504.3 Q 1066.7 1779.4, 1300.0 1851.8" fill="none" stroke="#38D5C7" stroke-opacity="0.18" stroke-width="2"/>
  <path d="M -100.0 2429.1 Q 133.3 2739.5, 366.7 2978.6 Q 600.0 2749.1, 833.3 2414.0 Q 1066.7 2360.4, 1300.0 2513.9" fill="none" stroke="#FFFFFF" stroke-opacity="0.38" stroke-width="4" filter="url(#soft_achievements_05_4066)"/>
  <path d="M -100.0 2429.1 Q 133.3 2739.5, 366.7 2978.6 Q 600.0 2749.1, 833.3 2414.0 Q 1066.7 2360.4, 1300.0 2513.9" fill="none" stroke="#7EE56D" stroke-opacity="0.18" stroke-width="2"/>
  <path d="M -100.0 1057.1 Q 133.3 1191.0, 366.7 1559.7 Q 600.0 1551.3, 833.3 1490.9 Q 1066.7 1094.4, 1300.0 1045.9" fill="none" stroke="#FFFFFF" stroke-opacity="0.38" stroke-width="4" filter="url(#soft_achievements_05_4066)"/>
  <path d="M -100.0 1057.1 Q 133.3 1191.0, 366.7 1559.7 Q 600.0 1551.3, 833.3 1490.9 Q 1066.7 1094.4, 1300.0 1045.9" fill="none" stroke="#7EE56D" stroke-opacity="0.18" stroke-width="2"/>
  <circle cx="458" cy="1994" r="254" fill="url(#orb_achievements_05_4066)" opacity="0.36"/>
  <circle cx="458" cy="1994" r="254" fill="#DFFFD3" opacity="0.08"/>
  <circle cx="458" cy="1994" r="254" fill="none" stroke="#FFFFFF" stroke-opacity="0.56" stroke-width="3"/>
  <ellipse cx="386.9" cy="1902.6" rx="45.7" ry="20.3" fill="#FFFFFF" opacity="0.42" transform="rotate(-22 386.9 1902.6)"/>
  <circle cx="952" cy="-68" r="164" fill="url(#orb_achievements_05_4066)" opacity="0.36"/>
  <circle cx="952" cy="-68" r="164" fill="#38D5C7" opacity="0.08"/>
  <circle cx="952" cy="-68" r="164" fill="none" stroke="#FFFFFF" stroke-opacity="0.56" stroke-width="3"/>
  <ellipse cx="906.1" cy="-127.0" rx="29.5" ry="13.1" fill="#FFFFFF" opacity="0.42" transform="rotate(-22 906.1 -127.0)"/>
  <circle cx="29" cy="1118" r="168" fill="url(#orb_achievements_05_4066)" opacity="0.36"/>
  <circle cx="29" cy="1118" r="168" fill="#80B9FF" opacity="0.08"/>
  <circle cx="29" cy="1118" r="168" fill="none" stroke="#FFFFFF" stroke-opacity="0.56" stroke-width="3"/>
  <ellipse cx="-18.0" cy="1057.5" rx="30.2" ry="13.4" fill="#FFFFFF" opacity="0.42" transform="rotate(-22 -18.0 1057.5)"/>
  <circle cx="802" cy="1701" r="204" fill="url(#orb_achievements_05_4066)" opacity="0.23"/>
  <circle cx="802" cy="1701" r="204" fill="#C9FFF2" opacity="0.08"/>
  <circle cx="802" cy="1701" r="204" fill="none" stroke="#FFFFFF" stroke-opacity="0.56" stroke-width="3"/>
  <ellipse cx="744.9" cy="1627.6" rx="36.7" ry="16.3" fill="#FFFFFF" opacity="0.42" transform="rotate(-22 744.9 1627.6)"/>
  <circle cx="95" cy="1509" r="279" fill="url(#orb_achievements_05_4066)" opacity="0.20"/>
  <circle cx="95" cy="1509" r="279" fill="#D8E8FF" opacity="0.08"/>
  <circle cx="95" cy="1509" r="279" fill="none" stroke="#FFFFFF" stroke-opacity="0.56" stroke-width="3"/>
  <ellipse cx="16.9" cy="1408.6" rx="50.2" ry="22.3" fill="#FFFFFF" opacity="0.42" transform="rotate(-22 16.9 1408.6)"/>
  <circle cx="114" cy="-54" r="267" fill="url(#orb_achievements_05_4066)" opacity="0.19"/>
  <circle cx="114" cy="-54" r="267" fill="#DFFFD3" opacity="0.08"/>
  <circle cx="114" cy="-54" r="267" fill="none" stroke="#FFFFFF" stroke-opacity="0.56" stroke-width="3"/>
  <ellipse cx="39.2" cy="-150.1" rx="48.1" ry="21.4" fill="#FFFFFF" opacity="0.42" transform="rotate(-22 39.2 -150.1)"/>
  <circle cx="720" cy="1198" r="275" fill="url(#orb_achievements_05_4066)" opacity="0.17"/>
  <circle cx="720" cy="1198" r="275" fill="#C9FFF2" opacity="0.08"/>
  <circle cx="720" cy="1198" r="275" fill="none" stroke="#FFFFFF" stroke-opacity="0.56" stroke-width="3"/>
  <ellipse cx="643.0" cy="1099.0" rx="49.5" ry="22.0" fill="#FFFFFF" opacity="0.42" transform="rotate(-22 643.0 1099.0)"/>
  <circle cx="67" cy="2213" r="4" fill="#FFFFFF" opacity="0.69"/>
  <circle cx="960" cy="956" r="4" fill="#FFFFFF" opacity="0.60"/>
  <circle cx="826" cy="1180" r="7" fill="#FFFFFF" opacity="0.47"/>
  <circle cx="1157" cy="2542" r="5" fill="#FFFFFF" opacity="0.69"/>
  <circle cx="134" cy="2500" r="5" fill="#FFFFFF" opacity="0.32"/>
  <circle cx="430" cy="1284" r="3" fill="#FFFFFF" opacity="0.57"/>
  <circle cx="380" cy="981" r="3" fill="#FFFFFF" opacity="0.64"/>
  <circle cx="195" cy="166" r="4" fill="#FFFFFF" opacity="0.48"/>
  <circle cx="668" cy="555" r="5" fill="#FFFFFF" opacity="0.67"/>
  <circle cx="201" cy="273" r="5" fill="#FFFFFF" opacity="0.66"/>
  <circle cx="108" cy="2452" r="4" fill="#FFFFFF" opacity="0.47"/>
  <circle cx="777" cy="1872" r="7" fill="#FFFFFF" opacity="0.57"/>
  <circle cx="94" cy="1901" r="7" fill="#FFFFFF" opacity="0.67"/>
  <circle cx="413" cy="761" r="4" fill="#FFFFFF" opacity="0.33"/>
  <circle cx="1091" cy="1287" r="2" fill="#FFFFFF" opacity="0.63"/>
  <circle cx="279" cy="2254" r="4" fill="#FFFFFF" opacity="0.72"/>
  <circle cx="33" cy="535" r="3" fill="#FFFFFF" opacity="0.47"/>
  <circle cx="922" cy="1268" r="2" fill="#FFFFFF" opacity="0.68"/>
  <circle cx="1130" cy="293" r="5" fill="#FFFFFF" opacity="0.38"/>
  <circle cx="591" cy="2034" r="3" fill="#FFFFFF" opacity="0.38"/>
  <circle cx="612" cy="228" r="2" fill="#FFFFFF" opacity="0.64"/>
  <rect width="1200" height="2600" fill="#FFFFFF" opacity="0.08"/>
  <rect width="1200" height="2600" filter="url(#grain_achievements_05_4066)" opacity="0.7"/>
</svg>
