<svg xmlns="http://www.w3.org/2000/svg" width="1200" height="2600" viewBox="0 0 1200 2600" preserveAspectRatio="xMidYMid slice">
  <defs>
    <linearGradient id="bg_achievements_20_4521" x1="0" y1="0" x2="1" y2="1">
      <stop offset="0%" stop-color="#DFFFD3"/>
      <stop offset="48%" stop-color="#FAFFFB"/>
      <stop offset="100%" stop-color="#A7F3EF"/>
    </linearGradient>
    <radialGradient id="orb_achievements_20_4521" cx="35%" cy="30%" r="70%">
      <stop offset="0%" stop-color="#FFFFFF" stop-opacity="0.85"/>
      <stop offset="42%" stop-color="#FFFFFF" stop-opacity="0.20"/>
      <stop offset="100%" stop-color="#FFFFFF" stop-opacity="0.02"/>
    </radialGradient>
    <filter id="blur_achievements_20_4521" x="-30%" y="-30%" width="160%" height="160%">
      <feGaussianBlur stdDeviation="72"/>
    </filter>
    <filter id="soft_achievements_20_4521" x="-20%" y="-20%" width="140%" height="140%">
      <feGaussianBlur stdDeviation="10"/>
    </filter>
    <filter id="grain_achievements_20_4521">
      <feTurbulence type="fractalNoise" baseFrequency="0.85" numOctaves="2" stitchTiles="stitch"/>
      <feColorMatrix type="saturate" values="0"/>
      <feComponentTransfer>
        <feFuncA type="table" tableValues="0 0.035"/>
      </feComponentTransfer>
    </filter>
  </defs>
  <rect width="1200" height="2600" fill="url(#bg_achievements_20_4521)"/>
  <path d="M 1263.5 1321.0 C 1263.5 1482.5, 1277.0 1448.4, 1154.4 1572.2 C 1031.7 1695.9, 1050.2 1685.3, 862.3 1713.4 C 674.3 1741.5, 741.3 1679.4, 576.1 1598.6 C 410.8 1517.9, 398.7 1592.6, 333.4 1440.7 C 268.2 1288.9, 249.3 1347.6, 314.6 1195.8 C 379.9 1043.9, 422.5 1145.9, 587.8 1065.2 C 753.0 984.4, 663.4 913.8, 851.3 941.9 C 1039.2 969.9, 1004.6 988.7, 1127.3 1112.4 C 1249.9 1236.2, 1263.5 1159.5, 1263.5 1321.0 Z" fill="#38D5C7" opacity="0.21" filter="url(#blur_achievements_20_4521)"/>
  <path d="M 868.2 1435.0 C 868.2 1682.0, 911.7 1653.4, 768.8 1842.6 C 625.9 2031.9, 622.3 2028.5, 403.4 2071.4 C 184.5 2114.3, 256.0 2097.8, 63.5 1974.3 C -129.0 1850.8, -30.9 1843.4, -106.9 1611.2 C -182.9 1379.1, -137.1 1492.5, -61.1 1260.4 C 15.0 1028.2, -77.9 1072.6, 114.6 949.0 C 307.1 825.5, 186.0 907.8, 404.9 950.7 C 623.8 993.6, 631.5 893.2, 774.4 1082.4 C 917.3 1271.7, 868.2 1188.0, 868.2 1435.0 Z" fill="#D8E8FF" opacity="0.24" filter="url(#blur_achievements_20_4521)"/>
  <path d="M 1440.4 480.0 C 1440.4 728.4, 1427.6 631.8, 1344.0 822.1 C 1260.5 1012.4, 1295.0 1061.1, 1167.0 1104.3 C 1038.9 1147.4, 1057.5 1033.0, 944.9 908.8 C 832.3 784.6, 853.1 875.0, 808.7 641.6 C 764.2 408.2, 756.6 550.8, 801.1 317.4 C 845.5 83.9, 842.8 99.6, 955.4 -24.6 C 1068.0 -148.8, 1028.7 -71.9, 1156.8 -28.8 C 1284.8 14.4, 1235.6 -16.7, 1319.2 173.6 C 1402.8 363.9, 1440.4 231.6, 1440.4 480.0 Z" fill="#FAFFFB" opacity="0.21" filter="url(#blur_achievements_20_4521)"/>
  <path d="M 1655.1 1940.0 C 1655.1 2173.6, 1624.7 2047.6, 1526.4 2226.5 C 1428.0 2405.4, 1515.4 2337.0, 1364.7 2377.6 C 1214.0 2418.1, 1251.0 2533.2, 1118.5 2416.4 C 986.0 2299.7, 995.0 2333.1, 942.7 2113.6 C 890.3 1894.1, 913.2 2002.0, 965.6 1782.5 C 1017.9 1563.1, 1019.9 1582.4, 1152.4 1465.6 C 1284.9 1348.9, 1224.6 1403.5, 1375.3 1444.0 C 1526.0 1484.6, 1441.3 1486.4, 1539.6 1665.3 C 1638.0 1844.2, 1655.1 1706.5, 1655.1 1940.0 Z" fill="#DFFFD3" opacity="0.32" filter="url(#blur_achievements_20_4521)"/>
  <path d="M 36.6 2821.0 C 36.6 3089.2, 94.9 3040.0, 27.8 3245.5 C -39.3 3451.0, -26.7 3341.9, -129.5 3388.5 C -232.3 3435.0, -212.7 3513.4, -303.1 3379.3 C -393.5 3245.2, -330.5 3242.3, -366.2 2990.3 C -401.9 2738.3, -389.6 2835.6, -353.8 2583.6 C -318.1 2331.6, -378.8 2434.7, -288.4 2300.6 C -198.0 2166.5, -232.4 2165.5, -129.6 2212.0 C -26.8 2258.6, -46.6 2259.5, 20.6 2465.0 C 87.7 2670.4, 36.6 2552.8, 36.6 2821.0 Z" fill="#38D5C7" opacity="0.27" filter="url(#blur_achievements_20_4521)"/>
  <path d="M 1104.4 186.0 C 1104.4 483.0, 1134.7 357.4, 1004.5 584.9 C 874.3 812.4, 977.1 744.1, 777.7 795.7 C 578.3 847.3, 680.8 805.8, 505.4 657.3 C 330.0 508.8, 423.8 718.7, 354.5 439.6 C 285.2 160.5, 172.4 244.4, 241.6 -34.6 C 310.9 -313.7, 283.4 -327.9, 458.8 -476.4 C 634.2 -624.9, 594.3 -567.4, 793.7 -515.8 C 993.1 -464.3, 970.0 -421.4, 1100.2 -193.9 C 1230.4 33.6, 1104.4 -111.0, 1104.4 186.0 Z" fill="#38D5C7" opacity="0.31" filter="url(#blur_achievements_20_4521)"/>
  <path d="M 1824.9 1890.0 C 1824.9 2022.8, 1832.3 1951.0, 1709.7 2052.7 C 1587.1 2154.4, 1599.8 2121.6, 1411.9 2144.7 C 1224.0 2167.7, 1280.8 2227.8, 1115.5 2161.4 C 950.3 2095.0, 999.9 2107.2, 934.6 1982.5 C 869.4 1857.7, 931.2 1899.4, 996.4 1774.7 C 1061.7 1650.0, 978.4 1692.2, 1143.6 1625.8 C 1308.9 1559.4, 1238.7 1566.4, 1426.6 1589.4 C 1614.5 1612.5, 1536.2 1591.6, 1658.9 1693.3 C 1781.5 1795.0, 1824.9 1757.2, 1824.9 1890.0 Z" fill="#38D5C7" opacity="0.33" filter="url(#blur_achievements_20_4521)"/>
  <path d="M 983.2 1655.0 C 983.2 1805.8, 1079.6 1777.0, 988.5 1892.5 C 897.4 2008.0, 907.0 1998.1, 767.4 2024.3 C 627.8 2050.5, 650.3 2034.2, 527.6 1958.8 C 404.8 1883.4, 471.8 1912.5, 423.3 1770.8 C 374.8 1629.2, 410.5 1667.9, 459.0 1526.2 C 507.5 1384.6, 412.4 1415.0, 535.2 1339.6 C 657.9 1264.2, 631.6 1324.7, 771.2 1350.9 C 910.8 1377.1, 853.5 1318.6, 944.7 1434.1 C 1035.8 1549.6, 983.2 1504.2, 983.2 1655.0 Z" fill="#A7F3EF" opacity="0.21" filter="url(#blur_achievements_20_4521)"/>
  <path d="M 312.4 839.0 C 312.4 1109.9, 354.4 1081.8, 267.3 1289.3 C 180.3 1496.8, 187.0 1461.5, 53.6 1508.6 C -79.8 1555.6, -41.8 1463.4, -159.1 1328.0 C -276.4 1192.5, -218.9 1333.1, -265.2 1078.6 C -311.6 824.0, -353.4 882.6, -307.0 628.0 C -260.7 373.5, -248.8 467.1, -131.5 331.7 C -14.2 196.2, -66.8 122.4, 66.6 169.5 C 200.0 216.5, 148.8 185.0, 235.8 392.5 C 322.9 600.0, 312.4 568.1, 312.4 839.0 Z" fill="#DFFFD3" opacity="0.28" filter="url(#blur_achievements_20_4521)"/>
  <path d="M 379.6 -113.0 C 379.6 210.6, 417.1 94.0, 328.5 355.8 C 239.9 617.5, 314.1 514.8, 170.8 614.8 C 27.4 714.8, 102.3 653.2, -41.1 553.2 C -184.4 453.3, -148.2 558.2, -236.8 296.4 C -325.4 34.7, -233.8 210.6, -233.8 -113.0 C -233.8 -436.5, -324.1 -233.3, -235.5 -495.1 C -146.9 -756.9, -192.1 -733.6, -48.7 -833.5 C 94.7 -933.5, 28.6 -831.4, 172.0 -731.4 C 315.3 -631.5, 263.1 -739.2, 351.8 -477.4 C 440.4 -215.7, 379.6 -436.6, 379.6 -113.0 Z" fill="#38D5C7" opacity="0.12" stroke="#38D5C7" stroke-opacity="0.46" stroke-width="3" filter="url(#soft_achievements_20_4521)"/>
  <path d="M 379.6 -113.0 C 379.6 210.6, 417.1 94.0, 328.5 355.8 C 239.9 617.5, 314.1 514.8, 170.8 614.8 C 27.4 714.8, 102.3 653.2, -41.1 553.2 C -184.4 453.3, -148.2 558.2, -236.8 296.4 C -325.4 34.7, -233.8 210.6, -233.8 -113.0 C -233.8 -436.5, -324.1 -233.3, -235.5 -495.1 C -146.9 -756.9, -192.1 -733.6, -48.7 -833.5 C 94.7 -933.5, 28.6 -831.4, 172.0 -731.4 C 315.3 -631.5, 263.1 -739.2, 351.8 -477.4 C 440.4 -215.7, 379.6 -436.6, 379.6 -113.0 Z" fill="none" stroke="#FFFFFF" stroke-opacity="0.22" stroke-width="1.2"/>
  <path d="M 1712.3 390.0 C 1712.3 625.8, 1781.9 534.3, 1651.0 725.0 C 1520.1 915.8, 1579.7 845.2, 1367.8 918.1 C 1156.0 991.0, 1296.1 1005.7, 1084.2 932.8 C 872.4 859.9, 1011.8 864.4, 880.9 673.6 C 749.9 482.9, 777.1 625.8, 777.1 390.0 C 777.1 154.2, 729.1 248.2, 860.1 57.4 C 991.0 -133.3, 874.2 -80.6, 1086.1 -153.5 C 1297.9 -226.3, 1191.0 -142.6, 1402.9 -69.8 C 1614.7 3.1, 1486.6 -134.4, 1617.5 56.4 C 1748.4 247.1, 1712.3 154.2, 1712.3 390.0 Z" fill="#FAFFFB" opacity="0.12" stroke="#FAFFFB" stroke-opacity="0.46" stroke-width="3" filter="url(#soft_achievements_20_4521)"/>
  <path d="M 1712.3 390.0 C 1712.3 625.8, 1781.9 534.3, 1651.0 725.0 C 1520.1 915.8, 1579.7 845.2, 1367.8 918.1 C 1156.0 991.0, 1296.1 1005.7, 1084.2 932.8 C 872.4 859.9, 1011.8 864.4, 880.9 673.6 C 749.9 482.9, 777.1 625.8, 777.1 390.0 C 777.1 154.2, 729.1 248.2, 860.1 57.4 C 991.0 -133.3, 874.2 -80.6, 1086.1 -153.5 C 1297.9 -226.3, 1191.0 -142.6, 1402.9 -69.8 C 1614.7 3.1, 1486.6 -134.4, 1617.5 56.4 C 1748.4 247.1, 1712.3 154.2, 1712.3 390.0 Z" fill="none" stroke="#FFFFFF" stroke-opacity="0.22" stroke-width="1.2"/>
  <path d="M 787.5 2683.0 C 787.5 3063.7, 882.7 2900.5, 779.6 3208.5 C 676.4 3516.5, 735.5 3347.7, 568.6 3465.3 C 401.7 3583.0, 503.0 3600.9, 336.1 3483.2 C 169.2 3365.6, 241.5 3484.3, 138.4 3176.3 C 35.2 2868.3, 98.1 3063.7, 98.1 2683.0 C 98.1 2302.3, 56.8 2473.2, 159.9 2165.2 C 263.1 1857.2, 148.0 1960.9, 314.9 1843.2 C 481.8 1725.6, 410.5 1654.1, 577.5 1771.8 C 744.4 1889.4, 674.3 1809.7, 777.4 2117.7 C 880.6 2425.7, 787.5 2302.3, 787.5 2683.0 Z" fill="#7EE56D" opacity="0.12" stroke="#FFFFFF" stroke-opacity="0.46" stroke-width="3" filter="url(#soft_achievements_20_4521)"/>
  <path d="M 787.5 2683.0 C 787.5 3063.7, 882.7 2900.5, 779.6 3208.5 C 676.4 3516.5, 735.5 3347.7, 568.6 3465.3 C 401.7 3583.0, 503.0 3600.9, 336.1 3483.2 C 169.2 3365.6, 241.5 3484.3, 138.4 3176.3 C 35.2 2868.3, 98.1 3063.7, 98.1 2683.0 C 98.1 2302.3, 56.8 2473.2, 159.9 2165.2 C 263.1 1857.2, 148.0 1960.9, 314.9 1843.2 C 481.8 1725.6, 410.5 1654.1, 577.5 1771.8 C 744.4 1889.4, 674.3 1809.7, 777.4 2117.7 C 880.6 2425.7, 787.5 2302.3, 787.5 2683.0 Z" fill="none" stroke="#FFFFFF" stroke-opacity="0.22" stroke-width="1.2"/>
  <path d="M 1210.4 498.0 C 1210.4 833.2, 1212.5 683.3, 1124.4 954.5 C 1036.3 1225.7, 1117.2 1118.0, 974.7 1221.6 C 832.2 1325.2, 914.8 1211.2, 772.3 1107.6 C 629.7 1004.0, 708.8 1159.5, 620.7 888.3 C 532.6 617.0, 524.8 833.3, 524.8 498.0 C 524.8 162.8, 527.6 344.6, 615.7 73.4 C 703.7 -197.9, 621.3 -165.5, 763.8 -269.1 C 906.3 -372.7, 838.5 -229.1, 981.0 -125.5 C 1123.5 -21.9, 1026.0 -242.2, 1114.1 29.1 C 1202.2 300.3, 1210.4 162.8, 1210.4 498.0 Z" fill="#C9FFF2" opacity="0.12" stroke="#FFFFFF" stroke-opacity="0.46" stroke-width="3" filter="url(#soft_achievements_20_4521)"/>
  <path d="M 1210.4 498.0 C 1210.4 833.2, 1212.5 683.3, 1124.4 954.5 C 1036.3 1225.7, 1117.2 1118.0, 974.7 1221.6 C 832.2 1325.2, 914.8 1211.2, 772.3 1107.6 C 629.7 1004.0, 708.8 1159.5, 620.7 888.3 C 532.6 617.0, 524.8 833.3, 524.8 498.0 C 524.8 162.8, 527.6 344.6, 615.7 73.4 C 703.7 -197.9, 621.3 -165.5, 763.8 -269.1 C 906.3 -372.7, 838.5 -229.1, 981.0 -125.5 C 1123.5 -21.9, 1026.0 -242.2, 1114.1 29.1 C 1202.2 300.3, 1210.4 162.8, 1210.4 498.0 Z" fill="none" stroke="#FFFFFF" stroke-opacity="0.22" stroke-width="1.2"/>
  <path d="M 1891.9 2085.0 C 1891.9 2378.8, 1950.7 2203.3, 1783.0 2441.0 C 1615.3 2678.7, 1650.4 2701.1, 1379.1 2791.9 C 1107.8 2882.7, 1272.6 2836.8, 1001.3 2746.0 C 729.9 2655.2, 805.7 2656.1, 638.0 2418.3 C 470.3 2180.6, 577.9 2378.8, 577.9 2085.0 C 577.9 1791.2, 468.2 1942.6, 635.9 1704.8 C 803.6 1467.1, 730.2 1616.1, 1001.5 1525.2 C 1272.8 1434.4, 1143.0 1439.0, 1414.3 1529.8 C 1685.6 1620.6, 1583.3 1499.0, 1751.0 1736.7 C 1918.7 1974.4, 1891.9 1791.2, 1891.9 2085.0 Z" fill="#A7F3EF" opacity="0.12" stroke="#A7F3EF" stroke-opacity="0.46" stroke-width="3" filter="url(#soft_achievements_20_4521)"/>
  <path d="M 1891.9 2085.0 C 1891.9 2378.8, 1950.7 2203.3, 1783.0 2441.0 C 1615.3 2678.7, 1650.4 2701.1, 1379.1 2791.9 C 1107.8 2882.7, 1272.6 2836.8, 1001.3 2746.0 C 729.9 2655.2, 805.7 2656.1, 638.0 2418.3 C 470.3 2180.6, 577.9 2378.8, 577.9 2085.0 C 577.9 1791.2, 468.2 1942.6, 635.9 1704.8 C 803.6 1467.1, 730.2 1616.1, 1001.5 1525.2 C 1272.8 1434.4, 1143.0 1439.0, 1414.3 1529.8 C 1685.6 1620.6, 1583.3 1499.0, 1751.0 1736.7 C 1918.7 1974.4, 1891.9 1791.2, 1891.9 2085.0 Z" fill="none" stroke="#FFFFFF" stroke-opacity="0.22" stroke-width="1.2"/>
  <path d="M 1808.1 478.0 C 1808.1 858.2, 1908.1 656.9, 1726.6 964.5 C 1545.2 1272.1, 1653.9 1169.0, 1360.3 1286.5 C 1066.7 1404.0, 1224.4 1396.5, 930.8 1279.0 C 637.2 1161.5, 743.6 1337.4, 562.2 1029.8 C 380.7 722.1, 526.0 858.3, 526.0 478.0 C 526.0 97.8, 491.3 338.9, 672.7 31.3 C 854.2 -276.4, 666.3 -202.4, 959.9 -319.9 C 1253.5 -437.4, 1065.4 -539.7, 1359.0 -422.2 C 1652.6 -304.7, 1603.9 -395.4, 1785.3 -87.7 C 1966.7 219.9, 1808.1 97.8, 1808.1 478.0 Z" fill="#A7F3EF" opacity="0.12" stroke="#A7F3EF" stroke-opacity="0.46" stroke-width="3" filter="url(#soft_achievements_20_4521)"/>
  <path d="M 1808.1 478.0 C 1808.1 858.2, 1908.1 656.9, 1726.6 964.5 C 1545.2 1272.1, 1653.9 1169.0, 1360.3 1286.5 C 1066.7 1404.0, 1224.4 1396.5, 930.8 1279.0 C 637.2 1161.5, 743.6 1337.4, 562.2 1029.8 C 380.7 722.1, 526.0 858.3, 526.0 478.0 C 526.0 97.8, 491.3 338.9, 672.7 31.3 C 854.2 -276.4, 666.3 -202.4, 959.9 -319.9 C 1253.5 -437.4, 1065.4 -539.7, 1359.0 -422.2 C 1652.6 -304.7, 1603.9 -395.4, 1785.3 -87.7 C 1966.7 219.9, 1808.1 97.8, 1808.1 478.0 Z" fill="none" stroke="#FFFFFF" stroke-opacity="0.22" stroke-width="1.2"/>
  <path d="M 496.6 2730.0 C 496.6 3059.8, 604.0 2931.7, 452.7 3198.5 C 301.4 3465.4, 338.7 3296.7, 93.9 3398.6 C -150.9 3500.6, 6.4 3556.8, -238.4 3454.8 C -483.2 3352.9, -366.0 3373.8, -517.3 3107.0 C -668.6 2840.1, -660.4 3059.8, -660.4 2730.0 C -660.4 2400.2, -711.5 2594.1, -560.2 2327.3 C -408.9 2060.4, -504.0 2061.6, -259.2 1959.7 C -14.4 1857.8, -117.0 1841.2, 127.8 1943.1 C 372.6 2045.0, 274.9 2058.1, 426.2 2325.0 C 577.5 2591.8, 496.6 2400.2, 496.6 2730.0 Z" fill="#D8E8FF" opacity="0.12" stroke="#D8E8FF" stroke-opacity="0.46" stroke-width="3" filter="url(#soft_achievements_20_4521)"/>
  <path d="M 496.6 2730.0 C 496.6 3059.8, 604.0 2931.7, 452.7 3198.5 C 301.4 3465.4, 338.7 3296.7, 93.9 3398.6 C -150.9 3500.6, 6.4 3556.8, -238.4 3454.8 C -483.2 3352.9, -366.0 3373.8, -517.3 3107.0 C -668.6 2840.1, -660.4 3059.8, -660.4 2730.0 C -660.4 2400.2, -711.5 2594.1, -560.2 2327.3 C -408.9 2060.4, -504.0 2061.6, -259.2 1959.7 C -14.4 1857.8, -117.0 1841.2, 127.8 1943.1 C 372.6 2045.0, 274.9 2058.1, 426.2 2325.0 C 577.5 2591.8, 496.6 2400.2, 496.6 2730.0 Z" fill="none" stroke="#FFFFFF" stroke-opacity="0.22" stroke-width="1.2"/>
  <path d="M -100.0 1623.4 Q 133.3 1553.5, 366.7 1414.5 Q 600.0 1397.2, 833.3 1497.7 Q 1066.7 1639.3, 1300.0 1659.3" fill="none" stroke="#FFFFFF" stroke-opacity="0.38" stroke-width="4" filter="url(#soft_achievements_20_4521)"/>
  <path d="M -100.0 1623.4 Q 133.3 1553.5, 366.7 1414.5 Q 600.0 1397.2, 833.3 1497.7 Q 1066.7 1639.3, 1300.0 1659.3" fill="none" stroke="#80B9FF" stroke-opacity="0.18" stroke-width="2"/>
  <path d="M -100.0 2557.4 Q 133.3 2259.1, 366.7 2211.5 Q 600.0 2404.5, 833.3 2494.5 Q 1066.7 2587.9, 1300.0 2378.7" fill="none" stroke="#FFFFFF" stroke-opacity="0.38" stroke-width="4" filter="url(#soft_achievements_20_4521)"/>
  <path d="M -100.0 2557.4 Q 133.3 2259.1, 366.7 2211.5 Q 600.0 2404.5, 833.3 2494.5 Q 1066.7 2587.9, 1300.0 2378.7" fill="none" stroke="#7EE56D" stroke-opacity="0.18" stroke-width="2"/>
  <path d="M -100.0 156.3 Q 133.3 126.0, 366.7 246.4 Q 600.0 413.0, 833.3 422.7 Q 1066.7 321.8, 1300.0 242.4" fill="none" stroke="#FFFFFF" stroke-opacity="0.38" stroke-width="4" filter="url(#soft_achievements_20_4521)"/>
  <path d="M -100.0 156.3 Q 133.3 126.0, 366.7 246.4 Q 600.0 413.0, 833.3 422.7 Q 1066.7 321.8, 1300.0 242.4" fill="none" stroke="#38D5C7" stroke-opacity="0.18" stroke-width="2"/>
  <path d="M -100.0 2237.5 Q 133.3 2498.6, 366.7 2456.0 Q 600.0 2378.8, 833.3 2082.6 Q 1066.7 2004.2, 1300.0 1845.1" fill="none" stroke="#FFFFFF" stroke-opacity="0.38" stroke-width="4" filter="url(#soft_achievements_20_4521)"/>
  <path d="M -100.0 2237.5 Q 133.3 2498.6, 366.7 2456.0 Q 600.0 2378.8, 833.3 2082.6 Q 1066.7 2004.2, 1300.0 1845.1" fill="none" stroke="#7EE56D" stroke-opacity="0.18" stroke-width="2"/>
  <circle cx="968" cy="781" r="286" fill="url(#orb_achievements_20_4521)" opacity="0.36"/>
  <circle cx="968" cy="781" r="286" fill="#D8E8FF" opacity="0.08"/>
  <circle cx="968" cy="781" r="286" fill="none" stroke="#FFFFFF" stroke-opacity="0.56" stroke-width="3"/>
  <ellipse cx="887.9" cy="678.0" rx="51.5" ry="22.9" fill="#FFFFFF" opacity="0.42" transform="rotate(-22 887.9 678.0)"/>
  <circle cx="932" cy="58" r="230" fill="url(#orb_achievements_20_4521)" opacity="0.36"/>
  <circle cx="932" cy="58" r="230" fill="#C9FFF2" opacity="0.08"/>
  <circle cx="932" cy="58" r="230" fill="none" stroke="#FFFFFF" stroke-opacity="0.56" stroke-width="3"/>
  <ellipse cx="867.6" cy="-24.8" rx="41.4" ry="18.4" fill="#FFFFFF" opacity="0.42" transform="rotate(-22 867.6 -24.8)"/>
  <circle cx="414" cy="1469" r="107" fill="url(#orb_achievements_20_4521)" opacity="0.36"/>
  <circle cx="414" cy="1469" r="107" fill="#A7F3EF" opacity="0.08"/>
  <circle cx="414" cy="1469" r="107" fill="none" stroke="#FFFFFF" stroke-opacity="0.56" stroke-width="3"/>
  <ellipse cx="384.0" cy="1430.5" rx="19.3" ry="8.6" fill="#FFFFFF" opacity="0.42" transform="rotate(-22 384.0 1430.5)"/>
  <circle cx="737" cy="741" r="175" fill="url(#orb_achievements_20_4521)" opacity="0.22"/>
  <circle cx="737" cy="741" r="175" fill="#80B9FF" opacity="0.08"/>
  <circle cx="737" cy="741" r="175" fill="none" stroke="#FFFFFF" stroke-opacity="0.56" stroke-width="3"/>
  <ellipse cx="688.0" cy="678.0" rx="31.5" ry="14.0" fill="#FFFFFF" opacity="0.42" transform="rotate(-22 688.0 678.0)"/>
  <circle cx="852" cy="1700" r="279" fill="url(#orb_achievements_20_4521)" opacity="0.25"/>
  <circle cx="852" cy="1700" r="279" fill="#80B9FF" opacity="0.08"/>
  <circle cx="852" cy="1700" r="279" fill="none" stroke="#FFFFFF" stroke-opacity="0.56" stroke-width="3"/>
  <ellipse cx="773.9" cy="1599.6" rx="50.2" ry="22.3" fill="#FFFFFF" opacity="0.42" transform="rotate(-22 773.9 1599.6)"/>
  <circle cx="341" cy="2560" r="201" fill="url(#orb_achievements_20_4521)" opacity="0.25"/>
  <circle cx="341" cy="2560" r="201" fill="#A7F3EF" opacity="0.08"/>
  <circle cx="341" cy="2560" r="201" fill="none" stroke="#FFFFFF" stroke-opacity="0.56" stroke-width="3"/>
  <ellipse cx="284.7" cy="2487.6" rx="36.2" ry="16.1" fill="#FFFFFF" opacity="0.42" transform="rotate(-22 284.7 2487.6)"/>
  <circle cx="201" cy="1135" r="210" fill="url(#orb_achievements_20_4521)" opacity="0.27"/>
  <circle cx="201" cy="1135" r="210" fill="#DFFFD3" opacity="0.08"/>
  <circle cx="201" cy="1135" r="210" fill="none" stroke="#FFFFFF" stroke-opacity="0.56" stroke-width="3"/>
  <ellipse cx="142.2" cy="1059.4" rx="37.8" ry="16.8" fill="#FFFFFF" opacity="0.42" transform="rotate(-22 142.2 1059.4)"/>
  <circle cx="921" cy="1453" r="2" fill="#FFFFFF" opacity="0.30"/>
  <circle cx="476" cy="673" r="5" fill="#FFFFFF" opacity="0.53"/>
  <circle cx="354" cy="432" r="4" fill="#FFFFFF" opacity="0.61"/>
  <circle cx="1176" cy="849" r="4" fill="#FFFFFF" opacity="0.60"/>
  <circle cx="1170" cy="500" r="5" fill="#FFFFFF" opacity="0.64"/>
  <circle cx="995" cy="939" r="2" fill="#FFFFFF" opacity="0.61"/>
  <circle cx="76" cy="1053" r="5" fill="#FFFFFF" opacity="0.57"/>
  <circle cx="338" cy="1005" r="4" fill="#FFFFFF" opacity="0.57"/>
  <circle cx="174" cy="1816" r="7" fill="#FFFFFF" opacity="0.53"/>
  <circle cx="980" cy="2345" r="3" fill="#FFFFFF" opacity="0.61"/>
  <circle cx="93" cy="1654" r="2" fill="#FFFFFF" opacity="0.30"/>
  <rect width="1200" height="2600" fill="#FFFFFF" opacity="0.08"/>
  <rect width="1200" height="2600" filter="url(#grain_achievements_20_4521)" opacity="0.7"/>
</svg>
