<svg xmlns="http://www.w3.org/2000/svg" width="1200" height="2600" viewBox="0 0 1200 2600" preserveAspectRatio="xMidYMid slice">
  <defs>
    <linearGradient id="bg_achievements_11_2371" x1="0" y1="0" x2="1" y2="1">
      <stop offset="0%" stop-color="#FAFFFB"/>
      <stop offset="48%" stop-color="#C9FFF2"/>
      <stop offset="100%" stop-color="#DFFFD3"/>
    </linearGradient>
    <radialGradient id="orb_achievements_11_2371" cx="35%" cy="30%" r="70%">
      <stop offset="0%" stop-color="#FFFFFF" stop-opacity="0.85"/>
      <stop offset="42%" stop-color="#FFFFFF" stop-opacity="0.20"/>
      <stop offset="100%" stop-color="#FFFFFF" stop-opacity="0.02"/>
    </radialGradient>
    <filter id="blur_achievements_11_2371" x="-30%" y="-30%" width="160%" height="160%">
      <feGaussianBlur stdDeviation="72"/>
    </filter>
    <filter id="soft_achievements_11_2371" x="-20%" y="-20%" width="140%" height="140%">
      <feGaussianBlur stdDeviation="10"/>
    </filter>
    <filter id="grain_achievements_11_2371">
      <feTurbulence type="fractalNoise" baseFrequency="0.85" numOctaves="2" stitchTiles="stitch"/>
      <feColorMatrix type="saturate" values="0"/>
      <feComponentTransfer>
        <feFuncA type="table" tableValues="0 0.035"/>
      </feComponentTransfer>
    </filter>
  </defs>
  <rect width="1200" height="2600" fill="url(#bg_achievements_11_2371)"/>
  <path d="M 1286.1 2547.0 C 1286.1 2818.3, 1242.9 2753.1, 1150.9 2960.9 C 1059.0 3168.8, 1134.8 3097.0, 993.9 3144.1 C 853.0 3191.2, 921.0 3204.1, 797.0 3068.4 C 673.1 2932.7, 729.9 2992.7, 681.0 2737.7 C 632.0 2482.7, 539.5 2604.6, 588.4 2349.6 C 637.4 2094.6, 648.0 2119.0, 772.0 1983.3 C 895.9 1847.6, 860.9 1991.9, 1001.8 2039.0 C 1142.7 2086.1, 1091.3 1916.7, 1183.3 2124.6 C 1275.3 2332.4, 1286.1 2275.7, 1286.1 2547.0 Z" fill="#80B9FF" opacity="0.22" filter="url(#blur_achievements_11_2371)"/>
  <path d="M 1116.6 2000.0 C 1116.6 2232.7, 1177.4 2139.7, 1065.2 2317.9 C 952.9 2496.2, 1019.7 2444.8, 847.8 2485.2 C 675.8 2525.6, 758.7 2513.8, 607.5 2397.5 C 456.3 2281.1, 488.9 2378.5, 429.2 2159.8 C 369.5 1941.2, 384.7 2038.1, 444.5 1819.5 C 504.2 1600.9, 425.5 1739.5, 576.7 1623.2 C 727.9 1506.9, 682.2 1498.8, 854.1 1539.2 C 1026.1 1579.6, 976.6 1490.7, 1088.9 1668.9 C 1201.1 1847.2, 1116.6 1767.3, 1116.6 2000.0 Z" fill="#A7F3EF" opacity="0.34" filter="url(#blur_achievements_11_2371)"/>
  <path d="M 302.7 86.0 C 302.7 302.9, 356.4 205.9, 220.5 372.0 C 84.5 538.2, 204.1 476.5, -4.2 514.2 C -212.5 551.8, -131.6 649.3, -314.8 540.8 C -497.9 432.4, -479.2 457.5, -551.5 253.7 C -623.9 49.9, -676.3 150.0, -603.9 -53.8 C -531.6 -257.6, -533.5 -230.3, -350.4 -338.7 C -167.2 -447.2, -219.3 -402.6, -11.0 -364.9 C 197.3 -327.3, 107.6 -409.2, 243.5 -243.0 C 379.5 -76.9, 302.7 -130.9, 302.7 86.0 Z" fill="#7EE56D" opacity="0.37" filter="url(#blur_achievements_11_2371)"/>
  <path d="M 868.9 1258.0 C 868.9 1492.5, 847.0 1384.9, 730.5 1564.5 C 613.9 1744.1, 657.2 1682.4, 478.6 1723.1 C 300.0 1763.9, 399.7 1840.7, 242.6 1723.5 C 85.6 1606.3, 115.4 1631.8, 53.4 1411.4 C -8.7 1191.1, -41.2 1329.7, 20.9 1109.4 C 82.9 889.1, 28.6 911.0, 185.7 793.8 C 342.8 676.6, 305.6 777.5, 484.2 818.3 C 662.8 859.0, 618.3 702.8, 734.9 882.4 C 851.5 1062.0, 868.9 1023.5, 868.9 1258.0 Z" fill="#80B9FF" opacity="0.21" filter="url(#blur_achievements_11_2371)"/>
  <path d="M 518.4 2705.0 C 518.4 2849.4, 453.3 2770.5, 345.7 2881.2 C 238.1 2991.8, 338.6 2987.9, 173.8 3013.0 C 8.9 3038.0, 73.0 3083.3, -71.9 3011.0 C -216.9 2938.8, -222.4 2956.7, -279.7 2821.0 C -336.9 2685.2, -246.8 2736.3, -189.6 2600.6 C -132.3 2464.8, -212.1 2507.7, -67.2 2435.4 C 77.8 2363.2, 4.5 2414.2, 169.4 2439.3 C 334.2 2464.4, 242.9 2408.5, 350.5 2519.2 C 458.1 2629.8, 518.4 2560.6, 518.4 2705.0 Z" fill="#A7F3EF" opacity="0.37" filter="url(#blur_achievements_11_2371)"/>
  <path d="M 452.2 686.0 C 452.2 957.4, 438.0 825.7, 361.9 1033.6 C 285.8 1241.5, 355.3 1333.1, 238.8 1380.2 C 122.2 1427.4, 144.5 1318.4, 42.0 1182.7 C -60.5 1047.0, 18.8 1155.3, -21.7 900.3 C -62.2 645.3, -73.6 703.5, -33.1 448.6 C 7.4 193.6, -32.4 252.3, 70.1 116.6 C 172.5 -19.1, 120.1 28.8, 236.7 75.9 C 353.2 123.0, 298.1 31.2, 374.2 239.0 C 450.2 446.9, 452.2 414.6, 452.2 686.0 Z" fill="#7EE56D" opacity="0.28" filter="url(#blur_achievements_11_2371)"/>
  <path d="M 1600.5 115.0 C 1600.5 283.3, 1623.0 189.6, 1549.8 318.5 C 1476.6 447.4, 1473.8 447.6, 1361.6 476.8 C 1249.5 506.0, 1301.7 550.1, 1203.1 466.0 C 1104.5 381.8, 1087.9 419.5, 1048.9 261.4 C 1010.0 103.2, 1027.2 160.1, 1066.2 1.9 C 1105.1 -156.2, 1108.3 -94.0, 1206.9 -178.2 C 1305.4 -262.3, 1261.8 -273.5, 1373.9 -244.3 C 1486.0 -215.0, 1451.6 -286.9, 1524.8 -158.0 C 1597.9 -29.1, 1600.5 -53.3, 1600.5 115.0 Z" fill="#7EE56D" opacity="0.25" filter="url(#blur_achievements_11_2371)"/>
  <path d="M 1098.2 2229.0 C 1098.2 2475.6, 1234.9 2364.4, 1076.9 2553.3 C 919.0 2742.3, 959.8 2765.8, 717.8 2808.6 C 475.8 2851.5, 590.7 2854.5, 377.9 2731.2 C 165.1 2607.9, 202.2 2674.6, 118.1 2442.9 C 34.1 2211.1, 37.1 2268.8, 121.1 2037.1 C 205.2 1805.4, 106.4 1879.3, 319.2 1756.0 C 531.9 1632.7, 479.5 1730.0, 721.4 1772.8 C 963.4 1815.7, 939.6 1688.3, 1097.5 1877.2 C 1255.4 2066.1, 1098.2 1982.4, 1098.2 2229.0 Z" fill="#D8E8FF" opacity="0.36" filter="url(#blur_achievements_11_2371)"/>
  <path d="M 1449.6 1840.0 C 1449.6 2031.2, 1469.5 2011.8, 1394.9 2158.3 C 1320.3 2304.8, 1354.6 2201.1, 1240.3 2234.3 C 1125.9 2267.5, 1179.8 2283.4, 1079.3 2187.8 C 978.7 2092.1, 972.8 2139.9, 933.1 1960.2 C 893.4 1780.4, 873.0 1891.8, 912.7 1712.0 C 952.4 1532.3, 981.3 1604.6, 1081.8 1508.9 C 1182.4 1413.3, 1120.3 1392.9, 1234.6 1426.1 C 1349.0 1459.3, 1316.4 1392.2, 1391.0 1538.7 C 1465.6 1685.2, 1449.6 1648.8, 1449.6 1840.0 Z" fill="#7EE56D" opacity="0.33" filter="url(#blur_achievements_11_2371)"/>
  <path d="M 1582.4 923.0 C 1582.4 1170.0, 1726.4 1071.1, 1583.8 1260.3 C 1441.2 1449.6, 1461.0 1349.6, 1242.5 1392.5 C 1024.0 1435.4, 1113.1 1466.4, 921.0 1342.9 C 728.8 1219.4, 789.2 1352.0, 713.3 1119.8 C 637.4 887.7, 566.2 949.4, 642.0 717.3 C 717.9 485.1, 694.0 595.8, 886.1 472.3 C 1078.3 348.8, 1027.5 426.0, 1246.0 468.9 C 1464.5 511.8, 1453.5 382.9, 1596.1 572.2 C 1738.7 761.4, 1582.4 676.0, 1582.4 923.0 Z" fill="#FAFFFB" opacity="0.22" filter="url(#blur_achievements_11_2371)"/>
  <path d="M 1372.7 1607.0 C 1372.7 1839.2, 1273.9 1715.1, 1119.5 1892.9 C 965.0 2070.8, 1098.1 2095.9, 861.4 2136.2 C 624.8 2176.5, 707.4 2170.5, 499.3 2054.4 C 291.2 1938.3, 387.9 2000.5, 305.7 1782.3 C 223.5 1564.1, 252.2 1668.8, 334.4 1450.6 C 416.6 1232.4, 330.3 1219.2, 538.4 1103.1 C 746.5 987.0, 622.9 1002.1, 859.6 1042.4 C 1096.2 1082.8, 1057.5 1088.2, 1212.0 1266.0 C 1366.4 1443.9, 1372.7 1374.8, 1372.7 1607.0 Z" fill="#A7F3EF" opacity="0.33" filter="url(#blur_achievements_11_2371)"/>
  <path d="M 1191.6 1366.0 C 1191.6 1737.7, 1123.4 1610.3, 990.9 1911.0 C 858.4 2211.7, 995.7 1967.7, 781.3 2082.6 C 566.9 2197.4, 687.2 2159.8, 472.8 2045.0 C 258.4 1930.1, 344.6 2214.1, 212.1 1913.4 C 79.5 1612.7, 70.4 1737.7, 70.4 1366.0 C 70.4 994.3, 114.8 1197.5, 247.3 896.8 C 379.8 596.1, 251.7 610.2, 466.1 495.4 C 680.6 380.5, 569.0 368.0, 783.4 482.9 C 997.9 597.7, 869.7 597.5, 1002.2 898.2 C 1134.7 1198.9, 1191.6 994.3, 1191.6 1366.0 Z" fill="#D8E8FF" opacity="0.12" stroke="#FFFFFF" stroke-opacity="0.46" stroke-width="3" filter="url(#soft_achievements_11_2371)"/>
  <path d="M 1191.6 1366.0 C 1191.6 1737.7, 1123.4 1610.3, 990.9 1911.0 C 858.4 2211.7, 995.7 1967.7, 781.3 2082.6 C 566.9 2197.4, 687.2 2159.8, 472.8 2045.0 C 258.4 1930.1, 344.6 2214.1, 212.1 1913.4 C 79.5 1612.7, 70.4 1737.7, 70.4 1366.0 C 70.4 994.3, 114.8 1197.5, 247.3 896.8 C 379.8 596.1, 251.7 610.2, 466.1 495.4 C 680.6 380.5, 569.0 368.0, 783.4 482.9 C 997.9 597.7, 869.7 597.5, 1002.2 898.2 C 1134.7 1198.9, 1191.6 994.3, 1191.6 1366.0 Z" fill="none" stroke="#FFFFFF" stroke-opacity="0.22" stroke-width="1.2"/>
  <path d="M 591.3 694.0 C 591.3 987.0, 606.8 799.7, 462.9 1036.7 C 319.0 1273.7, 468.4 1148.9, 235.6 1239.4 C 2.7 1330.0, 123.1 1369.1, -109.8 1278.6 C -342.6 1188.1, -221.0 1272.1, -364.9 1035.1 C -508.8 798.1, -421.1 987.0, -421.1 694.0 C -421.1 401.1, -509.4 588.2, -365.5 351.2 C -221.7 114.2, -361.2 237.1, -128.3 146.6 C 104.5 56.1, 13.9 12.9, 246.7 103.4 C 479.5 193.9, 312.4 83.2, 456.3 320.2 C 600.2 557.2, 591.3 401.1, 591.3 694.0 Z" fill="#7EE56D" opacity="0.12" stroke="#FFFFFF" stroke-opacity="0.46" stroke-width="3" filter="url(#soft_achievements_11_2371)"/>
  <path d="M 591.3 694.0 C 591.3 987.0, 606.8 799.7, 462.9 1036.7 C 319.0 1273.7, 468.4 1148.9, 235.6 1239.4 C 2.7 1330.0, 123.1 1369.1, -109.8 1278.6 C -342.6 1188.1, -221.0 1272.1, -364.9 1035.1 C -508.8 798.1, -421.1 987.0, -421.1 694.0 C -421.1 401.1, -509.4 588.2, -365.5 351.2 C -221.7 114.2, -361.2 237.1, -128.3 146.6 C 104.5 56.1, 13.9 12.9, 246.7 103.4 C 479.5 193.9, 312.4 83.2, 456.3 320.2 C 600.2 557.2, 591.3 401.1, 591.3 694.0 Z" fill="none" stroke="#FFFFFF" stroke-opacity="0.22" stroke-width="1.2"/>
  <path d="M 1324.3 2451.0 C 1324.3 2617.1, 1348.5 2536.2, 1270.4 2670.6 C 1192.4 2804.9, 1241.8 2788.9, 1115.5 2840.2 C 989.3 2891.5, 1074.7 2841.0, 948.5 2789.7 C 822.2 2738.3, 880.7 2783.7, 802.7 2649.3 C 724.6 2515.0, 748.9 2617.1, 748.9 2451.0 C 748.9 2284.9, 728.2 2387.5, 806.2 2253.2 C 884.3 2118.9, 805.7 2188.2, 932.0 2136.9 C 1058.2 2085.6, 1001.8 2077.3, 1128.1 2128.6 C 1254.3 2180.0, 1198.6 2122.0, 1276.6 2256.3 C 1354.6 2390.7, 1324.3 2284.9, 1324.3 2451.0 Z" fill="#38D5C7" opacity="0.12" stroke="#FFFFFF" stroke-opacity="0.46" stroke-width="3" filter="url(#soft_achievements_11_2371)"/>
  <path d="M 1324.3 2451.0 C 1324.3 2617.1, 1348.5 2536.2, 1270.4 2670.6 C 1192.4 2804.9, 1241.8 2788.9, 1115.5 2840.2 C 989.3 2891.5, 1074.7 2841.0, 948.5 2789.7 C 822.2 2738.3, 880.7 2783.7, 802.7 2649.3 C 724.6 2515.0, 748.9 2617.1, 748.9 2451.0 C 748.9 2284.9, 728.2 2387.5, 806.2 2253.2 C 884.3 2118.9, 805.7 2188.2, 932.0 2136.9 C 1058.2 2085.6, 1001.8 2077.3, 1128.1 2128.6 C 1254.3 2180.0, 1198.6 2122.0, 1276.6 2256.3 C 1354.6 2390.7, 1324.3 2284.9, 1324.3 2451.0 Z" fill="none" stroke="#FFFFFF" stroke-opacity="0.22" stroke-width="1.2"/>
  <path d="M 388.3 211.0 C 388.3 553.9, 399.7 428.4, 263.8 705.8 C 127.8 983.2, 226.9 930.5, 6.9 1036.5 C -213.1 1142.5, -104.8 1115.7, -324.8 1009.7 C -544.8 903.8, -392.7 998.2, -528.7 720.8 C -664.6 443.3, -728.0 553.9, -728.0 211.0 C -728.0 -131.9, -662.2 82.5, -526.3 -194.9 C -390.3 -472.3, -520.3 -362.6, -300.3 -468.6 C -80.3 -574.6, -219.8 -546.4, 0.2 -440.5 C 220.2 -334.5, 86.1 -536.3, 222.1 -258.9 C 358.1 18.6, 388.3 -131.9, 388.3 211.0 Z" fill="#A7F3EF" opacity="0.12" stroke="#FFFFFF" stroke-opacity="0.46" stroke-width="3" filter="url(#soft_achievements_11_2371)"/>
  <path d="M 388.3 211.0 C 388.3 553.9, 399.7 428.4, 263.8 705.8 C 127.8 983.2, 226.9 930.5, 6.9 1036.5 C -213.1 1142.5, -104.8 1115.7, -324.8 1009.7 C -544.8 903.8, -392.7 998.2, -528.7 720.8 C -664.6 443.3, -728.0 553.9, -728.0 211.0 C -728.0 -131.9, -662.2 82.5, -526.3 -194.9 C -390.3 -472.3, -520.3 -362.6, -300.3 -468.6 C -80.3 -574.6, -219.8 -546.4, 0.2 -440.5 C 220.2 -334.5, 86.1 -536.3, 222.1 -258.9 C 358.1 18.6, 388.3 -131.9, 388.3 211.0 Z" fill="none" stroke="#FFFFFF" stroke-opacity="0.22" stroke-width="1.2"/>
  <path d="M 852.7 371.0 C 852.7 574.4, 947.7 502.5, 770.8 667.0 C 593.8 831.6, 680.3 716.6, 394.0 779.4 C 107.7 842.3, 249.0 855.0, -37.4 792.1 C -323.7 729.3, -212.5 837.9, -389.5 673.4 C -566.4 508.8, -596.5 574.4, -596.5 371.0 C -596.5 167.6, -556.4 274.4, -379.4 109.9 C -202.5 -54.7, -342.3 -26.1, -55.9 -89.0 C 230.4 -151.8, 88.2 -97.9, 374.5 -35.1 C 660.8 27.8, 517.4 -64.4, 694.4 100.2 C 871.3 264.7, 852.7 167.6, 852.7 371.0 Z" fill="#A7F3EF" opacity="0.12" stroke="#FFFFFF" stroke-opacity="0.46" stroke-width="3" filter="url(#soft_achievements_11_2371)"/>
  <path d="M 852.7 371.0 C 852.7 574.4, 947.7 502.5, 770.8 667.0 C 593.8 831.6, 680.3 716.6, 394.0 779.4 C 107.7 842.3, 249.0 855.0, -37.4 792.1 C -323.7 729.3, -212.5 837.9, -389.5 673.4 C -566.4 508.8, -596.5 574.4, -596.5 371.0 C -596.5 167.6, -556.4 274.4, -379.4 109.9 C -202.5 -54.7, -342.3 -26.1, -55.9 -89.0 C 230.4 -151.8, 88.2 -97.9, 374.5 -35.1 C 660.8 27.8, 517.4 -64.4, 694.4 100.2 C 871.3 264.7, 852.7 167.6, 852.7 371.0 Z" fill="none" stroke="#FFFFFF" stroke-opacity="0.22" stroke-width="1.2"/>
  <path d="M -100.0 1230.0 Q 133.3 1429.8, 366.7 1588.9 Q 600.0 1264.3, 833.3 1081.8 Q 1066.7 1372.4, 1300.0 1538.2" fill="none" stroke="#FFFFFF" stroke-opacity="0.38" stroke-width="4" filter="url(#soft_achievements_11_2371)"/>
  <path d="M -100.0 1230.0 Q 133.3 1429.8, 366.7 1588.9 Q 600.0 1264.3, 833.3 1081.8 Q 1066.7 1372.4, 1300.0 1538.2" fill="none" stroke="#38D5C7" stroke-opacity="0.18" stroke-width="2"/>
  <path d="M -100.0 669.3 Q 133.3 384.4, 366.7 556.2 Q 600.0 923.4, 833.3 1128.7 Q 1066.7 720.5, 1300.0 393.8" fill="none" stroke="#FFFFFF" stroke-opacity="0.38" stroke-width="4" filter="url(#soft_achievements_11_2371)"/>
  <path d="M -100.0 669.3 Q 133.3 384.4, 366.7 556.2 Q 600.0 923.4, 833.3 1128.7 Q 1066.7 720.5, 1300.0 393.8" fill="none" stroke="#80B9FF" stroke-opacity="0.18" stroke-width="2"/>
  <path d="M -100.0 -180.4 Q 133.3 -31.8, 366.7 101.4 Q 600.0 184.5, 833.3 -120.2 Q 1066.7 -310.7, 1300.0 -269.5" fill="none" stroke="#FFFFFF" stroke-opacity="0.38" stroke-width="4" filter="url(#soft_achievements_11_2371)"/>
  <path d="M -100.0 -180.4 Q 133.3 -31.8, 366.7 101.4 Q 600.0 184.5, 833.3 -120.2 Q 1066.7 -310.7, 1300.0 -269.5" fill="none" stroke="#80B9FF" stroke-opacity="0.18" stroke-width="2"/>
  <path d="M -100.0 2320.1 Q 133.3 1817.9, 366.7 1977.0 Q 600.0 2325.1, 833.3 2353.9 Q 1066.7 1799.8, 1300.0 2027.1" fill="none" stroke="#FFFFFF" stroke-opacity="0.38" stroke-width="4" filter="url(#soft_achievements_11_2371)"/>
  <path d="M -100.0 2320.1 Q 133.3 1817.9, 366.7 1977.0 Q 600.0 2325.1, 833.3 2353.9 Q 1066.7 1799.8, 1300.0 2027.1" fill="none" stroke="#38D5C7" stroke-opacity="0.18" stroke-width="2"/>
  <circle cx="458" cy="275" r="254" fill="url(#orb_achievements_11_2371)" opacity="0.36"/>
  <circle cx="458" cy="275" r="254" fill="#38D5C7" opacity="0.08"/>
  <circle cx="458" cy="275" r="254" fill="none" stroke="#FFFFFF" stroke-opacity="0.56" stroke-width="3"/>
  <ellipse cx="386.9" cy="183.6" rx="45.7" ry="20.3" fill="#FFFFFF" opacity="0.42" transform="rotate(-22 386.9 183.6)"/>
  <circle cx="803" cy="2380" r="205" fill="url(#orb_achievements_11_2371)" opacity="0.36"/>
  <circle cx="803" cy="2380" r="205" fill="#DFFFD3" opacity="0.08"/>
  <circle cx="803" cy="2380" r="205" fill="none" stroke="#FFFFFF" stroke-opacity="0.56" stroke-width="3"/>
  <ellipse cx="745.6" cy="2306.2" rx="36.9" ry="16.4" fill="#FFFFFF" opacity="0.42" transform="rotate(-22 745.6 2306.2)"/>
  <circle cx="300" cy="2520" r="148" fill="url(#orb_achievements_11_2371)" opacity="0.36"/>
  <circle cx="300" cy="2520" r="148" fill="#D8E8FF" opacity="0.08"/>
  <circle cx="300" cy="2520" r="148" fill="none" stroke="#FFFFFF" stroke-opacity="0.56" stroke-width="3"/>
  <ellipse cx="258.6" cy="2466.7" rx="26.6" ry="11.8" fill="#FFFFFF" opacity="0.42" transform="rotate(-22 258.6 2466.7)"/>
  <circle cx="706" cy="1978" r="169" fill="url(#orb_achievements_11_2371)" opacity="0.21"/>
  <circle cx="706" cy="1978" r="169" fill="#FAFFFB" opacity="0.08"/>
  <circle cx="706" cy="1978" r="169" fill="none" stroke="#FFFFFF" stroke-opacity="0.56" stroke-width="3"/>
  <ellipse cx="658.7" cy="1917.2" rx="30.4" ry="13.5" fill="#FFFFFF" opacity="0.42" transform="rotate(-22 658.7 1917.2)"/>
  <circle cx="506" cy="201" r="192" fill="url(#orb_achievements_11_2371)" opacity="0.23"/>
  <circle cx="506" cy="201" r="192" fill="#C9FFF2" opacity="0.08"/>
  <circle cx="506" cy="201" r="192" fill="none" stroke="#FFFFFF" stroke-opacity="0.56" stroke-width="3"/>
  <ellipse cx="452.2" cy="131.9" rx="34.6" ry="15.4" fill="#FFFFFF" opacity="0.42" transform="rotate(-22 452.2 131.9)"/>
  <circle cx="760" cy="320" r="105" fill="url(#orb_achievements_11_2371)" opacity="0.17"/>
  <circle cx="760" cy="320" r="105" fill="#C9FFF2" opacity="0.08"/>
  <circle cx="760" cy="320" r="105" fill="none" stroke="#FFFFFF" stroke-opacity="0.56" stroke-width="3"/>
  <ellipse cx="730.6" cy="282.2" rx="18.9" ry="8.4" fill="#FFFFFF" opacity="0.42" transform="rotate(-22 730.6 282.2)"/>
  <circle cx="1251" cy="2685" r="152" fill="url(#orb_achievements_11_2371)" opacity="0.25"/>
  <circle cx="1251" cy="2685" r="152" fill="#A7F3EF" opacity="0.08"/>
  <circle cx="1251" cy="2685" r="152" fill="none" stroke="#FFFFFF" stroke-opacity="0.56" stroke-width="3"/>
  <ellipse cx="1208.4" cy="2630.3" rx="27.4" ry="12.2" fill="#FFFFFF" opacity="0.42" transform="rotate(-22 1208.4 2630.3)"/>
  <circle cx="460" cy="29" r="220" fill="url(#orb_achievements_11_2371)" opacity="0.22"/>
  <circle cx="460" cy="29" r="220" fill="#D8E8FF" opacity="0.08"/>
  <circle cx="460" cy="29" r="220" fill="none" stroke="#FFFFFF" stroke-opacity="0.56" stroke-width="3"/>
  <ellipse cx="398.4" cy="-50.2" rx="39.6" ry="17.6" fill="#FFFFFF" opacity="0.42" transform="rotate(-22 398.4 -50.2)"/>
  <circle cx="94" cy="158" r="212" fill="url(#orb_achievements_11_2371)" opacity="0.22"/>
  <circle cx="94" cy="158" r="212" fill="#A7F3EF" opacity="0.08"/>
  <circle cx="94" cy="158" r="212" fill="none" stroke="#FFFFFF" stroke-opacity="0.56" stroke-width="3"/>
  <ellipse cx="34.6" cy="81.7" rx="38.2" ry="17.0" fill="#FFFFFF" opacity="0.42" transform="rotate(-22 34.6 81.7)"/>
  <circle cx="229" cy="234" r="5" fill="#FFFFFF" opacity="0.51"/>
  <circle cx="1150" cy="927" r="5" fill="#FFFFFF" opacity="0.46"/>
  <circle cx="804" cy="495" r="4" fill="#FFFFFF" opacity="0.35"/>
  <circle cx="508" cy="2106" r="2" fill="#FFFFFF" opacity="0.30"/>
  <circle cx="986" cy="1222" r="5" fill="#FFFFFF" opacity="0.54"/>
  <circle cx="465" cy="1529" r="2" fill="#FFFFFF" opacity="0.44"/>
  <circle cx="562" cy="2168" r="3" fill="#FFFFFF" opacity="0.69"/>
  <circle cx="524" cy="915" r="4" fill="#FFFFFF" opacity="0.43"/>
  <circle cx="860" cy="2263" r="7" fill="#FFFFFF" opacity="0.43"/>
  <circle cx="729" cy="898" r="3" fill="#FFFFFF" opacity="0.36"/>
  <circle cx="1041" cy="155" r="5" fill="#FFFFFF" opacity="0.29"/>
  <rect width="1200" height="2600" fill="#FFFFFF" opacity="0.08"/>
  <rect width="1200" height="2600" filter="url(#grain_achievements_11_2371)" opacity="0.7"/>
</svg>
