<svg xmlns="http://www.w3.org/2000/svg" width="1200" height="2600" viewBox="0 0 1200 2600" preserveAspectRatio="xMidYMid slice">
  <defs>
    <linearGradient id="bg_achievements_07_2392" x1="0" y1="0" x2="1" y2="1">
      <stop offset="0%" stop-color="#C9FFF2"/>
      <stop offset="48%" stop-color="#DFFFD3"/>
      <stop offset="100%" stop-color="#D8E8FF"/>
    </linearGradient>
    <radialGradient id="orb_achievements_07_2392" cx="35%" cy="30%" r="70%">
      <stop offset="0%" stop-color="#FFFFFF" stop-opacity="0.85"/>
      <stop offset="42%" stop-color="#FFFFFF" stop-opacity="0.20"/>
      <stop offset="100%" stop-color="#FFFFFF" stop-opacity="0.02"/>
    </radialGradient>
    <filter id="blur_achievements_07_2392" x="-30%" y="-30%" width="160%" height="160%">
      <feGaussianBlur stdDeviation="72"/>
    </filter>
    <filter id="soft_achievements_07_2392" x="-20%" y="-20%" width="140%" height="140%">
      <feGaussianBlur stdDeviation="10"/>
    </filter>
    <filter id="grain_achievements_07_2392">
      <feTurbulence type="fractalNoise" baseFrequency="0.85" numOctaves="2" stitchTiles="stitch"/>
      <feColorMatrix type="saturate" values="0"/>
      <feComponentTransfer>
        <feFuncA type="table" tableValues="0 0.035"/>
      </feComponentTransfer>
    </filter>
  </defs>
  <rect width="1200" height="2600" fill="url(#bg_achievements_07_2392)"/>
  <path d="M 1571.6 543.0 C 1571.6 822.0, 1557.4 746.4, 1482.2 960.1 C 1407.0 1173.9, 1464.8 1003.8, 1349.6 1052.3 C 1234.4 1100.7, 1275.5 1256.7, 1174.2 1117.2 C 1072.9 977.7, 1124.2 1036.4, 1084.2 774.2 C 1044.2 512.1, 1051.7 610.0, 1091.8 347.8 C 1131.8 85.7, 1071.8 175.1, 1173.2 35.6 C 1274.5 -103.9, 1228.4 -33.1, 1343.6 15.4 C 1458.8 63.8, 1407.9 -94.1, 1483.1 119.6 C 1558.3 333.4, 1571.6 264.0, 1571.6 543.0 Z" fill="#7EE56D" opacity="0.22" filter="url(#blur_achievements_07_2392)"/>
  <path d="M 221.8 1424.0 C 221.8 1709.3, 231.0 1547.4, 155.8 1766.0 C 80.6 1984.5, 153.1 1947.4, 37.9 1996.9 C -77.4 2046.5, -43.8 2126.0, -145.1 1983.4 C -246.5 1840.7, -220.6 1893.5, -260.7 1625.4 C -300.7 1357.3, -300.3 1469.7, -260.3 1201.6 C -220.3 933.5, -223.4 1061.9, -122.1 919.2 C -20.8 776.6, -77.3 734.3, 37.9 783.9 C 153.1 833.4, 83.0 852.6, 158.2 1071.1 C 233.4 1289.7, 221.8 1138.7, 221.8 1424.0 Z" fill="#80B9FF" opacity="0.17" filter="url(#blur_achievements_07_2392)"/>
  <path d="M 508.3 666.0 C 508.3 963.9, 515.8 850.8, 428.8 1079.0 C 341.7 1307.3, 371.1 1242.1, 237.7 1293.8 C 104.3 1345.5, 130.2 1487.8, 12.9 1338.9 C -104.4 1189.9, -66.9 1138.3, -113.2 858.4 C -159.5 578.4, -147.3 714.3, -101.0 434.4 C -54.7 154.5, -108.2 337.9, 9.1 188.9 C 126.4 40.0, 109.8 -59.5, 243.2 -7.8 C 376.6 43.9, 291.4 -28.8, 378.5 199.4 C 465.5 427.6, 508.3 368.1, 508.3 666.0 Z" fill="#80B9FF" opacity="0.38" filter="url(#blur_achievements_07_2392)"/>
  <path d="M 519.4 698.0 C 519.4 925.7, 510.1 887.6, 417.0 1062.0 C 323.8 1236.4, 353.9 1181.3, 211.2 1220.8 C 68.5 1260.4, 110.1 1294.9, -15.4 1181.1 C -140.9 1067.2, -55.5 1088.0, -105.0 874.1 C -154.6 660.1, -153.9 763.9, -104.3 550.0 C -54.8 336.0, -115.4 333.4, 10.1 219.6 C 135.6 105.7, 67.0 99.3, 209.7 138.8 C 352.4 178.4, 325.4 242.8, 418.5 417.3 C 511.6 591.7, 519.4 470.3, 519.4 698.0 Z" fill="#D8E8FF" opacity="0.33" filter="url(#blur_achievements_07_2392)"/>
  <path d="M 647.9 2594.0 C 647.9 2742.9, 739.8 2694.9, 642.9 2809.0 C 546.0 2923.1, 548.4 2883.6, 399.9 2909.4 C 251.5 2935.3, 319.6 2954.3, 189.1 2879.9 C 58.5 2805.4, 67.9 2862.0, 16.3 2722.0 C -35.2 2582.1, 8.8 2633.0, 60.4 2493.0 C 111.9 2353.1, 50.3 2367.7, 180.9 2293.3 C 311.4 2218.8, 253.8 2222.5, 402.2 2248.4 C 550.7 2274.3, 531.5 2269.2, 628.4 2383.3 C 725.3 2497.4, 647.9 2445.1, 647.9 2594.0 Z" fill="#38D5C7" opacity="0.22" filter="url(#blur_achievements_07_2392)"/>
  <path d="M 908.8 2579.0 C 908.8 2875.1, 864.4 2775.6, 759.4 3002.4 C 654.4 3229.3, 695.8 3111.5, 534.9 3162.9 C 374.1 3214.3, 439.0 3391.2, 297.6 3243.2 C 156.1 3095.1, 224.6 3060.2, 168.8 2782.0 C 112.9 2503.7, 126.0 2639.9, 181.9 2361.6 C 237.7 2083.4, 139.2 2099.7, 280.7 1951.6 C 422.1 1803.6, 381.0 1968.6, 541.9 2020.1 C 702.8 2071.5, 679.2 1976.2, 784.2 2203.0 C 889.2 2429.8, 908.8 2282.9, 908.8 2579.0 Z" fill="#C9FFF2" opacity="0.32" filter="url(#blur_achievements_07_2392)"/>
  <path d="M 602.5 877.0 C 602.5 1159.2, 632.5 1014.0, 550.9 1230.1 C 469.4 1446.3, 528.1 1341.2, 403.1 1390.2 C 278.1 1439.2, 327.4 1520.5, 217.5 1379.4 C 107.6 1238.3, 171.0 1389.0, 127.6 1123.9 C 84.2 858.8, 19.5 919.6, 62.9 654.5 C 106.3 389.4, 122.0 465.3, 231.9 324.2 C 341.8 183.1, 270.0 108.8, 395.0 157.8 C 520.0 206.8, 514.6 258.7, 596.2 474.8 C 677.7 691.0, 602.5 594.8, 602.5 877.0 Z" fill="#80B9FF" opacity="0.19" filter="url(#blur_achievements_07_2392)"/>
  <path d="M 1482.2 1073.0 C 1482.2 1266.0, 1564.1 1176.1, 1475.3 1324.0 C 1386.5 1471.9, 1399.6 1467.2, 1263.6 1500.7 C 1127.5 1534.3, 1172.1 1596.7, 1052.4 1500.2 C 932.8 1403.6, 971.1 1382.1, 923.9 1200.7 C 876.6 1019.3, 882.5 1093.1, 929.8 911.6 C 977.0 730.2, 946.8 807.3, 1066.5 710.8 C 1186.1 614.2, 1128.8 683.7, 1264.8 717.2 C 1400.9 750.7, 1336.0 608.6, 1424.8 756.4 C 1513.6 904.3, 1482.2 880.0, 1482.2 1073.0 Z" fill="#7EE56D" opacity="0.18" filter="url(#blur_achievements_07_2392)"/>
  <path d="M 447.7 2660.0 C 447.7 2888.6, 494.6 2832.4, 418.0 3007.6 C 341.3 3182.7, 351.8 3076.3, 234.3 3116.0 C 116.9 3155.6, 177.6 3158.7, 74.4 3044.4 C -28.9 2930.1, -41.8 3026.1, -82.6 2811.3 C -123.4 2596.5, -61.8 2700.3, -21.0 2485.4 C 19.8 2270.6, -47.9 2344.0, 55.4 2229.7 C 158.6 2115.4, 107.3 2153.5, 224.7 2193.2 C 342.2 2232.9, 278.0 2125.5, 354.7 2300.6 C 431.3 2475.7, 447.7 2431.4, 447.7 2660.0 Z" fill="#D8E8FF" opacity="0.23" filter="url(#blur_achievements_07_2392)"/>
  <path d="M 1312.4 229.0 C 1312.4 425.6, 1278.5 326.3, 1206.5 476.9 C 1134.4 627.5, 1171.4 696.0, 1061.1 730.2 C 950.7 764.3, 996.5 675.9, 899.5 577.5 C 802.4 479.2, 822.8 589.7, 784.5 404.9 C 746.2 220.1, 777.5 239.9, 815.8 55.1 C 854.1 -129.7, 782.4 -76.0, 879.4 -174.4 C 976.5 -272.7, 950.3 -270.7, 1060.7 -236.6 C 1171.0 -202.4, 1121.2 -220.3, 1193.2 -69.7 C 1265.2 81.0, 1312.4 32.3, 1312.4 229.0 Z" fill="#7EE56D" opacity="0.34" filter="url(#blur_achievements_07_2392)"/>
  <path d="M 574.9 1810.0 C 574.9 1950.0, 590.0 1898.2, 488.4 2005.4 C 386.9 2112.6, 447.8 2051.3, 292.2 2075.6 C 136.7 2099.9, 189.5 2104.2, 52.7 2034.2 C -84.0 1964.3, -101.6 2059.5, -155.6 1927.9 C -209.7 1796.4, -185.4 1839.8, -131.4 1708.3 C -77.4 1576.7, -78.3 1646.2, 58.5 1576.3 C 195.3 1506.3, 131.3 1453.8, 286.9 1478.1 C 442.4 1502.4, 381.4 1506.1, 483.0 1613.3 C 584.5 1720.5, 574.9 1670.0, 574.9 1810.0 Z" fill="#D8E8FF" opacity="0.25" filter="url(#blur_achievements_07_2392)"/>
  <path d="M 1332.6 1444.0 C 1332.6 1664.0, 1362.6 1619.4, 1227.5 1788.0 C 1092.5 1956.5, 1136.5 1920.4, 929.6 1958.6 C 722.6 1996.8, 783.2 1966.4, 601.2 1856.4 C 419.2 1746.3, 560.2 1802.7, 488.3 1595.9 C 416.4 1389.2, 274.3 1494.8, 346.1 1288.1 C 418.0 1081.3, 453.5 1155.0, 635.5 1044.9 C 817.5 934.9, 728.0 950.0, 935.0 988.2 C 1142.0 1026.4, 1136.7 942.8, 1271.8 1111.4 C 1406.9 1280.0, 1332.6 1224.0, 1332.6 1444.0 Z" fill="#C9FFF2" opacity="0.26" filter="url(#blur_achievements_07_2392)"/>
  <path d="M 577.4 350.0 C 577.4 522.4, 611.6 425.7, 464.7 557.8 C 317.7 689.8, 451.9 671.6, 226.8 701.5 C 1.7 731.4, 59.4 767.9, -138.6 681.8 C -336.6 595.6, -239.6 662.0, -317.8 500.1 C -396.0 338.1, -353.5 386.8, -275.3 224.8 C -197.1 62.9, -323.3 140.4, -125.3 54.3 C 72.7 -31.9, -24.6 -104.8, 200.5 -74.9 C 425.6 -45.0, 430.4 -27.9, 577.4 104.2 C 724.3 236.2, 577.4 177.7, 577.4 350.0 Z" fill="#7EE56D" opacity="0.18" filter="url(#blur_achievements_07_2392)"/>
  <path d="M 954.6 1548.0 C 954.6 1817.5, 981.5 1726.2, 882.8 1944.3 C 784.2 2162.3, 854.8 1999.6, 695.2 2082.9 C 535.5 2166.2, 622.4 2209.3, 462.7 2126.0 C 303.1 2042.7, 358.5 2091.2, 259.9 1873.1 C 161.2 1655.0, 245.1 1817.5, 245.1 1548.0 C 245.1 1278.5, 148.3 1424.3, 247.0 1206.2 C 345.7 988.1, 304.9 1038.6, 464.5 955.3 C 624.2 872.0, 547.6 904.0, 707.2 987.3 C 866.8 1070.6, 798.0 954.9, 896.7 1173.0 C 995.3 1391.1, 954.6 1278.5, 954.6 1548.0 Z" fill="#7EE56D" opacity="0.12" stroke="#7EE56D" stroke-opacity="0.46" stroke-width="3" filter="url(#soft_achievements_07_2392)"/>
  <path d="M 954.6 1548.0 C 954.6 1817.5, 981.5 1726.2, 882.8 1944.3 C 784.2 2162.3, 854.8 1999.6, 695.2 2082.9 C 535.5 2166.2, 622.4 2209.3, 462.7 2126.0 C 303.1 2042.7, 358.5 2091.2, 259.9 1873.1 C 161.2 1655.0, 245.1 1817.5, 245.1 1548.0 C 245.1 1278.5, 148.3 1424.3, 247.0 1206.2 C 345.7 988.1, 304.9 1038.6, 464.5 955.3 C 624.2 872.0, 547.6 904.0, 707.2 987.3 C 866.8 1070.6, 798.0 954.9, 896.7 1173.0 C 995.3 1391.1, 954.6 1278.5, 954.6 1548.0 Z" fill="none" stroke="#FFFFFF" stroke-opacity="0.22" stroke-width="1.2"/>
  <path d="M 522.7 1695.0 C 522.7 1853.0, 612.2 1794.4, 452.2 1922.2 C 292.2 2049.9, 375.8 1984.0, 116.9 2032.8 C -142.0 2081.6, 23.9 2070.0, -235.1 2021.2 C -494.0 1972.4, -422.0 2038.8, -582.0 1911.0 C -742.1 1783.3, -730.0 1853.0, -730.0 1695.0 C -730.0 1537.0, -690.9 1620.7, -530.9 1492.9 C -370.9 1365.1, -518.8 1400.5, -259.8 1351.7 C -0.9 1302.9, -108.6 1290.5, 150.4 1339.3 C 409.3 1388.1, 262.6 1370.7, 422.6 1498.5 C 582.6 1626.3, 522.7 1537.0, 522.7 1695.0 Z" fill="#FAFFFB" opacity="0.12" stroke="#FFFFFF" stroke-opacity="0.46" stroke-width="3" filter="url(#soft_achievements_07_2392)"/>
  <path d="M 522.7 1695.0 C 522.7 1853.0, 612.2 1794.4, 452.2 1922.2 C 292.2 2049.9, 375.8 1984.0, 116.9 2032.8 C -142.0 2081.6, 23.9 2070.0, -235.1 2021.2 C -494.0 1972.4, -422.0 2038.8, -582.0 1911.0 C -742.1 1783.3, -730.0 1853.0, -730.0 1695.0 C -730.0 1537.0, -690.9 1620.7, -530.9 1492.9 C -370.9 1365.1, -518.8 1400.5, -259.8 1351.7 C -0.9 1302.9, -108.6 1290.5, 150.4 1339.3 C 409.3 1388.1, 262.6 1370.7, 422.6 1498.5 C 582.6 1626.3, 522.7 1537.0, 522.7 1695.0 Z" fill="none" stroke="#FFFFFF" stroke-opacity="0.22" stroke-width="1.2"/>
  <path d="M 761.1 2281.0 C 761.1 2475.8, 771.4 2348.4, 699.5 2506.1 C 627.5 2663.7, 701.5 2589.0, 585.1 2649.2 C 468.7 2709.4, 533.3 2712.5, 416.9 2652.3 C 300.5 2592.1, 353.5 2665.8, 281.5 2508.1 C 209.6 2350.5, 236.6 2475.8, 236.6 2281.0 C 236.6 2086.2, 183.3 2201.5, 255.2 2043.8 C 327.2 1886.2, 302.4 1935.1, 418.8 1874.9 C 535.2 1814.7, 471.5 1811.0, 587.9 1871.2 C 704.3 1931.4, 663.1 1873.1, 735.1 2030.7 C 807.0 2188.3, 761.1 2086.2, 761.1 2281.0 Z" fill="#80B9FF" opacity="0.12" stroke="#80B9FF" stroke-opacity="0.46" stroke-width="3" filter="url(#soft_achievements_07_2392)"/>
  <path d="M 761.1 2281.0 C 761.1 2475.8, 771.4 2348.4, 699.5 2506.1 C 627.5 2663.7, 701.5 2589.0, 585.1 2649.2 C 468.7 2709.4, 533.3 2712.5, 416.9 2652.3 C 300.5 2592.1, 353.5 2665.8, 281.5 2508.1 C 209.6 2350.5, 236.6 2475.8, 236.6 2281.0 C 236.6 2086.2, 183.3 2201.5, 255.2 2043.8 C 327.2 1886.2, 302.4 1935.1, 418.8 1874.9 C 535.2 1814.7, 471.5 1811.0, 587.9 1871.2 C 704.3 1931.4, 663.1 1873.1, 735.1 2030.7 C 807.0 2188.3, 761.1 2086.2, 761.1 2281.0 Z" fill="none" stroke="#FFFFFF" stroke-opacity="0.22" stroke-width="1.2"/>
  <path d="M 1636.9 1054.0 C 1636.9 1255.2, 1753.9 1128.5, 1626.7 1291.2 C 1499.4 1453.9, 1556.9 1398.8, 1351.0 1460.9 C 1145.2 1523.1, 1260.2 1517.6, 1054.4 1455.4 C 848.5 1393.3, 969.3 1475.0, 842.1 1312.3 C 714.9 1149.5, 719.0 1255.2, 719.0 1054.0 C 719.0 852.9, 666.2 934.7, 793.4 771.9 C 920.6 609.2, 875.1 636.9, 1081.0 574.8 C 1286.8 512.6, 1155.4 624.7, 1361.2 686.8 C 1567.1 749.0, 1454.7 638.1, 1582.0 800.8 C 1709.2 963.6, 1636.9 852.9, 1636.9 1054.0 Z" fill="#7EE56D" opacity="0.12" stroke="#FFFFFF" stroke-opacity="0.46" stroke-width="3" filter="url(#soft_achievements_07_2392)"/>
  <path d="M 1636.9 1054.0 C 1636.9 1255.2, 1753.9 1128.5, 1626.7 1291.2 C 1499.4 1453.9, 1556.9 1398.8, 1351.0 1460.9 C 1145.2 1523.1, 1260.2 1517.6, 1054.4 1455.4 C 848.5 1393.3, 969.3 1475.0, 842.1 1312.3 C 714.9 1149.5, 719.0 1255.2, 719.0 1054.0 C 719.0 852.9, 666.2 934.7, 793.4 771.9 C 920.6 609.2, 875.1 636.9, 1081.0 574.8 C 1286.8 512.6, 1155.4 624.7, 1361.2 686.8 C 1567.1 749.0, 1454.7 638.1, 1582.0 800.8 C 1709.2 963.6, 1636.9 852.9, 1636.9 1054.0 Z" fill="none" stroke="#FFFFFF" stroke-opacity="0.22" stroke-width="1.2"/>
  <path d="M 1029.0 2643.0 C 1029.0 2862.2, 975.8 2765.8, 813.9 2943.1 C 652.0 3120.4, 789.6 3101.7, 527.6 3169.5 C 265.7 3237.2, 412.6 3133.0, 150.6 3065.3 C -111.3 2997.5, 20.8 3144.2, -141.1 2966.9 C -303.0 2789.6, -246.5 2862.2, -246.5 2643.0 C -246.5 2423.8, -262.1 2566.9, -100.3 2389.6 C 61.6 2212.3, -98.7 2290.0, 163.2 2222.3 C 425.1 2154.6, 286.7 2072.9, 548.6 2140.7 C 810.5 2208.4, 748.6 2196.0, 910.5 2373.3 C 1072.4 2550.6, 1029.0 2423.8, 1029.0 2643.0 Z" fill="#DFFFD3" opacity="0.12" stroke="#FFFFFF" stroke-opacity="0.46" stroke-width="3" filter="url(#soft_achievements_07_2392)"/>
  <path d="M 1029.0 2643.0 C 1029.0 2862.2, 975.8 2765.8, 813.9 2943.1 C 652.0 3120.4, 789.6 3101.7, 527.6 3169.5 C 265.7 3237.2, 412.6 3133.0, 150.6 3065.3 C -111.3 2997.5, 20.8 3144.2, -141.1 2966.9 C -303.0 2789.6, -246.5 2862.2, -246.5 2643.0 C -246.5 2423.8, -262.1 2566.9, -100.3 2389.6 C 61.6 2212.3, -98.7 2290.0, 163.2 2222.3 C 425.1 2154.6, 286.7 2072.9, 548.6 2140.7 C 810.5 2208.4, 748.6 2196.0, 910.5 2373.3 C 1072.4 2550.6, 1029.0 2423.8, 1029.0 2643.0 Z" fill="none" stroke="#FFFFFF" stroke-opacity="0.22" stroke-width="1.2"/>
  <path d="M -100.0 902.3 Q 133.3 780.6, 366.7 715.4 Q 600.0 743.2, 833.3 763.6 Q 1066.7 1005.9, 1300.0 1060.1" fill="none" stroke="#FFFFFF" stroke-opacity="0.38" stroke-width="4" filter="url(#soft_achievements_07_2392)"/>
  <path d="M -100.0 902.3 Q 133.3 780.6, 366.7 715.4 Q 600.0 743.2, 833.3 763.6 Q 1066.7 1005.9, 1300.0 1060.1" fill="none" stroke="#7EE56D" stroke-opacity="0.18" stroke-width="2"/>
  <path d="M -100.0 1117.5 Q 133.3 1277.5, 366.7 1510.2 Q 600.0 1688.1, 833.3 1306.8 Q 1066.7 1080.1, 1300.0 1204.5" fill="none" stroke="#FFFFFF" stroke-opacity="0.38" stroke-width="4" filter="url(#soft_achievements_07_2392)"/>
  <path d="M -100.0 1117.5 Q 133.3 1277.5, 366.7 1510.2 Q 600.0 1688.1, 833.3 1306.8 Q 1066.7 1080.1, 1300.0 1204.5" fill="none" stroke="#80B9FF" stroke-opacity="0.18" stroke-width="2"/>
  <path d="M -100.0 273.9 Q 133.3 408.4, 366.7 348.7 Q 600.0 238.0, 833.3 -30.1 Q 1066.7 126.5, 1300.0 408.6" fill="none" stroke="#FFFFFF" stroke-opacity="0.38" stroke-width="4" filter="url(#soft_achievements_07_2392)"/>
  <path d="M -100.0 273.9 Q 133.3 408.4, 366.7 348.7 Q 600.0 238.0, 833.3 -30.1 Q 1066.7 126.5, 1300.0 408.6" fill="none" stroke="#80B9FF" stroke-opacity="0.18" stroke-width="2"/>
  <path d="M -100.0 642.6 Q 133.3 760.9, 366.7 959.2 Q 600.0 1148.8, 833.3 1135.8 Q 1066.7 1097.5, 1300.0 841.4" fill="none" stroke="#FFFFFF" stroke-opacity="0.38" stroke-width="4" filter="url(#soft_achievements_07_2392)"/>
  <path d="M -100.0 642.6 Q 133.3 760.9, 366.7 959.2 Q 600.0 1148.8, 833.3 1135.8 Q 1066.7 1097.5, 1300.0 841.4" fill="none" stroke="#7EE56D" stroke-opacity="0.18" stroke-width="2"/>
  <path d="M -100.0 1902.1 Q 133.3 2126.6, 366.7 2387.1 Q 600.0 2503.7, 833.3 2168.7 Q 1066.7 1985.6, 1300.0 2060.3" fill="none" stroke="#FFFFFF" stroke-opacity="0.38" stroke-width="4" filter="url(#soft_achievements_07_2392)"/>
  <path d="M -100.0 1902.1 Q 133.3 2126.6, 366.7 2387.1 Q 600.0 2503.7, 833.3 2168.7 Q 1066.7 1985.6, 1300.0 2060.3" fill="none" stroke="#80B9FF" stroke-opacity="0.18" stroke-width="2"/>
  <path d="M -100.0 -160.5 Q 133.3 7.2, 366.7 289.3 Q 600.0 13.1, 833.3 -199.1 Q 1066.7 18.5, 1300.0 136.9" fill="none" stroke="#FFFFFF" stroke-opacity="0.38" stroke-width="4" filter="url(#soft_achievements_07_2392)"/>
  <path d="M -100.0 -160.5 Q 133.3 7.2, 366.7 289.3 Q 600.0 13.1, 833.3 -199.1 Q 1066.7 18.5, 1300.0 136.9" fill="none" stroke="#38D5C7" stroke-opacity="0.18" stroke-width="2"/>
  <circle cx="-74" cy="607" r="256" fill="url(#orb_achievements_07_2392)" opacity="0.36"/>
  <circle cx="-74" cy="607" r="256" fill="#FAFFFB" opacity="0.08"/>
  <circle cx="-74" cy="607" r="256" fill="none" stroke="#FFFFFF" stroke-opacity="0.56" stroke-width="3"/>
  <ellipse cx="-145.7" cy="514.8" rx="46.1" ry="20.5" fill="#FFFFFF" opacity="0.42" transform="rotate(-22 -145.7 514.8)"/>
  <circle cx="149" cy="1811" r="163" fill="url(#orb_achievements_07_2392)" opacity="0.36"/>
  <circle cx="149" cy="1811" r="163" fill="#DFFFD3" opacity="0.08"/>
  <circle cx="149" cy="1811" r="163" fill="none" stroke="#FFFFFF" stroke-opacity="0.56" stroke-width="3"/>
  <ellipse cx="103.4" cy="1752.3" rx="29.3" ry="13.0" fill="#FFFFFF" opacity="0.42" transform="rotate(-22 103.4 1752.3)"/>
  <circle cx="241" cy="431" r="231" fill="url(#orb_achievements_07_2392)" opacity="0.36"/>
  <circle cx="241" cy="431" r="231" fill="#7EE56D" opacity="0.08"/>
  <circle cx="241" cy="431" r="231" fill="none" stroke="#FFFFFF" stroke-opacity="0.56" stroke-width="3"/>
  <ellipse cx="176.3" cy="347.8" rx="41.6" ry="18.5" fill="#FFFFFF" opacity="0.42" transform="rotate(-22 176.3 347.8)"/>
  <circle cx="959" cy="2074" r="124" fill="url(#orb_achievements_07_2392)" opacity="0.21"/>
  <circle cx="959" cy="2074" r="124" fill="#A7F3EF" opacity="0.08"/>
  <circle cx="959" cy="2074" r="124" fill="none" stroke="#FFFFFF" stroke-opacity="0.56" stroke-width="3"/>
  <ellipse cx="924.3" cy="2029.4" rx="22.3" ry="9.9" fill="#FFFFFF" opacity="0.42" transform="rotate(-22 924.3 2029.4)"/>
  <circle cx="843" cy="1422" r="129" fill="url(#orb_achievements_07_2392)" opacity="0.25"/>
  <circle cx="843" cy="1422" r="129" fill="#A7F3EF" opacity="0.08"/>
  <circle cx="843" cy="1422" r="129" fill="none" stroke="#FFFFFF" stroke-opacity="0.56" stroke-width="3"/>
  <ellipse cx="806.9" cy="1375.6" rx="23.2" ry="10.3" fill="#FFFFFF" opacity="0.42" transform="rotate(-22 806.9 1375.6)"/>
  <circle cx="322" cy="1501" r="106" fill="url(#orb_achievements_07_2392)" opacity="0.26"/>
  <circle cx="322" cy="1501" r="106" fill="#FAFFFB" opacity="0.08"/>
  <circle cx="322" cy="1501" r="106" fill="none" stroke="#FFFFFF" stroke-opacity="0.56" stroke-width="3"/>
  <ellipse cx="292.3" cy="1462.8" rx="19.1" ry="8.5" fill="#FFFFFF" opacity="0.42" transform="rotate(-22 292.3 1462.8)"/>
  <circle cx="59" cy="1744" r="2" fill="#FFFFFF" opacity="0.60"/>
  <circle cx="316" cy="1310" r="7" fill="#FFFFFF" opacity="0.66"/>
  <circle cx="471" cy="2178" r="2" fill="#FFFFFF" opacity="0.57"/>
  <circle cx="210" cy="1122" r="7" fill="#FFFFFF" opacity="0.53"/>
  <circle cx="560" cy="709" r="2" fill="#FFFFFF" opacity="0.40"/>
  <circle cx="103" cy="706" r="5" fill="#FFFFFF" opacity="0.69"/>
  <circle cx="519" cy="382" r="3" fill="#FFFFFF" opacity="0.70"/>
  <circle cx="451" cy="564" r="4" fill="#FFFFFF" opacity="0.46"/>
  <circle cx="2" cy="1863" r="5" fill="#FFFFFF" opacity="0.64"/>
  <circle cx="298" cy="182" r="4" fill="#FFFFFF" opacity="0.53"/>
  <circle cx="620" cy="631" r="5" fill="#FFFFFF" opacity="0.41"/>
  <circle cx="627" cy="2299" r="7" fill="#FFFFFF" opacity="0.69"/>
  <circle cx="367" cy="288" r="7" fill="#FFFFFF" opacity="0.59"/>
  <circle cx="933" cy="84" r="4" fill="#FFFFFF" opacity="0.47"/>
  <circle cx="291" cy="1443" r="5" fill="#FFFFFF" opacity="0.45"/>
  <circle cx="181" cy="925" r="4" fill="#FFFFFF" opacity="0.43"/>
  <circle cx="85" cy="1228" r="5" fill="#FFFFFF" opacity="0.60"/>
  <circle cx="255" cy="605" r="7" fill="#FFFFFF" opacity="0.38"/>
  <rect width="1200" height="2600" fill="#FFFFFF" opacity="0.08"/>
  <rect width="1200" height="2600" filter="url(#grain_achievements_07_2392)" opacity="0.7"/>
</svg>
