<svg xmlns="http://www.w3.org/2000/svg" width="1200" height="2600" viewBox="0 0 1200 2600" preserveAspectRatio="xMidYMid slice">
  <defs>
    <linearGradient id="bg_achievements_02_9026" x1="0" y1="0" x2="1" y2="1">
      <stop offset="0%" stop-color="#FAFFFB"/>
      <stop offset="48%" stop-color="#DFFFD3"/>
      <stop offset="100%" stop-color="#A7F3EF"/>
    </linearGradient>
    <radialGradient id="orb_achievements_02_9026" cx="35%" cy="30%" r="70%">
      <stop offset="0%" stop-color="#FFFFFF" stop-opacity="0.85"/>
      <stop offset="42%" stop-color="#FFFFFF" stop-opacity="0.20"/>
      <stop offset="100%" stop-color="#FFFFFF" stop-opacity="0.02"/>
    </radialGradient>
    <filter id="blur_achievements_02_9026" x="-30%" y="-30%" width="160%" height="160%">
      <feGaussianBlur stdDeviation="72"/>
    </filter>
    <filter id="soft_achievements_02_9026" x="-20%" y="-20%" width="140%" height="140%">
      <feGaussianBlur stdDeviation="10"/>
    </filter>
    <filter id="grain_achievements_02_9026">
      <feTurbulence type="fractalNoise" baseFrequency="0.85" numOctaves="2" stitchTiles="stitch"/>
      <feColorMatrix type="saturate" values="0"/>
      <feComponentTransfer>
        <feFuncA type="table" tableValues="0 0.035"/>
      </feComponentTransfer>
    </filter>
  </defs>
  <rect width="1200" height="2600" fill="url(#bg_achievements_02_9026)"/>
  <path d="M 1091.1 1965.0 C 1091.1 2105.8, 1182.4 2076.2, 1106.7 2184.1 C 1030.9 2292.0, 1042.4 2304.1, 926.3 2328.6 C 810.2 2353.1, 866.3 2306.8, 764.1 2236.4 C 662.0 2165.9, 678.9 2187.6, 638.6 2055.2 C 598.2 1922.9, 571.9 2003.7, 612.2 1871.4 C 652.5 1739.0, 650.8 1719.1, 752.9 1648.7 C 855.0 1578.2, 798.7 1636.5, 914.9 1661.0 C 1031.0 1685.4, 995.3 1634.7, 1071.1 1742.6 C 1146.8 1850.4, 1091.1 1824.2, 1091.1 1965.0 Z" fill="#DFFFD3" opacity="0.24" filter="url(#blur_achievements_02_9026)"/>
  <path d="M 1350.3 845.0 C 1350.3 1114.5, 1366.4 1016.7, 1286.5 1223.2 C 1206.7 1429.6, 1235.0 1490.7, 1112.7 1537.5 C 990.4 1584.3, 1056.6 1527.3, 949.0 1392.5 C 841.5 1257.7, 838.4 1302.6, 795.9 1049.4 C 753.4 796.1, 731.9 863.7, 774.4 610.4 C 816.9 357.1, 819.7 449.9, 927.3 315.1 C 1034.8 180.3, 1002.6 204.5, 1124.9 251.3 C 1247.2 298.1, 1217.9 257.6, 1297.7 464.1 C 1377.5 670.5, 1350.3 575.5, 1350.3 845.0 Z" fill="#7EE56D" opacity="0.36" filter="url(#blur_achievements_02_9026)"/>
  <path d="M 698.9 1926.0 C 698.9 2240.1, 677.6 2138.6, 594.2 2379.2 C 510.9 2619.8, 591.8 2560.9, 464.2 2615.4 C 336.6 2670.0, 406.5 2638.9, 294.3 2481.9 C 182.0 2324.8, 193.4 2494.6, 149.0 2199.4 C 104.7 1904.3, 86.0 1988.9, 130.3 1693.7 C 174.6 1398.6, 132.5 1583.6, 244.8 1426.6 C 357.0 1269.5, 326.4 1293.0, 454.1 1347.5 C 581.7 1402.1, 530.5 1286.4, 613.8 1527.0 C 697.1 1767.6, 698.9 1611.9, 698.9 1926.0 Z" fill="#C9FFF2" opacity="0.31" filter="url(#blur_achievements_02_9026)"/>
  <path d="M 1279.2 -71.0 C 1279.2 194.5, 1333.0 57.7, 1231.7 261.1 C 1130.5 464.5, 1146.4 484.4, 991.3 530.5 C 836.2 576.6, 856.4 603.2, 720.0 470.5 C 583.6 337.7, 637.2 395.4, 583.4 145.9 C 529.5 -103.6, 587.4 -39.1, 641.3 -288.6 C 695.2 -538.1, 631.8 -515.4, 768.2 -648.1 C 904.6 -780.9, 833.9 -684.2, 989.0 -638.1 C 1144.1 -592.0, 1119.7 -656.3, 1220.9 -452.9 C 1322.2 -249.6, 1279.2 -336.5, 1279.2 -71.0 Z" fill="#38D5C7" opacity="0.35" filter="url(#blur_achievements_02_9026)"/>
  <path d="M 496.1 118.0 C 496.1 343.5, 479.4 283.4, 351.5 456.1 C 223.7 628.8, 290.6 562.7, 94.7 601.9 C -101.1 641.0, -74.7 672.9, -247.0 560.2 C -419.2 447.4, -330.9 491.2, -398.9 279.3 C -466.9 67.4, -506.5 129.7, -438.5 -82.1 C -370.5 -294.0, -400.9 -138.6, -228.6 -251.3 C -56.3 -364.1, -108.1 -387.6, 87.7 -348.4 C 283.6 -309.3, 196.3 -330.2, 324.1 -157.5 C 452.0 15.2, 496.1 -107.5, 496.1 118.0 Z" fill="#38D5C7" opacity="0.23" filter="url(#blur_achievements_02_9026)"/>
  <path d="M 852.1 2317.0 C 852.1 2586.1, 889.2 2458.1, 769.8 2664.2 C 650.3 2870.4, 658.1 2790.9, 475.0 2837.7 C 292.0 2884.4, 366.8 3057.6, 205.8 2923.0 C 44.9 2788.5, 125.9 2803.0, 62.3 2550.1 C -1.2 2297.3, -99.6 2346.7, -36.1 2093.8 C 27.5 1840.9, 63.1 1998.3, 224.0 1863.8 C 385.0 1729.2, 292.6 1777.2, 475.6 1823.9 C 658.6 1870.6, 634.2 1667.3, 753.7 1873.4 C 873.1 2079.6, 852.1 2047.9, 852.1 2317.0 Z" fill="#D8E8FF" opacity="0.38" filter="url(#blur_achievements_02_9026)"/>
  <path d="M 479.0 244.0 C 479.0 365.5, 556.8 324.1, 475.0 417.1 C 393.1 510.2, 411.8 488.5, 286.3 509.6 C 160.9 530.7, 237.6 535.6, 127.3 474.8 C 17.0 414.1, 51.6 455.1, 8.0 340.9 C -35.5 226.8, -19.1 263.6, 24.5 149.5 C 68.0 35.3, 17.0 58.9, 127.3 -1.8 C 237.6 -62.6, 163.0 -34.3, 288.4 -13.2 C 413.9 7.9, 343.9 7.0, 425.8 100.1 C 507.6 193.2, 479.0 122.5, 479.0 244.0 Z" fill="#38D5C7" opacity="0.35" filter="url(#blur_achievements_02_9026)"/>
  <path d="M 575.7 733.0 C 575.7 911.2, 533.7 822.7, 453.0 959.2 C 372.3 1095.7, 436.7 1133.7, 313.0 1164.6 C 189.4 1195.6, 210.5 1166.2, 101.8 1077.1 C -6.9 988.0, 26.4 1052.3, -16.5 884.8 C -59.5 717.4, -59.0 779.1, -16.1 611.7 C 26.9 444.2, 23.1 438.2, 131.8 349.1 C 240.6 260.0, 185.2 332.3, 308.8 363.3 C 432.5 394.2, 426.1 321.9, 506.8 458.4 C 587.5 594.9, 575.7 554.8, 575.7 733.0 Z" fill="#DFFFD3" opacity="0.27" filter="url(#blur_achievements_02_9026)"/>
  <path d="M 1243.9 285.0 C 1243.9 437.6, 1190.7 415.1, 1088.0 532.0 C 985.3 648.9, 1057.9 583.0, 900.6 609.5 C 743.3 636.0, 823.5 690.0, 685.2 613.7 C 546.8 537.4, 533.8 543.4, 479.2 400.0 C 424.6 256.7, 423.1 309.8, 477.8 166.4 C 532.4 23.1, 555.6 40.5, 694.0 -35.8 C 832.3 -112.1, 750.6 -119.6, 907.9 -93.2 C 1065.2 -66.7, 1002.1 -41.0, 1104.8 75.9 C 1207.5 192.8, 1243.9 132.4, 1243.9 285.0 Z" fill="#7EE56D" opacity="0.16" filter="url(#blur_achievements_02_9026)"/>
  <path d="M 750.8 2480.0 C 750.8 2721.2, 859.7 2644.5, 728.9 2829.3 C 598.2 3014.1, 645.1 2928.9, 444.8 2970.8 C 244.5 3012.7, 280.5 3055.3, 104.4 2934.7 C -71.7 2814.1, -11.8 2888.5, -81.3 2661.8 C -150.9 2435.2, -160.5 2507.1, -90.9 2280.5 C -21.4 2053.8, -31.3 2167.6, 144.8 2047.0 C 321.0 1926.4, 234.2 1826.5, 434.5 1868.4 C 634.8 1910.3, 580.9 1972.4, 711.6 2157.2 C 842.4 2342.0, 750.8 2238.8, 750.8 2480.0 Z" fill="#C9FFF2" opacity="0.27" filter="url(#blur_achievements_02_9026)"/>
  <path d="M 986.2 376.0 C 986.2 655.5, 1018.2 495.8, 911.2 709.9 C 804.2 924.0, 817.2 865.9, 653.2 914.4 C 489.2 962.9, 526.6 985.8, 382.4 846.1 C 238.2 706.4, 363.4 876.9, 306.4 614.3 C 249.5 351.7, 178.6 395.9, 235.5 133.3 C 292.5 -129.3, 247.6 -115.7, 391.8 -255.4 C 536.0 -395.2, 503.2 -279.4, 667.1 -230.9 C 831.1 -182.3, 792.5 -201.2, 899.5 12.8 C 1006.5 226.9, 986.2 96.6, 986.2 376.0 Z" fill="#80B9FF" opacity="0.20" filter="url(#blur_achievements_02_9026)"/>
  <path d="M 179.9 2845.0 C 179.9 3041.2, 298.1 2947.6, 190.2 3097.9 C 82.3 3248.2, 91.7 3271.0, -73.6 3305.1 C -238.9 3339.1, -152.4 3258.1, -297.7 3160.0 C -443.1 3061.9, -367.0 3168.2, -424.4 2983.8 C -481.8 2799.4, -549.5 2891.0, -492.1 2706.7 C -434.7 2522.3, -475.7 2536.7, -330.3 2438.6 C -185.0 2340.5, -232.1 2436.3, -66.8 2470.3 C 98.5 2504.4, 46.8 2440.5, 154.7 2590.8 C 262.6 2741.1, 179.9 2648.8, 179.9 2845.0 Z" fill="#DFFFD3" opacity="0.20" filter="url(#blur_achievements_02_9026)"/>
  <path d="M 1182.8 1377.0 C 1182.8 1644.8, 1304.3 1514.1, 1160.8 1719.2 C 1017.4 1924.3, 1027.5 1845.7, 807.7 1892.2 C 587.9 1938.7, 644.4 2070.8, 451.1 1936.9 C 257.8 1803.1, 336.6 1842.0, 260.2 1590.4 C 183.9 1338.8, 160.5 1406.7, 236.8 1155.1 C 313.2 903.5, 261.3 1027.3, 454.6 893.4 C 647.9 759.5, 599.8 787.3, 819.7 833.8 C 1039.5 880.3, 959.2 756.3, 1102.7 961.4 C 1246.1 1166.6, 1182.8 1109.2, 1182.8 1377.0 Z" fill="#DFFFD3" opacity="0.28" filter="url(#blur_achievements_02_9026)"/>
  <path d="M 1824.2 1598.0 C 1824.2 1771.7, 1920.1 1682.8, 1745.0 1823.4 C 1569.9 1963.9, 1714.5 1862.8, 1431.2 1916.5 C 1147.9 1970.2, 1305.3 2038.3, 1022.0 1984.7 C 738.7 1931.0, 928.5 1949.0, 753.4 1808.5 C 578.3 1668.0, 635.3 1771.7, 635.3 1598.0 C 635.3 1424.3, 492.6 1538.1, 667.7 1397.6 C 842.8 1257.1, 765.0 1245.4, 1048.3 1191.7 C 1331.7 1138.0, 1154.7 1139.7, 1438.0 1193.3 C 1721.3 1247.0, 1526.2 1239.9, 1701.3 1380.5 C 1876.4 1521.0, 1824.2 1424.3, 1824.2 1598.0 Z" fill="#DFFFD3" opacity="0.12" stroke="#DFFFD3" stroke-opacity="0.46" stroke-width="3" filter="url(#soft_achievements_02_9026)"/>
  <path d="M 1824.2 1598.0 C 1824.2 1771.7, 1920.1 1682.8, 1745.0 1823.4 C 1569.9 1963.9, 1714.5 1862.8, 1431.2 1916.5 C 1147.9 1970.2, 1305.3 2038.3, 1022.0 1984.7 C 738.7 1931.0, 928.5 1949.0, 753.4 1808.5 C 578.3 1668.0, 635.3 1771.7, 635.3 1598.0 C 635.3 1424.3, 492.6 1538.1, 667.7 1397.6 C 842.8 1257.1, 765.0 1245.4, 1048.3 1191.7 C 1331.7 1138.0, 1154.7 1139.7, 1438.0 1193.3 C 1721.3 1247.0, 1526.2 1239.9, 1701.3 1380.5 C 1876.4 1521.0, 1824.2 1424.3, 1824.2 1598.0 Z" fill="none" stroke="#FFFFFF" stroke-opacity="0.22" stroke-width="1.2"/>
  <path d="M 795.6 2099.0 C 795.6 2426.6, 774.7 2284.0, 667.8 2549.0 C 561.0 2814.1, 684.9 2684.8, 512.0 2786.0 C 339.1 2887.3, 433.0 2894.5, 260.1 2793.2 C 87.2 2692.0, 112.3 2842.8, 5.5 2577.8 C -101.4 2312.8, -0.5 2426.6, -0.5 2099.0 C -0.5 1771.4, -30.7 1991.0, 76.1 1726.0 C 183.0 1461.0, 76.1 1464.2, 249.0 1362.9 C 421.9 1261.7, 307.7 1383.0, 480.6 1484.3 C 653.5 1585.5, 555.6 1376.3, 662.4 1641.4 C 769.3 1906.4, 795.6 1771.4, 795.6 2099.0 Z" fill="#FAFFFB" opacity="0.12" stroke="#FFFFFF" stroke-opacity="0.46" stroke-width="3" filter="url(#soft_achievements_02_9026)"/>
  <path d="M 795.6 2099.0 C 795.6 2426.6, 774.7 2284.0, 667.8 2549.0 C 561.0 2814.1, 684.9 2684.8, 512.0 2786.0 C 339.1 2887.3, 433.0 2894.5, 260.1 2793.2 C 87.2 2692.0, 112.3 2842.8, 5.5 2577.8 C -101.4 2312.8, -0.5 2426.6, -0.5 2099.0 C -0.5 1771.4, -30.7 1991.0, 76.1 1726.0 C 183.0 1461.0, 76.1 1464.2, 249.0 1362.9 C 421.9 1261.7, 307.7 1383.0, 480.6 1484.3 C 653.5 1585.5, 555.6 1376.3, 662.4 1641.4 C 769.3 1906.4, 795.6 1771.4, 795.6 2099.0 Z" fill="none" stroke="#FFFFFF" stroke-opacity="0.22" stroke-width="1.2"/>
  <path d="M 1687.5 1914.0 C 1687.5 2318.6, 1904.4 2133.4, 1720.0 2460.6 C 1535.6 2787.9, 1608.3 2726.4, 1310.0 2851.4 C 1011.7 2976.4, 1142.6 2967.2, 844.3 2842.2 C 546.0 2717.2, 716.9 2698.8, 532.5 2371.6 C 348.2 2044.3, 417.2 2318.6, 417.2 1914.0 C 417.2 1509.5, 281.2 1682.0, 465.6 1354.8 C 649.9 1027.5, 546.9 1175.8, 845.2 1050.7 C 1143.5 925.7, 1007.4 1014.6, 1305.7 1139.7 C 1604.0 1264.7, 1537.3 1049.3, 1721.7 1376.6 C 1906.1 1703.9, 1687.5 1509.5, 1687.5 1914.0 Z" fill="#FAFFFB" opacity="0.12" stroke="#FAFFFB" stroke-opacity="0.46" stroke-width="3" filter="url(#soft_achievements_02_9026)"/>
  <path d="M 1687.5 1914.0 C 1687.5 2318.6, 1904.4 2133.4, 1720.0 2460.6 C 1535.6 2787.9, 1608.3 2726.4, 1310.0 2851.4 C 1011.7 2976.4, 1142.6 2967.2, 844.3 2842.2 C 546.0 2717.2, 716.9 2698.8, 532.5 2371.6 C 348.2 2044.3, 417.2 2318.6, 417.2 1914.0 C 417.2 1509.5, 281.2 1682.0, 465.6 1354.8 C 649.9 1027.5, 546.9 1175.8, 845.2 1050.7 C 1143.5 925.7, 1007.4 1014.6, 1305.7 1139.7 C 1604.0 1264.7, 1537.3 1049.3, 1721.7 1376.6 C 1906.1 1703.9, 1687.5 1509.5, 1687.5 1914.0 Z" fill="none" stroke="#FFFFFF" stroke-opacity="0.22" stroke-width="1.2"/>
  <path d="M 874.4 740.0 C 874.4 1018.5, 901.1 874.0, 795.8 1099.3 C 690.5 1324.7, 742.8 1183.6, 572.4 1269.7 C 402.1 1355.8, 517.1 1433.3, 346.8 1347.2 C 176.4 1261.1, 272.5 1334.8, 167.3 1109.4 C 62.0 884.1, 68.0 1018.6, 68.0 740.0 C 68.0 461.5, 6.5 644.3, 111.8 418.9 C 217.1 193.6, 166.0 283.0, 336.3 196.9 C 506.6 110.8, 409.1 111.6, 579.5 197.7 C 749.8 283.8, 627.6 135.0, 732.8 360.3 C 838.1 585.7, 874.4 461.4, 874.4 740.0 Z" fill="#C9FFF2" opacity="0.12" stroke="#C9FFF2" stroke-opacity="0.46" stroke-width="3" filter="url(#soft_achievements_02_9026)"/>
  <path d="M 874.4 740.0 C 874.4 1018.5, 901.1 874.0, 795.8 1099.3 C 690.5 1324.7, 742.8 1183.6, 572.4 1269.7 C 402.1 1355.8, 517.1 1433.3, 346.8 1347.2 C 176.4 1261.1, 272.5 1334.8, 167.3 1109.4 C 62.0 884.1, 68.0 1018.6, 68.0 740.0 C 68.0 461.5, 6.5 644.3, 111.8 418.9 C 217.1 193.6, 166.0 283.0, 336.3 196.9 C 506.6 110.8, 409.1 111.6, 579.5 197.7 C 749.8 283.8, 627.6 135.0, 732.8 360.3 C 838.1 585.7, 874.4 461.4, 874.4 740.0 Z" fill="none" stroke="#FFFFFF" stroke-opacity="0.22" stroke-width="1.2"/>
  <path d="M 1640.4 239.0 C 1640.4 576.0, 1679.1 388.6, 1564.3 661.2 C 1449.5 933.9, 1491.2 756.8, 1305.5 861.0 C 1119.7 965.2, 1214.7 975.3, 1028.9 871.1 C 843.2 767.0, 884.1 900.4, 769.4 627.7 C 654.6 355.0, 786.6 576.1, 786.6 239.0 C 786.6 -98.0, 672.3 48.1, 787.1 -224.6 C 901.9 -497.3, 860.4 -457.4, 1046.1 -561.5 C 1231.9 -665.7, 1131.2 -660.5, 1317.0 -556.4 C 1502.7 -452.2, 1370.1 -503.3, 1484.8 -230.6 C 1599.6 42.1, 1640.4 -98.1, 1640.4 239.0 Z" fill="#80B9FF" opacity="0.12" stroke="#80B9FF" stroke-opacity="0.46" stroke-width="3" filter="url(#soft_achievements_02_9026)"/>
  <path d="M 1640.4 239.0 C 1640.4 576.0, 1679.1 388.6, 1564.3 661.2 C 1449.5 933.9, 1491.2 756.8, 1305.5 861.0 C 1119.7 965.2, 1214.7 975.3, 1028.9 871.1 C 843.2 767.0, 884.1 900.4, 769.4 627.7 C 654.6 355.0, 786.6 576.1, 786.6 239.0 C 786.6 -98.0, 672.3 48.1, 787.1 -224.6 C 901.9 -497.3, 860.4 -457.4, 1046.1 -561.5 C 1231.9 -665.7, 1131.2 -660.5, 1317.0 -556.4 C 1502.7 -452.2, 1370.1 -503.3, 1484.8 -230.6 C 1599.6 42.1, 1640.4 -98.1, 1640.4 239.0 Z" fill="none" stroke="#FFFFFF" stroke-opacity="0.22" stroke-width="1.2"/>
  <path d="M 684.2 2645.0 C 684.2 2945.2, 647.9 2766.8, 480.2 3009.6 C 312.5 3252.4, 428.5 3196.0, 157.2 3288.8 C -114.2 3381.5, 41.5 3353.6, -229.8 3260.9 C -501.2 3168.1, -319.2 3251.5, -486.9 3008.7 C -654.6 2765.9, -753.9 2945.2, -753.9 2645.0 C -753.9 2344.8, -651.1 2460.4, -483.4 2217.6 C -315.7 1974.8, -527.3 2125.1, -256.0 2032.3 C 15.3 1939.6, -118.7 1974.5, 152.7 2067.2 C 424.0 2160.0, 299.5 1979.8, 467.2 2222.6 C 634.8 2465.4, 684.2 2344.8, 684.2 2645.0 Z" fill="#D8E8FF" opacity="0.12" stroke="#D8E8FF" stroke-opacity="0.46" stroke-width="3" filter="url(#soft_achievements_02_9026)"/>
  <path d="M 684.2 2645.0 C 684.2 2945.2, 647.9 2766.8, 480.2 3009.6 C 312.5 3252.4, 428.5 3196.0, 157.2 3288.8 C -114.2 3381.5, 41.5 3353.6, -229.8 3260.9 C -501.2 3168.1, -319.2 3251.5, -486.9 3008.7 C -654.6 2765.9, -753.9 2945.2, -753.9 2645.0 C -753.9 2344.8, -651.1 2460.4, -483.4 2217.6 C -315.7 1974.8, -527.3 2125.1, -256.0 2032.3 C 15.3 1939.6, -118.7 1974.5, 152.7 2067.2 C 424.0 2160.0, 299.5 1979.8, 467.2 2222.6 C 634.8 2465.4, 684.2 2344.8, 684.2 2645.0 Z" fill="none" stroke="#FFFFFF" stroke-opacity="0.22" stroke-width="1.2"/>
  <path d="M 409.3 2050.0 C 409.3 2279.1, 460.8 2173.6, 341.7 2358.9 C 222.7 2544.2, 280.1 2503.6, 87.5 2574.3 C -105.1 2645.1, -6.4 2555.7, -199.0 2484.9 C -391.6 2414.1, -289.2 2569.7, -408.2 2384.4 C -527.2 2199.1, -509.9 2279.1, -509.9 2050.0 C -509.9 1821.0, -537.3 1894.5, -418.3 1709.2 C -299.3 1523.9, -384.0 1678.4, -191.5 1607.6 C 1.1 1536.8, -127.1 1463.8, 65.5 1534.6 C 258.1 1605.4, 222.7 1551.8, 341.8 1737.1 C 460.8 1922.4, 409.3 1821.0, 409.3 2050.0 Z" fill="#FAFFFB" opacity="0.12" stroke="#FAFFFB" stroke-opacity="0.46" stroke-width="3" filter="url(#soft_achievements_02_9026)"/>
  <path d="M 409.3 2050.0 C 409.3 2279.1, 460.8 2173.6, 341.7 2358.9 C 222.7 2544.2, 280.1 2503.6, 87.5 2574.3 C -105.1 2645.1, -6.4 2555.7, -199.0 2484.9 C -391.6 2414.1, -289.2 2569.7, -408.2 2384.4 C -527.2 2199.1, -509.9 2279.1, -509.9 2050.0 C -509.9 1821.0, -537.3 1894.5, -418.3 1709.2 C -299.3 1523.9, -384.0 1678.4, -191.5 1607.6 C 1.1 1536.8, -127.1 1463.8, 65.5 1534.6 C 258.1 1605.4, 222.7 1551.8, 341.8 1737.1 C 460.8 1922.4, 409.3 1821.0, 409.3 2050.0 Z" fill="none" stroke="#FFFFFF" stroke-opacity="0.22" stroke-width="1.2"/>
  <path d="M -100.0 1545.9 Q 133.3 1422.7, 366.7 1286.9 Q 600.0 1232.1, 833.3 1577.2 Q 1066.7 1466.3, 1300.0 1293.1" fill="none" stroke="#FFFFFF" stroke-opacity="0.38" stroke-width="4" filter="url(#soft_achievements_02_9026)"/>
  <path d="M -100.0 1545.9 Q 133.3 1422.7, 366.7 1286.9 Q 600.0 1232.1, 833.3 1577.2 Q 1066.7 1466.3, 1300.0 1293.1" fill="none" stroke="#7EE56D" stroke-opacity="0.18" stroke-width="2"/>
  <path d="M -100.0 1903.4 Q 133.3 1991.1, 366.7 2059.0 Q 600.0 1963.7, 833.3 1891.3 Q 1066.7 1830.9, 1300.0 1827.2" fill="none" stroke="#FFFFFF" stroke-opacity="0.38" stroke-width="4" filter="url(#soft_achievements_02_9026)"/>
  <path d="M -100.0 1903.4 Q 133.3 1991.1, 366.7 2059.0 Q 600.0 1963.7, 833.3 1891.3 Q 1066.7 1830.9, 1300.0 1827.2" fill="none" stroke="#7EE56D" stroke-opacity="0.18" stroke-width="2"/>
  <path d="M -100.0 2420.9 Q 133.3 2098.2, 366.7 2230.4 Q 600.0 2476.2, 833.3 2652.5 Q 1066.7 2360.8, 1300.0 2215.6" fill="none" stroke="#FFFFFF" stroke-opacity="0.38" stroke-width="4" filter="url(#soft_achievements_02_9026)"/>
  <path d="M -100.0 2420.9 Q 133.3 2098.2, 366.7 2230.4 Q 600.0 2476.2, 833.3 2652.5 Q 1066.7 2360.8, 1300.0 2215.6" fill="none" stroke="#38D5C7" stroke-opacity="0.18" stroke-width="2"/>
  <path d="M -100.0 1667.6 Q 133.3 1924.1, 366.7 2158.2 Q 600.0 1997.7, 833.3 1713.2 Q 1066.7 1927.2, 1300.0 2111.6" fill="none" stroke="#FFFFFF" stroke-opacity="0.38" stroke-width="4" filter="url(#soft_achievements_02_9026)"/>
  <path d="M -100.0 1667.6 Q 133.3 1924.1, 366.7 2158.2 Q 600.0 1997.7, 833.3 1713.2 Q 1066.7 1927.2, 1300.0 2111.6" fill="none" stroke="#7EE56D" stroke-opacity="0.18" stroke-width="2"/>
  <path d="M -100.0 1697.6 Q 133.3 1514.5, 366.7 1659.8 Q 600.0 1825.6, 833.3 2086.5 Q 1066.7 2065.8, 1300.0 1782.7" fill="none" stroke="#FFFFFF" stroke-opacity="0.38" stroke-width="4" filter="url(#soft_achievements_02_9026)"/>
  <path d="M -100.0 1697.6 Q 133.3 1514.5, 366.7 1659.8 Q 600.0 1825.6, 833.3 2086.5 Q 1066.7 2065.8, 1300.0 1782.7" fill="none" stroke="#7EE56D" stroke-opacity="0.18" stroke-width="2"/>
  <circle cx="805" cy="1684" r="133" fill="url(#orb_achievements_02_9026)" opacity="0.36"/>
  <circle cx="805" cy="1684" r="133" fill="#38D5C7" opacity="0.08"/>
  <circle cx="805" cy="1684" r="133" fill="none" stroke="#FFFFFF" stroke-opacity="0.56" stroke-width="3"/>
  <ellipse cx="767.8" cy="1636.1" rx="23.9" ry="10.6" fill="#FFFFFF" opacity="0.42" transform="rotate(-22 767.8 1636.1)"/>
  <circle cx="321" cy="2580" r="206" fill="url(#orb_achievements_02_9026)" opacity="0.36"/>
  <circle cx="321" cy="2580" r="206" fill="#38D5C7" opacity="0.08"/>
  <circle cx="321" cy="2580" r="206" fill="none" stroke="#FFFFFF" stroke-opacity="0.56" stroke-width="3"/>
  <ellipse cx="263.3" cy="2505.8" rx="37.1" ry="16.5" fill="#FFFFFF" opacity="0.42" transform="rotate(-22 263.3 2505.8)"/>
  <circle cx="797" cy="2345" r="242" fill="url(#orb_achievements_02_9026)" opacity="0.36"/>
  <circle cx="797" cy="2345" r="242" fill="#DFFFD3" opacity="0.08"/>
  <circle cx="797" cy="2345" r="242" fill="none" stroke="#FFFFFF" stroke-opacity="0.56" stroke-width="3"/>
  <ellipse cx="729.2" cy="2257.9" rx="43.6" ry="19.4" fill="#FFFFFF" opacity="0.42" transform="rotate(-22 729.2 2257.9)"/>
  <circle cx="652" cy="1130" r="101" fill="url(#orb_achievements_02_9026)" opacity="0.28"/>
  <circle cx="652" cy="1130" r="101" fill="#A7F3EF" opacity="0.08"/>
  <circle cx="652" cy="1130" r="101" fill="none" stroke="#FFFFFF" stroke-opacity="0.56" stroke-width="3"/>
  <ellipse cx="623.7" cy="1093.6" rx="18.2" ry="8.1" fill="#FFFFFF" opacity="0.42" transform="rotate(-22 623.7 1093.6)"/>
  <circle cx="653" cy="1589" r="288" fill="url(#orb_achievements_02_9026)" opacity="0.20"/>
  <circle cx="653" cy="1589" r="288" fill="#FAFFFB" opacity="0.08"/>
  <circle cx="653" cy="1589" r="288" fill="none" stroke="#FFFFFF" stroke-opacity="0.56" stroke-width="3"/>
  <ellipse cx="572.4" cy="1485.3" rx="51.8" ry="23.0" fill="#FFFFFF" opacity="0.42" transform="rotate(-22 572.4 1485.3)"/>
  <circle cx="1223" cy="2513" r="195" fill="url(#orb_achievements_02_9026)" opacity="0.22"/>
  <circle cx="1223" cy="2513" r="195" fill="#38D5C7" opacity="0.08"/>
  <circle cx="1223" cy="2513" r="195" fill="none" stroke="#FFFFFF" stroke-opacity="0.56" stroke-width="3"/>
  <ellipse cx="1168.4" cy="2442.8" rx="35.1" ry="15.6" fill="#FFFFFF" opacity="0.42" transform="rotate(-22 1168.4 2442.8)"/>
  <circle cx="467" cy="1913" r="80" fill="url(#orb_achievements_02_9026)" opacity="0.22"/>
  <circle cx="467" cy="1913" r="80" fill="#80B9FF" opacity="0.08"/>
  <circle cx="467" cy="1913" r="80" fill="none" stroke="#FFFFFF" stroke-opacity="0.56" stroke-width="3"/>
  <ellipse cx="444.6" cy="1884.2" rx="14.4" ry="6.4" fill="#FFFFFF" opacity="0.42" transform="rotate(-22 444.6 1884.2)"/>
  <circle cx="1123" cy="194" r="166" fill="url(#orb_achievements_02_9026)" opacity="0.26"/>
  <circle cx="1123" cy="194" r="166" fill="#A7F3EF" opacity="0.08"/>
  <circle cx="1123" cy="194" r="166" fill="none" stroke="#FFFFFF" stroke-opacity="0.56" stroke-width="3"/>
  <ellipse cx="1076.5" cy="134.2" rx="29.9" ry="13.3" fill="#FFFFFF" opacity="0.42" transform="rotate(-22 1076.5 134.2)"/>
  <circle cx="913" cy="552" r="4" fill="#FFFFFF" opacity="0.61"/>
  <circle cx="129" cy="62" r="4" fill="#FFFFFF" opacity="0.33"/>
  <circle cx="995" cy="1001" r="4" fill="#FFFFFF" opacity="0.52"/>
  <circle cx="1076" cy="179" r="2" fill="#FFFFFF" opacity="0.33"/>
  <circle cx="384" cy="1108" r="5" fill="#FFFFFF" opacity="0.41"/>
  <circle cx="1116" cy="787" r="3" fill="#FFFFFF" opacity="0.38"/>
  <circle cx="358" cy="802" r="3" fill="#FFFFFF" opacity="0.37"/>
  <circle cx="1197" cy="821" r="4" fill="#FFFFFF" opacity="0.34"/>
  <circle cx="611" cy="459" r="2" fill="#FFFFFF" opacity="0.34"/>
  <circle cx="1128" cy="1951" r="5" fill="#FFFFFF" opacity="0.40"/>
  <circle cx="249" cy="1254" r="2" fill="#FFFFFF" opacity="0.45"/>
  <circle cx="746" cy="2233" r="2" fill="#FFFFFF" opacity="0.34"/>
  <circle cx="561" cy="1588" r="3" fill="#FFFFFF" opacity="0.44"/>
  <circle cx="80" cy="2438" r="5" fill="#FFFFFF" opacity="0.61"/>
  <circle cx="311" cy="328" r="5" fill="#FFFFFF" opacity="0.71"/>
  <circle cx="747" cy="2369" r="5" fill="#FFFFFF" opacity="0.59"/>
  <circle cx="109" cy="2294" r="2" fill="#FFFFFF" opacity="0.55"/>
  <circle cx="860" cy="338" r="7" fill="#FFFFFF" opacity="0.51"/>
  <circle cx="1040" cy="1067" r="7" fill="#FFFFFF" opacity="0.61"/>
  <circle cx="457" cy="2377" r="5" fill="#FFFFFF" opacity="0.31"/>
  <rect width="1200" height="2600" fill="#FFFFFF" opacity="0.08"/>
  <rect width="1200" height="2600" filter="url(#grain_achievements_02_9026)" opacity="0.7"/>
</svg>
