<svg xmlns="http://www.w3.org/2000/svg" width="1200" height="2600" viewBox="0 0 1200 2600" preserveAspectRatio="xMidYMid slice">
  <defs>
    <linearGradient id="bg_achievements_19_3103" x1="0" y1="0" x2="1" y2="1">
      <stop offset="0%" stop-color="#A7F3EF"/>
      <stop offset="48%" stop-color="#FAFFFB"/>
      <stop offset="100%" stop-color="#C9FFF2"/>
    </linearGradient>
    <radialGradient id="orb_achievements_19_3103" cx="35%" cy="30%" r="70%">
      <stop offset="0%" stop-color="#FFFFFF" stop-opacity="0.85"/>
      <stop offset="42%" stop-color="#FFFFFF" stop-opacity="0.20"/>
      <stop offset="100%" stop-color="#FFFFFF" stop-opacity="0.02"/>
    </radialGradient>
    <filter id="blur_achievements_19_3103" x="-30%" y="-30%" width="160%" height="160%">
      <feGaussianBlur stdDeviation="72"/>
    </filter>
    <filter id="soft_achievements_19_3103" x="-20%" y="-20%" width="140%" height="140%">
      <feGaussianBlur stdDeviation="10"/>
    </filter>
    <filter id="grain_achievements_19_3103">
      <feTurbulence type="fractalNoise" baseFrequency="0.85" numOctaves="2" stitchTiles="stitch"/>
      <feColorMatrix type="saturate" values="0"/>
      <feComponentTransfer>
        <feFuncA type="table" tableValues="0 0.035"/>
      </feComponentTransfer>
    </filter>
  </defs>
  <rect width="1200" height="2600" fill="url(#bg_achievements_19_3103)"/>
  <path d="M 475.1 2467.0 C 475.1 2712.7, 494.5 2656.9, 384.3 2845.1 C 274.1 3033.4, 370.3 3020.8, 201.4 3063.4 C 32.6 3106.1, 75.1 3006.3, -73.4 2883.4 C -221.9 2760.6, -215.7 2898.2, -274.4 2667.3 C -333.0 2436.4, -234.3 2481.9, -175.7 2251.0 C -117.1 2020.1, -188.7 2052.1, -40.3 1929.3 C 108.2 1806.4, 34.7 1858.7, 203.6 1901.3 C 372.4 1944.0, 309.4 1904.2, 419.6 2092.4 C 529.8 2280.7, 475.1 2221.3, 475.1 2467.0 Z" fill="#A7F3EF" opacity="0.17" filter="url(#blur_achievements_19_3103)"/>
  <path d="M 1493.3 1958.0 C 1493.3 2112.3, 1547.0 2067.3, 1385.3 2185.6 C 1223.6 2303.8, 1334.0 2316.6, 1086.3 2343.4 C 838.6 2370.2, 958.7 2333.8, 740.9 2256.7 C 523.0 2179.5, 527.7 2212.4, 441.7 2067.3 C 355.7 1922.3, 321.0 1968.9, 407.0 1823.8 C 493.0 1678.8, 504.0 1761.3, 721.8 1684.1 C 939.6 1606.9, 827.4 1578.5, 1075.1 1605.4 C 1322.8 1632.2, 1310.6 1580.7, 1472.3 1699.0 C 1634.0 1817.2, 1493.3 1803.7, 1493.3 1958.0 Z" fill="#A7F3EF" opacity="0.19" filter="url(#blur_achievements_19_3103)"/>
  <path d="M 271.6 2457.0 C 271.6 2675.7, 274.9 2549.4, 200.2 2716.9 C 125.6 2884.5, 180.6 2940.9, 66.3 2978.9 C -48.1 3016.8, -37.4 3016.1, -138.0 2906.7 C -238.5 2797.4, -182.5 2839.3, -222.2 2633.7 C -261.9 2428.2, -304.2 2520.1, -264.5 2314.6 C -224.8 2109.1, -208.1 2141.5, -107.6 2032.2 C -7.0 1922.8, -51.2 1872.2, 63.2 1910.1 C 177.5 1948.1, 168.1 1974.0, 242.8 2141.6 C 317.4 2309.1, 271.6 2238.3, 271.6 2457.0 Z" fill="#C9FFF2" opacity="0.37" filter="url(#blur_achievements_19_3103)"/>
  <path d="M 441.2 2400.0 C 441.2 2620.9, 535.6 2540.1, 386.9 2709.3 C 238.2 2878.6, 324.7 2865.2, 96.9 2903.6 C -130.9 2941.9, -8.7 2955.1, -209.0 2844.6 C -409.3 2734.1, -309.9 2784.2, -389.0 2576.6 C -468.1 2369.0, -481.8 2427.4, -402.7 2219.7 C -323.6 2012.1, -414.5 2029.0, -214.2 1918.5 C -13.9 1808.1, -109.5 1794.6, 118.3 1832.9 C 346.1 1871.3, 251.4 1897.9, 400.1 2067.2 C 548.7 2236.5, 441.2 2179.1, 441.2 2400.0 Z" fill="#7EE56D" opacity="0.28" filter="url(#blur_achievements_19_3103)"/>
  <path d="M 395.4 166.0 C 395.4 345.1, 420.1 293.0, 311.9 430.2 C 203.7 567.4, 227.0 576.7, 61.2 607.8 C -104.5 638.9, -53.3 647.8, -199.1 558.3 C -344.8 468.7, -297.7 457.9, -355.3 289.6 C -412.8 121.3, -462.4 187.4, -404.9 19.1 C -347.3 -149.2, -333.9 -111.4, -188.2 -200.9 C -42.4 -290.5, -89.1 -232.3, 76.6 -201.2 C 242.4 -170.1, 174.9 -216.6, 283.1 -79.4 C 391.3 57.8, 395.4 -13.1, 395.4 166.0 Z" fill="#80B9FF" opacity="0.31" filter="url(#blur_achievements_19_3103)"/>
  <path d="M 1738.6 -14.0 C 1738.6 126.0, 1751.5 67.6, 1610.9 174.8 C 1470.4 282.0, 1544.1 257.2, 1328.8 281.5 C 1113.4 305.8, 1228.5 295.2, 1039.1 225.2 C 849.7 155.2, 828.2 224.6, 753.4 93.1 C 678.6 -38.4, 724.2 19.7, 799.0 -111.8 C 873.8 -243.3, 829.2 -218.3, 1018.6 -288.3 C 1208.0 -358.2, 1126.2 -289.6, 1341.6 -265.3 C 1557.0 -241.0, 1493.2 -313.2, 1633.8 -206.0 C 1774.4 -98.8, 1738.6 -154.0, 1738.6 -14.0 Z" fill="#80B9FF" opacity="0.21" filter="url(#blur_achievements_19_3103)"/>
  <path d="M 672.2 2252.0 C 672.2 2524.2, 630.2 2461.5, 532.2 2670.0 C 434.1 2878.6, 516.5 2875.6, 366.3 2922.9 C 216.1 2970.2, 265.7 2935.5, 133.6 2799.4 C 1.5 2663.3, 24.5 2705.4, -27.7 2449.6 C -79.9 2193.7, -112.4 2317.0, -60.2 2061.1 C -8.0 1805.3, -14.1 1834.8, 118.1 1698.7 C 250.2 1562.6, 206.0 1596.7, 356.3 1644.0 C 506.5 1691.2, 506.1 1638.1, 604.2 1846.7 C 702.2 2055.2, 672.2 1979.8, 672.2 2252.0 Z" fill="#FAFFFB" opacity="0.17" filter="url(#blur_achievements_19_3103)"/>
  <path d="M 1397.6 2379.0 C 1397.6 2684.6, 1421.6 2555.2, 1292.0 2789.3 C 1162.4 3023.3, 1271.9 2978.9, 1073.4 3032.0 C 874.9 3085.1, 895.0 3191.2, 720.4 3038.4 C 545.8 2885.6, 662.1 2897.0, 593.1 2609.9 C 524.2 2322.8, 473.7 2458.9, 542.7 2171.8 C 611.6 1884.7, 620.8 1883.0, 795.4 1730.2 C 970.0 1577.4, 859.4 1625.3, 1058.0 1678.4 C 1256.5 1731.4, 1191.6 1634.6, 1321.2 1868.6 C 1450.8 2102.7, 1397.6 2073.4, 1397.6 2379.0 Z" fill="#DFFFD3" opacity="0.30" filter="url(#blur_achievements_19_3103)"/>
  <path d="M 317.6 1369.0 C 317.6 1579.2, 394.0 1531.4, 283.2 1692.4 C 172.4 1853.4, 240.7 1780.8, 70.9 1817.3 C -98.8 1853.8, -37.2 1949.5, -186.4 1844.5 C -335.7 1739.4, -238.1 1702.8, -297.1 1505.3 C -356.0 1307.8, -445.5 1380.1, -386.6 1182.6 C -327.6 985.1, -359.8 1126.2, -210.5 1021.1 C -61.3 916.1, -98.5 907.5, 71.2 944.0 C 240.9 980.5, 143.1 880.3, 253.9 1041.3 C 364.7 1202.3, 317.6 1158.8, 317.6 1369.0 Z" fill="#FAFFFB" opacity="0.16" filter="url(#blur_achievements_19_3103)"/>
  <path d="M 1629.9 1433.0 C 1629.9 1677.8, 1593.9 1596.0, 1487.6 1794.1 C 1381.2 1992.1, 1472.9 1936.5, 1300.9 2012.2 C 1128.8 2087.8, 1235.0 1991.2, 1062.9 1915.6 C 890.9 1839.9, 938.3 1943.5, 831.9 1745.5 C 725.6 1547.4, 827.8 1677.8, 827.8 1433.0 C 827.8 1188.2, 762.1 1346.9, 868.4 1148.8 C 974.7 950.8, 907.5 996.6, 1079.5 921.0 C 1251.6 845.3, 1155.4 840.3, 1327.4 915.9 C 1499.5 991.6, 1431.0 879.8, 1537.3 1077.8 C 1643.6 1275.9, 1629.9 1188.2, 1629.9 1433.0 Z" fill="#FAFFFB" opacity="0.12" stroke="#FAFFFB" stroke-opacity="0.46" stroke-width="3" filter="url(#soft_achievements_19_3103)"/>
  <path d="M 1629.9 1433.0 C 1629.9 1677.8, 1593.9 1596.0, 1487.6 1794.1 C 1381.2 1992.1, 1472.9 1936.5, 1300.9 2012.2 C 1128.8 2087.8, 1235.0 1991.2, 1062.9 1915.6 C 890.9 1839.9, 938.3 1943.5, 831.9 1745.5 C 725.6 1547.4, 827.8 1677.8, 827.8 1433.0 C 827.8 1188.2, 762.1 1346.9, 868.4 1148.8 C 974.7 950.8, 907.5 996.6, 1079.5 921.0 C 1251.6 845.3, 1155.4 840.3, 1327.4 915.9 C 1499.5 991.6, 1431.0 879.8, 1537.3 1077.8 C 1643.6 1275.9, 1629.9 1188.2, 1629.9 1433.0 Z" fill="none" stroke="#FFFFFF" stroke-opacity="0.22" stroke-width="1.2"/>
  <path d="M 1322.0 243.0 C 1322.0 605.2, 1367.6 408.0, 1236.7 701.1 C 1105.7 994.1, 1240.6 926.2, 1028.7 1038.2 C 816.9 1150.1, 934.5 1053.0, 722.7 941.1 C 510.9 829.1, 643.0 1019.2, 512.1 726.1 C 381.2 433.1, 342.3 605.3, 342.3 243.0 C 342.3 -119.2, 349.1 30.6, 480.0 -262.5 C 610.9 -555.6, 521.2 -428.0, 733.0 -539.9 C 944.9 -651.9, 811.2 -590.8, 1023.0 -478.8 C 1234.9 -366.9, 1207.3 -526.5, 1338.2 -233.4 C 1469.2 59.6, 1322.0 -119.2, 1322.0 243.0 Z" fill="#80B9FF" opacity="0.12" stroke="#FFFFFF" stroke-opacity="0.46" stroke-width="3" filter="url(#soft_achievements_19_3103)"/>
  <path d="M 1322.0 243.0 C 1322.0 605.2, 1367.6 408.0, 1236.7 701.1 C 1105.7 994.1, 1240.6 926.2, 1028.7 1038.2 C 816.9 1150.1, 934.5 1053.0, 722.7 941.1 C 510.9 829.1, 643.0 1019.2, 512.1 726.1 C 381.2 433.1, 342.3 605.3, 342.3 243.0 C 342.3 -119.2, 349.1 30.6, 480.0 -262.5 C 610.9 -555.6, 521.2 -428.0, 733.0 -539.9 C 944.9 -651.9, 811.2 -590.8, 1023.0 -478.8 C 1234.9 -366.9, 1207.3 -526.5, 1338.2 -233.4 C 1469.2 59.6, 1322.0 -119.2, 1322.0 243.0 Z" fill="none" stroke="#FFFFFF" stroke-opacity="0.22" stroke-width="1.2"/>
  <path d="M 1215.1 2168.0 C 1215.1 2381.3, 1260.6 2299.8, 1149.6 2472.4 C 1038.5 2644.9, 1118.0 2527.9, 938.3 2593.8 C 758.5 2659.7, 862.2 2702.3, 682.5 2636.4 C 502.7 2570.5, 589.6 2624.2, 478.5 2451.6 C 367.4 2279.0, 450.0 2381.3, 450.0 2168.0 C 450.0 1954.7, 402.5 2027.8, 513.6 1855.2 C 624.7 1682.6, 495.6 1760.6, 675.3 1694.7 C 855.1 1628.8, 753.0 1629.2, 932.7 1695.1 C 1112.5 1761.0, 1062.2 1696.5, 1173.3 1869.0 C 1284.4 2041.6, 1215.1 1954.7, 1215.1 2168.0 Z" fill="#38D5C7" opacity="0.12" stroke="#38D5C7" stroke-opacity="0.46" stroke-width="3" filter="url(#soft_achievements_19_3103)"/>
  <path d="M 1215.1 2168.0 C 1215.1 2381.3, 1260.6 2299.8, 1149.6 2472.4 C 1038.5 2644.9, 1118.0 2527.9, 938.3 2593.8 C 758.5 2659.7, 862.2 2702.3, 682.5 2636.4 C 502.7 2570.5, 589.6 2624.2, 478.5 2451.6 C 367.4 2279.0, 450.0 2381.3, 450.0 2168.0 C 450.0 1954.7, 402.5 2027.8, 513.6 1855.2 C 624.7 1682.6, 495.6 1760.6, 675.3 1694.7 C 855.1 1628.8, 753.0 1629.2, 932.7 1695.1 C 1112.5 1761.0, 1062.2 1696.5, 1173.3 1869.0 C 1284.4 2041.6, 1215.1 1954.7, 1215.1 2168.0 Z" fill="none" stroke="#FFFFFF" stroke-opacity="0.22" stroke-width="1.2"/>
  <path d="M 1160.3 2240.0 C 1160.3 2447.0, 1142.4 2364.2, 967.6 2531.7 C 792.7 2699.2, 889.4 2577.4, 606.6 2641.4 C 323.7 2705.3, 500.8 2693.9, 217.9 2630.0 C -65.0 2566.0, 50.8 2657.7, -124.0 2490.3 C -298.9 2322.8, -152.5 2447.0, -152.5 2240.0 C -152.5 2033.0, -297.4 2158.9, -122.6 1991.4 C 52.3 1824.0, -80.9 1856.8, 202.0 1792.9 C 484.9 1728.9, 352.9 1787.9, 635.8 1851.8 C 918.7 1915.8, 789.0 1838.3, 963.8 2005.8 C 1138.7 2173.3, 1160.3 2033.0, 1160.3 2240.0 Z" fill="#80B9FF" opacity="0.12" stroke="#80B9FF" stroke-opacity="0.46" stroke-width="3" filter="url(#soft_achievements_19_3103)"/>
  <path d="M 1160.3 2240.0 C 1160.3 2447.0, 1142.4 2364.2, 967.6 2531.7 C 792.7 2699.2, 889.4 2577.4, 606.6 2641.4 C 323.7 2705.3, 500.8 2693.9, 217.9 2630.0 C -65.0 2566.0, 50.8 2657.7, -124.0 2490.3 C -298.9 2322.8, -152.5 2447.0, -152.5 2240.0 C -152.5 2033.0, -297.4 2158.9, -122.6 1991.4 C 52.3 1824.0, -80.9 1856.8, 202.0 1792.9 C 484.9 1728.9, 352.9 1787.9, 635.8 1851.8 C 918.7 1915.8, 789.0 1838.3, 963.8 2005.8 C 1138.7 2173.3, 1160.3 2033.0, 1160.3 2240.0 Z" fill="none" stroke="#FFFFFF" stroke-opacity="0.22" stroke-width="1.2"/>
  <path d="M 505.4 2334.0 C 505.4 2680.9, 487.0 2473.6, 366.1 2754.3 C 245.2 3035.0, 384.1 3030.6, 188.5 3137.8 C -7.1 3245.0, 88.3 3171.6, -107.3 3064.4 C -302.9 2957.2, -264.2 3124.9, -385.1 2844.2 C -506.0 2563.5, -485.3 2680.9, -485.3 2334.0 C -485.3 1987.0, -498.8 2206.6, -377.9 1925.9 C -257.0 1645.2, -311.5 1725.9, -115.9 1618.7 C 79.7 1511.4, -5.2 1559.4, 190.4 1666.7 C 385.9 1773.9, 322.6 1560.4, 443.5 1841.1 C 564.4 2121.8, 505.4 1987.0, 505.4 2334.0 Z" fill="#FAFFFB" opacity="0.12" stroke="#FAFFFB" stroke-opacity="0.46" stroke-width="3" filter="url(#soft_achievements_19_3103)"/>
  <path d="M 505.4 2334.0 C 505.4 2680.9, 487.0 2473.6, 366.1 2754.3 C 245.2 3035.0, 384.1 3030.6, 188.5 3137.8 C -7.1 3245.0, 88.3 3171.6, -107.3 3064.4 C -302.9 2957.2, -264.2 3124.9, -385.1 2844.2 C -506.0 2563.5, -485.3 2680.9, -485.3 2334.0 C -485.3 1987.0, -498.8 2206.6, -377.9 1925.9 C -257.0 1645.2, -311.5 1725.9, -115.9 1618.7 C 79.7 1511.4, -5.2 1559.4, 190.4 1666.7 C 385.9 1773.9, 322.6 1560.4, 443.5 1841.1 C 564.4 2121.8, 505.4 1987.0, 505.4 2334.0 Z" fill="none" stroke="#FFFFFF" stroke-opacity="0.22" stroke-width="1.2"/>
  <path d="M -100.0 1894.4 Q 133.3 1657.2, 366.7 1547.5 Q 600.0 1643.1, 833.3 1727.1 Q 1066.7 1836.2, 1300.0 1756.6" fill="none" stroke="#FFFFFF" stroke-opacity="0.38" stroke-width="4" filter="url(#soft_achievements_19_3103)"/>
  <path d="M -100.0 1894.4 Q 133.3 1657.2, 366.7 1547.5 Q 600.0 1643.1, 833.3 1727.1 Q 1066.7 1836.2, 1300.0 1756.6" fill="none" stroke="#7EE56D" stroke-opacity="0.18" stroke-width="2"/>
  <path d="M -100.0 2879.9 Q 133.3 2742.6, 366.7 2494.7 Q 600.0 2358.1, 833.3 2547.9 Q 1066.7 2803.7, 1300.0 3013.2" fill="none" stroke="#FFFFFF" stroke-opacity="0.38" stroke-width="4" filter="url(#soft_achievements_19_3103)"/>
  <path d="M -100.0 2879.9 Q 133.3 2742.6, 366.7 2494.7 Q 600.0 2358.1, 833.3 2547.9 Q 1066.7 2803.7, 1300.0 3013.2" fill="none" stroke="#80B9FF" stroke-opacity="0.18" stroke-width="2"/>
  <path d="M -100.0 342.0 Q 133.3 572.0, 366.7 844.4 Q 600.0 500.2, 833.3 126.1 Q 1066.7 516.7, 1300.0 835.4" fill="none" stroke="#FFFFFF" stroke-opacity="0.38" stroke-width="4" filter="url(#soft_achievements_19_3103)"/>
  <path d="M -100.0 342.0 Q 133.3 572.0, 366.7 844.4 Q 600.0 500.2, 833.3 126.1 Q 1066.7 516.7, 1300.0 835.4" fill="none" stroke="#38D5C7" stroke-opacity="0.18" stroke-width="2"/>
  <path d="M -100.0 2377.0 Q 133.3 2723.6, 366.7 2856.8 Q 600.0 2574.5, 833.3 2338.1 Q 1066.7 2323.4, 1300.0 2600.7" fill="none" stroke="#FFFFFF" stroke-opacity="0.38" stroke-width="4" filter="url(#soft_achievements_19_3103)"/>
  <path d="M -100.0 2377.0 Q 133.3 2723.6, 366.7 2856.8 Q 600.0 2574.5, 833.3 2338.1 Q 1066.7 2323.4, 1300.0 2600.7" fill="none" stroke="#38D5C7" stroke-opacity="0.18" stroke-width="2"/>
  <path d="M -100.0 800.5 Q 133.3 522.5, 366.7 547.2 Q 600.0 851.8, 833.3 681.1 Q 1066.7 481.3, 1300.0 687.3" fill="none" stroke="#FFFFFF" stroke-opacity="0.38" stroke-width="4" filter="url(#soft_achievements_19_3103)"/>
  <path d="M -100.0 800.5 Q 133.3 522.5, 366.7 547.2 Q 600.0 851.8, 833.3 681.1 Q 1066.7 481.3, 1300.0 687.3" fill="none" stroke="#80B9FF" stroke-opacity="0.18" stroke-width="2"/>
  <circle cx="1176" cy="1995" r="191" fill="url(#orb_achievements_19_3103)" opacity="0.36"/>
  <circle cx="1176" cy="1995" r="191" fill="#C9FFF2" opacity="0.08"/>
  <circle cx="1176" cy="1995" r="191" fill="none" stroke="#FFFFFF" stroke-opacity="0.56" stroke-width="3"/>
  <ellipse cx="1122.5" cy="1926.2" rx="34.4" ry="15.3" fill="#FFFFFF" opacity="0.42" transform="rotate(-22 1122.5 1926.2)"/>
  <circle cx="201" cy="1701" r="216" fill="url(#orb_achievements_19_3103)" opacity="0.36"/>
  <circle cx="201" cy="1701" r="216" fill="#80B9FF" opacity="0.08"/>
  <circle cx="201" cy="1701" r="216" fill="none" stroke="#FFFFFF" stroke-opacity="0.56" stroke-width="3"/>
  <ellipse cx="140.5" cy="1623.2" rx="38.9" ry="17.3" fill="#FFFFFF" opacity="0.42" transform="rotate(-22 140.5 1623.2)"/>
  <circle cx="1020" cy="2606" r="169" fill="url(#orb_achievements_19_3103)" opacity="0.36"/>
  <circle cx="1020" cy="2606" r="169" fill="#A7F3EF" opacity="0.08"/>
  <circle cx="1020" cy="2606" r="169" fill="none" stroke="#FFFFFF" stroke-opacity="0.56" stroke-width="3"/>
  <ellipse cx="972.7" cy="2545.2" rx="30.4" ry="13.5" fill="#FFFFFF" opacity="0.42" transform="rotate(-22 972.7 2545.2)"/>
  <circle cx="229" cy="2169" r="224" fill="url(#orb_achievements_19_3103)" opacity="0.17"/>
  <circle cx="229" cy="2169" r="224" fill="#C9FFF2" opacity="0.08"/>
  <circle cx="229" cy="2169" r="224" fill="none" stroke="#FFFFFF" stroke-opacity="0.56" stroke-width="3"/>
  <ellipse cx="166.3" cy="2088.4" rx="40.3" ry="17.9" fill="#FFFFFF" opacity="0.42" transform="rotate(-22 166.3 2088.4)"/>
  <circle cx="887" cy="848" r="131" fill="url(#orb_achievements_19_3103)" opacity="0.19"/>
  <circle cx="887" cy="848" r="131" fill="#7EE56D" opacity="0.08"/>
  <circle cx="887" cy="848" r="131" fill="none" stroke="#FFFFFF" stroke-opacity="0.56" stroke-width="3"/>
  <ellipse cx="850.3" cy="800.8" rx="23.6" ry="10.5" fill="#FFFFFF" opacity="0.42" transform="rotate(-22 850.3 800.8)"/>
  <circle cx="144" cy="105" r="82" fill="url(#orb_achievements_19_3103)" opacity="0.23"/>
  <circle cx="144" cy="105" r="82" fill="#A7F3EF" opacity="0.08"/>
  <circle cx="144" cy="105" r="82" fill="none" stroke="#FFFFFF" stroke-opacity="0.56" stroke-width="3"/>
  <ellipse cx="121.0" cy="75.5" rx="14.8" ry="6.6" fill="#FFFFFF" opacity="0.42" transform="rotate(-22 121.0 75.5)"/>
  <circle cx="343" cy="-11" r="154" fill="url(#orb_achievements_19_3103)" opacity="0.23"/>
  <circle cx="343" cy="-11" r="154" fill="#D8E8FF" opacity="0.08"/>
  <circle cx="343" cy="-11" r="154" fill="none" stroke="#FFFFFF" stroke-opacity="0.56" stroke-width="3"/>
  <ellipse cx="299.9" cy="-66.4" rx="27.7" ry="12.3" fill="#FFFFFF" opacity="0.42" transform="rotate(-22 299.9 -66.4)"/>
  <circle cx="845" cy="477" r="148" fill="url(#orb_achievements_19_3103)" opacity="0.26"/>
  <circle cx="845" cy="477" r="148" fill="#FAFFFB" opacity="0.08"/>
  <circle cx="845" cy="477" r="148" fill="none" stroke="#FFFFFF" stroke-opacity="0.56" stroke-width="3"/>
  <ellipse cx="803.6" cy="423.7" rx="26.6" ry="11.8" fill="#FFFFFF" opacity="0.42" transform="rotate(-22 803.6 423.7)"/>
  <circle cx="1021" cy="50" r="4" fill="#FFFFFF" opacity="0.51"/>
  <circle cx="1098" cy="519" r="7" fill="#FFFFFF" opacity="0.46"/>
  <circle cx="1167" cy="1894" r="4" fill="#FFFFFF" opacity="0.71"/>
  <circle cx="660" cy="1878" r="4" fill="#FFFFFF" opacity="0.61"/>
  <circle cx="76" cy="2074" r="4" fill="#FFFFFF" opacity="0.70"/>
  <circle cx="195" cy="1547" r="2" fill="#FFFFFF" opacity="0.49"/>
  <circle cx="959" cy="959" r="3" fill="#FFFFFF" opacity="0.33"/>
  <circle cx="1097" cy="2389" r="2" fill="#FFFFFF" opacity="0.69"/>
  <circle cx="1075" cy="1636" r="2" fill="#FFFFFF" opacity="0.46"/>
  <circle cx="52" cy="43" r="7" fill="#FFFFFF" opacity="0.46"/>
  <circle cx="1011" cy="2497" r="7" fill="#FFFFFF" opacity="0.62"/>
  <circle cx="691" cy="741" r="7" fill="#FFFFFF" opacity="0.48"/>
  <rect width="1200" height="2600" fill="#FFFFFF" opacity="0.08"/>
  <rect width="1200" height="2600" filter="url(#grain_achievements_19_3103)" opacity="0.7"/>
</svg>
