<svg xmlns="http://www.w3.org/2000/svg" width="1200" height="2600" viewBox="0 0 1200 2600" preserveAspectRatio="xMidYMid slice">
  <defs>
    <linearGradient id="bg_achievements_12_5395" x1="0" y1="0" x2="1" y2="1">
      <stop offset="0%" stop-color="#FAFFFB"/>
      <stop offset="48%" stop-color="#D8E8FF"/>
      <stop offset="100%" stop-color="#DFFFD3"/>
    </linearGradient>
    <radialGradient id="orb_achievements_12_5395" cx="35%" cy="30%" r="70%">
      <stop offset="0%" stop-color="#FFFFFF" stop-opacity="0.85"/>
      <stop offset="42%" stop-color="#FFFFFF" stop-opacity="0.20"/>
      <stop offset="100%" stop-color="#FFFFFF" stop-opacity="0.02"/>
    </radialGradient>
    <filter id="blur_achievements_12_5395" x="-30%" y="-30%" width="160%" height="160%">
      <feGaussianBlur stdDeviation="72"/>
    </filter>
    <filter id="soft_achievements_12_5395" x="-20%" y="-20%" width="140%" height="140%">
      <feGaussianBlur stdDeviation="10"/>
    </filter>
    <filter id="grain_achievements_12_5395">
      <feTurbulence type="fractalNoise" baseFrequency="0.85" numOctaves="2" stitchTiles="stitch"/>
      <feColorMatrix type="saturate" values="0"/>
      <feComponentTransfer>
        <feFuncA type="table" tableValues="0 0.035"/>
      </feComponentTransfer>
    </filter>
  </defs>
  <rect width="1200" height="2600" fill="url(#bg_achievements_12_5395)"/>
  <path d="M 445.8 2048.0 C 445.8 2259.1, 482.4 2211.7, 321.3 2373.4 C 160.2 2535.0, 284.4 2402.5, 37.5 2439.1 C -209.3 2475.8, -68.9 2535.3, -286.0 2429.8 C -503.1 2324.2, -510.2 2394.6, -596.0 2196.2 C -681.7 1997.9, -736.6 2098.3, -650.8 1900.0 C -565.1 1701.7, -529.7 1706.4, -312.6 1600.9 C -95.6 1495.4, -184.9 1527.8, 62.0 1564.4 C 308.8 1601.1, 255.5 1549.4, 416.6 1711.1 C 577.7 1872.8, 445.8 1837.0, 445.8 2048.0 Z" fill="#DFFFD3" opacity="0.19" filter="url(#blur_achievements_12_5395)"/>
  <path d="M 1403.1 1758.0 C 1403.1 1966.3, 1460.3 1914.1, 1383.1 2073.7 C 1305.9 2233.4, 1303.1 2199.7, 1184.7 2235.8 C 1066.4 2272.0, 1101.2 2323.9, 997.2 2219.8 C 893.1 2115.6, 903.5 2136.3, 862.5 1940.5 C 821.4 1744.7, 856.7 1791.5, 897.8 1595.7 C 938.9 1399.9, 904.5 1390.3, 1008.5 1286.1 C 1112.6 1181.9, 1071.9 1323.4, 1190.2 1359.5 C 1308.5 1395.7, 1269.8 1347.8, 1347.0 1507.4 C 1424.2 1667.0, 1403.1 1549.7, 1403.1 1758.0 Z" fill="#DFFFD3" opacity="0.31" filter="url(#blur_achievements_12_5395)"/>
  <path d="M 790.6 610.0 C 790.6 736.5, 841.1 712.5, 772.2 809.4 C 703.4 906.2, 728.1 866.8, 622.6 888.8 C 517.1 910.7, 548.0 879.6, 455.2 816.3 C 362.5 753.1, 400.3 823.6, 363.7 704.8 C 327.1 585.9, 346.7 632.2, 383.3 513.4 C 419.9 394.6, 367.7 426.4, 460.5 363.2 C 553.2 300.0, 520.4 267.6, 625.9 289.5 C 731.3 311.5, 695.6 323.2, 764.4 420.0 C 833.2 516.9, 790.6 483.6, 790.6 610.0 Z" fill="#A7F3EF" opacity="0.33" filter="url(#blur_achievements_12_5395)"/>
  <path d="M 365.5 1565.0 C 365.5 1795.4, 369.7 1714.8, 239.3 1891.3 C 108.8 2067.8, 124.9 2089.3, -75.0 2129.3 C -274.9 2169.3, -215.0 2136.2, -390.7 2021.0 C -566.5 1905.8, -498.6 1928.3, -568.0 1711.8 C -637.5 1495.2, -692.2 1597.2, -622.8 1380.7 C -553.4 1164.2, -589.3 1313.2, -413.5 1198.0 C -237.7 1082.8, -262.7 1010.0, -62.9 1050.0 C 137.0 1090.1, 19.6 1010.0, 150.1 1186.5 C 280.5 1363.0, 365.5 1334.6, 365.5 1565.0 Z" fill="#7EE56D" opacity="0.25" filter="url(#blur_achievements_12_5395)"/>
  <path d="M 949.3 2512.0 C 949.3 2737.9, 984.2 2648.9, 909.0 2822.0 C 833.8 2995.0, 842.2 2900.7, 727.0 2939.9 C 611.7 2979.2, 680.6 3027.3, 579.2 2914.3 C 477.9 2801.4, 520.9 2880.0, 480.8 2667.7 C 440.8 2455.5, 398.7 2583.3, 438.7 2371.0 C 478.7 2158.7, 475.3 2186.1, 576.7 2073.2 C 678.0 1960.2, 617.8 1932.1, 733.1 1971.3 C 848.3 2010.6, 803.3 2050.8, 878.6 2223.9 C 953.8 2396.9, 949.3 2286.1, 949.3 2512.0 Z" fill="#DFFFD3" opacity="0.24" filter="url(#blur_achievements_12_5395)"/>
  <path d="M 1115.7 -32.0 C 1115.7 201.6, 1057.1 131.9, 984.0 310.8 C 910.8 489.7, 968.5 475.7, 856.4 516.3 C 744.3 556.8, 798.3 545.3, 699.7 428.5 C 601.1 311.7, 653.0 356.5, 614.0 137.0 C 575.1 -82.5, 513.9 -2.1, 552.8 -221.6 C 591.8 -441.1, 592.8 -375.5, 691.4 -492.2 C 790.0 -609.0, 753.2 -657.6, 865.3 -617.1 C 977.5 -576.5, 935.2 -570.0, 1008.4 -391.1 C 1081.5 -212.2, 1115.7 -265.6, 1115.7 -32.0 Z" fill="#DFFFD3" opacity="0.21" filter="url(#blur_achievements_12_5395)"/>
  <path d="M 1818.9 2098.0 C 1818.9 2277.6, 1881.5 2231.7, 1730.5 2369.3 C 1579.5 2506.8, 1677.1 2484.0, 1445.8 2515.2 C 1214.4 2546.4, 1330.7 2515.0, 1127.3 2425.3 C 923.8 2335.5, 941.4 2411.7, 861.1 2243.0 C 780.7 2074.2, 863.6 2149.4, 943.9 1980.7 C 1024.3 1812.0, 860.8 1827.0, 1064.2 1737.2 C 1267.6 1647.4, 1209.7 1632.2, 1441.1 1663.4 C 1672.4 1694.5, 1596.3 1664.9, 1747.3 1802.4 C 1898.3 1939.9, 1818.9 1918.5, 1818.9 2098.0 Z" fill="#38D5C7" opacity="0.18" filter="url(#blur_achievements_12_5395)"/>
  <path d="M 258.3 2144.0 C 258.3 2446.8, 297.6 2418.8, 171.2 2650.8 C 44.8 2882.8, 94.2 2693.0, -99.5 2745.6 C -293.1 2798.2, -177.9 2947.7, -348.2 2796.3 C -518.5 2644.8, -568.8 2636.8, -636.1 2352.2 C -703.3 2067.7, -585.3 2233.3, -518.1 1948.7 C -450.8 1664.1, -525.1 1632.3, -354.8 1480.9 C -184.5 1329.4, -277.1 1447.3, -83.4 1499.9 C 110.3 1552.5, -6.7 1429.3, 119.7 1661.3 C 246.1 1893.3, 258.3 1841.2, 258.3 2144.0 Z" fill="#38D5C7" opacity="0.21" filter="url(#blur_achievements_12_5395)"/>
  <path d="M 99.5 1560.0 C 99.5 1684.2, 124.6 1632.8, 53.7 1728.0 C -17.2 1823.1, -2.9 1858.8, -111.4 1880.4 C -220.0 1901.9, -180.3 1901.0, -275.8 1838.9 C -371.2 1776.8, -338.5 1776.1, -376.2 1659.3 C -413.9 1542.6, -408.4 1577.5, -370.7 1460.8 C -333.0 1344.1, -356.6 1393.2, -261.1 1331.1 C -165.7 1269.0, -226.5 1272.0, -117.9 1293.6 C -9.3 1315.2, -16.4 1317.6, 54.5 1412.8 C 125.3 1507.9, 99.5 1435.8, 99.5 1560.0 Z" fill="#7EE56D" opacity="0.36" filter="url(#blur_achievements_12_5395)"/>
  <path d="M 748.9 287.0 C 748.9 452.6, 838.3 387.2, 707.6 514.1 C 576.8 640.9, 571.8 657.7, 371.5 686.5 C 171.2 715.3, 280.3 667.9, 104.1 585.1 C -72.0 502.3, -55.3 579.3, -124.9 423.7 C -194.5 268.1, -182.1 307.4, -112.6 151.8 C -43.0 -3.8, -126.4 98.2, 49.8 15.4 C 225.9 -67.4, 198.4 -137.4, 398.7 -108.7 C 599.0 -79.9, 532.5 -82.1, 663.2 44.8 C 794.0 171.6, 748.9 121.4, 748.9 287.0 Z" fill="#FAFFFB" opacity="0.23" filter="url(#blur_achievements_12_5395)"/>
  <path d="M 636.3 807.0 C 636.3 967.2, 646.8 946.4, 539.5 1069.1 C 432.2 1191.8, 510.4 1128.7, 346.0 1156.5 C 181.6 1184.3, 238.2 1140.0, 93.6 1059.9 C -51.0 979.8, 36.9 1094.1, -20.2 943.6 C -77.3 793.1, -72.2 824.7, -15.1 674.2 C 42.0 523.6, -23.3 598.7, 121.3 518.6 C 265.8 438.5, 185.2 472.4, 349.7 500.2 C 514.1 528.0, 468.9 491.4, 576.2 614.2 C 683.5 736.9, 636.3 646.8, 636.3 807.0 Z" fill="#7EE56D" opacity="0.24" filter="url(#blur_achievements_12_5395)"/>
  <path d="M 1219.8 230.0 C 1219.8 433.4, 1258.2 330.5, 1103.2 486.3 C 948.2 642.1, 1035.6 589.9, 798.1 625.3 C 560.6 660.6, 680.6 721.9, 471.8 620.2 C 262.9 518.5, 339.5 562.1, 257.0 371.0 C 174.5 179.8, 99.3 275.9, 181.8 84.8 C 264.3 -106.4, 253.3 -58.9, 462.2 -160.6 C 671.1 -262.3, 563.3 -219.6, 800.9 -184.3 C 1038.4 -148.9, 954.0 -256.8, 1109.1 -101.0 C 1264.1 54.8, 1219.8 26.6, 1219.8 230.0 Z" fill="#80B9FF" opacity="0.26" filter="url(#blur_achievements_12_5395)"/>
  <path d="M 922.3 2317.0 C 922.3 2639.7, 950.1 2430.1, 870.5 2691.1 C 790.9 2952.2, 872.3 2904.4, 743.4 3004.1 C 614.6 3103.8, 676.1 3032.3, 547.3 2932.6 C 418.5 2832.9, 466.4 3055.4, 386.8 2794.3 C 307.2 2533.3, 327.4 2639.7, 327.4 2317.0 C 327.4 1994.3, 300.6 2212.1, 380.2 1951.1 C 459.8 1690.0, 424.9 1754.7, 553.7 1655.0 C 682.5 1555.3, 619.5 1572.1, 748.3 1671.8 C 877.1 1771.5, 788.7 1665.7, 868.4 1926.7 C 948.0 2187.8, 922.3 1994.3, 922.3 2317.0 Z" fill="#A7F3EF" opacity="0.12" stroke="#A7F3EF" stroke-opacity="0.46" stroke-width="3" filter="url(#soft_achievements_12_5395)"/>
  <path d="M 922.3 2317.0 C 922.3 2639.7, 950.1 2430.1, 870.5 2691.1 C 790.9 2952.2, 872.3 2904.4, 743.4 3004.1 C 614.6 3103.8, 676.1 3032.3, 547.3 2932.6 C 418.5 2832.9, 466.4 3055.4, 386.8 2794.3 C 307.2 2533.3, 327.4 2639.7, 327.4 2317.0 C 327.4 1994.3, 300.6 2212.1, 380.2 1951.1 C 459.8 1690.0, 424.9 1754.7, 553.7 1655.0 C 682.5 1555.3, 619.5 1572.1, 748.3 1671.8 C 877.1 1771.5, 788.7 1665.7, 868.4 1926.7 C 948.0 2187.8, 922.3 1994.3, 922.3 2317.0 Z" fill="none" stroke="#FFFFFF" stroke-opacity="0.22" stroke-width="1.2"/>
  <path d="M 1468.0 1201.0 C 1468.0 1354.0, 1453.6 1269.9, 1367.6 1393.7 C 1281.7 1517.5, 1341.1 1510.0, 1202.0 1557.2 C 1062.9 1604.5, 1150.0 1531.8, 1010.9 1484.5 C 871.8 1437.2, 940.7 1548.3, 854.7 1424.5 C 768.8 1300.8, 772.6 1354.0, 772.6 1201.0 C 772.6 1048.0, 768.1 1147.0, 854.1 1023.3 C 940.1 899.5, 869.4 955.6, 1008.5 908.3 C 1147.6 861.0, 1058.4 875.5, 1197.5 922.7 C 1336.6 970.0, 1249.6 862.6, 1335.5 986.4 C 1421.5 1110.1, 1468.0 1048.0, 1468.0 1201.0 Z" fill="#80B9FF" opacity="0.12" stroke="#FFFFFF" stroke-opacity="0.46" stroke-width="3" filter="url(#soft_achievements_12_5395)"/>
  <path d="M 1468.0 1201.0 C 1468.0 1354.0, 1453.6 1269.9, 1367.6 1393.7 C 1281.7 1517.5, 1341.1 1510.0, 1202.0 1557.2 C 1062.9 1604.5, 1150.0 1531.8, 1010.9 1484.5 C 871.8 1437.2, 940.7 1548.3, 854.7 1424.5 C 768.8 1300.8, 772.6 1354.0, 772.6 1201.0 C 772.6 1048.0, 768.1 1147.0, 854.1 1023.3 C 940.1 899.5, 869.4 955.6, 1008.5 908.3 C 1147.6 861.0, 1058.4 875.5, 1197.5 922.7 C 1336.6 970.0, 1249.6 862.6, 1335.5 986.4 C 1421.5 1110.1, 1468.0 1048.0, 1468.0 1201.0 Z" fill="none" stroke="#FFFFFF" stroke-opacity="0.22" stroke-width="1.2"/>
  <path d="M 229.3 681.0 C 229.3 914.5, 271.2 828.1, 192.9 1017.1 C 114.6 1206.0, 133.4 1081.2, 6.7 1153.3 C -120.0 1225.5, -48.4 1238.7, -175.1 1166.6 C -301.8 1094.4, -215.7 1187.4, -294.0 998.5 C -372.3 809.5, -335.4 914.6, -335.4 681.0 C -335.4 447.5, -394.9 578.3, -316.6 389.4 C -238.4 200.4, -298.8 260.7, -172.1 188.6 C -45.4 116.4, -107.0 92.4, 19.7 164.5 C 146.4 236.7, 105.6 167.2, 183.9 356.2 C 262.2 545.1, 229.3 447.4, 229.3 681.0 Z" fill="#D8E8FF" opacity="0.12" stroke="#FFFFFF" stroke-opacity="0.46" stroke-width="3" filter="url(#soft_achievements_12_5395)"/>
  <path d="M 229.3 681.0 C 229.3 914.5, 271.2 828.1, 192.9 1017.1 C 114.6 1206.0, 133.4 1081.2, 6.7 1153.3 C -120.0 1225.5, -48.4 1238.7, -175.1 1166.6 C -301.8 1094.4, -215.7 1187.4, -294.0 998.5 C -372.3 809.5, -335.4 914.6, -335.4 681.0 C -335.4 447.5, -394.9 578.3, -316.6 389.4 C -238.4 200.4, -298.8 260.7, -172.1 188.6 C -45.4 116.4, -107.0 92.4, 19.7 164.5 C 146.4 236.7, 105.6 167.2, 183.9 356.2 C 262.2 545.1, 229.3 447.4, 229.3 681.0 Z" fill="none" stroke="#FFFFFF" stroke-opacity="0.22" stroke-width="1.2"/>
  <path d="M 326.7 2022.0 C 326.7 2338.8, 284.3 2168.9, 185.4 2425.2 C 86.5 2681.4, 178.6 2510.4, 18.5 2608.3 C -141.5 2706.2, -54.9 2754.0, -214.9 2656.1 C -375.0 2558.2, -273.3 2720.9, -372.2 2464.7 C -471.1 2208.4, -432.3 2338.8, -432.3 2022.0 C -432.3 1705.2, -491.2 1862.1, -392.3 1605.8 C -293.4 1349.5, -366.4 1481.2, -206.4 1383.3 C -46.3 1285.4, -117.8 1211.3, 42.2 1309.2 C 202.3 1407.0, 89.9 1392.3, 188.8 1648.6 C 287.8 1904.9, 326.7 1705.2, 326.7 2022.0 Z" fill="#D8E8FF" opacity="0.12" stroke="#D8E8FF" stroke-opacity="0.46" stroke-width="3" filter="url(#soft_achievements_12_5395)"/>
  <path d="M 326.7 2022.0 C 326.7 2338.8, 284.3 2168.9, 185.4 2425.2 C 86.5 2681.4, 178.6 2510.4, 18.5 2608.3 C -141.5 2706.2, -54.9 2754.0, -214.9 2656.1 C -375.0 2558.2, -273.3 2720.9, -372.2 2464.7 C -471.1 2208.4, -432.3 2338.8, -432.3 2022.0 C -432.3 1705.2, -491.2 1862.1, -392.3 1605.8 C -293.4 1349.5, -366.4 1481.2, -206.4 1383.3 C -46.3 1285.4, -117.8 1211.3, 42.2 1309.2 C 202.3 1407.0, 89.9 1392.3, 188.8 1648.6 C 287.8 1904.9, 326.7 1705.2, 326.7 2022.0 Z" fill="none" stroke="#FFFFFF" stroke-opacity="0.22" stroke-width="1.2"/>
  <path d="M 1315.4 -11.0 C 1315.4 311.2, 1399.6 198.8, 1288.5 459.4 C 1177.4 720.1, 1206.3 564.4, 1026.6 664.0 C 846.8 763.5, 957.6 826.9, 777.8 727.4 C 598.1 627.8, 694.1 683.6, 583.0 422.9 C 471.9 162.2, 525.6 311.2, 525.6 -11.0 C 525.6 -333.2, 418.3 -121.0, 529.4 -381.7 C 640.5 -642.4, 597.2 -499.9, 776.9 -599.5 C 956.7 -699.1, 840.9 -787.9, 1020.7 -688.4 C 1200.4 -588.8, 1161.3 -745.7, 1272.4 -485.0 C 1383.5 -224.4, 1315.4 -333.2, 1315.4 -11.0 Z" fill="#80B9FF" opacity="0.12" stroke="#FFFFFF" stroke-opacity="0.46" stroke-width="3" filter="url(#soft_achievements_12_5395)"/>
  <path d="M 1315.4 -11.0 C 1315.4 311.2, 1399.6 198.8, 1288.5 459.4 C 1177.4 720.1, 1206.3 564.4, 1026.6 664.0 C 846.8 763.5, 957.6 826.9, 777.8 727.4 C 598.1 627.8, 694.1 683.6, 583.0 422.9 C 471.9 162.2, 525.6 311.2, 525.6 -11.0 C 525.6 -333.2, 418.3 -121.0, 529.4 -381.7 C 640.5 -642.4, 597.2 -499.9, 776.9 -599.5 C 956.7 -699.1, 840.9 -787.9, 1020.7 -688.4 C 1200.4 -588.8, 1161.3 -745.7, 1272.4 -485.0 C 1383.5 -224.4, 1315.4 -333.2, 1315.4 -11.0 Z" fill="none" stroke="#FFFFFF" stroke-opacity="0.22" stroke-width="1.2"/>
  <path d="M 656.3 2785.0 C 656.3 2984.8, 684.9 2916.5, 539.1 3078.1 C 393.4 3239.8, 489.7 3137.9, 253.9 3199.6 C 18.1 3261.4, 180.0 3236.6, -55.8 3174.9 C -291.6 3113.1, -239.0 3181.0, -384.7 3019.4 C -530.5 2857.7, -400.8 2984.8, -400.8 2785.0 C -400.8 2585.2, -455.8 2661.0, -310.1 2499.3 C -164.4 2337.7, -314.8 2446.9, -79.0 2385.2 C 156.8 2323.4, 23.8 2266.8, 259.7 2328.6 C 495.5 2390.3, 414.8 2353.5, 560.5 2515.1 C 706.3 2676.8, 656.3 2585.2, 656.3 2785.0 Z" fill="#C9FFF2" opacity="0.12" stroke="#C9FFF2" stroke-opacity="0.46" stroke-width="3" filter="url(#soft_achievements_12_5395)"/>
  <path d="M 656.3 2785.0 C 656.3 2984.8, 684.9 2916.5, 539.1 3078.1 C 393.4 3239.8, 489.7 3137.9, 253.9 3199.6 C 18.1 3261.4, 180.0 3236.6, -55.8 3174.9 C -291.6 3113.1, -239.0 3181.0, -384.7 3019.4 C -530.5 2857.7, -400.8 2984.8, -400.8 2785.0 C -400.8 2585.2, -455.8 2661.0, -310.1 2499.3 C -164.4 2337.7, -314.8 2446.9, -79.0 2385.2 C 156.8 2323.4, 23.8 2266.8, 259.7 2328.6 C 495.5 2390.3, 414.8 2353.5, 560.5 2515.1 C 706.3 2676.8, 656.3 2585.2, 656.3 2785.0 Z" fill="none" stroke="#FFFFFF" stroke-opacity="0.22" stroke-width="1.2"/>
  <path d="M 854.2 1844.0 C 854.2 2198.6, 910.6 2081.3, 779.9 2368.1 C 649.3 2655.0, 718.2 2499.8, 506.8 2609.4 C 295.4 2719.0, 412.0 2694.8, 200.5 2585.2 C -10.9 2475.6, 97.7 2650.7, -33.0 2363.9 C -163.7 2077.0, -135.6 2198.6, -135.6 1844.0 C -135.6 1489.4, -198.2 1711.0, -67.6 1424.1 C 63.1 1137.3, 2.6 1260.3, 214.0 1150.7 C 425.4 1041.2, 277.1 1013.0, 488.5 1122.6 C 700.0 1232.1, 592.8 1064.5, 723.4 1351.4 C 854.1 1638.2, 854.2 1489.4, 854.2 1844.0 Z" fill="#A7F3EF" opacity="0.12" stroke="#FFFFFF" stroke-opacity="0.46" stroke-width="3" filter="url(#soft_achievements_12_5395)"/>
  <path d="M 854.2 1844.0 C 854.2 2198.6, 910.6 2081.3, 779.9 2368.1 C 649.3 2655.0, 718.2 2499.8, 506.8 2609.4 C 295.4 2719.0, 412.0 2694.8, 200.5 2585.2 C -10.9 2475.6, 97.7 2650.7, -33.0 2363.9 C -163.7 2077.0, -135.6 2198.6, -135.6 1844.0 C -135.6 1489.4, -198.2 1711.0, -67.6 1424.1 C 63.1 1137.3, 2.6 1260.3, 214.0 1150.7 C 425.4 1041.2, 277.1 1013.0, 488.5 1122.6 C 700.0 1232.1, 592.8 1064.5, 723.4 1351.4 C 854.1 1638.2, 854.2 1489.4, 854.2 1844.0 Z" fill="none" stroke="#FFFFFF" stroke-opacity="0.22" stroke-width="1.2"/>
  <path d="M -100.0 1947.7 Q 133.3 1975.7, 366.7 2246.0 Q 600.0 2438.7, 833.3 2524.5 Q 1066.7 2227.1, 1300.0 2100.7" fill="none" stroke="#FFFFFF" stroke-opacity="0.38" stroke-width="4" filter="url(#soft_achievements_12_5395)"/>
  <path d="M -100.0 1947.7 Q 133.3 1975.7, 366.7 2246.0 Q 600.0 2438.7, 833.3 2524.5 Q 1066.7 2227.1, 1300.0 2100.7" fill="none" stroke="#80B9FF" stroke-opacity="0.18" stroke-width="2"/>
  <path d="M -100.0 541.3 Q 133.3 792.3, 366.7 961.0 Q 600.0 790.2, 833.3 465.5 Q 1066.7 691.1, 1300.0 979.5" fill="none" stroke="#FFFFFF" stroke-opacity="0.38" stroke-width="4" filter="url(#soft_achievements_12_5395)"/>
  <path d="M -100.0 541.3 Q 133.3 792.3, 366.7 961.0 Q 600.0 790.2, 833.3 465.5 Q 1066.7 691.1, 1300.0 979.5" fill="none" stroke="#7EE56D" stroke-opacity="0.18" stroke-width="2"/>
  <path d="M -100.0 1355.5 Q 133.3 1663.6, 366.7 1909.9 Q 600.0 1880.1, 833.3 1563.7 Q 1066.7 1454.3, 1300.0 1586.7" fill="none" stroke="#FFFFFF" stroke-opacity="0.38" stroke-width="4" filter="url(#soft_achievements_12_5395)"/>
  <path d="M -100.0 1355.5 Q 133.3 1663.6, 366.7 1909.9 Q 600.0 1880.1, 833.3 1563.7 Q 1066.7 1454.3, 1300.0 1586.7" fill="none" stroke="#38D5C7" stroke-opacity="0.18" stroke-width="2"/>
  <circle cx="581" cy="205" r="247" fill="url(#orb_achievements_12_5395)" opacity="0.36"/>
  <circle cx="581" cy="205" r="247" fill="#D8E8FF" opacity="0.08"/>
  <circle cx="581" cy="205" r="247" fill="none" stroke="#FFFFFF" stroke-opacity="0.56" stroke-width="3"/>
  <ellipse cx="511.8" cy="116.1" rx="44.5" ry="19.8" fill="#FFFFFF" opacity="0.42" transform="rotate(-22 511.8 116.1)"/>
  <circle cx="336" cy="2645" r="155" fill="url(#orb_achievements_12_5395)" opacity="0.36"/>
  <circle cx="336" cy="2645" r="155" fill="#FAFFFB" opacity="0.08"/>
  <circle cx="336" cy="2645" r="155" fill="none" stroke="#FFFFFF" stroke-opacity="0.56" stroke-width="3"/>
  <ellipse cx="292.6" cy="2589.2" rx="27.9" ry="12.4" fill="#FFFFFF" opacity="0.42" transform="rotate(-22 292.6 2589.2)"/>
  <circle cx="893" cy="1631" r="153" fill="url(#orb_achievements_12_5395)" opacity="0.36"/>
  <circle cx="893" cy="1631" r="153" fill="#C9FFF2" opacity="0.08"/>
  <circle cx="893" cy="1631" r="153" fill="none" stroke="#FFFFFF" stroke-opacity="0.56" stroke-width="3"/>
  <ellipse cx="850.2" cy="1575.9" rx="27.5" ry="12.2" fill="#FFFFFF" opacity="0.42" transform="rotate(-22 850.2 1575.9)"/>
  <circle cx="997" cy="242" r="152" fill="url(#orb_achievements_12_5395)" opacity="0.21"/>
  <circle cx="997" cy="242" r="152" fill="#7EE56D" opacity="0.08"/>
  <circle cx="997" cy="242" r="152" fill="none" stroke="#FFFFFF" stroke-opacity="0.56" stroke-width="3"/>
  <ellipse cx="954.4" cy="187.3" rx="27.4" ry="12.2" fill="#FFFFFF" opacity="0.42" transform="rotate(-22 954.4 187.3)"/>
  <circle cx="780" cy="962" r="277" fill="url(#orb_achievements_12_5395)" opacity="0.25"/>
  <circle cx="780" cy="962" r="277" fill="#80B9FF" opacity="0.08"/>
  <circle cx="780" cy="962" r="277" fill="none" stroke="#FFFFFF" stroke-opacity="0.56" stroke-width="3"/>
  <ellipse cx="702.4" cy="862.3" rx="49.9" ry="22.2" fill="#FFFFFF" opacity="0.42" transform="rotate(-22 702.4 862.3)"/>
  <circle cx="239" cy="2625" r="191" fill="url(#orb_achievements_12_5395)" opacity="0.22"/>
  <circle cx="239" cy="2625" r="191" fill="#FAFFFB" opacity="0.08"/>
  <circle cx="239" cy="2625" r="191" fill="none" stroke="#FFFFFF" stroke-opacity="0.56" stroke-width="3"/>
  <ellipse cx="185.5" cy="2556.2" rx="34.4" ry="15.3" fill="#FFFFFF" opacity="0.42" transform="rotate(-22 185.5 2556.2)"/>
  <circle cx="492" cy="1242" r="262" fill="url(#orb_achievements_12_5395)" opacity="0.27"/>
  <circle cx="492" cy="1242" r="262" fill="#D8E8FF" opacity="0.08"/>
  <circle cx="492" cy="1242" r="262" fill="none" stroke="#FFFFFF" stroke-opacity="0.56" stroke-width="3"/>
  <ellipse cx="418.6" cy="1147.7" rx="47.2" ry="21.0" fill="#FFFFFF" opacity="0.42" transform="rotate(-22 418.6 1147.7)"/>
  <circle cx="878" cy="284" r="142" fill="url(#orb_achievements_12_5395)" opacity="0.16"/>
  <circle cx="878" cy="284" r="142" fill="#38D5C7" opacity="0.08"/>
  <circle cx="878" cy="284" r="142" fill="none" stroke="#FFFFFF" stroke-opacity="0.56" stroke-width="3"/>
  <ellipse cx="838.2" cy="232.9" rx="25.6" ry="11.4" fill="#FFFFFF" opacity="0.42" transform="rotate(-22 838.2 232.9)"/>
  <circle cx="767" cy="2558" r="85" fill="url(#orb_achievements_12_5395)" opacity="0.28"/>
  <circle cx="767" cy="2558" r="85" fill="#80B9FF" opacity="0.08"/>
  <circle cx="767" cy="2558" r="85" fill="none" stroke="#FFFFFF" stroke-opacity="0.56" stroke-width="3"/>
  <ellipse cx="743.2" cy="2527.4" rx="15.3" ry="6.8" fill="#FFFFFF" opacity="0.42" transform="rotate(-22 743.2 2527.4)"/>
  <circle cx="645" cy="2549" r="3" fill="#FFFFFF" opacity="0.46"/>
  <circle cx="1085" cy="541" r="7" fill="#FFFFFF" opacity="0.40"/>
  <circle cx="550" cy="709" r="4" fill="#FFFFFF" opacity="0.65"/>
  <circle cx="338" cy="1875" r="7" fill="#FFFFFF" opacity="0.46"/>
  <circle cx="721" cy="2186" r="3" fill="#FFFFFF" opacity="0.33"/>
  <circle cx="534" cy="2121" r="5" fill="#FFFFFF" opacity="0.40"/>
  <circle cx="1125" cy="2045" r="7" fill="#FFFFFF" opacity="0.33"/>
  <circle cx="1056" cy="2102" r="5" fill="#FFFFFF" opacity="0.34"/>
  <circle cx="367" cy="2079" r="2" fill="#FFFFFF" opacity="0.43"/>
  <circle cx="1117" cy="2242" r="3" fill="#FFFFFF" opacity="0.45"/>
  <circle cx="1179" cy="792" r="5" fill="#FFFFFF" opacity="0.62"/>
  <circle cx="959" cy="757" r="7" fill="#FFFFFF" opacity="0.30"/>
  <circle cx="1054" cy="1673" r="5" fill="#FFFFFF" opacity="0.66"/>
  <circle cx="610" cy="2531" r="5" fill="#FFFFFF" opacity="0.66"/>
  <rect width="1200" height="2600" fill="#FFFFFF" opacity="0.08"/>
  <rect width="1200" height="2600" filter="url(#grain_achievements_12_5395)" opacity="0.7"/>
</svg>
