<svg xmlns="http://www.w3.org/2000/svg" width="1200" height="2600" viewBox="0 0 1200 2600" preserveAspectRatio="xMidYMid slice">
  <defs>
    <linearGradient id="bg_ambient_02_2031" x1="0" y1="0" x2="1" y2="1">
      <stop offset="0%" stop-color="#FDFFFF"/>
      <stop offset="48%" stop-color="#DFFCED"/>
      <stop offset="100%" stop-color="#EEE5FF"/>
    </linearGradient>
    <radialGradient id="orb_ambient_02_2031" cx="35%" cy="30%" r="70%">
      <stop offset="0%" stop-color="#FFFFFF" stop-opacity="0.85"/>
      <stop offset="42%" stop-color="#FFFFFF" stop-opacity="0.20"/>
      <stop offset="100%" stop-color="#FFFFFF" stop-opacity="0.02"/>
    </radialGradient>
    <filter id="blur_ambient_02_2031" x="-30%" y="-30%" width="160%" height="160%">
      <feGaussianBlur stdDeviation="72"/>
    </filter>
    <filter id="soft_ambient_02_2031" x="-20%" y="-20%" width="140%" height="140%">
      <feGaussianBlur stdDeviation="10"/>
    </filter>
    <filter id="grain_ambient_02_2031">
      <feTurbulence type="fractalNoise" baseFrequency="0.85" numOctaves="2" stitchTiles="stitch"/>
      <feColorMatrix type="saturate" values="0"/>
      <feComponentTransfer>
        <feFuncA type="table" tableValues="0 0.035"/>
      </feComponentTransfer>
    </filter>
  </defs>
  <rect width="1200" height="2600" fill="url(#bg_ambient_02_2031)"/>
  <path d="M 1023.4 1814.0 C 1023.4 2084.0, 1009.4 1987.1, 915.1 2193.9 C 820.8 2400.7, 908.8 2288.3, 764.3 2335.2 C 619.8 2382.1, 675.6 2526.5, 548.5 2391.5 C 421.5 2256.5, 497.5 2292.2, 447.3 2038.5 C 397.1 1784.8, 390.5 1884.0, 440.7 1630.3 C 490.9 1376.6, 440.8 1347.9, 567.8 1212.9 C 694.9 1077.9, 612.9 1140.6, 757.3 1187.5 C 901.8 1234.4, 862.8 1245.5, 957.1 1452.3 C 1051.4 1659.1, 1023.4 1544.0, 1023.4 1814.0 Z" fill="#A9EAF6" opacity="0.24" filter="url(#blur_ambient_02_2031)"/>
  <path d="M 1376.0 1885.0 C 1376.0 2053.3, 1316.6 1994.3, 1181.0 2123.2 C 1045.3 2252.2, 1100.0 2273.4, 892.2 2302.7 C 684.3 2331.9, 743.9 2242.2, 561.1 2158.0 C 378.3 2073.9, 479.2 2163.2, 407.1 2005.0 C 334.9 1846.9, 355.5 1934.2, 427.7 1776.0 C 499.9 1617.9, 406.0 1700.6, 588.8 1616.4 C 771.6 1532.3, 702.4 1434.1, 910.3 1463.3 C 1118.1 1492.5, 987.3 1525.8, 1123.0 1654.7 C 1258.6 1783.6, 1376.0 1716.7, 1376.0 1885.0 Z" fill="#B6F5D1" opacity="0.29" filter="url(#blur_ambient_02_2031)"/>
  <path d="M 1201.9 800.0 C 1201.9 1036.7, 1349.0 936.5, 1199.2 1117.9 C 1049.4 1299.2, 1088.7 1326.3, 859.1 1367.4 C 629.6 1408.5, 748.1 1449.7, 546.2 1331.3 C 344.3 1213.0, 386.5 1170.3, 306.8 947.9 C 227.0 725.5, 137.3 844.8, 217.1 622.4 C 296.8 400.0, 277.9 474.7, 479.8 356.3 C 681.7 238.0, 625.8 216.2, 855.4 257.3 C 1084.9 298.4, 1045.4 263.1, 1195.3 444.4 C 1345.1 625.7, 1201.9 563.3, 1201.9 800.0 Z" fill="#B6F5D1" opacity="0.23" filter="url(#blur_ambient_02_2031)"/>
  <path d="M 151.1 2593.0 C 151.1 2844.1, 161.3 2815.0, 80.3 3007.4 C -0.7 3199.7, 82.4 3171.1, -41.7 3214.7 C -165.8 3258.3, -121.9 3187.0, -231.1 3061.5 C -340.2 2935.9, -322.6 2988.7, -365.7 2752.7 C -408.8 2516.8, -362.4 2610.9, -319.3 2375.0 C -276.2 2139.0, -362.8 2235.5, -253.7 2109.9 C -144.6 1984.4, -176.1 1960.0, -52.0 2003.6 C 72.1 2047.2, 36.8 2067.9, 117.8 2260.2 C 198.8 2452.6, 151.1 2341.9, 151.1 2593.0 Z" fill="#D6C2FF" opacity="0.34" filter="url(#blur_ambient_02_2031)"/>
  <path d="M 1918.6 2240.0 C 1918.6 2537.4, 2022.1 2408.3, 1864.2 2636.1 C 1706.2 2864.0, 1702.9 2954.9, 1461.0 3006.6 C 1219.0 3058.2, 1296.9 3020.4, 1084.1 2871.7 C 871.3 2723.0, 897.4 2730.4, 813.4 2450.9 C 729.4 2171.4, 746.2 2328.0, 830.3 2048.5 C 914.3 1769.0, 894.4 1720.9, 1107.2 1572.2 C 1320.0 1423.4, 1245.1 1464.6, 1487.1 1516.2 C 1729.0 1567.9, 1599.2 1515.9, 1757.1 1743.8 C 1915.1 1971.7, 1918.6 1942.5, 1918.6 2240.0 Z" fill="#D6C2FF" opacity="0.31" filter="url(#blur_ambient_02_2031)"/>
  <path d="M 953.1 1035.0 C 953.1 1341.9, 983.1 1280.7, 893.2 1515.8 C 803.2 1750.9, 890.2 1563.7, 752.4 1617.0 C 614.6 1670.3, 627.4 1809.6, 506.2 1656.2 C 385.0 1502.7, 484.3 1528.5, 436.4 1240.1 C 388.6 951.7, 316.9 1055.8, 364.8 767.4 C 412.7 479.1, 404.1 552.0, 525.3 398.6 C 646.5 245.1, 601.5 231.9, 739.3 285.2 C 877.1 338.5, 807.4 404.6, 897.4 639.7 C 987.3 874.8, 953.1 728.1, 953.1 1035.0 Z" fill="#FFC7DA" opacity="0.27" filter="url(#blur_ambient_02_2031)"/>
  <path d="M 768.0 2106.0 C 768.0 2339.1, 785.4 2278.0, 656.1 2456.6 C 526.8 2635.1, 637.8 2605.3, 439.7 2645.8 C 241.6 2686.3, 278.4 2749.8, 104.2 2633.2 C -70.0 2516.7, 25.6 2527.6, -43.2 2308.6 C -112.0 2089.6, -93.4 2152.1, -24.6 1933.0 C 44.2 1714.0, -33.9 1795.9, 140.3 1679.4 C 314.5 1562.8, 244.9 1518.7, 443.0 1559.2 C 641.1 1599.7, 568.9 1562.6, 698.2 1741.2 C 827.5 1919.8, 768.0 1872.9, 768.0 2106.0 Z" fill="#EEE5FF" opacity="0.31" filter="url(#blur_ambient_02_2031)"/>
  <path d="M 1670.0 365.0 C 1670.0 665.2, 1559.1 503.6, 1410.1 733.5 C 1261.2 963.4, 1372.6 1010.8, 1144.4 1062.9 C 916.1 1115.0, 983.8 1001.5, 783.1 851.4 C 582.4 701.3, 728.2 870.9, 648.9 588.9 C 569.6 306.8, 553.4 438.9, 632.7 156.8 C 712.0 -125.2, 616.3 -134.6, 817.0 -284.7 C 1017.7 -434.7, 937.7 -230.1, 1166.0 -178.0 C 1394.2 -125.9, 1363.8 -243.8, 1512.7 -13.8 C 1661.7 216.1, 1670.0 64.8, 1670.0 365.0 Z" fill="#EEE5FF" opacity="0.37" filter="url(#blur_ambient_02_2031)"/>
  <path d="M 930.5 2146.0 C 930.5 2455.6, 1048.3 2298.0, 924.2 2535.2 C 800.1 2772.4, 839.1 2819.9, 648.9 2873.7 C 458.8 2927.4, 552.1 2882.8, 385.0 2728.0 C 217.8 2573.2, 164.9 2662.8, 98.9 2371.8 C 32.9 2080.9, 169.4 2167.5, 235.5 1876.5 C 301.5 1585.6, 180.6 1707.7, 347.7 1552.9 C 514.9 1398.1, 442.7 1535.2, 632.9 1589.0 C 823.0 1642.8, 733.6 1441.8, 857.7 1679.0 C 981.8 1916.2, 930.5 1836.4, 930.5 2146.0 Z" fill="#FDFFFF" opacity="0.36" filter="url(#blur_ambient_02_2031)"/>
  <path d="M 1924.7 1627.0 C 1924.7 1749.8, 1875.2 1688.4, 1722.8 1782.5 C 1570.3 1876.6, 1653.0 1834.8, 1419.4 1856.2 C 1185.9 1877.5, 1255.9 1901.9, 1050.5 1840.4 C 845.1 1779.0, 843.8 1824.1, 762.7 1708.6 C 681.6 1593.2, 754.7 1662.2, 835.8 1546.7 C 916.9 1431.3, 869.5 1457.7, 1074.9 1396.3 C 1280.2 1334.9, 1187.6 1375.9, 1421.2 1397.2 C 1654.7 1418.5, 1559.6 1360.4, 1712.1 1454.5 C 1864.5 1548.6, 1924.7 1504.2, 1924.7 1627.0 Z" fill="#DFF8FF" opacity="0.26" filter="url(#blur_ambient_02_2031)"/>
  <path d="M 324.0 1308.0 C 324.0 1603.7, 495.8 1401.1, 329.9 1640.3 C 164.1 1879.4, 241.4 1817.3, -26.9 1908.7 C -295.3 2000.1, -142.6 2097.2, -411.0 2005.8 C -679.3 1914.5, -614.5 1987.4, -780.4 1748.2 C -946.2 1509.0, -868.9 1603.7, -868.9 1308.0 C -868.9 1012.3, -871.4 1119.1, -705.6 879.9 C -539.7 640.7, -704.5 825.3, -436.2 733.9 C -167.8 642.6, -292.7 667.6, -24.4 758.9 C 243.9 850.3, 147.1 735.5, 312.9 974.6 C 478.8 1213.8, 324.0 1012.3, 324.0 1308.0 Z" fill="#FFECEF" opacity="0.12" stroke="#FFECEF" stroke-opacity="0.46" stroke-width="3" filter="url(#soft_ambient_02_2031)"/>
  <path d="M 324.0 1308.0 C 324.0 1603.7, 495.8 1401.1, 329.9 1640.3 C 164.1 1879.4, 241.4 1817.3, -26.9 1908.7 C -295.3 2000.1, -142.6 2097.2, -411.0 2005.8 C -679.3 1914.5, -614.5 1987.4, -780.4 1748.2 C -946.2 1509.0, -868.9 1603.7, -868.9 1308.0 C -868.9 1012.3, -871.4 1119.1, -705.6 879.9 C -539.7 640.7, -704.5 825.3, -436.2 733.9 C -167.8 642.6, -292.7 667.6, -24.4 758.9 C 243.9 850.3, 147.1 735.5, 312.9 974.6 C 478.8 1213.8, 324.0 1012.3, 324.0 1308.0 Z" fill="none" stroke="#FFFFFF" stroke-opacity="0.22" stroke-width="1.2"/>
  <path d="M 1525.7 1696.0 C 1525.7 1977.7, 1537.8 1799.0, 1405.3 2026.9 C 1272.7 2254.8, 1337.4 2121.7, 1123.0 2208.8 C 908.6 2295.8, 1012.2 2405.8, 797.7 2318.7 C 583.3 2231.7, 643.7 2327.1, 511.1 2099.2 C 378.6 1871.3, 442.2 1977.7, 442.2 1696.0 C 442.2 1414.3, 387.6 1569.9, 520.1 1342.0 C 652.6 1114.1, 582.2 1193.6, 796.6 1106.6 C 1011.0 1019.5, 897.4 1076.3, 1111.8 1163.4 C 1326.2 1250.4, 1213.0 1093.5, 1345.6 1321.4 C 1478.1 1549.3, 1525.7 1414.3, 1525.7 1696.0 Z" fill="#DFF8FF" opacity="0.12" stroke="#FFFFFF" stroke-opacity="0.46" stroke-width="3" filter="url(#soft_ambient_02_2031)"/>
  <path d="M 1525.7 1696.0 C 1525.7 1977.7, 1537.8 1799.0, 1405.3 2026.9 C 1272.7 2254.8, 1337.4 2121.7, 1123.0 2208.8 C 908.6 2295.8, 1012.2 2405.8, 797.7 2318.7 C 583.3 2231.7, 643.7 2327.1, 511.1 2099.2 C 378.6 1871.3, 442.2 1977.7, 442.2 1696.0 C 442.2 1414.3, 387.6 1569.9, 520.1 1342.0 C 652.6 1114.1, 582.2 1193.6, 796.6 1106.6 C 1011.0 1019.5, 897.4 1076.3, 1111.8 1163.4 C 1326.2 1250.4, 1213.0 1093.5, 1345.6 1321.4 C 1478.1 1549.3, 1525.7 1414.3, 1525.7 1696.0 Z" fill="none" stroke="#FFFFFF" stroke-opacity="0.22" stroke-width="1.2"/>
  <path d="M 1033.4 249.0 C 1033.4 473.1, 1060.2 368.4, 946.0 549.7 C 831.7 731.0, 900.0 663.0, 715.1 732.2 C 530.2 801.5, 634.2 856.2, 449.3 787.0 C 264.4 717.7, 403.2 750.8, 288.9 569.5 C 174.6 388.2, 148.7 473.1, 148.7 249.0 C 148.7 24.9, 139.7 113.8, 254.0 -67.5 C 368.3 -248.8, 283.9 -145.4, 468.8 -214.6 C 653.7 -283.9, 557.6 -238.1, 742.5 -168.9 C 927.4 -99.6, 793.4 -261.2, 907.7 -79.9 C 1021.9 101.4, 1033.4 24.9, 1033.4 249.0 Z" fill="#EEE5FF" opacity="0.12" stroke="#FFFFFF" stroke-opacity="0.46" stroke-width="3" filter="url(#soft_ambient_02_2031)"/>
  <path d="M 1033.4 249.0 C 1033.4 473.1, 1060.2 368.4, 946.0 549.7 C 831.7 731.0, 900.0 663.0, 715.1 732.2 C 530.2 801.5, 634.2 856.2, 449.3 787.0 C 264.4 717.7, 403.2 750.8, 288.9 569.5 C 174.6 388.2, 148.7 473.1, 148.7 249.0 C 148.7 24.9, 139.7 113.8, 254.0 -67.5 C 368.3 -248.8, 283.9 -145.4, 468.8 -214.6 C 653.7 -283.9, 557.6 -238.1, 742.5 -168.9 C 927.4 -99.6, 793.4 -261.2, 907.7 -79.9 C 1021.9 101.4, 1033.4 24.9, 1033.4 249.0 Z" fill="none" stroke="#FFFFFF" stroke-opacity="0.22" stroke-width="1.2"/>
  <path d="M 840.2 -198.0 C 840.2 175.5, 894.2 -63.6, 792.9 238.6 C 691.6 540.8, 738.7 544.1, 574.8 659.5 C 410.9 774.9, 507.8 606.0, 343.9 490.6 C 180.0 375.1, 226.9 539.1, 125.6 236.9 C 24.2 -65.2, 113.5 175.5, 113.5 -198.0 C 113.5 -571.5, 23.8 -350.6, 125.1 -652.8 C 226.4 -955.0, 164.6 -809.6, 328.6 -925.0 C 492.5 -1040.4, 409.0 -1017.1, 573.0 -901.6 C 736.9 -786.2, 621.9 -979.2, 723.2 -677.0 C 824.5 -374.9, 840.2 -571.5, 840.2 -198.0 Z" fill="#EEE5FF" opacity="0.12" stroke="#EEE5FF" stroke-opacity="0.46" stroke-width="3" filter="url(#soft_ambient_02_2031)"/>
  <path d="M 840.2 -198.0 C 840.2 175.5, 894.2 -63.6, 792.9 238.6 C 691.6 540.8, 738.7 544.1, 574.8 659.5 C 410.9 774.9, 507.8 606.0, 343.9 490.6 C 180.0 375.1, 226.9 539.1, 125.6 236.9 C 24.2 -65.2, 113.5 175.5, 113.5 -198.0 C 113.5 -571.5, 23.8 -350.6, 125.1 -652.8 C 226.4 -955.0, 164.6 -809.6, 328.6 -925.0 C 492.5 -1040.4, 409.0 -1017.1, 573.0 -901.6 C 736.9 -786.2, 621.9 -979.2, 723.2 -677.0 C 824.5 -374.9, 840.2 -571.5, 840.2 -198.0 Z" fill="none" stroke="#FFFFFF" stroke-opacity="0.22" stroke-width="1.2"/>
  <path d="M 1756.9 977.0 C 1756.9 1274.0, 1780.9 1155.6, 1659.8 1395.9 C 1538.6 1636.2, 1656.9 1470.1, 1460.9 1561.8 C 1264.9 1653.6, 1365.7 1714.2, 1169.7 1622.4 C 973.7 1530.6, 1059.0 1635.9, 937.9 1395.6 C 816.8 1155.3, 825.6 1274.0, 825.6 977.0 C 825.6 680.0, 811.1 842.7, 932.3 602.4 C 1053.4 362.1, 970.2 491.5, 1166.2 399.7 C 1362.3 308.0, 1263.3 173.5, 1459.3 265.3 C 1655.3 357.0, 1546.4 345.9, 1667.6 586.2 C 1788.7 826.5, 1756.9 680.0, 1756.9 977.0 Z" fill="#A9EAF6" opacity="0.12" stroke="#FFFFFF" stroke-opacity="0.46" stroke-width="3" filter="url(#soft_ambient_02_2031)"/>
  <path d="M 1756.9 977.0 C 1756.9 1274.0, 1780.9 1155.6, 1659.8 1395.9 C 1538.6 1636.2, 1656.9 1470.1, 1460.9 1561.8 C 1264.9 1653.6, 1365.7 1714.2, 1169.7 1622.4 C 973.7 1530.6, 1059.0 1635.9, 937.9 1395.6 C 816.8 1155.3, 825.6 1274.0, 825.6 977.0 C 825.6 680.0, 811.1 842.7, 932.3 602.4 C 1053.4 362.1, 970.2 491.5, 1166.2 399.7 C 1362.3 308.0, 1263.3 173.5, 1459.3 265.3 C 1655.3 357.0, 1546.4 345.9, 1667.6 586.2 C 1788.7 826.5, 1756.9 680.0, 1756.9 977.0 Z" fill="none" stroke="#FFFFFF" stroke-opacity="0.22" stroke-width="1.2"/>
  <path d="M 986.2 2897.0 C 986.2 3061.2, 926.8 2986.6, 792.1 3119.5 C 657.5 3252.4, 793.0 3152.5, 575.2 3203.3 C 357.3 3254.0, 479.9 3323.1, 262.1 3272.3 C 44.2 3221.6, 118.5 3258.7, -16.2 3125.8 C -150.8 2992.9, -92.8 3061.2, -92.8 2897.0 C -92.8 2732.8, -61.3 2844.4, 73.3 2711.5 C 207.9 2578.6, 70.5 2637.1, 288.3 2586.4 C 506.1 2535.6, 354.8 2544.4, 572.7 2595.2 C 790.5 2645.9, 745.2 2542.1, 879.9 2674.9 C 1014.5 2807.8, 986.2 2732.8, 986.2 2897.0 Z" fill="#D6C2FF" opacity="0.12" stroke="#FFFFFF" stroke-opacity="0.46" stroke-width="3" filter="url(#soft_ambient_02_2031)"/>
  <path d="M 986.2 2897.0 C 986.2 3061.2, 926.8 2986.6, 792.1 3119.5 C 657.5 3252.4, 793.0 3152.5, 575.2 3203.3 C 357.3 3254.0, 479.9 3323.1, 262.1 3272.3 C 44.2 3221.6, 118.5 3258.7, -16.2 3125.8 C -150.8 2992.9, -92.8 3061.2, -92.8 2897.0 C -92.8 2732.8, -61.3 2844.4, 73.3 2711.5 C 207.9 2578.6, 70.5 2637.1, 288.3 2586.4 C 506.1 2535.6, 354.8 2544.4, 572.7 2595.2 C 790.5 2645.9, 745.2 2542.1, 879.9 2674.9 C 1014.5 2807.8, 986.2 2732.8, 986.2 2897.0 Z" fill="none" stroke="#FFFFFF" stroke-opacity="0.22" stroke-width="1.2"/>
  <path d="M 833.0 -101.0 C 833.0 85.8, 892.1 -26.1, 740.3 125.0 C 588.5 276.1, 689.0 191.2, 443.4 248.9 C 197.7 306.6, 343.9 329.5, 98.2 271.8 C -147.4 214.1, -33.3 283.9, -185.1 132.8 C -336.9 -18.3, -319.9 85.8, -319.9 -101.0 C -319.9 -287.7, -324.6 -205.0, -172.7 -356.0 C -20.9 -507.1, -174.3 -482.1, 71.3 -539.8 C 317.0 -597.5, 192.8 -591.6, 438.4 -533.9 C 684.1 -476.2, 559.6 -516.6, 711.4 -365.5 C 863.2 -214.4, 833.0 -287.8, 833.0 -101.0 Z" fill="#FDFFFF" opacity="0.12" stroke="#FFFFFF" stroke-opacity="0.46" stroke-width="3" filter="url(#soft_ambient_02_2031)"/>
  <path d="M 833.0 -101.0 C 833.0 85.8, 892.1 -26.1, 740.3 125.0 C 588.5 276.1, 689.0 191.2, 443.4 248.9 C 197.7 306.6, 343.9 329.5, 98.2 271.8 C -147.4 214.1, -33.3 283.9, -185.1 132.8 C -336.9 -18.3, -319.9 85.8, -319.9 -101.0 C -319.9 -287.7, -324.6 -205.0, -172.7 -356.0 C -20.9 -507.1, -174.3 -482.1, 71.3 -539.8 C 317.0 -597.5, 192.8 -591.6, 438.4 -533.9 C 684.1 -476.2, 559.6 -516.6, 711.4 -365.5 C 863.2 -214.4, 833.0 -287.8, 833.0 -101.0 Z" fill="none" stroke="#FFFFFF" stroke-opacity="0.22" stroke-width="1.2"/>
  <path d="M -100.0 1734.0 Q 133.3 1965.6, 366.7 2111.2 Q 600.0 2142.8, 833.3 2250.3 Q 1066.7 2120.8, 1300.0 1841.3" fill="none" stroke="#FFFFFF" stroke-opacity="0.38" stroke-width="4" filter="url(#soft_ambient_02_2031)"/>
  <path d="M -100.0 1734.0 Q 133.3 1965.6, 366.7 2111.2 Q 600.0 2142.8, 833.3 2250.3 Q 1066.7 2120.8, 1300.0 1841.3" fill="none" stroke="#B6F5D1" stroke-opacity="0.18" stroke-width="2"/>
  <path d="M -100.0 1700.9 Q 133.3 1821.4, 366.7 1809.7 Q 600.0 1493.4, 833.3 1270.3 Q 1066.7 1220.2, 1300.0 1495.4" fill="none" stroke="#FFFFFF" stroke-opacity="0.38" stroke-width="4" filter="url(#soft_ambient_02_2031)"/>
  <path d="M -100.0 1700.9 Q 133.3 1821.4, 366.7 1809.7 Q 600.0 1493.4, 833.3 1270.3 Q 1066.7 1220.2, 1300.0 1495.4" fill="none" stroke="#D6C2FF" stroke-opacity="0.18" stroke-width="2"/>
  <path d="M -100.0 2705.9 Q 133.3 2564.2, 366.7 2207.8 Q 600.0 2015.4, 833.3 1989.7 Q 1066.7 1976.9, 1300.0 2259.9" fill="none" stroke="#FFFFFF" stroke-opacity="0.38" stroke-width="4" filter="url(#soft_ambient_02_2031)"/>
  <path d="M -100.0 2705.9 Q 133.3 2564.2, 366.7 2207.8 Q 600.0 2015.4, 833.3 1989.7 Q 1066.7 1976.9, 1300.0 2259.9" fill="none" stroke="#FFC7DA" stroke-opacity="0.18" stroke-width="2"/>
  <path d="M -100.0 1401.1 Q 133.3 1237.3, 366.7 1136.3 Q 600.0 1058.2, 833.3 1059.3 Q 1066.7 1241.4, 1300.0 1282.8" fill="none" stroke="#FFFFFF" stroke-opacity="0.38" stroke-width="4" filter="url(#soft_ambient_02_2031)"/>
  <path d="M -100.0 1401.1 Q 133.3 1237.3, 366.7 1136.3 Q 600.0 1058.2, 833.3 1059.3 Q 1066.7 1241.4, 1300.0 1282.8" fill="none" stroke="#B6F5D1" stroke-opacity="0.18" stroke-width="2"/>
  <circle cx="1154" cy="1325" r="129" fill="url(#orb_ambient_02_2031)" opacity="0.36"/>
  <circle cx="1154" cy="1325" r="129" fill="#EEE5FF" opacity="0.08"/>
  <circle cx="1154" cy="1325" r="129" fill="none" stroke="#FFFFFF" stroke-opacity="0.56" stroke-width="3"/>
  <ellipse cx="1117.9" cy="1278.6" rx="23.2" ry="10.3" fill="#FFFFFF" opacity="0.42" transform="rotate(-22 1117.9 1278.6)"/>
  <circle cx="945" cy="1283" r="82" fill="url(#orb_ambient_02_2031)" opacity="0.36"/>
  <circle cx="945" cy="1283" r="82" fill="#EEE5FF" opacity="0.08"/>
  <circle cx="945" cy="1283" r="82" fill="none" stroke="#FFFFFF" stroke-opacity="0.56" stroke-width="3"/>
  <ellipse cx="922.0" cy="1253.5" rx="14.8" ry="6.6" fill="#FFFFFF" opacity="0.42" transform="rotate(-22 922.0 1253.5)"/>
  <circle cx="29" cy="503" r="117" fill="url(#orb_ambient_02_2031)" opacity="0.36"/>
  <circle cx="29" cy="503" r="117" fill="#DFFCED" opacity="0.08"/>
  <circle cx="29" cy="503" r="117" fill="none" stroke="#FFFFFF" stroke-opacity="0.56" stroke-width="3"/>
  <ellipse cx="-3.8" cy="460.9" rx="21.1" ry="9.4" fill="#FFFFFF" opacity="0.42" transform="rotate(-22 -3.8 460.9)"/>
  <circle cx="1252" cy="422" r="208" fill="url(#orb_ambient_02_2031)" opacity="0.23"/>
  <circle cx="1252" cy="422" r="208" fill="#D6C2FF" opacity="0.08"/>
  <circle cx="1252" cy="422" r="208" fill="none" stroke="#FFFFFF" stroke-opacity="0.56" stroke-width="3"/>
  <ellipse cx="1193.8" cy="347.1" rx="37.4" ry="16.6" fill="#FFFFFF" opacity="0.42" transform="rotate(-22 1193.8 347.1)"/>
  <circle cx="941" cy="226" r="124" fill="url(#orb_ambient_02_2031)" opacity="0.16"/>
  <circle cx="941" cy="226" r="124" fill="#FFECEF" opacity="0.08"/>
  <circle cx="941" cy="226" r="124" fill="none" stroke="#FFFFFF" stroke-opacity="0.56" stroke-width="3"/>
  <ellipse cx="906.3" cy="181.4" rx="22.3" ry="9.9" fill="#FFFFFF" opacity="0.42" transform="rotate(-22 906.3 181.4)"/>
  <circle cx="1161" cy="-60" r="160" fill="url(#orb_ambient_02_2031)" opacity="0.25"/>
  <circle cx="1161" cy="-60" r="160" fill="#A9EAF6" opacity="0.08"/>
  <circle cx="1161" cy="-60" r="160" fill="none" stroke="#FFFFFF" stroke-opacity="0.56" stroke-width="3"/>
  <ellipse cx="1116.2" cy="-117.6" rx="28.8" ry="12.8" fill="#FFFFFF" opacity="0.42" transform="rotate(-22 1116.2 -117.6)"/>
  <circle cx="723" cy="802" r="7" fill="#FFFFFF" opacity="0.56"/>
  <circle cx="576" cy="1330" r="7" fill="#FFFFFF" opacity="0.63"/>
  <circle cx="318" cy="2455" r="5" fill="#FFFFFF" opacity="0.36"/>
  <circle cx="804" cy="1429" r="5" fill="#FFFFFF" opacity="0.71"/>
  <circle cx="349" cy="1606" r="3" fill="#FFFFFF" opacity="0.36"/>
  <circle cx="931" cy="333" r="5" fill="#FFFFFF" opacity="0.54"/>
  <circle cx="941" cy="708" r="5" fill="#FFFFFF" opacity="0.31"/>
  <circle cx="758" cy="48" r="4" fill="#FFFFFF" opacity="0.52"/>
  <circle cx="156" cy="1244" r="7" fill="#FFFFFF" opacity="0.30"/>
  <circle cx="798" cy="669" r="7" fill="#FFFFFF" opacity="0.69"/>
  <circle cx="978" cy="2329" r="4" fill="#FFFFFF" opacity="0.43"/>
  <circle cx="68" cy="186" r="2" fill="#FFFFFF" opacity="0.60"/>
  <circle cx="646" cy="2258" r="2" fill="#FFFFFF" opacity="0.45"/>
  <circle cx="188" cy="1219" r="5" fill="#FFFFFF" opacity="0.52"/>
  <rect width="1200" height="2600" fill="#FFFFFF" opacity="0.08"/>
  <rect width="1200" height="2600" filter="url(#grain_ambient_02_2031)" opacity="0.7"/>
</svg>
