<svg xmlns="http://www.w3.org/2000/svg" width="1200" height="2600" viewBox="0 0 1200 2600" preserveAspectRatio="xMidYMid slice">
  <defs>
    <linearGradient id="bg_ambient_04_1828" x1="0" y1="0" x2="1" y2="1">
      <stop offset="0%" stop-color="#EEE5FF"/>
      <stop offset="48%" stop-color="#DFF8FF"/>
      <stop offset="100%" stop-color="#FFECEF"/>
    </linearGradient>
    <radialGradient id="orb_ambient_04_1828" cx="35%" cy="30%" r="70%">
      <stop offset="0%" stop-color="#FFFFFF" stop-opacity="0.85"/>
      <stop offset="42%" stop-color="#FFFFFF" stop-opacity="0.20"/>
      <stop offset="100%" stop-color="#FFFFFF" stop-opacity="0.02"/>
    </radialGradient>
    <filter id="blur_ambient_04_1828" x="-30%" y="-30%" width="160%" height="160%">
      <feGaussianBlur stdDeviation="72"/>
    </filter>
    <filter id="soft_ambient_04_1828" x="-20%" y="-20%" width="140%" height="140%">
      <feGaussianBlur stdDeviation="10"/>
    </filter>
    <filter id="grain_ambient_04_1828">
      <feTurbulence type="fractalNoise" baseFrequency="0.85" numOctaves="2" stitchTiles="stitch"/>
      <feColorMatrix type="saturate" values="0"/>
      <feComponentTransfer>
        <feFuncA type="table" tableValues="0 0.035"/>
      </feComponentTransfer>
    </filter>
  </defs>
  <rect width="1200" height="2600" fill="url(#bg_ambient_04_1828)"/>
  <path d="M 1835.6 669.0 C 1835.6 920.1, 1823.6 837.8, 1687.9 1030.1 C 1552.2 1222.5, 1658.4 1169.1, 1450.6 1212.7 C 1242.7 1256.3, 1322.7 1278.7, 1140.0 1153.2 C 957.2 1027.6, 966.7 1128.3, 894.5 892.4 C 822.3 656.4, 786.6 707.1, 858.7 471.1 C 930.9 235.2, 923.8 385.0, 1106.6 259.4 C 1289.3 133.9, 1226.3 -2.1, 1434.1 41.5 C 1641.9 85.1, 1608.8 112.2, 1744.5 304.6 C 1880.2 496.9, 1835.6 417.9, 1835.6 669.0 Z" fill="#B6F5D1" opacity="0.28" filter="url(#blur_ambient_04_1828)"/>
  <path d="M 387.4 1282.0 C 387.4 1593.4, 451.9 1426.2, 331.2 1664.8 C 210.6 1903.3, 241.8 1966.7, 57.0 2020.7 C -127.8 2074.8, -85.5 2128.0, -248.0 1972.3 C -410.5 1816.6, -326.4 1827.7, -390.6 1535.0 C -454.7 1242.4, -446.6 1365.4, -382.4 1072.8 C -318.2 780.2, -364.5 792.0, -202.0 636.3 C -39.5 480.6, -135.4 521.6, 49.4 575.7 C 234.2 629.8, 180.6 672.4, 301.2 911.0 C 421.8 1149.5, 387.4 970.6, 387.4 1282.0 Z" fill="#FDFFFF" opacity="0.28" filter="url(#blur_ambient_04_1828)"/>
  <path d="M 1780.3 467.0 C 1780.3 709.5, 1742.4 673.9, 1583.9 859.7 C 1425.4 1045.5, 1576.1 937.2, 1333.3 979.4 C 1090.4 1021.5, 1214.0 1011.8, 1000.5 890.5 C 786.9 769.3, 786.4 875.7, 702.0 647.7 C 617.7 419.8, 702.3 543.6, 786.6 315.6 C 870.9 87.7, 765.5 197.9, 979.1 76.6 C 1192.7 -44.6, 1086.0 -89.6, 1328.8 -47.5 C 1571.7 -5.4, 1435.0 -65.7, 1593.5 120.1 C 1752.0 305.9, 1780.3 224.4, 1780.3 467.0 Z" fill="#B6F5D1" opacity="0.18" filter="url(#blur_ambient_04_1828)"/>
  <path d="M 1162.1 1422.0 C 1162.1 1714.0, 1226.7 1672.3, 1120.0 1896.0 C 1013.3 2119.7, 1078.5 2117.2, 915.0 2167.9 C 751.5 2218.6, 791.2 2079.1, 647.4 1933.1 C 503.6 1787.1, 594.0 1941.7, 537.2 1667.3 C 480.4 1392.9, 442.6 1479.3, 499.4 1204.8 C 556.2 930.4, 501.2 1092.2, 645.0 946.2 C 788.9 800.2, 757.9 840.1, 921.4 890.8 C 1085.0 941.5, 1057.4 726.6, 1164.1 950.3 C 1270.9 1174.1, 1162.1 1130.0, 1162.1 1422.0 Z" fill="#DDEEFF" opacity="0.17" filter="url(#blur_ambient_04_1828)"/>
  <path d="M 102.1 -238.0 C 102.1 -66.1, 129.6 -148.1, 59.3 -16.5 C -11.0 115.2, 41.5 83.3, -66.2 113.2 C -173.9 143.0, -160.2 163.3, -254.9 77.4 C -349.6 -8.6, -325.2 59.0, -362.6 -102.6 C -400.0 -264.1, -359.6 -193.1, -322.2 -354.6 C -284.8 -516.1, -316.1 -531.2, -221.4 -617.1 C -126.7 -703.1, -184.9 -596.3, -77.2 -566.5 C 30.5 -536.6, 23.4 -617.8, 93.7 -486.1 C 164.0 -354.4, 102.1 -409.9, 102.1 -238.0 Z" fill="#A9EAF6" opacity="0.24" filter="url(#blur_ambient_04_1828)"/>
  <path d="M 149.4 2522.0 C 149.4 2707.4, 119.6 2634.2, 40.6 2776.2 C -38.4 2918.2, 23.7 2874.3, -97.3 2906.5 C -218.3 2938.7, -184.0 3022.9, -290.4 2930.2 C -396.8 2837.5, -350.0 2837.8, -392.1 2663.6 C -434.1 2489.4, -487.3 2578.5, -445.3 2404.3 C -403.3 2230.0, -383.5 2254.4, -277.1 2161.7 C -170.7 2069.0, -219.2 2076.8, -98.2 2109.0 C 22.8 2141.1, -54.8 2109.5, 24.2 2251.5 C 103.1 2393.5, 149.4 2336.6, 149.4 2522.0 Z" fill="#FFC7DA" opacity="0.18" filter="url(#blur_ambient_04_1828)"/>
  <path d="M 1324.9 940.0 C 1324.9 1104.7, 1298.8 1061.3, 1174.1 1187.4 C 1049.5 1313.6, 1112.9 1263.8, 921.9 1292.4 C 730.9 1321.0, 826.7 1298.7, 658.7 1216.3 C 490.7 1134.0, 550.1 1228.5, 483.8 1073.7 C 417.4 919.0, 312.8 954.5, 379.1 799.7 C 445.5 645.0, 486.2 684.6, 654.2 602.2 C 822.2 519.9, 738.7 511.3, 929.7 539.9 C 1120.7 568.5, 1092.7 604.8, 1217.3 730.9 C 1342.0 857.1, 1324.9 775.3, 1324.9 940.0 Z" fill="#DFFCED" opacity="0.36" filter="url(#blur_ambient_04_1828)"/>
  <path d="M 264.2 1964.0 C 264.2 2198.0, 267.9 2146.4, 161.4 2325.6 C 55.0 2504.9, 49.5 2354.3, -113.6 2395.0 C -276.7 2435.6, -220.7 2510.9, -364.1 2393.9 C -507.5 2276.9, -511.5 2371.2, -568.1 2151.3 C -624.8 1931.4, -543.0 2037.3, -486.3 1817.4 C -429.7 1597.5, -491.6 1639.0, -348.2 1522.0 C -204.8 1405.0, -273.2 1440.7, -110.1 1481.3 C 53.0 1521.9, 50.9 1492.0, 157.3 1671.3 C 263.8 1850.5, 264.2 1730.0, 264.2 1964.0 Z" fill="#D6C2FF" opacity="0.35" filter="url(#blur_ambient_04_1828)"/>
  <path d="M 1590.7 2621.0 C 1590.7 2764.1, 1532.1 2750.4, 1455.1 2860.0 C 1378.2 2969.6, 1443.2 2942.5, 1325.4 2967.4 C 1207.5 2992.2, 1277.1 2934.9, 1173.4 2863.3 C 1069.8 2791.8, 1102.0 2846.9, 1061.1 2712.4 C 1020.1 2578.0, 1019.2 2654.6, 1060.2 2520.1 C 1101.1 2385.6, 1066.0 2448.4, 1169.7 2376.9 C 1273.4 2305.3, 1215.6 2266.6, 1333.5 2291.4 C 1451.4 2316.3, 1439.9 2275.3, 1516.8 2384.9 C 1593.8 2494.6, 1590.7 2477.9, 1590.7 2621.0 Z" fill="#B6F5D1" opacity="0.27" filter="url(#blur_ambient_04_1828)"/>
  <path d="M 533.7 915.0 C 533.7 1118.0, 595.6 1071.8, 458.5 1227.3 C 321.4 1382.7, 375.7 1320.3, 165.6 1355.5 C -44.4 1390.7, 45.3 1475.9, -139.4 1374.4 C -324.1 1272.9, -331.0 1254.0, -403.9 1063.3 C -476.9 872.6, -509.8 931.3, -436.8 740.6 C -363.9 549.9, -340.6 564.0, -155.9 462.5 C 28.8 361.1, -64.8 360.7, 145.2 396.0 C 355.3 431.2, 278.0 517.6, 415.1 673.1 C 552.2 828.6, 533.7 712.0, 533.7 915.0 Z" fill="#FFC7DA" opacity="0.31" filter="url(#blur_ambient_04_1828)"/>
  <path d="M 824.5 2525.0 C 824.5 2751.3, 804.1 2627.8, 704.6 2801.2 C 605.1 2974.6, 626.1 3011.5, 473.7 3050.8 C 321.2 3090.2, 359.2 3074.3, 225.2 2961.1 C 91.1 2847.9, 184.1 2884.2, 131.2 2671.5 C 78.3 2458.8, 26.3 2563.6, 79.3 2350.9 C 132.2 2138.2, 145.0 2159.4, 279.1 2046.2 C 413.1 1933.0, 319.1 2070.9, 471.6 2110.2 C 624.0 2149.5, 566.1 2039.9, 665.7 2213.3 C 765.2 2386.6, 824.5 2298.7, 824.5 2525.0 Z" fill="#DDEEFF" opacity="0.30" filter="url(#blur_ambient_04_1828)"/>
  <path d="M 1244.1 259.0 C 1244.1 538.5, 1257.7 403.1, 1103.2 617.2 C 948.8 831.2, 1037.9 804.3, 801.2 852.8 C 564.6 901.3, 698.3 903.2, 490.2 763.5 C 282.1 623.7, 251.7 760.0, 169.6 497.4 C 87.4 234.8, 188.4 284.9, 270.6 22.3 C 352.8 -240.3, 280.5 -56.4, 488.6 -196.1 C 696.7 -335.9, 568.3 -443.6, 804.9 -395.1 C 1041.6 -346.5, 1040.7 -300.5, 1195.2 -86.4 C 1349.7 127.7, 1244.1 -20.4, 1244.1 259.0 Z" fill="#B6F5D1" opacity="0.29" filter="url(#blur_ambient_04_1828)"/>
  <path d="M 1153.2 1622.0 C 1153.2 1883.0, 1157.4 1745.9, 1078.0 1957.1 C 998.7 2168.2, 1086.4 2058.1, 958.0 2138.8 C 829.6 2219.5, 904.7 2244.6, 776.3 2163.9 C 647.9 2083.3, 670.2 2161.8, 590.8 1950.6 C 511.5 1739.5, 523.6 1883.0, 523.6 1622.0 C 523.6 1361.0, 525.9 1536.1, 605.2 1325.0 C 684.6 1113.8, 632.2 1174.0, 760.6 1093.3 C 888.9 1012.7, 840.2 965.1, 968.6 1045.7 C 1096.9 1126.4, 1057.9 1095.4, 1137.3 1306.6 C 1216.6 1517.7, 1153.2 1361.0, 1153.2 1622.0 Z" fill="#FFECEF" opacity="0.12" stroke="#FFFFFF" stroke-opacity="0.46" stroke-width="3" filter="url(#soft_ambient_04_1828)"/>
  <path d="M 1153.2 1622.0 C 1153.2 1883.0, 1157.4 1745.9, 1078.0 1957.1 C 998.7 2168.2, 1086.4 2058.1, 958.0 2138.8 C 829.6 2219.5, 904.7 2244.6, 776.3 2163.9 C 647.9 2083.3, 670.2 2161.8, 590.8 1950.6 C 511.5 1739.5, 523.6 1883.0, 523.6 1622.0 C 523.6 1361.0, 525.9 1536.1, 605.2 1325.0 C 684.6 1113.8, 632.2 1174.0, 760.6 1093.3 C 888.9 1012.7, 840.2 965.1, 968.6 1045.7 C 1096.9 1126.4, 1057.9 1095.4, 1137.3 1306.6 C 1216.6 1517.7, 1153.2 1361.0, 1153.2 1622.0 Z" fill="none" stroke="#FFFFFF" stroke-opacity="0.22" stroke-width="1.2"/>
  <path d="M 1425.6 457.0 C 1425.6 783.7, 1419.6 585.3, 1272.0 849.6 C 1124.4 1114.0, 1236.7 1138.6, 997.9 1239.6 C 759.1 1340.5, 859.3 1159.0, 620.5 1058.0 C 381.7 957.0, 561.4 1164.2, 413.8 899.9 C 266.2 635.6, 323.4 783.7, 323.4 457.0 C 323.4 130.3, 257.1 292.1, 404.7 27.8 C 552.3 -236.5, 379.7 -223.2, 618.6 -324.2 C 857.4 -425.1, 754.5 -373.3, 993.3 -272.4 C 1232.1 -171.4, 1152.7 -204.5, 1300.3 59.8 C 1447.9 324.1, 1425.6 130.3, 1425.6 457.0 Z" fill="#FFC7DA" opacity="0.12" stroke="#FFFFFF" stroke-opacity="0.46" stroke-width="3" filter="url(#soft_ambient_04_1828)"/>
  <path d="M 1425.6 457.0 C 1425.6 783.7, 1419.6 585.3, 1272.0 849.6 C 1124.4 1114.0, 1236.7 1138.6, 997.9 1239.6 C 759.1 1340.5, 859.3 1159.0, 620.5 1058.0 C 381.7 957.0, 561.4 1164.2, 413.8 899.9 C 266.2 635.6, 323.4 783.7, 323.4 457.0 C 323.4 130.3, 257.1 292.1, 404.7 27.8 C 552.3 -236.5, 379.7 -223.2, 618.6 -324.2 C 857.4 -425.1, 754.5 -373.3, 993.3 -272.4 C 1232.1 -171.4, 1152.7 -204.5, 1300.3 59.8 C 1447.9 324.1, 1425.6 130.3, 1425.6 457.0 Z" fill="none" stroke="#FFFFFF" stroke-opacity="0.22" stroke-width="1.2"/>
  <path d="M 1130.7 1461.0 C 1130.7 1655.0, 1230.3 1590.7, 1127.9 1747.6 C 1025.6 1904.5, 1062.8 1828.8, 897.1 1888.7 C 731.5 1948.7, 843.1 1968.9, 677.5 1909.0 C 511.9 1849.1, 623.3 1891.0, 521.0 1734.1 C 418.6 1577.2, 433.6 1655.0, 433.6 1461.0 C 433.6 1267.0, 404.0 1350.1, 506.3 1193.2 C 608.7 1036.3, 494.9 1073.9, 660.5 1014.0 C 826.1 954.1, 752.1 1016.3, 917.7 1076.3 C 1083.3 1136.2, 1024.5 1023.3, 1126.9 1180.3 C 1229.2 1337.2, 1130.7 1267.0, 1130.7 1461.0 Z" fill="#DDEEFF" opacity="0.12" stroke="#DDEEFF" stroke-opacity="0.46" stroke-width="3" filter="url(#soft_ambient_04_1828)"/>
  <path d="M 1130.7 1461.0 C 1130.7 1655.0, 1230.3 1590.7, 1127.9 1747.6 C 1025.6 1904.5, 1062.8 1828.8, 897.1 1888.7 C 731.5 1948.7, 843.1 1968.9, 677.5 1909.0 C 511.9 1849.1, 623.3 1891.0, 521.0 1734.1 C 418.6 1577.2, 433.6 1655.0, 433.6 1461.0 C 433.6 1267.0, 404.0 1350.1, 506.3 1193.2 C 608.7 1036.3, 494.9 1073.9, 660.5 1014.0 C 826.1 954.1, 752.1 1016.3, 917.7 1076.3 C 1083.3 1136.2, 1024.5 1023.3, 1126.9 1180.3 C 1229.2 1337.2, 1130.7 1267.0, 1130.7 1461.0 Z" fill="none" stroke="#FFFFFF" stroke-opacity="0.22" stroke-width="1.2"/>
  <path d="M 644.5 1092.0 C 644.5 1343.1, 771.5 1190.5, 638.4 1393.6 C 505.4 1596.8, 568.7 1503.9, 353.5 1581.5 C 138.2 1659.1, 279.4 1738.2, 64.1 1660.6 C -151.2 1583.1, -79.5 1620.9, -212.5 1417.8 C -345.6 1214.6, -322.1 1343.1, -322.1 1092.0 C -322.1 840.9, -377.6 953.2, -244.5 750.1 C -111.5 546.9, -147.1 629.4, 68.1 551.8 C 283.4 474.2, 136.5 474.5, 351.8 552.1 C 567.1 629.7, 530.0 576.1, 663.0 779.2 C 796.1 982.4, 644.5 840.9, 644.5 1092.0 Z" fill="#FFECEF" opacity="0.12" stroke="#FFFFFF" stroke-opacity="0.46" stroke-width="3" filter="url(#soft_ambient_04_1828)"/>
  <path d="M 644.5 1092.0 C 644.5 1343.1, 771.5 1190.5, 638.4 1393.6 C 505.4 1596.8, 568.7 1503.9, 353.5 1581.5 C 138.2 1659.1, 279.4 1738.2, 64.1 1660.6 C -151.2 1583.1, -79.5 1620.9, -212.5 1417.8 C -345.6 1214.6, -322.1 1343.1, -322.1 1092.0 C -322.1 840.9, -377.6 953.2, -244.5 750.1 C -111.5 546.9, -147.1 629.4, 68.1 551.8 C 283.4 474.2, 136.5 474.5, 351.8 552.1 C 567.1 629.7, 530.0 576.1, 663.0 779.2 C 796.1 982.4, 644.5 840.9, 644.5 1092.0 Z" fill="none" stroke="#FFFFFF" stroke-opacity="0.22" stroke-width="1.2"/>
  <path d="M -100.0 6.7 Q 133.3 147.4, 366.7 168.6 Q 600.0 184.9, 833.3 -19.9 Q 1066.7 -235.4, 1300.0 -437.0" fill="none" stroke="#FFFFFF" stroke-opacity="0.38" stroke-width="4" filter="url(#soft_ambient_04_1828)"/>
  <path d="M -100.0 6.7 Q 133.3 147.4, 366.7 168.6 Q 600.0 184.9, 833.3 -19.9 Q 1066.7 -235.4, 1300.0 -437.0" fill="none" stroke="#D6C2FF" stroke-opacity="0.18" stroke-width="2"/>
  <path d="M -100.0 559.5 Q 133.3 738.2, 366.7 829.1 Q 600.0 741.1, 833.3 505.3 Q 1066.7 514.4, 1300.0 834.4" fill="none" stroke="#FFFFFF" stroke-opacity="0.38" stroke-width="4" filter="url(#soft_ambient_04_1828)"/>
  <path d="M -100.0 559.5 Q 133.3 738.2, 366.7 829.1 Q 600.0 741.1, 833.3 505.3 Q 1066.7 514.4, 1300.0 834.4" fill="none" stroke="#D6C2FF" stroke-opacity="0.18" stroke-width="2"/>
  <path d="M -100.0 247.7 Q 133.3 433.9, 366.7 788.5 Q 600.0 713.2, 833.3 388.8 Q 1066.7 414.0, 1300.0 680.7" fill="none" stroke="#FFFFFF" stroke-opacity="0.38" stroke-width="4" filter="url(#soft_ambient_04_1828)"/>
  <path d="M -100.0 247.7 Q 133.3 433.9, 366.7 788.5 Q 600.0 713.2, 833.3 388.8 Q 1066.7 414.0, 1300.0 680.7" fill="none" stroke="#D6C2FF" stroke-opacity="0.18" stroke-width="2"/>
  <path d="M -100.0 1778.9 Q 133.3 2080.1, 366.7 1827.8 Q 600.0 1696.7, 833.3 1805.8 Q 1066.7 1999.4, 1300.0 1947.4" fill="none" stroke="#FFFFFF" stroke-opacity="0.38" stroke-width="4" filter="url(#soft_ambient_04_1828)"/>
  <path d="M -100.0 1778.9 Q 133.3 2080.1, 366.7 1827.8 Q 600.0 1696.7, 833.3 1805.8 Q 1066.7 1999.4, 1300.0 1947.4" fill="none" stroke="#A9EAF6" stroke-opacity="0.18" stroke-width="2"/>
  <path d="M -100.0 718.4 Q 133.3 1043.6, 366.7 1248.3 Q 600.0 1044.1, 833.3 694.3 Q 1066.7 600.9, 1300.0 889.5" fill="none" stroke="#FFFFFF" stroke-opacity="0.38" stroke-width="4" filter="url(#soft_ambient_04_1828)"/>
  <path d="M -100.0 718.4 Q 133.3 1043.6, 366.7 1248.3 Q 600.0 1044.1, 833.3 694.3 Q 1066.7 600.9, 1300.0 889.5" fill="none" stroke="#FFC7DA" stroke-opacity="0.18" stroke-width="2"/>
  <path d="M -100.0 2211.6 Q 133.3 2273.6, 366.7 2005.4 Q 600.0 1810.8, 833.3 1720.1 Q 1066.7 1502.7, 1300.0 1609.6" fill="none" stroke="#FFFFFF" stroke-opacity="0.38" stroke-width="4" filter="url(#soft_ambient_04_1828)"/>
  <path d="M -100.0 2211.6 Q 133.3 2273.6, 366.7 2005.4 Q 600.0 1810.8, 833.3 1720.1 Q 1066.7 1502.7, 1300.0 1609.6" fill="none" stroke="#A9EAF6" stroke-opacity="0.18" stroke-width="2"/>
  <circle cx="1258" cy="1884" r="109" fill="url(#orb_ambient_04_1828)" opacity="0.36"/>
  <circle cx="1258" cy="1884" r="109" fill="#A9EAF6" opacity="0.08"/>
  <circle cx="1258" cy="1884" r="109" fill="none" stroke="#FFFFFF" stroke-opacity="0.56" stroke-width="3"/>
  <ellipse cx="1227.5" cy="1844.8" rx="19.6" ry="8.7" fill="#FFFFFF" opacity="0.42" transform="rotate(-22 1227.5 1844.8)"/>
  <circle cx="348" cy="1613" r="117" fill="url(#orb_ambient_04_1828)" opacity="0.36"/>
  <circle cx="348" cy="1613" r="117" fill="#EEE5FF" opacity="0.08"/>
  <circle cx="348" cy="1613" r="117" fill="none" stroke="#FFFFFF" stroke-opacity="0.56" stroke-width="3"/>
  <ellipse cx="315.2" cy="1570.9" rx="21.1" ry="9.4" fill="#FFFFFF" opacity="0.42" transform="rotate(-22 315.2 1570.9)"/>
  <circle cx="1138" cy="2311" r="106" fill="url(#orb_ambient_04_1828)" opacity="0.36"/>
  <circle cx="1138" cy="2311" r="106" fill="#DFFCED" opacity="0.08"/>
  <circle cx="1138" cy="2311" r="106" fill="none" stroke="#FFFFFF" stroke-opacity="0.56" stroke-width="3"/>
  <ellipse cx="1108.3" cy="2272.8" rx="19.1" ry="8.5" fill="#FFFFFF" opacity="0.42" transform="rotate(-22 1108.3 2272.8)"/>
  <circle cx="496" cy="2491" r="131" fill="url(#orb_ambient_04_1828)" opacity="0.19"/>
  <circle cx="496" cy="2491" r="131" fill="#FDFFFF" opacity="0.08"/>
  <circle cx="496" cy="2491" r="131" fill="none" stroke="#FFFFFF" stroke-opacity="0.56" stroke-width="3"/>
  <ellipse cx="459.3" cy="2443.8" rx="23.6" ry="10.5" fill="#FFFFFF" opacity="0.42" transform="rotate(-22 459.3 2443.8)"/>
  <circle cx="550" cy="1645" r="104" fill="url(#orb_ambient_04_1828)" opacity="0.27"/>
  <circle cx="550" cy="1645" r="104" fill="#FFECEF" opacity="0.08"/>
  <circle cx="550" cy="1645" r="104" fill="none" stroke="#FFFFFF" stroke-opacity="0.56" stroke-width="3"/>
  <ellipse cx="520.9" cy="1607.6" rx="18.7" ry="8.3" fill="#FFFFFF" opacity="0.42" transform="rotate(-22 520.9 1607.6)"/>
  <circle cx="1082" cy="555" r="256" fill="url(#orb_ambient_04_1828)" opacity="0.25"/>
  <circle cx="1082" cy="555" r="256" fill="#DFFCED" opacity="0.08"/>
  <circle cx="1082" cy="555" r="256" fill="none" stroke="#FFFFFF" stroke-opacity="0.56" stroke-width="3"/>
  <ellipse cx="1010.3" cy="462.8" rx="46.1" ry="20.5" fill="#FFFFFF" opacity="0.42" transform="rotate(-22 1010.3 462.8)"/>
  <circle cx="402" cy="2256" r="229" fill="url(#orb_ambient_04_1828)" opacity="0.27"/>
  <circle cx="402" cy="2256" r="229" fill="#D6C2FF" opacity="0.08"/>
  <circle cx="402" cy="2256" r="229" fill="none" stroke="#FFFFFF" stroke-opacity="0.56" stroke-width="3"/>
  <ellipse cx="337.9" cy="2173.6" rx="41.2" ry="18.3" fill="#FFFFFF" opacity="0.42" transform="rotate(-22 337.9 2173.6)"/>
  <circle cx="259" cy="2312" r="115" fill="url(#orb_ambient_04_1828)" opacity="0.20"/>
  <circle cx="259" cy="2312" r="115" fill="#D6C2FF" opacity="0.08"/>
  <circle cx="259" cy="2312" r="115" fill="none" stroke="#FFFFFF" stroke-opacity="0.56" stroke-width="3"/>
  <ellipse cx="226.8" cy="2270.6" rx="20.7" ry="9.2" fill="#FFFFFF" opacity="0.42" transform="rotate(-22 226.8 2270.6)"/>
  <circle cx="475" cy="-37" r="236" fill="url(#orb_ambient_04_1828)" opacity="0.26"/>
  <circle cx="475" cy="-37" r="236" fill="#DDEEFF" opacity="0.08"/>
  <circle cx="475" cy="-37" r="236" fill="none" stroke="#FFFFFF" stroke-opacity="0.56" stroke-width="3"/>
  <ellipse cx="408.9" cy="-122.0" rx="42.5" ry="18.9" fill="#FFFFFF" opacity="0.42" transform="rotate(-22 408.9 -122.0)"/>
  <circle cx="286" cy="173" r="7" fill="#FFFFFF" opacity="0.66"/>
  <circle cx="1121" cy="483" r="4" fill="#FFFFFF" opacity="0.65"/>
  <circle cx="938" cy="2093" r="7" fill="#FFFFFF" opacity="0.60"/>
  <circle cx="652" cy="1125" r="2" fill="#FFFFFF" opacity="0.34"/>
  <circle cx="41" cy="841" r="2" fill="#FFFFFF" opacity="0.37"/>
  <circle cx="486" cy="1064" r="7" fill="#FFFFFF" opacity="0.63"/>
  <circle cx="430" cy="848" r="4" fill="#FFFFFF" opacity="0.50"/>
  <circle cx="320" cy="715" r="5" fill="#FFFFFF" opacity="0.50"/>
  <circle cx="300" cy="1772" r="3" fill="#FFFFFF" opacity="0.51"/>
  <circle cx="851" cy="952" r="4" fill="#FFFFFF" opacity="0.55"/>
  <circle cx="648" cy="158" r="3" fill="#FFFFFF" opacity="0.70"/>
  <circle cx="890" cy="1501" r="5" fill="#FFFFFF" opacity="0.62"/>
  <rect width="1200" height="2600" fill="#FFFFFF" opacity="0.08"/>
  <rect width="1200" height="2600" filter="url(#grain_ambient_04_1828)" opacity="0.7"/>
</svg>
