<svg xmlns="http://www.w3.org/2000/svg" width="1200" height="2600" viewBox="0 0 1200 2600" preserveAspectRatio="xMidYMid slice">
  <defs>
    <linearGradient id="bg_ambient_11_4273" x1="0" y1="0" x2="1" y2="1">
      <stop offset="0%" stop-color="#FFECEF"/>
      <stop offset="48%" stop-color="#EEE5FF"/>
      <stop offset="100%" stop-color="#DFF8FF"/>
    </linearGradient>
    <radialGradient id="orb_ambient_11_4273" cx="35%" cy="30%" r="70%">
      <stop offset="0%" stop-color="#FFFFFF" stop-opacity="0.85"/>
      <stop offset="42%" stop-color="#FFFFFF" stop-opacity="0.20"/>
      <stop offset="100%" stop-color="#FFFFFF" stop-opacity="0.02"/>
    </radialGradient>
    <filter id="blur_ambient_11_4273" x="-30%" y="-30%" width="160%" height="160%">
      <feGaussianBlur stdDeviation="72"/>
    </filter>
    <filter id="soft_ambient_11_4273" x="-20%" y="-20%" width="140%" height="140%">
      <feGaussianBlur stdDeviation="10"/>
    </filter>
    <filter id="grain_ambient_11_4273">
      <feTurbulence type="fractalNoise" baseFrequency="0.85" numOctaves="2" stitchTiles="stitch"/>
      <feColorMatrix type="saturate" values="0"/>
      <feComponentTransfer>
        <feFuncA type="table" tableValues="0 0.035"/>
      </feComponentTransfer>
    </filter>
  </defs>
  <rect width="1200" height="2600" fill="url(#bg_ambient_11_4273)"/>
  <path d="M 1456.4 1314.0 C 1456.4 1587.2, 1458.1 1473.8, 1315.0 1683.1 C 1171.8 1892.3, 1300.6 1816.3, 1081.3 1863.7 C 861.9 1911.2, 974.1 2007.3, 781.2 1870.7 C 588.3 1734.2, 690.0 1744.4, 613.8 1487.7 C 537.6 1231.1, 371.6 1395.4, 447.8 1138.7 C 524.0 882.0, 577.6 942.9, 770.5 806.4 C 963.5 669.8, 855.5 650.3, 1074.9 697.7 C 1294.2 745.2, 1273.9 649.3, 1417.1 858.6 C 1560.3 1067.8, 1456.4 1040.8, 1456.4 1314.0 Z" fill="#FDFFFF" opacity="0.17" filter="url(#blur_ambient_11_4273)"/>
  <path d="M 1042.8 2654.0 C 1042.8 2816.9, 1154.8 2763.0, 1032.4 2887.8 C 910.1 3012.6, 920.6 2999.6, 733.1 3027.9 C 545.7 3056.2, 638.0 2994.2, 473.1 2912.7 C 308.3 2831.3, 365.9 2917.5, 300.8 2764.4 C 235.6 2611.4, 169.2 2662.3, 234.3 2509.2 C 299.4 2356.1, 255.7 2456.8, 420.5 2375.3 C 585.4 2293.9, 541.2 2210.2, 728.7 2238.5 C 916.1 2266.7, 878.9 2329.4, 1001.2 2454.1 C 1123.6 2578.9, 1042.8 2491.1, 1042.8 2654.0 Z" fill="#A9EAF6" opacity="0.26" filter="url(#blur_ambient_11_4273)"/>
  <path d="M 791.7 2594.0 C 791.7 2880.7, 709.9 2735.8, 582.0 2955.4 C 454.2 3175.0, 559.7 3062.4, 363.8 3112.1 C 167.9 3161.9, 243.8 3224.8, 71.5 3081.4 C -100.7 2938.1, -69.7 3113.6, -137.7 2844.2 C -205.8 2574.9, -157.0 2669.4, -89.0 2400.0 C -21.0 2130.6, -80.3 2129.2, 92.0 1985.8 C 264.2 1842.5, 152.5 1818.8, 348.4 1868.6 C 544.3 1918.4, 537.2 2021.9, 665.1 2241.5 C 792.9 2461.1, 791.7 2307.3, 791.7 2594.0 Z" fill="#EEE5FF" opacity="0.20" filter="url(#blur_ambient_11_4273)"/>
  <path d="M 355.2 1842.0 C 355.2 2010.8, 343.4 1991.4, 275.1 2120.7 C 206.8 2250.0, 231.2 2132.3, 126.6 2161.6 C 22.0 2190.9, 45.7 2267.8, -46.3 2183.4 C -138.2 2099.0, -89.3 2147.0, -125.6 1988.4 C -161.9 1829.9, -139.8 1886.6, -103.5 1728.0 C -67.2 1569.4, -129.3 1565.7, -37.3 1481.3 C 54.7 1396.9, 30.0 1415.5, 134.5 1444.8 C 239.1 1474.1, 206.3 1449.1, 274.6 1578.3 C 342.8 1707.6, 355.2 1673.2, 355.2 1842.0 Z" fill="#FFC7DA" opacity="0.37" filter="url(#blur_ambient_11_4273)"/>
  <path d="M 452.6 2022.0 C 452.6 2158.8, 551.8 2116.3, 415.8 2221.1 C 279.9 2325.9, 335.1 2307.2, 126.8 2330.9 C -81.5 2354.7, 12.8 2358.3, -170.4 2289.9 C -353.5 2221.5, -278.6 2250.9, -351.0 2122.4 C -423.3 1993.8, -539.5 2050.7, -467.1 1922.2 C -394.8 1793.6, -398.5 1862.4, -215.4 1794.0 C -32.2 1725.6, -85.7 1722.0, 122.6 1745.7 C 330.9 1769.5, 313.1 1687.0, 449.0 1791.8 C 585.0 1896.6, 452.6 1885.2, 452.6 2022.0 Z" fill="#DFF8FF" opacity="0.35" filter="url(#blur_ambient_11_4273)"/>
  <path d="M 179.7 -68.0 C 179.7 108.8, 229.8 21.4, 160.9 156.9 C 92.1 292.3, 115.0 284.8, 9.6 315.6 C -95.9 346.3, -56.1 388.4, -148.8 300.0 C -241.6 211.6, -234.8 215.2, -271.4 49.0 C -308.0 -117.2, -259.5 -48.8, -222.8 -215.0 C -186.2 -381.2, -236.3 -325.2, -143.5 -413.6 C -50.8 -502.0, -100.4 -435.5, 5.1 -404.8 C 110.6 -374.1, 55.4 -434.9, 124.2 -299.4 C 193.1 -164.0, 179.7 -244.8, 179.7 -68.0 Z" fill="#B6F5D1" opacity="0.29" filter="url(#blur_ambient_11_4273)"/>
  <path d="M 1230.0 1566.0 C 1230.0 1821.2, 1256.9 1724.1, 1186.6 1919.5 C 1116.3 2115.0, 1130.9 2148.4, 1023.2 2192.7 C 915.5 2237.0, 970.0 2264.0, 875.3 2136.4 C 780.6 2008.8, 821.6 2026.4, 784.2 1786.6 C 746.8 1546.8, 755.8 1603.0, 793.2 1363.2 C 830.6 1123.5, 745.5 1234.9, 840.2 1107.3 C 934.9 979.7, 919.3 953.7, 1027.0 998.0 C 1134.7 1042.3, 1067.3 1001.9, 1137.5 1197.4 C 1207.8 1392.9, 1230.0 1310.8, 1230.0 1566.0 Z" fill="#FDFFFF" opacity="0.21" filter="url(#blur_ambient_11_4273)"/>
  <path d="M 677.5 248.0 C 677.5 501.8, 704.1 471.4, 634.1 665.8 C 564.1 860.2, 578.9 744.9, 471.7 789.0 C 364.4 833.1, 385.8 804.4, 291.5 677.5 C 197.1 550.6, 259.8 706.3, 222.6 467.8 C 185.4 229.3, 130.7 306.7, 167.9 68.2 C 205.2 -170.3, 225.1 -39.4, 319.4 -166.3 C 413.8 -293.2, 362.7 -369.9, 470.0 -325.8 C 577.2 -281.7, 561.4 -356.5, 631.4 -162.1 C 701.4 32.3, 677.5 -5.8, 677.5 248.0 Z" fill="#A9EAF6" opacity="0.37" filter="url(#blur_ambient_11_4273)"/>
  <path d="M 319.7 -16.0 C 319.7 263.9, 389.4 184.1, 301.7 398.5 C 214.1 612.9, 224.8 504.6, 90.5 553.2 C -43.8 601.8, 19.6 751.0, -98.5 611.0 C -216.6 471.1, -166.7 492.6, -213.3 229.5 C -259.9 -33.5, -324.9 66.9, -278.3 -196.1 C -231.7 -459.2, -255.1 -481.6, -137.0 -621.5 C -18.9 -761.5, -42.2 -785.4, 92.1 -736.8 C 226.4 -688.2, 155.9 -637.6, 243.5 -423.2 C 331.2 -208.8, 319.7 -295.9, 319.7 -16.0 Z" fill="#DFF8FF" opacity="0.22" filter="url(#blur_ambient_11_4273)"/>
  <path d="M 1404.6 1174.0 C 1404.6 1389.5, 1376.6 1274.7, 1236.3 1439.9 C 1096.0 1605.0, 1216.5 1542.4, 1001.5 1579.9 C 786.6 1617.3, 875.3 1684.5, 686.3 1576.7 C 497.2 1469.0, 523.0 1540.5, 448.3 1338.0 C 373.7 1135.4, 336.7 1222.9, 411.4 1020.3 C 486.0 817.8, 459.3 875.3, 648.3 767.5 C 837.3 659.8, 803.2 719.9, 1018.2 757.3 C 1233.1 794.8, 1180.6 667.5, 1320.9 832.7 C 1461.1 997.8, 1404.6 958.5, 1404.6 1174.0 Z" fill="#FDFFFF" opacity="0.31" filter="url(#blur_ambient_11_4273)"/>
  <path d="M 1653.4 570.0 C 1653.4 883.2, 1680.9 838.3, 1523.0 1078.2 C 1365.1 1318.1, 1506.9 1162.3, 1265.0 1216.7 C 1023.0 1271.1, 1064.9 1293.5, 852.1 1136.9 C 639.3 980.3, 641.7 1094.3, 557.7 800.0 C 473.7 505.7, 589.1 666.5, 673.2 372.2 C 757.2 77.9, 651.6 95.5, 864.4 -61.1 C 1077.1 -217.7, 1013.2 -223.5, 1255.1 -169.1 C 1497.1 -114.7, 1355.0 -173.0, 1513.0 67.0 C 1670.9 306.9, 1653.4 256.8, 1653.4 570.0 Z" fill="#DFFCED" opacity="0.19" filter="url(#blur_ambient_11_4273)"/>
  <path d="M 649.3 1959.0 C 649.3 2091.8, 678.5 2046.7, 574.4 2148.4 C 470.3 2250.1, 501.5 2234.2, 341.9 2257.3 C 182.4 2280.3, 248.6 2300.4, 108.3 2234.1 C -31.9 2167.7, -62.5 2187.0, -117.9 2062.2 C -173.3 1937.5, -82.4 1986.5, -27.0 1861.8 C 28.4 1737.0, -18.1 1779.4, 122.2 1713.0 C 262.5 1646.6, 177.1 1677.9, 336.6 1701.0 C 496.2 1724.0, 435.3 1694.7, 539.4 1796.4 C 643.5 1898.1, 649.3 1826.2, 649.3 1959.0 Z" fill="#A9EAF6" opacity="0.26" filter="url(#blur_ambient_11_4273)"/>
  <path d="M 606.4 -41.0 C 606.4 77.4, 616.8 44.2, 519.9 134.8 C 423.0 225.5, 495.7 201.5, 347.2 222.1 C 198.8 242.6, 226.2 242.4, 95.7 183.2 C -34.9 124.0, -4.6 175.3, -56.1 64.0 C -107.7 -47.2, -98.0 -24.4, -46.4 -135.6 C 5.1 -246.8, -8.3 -209.4, 122.3 -268.6 C 252.8 -327.8, 189.5 -285.2, 338.0 -264.7 C 486.5 -244.1, 424.3 -295.3, 521.2 -204.6 C 618.1 -114.0, 606.4 -159.4, 606.4 -41.0 Z" fill="#DFFCED" opacity="0.37" filter="url(#blur_ambient_11_4273)"/>
  <path d="M 558.0 2569.0 C 558.0 2771.9, 599.2 2664.4, 479.4 2828.6 C 359.6 2992.8, 444.6 2938.8, 250.7 3001.5 C 56.8 3064.2, 152.2 3093.8, -41.7 3031.1 C -235.6 2968.3, -148.0 2996.1, -267.8 2831.9 C -387.6 2667.7, -375.6 2771.9, -375.6 2569.0 C -375.6 2366.1, -385.6 2484.0, -265.8 2319.8 C -146.0 2155.6, -209.6 2145.6, -15.7 2082.9 C 178.1 2020.2, 54.5 2115.5, 248.4 2178.2 C 442.2 2240.9, 369.5 2150.0, 489.4 2314.1 C 609.2 2478.3, 558.0 2366.1, 558.0 2569.0 Z" fill="#DFFCED" opacity="0.12" stroke="#DFFCED" stroke-opacity="0.46" stroke-width="3" filter="url(#soft_ambient_11_4273)"/>
  <path d="M 558.0 2569.0 C 558.0 2771.9, 599.2 2664.4, 479.4 2828.6 C 359.6 2992.8, 444.6 2938.8, 250.7 3001.5 C 56.8 3064.2, 152.2 3093.8, -41.7 3031.1 C -235.6 2968.3, -148.0 2996.1, -267.8 2831.9 C -387.6 2667.7, -375.6 2771.9, -375.6 2569.0 C -375.6 2366.1, -385.6 2484.0, -265.8 2319.8 C -146.0 2155.6, -209.6 2145.6, -15.7 2082.9 C 178.1 2020.2, 54.5 2115.5, 248.4 2178.2 C 442.2 2240.9, 369.5 2150.0, 489.4 2314.1 C 609.2 2478.3, 558.0 2366.1, 558.0 2569.0 Z" fill="none" stroke="#FFFFFF" stroke-opacity="0.22" stroke-width="1.2"/>
  <path d="M 1210.8 1258.0 C 1210.8 1480.3, 1258.3 1399.0, 1171.3 1578.8 C 1084.2 1758.7, 1169.8 1675.2, 1029.0 1743.9 C 888.2 1812.6, 959.1 1783.6, 818.3 1714.9 C 677.5 1646.2, 723.2 1732.5, 636.2 1552.7 C 549.2 1372.9, 626.0 1480.3, 626.0 1258.0 C 626.0 1035.7, 528.4 1170.9, 615.4 991.1 C 702.4 811.3, 670.1 834.7, 810.9 766.0 C 951.7 697.3, 881.9 697.4, 1022.7 766.1 C 1163.5 834.8, 1103.8 785.3, 1190.8 965.1 C 1277.8 1145.0, 1210.8 1035.7, 1210.8 1258.0 Z" fill="#FDFFFF" opacity="0.12" stroke="#FDFFFF" stroke-opacity="0.46" stroke-width="3" filter="url(#soft_ambient_11_4273)"/>
  <path d="M 1210.8 1258.0 C 1210.8 1480.3, 1258.3 1399.0, 1171.3 1578.8 C 1084.2 1758.7, 1169.8 1675.2, 1029.0 1743.9 C 888.2 1812.6, 959.1 1783.6, 818.3 1714.9 C 677.5 1646.2, 723.2 1732.5, 636.2 1552.7 C 549.2 1372.9, 626.0 1480.3, 626.0 1258.0 C 626.0 1035.7, 528.4 1170.9, 615.4 991.1 C 702.4 811.3, 670.1 834.7, 810.9 766.0 C 951.7 697.3, 881.9 697.4, 1022.7 766.1 C 1163.5 834.8, 1103.8 785.3, 1190.8 965.1 C 1277.8 1145.0, 1210.8 1035.7, 1210.8 1258.0 Z" fill="none" stroke="#FFFFFF" stroke-opacity="0.22" stroke-width="1.2"/>
  <path d="M 1273.6 717.0 C 1273.6 1026.6, 1397.3 869.7, 1216.7 1120.2 C 1036.0 1370.7, 1097.3 1209.7, 805.0 1305.3 C 512.7 1401.0, 678.4 1519.3, 386.1 1423.6 C 93.8 1327.9, 264.7 1423.5, 84.0 1173.0 C -96.7 922.5, -125.0 1026.6, -125.0 717.0 C -125.0 407.4, -132.9 528.1, 47.8 277.7 C 228.4 27.2, 79.5 238.9, 371.8 143.2 C 664.1 47.6, 538.9 -75.1, 831.2 20.6 C 1123.5 116.3, 1053.6 72.6, 1234.2 323.1 C 1414.9 573.6, 1273.6 407.4, 1273.6 717.0 Z" fill="#DFFCED" opacity="0.12" stroke="#FFFFFF" stroke-opacity="0.46" stroke-width="3" filter="url(#soft_ambient_11_4273)"/>
  <path d="M 1273.6 717.0 C 1273.6 1026.6, 1397.3 869.7, 1216.7 1120.2 C 1036.0 1370.7, 1097.3 1209.7, 805.0 1305.3 C 512.7 1401.0, 678.4 1519.3, 386.1 1423.6 C 93.8 1327.9, 264.7 1423.5, 84.0 1173.0 C -96.7 922.5, -125.0 1026.6, -125.0 717.0 C -125.0 407.4, -132.9 528.1, 47.8 277.7 C 228.4 27.2, 79.5 238.9, 371.8 143.2 C 664.1 47.6, 538.9 -75.1, 831.2 20.6 C 1123.5 116.3, 1053.6 72.6, 1234.2 323.1 C 1414.9 573.6, 1273.6 407.4, 1273.6 717.0 Z" fill="none" stroke="#FFFFFF" stroke-opacity="0.22" stroke-width="1.2"/>
  <path d="M 429.8 2625.0 C 429.8 2935.1, 434.9 2723.7, 343.1 2974.6 C 251.3 3225.4, 325.8 3247.2, 177.3 3343.0 C 28.8 3438.8, 122.3 3309.4, -26.2 3213.6 C -174.7 3117.8, -146.5 3254.7, -238.3 3003.9 C -330.1 2753.0, -315.9 2935.1, -315.9 2625.0 C -315.9 2314.9, -330.5 2484.2, -238.7 2233.3 C -147.0 1982.5, -189.0 1992.9, -40.5 1897.1 C 108.0 1801.3, 35.0 1820.4, 183.5 1916.2 C 332.0 2012.0, 239.7 1924.6, 331.5 2175.5 C 423.3 2426.3, 429.8 2314.9, 429.8 2625.0 Z" fill="#DFFCED" opacity="0.12" stroke="#FFFFFF" stroke-opacity="0.46" stroke-width="3" filter="url(#soft_ambient_11_4273)"/>
  <path d="M 429.8 2625.0 C 429.8 2935.1, 434.9 2723.7, 343.1 2974.6 C 251.3 3225.4, 325.8 3247.2, 177.3 3343.0 C 28.8 3438.8, 122.3 3309.4, -26.2 3213.6 C -174.7 3117.8, -146.5 3254.7, -238.3 3003.9 C -330.1 2753.0, -315.9 2935.1, -315.9 2625.0 C -315.9 2314.9, -330.5 2484.2, -238.7 2233.3 C -147.0 1982.5, -189.0 1992.9, -40.5 1897.1 C 108.0 1801.3, 35.0 1820.4, 183.5 1916.2 C 332.0 2012.0, 239.7 1924.6, 331.5 2175.5 C 423.3 2426.3, 429.8 2314.9, 429.8 2625.0 Z" fill="none" stroke="#FFFFFF" stroke-opacity="0.22" stroke-width="1.2"/>
  <path d="M 1767.9 1964.0 C 1767.9 2185.4, 1738.3 2089.3, 1634.3 2268.4 C 1530.4 2447.5, 1627.5 2326.8, 1459.3 2395.3 C 1291.1 2463.7, 1373.8 2510.5, 1205.6 2442.1 C 1037.4 2373.7, 1137.0 2461.9, 1033.0 2282.7 C 929.1 2103.6, 974.8 2185.4, 974.8 1964.0 C 974.8 1742.6, 884.8 1836.6, 988.8 1657.5 C 1092.7 1478.4, 1033.3 1622.8, 1201.5 1554.4 C 1369.7 1486.0, 1298.7 1406.2, 1466.9 1474.6 C 1635.1 1543.1, 1512.4 1511.0, 1616.4 1690.1 C 1720.3 1869.3, 1767.9 1742.6, 1767.9 1964.0 Z" fill="#FDFFFF" opacity="0.12" stroke="#FFFFFF" stroke-opacity="0.46" stroke-width="3" filter="url(#soft_ambient_11_4273)"/>
  <path d="M 1767.9 1964.0 C 1767.9 2185.4, 1738.3 2089.3, 1634.3 2268.4 C 1530.4 2447.5, 1627.5 2326.8, 1459.3 2395.3 C 1291.1 2463.7, 1373.8 2510.5, 1205.6 2442.1 C 1037.4 2373.7, 1137.0 2461.9, 1033.0 2282.7 C 929.1 2103.6, 974.8 2185.4, 974.8 1964.0 C 974.8 1742.6, 884.8 1836.6, 988.8 1657.5 C 1092.7 1478.4, 1033.3 1622.8, 1201.5 1554.4 C 1369.7 1486.0, 1298.7 1406.2, 1466.9 1474.6 C 1635.1 1543.1, 1512.4 1511.0, 1616.4 1690.1 C 1720.3 1869.3, 1767.9 1742.6, 1767.9 1964.0 Z" fill="none" stroke="#FFFFFF" stroke-opacity="0.22" stroke-width="1.2"/>
  <path d="M -100.0 1333.6 Q 133.3 1376.9, 366.7 1481.7 Q 600.0 1546.9, 833.3 1533.0 Q 1066.7 1527.7, 1300.0 1528.6" fill="none" stroke="#FFFFFF" stroke-opacity="0.38" stroke-width="4" filter="url(#soft_ambient_11_4273)"/>
  <path d="M -100.0 1333.6 Q 133.3 1376.9, 366.7 1481.7 Q 600.0 1546.9, 833.3 1533.0 Q 1066.7 1527.7, 1300.0 1528.6" fill="none" stroke="#B6F5D1" stroke-opacity="0.18" stroke-width="2"/>
  <path d="M -100.0 1702.1 Q 133.3 1272.9, 366.7 1239.0 Q 600.0 1604.9, 833.3 1738.7 Q 1066.7 1365.7, 1300.0 1130.4" fill="none" stroke="#FFFFFF" stroke-opacity="0.38" stroke-width="4" filter="url(#soft_ambient_11_4273)"/>
  <path d="M -100.0 1702.1 Q 133.3 1272.9, 366.7 1239.0 Q 600.0 1604.9, 833.3 1738.7 Q 1066.7 1365.7, 1300.0 1130.4" fill="none" stroke="#D6C2FF" stroke-opacity="0.18" stroke-width="2"/>
  <path d="M -100.0 1811.3 Q 133.3 1868.7, 366.7 1796.7 Q 600.0 1683.8, 833.3 1736.0 Q 1066.7 2010.3, 1300.0 1818.6" fill="none" stroke="#FFFFFF" stroke-opacity="0.38" stroke-width="4" filter="url(#soft_ambient_11_4273)"/>
  <path d="M -100.0 1811.3 Q 133.3 1868.7, 366.7 1796.7 Q 600.0 1683.8, 833.3 1736.0 Q 1066.7 2010.3, 1300.0 1818.6" fill="none" stroke="#A9EAF6" stroke-opacity="0.18" stroke-width="2"/>
  <circle cx="1242" cy="-91" r="110" fill="url(#orb_ambient_11_4273)" opacity="0.36"/>
  <circle cx="1242" cy="-91" r="110" fill="#EEE5FF" opacity="0.08"/>
  <circle cx="1242" cy="-91" r="110" fill="none" stroke="#FFFFFF" stroke-opacity="0.56" stroke-width="3"/>
  <ellipse cx="1211.2" cy="-130.6" rx="19.8" ry="8.8" fill="#FFFFFF" opacity="0.42" transform="rotate(-22 1211.2 -130.6)"/>
  <circle cx="855" cy="155" r="133" fill="url(#orb_ambient_11_4273)" opacity="0.36"/>
  <circle cx="855" cy="155" r="133" fill="#DDEEFF" opacity="0.08"/>
  <circle cx="855" cy="155" r="133" fill="none" stroke="#FFFFFF" stroke-opacity="0.56" stroke-width="3"/>
  <ellipse cx="817.8" cy="107.1" rx="23.9" ry="10.6" fill="#FFFFFF" opacity="0.42" transform="rotate(-22 817.8 107.1)"/>
  <circle cx="637" cy="633" r="254" fill="url(#orb_ambient_11_4273)" opacity="0.36"/>
  <circle cx="637" cy="633" r="254" fill="#DDEEFF" opacity="0.08"/>
  <circle cx="637" cy="633" r="254" fill="none" stroke="#FFFFFF" stroke-opacity="0.56" stroke-width="3"/>
  <ellipse cx="565.9" cy="541.6" rx="45.7" ry="20.3" fill="#FFFFFF" opacity="0.42" transform="rotate(-22 565.9 541.6)"/>
  <circle cx="1161" cy="1254" r="121" fill="url(#orb_ambient_11_4273)" opacity="0.16"/>
  <circle cx="1161" cy="1254" r="121" fill="#D6C2FF" opacity="0.08"/>
  <circle cx="1161" cy="1254" r="121" fill="none" stroke="#FFFFFF" stroke-opacity="0.56" stroke-width="3"/>
  <ellipse cx="1127.1" cy="1210.4" rx="21.8" ry="9.7" fill="#FFFFFF" opacity="0.42" transform="rotate(-22 1127.1 1210.4)"/>
  <circle cx="611" cy="902" r="263" fill="url(#orb_ambient_11_4273)" opacity="0.25"/>
  <circle cx="611" cy="902" r="263" fill="#EEE5FF" opacity="0.08"/>
  <circle cx="611" cy="902" r="263" fill="none" stroke="#FFFFFF" stroke-opacity="0.56" stroke-width="3"/>
  <ellipse cx="537.4" cy="807.3" rx="47.3" ry="21.0" fill="#FFFFFF" opacity="0.42" transform="rotate(-22 537.4 807.3)"/>
  <circle cx="380" cy="1475" r="212" fill="url(#orb_ambient_11_4273)" opacity="0.17"/>
  <circle cx="380" cy="1475" r="212" fill="#D6C2FF" opacity="0.08"/>
  <circle cx="380" cy="1475" r="212" fill="none" stroke="#FFFFFF" stroke-opacity="0.56" stroke-width="3"/>
  <ellipse cx="320.6" cy="1398.7" rx="38.2" ry="17.0" fill="#FFFFFF" opacity="0.42" transform="rotate(-22 320.6 1398.7)"/>
  <circle cx="499" cy="2485" r="104" fill="url(#orb_ambient_11_4273)" opacity="0.20"/>
  <circle cx="499" cy="2485" r="104" fill="#DFF8FF" opacity="0.08"/>
  <circle cx="499" cy="2485" r="104" fill="none" stroke="#FFFFFF" stroke-opacity="0.56" stroke-width="3"/>
  <ellipse cx="469.9" cy="2447.6" rx="18.7" ry="8.3" fill="#FFFFFF" opacity="0.42" transform="rotate(-22 469.9 2447.6)"/>
  <circle cx="806" cy="2026" r="263" fill="url(#orb_ambient_11_4273)" opacity="0.20"/>
  <circle cx="806" cy="2026" r="263" fill="#EEE5FF" opacity="0.08"/>
  <circle cx="806" cy="2026" r="263" fill="none" stroke="#FFFFFF" stroke-opacity="0.56" stroke-width="3"/>
  <ellipse cx="732.4" cy="1931.3" rx="47.3" ry="21.0" fill="#FFFFFF" opacity="0.42" transform="rotate(-22 732.4 1931.3)"/>
  <circle cx="1146" cy="2143" r="237" fill="url(#orb_ambient_11_4273)" opacity="0.25"/>
  <circle cx="1146" cy="2143" r="237" fill="#A9EAF6" opacity="0.08"/>
  <circle cx="1146" cy="2143" r="237" fill="none" stroke="#FFFFFF" stroke-opacity="0.56" stroke-width="3"/>
  <ellipse cx="1079.6" cy="2057.7" rx="42.7" ry="19.0" fill="#FFFFFF" opacity="0.42" transform="rotate(-22 1079.6 2057.7)"/>
  <circle cx="211" cy="786" r="5" fill="#FFFFFF" opacity="0.31"/>
  <circle cx="856" cy="1625" r="3" fill="#FFFFFF" opacity="0.57"/>
  <circle cx="649" cy="719" r="2" fill="#FFFFFF" opacity="0.42"/>
  <circle cx="506" cy="963" r="4" fill="#FFFFFF" opacity="0.35"/>
  <circle cx="774" cy="1631" r="4" fill="#FFFFFF" opacity="0.40"/>
  <circle cx="367" cy="507" r="5" fill="#FFFFFF" opacity="0.37"/>
  <circle cx="522" cy="2166" r="2" fill="#FFFFFF" opacity="0.67"/>
  <circle cx="365" cy="2445" r="5" fill="#FFFFFF" opacity="0.49"/>
  <circle cx="835" cy="1809" r="5" fill="#FFFFFF" opacity="0.34"/>
  <circle cx="992" cy="1731" r="5" fill="#FFFFFF" opacity="0.64"/>
  <circle cx="496" cy="679" r="4" fill="#FFFFFF" opacity="0.68"/>
  <circle cx="804" cy="2323" r="4" fill="#FFFFFF" opacity="0.40"/>
  <circle cx="1124" cy="1803" r="5" fill="#FFFFFF" opacity="0.63"/>
  <circle cx="977" cy="1240" r="4" fill="#FFFFFF" opacity="0.30"/>
  <circle cx="820" cy="953" r="7" fill="#FFFFFF" opacity="0.57"/>
  <rect width="1200" height="2600" fill="#FFFFFF" opacity="0.08"/>
  <rect width="1200" height="2600" filter="url(#grain_ambient_11_4273)" opacity="0.7"/>
</svg>
