<svg xmlns="http://www.w3.org/2000/svg" width="1200" height="2600" viewBox="0 0 1200 2600" preserveAspectRatio="xMidYMid slice">
  <defs>
    <linearGradient id="bg_ambient_15_8392" x1="0" y1="0" x2="1" y2="1">
      <stop offset="0%" stop-color="#DFFCED"/>
      <stop offset="48%" stop-color="#FFECEF"/>
      <stop offset="100%" stop-color="#EEE5FF"/>
    </linearGradient>
    <radialGradient id="orb_ambient_15_8392" cx="35%" cy="30%" r="70%">
      <stop offset="0%" stop-color="#FFFFFF" stop-opacity="0.85"/>
      <stop offset="42%" stop-color="#FFFFFF" stop-opacity="0.20"/>
      <stop offset="100%" stop-color="#FFFFFF" stop-opacity="0.02"/>
    </radialGradient>
    <filter id="blur_ambient_15_8392" x="-30%" y="-30%" width="160%" height="160%">
      <feGaussianBlur stdDeviation="72"/>
    </filter>
    <filter id="soft_ambient_15_8392" x="-20%" y="-20%" width="140%" height="140%">
      <feGaussianBlur stdDeviation="10"/>
    </filter>
    <filter id="grain_ambient_15_8392">
      <feTurbulence type="fractalNoise" baseFrequency="0.85" numOctaves="2" stitchTiles="stitch"/>
      <feColorMatrix type="saturate" values="0"/>
      <feComponentTransfer>
        <feFuncA type="table" tableValues="0 0.035"/>
      </feComponentTransfer>
    </filter>
  </defs>
  <rect width="1200" height="2600" fill="url(#bg_ambient_15_8392)"/>
  <path d="M 1576.1 1112.0 C 1576.1 1318.1, 1648.5 1295.5, 1514.5 1453.4 C 1380.6 1611.3, 1451.1 1556.8, 1245.9 1592.6 C 1040.7 1628.4, 1099.0 1681.0, 918.5 1578.0 C 738.1 1474.9, 826.6 1445.8, 755.3 1252.1 C 684.0 1058.4, 616.9 1166.3, 688.1 972.7 C 759.4 779.0, 803.8 842.3, 984.2 739.2 C 1164.7 636.2, 1041.3 619.3, 1246.5 655.1 C 1451.7 690.9, 1355.0 681.8, 1488.9 839.7 C 1622.8 997.6, 1576.1 905.9, 1576.1 1112.0 Z" fill="#EEE5FF" opacity="0.17" filter="url(#blur_ambient_15_8392)"/>
  <path d="M 504.0 745.0 C 504.0 997.9, 534.7 931.3, 395.3 1125.1 C 255.8 1318.8, 269.0 1228.9, 55.4 1272.8 C -158.2 1316.7, -81.2 1284.9, -269.0 1158.4 C -456.9 1032.0, -345.1 1146.4, -419.3 908.7 C -493.5 671.1, -554.4 759.2, -480.2 521.6 C -406.0 283.9, -453.2 368.5, -265.4 242.0 C -77.5 115.6, -154.6 201.1, 59.0 245.0 C 272.6 288.9, 147.1 218.5, 286.5 412.2 C 425.9 606.0, 504.0 492.1, 504.0 745.0 Z" fill="#FDFFFF" opacity="0.20" filter="url(#blur_ambient_15_8392)"/>
  <path d="M 1093.4 2585.0 C 1093.4 2859.5, 1096.4 2749.9, 1022.9 2960.2 C 949.5 3170.5, 968.1 3151.6, 855.5 3199.3 C 743.0 3247.0, 794.7 3309.5, 695.7 3172.2 C 596.7 3035.0, 636.3 3069.8, 597.2 2811.8 C 558.1 2553.9, 560.0 2603.4, 599.1 2345.4 C 638.2 2087.5, 571.4 2241.2, 670.4 2103.9 C 769.4 1966.7, 739.6 1934.6, 852.1 1982.3 C 964.7 2030.0, 950.7 2034.0, 1024.2 2244.2 C 1097.6 2454.5, 1093.4 2310.5, 1093.4 2585.0 Z" fill="#FDFFFF" opacity="0.30" filter="url(#blur_ambient_15_8392)"/>
  <path d="M 759.8 2237.0 C 759.8 2482.7, 750.4 2433.6, 661.6 2621.8 C 572.8 2810.0, 634.2 2672.4, 498.2 2715.0 C 362.1 2757.7, 408.9 2875.1, 289.3 2752.2 C 169.6 2629.4, 144.2 2656.4, 96.9 2425.5 C 49.7 2194.7, 80.9 2305.3, 128.1 2074.4 C 175.4 1843.5, 186.0 1831.8, 305.7 1709.0 C 425.3 1586.1, 358.4 1615.0, 494.5 1657.6 C 630.5 1700.3, 584.7 1642.5, 673.5 1830.7 C 762.3 2018.9, 759.8 1991.3, 759.8 2237.0 Z" fill="#FFECEF" opacity="0.38" filter="url(#blur_ambient_15_8392)"/>
  <path d="M 1348.4 1969.0 C 1348.4 2283.6, 1386.7 2247.2, 1305.8 2488.2 C 1224.8 2729.1, 1226.8 2494.1, 1102.7 2548.8 C 978.6 2603.4, 1012.4 2812.9, 903.2 2655.6 C 794.1 2498.3, 851.2 2461.7, 808.1 2166.1 C 765.0 1870.5, 792.9 2021.3, 836.0 1725.7 C 879.1 1430.1, 831.3 1511.8, 940.4 1354.5 C 1049.5 1197.2, 978.5 1205.5, 1102.6 1260.1 C 1226.6 1314.8, 1205.3 1261.2, 1286.3 1502.2 C 1367.3 1743.1, 1348.4 1654.5, 1348.4 1969.0 Z" fill="#D6C2FF" opacity="0.18" filter="url(#blur_ambient_15_8392)"/>
  <path d="M 1509.4 1453.0 C 1509.4 1590.7, 1565.0 1578.6, 1458.6 1684.1 C 1352.1 1789.6, 1377.5 1763.5, 1214.4 1787.4 C 1051.3 1811.4, 1083.1 1831.2, 939.7 1762.3 C 796.3 1693.5, 815.1 1682.7, 758.5 1553.3 C 701.9 1423.9, 683.9 1472.3, 740.5 1342.9 C 797.1 1213.5, 819.6 1221.5, 963.0 1152.6 C 1106.4 1083.8, 1042.8 1169.7, 1205.8 1193.6 C 1368.9 1217.5, 1294.9 1148.1, 1401.3 1253.6 C 1507.7 1359.1, 1509.4 1315.3, 1509.4 1453.0 Z" fill="#DDEEFF" opacity="0.38" filter="url(#blur_ambient_15_8392)"/>
  <path d="M 780.4 1454.0 C 780.4 1619.2, 903.5 1556.7, 771.6 1683.3 C 639.7 1809.8, 650.4 1833.6, 448.3 1862.3 C 246.3 1891.0, 335.9 1818.7, 158.2 1736.1 C -19.5 1653.5, 60.4 1729.1, -9.8 1573.9 C -79.9 1418.7, -92.2 1490.8, -22.0 1335.6 C 48.1 1180.4, -17.7 1166.7, 160.1 1084.1 C 337.8 1001.5, 258.6 1062.4, 460.7 1091.0 C 662.8 1119.7, 591.8 1059.4, 723.7 1185.9 C 855.6 1312.4, 780.4 1288.8, 780.4 1454.0 Z" fill="#DDEEFF" opacity="0.18" filter="url(#blur_ambient_15_8392)"/>
  <path d="M 767.7 950.0 C 767.7 1166.0, 748.5 1080.2, 682.0 1245.7 C 615.4 1411.1, 659.7 1414.6, 557.8 1452.1 C 455.9 1489.7, 483.5 1423.4, 393.9 1315.4 C 304.3 1207.4, 327.8 1330.9, 292.4 1128.0 C 257.0 925.0, 296.3 1010.4, 331.7 807.4 C 367.1 604.5, 300.7 621.7, 390.3 513.7 C 480.0 405.7, 469.6 408.3, 571.5 445.8 C 673.5 483.3, 641.1 439.3, 707.6 604.8 C 774.1 770.2, 767.7 734.0, 767.7 950.0 Z" fill="#DFFCED" opacity="0.27" filter="url(#blur_ambient_15_8392)"/>
  <path d="M 1486.4 662.0 C 1486.4 942.4, 1521.7 833.7, 1387.5 1048.5 C 1253.2 1263.3, 1340.9 1312.0, 1135.3 1360.6 C 929.6 1409.3, 990.9 1263.7, 810.0 1123.5 C 629.2 983.3, 693.9 1136.8, 622.5 873.3 C 551.1 609.9, 622.0 697.8, 693.4 434.4 C 764.8 170.9, 601.4 202.5, 782.2 62.3 C 963.0 -77.9, 922.5 -82.0, 1128.1 -33.3 C 1333.8 15.4, 1318.1 107.1, 1452.3 321.8 C 1586.5 536.6, 1486.4 381.6, 1486.4 662.0 Z" fill="#DFF8FF" opacity="0.30" filter="url(#blur_ambient_15_8392)"/>
  <path d="M 1684.5 2306.0 C 1684.5 2527.8, 1672.6 2489.7, 1536.1 2659.6 C 1399.6 2829.6, 1425.6 2686.7, 1216.4 2725.2 C 1007.3 2763.8, 1071.7 2876.2, 887.8 2765.2 C 703.9 2654.3, 752.0 2695.3, 679.3 2486.9 C 606.7 2278.4, 546.0 2323.5, 618.6 2115.1 C 691.3 1906.6, 700.6 2004.3, 884.6 1893.4 C 1068.5 1782.5, 1017.9 1701.1, 1227.1 1739.6 C 1436.3 1778.1, 1294.8 1810.5, 1431.4 1980.4 C 1567.9 2150.4, 1684.5 2084.2, 1684.5 2306.0 Z" fill="#B6F5D1" opacity="0.23" filter="url(#blur_ambient_15_8392)"/>
  <path d="M 935.3 2466.0 C 935.3 2810.7, 988.5 2658.1, 854.7 2937.0 C 720.9 3215.9, 836.2 3095.4, 619.7 3201.9 C 403.1 3308.4, 532.5 3366.3, 315.9 3259.8 C 99.4 3153.3, 132.3 3185.0, -1.6 2906.1 C -135.4 2627.2, -46.1 2810.7, -46.1 2466.0 C -46.1 2121.3, -113.3 2255.5, 20.6 1976.6 C 154.4 1697.7, 102.2 1943.6, 318.8 1837.1 C 535.3 1730.6, 388.7 1722.2, 605.3 1828.7 C 821.8 1935.2, 705.1 1738.1, 839.0 2016.9 C 972.8 2295.8, 935.3 2121.3, 935.3 2466.0 Z" fill="#A9EAF6" opacity="0.12" stroke="#A9EAF6" stroke-opacity="0.46" stroke-width="3" filter="url(#soft_ambient_15_8392)"/>
  <path d="M 935.3 2466.0 C 935.3 2810.7, 988.5 2658.1, 854.7 2937.0 C 720.9 3215.9, 836.2 3095.4, 619.7 3201.9 C 403.1 3308.4, 532.5 3366.3, 315.9 3259.8 C 99.4 3153.3, 132.3 3185.0, -1.6 2906.1 C -135.4 2627.2, -46.1 2810.7, -46.1 2466.0 C -46.1 2121.3, -113.3 2255.5, 20.6 1976.6 C 154.4 1697.7, 102.2 1943.6, 318.8 1837.1 C 535.3 1730.6, 388.7 1722.2, 605.3 1828.7 C 821.8 1935.2, 705.1 1738.1, 839.0 2016.9 C 972.8 2295.8, 935.3 2121.3, 935.3 2466.0 Z" fill="none" stroke="#FFFFFF" stroke-opacity="0.22" stroke-width="1.2"/>
  <path d="M 524.4 271.0 C 524.4 496.5, 522.2 353.0, 420.9 535.4 C 319.6 717.8, 426.2 621.2, 262.3 690.9 C 98.4 760.6, 185.2 839.6, 21.2 769.9 C -142.7 700.3, -73.9 711.3, -175.2 528.9 C -276.5 346.5, -294.5 496.5, -294.5 271.0 C -294.5 45.6, -289.8 158.4, -188.5 -24.0 C -87.2 -206.4, -135.2 -96.7, 28.8 -166.4 C 192.7 -236.0, 80.1 -239.8, 244.0 -170.1 C 407.9 -100.4, 315.3 -242.3, 416.6 -60.0 C 517.9 122.4, 524.4 45.5, 524.4 271.0 Z" fill="#FFECEF" opacity="0.12" stroke="#FFECEF" stroke-opacity="0.46" stroke-width="3" filter="url(#soft_ambient_15_8392)"/>
  <path d="M 524.4 271.0 C 524.4 496.5, 522.2 353.0, 420.9 535.4 C 319.6 717.8, 426.2 621.2, 262.3 690.9 C 98.4 760.6, 185.2 839.6, 21.2 769.9 C -142.7 700.3, -73.9 711.3, -175.2 528.9 C -276.5 346.5, -294.5 496.5, -294.5 271.0 C -294.5 45.6, -289.8 158.4, -188.5 -24.0 C -87.2 -206.4, -135.2 -96.7, 28.8 -166.4 C 192.7 -236.0, 80.1 -239.8, 244.0 -170.1 C 407.9 -100.4, 315.3 -242.3, 416.6 -60.0 C 517.9 122.4, 524.4 45.5, 524.4 271.0 Z" fill="none" stroke="#FFFFFF" stroke-opacity="0.22" stroke-width="1.2"/>
  <path d="M 411.0 2046.0 C 411.0 2370.0, 489.9 2218.6, 419.8 2480.7 C 349.7 2742.9, 389.6 2631.5, 276.2 2731.7 C 162.8 2831.8, 218.5 2907.9, 105.1 2807.7 C -8.3 2707.6, 35.1 2776.8, -35.0 2514.7 C -105.0 2252.6, -68.7 2370.0, -68.7 2046.0 C -68.7 1722.0, -84.4 1851.9, -14.3 1589.8 C 55.8 1327.7, -12.9 1410.5, 100.5 1310.4 C 214.0 1210.3, 142.4 1242.3, 255.8 1342.4 C 369.2 1442.5, 318.9 1315.9, 389.0 1578.1 C 459.1 1840.2, 411.0 1722.0, 411.0 2046.0 Z" fill="#A9EAF6" opacity="0.12" stroke="#A9EAF6" stroke-opacity="0.46" stroke-width="3" filter="url(#soft_ambient_15_8392)"/>
  <path d="M 411.0 2046.0 C 411.0 2370.0, 489.9 2218.6, 419.8 2480.7 C 349.7 2742.9, 389.6 2631.5, 276.2 2731.7 C 162.8 2831.8, 218.5 2907.9, 105.1 2807.7 C -8.3 2707.6, 35.1 2776.8, -35.0 2514.7 C -105.0 2252.6, -68.7 2370.0, -68.7 2046.0 C -68.7 1722.0, -84.4 1851.9, -14.3 1589.8 C 55.8 1327.7, -12.9 1410.5, 100.5 1310.4 C 214.0 1210.3, 142.4 1242.3, 255.8 1342.4 C 369.2 1442.5, 318.9 1315.9, 389.0 1578.1 C 459.1 1840.2, 411.0 1722.0, 411.0 2046.0 Z" fill="none" stroke="#FFFFFF" stroke-opacity="0.22" stroke-width="1.2"/>
  <path d="M 1797.5 1879.0 C 1797.5 2100.4, 1792.7 1975.6, 1663.9 2154.7 C 1535.1 2333.8, 1645.8 2339.2, 1437.3 2407.6 C 1228.9 2476.1, 1315.6 2354.0, 1107.2 2285.6 C 898.7 2217.1, 1024.0 2369.5, 895.2 2190.4 C 766.4 2011.3, 808.7 2100.4, 808.7 1879.0 C 808.7 1657.6, 764.5 1805.4, 893.3 1626.3 C 1022.1 1447.2, 922.0 1492.9, 1130.5 1424.4 C 1338.9 1356.0, 1208.1 1379.8, 1416.6 1448.2 C 1625.0 1516.6, 1524.6 1408.7, 1653.5 1587.8 C 1782.3 1766.9, 1797.5 1657.6, 1797.5 1879.0 Z" fill="#A9EAF6" opacity="0.12" stroke="#FFFFFF" stroke-opacity="0.46" stroke-width="3" filter="url(#soft_ambient_15_8392)"/>
  <path d="M 1797.5 1879.0 C 1797.5 2100.4, 1792.7 1975.6, 1663.9 2154.7 C 1535.1 2333.8, 1645.8 2339.2, 1437.3 2407.6 C 1228.9 2476.1, 1315.6 2354.0, 1107.2 2285.6 C 898.7 2217.1, 1024.0 2369.5, 895.2 2190.4 C 766.4 2011.3, 808.7 2100.4, 808.7 1879.0 C 808.7 1657.6, 764.5 1805.4, 893.3 1626.3 C 1022.1 1447.2, 922.0 1492.9, 1130.5 1424.4 C 1338.9 1356.0, 1208.1 1379.8, 1416.6 1448.2 C 1625.0 1516.6, 1524.6 1408.7, 1653.5 1587.8 C 1782.3 1766.9, 1797.5 1657.6, 1797.5 1879.0 Z" fill="none" stroke="#FFFFFF" stroke-opacity="0.22" stroke-width="1.2"/>
  <path d="M 1865.4 2910.0 C 1865.4 3142.7, 1841.2 3021.5, 1716.9 3209.7 C 1592.6 3397.9, 1740.1 3330.8, 1538.9 3402.7 C 1337.8 3474.6, 1451.6 3419.0, 1250.4 3347.1 C 1049.3 3275.2, 1158.8 3380.4, 1034.5 3192.2 C 910.2 3004.0, 886.0 3142.7, 886.0 2910.0 C 886.0 2677.3, 846.2 2785.1, 970.5 2596.9 C 1094.8 2408.7, 1040.0 2511.9, 1241.1 2440.0 C 1442.3 2368.1, 1351.5 2382.1, 1552.6 2454.0 C 1753.8 2525.9, 1673.1 2426.8, 1797.4 2615.0 C 1921.8 2803.2, 1865.4 2677.3, 1865.4 2910.0 Z" fill="#DDEEFF" opacity="0.12" stroke="#FFFFFF" stroke-opacity="0.46" stroke-width="3" filter="url(#soft_ambient_15_8392)"/>
  <path d="M 1865.4 2910.0 C 1865.4 3142.7, 1841.2 3021.5, 1716.9 3209.7 C 1592.6 3397.9, 1740.1 3330.8, 1538.9 3402.7 C 1337.8 3474.6, 1451.6 3419.0, 1250.4 3347.1 C 1049.3 3275.2, 1158.8 3380.4, 1034.5 3192.2 C 910.2 3004.0, 886.0 3142.7, 886.0 2910.0 C 886.0 2677.3, 846.2 2785.1, 970.5 2596.9 C 1094.8 2408.7, 1040.0 2511.9, 1241.1 2440.0 C 1442.3 2368.1, 1351.5 2382.1, 1552.6 2454.0 C 1753.8 2525.9, 1673.1 2426.8, 1797.4 2615.0 C 1921.8 2803.2, 1865.4 2677.3, 1865.4 2910.0 Z" fill="none" stroke="#FFFFFF" stroke-opacity="0.22" stroke-width="1.2"/>
  <path d="M 1481.3 111.0 C 1481.3 461.1, 1511.2 324.2, 1401.4 607.4 C 1291.6 890.7, 1347.7 778.8, 1170.1 887.0 C 992.5 995.2, 1091.5 979.9, 913.9 871.7 C 736.3 763.5, 861.2 823.0, 751.5 539.8 C 641.7 256.5, 632.9 461.1, 632.9 111.0 C 632.9 -239.1, 657.4 -55.0, 767.1 -338.2 C 876.9 -621.5, 746.4 -486.8, 924.0 -595.0 C 1101.6 -703.2, 1001.4 -654.5, 1179.0 -546.4 C 1356.6 -438.2, 1289.1 -585.0, 1398.9 -301.7 C 1508.7 -18.5, 1481.3 -239.1, 1481.3 111.0 Z" fill="#B6F5D1" opacity="0.12" stroke="#B6F5D1" stroke-opacity="0.46" stroke-width="3" filter="url(#soft_ambient_15_8392)"/>
  <path d="M 1481.3 111.0 C 1481.3 461.1, 1511.2 324.2, 1401.4 607.4 C 1291.6 890.7, 1347.7 778.8, 1170.1 887.0 C 992.5 995.2, 1091.5 979.9, 913.9 871.7 C 736.3 763.5, 861.2 823.0, 751.5 539.8 C 641.7 256.5, 632.9 461.1, 632.9 111.0 C 632.9 -239.1, 657.4 -55.0, 767.1 -338.2 C 876.9 -621.5, 746.4 -486.8, 924.0 -595.0 C 1101.6 -703.2, 1001.4 -654.5, 1179.0 -546.4 C 1356.6 -438.2, 1289.1 -585.0, 1398.9 -301.7 C 1508.7 -18.5, 1481.3 -239.1, 1481.3 111.0 Z" fill="none" stroke="#FFFFFF" stroke-opacity="0.22" stroke-width="1.2"/>
  <path d="M -100.0 229.0 Q 133.3 202.1, 366.7 -58.0 Q 600.0 -347.7, 833.3 -365.8 Q 1066.7 -139.3, 1300.0 169.7" fill="none" stroke="#FFFFFF" stroke-opacity="0.38" stroke-width="4" filter="url(#soft_ambient_15_8392)"/>
  <path d="M -100.0 229.0 Q 133.3 202.1, 366.7 -58.0 Q 600.0 -347.7, 833.3 -365.8 Q 1066.7 -139.3, 1300.0 169.7" fill="none" stroke="#A9EAF6" stroke-opacity="0.18" stroke-width="2"/>
  <path d="M -100.0 171.6 Q 133.3 457.2, 366.7 569.5 Q 600.0 283.7, 833.3 79.1 Q 1066.7 186.6, 1300.0 576.5" fill="none" stroke="#FFFFFF" stroke-opacity="0.38" stroke-width="4" filter="url(#soft_ambient_15_8392)"/>
  <path d="M -100.0 171.6 Q 133.3 457.2, 366.7 569.5 Q 600.0 283.7, 833.3 79.1 Q 1066.7 186.6, 1300.0 576.5" fill="none" stroke="#D6C2FF" stroke-opacity="0.18" stroke-width="2"/>
  <path d="M -100.0 177.6 Q 133.3 370.0, 366.7 242.2 Q 600.0 259.9, 833.3 111.9 Q 1066.7 127.0, 1300.0 157.7" fill="none" stroke="#FFFFFF" stroke-opacity="0.38" stroke-width="4" filter="url(#soft_ambient_15_8392)"/>
  <path d="M -100.0 177.6 Q 133.3 370.0, 366.7 242.2 Q 600.0 259.9, 833.3 111.9 Q 1066.7 127.0, 1300.0 157.7" fill="none" stroke="#A9EAF6" stroke-opacity="0.18" stroke-width="2"/>
  <path d="M -100.0 1163.0 Q 133.3 1192.5, 366.7 976.5 Q 600.0 875.2, 833.3 917.9 Q 1066.7 966.1, 1300.0 1130.7" fill="none" stroke="#FFFFFF" stroke-opacity="0.38" stroke-width="4" filter="url(#soft_ambient_15_8392)"/>
  <path d="M -100.0 1163.0 Q 133.3 1192.5, 366.7 976.5 Q 600.0 875.2, 833.3 917.9 Q 1066.7 966.1, 1300.0 1130.7" fill="none" stroke="#D6C2FF" stroke-opacity="0.18" stroke-width="2"/>
  <path d="M -100.0 448.7 Q 133.3 144.4, 366.7 258.6 Q 600.0 651.7, 833.3 416.0 Q 1066.7 34.7, 1300.0 264.3" fill="none" stroke="#FFFFFF" stroke-opacity="0.38" stroke-width="4" filter="url(#soft_ambient_15_8392)"/>
  <path d="M -100.0 448.7 Q 133.3 144.4, 366.7 258.6 Q 600.0 651.7, 833.3 416.0 Q 1066.7 34.7, 1300.0 264.3" fill="none" stroke="#B6F5D1" stroke-opacity="0.18" stroke-width="2"/>
  <path d="M -100.0 255.0 Q 133.3 254.4, 366.7 224.4 Q 600.0 217.9, 833.3 337.2 Q 1066.7 451.5, 1300.0 541.2" fill="none" stroke="#FFFFFF" stroke-opacity="0.38" stroke-width="4" filter="url(#soft_ambient_15_8392)"/>
  <path d="M -100.0 255.0 Q 133.3 254.4, 366.7 224.4 Q 600.0 217.9, 833.3 337.2 Q 1066.7 451.5, 1300.0 541.2" fill="none" stroke="#B6F5D1" stroke-opacity="0.18" stroke-width="2"/>
  <circle cx="1271" cy="2517" r="83" fill="url(#orb_ambient_15_8392)" opacity="0.36"/>
  <circle cx="1271" cy="2517" r="83" fill="#A9EAF6" opacity="0.08"/>
  <circle cx="1271" cy="2517" r="83" fill="none" stroke="#FFFFFF" stroke-opacity="0.56" stroke-width="3"/>
  <ellipse cx="1247.8" cy="2487.1" rx="14.9" ry="6.6" fill="#FFFFFF" opacity="0.42" transform="rotate(-22 1247.8 2487.1)"/>
  <circle cx="797" cy="1078" r="158" fill="url(#orb_ambient_15_8392)" opacity="0.36"/>
  <circle cx="797" cy="1078" r="158" fill="#EEE5FF" opacity="0.08"/>
  <circle cx="797" cy="1078" r="158" fill="none" stroke="#FFFFFF" stroke-opacity="0.56" stroke-width="3"/>
  <ellipse cx="752.8" cy="1021.1" rx="28.4" ry="12.6" fill="#FFFFFF" opacity="0.42" transform="rotate(-22 752.8 1021.1)"/>
  <circle cx="228" cy="1392" r="198" fill="url(#orb_ambient_15_8392)" opacity="0.36"/>
  <circle cx="228" cy="1392" r="198" fill="#A9EAF6" opacity="0.08"/>
  <circle cx="228" cy="1392" r="198" fill="none" stroke="#FFFFFF" stroke-opacity="0.56" stroke-width="3"/>
  <ellipse cx="172.6" cy="1320.7" rx="35.6" ry="15.8" fill="#FFFFFF" opacity="0.42" transform="rotate(-22 172.6 1320.7)"/>
  <circle cx="960" cy="96" r="218" fill="url(#orb_ambient_15_8392)" opacity="0.23"/>
  <circle cx="960" cy="96" r="218" fill="#EEE5FF" opacity="0.08"/>
  <circle cx="960" cy="96" r="218" fill="none" stroke="#FFFFFF" stroke-opacity="0.56" stroke-width="3"/>
  <ellipse cx="899.0" cy="17.5" rx="39.2" ry="17.4" fill="#FFFFFF" opacity="0.42" transform="rotate(-22 899.0 17.5)"/>
  <circle cx="533" cy="34" r="214" fill="url(#orb_ambient_15_8392)" opacity="0.24"/>
  <circle cx="533" cy="34" r="214" fill="#B6F5D1" opacity="0.08"/>
  <circle cx="533" cy="34" r="214" fill="none" stroke="#FFFFFF" stroke-opacity="0.56" stroke-width="3"/>
  <ellipse cx="473.1" cy="-43.0" rx="38.5" ry="17.1" fill="#FFFFFF" opacity="0.42" transform="rotate(-22 473.1 -43.0)"/>
  <circle cx="364" cy="2260" r="201" fill="url(#orb_ambient_15_8392)" opacity="0.20"/>
  <circle cx="364" cy="2260" r="201" fill="#FFECEF" opacity="0.08"/>
  <circle cx="364" cy="2260" r="201" fill="none" stroke="#FFFFFF" stroke-opacity="0.56" stroke-width="3"/>
  <ellipse cx="307.7" cy="2187.6" rx="36.2" ry="16.1" fill="#FFFFFF" opacity="0.42" transform="rotate(-22 307.7 2187.6)"/>
  <circle cx="709" cy="938" r="243" fill="url(#orb_ambient_15_8392)" opacity="0.17"/>
  <circle cx="709" cy="938" r="243" fill="#DDEEFF" opacity="0.08"/>
  <circle cx="709" cy="938" r="243" fill="none" stroke="#FFFFFF" stroke-opacity="0.56" stroke-width="3"/>
  <ellipse cx="641.0" cy="850.5" rx="43.7" ry="19.4" fill="#FFFFFF" opacity="0.42" transform="rotate(-22 641.0 850.5)"/>
  <circle cx="514" cy="2597" r="243" fill="url(#orb_ambient_15_8392)" opacity="0.26"/>
  <circle cx="514" cy="2597" r="243" fill="#EEE5FF" opacity="0.08"/>
  <circle cx="514" cy="2597" r="243" fill="none" stroke="#FFFFFF" stroke-opacity="0.56" stroke-width="3"/>
  <ellipse cx="446.0" cy="2509.5" rx="43.7" ry="19.4" fill="#FFFFFF" opacity="0.42" transform="rotate(-22 446.0 2509.5)"/>
  <circle cx="740" cy="1500" r="170" fill="url(#orb_ambient_15_8392)" opacity="0.27"/>
  <circle cx="740" cy="1500" r="170" fill="#EEE5FF" opacity="0.08"/>
  <circle cx="740" cy="1500" r="170" fill="none" stroke="#FFFFFF" stroke-opacity="0.56" stroke-width="3"/>
  <ellipse cx="692.4" cy="1438.8" rx="30.6" ry="13.6" fill="#FFFFFF" opacity="0.42" transform="rotate(-22 692.4 1438.8)"/>
  <circle cx="265" cy="227" r="5" fill="#FFFFFF" opacity="0.37"/>
  <circle cx="916" cy="240" r="2" fill="#FFFFFF" opacity="0.55"/>
  <circle cx="478" cy="1824" r="2" fill="#FFFFFF" opacity="0.67"/>
  <circle cx="824" cy="2249" r="3" fill="#FFFFFF" opacity="0.71"/>
  <circle cx="646" cy="2040" r="2" fill="#FFFFFF" opacity="0.29"/>
  <circle cx="272" cy="1222" r="5" fill="#FFFFFF" opacity="0.59"/>
  <circle cx="719" cy="2436" r="7" fill="#FFFFFF" opacity="0.29"/>
  <circle cx="956" cy="2584" r="2" fill="#FFFFFF" opacity="0.67"/>
  <circle cx="289" cy="1503" r="5" fill="#FFFFFF" opacity="0.69"/>
  <circle cx="1149" cy="2588" r="2" fill="#FFFFFF" opacity="0.55"/>
  <circle cx="517" cy="1063" r="5" fill="#FFFFFF" opacity="0.53"/>
  <circle cx="874" cy="1725" r="2" fill="#FFFFFF" opacity="0.53"/>
  <circle cx="292" cy="1991" r="7" fill="#FFFFFF" opacity="0.41"/>
  <circle cx="256" cy="1330" r="7" fill="#FFFFFF" opacity="0.38"/>
  <rect width="1200" height="2600" fill="#FFFFFF" opacity="0.08"/>
  <rect width="1200" height="2600" filter="url(#grain_ambient_15_8392)" opacity="0.7"/>
</svg>
