<svg xmlns="http://www.w3.org/2000/svg" width="1200" height="2600" viewBox="0 0 1200 2600" preserveAspectRatio="xMidYMid slice">
  <defs>
    <linearGradient id="bg_ambient_12_3661" x1="0" y1="0" x2="1" y2="1">
      <stop offset="0%" stop-color="#FFECEF"/>
      <stop offset="48%" stop-color="#FDFFFF"/>
      <stop offset="100%" stop-color="#DFFCED"/>
    </linearGradient>
    <radialGradient id="orb_ambient_12_3661" cx="35%" cy="30%" r="70%">
      <stop offset="0%" stop-color="#FFFFFF" stop-opacity="0.85"/>
      <stop offset="42%" stop-color="#FFFFFF" stop-opacity="0.20"/>
      <stop offset="100%" stop-color="#FFFFFF" stop-opacity="0.02"/>
    </radialGradient>
    <filter id="blur_ambient_12_3661" x="-30%" y="-30%" width="160%" height="160%">
      <feGaussianBlur stdDeviation="72"/>
    </filter>
    <filter id="soft_ambient_12_3661" x="-20%" y="-20%" width="140%" height="140%">
      <feGaussianBlur stdDeviation="10"/>
    </filter>
    <filter id="grain_ambient_12_3661">
      <feTurbulence type="fractalNoise" baseFrequency="0.85" numOctaves="2" stitchTiles="stitch"/>
      <feColorMatrix type="saturate" values="0"/>
      <feComponentTransfer>
        <feFuncA type="table" tableValues="0 0.035"/>
      </feComponentTransfer>
    </filter>
  </defs>
  <rect width="1200" height="2600" fill="url(#bg_ambient_12_3661)"/>
  <path d="M 843.0 719.0 C 843.0 847.2, 815.5 787.9, 670.3 886.1 C 525.1 984.3, 620.6 980.9, 398.2 1003.2 C 175.7 1025.4, 216.2 1004.6, 20.6 940.4 C -175.1 876.3, -43.2 920.5, -120.4 800.0 C -197.7 679.4, -277.2 757.7, -199.9 637.2 C -122.7 516.7, -178.6 500.8, 17.0 436.7 C 212.7 372.6, 150.7 460.1, 373.2 482.4 C 595.6 504.6, 540.8 411.6, 686.0 509.9 C 831.2 608.1, 843.0 590.8, 843.0 719.0 Z" fill="#DFF8FF" opacity="0.28" filter="url(#blur_ambient_12_3661)"/>
  <path d="M 1351.4 820.0 C 1351.4 940.6, 1418.4 886.8, 1351.9 979.2 C 1285.4 1071.6, 1283.0 1023.3, 1181.0 1044.3 C 1079.1 1065.2, 1127.3 1130.3, 1037.6 1070.0 C 948.0 1009.7, 939.3 1038.0, 903.9 924.6 C 868.5 811.3, 859.8 825.7, 895.2 712.4 C 930.6 599.1, 944.5 632.7, 1034.1 572.4 C 1123.7 512.1, 1087.7 582.1, 1189.6 603.0 C 1291.5 623.9, 1241.7 548.9, 1308.3 641.2 C 1374.8 733.6, 1351.4 699.4, 1351.4 820.0 Z" fill="#D6C2FF" opacity="0.22" filter="url(#blur_ambient_12_3661)"/>
  <path d="M 1441.8 862.0 C 1441.8 1019.0, 1466.4 958.0, 1360.2 1078.4 C 1254.1 1198.7, 1261.5 1145.2, 1098.9 1172.5 C 936.3 1199.7, 985.8 1189.2, 842.7 1110.6 C 699.7 1032.1, 797.4 1141.5, 741.0 993.9 C 684.5 846.4, 682.7 885.4, 739.2 737.8 C 795.6 590.2, 741.4 631.9, 884.4 553.4 C 1027.4 474.9, 929.8 472.2, 1092.4 499.5 C 1255.1 526.8, 1192.4 488.2, 1298.5 608.5 C 1404.7 728.8, 1441.8 705.0, 1441.8 862.0 Z" fill="#A9EAF6" opacity="0.21" filter="url(#blur_ambient_12_3661)"/>
  <path d="M 1522.4 2092.0 C 1522.4 2246.3, 1543.7 2184.9, 1393.6 2303.1 C 1243.5 2421.4, 1369.9 2434.3, 1139.9 2461.1 C 909.9 2487.9, 968.3 2451.7, 766.0 2374.5 C 563.8 2297.3, 709.1 2369.3, 629.2 2224.2 C 549.3 2079.2, 413.2 2139.2, 493.1 1994.1 C 572.9 1849.1, 606.7 1893.9, 808.9 1816.8 C 1011.2 1739.6, 912.0 1787.3, 1142.0 1814.1 C 1372.0 1840.9, 1250.7 1737.4, 1400.9 1855.6 C 1551.0 1973.9, 1522.4 1937.7, 1522.4 2092.0 Z" fill="#D6C2FF" opacity="0.35" filter="url(#blur_ambient_12_3661)"/>
  <path d="M 1688.3 750.0 C 1688.3 968.7, 1809.6 914.7, 1698.5 1082.2 C 1587.4 1249.7, 1604.8 1192.2, 1434.6 1230.2 C 1264.4 1268.2, 1349.6 1330.9, 1199.9 1221.6 C 1050.3 1112.2, 1008.1 1121.2, 949.0 915.7 C 889.9 710.1, 942.4 789.7, 1001.5 584.2 C 1060.6 378.7, 1019.9 442.5, 1169.5 333.1 C 1319.2 223.8, 1254.2 309.6, 1424.3 347.6 C 1594.5 385.6, 1545.4 251.5, 1656.5 419.0 C 1767.6 586.6, 1688.3 531.3, 1688.3 750.0 Z" fill="#FFC7DA" opacity="0.32" filter="url(#blur_ambient_12_3661)"/>
  <path d="M 429.2 782.0 C 429.2 936.8, 491.2 857.1, 365.4 975.7 C 239.5 1094.3, 251.1 1101.3, 58.3 1128.1 C -134.5 1155.0, -86.5 1150.3, -256.1 1072.9 C -425.6 995.5, -433.0 1054.4, -499.9 909.0 C -566.9 763.5, -531.8 795.1, -464.8 649.6 C -397.9 504.1, -382.2 591.6, -212.7 514.2 C -43.2 436.8, -148.2 404.5, 44.6 431.3 C 237.3 458.2, 197.6 439.0, 323.4 557.6 C 449.3 676.2, 429.2 627.2, 429.2 782.0 Z" fill="#DFFCED" opacity="0.33" filter="url(#blur_ambient_12_3661)"/>
  <path d="M 980.2 2776.0 C 980.2 2921.3, 1011.0 2889.5, 941.3 3000.9 C 871.6 3112.2, 914.4 3106.0, 807.6 3131.3 C 700.8 3156.5, 746.5 3151.4, 652.6 3078.8 C 558.7 3006.1, 591.1 3017.5, 554.0 2880.9 C 516.9 2744.3, 522.3 2800.3, 559.4 2663.7 C 596.5 2527.1, 572.6 2560.2, 666.5 2487.5 C 760.4 2414.8, 694.4 2390.5, 801.2 2415.7 C 908.0 2441.0, 849.3 2465.8, 919.0 2577.2 C 988.7 2688.5, 980.2 2630.7, 980.2 2776.0 Z" fill="#B6F5D1" opacity="0.17" filter="url(#blur_ambient_12_3661)"/>
  <path d="M 1427.4 2618.0 C 1427.4 2887.1, 1469.6 2752.7, 1399.3 2958.9 C 1329.0 3165.0, 1331.3 3100.2, 1223.7 3147.0 C 1116.0 3193.7, 1153.3 3241.2, 1058.6 3106.6 C 963.9 2972.1, 1030.0 3068.8, 992.6 2815.9 C 955.2 2563.0, 941.0 2634.6, 978.4 2381.7 C 1015.8 2128.8, 961.0 2291.3, 1055.7 2156.7 C 1150.4 2022.2, 1128.2 1903.5, 1235.8 1950.2 C 1343.5 1996.9, 1327.9 1963.0, 1398.1 2169.1 C 1468.4 2375.3, 1427.4 2348.9, 1427.4 2618.0 Z" fill="#EEE5FF" opacity="0.26" filter="url(#blur_ambient_12_3661)"/>
  <path d="M 1237.7 2386.0 C 1237.7 2503.4, 1239.5 2445.2, 1142.3 2535.2 C 1045.1 2625.2, 1043.8 2576.7, 894.9 2597.1 C 745.9 2617.5, 822.8 2697.4, 691.9 2638.7 C 560.9 2580.0, 582.8 2576.9, 531.1 2466.6 C 479.4 2356.2, 422.8 2421.0, 474.5 2310.6 C 526.2 2200.3, 544.1 2233.9, 675.0 2175.2 C 806.0 2116.4, 746.7 2078.7, 895.6 2099.0 C 1044.5 2119.4, 1007.5 2115.6, 1104.7 2205.6 C 1201.9 2295.6, 1237.7 2268.6, 1237.7 2386.0 Z" fill="#FDFFFF" opacity="0.33" filter="url(#blur_ambient_12_3661)"/>
  <path d="M 1741.3 605.0 C 1741.3 908.8, 1873.5 736.4, 1719.3 969.1 C 1565.2 1201.8, 1619.3 1208.8, 1383.1 1261.6 C 1146.9 1314.3, 1219.9 1258.1, 1012.1 1106.3 C 804.4 954.4, 885.7 1085.4, 803.7 800.0 C 721.6 514.5, 727.9 635.1, 809.9 349.7 C 892.0 64.3, 838.6 87.7, 1046.3 -64.2 C 1254.0 -216.0, 1129.1 -89.3, 1365.3 -36.5 C 1601.5 16.2, 1584.1 -94.8, 1738.3 137.9 C 1892.5 370.5, 1741.3 301.2, 1741.3 605.0 Z" fill="#D6C2FF" opacity="0.21" filter="url(#blur_ambient_12_3661)"/>
  <path d="M 368.6 1763.0 C 368.6 2038.8, 360.6 1920.2, 291.8 2131.5 C 222.9 2342.8, 254.7 2243.7, 149.2 2291.6 C 43.7 2339.5, 73.6 2378.8, -19.1 2240.9 C -111.9 2103.0, -116.6 2233.4, -153.2 1974.1 C -189.8 1714.9, -161.7 1805.7, -125.1 1546.5 C -88.5 1287.3, -120.0 1380.6, -27.2 1242.7 C 65.5 1104.8, 48.5 1055.3, 153.9 1103.2 C 259.4 1151.1, 222.8 1147.1, 291.6 1358.4 C 360.5 1569.8, 368.6 1487.2, 368.6 1763.0 Z" fill="#B6F5D1" opacity="0.29" filter="url(#blur_ambient_12_3661)"/>
  <path d="M 407.0 187.0 C 407.0 443.9, 408.0 388.1, 296.9 585.0 C 185.8 781.8, 201.7 713.4, 31.6 758.0 C -138.6 802.6, -110.0 813.9, -259.6 685.4 C -409.3 556.9, -331.7 623.2, -390.8 381.8 C -449.9 140.3, -434.2 234.9, -375.1 -6.6 C -316.0 -248.0, -411.1 -158.4, -261.4 -286.9 C -111.8 -415.3, -159.8 -394.3, 10.4 -349.7 C 180.5 -305.0, 108.3 -426.0, 219.4 -229.2 C 330.5 -32.4, 407.0 -69.9, 407.0 187.0 Z" fill="#B6F5D1" opacity="0.22" filter="url(#blur_ambient_12_3661)"/>
  <path d="M 657.5 2633.0 C 657.5 2750.0, 594.8 2723.7, 452.2 2813.3 C 309.6 2902.9, 428.6 2828.4, 210.1 2848.7 C -8.4 2869.0, 104.1 2950.4, -88.0 2891.9 C -280.1 2833.4, -197.4 2837.4, -273.3 2727.4 C -349.1 2617.5, -343.2 2663.1, -267.3 2553.2 C -191.4 2443.2, -338.7 2479.7, -146.6 2421.2 C 45.6 2362.7, -1.2 2362.1, 217.3 2382.4 C 435.8 2402.8, 320.5 2386.9, 463.1 2476.5 C 605.7 2566.1, 657.5 2516.0, 657.5 2633.0 Z" fill="#FFECEF" opacity="0.21" filter="url(#blur_ambient_12_3661)"/>
  <path d="M 436.4 2560.0 C 436.4 2847.6, 458.6 2721.8, 354.9 2954.4 C 251.3 3187.0, 355.2 3163.1, 187.4 3252.0 C 19.7 3340.8, 111.4 3207.4, -56.4 3118.5 C -224.1 3029.6, -181.6 3127.2, -285.2 2894.6 C -388.9 2662.0, -303.8 2847.6, -303.8 2560.0 C -303.8 2272.4, -329.4 2373.6, -225.7 2140.9 C -122.1 1908.3, -206.3 1967.9, -38.5 1879.0 C 129.2 1790.2, 21.2 1824.4, 189.0 1913.2 C 356.8 2002.1, 253.5 1907.5, 357.2 2140.1 C 460.9 2372.7, 436.4 2272.4, 436.4 2560.0 Z" fill="#EEE5FF" opacity="0.12" stroke="#FFFFFF" stroke-opacity="0.46" stroke-width="3" filter="url(#soft_ambient_12_3661)"/>
  <path d="M 436.4 2560.0 C 436.4 2847.6, 458.6 2721.8, 354.9 2954.4 C 251.3 3187.0, 355.2 3163.1, 187.4 3252.0 C 19.7 3340.8, 111.4 3207.4, -56.4 3118.5 C -224.1 3029.6, -181.6 3127.2, -285.2 2894.6 C -388.9 2662.0, -303.8 2847.6, -303.8 2560.0 C -303.8 2272.4, -329.4 2373.6, -225.7 2140.9 C -122.1 1908.3, -206.3 1967.9, -38.5 1879.0 C 129.2 1790.2, 21.2 1824.4, 189.0 1913.2 C 356.8 2002.1, 253.5 1907.5, 357.2 2140.1 C 460.9 2372.7, 436.4 2272.4, 436.4 2560.0 Z" fill="none" stroke="#FFFFFF" stroke-opacity="0.22" stroke-width="1.2"/>
  <path d="M 116.1 1560.0 C 116.1 1758.5, 132.2 1665.5, 54.2 1826.1 C -23.9 1986.6, 43.4 1962.2, -82.8 2023.5 C -209.1 2084.8, -143.0 1993.1, -269.3 1931.8 C -395.5 1870.5, -316.2 2003.2, -394.3 1842.6 C -472.3 1682.1, -445.8 1758.5, -445.8 1560.0 C -445.8 1361.5, -512.8 1452.0, -434.8 1291.4 C -356.8 1130.9, -381.5 1253.1, -255.2 1191.8 C -129.0 1130.5, -203.0 1049.3, -76.8 1110.6 C 49.5 1172.0, -25.8 1131.2, 52.2 1291.8 C 130.3 1452.3, 116.1 1361.5, 116.1 1560.0 Z" fill="#FFC7DA" opacity="0.12" stroke="#FFC7DA" stroke-opacity="0.46" stroke-width="3" filter="url(#soft_ambient_12_3661)"/>
  <path d="M 116.1 1560.0 C 116.1 1758.5, 132.2 1665.5, 54.2 1826.1 C -23.9 1986.6, 43.4 1962.2, -82.8 2023.5 C -209.1 2084.8, -143.0 1993.1, -269.3 1931.8 C -395.5 1870.5, -316.2 2003.2, -394.3 1842.6 C -472.3 1682.1, -445.8 1758.5, -445.8 1560.0 C -445.8 1361.5, -512.8 1452.0, -434.8 1291.4 C -356.8 1130.9, -381.5 1253.1, -255.2 1191.8 C -129.0 1130.5, -203.0 1049.3, -76.8 1110.6 C 49.5 1172.0, -25.8 1131.2, 52.2 1291.8 C 130.3 1452.3, 116.1 1361.5, 116.1 1560.0 Z" fill="none" stroke="#FFFFFF" stroke-opacity="0.22" stroke-width="1.2"/>
  <path d="M 1027.2 219.0 C 1027.2 475.9, 1057.8 346.2, 971.8 554.0 C 885.8 761.9, 911.4 644.0, 772.3 723.4 C 633.2 802.8, 731.9 881.0, 592.8 801.6 C 453.7 722.2, 483.7 716.0, 397.7 508.2 C 311.8 300.3, 368.1 476.0, 368.1 219.0 C 368.1 -37.9, 332.1 111.4, 418.0 -96.5 C 504.0 -304.4, 441.8 -312.8, 580.9 -392.2 C 720.0 -471.6, 641.8 -394.8, 780.9 -315.4 C 920.0 -236.0, 879.3 -325.7, 965.3 -117.9 C 1051.2 90.0, 1027.2 -37.9, 1027.2 219.0 Z" fill="#B6F5D1" opacity="0.12" stroke="#B6F5D1" stroke-opacity="0.46" stroke-width="3" filter="url(#soft_ambient_12_3661)"/>
  <path d="M 1027.2 219.0 C 1027.2 475.9, 1057.8 346.2, 971.8 554.0 C 885.8 761.9, 911.4 644.0, 772.3 723.4 C 633.2 802.8, 731.9 881.0, 592.8 801.6 C 453.7 722.2, 483.7 716.0, 397.7 508.2 C 311.8 300.3, 368.1 476.0, 368.1 219.0 C 368.1 -37.9, 332.1 111.4, 418.0 -96.5 C 504.0 -304.4, 441.8 -312.8, 580.9 -392.2 C 720.0 -471.6, 641.8 -394.8, 780.9 -315.4 C 920.0 -236.0, 879.3 -325.7, 965.3 -117.9 C 1051.2 90.0, 1027.2 -37.9, 1027.2 219.0 Z" fill="none" stroke="#FFFFFF" stroke-opacity="0.22" stroke-width="1.2"/>
  <path d="M 1415.2 2688.0 C 1415.2 3041.2, 1562.3 2807.9, 1425.8 3093.6 C 1289.3 3379.4, 1348.3 3300.3, 1127.4 3409.5 C 906.6 3518.6, 998.0 3497.1, 777.1 3388.0 C 556.3 3278.8, 645.3 3394.1, 508.8 3108.3 C 372.3 2822.5, 369.8 3041.2, 369.8 2688.0 C 369.8 2334.8, 432.5 2465.5, 569.0 2179.7 C 705.5 1893.9, 578.5 2014.2, 799.3 1905.0 C 1020.2 1795.9, 869.0 1923.1, 1089.9 2032.3 C 1310.7 2141.5, 1229.8 1976.8, 1366.3 2262.6 C 1502.8 2548.4, 1415.2 2334.8, 1415.2 2688.0 Z" fill="#EEE5FF" opacity="0.12" stroke="#FFFFFF" stroke-opacity="0.46" stroke-width="3" filter="url(#soft_ambient_12_3661)"/>
  <path d="M 1415.2 2688.0 C 1415.2 3041.2, 1562.3 2807.9, 1425.8 3093.6 C 1289.3 3379.4, 1348.3 3300.3, 1127.4 3409.5 C 906.6 3518.6, 998.0 3497.1, 777.1 3388.0 C 556.3 3278.8, 645.3 3394.1, 508.8 3108.3 C 372.3 2822.5, 369.8 3041.2, 369.8 2688.0 C 369.8 2334.8, 432.5 2465.5, 569.0 2179.7 C 705.5 1893.9, 578.5 2014.2, 799.3 1905.0 C 1020.2 1795.9, 869.0 1923.1, 1089.9 2032.3 C 1310.7 2141.5, 1229.8 1976.8, 1366.3 2262.6 C 1502.8 2548.4, 1415.2 2334.8, 1415.2 2688.0 Z" fill="none" stroke="#FFFFFF" stroke-opacity="0.22" stroke-width="1.2"/>
  <path d="M 1399.0 1535.0 C 1399.0 1724.0, 1387.5 1626.1, 1316.1 1779.0 C 1244.6 1931.9, 1297.9 1838.9, 1182.4 1897.3 C 1066.8 1955.7, 1124.7 1969.4, 1009.1 1911.0 C 893.6 1852.6, 968.5 1908.0, 897.0 1755.1 C 825.6 1602.2, 856.7 1724.0, 856.7 1535.0 C 856.7 1346.0, 816.7 1447.7, 888.1 1294.8 C 959.5 1141.9, 901.7 1215.9, 1017.3 1157.5 C 1132.9 1099.1, 1077.1 1081.9, 1192.6 1140.3 C 1308.2 1198.7, 1256.7 1106.4, 1328.1 1259.3 C 1399.6 1412.2, 1399.0 1346.0, 1399.0 1535.0 Z" fill="#FFECEF" opacity="0.12" stroke="#FFECEF" stroke-opacity="0.46" stroke-width="3" filter="url(#soft_ambient_12_3661)"/>
  <path d="M 1399.0 1535.0 C 1399.0 1724.0, 1387.5 1626.1, 1316.1 1779.0 C 1244.6 1931.9, 1297.9 1838.9, 1182.4 1897.3 C 1066.8 1955.7, 1124.7 1969.4, 1009.1 1911.0 C 893.6 1852.6, 968.5 1908.0, 897.0 1755.1 C 825.6 1602.2, 856.7 1724.0, 856.7 1535.0 C 856.7 1346.0, 816.7 1447.7, 888.1 1294.8 C 959.5 1141.9, 901.7 1215.9, 1017.3 1157.5 C 1132.9 1099.1, 1077.1 1081.9, 1192.6 1140.3 C 1308.2 1198.7, 1256.7 1106.4, 1328.1 1259.3 C 1399.6 1412.2, 1399.0 1346.0, 1399.0 1535.0 Z" fill="none" stroke="#FFFFFF" stroke-opacity="0.22" stroke-width="1.2"/>
  <path d="M 295.1 1781.0 C 295.1 1961.9, 297.5 1844.2, 224.8 1990.6 C 152.0 2136.9, 196.4 2078.2, 78.8 2134.1 C -38.9 2190.0, 41.7 2169.1, -76.0 2113.2 C -193.7 2057.3, -146.4 2163.4, -219.2 2017.0 C -291.9 1870.7, -299.7 1961.9, -299.7 1781.0 C -299.7 1600.1, -314.7 1675.1, -242.0 1528.7 C -169.2 1382.4, -190.9 1455.5, -73.2 1399.6 C 44.5 1343.7, -18.5 1291.3, 99.2 1347.2 C 216.9 1403.1, 161.8 1394.4, 234.5 1540.7 C 307.3 1687.1, 295.1 1600.1, 295.1 1781.0 Z" fill="#EEE5FF" opacity="0.12" stroke="#FFFFFF" stroke-opacity="0.46" stroke-width="3" filter="url(#soft_ambient_12_3661)"/>
  <path d="M 295.1 1781.0 C 295.1 1961.9, 297.5 1844.2, 224.8 1990.6 C 152.0 2136.9, 196.4 2078.2, 78.8 2134.1 C -38.9 2190.0, 41.7 2169.1, -76.0 2113.2 C -193.7 2057.3, -146.4 2163.4, -219.2 2017.0 C -291.9 1870.7, -299.7 1961.9, -299.7 1781.0 C -299.7 1600.1, -314.7 1675.1, -242.0 1528.7 C -169.2 1382.4, -190.9 1455.5, -73.2 1399.6 C 44.5 1343.7, -18.5 1291.3, 99.2 1347.2 C 216.9 1403.1, 161.8 1394.4, 234.5 1540.7 C 307.3 1687.1, 295.1 1600.1, 295.1 1781.0 Z" fill="none" stroke="#FFFFFF" stroke-opacity="0.22" stroke-width="1.2"/>
  <path d="M -100.0 2348.2 Q 133.3 2122.7, 366.7 2251.5 Q 600.0 2491.6, 833.3 2598.6 Q 1066.7 2507.6, 1300.0 2216.1" fill="none" stroke="#FFFFFF" stroke-opacity="0.38" stroke-width="4" filter="url(#soft_ambient_12_3661)"/>
  <path d="M -100.0 2348.2 Q 133.3 2122.7, 366.7 2251.5 Q 600.0 2491.6, 833.3 2598.6 Q 1066.7 2507.6, 1300.0 2216.1" fill="none" stroke="#FFC7DA" stroke-opacity="0.18" stroke-width="2"/>
  <path d="M -100.0 -133.0 Q 133.3 47.0, 366.7 109.9 Q 600.0 -2.9, 833.3 -200.0 Q 1066.7 -72.9, 1300.0 45.3" fill="none" stroke="#FFFFFF" stroke-opacity="0.38" stroke-width="4" filter="url(#soft_ambient_12_3661)"/>
  <path d="M -100.0 -133.0 Q 133.3 47.0, 366.7 109.9 Q 600.0 -2.9, 833.3 -200.0 Q 1066.7 -72.9, 1300.0 45.3" fill="none" stroke="#FFC7DA" stroke-opacity="0.18" stroke-width="2"/>
  <path d="M -100.0 342.1 Q 133.3 271.8, 366.7 116.5 Q 600.0 373.8, 833.3 438.3 Q 1066.7 554.1, 1300.0 255.5" fill="none" stroke="#FFFFFF" stroke-opacity="0.38" stroke-width="4" filter="url(#soft_ambient_12_3661)"/>
  <path d="M -100.0 342.1 Q 133.3 271.8, 366.7 116.5 Q 600.0 373.8, 833.3 438.3 Q 1066.7 554.1, 1300.0 255.5" fill="none" stroke="#D6C2FF" stroke-opacity="0.18" stroke-width="2"/>
  <path d="M -100.0 1929.4 Q 133.3 2133.2, 366.7 2461.2 Q 600.0 2347.0, 833.3 2031.3 Q 1066.7 1901.2, 1300.0 2365.6" fill="none" stroke="#FFFFFF" stroke-opacity="0.38" stroke-width="4" filter="url(#soft_ambient_12_3661)"/>
  <path d="M -100.0 1929.4 Q 133.3 2133.2, 366.7 2461.2 Q 600.0 2347.0, 833.3 2031.3 Q 1066.7 1901.2, 1300.0 2365.6" fill="none" stroke="#B6F5D1" stroke-opacity="0.18" stroke-width="2"/>
  <path d="M -100.0 1572.9 Q 133.3 1543.3, 366.7 1324.5 Q 600.0 1320.7, 833.3 1350.0 Q 1066.7 1299.1, 1300.0 1509.7" fill="none" stroke="#FFFFFF" stroke-opacity="0.38" stroke-width="4" filter="url(#soft_ambient_12_3661)"/>
  <path d="M -100.0 1572.9 Q 133.3 1543.3, 366.7 1324.5 Q 600.0 1320.7, 833.3 1350.0 Q 1066.7 1299.1, 1300.0 1509.7" fill="none" stroke="#B6F5D1" stroke-opacity="0.18" stroke-width="2"/>
  <path d="M -100.0 1898.9 Q 133.3 1667.5, 366.7 1318.0 Q 600.0 1236.6, 833.3 1512.4 Q 1066.7 1784.7, 1300.0 1943.4" fill="none" stroke="#FFFFFF" stroke-opacity="0.38" stroke-width="4" filter="url(#soft_ambient_12_3661)"/>
  <path d="M -100.0 1898.9 Q 133.3 1667.5, 366.7 1318.0 Q 600.0 1236.6, 833.3 1512.4 Q 1066.7 1784.7, 1300.0 1943.4" fill="none" stroke="#FFC7DA" stroke-opacity="0.18" stroke-width="2"/>
  <circle cx="729" cy="2384" r="202" fill="url(#orb_ambient_12_3661)" opacity="0.36"/>
  <circle cx="729" cy="2384" r="202" fill="#D6C2FF" opacity="0.08"/>
  <circle cx="729" cy="2384" r="202" fill="none" stroke="#FFFFFF" stroke-opacity="0.56" stroke-width="3"/>
  <ellipse cx="672.4" cy="2311.3" rx="36.4" ry="16.2" fill="#FFFFFF" opacity="0.42" transform="rotate(-22 672.4 2311.3)"/>
  <circle cx="980" cy="2439" r="233" fill="url(#orb_ambient_12_3661)" opacity="0.36"/>
  <circle cx="980" cy="2439" r="233" fill="#DDEEFF" opacity="0.08"/>
  <circle cx="980" cy="2439" r="233" fill="none" stroke="#FFFFFF" stroke-opacity="0.56" stroke-width="3"/>
  <ellipse cx="914.8" cy="2355.1" rx="41.9" ry="18.6" fill="#FFFFFF" opacity="0.42" transform="rotate(-22 914.8 2355.1)"/>
  <circle cx="574" cy="2228" r="170" fill="url(#orb_ambient_12_3661)" opacity="0.36"/>
  <circle cx="574" cy="2228" r="170" fill="#DFF8FF" opacity="0.08"/>
  <circle cx="574" cy="2228" r="170" fill="none" stroke="#FFFFFF" stroke-opacity="0.56" stroke-width="3"/>
  <ellipse cx="526.4" cy="2166.8" rx="30.6" ry="13.6" fill="#FFFFFF" opacity="0.42" transform="rotate(-22 526.4 2166.8)"/>
  <circle cx="1134" cy="816" r="177" fill="url(#orb_ambient_12_3661)" opacity="0.16"/>
  <circle cx="1134" cy="816" r="177" fill="#DDEEFF" opacity="0.08"/>
  <circle cx="1134" cy="816" r="177" fill="none" stroke="#FFFFFF" stroke-opacity="0.56" stroke-width="3"/>
  <ellipse cx="1084.4" cy="752.3" rx="31.9" ry="14.2" fill="#FFFFFF" opacity="0.42" transform="rotate(-22 1084.4 752.3)"/>
  <circle cx="1211" cy="496" r="188" fill="url(#orb_ambient_12_3661)" opacity="0.20"/>
  <circle cx="1211" cy="496" r="188" fill="#EEE5FF" opacity="0.08"/>
  <circle cx="1211" cy="496" r="188" fill="none" stroke="#FFFFFF" stroke-opacity="0.56" stroke-width="3"/>
  <ellipse cx="1158.4" cy="428.3" rx="33.8" ry="15.0" fill="#FFFFFF" opacity="0.42" transform="rotate(-22 1158.4 428.3)"/>
  <circle cx="233" cy="1451" r="113" fill="url(#orb_ambient_12_3661)" opacity="0.23"/>
  <circle cx="233" cy="1451" r="113" fill="#DFF8FF" opacity="0.08"/>
  <circle cx="233" cy="1451" r="113" fill="none" stroke="#FFFFFF" stroke-opacity="0.56" stroke-width="3"/>
  <ellipse cx="201.4" cy="1410.3" rx="20.3" ry="9.0" fill="#FFFFFF" opacity="0.42" transform="rotate(-22 201.4 1410.3)"/>
  <circle cx="56" cy="1120" r="290" fill="url(#orb_ambient_12_3661)" opacity="0.23"/>
  <circle cx="56" cy="1120" r="290" fill="#FFC7DA" opacity="0.08"/>
  <circle cx="56" cy="1120" r="290" fill="none" stroke="#FFFFFF" stroke-opacity="0.56" stroke-width="3"/>
  <ellipse cx="-25.2" cy="1015.6" rx="52.2" ry="23.2" fill="#FFFFFF" opacity="0.42" transform="rotate(-22 -25.2 1015.6)"/>
  <circle cx="156" cy="6" r="138" fill="url(#orb_ambient_12_3661)" opacity="0.20"/>
  <circle cx="156" cy="6" r="138" fill="#FFC7DA" opacity="0.08"/>
  <circle cx="156" cy="6" r="138" fill="none" stroke="#FFFFFF" stroke-opacity="0.56" stroke-width="3"/>
  <ellipse cx="117.4" cy="-43.7" rx="24.8" ry="11.0" fill="#FFFFFF" opacity="0.42" transform="rotate(-22 117.4 -43.7)"/>
  <circle cx="472" cy="525" r="95" fill="url(#orb_ambient_12_3661)" opacity="0.27"/>
  <circle cx="472" cy="525" r="95" fill="#DDEEFF" opacity="0.08"/>
  <circle cx="472" cy="525" r="95" fill="none" stroke="#FFFFFF" stroke-opacity="0.56" stroke-width="3"/>
  <ellipse cx="445.4" cy="490.8" rx="17.1" ry="7.6" fill="#FFFFFF" opacity="0.42" transform="rotate(-22 445.4 490.8)"/>
  <circle cx="935" cy="453" r="7" fill="#FFFFFF" opacity="0.54"/>
  <circle cx="316" cy="2286" r="3" fill="#FFFFFF" opacity="0.34"/>
  <circle cx="590" cy="1444" r="4" fill="#FFFFFF" opacity="0.32"/>
  <circle cx="209" cy="859" r="7" fill="#FFFFFF" opacity="0.54"/>
  <circle cx="486" cy="1227" r="3" fill="#FFFFFF" opacity="0.36"/>
  <circle cx="105" cy="2296" r="2" fill="#FFFFFF" opacity="0.45"/>
  <circle cx="808" cy="731" r="2" fill="#FFFFFF" opacity="0.34"/>
  <circle cx="283" cy="1079" r="3" fill="#FFFFFF" opacity="0.41"/>
  <circle cx="272" cy="1198" r="3" fill="#FFFFFF" opacity="0.48"/>
  <circle cx="752" cy="2305" r="2" fill="#FFFFFF" opacity="0.34"/>
  <circle cx="483" cy="2377" r="5" fill="#FFFFFF" opacity="0.69"/>
  <circle cx="577" cy="798" r="7" fill="#FFFFFF" opacity="0.35"/>
  <circle cx="1087" cy="1455" r="3" fill="#FFFFFF" opacity="0.42"/>
  <circle cx="658" cy="256" r="3" fill="#FFFFFF" opacity="0.32"/>
  <circle cx="222" cy="1919" r="5" fill="#FFFFFF" opacity="0.58"/>
  <circle cx="60" cy="139" r="2" fill="#FFFFFF" opacity="0.29"/>
  <rect width="1200" height="2600" fill="#FFFFFF" opacity="0.08"/>
  <rect width="1200" height="2600" filter="url(#grain_ambient_12_3661)" opacity="0.7"/>
</svg>
