<svg xmlns="http://www.w3.org/2000/svg" width="1200" height="2600" viewBox="0 0 1200 2600" preserveAspectRatio="xMidYMid slice">
  <defs>
    <linearGradient id="bg_ambient_20_1125" x1="0" y1="0" x2="1" y2="1">
      <stop offset="0%" stop-color="#DDEEFF"/>
      <stop offset="48%" stop-color="#EEE5FF"/>
      <stop offset="100%" stop-color="#DFFCED"/>
    </linearGradient>
    <radialGradient id="orb_ambient_20_1125" cx="35%" cy="30%" r="70%">
      <stop offset="0%" stop-color="#FFFFFF" stop-opacity="0.85"/>
      <stop offset="42%" stop-color="#FFFFFF" stop-opacity="0.20"/>
      <stop offset="100%" stop-color="#FFFFFF" stop-opacity="0.02"/>
    </radialGradient>
    <filter id="blur_ambient_20_1125" x="-30%" y="-30%" width="160%" height="160%">
      <feGaussianBlur stdDeviation="72"/>
    </filter>
    <filter id="soft_ambient_20_1125" x="-20%" y="-20%" width="140%" height="140%">
      <feGaussianBlur stdDeviation="10"/>
    </filter>
    <filter id="grain_ambient_20_1125">
      <feTurbulence type="fractalNoise" baseFrequency="0.85" numOctaves="2" stitchTiles="stitch"/>
      <feColorMatrix type="saturate" values="0"/>
      <feComponentTransfer>
        <feFuncA type="table" tableValues="0 0.035"/>
      </feComponentTransfer>
    </filter>
  </defs>
  <rect width="1200" height="2600" fill="url(#bg_ambient_20_1125)"/>
  <path d="M 1516.0 468.0 C 1516.0 616.0, 1507.4 566.7, 1402.7 680.1 C 1298.0 793.5, 1347.5 732.6, 1187.1 758.3 C 1026.7 784.0, 1107.5 878.1, 966.4 804.0 C 825.3 730.0, 874.0 728.8, 818.3 589.7 C 762.6 450.6, 780.4 475.3, 836.1 336.2 C 891.8 197.1, 823.9 214.7, 965.0 140.7 C 1106.0 66.7, 1046.3 87.5, 1206.7 113.2 C 1367.2 139.0, 1277.1 112.9, 1381.8 226.3 C 1486.5 339.7, 1516.0 319.9, 1516.0 468.0 Z" fill="#A9EAF6" opacity="0.28" filter="url(#blur_ambient_20_1125)"/>
  <path d="M 565.8 1743.0 C 565.8 2027.4, 604.5 1881.6, 510.2 2099.5 C 415.9 2317.3, 459.1 2396.3, 314.6 2445.7 C 170.1 2495.1, 205.1 2378.9, 78.1 2236.7 C -48.9 2094.5, -13.8 2204.2, -64.0 1937.0 C -114.1 1669.7, -127.8 1803.8, -77.6 1536.6 C -27.5 1269.4, -53.8 1416.9, 73.2 1274.7 C 200.3 1132.5, 164.7 1007.9, 309.2 1057.3 C 453.6 1106.7, 451.5 1047.6, 545.8 1265.4 C 640.1 1483.3, 565.8 1458.6, 565.8 1743.0 Z" fill="#FFC7DA" opacity="0.31" filter="url(#blur_ambient_20_1125)"/>
  <path d="M 1019.9 1274.0 C 1019.9 1451.3, 913.9 1385.1, 760.9 1520.9 C 607.8 1656.8, 730.4 1699.4, 495.9 1730.2 C 261.5 1761.0, 379.1 1730.6, 172.9 1641.9 C -33.2 1553.3, -10.4 1564.0, -91.8 1397.4 C -173.2 1230.8, -241.7 1309.3, -160.3 1142.7 C -78.9 976.1, -68.9 1067.8, 137.3 979.1 C 343.4 890.5, 264.2 838.5, 498.6 869.3 C 733.1 900.1, 726.1 845.2, 879.1 981.1 C 1032.1 1116.9, 1019.9 1096.7, 1019.9 1274.0 Z" fill="#A9EAF6" opacity="0.24" filter="url(#blur_ambient_20_1125)"/>
  <path d="M 865.5 1754.0 C 865.5 2016.3, 868.2 1892.0, 780.8 2093.0 C 693.5 2293.9, 745.2 2244.4, 611.4 2289.9 C 477.5 2335.5, 503.5 2476.1, 385.8 2344.9 C 268.1 2213.7, 319.2 2227.9, 272.7 1981.4 C 226.2 1734.9, 270.7 1784.4, 317.2 1537.9 C 363.7 1291.3, 304.7 1316.5, 422.4 1185.4 C 540.1 1054.2, 467.9 1051.8, 601.7 1097.4 C 735.5 1143.0, 734.1 1130.0, 821.4 1331.0 C 908.8 1532.0, 865.5 1491.7, 865.5 1754.0 Z" fill="#A9EAF6" opacity="0.25" filter="url(#blur_ambient_20_1125)"/>
  <path d="M 861.8 94.0 C 861.8 344.6, 830.5 314.7, 749.3 506.7 C 668.0 698.7, 710.6 688.4, 586.1 731.9 C 461.5 775.5, 504.6 667.1, 395.1 541.8 C 285.6 416.5, 356.1 548.1, 312.8 312.5 C 269.6 77.0, 193.5 121.4, 236.8 -114.1 C 280.0 -349.7, 288.3 -247.5, 397.8 -372.8 C 507.3 -498.2, 460.6 -481.5, 585.1 -438.0 C 709.6 -394.5, 676.2 -485.6, 757.5 -293.6 C 838.7 -101.6, 861.8 -156.7, 861.8 94.0 Z" fill="#DDEEFF" opacity="0.36" filter="url(#blur_ambient_20_1125)"/>
  <path d="M 1597.7 545.0 C 1597.7 821.8, 1644.1 673.7, 1564.0 885.7 C 1483.9 1097.7, 1540.4 1110.2, 1417.6 1158.3 C 1294.8 1206.3, 1334.4 1251.3, 1226.5 1112.9 C 1118.5 974.6, 1196.9 983.7, 1154.3 723.6 C 1111.7 463.6, 1100.4 624.7, 1143.1 364.7 C 1185.7 104.6, 1106.8 159.2, 1214.8 20.8 C 1322.7 -117.6, 1299.0 -177.0, 1421.8 -129.0 C 1544.6 -80.9, 1463.6 -91.5, 1543.7 120.6 C 1623.8 332.6, 1597.7 268.2, 1597.7 545.0 Z" fill="#FFC7DA" opacity="0.29" filter="url(#blur_ambient_20_1125)"/>
  <path d="M 794.2 1319.0 C 794.2 1481.0, 855.1 1437.7, 785.6 1561.8 C 716.2 1685.9, 715.7 1617.5, 609.4 1645.7 C 503.0 1673.8, 566.0 1749.1, 472.4 1668.1 C 378.9 1587.1, 381.1 1593.5, 344.2 1441.2 C 307.2 1289.0, 317.0 1352.8, 353.9 1200.5 C 390.8 1048.3, 351.3 1080.8, 444.8 999.8 C 538.4 918.8, 511.8 970.6, 618.1 998.7 C 724.5 1026.9, 654.9 968.7, 724.3 1092.8 C 793.7 1216.9, 794.2 1157.0, 794.2 1319.0 Z" fill="#FDFFFF" opacity="0.19" filter="url(#blur_ambient_20_1125)"/>
  <path d="M 1890.3 1598.0 C 1890.3 1814.9, 1778.7 1701.5, 1627.7 1867.7 C 1476.8 2033.8, 1603.7 2051.7, 1372.3 2089.4 C 1141.0 2127.0, 1224.4 2070.4, 1021.0 1962.0 C 817.5 1853.5, 894.3 1945.3, 814.0 1741.5 C 733.7 1537.6, 675.4 1616.9, 755.7 1413.1 C 836.1 1209.3, 802.6 1340.8, 1006.0 1232.3 C 1209.5 1123.9, 1142.9 1047.8, 1374.2 1085.5 C 1605.5 1123.1, 1544.7 1157.3, 1695.7 1323.4 C 1846.7 1489.6, 1890.3 1381.1, 1890.3 1598.0 Z" fill="#DFF8FF" opacity="0.33" filter="url(#blur_ambient_20_1125)"/>
  <path d="M 1500.2 1289.0 C 1500.2 1576.1, 1520.5 1440.2, 1381.1 1660.1 C 1241.6 1880.0, 1321.8 1950.9, 1108.2 2000.8 C 894.6 2050.6, 953.6 2047.1, 765.7 1903.6 C 577.9 1760.0, 615.6 1762.1, 541.4 1492.3 C 467.2 1222.5, 468.8 1303.2, 543.0 1033.4 C 617.2 763.6, 595.1 922.7, 783.0 779.2 C 970.8 635.6, 909.9 717.8, 1123.5 767.7 C 1337.1 817.5, 1220.6 688.5, 1360.0 908.4 C 1499.4 1128.3, 1500.2 1001.9, 1500.2 1289.0 Z" fill="#FDFFFF" opacity="0.32" filter="url(#blur_ambient_20_1125)"/>
  <path d="M 703.8 2571.0 C 703.8 2842.3, 706.3 2687.1, 592.7 2895.0 C 479.0 3102.8, 580.7 3094.8, 406.5 3142.0 C 232.4 3189.1, 291.5 3298.7, 138.4 3163.0 C -14.8 3027.3, -2.6 2997.9, -63.1 2742.9 C -123.6 2487.9, -153.5 2585.8, -93.0 2330.8 C -32.5 2075.8, -15.7 2138.9, 137.5 2003.3 C 290.6 1867.6, 240.7 1851.4, 414.8 1898.5 C 589.0 1945.6, 539.3 1927.4, 653.0 2135.3 C 766.6 2343.2, 703.8 2299.7, 703.8 2571.0 Z" fill="#B6F5D1" opacity="0.36" filter="url(#blur_ambient_20_1125)"/>
  <path d="M 1421.2 2856.0 C 1421.2 3160.2, 1452.0 3082.3, 1384.3 3315.3 C 1316.6 3548.3, 1364.2 3460.7, 1260.5 3513.5 C 1156.8 3566.4, 1180.7 3595.1, 1089.5 3443.0 C 998.3 3290.9, 1019.4 3393.0, 983.4 3107.2 C 947.4 2821.3, 982.2 2916.8, 1018.2 2630.9 C 1054.2 2345.1, 1007.3 2393.3, 1098.5 2241.2 C 1189.7 2089.1, 1165.1 2023.1, 1268.8 2076.0 C 1372.5 2128.8, 1348.0 2184.9, 1415.7 2418.0 C 1483.3 2651.0, 1421.2 2551.8, 1421.2 2856.0 Z" fill="#DDEEFF" opacity="0.31" filter="url(#blur_ambient_20_1125)"/>
  <path d="M 1097.6 2765.0 C 1097.6 3065.6, 1216.5 2999.5, 1056.5 3229.8 C 896.6 3460.0, 992.2 3452.5, 747.2 3504.7 C 502.1 3556.9, 557.8 3421.6, 342.3 3271.3 C 126.8 3121.0, 265.7 3240.3, 180.6 2957.8 C 95.5 2675.3, 32.6 2800.5, 117.7 2518.1 C 202.8 2235.6, 119.5 2244.9, 335.0 2094.6 C 550.6 1944.3, 486.5 1952.6, 731.6 2004.8 C 976.6 2057.0, 916.1 2114.9, 1076.0 2345.2 C 1236.0 2575.5, 1097.6 2464.4, 1097.6 2765.0 Z" fill="#FFECEF" opacity="0.24" filter="url(#blur_ambient_20_1125)"/>
  <path d="M 410.2 660.0 C 410.2 854.9, 422.4 829.6, 310.8 978.9 C 199.1 1128.2, 275.8 1118.5, 104.7 1152.3 C -66.3 1186.1, 16.3 1139.7, -134.1 1042.3 C -284.6 944.8, -214.0 989.0, -273.5 805.9 C -332.9 622.8, -382.8 714.1, -323.4 531.0 C -264.0 347.9, -306.5 345.1, -156.1 247.7 C -5.7 150.2, -77.1 240.7, 94.0 274.5 C 265.1 308.4, 226.4 209.9, 338.1 359.2 C 449.7 508.4, 410.2 465.1, 410.2 660.0 Z" fill="#DDEEFF" opacity="0.29" filter="url(#blur_ambient_20_1125)"/>
  <path d="M 1712.2 2659.0 C 1712.2 2947.0, 1800.2 2834.2, 1718.2 3067.2 C 1636.2 3300.2, 1668.1 3142.5, 1535.4 3231.5 C 1402.7 3320.5, 1471.0 3390.6, 1338.3 3301.6 C 1205.7 3212.6, 1283.2 3243.0, 1201.2 3010.0 C 1119.2 2777.0, 1110.5 2947.0, 1110.5 2659.0 C 1110.5 2371.0, 1100.5 2493.3, 1182.5 2260.3 C 1264.5 2027.3, 1210.2 2131.8, 1342.8 2042.8 C 1475.5 1953.8, 1396.0 1895.0, 1528.7 1984.0 C 1661.4 2073.0, 1582.9 2087.5, 1664.9 2320.5 C 1746.9 2553.5, 1712.2 2371.0, 1712.2 2659.0 Z" fill="#B6F5D1" opacity="0.12" stroke="#B6F5D1" stroke-opacity="0.46" stroke-width="3" filter="url(#soft_ambient_20_1125)"/>
  <path d="M 1712.2 2659.0 C 1712.2 2947.0, 1800.2 2834.2, 1718.2 3067.2 C 1636.2 3300.2, 1668.1 3142.5, 1535.4 3231.5 C 1402.7 3320.5, 1471.0 3390.6, 1338.3 3301.6 C 1205.7 3212.6, 1283.2 3243.0, 1201.2 3010.0 C 1119.2 2777.0, 1110.5 2947.0, 1110.5 2659.0 C 1110.5 2371.0, 1100.5 2493.3, 1182.5 2260.3 C 1264.5 2027.3, 1210.2 2131.8, 1342.8 2042.8 C 1475.5 1953.8, 1396.0 1895.0, 1528.7 1984.0 C 1661.4 2073.0, 1582.9 2087.5, 1664.9 2320.5 C 1746.9 2553.5, 1712.2 2371.0, 1712.2 2659.0 Z" fill="none" stroke="#FFFFFF" stroke-opacity="0.22" stroke-width="1.2"/>
  <path d="M 528.7 2517.0 C 528.7 2746.1, 551.2 2640.1, 449.9 2825.4 C 348.6 3010.7, 426.9 2952.1, 263.0 3022.9 C 99.0 3093.6, 205.9 3036.7, 42.0 2965.9 C -121.9 2895.2, -93.1 3000.8, -194.4 2815.5 C -295.7 2630.2, -275.8 2746.1, -275.8 2517.0 C -275.8 2287.9, -254.1 2410.1, -152.8 2224.8 C -51.5 2039.5, -120.2 2113.4, 43.7 2042.6 C 207.6 1971.8, 91.0 2019.2, 254.9 2090.0 C 418.8 2160.8, 357.5 2047.6, 458.8 2232.9 C 560.1 2418.2, 528.7 2287.9, 528.7 2517.0 Z" fill="#DDEEFF" opacity="0.12" stroke="#DDEEFF" stroke-opacity="0.46" stroke-width="3" filter="url(#soft_ambient_20_1125)"/>
  <path d="M 528.7 2517.0 C 528.7 2746.1, 551.2 2640.1, 449.9 2825.4 C 348.6 3010.7, 426.9 2952.1, 263.0 3022.9 C 99.0 3093.6, 205.9 3036.7, 42.0 2965.9 C -121.9 2895.2, -93.1 3000.8, -194.4 2815.5 C -295.7 2630.2, -275.8 2746.1, -275.8 2517.0 C -275.8 2287.9, -254.1 2410.1, -152.8 2224.8 C -51.5 2039.5, -120.2 2113.4, 43.7 2042.6 C 207.6 1971.8, 91.0 2019.2, 254.9 2090.0 C 418.8 2160.8, 357.5 2047.6, 458.8 2232.9 C 560.1 2418.2, 528.7 2287.9, 528.7 2517.0 Z" fill="none" stroke="#FFFFFF" stroke-opacity="0.22" stroke-width="1.2"/>
  <path d="M 633.6 2913.0 C 633.6 3136.7, 604.5 3004.1, 470.9 3185.0 C 337.4 3366.0, 510.9 3380.4, 294.8 3449.5 C 78.7 3518.6, 189.1 3451.9, -27.0 3382.8 C -243.2 3313.7, -152.5 3405.6, -286.1 3224.7 C -419.7 3043.7, -366.7 3136.7, -366.7 2913.0 C -366.7 2689.3, -445.1 2807.1, -311.5 2626.2 C -177.9 2445.2, -258.8 2568.9, -42.7 2499.8 C 173.5 2430.7, 68.4 2410.2, 284.5 2479.3 C 500.6 2548.4, 351.0 2418.1, 484.5 2599.0 C 618.1 2780.0, 633.6 2689.3, 633.6 2913.0 Z" fill="#FFC7DA" opacity="0.12" stroke="#FFFFFF" stroke-opacity="0.46" stroke-width="3" filter="url(#soft_ambient_20_1125)"/>
  <path d="M 633.6 2913.0 C 633.6 3136.7, 604.5 3004.1, 470.9 3185.0 C 337.4 3366.0, 510.9 3380.4, 294.8 3449.5 C 78.7 3518.6, 189.1 3451.9, -27.0 3382.8 C -243.2 3313.7, -152.5 3405.6, -286.1 3224.7 C -419.7 3043.7, -366.7 3136.7, -366.7 2913.0 C -366.7 2689.3, -445.1 2807.1, -311.5 2626.2 C -177.9 2445.2, -258.8 2568.9, -42.7 2499.8 C 173.5 2430.7, 68.4 2410.2, 284.5 2479.3 C 500.6 2548.4, 351.0 2418.1, 484.5 2599.0 C 618.1 2780.0, 633.6 2689.3, 633.6 2913.0 Z" fill="none" stroke="#FFFFFF" stroke-opacity="0.22" stroke-width="1.2"/>
  <path d="M 308.4 1792.0 C 308.4 2013.4, 252.7 1914.4, 136.8 2093.5 C 20.9 2272.6, 155.9 2160.1, -31.6 2228.5 C -219.1 2296.9, -121.1 2291.8, -308.6 2223.3 C -496.0 2154.9, -416.1 2294.8, -531.9 2115.7 C -647.8 1936.5, -567.7 2013.4, -567.7 1792.0 C -567.7 1570.6, -688.5 1717.0, -572.7 1537.9 C -456.8 1358.8, -519.7 1451.1, -332.2 1382.7 C -144.8 1314.3, -240.8 1266.5, -53.4 1334.9 C 134.1 1403.3, 73.4 1329.2, 189.3 1508.3 C 305.1 1687.5, 308.4 1570.6, 308.4 1792.0 Z" fill="#B6F5D1" opacity="0.12" stroke="#FFFFFF" stroke-opacity="0.46" stroke-width="3" filter="url(#soft_ambient_20_1125)"/>
  <path d="M 308.4 1792.0 C 308.4 2013.4, 252.7 1914.4, 136.8 2093.5 C 20.9 2272.6, 155.9 2160.1, -31.6 2228.5 C -219.1 2296.9, -121.1 2291.8, -308.6 2223.3 C -496.0 2154.9, -416.1 2294.8, -531.9 2115.7 C -647.8 1936.5, -567.7 2013.4, -567.7 1792.0 C -567.7 1570.6, -688.5 1717.0, -572.7 1537.9 C -456.8 1358.8, -519.7 1451.1, -332.2 1382.7 C -144.8 1314.3, -240.8 1266.5, -53.4 1334.9 C 134.1 1403.3, 73.4 1329.2, 189.3 1508.3 C 305.1 1687.5, 308.4 1570.6, 308.4 1792.0 Z" fill="none" stroke="#FFFFFF" stroke-opacity="0.22" stroke-width="1.2"/>
  <path d="M 868.8 2555.0 C 868.8 2799.3, 894.2 2669.8, 772.8 2867.5 C 651.4 3065.2, 736.9 2955.9, 540.5 3031.4 C 344.0 3107.0, 460.6 3179.9, 264.1 3104.4 C 67.7 3028.9, 87.9 3107.4, -33.5 2909.7 C -154.9 2712.0, -33.4 2799.3, -33.4 2555.0 C -33.4 2310.7, -125.2 2476.7, -3.8 2279.1 C 117.6 2081.4, 57.9 2054.8, 254.3 1979.2 C 450.8 1903.7, 330.3 2007.8, 526.8 2083.4 C 723.2 2158.9, 614.5 2000.9, 736.0 2198.6 C 857.4 2396.3, 868.8 2310.7, 868.8 2555.0 Z" fill="#FFC7DA" opacity="0.12" stroke="#FFC7DA" stroke-opacity="0.46" stroke-width="3" filter="url(#soft_ambient_20_1125)"/>
  <path d="M 868.8 2555.0 C 868.8 2799.3, 894.2 2669.8, 772.8 2867.5 C 651.4 3065.2, 736.9 2955.9, 540.5 3031.4 C 344.0 3107.0, 460.6 3179.9, 264.1 3104.4 C 67.7 3028.9, 87.9 3107.4, -33.5 2909.7 C -154.9 2712.0, -33.4 2799.3, -33.4 2555.0 C -33.4 2310.7, -125.2 2476.7, -3.8 2279.1 C 117.6 2081.4, 57.9 2054.8, 254.3 1979.2 C 450.8 1903.7, 330.3 2007.8, 526.8 2083.4 C 723.2 2158.9, 614.5 2000.9, 736.0 2198.6 C 857.4 2396.3, 868.8 2310.7, 868.8 2555.0 Z" fill="none" stroke="#FFFFFF" stroke-opacity="0.22" stroke-width="1.2"/>
  <path d="M -100.0 1120.1 Q 133.3 1046.7, 366.7 868.2 Q 600.0 989.9, 833.3 1185.0 Q 1066.7 1383.4, 1300.0 1516.2" fill="none" stroke="#FFFFFF" stroke-opacity="0.38" stroke-width="4" filter="url(#soft_ambient_20_1125)"/>
  <path d="M -100.0 1120.1 Q 133.3 1046.7, 366.7 868.2 Q 600.0 989.9, 833.3 1185.0 Q 1066.7 1383.4, 1300.0 1516.2" fill="none" stroke="#D6C2FF" stroke-opacity="0.18" stroke-width="2"/>
  <path d="M -100.0 1531.2 Q 133.3 1564.6, 366.7 1363.6 Q 600.0 1284.1, 833.3 1236.7 Q 1066.7 1329.7, 1300.0 1530.3" fill="none" stroke="#FFFFFF" stroke-opacity="0.38" stroke-width="4" filter="url(#soft_ambient_20_1125)"/>
  <path d="M -100.0 1531.2 Q 133.3 1564.6, 366.7 1363.6 Q 600.0 1284.1, 833.3 1236.7 Q 1066.7 1329.7, 1300.0 1530.3" fill="none" stroke="#FFC7DA" stroke-opacity="0.18" stroke-width="2"/>
  <path d="M -100.0 2125.6 Q 133.3 2379.2, 366.7 2741.0 Q 600.0 2718.7, 833.3 2380.2 Q 1066.7 2146.3, 1300.0 2233.5" fill="none" stroke="#FFFFFF" stroke-opacity="0.38" stroke-width="4" filter="url(#soft_ambient_20_1125)"/>
  <path d="M -100.0 2125.6 Q 133.3 2379.2, 366.7 2741.0 Q 600.0 2718.7, 833.3 2380.2 Q 1066.7 2146.3, 1300.0 2233.5" fill="none" stroke="#FFC7DA" stroke-opacity="0.18" stroke-width="2"/>
  <path d="M -100.0 2195.6 Q 133.3 2118.8, 366.7 2061.4 Q 600.0 2047.4, 833.3 2258.2 Q 1066.7 2406.0, 1300.0 2454.6" fill="none" stroke="#FFFFFF" stroke-opacity="0.38" stroke-width="4" filter="url(#soft_ambient_20_1125)"/>
  <path d="M -100.0 2195.6 Q 133.3 2118.8, 366.7 2061.4 Q 600.0 2047.4, 833.3 2258.2 Q 1066.7 2406.0, 1300.0 2454.6" fill="none" stroke="#FFC7DA" stroke-opacity="0.18" stroke-width="2"/>
  <path d="M -100.0 1850.0 Q 133.3 1731.7, 366.7 1603.9 Q 600.0 1351.0, 833.3 1441.4 Q 1066.7 1541.3, 1300.0 1739.6" fill="none" stroke="#FFFFFF" stroke-opacity="0.38" stroke-width="4" filter="url(#soft_ambient_20_1125)"/>
  <path d="M -100.0 1850.0 Q 133.3 1731.7, 366.7 1603.9 Q 600.0 1351.0, 833.3 1441.4 Q 1066.7 1541.3, 1300.0 1739.6" fill="none" stroke="#B6F5D1" stroke-opacity="0.18" stroke-width="2"/>
  <path d="M -100.0 1876.3 Q 133.3 1688.9, 366.7 1795.0 Q 600.0 1913.6, 833.3 1970.6 Q 1066.7 1907.8, 1300.0 1711.1" fill="none" stroke="#FFFFFF" stroke-opacity="0.38" stroke-width="4" filter="url(#soft_ambient_20_1125)"/>
  <path d="M -100.0 1876.3 Q 133.3 1688.9, 366.7 1795.0 Q 600.0 1913.6, 833.3 1970.6 Q 1066.7 1907.8, 1300.0 1711.1" fill="none" stroke="#B6F5D1" stroke-opacity="0.18" stroke-width="2"/>
  <circle cx="-48" cy="1970" r="191" fill="url(#orb_ambient_20_1125)" opacity="0.36"/>
  <circle cx="-48" cy="1970" r="191" fill="#DDEEFF" opacity="0.08"/>
  <circle cx="-48" cy="1970" r="191" fill="none" stroke="#FFFFFF" stroke-opacity="0.56" stroke-width="3"/>
  <ellipse cx="-101.5" cy="1901.2" rx="34.4" ry="15.3" fill="#FFFFFF" opacity="0.42" transform="rotate(-22 -101.5 1901.2)"/>
  <circle cx="1092" cy="2063" r="109" fill="url(#orb_ambient_20_1125)" opacity="0.36"/>
  <circle cx="1092" cy="2063" r="109" fill="#A9EAF6" opacity="0.08"/>
  <circle cx="1092" cy="2063" r="109" fill="none" stroke="#FFFFFF" stroke-opacity="0.56" stroke-width="3"/>
  <ellipse cx="1061.5" cy="2023.8" rx="19.6" ry="8.7" fill="#FFFFFF" opacity="0.42" transform="rotate(-22 1061.5 2023.8)"/>
  <circle cx="692" cy="1571" r="198" fill="url(#orb_ambient_20_1125)" opacity="0.36"/>
  <circle cx="692" cy="1571" r="198" fill="#FDFFFF" opacity="0.08"/>
  <circle cx="692" cy="1571" r="198" fill="none" stroke="#FFFFFF" stroke-opacity="0.56" stroke-width="3"/>
  <ellipse cx="636.6" cy="1499.7" rx="35.6" ry="15.8" fill="#FFFFFF" opacity="0.42" transform="rotate(-22 636.6 1499.7)"/>
  <circle cx="718" cy="889" r="135" fill="url(#orb_ambient_20_1125)" opacity="0.26"/>
  <circle cx="718" cy="889" r="135" fill="#EEE5FF" opacity="0.08"/>
  <circle cx="718" cy="889" r="135" fill="none" stroke="#FFFFFF" stroke-opacity="0.56" stroke-width="3"/>
  <ellipse cx="680.2" cy="840.4" rx="24.3" ry="10.8" fill="#FFFFFF" opacity="0.42" transform="rotate(-22 680.2 840.4)"/>
  <circle cx="374" cy="1646" r="146" fill="url(#orb_ambient_20_1125)" opacity="0.20"/>
  <circle cx="374" cy="1646" r="146" fill="#FDFFFF" opacity="0.08"/>
  <circle cx="374" cy="1646" r="146" fill="none" stroke="#FFFFFF" stroke-opacity="0.56" stroke-width="3"/>
  <ellipse cx="333.1" cy="1593.4" rx="26.3" ry="11.7" fill="#FFFFFF" opacity="0.42" transform="rotate(-22 333.1 1593.4)"/>
  <circle cx="932" cy="278" r="142" fill="url(#orb_ambient_20_1125)" opacity="0.18"/>
  <circle cx="932" cy="278" r="142" fill="#FFC7DA" opacity="0.08"/>
  <circle cx="932" cy="278" r="142" fill="none" stroke="#FFFFFF" stroke-opacity="0.56" stroke-width="3"/>
  <ellipse cx="892.2" cy="226.9" rx="25.6" ry="11.4" fill="#FFFFFF" opacity="0.42" transform="rotate(-22 892.2 226.9)"/>
  <circle cx="1189" cy="574" r="290" fill="url(#orb_ambient_20_1125)" opacity="0.24"/>
  <circle cx="1189" cy="574" r="290" fill="#DFFCED" opacity="0.08"/>
  <circle cx="1189" cy="574" r="290" fill="none" stroke="#FFFFFF" stroke-opacity="0.56" stroke-width="3"/>
  <ellipse cx="1107.8" cy="469.6" rx="52.2" ry="23.2" fill="#FFFFFF" opacity="0.42" transform="rotate(-22 1107.8 469.6)"/>
  <circle cx="516" cy="117" r="241" fill="url(#orb_ambient_20_1125)" opacity="0.24"/>
  <circle cx="516" cy="117" r="241" fill="#FFC7DA" opacity="0.08"/>
  <circle cx="516" cy="117" r="241" fill="none" stroke="#FFFFFF" stroke-opacity="0.56" stroke-width="3"/>
  <ellipse cx="448.5" cy="30.2" rx="43.4" ry="19.3" fill="#FFFFFF" opacity="0.42" transform="rotate(-22 448.5 30.2)"/>
  <circle cx="800" cy="1126" r="173" fill="url(#orb_ambient_20_1125)" opacity="0.26"/>
  <circle cx="800" cy="1126" r="173" fill="#FFECEF" opacity="0.08"/>
  <circle cx="800" cy="1126" r="173" fill="none" stroke="#FFFFFF" stroke-opacity="0.56" stroke-width="3"/>
  <ellipse cx="751.6" cy="1063.7" rx="31.1" ry="13.8" fill="#FFFFFF" opacity="0.42" transform="rotate(-22 751.6 1063.7)"/>
  <circle cx="989" cy="2183" r="139" fill="url(#orb_ambient_20_1125)" opacity="0.27"/>
  <circle cx="989" cy="2183" r="139" fill="#D6C2FF" opacity="0.08"/>
  <circle cx="989" cy="2183" r="139" fill="none" stroke="#FFFFFF" stroke-opacity="0.56" stroke-width="3"/>
  <ellipse cx="950.1" cy="2133.0" rx="25.0" ry="11.1" fill="#FFFFFF" opacity="0.42" transform="rotate(-22 950.1 2133.0)"/>
  <circle cx="419" cy="1764" r="7" fill="#FFFFFF" opacity="0.61"/>
  <circle cx="478" cy="728" r="5" fill="#FFFFFF" opacity="0.62"/>
  <circle cx="801" cy="778" r="4" fill="#FFFFFF" opacity="0.45"/>
  <circle cx="698" cy="960" r="2" fill="#FFFFFF" opacity="0.34"/>
  <circle cx="451" cy="222" r="5" fill="#FFFFFF" opacity="0.59"/>
  <circle cx="840" cy="2505" r="3" fill="#FFFFFF" opacity="0.58"/>
  <circle cx="1037" cy="432" r="5" fill="#FFFFFF" opacity="0.51"/>
  <circle cx="502" cy="1201" r="7" fill="#FFFFFF" opacity="0.41"/>
  <circle cx="342" cy="954" r="5" fill="#FFFFFF" opacity="0.61"/>
  <circle cx="935" cy="787" r="7" fill="#FFFFFF" opacity="0.53"/>
  <circle cx="1174" cy="1229" r="7" fill="#FFFFFF" opacity="0.55"/>
  <circle cx="256" cy="1161" r="7" fill="#FFFFFF" opacity="0.67"/>
  <circle cx="50" cy="1019" r="5" fill="#FFFFFF" opacity="0.35"/>
  <circle cx="1071" cy="2583" r="2" fill="#FFFFFF" opacity="0.29"/>
  <rect width="1200" height="2600" fill="#FFFFFF" opacity="0.08"/>
  <rect width="1200" height="2600" filter="url(#grain_ambient_20_1125)" opacity="0.7"/>
</svg>
