<svg xmlns="http://www.w3.org/2000/svg" width="1200" height="2600" viewBox="0 0 1200 2600" preserveAspectRatio="xMidYMid slice">
  <defs>
    <linearGradient id="bg_ambient_05_4230" x1="0" y1="0" x2="1" y2="1">
      <stop offset="0%" stop-color="#DDEEFF"/>
      <stop offset="48%" stop-color="#DFF8FF"/>
      <stop offset="100%" stop-color="#FFECEF"/>
    </linearGradient>
    <radialGradient id="orb_ambient_05_4230" cx="35%" cy="30%" r="70%">
      <stop offset="0%" stop-color="#FFFFFF" stop-opacity="0.85"/>
      <stop offset="42%" stop-color="#FFFFFF" stop-opacity="0.20"/>
      <stop offset="100%" stop-color="#FFFFFF" stop-opacity="0.02"/>
    </radialGradient>
    <filter id="blur_ambient_05_4230" x="-30%" y="-30%" width="160%" height="160%">
      <feGaussianBlur stdDeviation="72"/>
    </filter>
    <filter id="soft_ambient_05_4230" x="-20%" y="-20%" width="140%" height="140%">
      <feGaussianBlur stdDeviation="10"/>
    </filter>
    <filter id="grain_ambient_05_4230">
      <feTurbulence type="fractalNoise" baseFrequency="0.85" numOctaves="2" stitchTiles="stitch"/>
      <feColorMatrix type="saturate" values="0"/>
      <feComponentTransfer>
        <feFuncA type="table" tableValues="0 0.035"/>
      </feComponentTransfer>
    </filter>
  </defs>
  <rect width="1200" height="2600" fill="url(#bg_ambient_05_4230)"/>
  <path d="M 723.6 1886.0 C 723.6 2066.0, 849.1 2034.9, 742.3 2172.8 C 635.6 2310.7, 651.1 2225.6, 487.6 2256.8 C 324.0 2288.1, 350.4 2272.0, 206.6 2182.0 C 62.8 2092.0, 137.3 2174.1, 80.5 2005.0 C 23.7 1835.9, 33.9 1916.3, 90.7 1747.2 C 147.5 1578.0, 85.8 1584.9, 229.6 1494.9 C 373.4 1404.9, 318.1 1451.9, 481.6 1483.1 C 645.1 1514.4, 631.0 1452.3, 737.7 1590.2 C 844.4 1728.1, 723.6 1706.0, 723.6 1886.0 Z" fill="#DFF8FF" opacity="0.33" filter="url(#blur_ambient_05_4230)"/>
  <path d="M 419.6 361.0 C 419.6 525.2, 494.7 452.0, 396.7 577.8 C 298.6 703.6, 319.3 633.5, 169.1 662.1 C 18.9 690.6, 96.2 716.5, -35.9 634.4 C -168.0 552.3, -125.1 633.1, -177.3 478.7 C -229.5 324.4, -286.1 377.1, -233.9 222.7 C -181.8 68.4, -162.0 153.9, -29.9 71.8 C 102.2 -10.3, 15.5 -9.7, 165.7 18.9 C 316.0 47.4, 244.2 22.7, 342.3 148.5 C 440.4 274.3, 419.6 196.8, 419.6 361.0 Z" fill="#B6F5D1" opacity="0.23" filter="url(#blur_ambient_05_4230)"/>
  <path d="M 1456.2 -194.0 C 1456.2 97.2, 1509.9 -34.3, 1391.9 188.8 C 1273.9 411.8, 1294.0 325.9, 1113.2 376.5 C 932.3 427.1, 1008.4 497.7, 849.4 352.1 C 690.4 206.6, 796.3 305.1, 733.5 31.5 C 670.7 -242.1, 664.6 -125.6, 727.4 -399.2 C 790.2 -672.8, 659.5 -586.2, 818.5 -731.8 C 977.5 -877.4, 953.5 -993.8, 1134.3 -943.2 C 1315.1 -892.7, 1204.2 -859.8, 1322.2 -636.8 C 1440.3 -413.8, 1456.2 -485.2, 1456.2 -194.0 Z" fill="#DFF8FF" opacity="0.27" filter="url(#blur_ambient_05_4230)"/>
  <path d="M 778.5 758.0 C 778.5 913.2, 844.1 879.8, 702.1 998.7 C 560.1 1117.7, 615.1 1022.7, 397.5 1049.6 C 179.9 1076.6, 294.2 1148.5, 102.8 1070.9 C -88.5 993.3, -35.8 1015.6, -111.4 869.7 C -186.9 723.8, -227.6 803.5, -152.1 657.6 C -76.5 511.7, -94.9 575.0, 96.5 497.4 C 287.8 419.8, 166.9 405.6, 384.5 432.6 C 602.0 459.5, 503.8 392.7, 645.8 511.6 C 787.8 630.5, 778.5 602.8, 778.5 758.0 Z" fill="#B6F5D1" opacity="0.35" filter="url(#blur_ambient_05_4230)"/>
  <path d="M 1625.1 1688.0 C 1625.1 1856.8, 1570.3 1798.8, 1412.1 1928.1 C 1253.8 2057.3, 1361.1 1975.1, 1118.7 2004.4 C 876.2 2033.7, 1000.6 2142.3, 787.5 2057.9 C 574.3 1973.5, 539.1 1975.2, 455.0 1816.6 C 370.8 1658.0, 507.8 1718.7, 592.0 1560.2 C 676.2 1401.6, 524.2 1488.8, 737.4 1404.4 C 950.6 1320.1, 868.8 1248.0, 1111.2 1277.3 C 1353.6 1306.6, 1286.6 1316.6, 1444.8 1445.9 C 1603.0 1575.1, 1625.1 1519.2, 1625.1 1688.0 Z" fill="#D6C2FF" opacity="0.28" filter="url(#blur_ambient_05_4230)"/>
  <path d="M 750.9 2223.0 C 750.9 2534.4, 728.4 2412.9, 580.6 2651.5 C 432.8 2890.0, 464.6 2800.8, 238.2 2854.9 C 11.7 2908.9, 96.3 3011.9, -102.8 2856.2 C -302.0 2700.5, -215.9 2750.3, -294.6 2457.7 C -373.2 2165.1, -339.9 2286.5, -261.2 1993.9 C -182.6 1701.3, -292.6 1821.4, -93.4 1665.7 C 105.7 1510.0, 9.6 1515.3, 236.0 1569.4 C 462.5 1623.5, 452.2 1611.8, 600.0 1850.4 C 747.8 2088.9, 750.9 1911.6, 750.9 2223.0 Z" fill="#FFC7DA" opacity="0.31" filter="url(#blur_ambient_05_4230)"/>
  <path d="M 255.7 2738.0 C 255.7 3036.8, 342.2 2972.5, 239.8 3201.4 C 137.4 3430.3, 173.0 3242.0, 16.1 3293.9 C -140.7 3345.8, -72.4 3414.4, -210.4 3265.0 C -348.3 3115.6, -271.1 3260.5, -325.6 2979.7 C -380.1 2698.9, -376.3 2753.1, -321.8 2472.3 C -267.3 2191.5, -328.9 2351.7, -191.0 2202.3 C -53.0 2052.9, -122.2 2016.4, 34.7 2068.3 C 191.6 2120.1, 131.4 2050.3, 233.8 2279.2 C 336.2 2508.1, 255.7 2439.2, 255.7 2738.0 Z" fill="#DFF8FF" opacity="0.35" filter="url(#blur_ambient_05_4230)"/>
  <path d="M 472.3 -45.0 C 472.3 211.1, 487.4 100.2, 355.0 296.3 C 222.5 492.5, 301.9 528.3, 99.0 572.8 C -104.0 617.3, -48.2 638.6, -226.7 510.5 C -405.2 382.5, -408.2 386.5, -478.7 145.9 C -549.2 -94.7, -460.9 14.4, -390.4 -226.2 C -319.9 -466.8, -408.3 -442.9, -229.8 -570.9 C -51.3 -698.9, -103.8 -656.5, 99.1 -612.0 C 302.1 -567.6, 219.0 -616.2, 351.5 -420.1 C 484.0 -223.9, 472.3 -301.1, 472.3 -45.0 Z" fill="#FFC7DA" opacity="0.33" filter="url(#blur_ambient_05_4230)"/>
  <path d="M 1315.0 1743.0 C 1315.0 1868.5, 1395.8 1818.4, 1241.3 1914.6 C 1086.9 2010.7, 1186.7 1961.3, 950.0 1983.1 C 713.4 2004.9, 780.4 2066.6, 572.3 2003.8 C 364.2 1941.0, 511.0 1939.8, 428.8 1821.9 C 346.6 1703.9, 226.6 1772.8, 308.8 1654.8 C 391.0 1536.8, 404.3 1554.3, 612.4 1491.5 C 820.5 1428.7, 735.5 1427.3, 972.1 1449.1 C 1208.8 1470.9, 1192.1 1462.7, 1346.5 1558.9 C 1501.0 1655.1, 1315.0 1617.5, 1315.0 1743.0 Z" fill="#DFF8FF" opacity="0.38" filter="url(#blur_ambient_05_4230)"/>
  <path d="M 173.7 27.0 C 173.7 276.8, 265.5 205.3, 187.4 396.6 C 109.3 587.9, 122.7 484.2, 3.1 527.6 C -116.6 570.9, -58.5 677.9, -163.7 553.0 C -269.0 428.1, -257.7 483.8, -299.3 249.1 C -340.8 14.5, -317.3 77.5, -275.8 -157.2 C -234.2 -391.9, -301.9 -393.7, -196.6 -518.6 C -91.4 -643.5, -123.0 -578.4, -3.4 -535.1 C 116.3 -491.7, 54.7 -526.1, 132.8 -334.8 C 210.9 -143.5, 173.7 -222.8, 173.7 27.0 Z" fill="#A9EAF6" opacity="0.27" filter="url(#blur_ambient_05_4230)"/>
  <path d="M 500.2 2575.0 C 500.2 2791.4, 536.3 2732.1, 434.5 2897.9 C 332.7 3063.7, 351.2 2968.1, 195.2 3005.7 C 39.2 3043.2, 73.4 3109.8, -63.8 3001.6 C -201.0 2893.4, -131.9 2941.9, -186.0 2738.5 C -240.2 2535.1, -251.2 2584.9, -197.1 2381.5 C -142.9 2178.1, -199.6 2279.5, -62.5 2171.3 C 74.7 2063.1, 40.5 1993.1, 196.5 2030.6 C 352.5 2068.2, 311.7 2127.7, 413.5 2293.5 C 515.3 2459.3, 500.2 2358.6, 500.2 2575.0 Z" fill="#FFECEF" opacity="0.28" filter="url(#blur_ambient_05_4230)"/>
  <path d="M 1434.4 1523.0 C 1434.4 1808.3, 1398.1 1646.3, 1320.3 1864.9 C 1242.5 2083.4, 1286.7 2182.3, 1167.5 2231.8 C 1048.2 2281.4, 1076.8 2214.7, 972.0 2072.1 C 867.2 1929.4, 909.2 1986.9, 867.8 1718.8 C 826.4 1450.8, 838.5 1599.8, 879.9 1331.7 C 921.3 1063.6, 887.3 1083.6, 992.2 940.9 C 1097.0 798.3, 1045.1 855.9, 1164.3 905.4 C 1283.5 954.9, 1216.3 909.7, 1294.1 1128.3 C 1371.9 1346.8, 1434.4 1237.7, 1434.4 1523.0 Z" fill="#FDFFFF" opacity="0.16" filter="url(#blur_ambient_05_4230)"/>
  <path d="M 723.6 -193.0 C 723.6 -27.8, 788.1 -88.2, 670.4 38.3 C 552.7 164.8, 581.3 125.7, 400.9 154.4 C 220.5 183.0, 290.1 174.5, 131.5 91.9 C -27.1 9.3, 66.0 95.2, 3.4 -60.0 C -59.3 -215.2, -104.6 -174.4, -41.9 -329.6 C 20.7 -484.8, -21.6 -432.3, 137.0 -514.9 C 295.6 -597.4, 235.9 -595.7, 416.3 -567.1 C 596.6 -538.4, 479.3 -574.9, 597.1 -448.4 C 714.8 -321.9, 723.6 -358.1, 723.6 -193.0 Z" fill="#DDEEFF" opacity="0.23" filter="url(#blur_ambient_05_4230)"/>
  <path d="M 1107.3 1675.0 C 1107.3 1879.3, 1080.8 1748.0, 967.9 1913.2 C 855.0 2078.5, 968.0 2005.4, 785.3 2068.6 C 602.5 2131.7, 697.2 2211.9, 514.4 2148.8 C 331.7 2085.7, 461.6 2136.5, 348.7 1971.2 C 235.7 1805.9, 215.7 1879.3, 215.7 1675.0 C 215.7 1470.7, 142.3 1574.0, 255.3 1408.7 C 368.2 1243.4, 337.6 1246.9, 520.3 1183.8 C 703.1 1120.7, 579.4 1127.3, 762.2 1190.5 C 944.9 1253.6, 852.7 1268.4, 965.6 1433.7 C 1078.6 1599.0, 1107.3 1470.7, 1107.3 1675.0 Z" fill="#FFECEF" opacity="0.12" stroke="#FFECEF" stroke-opacity="0.46" stroke-width="3" filter="url(#soft_ambient_05_4230)"/>
  <path d="M 1107.3 1675.0 C 1107.3 1879.3, 1080.8 1748.0, 967.9 1913.2 C 855.0 2078.5, 968.0 2005.4, 785.3 2068.6 C 602.5 2131.7, 697.2 2211.9, 514.4 2148.8 C 331.7 2085.7, 461.6 2136.5, 348.7 1971.2 C 235.7 1805.9, 215.7 1879.3, 215.7 1675.0 C 215.7 1470.7, 142.3 1574.0, 255.3 1408.7 C 368.2 1243.4, 337.6 1246.9, 520.3 1183.8 C 703.1 1120.7, 579.4 1127.3, 762.2 1190.5 C 944.9 1253.6, 852.7 1268.4, 965.6 1433.7 C 1078.6 1599.0, 1107.3 1470.7, 1107.3 1675.0 Z" fill="none" stroke="#FFFFFF" stroke-opacity="0.22" stroke-width="1.2"/>
  <path d="M 533.7 1070.0 C 533.7 1242.3, 609.4 1130.0, 488.8 1269.4 C 368.2 1408.9, 475.5 1357.2, 280.4 1410.5 C 85.2 1463.8, 190.4 1489.5, -4.8 1436.2 C -199.9 1382.9, -68.9 1424.5, -189.5 1285.1 C -310.1 1145.6, -311.0 1242.3, -311.0 1070.0 C -311.0 897.6, -398.9 978.7, -278.3 839.3 C -157.7 699.8, -180.8 755.8, 14.4 702.6 C 209.5 649.3, 76.5 617.9, 271.7 671.2 C 466.9 724.5, 361.9 708.6, 482.5 848.0 C 603.1 987.4, 533.7 897.6, 533.7 1070.0 Z" fill="#B6F5D1" opacity="0.12" stroke="#FFFFFF" stroke-opacity="0.46" stroke-width="3" filter="url(#soft_ambient_05_4230)"/>
  <path d="M 533.7 1070.0 C 533.7 1242.3, 609.4 1130.0, 488.8 1269.4 C 368.2 1408.9, 475.5 1357.2, 280.4 1410.5 C 85.2 1463.8, 190.4 1489.5, -4.8 1436.2 C -199.9 1382.9, -68.9 1424.5, -189.5 1285.1 C -310.1 1145.6, -311.0 1242.3, -311.0 1070.0 C -311.0 897.6, -398.9 978.7, -278.3 839.3 C -157.7 699.8, -180.8 755.8, 14.4 702.6 C 209.5 649.3, 76.5 617.9, 271.7 671.2 C 466.9 724.5, 361.9 708.6, 482.5 848.0 C 603.1 987.4, 533.7 897.6, 533.7 1070.0 Z" fill="none" stroke="#FFFFFF" stroke-opacity="0.22" stroke-width="1.2"/>
  <path d="M 1924.6 282.0 C 1924.6 508.8, 1907.7 422.4, 1739.2 605.9 C 1570.7 789.4, 1687.7 734.3, 1415.1 804.4 C 1142.5 874.5, 1291.7 846.0, 1019.1 775.9 C 746.5 705.8, 812.6 751.7, 644.1 568.3 C 475.6 384.8, 577.3 508.8, 577.3 282.0 C 577.3 55.2, 505.5 192.8, 674.0 9.3 C 842.5 -174.1, 762.9 -177.7, 1035.5 -247.8 C 1308.1 -317.9, 1122.9 -331.5, 1395.5 -261.4 C 1668.1 -191.3, 1483.9 -214.7, 1652.4 -31.3 C 1820.9 152.2, 1924.6 55.2, 1924.6 282.0 Z" fill="#DFFCED" opacity="0.12" stroke="#FFFFFF" stroke-opacity="0.46" stroke-width="3" filter="url(#soft_ambient_05_4230)"/>
  <path d="M 1924.6 282.0 C 1924.6 508.8, 1907.7 422.4, 1739.2 605.9 C 1570.7 789.4, 1687.7 734.3, 1415.1 804.4 C 1142.5 874.5, 1291.7 846.0, 1019.1 775.9 C 746.5 705.8, 812.6 751.7, 644.1 568.3 C 475.6 384.8, 577.3 508.8, 577.3 282.0 C 577.3 55.2, 505.5 192.8, 674.0 9.3 C 842.5 -174.1, 762.9 -177.7, 1035.5 -247.8 C 1308.1 -317.9, 1122.9 -331.5, 1395.5 -261.4 C 1668.1 -191.3, 1483.9 -214.7, 1652.4 -31.3 C 1820.9 152.2, 1924.6 55.2, 1924.6 282.0 Z" fill="none" stroke="#FFFFFF" stroke-opacity="0.22" stroke-width="1.2"/>
  <path d="M 759.6 125.0 C 759.6 352.7, 801.4 204.1, 726.0 388.3 C 650.6 572.5, 718.0 479.3, 596.0 549.7 C 474.0 620.0, 544.5 695.1, 422.5 624.8 C 300.5 554.4, 359.3 609.6, 283.9 425.4 C 208.5 241.2, 234.0 352.7, 234.0 125.0 C 234.0 -102.7, 181.0 37.0, 256.4 -147.2 C 331.7 -331.4, 291.7 -264.0, 413.6 -334.3 C 535.6 -404.7, 472.5 -480.9, 594.5 -410.6 C 716.5 -340.2, 682.3 -388.1, 757.7 -203.9 C 833.1 -19.7, 759.6 -102.7, 759.6 125.0 Z" fill="#FFECEF" opacity="0.12" stroke="#FFECEF" stroke-opacity="0.46" stroke-width="3" filter="url(#soft_ambient_05_4230)"/>
  <path d="M 759.6 125.0 C 759.6 352.7, 801.4 204.1, 726.0 388.3 C 650.6 572.5, 718.0 479.3, 596.0 549.7 C 474.0 620.0, 544.5 695.1, 422.5 624.8 C 300.5 554.4, 359.3 609.6, 283.9 425.4 C 208.5 241.2, 234.0 352.7, 234.0 125.0 C 234.0 -102.7, 181.0 37.0, 256.4 -147.2 C 331.7 -331.4, 291.7 -264.0, 413.6 -334.3 C 535.6 -404.7, 472.5 -480.9, 594.5 -410.6 C 716.5 -340.2, 682.3 -388.1, 757.7 -203.9 C 833.1 -19.7, 759.6 -102.7, 759.6 125.0 Z" fill="none" stroke="#FFFFFF" stroke-opacity="0.22" stroke-width="1.2"/>
  <path d="M -100.0 -17.8 Q 133.3 -9.3, 366.7 125.9 Q 600.0 307.5, 833.3 388.6 Q 1066.7 493.6, 1300.0 325.0" fill="none" stroke="#FFFFFF" stroke-opacity="0.38" stroke-width="4" filter="url(#soft_ambient_05_4230)"/>
  <path d="M -100.0 -17.8 Q 133.3 -9.3, 366.7 125.9 Q 600.0 307.5, 833.3 388.6 Q 1066.7 493.6, 1300.0 325.0" fill="none" stroke="#B6F5D1" stroke-opacity="0.18" stroke-width="2"/>
  <path d="M -100.0 2149.5 Q 133.3 2383.7, 366.7 2348.6 Q 600.0 2348.4, 833.3 2117.2 Q 1066.7 1986.4, 1300.0 2183.6" fill="none" stroke="#FFFFFF" stroke-opacity="0.38" stroke-width="4" filter="url(#soft_ambient_05_4230)"/>
  <path d="M -100.0 2149.5 Q 133.3 2383.7, 366.7 2348.6 Q 600.0 2348.4, 833.3 2117.2 Q 1066.7 1986.4, 1300.0 2183.6" fill="none" stroke="#A9EAF6" stroke-opacity="0.18" stroke-width="2"/>
  <path d="M -100.0 -227.3 Q 133.3 -151.7, 366.7 91.9 Q 600.0 99.9, 833.3 60.3 Q 1066.7 -28.6, 1300.0 -276.6" fill="none" stroke="#FFFFFF" stroke-opacity="0.38" stroke-width="4" filter="url(#soft_ambient_05_4230)"/>
  <path d="M -100.0 -227.3 Q 133.3 -151.7, 366.7 91.9 Q 600.0 99.9, 833.3 60.3 Q 1066.7 -28.6, 1300.0 -276.6" fill="none" stroke="#A9EAF6" stroke-opacity="0.18" stroke-width="2"/>
  <circle cx="348" cy="739" r="181" fill="url(#orb_ambient_05_4230)" opacity="0.36"/>
  <circle cx="348" cy="739" r="181" fill="#B6F5D1" opacity="0.08"/>
  <circle cx="348" cy="739" r="181" fill="none" stroke="#FFFFFF" stroke-opacity="0.56" stroke-width="3"/>
  <ellipse cx="297.3" cy="673.8" rx="32.6" ry="14.5" fill="#FFFFFF" opacity="0.42" transform="rotate(-22 297.3 673.8)"/>
  <circle cx="578" cy="1379" r="157" fill="url(#orb_ambient_05_4230)" opacity="0.36"/>
  <circle cx="578" cy="1379" r="157" fill="#EEE5FF" opacity="0.08"/>
  <circle cx="578" cy="1379" r="157" fill="none" stroke="#FFFFFF" stroke-opacity="0.56" stroke-width="3"/>
  <ellipse cx="534.0" cy="1322.5" rx="28.3" ry="12.6" fill="#FFFFFF" opacity="0.42" transform="rotate(-22 534.0 1322.5)"/>
  <circle cx="644" cy="1455" r="147" fill="url(#orb_ambient_05_4230)" opacity="0.36"/>
  <circle cx="644" cy="1455" r="147" fill="#DFF8FF" opacity="0.08"/>
  <circle cx="644" cy="1455" r="147" fill="none" stroke="#FFFFFF" stroke-opacity="0.56" stroke-width="3"/>
  <ellipse cx="602.8" cy="1402.1" rx="26.5" ry="11.8" fill="#FFFFFF" opacity="0.42" transform="rotate(-22 602.8 1402.1)"/>
  <circle cx="1219" cy="724" r="144" fill="url(#orb_ambient_05_4230)" opacity="0.26"/>
  <circle cx="1219" cy="724" r="144" fill="#A9EAF6" opacity="0.08"/>
  <circle cx="1219" cy="724" r="144" fill="none" stroke="#FFFFFF" stroke-opacity="0.56" stroke-width="3"/>
  <ellipse cx="1178.7" cy="672.2" rx="25.9" ry="11.5" fill="#FFFFFF" opacity="0.42" transform="rotate(-22 1178.7 672.2)"/>
  <circle cx="1182" cy="839" r="200" fill="url(#orb_ambient_05_4230)" opacity="0.20"/>
  <circle cx="1182" cy="839" r="200" fill="#DFFCED" opacity="0.08"/>
  <circle cx="1182" cy="839" r="200" fill="none" stroke="#FFFFFF" stroke-opacity="0.56" stroke-width="3"/>
  <ellipse cx="1126.0" cy="767.0" rx="36.0" ry="16.0" fill="#FFFFFF" opacity="0.42" transform="rotate(-22 1126.0 767.0)"/>
  <circle cx="457" cy="176" r="136" fill="url(#orb_ambient_05_4230)" opacity="0.18"/>
  <circle cx="457" cy="176" r="136" fill="#D6C2FF" opacity="0.08"/>
  <circle cx="457" cy="176" r="136" fill="none" stroke="#FFFFFF" stroke-opacity="0.56" stroke-width="3"/>
  <ellipse cx="418.9" cy="127.0" rx="24.5" ry="10.9" fill="#FFFFFF" opacity="0.42" transform="rotate(-22 418.9 127.0)"/>
  <circle cx="584" cy="2664" r="156" fill="url(#orb_ambient_05_4230)" opacity="0.21"/>
  <circle cx="584" cy="2664" r="156" fill="#DFFCED" opacity="0.08"/>
  <circle cx="584" cy="2664" r="156" fill="none" stroke="#FFFFFF" stroke-opacity="0.56" stroke-width="3"/>
  <ellipse cx="540.3" cy="2607.8" rx="28.1" ry="12.5" fill="#FFFFFF" opacity="0.42" transform="rotate(-22 540.3 2607.8)"/>
  <circle cx="296" cy="903" r="255" fill="url(#orb_ambient_05_4230)" opacity="0.16"/>
  <circle cx="296" cy="903" r="255" fill="#FFC7DA" opacity="0.08"/>
  <circle cx="296" cy="903" r="255" fill="none" stroke="#FFFFFF" stroke-opacity="0.56" stroke-width="3"/>
  <ellipse cx="224.6" cy="811.2" rx="45.9" ry="20.4" fill="#FFFFFF" opacity="0.42" transform="rotate(-22 224.6 811.2)"/>
  <circle cx="877" cy="1282" r="103" fill="url(#orb_ambient_05_4230)" opacity="0.23"/>
  <circle cx="877" cy="1282" r="103" fill="#FFC7DA" opacity="0.08"/>
  <circle cx="877" cy="1282" r="103" fill="none" stroke="#FFFFFF" stroke-opacity="0.56" stroke-width="3"/>
  <ellipse cx="848.2" cy="1244.9" rx="18.5" ry="8.2" fill="#FFFFFF" opacity="0.42" transform="rotate(-22 848.2 1244.9)"/>
  <circle cx="607" cy="913" r="5" fill="#FFFFFF" opacity="0.62"/>
  <circle cx="1159" cy="505" r="4" fill="#FFFFFF" opacity="0.42"/>
  <circle cx="757" cy="290" r="7" fill="#FFFFFF" opacity="0.32"/>
  <circle cx="104" cy="2134" r="4" fill="#FFFFFF" opacity="0.32"/>
  <circle cx="174" cy="1826" r="7" fill="#FFFFFF" opacity="0.39"/>
  <circle cx="1175" cy="1849" r="3" fill="#FFFFFF" opacity="0.71"/>
  <circle cx="266" cy="2464" r="2" fill="#FFFFFF" opacity="0.59"/>
  <circle cx="324" cy="208" r="5" fill="#FFFFFF" opacity="0.35"/>
  <circle cx="755" cy="546" r="5" fill="#FFFFFF" opacity="0.50"/>
  <circle cx="1045" cy="997" r="4" fill="#FFFFFF" opacity="0.33"/>
  <circle cx="1155" cy="2107" r="7" fill="#FFFFFF" opacity="0.49"/>
  <circle cx="270" cy="1857" r="5" fill="#FFFFFF" opacity="0.56"/>
  <circle cx="640" cy="1052" r="3" fill="#FFFFFF" opacity="0.31"/>
  <circle cx="487" cy="808" r="4" fill="#FFFFFF" opacity="0.41"/>
  <rect width="1200" height="2600" fill="#FFFFFF" opacity="0.08"/>
  <rect width="1200" height="2600" filter="url(#grain_ambient_05_4230)" opacity="0.7"/>
</svg>
