<svg xmlns="http://www.w3.org/2000/svg" width="1200" height="2600" viewBox="0 0 1200 2600" preserveAspectRatio="xMidYMid slice">
  <defs>
    <linearGradient id="bg_ambient_18_4783" x1="0" y1="0" x2="1" y2="1">
      <stop offset="0%" stop-color="#FDFFFF"/>
      <stop offset="48%" stop-color="#DFFCED"/>
      <stop offset="100%" stop-color="#DFF8FF"/>
    </linearGradient>
    <radialGradient id="orb_ambient_18_4783" cx="35%" cy="30%" r="70%">
      <stop offset="0%" stop-color="#FFFFFF" stop-opacity="0.85"/>
      <stop offset="42%" stop-color="#FFFFFF" stop-opacity="0.20"/>
      <stop offset="100%" stop-color="#FFFFFF" stop-opacity="0.02"/>
    </radialGradient>
    <filter id="blur_ambient_18_4783" x="-30%" y="-30%" width="160%" height="160%">
      <feGaussianBlur stdDeviation="72"/>
    </filter>
    <filter id="soft_ambient_18_4783" x="-20%" y="-20%" width="140%" height="140%">
      <feGaussianBlur stdDeviation="10"/>
    </filter>
    <filter id="grain_ambient_18_4783">
      <feTurbulence type="fractalNoise" baseFrequency="0.85" numOctaves="2" stitchTiles="stitch"/>
      <feColorMatrix type="saturate" values="0"/>
      <feComponentTransfer>
        <feFuncA type="table" tableValues="0 0.035"/>
      </feComponentTransfer>
    </filter>
  </defs>
  <rect width="1200" height="2600" fill="url(#bg_ambient_18_4783)"/>
  <path d="M 1127.3 314.0 C 1127.3 607.0, 1107.1 546.3, 1030.2 770.7 C 953.3 995.1, 999.0 827.5, 881.1 878.4 C 763.2 929.2, 813.1 1007.3, 709.5 860.9 C 605.8 714.4, 647.6 848.6, 606.7 573.4 C 565.8 298.1, 567.6 341.8, 608.5 66.5 C 649.5 -208.8, 609.2 -149.1, 712.8 -295.6 C 816.5 -442.1, 761.5 -415.7, 879.4 -364.9 C 997.3 -314.0, 967.4 -374.6, 1044.3 -150.2 C 1121.2 74.2, 1127.3 21.1, 1127.3 314.0 Z" fill="#B6F5D1" opacity="0.29" filter="url(#blur_ambient_18_4783)"/>
  <path d="M 563.2 1868.0 C 563.2 2120.9, 528.2 1999.3, 421.4 2193.0 C 314.7 2386.7, 409.5 2285.3, 245.9 2329.2 C 82.4 2373.2, 154.6 2462.3, 10.8 2335.9 C -133.0 2209.4, -115.5 2307.5, -172.3 2069.9 C -229.1 1832.2, -190.2 1910.0, -133.4 1672.3 C -76.6 1434.7, -171.2 1557.7, -27.4 1431.3 C 116.4 1304.8, 64.2 1229.7, 227.7 1273.6 C 391.2 1317.5, 306.2 1350.1, 413.0 1543.8 C 519.7 1737.5, 563.2 1615.1, 563.2 1868.0 Z" fill="#DDEEFF" opacity="0.22" filter="url(#blur_ambient_18_4783)"/>
  <path d="M 738.7 2500.0 C 738.7 2661.6, 756.8 2581.9, 638.8 2705.7 C 520.8 2829.4, 609.9 2862.3, 429.0 2890.4 C 248.2 2918.4, 299.6 2880.9, 140.6 2800.1 C -18.4 2719.3, 82.1 2778.0, 19.3 2626.2 C -43.5 2474.3, -46.1 2518.1, 16.7 2366.2 C 79.5 2214.4, 23.7 2316.7, 182.7 2236.0 C 341.7 2155.2, 239.6 2173.4, 420.4 2201.5 C 601.2 2229.5, 506.4 2108.8, 624.4 2232.5 C 742.4 2356.3, 738.7 2338.4, 738.7 2500.0 Z" fill="#DFFCED" opacity="0.35" filter="url(#blur_ambient_18_4783)"/>
  <path d="M 1051.9 880.0 C 1051.9 1107.7, 1105.0 1036.8, 1037.0 1211.2 C 969.0 1385.7, 987.1 1294.8, 883.0 1334.3 C 778.8 1373.8, 824.5 1416.2, 732.9 1302.4 C 641.3 1188.5, 644.9 1259.0, 608.7 1045.1 C 572.5 831.1, 553.7 935.9, 589.9 722.0 C 626.0 508.0, 619.3 609.1, 710.9 495.3 C 802.4 381.4, 776.8 300.4, 881.0 339.9 C 985.1 379.5, 942.4 403.4, 1010.4 577.8 C 1078.3 752.2, 1051.9 652.3, 1051.9 880.0 Z" fill="#DDEEFF" opacity="0.16" filter="url(#blur_ambient_18_4783)"/>
  <path d="M 700.3 1205.0 C 700.3 1363.0, 687.5 1300.1, 574.4 1421.1 C 461.3 1542.1, 529.4 1546.2, 356.2 1573.6 C 182.9 1601.1, 265.7 1566.2, 113.3 1487.2 C -39.1 1408.2, -89.1 1456.4, -149.3 1308.0 C -209.4 1159.6, -203.3 1242.0, -143.1 1093.5 C -82.9 945.1, -53.3 1014.9, 99.0 935.9 C 251.4 856.9, 186.8 787.1, 360.1 814.6 C 533.4 842.0, 512.1 834.1, 625.2 955.1 C 738.3 1076.1, 700.3 1047.0, 700.3 1205.0 Z" fill="#A9EAF6" opacity="0.23" filter="url(#blur_ambient_18_4783)"/>
  <path d="M 1770.5 2157.0 C 1770.5 2405.8, 1872.4 2383.3, 1713.6 2573.9 C 1554.8 2764.5, 1587.8 2717.1, 1344.5 2760.3 C 1101.2 2803.6, 1137.3 2735.2, 923.4 2610.7 C 709.4 2486.3, 731.5 2587.2, 647.0 2353.4 C 562.5 2119.5, 562.3 2228.0, 646.8 1994.2 C 731.3 1760.4, 753.1 1773.5, 967.0 1649.1 C 1181.0 1524.7, 1080.9 1583.9, 1324.2 1627.1 C 1567.5 1670.4, 1502.9 1573.9, 1661.7 1764.5 C 1820.5 1955.2, 1770.5 1908.2, 1770.5 2157.0 Z" fill="#A9EAF6" opacity="0.20" filter="url(#blur_ambient_18_4783)"/>
  <path d="M 325.3 147.0 C 325.3 427.4, 349.2 300.1, 264.7 514.9 C 180.3 729.7, 208.4 628.4, 79.0 677.1 C -50.4 725.8, -22.3 878.4, -136.1 738.2 C -249.9 598.0, -159.5 603.3, -204.5 339.8 C -249.4 76.4, -335.0 225.1, -290.1 -38.4 C -245.1 -301.8, -239.2 -299.3, -125.4 -439.5 C -11.6 -579.6, -55.0 -535.8, 74.4 -487.1 C 203.8 -438.4, 138.0 -452.7, 222.5 -238.0 C 307.0 -23.2, 325.3 -133.4, 325.3 147.0 Z" fill="#B6F5D1" opacity="0.33" filter="url(#blur_ambient_18_4783)"/>
  <path d="M 380.8 1902.0 C 380.8 2133.3, 365.6 2073.0, 296.4 2250.2 C 227.3 2427.4, 268.8 2284.0, 162.9 2324.1 C 57.0 2364.3, 93.9 2529.1, 0.7 2413.5 C -92.4 2297.8, -82.8 2309.2, -119.6 2091.8 C -156.3 1874.4, -170.3 1921.7, -133.5 1704.4 C -96.7 1487.0, -68.9 1511.2, 24.2 1395.5 C 117.4 1279.9, 62.3 1318.2, 168.2 1358.4 C 274.1 1398.6, 206.4 1420.1, 275.5 1597.2 C 344.7 1774.4, 380.8 1670.7, 380.8 1902.0 Z" fill="#FFECEF" opacity="0.35" filter="url(#blur_ambient_18_4783)"/>
  <path d="M 578.4 1718.0 C 578.4 1880.5, 545.7 1836.2, 392.7 1960.7 C 239.7 2085.1, 287.2 2060.4, 52.7 2088.7 C -181.7 2116.9, -135.8 2129.2, -342.0 2048.0 C -548.2 1966.8, -436.1 2010.0, -517.6 1857.3 C -599.0 1704.7, -674.9 1751.2, -593.5 1598.5 C -512.0 1445.9, -490.5 1459.8, -284.3 1378.6 C -78.1 1297.4, -189.2 1394.2, 45.2 1422.4 C 279.7 1450.6, 174.2 1326.0, 327.2 1450.4 C 480.3 1574.9, 578.4 1555.5, 578.4 1718.0 Z" fill="#FDFFFF" opacity="0.25" filter="url(#blur_ambient_18_4783)"/>
  <path d="M 1165.2 1618.0 C 1165.2 1881.7, 1246.5 1817.9, 1152.5 2019.9 C 1058.5 2221.9, 1072.3 2133.1, 928.3 2178.9 C 784.3 2224.7, 801.1 2213.8, 674.5 2081.9 C 547.8 1950.1, 585.0 2082.0, 534.9 1834.2 C 484.9 1586.4, 555.2 1638.7, 605.3 1390.9 C 655.3 1143.1, 603.7 1271.3, 730.4 1139.4 C 857.0 1007.6, 784.7 902.2, 928.8 947.9 C 1072.8 993.7, 1005.1 1012.0, 1099.1 1214.0 C 1193.1 1416.0, 1165.2 1354.3, 1165.2 1618.0 Z" fill="#B6F5D1" opacity="0.27" filter="url(#blur_ambient_18_4783)"/>
  <path d="M 519.5 1641.0 C 519.5 1875.9, 506.5 1820.0, 385.9 1999.9 C 265.3 2179.9, 312.3 2118.2, 127.5 2159.0 C -57.3 2199.8, -23.8 2191.0, -186.3 2073.6 C -348.8 1956.1, -299.3 2051.1, -363.5 1830.4 C -427.7 1609.6, -344.3 1681.2, -280.1 1460.5 C -216.0 1239.7, -343.0 1271.1, -180.5 1153.6 C -18.0 1036.2, -50.3 1024.9, 134.5 1065.7 C 319.3 1106.4, 283.6 1118.3, 404.2 1298.3 C 524.8 1478.2, 519.5 1406.1, 519.5 1641.0 Z" fill="#FFC7DA" opacity="0.30" filter="url(#blur_ambient_18_4783)"/>
  <path d="M 1063.4 1450.0 C 1063.4 1588.6, 1059.2 1546.3, 921.5 1652.4 C 783.8 1758.6, 788.2 1740.1, 577.3 1764.1 C 366.3 1788.2, 421.2 1815.4, 235.7 1746.1 C 50.2 1676.8, 71.8 1688.6, -1.5 1558.3 C -74.8 1428.1, -25.8 1472.7, 47.5 1342.4 C 120.8 1212.2, 69.5 1242.9, 255.0 1173.6 C 440.5 1104.3, 367.5 1135.8, 578.5 1159.8 C 789.4 1183.9, 738.5 1128.1, 876.2 1234.3 C 1013.9 1340.5, 1063.4 1311.4, 1063.4 1450.0 Z" fill="#D6C2FF" opacity="0.17" filter="url(#blur_ambient_18_4783)"/>
  <path d="M 92.2 1137.0 C 92.2 1450.7, 142.6 1280.7, 50.1 1520.9 C -42.5 1761.2, 27.7 1810.5, -114.2 1865.0 C -256.0 1919.4, -207.1 1978.6, -331.8 1821.8 C -456.5 1665.0, -450.0 1656.9, -499.2 1362.2 C -548.5 1067.4, -531.9 1175.9, -482.6 881.1 C -433.4 586.4, -461.1 670.6, -336.4 513.8 C -211.6 357.0, -264.7 401.2, -122.9 455.6 C 18.9 510.1, 21.2 410.6, 113.8 650.8 C 206.3 891.1, 92.2 823.3, 92.2 1137.0 Z" fill="#DDEEFF" opacity="0.25" filter="url(#blur_ambient_18_4783)"/>
  <path d="M 1310.7 1862.0 C 1310.7 2132.4, 1314.6 1967.0, 1211.7 2185.8 C 1108.8 2404.6, 1233.2 2287.8, 1066.7 2371.4 C 900.3 2455.0, 968.8 2493.8, 802.3 2410.2 C 635.8 2326.6, 677.2 2446.3, 574.3 2227.5 C 471.4 2008.7, 593.0 2132.4, 593.0 1862.0 C 593.0 1591.5, 485.8 1748.9, 588.7 1530.1 C 691.6 1311.3, 637.3 1318.0, 803.8 1234.4 C 970.2 1150.9, 882.3 1167.4, 1048.8 1251.0 C 1215.3 1334.5, 1137.9 1312.1, 1240.8 1530.9 C 1343.7 1749.7, 1310.7 1591.5, 1310.7 1862.0 Z" fill="#DFF8FF" opacity="0.12" stroke="#DFF8FF" stroke-opacity="0.46" stroke-width="3" filter="url(#soft_ambient_18_4783)"/>
  <path d="M 1310.7 1862.0 C 1310.7 2132.4, 1314.6 1967.0, 1211.7 2185.8 C 1108.8 2404.6, 1233.2 2287.8, 1066.7 2371.4 C 900.3 2455.0, 968.8 2493.8, 802.3 2410.2 C 635.8 2326.6, 677.2 2446.3, 574.3 2227.5 C 471.4 2008.7, 593.0 2132.4, 593.0 1862.0 C 593.0 1591.5, 485.8 1748.9, 588.7 1530.1 C 691.6 1311.3, 637.3 1318.0, 803.8 1234.4 C 970.2 1150.9, 882.3 1167.4, 1048.8 1251.0 C 1215.3 1334.5, 1137.9 1312.1, 1240.8 1530.9 C 1343.7 1749.7, 1310.7 1591.5, 1310.7 1862.0 Z" fill="none" stroke="#FFFFFF" stroke-opacity="0.22" stroke-width="1.2"/>
  <path d="M 1689.2 246.0 C 1689.2 448.1, 1725.0 376.7, 1556.3 540.2 C 1387.5 703.6, 1566.9 669.7, 1293.9 732.2 C 1020.8 794.6, 1135.0 683.0, 861.9 620.5 C 588.9 558.1, 679.4 678.3, 510.7 514.8 C 341.9 351.3, 453.6 448.1, 453.6 246.0 C 453.6 44.0, 376.9 180.4, 545.6 16.9 C 714.4 -146.6, 629.2 -172.6, 902.2 -235.0 C 1175.3 -297.4, 1021.7 -283.9, 1294.7 -221.5 C 1567.8 -159.0, 1393.9 -215.9, 1562.7 -52.5 C 1731.4 111.0, 1689.2 43.9, 1689.2 246.0 Z" fill="#DFF8FF" opacity="0.12" stroke="#DFF8FF" stroke-opacity="0.46" stroke-width="3" filter="url(#soft_ambient_18_4783)"/>
  <path d="M 1689.2 246.0 C 1689.2 448.1, 1725.0 376.7, 1556.3 540.2 C 1387.5 703.6, 1566.9 669.7, 1293.9 732.2 C 1020.8 794.6, 1135.0 683.0, 861.9 620.5 C 588.9 558.1, 679.4 678.3, 510.7 514.8 C 341.9 351.3, 453.6 448.1, 453.6 246.0 C 453.6 44.0, 376.9 180.4, 545.6 16.9 C 714.4 -146.6, 629.2 -172.6, 902.2 -235.0 C 1175.3 -297.4, 1021.7 -283.9, 1294.7 -221.5 C 1567.8 -159.0, 1393.9 -215.9, 1562.7 -52.5 C 1731.4 111.0, 1689.2 43.9, 1689.2 246.0 Z" fill="none" stroke="#FFFFFF" stroke-opacity="0.22" stroke-width="1.2"/>
  <path d="M 623.0 -304.0 C 623.0 -117.2, 653.3 -182.0, 547.0 -30.9 C 440.7 120.1, 495.1 -14.7, 323.1 43.1 C 151.0 100.8, 230.2 115.5, 58.1 57.8 C -113.9 0.1, -30.9 93.1, -137.2 -58.0 C -243.6 -209.0, -150.1 -117.2, -150.1 -304.0 C -150.1 -490.7, -240.8 -414.2, -134.5 -565.3 C -28.1 -716.4, -90.9 -627.2, 81.1 -684.9 C 253.2 -742.6, 148.2 -761.0, 320.2 -703.3 C 492.3 -645.6, 384.8 -712.1, 491.1 -561.0 C 597.4 -409.9, 623.0 -490.8, 623.0 -304.0 Z" fill="#FDFFFF" opacity="0.12" stroke="#FDFFFF" stroke-opacity="0.46" stroke-width="3" filter="url(#soft_ambient_18_4783)"/>
  <path d="M 623.0 -304.0 C 623.0 -117.2, 653.3 -182.0, 547.0 -30.9 C 440.7 120.1, 495.1 -14.7, 323.1 43.1 C 151.0 100.8, 230.2 115.5, 58.1 57.8 C -113.9 0.1, -30.9 93.1, -137.2 -58.0 C -243.6 -209.0, -150.1 -117.2, -150.1 -304.0 C -150.1 -490.7, -240.8 -414.2, -134.5 -565.3 C -28.1 -716.4, -90.9 -627.2, 81.1 -684.9 C 253.2 -742.6, 148.2 -761.0, 320.2 -703.3 C 492.3 -645.6, 384.8 -712.1, 491.1 -561.0 C 597.4 -409.9, 623.0 -490.8, 623.0 -304.0 Z" fill="none" stroke="#FFFFFF" stroke-opacity="0.22" stroke-width="1.2"/>
  <path d="M 1378.6 2345.0 C 1378.6 2498.0, 1407.2 2424.6, 1301.4 2548.3 C 1195.6 2672.1, 1302.5 2589.7, 1131.3 2637.0 C 960.1 2684.3, 1040.2 2743.0, 869.0 2695.8 C 697.8 2648.5, 815.6 2649.2, 709.8 2525.5 C 604.0 2401.7, 556.6 2498.0, 556.6 2345.0 C 556.6 2192.0, 614.0 2247.0, 719.8 2123.2 C 825.6 1999.4, 703.1 2056.6, 874.3 2009.3 C 1045.5 1962.0, 948.3 1932.8, 1119.4 1980.1 C 1290.6 2027.4, 1209.2 2023.6, 1315.0 2147.4 C 1420.8 2271.2, 1378.6 2192.0, 1378.6 2345.0 Z" fill="#DFFCED" opacity="0.12" stroke="#FFFFFF" stroke-opacity="0.46" stroke-width="3" filter="url(#soft_ambient_18_4783)"/>
  <path d="M 1378.6 2345.0 C 1378.6 2498.0, 1407.2 2424.6, 1301.4 2548.3 C 1195.6 2672.1, 1302.5 2589.7, 1131.3 2637.0 C 960.1 2684.3, 1040.2 2743.0, 869.0 2695.8 C 697.8 2648.5, 815.6 2649.2, 709.8 2525.5 C 604.0 2401.7, 556.6 2498.0, 556.6 2345.0 C 556.6 2192.0, 614.0 2247.0, 719.8 2123.2 C 825.6 1999.4, 703.1 2056.6, 874.3 2009.3 C 1045.5 1962.0, 948.3 1932.8, 1119.4 1980.1 C 1290.6 2027.4, 1209.2 2023.6, 1315.0 2147.4 C 1420.8 2271.2, 1378.6 2192.0, 1378.6 2345.0 Z" fill="none" stroke="#FFFFFF" stroke-opacity="0.22" stroke-width="1.2"/>
  <path d="M 1613.6 -144.0 C 1613.6 170.1, 1629.1 23.0, 1520.7 277.1 C 1412.2 531.3, 1463.1 470.0, 1287.6 567.0 C 1112.2 664.1, 1202.6 531.4, 1027.1 434.4 C 851.7 337.3, 908.9 518.0, 800.4 263.9 C 692.0 9.8, 753.1 170.1, 753.1 -144.0 C 753.1 -458.1, 674.9 -326.3, 783.3 -580.4 C 891.8 -834.5, 841.6 -685.5, 1017.0 -782.5 C 1192.5 -879.6, 1100.7 -914.2, 1276.2 -817.2 C 1451.6 -720.1, 1397.0 -768.7, 1505.4 -514.6 C 1613.9 -260.5, 1613.6 -458.1, 1613.6 -144.0 Z" fill="#DFFCED" opacity="0.12" stroke="#DFFCED" stroke-opacity="0.46" stroke-width="3" filter="url(#soft_ambient_18_4783)"/>
  <path d="M 1613.6 -144.0 C 1613.6 170.1, 1629.1 23.0, 1520.7 277.1 C 1412.2 531.3, 1463.1 470.0, 1287.6 567.0 C 1112.2 664.1, 1202.6 531.4, 1027.1 434.4 C 851.7 337.3, 908.9 518.0, 800.4 263.9 C 692.0 9.8, 753.1 170.1, 753.1 -144.0 C 753.1 -458.1, 674.9 -326.3, 783.3 -580.4 C 891.8 -834.5, 841.6 -685.5, 1017.0 -782.5 C 1192.5 -879.6, 1100.7 -914.2, 1276.2 -817.2 C 1451.6 -720.1, 1397.0 -768.7, 1505.4 -514.6 C 1613.9 -260.5, 1613.6 -458.1, 1613.6 -144.0 Z" fill="none" stroke="#FFFFFF" stroke-opacity="0.22" stroke-width="1.2"/>
  <path d="M 441.2 1095.0 C 441.2 1287.2, 517.1 1215.4, 380.6 1370.8 C 244.1 1526.3, 357.5 1405.1, 136.6 1464.4 C -84.2 1523.8, 64.9 1606.2, -155.9 1546.9 C -376.8 1487.5, -309.0 1534.9, -445.5 1379.4 C -581.9 1224.0, -548.1 1287.2, -548.1 1095.0 C -548.1 902.9, -591.0 1031.1, -454.6 875.6 C -318.1 720.2, -413.9 790.4, -193.1 731.0 C 27.8 671.7, -80.2 583.7, 140.7 643.1 C 361.5 702.5, 280.0 720.9, 416.5 876.3 C 553.0 1031.8, 441.2 902.9, 441.2 1095.0 Z" fill="#EEE5FF" opacity="0.12" stroke="#EEE5FF" stroke-opacity="0.46" stroke-width="3" filter="url(#soft_ambient_18_4783)"/>
  <path d="M 441.2 1095.0 C 441.2 1287.2, 517.1 1215.4, 380.6 1370.8 C 244.1 1526.3, 357.5 1405.1, 136.6 1464.4 C -84.2 1523.8, 64.9 1606.2, -155.9 1546.9 C -376.8 1487.5, -309.0 1534.9, -445.5 1379.4 C -581.9 1224.0, -548.1 1287.2, -548.1 1095.0 C -548.1 902.9, -591.0 1031.1, -454.6 875.6 C -318.1 720.2, -413.9 790.4, -193.1 731.0 C 27.8 671.7, -80.2 583.7, 140.7 643.1 C 361.5 702.5, 280.0 720.9, 416.5 876.3 C 553.0 1031.8, 441.2 902.9, 441.2 1095.0 Z" fill="none" stroke="#FFFFFF" stroke-opacity="0.22" stroke-width="1.2"/>
  <path d="M -100.0 956.4 Q 133.3 570.6, 366.7 644.7 Q 600.0 870.9, 833.3 1002.4 Q 1066.7 703.7, 1300.0 542.4" fill="none" stroke="#FFFFFF" stroke-opacity="0.38" stroke-width="4" filter="url(#soft_ambient_18_4783)"/>
  <path d="M -100.0 956.4 Q 133.3 570.6, 366.7 644.7 Q 600.0 870.9, 833.3 1002.4 Q 1066.7 703.7, 1300.0 542.4" fill="none" stroke="#FFC7DA" stroke-opacity="0.18" stroke-width="2"/>
  <path d="M -100.0 2030.5 Q 133.3 2143.3, 366.7 2219.2 Q 600.0 2052.6, 833.3 1891.4 Q 1066.7 1778.4, 1300.0 1836.4" fill="none" stroke="#FFFFFF" stroke-opacity="0.38" stroke-width="4" filter="url(#soft_ambient_18_4783)"/>
  <path d="M -100.0 2030.5 Q 133.3 2143.3, 366.7 2219.2 Q 600.0 2052.6, 833.3 1891.4 Q 1066.7 1778.4, 1300.0 1836.4" fill="none" stroke="#A9EAF6" stroke-opacity="0.18" stroke-width="2"/>
  <path d="M -100.0 1226.4 Q 133.3 1399.4, 366.7 1193.3 Q 600.0 929.8, 833.3 1262.3 Q 1066.7 1435.8, 1300.0 1137.5" fill="none" stroke="#FFFFFF" stroke-opacity="0.38" stroke-width="4" filter="url(#soft_ambient_18_4783)"/>
  <path d="M -100.0 1226.4 Q 133.3 1399.4, 366.7 1193.3 Q 600.0 929.8, 833.3 1262.3 Q 1066.7 1435.8, 1300.0 1137.5" fill="none" stroke="#FFC7DA" stroke-opacity="0.18" stroke-width="2"/>
  <path d="M -100.0 1158.1 Q 133.3 942.0, 366.7 623.2 Q 600.0 880.8, 833.3 1104.1 Q 1066.7 1212.3, 1300.0 946.7" fill="none" stroke="#FFFFFF" stroke-opacity="0.38" stroke-width="4" filter="url(#soft_ambient_18_4783)"/>
  <path d="M -100.0 1158.1 Q 133.3 942.0, 366.7 623.2 Q 600.0 880.8, 833.3 1104.1 Q 1066.7 1212.3, 1300.0 946.7" fill="none" stroke="#B6F5D1" stroke-opacity="0.18" stroke-width="2"/>
  <path d="M -100.0 -178.7 Q 133.3 -148.6, 366.7 -21.0 Q 600.0 33.0, 833.3 230.3 Q 1066.7 236.4, 1300.0 28.8" fill="none" stroke="#FFFFFF" stroke-opacity="0.38" stroke-width="4" filter="url(#soft_ambient_18_4783)"/>
  <path d="M -100.0 -178.7 Q 133.3 -148.6, 366.7 -21.0 Q 600.0 33.0, 833.3 230.3 Q 1066.7 236.4, 1300.0 28.8" fill="none" stroke="#D6C2FF" stroke-opacity="0.18" stroke-width="2"/>
  <circle cx="156" cy="2338" r="175" fill="url(#orb_ambient_18_4783)" opacity="0.36"/>
  <circle cx="156" cy="2338" r="175" fill="#FDFFFF" opacity="0.08"/>
  <circle cx="156" cy="2338" r="175" fill="none" stroke="#FFFFFF" stroke-opacity="0.56" stroke-width="3"/>
  <ellipse cx="107.0" cy="2275.0" rx="31.5" ry="14.0" fill="#FFFFFF" opacity="0.42" transform="rotate(-22 107.0 2275.0)"/>
  <circle cx="14" cy="1724" r="203" fill="url(#orb_ambient_18_4783)" opacity="0.36"/>
  <circle cx="14" cy="1724" r="203" fill="#A9EAF6" opacity="0.08"/>
  <circle cx="14" cy="1724" r="203" fill="none" stroke="#FFFFFF" stroke-opacity="0.56" stroke-width="3"/>
  <ellipse cx="-42.8" cy="1650.9" rx="36.5" ry="16.2" fill="#FFFFFF" opacity="0.42" transform="rotate(-22 -42.8 1650.9)"/>
  <circle cx="127" cy="1914" r="93" fill="url(#orb_ambient_18_4783)" opacity="0.36"/>
  <circle cx="127" cy="1914" r="93" fill="#DDEEFF" opacity="0.08"/>
  <circle cx="127" cy="1914" r="93" fill="none" stroke="#FFFFFF" stroke-opacity="0.56" stroke-width="3"/>
  <ellipse cx="101.0" cy="1880.5" rx="16.7" ry="7.4" fill="#FFFFFF" opacity="0.42" transform="rotate(-22 101.0 1880.5)"/>
  <circle cx="1280" cy="541" r="182" fill="url(#orb_ambient_18_4783)" opacity="0.22"/>
  <circle cx="1280" cy="541" r="182" fill="#FFECEF" opacity="0.08"/>
  <circle cx="1280" cy="541" r="182" fill="none" stroke="#FFFFFF" stroke-opacity="0.56" stroke-width="3"/>
  <ellipse cx="1229.0" cy="475.5" rx="32.8" ry="14.6" fill="#FFFFFF" opacity="0.42" transform="rotate(-22 1229.0 475.5)"/>
  <circle cx="1052" cy="234" r="201" fill="url(#orb_ambient_18_4783)" opacity="0.27"/>
  <circle cx="1052" cy="234" r="201" fill="#DDEEFF" opacity="0.08"/>
  <circle cx="1052" cy="234" r="201" fill="none" stroke="#FFFFFF" stroke-opacity="0.56" stroke-width="3"/>
  <ellipse cx="995.7" cy="161.6" rx="36.2" ry="16.1" fill="#FFFFFF" opacity="0.42" transform="rotate(-22 995.7 161.6)"/>
  <circle cx="201" cy="2555" r="269" fill="url(#orb_ambient_18_4783)" opacity="0.21"/>
  <circle cx="201" cy="2555" r="269" fill="#DDEEFF" opacity="0.08"/>
  <circle cx="201" cy="2555" r="269" fill="none" stroke="#FFFFFF" stroke-opacity="0.56" stroke-width="3"/>
  <ellipse cx="125.7" cy="2458.2" rx="48.4" ry="21.5" fill="#FFFFFF" opacity="0.42" transform="rotate(-22 125.7 2458.2)"/>
  <circle cx="1041" cy="310" r="206" fill="url(#orb_ambient_18_4783)" opacity="0.25"/>
  <circle cx="1041" cy="310" r="206" fill="#D6C2FF" opacity="0.08"/>
  <circle cx="1041" cy="310" r="206" fill="none" stroke="#FFFFFF" stroke-opacity="0.56" stroke-width="3"/>
  <ellipse cx="983.3" cy="235.8" rx="37.1" ry="16.5" fill="#FFFFFF" opacity="0.42" transform="rotate(-22 983.3 235.8)"/>
  <circle cx="970" cy="1963" r="149" fill="url(#orb_ambient_18_4783)" opacity="0.26"/>
  <circle cx="970" cy="1963" r="149" fill="#DFFCED" opacity="0.08"/>
  <circle cx="970" cy="1963" r="149" fill="none" stroke="#FFFFFF" stroke-opacity="0.56" stroke-width="3"/>
  <ellipse cx="928.3" cy="1909.4" rx="26.8" ry="11.9" fill="#FFFFFF" opacity="0.42" transform="rotate(-22 928.3 1909.4)"/>
  <circle cx="1089" cy="2577" r="115" fill="url(#orb_ambient_18_4783)" opacity="0.27"/>
  <circle cx="1089" cy="2577" r="115" fill="#DFFCED" opacity="0.08"/>
  <circle cx="1089" cy="2577" r="115" fill="none" stroke="#FFFFFF" stroke-opacity="0.56" stroke-width="3"/>
  <ellipse cx="1056.8" cy="2535.6" rx="20.7" ry="9.2" fill="#FFFFFF" opacity="0.42" transform="rotate(-22 1056.8 2535.6)"/>
  <circle cx="149" cy="1427" r="7" fill="#FFFFFF" opacity="0.34"/>
  <circle cx="1180" cy="2297" r="5" fill="#FFFFFF" opacity="0.41"/>
  <circle cx="935" cy="272" r="5" fill="#FFFFFF" opacity="0.54"/>
  <circle cx="212" cy="1607" r="7" fill="#FFFFFF" opacity="0.52"/>
  <circle cx="473" cy="1150" r="2" fill="#FFFFFF" opacity="0.52"/>
  <circle cx="146" cy="2348" r="5" fill="#FFFFFF" opacity="0.40"/>
  <circle cx="393" cy="133" r="4" fill="#FFFFFF" opacity="0.43"/>
  <circle cx="913" cy="2568" r="4" fill="#FFFFFF" opacity="0.68"/>
  <circle cx="118" cy="1639" r="4" fill="#FFFFFF" opacity="0.61"/>
  <circle cx="1196" cy="2493" r="2" fill="#FFFFFF" opacity="0.38"/>
  <circle cx="908" cy="2187" r="5" fill="#FFFFFF" opacity="0.71"/>
  <circle cx="1177" cy="353" r="5" fill="#FFFFFF" opacity="0.53"/>
  <circle cx="649" cy="379" r="5" fill="#FFFFFF" opacity="0.35"/>
  <circle cx="50" cy="15" r="7" fill="#FFFFFF" opacity="0.31"/>
  <circle cx="263" cy="492" r="2" fill="#FFFFFF" opacity="0.60"/>
  <circle cx="1059" cy="24" r="3" fill="#FFFFFF" opacity="0.42"/>
  <circle cx="109" cy="2484" r="5" fill="#FFFFFF" opacity="0.36"/>
  <circle cx="213" cy="627" r="5" fill="#FFFFFF" opacity="0.46"/>
  <circle cx="1124" cy="1940" r="2" fill="#FFFFFF" opacity="0.53"/>
  <circle cx="424" cy="2388" r="3" fill="#FFFFFF" opacity="0.60"/>
  <rect width="1200" height="2600" fill="#FFFFFF" opacity="0.08"/>
  <rect width="1200" height="2600" filter="url(#grain_ambient_18_4783)" opacity="0.7"/>
</svg>
