<svg xmlns="http://www.w3.org/2000/svg" width="1200" height="2600" viewBox="0 0 1200 2600" preserveAspectRatio="xMidYMid slice">
  <defs>
    <linearGradient id="bg_ambient_13_7326" x1="0" y1="0" x2="1" y2="1">
      <stop offset="0%" stop-color="#DFF8FF"/>
      <stop offset="48%" stop-color="#DFFCED"/>
      <stop offset="100%" stop-color="#EEE5FF"/>
    </linearGradient>
    <radialGradient id="orb_ambient_13_7326" cx="35%" cy="30%" r="70%">
      <stop offset="0%" stop-color="#FFFFFF" stop-opacity="0.85"/>
      <stop offset="42%" stop-color="#FFFFFF" stop-opacity="0.20"/>
      <stop offset="100%" stop-color="#FFFFFF" stop-opacity="0.02"/>
    </radialGradient>
    <filter id="blur_ambient_13_7326" x="-30%" y="-30%" width="160%" height="160%">
      <feGaussianBlur stdDeviation="72"/>
    </filter>
    <filter id="soft_ambient_13_7326" x="-20%" y="-20%" width="140%" height="140%">
      <feGaussianBlur stdDeviation="10"/>
    </filter>
    <filter id="grain_ambient_13_7326">
      <feTurbulence type="fractalNoise" baseFrequency="0.85" numOctaves="2" stitchTiles="stitch"/>
      <feColorMatrix type="saturate" values="0"/>
      <feComponentTransfer>
        <feFuncA type="table" tableValues="0 0.035"/>
      </feComponentTransfer>
    </filter>
  </defs>
  <rect width="1200" height="2600" fill="url(#bg_ambient_13_7326)"/>
  <path d="M 1243.5 2355.0 C 1243.5 2667.3, 1231.6 2496.3, 1133.8 2735.6 C 1036.0 2974.8, 1097.6 3069.2, 947.8 3123.4 C 798.0 3177.6, 870.1 3186.8, 738.4 3030.6 C 606.6 2874.5, 614.2 2870.3, 562.2 2576.8 C 510.1 2283.3, 550.6 2425.3, 602.6 2131.8 C 654.6 1838.3, 605.6 1843.8, 737.4 1687.7 C 869.1 1531.5, 811.4 1521.4, 961.2 1575.7 C 1111.0 1629.9, 1094.3 1652.8, 1192.1 1892.0 C 1289.9 2131.3, 1243.5 2042.7, 1243.5 2355.0 Z" fill="#B6F5D1" opacity="0.35" filter="url(#blur_ambient_13_7326)"/>
  <path d="M 226.9 2195.0 C 226.9 2369.6, 245.0 2314.2, 170.9 2448.0 C 96.9 2581.8, 157.5 2552.6, 44.0 2583.0 C -69.4 2613.3, -20.6 2559.6, -120.3 2472.3 C -220.1 2385.0, -180.2 2510.3, -219.6 2346.2 C -259.0 2182.1, -322.5 2203.7, -283.1 2039.6 C -243.7 1875.6, -245.1 2001.1, -145.4 1913.8 C -45.6 1826.5, -72.0 1798.9, 41.5 1829.2 C 154.9 1859.5, 127.0 1820.9, 201.0 1954.7 C 275.1 2088.4, 226.9 2020.4, 226.9 2195.0 Z" fill="#D6C2FF" opacity="0.23" filter="url(#blur_ambient_13_7326)"/>
  <path d="M 564.6 2569.0 C 564.6 2846.2, 656.9 2700.0, 527.6 2912.4 C 398.3 3124.7, 445.1 3168.3, 247.1 3216.4 C 49.0 3264.6, 86.8 3297.0, -87.4 3158.4 C -261.6 3019.8, -257.0 3068.4, -325.8 2807.9 C -394.6 2547.4, -390.1 2581.9, -321.3 2321.4 C -252.5 2061.0, -216.2 2155.9, -42.0 2017.3 C 132.2 1878.7, 29.7 1997.4, 227.8 2045.5 C 425.8 2093.7, 396.7 1905.5, 526.0 2117.9 C 655.3 2330.2, 564.6 2291.8, 564.6 2569.0 Z" fill="#FFECEF" opacity="0.29" filter="url(#blur_ambient_13_7326)"/>
  <path d="M 916.8 1722.0 C 916.8 1961.8, 981.7 1938.6, 846.0 2122.3 C 710.3 2306.0, 787.7 2257.9, 579.9 2299.6 C 372.0 2341.2, 462.4 2251.8, 279.7 2131.9 C 96.9 2012.0, 123.9 2138.6, 51.7 1913.2 C -20.5 1687.8, -81.6 1759.0, -9.5 1533.7 C 62.7 1308.3, 126.3 1303.8, 309.1 1183.9 C 491.9 1063.9, 397.8 1249.1, 605.6 1290.7 C 813.5 1332.4, 774.2 1240.7, 909.9 1424.4 C 1045.5 1608.1, 916.8 1482.2, 916.8 1722.0 Z" fill="#A9EAF6" opacity="0.30" filter="url(#blur_ambient_13_7326)"/>
  <path d="M 634.8 2449.0 C 634.8 2702.8, 635.1 2613.2, 547.8 2807.7 C 460.4 3002.1, 473.1 2994.2, 339.3 3038.3 C 205.4 3082.3, 248.6 3041.7, 130.9 2914.8 C 13.2 2787.9, 0.9 2903.0, -45.5 2664.5 C -92.0 2426.0, -35.2 2472.2, 11.2 2233.7 C 57.7 1995.2, 27.9 2047.8, 145.6 1920.9 C 263.3 1794.0, 199.4 1857.6, 333.2 1901.7 C 467.0 1945.7, 470.1 1910.1, 557.5 2104.5 C 644.8 2298.9, 634.8 2195.2, 634.8 2449.0 Z" fill="#FFECEF" opacity="0.24" filter="url(#blur_ambient_13_7326)"/>
  <path d="M 1531.3 17.0 C 1531.3 148.0, 1641.1 121.4, 1544.5 221.8 C 1447.9 322.1, 1459.9 298.8, 1311.9 321.6 C 1163.9 344.3, 1186.2 330.2, 1056.1 264.7 C 925.9 199.2, 946.9 235.5, 895.5 112.5 C 844.1 -10.6, 845.3 43.8, 896.7 -79.3 C 948.1 -202.4, 938.1 -204.0, 1068.3 -269.4 C 1198.5 -334.9, 1162.5 -329.4, 1310.6 -306.6 C 1458.6 -283.9, 1403.8 -248.0, 1500.4 -147.7 C 1597.0 -47.4, 1531.3 -114.0, 1531.3 17.0 Z" fill="#EEE5FF" opacity="0.35" filter="url(#blur_ambient_13_7326)"/>
  <path d="M 467.4 1448.0 C 467.4 1751.3, 481.1 1678.3, 330.4 1910.7 C 179.7 2143.0, 209.5 2109.3, -21.4 2161.9 C -252.3 2214.6, -144.6 2186.8, -347.6 2035.2 C -550.7 1883.5, -446.2 1929.7, -526.4 1644.7 C -606.6 1359.7, -609.2 1531.7, -529.1 1246.7 C -448.9 961.6, -610.8 933.0, -407.7 781.4 C -204.7 629.7, -260.8 636.7, -29.9 689.4 C 201.0 742.1, 86.4 781.4, 237.1 1013.7 C 387.8 1246.1, 467.4 1144.7, 467.4 1448.0 Z" fill="#EEE5FF" opacity="0.17" filter="url(#blur_ambient_13_7326)"/>
  <path d="M 567.4 2163.0 C 567.4 2423.1, 573.2 2380.2, 450.3 2579.4 C 327.4 2778.7, 337.9 2623.8, 149.6 2668.9 C -38.8 2714.1, 55.8 2755.8, -109.8 2625.8 C -275.5 2495.7, -226.8 2626.8, -292.2 2382.4 C -357.6 2138.0, -338.1 2217.0, -272.7 1972.6 C -207.3 1728.2, -267.7 1742.4, -102.1 1612.4 C 63.6 1482.3, -29.8 1528.6, 158.5 1573.7 C 346.9 1618.9, 302.5 1630.8, 425.5 1830.0 C 548.4 2029.2, 567.4 1902.9, 567.4 2163.0 Z" fill="#A9EAF6" opacity="0.29" filter="url(#blur_ambient_13_7326)"/>
  <path d="M 1007.5 2730.0 C 1007.5 2955.9, 1045.3 2911.4, 932.0 3084.4 C 818.6 3257.5, 912.3 3131.4, 738.5 3170.6 C 564.8 3209.9, 641.1 3302.5, 488.3 3189.6 C 335.6 3076.6, 302.8 3124.1, 242.5 2911.8 C 182.2 2699.5, 176.9 2762.0, 237.2 2549.7 C 297.6 2337.5, 328.7 2343.7, 481.5 2230.7 C 634.3 2117.8, 563.5 2260.6, 737.2 2299.9 C 910.9 2339.1, 802.3 2252.0, 915.7 2425.1 C 1029.1 2598.1, 1007.5 2504.1, 1007.5 2730.0 Z" fill="#B6F5D1" opacity="0.33" filter="url(#blur_ambient_13_7326)"/>
  <path d="M 1522.4 2904.0 C 1522.4 3285.2, 1587.2 3035.5, 1471.4 3343.9 C 1355.5 3652.2, 1396.0 3673.6, 1208.5 3791.3 C 1021.1 3909.1, 1119.6 3902.2, 932.1 3784.4 C 744.7 3666.6, 814.5 3752.1, 698.6 3443.7 C 582.8 3135.4, 588.7 3285.2, 588.7 2904.0 C 588.7 2522.8, 584.3 2745.0, 700.2 2436.7 C 816.0 2128.3, 763.7 2198.6, 951.2 2080.8 C 1138.6 1963.1, 1002.0 1893.0, 1189.4 2010.7 C 1376.9 2128.5, 1300.0 2110.4, 1415.9 2418.8 C 1531.8 2727.1, 1522.4 2522.8, 1522.4 2904.0 Z" fill="#EEE5FF" opacity="0.12" stroke="#EEE5FF" stroke-opacity="0.46" stroke-width="3" filter="url(#soft_ambient_13_7326)"/>
  <path d="M 1522.4 2904.0 C 1522.4 3285.2, 1587.2 3035.5, 1471.4 3343.9 C 1355.5 3652.2, 1396.0 3673.6, 1208.5 3791.3 C 1021.1 3909.1, 1119.6 3902.2, 932.1 3784.4 C 744.7 3666.6, 814.5 3752.1, 698.6 3443.7 C 582.8 3135.4, 588.7 3285.2, 588.7 2904.0 C 588.7 2522.8, 584.3 2745.0, 700.2 2436.7 C 816.0 2128.3, 763.7 2198.6, 951.2 2080.8 C 1138.6 1963.1, 1002.0 1893.0, 1189.4 2010.7 C 1376.9 2128.5, 1300.0 2110.4, 1415.9 2418.8 C 1531.8 2727.1, 1522.4 2522.8, 1522.4 2904.0 Z" fill="none" stroke="#FFFFFF" stroke-opacity="0.22" stroke-width="1.2"/>
  <path d="M 1016.8 -293.0 C 1016.8 -89.6, 1078.5 -156.7, 918.4 7.9 C 758.4 172.5, 819.8 62.9, 560.9 125.7 C 301.9 188.6, 430.9 212.2, 172.0 149.4 C -87.0 86.5, -32.9 116.3, -192.9 -48.2 C -352.9 -212.8, -205.2 -89.6, -205.2 -293.0 C -205.2 -496.4, -244.8 -357.6, -84.8 -522.2 C 75.2 -686.7, -85.6 -675.2, 173.3 -738.1 C 432.2 -800.9, 279.3 -827.8, 538.2 -764.9 C 797.1 -702.1, 698.9 -737.5, 858.9 -572.9 C 1019.0 -408.4, 1016.8 -496.4, 1016.8 -293.0 Z" fill="#A9EAF6" opacity="0.12" stroke="#FFFFFF" stroke-opacity="0.46" stroke-width="3" filter="url(#soft_ambient_13_7326)"/>
  <path d="M 1016.8 -293.0 C 1016.8 -89.6, 1078.5 -156.7, 918.4 7.9 C 758.4 172.5, 819.8 62.9, 560.9 125.7 C 301.9 188.6, 430.9 212.2, 172.0 149.4 C -87.0 86.5, -32.9 116.3, -192.9 -48.2 C -352.9 -212.8, -205.2 -89.6, -205.2 -293.0 C -205.2 -496.4, -244.8 -357.6, -84.8 -522.2 C 75.2 -686.7, -85.6 -675.2, 173.3 -738.1 C 432.2 -800.9, 279.3 -827.8, 538.2 -764.9 C 797.1 -702.1, 698.9 -737.5, 858.9 -572.9 C 1019.0 -408.4, 1016.8 -496.4, 1016.8 -293.0 Z" fill="none" stroke="#FFFFFF" stroke-opacity="0.22" stroke-width="1.2"/>
  <path d="M 725.0 -40.0 C 725.0 201.7, 786.8 40.4, 638.9 235.9 C 491.1 431.4, 574.8 327.6, 335.5 402.2 C 96.3 476.9, 228.9 494.4, -10.3 419.7 C -249.5 345.1, -211.4 509.1, -359.3 313.6 C -507.1 118.1, -353.6 201.7, -353.6 -40.0 C -353.6 -281.6, -422.2 -202.4, -274.4 -397.9 C -126.5 -593.4, -279.3 -438.8, -40.0 -513.4 C 199.2 -588.1, 92.9 -674.1, 332.1 -599.5 C 571.4 -524.8, 506.3 -543.3, 654.1 -347.8 C 802.0 -152.3, 725.0 -281.6, 725.0 -40.0 Z" fill="#FDFFFF" opacity="0.12" stroke="#FFFFFF" stroke-opacity="0.46" stroke-width="3" filter="url(#soft_ambient_13_7326)"/>
  <path d="M 725.0 -40.0 C 725.0 201.7, 786.8 40.4, 638.9 235.9 C 491.1 431.4, 574.8 327.6, 335.5 402.2 C 96.3 476.9, 228.9 494.4, -10.3 419.7 C -249.5 345.1, -211.4 509.1, -359.3 313.6 C -507.1 118.1, -353.6 201.7, -353.6 -40.0 C -353.6 -281.6, -422.2 -202.4, -274.4 -397.9 C -126.5 -593.4, -279.3 -438.8, -40.0 -513.4 C 199.2 -588.1, 92.9 -674.1, 332.1 -599.5 C 571.4 -524.8, 506.3 -543.3, 654.1 -347.8 C 802.0 -152.3, 725.0 -281.6, 725.0 -40.0 Z" fill="none" stroke="#FFFFFF" stroke-opacity="0.22" stroke-width="1.2"/>
  <path d="M 838.3 1369.0 C 838.3 1728.5, 902.6 1554.7, 747.3 1845.5 C 592.1 2136.4, 670.7 1960.8, 419.5 2071.9 C 168.3 2183.0, 295.1 2207.0, 43.9 2095.9 C -207.4 1984.8, -37.1 2093.1, -192.3 1802.2 C -347.6 1511.3, -390.8 1728.5, -390.8 1369.0 C -390.8 1009.5, -361.7 1169.4, -206.4 878.5 C -51.1 587.6, -196.2 723.2, 55.0 612.1 C 306.2 501.0, 171.9 548.8, 423.1 659.9 C 674.3 771.0, 603.6 666.4, 758.8 957.3 C 914.1 1248.1, 838.3 1009.5, 838.3 1369.0 Z" fill="#EEE5FF" opacity="0.12" stroke="#FFFFFF" stroke-opacity="0.46" stroke-width="3" filter="url(#soft_ambient_13_7326)"/>
  <path d="M 838.3 1369.0 C 838.3 1728.5, 902.6 1554.7, 747.3 1845.5 C 592.1 2136.4, 670.7 1960.8, 419.5 2071.9 C 168.3 2183.0, 295.1 2207.0, 43.9 2095.9 C -207.4 1984.8, -37.1 2093.1, -192.3 1802.2 C -347.6 1511.3, -390.8 1728.5, -390.8 1369.0 C -390.8 1009.5, -361.7 1169.4, -206.4 878.5 C -51.1 587.6, -196.2 723.2, 55.0 612.1 C 306.2 501.0, 171.9 548.8, 423.1 659.9 C 674.3 771.0, 603.6 666.4, 758.8 957.3 C 914.1 1248.1, 838.3 1009.5, 838.3 1369.0 Z" fill="none" stroke="#FFFFFF" stroke-opacity="0.22" stroke-width="1.2"/>
  <path d="M 1395.4 1505.0 C 1395.4 1671.5, 1477.6 1604.6, 1306.5 1739.3 C 1135.3 1874.0, 1302.1 1818.1, 1025.2 1869.6 C 748.3 1921.0, 905.1 1885.3, 628.2 1833.9 C 351.3 1782.4, 461.1 1875.0, 289.9 1740.3 C 118.8 1605.6, 104.7 1671.5, 104.7 1505.0 C 104.7 1338.5, 94.2 1408.8, 265.3 1274.1 C 436.4 1139.4, 314.6 1186.6, 591.5 1135.2 C 868.4 1083.7, 745.7 1104.9, 1022.6 1156.4 C 1299.5 1207.8, 1128.1 1161.5, 1299.3 1296.2 C 1470.4 1430.9, 1395.4 1338.5, 1395.4 1505.0 Z" fill="#D6C2FF" opacity="0.12" stroke="#FFFFFF" stroke-opacity="0.46" stroke-width="3" filter="url(#soft_ambient_13_7326)"/>
  <path d="M 1395.4 1505.0 C 1395.4 1671.5, 1477.6 1604.6, 1306.5 1739.3 C 1135.3 1874.0, 1302.1 1818.1, 1025.2 1869.6 C 748.3 1921.0, 905.1 1885.3, 628.2 1833.9 C 351.3 1782.4, 461.1 1875.0, 289.9 1740.3 C 118.8 1605.6, 104.7 1671.5, 104.7 1505.0 C 104.7 1338.5, 94.2 1408.8, 265.3 1274.1 C 436.4 1139.4, 314.6 1186.6, 591.5 1135.2 C 868.4 1083.7, 745.7 1104.9, 1022.6 1156.4 C 1299.5 1207.8, 1128.1 1161.5, 1299.3 1296.2 C 1470.4 1430.9, 1395.4 1338.5, 1395.4 1505.0 Z" fill="none" stroke="#FFFFFF" stroke-opacity="0.22" stroke-width="1.2"/>
  <path d="M 467.4 353.0 C 467.4 535.7, 378.1 437.3, 220.2 585.1 C 62.3 732.9, 243.7 630.5, -11.8 686.9 C -267.3 743.4, -163.1 770.5, -418.6 714.0 C -674.1 657.6, -601.3 769.0, -759.2 621.2 C -917.1 473.4, -784.4 535.7, -784.4 353.0 C -784.4 170.3, -830.3 244.9, -672.4 97.1 C -514.4 -50.8, -651.2 14.1, -395.7 -42.3 C -140.2 -98.8, -263.0 -113.9, -7.5 -57.4 C 248.0 -1.0, 170.0 -26.4, 327.9 121.4 C 485.8 269.2, 467.4 170.3, 467.4 353.0 Z" fill="#FDFFFF" opacity="0.12" stroke="#FFFFFF" stroke-opacity="0.46" stroke-width="3" filter="url(#soft_ambient_13_7326)"/>
  <path d="M 467.4 353.0 C 467.4 535.7, 378.1 437.3, 220.2 585.1 C 62.3 732.9, 243.7 630.5, -11.8 686.9 C -267.3 743.4, -163.1 770.5, -418.6 714.0 C -674.1 657.6, -601.3 769.0, -759.2 621.2 C -917.1 473.4, -784.4 535.7, -784.4 353.0 C -784.4 170.3, -830.3 244.9, -672.4 97.1 C -514.4 -50.8, -651.2 14.1, -395.7 -42.3 C -140.2 -98.8, -263.0 -113.9, -7.5 -57.4 C 248.0 -1.0, 170.0 -26.4, 327.9 121.4 C 485.8 269.2, 467.4 170.3, 467.4 353.0 Z" fill="none" stroke="#FFFFFF" stroke-opacity="0.22" stroke-width="1.2"/>
  <path d="M -100.0 -41.9 Q 133.3 41.2, 366.7 222.5 Q 600.0 146.5, 833.3 -95.2 Q 1066.7 87.4, 1300.0 112.8" fill="none" stroke="#FFFFFF" stroke-opacity="0.38" stroke-width="4" filter="url(#soft_ambient_13_7326)"/>
  <path d="M -100.0 -41.9 Q 133.3 41.2, 366.7 222.5 Q 600.0 146.5, 833.3 -95.2 Q 1066.7 87.4, 1300.0 112.8" fill="none" stroke="#A9EAF6" stroke-opacity="0.18" stroke-width="2"/>
  <path d="M -100.0 548.1 Q 133.3 580.4, 366.7 645.4 Q 600.0 730.8, 833.3 704.1 Q 1066.7 544.6, 1300.0 379.2" fill="none" stroke="#FFFFFF" stroke-opacity="0.38" stroke-width="4" filter="url(#soft_ambient_13_7326)"/>
  <path d="M -100.0 548.1 Q 133.3 580.4, 366.7 645.4 Q 600.0 730.8, 833.3 704.1 Q 1066.7 544.6, 1300.0 379.2" fill="none" stroke="#FFC7DA" stroke-opacity="0.18" stroke-width="2"/>
  <path d="M -100.0 2044.4 Q 133.3 1858.7, 366.7 1768.5 Q 600.0 1618.4, 833.3 1498.4 Q 1066.7 1691.3, 1300.0 1790.3" fill="none" stroke="#FFFFFF" stroke-opacity="0.38" stroke-width="4" filter="url(#soft_ambient_13_7326)"/>
  <path d="M -100.0 2044.4 Q 133.3 1858.7, 366.7 1768.5 Q 600.0 1618.4, 833.3 1498.4 Q 1066.7 1691.3, 1300.0 1790.3" fill="none" stroke="#D6C2FF" stroke-opacity="0.18" stroke-width="2"/>
  <path d="M -100.0 2263.6 Q 133.3 2465.4, 366.7 2733.7 Q 600.0 2830.7, 833.3 2701.0 Q 1066.7 2330.7, 1300.0 2166.9" fill="none" stroke="#FFFFFF" stroke-opacity="0.38" stroke-width="4" filter="url(#soft_ambient_13_7326)"/>
  <path d="M -100.0 2263.6 Q 133.3 2465.4, 366.7 2733.7 Q 600.0 2830.7, 833.3 2701.0 Q 1066.7 2330.7, 1300.0 2166.9" fill="none" stroke="#FFC7DA" stroke-opacity="0.18" stroke-width="2"/>
  <path d="M -100.0 603.0 Q 133.3 480.2, 366.7 282.1 Q 600.0 276.6, 833.3 594.3 Q 1066.7 611.3, 1300.0 286.2" fill="none" stroke="#FFFFFF" stroke-opacity="0.38" stroke-width="4" filter="url(#soft_ambient_13_7326)"/>
  <path d="M -100.0 603.0 Q 133.3 480.2, 366.7 282.1 Q 600.0 276.6, 833.3 594.3 Q 1066.7 611.3, 1300.0 286.2" fill="none" stroke="#A9EAF6" stroke-opacity="0.18" stroke-width="2"/>
  <circle cx="236" cy="2286" r="200" fill="url(#orb_ambient_13_7326)" opacity="0.36"/>
  <circle cx="236" cy="2286" r="200" fill="#DDEEFF" opacity="0.08"/>
  <circle cx="236" cy="2286" r="200" fill="none" stroke="#FFFFFF" stroke-opacity="0.56" stroke-width="3"/>
  <ellipse cx="180.0" cy="2214.0" rx="36.0" ry="16.0" fill="#FFFFFF" opacity="0.42" transform="rotate(-22 180.0 2214.0)"/>
  <circle cx="874" cy="2661" r="88" fill="url(#orb_ambient_13_7326)" opacity="0.36"/>
  <circle cx="874" cy="2661" r="88" fill="#B6F5D1" opacity="0.08"/>
  <circle cx="874" cy="2661" r="88" fill="none" stroke="#FFFFFF" stroke-opacity="0.56" stroke-width="3"/>
  <ellipse cx="849.4" cy="2629.3" rx="15.8" ry="7.0" fill="#FFFFFF" opacity="0.42" transform="rotate(-22 849.4 2629.3)"/>
  <circle cx="734" cy="929" r="88" fill="url(#orb_ambient_13_7326)" opacity="0.36"/>
  <circle cx="734" cy="929" r="88" fill="#B6F5D1" opacity="0.08"/>
  <circle cx="734" cy="929" r="88" fill="none" stroke="#FFFFFF" stroke-opacity="0.56" stroke-width="3"/>
  <ellipse cx="709.4" cy="897.3" rx="15.8" ry="7.0" fill="#FFFFFF" opacity="0.42" transform="rotate(-22 709.4 897.3)"/>
  <circle cx="1147" cy="2334" r="194" fill="url(#orb_ambient_13_7326)" opacity="0.21"/>
  <circle cx="1147" cy="2334" r="194" fill="#FDFFFF" opacity="0.08"/>
  <circle cx="1147" cy="2334" r="194" fill="none" stroke="#FFFFFF" stroke-opacity="0.56" stroke-width="3"/>
  <ellipse cx="1092.7" cy="2264.2" rx="34.9" ry="15.5" fill="#FFFFFF" opacity="0.42" transform="rotate(-22 1092.7 2264.2)"/>
  <circle cx="402" cy="2512" r="289" fill="url(#orb_ambient_13_7326)" opacity="0.23"/>
  <circle cx="402" cy="2512" r="289" fill="#A9EAF6" opacity="0.08"/>
  <circle cx="402" cy="2512" r="289" fill="none" stroke="#FFFFFF" stroke-opacity="0.56" stroke-width="3"/>
  <ellipse cx="321.1" cy="2408.0" rx="52.0" ry="23.1" fill="#FFFFFF" opacity="0.42" transform="rotate(-22 321.1 2408.0)"/>
  <circle cx="1236" cy="1742" r="248" fill="url(#orb_ambient_13_7326)" opacity="0.26"/>
  <circle cx="1236" cy="1742" r="248" fill="#FFECEF" opacity="0.08"/>
  <circle cx="1236" cy="1742" r="248" fill="none" stroke="#FFFFFF" stroke-opacity="0.56" stroke-width="3"/>
  <ellipse cx="1166.6" cy="1652.7" rx="44.6" ry="19.8" fill="#FFFFFF" opacity="0.42" transform="rotate(-22 1166.6 1652.7)"/>
  <circle cx="1151" cy="2417" r="3" fill="#FFFFFF" opacity="0.30"/>
  <circle cx="897" cy="1395" r="2" fill="#FFFFFF" opacity="0.32"/>
  <circle cx="877" cy="1918" r="4" fill="#FFFFFF" opacity="0.54"/>
  <circle cx="706" cy="54" r="4" fill="#FFFFFF" opacity="0.51"/>
  <circle cx="235" cy="2194" r="4" fill="#FFFFFF" opacity="0.68"/>
  <circle cx="1104" cy="919" r="5" fill="#FFFFFF" opacity="0.43"/>
  <circle cx="303" cy="1184" r="3" fill="#FFFFFF" opacity="0.42"/>
  <circle cx="323" cy="2156" r="3" fill="#FFFFFF" opacity="0.71"/>
  <circle cx="972" cy="2161" r="7" fill="#FFFFFF" opacity="0.48"/>
  <circle cx="971" cy="1595" r="7" fill="#FFFFFF" opacity="0.61"/>
  <circle cx="654" cy="292" r="7" fill="#FFFFFF" opacity="0.40"/>
  <circle cx="612" cy="1813" r="4" fill="#FFFFFF" opacity="0.68"/>
  <circle cx="577" cy="2208" r="2" fill="#FFFFFF" opacity="0.48"/>
  <circle cx="646" cy="1619" r="5" fill="#FFFFFF" opacity="0.57"/>
  <circle cx="1013" cy="675" r="5" fill="#FFFFFF" opacity="0.39"/>
  <circle cx="248" cy="919" r="7" fill="#FFFFFF" opacity="0.47"/>
  <circle cx="581" cy="2293" r="7" fill="#FFFFFF" opacity="0.67"/>
  <rect width="1200" height="2600" fill="#FFFFFF" opacity="0.08"/>
  <rect width="1200" height="2600" filter="url(#grain_ambient_13_7326)" opacity="0.7"/>
</svg>
