<svg xmlns="http://www.w3.org/2000/svg" width="1200" height="2600" viewBox="0 0 1200 2600" preserveAspectRatio="xMidYMid slice">
  <defs>
    <linearGradient id="bg_ambient_09_3465" x1="0" y1="0" x2="1" y2="1">
      <stop offset="0%" stop-color="#EEE5FF"/>
      <stop offset="48%" stop-color="#DFFCED"/>
      <stop offset="100%" stop-color="#FDFFFF"/>
    </linearGradient>
    <radialGradient id="orb_ambient_09_3465" cx="35%" cy="30%" r="70%">
      <stop offset="0%" stop-color="#FFFFFF" stop-opacity="0.85"/>
      <stop offset="42%" stop-color="#FFFFFF" stop-opacity="0.20"/>
      <stop offset="100%" stop-color="#FFFFFF" stop-opacity="0.02"/>
    </radialGradient>
    <filter id="blur_ambient_09_3465" x="-30%" y="-30%" width="160%" height="160%">
      <feGaussianBlur stdDeviation="72"/>
    </filter>
    <filter id="soft_ambient_09_3465" x="-20%" y="-20%" width="140%" height="140%">
      <feGaussianBlur stdDeviation="10"/>
    </filter>
    <filter id="grain_ambient_09_3465">
      <feTurbulence type="fractalNoise" baseFrequency="0.85" numOctaves="2" stitchTiles="stitch"/>
      <feColorMatrix type="saturate" values="0"/>
      <feComponentTransfer>
        <feFuncA type="table" tableValues="0 0.035"/>
      </feComponentTransfer>
    </filter>
  </defs>
  <rect width="1200" height="2600" fill="url(#bg_ambient_09_3465)"/>
  <path d="M 368.8 289.0 C 368.8 434.4, 336.9 417.8, 211.1 529.2 C 85.2 640.5, 152.9 567.0, -39.9 592.3 C -232.7 617.5, -184.1 677.5, -353.7 604.9 C -523.2 532.2, -473.5 538.0, -540.5 401.4 C -607.4 264.8, -564.8 322.7, -497.8 186.1 C -430.9 49.5, -502.3 47.4, -332.7 -25.3 C -163.2 -97.9, -236.1 -12.4, -43.4 12.8 C 149.4 38.1, 37.7 -61.5, 163.5 49.8 C 289.3 161.2, 368.8 143.7, 368.8 289.0 Z" fill="#A9EAF6" opacity="0.24" filter="url(#blur_ambient_09_3465)"/>
  <path d="M 677.7 630.0 C 677.7 831.6, 735.2 791.0, 621.5 945.4 C 507.9 1099.8, 539.6 1026.3, 365.5 1061.3 C 191.3 1096.3, 262.0 1183.1, 108.8 1082.3 C -44.3 981.5, -14.0 987.4, -74.5 798.0 C -135.0 608.5, -164.5 692.3, -104.0 502.9 C -43.5 313.4, -56.3 292.9, 96.9 192.1 C 250.0 91.3, 184.0 90.3, 358.1 125.4 C 532.3 160.4, 534.6 183.2, 648.3 337.6 C 762.0 492.0, 677.7 428.4, 677.7 630.0 Z" fill="#A9EAF6" opacity="0.34" filter="url(#blur_ambient_09_3465)"/>
  <path d="M 736.8 151.0 C 736.8 380.5, 773.6 264.7, 654.7 440.5 C 535.8 616.3, 601.7 646.2, 419.6 686.0 C 237.4 725.9, 284.1 767.0, 123.9 652.2 C -36.3 537.5, 53.2 572.5, -10.1 356.8 C -73.3 141.1, -159.2 186.0, -96.0 -29.6 C -32.7 -245.3, -42.0 -206.4, 118.2 -321.1 C 278.4 -435.9, 255.7 -424.3, 437.9 -384.4 C 620.0 -344.6, 525.7 -305.0, 644.6 -129.2 C 763.5 46.6, 736.8 -78.5, 736.8 151.0 Z" fill="#FDFFFF" opacity="0.25" filter="url(#blur_ambient_09_3465)"/>
  <path d="M 421.3 2044.0 C 421.3 2358.6, 409.9 2180.7, 339.6 2421.6 C 269.4 2662.6, 311.1 2738.7, 203.4 2793.3 C 95.7 2847.9, 155.7 2914.4, 61.0 2757.1 C -33.7 2599.8, -27.3 2586.2, -64.7 2290.6 C -102.1 1995.0, -102.4 2067.7, -65.0 1772.1 C -27.6 1476.5, -55.3 1547.6, 39.4 1390.3 C 134.1 1233.1, 104.1 1303.2, 211.8 1357.8 C 319.5 1412.5, 254.7 1407.2, 324.9 1648.2 C 395.2 1889.2, 421.3 1729.5, 421.3 2044.0 Z" fill="#FFECEF" opacity="0.31" filter="url(#blur_ambient_09_3465)"/>
  <path d="M 741.9 -116.0 C 741.9 159.9, 788.2 -0.2, 628.3 211.1 C 468.3 422.4, 595.1 489.5, 350.0 537.4 C 105.0 585.3, 203.4 569.3, -12.1 431.4 C -227.7 293.5, -114.8 327.9, -199.9 68.7 C -285.0 -190.5, -303.2 -91.9, -218.1 -351.1 C -133.0 -610.3, -266.5 -591.8, -51.0 -729.7 C 164.5 -867.6, 115.7 -828.2, 360.8 -780.3 C 605.8 -732.4, 473.6 -735.1, 633.6 -523.8 C 793.5 -312.5, 741.9 -391.9, 741.9 -116.0 Z" fill="#DFFCED" opacity="0.23" filter="url(#blur_ambient_09_3465)"/>
  <path d="M 1244.1 1701.0 C 1244.1 1858.0, 1255.5 1800.8, 1148.5 1921.1 C 1041.5 2041.4, 1094.6 1975.9, 930.6 2003.2 C 766.6 2030.5, 859.4 2032.6, 715.2 1954.1 C 571.0 1875.6, 631.0 1961.4, 574.1 1813.9 C 517.1 1666.3, 476.8 1720.4, 533.8 1572.8 C 590.7 1425.2, 553.2 1451.1, 697.3 1372.6 C 841.5 1294.1, 776.0 1303.3, 939.9 1330.6 C 1103.9 1357.8, 1083.0 1353.2, 1190.0 1473.5 C 1297.0 1593.8, 1244.1 1544.0, 1244.1 1701.0 Z" fill="#DFF8FF" opacity="0.34" filter="url(#blur_ambient_09_3465)"/>
  <path d="M 107.9 1506.0 C 107.9 1768.8, 80.6 1615.9, 6.2 1817.2 C -68.1 2018.5, -6.0 2018.4, -119.9 2064.0 C -233.8 2109.7, -184.9 2188.3, -285.0 2056.9 C -385.2 1925.5, -405.1 1983.1, -444.7 1736.1 C -484.2 1489.2, -466.6 1544.1, -427.0 1297.2 C -387.5 1050.2, -382.3 1083.2, -282.2 951.8 C -182.0 820.4, -241.5 913.1, -127.6 958.7 C -13.7 1004.3, -19.3 869.6, 55.0 1070.9 C 129.4 1272.2, 107.9 1243.2, 107.9 1506.0 Z" fill="#D6C2FF" opacity="0.28" filter="url(#blur_ambient_09_3465)"/>
  <path d="M 515.1 801.0 C 515.1 1058.0, 503.0 965.5, 363.9 1162.3 C 224.7 1359.2, 280.0 1328.7, 66.9 1373.3 C -146.3 1417.9, -64.0 1509.6, -251.4 1381.1 C -438.9 1252.7, -349.3 1231.5, -423.3 990.0 C -497.4 748.6, -616.4 832.0, -542.4 590.5 C -468.4 349.1, -412.9 406.8, -225.5 278.3 C -38.0 149.9, -153.3 176.8, 59.9 221.4 C 273.0 266.1, 202.4 275.2, 341.6 472.0 C 480.7 668.9, 515.1 544.0, 515.1 801.0 Z" fill="#DFF8FF" opacity="0.36" filter="url(#blur_ambient_09_3465)"/>
  <path d="M 1148.9 1536.0 C 1148.9 1784.0, 1080.1 1661.3, 921.6 1851.3 C 763.1 2041.2, 894.9 1973.5, 652.1 2016.5 C 409.2 2059.6, 507.9 2168.9, 294.4 2044.9 C 80.8 1921.0, 57.4 1931.2, -27.0 1698.2 C -111.3 1465.2, -38.6 1612.2, 45.7 1379.2 C 130.1 1146.3, 53.9 1186.6, 267.5 1062.6 C 481.1 938.7, 437.3 871.3, 680.1 914.3 C 923.0 957.4, 798.2 1039.5, 956.8 1229.5 C 1115.3 1419.4, 1148.9 1288.0, 1148.9 1536.0 Z" fill="#FDFFFF" opacity="0.19" filter="url(#blur_ambient_09_3465)"/>
  <path d="M 1197.2 1808.0 C 1197.2 1954.2, 1339.6 1915.6, 1189.8 2027.7 C 1040.0 2139.7, 1087.6 2127.8, 858.1 2153.1 C 628.5 2178.5, 688.3 2129.5, 486.4 2056.4 C 284.5 1983.2, 292.1 2042.6, 212.4 1905.1 C 132.6 1767.7, 115.8 1820.1, 195.5 1682.7 C 275.2 1545.3, 275.8 1584.4, 477.7 1511.3 C 679.5 1438.2, 611.2 1507.2, 840.7 1532.6 C 1070.3 1558.0, 976.8 1521.5, 1126.6 1633.5 C 1276.4 1745.5, 1197.2 1661.8, 1197.2 1808.0 Z" fill="#DFFCED" opacity="0.21" filter="url(#blur_ambient_09_3465)"/>
  <path d="M 309.0 -21.0 C 309.0 135.2, 362.0 101.8, 261.3 221.4 C 160.7 341.1, 236.7 316.1, 82.4 343.2 C -71.8 370.3, -18.1 358.7, -153.7 280.6 C -289.4 202.5, -306.8 249.4, -360.4 102.7 C -414.0 -44.1, -372.9 4.7, -319.4 -142.0 C -265.8 -288.7, -290.9 -283.7, -155.3 -361.7 C -19.7 -439.8, -65.0 -330.3, 89.2 -303.2 C 243.4 -276.1, 141.5 -354.5, 242.2 -234.8 C 342.8 -115.2, 309.0 -177.2, 309.0 -21.0 Z" fill="#B6F5D1" opacity="0.38" filter="url(#blur_ambient_09_3465)"/>
  <path d="M 1054.8 2224.0 C 1054.8 2462.9, 1027.3 2399.1, 955.3 2582.2 C 883.3 2765.2, 956.8 2785.0, 846.5 2826.5 C 736.1 2868.0, 764.2 2870.5, 667.2 2751.1 C 570.1 2631.6, 559.7 2614.0, 521.4 2389.5 C 483.1 2164.9, 526.8 2265.1, 565.1 2040.5 C 603.4 1816.0, 592.6 1914.8, 689.6 1795.3 C 786.7 1675.8, 731.2 1749.5, 841.5 1791.0 C 951.9 1832.5, 932.6 1724.2, 1004.6 1907.2 C 1076.6 2090.3, 1054.8 1985.0, 1054.8 2224.0 Z" fill="#DFFCED" opacity="0.25" filter="url(#blur_ambient_09_3465)"/>
  <path d="M 268.1 2596.0 C 268.1 2907.4, 305.4 2772.9, 197.5 3011.4 C 89.6 3250.0, 121.7 3256.3, -43.6 3310.4 C -208.9 3364.5, -176.9 3295.5, -322.2 3139.8 C -467.6 2984.1, -416.7 3119.7, -474.1 2827.0 C -531.6 2534.4, -549.6 2650.8, -492.2 2358.2 C -434.8 2065.6, -443.1 2160.9, -297.7 2005.2 C -152.4 1849.5, -211.6 1911.7, -46.3 1965.8 C 119.0 2019.8, 23.9 1972.0, 131.8 2210.5 C 239.7 2449.0, 268.1 2284.6, 268.1 2596.0 Z" fill="#FFECEF" opacity="0.16" filter="url(#blur_ambient_09_3465)"/>
  <path d="M 622.4 1161.0 C 622.4 1389.2, 709.5 1267.9, 541.8 1452.5 C 374.2 1637.0, 496.3 1511.6, 225.0 1582.2 C -46.3 1652.7, 93.3 1707.5, -178.0 1637.0 C -449.4 1566.5, -382.4 1654.2, -550.0 1469.7 C -717.7 1285.1, -580.9 1389.2, -580.9 1161.0 C -580.9 932.9, -692.3 1073.0, -524.6 888.5 C -356.9 703.9, -432.7 772.6, -161.4 702.1 C 109.9 631.6, -70.2 669.2, 201.2 739.7 C 472.5 810.2, 361.7 697.4, 529.4 881.9 C 697.0 1066.5, 622.4 932.9, 622.4 1161.0 Z" fill="#FFECEF" opacity="0.12" stroke="#FFFFFF" stroke-opacity="0.46" stroke-width="3" filter="url(#soft_ambient_09_3465)"/>
  <path d="M 622.4 1161.0 C 622.4 1389.2, 709.5 1267.9, 541.8 1452.5 C 374.2 1637.0, 496.3 1511.6, 225.0 1582.2 C -46.3 1652.7, 93.3 1707.5, -178.0 1637.0 C -449.4 1566.5, -382.4 1654.2, -550.0 1469.7 C -717.7 1285.1, -580.9 1389.2, -580.9 1161.0 C -580.9 932.9, -692.3 1073.0, -524.6 888.5 C -356.9 703.9, -432.7 772.6, -161.4 702.1 C 109.9 631.6, -70.2 669.2, 201.2 739.7 C 472.5 810.2, 361.7 697.4, 529.4 881.9 C 697.0 1066.5, 622.4 932.9, 622.4 1161.0 Z" fill="none" stroke="#FFFFFF" stroke-opacity="0.22" stroke-width="1.2"/>
  <path d="M 958.7 996.0 C 958.7 1271.0, 1018.3 1116.4, 932.9 1338.8 C 847.5 1561.3, 879.6 1414.2, 741.4 1499.2 C 603.1 1584.2, 685.4 1603.1, 547.1 1518.1 C 408.9 1433.1, 437.6 1540.8, 352.2 1318.4 C 266.7 1096.0, 298.4 1271.0, 298.4 996.0 C 298.4 721.1, 312.5 896.2, 397.9 673.8 C 483.3 451.3, 419.2 456.7, 557.4 371.8 C 695.6 286.8, 611.6 275.8, 749.9 360.7 C 888.1 445.7, 786.3 388.8, 871.7 611.2 C 957.2 833.7, 958.7 721.0, 958.7 996.0 Z" fill="#DDEEFF" opacity="0.12" stroke="#FFFFFF" stroke-opacity="0.46" stroke-width="3" filter="url(#soft_ambient_09_3465)"/>
  <path d="M 958.7 996.0 C 958.7 1271.0, 1018.3 1116.4, 932.9 1338.8 C 847.5 1561.3, 879.6 1414.2, 741.4 1499.2 C 603.1 1584.2, 685.4 1603.1, 547.1 1518.1 C 408.9 1433.1, 437.6 1540.8, 352.2 1318.4 C 266.7 1096.0, 298.4 1271.0, 298.4 996.0 C 298.4 721.1, 312.5 896.2, 397.9 673.8 C 483.3 451.3, 419.2 456.7, 557.4 371.8 C 695.6 286.8, 611.6 275.8, 749.9 360.7 C 888.1 445.7, 786.3 388.8, 871.7 611.2 C 957.2 833.7, 958.7 721.0, 958.7 996.0 Z" fill="none" stroke="#FFFFFF" stroke-opacity="0.22" stroke-width="1.2"/>
  <path d="M 753.1 2149.0 C 753.1 2425.3, 751.6 2301.6, 632.8 2525.2 C 514.1 2748.7, 631.8 2670.2, 439.6 2755.6 C 247.5 2841.0, 355.7 2859.1, 163.5 2773.7 C -28.6 2688.3, 67.3 2703.1, -51.5 2479.6 C -170.2 2256.1, -163.3 2425.3, -163.3 2149.0 C -163.3 1872.7, -227.5 1999.3, -108.8 1775.8 C 10.0 1552.3, -18.1 1714.7, 174.0 1629.3 C 366.2 1543.9, 266.9 1438.6, 459.1 1524.0 C 651.3 1609.4, 568.2 1594.9, 687.0 1818.5 C 805.8 2042.0, 753.1 1872.7, 753.1 2149.0 Z" fill="#EEE5FF" opacity="0.12" stroke="#EEE5FF" stroke-opacity="0.46" stroke-width="3" filter="url(#soft_ambient_09_3465)"/>
  <path d="M 753.1 2149.0 C 753.1 2425.3, 751.6 2301.6, 632.8 2525.2 C 514.1 2748.7, 631.8 2670.2, 439.6 2755.6 C 247.5 2841.0, 355.7 2859.1, 163.5 2773.7 C -28.6 2688.3, 67.3 2703.1, -51.5 2479.6 C -170.2 2256.1, -163.3 2425.3, -163.3 2149.0 C -163.3 1872.7, -227.5 1999.3, -108.8 1775.8 C 10.0 1552.3, -18.1 1714.7, 174.0 1629.3 C 366.2 1543.9, 266.9 1438.6, 459.1 1524.0 C 651.3 1609.4, 568.2 1594.9, 687.0 1818.5 C 805.8 2042.0, 753.1 1872.7, 753.1 2149.0 Z" fill="none" stroke="#FFFFFF" stroke-opacity="0.22" stroke-width="1.2"/>
  <path d="M 1086.9 1416.0 C 1086.9 1726.5, 1145.3 1595.1, 1056.9 1846.3 C 968.6 2097.5, 986.3 1906.2, 843.4 2002.2 C 700.5 2098.1, 803.3 2116.1, 660.4 2020.2 C 517.4 1924.2, 560.3 2023.5, 472.0 1772.3 C 383.7 1521.1, 388.0 1726.5, 388.0 1416.0 C 388.0 1105.5, 428.3 1274.9, 516.6 1023.7 C 604.9 772.5, 510.0 866.5, 652.9 770.5 C 795.9 674.6, 725.6 594.9, 868.5 690.8 C 1011.5 786.8, 927.1 703.5, 1015.4 954.7 C 1103.7 1205.9, 1086.9 1105.5, 1086.9 1416.0 Z" fill="#FDFFFF" opacity="0.12" stroke="#FFFFFF" stroke-opacity="0.46" stroke-width="3" filter="url(#soft_ambient_09_3465)"/>
  <path d="M 1086.9 1416.0 C 1086.9 1726.5, 1145.3 1595.1, 1056.9 1846.3 C 968.6 2097.5, 986.3 1906.2, 843.4 2002.2 C 700.5 2098.1, 803.3 2116.1, 660.4 2020.2 C 517.4 1924.2, 560.3 2023.5, 472.0 1772.3 C 383.7 1521.1, 388.0 1726.5, 388.0 1416.0 C 388.0 1105.5, 428.3 1274.9, 516.6 1023.7 C 604.9 772.5, 510.0 866.5, 652.9 770.5 C 795.9 674.6, 725.6 594.9, 868.5 690.8 C 1011.5 786.8, 927.1 703.5, 1015.4 954.7 C 1103.7 1205.9, 1086.9 1105.5, 1086.9 1416.0 Z" fill="none" stroke="#FFFFFF" stroke-opacity="0.22" stroke-width="1.2"/>
  <path d="M -100.0 -359.2 Q 133.3 -406.4, 366.7 0.9 Q 600.0 167.1, 833.3 -59.9 Q 1066.7 -388.6, 1300.0 -325.7" fill="none" stroke="#FFFFFF" stroke-opacity="0.38" stroke-width="4" filter="url(#soft_ambient_09_3465)"/>
  <path d="M -100.0 -359.2 Q 133.3 -406.4, 366.7 0.9 Q 600.0 167.1, 833.3 -59.9 Q 1066.7 -388.6, 1300.0 -325.7" fill="none" stroke="#FFC7DA" stroke-opacity="0.18" stroke-width="2"/>
  <path d="M -100.0 1425.6 Q 133.3 1143.4, 366.7 1062.3 Q 600.0 1121.3, 833.3 1124.2 Q 1066.7 1300.9, 1300.0 1383.3" fill="none" stroke="#FFFFFF" stroke-opacity="0.38" stroke-width="4" filter="url(#soft_ambient_09_3465)"/>
  <path d="M -100.0 1425.6 Q 133.3 1143.4, 366.7 1062.3 Q 600.0 1121.3, 833.3 1124.2 Q 1066.7 1300.9, 1300.0 1383.3" fill="none" stroke="#FFC7DA" stroke-opacity="0.18" stroke-width="2"/>
  <path d="M -100.0 345.2 Q 133.3 308.6, 366.7 301.8 Q 600.0 545.5, 833.3 457.1 Q 1066.7 327.1, 1300.0 211.8" fill="none" stroke="#FFFFFF" stroke-opacity="0.38" stroke-width="4" filter="url(#soft_ambient_09_3465)"/>
  <path d="M -100.0 345.2 Q 133.3 308.6, 366.7 301.8 Q 600.0 545.5, 833.3 457.1 Q 1066.7 327.1, 1300.0 211.8" fill="none" stroke="#FFC7DA" stroke-opacity="0.18" stroke-width="2"/>
  <path d="M -100.0 -33.5 Q 133.3 -23.8, 366.7 86.6 Q 600.0 309.9, 833.3 229.7 Q 1066.7 -79.3, 1300.0 -208.8" fill="none" stroke="#FFFFFF" stroke-opacity="0.38" stroke-width="4" filter="url(#soft_ambient_09_3465)"/>
  <path d="M -100.0 -33.5 Q 133.3 -23.8, 366.7 86.6 Q 600.0 309.9, 833.3 229.7 Q 1066.7 -79.3, 1300.0 -208.8" fill="none" stroke="#A9EAF6" stroke-opacity="0.18" stroke-width="2"/>
  <circle cx="957" cy="606" r="143" fill="url(#orb_ambient_09_3465)" opacity="0.36"/>
  <circle cx="957" cy="606" r="143" fill="#A9EAF6" opacity="0.08"/>
  <circle cx="957" cy="606" r="143" fill="none" stroke="#FFFFFF" stroke-opacity="0.56" stroke-width="3"/>
  <ellipse cx="917.0" cy="554.5" rx="25.7" ry="11.4" fill="#FFFFFF" opacity="0.42" transform="rotate(-22 917.0 554.5)"/>
  <circle cx="26" cy="2339" r="194" fill="url(#orb_ambient_09_3465)" opacity="0.36"/>
  <circle cx="26" cy="2339" r="194" fill="#EEE5FF" opacity="0.08"/>
  <circle cx="26" cy="2339" r="194" fill="none" stroke="#FFFFFF" stroke-opacity="0.56" stroke-width="3"/>
  <ellipse cx="-28.3" cy="2269.2" rx="34.9" ry="15.5" fill="#FFFFFF" opacity="0.42" transform="rotate(-22 -28.3 2269.2)"/>
  <circle cx="708" cy="1756" r="186" fill="url(#orb_ambient_09_3465)" opacity="0.36"/>
  <circle cx="708" cy="1756" r="186" fill="#FFC7DA" opacity="0.08"/>
  <circle cx="708" cy="1756" r="186" fill="none" stroke="#FFFFFF" stroke-opacity="0.56" stroke-width="3"/>
  <ellipse cx="655.9" cy="1689.0" rx="33.5" ry="14.9" fill="#FFFFFF" opacity="0.42" transform="rotate(-22 655.9 1689.0)"/>
  <circle cx="927" cy="1572" r="142" fill="url(#orb_ambient_09_3465)" opacity="0.26"/>
  <circle cx="927" cy="1572" r="142" fill="#FFC7DA" opacity="0.08"/>
  <circle cx="927" cy="1572" r="142" fill="none" stroke="#FFFFFF" stroke-opacity="0.56" stroke-width="3"/>
  <ellipse cx="887.2" cy="1520.9" rx="25.6" ry="11.4" fill="#FFFFFF" opacity="0.42" transform="rotate(-22 887.2 1520.9)"/>
  <circle cx="971" cy="968" r="140" fill="url(#orb_ambient_09_3465)" opacity="0.17"/>
  <circle cx="971" cy="968" r="140" fill="#FFC7DA" opacity="0.08"/>
  <circle cx="971" cy="968" r="140" fill="none" stroke="#FFFFFF" stroke-opacity="0.56" stroke-width="3"/>
  <ellipse cx="931.8" cy="917.6" rx="25.2" ry="11.2" fill="#FFFFFF" opacity="0.42" transform="rotate(-22 931.8 917.6)"/>
  <circle cx="120" cy="829" r="125" fill="url(#orb_ambient_09_3465)" opacity="0.23"/>
  <circle cx="120" cy="829" r="125" fill="#D6C2FF" opacity="0.08"/>
  <circle cx="120" cy="829" r="125" fill="none" stroke="#FFFFFF" stroke-opacity="0.56" stroke-width="3"/>
  <ellipse cx="85.0" cy="784.0" rx="22.5" ry="10.0" fill="#FFFFFF" opacity="0.42" transform="rotate(-22 85.0 784.0)"/>
  <circle cx="1106" cy="1400" r="288" fill="url(#orb_ambient_09_3465)" opacity="0.27"/>
  <circle cx="1106" cy="1400" r="288" fill="#DDEEFF" opacity="0.08"/>
  <circle cx="1106" cy="1400" r="288" fill="none" stroke="#FFFFFF" stroke-opacity="0.56" stroke-width="3"/>
  <ellipse cx="1025.4" cy="1296.3" rx="51.8" ry="23.0" fill="#FFFFFF" opacity="0.42" transform="rotate(-22 1025.4 1296.3)"/>
  <circle cx="223" cy="2652" r="253" fill="url(#orb_ambient_09_3465)" opacity="0.22"/>
  <circle cx="223" cy="2652" r="253" fill="#B6F5D1" opacity="0.08"/>
  <circle cx="223" cy="2652" r="253" fill="none" stroke="#FFFFFF" stroke-opacity="0.56" stroke-width="3"/>
  <ellipse cx="152.2" cy="2560.9" rx="45.5" ry="20.2" fill="#FFFFFF" opacity="0.42" transform="rotate(-22 152.2 2560.9)"/>
  <circle cx="126" cy="1384" r="3" fill="#FFFFFF" opacity="0.40"/>
  <circle cx="748" cy="1925" r="4" fill="#FFFFFF" opacity="0.57"/>
  <circle cx="249" cy="2338" r="4" fill="#FFFFFF" opacity="0.64"/>
  <circle cx="908" cy="1161" r="2" fill="#FFFFFF" opacity="0.54"/>
  <circle cx="88" cy="2097" r="4" fill="#FFFFFF" opacity="0.36"/>
  <circle cx="423" cy="550" r="7" fill="#FFFFFF" opacity="0.63"/>
  <circle cx="327" cy="2317" r="3" fill="#FFFFFF" opacity="0.69"/>
  <circle cx="1017" cy="759" r="2" fill="#FFFFFF" opacity="0.33"/>
  <circle cx="865" cy="985" r="7" fill="#FFFFFF" opacity="0.30"/>
  <circle cx="842" cy="1128" r="5" fill="#FFFFFF" opacity="0.69"/>
  <circle cx="156" cy="2167" r="3" fill="#FFFFFF" opacity="0.59"/>
  <circle cx="1016" cy="632" r="3" fill="#FFFFFF" opacity="0.48"/>
  <circle cx="927" cy="290" r="7" fill="#FFFFFF" opacity="0.36"/>
  <circle cx="473" cy="1587" r="5" fill="#FFFFFF" opacity="0.50"/>
  <rect width="1200" height="2600" fill="#FFFFFF" opacity="0.08"/>
  <rect width="1200" height="2600" filter="url(#grain_ambient_09_3465)" opacity="0.7"/>
</svg>
