<svg xmlns="http://www.w3.org/2000/svg" width="1200" height="2600" viewBox="0 0 1200 2600" preserveAspectRatio="xMidYMid slice">
  <defs>
    <linearGradient id="bg_ambient_08_7329" x1="0" y1="0" x2="1" y2="1">
      <stop offset="0%" stop-color="#DDEEFF"/>
      <stop offset="48%" stop-color="#FDFFFF"/>
      <stop offset="100%" stop-color="#EEE5FF"/>
    </linearGradient>
    <radialGradient id="orb_ambient_08_7329" cx="35%" cy="30%" r="70%">
      <stop offset="0%" stop-color="#FFFFFF" stop-opacity="0.85"/>
      <stop offset="42%" stop-color="#FFFFFF" stop-opacity="0.20"/>
      <stop offset="100%" stop-color="#FFFFFF" stop-opacity="0.02"/>
    </radialGradient>
    <filter id="blur_ambient_08_7329" x="-30%" y="-30%" width="160%" height="160%">
      <feGaussianBlur stdDeviation="72"/>
    </filter>
    <filter id="soft_ambient_08_7329" x="-20%" y="-20%" width="140%" height="140%">
      <feGaussianBlur stdDeviation="10"/>
    </filter>
    <filter id="grain_ambient_08_7329">
      <feTurbulence type="fractalNoise" baseFrequency="0.85" numOctaves="2" stitchTiles="stitch"/>
      <feColorMatrix type="saturate" values="0"/>
      <feComponentTransfer>
        <feFuncA type="table" tableValues="0 0.035"/>
      </feComponentTransfer>
    </filter>
  </defs>
  <rect width="1200" height="2600" fill="url(#bg_ambient_08_7329)"/>
  <path d="M 1759.8 1343.0 C 1759.8 1649.9, 1738.8 1525.9, 1620.8 1761.0 C 1502.7 1996.1, 1552.4 2053.9, 1371.5 2107.2 C 1190.7 2160.5, 1291.7 2015.8, 1132.7 1862.4 C 973.7 1708.9, 943.4 1844.3, 880.6 1555.9 C 817.8 1267.5, 880.1 1356.7, 942.9 1068.3 C 1005.6 779.9, 930.0 915.3, 1089.0 761.9 C 1248.0 608.4, 1204.6 538.1, 1385.4 591.4 C 1566.2 644.7, 1543.4 683.3, 1661.4 918.4 C 1779.5 1153.5, 1759.8 1036.1, 1759.8 1343.0 Z" fill="#FFECEF" opacity="0.18" filter="url(#blur_ambient_08_7329)"/>
  <path d="M 1061.8 2658.0 C 1061.8 2954.6, 1182.7 2781.6, 1071.4 3008.8 C 960.0 3236.0, 984.2 3201.8, 813.6 3253.3 C 643.0 3304.8, 715.8 3427.2, 565.8 3279.0 C 415.7 3130.7, 409.8 3170.5, 350.5 2891.8 C 291.3 2613.2, 350.9 2678.5, 410.2 2399.8 C 469.5 2121.1, 409.4 2205.7, 559.5 2057.5 C 709.5 1909.2, 653.1 1955.8, 823.7 2007.3 C 994.3 2058.8, 944.6 2030.4, 1055.9 2257.6 C 1167.3 2484.7, 1061.8 2361.4, 1061.8 2658.0 Z" fill="#FFC7DA" opacity="0.20" filter="url(#blur_ambient_08_7329)"/>
  <path d="M 1649.7 77.0 C 1649.7 230.0, 1729.9 215.9, 1569.7 333.1 C 1409.4 450.3, 1514.4 404.8, 1268.9 431.4 C 1023.4 458.0, 1145.7 427.4, 929.8 350.9 C 713.9 274.4, 676.0 354.7, 590.7 210.9 C 505.5 67.2, 477.3 118.0, 562.6 -25.8 C 647.8 -169.5, 648.6 -186.3, 864.5 -262.8 C 1080.4 -339.3, 1014.5 -270.8, 1260.0 -244.2 C 1505.5 -217.7, 1390.2 -289.2, 1550.4 -172.0 C 1710.6 -54.8, 1649.7 -76.0, 1649.7 77.0 Z" fill="#DFF8FF" opacity="0.33" filter="url(#blur_ambient_08_7329)"/>
  <path d="M 309.4 1082.0 C 309.4 1313.3, 381.7 1235.8, 291.7 1413.0 C 201.8 1590.2, 214.6 1623.7, 76.7 1663.9 C -61.1 1704.0, 19.1 1638.9, -102.1 1523.2 C -223.3 1407.6, -180.8 1486.0, -228.7 1268.7 C -276.6 1051.3, -321.5 1141.8, -273.6 924.4 C -225.8 707.1, -246.4 755.4, -125.2 639.7 C -4.0 524.1, -60.8 451.3, 77.0 491.4 C 214.9 531.6, 180.8 563.9, 270.7 741.1 C 360.7 918.2, 309.4 850.7, 309.4 1082.0 Z" fill="#FFC7DA" opacity="0.36" filter="url(#blur_ambient_08_7329)"/>
  <path d="M 1130.5 1269.0 C 1130.5 1423.8, 1142.3 1348.5, 1045.1 1467.1 C 947.9 1585.7, 1018.7 1622.6, 869.8 1649.5 C 720.9 1676.4, 756.6 1593.8, 625.7 1516.4 C 494.7 1439.0, 600.0 1540.2, 548.2 1394.7 C 496.5 1249.3, 500.1 1305.8, 551.8 1160.4 C 603.5 1014.9, 543.0 1056.3, 674.0 978.9 C 804.9 901.5, 719.9 889.8, 868.8 916.7 C 1017.7 943.6, 981.3 897.1, 1078.5 1015.6 C 1175.7 1134.2, 1130.5 1114.2, 1130.5 1269.0 Z" fill="#B6F5D1" opacity="0.23" filter="url(#blur_ambient_08_7329)"/>
  <path d="M 1332.8 1380.0 C 1332.8 1534.3, 1401.5 1494.5, 1302.3 1612.7 C 1203.1 1731.0, 1214.3 1743.5, 1062.3 1770.3 C 910.3 1797.1, 936.1 1790.7, 802.4 1713.5 C 668.8 1636.3, 755.4 1655.5, 702.7 1510.5 C 649.9 1365.4, 654.6 1388.5, 707.4 1243.5 C 760.2 1098.4, 663.0 1144.6, 796.7 1067.4 C 930.4 990.2, 896.0 992.3, 1048.0 1019.1 C 1200.0 1045.9, 1167.8 1027.8, 1267.0 1146.0 C 1366.2 1264.3, 1332.8 1225.7, 1332.8 1380.0 Z" fill="#EEE5FF" opacity="0.33" filter="url(#blur_ambient_08_7329)"/>
  <path d="M 1840.8 1317.0 C 1840.8 1516.8, 1758.3 1401.6, 1611.7 1554.7 C 1465.0 1707.7, 1579.3 1664.5, 1354.6 1699.2 C 1129.9 1733.9, 1170.4 1843.3, 972.9 1743.4 C 775.3 1643.5, 906.6 1640.3, 828.6 1452.5 C 750.6 1264.8, 695.3 1357.4, 773.3 1169.6 C 851.3 981.9, 847.5 1095.4, 1045.1 995.5 C 1242.7 895.6, 1120.6 839.1, 1345.3 873.7 C 1570.0 908.4, 1470.1 873.9, 1616.7 1026.9 C 1763.4 1180.0, 1840.8 1117.2, 1840.8 1317.0 Z" fill="#FFECEF" opacity="0.34" filter="url(#blur_ambient_08_7329)"/>
  <path d="M 1357.5 637.0 C 1357.5 779.2, 1462.6 716.1, 1368.3 825.0 C 1274.0 933.9, 1282.8 910.2, 1138.3 934.9 C 993.9 959.6, 1050.3 968.0, 923.3 896.9 C 796.2 825.8, 878.5 889.9, 828.3 756.3 C 778.1 622.7, 714.9 673.9, 765.1 540.2 C 815.3 406.6, 797.3 460.2, 924.3 389.1 C 1051.4 318.0, 986.2 344.0, 1130.7 368.7 C 1275.2 393.4, 1240.2 289.5, 1334.5 398.4 C 1428.8 507.3, 1357.5 494.8, 1357.5 637.0 Z" fill="#DFFCED" opacity="0.34" filter="url(#blur_ambient_08_7329)"/>
  <path d="M 439.0 1270.0 C 439.0 1572.0, 574.1 1434.6, 423.1 1665.9 C 272.1 1897.2, 308.9 1924.3, 77.6 1976.8 C -153.7 2029.2, -98.8 2030.6, -302.2 1879.7 C -505.6 1728.7, -488.6 1794.1, -568.9 1510.4 C -649.3 1226.6, -637.0 1313.7, -556.7 1029.9 C -476.4 746.2, -451.0 897.7, -247.6 746.7 C -44.1 595.7, -170.6 653.2, 60.7 705.7 C 292.0 758.1, 225.4 653.5, 376.3 884.9 C 527.3 1116.2, 439.0 968.0, 439.0 1270.0 Z" fill="#FFECEF" opacity="0.38" filter="url(#blur_ambient_08_7329)"/>
  <path d="M 1693.3 2218.0 C 1693.3 2476.3, 1719.3 2425.5, 1559.6 2623.4 C 1399.9 2821.3, 1536.4 2656.4, 1291.7 2701.3 C 1047.1 2746.1, 1138.4 2852.1, 923.3 2722.9 C 708.2 2593.8, 728.1 2630.3, 643.2 2387.6 C 558.2 2144.9, 550.4 2244.9, 635.4 2002.2 C 720.3 1759.5, 706.5 1886.0, 921.6 1756.8 C 1136.7 1627.7, 1044.6 1582.6, 1289.3 1627.5 C 1533.9 1672.3, 1395.4 1646.4, 1555.0 1844.3 C 1714.7 2042.1, 1693.3 1959.7, 1693.3 2218.0 Z" fill="#DFFCED" opacity="0.26" filter="url(#blur_ambient_08_7329)"/>
  <path d="M 1365.0 386.0 C 1365.0 524.1, 1303.1 468.8, 1191.7 574.6 C 1080.3 680.5, 1164.2 639.2, 993.6 663.2 C 823.0 687.2, 874.1 701.3, 724.1 632.3 C 574.1 563.2, 683.6 638.3, 624.3 508.5 C 565.0 378.7, 503.6 406.7, 562.9 276.9 C 622.2 147.1, 592.6 197.7, 742.6 128.6 C 892.7 59.5, 818.7 89.5, 989.3 113.5 C 1160.0 137.5, 1064.3 52.5, 1175.7 158.4 C 1287.0 264.2, 1365.0 247.8, 1365.0 386.0 Z" fill="#FDFFFF" opacity="0.34" filter="url(#blur_ambient_08_7329)"/>
  <path d="M 985.2 606.0 C 985.2 745.5, 1049.0 706.1, 937.9 812.9 C 826.8 919.8, 888.4 859.1, 718.2 883.3 C 548.1 907.5, 587.5 935.8, 437.9 866.1 C 288.2 796.3, 303.8 840.1, 244.7 709.0 C 185.6 577.9, 286.7 644.5, 345.8 513.4 C 404.9 382.3, 338.6 375.2, 488.2 305.4 C 637.9 235.7, 547.2 265.7, 717.4 289.9 C 887.5 314.1, 877.5 279.2, 988.6 386.1 C 1099.7 492.9, 985.2 466.5, 985.2 606.0 Z" fill="#FFC7DA" opacity="0.28" filter="url(#blur_ambient_08_7329)"/>
  <path d="M 1657.2 2001.0 C 1657.2 2154.4, 1734.9 2096.5, 1555.8 2220.7 C 1376.8 2344.8, 1481.0 2289.3, 1191.3 2336.7 C 901.5 2384.1, 1084.3 2364.2, 794.5 2316.8 C 504.8 2269.4, 566.8 2348.6, 387.7 2224.4 C 208.7 2100.3, 296.2 2154.4, 296.2 2001.0 C 296.2 1847.5, 332.6 1952.4, 511.7 1828.3 C 690.7 1704.2, 520.4 1699.2, 810.1 1651.8 C 1099.9 1604.4, 905.2 1665.9, 1195.0 1713.3 C 1484.7 1760.7, 1315.5 1687.6, 1494.6 1811.7 C 1673.6 1935.8, 1657.2 1847.5, 1657.2 2001.0 Z" fill="#DFFCED" opacity="0.12" stroke="#DFFCED" stroke-opacity="0.46" stroke-width="3" filter="url(#soft_ambient_08_7329)"/>
  <path d="M 1657.2 2001.0 C 1657.2 2154.4, 1734.9 2096.5, 1555.8 2220.7 C 1376.8 2344.8, 1481.0 2289.3, 1191.3 2336.7 C 901.5 2384.1, 1084.3 2364.2, 794.5 2316.8 C 504.8 2269.4, 566.8 2348.6, 387.7 2224.4 C 208.7 2100.3, 296.2 2154.4, 296.2 2001.0 C 296.2 1847.5, 332.6 1952.4, 511.7 1828.3 C 690.7 1704.2, 520.4 1699.2, 810.1 1651.8 C 1099.9 1604.4, 905.2 1665.9, 1195.0 1713.3 C 1484.7 1760.7, 1315.5 1687.6, 1494.6 1811.7 C 1673.6 1935.8, 1657.2 1847.5, 1657.2 2001.0 Z" fill="none" stroke="#FFFFFF" stroke-opacity="0.22" stroke-width="1.2"/>
  <path d="M 371.4 -37.0 C 371.4 281.2, 433.9 170.4, 322.8 427.8 C 211.7 685.2, 258.6 447.5, 78.9 545.8 C -100.9 644.1, 25.0 690.1, -154.8 591.8 C -334.5 493.4, -284.8 664.6, -395.9 407.2 C -507.0 149.8, -461.4 281.2, -461.4 -37.0 C -461.4 -355.1, -466.4 -252.6, -355.3 -510.0 C -244.2 -767.4, -354.5 -613.8, -174.7 -712.1 C 5.0 -810.4, -92.5 -792.1, 87.2 -693.8 C 267.0 -595.5, 156.0 -763.6, 267.1 -506.2 C 378.2 -248.8, 371.4 -355.2, 371.4 -37.0 Z" fill="#FDFFFF" opacity="0.12" stroke="#FFFFFF" stroke-opacity="0.46" stroke-width="3" filter="url(#soft_ambient_08_7329)"/>
  <path d="M 371.4 -37.0 C 371.4 281.2, 433.9 170.4, 322.8 427.8 C 211.7 685.2, 258.6 447.5, 78.9 545.8 C -100.9 644.1, 25.0 690.1, -154.8 591.8 C -334.5 493.4, -284.8 664.6, -395.9 407.2 C -507.0 149.8, -461.4 281.2, -461.4 -37.0 C -461.4 -355.1, -466.4 -252.6, -355.3 -510.0 C -244.2 -767.4, -354.5 -613.8, -174.7 -712.1 C 5.0 -810.4, -92.5 -792.1, 87.2 -693.8 C 267.0 -595.5, 156.0 -763.6, 267.1 -506.2 C 378.2 -248.8, 371.4 -355.2, 371.4 -37.0 Z" fill="none" stroke="#FFFFFF" stroke-opacity="0.22" stroke-width="1.2"/>
  <path d="M 1449.2 668.0 C 1449.2 1040.6, 1468.4 813.4, 1323.5 1114.8 C 1178.5 1416.2, 1310.0 1305.2, 1075.5 1420.3 C 841.0 1535.4, 949.5 1625.4, 714.9 1510.3 C 480.4 1395.1, 558.8 1484.2, 413.9 1182.8 C 268.9 881.4, 371.0 1040.6, 371.0 668.0 C 371.0 295.4, 245.8 499.7, 390.8 198.3 C 535.7 -103.1, 490.9 -3.9, 725.4 -119.0 C 960.0 -234.1, 841.5 -200.8, 1076.0 -85.6 C 1310.6 29.5, 1248.6 -52.2, 1393.6 249.2 C 1538.5 550.7, 1449.2 295.4, 1449.2 668.0 Z" fill="#DFFCED" opacity="0.12" stroke="#DFFCED" stroke-opacity="0.46" stroke-width="3" filter="url(#soft_ambient_08_7329)"/>
  <path d="M 1449.2 668.0 C 1449.2 1040.6, 1468.4 813.4, 1323.5 1114.8 C 1178.5 1416.2, 1310.0 1305.2, 1075.5 1420.3 C 841.0 1535.4, 949.5 1625.4, 714.9 1510.3 C 480.4 1395.1, 558.8 1484.2, 413.9 1182.8 C 268.9 881.4, 371.0 1040.6, 371.0 668.0 C 371.0 295.4, 245.8 499.7, 390.8 198.3 C 535.7 -103.1, 490.9 -3.9, 725.4 -119.0 C 960.0 -234.1, 841.5 -200.8, 1076.0 -85.6 C 1310.6 29.5, 1248.6 -52.2, 1393.6 249.2 C 1538.5 550.7, 1449.2 295.4, 1449.2 668.0 Z" fill="none" stroke="#FFFFFF" stroke-opacity="0.22" stroke-width="1.2"/>
  <path d="M 1703.6 2098.0 C 1703.6 2264.5, 1814.8 2181.2, 1674.0 2315.9 C 1533.3 2450.6, 1593.5 2443.7, 1365.8 2495.1 C 1138.2 2546.6, 1250.5 2466.8, 1022.8 2415.4 C 795.1 2363.9, 937.8 2461.7, 797.0 2327.0 C 656.3 2192.3, 636.6 2264.5, 636.6 2098.0 C 636.6 1931.5, 679.3 2007.3, 820.0 1872.6 C 960.7 1737.8, 812.7 1837.0, 1040.3 1785.5 C 1268.0 1734.1, 1151.4 1739.4, 1379.0 1790.8 C 1606.7 1842.3, 1480.7 1759.6, 1621.4 1894.3 C 1762.1 2029.0, 1703.6 1931.5, 1703.6 2098.0 Z" fill="#DFF8FF" opacity="0.12" stroke="#FFFFFF" stroke-opacity="0.46" stroke-width="3" filter="url(#soft_ambient_08_7329)"/>
  <path d="M 1703.6 2098.0 C 1703.6 2264.5, 1814.8 2181.2, 1674.0 2315.9 C 1533.3 2450.6, 1593.5 2443.7, 1365.8 2495.1 C 1138.2 2546.6, 1250.5 2466.8, 1022.8 2415.4 C 795.1 2363.9, 937.8 2461.7, 797.0 2327.0 C 656.3 2192.3, 636.6 2264.5, 636.6 2098.0 C 636.6 1931.5, 679.3 2007.3, 820.0 1872.6 C 960.7 1737.8, 812.7 1837.0, 1040.3 1785.5 C 1268.0 1734.1, 1151.4 1739.4, 1379.0 1790.8 C 1606.7 1842.3, 1480.7 1759.6, 1621.4 1894.3 C 1762.1 2029.0, 1703.6 1931.5, 1703.6 2098.0 Z" fill="none" stroke="#FFFFFF" stroke-opacity="0.22" stroke-width="1.2"/>
  <path d="M 471.6 1167.0 C 471.6 1547.7, 532.5 1401.5, 457.1 1709.5 C 381.8 2017.5, 414.1 1917.9, 292.1 2035.5 C 170.2 2153.2, 243.1 2050.0, 121.1 1932.4 C -0.9 1814.8, 63.2 1943.9, -12.2 1636.0 C -87.6 1328.0, -64.7 1547.7, -64.7 1167.0 C -64.7 786.3, -109.0 908.7, -33.7 600.7 C 41.7 292.7, -15.4 381.8, 106.6 264.2 C 228.6 146.5, 167.3 140.7, 289.3 258.4 C 411.3 376.0, 370.2 413.4, 445.6 721.4 C 521.0 1029.4, 471.6 786.3, 471.6 1167.0 Z" fill="#DFF8FF" opacity="0.12" stroke="#FFFFFF" stroke-opacity="0.46" stroke-width="3" filter="url(#soft_ambient_08_7329)"/>
  <path d="M 471.6 1167.0 C 471.6 1547.7, 532.5 1401.5, 457.1 1709.5 C 381.8 2017.5, 414.1 1917.9, 292.1 2035.5 C 170.2 2153.2, 243.1 2050.0, 121.1 1932.4 C -0.9 1814.8, 63.2 1943.9, -12.2 1636.0 C -87.6 1328.0, -64.7 1547.7, -64.7 1167.0 C -64.7 786.3, -109.0 908.7, -33.7 600.7 C 41.7 292.7, -15.4 381.8, 106.6 264.2 C 228.6 146.5, 167.3 140.7, 289.3 258.4 C 411.3 376.0, 370.2 413.4, 445.6 721.4 C 521.0 1029.4, 471.6 786.3, 471.6 1167.0 Z" fill="none" stroke="#FFFFFF" stroke-opacity="0.22" stroke-width="1.2"/>
  <path d="M 483.2 2735.0 C 483.2 2936.2, 515.6 2824.1, 395.2 2986.9 C 274.9 3149.6, 396.0 3132.6, 201.3 3194.8 C 6.5 3256.9, 109.6 3215.3, -85.2 3153.2 C -279.9 3091.0, -233.9 3149.5, -354.3 2986.8 C -474.6 2824.1, -423.9 2936.2, -423.9 2735.0 C -423.9 2533.8, -413.8 2603.8, -293.4 2441.1 C -173.1 2278.4, -308.2 2404.6, -113.5 2342.4 C 81.3 2280.3, 3.3 2258.2, 198.0 2320.3 C 392.7 2382.5, 332.6 2333.7, 453.0 2496.4 C 573.3 2659.2, 483.2 2533.8, 483.2 2735.0 Z" fill="#DFF8FF" opacity="0.12" stroke="#FFFFFF" stroke-opacity="0.46" stroke-width="3" filter="url(#soft_ambient_08_7329)"/>
  <path d="M 483.2 2735.0 C 483.2 2936.2, 515.6 2824.1, 395.2 2986.9 C 274.9 3149.6, 396.0 3132.6, 201.3 3194.8 C 6.5 3256.9, 109.6 3215.3, -85.2 3153.2 C -279.9 3091.0, -233.9 3149.5, -354.3 2986.8 C -474.6 2824.1, -423.9 2936.2, -423.9 2735.0 C -423.9 2533.8, -413.8 2603.8, -293.4 2441.1 C -173.1 2278.4, -308.2 2404.6, -113.5 2342.4 C 81.3 2280.3, 3.3 2258.2, 198.0 2320.3 C 392.7 2382.5, 332.6 2333.7, 453.0 2496.4 C 573.3 2659.2, 483.2 2533.8, 483.2 2735.0 Z" fill="none" stroke="#FFFFFF" stroke-opacity="0.22" stroke-width="1.2"/>
  <path d="M 910.4 49.0 C 910.4 450.4, 942.4 182.7, 863.3 507.4 C 784.3 832.2, 854.0 687.6, 726.1 811.6 C 598.1 935.6, 673.0 915.8, 545.1 791.8 C 417.1 667.8, 501.0 847.8, 421.9 523.1 C 342.8 198.4, 304.2 450.4, 304.2 49.0 C 304.2 -352.4, 351.7 -144.3, 430.8 -469.0 C 509.9 -793.8, 433.2 -569.9, 561.1 -693.9 C 689.1 -818.0, 593.0 -884.5, 721.0 -760.5 C 848.9 -636.4, 785.3 -856.1, 864.4 -531.3 C 943.5 -206.6, 910.4 -352.4, 910.4 49.0 Z" fill="#FFECEF" opacity="0.12" stroke="#FFECEF" stroke-opacity="0.46" stroke-width="3" filter="url(#soft_ambient_08_7329)"/>
  <path d="M 910.4 49.0 C 910.4 450.4, 942.4 182.7, 863.3 507.4 C 784.3 832.2, 854.0 687.6, 726.1 811.6 C 598.1 935.6, 673.0 915.8, 545.1 791.8 C 417.1 667.8, 501.0 847.8, 421.9 523.1 C 342.8 198.4, 304.2 450.4, 304.2 49.0 C 304.2 -352.4, 351.7 -144.3, 430.8 -469.0 C 509.9 -793.8, 433.2 -569.9, 561.1 -693.9 C 689.1 -818.0, 593.0 -884.5, 721.0 -760.5 C 848.9 -636.4, 785.3 -856.1, 864.4 -531.3 C 943.5 -206.6, 910.4 -352.4, 910.4 49.0 Z" fill="none" stroke="#FFFFFF" stroke-opacity="0.22" stroke-width="1.2"/>
  <path d="M -100.0 -20.0 Q 133.3 -43.9, 366.7 -0.6 Q 600.0 175.1, 833.3 225.2 Q 1066.7 82.5, 1300.0 20.3" fill="none" stroke="#FFFFFF" stroke-opacity="0.38" stroke-width="4" filter="url(#soft_ambient_08_7329)"/>
  <path d="M -100.0 -20.0 Q 133.3 -43.9, 366.7 -0.6 Q 600.0 175.1, 833.3 225.2 Q 1066.7 82.5, 1300.0 20.3" fill="none" stroke="#D6C2FF" stroke-opacity="0.18" stroke-width="2"/>
  <path d="M -100.0 121.8 Q 133.3 196.0, 366.7 329.7 Q 600.0 360.2, 833.3 468.5 Q 1066.7 445.8, 1300.0 414.8" fill="none" stroke="#FFFFFF" stroke-opacity="0.38" stroke-width="4" filter="url(#soft_ambient_08_7329)"/>
  <path d="M -100.0 121.8 Q 133.3 196.0, 366.7 329.7 Q 600.0 360.2, 833.3 468.5 Q 1066.7 445.8, 1300.0 414.8" fill="none" stroke="#A9EAF6" stroke-opacity="0.18" stroke-width="2"/>
  <path d="M -100.0 886.5 Q 133.3 973.3, 366.7 1069.2 Q 600.0 901.5, 833.3 773.9 Q 1066.7 743.1, 1300.0 856.9" fill="none" stroke="#FFFFFF" stroke-opacity="0.38" stroke-width="4" filter="url(#soft_ambient_08_7329)"/>
  <path d="M -100.0 886.5 Q 133.3 973.3, 366.7 1069.2 Q 600.0 901.5, 833.3 773.9 Q 1066.7 743.1, 1300.0 856.9" fill="none" stroke="#D6C2FF" stroke-opacity="0.18" stroke-width="2"/>
  <path d="M -100.0 2193.7 Q 133.3 2277.5, 366.7 2338.3 Q 600.0 2163.3, 833.3 1971.3 Q 1066.7 1868.7, 1300.0 1899.5" fill="none" stroke="#FFFFFF" stroke-opacity="0.38" stroke-width="4" filter="url(#soft_ambient_08_7329)"/>
  <path d="M -100.0 2193.7 Q 133.3 2277.5, 366.7 2338.3 Q 600.0 2163.3, 833.3 1971.3 Q 1066.7 1868.7, 1300.0 1899.5" fill="none" stroke="#A9EAF6" stroke-opacity="0.18" stroke-width="2"/>
  <path d="M -100.0 1163.6 Q 133.3 1134.3, 366.7 1071.5 Q 600.0 1266.3, 833.3 1307.9 Q 1066.7 1233.9, 1300.0 1124.3" fill="none" stroke="#FFFFFF" stroke-opacity="0.38" stroke-width="4" filter="url(#soft_ambient_08_7329)"/>
  <path d="M -100.0 1163.6 Q 133.3 1134.3, 366.7 1071.5 Q 600.0 1266.3, 833.3 1307.9 Q 1066.7 1233.9, 1300.0 1124.3" fill="none" stroke="#A9EAF6" stroke-opacity="0.18" stroke-width="2"/>
  <circle cx="39" cy="2513" r="180" fill="url(#orb_ambient_08_7329)" opacity="0.36"/>
  <circle cx="39" cy="2513" r="180" fill="#FFC7DA" opacity="0.08"/>
  <circle cx="39" cy="2513" r="180" fill="none" stroke="#FFFFFF" stroke-opacity="0.56" stroke-width="3"/>
  <ellipse cx="-11.4" cy="2448.2" rx="32.4" ry="14.4" fill="#FFFFFF" opacity="0.42" transform="rotate(-22 -11.4 2448.2)"/>
  <circle cx="535" cy="1332" r="286" fill="url(#orb_ambient_08_7329)" opacity="0.36"/>
  <circle cx="535" cy="1332" r="286" fill="#FFECEF" opacity="0.08"/>
  <circle cx="535" cy="1332" r="286" fill="none" stroke="#FFFFFF" stroke-opacity="0.56" stroke-width="3"/>
  <ellipse cx="454.9" cy="1229.0" rx="51.5" ry="22.9" fill="#FFFFFF" opacity="0.42" transform="rotate(-22 454.9 1229.0)"/>
  <circle cx="283" cy="897" r="215" fill="url(#orb_ambient_08_7329)" opacity="0.36"/>
  <circle cx="283" cy="897" r="215" fill="#FFECEF" opacity="0.08"/>
  <circle cx="283" cy="897" r="215" fill="none" stroke="#FFFFFF" stroke-opacity="0.56" stroke-width="3"/>
  <ellipse cx="222.8" cy="819.6" rx="38.7" ry="17.2" fill="#FFFFFF" opacity="0.42" transform="rotate(-22 222.8 819.6)"/>
  <circle cx="963" cy="1525" r="276" fill="url(#orb_ambient_08_7329)" opacity="0.17"/>
  <circle cx="963" cy="1525" r="276" fill="#B6F5D1" opacity="0.08"/>
  <circle cx="963" cy="1525" r="276" fill="none" stroke="#FFFFFF" stroke-opacity="0.56" stroke-width="3"/>
  <ellipse cx="885.7" cy="1425.6" rx="49.7" ry="22.1" fill="#FFFFFF" opacity="0.42" transform="rotate(-22 885.7 1425.6)"/>
  <circle cx="1237" cy="-9" r="289" fill="url(#orb_ambient_08_7329)" opacity="0.18"/>
  <circle cx="1237" cy="-9" r="289" fill="#FDFFFF" opacity="0.08"/>
  <circle cx="1237" cy="-9" r="289" fill="none" stroke="#FFFFFF" stroke-opacity="0.56" stroke-width="3"/>
  <ellipse cx="1156.1" cy="-113.0" rx="52.0" ry="23.1" fill="#FFFFFF" opacity="0.42" transform="rotate(-22 1156.1 -113.0)"/>
  <circle cx="116" cy="1564" r="227" fill="url(#orb_ambient_08_7329)" opacity="0.26"/>
  <circle cx="116" cy="1564" r="227" fill="#EEE5FF" opacity="0.08"/>
  <circle cx="116" cy="1564" r="227" fill="none" stroke="#FFFFFF" stroke-opacity="0.56" stroke-width="3"/>
  <ellipse cx="52.4" cy="1482.3" rx="40.9" ry="18.2" fill="#FFFFFF" opacity="0.42" transform="rotate(-22 52.4 1482.3)"/>
  <circle cx="347" cy="2714" r="182" fill="url(#orb_ambient_08_7329)" opacity="0.26"/>
  <circle cx="347" cy="2714" r="182" fill="#DFF8FF" opacity="0.08"/>
  <circle cx="347" cy="2714" r="182" fill="none" stroke="#FFFFFF" stroke-opacity="0.56" stroke-width="3"/>
  <ellipse cx="296.0" cy="2648.5" rx="32.8" ry="14.6" fill="#FFFFFF" opacity="0.42" transform="rotate(-22 296.0 2648.5)"/>
  <circle cx="146" cy="1273" r="176" fill="url(#orb_ambient_08_7329)" opacity="0.21"/>
  <circle cx="146" cy="1273" r="176" fill="#D6C2FF" opacity="0.08"/>
  <circle cx="146" cy="1273" r="176" fill="none" stroke="#FFFFFF" stroke-opacity="0.56" stroke-width="3"/>
  <ellipse cx="96.7" cy="1209.6" rx="31.7" ry="14.1" fill="#FFFFFF" opacity="0.42" transform="rotate(-22 96.7 1209.6)"/>
  <circle cx="309" cy="2587" r="184" fill="url(#orb_ambient_08_7329)" opacity="0.17"/>
  <circle cx="309" cy="2587" r="184" fill="#DFFCED" opacity="0.08"/>
  <circle cx="309" cy="2587" r="184" fill="none" stroke="#FFFFFF" stroke-opacity="0.56" stroke-width="3"/>
  <ellipse cx="257.5" cy="2520.8" rx="33.1" ry="14.7" fill="#FFFFFF" opacity="0.42" transform="rotate(-22 257.5 2520.8)"/>
  <circle cx="188" cy="1957" r="3" fill="#FFFFFF" opacity="0.70"/>
  <circle cx="166" cy="1369" r="7" fill="#FFFFFF" opacity="0.61"/>
  <circle cx="623" cy="1142" r="2" fill="#FFFFFF" opacity="0.31"/>
  <circle cx="892" cy="160" r="2" fill="#FFFFFF" opacity="0.51"/>
  <circle cx="545" cy="1731" r="2" fill="#FFFFFF" opacity="0.30"/>
  <circle cx="580" cy="2020" r="4" fill="#FFFFFF" opacity="0.38"/>
  <circle cx="870" cy="1654" r="3" fill="#FFFFFF" opacity="0.33"/>
  <circle cx="241" cy="586" r="3" fill="#FFFFFF" opacity="0.33"/>
  <circle cx="318" cy="2461" r="2" fill="#FFFFFF" opacity="0.33"/>
  <circle cx="872" cy="1433" r="4" fill="#FFFFFF" opacity="0.70"/>
  <circle cx="398" cy="1176" r="3" fill="#FFFFFF" opacity="0.38"/>
  <circle cx="782" cy="516" r="4" fill="#FFFFFF" opacity="0.37"/>
  <circle cx="1119" cy="1674" r="7" fill="#FFFFFF" opacity="0.45"/>
  <circle cx="782" cy="1086" r="7" fill="#FFFFFF" opacity="0.50"/>
  <circle cx="1047" cy="1722" r="4" fill="#FFFFFF" opacity="0.52"/>
  <circle cx="782" cy="1853" r="2" fill="#FFFFFF" opacity="0.43"/>
  <circle cx="619" cy="2471" r="5" fill="#FFFFFF" opacity="0.41"/>
  <circle cx="741" cy="1581" r="3" fill="#FFFFFF" opacity="0.58"/>
  <rect width="1200" height="2600" fill="#FFFFFF" opacity="0.08"/>
  <rect width="1200" height="2600" filter="url(#grain_ambient_08_7329)" opacity="0.7"/>
</svg>
