<svg xmlns="http://www.w3.org/2000/svg" width="1200" height="2600" viewBox="0 0 1200 2600" preserveAspectRatio="xMidYMid slice">
  <defs>
    <linearGradient id="bg_ambient_03_4404" x1="0" y1="0" x2="1" y2="1">
      <stop offset="0%" stop-color="#DFFCED"/>
      <stop offset="48%" stop-color="#FFECEF"/>
      <stop offset="100%" stop-color="#EEE5FF"/>
    </linearGradient>
    <radialGradient id="orb_ambient_03_4404" cx="35%" cy="30%" r="70%">
      <stop offset="0%" stop-color="#FFFFFF" stop-opacity="0.85"/>
      <stop offset="42%" stop-color="#FFFFFF" stop-opacity="0.20"/>
      <stop offset="100%" stop-color="#FFFFFF" stop-opacity="0.02"/>
    </radialGradient>
    <filter id="blur_ambient_03_4404" x="-30%" y="-30%" width="160%" height="160%">
      <feGaussianBlur stdDeviation="72"/>
    </filter>
    <filter id="soft_ambient_03_4404" x="-20%" y="-20%" width="140%" height="140%">
      <feGaussianBlur stdDeviation="10"/>
    </filter>
    <filter id="grain_ambient_03_4404">
      <feTurbulence type="fractalNoise" baseFrequency="0.85" numOctaves="2" stitchTiles="stitch"/>
      <feColorMatrix type="saturate" values="0"/>
      <feComponentTransfer>
        <feFuncA type="table" tableValues="0 0.035"/>
      </feComponentTransfer>
    </filter>
  </defs>
  <rect width="1200" height="2600" fill="url(#bg_ambient_03_4404)"/>
  <path d="M 804.4 770.0 C 804.4 977.5, 806.7 899.0, 718.2 1057.9 C 629.7 1216.8, 714.3 1177.1, 578.7 1213.1 C 443.1 1249.1, 495.3 1329.6, 376.1 1225.9 C 256.8 1122.2, 279.3 1094.7, 232.2 899.7 C 185.1 704.8, 222.8 795.0, 269.9 600.1 C 317.0 405.2, 262.6 425.3, 381.9 321.6 C 501.1 217.9, 435.4 235.4, 571.1 271.4 C 706.7 307.4, 639.3 335.5, 727.8 494.4 C 816.4 653.3, 804.4 562.5, 804.4 770.0 Z" fill="#FFC7DA" opacity="0.22" filter="url(#blur_ambient_03_4404)"/>
  <path d="M 988.7 843.0 C 988.7 1081.5, 1047.4 941.0, 940.6 1123.7 C 833.9 1306.4, 886.7 1319.1, 723.2 1360.5 C 559.6 1401.9, 640.1 1383.0, 496.3 1263.7 C 352.5 1144.5, 386.0 1252.8, 329.2 1028.7 C 272.4 804.6, 204.2 875.7, 261.0 651.6 C 317.8 427.5, 354.3 579.7, 498.1 460.4 C 641.9 341.2, 566.8 346.5, 730.3 387.9 C 893.8 429.3, 850.2 364.8, 957.0 547.5 C 1063.7 730.2, 988.7 604.5, 988.7 843.0 Z" fill="#DDEEFF" opacity="0.37" filter="url(#blur_ambient_03_4404)"/>
  <path d="M 605.0 959.0 C 605.0 1234.0, 692.6 1148.9, 596.3 1359.5 C 500.0 1570.2, 515.0 1470.2, 367.5 1517.9 C 219.9 1565.6, 284.5 1674.4, 154.7 1536.9 C 25.0 1399.4, 30.9 1451.4, -20.3 1193.0 C -71.6 934.6, -71.7 1045.9, -20.4 787.6 C 30.8 529.2, 39.5 618.1, 169.3 480.6 C 299.1 343.1, 214.9 314.1, 362.4 361.8 C 510.0 409.6, 452.5 351.6, 548.8 562.3 C 645.2 772.9, 605.0 684.0, 605.0 959.0 Z" fill="#FDFFFF" opacity="0.37" filter="url(#blur_ambient_03_4404)"/>
  <path d="M 384.9 -35.0 C 384.9 180.6, 447.4 63.7, 353.9 228.8 C 260.5 394.0, 310.2 456.3, 167.0 493.7 C 23.9 531.2, 73.0 523.3, -52.9 415.5 C -178.8 307.7, -169.0 336.4, -218.7 133.9 C -268.4 -68.7, -239.6 -0.1, -189.9 -202.7 C -140.1 -405.2, -178.6 -362.3, -52.8 -470.1 C 73.1 -577.8, 19.8 -531.6, 162.9 -494.2 C 306.0 -456.8, 234.7 -546.5, 328.1 -381.4 C 421.5 -216.2, 384.9 -250.6, 384.9 -35.0 Z" fill="#D6C2FF" opacity="0.18" filter="url(#blur_ambient_03_4404)"/>
  <path d="M 928.2 648.0 C 928.2 826.6, 1014.6 755.1, 861.0 891.9 C 707.4 1028.8, 762.8 992.4, 527.5 1023.4 C 292.1 1054.5, 396.1 1141.2, 189.2 1051.9 C -17.8 962.5, 42.3 963.5, -39.4 795.6 C -121.1 627.7, -86.2 659.7, -4.5 491.8 C 77.3 323.9, -44.9 378.5, 162.0 289.2 C 369.0 199.9, 278.6 195.0, 513.9 226.0 C 749.2 257.0, 623.4 214.6, 777.0 351.5 C 930.6 488.3, 928.2 469.4, 928.2 648.0 Z" fill="#FFC7DA" opacity="0.37" filter="url(#blur_ambient_03_4404)"/>
  <path d="M 1118.1 677.0 C 1118.1 853.4, 1051.5 788.0, 928.8 923.1 C 806.2 1058.2, 881.0 1046.8, 693.1 1077.4 C 505.1 1108.0, 582.0 1116.6, 416.7 1028.4 C 251.5 940.2, 351.5 964.6, 286.3 798.8 C 221.0 633.1, 112.6 711.5, 177.9 545.8 C 243.1 380.0, 216.3 392.9, 381.6 304.7 C 546.8 216.5, 510.8 253.2, 698.7 283.9 C 886.6 314.5, 797.6 282.5, 920.3 417.6 C 1042.9 552.7, 1118.1 500.6, 1118.1 677.0 Z" fill="#DFFCED" opacity="0.22" filter="url(#blur_ambient_03_4404)"/>
  <path d="M 1499.5 1724.0 C 1499.5 1907.6, 1461.6 1852.5, 1350.9 1993.1 C 1240.1 2133.8, 1282.9 2098.8, 1113.1 2130.7 C 943.4 2162.6, 994.8 2135.6, 845.5 2043.8 C 696.3 1952.0, 793.4 2045.7, 734.5 1873.2 C 675.5 1700.7, 621.0 1744.5, 679.9 1572.0 C 738.9 1399.4, 709.6 1493.4, 858.8 1401.6 C 1008.1 1309.8, 954.3 1298.5, 1124.0 1330.4 C 1293.8 1362.3, 1279.7 1293.9, 1390.5 1434.6 C 1501.3 1575.2, 1499.5 1540.4, 1499.5 1724.0 Z" fill="#DDEEFF" opacity="0.27" filter="url(#blur_ambient_03_4404)"/>
  <path d="M 904.7 2475.0 C 904.7 2625.3, 936.4 2596.5, 822.4 2711.7 C 708.4 2826.8, 748.2 2832.9, 573.6 2859.0 C 399.0 2885.1, 432.8 2844.2, 279.2 2769.0 C 125.7 2693.9, 135.9 2746.1, 75.2 2604.9 C 14.6 2463.7, 31.6 2491.5, 92.3 2350.3 C 152.9 2209.0, 184.5 2297.9, 338.1 2222.8 C 491.6 2147.6, 391.9 2174.7, 566.6 2200.8 C 741.2 2226.9, 749.4 2138.2, 863.3 2253.4 C 977.3 2368.5, 904.7 2324.7, 904.7 2475.0 Z" fill="#EEE5FF" opacity="0.23" filter="url(#blur_ambient_03_4404)"/>
  <path d="M 292.6 1202.0 C 292.6 1457.2, 330.3 1384.3, 202.4 1579.7 C 74.6 1775.2, 100.9 1762.2, -94.9 1806.5 C -290.8 1850.8, -223.0 1733.9, -395.2 1606.3 C -567.5 1478.7, -500.1 1636.6, -568.1 1396.8 C -636.1 1157.1, -694.3 1214.9, -626.3 975.1 C -558.3 735.3, -535.6 838.9, -363.3 711.4 C -191.1 583.8, -284.2 589.1, -88.3 633.4 C 107.6 677.7, 82.8 647.4, 210.7 842.8 C 338.5 1038.3, 292.6 946.9, 292.6 1202.0 Z" fill="#FFECEF" opacity="0.29" filter="url(#blur_ambient_03_4404)"/>
  <path d="M 1489.3 2513.0 C 1489.3 2873.9, 1593.6 2666.1, 1416.4 2958.1 C 1239.1 3250.1, 1346.5 3142.7, 1059.7 3254.3 C 773.0 3365.8, 936.2 3460.1, 649.4 3348.5 C 362.7 3237.0, 477.5 3281.0, 300.3 2989.0 C 123.1 2697.1, 208.8 2873.9, 208.8 2513.0 C 208.8 2152.1, 154.6 2398.3, 331.8 2106.3 C 509.0 1814.3, 343.1 1848.4, 629.8 1736.9 C 916.6 1625.3, 786.1 1544.1, 1072.9 1655.6 C 1359.6 1767.1, 1172.2 1714.1, 1349.5 2006.0 C 1526.7 2298.0, 1489.3 2152.1, 1489.3 2513.0 Z" fill="#FFC7DA" opacity="0.12" stroke="#FFFFFF" stroke-opacity="0.46" stroke-width="3" filter="url(#soft_ambient_03_4404)"/>
  <path d="M 1489.3 2513.0 C 1489.3 2873.9, 1593.6 2666.1, 1416.4 2958.1 C 1239.1 3250.1, 1346.5 3142.7, 1059.7 3254.3 C 773.0 3365.8, 936.2 3460.1, 649.4 3348.5 C 362.7 3237.0, 477.5 3281.0, 300.3 2989.0 C 123.1 2697.1, 208.8 2873.9, 208.8 2513.0 C 208.8 2152.1, 154.6 2398.3, 331.8 2106.3 C 509.0 1814.3, 343.1 1848.4, 629.8 1736.9 C 916.6 1625.3, 786.1 1544.1, 1072.9 1655.6 C 1359.6 1767.1, 1172.2 1714.1, 1349.5 2006.0 C 1526.7 2298.0, 1489.3 2152.1, 1489.3 2513.0 Z" fill="none" stroke="#FFFFFF" stroke-opacity="0.22" stroke-width="1.2"/>
  <path d="M 1402.8 2758.0 C 1402.8 2962.8, 1397.6 2878.9, 1279.9 3044.5 C 1162.2 3210.2, 1276.9 3112.0, 1086.4 3175.2 C 896.0 3238.5, 997.0 3202.4, 806.5 3139.1 C 616.1 3075.9, 735.7 3192.0, 618.0 3026.4 C 500.3 2860.7, 451.3 2962.8, 451.3 2758.0 C 451.3 2553.2, 474.9 2667.8, 592.6 2502.1 C 710.3 2336.5, 606.1 2416.3, 796.5 2353.0 C 987.0 2289.7, 902.0 2219.8, 1092.4 2283.1 C 1282.9 2346.4, 1170.7 2327.8, 1288.5 2493.5 C 1406.2 2659.1, 1402.8 2553.2, 1402.8 2758.0 Z" fill="#DFF8FF" opacity="0.12" stroke="#FFFFFF" stroke-opacity="0.46" stroke-width="3" filter="url(#soft_ambient_03_4404)"/>
  <path d="M 1402.8 2758.0 C 1402.8 2962.8, 1397.6 2878.9, 1279.9 3044.5 C 1162.2 3210.2, 1276.9 3112.0, 1086.4 3175.2 C 896.0 3238.5, 997.0 3202.4, 806.5 3139.1 C 616.1 3075.9, 735.7 3192.0, 618.0 3026.4 C 500.3 2860.7, 451.3 2962.8, 451.3 2758.0 C 451.3 2553.2, 474.9 2667.8, 592.6 2502.1 C 710.3 2336.5, 606.1 2416.3, 796.5 2353.0 C 987.0 2289.7, 902.0 2219.8, 1092.4 2283.1 C 1282.9 2346.4, 1170.7 2327.8, 1288.5 2493.5 C 1406.2 2659.1, 1402.8 2553.2, 1402.8 2758.0 Z" fill="none" stroke="#FFFFFF" stroke-opacity="0.22" stroke-width="1.2"/>
  <path d="M 1074.2 2770.0 C 1074.2 3019.3, 1109.5 2927.9, 948.1 3129.6 C 786.8 3331.3, 924.4 3242.2, 663.3 3319.3 C 402.2 3396.3, 534.1 3303.0, 273.0 3226.0 C 11.9 3149.0, 83.7 3289.1, -77.6 3087.5 C -239.0 2885.8, -137.3 3019.3, -137.3 2770.0 C -137.3 2520.7, -186.0 2648.8, -24.7 2447.1 C 136.7 2245.4, 16.3 2368.9, 277.4 2291.9 C 538.4 2214.8, 404.8 2192.5, 665.9 2269.6 C 927.0 2346.6, 817.3 2271.8, 978.6 2473.5 C 1140.0 2675.2, 1074.2 2520.7, 1074.2 2770.0 Z" fill="#DDEEFF" opacity="0.12" stroke="#DDEEFF" stroke-opacity="0.46" stroke-width="3" filter="url(#soft_ambient_03_4404)"/>
  <path d="M 1074.2 2770.0 C 1074.2 3019.3, 1109.5 2927.9, 948.1 3129.6 C 786.8 3331.3, 924.4 3242.2, 663.3 3319.3 C 402.2 3396.3, 534.1 3303.0, 273.0 3226.0 C 11.9 3149.0, 83.7 3289.1, -77.6 3087.5 C -239.0 2885.8, -137.3 3019.3, -137.3 2770.0 C -137.3 2520.7, -186.0 2648.8, -24.7 2447.1 C 136.7 2245.4, 16.3 2368.9, 277.4 2291.9 C 538.4 2214.8, 404.8 2192.5, 665.9 2269.6 C 927.0 2346.6, 817.3 2271.8, 978.6 2473.5 C 1140.0 2675.2, 1074.2 2520.7, 1074.2 2770.0 Z" fill="none" stroke="#FFFFFF" stroke-opacity="0.22" stroke-width="1.2"/>
  <path d="M 632.0 -197.0 C 632.0 -12.9, 632.4 -115.4, 506.2 33.5 C 380.1 182.4, 500.3 104.4, 296.1 161.2 C 92.0 218.1, 215.9 210.4, 11.8 153.5 C -192.4 96.6, -106.5 160.1, -232.6 11.2 C -358.8 -137.7, -326.7 -12.9, -326.7 -197.0 C -326.7 -381.0, -314.4 -304.5, -188.2 -453.4 C -62.1 -602.3, -175.8 -517.5, 28.3 -574.4 C 232.5 -631.2, 97.7 -626.2, 301.8 -569.3 C 506.0 -512.4, 468.8 -574.1, 595.0 -425.2 C 721.1 -276.3, 632.0 -381.1, 632.0 -197.0 Z" fill="#FFECEF" opacity="0.12" stroke="#FFECEF" stroke-opacity="0.46" stroke-width="3" filter="url(#soft_ambient_03_4404)"/>
  <path d="M 632.0 -197.0 C 632.0 -12.9, 632.4 -115.4, 506.2 33.5 C 380.1 182.4, 500.3 104.4, 296.1 161.2 C 92.0 218.1, 215.9 210.4, 11.8 153.5 C -192.4 96.6, -106.5 160.1, -232.6 11.2 C -358.8 -137.7, -326.7 -12.9, -326.7 -197.0 C -326.7 -381.0, -314.4 -304.5, -188.2 -453.4 C -62.1 -602.3, -175.8 -517.5, 28.3 -574.4 C 232.5 -631.2, 97.7 -626.2, 301.8 -569.3 C 506.0 -512.4, 468.8 -574.1, 595.0 -425.2 C 721.1 -276.3, 632.0 -381.1, 632.0 -197.0 Z" fill="none" stroke="#FFFFFF" stroke-opacity="0.22" stroke-width="1.2"/>
  <path d="M 825.6 945.0 C 825.6 1267.7, 865.2 1157.5, 742.4 1418.5 C 619.7 1679.6, 725.7 1471.0, 527.1 1570.8 C 328.6 1670.5, 402.9 1816.4, 204.3 1716.7 C 5.8 1617.0, 95.3 1634.3, -27.5 1373.3 C -150.2 1112.3, -100.8 1267.7, -100.8 945.0 C -100.8 622.4, -78.8 808.2, 43.9 547.2 C 166.7 286.2, 44.5 316.2, 243.0 216.5 C 441.6 116.8, 311.7 185.4, 510.3 285.1 C 708.9 384.8, 575.7 258.8, 698.4 519.9 C 821.2 780.9, 825.6 622.3, 825.6 945.0 Z" fill="#DFF8FF" opacity="0.12" stroke="#FFFFFF" stroke-opacity="0.46" stroke-width="3" filter="url(#soft_ambient_03_4404)"/>
  <path d="M 825.6 945.0 C 825.6 1267.7, 865.2 1157.5, 742.4 1418.5 C 619.7 1679.6, 725.7 1471.0, 527.1 1570.8 C 328.6 1670.5, 402.9 1816.4, 204.3 1716.7 C 5.8 1617.0, 95.3 1634.3, -27.5 1373.3 C -150.2 1112.3, -100.8 1267.7, -100.8 945.0 C -100.8 622.4, -78.8 808.2, 43.9 547.2 C 166.7 286.2, 44.5 316.2, 243.0 216.5 C 441.6 116.8, 311.7 185.4, 510.3 285.1 C 708.9 384.8, 575.7 258.8, 698.4 519.9 C 821.2 780.9, 825.6 622.3, 825.6 945.0 Z" fill="none" stroke="#FFFFFF" stroke-opacity="0.22" stroke-width="1.2"/>
  <path d="M -100.0 2268.5 Q 133.3 2681.2, 366.7 2855.2 Q 600.0 2450.5, 833.3 2312.5 Q 1066.7 2690.2, 1300.0 2845.0" fill="none" stroke="#FFFFFF" stroke-opacity="0.38" stroke-width="4" filter="url(#soft_ambient_03_4404)"/>
  <path d="M -100.0 2268.5 Q 133.3 2681.2, 366.7 2855.2 Q 600.0 2450.5, 833.3 2312.5 Q 1066.7 2690.2, 1300.0 2845.0" fill="none" stroke="#D6C2FF" stroke-opacity="0.18" stroke-width="2"/>
  <path d="M -100.0 1708.7 Q 133.3 1901.3, 366.7 2243.1 Q 600.0 2070.5, 833.3 1914.7 Q 1066.7 1609.6, 1300.0 1761.8" fill="none" stroke="#FFFFFF" stroke-opacity="0.38" stroke-width="4" filter="url(#soft_ambient_03_4404)"/>
  <path d="M -100.0 1708.7 Q 133.3 1901.3, 366.7 2243.1 Q 600.0 2070.5, 833.3 1914.7 Q 1066.7 1609.6, 1300.0 1761.8" fill="none" stroke="#D6C2FF" stroke-opacity="0.18" stroke-width="2"/>
  <path d="M -100.0 709.4 Q 133.3 848.8, 366.7 1025.3 Q 600.0 796.3, 833.3 579.6 Q 1066.7 740.7, 1300.0 1100.0" fill="none" stroke="#FFFFFF" stroke-opacity="0.38" stroke-width="4" filter="url(#soft_ambient_03_4404)"/>
  <path d="M -100.0 709.4 Q 133.3 848.8, 366.7 1025.3 Q 600.0 796.3, 833.3 579.6 Q 1066.7 740.7, 1300.0 1100.0" fill="none" stroke="#FFC7DA" stroke-opacity="0.18" stroke-width="2"/>
  <path d="M -100.0 1560.4 Q 133.3 1775.2, 366.7 1878.8 Q 600.0 2036.5, 833.3 1711.6 Q 1066.7 1480.4, 1300.0 1446.8" fill="none" stroke="#FFFFFF" stroke-opacity="0.38" stroke-width="4" filter="url(#soft_ambient_03_4404)"/>
  <path d="M -100.0 1560.4 Q 133.3 1775.2, 366.7 1878.8 Q 600.0 2036.5, 833.3 1711.6 Q 1066.7 1480.4, 1300.0 1446.8" fill="none" stroke="#D6C2FF" stroke-opacity="0.18" stroke-width="2"/>
  <circle cx="441" cy="-23" r="199" fill="url(#orb_ambient_03_4404)" opacity="0.36"/>
  <circle cx="441" cy="-23" r="199" fill="#FFECEF" opacity="0.08"/>
  <circle cx="441" cy="-23" r="199" fill="none" stroke="#FFFFFF" stroke-opacity="0.56" stroke-width="3"/>
  <ellipse cx="385.3" cy="-94.6" rx="35.8" ry="15.9" fill="#FFFFFF" opacity="0.42" transform="rotate(-22 385.3 -94.6)"/>
  <circle cx="1026" cy="462" r="284" fill="url(#orb_ambient_03_4404)" opacity="0.36"/>
  <circle cx="1026" cy="462" r="284" fill="#DFF8FF" opacity="0.08"/>
  <circle cx="1026" cy="462" r="284" fill="none" stroke="#FFFFFF" stroke-opacity="0.56" stroke-width="3"/>
  <ellipse cx="946.5" cy="359.8" rx="51.1" ry="22.7" fill="#FFFFFF" opacity="0.42" transform="rotate(-22 946.5 359.8)"/>
  <circle cx="1010" cy="138" r="222" fill="url(#orb_ambient_03_4404)" opacity="0.36"/>
  <circle cx="1010" cy="138" r="222" fill="#FDFFFF" opacity="0.08"/>
  <circle cx="1010" cy="138" r="222" fill="none" stroke="#FFFFFF" stroke-opacity="0.56" stroke-width="3"/>
  <ellipse cx="947.8" cy="58.1" rx="40.0" ry="17.8" fill="#FFFFFF" opacity="0.42" transform="rotate(-22 947.8 58.1)"/>
  <circle cx="431" cy="1245" r="197" fill="url(#orb_ambient_03_4404)" opacity="0.22"/>
  <circle cx="431" cy="1245" r="197" fill="#EEE5FF" opacity="0.08"/>
  <circle cx="431" cy="1245" r="197" fill="none" stroke="#FFFFFF" stroke-opacity="0.56" stroke-width="3"/>
  <ellipse cx="375.8" cy="1174.1" rx="35.5" ry="15.8" fill="#FFFFFF" opacity="0.42" transform="rotate(-22 375.8 1174.1)"/>
  <circle cx="823" cy="1340" r="258" fill="url(#orb_ambient_03_4404)" opacity="0.18"/>
  <circle cx="823" cy="1340" r="258" fill="#FDFFFF" opacity="0.08"/>
  <circle cx="823" cy="1340" r="258" fill="none" stroke="#FFFFFF" stroke-opacity="0.56" stroke-width="3"/>
  <ellipse cx="750.8" cy="1247.1" rx="46.4" ry="20.6" fill="#FFFFFF" opacity="0.42" transform="rotate(-22 750.8 1247.1)"/>
  <circle cx="140" cy="365" r="81" fill="url(#orb_ambient_03_4404)" opacity="0.21"/>
  <circle cx="140" cy="365" r="81" fill="#FDFFFF" opacity="0.08"/>
  <circle cx="140" cy="365" r="81" fill="none" stroke="#FFFFFF" stroke-opacity="0.56" stroke-width="3"/>
  <ellipse cx="117.3" cy="335.8" rx="14.6" ry="6.5" fill="#FFFFFF" opacity="0.42" transform="rotate(-22 117.3 335.8)"/>
  <circle cx="733" cy="92" r="209" fill="url(#orb_ambient_03_4404)" opacity="0.25"/>
  <circle cx="733" cy="92" r="209" fill="#DFF8FF" opacity="0.08"/>
  <circle cx="733" cy="92" r="209" fill="none" stroke="#FFFFFF" stroke-opacity="0.56" stroke-width="3"/>
  <ellipse cx="674.5" cy="16.8" rx="37.6" ry="16.7" fill="#FFFFFF" opacity="0.42" transform="rotate(-22 674.5 16.8)"/>
  <circle cx="1229" cy="344" r="218" fill="url(#orb_ambient_03_4404)" opacity="0.24"/>
  <circle cx="1229" cy="344" r="218" fill="#DFFCED" opacity="0.08"/>
  <circle cx="1229" cy="344" r="218" fill="none" stroke="#FFFFFF" stroke-opacity="0.56" stroke-width="3"/>
  <ellipse cx="1168.0" cy="265.5" rx="39.2" ry="17.4" fill="#FFFFFF" opacity="0.42" transform="rotate(-22 1168.0 265.5)"/>
  <circle cx="138" cy="1221" r="265" fill="url(#orb_ambient_03_4404)" opacity="0.23"/>
  <circle cx="138" cy="1221" r="265" fill="#D6C2FF" opacity="0.08"/>
  <circle cx="138" cy="1221" r="265" fill="none" stroke="#FFFFFF" stroke-opacity="0.56" stroke-width="3"/>
  <ellipse cx="63.8" cy="1125.6" rx="47.7" ry="21.2" fill="#FFFFFF" opacity="0.42" transform="rotate(-22 63.8 1125.6)"/>
  <circle cx="895" cy="603" r="2" fill="#FFFFFF" opacity="0.44"/>
  <circle cx="1190" cy="2124" r="7" fill="#FFFFFF" opacity="0.34"/>
  <circle cx="136" cy="2023" r="5" fill="#FFFFFF" opacity="0.63"/>
  <circle cx="106" cy="994" r="3" fill="#FFFFFF" opacity="0.31"/>
  <circle cx="620" cy="959" r="4" fill="#FFFFFF" opacity="0.66"/>
  <circle cx="95" cy="1786" r="4" fill="#FFFFFF" opacity="0.58"/>
  <circle cx="422" cy="71" r="3" fill="#FFFFFF" opacity="0.42"/>
  <circle cx="217" cy="2283" r="2" fill="#FFFFFF" opacity="0.29"/>
  <circle cx="839" cy="2325" r="4" fill="#FFFFFF" opacity="0.44"/>
  <circle cx="633" cy="2391" r="5" fill="#FFFFFF" opacity="0.31"/>
  <circle cx="24" cy="1679" r="3" fill="#FFFFFF" opacity="0.69"/>
  <circle cx="107" cy="620" r="5" fill="#FFFFFF" opacity="0.56"/>
  <circle cx="525" cy="2114" r="2" fill="#FFFFFF" opacity="0.52"/>
  <circle cx="329" cy="1743" r="4" fill="#FFFFFF" opacity="0.63"/>
  <circle cx="1167" cy="976" r="5" fill="#FFFFFF" opacity="0.61"/>
  <circle cx="682" cy="1322" r="2" fill="#FFFFFF" opacity="0.57"/>
  <circle cx="955" cy="996" r="3" fill="#FFFFFF" opacity="0.46"/>
  <circle cx="284" cy="1701" r="3" fill="#FFFFFF" opacity="0.43"/>
  <rect width="1200" height="2600" fill="#FFFFFF" opacity="0.08"/>
  <rect width="1200" height="2600" filter="url(#grain_ambient_03_4404)" opacity="0.7"/>
</svg>
